  0
SECTION
  2
HEADER
  9
$ANGBASE
  50
0.0
  9
$ANGDIR
  70
1
  9
$MEASUREMENT
  70
0
  0
ENDSEC
  0
SECTION
  2
TABLES
  0
TABLE
  2
LTYPE
  70
4
  0
LTYPE
  5
40F
  2
CONTINUOUS
  70
0
  3
Solid line
  72
65
  73
0
  40
0.0
  0
LTYPE
  5
410
  2
DASHDOT
 70
0
  3
Dash Dot ____ _ ____ _
 72
65
 73
4
 40
2.0
 49
1.25
 49
-0.25
 49
0.25
 49
-0.25
  0
LTYPE
  5
411
  2
DASHED
 70
0
  3
Dashed __ __ __ __ __
 72
65
 73
2
 40
0.75
 49
0.5
 49
-0.25
  0
LTYPE
  5
43B
  2
DOTTED
 70
0
  3
Dotted .  .  .  .
 72
65
 73
2
 40
0.2
 49
0.0
 49
-0.2
  0
ENDTAB
  0
TABLE
  2
STYLE
  70
4
  0
STYLE
  2
KICAD
  70
0
  40
0
  41
1
  42
1
  50
0
  71
0
  3
isocp.shx
  0
STYLE
  2
KICADB
  70
0
  40
0
  41
1
  42
1
  50
0
  71
0
  3
isocp.shx
  0
STYLE
  2
KICADI
  70
0
  40
0
  41
1
  42
1
  50
15
  71
0
  3
isocp.shx
  0
STYLE
  2
KICADBI
  70
0
  40
0
  41
1
  42
1
  50
15
  71
0
  3
isocp.shx
  0
ENDTAB
  0
TABLE
  2
LAYER
  70
1
  0
LAYER
  2
BLACK
  70
0
  62
7
  6
CONTINUOUS
  0
ENDTAB
  0
ENDSEC
  0
SECTION
  2
ENTITIES
0
LINE
8
BLACK
6
CONTINUOUS
10
0.607681
20
0.328614
11
0.615066
21
0.326373
0
LINE
8
BLACK
6
CONTINUOUS
10
0.615066
20
0.326373
11
0.621873
21
0.322735
0
LINE
8
BLACK
6
CONTINUOUS
10
0.621873
20
0.322735
11
0.627839
21
0.317839
0
LINE
8
BLACK
6
CONTINUOUS
10
0.627839
20
0.317839
11
0.632735
21
0.311873
0
LINE
8
BLACK
6
CONTINUOUS
10
0.632735
20
0.311873
11
0.636373
21
0.305066
0
LINE
8
BLACK
6
CONTINUOUS
10
0.636373
20
0.305066
11
0.638614
21
0.297681
0
LINE
8
BLACK
6
CONTINUOUS
10
0.638614
20
0.297681
11
0.63937
21
0.29
0
LINE
8
BLACK
6
CONTINUOUS
10
0.63937
20
0.29
11
0.638614
21
0.282319
0
LINE
8
BLACK
6
CONTINUOUS
10
0.638614
20
0.282319
11
0.636373
21
0.274934
0
LINE
8
BLACK
6
CONTINUOUS
10
0.636373
20
0.274934
11
0.632735
21
0.268127
0
LINE
8
BLACK
6
CONTINUOUS
10
0.632735
20
0.268127
11
0.627839
21
0.262161
0
LINE
8
BLACK
6
CONTINUOUS
10
0.627839
20
0.262161
11
0.621873
21
0.257265
0
LINE
8
BLACK
6
CONTINUOUS
10
0.621873
20
0.257265
11
0.615066
21
0.253627
0
LINE
8
BLACK
6
CONTINUOUS
10
0.615066
20
0.253627
11
0.607681
21
0.251386
0
LINE
8
BLACK
6
CONTINUOUS
10
0.607681
20
0.251386
11
0.6
21
0.25063
0
LINE
8
BLACK
6
CONTINUOUS
10
0.6
20
0.25063
11
0.592319
21
0.251386
0
LINE
8
BLACK
6
CONTINUOUS
10
0.592319
20
0.251386
11
0.584934
21
0.253627
0
LINE
8
BLACK
6
CONTINUOUS
10
0.584934
20
0.253627
11
0.578127
21
0.257265
0
LINE
8
BLACK
6
CONTINUOUS
10
0.578127
20
0.257265
11
0.572161
21
0.262161
0
LINE
8
BLACK
6
CONTINUOUS
10
0.572161
20
0.262161
11
0.567265
21
0.268127
0
LINE
8
BLACK
6
CONTINUOUS
10
0.567265
20
0.268127
11
0.563627
21
0.274934
0
LINE
8
BLACK
6
CONTINUOUS
10
0.563627
20
0.274934
11
0.561386
21
0.282319
0
LINE
8
BLACK
6
CONTINUOUS
10
0.561386
20
0.282319
11
0.56063
21
0.29
0
LINE
8
BLACK
6
CONTINUOUS
10
0.56063
20
0.29
11
0.561386
21
0.297681
0
LINE
8
BLACK
6
CONTINUOUS
10
0.561386
20
0.297681
11
0.563627
21
0.305066
0
LINE
8
BLACK
6
CONTINUOUS
10
0.563627
20
0.305066
11
0.567265
21
0.311873
0
LINE
8
BLACK
6
CONTINUOUS
10
0.567265
20
0.311873
11
0.572161
21
0.317839
0
LINE
8
BLACK
6
CONTINUOUS
10
0.572161
20
0.317839
11
0.578127
21
0.322735
0
LINE
8
BLACK
6
CONTINUOUS
10
0.578127
20
0.322735
11
0.584934
21
0.326373
0
LINE
8
BLACK
6
CONTINUOUS
10
0.584934
20
0.326373
11
0.592319
21
0.328614
0
LINE
8
BLACK
6
CONTINUOUS
10
0.592319
20
0.328614
11
0.6
21
0.32937
0
LINE
8
BLACK
6
CONTINUOUS
10
0.6
20
0.32937
11
0.607681
21
0.328614
0
LINE
8
BLACK
6
CONTINUOUS
10
0.42051
20
0.516316
11
0.433874
21
0.513148
0
LINE
8
BLACK
6
CONTINUOUS
10
0.433874
20
0.513148
11
0.446781
21
0.508451
0
LINE
8
BLACK
6
CONTINUOUS
10
0.446781
20
0.508451
11
0.459055
21
0.502286
0
LINE
8
BLACK
6
CONTINUOUS
10
0.459055
20
0.502286
11
0.470531
21
0.494739
0
LINE
8
BLACK
6
CONTINUOUS
10
0.470531
20
0.494739
11
0.481052
21
0.48591
0
LINE
8
BLACK
6
CONTINUOUS
10
0.481052
20
0.48591
11
0.490478
21
0.47592
0
LINE
8
BLACK
6
CONTINUOUS
10
0.490478
20
0.47592
11
0.49868
21
0.464903
0
LINE
8
BLACK
6
CONTINUOUS
10
0.49868
20
0.464903
11
0.505547
21
0.453008
0
LINE
8
BLACK
6
CONTINUOUS
10
0.505547
20
0.453008
11
0.510987
21
0.440396
0
LINE
8
BLACK
6
CONTINUOUS
10
0.510987
20
0.440396
11
0.514927
21
0.427238
0
LINE
8
BLACK
6
CONTINUOUS
10
0.514927
20
0.427238
11
0.517312
21
0.413712
0
LINE
8
BLACK
6
CONTINUOUS
10
0.517312
20
0.413712
11
0.51811
21
0.4
0
LINE
8
BLACK
6
CONTINUOUS
10
0.51811
20
0.4
11
0.517312
21
0.386288
0
LINE
8
BLACK
6
CONTINUOUS
10
0.517312
20
0.386288
11
0.514927
21
0.372762
0
LINE
8
BLACK
6
CONTINUOUS
10
0.514927
20
0.372762
11
0.510987
21
0.359604
0
LINE
8
BLACK
6
CONTINUOUS
10
0.510987
20
0.359604
11
0.505547
21
0.346992
0
LINE
8
BLACK
6
CONTINUOUS
10
0.505547
20
0.346992
11
0.49868
21
0.335097
0
LINE
8
BLACK
6
CONTINUOUS
10
0.49868
20
0.335097
11
0.490478
21
0.32408
0
LINE
8
BLACK
6
CONTINUOUS
10
0.490478
20
0.32408
11
0.481052
21
0.31409
0
LINE
8
BLACK
6
CONTINUOUS
10
0.481052
20
0.31409
11
0.470531
21
0.305261
0
LINE
8
BLACK
6
CONTINUOUS
10
0.470531
20
0.305261
11
0.459055
21
0.297714
0
LINE
8
BLACK
6
CONTINUOUS
10
0.459055
20
0.297714
11
0.446781
21
0.291549
0
LINE
8
BLACK
6
CONTINUOUS
10
0.446781
20
0.291549
11
0.433874
21
0.286852
0
LINE
8
BLACK
6
CONTINUOUS
10
0.433874
20
0.286852
11
0.42051
21
0.283684
0
LINE
8
BLACK
6
CONTINUOUS
10
0.42051
20
0.283684
11
0.406867
21
0.28209
0
LINE
8
BLACK
6
CONTINUOUS
10
0.406867
20
0.28209
11
0.393133
21
0.28209
0
LINE
8
BLACK
6
CONTINUOUS
10
0.393133
20
0.28209
11
0.37949
21
0.283684
0
LINE
8
BLACK
6
CONTINUOUS
10
0.37949
20
0.283684
11
0.366126
21
0.286852
0
LINE
8
BLACK
6
CONTINUOUS
10
0.366126
20
0.286852
11
0.353219
21
0.291549
0
LINE
8
BLACK
6
CONTINUOUS
10
0.353219
20
0.291549
11
0.340945
21
0.297714
0
LINE
8
BLACK
6
CONTINUOUS
10
0.340945
20
0.297714
11
0.329469
21
0.305261
0
LINE
8
BLACK
6
CONTINUOUS
10
0.329469
20
0.305261
11
0.318948
21
0.31409
0
LINE
8
BLACK
6
CONTINUOUS
10
0.318948
20
0.31409
11
0.309522
21
0.32408
0
LINE
8
BLACK
6
CONTINUOUS
10
0.309522
20
0.32408
11
0.30132
21
0.335097
0
LINE
8
BLACK
6
CONTINUOUS
10
0.30132
20
0.335097
11
0.294453
21
0.346992
0
LINE
8
BLACK
6
CONTINUOUS
10
0.294453
20
0.346992
11
0.289013
21
0.359604
0
LINE
8
BLACK
6
CONTINUOUS
10
0.289013
20
0.359604
11
0.285073
21
0.372762
0
LINE
8
BLACK
6
CONTINUOUS
10
0.285073
20
0.372762
11
0.282688
21
0.386288
0
LINE
8
BLACK
6
CONTINUOUS
10
0.282688
20
0.386288
11
0.28189
21
0.4
0
LINE
8
BLACK
6
CONTINUOUS
10
0.28189
20
0.4
11
0.282688
21
0.413712
0
LINE
8
BLACK
6
CONTINUOUS
10
0.282688
20
0.413712
11
0.285073
21
0.427238
0
LINE
8
BLACK
6
CONTINUOUS
10
0.285073
20
0.427238
11
0.289013
21
0.440396
0
LINE
8
BLACK
6
CONTINUOUS
10
0.289013
20
0.440396
11
0.294453
21
0.453008
0
LINE
8
BLACK
6
CONTINUOUS
10
0.294453
20
0.453008
11
0.30132
21
0.464903
0
LINE
8
BLACK
6
CONTINUOUS
10
0.30132
20
0.464903
11
0.309522
21
0.47592
0
LINE
8
BLACK
6
CONTINUOUS
10
0.309522
20
0.47592
11
0.318948
21
0.48591
0
LINE
8
BLACK
6
CONTINUOUS
10
0.318948
20
0.48591
11
0.329469
21
0.494739
0
LINE
8
BLACK
6
CONTINUOUS
10
0.329469
20
0.494739
11
0.340945
21
0.502286
0
LINE
8
BLACK
6
CONTINUOUS
10
0.340945
20
0.502286
11
0.353219
21
0.508451
0
LINE
8
BLACK
6
CONTINUOUS
10
0.353219
20
0.508451
11
0.366126
21
0.513148
0
LINE
8
BLACK
6
CONTINUOUS
10
0.366126
20
0.513148
11
0.37949
21
0.516316
0
LINE
8
BLACK
6
CONTINUOUS
10
0.37949
20
0.516316
11
0.393133
21
0.51791
0
LINE
8
BLACK
6
CONTINUOUS
10
0.393133
20
0.51791
11
0.406867
21
0.51791
0
LINE
8
BLACK
6
CONTINUOUS
10
0.406867
20
0.51791
11
0.42051
21
0.516316
0
LINE
8
BLACK
6
CONTINUOUS
10
2.42051
20
0.516316
11
2.43387
21
0.513148
0
LINE
8
BLACK
6
CONTINUOUS
10
2.43387
20
0.513148
11
2.44678
21
0.508451
0
LINE
8
BLACK
6
CONTINUOUS
10
2.44678
20
0.508451
11
2.45906
21
0.502286
0
LINE
8
BLACK
6
CONTINUOUS
10
2.45906
20
0.502286
11
2.47053
21
0.494739
0
LINE
8
BLACK
6
CONTINUOUS
10
2.47053
20
0.494739
11
2.48105
21
0.48591
0
LINE
8
BLACK
6
CONTINUOUS
10
2.48105
20
0.48591
11
2.49048
21
0.47592
0
LINE
8
BLACK
6
CONTINUOUS
10
2.49048
20
0.47592
11
2.49868
21
0.464903
0
LINE
8
BLACK
6
CONTINUOUS
10
2.49868
20
0.464903
11
2.50555
21
0.453008
0
LINE
8
BLACK
6
CONTINUOUS
10
2.50555
20
0.453008
11
2.51099
21
0.440396
0
LINE
8
BLACK
6
CONTINUOUS
10
2.51099
20
0.440396
11
2.51493
21
0.427238
0
LINE
8
BLACK
6
CONTINUOUS
10
2.51493
20
0.427238
11
2.51731
21
0.413712
0
LINE
8
BLACK
6
CONTINUOUS
10
2.51731
20
0.413712
11
2.51811
21
0.4
0
LINE
8
BLACK
6
CONTINUOUS
10
2.51811
20
0.4
11
2.51731
21
0.386288
0
LINE
8
BLACK
6
CONTINUOUS
10
2.51731
20
0.386288
11
2.51493
21
0.372762
0
LINE
8
BLACK
6
CONTINUOUS
10
2.51493
20
0.372762
11
2.51099
21
0.359604
0
LINE
8
BLACK
6
CONTINUOUS
10
2.51099
20
0.359604
11
2.50555
21
0.346992
0
LINE
8
BLACK
6
CONTINUOUS
10
2.50555
20
0.346992
11
2.49868
21
0.335097
0
LINE
8
BLACK
6
CONTINUOUS
10
2.49868
20
0.335097
11
2.49048
21
0.32408
0
LINE
8
BLACK
6
CONTINUOUS
10
2.49048
20
0.32408
11
2.48105
21
0.31409
0
LINE
8
BLACK
6
CONTINUOUS
10
2.48105
20
0.31409
11
2.47053
21
0.305261
0
LINE
8
BLACK
6
CONTINUOUS
10
2.47053
20
0.305261
11
2.45906
21
0.297714
0
LINE
8
BLACK
6
CONTINUOUS
10
2.45906
20
0.297714
11
2.44678
21
0.291549
0
LINE
8
BLACK
6
CONTINUOUS
10
2.44678
20
0.291549
11
2.43387
21
0.286852
0
LINE
8
BLACK
6
CONTINUOUS
10
2.43387
20
0.286852
11
2.42051
21
0.283684
0
LINE
8
BLACK
6
CONTINUOUS
10
2.42051
20
0.283684
11
2.40687
21
0.28209
0
LINE
8
BLACK
6
CONTINUOUS
10
2.40687
20
0.28209
11
2.39313
21
0.28209
0
LINE
8
BLACK
6
CONTINUOUS
10
2.39313
20
0.28209
11
2.37949
21
0.283684
0
LINE
8
BLACK
6
CONTINUOUS
10
2.37949
20
0.283684
11
2.36613
21
0.286852
0
LINE
8
BLACK
6
CONTINUOUS
10
2.36613
20
0.286852
11
2.35322
21
0.291549
0
LINE
8
BLACK
6
CONTINUOUS
10
2.35322
20
0.291549
11
2.34094
21
0.297714
0
LINE
8
BLACK
6
CONTINUOUS
10
2.34094
20
0.297714
11
2.32947
21
0.305261
0
LINE
8
BLACK
6
CONTINUOUS
10
2.32947
20
0.305261
11
2.31895
21
0.31409
0
LINE
8
BLACK
6
CONTINUOUS
10
2.31895
20
0.31409
11
2.30952
21
0.32408
0
LINE
8
BLACK
6
CONTINUOUS
10
2.30952
20
0.32408
11
2.30132
21
0.335097
0
LINE
8
BLACK
6
CONTINUOUS
10
2.30132
20
0.335097
11
2.29445
21
0.346992
0
LINE
8
BLACK
6
CONTINUOUS
10
2.29445
20
0.346992
11
2.28901
21
0.359604
0
LINE
8
BLACK
6
CONTINUOUS
10
2.28901
20
0.359604
11
2.28507
21
0.372762
0
LINE
8
BLACK
6
CONTINUOUS
10
2.28507
20
0.372762
11
2.28269
21
0.386288
0
LINE
8
BLACK
6
CONTINUOUS
10
2.28269
20
0.386288
11
2.28189
21
0.4
0
LINE
8
BLACK
6
CONTINUOUS
10
2.28189
20
0.4
11
2.28269
21
0.413712
0
LINE
8
BLACK
6
CONTINUOUS
10
2.28269
20
0.413712
11
2.28507
21
0.427238
0
LINE
8
BLACK
6
CONTINUOUS
10
2.28507
20
0.427238
11
2.28901
21
0.440396
0
LINE
8
BLACK
6
CONTINUOUS
10
2.28901
20
0.440396
11
2.29445
21
0.453008
0
LINE
8
BLACK
6
CONTINUOUS
10
2.29445
20
0.453008
11
2.30132
21
0.464903
0
LINE
8
BLACK
6
CONTINUOUS
10
2.30132
20
0.464903
11
2.30952
21
0.47592
0
LINE
8
BLACK
6
CONTINUOUS
10
2.30952
20
0.47592
11
2.31895
21
0.48591
0
LINE
8
BLACK
6
CONTINUOUS
10
2.31895
20
0.48591
11
2.32947
21
0.494739
0
LINE
8
BLACK
6
CONTINUOUS
10
2.32947
20
0.494739
11
2.34094
21
0.502286
0
LINE
8
BLACK
6
CONTINUOUS
10
2.34094
20
0.502286
11
2.35322
21
0.508451
0
LINE
8
BLACK
6
CONTINUOUS
10
2.35322
20
0.508451
11
2.36613
21
0.513148
0
LINE
8
BLACK
6
CONTINUOUS
10
2.36613
20
0.513148
11
2.37949
21
0.516316
0
LINE
8
BLACK
6
CONTINUOUS
10
2.37949
20
0.516316
11
2.39313
21
0.51791
0
LINE
8
BLACK
6
CONTINUOUS
10
2.39313
20
0.51791
11
2.40687
21
0.51791
0
LINE
8
BLACK
6
CONTINUOUS
10
2.40687
20
0.51791
11
2.42051
21
0.516316
0
LINE
8
BLACK
6
CONTINUOUS
10
0.884252
20
0.393701
11
0.884252
21
0.354331
0
LINE
8
BLACK
6
CONTINUOUS
10
0.884252
20
0.354331
11
0.793701
21
0.354331
0
LINE
8
BLACK
6
CONTINUOUS
10
0.793701
20
0.354331
11
0.754331
21
0.354331
0
LINE
8
BLACK
6
CONTINUOUS
10
0.754331
20
0.354331
11
0.754331
21
0.393701
0
LINE
8
BLACK
6
CONTINUOUS
10
0.754331
20
0.393701
11
0.754331
21
0.484252
0
LINE
8
BLACK
6
CONTINUOUS
10
0.754331
20
0.484252
11
0.793701
21
0.484252
0
LINE
8
BLACK
6
CONTINUOUS
10
0.793701
20
0.484252
11
0.793701
21
0.393701
0
LINE
8
BLACK
6
CONTINUOUS
10
0.793701
20
0.393701
11
0.884252
21
0.393701
0
LINE
8
BLACK
6
CONTINUOUS
10
1.12047
20
0.354331
11
0.970866
21
0.354331
0
LINE
8
BLACK
6
CONTINUOUS
10
0.970866
20
0.354331
11
0.970866
21
0.393701
0
LINE
8
BLACK
6
CONTINUOUS
10
0.970866
20
0.393701
11
1.12047
21
0.393701
0
LINE
8
BLACK
6
CONTINUOUS
10
1.12047
20
0.393701
11
1.12047
21
0.354331
0
LINE
8
BLACK
6
CONTINUOUS
10
1.35669
20
0.354331
11
1.20709
21
0.354331
0
LINE
8
BLACK
6
CONTINUOUS
10
1.20709
20
0.354331
11
1.20709
21
0.393701
0
LINE
8
BLACK
6
CONTINUOUS
10
1.20709
20
0.393701
11
1.35669
21
0.393701
0
LINE
8
BLACK
6
CONTINUOUS
10
1.35669
20
0.393701
11
1.35669
21
0.354331
0
LINE
8
BLACK
6
CONTINUOUS
10
1.59291
20
0.354331
11
1.44331
21
0.354331
0
LINE
8
BLACK
6
CONTINUOUS
10
1.44331
20
0.354331
11
1.44331
21
0.393701
0
LINE
8
BLACK
6
CONTINUOUS
10
1.44331
20
0.393701
11
1.59291
21
0.393701
0
LINE
8
BLACK
6
CONTINUOUS
10
1.59291
20
0.393701
11
1.59291
21
0.354331
0
LINE
8
BLACK
6
CONTINUOUS
10
1.82913
20
0.354331
11
1.67953
21
0.354331
0
LINE
8
BLACK
6
CONTINUOUS
10
1.67953
20
0.354331
11
1.67953
21
0.393701
0
LINE
8
BLACK
6
CONTINUOUS
10
1.67953
20
0.393701
11
1.82913
21
0.393701
0
LINE
8
BLACK
6
CONTINUOUS
10
1.82913
20
0.393701
11
1.82913
21
0.354331
0
LINE
8
BLACK
6
CONTINUOUS
10
2.0063
20
0.393701
11
2.0063
21
0.484252
0
LINE
8
BLACK
6
CONTINUOUS
10
2.0063
20
0.484252
11
2.04567
21
0.484252
0
LINE
8
BLACK
6
CONTINUOUS
10
2.04567
20
0.484252
11
2.04567
21
0.393701
0
LINE
8
BLACK
6
CONTINUOUS
10
2.04567
20
0.393701
11
2.04567
21
0.354331
0
LINE
8
BLACK
6
CONTINUOUS
10
2.04567
20
0.354331
11
2.0063
21
0.354331
0
LINE
8
BLACK
6
CONTINUOUS
10
2.0063
20
0.354331
11
1.91575
21
0.354331
0
LINE
8
BLACK
6
CONTINUOUS
10
1.91575
20
0.354331
11
1.91575
21
0.393701
0
LINE
8
BLACK
6
CONTINUOUS
10
1.91575
20
0.393701
11
2.0063
21
0.393701
0
LINE
8
BLACK
6
CONTINUOUS
10
0.626208
20
0.452794
11
0.629401
21
0.450661
0
LINE
8
BLACK
6
CONTINUOUS
10
0.629401
20
0.450661
11
0.631534
21
0.447467
0
LINE
8
BLACK
6
CONTINUOUS
10
0.631534
20
0.447467
11
0.632283
21
0.443701
0
LINE
8
BLACK
6
CONTINUOUS
10
0.632283
20
0.443701
11
0.632283
21
0.406299
0
LINE
8
BLACK
6
CONTINUOUS
10
0.632283
20
0.406299
11
0.631534
21
0.402533
0
LINE
8
BLACK
6
CONTINUOUS
10
0.631534
20
0.402533
11
0.629401
21
0.399339
0
LINE
8
BLACK
6
CONTINUOUS
10
0.629401
20
0.399339
11
0.626208
21
0.397206
0
LINE
8
BLACK
6
CONTINUOUS
10
0.626208
20
0.397206
11
0.622441
21
0.396457
0
LINE
8
BLACK
6
CONTINUOUS
10
0.622441
20
0.396457
11
0.602756
21
0.396457
0
LINE
8
BLACK
6
CONTINUOUS
10
0.602756
20
0.396457
11
0.598989
21
0.397206
0
LINE
8
BLACK
6
CONTINUOUS
10
0.598989
20
0.397206
11
0.595796
21
0.399339
0
LINE
8
BLACK
6
CONTINUOUS
10
0.595796
20
0.399339
11
0.593663
21
0.402533
0
LINE
8
BLACK
6
CONTINUOUS
10
0.593663
20
0.402533
11
0.592913
21
0.406299
0
LINE
8
BLACK
6
CONTINUOUS
10
0.592913
20
0.406299
11
0.592913
21
0.443701
0
LINE
8
BLACK
6
CONTINUOUS
10
0.592913
20
0.443701
11
0.593663
21
0.447467
0
LINE
8
BLACK
6
CONTINUOUS
10
0.593663
20
0.447467
11
0.595796
21
0.450661
0
LINE
8
BLACK
6
CONTINUOUS
10
0.595796
20
0.450661
11
0.598989
21
0.452794
0
LINE
8
BLACK
6
CONTINUOUS
10
0.598989
20
0.452794
11
0.602756
21
0.453543
0
LINE
8
BLACK
6
CONTINUOUS
10
0.602756
20
0.453543
11
0.622441
21
0.453543
0
LINE
8
BLACK
6
CONTINUOUS
10
0.622441
20
0.453543
11
0.626208
21
0.452794
0
LINE
8
BLACK
6
CONTINUOUS
10
0.701011
20
0.452794
11
0.704204
21
0.450661
0
LINE
8
BLACK
6
CONTINUOUS
10
0.704204
20
0.450661
11
0.706337
21
0.447467
0
LINE
8
BLACK
6
CONTINUOUS
10
0.706337
20
0.447467
11
0.707087
21
0.443701
0
LINE
8
BLACK
6
CONTINUOUS
10
0.707087
20
0.443701
11
0.707087
21
0.406299
0
LINE
8
BLACK
6
CONTINUOUS
10
0.707087
20
0.406299
11
0.706337
21
0.402533
0
LINE
8
BLACK
6
CONTINUOUS
10
0.706337
20
0.402533
11
0.704204
21
0.399339
0
LINE
8
BLACK
6
CONTINUOUS
10
0.704204
20
0.399339
11
0.701011
21
0.397206
0
LINE
8
BLACK
6
CONTINUOUS
10
0.701011
20
0.397206
11
0.697244
21
0.396457
0
LINE
8
BLACK
6
CONTINUOUS
10
0.697244
20
0.396457
11
0.677559
21
0.396457
0
LINE
8
BLACK
6
CONTINUOUS
10
0.677559
20
0.396457
11
0.673792
21
0.397206
0
LINE
8
BLACK
6
CONTINUOUS
10
0.673792
20
0.397206
11
0.670599
21
0.399339
0
LINE
8
BLACK
6
CONTINUOUS
10
0.670599
20
0.399339
11
0.668466
21
0.402533
0
LINE
8
BLACK
6
CONTINUOUS
10
0.668466
20
0.402533
11
0.667717
21
0.406299
0
LINE
8
BLACK
6
CONTINUOUS
10
0.667717
20
0.406299
11
0.667717
21
0.443701
0
LINE
8
BLACK
6
CONTINUOUS
10
0.667717
20
0.443701
11
0.668466
21
0.447467
0
LINE
8
BLACK
6
CONTINUOUS
10
0.668466
20
0.447467
11
0.670599
21
0.450661
0
LINE
8
BLACK
6
CONTINUOUS
10
0.670599
20
0.450661
11
0.673792
21
0.452794
0
LINE
8
BLACK
6
CONTINUOUS
10
0.673792
20
0.452794
11
0.677559
21
0.453543
0
LINE
8
BLACK
6
CONTINUOUS
10
0.677559
20
0.453543
11
0.697244
21
0.453543
0
LINE
8
BLACK
6
CONTINUOUS
10
0.697244
20
0.453543
11
0.701011
21
0.452794
0
LINE
8
BLACK
6
CONTINUOUS
10
0.577929
20
0.540509
11
0.580962
21
0.538482
0
LINE
8
BLACK
6
CONTINUOUS
10
0.580962
20
0.538482
11
0.582989
21
0.535448
0
LINE
8
BLACK
6
CONTINUOUS
10
0.582989
20
0.535448
11
0.583701
21
0.53187
0
LINE
8
BLACK
6
CONTINUOUS
10
0.583701
20
0.53187
11
0.583701
21
0.509232
0
LINE
8
BLACK
6
CONTINUOUS
10
0.583701
20
0.509232
11
0.582989
21
0.505654
0
LINE
8
BLACK
6
CONTINUOUS
10
0.582989
20
0.505654
11
0.580962
21
0.502621
0
LINE
8
BLACK
6
CONTINUOUS
10
0.580962
20
0.502621
11
0.577929
21
0.500594
0
LINE
8
BLACK
6
CONTINUOUS
10
0.577929
20
0.500594
11
0.57435
21
0.499882
0
LINE
8
BLACK
6
CONTINUOUS
10
0.57435
20
0.499882
11
0.55565
21
0.499882
0
LINE
8
BLACK
6
CONTINUOUS
10
0.55565
20
0.499882
11
0.552071
21
0.500594
0
LINE
8
BLACK
6
CONTINUOUS
10
0.552071
20
0.500594
11
0.549038
21
0.502621
0
LINE
8
BLACK
6
CONTINUOUS
10
0.549038
20
0.502621
11
0.547011
21
0.505654
0
LINE
8
BLACK
6
CONTINUOUS
10
0.547011
20
0.505654
11
0.546299
21
0.509232
0
LINE
8
BLACK
6
CONTINUOUS
10
0.546299
20
0.509232
11
0.546299
21
0.53187
0
LINE
8
BLACK
6
CONTINUOUS
10
0.546299
20
0.53187
11
0.547011
21
0.535448
0
LINE
8
BLACK
6
CONTINUOUS
10
0.547011
20
0.535448
11
0.549038
21
0.538482
0
LINE
8
BLACK
6
CONTINUOUS
10
0.549038
20
0.538482
11
0.552071
21
0.540509
0
LINE
8
BLACK
6
CONTINUOUS
10
0.552071
20
0.540509
11
0.55565
21
0.54122
0
LINE
8
BLACK
6
CONTINUOUS
10
0.55565
20
0.54122
11
0.57435
21
0.54122
0
LINE
8
BLACK
6
CONTINUOUS
10
0.57435
20
0.54122
11
0.577929
21
0.540509
0
LINE
8
BLACK
6
CONTINUOUS
10
1.21207
20
0.573818
11
1.21527
21
0.571684
0
LINE
8
BLACK
6
CONTINUOUS
10
1.21527
20
0.571684
11
1.2174
21
0.568491
0
LINE
8
BLACK
6
CONTINUOUS
10
1.2174
20
0.568491
11
1.21815
21
0.564724
0
LINE
8
BLACK
6
CONTINUOUS
10
1.21815
20
0.564724
11
1.21815
21
0.539134
0
LINE
8
BLACK
6
CONTINUOUS
10
1.21815
20
0.539134
11
1.2174
21
0.535367
0
LINE
8
BLACK
6
CONTINUOUS
10
1.2174
20
0.535367
11
1.21527
21
0.532174
0
LINE
8
BLACK
6
CONTINUOUS
10
1.21527
20
0.532174
11
1.21207
21
0.530041
0
LINE
8
BLACK
6
CONTINUOUS
10
1.21207
20
0.530041
11
1.20831
21
0.529291
0
LINE
8
BLACK
6
CONTINUOUS
10
1.20831
20
0.529291
11
1.12169
21
0.529291
0
LINE
8
BLACK
6
CONTINUOUS
10
1.12169
20
0.529291
11
1.11793
21
0.530041
0
LINE
8
BLACK
6
CONTINUOUS
10
1.11793
20
0.530041
11
1.11473
21
0.532174
0
LINE
8
BLACK
6
CONTINUOUS
10
1.11473
20
0.532174
11
1.1126
21
0.535367
0
LINE
8
BLACK
6
CONTINUOUS
10
1.1126
20
0.535367
11
1.11185
21
0.539134
0
LINE
8
BLACK
6
CONTINUOUS
10
1.11185
20
0.539134
11
1.11185
21
0.564724
0
LINE
8
BLACK
6
CONTINUOUS
10
1.11185
20
0.564724
11
1.1126
21
0.568491
0
LINE
8
BLACK
6
CONTINUOUS
10
1.1126
20
0.568491
11
1.11473
21
0.571684
0
LINE
8
BLACK
6
CONTINUOUS
10
1.11473
20
0.571684
11
1.11793
21
0.573818
0
LINE
8
BLACK
6
CONTINUOUS
10
1.11793
20
0.573818
11
1.12169
21
0.574567
0
LINE
8
BLACK
6
CONTINUOUS
10
1.12169
20
0.574567
11
1.20831
21
0.574567
0
LINE
8
BLACK
6
CONTINUOUS
10
1.20831
20
0.574567
11
1.21207
21
0.573818
0
LINE
8
BLACK
6
CONTINUOUS
10
1.30825
20
0.596177
11
1.31459
21
0.593958
0
LINE
8
BLACK
6
CONTINUOUS
10
1.31459
20
0.593958
11
1.32028
21
0.590384
0
LINE
8
BLACK
6
CONTINUOUS
10
1.32028
20
0.590384
11
1.32503
21
0.585634
0
LINE
8
BLACK
6
CONTINUOUS
10
1.32503
20
0.585634
11
1.3286
21
0.579946
0
LINE
8
BLACK
6
CONTINUOUS
10
1.3286
20
0.579946
11
1.33082
21
0.573605
0
LINE
8
BLACK
6
CONTINUOUS
10
1.33082
20
0.573605
11
1.33157
21
0.566929
0
LINE
8
BLACK
6
CONTINUOUS
10
1.33157
20
0.566929
11
1.33082
21
0.560254
0
LINE
8
BLACK
6
CONTINUOUS
10
1.33082
20
0.560254
11
1.3286
21
0.553913
0
LINE
8
BLACK
6
CONTINUOUS
10
1.3286
20
0.553913
11
1.32503
21
0.548224
0
LINE
8
BLACK
6
CONTINUOUS
10
1.32503
20
0.548224
11
1.32028
21
0.543474
0
LINE
8
BLACK
6
CONTINUOUS
10
1.32028
20
0.543474
11
1.31459
21
0.5399
0
LINE
8
BLACK
6
CONTINUOUS
10
1.31459
20
0.5399
11
1.30825
21
0.537681
0
LINE
8
BLACK
6
CONTINUOUS
10
1.30825
20
0.537681
11
1.30157
21
0.536929
0
LINE
8
BLACK
6
CONTINUOUS
10
1.30157
20
0.536929
11
1.2949
21
0.537681
0
LINE
8
BLACK
6
CONTINUOUS
10
1.2949
20
0.537681
11
1.28856
21
0.5399
0
LINE
8
BLACK
6
CONTINUOUS
10
1.28856
20
0.5399
11
1.28287
21
0.543474
0
LINE
8
BLACK
6
CONTINUOUS
10
1.28287
20
0.543474
11
1.27812
21
0.548224
0
LINE
8
BLACK
6
CONTINUOUS
10
1.27812
20
0.548224
11
1.27455
21
0.553913
0
LINE
8
BLACK
6
CONTINUOUS
10
1.27455
20
0.553913
11
1.27233
21
0.560254
0
LINE
8
BLACK
6
CONTINUOUS
10
1.27233
20
0.560254
11
1.27157
21
0.566929
0
LINE
8
BLACK
6
CONTINUOUS
10
1.27157
20
0.566929
11
1.27233
21
0.573605
0
LINE
8
BLACK
6
CONTINUOUS
10
1.27233
20
0.573605
11
1.27455
21
0.579946
0
LINE
8
BLACK
6
CONTINUOUS
10
1.27455
20
0.579946
11
1.27812
21
0.585634
0
LINE
8
BLACK
6
CONTINUOUS
10
1.27812
20
0.585634
11
1.28287
21
0.590384
0
LINE
8
BLACK
6
CONTINUOUS
10
1.28287
20
0.590384
11
1.28856
21
0.593958
0
LINE
8
BLACK
6
CONTINUOUS
10
1.28856
20
0.593958
11
1.2949
21
0.596177
0
LINE
8
BLACK
6
CONTINUOUS
10
1.2949
20
0.596177
11
1.30157
21
0.596929
0
LINE
8
BLACK
6
CONTINUOUS
10
1.30157
20
0.596929
11
1.30825
21
0.596177
0
LINE
8
BLACK
6
CONTINUOUS
10
1.5051
20
0.596177
11
1.51144
21
0.593958
0
LINE
8
BLACK
6
CONTINUOUS
10
1.51144
20
0.593958
11
1.51713
21
0.590384
0
LINE
8
BLACK
6
CONTINUOUS
10
1.51713
20
0.590384
11
1.52188
21
0.585634
0
LINE
8
BLACK
6
CONTINUOUS
10
1.52188
20
0.585634
11
1.52545
21
0.579946
0
LINE
8
BLACK
6
CONTINUOUS
10
1.52545
20
0.579946
11
1.52767
21
0.573605
0
LINE
8
BLACK
6
CONTINUOUS
10
1.52767
20
0.573605
11
1.52843
21
0.566929
0
LINE
8
BLACK
6
CONTINUOUS
10
1.52843
20
0.566929
11
1.52767
21
0.560254
0
LINE
8
BLACK
6
CONTINUOUS
10
1.52767
20
0.560254
11
1.52545
21
0.553913
0
LINE
8
BLACK
6
CONTINUOUS
10
1.52545
20
0.553913
11
1.52188
21
0.548224
0
LINE
8
BLACK
6
CONTINUOUS
10
1.52188
20
0.548224
11
1.51713
21
0.543474
0
LINE
8
BLACK
6
CONTINUOUS
10
1.51713
20
0.543474
11
1.51144
21
0.5399
0
LINE
8
BLACK
6
CONTINUOUS
10
1.51144
20
0.5399
11
1.5051
21
0.537681
0
LINE
8
BLACK
6
CONTINUOUS
10
1.5051
20
0.537681
11
1.49843
21
0.536929
0
LINE
8
BLACK
6
CONTINUOUS
10
1.49843
20
0.536929
11
1.49175
21
0.537681
0
LINE
8
BLACK
6
CONTINUOUS
10
1.49175
20
0.537681
11
1.48541
21
0.5399
0
LINE
8
BLACK
6
CONTINUOUS
10
1.48541
20
0.5399
11
1.47972
21
0.543474
0
LINE
8
BLACK
6
CONTINUOUS
10
1.47972
20
0.543474
11
1.47497
21
0.548224
0
LINE
8
BLACK
6
CONTINUOUS
10
1.47497
20
0.548224
11
1.4714
21
0.553913
0
LINE
8
BLACK
6
CONTINUOUS
10
1.4714
20
0.553913
11
1.46918
21
0.560254
0
LINE
8
BLACK
6
CONTINUOUS
10
1.46918
20
0.560254
11
1.46843
21
0.566929
0
LINE
8
BLACK
6
CONTINUOUS
10
1.46843
20
0.566929
11
1.46918
21
0.573605
0
LINE
8
BLACK
6
CONTINUOUS
10
1.46918
20
0.573605
11
1.4714
21
0.579946
0
LINE
8
BLACK
6
CONTINUOUS
10
1.4714
20
0.579946
11
1.47497
21
0.585634
0
LINE
8
BLACK
6
CONTINUOUS
10
1.47497
20
0.585634
11
1.47972
21
0.590384
0
LINE
8
BLACK
6
CONTINUOUS
10
1.47972
20
0.590384
11
1.48541
21
0.593958
0
LINE
8
BLACK
6
CONTINUOUS
10
1.48541
20
0.593958
11
1.49175
21
0.596177
0
LINE
8
BLACK
6
CONTINUOUS
10
1.49175
20
0.596177
11
1.49843
21
0.596929
0
LINE
8
BLACK
6
CONTINUOUS
10
1.49843
20
0.596929
11
1.5051
21
0.596177
0
LINE
8
BLACK
6
CONTINUOUS
10
0.646208
20
0.607794
11
0.649401
21
0.605661
0
LINE
8
BLACK
6
CONTINUOUS
10
0.649401
20
0.605661
11
0.651534
21
0.602467
0
LINE
8
BLACK
6
CONTINUOUS
10
0.651534
20
0.602467
11
0.652283
21
0.598701
0
LINE
8
BLACK
6
CONTINUOUS
10
0.652283
20
0.598701
11
0.652283
21
0.561299
0
LINE
8
BLACK
6
CONTINUOUS
10
0.652283
20
0.561299
11
0.651534
21
0.557533
0
LINE
8
BLACK
6
CONTINUOUS
10
0.651534
20
0.557533
11
0.649401
21
0.554339
0
LINE
8
BLACK
6
CONTINUOUS
10
0.649401
20
0.554339
11
0.646208
21
0.552206
0
LINE
8
BLACK
6
CONTINUOUS
10
0.646208
20
0.552206
11
0.642441
21
0.551457
0
LINE
8
BLACK
6
CONTINUOUS
10
0.642441
20
0.551457
11
0.622756
21
0.551457
0
LINE
8
BLACK
6
CONTINUOUS
10
0.622756
20
0.551457
11
0.618989
21
0.552206
0
LINE
8
BLACK
6
CONTINUOUS
10
0.618989
20
0.552206
11
0.615796
21
0.554339
0
LINE
8
BLACK
6
CONTINUOUS
10
0.615796
20
0.554339
11
0.613663
21
0.557533
0
LINE
8
BLACK
6
CONTINUOUS
10
0.613663
20
0.557533
11
0.612913
21
0.561299
0
LINE
8
BLACK
6
CONTINUOUS
10
0.612913
20
0.561299
11
0.612913
21
0.598701
0
LINE
8
BLACK
6
CONTINUOUS
10
0.612913
20
0.598701
11
0.613663
21
0.602467
0
LINE
8
BLACK
6
CONTINUOUS
10
0.613663
20
0.602467
11
0.615796
21
0.605661
0
LINE
8
BLACK
6
CONTINUOUS
10
0.615796
20
0.605661
11
0.618989
21
0.607794
0
LINE
8
BLACK
6
CONTINUOUS
10
0.618989
20
0.607794
11
0.622756
21
0.608543
0
LINE
8
BLACK
6
CONTINUOUS
10
0.622756
20
0.608543
11
0.642441
21
0.608543
0
LINE
8
BLACK
6
CONTINUOUS
10
0.642441
20
0.608543
11
0.646208
21
0.607794
0
LINE
8
BLACK
6
CONTINUOUS
10
0.721011
20
0.607794
11
0.724204
21
0.605661
0
LINE
8
BLACK
6
CONTINUOUS
10
0.724204
20
0.605661
11
0.726337
21
0.602467
0
LINE
8
BLACK
6
CONTINUOUS
10
0.726337
20
0.602467
11
0.727087
21
0.598701
0
LINE
8
BLACK
6
CONTINUOUS
10
0.727087
20
0.598701
11
0.727087
21
0.561299
0
LINE
8
BLACK
6
CONTINUOUS
10
0.727087
20
0.561299
11
0.726337
21
0.557533
0
LINE
8
BLACK
6
CONTINUOUS
10
0.726337
20
0.557533
11
0.724204
21
0.554339
0
LINE
8
BLACK
6
CONTINUOUS
10
0.724204
20
0.554339
11
0.721011
21
0.552206
0
LINE
8
BLACK
6
CONTINUOUS
10
0.721011
20
0.552206
11
0.717244
21
0.551457
0
LINE
8
BLACK
6
CONTINUOUS
10
0.717244
20
0.551457
11
0.697559
21
0.551457
0
LINE
8
BLACK
6
CONTINUOUS
10
0.697559
20
0.551457
11
0.693792
21
0.552206
0
LINE
8
BLACK
6
CONTINUOUS
10
0.693792
20
0.552206
11
0.690599
21
0.554339
0
LINE
8
BLACK
6
CONTINUOUS
10
0.690599
20
0.554339
11
0.688466
21
0.557533
0
LINE
8
BLACK
6
CONTINUOUS
10
0.688466
20
0.557533
11
0.687717
21
0.561299
0
LINE
8
BLACK
6
CONTINUOUS
10
0.687717
20
0.561299
11
0.687717
21
0.598701
0
LINE
8
BLACK
6
CONTINUOUS
10
0.687717
20
0.598701
11
0.688466
21
0.602467
0
LINE
8
BLACK
6
CONTINUOUS
10
0.688466
20
0.602467
11
0.690599
21
0.605661
0
LINE
8
BLACK
6
CONTINUOUS
10
0.690599
20
0.605661
11
0.693792
21
0.607794
0
LINE
8
BLACK
6
CONTINUOUS
10
0.693792
20
0.607794
11
0.697559
21
0.608543
0
LINE
8
BLACK
6
CONTINUOUS
10
0.697559
20
0.608543
11
0.717244
21
0.608543
0
LINE
8
BLACK
6
CONTINUOUS
10
0.717244
20
0.608543
11
0.721011
21
0.607794
0
LINE
8
BLACK
6
CONTINUOUS
10
1.06148
20
0.593503
11
1.06468
21
0.591369
0
LINE
8
BLACK
6
CONTINUOUS
10
1.06468
20
0.591369
11
1.06681
21
0.588176
0
LINE
8
BLACK
6
CONTINUOUS
10
1.06681
20
0.588176
11
1.06756
21
0.584409
0
LINE
8
BLACK
6
CONTINUOUS
10
1.06756
20
0.584409
11
1.06756
21
0.56374
0
LINE
8
BLACK
6
CONTINUOUS
10
1.06756
20
0.56374
11
1.06681
21
0.559974
0
LINE
8
BLACK
6
CONTINUOUS
10
1.06681
20
0.559974
11
1.06468
21
0.55678
0
LINE
8
BLACK
6
CONTINUOUS
10
1.06468
20
0.55678
11
1.06148
21
0.554647
0
LINE
8
BLACK
6
CONTINUOUS
10
1.06148
20
0.554647
11
1.05772
21
0.553898
0
LINE
8
BLACK
6
CONTINUOUS
10
1.05772
20
0.553898
11
1.02228
21
0.553898
0
LINE
8
BLACK
6
CONTINUOUS
10
1.02228
20
0.553898
11
1.01852
21
0.554647
0
LINE
8
BLACK
6
CONTINUOUS
10
1.01852
20
0.554647
11
1.01532
21
0.55678
0
LINE
8
BLACK
6
CONTINUOUS
10
1.01532
20
0.55678
11
1.01319
21
0.559974
0
LINE
8
BLACK
6
CONTINUOUS
10
1.01319
20
0.559974
11
1.01244
21
0.56374
0
LINE
8
BLACK
6
CONTINUOUS
10
1.01244
20
0.56374
11
1.01244
21
0.584409
0
LINE
8
BLACK
6
CONTINUOUS
10
1.01244
20
0.584409
11
1.01319
21
0.588176
0
LINE
8
BLACK
6
CONTINUOUS
10
1.01319
20
0.588176
11
1.01532
21
0.591369
0
LINE
8
BLACK
6
CONTINUOUS
10
1.01532
20
0.591369
11
1.01852
21
0.593503
0
LINE
8
BLACK
6
CONTINUOUS
10
1.01852
20
0.593503
11
1.02228
21
0.594252
0
LINE
8
BLACK
6
CONTINUOUS
10
1.02228
20
0.594252
11
1.05772
21
0.594252
0
LINE
8
BLACK
6
CONTINUOUS
10
1.05772
20
0.594252
11
1.06148
21
0.593503
0
LINE
8
BLACK
6
CONTINUOUS
10
0.888176
20
0.621495
11
0.891369
21
0.619361
0
LINE
8
BLACK
6
CONTINUOUS
10
0.891369
20
0.619361
11
0.893503
21
0.616168
0
LINE
8
BLACK
6
CONTINUOUS
10
0.893503
20
0.616168
11
0.894252
21
0.612402
0
LINE
8
BLACK
6
CONTINUOUS
10
0.894252
20
0.612402
11
0.894252
21
0.576969
0
LINE
8
BLACK
6
CONTINUOUS
10
0.894252
20
0.576969
11
0.893503
21
0.573202
0
LINE
8
BLACK
6
CONTINUOUS
10
0.893503
20
0.573202
11
0.891369
21
0.570009
0
LINE
8
BLACK
6
CONTINUOUS
10
0.891369
20
0.570009
11
0.888176
21
0.567875
0
LINE
8
BLACK
6
CONTINUOUS
10
0.888176
20
0.567875
11
0.884409
21
0.567126
0
LINE
8
BLACK
6
CONTINUOUS
10
0.884409
20
0.567126
11
0.86374
21
0.567126
0
LINE
8
BLACK
6
CONTINUOUS
10
0.86374
20
0.567126
11
0.859974
21
0.567875
0
LINE
8
BLACK
6
CONTINUOUS
10
0.859974
20
0.567875
11
0.85678
21
0.570009
0
LINE
8
BLACK
6
CONTINUOUS
10
0.85678
20
0.570009
11
0.854647
21
0.573202
0
LINE
8
BLACK
6
CONTINUOUS
10
0.854647
20
0.573202
11
0.853898
21
0.576969
0
LINE
8
BLACK
6
CONTINUOUS
10
0.853898
20
0.576969
11
0.853898
21
0.612402
0
LINE
8
BLACK
6
CONTINUOUS
10
0.853898
20
0.612402
11
0.854647
21
0.616168
0
LINE
8
BLACK
6
CONTINUOUS
10
0.854647
20
0.616168
11
0.85678
21
0.619361
0
LINE
8
BLACK
6
CONTINUOUS
10
0.85678
20
0.619361
11
0.859974
21
0.621495
0
LINE
8
BLACK
6
CONTINUOUS
10
0.859974
20
0.621495
11
0.86374
21
0.622244
0
LINE
8
BLACK
6
CONTINUOUS
10
0.86374
20
0.622244
11
0.884409
21
0.622244
0
LINE
8
BLACK
6
CONTINUOUS
10
0.884409
20
0.622244
11
0.888176
21
0.621495
0
LINE
8
BLACK
6
CONTINUOUS
10
0.960026
20
0.621495
11
0.96322
21
0.619361
0
LINE
8
BLACK
6
CONTINUOUS
10
0.96322
20
0.619361
11
0.965353
21
0.616168
0
LINE
8
BLACK
6
CONTINUOUS
10
0.965353
20
0.616168
11
0.966102
21
0.612402
0
LINE
8
BLACK
6
CONTINUOUS
10
0.966102
20
0.612402
11
0.966102
21
0.576969
0
LINE
8
BLACK
6
CONTINUOUS
10
0.966102
20
0.576969
11
0.965353
21
0.573202
0
LINE
8
BLACK
6
CONTINUOUS
10
0.965353
20
0.573202
11
0.96322
21
0.570009
0
LINE
8
BLACK
6
CONTINUOUS
10
0.96322
20
0.570009
11
0.960026
21
0.567875
0
LINE
8
BLACK
6
CONTINUOUS
10
0.960026
20
0.567875
11
0.95626
21
0.567126
0
LINE
8
BLACK
6
CONTINUOUS
10
0.95626
20
0.567126
11
0.935591
21
0.567126
0
LINE
8
BLACK
6
CONTINUOUS
10
0.935591
20
0.567126
11
0.931824
21
0.567875
0
LINE
8
BLACK
6
CONTINUOUS
10
0.931824
20
0.567875
11
0.928631
21
0.570009
0
LINE
8
BLACK
6
CONTINUOUS
10
0.928631
20
0.570009
11
0.926497
21
0.573202
0
LINE
8
BLACK
6
CONTINUOUS
10
0.926497
20
0.573202
11
0.925748
21
0.576969
0
LINE
8
BLACK
6
CONTINUOUS
10
0.925748
20
0.576969
11
0.925748
21
0.612402
0
LINE
8
BLACK
6
CONTINUOUS
10
0.925748
20
0.612402
11
0.926497
21
0.616168
0
LINE
8
BLACK
6
CONTINUOUS
10
0.926497
20
0.616168
11
0.928631
21
0.619361
0
LINE
8
BLACK
6
CONTINUOUS
10
0.928631
20
0.619361
11
0.931824
21
0.621495
0
LINE
8
BLACK
6
CONTINUOUS
10
0.931824
20
0.621495
11
0.935591
21
0.622244
0
LINE
8
BLACK
6
CONTINUOUS
10
0.935591
20
0.622244
11
0.95626
21
0.622244
0
LINE
8
BLACK
6
CONTINUOUS
10
0.95626
20
0.622244
11
0.960026
21
0.621495
0
LINE
8
BLACK
6
CONTINUOUS
10
0.577929
20
0.609406
11
0.580962
21
0.607379
0
LINE
8
BLACK
6
CONTINUOUS
10
0.580962
20
0.607379
11
0.582989
21
0.604346
0
LINE
8
BLACK
6
CONTINUOUS
10
0.582989
20
0.604346
11
0.583701
21
0.600768
0
LINE
8
BLACK
6
CONTINUOUS
10
0.583701
20
0.600768
11
0.583701
21
0.57813
0
LINE
8
BLACK
6
CONTINUOUS
10
0.583701
20
0.57813
11
0.582989
21
0.574552
0
LINE
8
BLACK
6
CONTINUOUS
10
0.582989
20
0.574552
11
0.580962
21
0.571518
0
LINE
8
BLACK
6
CONTINUOUS
10
0.580962
20
0.571518
11
0.577929
21
0.569491
0
LINE
8
BLACK
6
CONTINUOUS
10
0.577929
20
0.569491
11
0.57435
21
0.56878
0
LINE
8
BLACK
6
CONTINUOUS
10
0.57435
20
0.56878
11
0.55565
21
0.56878
0
LINE
8
BLACK
6
CONTINUOUS
10
0.55565
20
0.56878
11
0.552071
21
0.569491
0
LINE
8
BLACK
6
CONTINUOUS
10
0.552071
20
0.569491
11
0.549038
21
0.571518
0
LINE
8
BLACK
6
CONTINUOUS
10
0.549038
20
0.571518
11
0.547011
21
0.574552
0
LINE
8
BLACK
6
CONTINUOUS
10
0.547011
20
0.574552
11
0.546299
21
0.57813
0
LINE
8
BLACK
6
CONTINUOUS
10
0.546299
20
0.57813
11
0.546299
21
0.600768
0
LINE
8
BLACK
6
CONTINUOUS
10
0.546299
20
0.600768
11
0.547011
21
0.604346
0
LINE
8
BLACK
6
CONTINUOUS
10
0.547011
20
0.604346
11
0.549038
21
0.607379
0
LINE
8
BLACK
6
CONTINUOUS
10
0.549038
20
0.607379
11
0.552071
21
0.609406
0
LINE
8
BLACK
6
CONTINUOUS
10
0.552071
20
0.609406
11
0.55565
21
0.610118
0
LINE
8
BLACK
6
CONTINUOUS
10
0.55565
20
0.610118
11
0.57435
21
0.610118
0
LINE
8
BLACK
6
CONTINUOUS
10
0.57435
20
0.610118
11
0.577929
21
0.609406
0
LINE
8
BLACK
6
CONTINUOUS
10
0.793701
20
0.570866
11
0.754331
21
0.570866
0
LINE
8
BLACK
6
CONTINUOUS
10
0.754331
20
0.570866
11
0.754331
21
0.720472
0
LINE
8
BLACK
6
CONTINUOUS
10
0.754331
20
0.720472
11
0.793701
21
0.720472
0
LINE
8
BLACK
6
CONTINUOUS
10
0.793701
20
0.720472
11
0.793701
21
0.570866
0
LINE
8
BLACK
6
CONTINUOUS
10
2.04567
20
0.570866
11
2.0063
21
0.570866
0
LINE
8
BLACK
6
CONTINUOUS
10
2.0063
20
0.570866
11
2.0063
21
0.720472
0
LINE
8
BLACK
6
CONTINUOUS
10
2.0063
20
0.720472
11
2.04567
21
0.720472
0
LINE
8
BLACK
6
CONTINUOUS
10
2.04567
20
0.720472
11
2.04567
21
0.570866
0
LINE
8
BLACK
6
CONTINUOUS
10
2.19121
20
0.657794
11
2.1944
21
0.655661
0
LINE
8
BLACK
6
CONTINUOUS
10
2.1944
20
0.655661
11
2.19653
21
0.652467
0
LINE
8
BLACK
6
CONTINUOUS
10
2.19653
20
0.652467
11
2.19728
21
0.648701
0
LINE
8
BLACK
6
CONTINUOUS
10
2.19728
20
0.648701
11
2.19728
21
0.611299
0
LINE
8
BLACK
6
CONTINUOUS
10
2.19728
20
0.611299
11
2.19653
21
0.607533
0
LINE
8
BLACK
6
CONTINUOUS
10
2.19653
20
0.607533
11
2.1944
21
0.604339
0
LINE
8
BLACK
6
CONTINUOUS
10
2.1944
20
0.604339
11
2.19121
21
0.602206
0
LINE
8
BLACK
6
CONTINUOUS
10
2.19121
20
0.602206
11
2.18744
21
0.601457
0
LINE
8
BLACK
6
CONTINUOUS
10
2.18744
20
0.601457
11
2.16776
21
0.601457
0
LINE
8
BLACK
6
CONTINUOUS
10
2.16776
20
0.601457
11
2.16399
21
0.602206
0
LINE
8
BLACK
6
CONTINUOUS
10
2.16399
20
0.602206
11
2.1608
21
0.604339
0
LINE
8
BLACK
6
CONTINUOUS
10
2.1608
20
0.604339
11
2.15866
21
0.607533
0
LINE
8
BLACK
6
CONTINUOUS
10
2.15866
20
0.607533
11
2.15791
21
0.611299
0
LINE
8
BLACK
6
CONTINUOUS
10
2.15791
20
0.611299
11
2.15791
21
0.648701
0
LINE
8
BLACK
6
CONTINUOUS
10
2.15791
20
0.648701
11
2.15866
21
0.652467
0
LINE
8
BLACK
6
CONTINUOUS
10
2.15866
20
0.652467
11
2.1608
21
0.655661
0
LINE
8
BLACK
6
CONTINUOUS
10
2.1608
20
0.655661
11
2.16399
21
0.657794
0
LINE
8
BLACK
6
CONTINUOUS
10
2.16399
20
0.657794
11
2.16776
21
0.658543
0
LINE
8
BLACK
6
CONTINUOUS
10
2.16776
20
0.658543
11
2.18744
21
0.658543
0
LINE
8
BLACK
6
CONTINUOUS
10
2.18744
20
0.658543
11
2.19121
21
0.657794
0
LINE
8
BLACK
6
CONTINUOUS
10
2.26601
20
0.657794
11
2.2692
21
0.655661
0
LINE
8
BLACK
6
CONTINUOUS
10
2.2692
20
0.655661
11
2.27134
21
0.652467
0
LINE
8
BLACK
6
CONTINUOUS
10
2.27134
20
0.652467
11
2.27209
21
0.648701
0
LINE
8
BLACK
6
CONTINUOUS
10
2.27209
20
0.648701
11
2.27209
21
0.611299
0
LINE
8
BLACK
6
CONTINUOUS
10
2.27209
20
0.611299
11
2.27134
21
0.607533
0
LINE
8
BLACK
6
CONTINUOUS
10
2.27134
20
0.607533
11
2.2692
21
0.604339
0
LINE
8
BLACK
6
CONTINUOUS
10
2.2692
20
0.604339
11
2.26601
21
0.602206
0
LINE
8
BLACK
6
CONTINUOUS
10
2.26601
20
0.602206
11
2.26224
21
0.601457
0
LINE
8
BLACK
6
CONTINUOUS
10
2.26224
20
0.601457
11
2.24256
21
0.601457
0
LINE
8
BLACK
6
CONTINUOUS
10
2.24256
20
0.601457
11
2.23879
21
0.602206
0
LINE
8
BLACK
6
CONTINUOUS
10
2.23879
20
0.602206
11
2.2356
21
0.604339
0
LINE
8
BLACK
6
CONTINUOUS
10
2.2356
20
0.604339
11
2.23347
21
0.607533
0
LINE
8
BLACK
6
CONTINUOUS
10
2.23347
20
0.607533
11
2.23272
21
0.611299
0
LINE
8
BLACK
6
CONTINUOUS
10
2.23272
20
0.611299
11
2.23272
21
0.648701
0
LINE
8
BLACK
6
CONTINUOUS
10
2.23272
20
0.648701
11
2.23347
21
0.652467
0
LINE
8
BLACK
6
CONTINUOUS
10
2.23347
20
0.652467
11
2.2356
21
0.655661
0
LINE
8
BLACK
6
CONTINUOUS
10
2.2356
20
0.655661
11
2.23879
21
0.657794
0
LINE
8
BLACK
6
CONTINUOUS
10
2.23879
20
0.657794
11
2.24256
21
0.658543
0
LINE
8
BLACK
6
CONTINUOUS
10
2.24256
20
0.658543
11
2.26224
21
0.658543
0
LINE
8
BLACK
6
CONTINUOUS
10
2.26224
20
0.658543
11
2.26601
21
0.657794
0
LINE
8
BLACK
6
CONTINUOUS
10
1.40317
20
0.681676
11
1.40508
21
0.680396
0
LINE
8
BLACK
6
CONTINUOUS
10
1.40508
20
0.680396
11
1.40636
21
0.67848
0
LINE
8
BLACK
6
CONTINUOUS
10
1.40636
20
0.67848
11
1.40681
21
0.67622
0
LINE
8
BLACK
6
CONTINUOUS
10
1.40681
20
0.67622
11
1.40681
21
0.629961
0
LINE
8
BLACK
6
CONTINUOUS
10
1.40681
20
0.629961
11
1.40636
21
0.627701
0
LINE
8
BLACK
6
CONTINUOUS
10
1.40636
20
0.627701
11
1.40508
21
0.625785
0
LINE
8
BLACK
6
CONTINUOUS
10
1.40508
20
0.625785
11
1.40317
21
0.624505
0
LINE
8
BLACK
6
CONTINUOUS
10
1.40317
20
0.624505
11
1.40091
21
0.624055
0
LINE
8
BLACK
6
CONTINUOUS
10
1.40091
20
0.624055
11
1.38909
21
0.624055
0
LINE
8
BLACK
6
CONTINUOUS
10
1.38909
20
0.624055
11
1.38683
21
0.624505
0
LINE
8
BLACK
6
CONTINUOUS
10
1.38683
20
0.624505
11
1.38492
21
0.625785
0
LINE
8
BLACK
6
CONTINUOUS
10
1.38492
20
0.625785
11
1.38364
21
0.627701
0
LINE
8
BLACK
6
CONTINUOUS
10
1.38364
20
0.627701
11
1.38319
21
0.629961
0
LINE
8
BLACK
6
CONTINUOUS
10
1.38319
20
0.629961
11
1.38319
21
0.67622
0
LINE
8
BLACK
6
CONTINUOUS
10
1.38319
20
0.67622
11
1.38364
21
0.67848
0
LINE
8
BLACK
6
CONTINUOUS
10
1.38364
20
0.67848
11
1.38492
21
0.680396
0
LINE
8
BLACK
6
CONTINUOUS
10
1.38492
20
0.680396
11
1.38683
21
0.681676
0
LINE
8
BLACK
6
CONTINUOUS
10
1.38683
20
0.681676
11
1.38909
21
0.682126
0
LINE
8
BLACK
6
CONTINUOUS
10
1.38909
20
0.682126
11
1.40091
21
0.682126
0
LINE
8
BLACK
6
CONTINUOUS
10
1.40091
20
0.682126
11
1.40317
21
0.681676
0
LINE
8
BLACK
6
CONTINUOUS
10
1.06148
20
0.665353
11
1.06468
21
0.66322
0
LINE
8
BLACK
6
CONTINUOUS
10
1.06468
20
0.66322
11
1.06681
21
0.660026
0
LINE
8
BLACK
6
CONTINUOUS
10
1.06681
20
0.660026
11
1.06756
21
0.65626
0
LINE
8
BLACK
6
CONTINUOUS
10
1.06756
20
0.65626
11
1.06756
21
0.635591
0
LINE
8
BLACK
6
CONTINUOUS
10
1.06756
20
0.635591
11
1.06681
21
0.631824
0
LINE
8
BLACK
6
CONTINUOUS
10
1.06681
20
0.631824
11
1.06468
21
0.628631
0
LINE
8
BLACK
6
CONTINUOUS
10
1.06468
20
0.628631
11
1.06148
21
0.626497
0
LINE
8
BLACK
6
CONTINUOUS
10
1.06148
20
0.626497
11
1.05772
21
0.625748
0
LINE
8
BLACK
6
CONTINUOUS
10
1.05772
20
0.625748
11
1.02228
21
0.625748
0
LINE
8
BLACK
6
CONTINUOUS
10
1.02228
20
0.625748
11
1.01852
21
0.626497
0
LINE
8
BLACK
6
CONTINUOUS
10
1.01852
20
0.626497
11
1.01532
21
0.628631
0
LINE
8
BLACK
6
CONTINUOUS
10
1.01532
20
0.628631
11
1.01319
21
0.631824
0
LINE
8
BLACK
6
CONTINUOUS
10
1.01319
20
0.631824
11
1.01244
21
0.635591
0
LINE
8
BLACK
6
CONTINUOUS
10
1.01244
20
0.635591
11
1.01244
21
0.65626
0
LINE
8
BLACK
6
CONTINUOUS
10
1.01244
20
0.65626
11
1.01319
21
0.660026
0
LINE
8
BLACK
6
CONTINUOUS
10
1.01319
20
0.660026
11
1.01532
21
0.66322
0
LINE
8
BLACK
6
CONTINUOUS
10
1.01532
20
0.66322
11
1.01852
21
0.665353
0
LINE
8
BLACK
6
CONTINUOUS
10
1.01852
20
0.665353
11
1.02228
21
0.666102
0
LINE
8
BLACK
6
CONTINUOUS
10
1.02228
20
0.666102
11
1.05772
21
0.666102
0
LINE
8
BLACK
6
CONTINUOUS
10
1.05772
20
0.666102
11
1.06148
21
0.665353
0
LINE
8
BLACK
6
CONTINUOUS
10
0.592467
20
0.675353
11
0.595661
21
0.67322
0
LINE
8
BLACK
6
CONTINUOUS
10
0.595661
20
0.67322
11
0.597794
21
0.670026
0
LINE
8
BLACK
6
CONTINUOUS
10
0.597794
20
0.670026
11
0.598543
21
0.66626
0
LINE
8
BLACK
6
CONTINUOUS
10
0.598543
20
0.66626
11
0.598543
21
0.646575
0
LINE
8
BLACK
6
CONTINUOUS
10
0.598543
20
0.646575
11
0.597794
21
0.642808
0
LINE
8
BLACK
6
CONTINUOUS
10
0.597794
20
0.642808
11
0.595661
21
0.639615
0
LINE
8
BLACK
6
CONTINUOUS
10
0.595661
20
0.639615
11
0.592467
21
0.637481
0
LINE
8
BLACK
6
CONTINUOUS
10
0.592467
20
0.637481
11
0.588701
21
0.636732
0
LINE
8
BLACK
6
CONTINUOUS
10
0.588701
20
0.636732
11
0.551299
21
0.636732
0
LINE
8
BLACK
6
CONTINUOUS
10
0.551299
20
0.636732
11
0.547533
21
0.637481
0
LINE
8
BLACK
6
CONTINUOUS
10
0.547533
20
0.637481
11
0.544339
21
0.639615
0
LINE
8
BLACK
6
CONTINUOUS
10
0.544339
20
0.639615
11
0.542206
21
0.642808
0
LINE
8
BLACK
6
CONTINUOUS
10
0.542206
20
0.642808
11
0.541457
21
0.646575
0
LINE
8
BLACK
6
CONTINUOUS
10
0.541457
20
0.646575
11
0.541457
21
0.66626
0
LINE
8
BLACK
6
CONTINUOUS
10
0.541457
20
0.66626
11
0.542206
21
0.670026
0
LINE
8
BLACK
6
CONTINUOUS
10
0.542206
20
0.670026
11
0.544339
21
0.67322
0
LINE
8
BLACK
6
CONTINUOUS
10
0.544339
20
0.67322
11
0.547533
21
0.675353
0
LINE
8
BLACK
6
CONTINUOUS
10
0.547533
20
0.675353
11
0.551299
21
0.676102
0
LINE
8
BLACK
6
CONTINUOUS
10
0.551299
20
0.676102
11
0.588701
21
0.676102
0
LINE
8
BLACK
6
CONTINUOUS
10
0.588701
20
0.676102
11
0.592467
21
0.675353
0
LINE
8
BLACK
6
CONTINUOUS
10
0.681483
20
0.681534
11
0.684676
21
0.679401
0
LINE
8
BLACK
6
CONTINUOUS
10
0.684676
20
0.679401
11
0.68681
21
0.676208
0
LINE
8
BLACK
6
CONTINUOUS
10
0.68681
20
0.676208
11
0.687559
21
0.672441
0
LINE
8
BLACK
6
CONTINUOUS
10
0.687559
20
0.672441
11
0.687559
21
0.64685
0
LINE
8
BLACK
6
CONTINUOUS
10
0.687559
20
0.64685
11
0.68681
21
0.643084
0
LINE
8
BLACK
6
CONTINUOUS
10
0.68681
20
0.643084
11
0.684676
21
0.639891
0
LINE
8
BLACK
6
CONTINUOUS
10
0.684676
20
0.639891
11
0.681483
21
0.637757
0
LINE
8
BLACK
6
CONTINUOUS
10
0.681483
20
0.637757
11
0.677717
21
0.637008
0
LINE
8
BLACK
6
CONTINUOUS
10
0.677717
20
0.637008
11
0.642283
21
0.637008
0
LINE
8
BLACK
6
CONTINUOUS
10
0.642283
20
0.637008
11
0.638517
21
0.637757
0
LINE
8
BLACK
6
CONTINUOUS
10
0.638517
20
0.637757
11
0.635324
21
0.639891
0
LINE
8
BLACK
6
CONTINUOUS
10
0.635324
20
0.639891
11
0.63319
21
0.643084
0
LINE
8
BLACK
6
CONTINUOUS
10
0.63319
20
0.643084
11
0.632441
21
0.64685
0
LINE
8
BLACK
6
CONTINUOUS
10
0.632441
20
0.64685
11
0.632441
21
0.672441
0
LINE
8
BLACK
6
CONTINUOUS
10
0.632441
20
0.672441
11
0.63319
21
0.676208
0
LINE
8
BLACK
6
CONTINUOUS
10
0.63319
20
0.676208
11
0.635324
21
0.679401
0
LINE
8
BLACK
6
CONTINUOUS
10
0.635324
20
0.679401
11
0.638517
21
0.681534
0
LINE
8
BLACK
6
CONTINUOUS
10
0.638517
20
0.681534
11
0.642283
21
0.682283
0
LINE
8
BLACK
6
CONTINUOUS
10
0.642283
20
0.682283
11
0.677717
21
0.682283
0
LINE
8
BLACK
6
CONTINUOUS
10
0.677717
20
0.682283
11
0.681483
21
0.681534
0
LINE
8
BLACK
6
CONTINUOUS
10
1.71818
20
0.69681
11
1.72137
21
0.694676
0
LINE
8
BLACK
6
CONTINUOUS
10
1.72137
20
0.694676
11
1.7235
21
0.691483
0
LINE
8
BLACK
6
CONTINUOUS
10
1.7235
20
0.691483
11
1.72425
21
0.687717
0
LINE
8
BLACK
6
CONTINUOUS
10
1.72425
20
0.687717
11
1.72425
21
0.652283
0
LINE
8
BLACK
6
CONTINUOUS
10
1.72425
20
0.652283
11
1.7235
21
0.648517
0
LINE
8
BLACK
6
CONTINUOUS
10
1.7235
20
0.648517
11
1.72137
21
0.645324
0
LINE
8
BLACK
6
CONTINUOUS
10
1.72137
20
0.645324
11
1.71818
21
0.64319
0
LINE
8
BLACK
6
CONTINUOUS
10
1.71818
20
0.64319
11
1.71441
21
0.642441
0
LINE
8
BLACK
6
CONTINUOUS
10
1.71441
20
0.642441
11
1.69374
21
0.642441
0
LINE
8
BLACK
6
CONTINUOUS
10
1.69374
20
0.642441
11
1.68997
21
0.64319
0
LINE
8
BLACK
6
CONTINUOUS
10
1.68997
20
0.64319
11
1.68678
21
0.645324
0
LINE
8
BLACK
6
CONTINUOUS
10
1.68678
20
0.645324
11
1.68465
21
0.648517
0
LINE
8
BLACK
6
CONTINUOUS
10
1.68465
20
0.648517
11
1.6839
21
0.652283
0
LINE
8
BLACK
6
CONTINUOUS
10
1.6839
20
0.652283
11
1.6839
21
0.687717
0
LINE
8
BLACK
6
CONTINUOUS
10
1.6839
20
0.687717
11
1.68465
21
0.691483
0
LINE
8
BLACK
6
CONTINUOUS
10
1.68465
20
0.691483
11
1.68678
21
0.694676
0
LINE
8
BLACK
6
CONTINUOUS
10
1.68678
20
0.694676
11
1.68997
21
0.69681
0
LINE
8
BLACK
6
CONTINUOUS
10
1.68997
20
0.69681
11
1.69374
21
0.697559
0
LINE
8
BLACK
6
CONTINUOUS
10
1.69374
20
0.697559
11
1.71441
21
0.697559
0
LINE
8
BLACK
6
CONTINUOUS
10
1.71441
20
0.697559
11
1.71818
21
0.69681
0
LINE
8
BLACK
6
CONTINUOUS
10
1.79003
20
0.69681
11
1.79322
21
0.694676
0
LINE
8
BLACK
6
CONTINUOUS
10
1.79322
20
0.694676
11
1.79535
21
0.691483
0
LINE
8
BLACK
6
CONTINUOUS
10
1.79535
20
0.691483
11
1.7961
21
0.687717
0
LINE
8
BLACK
6
CONTINUOUS
10
1.7961
20
0.687717
11
1.7961
21
0.652283
0
LINE
8
BLACK
6
CONTINUOUS
10
1.7961
20
0.652283
11
1.79535
21
0.648517
0
LINE
8
BLACK
6
CONTINUOUS
10
1.79535
20
0.648517
11
1.79322
21
0.645324
0
LINE
8
BLACK
6
CONTINUOUS
10
1.79322
20
0.645324
11
1.79003
21
0.64319
0
LINE
8
BLACK
6
CONTINUOUS
10
1.79003
20
0.64319
11
1.78626
21
0.642441
0
LINE
8
BLACK
6
CONTINUOUS
10
1.78626
20
0.642441
11
1.76559
21
0.642441
0
LINE
8
BLACK
6
CONTINUOUS
10
1.76559
20
0.642441
11
1.76182
21
0.64319
0
LINE
8
BLACK
6
CONTINUOUS
10
1.76182
20
0.64319
11
1.75863
21
0.645324
0
LINE
8
BLACK
6
CONTINUOUS
10
1.75863
20
0.645324
11
1.7565
21
0.648517
0
LINE
8
BLACK
6
CONTINUOUS
10
1.7565
20
0.648517
11
1.75575
21
0.652283
0
LINE
8
BLACK
6
CONTINUOUS
10
1.75575
20
0.652283
11
1.75575
21
0.687717
0
LINE
8
BLACK
6
CONTINUOUS
10
1.75575
20
0.687717
11
1.7565
21
0.691483
0
LINE
8
BLACK
6
CONTINUOUS
10
1.7565
20
0.691483
11
1.75863
21
0.694676
0
LINE
8
BLACK
6
CONTINUOUS
10
1.75863
20
0.694676
11
1.76182
21
0.69681
0
LINE
8
BLACK
6
CONTINUOUS
10
1.76182
20
0.69681
11
1.76559
21
0.697559
0
LINE
8
BLACK
6
CONTINUOUS
10
1.76559
20
0.697559
11
1.78626
21
0.697559
0
LINE
8
BLACK
6
CONTINUOUS
10
1.78626
20
0.697559
11
1.79003
21
0.69681
0
LINE
8
BLACK
6
CONTINUOUS
10
1.6355
20
0.69866
11
1.63869
21
0.696527
0
LINE
8
BLACK
6
CONTINUOUS
10
1.63869
20
0.696527
11
1.64083
21
0.693334
0
LINE
8
BLACK
6
CONTINUOUS
10
1.64083
20
0.693334
11
1.64157
21
0.689567
0
LINE
8
BLACK
6
CONTINUOUS
10
1.64157
20
0.689567
11
1.64157
21
0.654134
0
LINE
8
BLACK
6
CONTINUOUS
10
1.64157
20
0.654134
11
1.64083
21
0.650367
0
LINE
8
BLACK
6
CONTINUOUS
10
1.64083
20
0.650367
11
1.63869
21
0.647174
0
LINE
8
BLACK
6
CONTINUOUS
10
1.63869
20
0.647174
11
1.6355
21
0.645041
0
LINE
8
BLACK
6
CONTINUOUS
10
1.6355
20
0.645041
11
1.63173
21
0.644291
0
LINE
8
BLACK
6
CONTINUOUS
10
1.63173
20
0.644291
11
1.59827
21
0.644291
0
LINE
8
BLACK
6
CONTINUOUS
10
1.59827
20
0.644291
11
1.5945
21
0.645041
0
LINE
8
BLACK
6
CONTINUOUS
10
1.5945
20
0.645041
11
1.59131
21
0.647174
0
LINE
8
BLACK
6
CONTINUOUS
10
1.59131
20
0.647174
11
1.58917
21
0.650367
0
LINE
8
BLACK
6
CONTINUOUS
10
1.58917
20
0.650367
11
1.58843
21
0.654134
0
LINE
8
BLACK
6
CONTINUOUS
10
1.58843
20
0.654134
11
1.58843
21
0.689567
0
LINE
8
BLACK
6
CONTINUOUS
10
1.58843
20
0.689567
11
1.58917
21
0.693334
0
LINE
8
BLACK
6
CONTINUOUS
10
1.58917
20
0.693334
11
1.59131
21
0.696527
0
LINE
8
BLACK
6
CONTINUOUS
10
1.59131
20
0.696527
11
1.5945
21
0.69866
0
LINE
8
BLACK
6
CONTINUOUS
10
1.5945
20
0.69866
11
1.59827
21
0.699409
0
LINE
8
BLACK
6
CONTINUOUS
10
1.59827
20
0.699409
11
1.63173
21
0.699409
0
LINE
8
BLACK
6
CONTINUOUS
10
1.63173
20
0.699409
11
1.6355
21
0.69866
0
LINE
8
BLACK
6
CONTINUOUS
10
1.21207
20
0.689959
11
1.21527
21
0.687826
0
LINE
8
BLACK
6
CONTINUOUS
10
1.21527
20
0.687826
11
1.2174
21
0.684633
0
LINE
8
BLACK
6
CONTINUOUS
10
1.2174
20
0.684633
11
1.21815
21
0.680866
0
LINE
8
BLACK
6
CONTINUOUS
10
1.21815
20
0.680866
11
1.21815
21
0.655276
0
LINE
8
BLACK
6
CONTINUOUS
10
1.21815
20
0.655276
11
1.2174
21
0.651509
0
LINE
8
BLACK
6
CONTINUOUS
10
1.2174
20
0.651509
11
1.21527
21
0.648316
0
LINE
8
BLACK
6
CONTINUOUS
10
1.21527
20
0.648316
11
1.21207
21
0.646182
0
LINE
8
BLACK
6
CONTINUOUS
10
1.21207
20
0.646182
11
1.20831
21
0.645433
0
LINE
8
BLACK
6
CONTINUOUS
10
1.20831
20
0.645433
11
1.12169
21
0.645433
0
LINE
8
BLACK
6
CONTINUOUS
10
1.12169
20
0.645433
11
1.11793
21
0.646182
0
LINE
8
BLACK
6
CONTINUOUS
10
1.11793
20
0.646182
11
1.11473
21
0.648316
0
LINE
8
BLACK
6
CONTINUOUS
10
1.11473
20
0.648316
11
1.1126
21
0.651509
0
LINE
8
BLACK
6
CONTINUOUS
10
1.1126
20
0.651509
11
1.11185
21
0.655276
0
LINE
8
BLACK
6
CONTINUOUS
10
1.11185
20
0.655276
11
1.11185
21
0.680866
0
LINE
8
BLACK
6
CONTINUOUS
10
1.11185
20
0.680866
11
1.1126
21
0.684633
0
LINE
8
BLACK
6
CONTINUOUS
10
1.1126
20
0.684633
11
1.11473
21
0.687826
0
LINE
8
BLACK
6
CONTINUOUS
10
1.11473
20
0.687826
11
1.11793
21
0.689959
0
LINE
8
BLACK
6
CONTINUOUS
10
1.11793
20
0.689959
11
1.12169
21
0.690709
0
LINE
8
BLACK
6
CONTINUOUS
10
1.12169
20
0.690709
11
1.20831
21
0.690709
0
LINE
8
BLACK
6
CONTINUOUS
10
1.20831
20
0.690709
11
1.21207
21
0.689959
0
LINE
8
BLACK
6
CONTINUOUS
10
0.886208
20
0.712479
11
0.889401
21
0.710346
0
LINE
8
BLACK
6
CONTINUOUS
10
0.889401
20
0.710346
11
0.891534
21
0.707152
0
LINE
8
BLACK
6
CONTINUOUS
10
0.891534
20
0.707152
11
0.892283
21
0.703386
0
LINE
8
BLACK
6
CONTINUOUS
10
0.892283
20
0.703386
11
0.892283
21
0.665984
0
LINE
8
BLACK
6
CONTINUOUS
10
0.892283
20
0.665984
11
0.891534
21
0.662218
0
LINE
8
BLACK
6
CONTINUOUS
10
0.891534
20
0.662218
11
0.889401
21
0.659025
0
LINE
8
BLACK
6
CONTINUOUS
10
0.889401
20
0.659025
11
0.886208
21
0.656891
0
LINE
8
BLACK
6
CONTINUOUS
10
0.886208
20
0.656891
11
0.882441
21
0.656142
0
LINE
8
BLACK
6
CONTINUOUS
10
0.882441
20
0.656142
11
0.862756
21
0.656142
0
LINE
8
BLACK
6
CONTINUOUS
10
0.862756
20
0.656142
11
0.858989
21
0.656891
0
LINE
8
BLACK
6
CONTINUOUS
10
0.858989
20
0.656891
11
0.855796
21
0.659025
0
LINE
8
BLACK
6
CONTINUOUS
10
0.855796
20
0.659025
11
0.853663
21
0.662218
0
LINE
8
BLACK
6
CONTINUOUS
10
0.853663
20
0.662218
11
0.852913
21
0.665984
0
LINE
8
BLACK
6
CONTINUOUS
10
0.852913
20
0.665984
11
0.852913
21
0.703386
0
LINE
8
BLACK
6
CONTINUOUS
10
0.852913
20
0.703386
11
0.853663
21
0.707152
0
LINE
8
BLACK
6
CONTINUOUS
10
0.853663
20
0.707152
11
0.855796
21
0.710346
0
LINE
8
BLACK
6
CONTINUOUS
10
0.855796
20
0.710346
11
0.858989
21
0.712479
0
LINE
8
BLACK
6
CONTINUOUS
10
0.858989
20
0.712479
11
0.862756
21
0.713228
0
LINE
8
BLACK
6
CONTINUOUS
10
0.862756
20
0.713228
11
0.882441
21
0.713228
0
LINE
8
BLACK
6
CONTINUOUS
10
0.882441
20
0.713228
11
0.886208
21
0.712479
0
LINE
8
BLACK
6
CONTINUOUS
10
0.961011
20
0.712479
11
0.964204
21
0.710346
0
LINE
8
BLACK
6
CONTINUOUS
10
0.964204
20
0.710346
11
0.966337
21
0.707152
0
LINE
8
BLACK
6
CONTINUOUS
10
0.966337
20
0.707152
11
0.967087
21
0.703386
0
LINE
8
BLACK
6
CONTINUOUS
10
0.967087
20
0.703386
11
0.967087
21
0.665984
0
LINE
8
BLACK
6
CONTINUOUS
10
0.967087
20
0.665984
11
0.966337
21
0.662218
0
LINE
8
BLACK
6
CONTINUOUS
10
0.966337
20
0.662218
11
0.964204
21
0.659025
0
LINE
8
BLACK
6
CONTINUOUS
10
0.964204
20
0.659025
11
0.961011
21
0.656891
0
LINE
8
BLACK
6
CONTINUOUS
10
0.961011
20
0.656891
11
0.957244
21
0.656142
0
LINE
8
BLACK
6
CONTINUOUS
10
0.957244
20
0.656142
11
0.937559
21
0.656142
0
LINE
8
BLACK
6
CONTINUOUS
10
0.937559
20
0.656142
11
0.933792
21
0.656891
0
LINE
8
BLACK
6
CONTINUOUS
10
0.933792
20
0.656891
11
0.930599
21
0.659025
0
LINE
8
BLACK
6
CONTINUOUS
10
0.930599
20
0.659025
11
0.928466
21
0.662218
0
LINE
8
BLACK
6
CONTINUOUS
10
0.928466
20
0.662218
11
0.927717
21
0.665984
0
LINE
8
BLACK
6
CONTINUOUS
10
0.927717
20
0.665984
11
0.927717
21
0.703386
0
LINE
8
BLACK
6
CONTINUOUS
10
0.927717
20
0.703386
11
0.928466
21
0.707152
0
LINE
8
BLACK
6
CONTINUOUS
10
0.928466
20
0.707152
11
0.930599
21
0.710346
0
LINE
8
BLACK
6
CONTINUOUS
10
0.930599
20
0.710346
11
0.933792
21
0.712479
0
LINE
8
BLACK
6
CONTINUOUS
10
0.933792
20
0.712479
11
0.937559
21
0.713228
0
LINE
8
BLACK
6
CONTINUOUS
10
0.937559
20
0.713228
11
0.957244
21
0.713228
0
LINE
8
BLACK
6
CONTINUOUS
10
0.957244
20
0.713228
11
0.961011
21
0.712479
0
LINE
8
BLACK
6
CONTINUOUS
10
1.29648
20
0.718503
11
1.29968
21
0.716369
0
LINE
8
BLACK
6
CONTINUOUS
10
1.29968
20
0.716369
11
1.30181
21
0.713176
0
LINE
8
BLACK
6
CONTINUOUS
10
1.30181
20
0.713176
11
1.30256
21
0.709409
0
LINE
8
BLACK
6
CONTINUOUS
10
1.30256
20
0.709409
11
1.30256
21
0.68874
0
LINE
8
BLACK
6
CONTINUOUS
10
1.30256
20
0.68874
11
1.30181
21
0.684974
0
LINE
8
BLACK
6
CONTINUOUS
10
1.30181
20
0.684974
11
1.29968
21
0.68178
0
LINE
8
BLACK
6
CONTINUOUS
10
1.29968
20
0.68178
11
1.29648
21
0.679647
0
LINE
8
BLACK
6
CONTINUOUS
10
1.29648
20
0.679647
11
1.29272
21
0.678898
0
LINE
8
BLACK
6
CONTINUOUS
10
1.29272
20
0.678898
11
1.25728
21
0.678898
0
LINE
8
BLACK
6
CONTINUOUS
10
1.25728
20
0.678898
11
1.25352
21
0.679647
0
LINE
8
BLACK
6
CONTINUOUS
10
1.25352
20
0.679647
11
1.25032
21
0.68178
0
LINE
8
BLACK
6
CONTINUOUS
10
1.25032
20
0.68178
11
1.24819
21
0.684974
0
LINE
8
BLACK
6
CONTINUOUS
10
1.24819
20
0.684974
11
1.24744
21
0.68874
0
LINE
8
BLACK
6
CONTINUOUS
10
1.24744
20
0.68874
11
1.24744
21
0.709409
0
LINE
8
BLACK
6
CONTINUOUS
10
1.24744
20
0.709409
11
1.24819
21
0.713176
0
LINE
8
BLACK
6
CONTINUOUS
10
1.24819
20
0.713176
11
1.25032
21
0.716369
0
LINE
8
BLACK
6
CONTINUOUS
10
1.25032
20
0.716369
11
1.25352
21
0.718503
0
LINE
8
BLACK
6
CONTINUOUS
10
1.25352
20
0.718503
11
1.25728
21
0.719252
0
LINE
8
BLACK
6
CONTINUOUS
10
1.25728
20
0.719252
11
1.29272
21
0.719252
0
LINE
8
BLACK
6
CONTINUOUS
10
1.29272
20
0.719252
11
1.29648
21
0.718503
0
LINE
8
BLACK
6
CONTINUOUS
10
1.36576
20
0.755495
11
1.36768
21
0.754215
0
LINE
8
BLACK
6
CONTINUOUS
10
1.36768
20
0.754215
11
1.36896
21
0.752299
0
LINE
8
BLACK
6
CONTINUOUS
10
1.36896
20
0.752299
11
1.36941
21
0.750039
0
LINE
8
BLACK
6
CONTINUOUS
10
1.36941
20
0.750039
11
1.36941
21
0.70378
0
LINE
8
BLACK
6
CONTINUOUS
10
1.36941
20
0.70378
11
1.36896
21
0.70152
0
LINE
8
BLACK
6
CONTINUOUS
10
1.36896
20
0.70152
11
1.36768
21
0.699604
0
LINE
8
BLACK
6
CONTINUOUS
10
1.36768
20
0.699604
11
1.36576
21
0.698324
0
LINE
8
BLACK
6
CONTINUOUS
10
1.36576
20
0.698324
11
1.3635
21
0.697874
0
LINE
8
BLACK
6
CONTINUOUS
10
1.3635
20
0.697874
11
1.35169
21
0.697874
0
LINE
8
BLACK
6
CONTINUOUS
10
1.35169
20
0.697874
11
1.34943
21
0.698324
0
LINE
8
BLACK
6
CONTINUOUS
10
1.34943
20
0.698324
11
1.34752
21
0.699604
0
LINE
8
BLACK
6
CONTINUOUS
10
1.34752
20
0.699604
11
1.34624
21
0.70152
0
LINE
8
BLACK
6
CONTINUOUS
10
1.34624
20
0.70152
11
1.34579
21
0.70378
0
LINE
8
BLACK
6
CONTINUOUS
10
1.34579
20
0.70378
11
1.34579
21
0.750039
0
LINE
8
BLACK
6
CONTINUOUS
10
1.34579
20
0.750039
11
1.34624
21
0.752299
0
LINE
8
BLACK
6
CONTINUOUS
10
1.34624
20
0.752299
11
1.34752
21
0.754215
0
LINE
8
BLACK
6
CONTINUOUS
10
1.34752
20
0.754215
11
1.34943
21
0.755495
0
LINE
8
BLACK
6
CONTINUOUS
10
1.34943
20
0.755495
11
1.35169
21
0.755945
0
LINE
8
BLACK
6
CONTINUOUS
10
1.35169
20
0.755945
11
1.3635
21
0.755945
0
LINE
8
BLACK
6
CONTINUOUS
10
1.3635
20
0.755945
11
1.36576
21
0.755495
0
LINE
8
BLACK
6
CONTINUOUS
10
1.44057
20
0.755495
11
1.44248
21
0.754215
0
LINE
8
BLACK
6
CONTINUOUS
10
1.44248
20
0.754215
11
1.44376
21
0.752299
0
LINE
8
BLACK
6
CONTINUOUS
10
1.44376
20
0.752299
11
1.44421
21
0.750039
0
LINE
8
BLACK
6
CONTINUOUS
10
1.44421
20
0.750039
11
1.44421
21
0.70378
0
LINE
8
BLACK
6
CONTINUOUS
10
1.44421
20
0.70378
11
1.44376
21
0.70152
0
LINE
8
BLACK
6
CONTINUOUS
10
1.44376
20
0.70152
11
1.44248
21
0.699604
0
LINE
8
BLACK
6
CONTINUOUS
10
1.44248
20
0.699604
11
1.44057
21
0.698324
0
LINE
8
BLACK
6
CONTINUOUS
10
1.44057
20
0.698324
11
1.43831
21
0.697874
0
LINE
8
BLACK
6
CONTINUOUS
10
1.43831
20
0.697874
11
1.4265
21
0.697874
0
LINE
8
BLACK
6
CONTINUOUS
10
1.4265
20
0.697874
11
1.42424
21
0.698324
0
LINE
8
BLACK
6
CONTINUOUS
10
1.42424
20
0.698324
11
1.42232
21
0.699604
0
LINE
8
BLACK
6
CONTINUOUS
10
1.42232
20
0.699604
11
1.42104
21
0.70152
0
LINE
8
BLACK
6
CONTINUOUS
10
1.42104
20
0.70152
11
1.42059
21
0.70378
0
LINE
8
BLACK
6
CONTINUOUS
10
1.42059
20
0.70378
11
1.42059
21
0.750039
0
LINE
8
BLACK
6
CONTINUOUS
10
1.42059
20
0.750039
11
1.42104
21
0.752299
0
LINE
8
BLACK
6
CONTINUOUS
10
1.42104
20
0.752299
11
1.42232
21
0.754215
0
LINE
8
BLACK
6
CONTINUOUS
10
1.42232
20
0.754215
11
1.42424
21
0.755495
0
LINE
8
BLACK
6
CONTINUOUS
10
1.42424
20
0.755495
11
1.4265
21
0.755945
0
LINE
8
BLACK
6
CONTINUOUS
10
1.4265
20
0.755945
11
1.43831
21
0.755945
0
LINE
8
BLACK
6
CONTINUOUS
10
1.43831
20
0.755945
11
1.44057
21
0.755495
0
LINE
8
BLACK
6
CONTINUOUS
10
1.53747
20
0.746534
11
1.54066
21
0.744401
0
LINE
8
BLACK
6
CONTINUOUS
10
1.54066
20
0.744401
11
1.54279
21
0.741208
0
LINE
8
BLACK
6
CONTINUOUS
10
1.54279
20
0.741208
11
1.54354
21
0.737441
0
LINE
8
BLACK
6
CONTINUOUS
10
1.54354
20
0.737441
11
1.54354
21
0.717756
0
LINE
8
BLACK
6
CONTINUOUS
10
1.54354
20
0.717756
11
1.54279
21
0.713989
0
LINE
8
BLACK
6
CONTINUOUS
10
1.54279
20
0.713989
11
1.54066
21
0.710796
0
LINE
8
BLACK
6
CONTINUOUS
10
1.54066
20
0.710796
11
1.53747
21
0.708663
0
LINE
8
BLACK
6
CONTINUOUS
10
1.53747
20
0.708663
11
1.5337
21
0.707913
0
LINE
8
BLACK
6
CONTINUOUS
10
1.5337
20
0.707913
11
1.4963
21
0.707913
0
LINE
8
BLACK
6
CONTINUOUS
10
1.4963
20
0.707913
11
1.49253
21
0.708663
0
LINE
8
BLACK
6
CONTINUOUS
10
1.49253
20
0.708663
11
1.48934
21
0.710796
0
LINE
8
BLACK
6
CONTINUOUS
10
1.48934
20
0.710796
11
1.48721
21
0.713989
0
LINE
8
BLACK
6
CONTINUOUS
10
1.48721
20
0.713989
11
1.48646
21
0.717756
0
LINE
8
BLACK
6
CONTINUOUS
10
1.48646
20
0.717756
11
1.48646
21
0.737441
0
LINE
8
BLACK
6
CONTINUOUS
10
1.48646
20
0.737441
11
1.48721
21
0.741208
0
LINE
8
BLACK
6
CONTINUOUS
10
1.48721
20
0.741208
11
1.48934
21
0.744401
0
LINE
8
BLACK
6
CONTINUOUS
10
1.48934
20
0.744401
11
1.49253
21
0.746534
0
LINE
8
BLACK
6
CONTINUOUS
10
1.49253
20
0.746534
11
1.4963
21
0.747283
0
LINE
8
BLACK
6
CONTINUOUS
10
1.4963
20
0.747283
11
1.5337
21
0.747283
0
LINE
8
BLACK
6
CONTINUOUS
10
1.5337
20
0.747283
11
1.53747
21
0.746534
0
LINE
8
BLACK
6
CONTINUOUS
10
2.28
20
0.71
11
2.22
21
0.71
0
LINE
8
BLACK
6
CONTINUOUS
10
2.22
20
0.71
11
2.22
21
0.77
0
LINE
8
BLACK
6
CONTINUOUS
10
2.22
20
0.77
11
2.28
21
0.77
0
LINE
8
BLACK
6
CONTINUOUS
10
2.28
20
0.77
11
2.28
21
0.71
0
LINE
8
BLACK
6
CONTINUOUS
10
2.38
20
0.71
11
2.32
21
0.71
0
LINE
8
BLACK
6
CONTINUOUS
10
2.32
20
0.71
11
2.32
21
0.77
0
LINE
8
BLACK
6
CONTINUOUS
10
2.32
20
0.77
11
2.38
21
0.77
0
LINE
8
BLACK
6
CONTINUOUS
10
2.38
20
0.77
11
2.38
21
0.71
0
LINE
8
BLACK
6
CONTINUOUS
10
0.592467
20
0.750156
11
0.595661
21
0.748023
0
LINE
8
BLACK
6
CONTINUOUS
10
0.595661
20
0.748023
11
0.597794
21
0.74483
0
LINE
8
BLACK
6
CONTINUOUS
10
0.597794
20
0.74483
11
0.598543
21
0.741063
0
LINE
8
BLACK
6
CONTINUOUS
10
0.598543
20
0.741063
11
0.598543
21
0.721378
0
LINE
8
BLACK
6
CONTINUOUS
10
0.598543
20
0.721378
11
0.597794
21
0.717611
0
LINE
8
BLACK
6
CONTINUOUS
10
0.597794
20
0.717611
11
0.595661
21
0.714418
0
LINE
8
BLACK
6
CONTINUOUS
10
0.595661
20
0.714418
11
0.592467
21
0.712285
0
LINE
8
BLACK
6
CONTINUOUS
10
0.592467
20
0.712285
11
0.588701
21
0.711535
0
LINE
8
BLACK
6
CONTINUOUS
10
0.588701
20
0.711535
11
0.551299
21
0.711535
0
LINE
8
BLACK
6
CONTINUOUS
10
0.551299
20
0.711535
11
0.547533
21
0.712285
0
LINE
8
BLACK
6
CONTINUOUS
10
0.547533
20
0.712285
11
0.544339
21
0.714418
0
LINE
8
BLACK
6
CONTINUOUS
10
0.544339
20
0.714418
11
0.542206
21
0.717611
0
LINE
8
BLACK
6
CONTINUOUS
10
0.542206
20
0.717611
11
0.541457
21
0.721378
0
LINE
8
BLACK
6
CONTINUOUS
10
0.541457
20
0.721378
11
0.541457
21
0.741063
0
LINE
8
BLACK
6
CONTINUOUS
10
0.541457
20
0.741063
11
0.542206
21
0.74483
0
LINE
8
BLACK
6
CONTINUOUS
10
0.542206
20
0.74483
11
0.544339
21
0.748023
0
LINE
8
BLACK
6
CONTINUOUS
10
0.544339
20
0.748023
11
0.547533
21
0.750156
0
LINE
8
BLACK
6
CONTINUOUS
10
0.547533
20
0.750156
11
0.551299
21
0.750906
0
LINE
8
BLACK
6
CONTINUOUS
10
0.551299
20
0.750906
11
0.588701
21
0.750906
0
LINE
8
BLACK
6
CONTINUOUS
10
0.588701
20
0.750906
11
0.592467
21
0.750156
0
LINE
8
BLACK
6
CONTINUOUS
10
0.681483
20
0.762243
11
0.684676
21
0.760109
0
LINE
8
BLACK
6
CONTINUOUS
10
0.684676
20
0.760109
11
0.68681
21
0.756916
0
LINE
8
BLACK
6
CONTINUOUS
10
0.68681
20
0.756916
11
0.687559
21
0.75315
0
LINE
8
BLACK
6
CONTINUOUS
10
0.687559
20
0.75315
11
0.687559
21
0.727559
0
LINE
8
BLACK
6
CONTINUOUS
10
0.687559
20
0.727559
11
0.68681
21
0.723792
0
LINE
8
BLACK
6
CONTINUOUS
10
0.68681
20
0.723792
11
0.684676
21
0.720599
0
LINE
8
BLACK
6
CONTINUOUS
10
0.684676
20
0.720599
11
0.681483
21
0.718466
0
LINE
8
BLACK
6
CONTINUOUS
10
0.681483
20
0.718466
11
0.677717
21
0.717717
0
LINE
8
BLACK
6
CONTINUOUS
10
0.677717
20
0.717717
11
0.642283
21
0.717717
0
LINE
8
BLACK
6
CONTINUOUS
10
0.642283
20
0.717717
11
0.638517
21
0.718466
0
LINE
8
BLACK
6
CONTINUOUS
10
0.638517
20
0.718466
11
0.635324
21
0.720599
0
LINE
8
BLACK
6
CONTINUOUS
10
0.635324
20
0.720599
11
0.63319
21
0.723792
0
LINE
8
BLACK
6
CONTINUOUS
10
0.63319
20
0.723792
11
0.632441
21
0.727559
0
LINE
8
BLACK
6
CONTINUOUS
10
0.632441
20
0.727559
11
0.632441
21
0.75315
0
LINE
8
BLACK
6
CONTINUOUS
10
0.632441
20
0.75315
11
0.63319
21
0.756916
0
LINE
8
BLACK
6
CONTINUOUS
10
0.63319
20
0.756916
11
0.635324
21
0.760109
0
LINE
8
BLACK
6
CONTINUOUS
10
0.635324
20
0.760109
11
0.638517
21
0.762243
0
LINE
8
BLACK
6
CONTINUOUS
10
0.638517
20
0.762243
11
0.642283
21
0.762992
0
LINE
8
BLACK
6
CONTINUOUS
10
0.642283
20
0.762992
11
0.677717
21
0.762992
0
LINE
8
BLACK
6
CONTINUOUS
10
0.677717
20
0.762992
11
0.681483
21
0.762243
0
LINE
8
BLACK
6
CONTINUOUS
10
1.08849
20
0.8324
11
1.09168
21
0.830267
0
LINE
8
BLACK
6
CONTINUOUS
10
1.09168
20
0.830267
11
1.09382
21
0.827074
0
LINE
8
BLACK
6
CONTINUOUS
10
1.09382
20
0.827074
11
1.09457
21
0.823307
0
LINE
8
BLACK
6
CONTINUOUS
10
1.09457
20
0.823307
11
1.09457
21
0.736693
0
LINE
8
BLACK
6
CONTINUOUS
10
1.09457
20
0.736693
11
1.09382
21
0.732926
0
LINE
8
BLACK
6
CONTINUOUS
10
1.09382
20
0.732926
11
1.09168
21
0.729733
0
LINE
8
BLACK
6
CONTINUOUS
10
1.09168
20
0.729733
11
1.08849
21
0.7276
0
LINE
8
BLACK
6
CONTINUOUS
10
1.08849
20
0.7276
11
1.08472
21
0.72685
0
LINE
8
BLACK
6
CONTINUOUS
10
1.08472
20
0.72685
11
1.05913
21
0.72685
0
LINE
8
BLACK
6
CONTINUOUS
10
1.05913
20
0.72685
11
1.05537
21
0.7276
0
LINE
8
BLACK
6
CONTINUOUS
10
1.05537
20
0.7276
11
1.05217
21
0.729733
0
LINE
8
BLACK
6
CONTINUOUS
10
1.05217
20
0.729733
11
1.05004
21
0.732926
0
LINE
8
BLACK
6
CONTINUOUS
10
1.05004
20
0.732926
11
1.04929
21
0.736693
0
LINE
8
BLACK
6
CONTINUOUS
10
1.04929
20
0.736693
11
1.04929
21
0.823307
0
LINE
8
BLACK
6
CONTINUOUS
10
1.04929
20
0.823307
11
1.05004
21
0.827074
0
LINE
8
BLACK
6
CONTINUOUS
10
1.05004
20
0.827074
11
1.05217
21
0.830267
0
LINE
8
BLACK
6
CONTINUOUS
10
1.05217
20
0.830267
11
1.05537
21
0.8324
0
LINE
8
BLACK
6
CONTINUOUS
10
1.05537
20
0.8324
11
1.05913
21
0.83315
0
LINE
8
BLACK
6
CONTINUOUS
10
1.05913
20
0.83315
11
1.08472
21
0.83315
0
LINE
8
BLACK
6
CONTINUOUS
10
1.08472
20
0.83315
11
1.08849
21
0.8324
0
LINE
8
BLACK
6
CONTINUOUS
10
1.20463
20
0.8324
11
1.20783
21
0.830267
0
LINE
8
BLACK
6
CONTINUOUS
10
1.20783
20
0.830267
11
1.20996
21
0.827074
0
LINE
8
BLACK
6
CONTINUOUS
10
1.20996
20
0.827074
11
1.21071
21
0.823307
0
LINE
8
BLACK
6
CONTINUOUS
10
1.21071
20
0.823307
11
1.21071
21
0.736693
0
LINE
8
BLACK
6
CONTINUOUS
10
1.21071
20
0.736693
11
1.20996
21
0.732926
0
LINE
8
BLACK
6
CONTINUOUS
10
1.20996
20
0.732926
11
1.20783
21
0.729733
0
LINE
8
BLACK
6
CONTINUOUS
10
1.20783
20
0.729733
11
1.20463
21
0.7276
0
LINE
8
BLACK
6
CONTINUOUS
10
1.20463
20
0.7276
11
1.20087
21
0.72685
0
LINE
8
BLACK
6
CONTINUOUS
10
1.20087
20
0.72685
11
1.17528
21
0.72685
0
LINE
8
BLACK
6
CONTINUOUS
10
1.17528
20
0.72685
11
1.17151
21
0.7276
0
LINE
8
BLACK
6
CONTINUOUS
10
1.17151
20
0.7276
11
1.16832
21
0.729733
0
LINE
8
BLACK
6
CONTINUOUS
10
1.16832
20
0.729733
11
1.16618
21
0.732926
0
LINE
8
BLACK
6
CONTINUOUS
10
1.16618
20
0.732926
11
1.16543
21
0.736693
0
LINE
8
BLACK
6
CONTINUOUS
10
1.16543
20
0.736693
11
1.16543
21
0.823307
0
LINE
8
BLACK
6
CONTINUOUS
10
1.16543
20
0.823307
11
1.16618
21
0.827074
0
LINE
8
BLACK
6
CONTINUOUS
10
1.16618
20
0.827074
11
1.16832
21
0.830267
0
LINE
8
BLACK
6
CONTINUOUS
10
1.16832
20
0.830267
11
1.17151
21
0.8324
0
LINE
8
BLACK
6
CONTINUOUS
10
1.17151
20
0.8324
11
1.17528
21
0.83315
0
LINE
8
BLACK
6
CONTINUOUS
10
1.17528
20
0.83315
11
1.20087
21
0.83315
0
LINE
8
BLACK
6
CONTINUOUS
10
1.20087
20
0.83315
11
1.20463
21
0.8324
0
LINE
8
BLACK
6
CONTINUOUS
10
1.6355
20
0.804959
11
1.63869
21
0.802826
0
LINE
8
BLACK
6
CONTINUOUS
10
1.63869
20
0.802826
11
1.64083
21
0.799633
0
LINE
8
BLACK
6
CONTINUOUS
10
1.64083
20
0.799633
11
1.64157
21
0.795866
0
LINE
8
BLACK
6
CONTINUOUS
10
1.64157
20
0.795866
11
1.64157
21
0.760433
0
LINE
8
BLACK
6
CONTINUOUS
10
1.64157
20
0.760433
11
1.64083
21
0.756666
0
LINE
8
BLACK
6
CONTINUOUS
10
1.64083
20
0.756666
11
1.63869
21
0.753473
0
LINE
8
BLACK
6
CONTINUOUS
10
1.63869
20
0.753473
11
1.6355
21
0.75134
0
LINE
8
BLACK
6
CONTINUOUS
10
1.6355
20
0.75134
11
1.63173
21
0.750591
0
LINE
8
BLACK
6
CONTINUOUS
10
1.63173
20
0.750591
11
1.59827
21
0.750591
0
LINE
8
BLACK
6
CONTINUOUS
10
1.59827
20
0.750591
11
1.5945
21
0.75134
0
LINE
8
BLACK
6
CONTINUOUS
10
1.5945
20
0.75134
11
1.59131
21
0.753473
0
LINE
8
BLACK
6
CONTINUOUS
10
1.59131
20
0.753473
11
1.58917
21
0.756666
0
LINE
8
BLACK
6
CONTINUOUS
10
1.58917
20
0.756666
11
1.58843
21
0.760433
0
LINE
8
BLACK
6
CONTINUOUS
10
1.58843
20
0.760433
11
1.58843
21
0.795866
0
LINE
8
BLACK
6
CONTINUOUS
10
1.58843
20
0.795866
11
1.58917
21
0.799633
0
LINE
8
BLACK
6
CONTINUOUS
10
1.58917
20
0.799633
11
1.59131
21
0.802826
0
LINE
8
BLACK
6
CONTINUOUS
10
1.59131
20
0.802826
11
1.5945
21
0.804959
0
LINE
8
BLACK
6
CONTINUOUS
10
1.5945
20
0.804959
11
1.59827
21
0.805709
0
LINE
8
BLACK
6
CONTINUOUS
10
1.59827
20
0.805709
11
1.63173
21
0.805709
0
LINE
8
BLACK
6
CONTINUOUS
10
1.63173
20
0.805709
11
1.6355
21
0.804959
0
LINE
8
BLACK
6
CONTINUOUS
10
1.29648
20
0.790353
11
1.29968
21
0.78822
0
LINE
8
BLACK
6
CONTINUOUS
10
1.29968
20
0.78822
11
1.30181
21
0.785026
0
LINE
8
BLACK
6
CONTINUOUS
10
1.30181
20
0.785026
11
1.30256
21
0.78126
0
LINE
8
BLACK
6
CONTINUOUS
10
1.30256
20
0.78126
11
1.30256
21
0.760591
0
LINE
8
BLACK
6
CONTINUOUS
10
1.30256
20
0.760591
11
1.30181
21
0.756824
0
LINE
8
BLACK
6
CONTINUOUS
10
1.30181
20
0.756824
11
1.29968
21
0.753631
0
LINE
8
BLACK
6
CONTINUOUS
10
1.29968
20
0.753631
11
1.29648
21
0.751497
0
LINE
8
BLACK
6
CONTINUOUS
10
1.29648
20
0.751497
11
1.29272
21
0.750748
0
LINE
8
BLACK
6
CONTINUOUS
10
1.29272
20
0.750748
11
1.25728
21
0.750748
0
LINE
8
BLACK
6
CONTINUOUS
10
1.25728
20
0.750748
11
1.25352
21
0.751497
0
LINE
8
BLACK
6
CONTINUOUS
10
1.25352
20
0.751497
11
1.25032
21
0.753631
0
LINE
8
BLACK
6
CONTINUOUS
10
1.25032
20
0.753631
11
1.24819
21
0.756824
0
LINE
8
BLACK
6
CONTINUOUS
10
1.24819
20
0.756824
11
1.24744
21
0.760591
0
LINE
8
BLACK
6
CONTINUOUS
10
1.24744
20
0.760591
11
1.24744
21
0.78126
0
LINE
8
BLACK
6
CONTINUOUS
10
1.24744
20
0.78126
11
1.24819
21
0.785026
0
LINE
8
BLACK
6
CONTINUOUS
10
1.24819
20
0.785026
11
1.25032
21
0.78822
0
LINE
8
BLACK
6
CONTINUOUS
10
1.25032
20
0.78822
11
1.25352
21
0.790353
0
LINE
8
BLACK
6
CONTINUOUS
10
1.25352
20
0.790353
11
1.25728
21
0.791102
0
LINE
8
BLACK
6
CONTINUOUS
10
1.25728
20
0.791102
11
1.29272
21
0.791102
0
LINE
8
BLACK
6
CONTINUOUS
10
1.29272
20
0.791102
11
1.29648
21
0.790353
0
LINE
8
BLACK
6
CONTINUOUS
10
0.898334
20
0.805511
11
0.901527
21
0.803377
0
LINE
8
BLACK
6
CONTINUOUS
10
0.901527
20
0.803377
11
0.90366
21
0.800184
0
LINE
8
BLACK
6
CONTINUOUS
10
0.90366
20
0.800184
11
0.904409
21
0.796417
0
LINE
8
BLACK
6
CONTINUOUS
10
0.904409
20
0.796417
11
0.904409
21
0.762953
0
LINE
8
BLACK
6
CONTINUOUS
10
0.904409
20
0.762953
11
0.90366
21
0.759186
0
LINE
8
BLACK
6
CONTINUOUS
10
0.90366
20
0.759186
11
0.901527
21
0.755993
0
LINE
8
BLACK
6
CONTINUOUS
10
0.901527
20
0.755993
11
0.898334
21
0.753859
0
LINE
8
BLACK
6
CONTINUOUS
10
0.898334
20
0.753859
11
0.894567
21
0.75311
0
LINE
8
BLACK
6
CONTINUOUS
10
0.894567
20
0.75311
11
0.859134
21
0.75311
0
LINE
8
BLACK
6
CONTINUOUS
10
0.859134
20
0.75311
11
0.855367
21
0.753859
0
LINE
8
BLACK
6
CONTINUOUS
10
0.855367
20
0.753859
11
0.852174
21
0.755993
0
LINE
8
BLACK
6
CONTINUOUS
10
0.852174
20
0.755993
11
0.850041
21
0.759186
0
LINE
8
BLACK
6
CONTINUOUS
10
0.850041
20
0.759186
11
0.849291
21
0.762953
0
LINE
8
BLACK
6
CONTINUOUS
10
0.849291
20
0.762953
11
0.849291
21
0.796417
0
LINE
8
BLACK
6
CONTINUOUS
10
0.849291
20
0.796417
11
0.850041
21
0.800184
0
LINE
8
BLACK
6
CONTINUOUS
10
0.850041
20
0.800184
11
0.852174
21
0.803377
0
LINE
8
BLACK
6
CONTINUOUS
10
0.852174
20
0.803377
11
0.855367
21
0.805511
0
LINE
8
BLACK
6
CONTINUOUS
10
0.855367
20
0.805511
11
0.859134
21
0.80626
0
LINE
8
BLACK
6
CONTINUOUS
10
0.859134
20
0.80626
11
0.894567
21
0.80626
0
LINE
8
BLACK
6
CONTINUOUS
10
0.894567
20
0.80626
11
0.898334
21
0.805511
0
LINE
8
BLACK
6
CONTINUOUS
10
1.00463
20
0.805511
11
1.00783
21
0.803377
0
LINE
8
BLACK
6
CONTINUOUS
10
1.00783
20
0.803377
11
1.00996
21
0.800184
0
LINE
8
BLACK
6
CONTINUOUS
10
1.00996
20
0.800184
11
1.01071
21
0.796417
0
LINE
8
BLACK
6
CONTINUOUS
10
1.01071
20
0.796417
11
1.01071
21
0.762953
0
LINE
8
BLACK
6
CONTINUOUS
10
1.01071
20
0.762953
11
1.00996
21
0.759186
0
LINE
8
BLACK
6
CONTINUOUS
10
1.00996
20
0.759186
11
1.00783
21
0.755993
0
LINE
8
BLACK
6
CONTINUOUS
10
1.00783
20
0.755993
11
1.00463
21
0.753859
0
LINE
8
BLACK
6
CONTINUOUS
10
1.00463
20
0.753859
11
1.00087
21
0.75311
0
LINE
8
BLACK
6
CONTINUOUS
10
1.00087
20
0.75311
11
0.965433
21
0.75311
0
LINE
8
BLACK
6
CONTINUOUS
10
0.965433
20
0.75311
11
0.961666
21
0.753859
0
LINE
8
BLACK
6
CONTINUOUS
10
0.961666
20
0.753859
11
0.958473
21
0.755993
0
LINE
8
BLACK
6
CONTINUOUS
10
0.958473
20
0.755993
11
0.95634
21
0.759186
0
LINE
8
BLACK
6
CONTINUOUS
10
0.95634
20
0.759186
11
0.955591
21
0.762953
0
LINE
8
BLACK
6
CONTINUOUS
10
0.955591
20
0.762953
11
0.955591
21
0.796417
0
LINE
8
BLACK
6
CONTINUOUS
10
0.955591
20
0.796417
11
0.95634
21
0.800184
0
LINE
8
BLACK
6
CONTINUOUS
10
0.95634
20
0.800184
11
0.958473
21
0.803377
0
LINE
8
BLACK
6
CONTINUOUS
10
0.958473
20
0.803377
11
0.961666
21
0.805511
0
LINE
8
BLACK
6
CONTINUOUS
10
0.961666
20
0.805511
11
0.965433
21
0.80626
0
LINE
8
BLACK
6
CONTINUOUS
10
0.965433
20
0.80626
11
1.00087
21
0.80626
0
LINE
8
BLACK
6
CONTINUOUS
10
1.00087
20
0.80626
11
1.00463
21
0.805511
0
LINE
8
BLACK
6
CONTINUOUS
10
1.77621
20
0.817794
11
1.7794
21
0.815661
0
LINE
8
BLACK
6
CONTINUOUS
10
1.7794
20
0.815661
11
1.78153
21
0.812467
0
LINE
8
BLACK
6
CONTINUOUS
10
1.78153
20
0.812467
11
1.78228
21
0.808701
0
LINE
8
BLACK
6
CONTINUOUS
10
1.78228
20
0.808701
11
1.78228
21
0.771299
0
LINE
8
BLACK
6
CONTINUOUS
10
1.78228
20
0.771299
11
1.78153
21
0.767533
0
LINE
8
BLACK
6
CONTINUOUS
10
1.78153
20
0.767533
11
1.7794
21
0.764339
0
LINE
8
BLACK
6
CONTINUOUS
10
1.7794
20
0.764339
11
1.77621
21
0.762206
0
LINE
8
BLACK
6
CONTINUOUS
10
1.77621
20
0.762206
11
1.77244
21
0.761457
0
LINE
8
BLACK
6
CONTINUOUS
10
1.77244
20
0.761457
11
1.75276
21
0.761457
0
LINE
8
BLACK
6
CONTINUOUS
10
1.75276
20
0.761457
11
1.74899
21
0.762206
0
LINE
8
BLACK
6
CONTINUOUS
10
1.74899
20
0.762206
11
1.7458
21
0.764339
0
LINE
8
BLACK
6
CONTINUOUS
10
1.7458
20
0.764339
11
1.74366
21
0.767533
0
LINE
8
BLACK
6
CONTINUOUS
10
1.74366
20
0.767533
11
1.74291
21
0.771299
0
LINE
8
BLACK
6
CONTINUOUS
10
1.74291
20
0.771299
11
1.74291
21
0.808701
0
LINE
8
BLACK
6
CONTINUOUS
10
1.74291
20
0.808701
11
1.74366
21
0.812467
0
LINE
8
BLACK
6
CONTINUOUS
10
1.74366
20
0.812467
11
1.7458
21
0.815661
0
LINE
8
BLACK
6
CONTINUOUS
10
1.7458
20
0.815661
11
1.74899
21
0.817794
0
LINE
8
BLACK
6
CONTINUOUS
10
1.74899
20
0.817794
11
1.75276
21
0.818543
0
LINE
8
BLACK
6
CONTINUOUS
10
1.75276
20
0.818543
11
1.77244
21
0.818543
0
LINE
8
BLACK
6
CONTINUOUS
10
1.77244
20
0.818543
11
1.77621
21
0.817794
0
LINE
8
BLACK
6
CONTINUOUS
10
1.85101
20
0.817794
11
1.8542
21
0.815661
0
LINE
8
BLACK
6
CONTINUOUS
10
1.8542
20
0.815661
11
1.85634
21
0.812467
0
LINE
8
BLACK
6
CONTINUOUS
10
1.85634
20
0.812467
11
1.85709
21
0.808701
0
LINE
8
BLACK
6
CONTINUOUS
10
1.85709
20
0.808701
11
1.85709
21
0.771299
0
LINE
8
BLACK
6
CONTINUOUS
10
1.85709
20
0.771299
11
1.85634
21
0.767533
0
LINE
8
BLACK
6
CONTINUOUS
10
1.85634
20
0.767533
11
1.8542
21
0.764339
0
LINE
8
BLACK
6
CONTINUOUS
10
1.8542
20
0.764339
11
1.85101
21
0.762206
0
LINE
8
BLACK
6
CONTINUOUS
10
1.85101
20
0.762206
11
1.84724
21
0.761457
0
LINE
8
BLACK
6
CONTINUOUS
10
1.84724
20
0.761457
11
1.82756
21
0.761457
0
LINE
8
BLACK
6
CONTINUOUS
10
1.82756
20
0.761457
11
1.82379
21
0.762206
0
LINE
8
BLACK
6
CONTINUOUS
10
1.82379
20
0.762206
11
1.8206
21
0.764339
0
LINE
8
BLACK
6
CONTINUOUS
10
1.8206
20
0.764339
11
1.81847
21
0.767533
0
LINE
8
BLACK
6
CONTINUOUS
10
1.81847
20
0.767533
11
1.81772
21
0.771299
0
LINE
8
BLACK
6
CONTINUOUS
10
1.81772
20
0.771299
11
1.81772
21
0.808701
0
LINE
8
BLACK
6
CONTINUOUS
10
1.81772
20
0.808701
11
1.81847
21
0.812467
0
LINE
8
BLACK
6
CONTINUOUS
10
1.81847
20
0.812467
11
1.8206
21
0.815661
0
LINE
8
BLACK
6
CONTINUOUS
10
1.8206
20
0.815661
11
1.82379
21
0.817794
0
LINE
8
BLACK
6
CONTINUOUS
10
1.82379
20
0.817794
11
1.82756
21
0.818543
0
LINE
8
BLACK
6
CONTINUOUS
10
1.82756
20
0.818543
11
1.84724
21
0.818543
0
LINE
8
BLACK
6
CONTINUOUS
10
1.84724
20
0.818543
11
1.85101
21
0.817794
0
LINE
8
BLACK
6
CONTINUOUS
10
1.53747
20
0.821337
11
1.54066
21
0.819204
0
LINE
8
BLACK
6
CONTINUOUS
10
1.54066
20
0.819204
11
1.54279
21
0.816011
0
LINE
8
BLACK
6
CONTINUOUS
10
1.54279
20
0.816011
11
1.54354
21
0.812244
0
LINE
8
BLACK
6
CONTINUOUS
10
1.54354
20
0.812244
11
1.54354
21
0.792559
0
LINE
8
BLACK
6
CONTINUOUS
10
1.54354
20
0.792559
11
1.54279
21
0.788792
0
LINE
8
BLACK
6
CONTINUOUS
10
1.54279
20
0.788792
11
1.54066
21
0.785599
0
LINE
8
BLACK
6
CONTINUOUS
10
1.54066
20
0.785599
11
1.53747
21
0.783466
0
LINE
8
BLACK
6
CONTINUOUS
10
1.53747
20
0.783466
11
1.5337
21
0.782717
0
LINE
8
BLACK
6
CONTINUOUS
10
1.5337
20
0.782717
11
1.4963
21
0.782717
0
LINE
8
BLACK
6
CONTINUOUS
10
1.4963
20
0.782717
11
1.49253
21
0.783466
0
LINE
8
BLACK
6
CONTINUOUS
10
1.49253
20
0.783466
11
1.48934
21
0.785599
0
LINE
8
BLACK
6
CONTINUOUS
10
1.48934
20
0.785599
11
1.48721
21
0.788792
0
LINE
8
BLACK
6
CONTINUOUS
10
1.48721
20
0.788792
11
1.48646
21
0.792559
0
LINE
8
BLACK
6
CONTINUOUS
10
1.48646
20
0.792559
11
1.48646
21
0.812244
0
LINE
8
BLACK
6
CONTINUOUS
10
1.48646
20
0.812244
11
1.48721
21
0.816011
0
LINE
8
BLACK
6
CONTINUOUS
10
1.48721
20
0.816011
11
1.48934
21
0.819204
0
LINE
8
BLACK
6
CONTINUOUS
10
1.48934
20
0.819204
11
1.49253
21
0.821337
0
LINE
8
BLACK
6
CONTINUOUS
10
1.49253
20
0.821337
11
1.4963
21
0.822087
0
LINE
8
BLACK
6
CONTINUOUS
10
1.4963
20
0.822087
11
1.5337
21
0.822087
0
LINE
8
BLACK
6
CONTINUOUS
10
1.5337
20
0.822087
11
1.53747
21
0.821337
0
LINE
8
BLACK
6
CONTINUOUS
10
0.565764
20
0.84085
11
0.56768
21
0.83957
0
LINE
8
BLACK
6
CONTINUOUS
10
0.56768
20
0.83957
11
0.56896
21
0.837654
0
LINE
8
BLACK
6
CONTINUOUS
10
0.56896
20
0.837654
11
0.569409
21
0.835394
0
LINE
8
BLACK
6
CONTINUOUS
10
0.569409
20
0.835394
11
0.569409
21
0.795039
0
LINE
8
BLACK
6
CONTINUOUS
10
0.569409
20
0.795039
11
0.56896
21
0.792779
0
LINE
8
BLACK
6
CONTINUOUS
10
0.56896
20
0.792779
11
0.56768
21
0.790864
0
LINE
8
BLACK
6
CONTINUOUS
10
0.56768
20
0.790864
11
0.565764
21
0.789583
0
LINE
8
BLACK
6
CONTINUOUS
10
0.565764
20
0.789583
11
0.563504
21
0.789134
0
LINE
8
BLACK
6
CONTINUOUS
10
0.563504
20
0.789134
11
0.551693
21
0.789134
0
LINE
8
BLACK
6
CONTINUOUS
10
0.551693
20
0.789134
11
0.549433
21
0.789583
0
LINE
8
BLACK
6
CONTINUOUS
10
0.549433
20
0.789583
11
0.547517
21
0.790864
0
LINE
8
BLACK
6
CONTINUOUS
10
0.547517
20
0.790864
11
0.546237
21
0.792779
0
LINE
8
BLACK
6
CONTINUOUS
10
0.546237
20
0.792779
11
0.545787
21
0.795039
0
LINE
8
BLACK
6
CONTINUOUS
10
0.545787
20
0.795039
11
0.545787
21
0.835394
0
LINE
8
BLACK
6
CONTINUOUS
10
0.545787
20
0.835394
11
0.546237
21
0.837654
0
LINE
8
BLACK
6
CONTINUOUS
10
0.546237
20
0.837654
11
0.547517
21
0.83957
0
LINE
8
BLACK
6
CONTINUOUS
10
0.547517
20
0.83957
11
0.549433
21
0.84085
0
LINE
8
BLACK
6
CONTINUOUS
10
0.549433
20
0.84085
11
0.551693
21
0.841299
0
LINE
8
BLACK
6
CONTINUOUS
10
0.551693
20
0.841299
11
0.563504
21
0.841299
0
LINE
8
BLACK
6
CONTINUOUS
10
0.563504
20
0.841299
11
0.565764
21
0.84085
0
LINE
8
BLACK
6
CONTINUOUS
10
0.603165
20
0.84085
11
0.605081
21
0.83957
0
LINE
8
BLACK
6
CONTINUOUS
10
0.605081
20
0.83957
11
0.606361
21
0.837654
0
LINE
8
BLACK
6
CONTINUOUS
10
0.606361
20
0.837654
11
0.606811
21
0.835394
0
LINE
8
BLACK
6
CONTINUOUS
10
0.606811
20
0.835394
11
0.606811
21
0.795039
0
LINE
8
BLACK
6
CONTINUOUS
10
0.606811
20
0.795039
11
0.606361
21
0.792779
0
LINE
8
BLACK
6
CONTINUOUS
10
0.606361
20
0.792779
11
0.605081
21
0.790864
0
LINE
8
BLACK
6
CONTINUOUS
10
0.605081
20
0.790864
11
0.603165
21
0.789583
0
LINE
8
BLACK
6
CONTINUOUS
10
0.603165
20
0.789583
11
0.600906
21
0.789134
0
LINE
8
BLACK
6
CONTINUOUS
10
0.600906
20
0.789134
11
0.589094
21
0.789134
0
LINE
8
BLACK
6
CONTINUOUS
10
0.589094
20
0.789134
11
0.586835
21
0.789583
0
LINE
8
BLACK
6
CONTINUOUS
10
0.586835
20
0.789583
11
0.584919
21
0.790864
0
LINE
8
BLACK
6
CONTINUOUS
10
0.584919
20
0.790864
11
0.583639
21
0.792779
0
LINE
8
BLACK
6
CONTINUOUS
10
0.583639
20
0.792779
11
0.583189
21
0.795039
0
LINE
8
BLACK
6
CONTINUOUS
10
0.583189
20
0.795039
11
0.583189
21
0.835394
0
LINE
8
BLACK
6
CONTINUOUS
10
0.583189
20
0.835394
11
0.583639
21
0.837654
0
LINE
8
BLACK
6
CONTINUOUS
10
0.583639
20
0.837654
11
0.584919
21
0.83957
0
LINE
8
BLACK
6
CONTINUOUS
10
0.584919
20
0.83957
11
0.586835
21
0.84085
0
LINE
8
BLACK
6
CONTINUOUS
10
0.586835
20
0.84085
11
0.589094
21
0.841299
0
LINE
8
BLACK
6
CONTINUOUS
10
0.589094
20
0.841299
11
0.600906
21
0.841299
0
LINE
8
BLACK
6
CONTINUOUS
10
0.600906
20
0.841299
11
0.603165
21
0.84085
0
LINE
8
BLACK
6
CONTINUOUS
10
0.640567
20
0.84085
11
0.642483
21
0.83957
0
LINE
8
BLACK
6
CONTINUOUS
10
0.642483
20
0.83957
11
0.643763
21
0.837654
0
LINE
8
BLACK
6
CONTINUOUS
10
0.643763
20
0.837654
11
0.644213
21
0.835394
0
LINE
8
BLACK
6
CONTINUOUS
10
0.644213
20
0.835394
11
0.644213
21
0.795039
0
LINE
8
BLACK
6
CONTINUOUS
10
0.644213
20
0.795039
11
0.643763
21
0.792779
0
LINE
8
BLACK
6
CONTINUOUS
10
0.643763
20
0.792779
11
0.642483
21
0.790864
0
LINE
8
BLACK
6
CONTINUOUS
10
0.642483
20
0.790864
11
0.640567
21
0.789583
0
LINE
8
BLACK
6
CONTINUOUS
10
0.640567
20
0.789583
11
0.638307
21
0.789134
0
LINE
8
BLACK
6
CONTINUOUS
10
0.638307
20
0.789134
11
0.626496
21
0.789134
0
LINE
8
BLACK
6
CONTINUOUS
10
0.626496
20
0.789134
11
0.624236
21
0.789583
0
LINE
8
BLACK
6
CONTINUOUS
10
0.624236
20
0.789583
11
0.62232
21
0.790864
0
LINE
8
BLACK
6
CONTINUOUS
10
0.62232
20
0.790864
11
0.62104
21
0.792779
0
LINE
8
BLACK
6
CONTINUOUS
10
0.62104
20
0.792779
11
0.620591
21
0.795039
0
LINE
8
BLACK
6
CONTINUOUS
10
0.620591
20
0.795039
11
0.620591
21
0.835394
0
LINE
8
BLACK
6
CONTINUOUS
10
0.620591
20
0.835394
11
0.62104
21
0.837654
0
LINE
8
BLACK
6
CONTINUOUS
10
0.62104
20
0.837654
11
0.62232
21
0.83957
0
LINE
8
BLACK
6
CONTINUOUS
10
0.62232
20
0.83957
11
0.624236
21
0.84085
0
LINE
8
BLACK
6
CONTINUOUS
10
0.624236
20
0.84085
11
0.626496
21
0.841299
0
LINE
8
BLACK
6
CONTINUOUS
10
0.626496
20
0.841299
11
0.638307
21
0.841299
0
LINE
8
BLACK
6
CONTINUOUS
10
0.638307
20
0.841299
11
0.640567
21
0.84085
0
LINE
8
BLACK
6
CONTINUOUS
10
0.350617
20
0.867715
11
0.35381
21
0.865582
0
LINE
8
BLACK
6
CONTINUOUS
10
0.35381
20
0.865582
11
0.355944
21
0.862389
0
LINE
8
BLACK
6
CONTINUOUS
10
0.355944
20
0.862389
11
0.356693
21
0.858622
0
LINE
8
BLACK
6
CONTINUOUS
10
0.356693
20
0.858622
11
0.356693
21
0.811378
0
LINE
8
BLACK
6
CONTINUOUS
10
0.356693
20
0.811378
11
0.355944
21
0.807611
0
LINE
8
BLACK
6
CONTINUOUS
10
0.355944
20
0.807611
11
0.35381
21
0.804418
0
LINE
8
BLACK
6
CONTINUOUS
10
0.35381
20
0.804418
11
0.350617
21
0.802285
0
LINE
8
BLACK
6
CONTINUOUS
10
0.350617
20
0.802285
11
0.34685
21
0.801535
0
LINE
8
BLACK
6
CONTINUOUS
10
0.34685
20
0.801535
11
0.315354
21
0.801535
0
LINE
8
BLACK
6
CONTINUOUS
10
0.315354
20
0.801535
11
0.311588
21
0.802285
0
LINE
8
BLACK
6
CONTINUOUS
10
0.311588
20
0.802285
11
0.308395
21
0.804418
0
LINE
8
BLACK
6
CONTINUOUS
10
0.308395
20
0.804418
11
0.306261
21
0.807611
0
LINE
8
BLACK
6
CONTINUOUS
10
0.306261
20
0.807611
11
0.305512
21
0.811378
0
LINE
8
BLACK
6
CONTINUOUS
10
0.305512
20
0.811378
11
0.305512
21
0.858622
0
LINE
8
BLACK
6
CONTINUOUS
10
0.305512
20
0.858622
11
0.306261
21
0.862389
0
LINE
8
BLACK
6
CONTINUOUS
10
0.306261
20
0.862389
11
0.308395
21
0.865582
0
LINE
8
BLACK
6
CONTINUOUS
10
0.308395
20
0.865582
11
0.311588
21
0.867715
0
LINE
8
BLACK
6
CONTINUOUS
10
0.311588
20
0.867715
11
0.315354
21
0.868465
0
LINE
8
BLACK
6
CONTINUOUS
10
0.315354
20
0.868465
11
0.34685
21
0.868465
0
LINE
8
BLACK
6
CONTINUOUS
10
0.34685
20
0.868465
11
0.350617
21
0.867715
0
LINE
8
BLACK
6
CONTINUOUS
10
0.488412
20
0.867715
11
0.491605
21
0.865582
0
LINE
8
BLACK
6
CONTINUOUS
10
0.491605
20
0.865582
11
0.493739
21
0.862389
0
LINE
8
BLACK
6
CONTINUOUS
10
0.493739
20
0.862389
11
0.494488
21
0.858622
0
LINE
8
BLACK
6
CONTINUOUS
10
0.494488
20
0.858622
11
0.494488
21
0.811378
0
LINE
8
BLACK
6
CONTINUOUS
10
0.494488
20
0.811378
11
0.493739
21
0.807611
0
LINE
8
BLACK
6
CONTINUOUS
10
0.493739
20
0.807611
11
0.491605
21
0.804418
0
LINE
8
BLACK
6
CONTINUOUS
10
0.491605
20
0.804418
11
0.488412
21
0.802285
0
LINE
8
BLACK
6
CONTINUOUS
10
0.488412
20
0.802285
11
0.484646
21
0.801535
0
LINE
8
BLACK
6
CONTINUOUS
10
0.484646
20
0.801535
11
0.45315
21
0.801535
0
LINE
8
BLACK
6
CONTINUOUS
10
0.45315
20
0.801535
11
0.449383
21
0.802285
0
LINE
8
BLACK
6
CONTINUOUS
10
0.449383
20
0.802285
11
0.44619
21
0.804418
0
LINE
8
BLACK
6
CONTINUOUS
10
0.44619
20
0.804418
11
0.444056
21
0.807611
0
LINE
8
BLACK
6
CONTINUOUS
10
0.444056
20
0.807611
11
0.443307
21
0.811378
0
LINE
8
BLACK
6
CONTINUOUS
10
0.443307
20
0.811378
11
0.443307
21
0.858622
0
LINE
8
BLACK
6
CONTINUOUS
10
0.443307
20
0.858622
11
0.444056
21
0.862389
0
LINE
8
BLACK
6
CONTINUOUS
10
0.444056
20
0.862389
11
0.44619
21
0.865582
0
LINE
8
BLACK
6
CONTINUOUS
10
0.44619
20
0.865582
11
0.449383
21
0.867715
0
LINE
8
BLACK
6
CONTINUOUS
10
0.449383
20
0.867715
11
0.45315
21
0.868465
0
LINE
8
BLACK
6
CONTINUOUS
10
0.45315
20
0.868465
11
0.484646
21
0.868465
0
LINE
8
BLACK
6
CONTINUOUS
10
0.484646
20
0.868465
11
0.488412
21
0.867715
0
LINE
8
BLACK
6
CONTINUOUS
10
0.793701
20
0.807087
11
0.754331
21
0.807087
0
LINE
8
BLACK
6
CONTINUOUS
10
0.754331
20
0.807087
11
0.754331
21
0.956693
0
LINE
8
BLACK
6
CONTINUOUS
10
0.754331
20
0.956693
11
0.793701
21
0.956693
0
LINE
8
BLACK
6
CONTINUOUS
10
0.793701
20
0.956693
11
0.793701
21
0.807087
0
LINE
8
BLACK
6
CONTINUOUS
10
2.04567
20
0.807087
11
2.0063
21
0.807087
0
LINE
8
BLACK
6
CONTINUOUS
10
2.0063
20
0.807087
11
2.0063
21
0.956693
0
LINE
8
BLACK
6
CONTINUOUS
10
2.0063
20
0.956693
11
2.04567
21
0.956693
0
LINE
8
BLACK
6
CONTINUOUS
10
2.04567
20
0.956693
11
2.04567
21
0.807087
0
LINE
8
BLACK
6
CONTINUOUS
10
2.37148
20
0.873503
11
2.37468
21
0.871369
0
LINE
8
BLACK
6
CONTINUOUS
10
2.37468
20
0.871369
11
2.37681
21
0.868176
0
LINE
8
BLACK
6
CONTINUOUS
10
2.37681
20
0.868176
11
2.37756
21
0.864409
0
LINE
8
BLACK
6
CONTINUOUS
10
2.37756
20
0.864409
11
2.37756
21
0.84374
0
LINE
8
BLACK
6
CONTINUOUS
10
2.37756
20
0.84374
11
2.37681
21
0.839974
0
LINE
8
BLACK
6
CONTINUOUS
10
2.37681
20
0.839974
11
2.37468
21
0.83678
0
LINE
8
BLACK
6
CONTINUOUS
10
2.37468
20
0.83678
11
2.37148
21
0.834647
0
LINE
8
BLACK
6
CONTINUOUS
10
2.37148
20
0.834647
11
2.36772
21
0.833898
0
LINE
8
BLACK
6
CONTINUOUS
10
2.36772
20
0.833898
11
2.33228
21
0.833898
0
LINE
8
BLACK
6
CONTINUOUS
10
2.33228
20
0.833898
11
2.32852
21
0.834647
0
LINE
8
BLACK
6
CONTINUOUS
10
2.32852
20
0.834647
11
2.32532
21
0.83678
0
LINE
8
BLACK
6
CONTINUOUS
10
2.32532
20
0.83678
11
2.32319
21
0.839974
0
LINE
8
BLACK
6
CONTINUOUS
10
2.32319
20
0.839974
11
2.32244
21
0.84374
0
LINE
8
BLACK
6
CONTINUOUS
10
2.32244
20
0.84374
11
2.32244
21
0.864409
0
LINE
8
BLACK
6
CONTINUOUS
10
2.32244
20
0.864409
11
2.32319
21
0.868176
0
LINE
8
BLACK
6
CONTINUOUS
10
2.32319
20
0.868176
11
2.32532
21
0.871369
0
LINE
8
BLACK
6
CONTINUOUS
10
2.32532
20
0.871369
11
2.32852
21
0.873503
0
LINE
8
BLACK
6
CONTINUOUS
10
2.32852
20
0.873503
11
2.33228
21
0.874252
0
LINE
8
BLACK
6
CONTINUOUS
10
2.33228
20
0.874252
11
2.36772
21
0.874252
0
LINE
8
BLACK
6
CONTINUOUS
10
2.36772
20
0.874252
11
2.37148
21
0.873503
0
LINE
8
BLACK
6
CONTINUOUS
10
0.896483
20
0.883188
11
0.899676
21
0.881054
0
LINE
8
BLACK
6
CONTINUOUS
10
0.899676
20
0.881054
11
0.90181
21
0.877861
0
LINE
8
BLACK
6
CONTINUOUS
10
0.90181
20
0.877861
11
0.902559
21
0.874094
0
LINE
8
BLACK
6
CONTINUOUS
10
0.902559
20
0.874094
11
0.902559
21
0.853425
0
LINE
8
BLACK
6
CONTINUOUS
10
0.902559
20
0.853425
11
0.90181
21
0.849659
0
LINE
8
BLACK
6
CONTINUOUS
10
0.90181
20
0.849659
11
0.899676
21
0.846465
0
LINE
8
BLACK
6
CONTINUOUS
10
0.899676
20
0.846465
11
0.896483
21
0.844332
0
LINE
8
BLACK
6
CONTINUOUS
10
0.896483
20
0.844332
11
0.892717
21
0.843583
0
LINE
8
BLACK
6
CONTINUOUS
10
0.892717
20
0.843583
11
0.857283
21
0.843583
0
LINE
8
BLACK
6
CONTINUOUS
10
0.857283
20
0.843583
11
0.853517
21
0.844332
0
LINE
8
BLACK
6
CONTINUOUS
10
0.853517
20
0.844332
11
0.850324
21
0.846465
0
LINE
8
BLACK
6
CONTINUOUS
10
0.850324
20
0.846465
11
0.84819
21
0.849659
0
LINE
8
BLACK
6
CONTINUOUS
10
0.84819
20
0.849659
11
0.847441
21
0.853425
0
LINE
8
BLACK
6
CONTINUOUS
10
0.847441
20
0.853425
11
0.847441
21
0.874094
0
LINE
8
BLACK
6
CONTINUOUS
10
0.847441
20
0.874094
11
0.84819
21
0.877861
0
LINE
8
BLACK
6
CONTINUOUS
10
0.84819
20
0.877861
11
0.850324
21
0.881054
0
LINE
8
BLACK
6
CONTINUOUS
10
0.850324
20
0.881054
11
0.853517
21
0.883188
0
LINE
8
BLACK
6
CONTINUOUS
10
0.853517
20
0.883188
11
0.857283
21
0.883937
0
LINE
8
BLACK
6
CONTINUOUS
10
0.857283
20
0.883937
11
0.892717
21
0.883937
0
LINE
8
BLACK
6
CONTINUOUS
10
0.892717
20
0.883937
11
0.896483
21
0.883188
0
LINE
8
BLACK
6
CONTINUOUS
10
1.77848
20
0.88396
11
1.7804
21
0.88268
0
LINE
8
BLACK
6
CONTINUOUS
10
1.7804
20
0.88268
11
1.78168
21
0.880764
0
LINE
8
BLACK
6
CONTINUOUS
10
1.78168
20
0.880764
11
1.78213
21
0.878504
0
LINE
8
BLACK
6
CONTINUOUS
10
1.78213
20
0.878504
11
1.78213
21
0.866693
0
LINE
8
BLACK
6
CONTINUOUS
10
1.78213
20
0.866693
11
1.78168
21
0.864433
0
LINE
8
BLACK
6
CONTINUOUS
10
1.78168
20
0.864433
11
1.7804
21
0.862517
0
LINE
8
BLACK
6
CONTINUOUS
10
1.7804
20
0.862517
11
1.77848
21
0.861237
0
LINE
8
BLACK
6
CONTINUOUS
10
1.77848
20
0.861237
11
1.77622
21
0.860787
0
LINE
8
BLACK
6
CONTINUOUS
10
1.77622
20
0.860787
11
1.72996
21
0.860787
0
LINE
8
BLACK
6
CONTINUOUS
10
1.72996
20
0.860787
11
1.7277
21
0.861237
0
LINE
8
BLACK
6
CONTINUOUS
10
1.7277
20
0.861237
11
1.72578
21
0.862517
0
LINE
8
BLACK
6
CONTINUOUS
10
1.72578
20
0.862517
11
1.7245
21
0.864433
0
LINE
8
BLACK
6
CONTINUOUS
10
1.7245
20
0.864433
11
1.72406
21
0.866693
0
LINE
8
BLACK
6
CONTINUOUS
10
1.72406
20
0.866693
11
1.72406
21
0.878504
0
LINE
8
BLACK
6
CONTINUOUS
10
1.72406
20
0.878504
11
1.7245
21
0.880764
0
LINE
8
BLACK
6
CONTINUOUS
10
1.7245
20
0.880764
11
1.72578
21
0.88268
0
LINE
8
BLACK
6
CONTINUOUS
10
1.72578
20
0.88268
11
1.7277
21
0.88396
0
LINE
8
BLACK
6
CONTINUOUS
10
1.7277
20
0.88396
11
1.72996
21
0.884409
0
LINE
8
BLACK
6
CONTINUOUS
10
1.72996
20
0.884409
11
1.77622
21
0.884409
0
LINE
8
BLACK
6
CONTINUOUS
10
1.77622
20
0.884409
11
1.77848
21
0.88396
0
LINE
8
BLACK
6
CONTINUOUS
10
1.10148
20
0.903503
11
1.10468
21
0.901369
0
LINE
8
BLACK
6
CONTINUOUS
10
1.10468
20
0.901369
11
1.10681
21
0.898176
0
LINE
8
BLACK
6
CONTINUOUS
10
1.10681
20
0.898176
11
1.10756
21
0.894409
0
LINE
8
BLACK
6
CONTINUOUS
10
1.10756
20
0.894409
11
1.10756
21
0.87374
0
LINE
8
BLACK
6
CONTINUOUS
10
1.10756
20
0.87374
11
1.10681
21
0.869974
0
LINE
8
BLACK
6
CONTINUOUS
10
1.10681
20
0.869974
11
1.10468
21
0.86678
0
LINE
8
BLACK
6
CONTINUOUS
10
1.10468
20
0.86678
11
1.10148
21
0.864647
0
LINE
8
BLACK
6
CONTINUOUS
10
1.10148
20
0.864647
11
1.09772
21
0.863898
0
LINE
8
BLACK
6
CONTINUOUS
10
1.09772
20
0.863898
11
1.06228
21
0.863898
0
LINE
8
BLACK
6
CONTINUOUS
10
1.06228
20
0.863898
11
1.05852
21
0.864647
0
LINE
8
BLACK
6
CONTINUOUS
10
1.05852
20
0.864647
11
1.05532
21
0.86678
0
LINE
8
BLACK
6
CONTINUOUS
10
1.05532
20
0.86678
11
1.05319
21
0.869974
0
LINE
8
BLACK
6
CONTINUOUS
10
1.05319
20
0.869974
11
1.05244
21
0.87374
0
LINE
8
BLACK
6
CONTINUOUS
10
1.05244
20
0.87374
11
1.05244
21
0.894409
0
LINE
8
BLACK
6
CONTINUOUS
10
1.05244
20
0.894409
11
1.05319
21
0.898176
0
LINE
8
BLACK
6
CONTINUOUS
10
1.05319
20
0.898176
11
1.05532
21
0.901369
0
LINE
8
BLACK
6
CONTINUOUS
10
1.05532
20
0.901369
11
1.05852
21
0.903503
0
LINE
8
BLACK
6
CONTINUOUS
10
1.05852
20
0.903503
11
1.06228
21
0.904252
0
LINE
8
BLACK
6
CONTINUOUS
10
1.06228
20
0.904252
11
1.09772
21
0.904252
0
LINE
8
BLACK
6
CONTINUOUS
10
1.09772
20
0.904252
11
1.10148
21
0.903503
0
LINE
8
BLACK
6
CONTINUOUS
10
1.18648
20
0.903503
11
1.18968
21
0.901369
0
LINE
8
BLACK
6
CONTINUOUS
10
1.18968
20
0.901369
11
1.19181
21
0.898176
0
LINE
8
BLACK
6
CONTINUOUS
10
1.19181
20
0.898176
11
1.19256
21
0.894409
0
LINE
8
BLACK
6
CONTINUOUS
10
1.19256
20
0.894409
11
1.19256
21
0.87374
0
LINE
8
BLACK
6
CONTINUOUS
10
1.19256
20
0.87374
11
1.19181
21
0.869974
0
LINE
8
BLACK
6
CONTINUOUS
10
1.19181
20
0.869974
11
1.18968
21
0.86678
0
LINE
8
BLACK
6
CONTINUOUS
10
1.18968
20
0.86678
11
1.18648
21
0.864647
0
LINE
8
BLACK
6
CONTINUOUS
10
1.18648
20
0.864647
11
1.18272
21
0.863898
0
LINE
8
BLACK
6
CONTINUOUS
10
1.18272
20
0.863898
11
1.14728
21
0.863898
0
LINE
8
BLACK
6
CONTINUOUS
10
1.14728
20
0.863898
11
1.14352
21
0.864647
0
LINE
8
BLACK
6
CONTINUOUS
10
1.14352
20
0.864647
11
1.14032
21
0.86678
0
LINE
8
BLACK
6
CONTINUOUS
10
1.14032
20
0.86678
11
1.13819
21
0.869974
0
LINE
8
BLACK
6
CONTINUOUS
10
1.13819
20
0.869974
11
1.13744
21
0.87374
0
LINE
8
BLACK
6
CONTINUOUS
10
1.13744
20
0.87374
11
1.13744
21
0.894409
0
LINE
8
BLACK
6
CONTINUOUS
10
1.13744
20
0.894409
11
1.13819
21
0.898176
0
LINE
8
BLACK
6
CONTINUOUS
10
1.13819
20
0.898176
11
1.14032
21
0.901369
0
LINE
8
BLACK
6
CONTINUOUS
10
1.14032
20
0.901369
11
1.14352
21
0.903503
0
LINE
8
BLACK
6
CONTINUOUS
10
1.14352
20
0.903503
11
1.14728
21
0.904252
0
LINE
8
BLACK
6
CONTINUOUS
10
1.14728
20
0.904252
11
1.18272
21
0.904252
0
LINE
8
BLACK
6
CONTINUOUS
10
1.18272
20
0.904252
11
1.18648
21
0.903503
0
LINE
8
BLACK
6
CONTINUOUS
10
1.63707
20
0.913818
11
1.64027
21
0.911684
0
LINE
8
BLACK
6
CONTINUOUS
10
1.64027
20
0.911684
11
1.6424
21
0.908491
0
LINE
8
BLACK
6
CONTINUOUS
10
1.6424
20
0.908491
11
1.64315
21
0.904724
0
LINE
8
BLACK
6
CONTINUOUS
10
1.64315
20
0.904724
11
1.64315
21
0.879134
0
LINE
8
BLACK
6
CONTINUOUS
10
1.64315
20
0.879134
11
1.6424
21
0.875367
0
LINE
8
BLACK
6
CONTINUOUS
10
1.6424
20
0.875367
11
1.64027
21
0.872174
0
LINE
8
BLACK
6
CONTINUOUS
10
1.64027
20
0.872174
11
1.63707
21
0.870041
0
LINE
8
BLACK
6
CONTINUOUS
10
1.63707
20
0.870041
11
1.63331
21
0.869291
0
LINE
8
BLACK
6
CONTINUOUS
10
1.63331
20
0.869291
11
1.54669
21
0.869291
0
LINE
8
BLACK
6
CONTINUOUS
10
1.54669
20
0.869291
11
1.54293
21
0.870041
0
LINE
8
BLACK
6
CONTINUOUS
10
1.54293
20
0.870041
11
1.53973
21
0.872174
0
LINE
8
BLACK
6
CONTINUOUS
10
1.53973
20
0.872174
11
1.5376
21
0.875367
0
LINE
8
BLACK
6
CONTINUOUS
10
1.5376
20
0.875367
11
1.53685
21
0.879134
0
LINE
8
BLACK
6
CONTINUOUS
10
1.53685
20
0.879134
11
1.53685
21
0.904724
0
LINE
8
BLACK
6
CONTINUOUS
10
1.53685
20
0.904724
11
1.5376
21
0.908491
0
LINE
8
BLACK
6
CONTINUOUS
10
1.5376
20
0.908491
11
1.53973
21
0.911684
0
LINE
8
BLACK
6
CONTINUOUS
10
1.53973
20
0.911684
11
1.54293
21
0.913818
0
LINE
8
BLACK
6
CONTINUOUS
10
1.54293
20
0.913818
11
1.54669
21
0.914567
0
LINE
8
BLACK
6
CONTINUOUS
10
1.54669
20
0.914567
11
1.63331
21
0.914567
0
LINE
8
BLACK
6
CONTINUOUS
10
1.63331
20
0.914567
11
1.63707
21
0.913818
0
LINE
8
BLACK
6
CONTINUOUS
10
0.565764
20
0.930417
11
0.56768
21
0.929136
0
LINE
8
BLACK
6
CONTINUOUS
10
0.56768
20
0.929136
11
0.56896
21
0.927221
0
LINE
8
BLACK
6
CONTINUOUS
10
0.56896
20
0.927221
11
0.569409
21
0.924961
0
LINE
8
BLACK
6
CONTINUOUS
10
0.569409
20
0.924961
11
0.569409
21
0.884606
0
LINE
8
BLACK
6
CONTINUOUS
10
0.569409
20
0.884606
11
0.56896
21
0.882346
0
LINE
8
BLACK
6
CONTINUOUS
10
0.56896
20
0.882346
11
0.56768
21
0.88043
0
LINE
8
BLACK
6
CONTINUOUS
10
0.56768
20
0.88043
11
0.565764
21
0.87915
0
LINE
8
BLACK
6
CONTINUOUS
10
0.565764
20
0.87915
11
0.563504
21
0.878701
0
LINE
8
BLACK
6
CONTINUOUS
10
0.563504
20
0.878701
11
0.551693
21
0.878701
0
LINE
8
BLACK
6
CONTINUOUS
10
0.551693
20
0.878701
11
0.549433
21
0.87915
0
LINE
8
BLACK
6
CONTINUOUS
10
0.549433
20
0.87915
11
0.547517
21
0.88043
0
LINE
8
BLACK
6
CONTINUOUS
10
0.547517
20
0.88043
11
0.546237
21
0.882346
0
LINE
8
BLACK
6
CONTINUOUS
10
0.546237
20
0.882346
11
0.545787
21
0.884606
0
LINE
8
BLACK
6
CONTINUOUS
10
0.545787
20
0.884606
11
0.545787
21
0.924961
0
LINE
8
BLACK
6
CONTINUOUS
10
0.545787
20
0.924961
11
0.546237
21
0.927221
0
LINE
8
BLACK
6
CONTINUOUS
10
0.546237
20
0.927221
11
0.547517
21
0.929136
0
LINE
8
BLACK
6
CONTINUOUS
10
0.547517
20
0.929136
11
0.549433
21
0.930417
0
LINE
8
BLACK
6
CONTINUOUS
10
0.549433
20
0.930417
11
0.551693
21
0.930866
0
LINE
8
BLACK
6
CONTINUOUS
10
0.551693
20
0.930866
11
0.563504
21
0.930866
0
LINE
8
BLACK
6
CONTINUOUS
10
0.563504
20
0.930866
11
0.565764
21
0.930417
0
LINE
8
BLACK
6
CONTINUOUS
10
0.640567
20
0.930417
11
0.642483
21
0.929136
0
LINE
8
BLACK
6
CONTINUOUS
10
0.642483
20
0.929136
11
0.643763
21
0.927221
0
LINE
8
BLACK
6
CONTINUOUS
10
0.643763
20
0.927221
11
0.644213
21
0.924961
0
LINE
8
BLACK
6
CONTINUOUS
10
0.644213
20
0.924961
11
0.644213
21
0.884606
0
LINE
8
BLACK
6
CONTINUOUS
10
0.644213
20
0.884606
11
0.643763
21
0.882346
0
LINE
8
BLACK
6
CONTINUOUS
10
0.643763
20
0.882346
11
0.642483
21
0.88043
0
LINE
8
BLACK
6
CONTINUOUS
10
0.642483
20
0.88043
11
0.640567
21
0.87915
0
LINE
8
BLACK
6
CONTINUOUS
10
0.640567
20
0.87915
11
0.638307
21
0.878701
0
LINE
8
BLACK
6
CONTINUOUS
10
0.638307
20
0.878701
11
0.626496
21
0.878701
0
LINE
8
BLACK
6
CONTINUOUS
10
0.626496
20
0.878701
11
0.624236
21
0.87915
0
LINE
8
BLACK
6
CONTINUOUS
10
0.624236
20
0.87915
11
0.62232
21
0.88043
0
LINE
8
BLACK
6
CONTINUOUS
10
0.62232
20
0.88043
11
0.62104
21
0.882346
0
LINE
8
BLACK
6
CONTINUOUS
10
0.62104
20
0.882346
11
0.620591
21
0.884606
0
LINE
8
BLACK
6
CONTINUOUS
10
0.620591
20
0.884606
11
0.620591
21
0.924961
0
LINE
8
BLACK
6
CONTINUOUS
10
0.620591
20
0.924961
11
0.62104
21
0.927221
0
LINE
8
BLACK
6
CONTINUOUS
10
0.62104
20
0.927221
11
0.62232
21
0.929136
0
LINE
8
BLACK
6
CONTINUOUS
10
0.62232
20
0.929136
11
0.624236
21
0.930417
0
LINE
8
BLACK
6
CONTINUOUS
10
0.624236
20
0.930417
11
0.626496
21
0.930866
0
LINE
8
BLACK
6
CONTINUOUS
10
0.626496
20
0.930866
11
0.638307
21
0.930866
0
LINE
8
BLACK
6
CONTINUOUS
10
0.638307
20
0.930866
11
0.640567
21
0.930417
0
LINE
8
BLACK
6
CONTINUOUS
10
1.8523
20
0.921361
11
1.85422
21
0.920081
0
LINE
8
BLACK
6
CONTINUOUS
10
1.85422
20
0.920081
11
1.8555
21
0.918165
0
LINE
8
BLACK
6
CONTINUOUS
10
1.8555
20
0.918165
11
1.85594
21
0.915906
0
LINE
8
BLACK
6
CONTINUOUS
10
1.85594
20
0.915906
11
1.85594
21
0.904094
0
LINE
8
BLACK
6
CONTINUOUS
10
1.85594
20
0.904094
11
1.8555
21
0.901835
0
LINE
8
BLACK
6
CONTINUOUS
10
1.8555
20
0.901835
11
1.85422
21
0.899919
0
LINE
8
BLACK
6
CONTINUOUS
10
1.85422
20
0.899919
11
1.8523
21
0.898639
0
LINE
8
BLACK
6
CONTINUOUS
10
1.8523
20
0.898639
11
1.85004
21
0.898189
0
LINE
8
BLACK
6
CONTINUOUS
10
1.85004
20
0.898189
11
1.80378
21
0.898189
0
LINE
8
BLACK
6
CONTINUOUS
10
1.80378
20
0.898189
11
1.80152
21
0.898639
0
LINE
8
BLACK
6
CONTINUOUS
10
1.80152
20
0.898639
11
1.7996
21
0.899919
0
LINE
8
BLACK
6
CONTINUOUS
10
1.7996
20
0.899919
11
1.79832
21
0.901835
0
LINE
8
BLACK
6
CONTINUOUS
10
1.79832
20
0.901835
11
1.79787
21
0.904094
0
LINE
8
BLACK
6
CONTINUOUS
10
1.79787
20
0.904094
11
1.79787
21
0.915906
0
LINE
8
BLACK
6
CONTINUOUS
10
1.79787
20
0.915906
11
1.79832
21
0.918165
0
LINE
8
BLACK
6
CONTINUOUS
10
1.79832
20
0.918165
11
1.7996
21
0.920081
0
LINE
8
BLACK
6
CONTINUOUS
10
1.7996
20
0.920081
11
1.80152
21
0.921361
0
LINE
8
BLACK
6
CONTINUOUS
10
1.80152
20
0.921361
11
1.80378
21
0.921811
0
LINE
8
BLACK
6
CONTINUOUS
10
1.80378
20
0.921811
11
1.85004
21
0.921811
0
LINE
8
BLACK
6
CONTINUOUS
10
1.85004
20
0.921811
11
1.8523
21
0.921361
0
LINE
8
BLACK
6
CONTINUOUS
10
2.37148
20
0.945353
11
2.37468
21
0.94322
0
LINE
8
BLACK
6
CONTINUOUS
10
2.37468
20
0.94322
11
2.37681
21
0.940026
0
LINE
8
BLACK
6
CONTINUOUS
10
2.37681
20
0.940026
11
2.37756
21
0.93626
0
LINE
8
BLACK
6
CONTINUOUS
10
2.37756
20
0.93626
11
2.37756
21
0.915591
0
LINE
8
BLACK
6
CONTINUOUS
10
2.37756
20
0.915591
11
2.37681
21
0.911824
0
LINE
8
BLACK
6
CONTINUOUS
10
2.37681
20
0.911824
11
2.37468
21
0.908631
0
LINE
8
BLACK
6
CONTINUOUS
10
2.37468
20
0.908631
11
2.37148
21
0.906497
0
LINE
8
BLACK
6
CONTINUOUS
10
2.37148
20
0.906497
11
2.36772
21
0.905748
0
LINE
8
BLACK
6
CONTINUOUS
10
2.36772
20
0.905748
11
2.33228
21
0.905748
0
LINE
8
BLACK
6
CONTINUOUS
10
2.33228
20
0.905748
11
2.32852
21
0.906497
0
LINE
8
BLACK
6
CONTINUOUS
10
2.32852
20
0.906497
11
2.32532
21
0.908631
0
LINE
8
BLACK
6
CONTINUOUS
10
2.32532
20
0.908631
11
2.32319
21
0.911824
0
LINE
8
BLACK
6
CONTINUOUS
10
2.32319
20
0.911824
11
2.32244
21
0.915591
0
LINE
8
BLACK
6
CONTINUOUS
10
2.32244
20
0.915591
11
2.32244
21
0.93626
0
LINE
8
BLACK
6
CONTINUOUS
10
2.32244
20
0.93626
11
2.32319
21
0.940026
0
LINE
8
BLACK
6
CONTINUOUS
10
2.32319
20
0.940026
11
2.32532
21
0.94322
0
LINE
8
BLACK
6
CONTINUOUS
10
2.32532
20
0.94322
11
2.32852
21
0.945353
0
LINE
8
BLACK
6
CONTINUOUS
10
2.32852
20
0.945353
11
2.33228
21
0.946102
0
LINE
8
BLACK
6
CONTINUOUS
10
2.33228
20
0.946102
11
2.36772
21
0.946102
0
LINE
8
BLACK
6
CONTINUOUS
10
2.36772
20
0.946102
11
2.37148
21
0.945353
0
LINE
8
BLACK
6
CONTINUOUS
10
0.896483
20
0.955038
11
0.899676
21
0.952905
0
LINE
8
BLACK
6
CONTINUOUS
10
0.899676
20
0.952905
11
0.90181
21
0.949711
0
LINE
8
BLACK
6
CONTINUOUS
10
0.90181
20
0.949711
11
0.902559
21
0.945945
0
LINE
8
BLACK
6
CONTINUOUS
10
0.902559
20
0.945945
11
0.902559
21
0.925276
0
LINE
8
BLACK
6
CONTINUOUS
10
0.902559
20
0.925276
11
0.90181
21
0.921509
0
LINE
8
BLACK
6
CONTINUOUS
10
0.90181
20
0.921509
11
0.899676
21
0.918316
0
LINE
8
BLACK
6
CONTINUOUS
10
0.899676
20
0.918316
11
0.896483
21
0.916182
0
LINE
8
BLACK
6
CONTINUOUS
10
0.896483
20
0.916182
11
0.892717
21
0.915433
0
LINE
8
BLACK
6
CONTINUOUS
10
0.892717
20
0.915433
11
0.857283
21
0.915433
0
LINE
8
BLACK
6
CONTINUOUS
10
0.857283
20
0.915433
11
0.853517
21
0.916182
0
LINE
8
BLACK
6
CONTINUOUS
10
0.853517
20
0.916182
11
0.850324
21
0.918316
0
LINE
8
BLACK
6
CONTINUOUS
10
0.850324
20
0.918316
11
0.84819
21
0.921509
0
LINE
8
BLACK
6
CONTINUOUS
10
0.84819
20
0.921509
11
0.847441
21
0.925276
0
LINE
8
BLACK
6
CONTINUOUS
10
0.847441
20
0.925276
11
0.847441
21
0.945945
0
LINE
8
BLACK
6
CONTINUOUS
10
0.847441
20
0.945945
11
0.84819
21
0.949711
0
LINE
8
BLACK
6
CONTINUOUS
10
0.84819
20
0.949711
11
0.850324
21
0.952905
0
LINE
8
BLACK
6
CONTINUOUS
10
0.850324
20
0.952905
11
0.853517
21
0.955038
0
LINE
8
BLACK
6
CONTINUOUS
10
0.853517
20
0.955038
11
0.857283
21
0.955787
0
LINE
8
BLACK
6
CONTINUOUS
10
0.857283
20
0.955787
11
0.892717
21
0.955787
0
LINE
8
BLACK
6
CONTINUOUS
10
0.892717
20
0.955787
11
0.896483
21
0.955038
0
LINE
8
BLACK
6
CONTINUOUS
10
0.34
20
0.925
11
0.28
21
0.925
0
LINE
8
BLACK
6
CONTINUOUS
10
0.28
20
0.925
11
0.28
21
0.985
0
LINE
8
BLACK
6
CONTINUOUS
10
0.28
20
0.985
11
0.34
21
0.985
0
LINE
8
BLACK
6
CONTINUOUS
10
0.34
20
0.985
11
0.34
21
0.925
0
LINE
8
BLACK
6
CONTINUOUS
10
0.44
20
0.925
11
0.38
21
0.925
0
LINE
8
BLACK
6
CONTINUOUS
10
0.38
20
0.925
11
0.38
21
0.985
0
LINE
8
BLACK
6
CONTINUOUS
10
0.38
20
0.985
11
0.44
21
0.985
0
LINE
8
BLACK
6
CONTINUOUS
10
0.44
20
0.985
11
0.44
21
0.925
0
LINE
8
BLACK
6
CONTINUOUS
10
1.77848
20
0.958763
11
1.7804
21
0.957483
0
LINE
8
BLACK
6
CONTINUOUS
10
1.7804
20
0.957483
11
1.78168
21
0.955567
0
LINE
8
BLACK
6
CONTINUOUS
10
1.78168
20
0.955567
11
1.78213
21
0.953307
0
LINE
8
BLACK
6
CONTINUOUS
10
1.78213
20
0.953307
11
1.78213
21
0.941496
0
LINE
8
BLACK
6
CONTINUOUS
10
1.78213
20
0.941496
11
1.78168
21
0.939236
0
LINE
8
BLACK
6
CONTINUOUS
10
1.78168
20
0.939236
11
1.7804
21
0.93732
0
LINE
8
BLACK
6
CONTINUOUS
10
1.7804
20
0.93732
11
1.77848
21
0.93604
0
LINE
8
BLACK
6
CONTINUOUS
10
1.77848
20
0.93604
11
1.77622
21
0.935591
0
LINE
8
BLACK
6
CONTINUOUS
10
1.77622
20
0.935591
11
1.72996
21
0.935591
0
LINE
8
BLACK
6
CONTINUOUS
10
1.72996
20
0.935591
11
1.7277
21
0.93604
0
LINE
8
BLACK
6
CONTINUOUS
10
1.7277
20
0.93604
11
1.72578
21
0.93732
0
LINE
8
BLACK
6
CONTINUOUS
10
1.72578
20
0.93732
11
1.7245
21
0.939236
0
LINE
8
BLACK
6
CONTINUOUS
10
1.7245
20
0.939236
11
1.72406
21
0.941496
0
LINE
8
BLACK
6
CONTINUOUS
10
1.72406
20
0.941496
11
1.72406
21
0.953307
0
LINE
8
BLACK
6
CONTINUOUS
10
1.72406
20
0.953307
11
1.7245
21
0.955567
0
LINE
8
BLACK
6
CONTINUOUS
10
1.7245
20
0.955567
11
1.72578
21
0.957483
0
LINE
8
BLACK
6
CONTINUOUS
10
1.72578
20
0.957483
11
1.7277
21
0.958763
0
LINE
8
BLACK
6
CONTINUOUS
10
1.7277
20
0.958763
11
1.72996
21
0.959213
0
LINE
8
BLACK
6
CONTINUOUS
10
1.72996
20
0.959213
11
1.77622
21
0.959213
0
LINE
8
BLACK
6
CONTINUOUS
10
1.77622
20
0.959213
11
1.77848
21
0.958763
0
LINE
8
BLACK
6
CONTINUOUS
10
1.10148
20
0.975353
11
1.10468
21
0.97322
0
LINE
8
BLACK
6
CONTINUOUS
10
1.10468
20
0.97322
11
1.10681
21
0.970026
0
LINE
8
BLACK
6
CONTINUOUS
10
1.10681
20
0.970026
11
1.10756
21
0.96626
0
LINE
8
BLACK
6
CONTINUOUS
10
1.10756
20
0.96626
11
1.10756
21
0.945591
0
LINE
8
BLACK
6
CONTINUOUS
10
1.10756
20
0.945591
11
1.10681
21
0.941824
0
LINE
8
BLACK
6
CONTINUOUS
10
1.10681
20
0.941824
11
1.10468
21
0.938631
0
LINE
8
BLACK
6
CONTINUOUS
10
1.10468
20
0.938631
11
1.10148
21
0.936497
0
LINE
8
BLACK
6
CONTINUOUS
10
1.10148
20
0.936497
11
1.09772
21
0.935748
0
LINE
8
BLACK
6
CONTINUOUS
10
1.09772
20
0.935748
11
1.06228
21
0.935748
0
LINE
8
BLACK
6
CONTINUOUS
10
1.06228
20
0.935748
11
1.05852
21
0.936497
0
LINE
8
BLACK
6
CONTINUOUS
10
1.05852
20
0.936497
11
1.05532
21
0.938631
0
LINE
8
BLACK
6
CONTINUOUS
10
1.05532
20
0.938631
11
1.05319
21
0.941824
0
LINE
8
BLACK
6
CONTINUOUS
10
1.05319
20
0.941824
11
1.05244
21
0.945591
0
LINE
8
BLACK
6
CONTINUOUS
10
1.05244
20
0.945591
11
1.05244
21
0.96626
0
LINE
8
BLACK
6
CONTINUOUS
10
1.05244
20
0.96626
11
1.05319
21
0.970026
0
LINE
8
BLACK
6
CONTINUOUS
10
1.05319
20
0.970026
11
1.05532
21
0.97322
0
LINE
8
BLACK
6
CONTINUOUS
10
1.05532
20
0.97322
11
1.05852
21
0.975353
0
LINE
8
BLACK
6
CONTINUOUS
10
1.05852
20
0.975353
11
1.06228
21
0.976102
0
LINE
8
BLACK
6
CONTINUOUS
10
1.06228
20
0.976102
11
1.09772
21
0.976102
0
LINE
8
BLACK
6
CONTINUOUS
10
1.09772
20
0.976102
11
1.10148
21
0.975353
0
LINE
8
BLACK
6
CONTINUOUS
10
1.18648
20
0.975353
11
1.18968
21
0.97322
0
LINE
8
BLACK
6
CONTINUOUS
10
1.18968
20
0.97322
11
1.19181
21
0.970026
0
LINE
8
BLACK
6
CONTINUOUS
10
1.19181
20
0.970026
11
1.19256
21
0.96626
0
LINE
8
BLACK
6
CONTINUOUS
10
1.19256
20
0.96626
11
1.19256
21
0.945591
0
LINE
8
BLACK
6
CONTINUOUS
10
1.19256
20
0.945591
11
1.19181
21
0.941824
0
LINE
8
BLACK
6
CONTINUOUS
10
1.19181
20
0.941824
11
1.18968
21
0.938631
0
LINE
8
BLACK
6
CONTINUOUS
10
1.18968
20
0.938631
11
1.18648
21
0.936497
0
LINE
8
BLACK
6
CONTINUOUS
10
1.18648
20
0.936497
11
1.18272
21
0.935748
0
LINE
8
BLACK
6
CONTINUOUS
10
1.18272
20
0.935748
11
1.14728
21
0.935748
0
LINE
8
BLACK
6
CONTINUOUS
10
1.14728
20
0.935748
11
1.14352
21
0.936497
0
LINE
8
BLACK
6
CONTINUOUS
10
1.14352
20
0.936497
11
1.14032
21
0.938631
0
LINE
8
BLACK
6
CONTINUOUS
10
1.14032
20
0.938631
11
1.13819
21
0.941824
0
LINE
8
BLACK
6
CONTINUOUS
10
1.13819
20
0.941824
11
1.13744
21
0.945591
0
LINE
8
BLACK
6
CONTINUOUS
10
1.13744
20
0.945591
11
1.13744
21
0.96626
0
LINE
8
BLACK
6
CONTINUOUS
10
1.13744
20
0.96626
11
1.13819
21
0.970026
0
LINE
8
BLACK
6
CONTINUOUS
10
1.13819
20
0.970026
11
1.14032
21
0.97322
0
LINE
8
BLACK
6
CONTINUOUS
10
1.14032
20
0.97322
11
1.14352
21
0.975353
0
LINE
8
BLACK
6
CONTINUOUS
10
1.14352
20
0.975353
11
1.14728
21
0.976102
0
LINE
8
BLACK
6
CONTINUOUS
10
1.14728
20
0.976102
11
1.18272
21
0.976102
0
LINE
8
BLACK
6
CONTINUOUS
10
1.18272
20
0.976102
11
1.18648
21
0.975353
0
LINE
8
BLACK
6
CONTINUOUS
10
0.582231
20
1.02964
11
0.585424
21
1.02751
0
LINE
8
BLACK
6
CONTINUOUS
10
0.585424
20
1.02751
11
0.587558
21
1.02432
0
LINE
8
BLACK
6
CONTINUOUS
10
0.587558
20
1.02432
11
0.588307
21
1.02055
0
LINE
8
BLACK
6
CONTINUOUS
10
0.588307
20
1.02055
11
0.588307
21
0.987087
0
LINE
8
BLACK
6
CONTINUOUS
10
0.588307
20
0.987087
11
0.587558
21
0.98332
0
LINE
8
BLACK
6
CONTINUOUS
10
0.587558
20
0.98332
11
0.585424
21
0.980127
0
LINE
8
BLACK
6
CONTINUOUS
10
0.585424
20
0.980127
11
0.582231
21
0.977993
0
LINE
8
BLACK
6
CONTINUOUS
10
0.582231
20
0.977993
11
0.578465
21
0.977244
0
LINE
8
BLACK
6
CONTINUOUS
10
0.578465
20
0.977244
11
0.543031
21
0.977244
0
LINE
8
BLACK
6
CONTINUOUS
10
0.543031
20
0.977244
11
0.539265
21
0.977993
0
LINE
8
BLACK
6
CONTINUOUS
10
0.539265
20
0.977993
11
0.536072
21
0.980127
0
LINE
8
BLACK
6
CONTINUOUS
10
0.536072
20
0.980127
11
0.533938
21
0.98332
0
LINE
8
BLACK
6
CONTINUOUS
10
0.533938
20
0.98332
11
0.533189
21
0.987087
0
LINE
8
BLACK
6
CONTINUOUS
10
0.533189
20
0.987087
11
0.533189
21
1.02055
0
LINE
8
BLACK
6
CONTINUOUS
10
0.533189
20
1.02055
11
0.533938
21
1.02432
0
LINE
8
BLACK
6
CONTINUOUS
10
0.533938
20
1.02432
11
0.536072
21
1.02751
0
LINE
8
BLACK
6
CONTINUOUS
10
0.536072
20
1.02751
11
0.539265
21
1.02964
0
LINE
8
BLACK
6
CONTINUOUS
10
0.539265
20
1.02964
11
0.543031
21
1.03039
0
LINE
8
BLACK
6
CONTINUOUS
10
0.543031
20
1.03039
11
0.578465
21
1.03039
0
LINE
8
BLACK
6
CONTINUOUS
10
0.578465
20
1.03039
11
0.582231
21
1.02964
0
LINE
8
BLACK
6
CONTINUOUS
10
0.68853
20
1.02964
11
0.691724
21
1.02751
0
LINE
8
BLACK
6
CONTINUOUS
10
0.691724
20
1.02751
11
0.693857
21
1.02432
0
LINE
8
BLACK
6
CONTINUOUS
10
0.693857
20
1.02432
11
0.694606
21
1.02055
0
LINE
8
BLACK
6
CONTINUOUS
10
0.694606
20
1.02055
11
0.694606
21
0.987087
0
LINE
8
BLACK
6
CONTINUOUS
10
0.694606
20
0.987087
11
0.693857
21
0.98332
0
LINE
8
BLACK
6
CONTINUOUS
10
0.693857
20
0.98332
11
0.691724
21
0.980127
0
LINE
8
BLACK
6
CONTINUOUS
10
0.691724
20
0.980127
11
0.68853
21
0.977993
0
LINE
8
BLACK
6
CONTINUOUS
10
0.68853
20
0.977993
11
0.684764
21
0.977244
0
LINE
8
BLACK
6
CONTINUOUS
10
0.684764
20
0.977244
11
0.649331
21
0.977244
0
LINE
8
BLACK
6
CONTINUOUS
10
0.649331
20
0.977244
11
0.645564
21
0.977993
0
LINE
8
BLACK
6
CONTINUOUS
10
0.645564
20
0.977993
11
0.642371
21
0.980127
0
LINE
8
BLACK
6
CONTINUOUS
10
0.642371
20
0.980127
11
0.640237
21
0.98332
0
LINE
8
BLACK
6
CONTINUOUS
10
0.640237
20
0.98332
11
0.639488
21
0.987087
0
LINE
8
BLACK
6
CONTINUOUS
10
0.639488
20
0.987087
11
0.639488
21
1.02055
0
LINE
8
BLACK
6
CONTINUOUS
10
0.639488
20
1.02055
11
0.640237
21
1.02432
0
LINE
8
BLACK
6
CONTINUOUS
10
0.640237
20
1.02432
11
0.642371
21
1.02751
0
LINE
8
BLACK
6
CONTINUOUS
10
0.642371
20
1.02751
11
0.645564
21
1.02964
0
LINE
8
BLACK
6
CONTINUOUS
10
0.645564
20
1.02964
11
0.649331
21
1.03039
0
LINE
8
BLACK
6
CONTINUOUS
10
0.649331
20
1.03039
11
0.684764
21
1.03039
0
LINE
8
BLACK
6
CONTINUOUS
10
0.684764
20
1.03039
11
0.68853
21
1.02964
0
LINE
8
BLACK
6
CONTINUOUS
10
1.63707
20
1.02996
11
1.64027
21
1.02783
0
LINE
8
BLACK
6
CONTINUOUS
10
1.64027
20
1.02783
11
1.6424
21
1.02463
0
LINE
8
BLACK
6
CONTINUOUS
10
1.6424
20
1.02463
11
1.64315
21
1.02087
0
LINE
8
BLACK
6
CONTINUOUS
10
1.64315
20
1.02087
11
1.64315
21
0.995276
0
LINE
8
BLACK
6
CONTINUOUS
10
1.64315
20
0.995276
11
1.6424
21
0.991509
0
LINE
8
BLACK
6
CONTINUOUS
10
1.6424
20
0.991509
11
1.64027
21
0.988316
0
LINE
8
BLACK
6
CONTINUOUS
10
1.64027
20
0.988316
11
1.63707
21
0.986182
0
LINE
8
BLACK
6
CONTINUOUS
10
1.63707
20
0.986182
11
1.63331
21
0.985433
0
LINE
8
BLACK
6
CONTINUOUS
10
1.63331
20
0.985433
11
1.54669
21
0.985433
0
LINE
8
BLACK
6
CONTINUOUS
10
1.54669
20
0.985433
11
1.54293
21
0.986182
0
LINE
8
BLACK
6
CONTINUOUS
10
1.54293
20
0.986182
11
1.53973
21
0.988316
0
LINE
8
BLACK
6
CONTINUOUS
10
1.53973
20
0.988316
11
1.5376
21
0.991509
0
LINE
8
BLACK
6
CONTINUOUS
10
1.5376
20
0.991509
11
1.53685
21
0.995276
0
LINE
8
BLACK
6
CONTINUOUS
10
1.53685
20
0.995276
11
1.53685
21
1.02087
0
LINE
8
BLACK
6
CONTINUOUS
10
1.53685
20
1.02087
11
1.5376
21
1.02463
0
LINE
8
BLACK
6
CONTINUOUS
10
1.5376
20
1.02463
11
1.53973
21
1.02783
0
LINE
8
BLACK
6
CONTINUOUS
10
1.53973
20
1.02783
11
1.54293
21
1.02996
0
LINE
8
BLACK
6
CONTINUOUS
10
1.54293
20
1.02996
11
1.54669
21
1.03071
0
LINE
8
BLACK
6
CONTINUOUS
10
1.54669
20
1.03071
11
1.63331
21
1.03071
0
LINE
8
BLACK
6
CONTINUOUS
10
1.63331
20
1.03071
11
1.63707
21
1.02996
0
LINE
8
BLACK
6
CONTINUOUS
10
0.898334
20
1.04051
11
0.901527
21
1.03838
0
LINE
8
BLACK
6
CONTINUOUS
10
0.901527
20
1.03838
11
0.90366
21
1.03518
0
LINE
8
BLACK
6
CONTINUOUS
10
0.90366
20
1.03518
11
0.904409
21
1.03142
0
LINE
8
BLACK
6
CONTINUOUS
10
0.904409
20
1.03142
11
0.904409
21
0.997953
0
LINE
8
BLACK
6
CONTINUOUS
10
0.904409
20
0.997953
11
0.90366
21
0.994186
0
LINE
8
BLACK
6
CONTINUOUS
10
0.90366
20
0.994186
11
0.901527
21
0.990993
0
LINE
8
BLACK
6
CONTINUOUS
10
0.901527
20
0.990993
11
0.898334
21
0.988859
0
LINE
8
BLACK
6
CONTINUOUS
10
0.898334
20
0.988859
11
0.894567
21
0.98811
0
LINE
8
BLACK
6
CONTINUOUS
10
0.894567
20
0.98811
11
0.859134
21
0.98811
0
LINE
8
BLACK
6
CONTINUOUS
10
0.859134
20
0.98811
11
0.855367
21
0.988859
0
LINE
8
BLACK
6
CONTINUOUS
10
0.855367
20
0.988859
11
0.852174
21
0.990993
0
LINE
8
BLACK
6
CONTINUOUS
10
0.852174
20
0.990993
11
0.850041
21
0.994186
0
LINE
8
BLACK
6
CONTINUOUS
10
0.850041
20
0.994186
11
0.849291
21
0.997953
0
LINE
8
BLACK
6
CONTINUOUS
10
0.849291
20
0.997953
11
0.849291
21
1.03142
0
LINE
8
BLACK
6
CONTINUOUS
10
0.849291
20
1.03142
11
0.850041
21
1.03518
0
LINE
8
BLACK
6
CONTINUOUS
10
0.850041
20
1.03518
11
0.852174
21
1.03838
0
LINE
8
BLACK
6
CONTINUOUS
10
0.852174
20
1.03838
11
0.855367
21
1.04051
0
LINE
8
BLACK
6
CONTINUOUS
10
0.855367
20
1.04051
11
0.859134
21
1.04126
0
LINE
8
BLACK
6
CONTINUOUS
10
0.859134
20
1.04126
11
0.894567
21
1.04126
0
LINE
8
BLACK
6
CONTINUOUS
10
0.894567
20
1.04126
11
0.898334
21
1.04051
0
LINE
8
BLACK
6
CONTINUOUS
10
1.00463
20
1.04051
11
1.00783
21
1.03838
0
LINE
8
BLACK
6
CONTINUOUS
10
1.00783
20
1.03838
11
1.00996
21
1.03518
0
LINE
8
BLACK
6
CONTINUOUS
10
1.00996
20
1.03518
11
1.01071
21
1.03142
0
LINE
8
BLACK
6
CONTINUOUS
10
1.01071
20
1.03142
11
1.01071
21
0.997953
0
LINE
8
BLACK
6
CONTINUOUS
10
1.01071
20
0.997953
11
1.00996
21
0.994186
0
LINE
8
BLACK
6
CONTINUOUS
10
1.00996
20
0.994186
11
1.00783
21
0.990993
0
LINE
8
BLACK
6
CONTINUOUS
10
1.00783
20
0.990993
11
1.00463
21
0.988859
0
LINE
8
BLACK
6
CONTINUOUS
10
1.00463
20
0.988859
11
1.00087
21
0.98811
0
LINE
8
BLACK
6
CONTINUOUS
10
1.00087
20
0.98811
11
0.965433
21
0.98811
0
LINE
8
BLACK
6
CONTINUOUS
10
0.965433
20
0.98811
11
0.961666
21
0.988859
0
LINE
8
BLACK
6
CONTINUOUS
10
0.961666
20
0.988859
11
0.958473
21
0.990993
0
LINE
8
BLACK
6
CONTINUOUS
10
0.958473
20
0.990993
11
0.95634
21
0.994186
0
LINE
8
BLACK
6
CONTINUOUS
10
0.95634
20
0.994186
11
0.955591
21
0.997953
0
LINE
8
BLACK
6
CONTINUOUS
10
0.955591
20
0.997953
11
0.955591
21
1.03142
0
LINE
8
BLACK
6
CONTINUOUS
10
0.955591
20
1.03142
11
0.95634
21
1.03518
0
LINE
8
BLACK
6
CONTINUOUS
10
0.95634
20
1.03518
11
0.958473
21
1.03838
0
LINE
8
BLACK
6
CONTINUOUS
10
0.958473
20
1.03838
11
0.961666
21
1.04051
0
LINE
8
BLACK
6
CONTINUOUS
10
0.961666
20
1.04051
11
0.965433
21
1.04126
0
LINE
8
BLACK
6
CONTINUOUS
10
0.965433
20
1.04126
11
1.00087
21
1.04126
0
LINE
8
BLACK
6
CONTINUOUS
10
1.00087
20
1.04126
11
1.00463
21
1.04051
0
LINE
8
BLACK
6
CONTINUOUS
10
2.36831
20
1.02474
11
2.3711
21
1.02287
0
LINE
8
BLACK
6
CONTINUOUS
10
2.3711
20
1.02287
11
2.37297
21
1.02008
0
LINE
8
BLACK
6
CONTINUOUS
10
2.37297
20
1.02008
11
2.37362
21
1.01678
0
LINE
8
BLACK
6
CONTINUOUS
10
2.37362
20
1.01678
11
2.37362
21
0.999557
0
LINE
8
BLACK
6
CONTINUOUS
10
2.37362
20
0.999557
11
2.37297
21
0.996261
0
LINE
8
BLACK
6
CONTINUOUS
10
2.37297
20
0.996261
11
2.3711
21
0.993467
0
LINE
8
BLACK
6
CONTINUOUS
10
2.3711
20
0.993467
11
2.36831
21
0.9916
0
LINE
8
BLACK
6
CONTINUOUS
10
2.36831
20
0.9916
11
2.36501
21
0.990945
0
LINE
8
BLACK
6
CONTINUOUS
10
2.36501
20
0.990945
11
2.33499
21
0.990945
0
LINE
8
BLACK
6
CONTINUOUS
10
2.33499
20
0.990945
11
2.33169
21
0.9916
0
LINE
8
BLACK
6
CONTINUOUS
10
2.33169
20
0.9916
11
2.3289
21
0.993467
0
LINE
8
BLACK
6
CONTINUOUS
10
2.3289
20
0.993467
11
2.32703
21
0.996261
0
LINE
8
BLACK
6
CONTINUOUS
10
2.32703
20
0.996261
11
2.32638
21
0.999557
0
LINE
8
BLACK
6
CONTINUOUS
10
2.32638
20
0.999557
11
2.32638
21
1.01678
0
LINE
8
BLACK
6
CONTINUOUS
10
2.32638
20
1.01678
11
2.32703
21
1.02008
0
LINE
8
BLACK
6
CONTINUOUS
10
2.32703
20
1.02008
11
2.3289
21
1.02287
0
LINE
8
BLACK
6
CONTINUOUS
10
2.3289
20
1.02287
11
2.33169
21
1.02474
0
LINE
8
BLACK
6
CONTINUOUS
10
2.33169
20
1.02474
11
2.33499
21
1.02539
0
LINE
8
BLACK
6
CONTINUOUS
10
2.33499
20
1.02539
11
2.36501
21
1.02539
0
LINE
8
BLACK
6
CONTINUOUS
10
2.36501
20
1.02539
11
2.36831
21
1.02474
0
LINE
8
BLACK
6
CONTINUOUS
10
1.2923
20
1.02136
11
1.29422
21
1.02008
0
LINE
8
BLACK
6
CONTINUOUS
10
1.29422
20
1.02008
11
1.2955
21
1.01817
0
LINE
8
BLACK
6
CONTINUOUS
10
1.2955
20
1.01817
11
1.29594
21
1.01591
0
LINE
8
BLACK
6
CONTINUOUS
10
1.29594
20
1.01591
11
1.29594
21
1.00409
0
LINE
8
BLACK
6
CONTINUOUS
10
1.29594
20
1.00409
11
1.2955
21
1.00183
0
LINE
8
BLACK
6
CONTINUOUS
10
1.2955
20
1.00183
11
1.29422
21
0.999919
0
LINE
8
BLACK
6
CONTINUOUS
10
1.29422
20
0.999919
11
1.2923
21
0.998639
0
LINE
8
BLACK
6
CONTINUOUS
10
1.2923
20
0.998639
11
1.29004
21
0.998189
0
LINE
8
BLACK
6
CONTINUOUS
10
1.29004
20
0.998189
11
1.22508
21
0.998189
0
LINE
8
BLACK
6
CONTINUOUS
10
1.22508
20
0.998189
11
1.22282
21
0.998639
0
LINE
8
BLACK
6
CONTINUOUS
10
1.22282
20
0.998639
11
1.2209
21
0.999919
0
LINE
8
BLACK
6
CONTINUOUS
10
1.2209
20
0.999919
11
1.21962
21
1.00183
0
LINE
8
BLACK
6
CONTINUOUS
10
1.21962
20
1.00183
11
1.21917
21
1.00409
0
LINE
8
BLACK
6
CONTINUOUS
10
1.21917
20
1.00409
11
1.21917
21
1.01591
0
LINE
8
BLACK
6
CONTINUOUS
10
1.21917
20
1.01591
11
1.21962
21
1.01817
0
LINE
8
BLACK
6
CONTINUOUS
10
1.21962
20
1.01817
11
1.2209
21
1.02008
0
LINE
8
BLACK
6
CONTINUOUS
10
1.2209
20
1.02008
11
1.22282
21
1.02136
0
LINE
8
BLACK
6
CONTINUOUS
10
1.22282
20
1.02136
11
1.22508
21
1.02181
0
LINE
8
BLACK
6
CONTINUOUS
10
1.22508
20
1.02181
11
1.29004
21
1.02181
0
LINE
8
BLACK
6
CONTINUOUS
10
1.29004
20
1.02181
11
1.2923
21
1.02136
0
LINE
8
BLACK
6
CONTINUOUS
10
1.48718
20
1.02136
11
1.4891
21
1.02008
0
LINE
8
BLACK
6
CONTINUOUS
10
1.4891
20
1.02008
11
1.49038
21
1.01817
0
LINE
8
BLACK
6
CONTINUOUS
10
1.49038
20
1.01817
11
1.49083
21
1.01591
0
LINE
8
BLACK
6
CONTINUOUS
10
1.49083
20
1.01591
11
1.49083
21
1.00409
0
LINE
8
BLACK
6
CONTINUOUS
10
1.49083
20
1.00409
11
1.49038
21
1.00183
0
LINE
8
BLACK
6
CONTINUOUS
10
1.49038
20
1.00183
11
1.4891
21
0.999919
0
LINE
8
BLACK
6
CONTINUOUS
10
1.4891
20
0.999919
11
1.48718
21
0.998639
0
LINE
8
BLACK
6
CONTINUOUS
10
1.48718
20
0.998639
11
1.48492
21
0.998189
0
LINE
8
BLACK
6
CONTINUOUS
10
1.48492
20
0.998189
11
1.41996
21
0.998189
0
LINE
8
BLACK
6
CONTINUOUS
10
1.41996
20
0.998189
11
1.4177
21
0.998639
0
LINE
8
BLACK
6
CONTINUOUS
10
1.4177
20
0.998639
11
1.41578
21
0.999919
0
LINE
8
BLACK
6
CONTINUOUS
10
1.41578
20
0.999919
11
1.4145
21
1.00183
0
LINE
8
BLACK
6
CONTINUOUS
10
1.4145
20
1.00183
11
1.41406
21
1.00409
0
LINE
8
BLACK
6
CONTINUOUS
10
1.41406
20
1.00409
11
1.41406
21
1.01591
0
LINE
8
BLACK
6
CONTINUOUS
10
1.41406
20
1.01591
11
1.4145
21
1.01817
0
LINE
8
BLACK
6
CONTINUOUS
10
1.4145
20
1.01817
11
1.41578
21
1.02008
0
LINE
8
BLACK
6
CONTINUOUS
10
1.41578
20
1.02008
11
1.4177
21
1.02136
0
LINE
8
BLACK
6
CONTINUOUS
10
1.4177
20
1.02136
11
1.41996
21
1.02181
0
LINE
8
BLACK
6
CONTINUOUS
10
1.41996
20
1.02181
11
1.48492
21
1.02181
0
LINE
8
BLACK
6
CONTINUOUS
10
1.48492
20
1.02181
11
1.48718
21
1.02136
0
LINE
8
BLACK
6
CONTINUOUS
10
0.34
20
1.025
11
0.28
21
1.025
0
LINE
8
BLACK
6
CONTINUOUS
10
0.28
20
1.025
11
0.28
21
1.085
0
LINE
8
BLACK
6
CONTINUOUS
10
0.28
20
1.085
11
0.34
21
1.085
0
LINE
8
BLACK
6
CONTINUOUS
10
0.34
20
1.085
11
0.34
21
1.025
0
LINE
8
BLACK
6
CONTINUOUS
10
0.44
20
1.025
11
0.38
21
1.025
0
LINE
8
BLACK
6
CONTINUOUS
10
0.38
20
1.025
11
0.38
21
1.085
0
LINE
8
BLACK
6
CONTINUOUS
10
0.38
20
1.085
11
0.44
21
1.085
0
LINE
8
BLACK
6
CONTINUOUS
10
0.44
20
1.085
11
0.44
21
1.025
0
LINE
8
BLACK
6
CONTINUOUS
10
1.09247
20
1.06653
11
1.09566
21
1.0644
0
LINE
8
BLACK
6
CONTINUOUS
10
1.09566
20
1.0644
11
1.09779
21
1.06121
0
LINE
8
BLACK
6
CONTINUOUS
10
1.09779
20
1.06121
11
1.09854
21
1.05744
0
LINE
8
BLACK
6
CONTINUOUS
10
1.09854
20
1.05744
11
1.09854
21
1.03776
0
LINE
8
BLACK
6
CONTINUOUS
10
1.09854
20
1.03776
11
1.09779
21
1.03399
0
LINE
8
BLACK
6
CONTINUOUS
10
1.09779
20
1.03399
11
1.09566
21
1.0308
0
LINE
8
BLACK
6
CONTINUOUS
10
1.09566
20
1.0308
11
1.09247
21
1.02866
0
LINE
8
BLACK
6
CONTINUOUS
10
1.09247
20
1.02866
11
1.0887
21
1.02791
0
LINE
8
BLACK
6
CONTINUOUS
10
1.0887
20
1.02791
11
1.0513
21
1.02791
0
LINE
8
BLACK
6
CONTINUOUS
10
1.0513
20
1.02791
11
1.04753
21
1.02866
0
LINE
8
BLACK
6
CONTINUOUS
10
1.04753
20
1.02866
11
1.04434
21
1.0308
0
LINE
8
BLACK
6
CONTINUOUS
10
1.04434
20
1.0308
11
1.04221
21
1.03399
0
LINE
8
BLACK
6
CONTINUOUS
10
1.04221
20
1.03399
11
1.04146
21
1.03776
0
LINE
8
BLACK
6
CONTINUOUS
10
1.04146
20
1.03776
11
1.04146
21
1.05744
0
LINE
8
BLACK
6
CONTINUOUS
10
1.04146
20
1.05744
11
1.04221
21
1.06121
0
LINE
8
BLACK
6
CONTINUOUS
10
1.04221
20
1.06121
11
1.04434
21
1.0644
0
LINE
8
BLACK
6
CONTINUOUS
10
1.04434
20
1.0644
11
1.04753
21
1.06653
0
LINE
8
BLACK
6
CONTINUOUS
10
1.04753
20
1.06653
11
1.0513
21
1.06728
0
LINE
8
BLACK
6
CONTINUOUS
10
1.0513
20
1.06728
11
1.0887
21
1.06728
0
LINE
8
BLACK
6
CONTINUOUS
10
1.0887
20
1.06728
11
1.09247
21
1.06653
0
LINE
8
BLACK
6
CONTINUOUS
10
1.18148
20
1.0685
11
1.18468
21
1.06637
0
LINE
8
BLACK
6
CONTINUOUS
10
1.18468
20
1.06637
11
1.18681
21
1.06318
0
LINE
8
BLACK
6
CONTINUOUS
10
1.18681
20
1.06318
11
1.18756
21
1.05941
0
LINE
8
BLACK
6
CONTINUOUS
10
1.18756
20
1.05941
11
1.18756
21
1.03874
0
LINE
8
BLACK
6
CONTINUOUS
10
1.18756
20
1.03874
11
1.18681
21
1.03497
0
LINE
8
BLACK
6
CONTINUOUS
10
1.18681
20
1.03497
11
1.18468
21
1.03178
0
LINE
8
BLACK
6
CONTINUOUS
10
1.18468
20
1.03178
11
1.18148
21
1.02965
0
LINE
8
BLACK
6
CONTINUOUS
10
1.18148
20
1.02965
11
1.17772
21
1.0289
0
LINE
8
BLACK
6
CONTINUOUS
10
1.17772
20
1.0289
11
1.14228
21
1.0289
0
LINE
8
BLACK
6
CONTINUOUS
10
1.14228
20
1.0289
11
1.13852
21
1.02965
0
LINE
8
BLACK
6
CONTINUOUS
10
1.13852
20
1.02965
11
1.13532
21
1.03178
0
LINE
8
BLACK
6
CONTINUOUS
10
1.13532
20
1.03178
11
1.13319
21
1.03497
0
LINE
8
BLACK
6
CONTINUOUS
10
1.13319
20
1.03497
11
1.13244
21
1.03874
0
LINE
8
BLACK
6
CONTINUOUS
10
1.13244
20
1.03874
11
1.13244
21
1.05941
0
LINE
8
BLACK
6
CONTINUOUS
10
1.13244
20
1.05941
11
1.13319
21
1.06318
0
LINE
8
BLACK
6
CONTINUOUS
10
1.13319
20
1.06318
11
1.13532
21
1.06637
0
LINE
8
BLACK
6
CONTINUOUS
10
1.13532
20
1.06637
11
1.13852
21
1.0685
0
LINE
8
BLACK
6
CONTINUOUS
10
1.13852
20
1.0685
11
1.14228
21
1.06925
0
LINE
8
BLACK
6
CONTINUOUS
10
1.14228
20
1.06925
11
1.17772
21
1.06925
0
LINE
8
BLACK
6
CONTINUOUS
10
1.17772
20
1.06925
11
1.18148
21
1.0685
0
LINE
8
BLACK
6
CONTINUOUS
10
0.793701
20
1.04331
11
0.754331
21
1.04331
0
LINE
8
BLACK
6
CONTINUOUS
10
0.754331
20
1.04331
11
0.754331
21
1.19291
0
LINE
8
BLACK
6
CONTINUOUS
10
0.754331
20
1.19291
11
0.793701
21
1.19291
0
LINE
8
BLACK
6
CONTINUOUS
10
0.793701
20
1.19291
11
0.793701
21
1.04331
0
LINE
8
BLACK
6
CONTINUOUS
10
2.04567
20
1.04331
11
2.0063
21
1.04331
0
LINE
8
BLACK
6
CONTINUOUS
10
2.0063
20
1.04331
11
2.0063
21
1.19291
0
LINE
8
BLACK
6
CONTINUOUS
10
2.0063
20
1.19291
11
2.04567
21
1.19291
0
LINE
8
BLACK
6
CONTINUOUS
10
2.04567
20
1.19291
11
2.04567
21
1.04331
0
LINE
8
BLACK
6
CONTINUOUS
10
1.2923
20
1.07136
11
1.29422
21
1.07008
0
LINE
8
BLACK
6
CONTINUOUS
10
1.29422
20
1.07008
11
1.2955
21
1.06817
0
LINE
8
BLACK
6
CONTINUOUS
10
1.2955
20
1.06817
11
1.29594
21
1.06591
0
LINE
8
BLACK
6
CONTINUOUS
10
1.29594
20
1.06591
11
1.29594
21
1.05409
0
LINE
8
BLACK
6
CONTINUOUS
10
1.29594
20
1.05409
11
1.2955
21
1.05183
0
LINE
8
BLACK
6
CONTINUOUS
10
1.2955
20
1.05183
11
1.29422
21
1.04992
0
LINE
8
BLACK
6
CONTINUOUS
10
1.29422
20
1.04992
11
1.2923
21
1.04864
0
LINE
8
BLACK
6
CONTINUOUS
10
1.2923
20
1.04864
11
1.29004
21
1.04819
0
LINE
8
BLACK
6
CONTINUOUS
10
1.29004
20
1.04819
11
1.22508
21
1.04819
0
LINE
8
BLACK
6
CONTINUOUS
10
1.22508
20
1.04819
11
1.22282
21
1.04864
0
LINE
8
BLACK
6
CONTINUOUS
10
1.22282
20
1.04864
11
1.2209
21
1.04992
0
LINE
8
BLACK
6
CONTINUOUS
10
1.2209
20
1.04992
11
1.21962
21
1.05183
0
LINE
8
BLACK
6
CONTINUOUS
10
1.21962
20
1.05183
11
1.21917
21
1.05409
0
LINE
8
BLACK
6
CONTINUOUS
10
1.21917
20
1.05409
11
1.21917
21
1.06591
0
LINE
8
BLACK
6
CONTINUOUS
10
1.21917
20
1.06591
11
1.21962
21
1.06817
0
LINE
8
BLACK
6
CONTINUOUS
10
1.21962
20
1.06817
11
1.2209
21
1.07008
0
LINE
8
BLACK
6
CONTINUOUS
10
1.2209
20
1.07008
11
1.22282
21
1.07136
0
LINE
8
BLACK
6
CONTINUOUS
10
1.22282
20
1.07136
11
1.22508
21
1.07181
0
LINE
8
BLACK
6
CONTINUOUS
10
1.22508
20
1.07181
11
1.29004
21
1.07181
0
LINE
8
BLACK
6
CONTINUOUS
10
1.29004
20
1.07181
11
1.2923
21
1.07136
0
LINE
8
BLACK
6
CONTINUOUS
10
1.48718
20
1.07136
11
1.4891
21
1.07008
0
LINE
8
BLACK
6
CONTINUOUS
10
1.4891
20
1.07008
11
1.49038
21
1.06817
0
LINE
8
BLACK
6
CONTINUOUS
10
1.49038
20
1.06817
11
1.49083
21
1.06591
0
LINE
8
BLACK
6
CONTINUOUS
10
1.49083
20
1.06591
11
1.49083
21
1.05409
0
LINE
8
BLACK
6
CONTINUOUS
10
1.49083
20
1.05409
11
1.49038
21
1.05183
0
LINE
8
BLACK
6
CONTINUOUS
10
1.49038
20
1.05183
11
1.4891
21
1.04992
0
LINE
8
BLACK
6
CONTINUOUS
10
1.4891
20
1.04992
11
1.48718
21
1.04864
0
LINE
8
BLACK
6
CONTINUOUS
10
1.48718
20
1.04864
11
1.48492
21
1.04819
0
LINE
8
BLACK
6
CONTINUOUS
10
1.48492
20
1.04819
11
1.41996
21
1.04819
0
LINE
8
BLACK
6
CONTINUOUS
10
1.41996
20
1.04819
11
1.4177
21
1.04864
0
LINE
8
BLACK
6
CONTINUOUS
10
1.4177
20
1.04864
11
1.41578
21
1.04992
0
LINE
8
BLACK
6
CONTINUOUS
10
1.41578
20
1.04992
11
1.4145
21
1.05183
0
LINE
8
BLACK
6
CONTINUOUS
10
1.4145
20
1.05183
11
1.41406
21
1.05409
0
LINE
8
BLACK
6
CONTINUOUS
10
1.41406
20
1.05409
11
1.41406
21
1.06591
0
LINE
8
BLACK
6
CONTINUOUS
10
1.41406
20
1.06591
11
1.4145
21
1.06817
0
LINE
8
BLACK
6
CONTINUOUS
10
1.4145
20
1.06817
11
1.41578
21
1.07008
0
LINE
8
BLACK
6
CONTINUOUS
10
1.41578
20
1.07008
11
1.4177
21
1.07136
0
LINE
8
BLACK
6
CONTINUOUS
10
1.4177
20
1.07136
11
1.41996
21
1.07181
0
LINE
8
BLACK
6
CONTINUOUS
10
1.41996
20
1.07181
11
1.48492
21
1.07181
0
LINE
8
BLACK
6
CONTINUOUS
10
1.48492
20
1.07181
11
1.48718
21
1.07136
0
LINE
8
BLACK
6
CONTINUOUS
10
1.66648
20
1.1085
11
1.66968
21
1.10637
0
LINE
8
BLACK
6
CONTINUOUS
10
1.66968
20
1.10637
11
1.67181
21
1.10318
0
LINE
8
BLACK
6
CONTINUOUS
10
1.67181
20
1.10318
11
1.67256
21
1.09941
0
LINE
8
BLACK
6
CONTINUOUS
10
1.67256
20
1.09941
11
1.67256
21
1.07874
0
LINE
8
BLACK
6
CONTINUOUS
10
1.67256
20
1.07874
11
1.67181
21
1.07497
0
LINE
8
BLACK
6
CONTINUOUS
10
1.67181
20
1.07497
11
1.66968
21
1.07178
0
LINE
8
BLACK
6
CONTINUOUS
10
1.66968
20
1.07178
11
1.66648
21
1.06965
0
LINE
8
BLACK
6
CONTINUOUS
10
1.66648
20
1.06965
11
1.66272
21
1.0689
0
LINE
8
BLACK
6
CONTINUOUS
10
1.66272
20
1.0689
11
1.62728
21
1.0689
0
LINE
8
BLACK
6
CONTINUOUS
10
1.62728
20
1.0689
11
1.62352
21
1.06965
0
LINE
8
BLACK
6
CONTINUOUS
10
1.62352
20
1.06965
11
1.62032
21
1.07178
0
LINE
8
BLACK
6
CONTINUOUS
10
1.62032
20
1.07178
11
1.61819
21
1.07497
0
LINE
8
BLACK
6
CONTINUOUS
10
1.61819
20
1.07497
11
1.61744
21
1.07874
0
LINE
8
BLACK
6
CONTINUOUS
10
1.61744
20
1.07874
11
1.61744
21
1.09941
0
LINE
8
BLACK
6
CONTINUOUS
10
1.61744
20
1.09941
11
1.61819
21
1.10318
0
LINE
8
BLACK
6
CONTINUOUS
10
1.61819
20
1.10318
11
1.62032
21
1.10637
0
LINE
8
BLACK
6
CONTINUOUS
10
1.62032
20
1.10637
11
1.62352
21
1.1085
0
LINE
8
BLACK
6
CONTINUOUS
10
1.62352
20
1.1085
11
1.62728
21
1.10925
0
LINE
8
BLACK
6
CONTINUOUS
10
1.62728
20
1.10925
11
1.66272
21
1.10925
0
LINE
8
BLACK
6
CONTINUOUS
10
1.66272
20
1.10925
11
1.66648
21
1.1085
0
LINE
8
BLACK
6
CONTINUOUS
10
1.58247
20
1.11153
11
1.58566
21
1.1094
0
LINE
8
BLACK
6
CONTINUOUS
10
1.58566
20
1.1094
11
1.58779
21
1.10621
0
LINE
8
BLACK
6
CONTINUOUS
10
1.58779
20
1.10621
11
1.58854
21
1.10244
0
LINE
8
BLACK
6
CONTINUOUS
10
1.58854
20
1.10244
11
1.58854
21
1.08276
0
LINE
8
BLACK
6
CONTINUOUS
10
1.58854
20
1.08276
11
1.58779
21
1.07899
0
LINE
8
BLACK
6
CONTINUOUS
10
1.58779
20
1.07899
11
1.58566
21
1.0758
0
LINE
8
BLACK
6
CONTINUOUS
10
1.58566
20
1.0758
11
1.58247
21
1.07366
0
LINE
8
BLACK
6
CONTINUOUS
10
1.58247
20
1.07366
11
1.5787
21
1.07291
0
LINE
8
BLACK
6
CONTINUOUS
10
1.5787
20
1.07291
11
1.5413
21
1.07291
0
LINE
8
BLACK
6
CONTINUOUS
10
1.5413
20
1.07291
11
1.53753
21
1.07366
0
LINE
8
BLACK
6
CONTINUOUS
10
1.53753
20
1.07366
11
1.53434
21
1.0758
0
LINE
8
BLACK
6
CONTINUOUS
10
1.53434
20
1.0758
11
1.53221
21
1.07899
0
LINE
8
BLACK
6
CONTINUOUS
10
1.53221
20
1.07899
11
1.53146
21
1.08276
0
LINE
8
BLACK
6
CONTINUOUS
10
1.53146
20
1.08276
11
1.53146
21
1.10244
0
LINE
8
BLACK
6
CONTINUOUS
10
1.53146
20
1.10244
11
1.53221
21
1.10621
0
LINE
8
BLACK
6
CONTINUOUS
10
1.53221
20
1.10621
11
1.53434
21
1.1094
0
LINE
8
BLACK
6
CONTINUOUS
10
1.53434
20
1.1094
11
1.53753
21
1.11153
0
LINE
8
BLACK
6
CONTINUOUS
10
1.53753
20
1.11153
11
1.5413
21
1.11228
0
LINE
8
BLACK
6
CONTINUOUS
10
1.5413
20
1.11228
11
1.5787
21
1.11228
0
LINE
8
BLACK
6
CONTINUOUS
10
1.5787
20
1.11228
11
1.58247
21
1.11153
0
LINE
8
BLACK
6
CONTINUOUS
10
2.36831
20
1.1084
11
2.3711
21
1.10653
0
LINE
8
BLACK
6
CONTINUOUS
10
2.3711
20
1.10653
11
2.37297
21
1.10374
0
LINE
8
BLACK
6
CONTINUOUS
10
2.37297
20
1.10374
11
2.37362
21
1.10044
0
LINE
8
BLACK
6
CONTINUOUS
10
2.37362
20
1.10044
11
2.37362
21
1.08322
0
LINE
8
BLACK
6
CONTINUOUS
10
2.37362
20
1.08322
11
2.37297
21
1.07992
0
LINE
8
BLACK
6
CONTINUOUS
10
2.37297
20
1.07992
11
2.3711
21
1.07713
0
LINE
8
BLACK
6
CONTINUOUS
10
2.3711
20
1.07713
11
2.36831
21
1.07526
0
LINE
8
BLACK
6
CONTINUOUS
10
2.36831
20
1.07526
11
2.36501
21
1.07461
0
LINE
8
BLACK
6
CONTINUOUS
10
2.36501
20
1.07461
11
2.33499
21
1.07461
0
LINE
8
BLACK
6
CONTINUOUS
10
2.33499
20
1.07461
11
2.33169
21
1.07526
0
LINE
8
BLACK
6
CONTINUOUS
10
2.33169
20
1.07526
11
2.3289
21
1.07713
0
LINE
8
BLACK
6
CONTINUOUS
10
2.3289
20
1.07713
11
2.32703
21
1.07992
0
LINE
8
BLACK
6
CONTINUOUS
10
2.32703
20
1.07992
11
2.32638
21
1.08322
0
LINE
8
BLACK
6
CONTINUOUS
10
2.32638
20
1.08322
11
2.32638
21
1.10044
0
LINE
8
BLACK
6
CONTINUOUS
10
2.32638
20
1.10044
11
2.32703
21
1.10374
0
LINE
8
BLACK
6
CONTINUOUS
10
2.32703
20
1.10374
11
2.3289
21
1.10653
0
LINE
8
BLACK
6
CONTINUOUS
10
2.3289
20
1.10653
11
2.33169
21
1.1084
0
LINE
8
BLACK
6
CONTINUOUS
10
2.33169
20
1.1084
11
2.33499
21
1.10906
0
LINE
8
BLACK
6
CONTINUOUS
10
2.33499
20
1.10906
11
2.36501
21
1.10906
0
LINE
8
BLACK
6
CONTINUOUS
10
2.36501
20
1.10906
11
2.36831
21
1.1084
0
LINE
8
BLACK
6
CONTINUOUS
10
0.582231
20
1.12964
11
0.585424
21
1.12751
0
LINE
8
BLACK
6
CONTINUOUS
10
0.585424
20
1.12751
11
0.587558
21
1.12432
0
LINE
8
BLACK
6
CONTINUOUS
10
0.587558
20
1.12432
11
0.588307
21
1.12055
0
LINE
8
BLACK
6
CONTINUOUS
10
0.588307
20
1.12055
11
0.588307
21
1.08709
0
LINE
8
BLACK
6
CONTINUOUS
10
0.588307
20
1.08709
11
0.587558
21
1.08332
0
LINE
8
BLACK
6
CONTINUOUS
10
0.587558
20
1.08332
11
0.585424
21
1.08013
0
LINE
8
BLACK
6
CONTINUOUS
10
0.585424
20
1.08013
11
0.582231
21
1.07799
0
LINE
8
BLACK
6
CONTINUOUS
10
0.582231
20
1.07799
11
0.578465
21
1.07724
0
LINE
8
BLACK
6
CONTINUOUS
10
0.578465
20
1.07724
11
0.543031
21
1.07724
0
LINE
8
BLACK
6
CONTINUOUS
10
0.543031
20
1.07724
11
0.539265
21
1.07799
0
LINE
8
BLACK
6
CONTINUOUS
10
0.539265
20
1.07799
11
0.536072
21
1.08013
0
LINE
8
BLACK
6
CONTINUOUS
10
0.536072
20
1.08013
11
0.533938
21
1.08332
0
LINE
8
BLACK
6
CONTINUOUS
10
0.533938
20
1.08332
11
0.533189
21
1.08709
0
LINE
8
BLACK
6
CONTINUOUS
10
0.533189
20
1.08709
11
0.533189
21
1.12055
0
LINE
8
BLACK
6
CONTINUOUS
10
0.533189
20
1.12055
11
0.533938
21
1.12432
0
LINE
8
BLACK
6
CONTINUOUS
10
0.533938
20
1.12432
11
0.536072
21
1.12751
0
LINE
8
BLACK
6
CONTINUOUS
10
0.536072
20
1.12751
11
0.539265
21
1.12964
0
LINE
8
BLACK
6
CONTINUOUS
10
0.539265
20
1.12964
11
0.543031
21
1.13039
0
LINE
8
BLACK
6
CONTINUOUS
10
0.543031
20
1.13039
11
0.578465
21
1.13039
0
LINE
8
BLACK
6
CONTINUOUS
10
0.578465
20
1.13039
11
0.582231
21
1.12964
0
LINE
8
BLACK
6
CONTINUOUS
10
0.68853
20
1.12964
11
0.691724
21
1.12751
0
LINE
8
BLACK
6
CONTINUOUS
10
0.691724
20
1.12751
11
0.693857
21
1.12432
0
LINE
8
BLACK
6
CONTINUOUS
10
0.693857
20
1.12432
11
0.694606
21
1.12055
0
LINE
8
BLACK
6
CONTINUOUS
10
0.694606
20
1.12055
11
0.694606
21
1.08709
0
LINE
8
BLACK
6
CONTINUOUS
10
0.694606
20
1.08709
11
0.693857
21
1.08332
0
LINE
8
BLACK
6
CONTINUOUS
10
0.693857
20
1.08332
11
0.691724
21
1.08013
0
LINE
8
BLACK
6
CONTINUOUS
10
0.691724
20
1.08013
11
0.68853
21
1.07799
0
LINE
8
BLACK
6
CONTINUOUS
10
0.68853
20
1.07799
11
0.684764
21
1.07724
0
LINE
8
BLACK
6
CONTINUOUS
10
0.684764
20
1.07724
11
0.649331
21
1.07724
0
LINE
8
BLACK
6
CONTINUOUS
10
0.649331
20
1.07724
11
0.645564
21
1.07799
0
LINE
8
BLACK
6
CONTINUOUS
10
0.645564
20
1.07799
11
0.642371
21
1.08013
0
LINE
8
BLACK
6
CONTINUOUS
10
0.642371
20
1.08013
11
0.640237
21
1.08332
0
LINE
8
BLACK
6
CONTINUOUS
10
0.640237
20
1.08332
11
0.639488
21
1.08709
0
LINE
8
BLACK
6
CONTINUOUS
10
0.639488
20
1.08709
11
0.639488
21
1.12055
0
LINE
8
BLACK
6
CONTINUOUS
10
0.639488
20
1.12055
11
0.640237
21
1.12432
0
LINE
8
BLACK
6
CONTINUOUS
10
0.640237
20
1.12432
11
0.642371
21
1.12751
0
LINE
8
BLACK
6
CONTINUOUS
10
0.642371
20
1.12751
11
0.645564
21
1.12964
0
LINE
8
BLACK
6
CONTINUOUS
10
0.645564
20
1.12964
11
0.649331
21
1.13039
0
LINE
8
BLACK
6
CONTINUOUS
10
0.649331
20
1.13039
11
0.684764
21
1.13039
0
LINE
8
BLACK
6
CONTINUOUS
10
0.684764
20
1.13039
11
0.68853
21
1.12964
0
LINE
8
BLACK
6
CONTINUOUS
10
0.901483
20
1.1185
11
0.904676
21
1.11637
0
LINE
8
BLACK
6
CONTINUOUS
10
0.904676
20
1.11637
11
0.90681
21
1.11318
0
LINE
8
BLACK
6
CONTINUOUS
10
0.90681
20
1.11318
11
0.907559
21
1.10941
0
LINE
8
BLACK
6
CONTINUOUS
10
0.907559
20
1.10941
11
0.907559
21
1.08874
0
LINE
8
BLACK
6
CONTINUOUS
10
0.907559
20
1.08874
11
0.90681
21
1.08497
0
LINE
8
BLACK
6
CONTINUOUS
10
0.90681
20
1.08497
11
0.904676
21
1.08178
0
LINE
8
BLACK
6
CONTINUOUS
10
0.904676
20
1.08178
11
0.901483
21
1.07965
0
LINE
8
BLACK
6
CONTINUOUS
10
0.901483
20
1.07965
11
0.897717
21
1.0789
0
LINE
8
BLACK
6
CONTINUOUS
10
0.897717
20
1.0789
11
0.862283
21
1.0789
0
LINE
8
BLACK
6
CONTINUOUS
10
0.862283
20
1.0789
11
0.858517
21
1.07965
0
LINE
8
BLACK
6
CONTINUOUS
10
0.858517
20
1.07965
11
0.855324
21
1.08178
0
LINE
8
BLACK
6
CONTINUOUS
10
0.855324
20
1.08178
11
0.85319
21
1.08497
0
LINE
8
BLACK
6
CONTINUOUS
10
0.85319
20
1.08497
11
0.852441
21
1.08874
0
LINE
8
BLACK
6
CONTINUOUS
10
0.852441
20
1.08874
11
0.852441
21
1.10941
0
LINE
8
BLACK
6
CONTINUOUS
10
0.852441
20
1.10941
11
0.85319
21
1.11318
0
LINE
8
BLACK
6
CONTINUOUS
10
0.85319
20
1.11318
11
0.855324
21
1.11637
0
LINE
8
BLACK
6
CONTINUOUS
10
0.855324
20
1.11637
11
0.858517
21
1.1185
0
LINE
8
BLACK
6
CONTINUOUS
10
0.858517
20
1.1185
11
0.862283
21
1.11925
0
LINE
8
BLACK
6
CONTINUOUS
10
0.862283
20
1.11925
11
0.897717
21
1.11925
0
LINE
8
BLACK
6
CONTINUOUS
10
0.897717
20
1.11925
11
0.901483
21
1.1185
0
LINE
8
BLACK
6
CONTINUOUS
10
2.26212
20
1.1726
11
2.26974
21
1.16965
0
LINE
8
BLACK
6
CONTINUOUS
10
2.26974
20
1.16965
11
2.27669
21
1.16535
0
LINE
8
BLACK
6
CONTINUOUS
10
2.27669
20
1.16535
11
2.28273
21
1.15984
0
LINE
8
BLACK
6
CONTINUOUS
10
2.28273
20
1.15984
11
2.28766
21
1.15332
0
LINE
8
BLACK
6
CONTINUOUS
10
2.28766
20
1.15332
11
2.2913
21
1.146
0
LINE
8
BLACK
6
CONTINUOUS
10
2.2913
20
1.146
11
2.29354
21
1.13814
0
LINE
8
BLACK
6
CONTINUOUS
10
2.29354
20
1.13814
11
2.29429
21
1.13
0
LINE
8
BLACK
6
CONTINUOUS
10
2.29429
20
1.13
11
2.29354
21
1.12186
0
LINE
8
BLACK
6
CONTINUOUS
10
2.29354
20
1.12186
11
2.2913
21
1.114
0
LINE
8
BLACK
6
CONTINUOUS
10
2.2913
20
1.114
11
2.28766
21
1.10668
0
LINE
8
BLACK
6
CONTINUOUS
10
2.28766
20
1.10668
11
2.28273
21
1.10016
0
LINE
8
BLACK
6
CONTINUOUS
10
2.28273
20
1.10016
11
2.27669
21
1.09465
0
LINE
8
BLACK
6
CONTINUOUS
10
2.27669
20
1.09465
11
2.26974
21
1.09035
0
LINE
8
BLACK
6
CONTINUOUS
10
2.26974
20
1.09035
11
2.26212
21
1.0874
0
LINE
8
BLACK
6
CONTINUOUS
10
2.26212
20
1.0874
11
2.25409
21
1.0859
0
LINE
8
BLACK
6
CONTINUOUS
10
2.25409
20
1.0859
11
2.24591
21
1.0859
0
LINE
8
BLACK
6
CONTINUOUS
10
2.24591
20
1.0859
11
2.23788
21
1.0874
0
LINE
8
BLACK
6
CONTINUOUS
10
2.23788
20
1.0874
11
2.23026
21
1.09035
0
LINE
8
BLACK
6
CONTINUOUS
10
2.23026
20
1.09035
11
2.22331
21
1.09465
0
LINE
8
BLACK
6
CONTINUOUS
10
2.22331
20
1.09465
11
2.21727
21
1.10016
0
LINE
8
BLACK
6
CONTINUOUS
10
2.21727
20
1.10016
11
2.21234
21
1.10668
0
LINE
8
BLACK
6
CONTINUOUS
10
2.21234
20
1.10668
11
2.2087
21
1.114
0
LINE
8
BLACK
6
CONTINUOUS
10
2.2087
20
1.114
11
2.20646
21
1.12186
0
LINE
8
BLACK
6
CONTINUOUS
10
2.20646
20
1.12186
11
2.20571
21
1.13
0
LINE
8
BLACK
6
CONTINUOUS
10
2.20571
20
1.13
11
2.20646
21
1.13814
0
LINE
8
BLACK
6
CONTINUOUS
10
2.20646
20
1.13814
11
2.2087
21
1.146
0
LINE
8
BLACK
6
CONTINUOUS
10
2.2087
20
1.146
11
2.21234
21
1.15332
0
LINE
8
BLACK
6
CONTINUOUS
10
2.21234
20
1.15332
11
2.21727
21
1.15984
0
LINE
8
BLACK
6
CONTINUOUS
10
2.21727
20
1.15984
11
2.22331
21
1.16535
0
LINE
8
BLACK
6
CONTINUOUS
10
2.22331
20
1.16535
11
2.23026
21
1.16965
0
LINE
8
BLACK
6
CONTINUOUS
10
2.23026
20
1.16965
11
2.23788
21
1.1726
0
LINE
8
BLACK
6
CONTINUOUS
10
2.23788
20
1.1726
11
2.24591
21
1.1741
0
LINE
8
BLACK
6
CONTINUOUS
10
2.24591
20
1.1741
11
2.25409
21
1.1741
0
LINE
8
BLACK
6
CONTINUOUS
10
2.25409
20
1.1741
11
2.26212
21
1.1726
0
LINE
8
BLACK
6
CONTINUOUS
10
2.46212
20
1.1726
11
2.46974
21
1.16965
0
LINE
8
BLACK
6
CONTINUOUS
10
2.46974
20
1.16965
11
2.47669
21
1.16535
0
LINE
8
BLACK
6
CONTINUOUS
10
2.47669
20
1.16535
11
2.48273
21
1.15984
0
LINE
8
BLACK
6
CONTINUOUS
10
2.48273
20
1.15984
11
2.48766
21
1.15332
0
LINE
8
BLACK
6
CONTINUOUS
10
2.48766
20
1.15332
11
2.4913
21
1.146
0
LINE
8
BLACK
6
CONTINUOUS
10
2.4913
20
1.146
11
2.49354
21
1.13814
0
LINE
8
BLACK
6
CONTINUOUS
10
2.49354
20
1.13814
11
2.49429
21
1.13
0
LINE
8
BLACK
6
CONTINUOUS
10
2.49429
20
1.13
11
2.49354
21
1.12186
0
LINE
8
BLACK
6
CONTINUOUS
10
2.49354
20
1.12186
11
2.4913
21
1.114
0
LINE
8
BLACK
6
CONTINUOUS
10
2.4913
20
1.114
11
2.48766
21
1.10668
0
LINE
8
BLACK
6
CONTINUOUS
10
2.48766
20
1.10668
11
2.48273
21
1.10016
0
LINE
8
BLACK
6
CONTINUOUS
10
2.48273
20
1.10016
11
2.47669
21
1.09465
0
LINE
8
BLACK
6
CONTINUOUS
10
2.47669
20
1.09465
11
2.46974
21
1.09035
0
LINE
8
BLACK
6
CONTINUOUS
10
2.46974
20
1.09035
11
2.46212
21
1.0874
0
LINE
8
BLACK
6
CONTINUOUS
10
2.46212
20
1.0874
11
2.45409
21
1.0859
0
LINE
8
BLACK
6
CONTINUOUS
10
2.45409
20
1.0859
11
2.44591
21
1.0859
0
LINE
8
BLACK
6
CONTINUOUS
10
2.44591
20
1.0859
11
2.43788
21
1.0874
0
LINE
8
BLACK
6
CONTINUOUS
10
2.43788
20
1.0874
11
2.43026
21
1.09035
0
LINE
8
BLACK
6
CONTINUOUS
10
2.43026
20
1.09035
11
2.42331
21
1.09465
0
LINE
8
BLACK
6
CONTINUOUS
10
2.42331
20
1.09465
11
2.41727
21
1.10016
0
LINE
8
BLACK
6
CONTINUOUS
10
2.41727
20
1.10016
11
2.41234
21
1.10668
0
LINE
8
BLACK
6
CONTINUOUS
10
2.41234
20
1.10668
11
2.4087
21
1.114
0
LINE
8
BLACK
6
CONTINUOUS
10
2.4087
20
1.114
11
2.40646
21
1.12186
0
LINE
8
BLACK
6
CONTINUOUS
10
2.40646
20
1.12186
11
2.40571
21
1.13
0
LINE
8
BLACK
6
CONTINUOUS
10
2.40571
20
1.13
11
2.40646
21
1.13814
0
LINE
8
BLACK
6
CONTINUOUS
10
2.40646
20
1.13814
11
2.4087
21
1.146
0
LINE
8
BLACK
6
CONTINUOUS
10
2.4087
20
1.146
11
2.41234
21
1.15332
0
LINE
8
BLACK
6
CONTINUOUS
10
2.41234
20
1.15332
11
2.41727
21
1.15984
0
LINE
8
BLACK
6
CONTINUOUS
10
2.41727
20
1.15984
11
2.42331
21
1.16535
0
LINE
8
BLACK
6
CONTINUOUS
10
2.42331
20
1.16535
11
2.43026
21
1.16965
0
LINE
8
BLACK
6
CONTINUOUS
10
2.43026
20
1.16965
11
2.43788
21
1.1726
0
LINE
8
BLACK
6
CONTINUOUS
10
2.43788
20
1.1726
11
2.44591
21
1.1741
0
LINE
8
BLACK
6
CONTINUOUS
10
2.44591
20
1.1741
11
2.45409
21
1.1741
0
LINE
8
BLACK
6
CONTINUOUS
10
2.45409
20
1.1741
11
2.46212
21
1.1726
0
LINE
8
BLACK
6
CONTINUOUS
10
1.2923
20
1.12136
11
1.29422
21
1.12008
0
LINE
8
BLACK
6
CONTINUOUS
10
1.29422
20
1.12008
11
1.2955
21
1.11817
0
LINE
8
BLACK
6
CONTINUOUS
10
1.2955
20
1.11817
11
1.29594
21
1.11591
0
LINE
8
BLACK
6
CONTINUOUS
10
1.29594
20
1.11591
11
1.29594
21
1.10409
0
LINE
8
BLACK
6
CONTINUOUS
10
1.29594
20
1.10409
11
1.2955
21
1.10183
0
LINE
8
BLACK
6
CONTINUOUS
10
1.2955
20
1.10183
11
1.29422
21
1.09992
0
LINE
8
BLACK
6
CONTINUOUS
10
1.29422
20
1.09992
11
1.2923
21
1.09864
0
LINE
8
BLACK
6
CONTINUOUS
10
1.2923
20
1.09864
11
1.29004
21
1.09819
0
LINE
8
BLACK
6
CONTINUOUS
10
1.29004
20
1.09819
11
1.22508
21
1.09819
0
LINE
8
BLACK
6
CONTINUOUS
10
1.22508
20
1.09819
11
1.22282
21
1.09864
0
LINE
8
BLACK
6
CONTINUOUS
10
1.22282
20
1.09864
11
1.2209
21
1.09992
0
LINE
8
BLACK
6
CONTINUOUS
10
1.2209
20
1.09992
11
1.21962
21
1.10183
0
LINE
8
BLACK
6
CONTINUOUS
10
1.21962
20
1.10183
11
1.21917
21
1.10409
0
LINE
8
BLACK
6
CONTINUOUS
10
1.21917
20
1.10409
11
1.21917
21
1.11591
0
LINE
8
BLACK
6
CONTINUOUS
10
1.21917
20
1.11591
11
1.21962
21
1.11817
0
LINE
8
BLACK
6
CONTINUOUS
10
1.21962
20
1.11817
11
1.2209
21
1.12008
0
LINE
8
BLACK
6
CONTINUOUS
10
1.2209
20
1.12008
11
1.22282
21
1.12136
0
LINE
8
BLACK
6
CONTINUOUS
10
1.22282
20
1.12136
11
1.22508
21
1.12181
0
LINE
8
BLACK
6
CONTINUOUS
10
1.22508
20
1.12181
11
1.29004
21
1.12181
0
LINE
8
BLACK
6
CONTINUOUS
10
1.29004
20
1.12181
11
1.2923
21
1.12136
0
LINE
8
BLACK
6
CONTINUOUS
10
1.48718
20
1.12136
11
1.4891
21
1.12008
0
LINE
8
BLACK
6
CONTINUOUS
10
1.4891
20
1.12008
11
1.49038
21
1.11817
0
LINE
8
BLACK
6
CONTINUOUS
10
1.49038
20
1.11817
11
1.49083
21
1.11591
0
LINE
8
BLACK
6
CONTINUOUS
10
1.49083
20
1.11591
11
1.49083
21
1.10409
0
LINE
8
BLACK
6
CONTINUOUS
10
1.49083
20
1.10409
11
1.49038
21
1.10183
0
LINE
8
BLACK
6
CONTINUOUS
10
1.49038
20
1.10183
11
1.4891
21
1.09992
0
LINE
8
BLACK
6
CONTINUOUS
10
1.4891
20
1.09992
11
1.48718
21
1.09864
0
LINE
8
BLACK
6
CONTINUOUS
10
1.48718
20
1.09864
11
1.48492
21
1.09819
0
LINE
8
BLACK
6
CONTINUOUS
10
1.48492
20
1.09819
11
1.41996
21
1.09819
0
LINE
8
BLACK
6
CONTINUOUS
10
1.41996
20
1.09819
11
1.4177
21
1.09864
0
LINE
8
BLACK
6
CONTINUOUS
10
1.4177
20
1.09864
11
1.41578
21
1.09992
0
LINE
8
BLACK
6
CONTINUOUS
10
1.41578
20
1.09992
11
1.4145
21
1.10183
0
LINE
8
BLACK
6
CONTINUOUS
10
1.4145
20
1.10183
11
1.41406
21
1.10409
0
LINE
8
BLACK
6
CONTINUOUS
10
1.41406
20
1.10409
11
1.41406
21
1.11591
0
LINE
8
BLACK
6
CONTINUOUS
10
1.41406
20
1.11591
11
1.4145
21
1.11817
0
LINE
8
BLACK
6
CONTINUOUS
10
1.4145
20
1.11817
11
1.41578
21
1.12008
0
LINE
8
BLACK
6
CONTINUOUS
10
1.41578
20
1.12008
11
1.4177
21
1.12136
0
LINE
8
BLACK
6
CONTINUOUS
10
1.4177
20
1.12136
11
1.41996
21
1.12181
0
LINE
8
BLACK
6
CONTINUOUS
10
1.41996
20
1.12181
11
1.48492
21
1.12181
0
LINE
8
BLACK
6
CONTINUOUS
10
1.48492
20
1.12181
11
1.48718
21
1.12136
0
LINE
8
BLACK
6
CONTINUOUS
10
1.18148
20
1.14035
11
1.18468
21
1.13822
0
LINE
8
BLACK
6
CONTINUOUS
10
1.18468
20
1.13822
11
1.18681
21
1.13503
0
LINE
8
BLACK
6
CONTINUOUS
10
1.18681
20
1.13503
11
1.18756
21
1.13126
0
LINE
8
BLACK
6
CONTINUOUS
10
1.18756
20
1.13126
11
1.18756
21
1.11059
0
LINE
8
BLACK
6
CONTINUOUS
10
1.18756
20
1.11059
11
1.18681
21
1.10682
0
LINE
8
BLACK
6
CONTINUOUS
10
1.18681
20
1.10682
11
1.18468
21
1.10363
0
LINE
8
BLACK
6
CONTINUOUS
10
1.18468
20
1.10363
11
1.18148
21
1.1015
0
LINE
8
BLACK
6
CONTINUOUS
10
1.18148
20
1.1015
11
1.17772
21
1.10075
0
LINE
8
BLACK
6
CONTINUOUS
10
1.17772
20
1.10075
11
1.14228
21
1.10075
0
LINE
8
BLACK
6
CONTINUOUS
10
1.14228
20
1.10075
11
1.13852
21
1.1015
0
LINE
8
BLACK
6
CONTINUOUS
10
1.13852
20
1.1015
11
1.13532
21
1.10363
0
LINE
8
BLACK
6
CONTINUOUS
10
1.13532
20
1.10363
11
1.13319
21
1.10682
0
LINE
8
BLACK
6
CONTINUOUS
10
1.13319
20
1.10682
11
1.13244
21
1.11059
0
LINE
8
BLACK
6
CONTINUOUS
10
1.13244
20
1.11059
11
1.13244
21
1.13126
0
LINE
8
BLACK
6
CONTINUOUS
10
1.13244
20
1.13126
11
1.13319
21
1.13503
0
LINE
8
BLACK
6
CONTINUOUS
10
1.13319
20
1.13503
11
1.13532
21
1.13822
0
LINE
8
BLACK
6
CONTINUOUS
10
1.13532
20
1.13822
11
1.13852
21
1.14035
0
LINE
8
BLACK
6
CONTINUOUS
10
1.13852
20
1.14035
11
1.14228
21
1.1411
0
LINE
8
BLACK
6
CONTINUOUS
10
1.14228
20
1.1411
11
1.17772
21
1.1411
0
LINE
8
BLACK
6
CONTINUOUS
10
1.17772
20
1.1411
11
1.18148
21
1.14035
0
LINE
8
BLACK
6
CONTINUOUS
10
1.09247
20
1.14134
11
1.09566
21
1.1392
0
LINE
8
BLACK
6
CONTINUOUS
10
1.09566
20
1.1392
11
1.09779
21
1.13601
0
LINE
8
BLACK
6
CONTINUOUS
10
1.09779
20
1.13601
11
1.09854
21
1.13224
0
LINE
8
BLACK
6
CONTINUOUS
10
1.09854
20
1.13224
11
1.09854
21
1.11256
0
LINE
8
BLACK
6
CONTINUOUS
10
1.09854
20
1.11256
11
1.09779
21
1.10879
0
LINE
8
BLACK
6
CONTINUOUS
10
1.09779
20
1.10879
11
1.09566
21
1.1056
0
LINE
8
BLACK
6
CONTINUOUS
10
1.09566
20
1.1056
11
1.09247
21
1.10347
0
LINE
8
BLACK
6
CONTINUOUS
10
1.09247
20
1.10347
11
1.0887
21
1.10272
0
LINE
8
BLACK
6
CONTINUOUS
10
1.0887
20
1.10272
11
1.0513
21
1.10272
0
LINE
8
BLACK
6
CONTINUOUS
10
1.0513
20
1.10272
11
1.04753
21
1.10347
0
LINE
8
BLACK
6
CONTINUOUS
10
1.04753
20
1.10347
11
1.04434
21
1.1056
0
LINE
8
BLACK
6
CONTINUOUS
10
1.04434
20
1.1056
11
1.04221
21
1.10879
0
LINE
8
BLACK
6
CONTINUOUS
10
1.04221
20
1.10879
11
1.04146
21
1.11256
0
LINE
8
BLACK
6
CONTINUOUS
10
1.04146
20
1.11256
11
1.04146
21
1.13224
0
LINE
8
BLACK
6
CONTINUOUS
10
1.04146
20
1.13224
11
1.04221
21
1.13601
0
LINE
8
BLACK
6
CONTINUOUS
10
1.04221
20
1.13601
11
1.04434
21
1.1392
0
LINE
8
BLACK
6
CONTINUOUS
10
1.04434
20
1.1392
11
1.04753
21
1.14134
0
LINE
8
BLACK
6
CONTINUOUS
10
1.04753
20
1.14134
11
1.0513
21
1.14209
0
LINE
8
BLACK
6
CONTINUOUS
10
1.0513
20
1.14209
11
1.0887
21
1.14209
0
LINE
8
BLACK
6
CONTINUOUS
10
1.0887
20
1.14209
11
1.09247
21
1.14134
0
LINE
8
BLACK
6
CONTINUOUS
10
0.34
20
1.125
11
0.28
21
1.125
0
LINE
8
BLACK
6
CONTINUOUS
10
0.28
20
1.125
11
0.28
21
1.185
0
LINE
8
BLACK
6
CONTINUOUS
10
0.28
20
1.185
11
0.34
21
1.185
0
LINE
8
BLACK
6
CONTINUOUS
10
0.34
20
1.185
11
0.34
21
1.125
0
LINE
8
BLACK
6
CONTINUOUS
10
0.44
20
1.125
11
0.38
21
1.125
0
LINE
8
BLACK
6
CONTINUOUS
10
0.38
20
1.125
11
0.38
21
1.185
0
LINE
8
BLACK
6
CONTINUOUS
10
0.38
20
1.185
11
0.44
21
1.185
0
LINE
8
BLACK
6
CONTINUOUS
10
0.44
20
1.185
11
0.44
21
1.125
0
LINE
8
BLACK
6
CONTINUOUS
10
1.66648
20
1.18035
11
1.66968
21
1.17822
0
LINE
8
BLACK
6
CONTINUOUS
10
1.66968
20
1.17822
11
1.67181
21
1.17503
0
LINE
8
BLACK
6
CONTINUOUS
10
1.67181
20
1.17503
11
1.67256
21
1.17126
0
LINE
8
BLACK
6
CONTINUOUS
10
1.67256
20
1.17126
11
1.67256
21
1.15059
0
LINE
8
BLACK
6
CONTINUOUS
10
1.67256
20
1.15059
11
1.67181
21
1.14682
0
LINE
8
BLACK
6
CONTINUOUS
10
1.67181
20
1.14682
11
1.66968
21
1.14363
0
LINE
8
BLACK
6
CONTINUOUS
10
1.66968
20
1.14363
11
1.66648
21
1.1415
0
LINE
8
BLACK
6
CONTINUOUS
10
1.66648
20
1.1415
11
1.66272
21
1.14075
0
LINE
8
BLACK
6
CONTINUOUS
10
1.66272
20
1.14075
11
1.62728
21
1.14075
0
LINE
8
BLACK
6
CONTINUOUS
10
1.62728
20
1.14075
11
1.62352
21
1.1415
0
LINE
8
BLACK
6
CONTINUOUS
10
1.62352
20
1.1415
11
1.62032
21
1.14363
0
LINE
8
BLACK
6
CONTINUOUS
10
1.62032
20
1.14363
11
1.61819
21
1.14682
0
LINE
8
BLACK
6
CONTINUOUS
10
1.61819
20
1.14682
11
1.61744
21
1.15059
0
LINE
8
BLACK
6
CONTINUOUS
10
1.61744
20
1.15059
11
1.61744
21
1.17126
0
LINE
8
BLACK
6
CONTINUOUS
10
1.61744
20
1.17126
11
1.61819
21
1.17503
0
LINE
8
BLACK
6
CONTINUOUS
10
1.61819
20
1.17503
11
1.62032
21
1.17822
0
LINE
8
BLACK
6
CONTINUOUS
10
1.62032
20
1.17822
11
1.62352
21
1.18035
0
LINE
8
BLACK
6
CONTINUOUS
10
1.62352
20
1.18035
11
1.62728
21
1.1811
0
LINE
8
BLACK
6
CONTINUOUS
10
1.62728
20
1.1811
11
1.66272
21
1.1811
0
LINE
8
BLACK
6
CONTINUOUS
10
1.66272
20
1.1811
11
1.66648
21
1.18035
0
LINE
8
BLACK
6
CONTINUOUS
10
1.58247
20
1.18634
11
1.58566
21
1.1842
0
LINE
8
BLACK
6
CONTINUOUS
10
1.58566
20
1.1842
11
1.58779
21
1.18101
0
LINE
8
BLACK
6
CONTINUOUS
10
1.58779
20
1.18101
11
1.58854
21
1.17724
0
LINE
8
BLACK
6
CONTINUOUS
10
1.58854
20
1.17724
11
1.58854
21
1.15756
0
LINE
8
BLACK
6
CONTINUOUS
10
1.58854
20
1.15756
11
1.58779
21
1.15379
0
LINE
8
BLACK
6
CONTINUOUS
10
1.58779
20
1.15379
11
1.58566
21
1.1506
0
LINE
8
BLACK
6
CONTINUOUS
10
1.58566
20
1.1506
11
1.58247
21
1.14847
0
LINE
8
BLACK
6
CONTINUOUS
10
1.58247
20
1.14847
11
1.5787
21
1.14772
0
LINE
8
BLACK
6
CONTINUOUS
10
1.5787
20
1.14772
11
1.5413
21
1.14772
0
LINE
8
BLACK
6
CONTINUOUS
10
1.5413
20
1.14772
11
1.53753
21
1.14847
0
LINE
8
BLACK
6
CONTINUOUS
10
1.53753
20
1.14847
11
1.53434
21
1.1506
0
LINE
8
BLACK
6
CONTINUOUS
10
1.53434
20
1.1506
11
1.53221
21
1.15379
0
LINE
8
BLACK
6
CONTINUOUS
10
1.53221
20
1.15379
11
1.53146
21
1.15756
0
LINE
8
BLACK
6
CONTINUOUS
10
1.53146
20
1.15756
11
1.53146
21
1.17724
0
LINE
8
BLACK
6
CONTINUOUS
10
1.53146
20
1.17724
11
1.53221
21
1.18101
0
LINE
8
BLACK
6
CONTINUOUS
10
1.53221
20
1.18101
11
1.53434
21
1.1842
0
LINE
8
BLACK
6
CONTINUOUS
10
1.53434
20
1.1842
11
1.53753
21
1.18634
0
LINE
8
BLACK
6
CONTINUOUS
10
1.53753
20
1.18634
11
1.5413
21
1.18709
0
LINE
8
BLACK
6
CONTINUOUS
10
1.5413
20
1.18709
11
1.5787
21
1.18709
0
LINE
8
BLACK
6
CONTINUOUS
10
1.5787
20
1.18709
11
1.58247
21
1.18634
0
LINE
8
BLACK
6
CONTINUOUS
10
1.2923
20
1.17136
11
1.29422
21
1.17008
0
LINE
8
BLACK
6
CONTINUOUS
10
1.29422
20
1.17008
11
1.2955
21
1.16817
0
LINE
8
BLACK
6
CONTINUOUS
10
1.2955
20
1.16817
11
1.29594
21
1.16591
0
LINE
8
BLACK
6
CONTINUOUS
10
1.29594
20
1.16591
11
1.29594
21
1.15409
0
LINE
8
BLACK
6
CONTINUOUS
10
1.29594
20
1.15409
11
1.2955
21
1.15183
0
LINE
8
BLACK
6
CONTINUOUS
10
1.2955
20
1.15183
11
1.29422
21
1.14992
0
LINE
8
BLACK
6
CONTINUOUS
10
1.29422
20
1.14992
11
1.2923
21
1.14864
0
LINE
8
BLACK
6
CONTINUOUS
10
1.2923
20
1.14864
11
1.29004
21
1.14819
0
LINE
8
BLACK
6
CONTINUOUS
10
1.29004
20
1.14819
11
1.22508
21
1.14819
0
LINE
8
BLACK
6
CONTINUOUS
10
1.22508
20
1.14819
11
1.22282
21
1.14864
0
LINE
8
BLACK
6
CONTINUOUS
10
1.22282
20
1.14864
11
1.2209
21
1.14992
0
LINE
8
BLACK
6
CONTINUOUS
10
1.2209
20
1.14992
11
1.21962
21
1.15183
0
LINE
8
BLACK
6
CONTINUOUS
10
1.21962
20
1.15183
11
1.21917
21
1.15409
0
LINE
8
BLACK
6
CONTINUOUS
10
1.21917
20
1.15409
11
1.21917
21
1.16591
0
LINE
8
BLACK
6
CONTINUOUS
10
1.21917
20
1.16591
11
1.21962
21
1.16817
0
LINE
8
BLACK
6
CONTINUOUS
10
1.21962
20
1.16817
11
1.2209
21
1.17008
0
LINE
8
BLACK
6
CONTINUOUS
10
1.2209
20
1.17008
11
1.22282
21
1.17136
0
LINE
8
BLACK
6
CONTINUOUS
10
1.22282
20
1.17136
11
1.22508
21
1.17181
0
LINE
8
BLACK
6
CONTINUOUS
10
1.22508
20
1.17181
11
1.29004
21
1.17181
0
LINE
8
BLACK
6
CONTINUOUS
10
1.29004
20
1.17181
11
1.2923
21
1.17136
0
LINE
8
BLACK
6
CONTINUOUS
10
1.48718
20
1.17136
11
1.4891
21
1.17008
0
LINE
8
BLACK
6
CONTINUOUS
10
1.4891
20
1.17008
11
1.49038
21
1.16817
0
LINE
8
BLACK
6
CONTINUOUS
10
1.49038
20
1.16817
11
1.49083
21
1.16591
0
LINE
8
BLACK
6
CONTINUOUS
10
1.49083
20
1.16591
11
1.49083
21
1.15409
0
LINE
8
BLACK
6
CONTINUOUS
10
1.49083
20
1.15409
11
1.49038
21
1.15183
0
LINE
8
BLACK
6
CONTINUOUS
10
1.49038
20
1.15183
11
1.4891
21
1.14992
0
LINE
8
BLACK
6
CONTINUOUS
10
1.4891
20
1.14992
11
1.48718
21
1.14864
0
LINE
8
BLACK
6
CONTINUOUS
10
1.48718
20
1.14864
11
1.48492
21
1.14819
0
LINE
8
BLACK
6
CONTINUOUS
10
1.48492
20
1.14819
11
1.41996
21
1.14819
0
LINE
8
BLACK
6
CONTINUOUS
10
1.41996
20
1.14819
11
1.4177
21
1.14864
0
LINE
8
BLACK
6
CONTINUOUS
10
1.4177
20
1.14864
11
1.41578
21
1.14992
0
LINE
8
BLACK
6
CONTINUOUS
10
1.41578
20
1.14992
11
1.4145
21
1.15183
0
LINE
8
BLACK
6
CONTINUOUS
10
1.4145
20
1.15183
11
1.41406
21
1.15409
0
LINE
8
BLACK
6
CONTINUOUS
10
1.41406
20
1.15409
11
1.41406
21
1.16591
0
LINE
8
BLACK
6
CONTINUOUS
10
1.41406
20
1.16591
11
1.4145
21
1.16817
0
LINE
8
BLACK
6
CONTINUOUS
10
1.4145
20
1.16817
11
1.41578
21
1.17008
0
LINE
8
BLACK
6
CONTINUOUS
10
1.41578
20
1.17008
11
1.4177
21
1.17136
0
LINE
8
BLACK
6
CONTINUOUS
10
1.4177
20
1.17136
11
1.41996
21
1.17181
0
LINE
8
BLACK
6
CONTINUOUS
10
1.41996
20
1.17181
11
1.48492
21
1.17181
0
LINE
8
BLACK
6
CONTINUOUS
10
1.48492
20
1.17181
11
1.48718
21
1.17136
0
LINE
8
BLACK
6
CONTINUOUS
10
0.901483
20
1.19035
11
0.904676
21
1.18822
0
LINE
8
BLACK
6
CONTINUOUS
10
0.904676
20
1.18822
11
0.90681
21
1.18503
0
LINE
8
BLACK
6
CONTINUOUS
10
0.90681
20
1.18503
11
0.907559
21
1.18126
0
LINE
8
BLACK
6
CONTINUOUS
10
0.907559
20
1.18126
11
0.907559
21
1.16059
0
LINE
8
BLACK
6
CONTINUOUS
10
0.907559
20
1.16059
11
0.90681
21
1.15682
0
LINE
8
BLACK
6
CONTINUOUS
10
0.90681
20
1.15682
11
0.904676
21
1.15363
0
LINE
8
BLACK
6
CONTINUOUS
10
0.904676
20
1.15363
11
0.901483
21
1.1515
0
LINE
8
BLACK
6
CONTINUOUS
10
0.901483
20
1.1515
11
0.897717
21
1.15075
0
LINE
8
BLACK
6
CONTINUOUS
10
0.897717
20
1.15075
11
0.862283
21
1.15075
0
LINE
8
BLACK
6
CONTINUOUS
10
0.862283
20
1.15075
11
0.858517
21
1.1515
0
LINE
8
BLACK
6
CONTINUOUS
10
0.858517
20
1.1515
11
0.855324
21
1.15363
0
LINE
8
BLACK
6
CONTINUOUS
10
0.855324
20
1.15363
11
0.85319
21
1.15682
0
LINE
8
BLACK
6
CONTINUOUS
10
0.85319
20
1.15682
11
0.852441
21
1.16059
0
LINE
8
BLACK
6
CONTINUOUS
10
0.852441
20
1.16059
11
0.852441
21
1.18126
0
LINE
8
BLACK
6
CONTINUOUS
10
0.852441
20
1.18126
11
0.85319
21
1.18503
0
LINE
8
BLACK
6
CONTINUOUS
10
0.85319
20
1.18503
11
0.855324
21
1.18822
0
LINE
8
BLACK
6
CONTINUOUS
10
0.855324
20
1.18822
11
0.858517
21
1.19035
0
LINE
8
BLACK
6
CONTINUOUS
10
0.858517
20
1.19035
11
0.862283
21
1.1911
0
LINE
8
BLACK
6
CONTINUOUS
10
0.862283
20
1.1911
11
0.897717
21
1.1911
0
LINE
8
BLACK
6
CONTINUOUS
10
0.897717
20
1.1911
11
0.901483
21
1.19035
0
LINE
8
BLACK
6
CONTINUOUS
10
0.657677
20
1.17476
11
0.630118
21
1.17476
0
LINE
8
BLACK
6
CONTINUOUS
10
0.630118
20
1.17476
11
0.630118
21
1.29287
0
LINE
8
BLACK
6
CONTINUOUS
10
0.630118
20
1.29287
11
0.657677
21
1.29287
0
LINE
8
BLACK
6
CONTINUOUS
10
0.657677
20
1.29287
11
0.657677
21
1.17476
0
LINE
8
BLACK
6
CONTINUOUS
10
1.10121
20
1.23779
11
1.1044
21
1.23566
0
LINE
8
BLACK
6
CONTINUOUS
10
1.1044
20
1.23566
11
1.10653
21
1.23247
0
LINE
8
BLACK
6
CONTINUOUS
10
1.10653
20
1.23247
11
1.10728
21
1.2287
0
LINE
8
BLACK
6
CONTINUOUS
10
1.10728
20
1.2287
11
1.10728
21
1.1913
0
LINE
8
BLACK
6
CONTINUOUS
10
1.10728
20
1.1913
11
1.10653
21
1.18753
0
LINE
8
BLACK
6
CONTINUOUS
10
1.10653
20
1.18753
11
1.1044
21
1.18434
0
LINE
8
BLACK
6
CONTINUOUS
10
1.1044
20
1.18434
11
1.10121
21
1.18221
0
LINE
8
BLACK
6
CONTINUOUS
10
1.10121
20
1.18221
11
1.09744
21
1.18146
0
LINE
8
BLACK
6
CONTINUOUS
10
1.09744
20
1.18146
11
1.07776
21
1.18146
0
LINE
8
BLACK
6
CONTINUOUS
10
1.07776
20
1.18146
11
1.07399
21
1.18221
0
LINE
8
BLACK
6
CONTINUOUS
10
1.07399
20
1.18221
11
1.0708
21
1.18434
0
LINE
8
BLACK
6
CONTINUOUS
10
1.0708
20
1.18434
11
1.06866
21
1.18753
0
LINE
8
BLACK
6
CONTINUOUS
10
1.06866
20
1.18753
11
1.06791
21
1.1913
0
LINE
8
BLACK
6
CONTINUOUS
10
1.06791
20
1.1913
11
1.06791
21
1.2287
0
LINE
8
BLACK
6
CONTINUOUS
10
1.06791
20
1.2287
11
1.06866
21
1.23247
0
LINE
8
BLACK
6
CONTINUOUS
10
1.06866
20
1.23247
11
1.0708
21
1.23566
0
LINE
8
BLACK
6
CONTINUOUS
10
1.0708
20
1.23566
11
1.07399
21
1.23779
0
LINE
8
BLACK
6
CONTINUOUS
10
1.07399
20
1.23779
11
1.07776
21
1.23854
0
LINE
8
BLACK
6
CONTINUOUS
10
1.07776
20
1.23854
11
1.09744
21
1.23854
0
LINE
8
BLACK
6
CONTINUOUS
10
1.09744
20
1.23854
11
1.10121
21
1.23779
0
LINE
8
BLACK
6
CONTINUOUS
10
1.17601
20
1.23779
11
1.1792
21
1.23566
0
LINE
8
BLACK
6
CONTINUOUS
10
1.1792
20
1.23566
11
1.18134
21
1.23247
0
LINE
8
BLACK
6
CONTINUOUS
10
1.18134
20
1.23247
11
1.18209
21
1.2287
0
LINE
8
BLACK
6
CONTINUOUS
10
1.18209
20
1.2287
11
1.18209
21
1.1913
0
LINE
8
BLACK
6
CONTINUOUS
10
1.18209
20
1.1913
11
1.18134
21
1.18753
0
LINE
8
BLACK
6
CONTINUOUS
10
1.18134
20
1.18753
11
1.1792
21
1.18434
0
LINE
8
BLACK
6
CONTINUOUS
10
1.1792
20
1.18434
11
1.17601
21
1.18221
0
LINE
8
BLACK
6
CONTINUOUS
10
1.17601
20
1.18221
11
1.17224
21
1.18146
0
LINE
8
BLACK
6
CONTINUOUS
10
1.17224
20
1.18146
11
1.15256
21
1.18146
0
LINE
8
BLACK
6
CONTINUOUS
10
1.15256
20
1.18146
11
1.14879
21
1.18221
0
LINE
8
BLACK
6
CONTINUOUS
10
1.14879
20
1.18221
11
1.1456
21
1.18434
0
LINE
8
BLACK
6
CONTINUOUS
10
1.1456
20
1.18434
11
1.14347
21
1.18753
0
LINE
8
BLACK
6
CONTINUOUS
10
1.14347
20
1.18753
11
1.14272
21
1.1913
0
LINE
8
BLACK
6
CONTINUOUS
10
1.14272
20
1.1913
11
1.14272
21
1.2287
0
LINE
8
BLACK
6
CONTINUOUS
10
1.14272
20
1.2287
11
1.14347
21
1.23247
0
LINE
8
BLACK
6
CONTINUOUS
10
1.14347
20
1.23247
11
1.1456
21
1.23566
0
LINE
8
BLACK
6
CONTINUOUS
10
1.1456
20
1.23566
11
1.14879
21
1.23779
0
LINE
8
BLACK
6
CONTINUOUS
10
1.14879
20
1.23779
11
1.15256
21
1.23854
0
LINE
8
BLACK
6
CONTINUOUS
10
1.15256
20
1.23854
11
1.17224
21
1.23854
0
LINE
8
BLACK
6
CONTINUOUS
10
1.17224
20
1.23854
11
1.17601
21
1.23779
0
LINE
8
BLACK
6
CONTINUOUS
10
2.35787
20
1.26958
11
2.36544
21
1.26728
0
LINE
8
BLACK
6
CONTINUOUS
10
2.36544
20
1.26728
11
2.37242
21
1.26355
0
LINE
8
BLACK
6
CONTINUOUS
10
2.37242
20
1.26355
11
2.37853
21
1.25853
0
LINE
8
BLACK
6
CONTINUOUS
10
2.37853
20
1.25853
11
2.38355
21
1.25242
0
LINE
8
BLACK
6
CONTINUOUS
10
2.38355
20
1.25242
11
2.38728
21
1.24544
0
LINE
8
BLACK
6
CONTINUOUS
10
2.38728
20
1.24544
11
2.38958
21
1.23787
0
LINE
8
BLACK
6
CONTINUOUS
10
2.38958
20
1.23787
11
2.39035
21
1.23
0
LINE
8
BLACK
6
CONTINUOUS
10
2.39035
20
1.23
11
2.38958
21
1.22213
0
LINE
8
BLACK
6
CONTINUOUS
10
2.38958
20
1.22213
11
2.38728
21
1.21456
0
LINE
8
BLACK
6
CONTINUOUS
10
2.38728
20
1.21456
11
2.38355
21
1.20758
0
LINE
8
BLACK
6
CONTINUOUS
10
2.38355
20
1.20758
11
2.37853
21
1.20147
0
LINE
8
BLACK
6
CONTINUOUS
10
2.37853
20
1.20147
11
2.37242
21
1.19645
0
LINE
8
BLACK
6
CONTINUOUS
10
2.37242
20
1.19645
11
2.36544
21
1.19272
0
LINE
8
BLACK
6
CONTINUOUS
10
2.36544
20
1.19272
11
2.35787
21
1.19042
0
LINE
8
BLACK
6
CONTINUOUS
10
2.35787
20
1.19042
11
2.35
21
1.18965
0
LINE
8
BLACK
6
CONTINUOUS
10
2.35
20
1.18965
11
2.34213
21
1.19042
0
LINE
8
BLACK
6
CONTINUOUS
10
2.34213
20
1.19042
11
2.33456
21
1.19272
0
LINE
8
BLACK
6
CONTINUOUS
10
2.33456
20
1.19272
11
2.32758
21
1.19645
0
LINE
8
BLACK
6
CONTINUOUS
10
2.32758
20
1.19645
11
2.32147
21
1.20147
0
LINE
8
BLACK
6
CONTINUOUS
10
2.32147
20
1.20147
11
2.31645
21
1.20758
0
LINE
8
BLACK
6
CONTINUOUS
10
2.31645
20
1.20758
11
2.31272
21
1.21456
0
LINE
8
BLACK
6
CONTINUOUS
10
2.31272
20
1.21456
11
2.31042
21
1.22213
0
LINE
8
BLACK
6
CONTINUOUS
10
2.31042
20
1.22213
11
2.30965
21
1.23
0
LINE
8
BLACK
6
CONTINUOUS
10
2.30965
20
1.23
11
2.31042
21
1.23787
0
LINE
8
BLACK
6
CONTINUOUS
10
2.31042
20
1.23787
11
2.31272
21
1.24544
0
LINE
8
BLACK
6
CONTINUOUS
10
2.31272
20
1.24544
11
2.31645
21
1.25242
0
LINE
8
BLACK
6
CONTINUOUS
10
2.31645
20
1.25242
11
2.32147
21
1.25853
0
LINE
8
BLACK
6
CONTINUOUS
10
2.32147
20
1.25853
11
2.32758
21
1.26355
0
LINE
8
BLACK
6
CONTINUOUS
10
2.32758
20
1.26355
11
2.33456
21
1.26728
0
LINE
8
BLACK
6
CONTINUOUS
10
2.33456
20
1.26728
11
2.34213
21
1.26958
0
LINE
8
BLACK
6
CONTINUOUS
10
2.34213
20
1.26958
11
2.35
21
1.27035
0
LINE
8
BLACK
6
CONTINUOUS
10
2.35
20
1.27035
11
2.35787
21
1.26958
0
LINE
8
BLACK
6
CONTINUOUS
10
2.11621
20
1.25779
11
2.1194
21
1.25566
0
LINE
8
BLACK
6
CONTINUOUS
10
2.1194
20
1.25566
11
2.12153
21
1.25247
0
LINE
8
BLACK
6
CONTINUOUS
10
2.12153
20
1.25247
11
2.12228
21
1.2487
0
LINE
8
BLACK
6
CONTINUOUS
10
2.12228
20
1.2487
11
2.12228
21
1.2113
0
LINE
8
BLACK
6
CONTINUOUS
10
2.12228
20
1.2113
11
2.12153
21
1.20753
0
LINE
8
BLACK
6
CONTINUOUS
10
2.12153
20
1.20753
11
2.1194
21
1.20434
0
LINE
8
BLACK
6
CONTINUOUS
10
2.1194
20
1.20434
11
2.11621
21
1.20221
0
LINE
8
BLACK
6
CONTINUOUS
10
2.11621
20
1.20221
11
2.11244
21
1.20146
0
LINE
8
BLACK
6
CONTINUOUS
10
2.11244
20
1.20146
11
2.09276
21
1.20146
0
LINE
8
BLACK
6
CONTINUOUS
10
2.09276
20
1.20146
11
2.08899
21
1.20221
0
LINE
8
BLACK
6
CONTINUOUS
10
2.08899
20
1.20221
11
2.0858
21
1.20434
0
LINE
8
BLACK
6
CONTINUOUS
10
2.0858
20
1.20434
11
2.08366
21
1.20753
0
LINE
8
BLACK
6
CONTINUOUS
10
2.08366
20
1.20753
11
2.08291
21
1.2113
0
LINE
8
BLACK
6
CONTINUOUS
10
2.08291
20
1.2113
11
2.08291
21
1.2487
0
LINE
8
BLACK
6
CONTINUOUS
10
2.08291
20
1.2487
11
2.08366
21
1.25247
0
LINE
8
BLACK
6
CONTINUOUS
10
2.08366
20
1.25247
11
2.0858
21
1.25566
0
LINE
8
BLACK
6
CONTINUOUS
10
2.0858
20
1.25566
11
2.08899
21
1.25779
0
LINE
8
BLACK
6
CONTINUOUS
10
2.08899
20
1.25779
11
2.09276
21
1.25854
0
LINE
8
BLACK
6
CONTINUOUS
10
2.09276
20
1.25854
11
2.11244
21
1.25854
0
LINE
8
BLACK
6
CONTINUOUS
10
2.11244
20
1.25854
11
2.11621
21
1.25779
0
LINE
8
BLACK
6
CONTINUOUS
10
2.19101
20
1.25779
11
2.1942
21
1.25566
0
LINE
8
BLACK
6
CONTINUOUS
10
2.1942
20
1.25566
11
2.19634
21
1.25247
0
LINE
8
BLACK
6
CONTINUOUS
10
2.19634
20
1.25247
11
2.19709
21
1.2487
0
LINE
8
BLACK
6
CONTINUOUS
10
2.19709
20
1.2487
11
2.19709
21
1.2113
0
LINE
8
BLACK
6
CONTINUOUS
10
2.19709
20
1.2113
11
2.19634
21
1.20753
0
LINE
8
BLACK
6
CONTINUOUS
10
2.19634
20
1.20753
11
2.1942
21
1.20434
0
LINE
8
BLACK
6
CONTINUOUS
10
2.1942
20
1.20434
11
2.19101
21
1.20221
0
LINE
8
BLACK
6
CONTINUOUS
10
2.19101
20
1.20221
11
2.18724
21
1.20146
0
LINE
8
BLACK
6
CONTINUOUS
10
2.18724
20
1.20146
11
2.16756
21
1.20146
0
LINE
8
BLACK
6
CONTINUOUS
10
2.16756
20
1.20146
11
2.16379
21
1.20221
0
LINE
8
BLACK
6
CONTINUOUS
10
2.16379
20
1.20221
11
2.1606
21
1.20434
0
LINE
8
BLACK
6
CONTINUOUS
10
2.1606
20
1.20434
11
2.15847
21
1.20753
0
LINE
8
BLACK
6
CONTINUOUS
10
2.15847
20
1.20753
11
2.15772
21
1.2113
0
LINE
8
BLACK
6
CONTINUOUS
10
2.15772
20
1.2113
11
2.15772
21
1.2487
0
LINE
8
BLACK
6
CONTINUOUS
10
2.15772
20
1.2487
11
2.15847
21
1.25247
0
LINE
8
BLACK
6
CONTINUOUS
10
2.15847
20
1.25247
11
2.1606
21
1.25566
0
LINE
8
BLACK
6
CONTINUOUS
10
2.1606
20
1.25566
11
2.16379
21
1.25779
0
LINE
8
BLACK
6
CONTINUOUS
10
2.16379
20
1.25779
11
2.16756
21
1.25854
0
LINE
8
BLACK
6
CONTINUOUS
10
2.16756
20
1.25854
11
2.18724
21
1.25854
0
LINE
8
BLACK
6
CONTINUOUS
10
2.18724
20
1.25854
11
2.19101
21
1.25779
0
LINE
8
BLACK
6
CONTINUOUS
10
0.616339
20
1.20429
11
0.565157
21
1.20429
0
LINE
8
BLACK
6
CONTINUOUS
10
0.565157
20
1.20429
11
0.565157
21
1.26335
0
LINE
8
BLACK
6
CONTINUOUS
10
0.565157
20
1.26335
11
0.616339
21
1.26335
0
LINE
8
BLACK
6
CONTINUOUS
10
0.616339
20
1.26335
11
0.616339
21
1.20429
0
LINE
8
BLACK
6
CONTINUOUS
10
0.722638
20
1.20429
11
0.671457
21
1.20429
0
LINE
8
BLACK
6
CONTINUOUS
10
0.671457
20
1.20429
11
0.671457
21
1.26335
0
LINE
8
BLACK
6
CONTINUOUS
10
0.671457
20
1.26335
11
0.722638
21
1.26335
0
LINE
8
BLACK
6
CONTINUOUS
10
0.722638
20
1.26335
11
0.722638
21
1.20429
0
LINE
8
BLACK
6
CONTINUOUS
10
1.42621
20
1.26779
11
1.4294
21
1.26566
0
LINE
8
BLACK
6
CONTINUOUS
10
1.4294
20
1.26566
11
1.43153
21
1.26247
0
LINE
8
BLACK
6
CONTINUOUS
10
1.43153
20
1.26247
11
1.43228
21
1.2587
0
LINE
8
BLACK
6
CONTINUOUS
10
1.43228
20
1.2587
11
1.43228
21
1.2213
0
LINE
8
BLACK
6
CONTINUOUS
10
1.43228
20
1.2213
11
1.43153
21
1.21753
0
LINE
8
BLACK
6
CONTINUOUS
10
1.43153
20
1.21753
11
1.4294
21
1.21434
0
LINE
8
BLACK
6
CONTINUOUS
10
1.4294
20
1.21434
11
1.42621
21
1.21221
0
LINE
8
BLACK
6
CONTINUOUS
10
1.42621
20
1.21221
11
1.42244
21
1.21146
0
LINE
8
BLACK
6
CONTINUOUS
10
1.42244
20
1.21146
11
1.40276
21
1.21146
0
LINE
8
BLACK
6
CONTINUOUS
10
1.40276
20
1.21146
11
1.39899
21
1.21221
0
LINE
8
BLACK
6
CONTINUOUS
10
1.39899
20
1.21221
11
1.3958
21
1.21434
0
LINE
8
BLACK
6
CONTINUOUS
10
1.3958
20
1.21434
11
1.39366
21
1.21753
0
LINE
8
BLACK
6
CONTINUOUS
10
1.39366
20
1.21753
11
1.39291
21
1.2213
0
LINE
8
BLACK
6
CONTINUOUS
10
1.39291
20
1.2213
11
1.39291
21
1.2587
0
LINE
8
BLACK
6
CONTINUOUS
10
1.39291
20
1.2587
11
1.39366
21
1.26247
0
LINE
8
BLACK
6
CONTINUOUS
10
1.39366
20
1.26247
11
1.3958
21
1.26566
0
LINE
8
BLACK
6
CONTINUOUS
10
1.3958
20
1.26566
11
1.39899
21
1.26779
0
LINE
8
BLACK
6
CONTINUOUS
10
1.39899
20
1.26779
11
1.40276
21
1.26854
0
LINE
8
BLACK
6
CONTINUOUS
10
1.40276
20
1.26854
11
1.42244
21
1.26854
0
LINE
8
BLACK
6
CONTINUOUS
10
1.42244
20
1.26854
11
1.42621
21
1.26779
0
LINE
8
BLACK
6
CONTINUOUS
10
1.50101
20
1.26779
11
1.5042
21
1.26566
0
LINE
8
BLACK
6
CONTINUOUS
10
1.5042
20
1.26566
11
1.50634
21
1.26247
0
LINE
8
BLACK
6
CONTINUOUS
10
1.50634
20
1.26247
11
1.50709
21
1.2587
0
LINE
8
BLACK
6
CONTINUOUS
10
1.50709
20
1.2587
11
1.50709
21
1.2213
0
LINE
8
BLACK
6
CONTINUOUS
10
1.50709
20
1.2213
11
1.50634
21
1.21753
0
LINE
8
BLACK
6
CONTINUOUS
10
1.50634
20
1.21753
11
1.5042
21
1.21434
0
LINE
8
BLACK
6
CONTINUOUS
10
1.5042
20
1.21434
11
1.50101
21
1.21221
0
LINE
8
BLACK
6
CONTINUOUS
10
1.50101
20
1.21221
11
1.49724
21
1.21146
0
LINE
8
BLACK
6
CONTINUOUS
10
1.49724
20
1.21146
11
1.47756
21
1.21146
0
LINE
8
BLACK
6
CONTINUOUS
10
1.47756
20
1.21146
11
1.47379
21
1.21221
0
LINE
8
BLACK
6
CONTINUOUS
10
1.47379
20
1.21221
11
1.4706
21
1.21434
0
LINE
8
BLACK
6
CONTINUOUS
10
1.4706
20
1.21434
11
1.46847
21
1.21753
0
LINE
8
BLACK
6
CONTINUOUS
10
1.46847
20
1.21753
11
1.46772
21
1.2213
0
LINE
8
BLACK
6
CONTINUOUS
10
1.46772
20
1.2213
11
1.46772
21
1.2587
0
LINE
8
BLACK
6
CONTINUOUS
10
1.46772
20
1.2587
11
1.46847
21
1.26247
0
LINE
8
BLACK
6
CONTINUOUS
10
1.46847
20
1.26247
11
1.4706
21
1.26566
0
LINE
8
BLACK
6
CONTINUOUS
10
1.4706
20
1.26566
11
1.47379
21
1.26779
0
LINE
8
BLACK
6
CONTINUOUS
10
1.47379
20
1.26779
11
1.47756
21
1.26854
0
LINE
8
BLACK
6
CONTINUOUS
10
1.47756
20
1.26854
11
1.49724
21
1.26854
0
LINE
8
BLACK
6
CONTINUOUS
10
1.49724
20
1.26854
11
1.50101
21
1.26779
0
LINE
8
BLACK
6
CONTINUOUS
10
0.877467
20
1.25653
11
0.880661
21
1.2544
0
LINE
8
BLACK
6
CONTINUOUS
10
0.880661
20
1.2544
11
0.882794
21
1.25121
0
LINE
8
BLACK
6
CONTINUOUS
10
0.882794
20
1.25121
11
0.883543
21
1.24744
0
LINE
8
BLACK
6
CONTINUOUS
10
0.883543
20
1.24744
11
0.883543
21
1.22776
0
LINE
8
BLACK
6
CONTINUOUS
10
0.883543
20
1.22776
11
0.882794
21
1.22399
0
LINE
8
BLACK
6
CONTINUOUS
10
0.882794
20
1.22399
11
0.880661
21
1.2208
0
LINE
8
BLACK
6
CONTINUOUS
10
0.880661
20
1.2208
11
0.877467
21
1.21866
0
LINE
8
BLACK
6
CONTINUOUS
10
0.877467
20
1.21866
11
0.873701
21
1.21791
0
LINE
8
BLACK
6
CONTINUOUS
10
0.873701
20
1.21791
11
0.836299
21
1.21791
0
LINE
8
BLACK
6
CONTINUOUS
10
0.836299
20
1.21791
11
0.832533
21
1.21866
0
LINE
8
BLACK
6
CONTINUOUS
10
0.832533
20
1.21866
11
0.829339
21
1.2208
0
LINE
8
BLACK
6
CONTINUOUS
10
0.829339
20
1.2208
11
0.827206
21
1.22399
0
LINE
8
BLACK
6
CONTINUOUS
10
0.827206
20
1.22399
11
0.826457
21
1.22776
0
LINE
8
BLACK
6
CONTINUOUS
10
0.826457
20
1.22776
11
0.826457
21
1.24744
0
LINE
8
BLACK
6
CONTINUOUS
10
0.826457
20
1.24744
11
0.827206
21
1.25121
0
LINE
8
BLACK
6
CONTINUOUS
10
0.827206
20
1.25121
11
0.829339
21
1.2544
0
LINE
8
BLACK
6
CONTINUOUS
10
0.829339
20
1.2544
11
0.832533
21
1.25653
0
LINE
8
BLACK
6
CONTINUOUS
10
0.832533
20
1.25653
11
0.836299
21
1.25728
0
LINE
8
BLACK
6
CONTINUOUS
10
0.836299
20
1.25728
11
0.873701
21
1.25728
0
LINE
8
BLACK
6
CONTINUOUS
10
0.873701
20
1.25728
11
0.877467
21
1.25653
0
LINE
8
BLACK
6
CONTINUOUS
10
0.34
20
1.225
11
0.28
21
1.225
0
LINE
8
BLACK
6
CONTINUOUS
10
0.28
20
1.225
11
0.28
21
1.285
0
LINE
8
BLACK
6
CONTINUOUS
10
0.28
20
1.285
11
0.34
21
1.285
0
LINE
8
BLACK
6
CONTINUOUS
10
0.34
20
1.285
11
0.34
21
1.225
0
LINE
8
BLACK
6
CONTINUOUS
10
0.44
20
1.225
11
0.38
21
1.225
0
LINE
8
BLACK
6
CONTINUOUS
10
0.38
20
1.225
11
0.38
21
1.285
0
LINE
8
BLACK
6
CONTINUOUS
10
0.38
20
1.285
11
0.44
21
1.285
0
LINE
8
BLACK
6
CONTINUOUS
10
0.44
20
1.285
11
0.44
21
1.225
0
LINE
8
BLACK
6
CONTINUOUS
10
1.06333
20
1.32583
11
1.06653
21
1.32369
0
LINE
8
BLACK
6
CONTINUOUS
10
1.06653
20
1.32369
11
1.06866
21
1.3205
0
LINE
8
BLACK
6
CONTINUOUS
10
1.06866
20
1.3205
11
1.06941
21
1.31673
0
LINE
8
BLACK
6
CONTINUOUS
10
1.06941
20
1.31673
11
1.06941
21
1.28327
0
LINE
8
BLACK
6
CONTINUOUS
10
1.06941
20
1.28327
11
1.06866
21
1.2795
0
LINE
8
BLACK
6
CONTINUOUS
10
1.06866
20
1.2795
11
1.06653
21
1.27631
0
LINE
8
BLACK
6
CONTINUOUS
10
1.06653
20
1.27631
11
1.06333
21
1.27417
0
LINE
8
BLACK
6
CONTINUOUS
10
1.06333
20
1.27417
11
1.05957
21
1.27343
0
LINE
8
BLACK
6
CONTINUOUS
10
1.05957
20
1.27343
11
1.02413
21
1.27343
0
LINE
8
BLACK
6
CONTINUOUS
10
1.02413
20
1.27343
11
1.02037
21
1.27417
0
LINE
8
BLACK
6
CONTINUOUS
10
1.02037
20
1.27417
11
1.01717
21
1.27631
0
LINE
8
BLACK
6
CONTINUOUS
10
1.01717
20
1.27631
11
1.01504
21
1.2795
0
LINE
8
BLACK
6
CONTINUOUS
10
1.01504
20
1.2795
11
1.01429
21
1.28327
0
LINE
8
BLACK
6
CONTINUOUS
10
1.01429
20
1.28327
11
1.01429
21
1.31673
0
LINE
8
BLACK
6
CONTINUOUS
10
1.01429
20
1.31673
11
1.01504
21
1.3205
0
LINE
8
BLACK
6
CONTINUOUS
10
1.01504
20
1.3205
11
1.01717
21
1.32369
0
LINE
8
BLACK
6
CONTINUOUS
10
1.01717
20
1.32369
11
1.02037
21
1.32583
0
LINE
8
BLACK
6
CONTINUOUS
10
1.02037
20
1.32583
11
1.02413
21
1.32657
0
LINE
8
BLACK
6
CONTINUOUS
10
1.02413
20
1.32657
11
1.05957
21
1.32657
0
LINE
8
BLACK
6
CONTINUOUS
10
1.05957
20
1.32657
11
1.06333
21
1.32583
0
LINE
8
BLACK
6
CONTINUOUS
10
1.16963
20
1.32583
11
1.17283
21
1.32369
0
LINE
8
BLACK
6
CONTINUOUS
10
1.17283
20
1.32369
11
1.17496
21
1.3205
0
LINE
8
BLACK
6
CONTINUOUS
10
1.17496
20
1.3205
11
1.17571
21
1.31673
0
LINE
8
BLACK
6
CONTINUOUS
10
1.17571
20
1.31673
11
1.17571
21
1.28327
0
LINE
8
BLACK
6
CONTINUOUS
10
1.17571
20
1.28327
11
1.17496
21
1.2795
0
LINE
8
BLACK
6
CONTINUOUS
10
1.17496
20
1.2795
11
1.17283
21
1.27631
0
LINE
8
BLACK
6
CONTINUOUS
10
1.17283
20
1.27631
11
1.16963
21
1.27417
0
LINE
8
BLACK
6
CONTINUOUS
10
1.16963
20
1.27417
11
1.16587
21
1.27343
0
LINE
8
BLACK
6
CONTINUOUS
10
1.16587
20
1.27343
11
1.13043
21
1.27343
0
LINE
8
BLACK
6
CONTINUOUS
10
1.13043
20
1.27343
11
1.12667
21
1.27417
0
LINE
8
BLACK
6
CONTINUOUS
10
1.12667
20
1.27417
11
1.12347
21
1.27631
0
LINE
8
BLACK
6
CONTINUOUS
10
1.12347
20
1.27631
11
1.12134
21
1.2795
0
LINE
8
BLACK
6
CONTINUOUS
10
1.12134
20
1.2795
11
1.12059
21
1.28327
0
LINE
8
BLACK
6
CONTINUOUS
10
1.12059
20
1.28327
11
1.12059
21
1.31673
0
LINE
8
BLACK
6
CONTINUOUS
10
1.12059
20
1.31673
11
1.12134
21
1.3205
0
LINE
8
BLACK
6
CONTINUOUS
10
1.12134
20
1.3205
11
1.12347
21
1.32369
0
LINE
8
BLACK
6
CONTINUOUS
10
1.12347
20
1.32369
11
1.12667
21
1.32583
0
LINE
8
BLACK
6
CONTINUOUS
10
1.12667
20
1.32583
11
1.13043
21
1.32657
0
LINE
8
BLACK
6
CONTINUOUS
10
1.13043
20
1.32657
11
1.16587
21
1.32657
0
LINE
8
BLACK
6
CONTINUOUS
10
1.16587
20
1.32657
11
1.16963
21
1.32583
0
LINE
8
BLACK
6
CONTINUOUS
10
0.793701
20
1.27953
11
0.754331
21
1.27953
0
LINE
8
BLACK
6
CONTINUOUS
10
0.754331
20
1.27953
11
0.754331
21
1.42913
0
LINE
8
BLACK
6
CONTINUOUS
10
0.754331
20
1.42913
11
0.793701
21
1.42913
0
LINE
8
BLACK
6
CONTINUOUS
10
0.793701
20
1.42913
11
0.793701
21
1.27953
0
LINE
8
BLACK
6
CONTINUOUS
10
2.04567
20
1.27953
11
2.0063
21
1.27953
0
LINE
8
BLACK
6
CONTINUOUS
10
2.0063
20
1.27953
11
2.0063
21
1.42913
0
LINE
8
BLACK
6
CONTINUOUS
10
2.0063
20
1.42913
11
2.04567
21
1.42913
0
LINE
8
BLACK
6
CONTINUOUS
10
2.04567
20
1.42913
11
2.04567
21
1.27953
0
LINE
8
BLACK
6
CONTINUOUS
10
2.26212
20
1.3726
11
2.26974
21
1.36965
0
LINE
8
BLACK
6
CONTINUOUS
10
2.26974
20
1.36965
11
2.27669
21
1.36535
0
LINE
8
BLACK
6
CONTINUOUS
10
2.27669
20
1.36535
11
2.28273
21
1.35984
0
LINE
8
BLACK
6
CONTINUOUS
10
2.28273
20
1.35984
11
2.28766
21
1.35332
0
LINE
8
BLACK
6
CONTINUOUS
10
2.28766
20
1.35332
11
2.2913
21
1.346
0
LINE
8
BLACK
6
CONTINUOUS
10
2.2913
20
1.346
11
2.29354
21
1.33814
0
LINE
8
BLACK
6
CONTINUOUS
10
2.29354
20
1.33814
11
2.29429
21
1.33
0
LINE
8
BLACK
6
CONTINUOUS
10
2.29429
20
1.33
11
2.29354
21
1.32186
0
LINE
8
BLACK
6
CONTINUOUS
10
2.29354
20
1.32186
11
2.2913
21
1.314
0
LINE
8
BLACK
6
CONTINUOUS
10
2.2913
20
1.314
11
2.28766
21
1.30668
0
LINE
8
BLACK
6
CONTINUOUS
10
2.28766
20
1.30668
11
2.28273
21
1.30016
0
LINE
8
BLACK
6
CONTINUOUS
10
2.28273
20
1.30016
11
2.27669
21
1.29465
0
LINE
8
BLACK
6
CONTINUOUS
10
2.27669
20
1.29465
11
2.26974
21
1.29035
0
LINE
8
BLACK
6
CONTINUOUS
10
2.26974
20
1.29035
11
2.26212
21
1.2874
0
LINE
8
BLACK
6
CONTINUOUS
10
2.26212
20
1.2874
11
2.25409
21
1.2859
0
LINE
8
BLACK
6
CONTINUOUS
10
2.25409
20
1.2859
11
2.24591
21
1.2859
0
LINE
8
BLACK
6
CONTINUOUS
10
2.24591
20
1.2859
11
2.23788
21
1.2874
0
LINE
8
BLACK
6
CONTINUOUS
10
2.23788
20
1.2874
11
2.23026
21
1.29035
0
LINE
8
BLACK
6
CONTINUOUS
10
2.23026
20
1.29035
11
2.22331
21
1.29465
0
LINE
8
BLACK
6
CONTINUOUS
10
2.22331
20
1.29465
11
2.21727
21
1.30016
0
LINE
8
BLACK
6
CONTINUOUS
10
2.21727
20
1.30016
11
2.21234
21
1.30668
0
LINE
8
BLACK
6
CONTINUOUS
10
2.21234
20
1.30668
11
2.2087
21
1.314
0
LINE
8
BLACK
6
CONTINUOUS
10
2.2087
20
1.314
11
2.20646
21
1.32186
0
LINE
8
BLACK
6
CONTINUOUS
10
2.20646
20
1.32186
11
2.20571
21
1.33
0
LINE
8
BLACK
6
CONTINUOUS
10
2.20571
20
1.33
11
2.20646
21
1.33814
0
LINE
8
BLACK
6
CONTINUOUS
10
2.20646
20
1.33814
11
2.2087
21
1.346
0
LINE
8
BLACK
6
CONTINUOUS
10
2.2087
20
1.346
11
2.21234
21
1.35332
0
LINE
8
BLACK
6
CONTINUOUS
10
2.21234
20
1.35332
11
2.21727
21
1.35984
0
LINE
8
BLACK
6
CONTINUOUS
10
2.21727
20
1.35984
11
2.22331
21
1.36535
0
LINE
8
BLACK
6
CONTINUOUS
10
2.22331
20
1.36535
11
2.23026
21
1.36965
0
LINE
8
BLACK
6
CONTINUOUS
10
2.23026
20
1.36965
11
2.23788
21
1.3726
0
LINE
8
BLACK
6
CONTINUOUS
10
2.23788
20
1.3726
11
2.24591
21
1.3741
0
LINE
8
BLACK
6
CONTINUOUS
10
2.24591
20
1.3741
11
2.25409
21
1.3741
0
LINE
8
BLACK
6
CONTINUOUS
10
2.25409
20
1.3741
11
2.26212
21
1.3726
0
LINE
8
BLACK
6
CONTINUOUS
10
2.46212
20
1.3726
11
2.46974
21
1.36965
0
LINE
8
BLACK
6
CONTINUOUS
10
2.46974
20
1.36965
11
2.47669
21
1.36535
0
LINE
8
BLACK
6
CONTINUOUS
10
2.47669
20
1.36535
11
2.48273
21
1.35984
0
LINE
8
BLACK
6
CONTINUOUS
10
2.48273
20
1.35984
11
2.48766
21
1.35332
0
LINE
8
BLACK
6
CONTINUOUS
10
2.48766
20
1.35332
11
2.4913
21
1.346
0
LINE
8
BLACK
6
CONTINUOUS
10
2.4913
20
1.346
11
2.49354
21
1.33814
0
LINE
8
BLACK
6
CONTINUOUS
10
2.49354
20
1.33814
11
2.49429
21
1.33
0
LINE
8
BLACK
6
CONTINUOUS
10
2.49429
20
1.33
11
2.49354
21
1.32186
0
LINE
8
BLACK
6
CONTINUOUS
10
2.49354
20
1.32186
11
2.4913
21
1.314
0
LINE
8
BLACK
6
CONTINUOUS
10
2.4913
20
1.314
11
2.48766
21
1.30668
0
LINE
8
BLACK
6
CONTINUOUS
10
2.48766
20
1.30668
11
2.48273
21
1.30016
0
LINE
8
BLACK
6
CONTINUOUS
10
2.48273
20
1.30016
11
2.47669
21
1.29465
0
LINE
8
BLACK
6
CONTINUOUS
10
2.47669
20
1.29465
11
2.46974
21
1.29035
0
LINE
8
BLACK
6
CONTINUOUS
10
2.46974
20
1.29035
11
2.46212
21
1.2874
0
LINE
8
BLACK
6
CONTINUOUS
10
2.46212
20
1.2874
11
2.45409
21
1.2859
0
LINE
8
BLACK
6
CONTINUOUS
10
2.45409
20
1.2859
11
2.44591
21
1.2859
0
LINE
8
BLACK
6
CONTINUOUS
10
2.44591
20
1.2859
11
2.43788
21
1.2874
0
LINE
8
BLACK
6
CONTINUOUS
10
2.43788
20
1.2874
11
2.43026
21
1.29035
0
LINE
8
BLACK
6
CONTINUOUS
10
2.43026
20
1.29035
11
2.42331
21
1.29465
0
LINE
8
BLACK
6
CONTINUOUS
10
2.42331
20
1.29465
11
2.41727
21
1.30016
0
LINE
8
BLACK
6
CONTINUOUS
10
2.41727
20
1.30016
11
2.41234
21
1.30668
0
LINE
8
BLACK
6
CONTINUOUS
10
2.41234
20
1.30668
11
2.4087
21
1.314
0
LINE
8
BLACK
6
CONTINUOUS
10
2.4087
20
1.314
11
2.40646
21
1.32186
0
LINE
8
BLACK
6
CONTINUOUS
10
2.40646
20
1.32186
11
2.40571
21
1.33
0
LINE
8
BLACK
6
CONTINUOUS
10
2.40571
20
1.33
11
2.40646
21
1.33814
0
LINE
8
BLACK
6
CONTINUOUS
10
2.40646
20
1.33814
11
2.4087
21
1.346
0
LINE
8
BLACK
6
CONTINUOUS
10
2.4087
20
1.346
11
2.41234
21
1.35332
0
LINE
8
BLACK
6
CONTINUOUS
10
2.41234
20
1.35332
11
2.41727
21
1.35984
0
LINE
8
BLACK
6
CONTINUOUS
10
2.41727
20
1.35984
11
2.42331
21
1.36535
0
LINE
8
BLACK
6
CONTINUOUS
10
2.42331
20
1.36535
11
2.43026
21
1.36965
0
LINE
8
BLACK
6
CONTINUOUS
10
2.43026
20
1.36965
11
2.43788
21
1.3726
0
LINE
8
BLACK
6
CONTINUOUS
10
2.43788
20
1.3726
11
2.44591
21
1.3741
0
LINE
8
BLACK
6
CONTINUOUS
10
2.44591
20
1.3741
11
2.45409
21
1.3741
0
LINE
8
BLACK
6
CONTINUOUS
10
2.45409
20
1.3741
11
2.46212
21
1.3726
0
LINE
8
BLACK
6
CONTINUOUS
10
0.877467
20
1.33134
11
0.880661
21
1.3292
0
LINE
8
BLACK
6
CONTINUOUS
10
0.880661
20
1.3292
11
0.882794
21
1.32601
0
LINE
8
BLACK
6
CONTINUOUS
10
0.882794
20
1.32601
11
0.883543
21
1.32224
0
LINE
8
BLACK
6
CONTINUOUS
10
0.883543
20
1.32224
11
0.883543
21
1.30256
0
LINE
8
BLACK
6
CONTINUOUS
10
0.883543
20
1.30256
11
0.882794
21
1.29879
0
LINE
8
BLACK
6
CONTINUOUS
10
0.882794
20
1.29879
11
0.880661
21
1.2956
0
LINE
8
BLACK
6
CONTINUOUS
10
0.880661
20
1.2956
11
0.877467
21
1.29347
0
LINE
8
BLACK
6
CONTINUOUS
10
0.877467
20
1.29347
11
0.873701
21
1.29272
0
LINE
8
BLACK
6
CONTINUOUS
10
0.873701
20
1.29272
11
0.836299
21
1.29272
0
LINE
8
BLACK
6
CONTINUOUS
10
0.836299
20
1.29272
11
0.832533
21
1.29347
0
LINE
8
BLACK
6
CONTINUOUS
10
0.832533
20
1.29347
11
0.829339
21
1.2956
0
LINE
8
BLACK
6
CONTINUOUS
10
0.829339
20
1.2956
11
0.827206
21
1.29879
0
LINE
8
BLACK
6
CONTINUOUS
10
0.827206
20
1.29879
11
0.826457
21
1.30256
0
LINE
8
BLACK
6
CONTINUOUS
10
0.826457
20
1.30256
11
0.826457
21
1.32224
0
LINE
8
BLACK
6
CONTINUOUS
10
0.826457
20
1.32224
11
0.827206
21
1.32601
0
LINE
8
BLACK
6
CONTINUOUS
10
0.827206
20
1.32601
11
0.829339
21
1.3292
0
LINE
8
BLACK
6
CONTINUOUS
10
0.829339
20
1.3292
11
0.832533
21
1.33134
0
LINE
8
BLACK
6
CONTINUOUS
10
0.832533
20
1.33134
11
0.836299
21
1.33209
0
LINE
8
BLACK
6
CONTINUOUS
10
0.836299
20
1.33209
11
0.873701
21
1.33209
0
LINE
8
BLACK
6
CONTINUOUS
10
0.873701
20
1.33209
11
0.877467
21
1.33134
0
LINE
8
BLACK
6
CONTINUOUS
10
0.34
20
1.325
11
0.28
21
1.325
0
LINE
8
BLACK
6
CONTINUOUS
10
0.28
20
1.325
11
0.28
21
1.385
0
LINE
8
BLACK
6
CONTINUOUS
10
0.28
20
1.385
11
0.34
21
1.385
0
LINE
8
BLACK
6
CONTINUOUS
10
0.34
20
1.385
11
0.34
21
1.325
0
LINE
8
BLACK
6
CONTINUOUS
10
0.44
20
1.325
11
0.38
21
1.325
0
LINE
8
BLACK
6
CONTINUOUS
10
0.38
20
1.325
11
0.38
21
1.385
0
LINE
8
BLACK
6
CONTINUOUS
10
0.38
20
1.385
11
0.44
21
1.385
0
LINE
8
BLACK
6
CONTINUOUS
10
0.44
20
1.385
11
0.44
21
1.325
0
LINE
8
BLACK
6
CONTINUOUS
10
1.16648
20
1.4085
11
1.16968
21
1.40637
0
LINE
8
BLACK
6
CONTINUOUS
10
1.16968
20
1.40637
11
1.17181
21
1.40318
0
LINE
8
BLACK
6
CONTINUOUS
10
1.17181
20
1.40318
11
1.17256
21
1.39941
0
LINE
8
BLACK
6
CONTINUOUS
10
1.17256
20
1.39941
11
1.17256
21
1.37874
0
LINE
8
BLACK
6
CONTINUOUS
10
1.17256
20
1.37874
11
1.17181
21
1.37497
0
LINE
8
BLACK
6
CONTINUOUS
10
1.17181
20
1.37497
11
1.16968
21
1.37178
0
LINE
8
BLACK
6
CONTINUOUS
10
1.16968
20
1.37178
11
1.16648
21
1.36965
0
LINE
8
BLACK
6
CONTINUOUS
10
1.16648
20
1.36965
11
1.16272
21
1.3689
0
LINE
8
BLACK
6
CONTINUOUS
10
1.16272
20
1.3689
11
1.12728
21
1.3689
0
LINE
8
BLACK
6
CONTINUOUS
10
1.12728
20
1.3689
11
1.12352
21
1.36965
0
LINE
8
BLACK
6
CONTINUOUS
10
1.12352
20
1.36965
11
1.12032
21
1.37178
0
LINE
8
BLACK
6
CONTINUOUS
10
1.12032
20
1.37178
11
1.11819
21
1.37497
0
LINE
8
BLACK
6
CONTINUOUS
10
1.11819
20
1.37497
11
1.11744
21
1.37874
0
LINE
8
BLACK
6
CONTINUOUS
10
1.11744
20
1.37874
11
1.11744
21
1.39941
0
LINE
8
BLACK
6
CONTINUOUS
10
1.11744
20
1.39941
11
1.11819
21
1.40318
0
LINE
8
BLACK
6
CONTINUOUS
10
1.11819
20
1.40318
11
1.12032
21
1.40637
0
LINE
8
BLACK
6
CONTINUOUS
10
1.12032
20
1.40637
11
1.12352
21
1.4085
0
LINE
8
BLACK
6
CONTINUOUS
10
1.12352
20
1.4085
11
1.12728
21
1.40925
0
LINE
8
BLACK
6
CONTINUOUS
10
1.12728
20
1.40925
11
1.16272
21
1.40925
0
LINE
8
BLACK
6
CONTINUOUS
10
1.16272
20
1.40925
11
1.16648
21
1.4085
0
LINE
8
BLACK
6
CONTINUOUS
10
1.33457
20
1.41555
11
1.31291
21
1.41555
0
LINE
8
BLACK
6
CONTINUOUS
10
1.31291
20
1.41555
11
1.31291
21
1.42539
0
LINE
8
BLACK
6
CONTINUOUS
10
1.31291
20
1.42539
11
1.33457
21
1.42539
0
LINE
8
BLACK
6
CONTINUOUS
10
1.33457
20
1.42539
11
1.33457
21
1.41555
0
LINE
8
BLACK
6
CONTINUOUS
10
1.42709
20
1.41555
11
1.40543
21
1.41555
0
LINE
8
BLACK
6
CONTINUOUS
10
1.40543
20
1.41555
11
1.40543
21
1.42539
0
LINE
8
BLACK
6
CONTINUOUS
10
1.40543
20
1.42539
11
1.42709
21
1.42539
0
LINE
8
BLACK
6
CONTINUOUS
10
1.42709
20
1.42539
11
1.42709
21
1.41555
0
LINE
8
BLACK
6
CONTINUOUS
10
1.38969
20
1.41654
11
1.36213
21
1.41654
0
LINE
8
BLACK
6
CONTINUOUS
10
1.36213
20
1.41654
11
1.35031
21
1.42835
0
LINE
8
BLACK
6
CONTINUOUS
10
1.35031
20
1.42835
11
1.35031
21
1.48346
0
LINE
8
BLACK
6
CONTINUOUS
10
1.35031
20
1.48346
11
1.38969
21
1.48346
0
LINE
8
BLACK
6
CONTINUOUS
10
1.38969
20
1.48346
11
1.38969
21
1.41654
0
LINE
8
BLACK
6
CONTINUOUS
10
1.33457
20
1.43524
11
1.31291
21
1.43524
0
LINE
8
BLACK
6
CONTINUOUS
10
1.31291
20
1.43524
11
1.31291
21
1.44508
0
LINE
8
BLACK
6
CONTINUOUS
10
1.31291
20
1.44508
11
1.33457
21
1.44508
0
LINE
8
BLACK
6
CONTINUOUS
10
1.33457
20
1.44508
11
1.33457
21
1.43524
0
LINE
8
BLACK
6
CONTINUOUS
10
1.42709
20
1.43524
11
1.40543
21
1.43524
0
LINE
8
BLACK
6
CONTINUOUS
10
1.40543
20
1.43524
11
1.40543
21
1.44508
0
LINE
8
BLACK
6
CONTINUOUS
10
1.40543
20
1.44508
11
1.42709
21
1.44508
0
LINE
8
BLACK
6
CONTINUOUS
10
1.42709
20
1.44508
11
1.42709
21
1.43524
0
LINE
8
BLACK
6
CONTINUOUS
10
1.16648
20
1.48035
11
1.16968
21
1.47822
0
LINE
8
BLACK
6
CONTINUOUS
10
1.16968
20
1.47822
11
1.17181
21
1.47503
0
LINE
8
BLACK
6
CONTINUOUS
10
1.17181
20
1.47503
11
1.17256
21
1.47126
0
LINE
8
BLACK
6
CONTINUOUS
10
1.17256
20
1.47126
11
1.17256
21
1.45059
0
LINE
8
BLACK
6
CONTINUOUS
10
1.17256
20
1.45059
11
1.17181
21
1.44682
0
LINE
8
BLACK
6
CONTINUOUS
10
1.17181
20
1.44682
11
1.16968
21
1.44363
0
LINE
8
BLACK
6
CONTINUOUS
10
1.16968
20
1.44363
11
1.16648
21
1.4415
0
LINE
8
BLACK
6
CONTINUOUS
10
1.16648
20
1.4415
11
1.16272
21
1.44075
0
LINE
8
BLACK
6
CONTINUOUS
10
1.16272
20
1.44075
11
1.12728
21
1.44075
0
LINE
8
BLACK
6
CONTINUOUS
10
1.12728
20
1.44075
11
1.12352
21
1.4415
0
LINE
8
BLACK
6
CONTINUOUS
10
1.12352
20
1.4415
11
1.12032
21
1.44363
0
LINE
8
BLACK
6
CONTINUOUS
10
1.12032
20
1.44363
11
1.11819
21
1.44682
0
LINE
8
BLACK
6
CONTINUOUS
10
1.11819
20
1.44682
11
1.11744
21
1.45059
0
LINE
8
BLACK
6
CONTINUOUS
10
1.11744
20
1.45059
11
1.11744
21
1.47126
0
LINE
8
BLACK
6
CONTINUOUS
10
1.11744
20
1.47126
11
1.11819
21
1.47503
0
LINE
8
BLACK
6
CONTINUOUS
10
1.11819
20
1.47503
11
1.12032
21
1.47822
0
LINE
8
BLACK
6
CONTINUOUS
10
1.12032
20
1.47822
11
1.12352
21
1.48035
0
LINE
8
BLACK
6
CONTINUOUS
10
1.12352
20
1.48035
11
1.12728
21
1.4811
0
LINE
8
BLACK
6
CONTINUOUS
10
1.12728
20
1.4811
11
1.16272
21
1.4811
0
LINE
8
BLACK
6
CONTINUOUS
10
1.16272
20
1.4811
11
1.16648
21
1.48035
0
LINE
8
BLACK
6
CONTINUOUS
10
1.33457
20
1.45492
11
1.31291
21
1.45492
0
LINE
8
BLACK
6
CONTINUOUS
10
1.31291
20
1.45492
11
1.31291
21
1.46476
0
LINE
8
BLACK
6
CONTINUOUS
10
1.31291
20
1.46476
11
1.33457
21
1.46476
0
LINE
8
BLACK
6
CONTINUOUS
10
1.33457
20
1.46476
11
1.33457
21
1.45492
0
LINE
8
BLACK
6
CONTINUOUS
10
1.42709
20
1.45492
11
1.40543
21
1.45492
0
LINE
8
BLACK
6
CONTINUOUS
10
1.40543
20
1.45492
11
1.40543
21
1.46476
0
LINE
8
BLACK
6
CONTINUOUS
10
1.40543
20
1.46476
11
1.42709
21
1.46476
0
LINE
8
BLACK
6
CONTINUOUS
10
1.42709
20
1.46476
11
1.42709
21
1.45492
0
LINE
8
BLACK
6
CONTINUOUS
10
1.50621
20
1.52779
11
1.5094
21
1.52566
0
LINE
8
BLACK
6
CONTINUOUS
10
1.5094
20
1.52566
11
1.51153
21
1.52247
0
LINE
8
BLACK
6
CONTINUOUS
10
1.51153
20
1.52247
11
1.51228
21
1.5187
0
LINE
8
BLACK
6
CONTINUOUS
10
1.51228
20
1.5187
11
1.51228
21
1.4813
0
LINE
8
BLACK
6
CONTINUOUS
10
1.51228
20
1.4813
11
1.51153
21
1.47753
0
LINE
8
BLACK
6
CONTINUOUS
10
1.51153
20
1.47753
11
1.5094
21
1.47434
0
LINE
8
BLACK
6
CONTINUOUS
10
1.5094
20
1.47434
11
1.50621
21
1.47221
0
LINE
8
BLACK
6
CONTINUOUS
10
1.50621
20
1.47221
11
1.50244
21
1.47146
0
LINE
8
BLACK
6
CONTINUOUS
10
1.50244
20
1.47146
11
1.48276
21
1.47146
0
LINE
8
BLACK
6
CONTINUOUS
10
1.48276
20
1.47146
11
1.47899
21
1.47221
0
LINE
8
BLACK
6
CONTINUOUS
10
1.47899
20
1.47221
11
1.4758
21
1.47434
0
LINE
8
BLACK
6
CONTINUOUS
10
1.4758
20
1.47434
11
1.47366
21
1.47753
0
LINE
8
BLACK
6
CONTINUOUS
10
1.47366
20
1.47753
11
1.47291
21
1.4813
0
LINE
8
BLACK
6
CONTINUOUS
10
1.47291
20
1.4813
11
1.47291
21
1.5187
0
LINE
8
BLACK
6
CONTINUOUS
10
1.47291
20
1.5187
11
1.47366
21
1.52247
0
LINE
8
BLACK
6
CONTINUOUS
10
1.47366
20
1.52247
11
1.4758
21
1.52566
0
LINE
8
BLACK
6
CONTINUOUS
10
1.4758
20
1.52566
11
1.47899
21
1.52779
0
LINE
8
BLACK
6
CONTINUOUS
10
1.47899
20
1.52779
11
1.48276
21
1.52854
0
LINE
8
BLACK
6
CONTINUOUS
10
1.48276
20
1.52854
11
1.50244
21
1.52854
0
LINE
8
BLACK
6
CONTINUOUS
10
1.50244
20
1.52854
11
1.50621
21
1.52779
0
LINE
8
BLACK
6
CONTINUOUS
10
1.58101
20
1.52779
11
1.5842
21
1.52566
0
LINE
8
BLACK
6
CONTINUOUS
10
1.5842
20
1.52566
11
1.58634
21
1.52247
0
LINE
8
BLACK
6
CONTINUOUS
10
1.58634
20
1.52247
11
1.58709
21
1.5187
0
LINE
8
BLACK
6
CONTINUOUS
10
1.58709
20
1.5187
11
1.58709
21
1.4813
0
LINE
8
BLACK
6
CONTINUOUS
10
1.58709
20
1.4813
11
1.58634
21
1.47753
0
LINE
8
BLACK
6
CONTINUOUS
10
1.58634
20
1.47753
11
1.5842
21
1.47434
0
LINE
8
BLACK
6
CONTINUOUS
10
1.5842
20
1.47434
11
1.58101
21
1.47221
0
LINE
8
BLACK
6
CONTINUOUS
10
1.58101
20
1.47221
11
1.57724
21
1.47146
0
LINE
8
BLACK
6
CONTINUOUS
10
1.57724
20
1.47146
11
1.55756
21
1.47146
0
LINE
8
BLACK
6
CONTINUOUS
10
1.55756
20
1.47146
11
1.55379
21
1.47221
0
LINE
8
BLACK
6
CONTINUOUS
10
1.55379
20
1.47221
11
1.5506
21
1.47434
0
LINE
8
BLACK
6
CONTINUOUS
10
1.5506
20
1.47434
11
1.54847
21
1.47753
0
LINE
8
BLACK
6
CONTINUOUS
10
1.54847
20
1.47753
11
1.54772
21
1.4813
0
LINE
8
BLACK
6
CONTINUOUS
10
1.54772
20
1.4813
11
1.54772
21
1.5187
0
LINE
8
BLACK
6
CONTINUOUS
10
1.54772
20
1.5187
11
1.54847
21
1.52247
0
LINE
8
BLACK
6
CONTINUOUS
10
1.54847
20
1.52247
11
1.5506
21
1.52566
0
LINE
8
BLACK
6
CONTINUOUS
10
1.5506
20
1.52566
11
1.55379
21
1.52779
0
LINE
8
BLACK
6
CONTINUOUS
10
1.55379
20
1.52779
11
1.55756
21
1.52854
0
LINE
8
BLACK
6
CONTINUOUS
10
1.55756
20
1.52854
11
1.57724
21
1.52854
0
LINE
8
BLACK
6
CONTINUOUS
10
1.57724
20
1.52854
11
1.58101
21
1.52779
0
LINE
8
BLACK
6
CONTINUOUS
10
1.33457
20
1.47461
11
1.31291
21
1.47461
0
LINE
8
BLACK
6
CONTINUOUS
10
1.31291
20
1.47461
11
1.31291
21
1.48445
0
LINE
8
BLACK
6
CONTINUOUS
10
1.31291
20
1.48445
11
1.33457
21
1.48445
0
LINE
8
BLACK
6
CONTINUOUS
10
1.33457
20
1.48445
11
1.33457
21
1.47461
0
LINE
8
BLACK
6
CONTINUOUS
10
1.42709
20
1.47461
11
1.40543
21
1.47461
0
LINE
8
BLACK
6
CONTINUOUS
10
1.40543
20
1.47461
11
1.40543
21
1.48445
0
LINE
8
BLACK
6
CONTINUOUS
10
1.40543
20
1.48445
11
1.42709
21
1.48445
0
LINE
8
BLACK
6
CONTINUOUS
10
1.42709
20
1.48445
11
1.42709
21
1.47461
0
LINE
8
BLACK
6
CONTINUOUS
10
0.42051
20
1.71632
11
0.433874
21
1.71315
0
LINE
8
BLACK
6
CONTINUOUS
10
0.433874
20
1.71315
11
0.446781
21
1.70845
0
LINE
8
BLACK
6
CONTINUOUS
10
0.446781
20
1.70845
11
0.459055
21
1.70229
0
LINE
8
BLACK
6
CONTINUOUS
10
0.459055
20
1.70229
11
0.470531
21
1.69474
0
LINE
8
BLACK
6
CONTINUOUS
10
0.470531
20
1.69474
11
0.481052
21
1.68591
0
LINE
8
BLACK
6
CONTINUOUS
10
0.481052
20
1.68591
11
0.490478
21
1.67592
0
LINE
8
BLACK
6
CONTINUOUS
10
0.490478
20
1.67592
11
0.49868
21
1.6649
0
LINE
8
BLACK
6
CONTINUOUS
10
0.49868
20
1.6649
11
0.505547
21
1.65301
0
LINE
8
BLACK
6
CONTINUOUS
10
0.505547
20
1.65301
11
0.510987
21
1.6404
0
LINE
8
BLACK
6
CONTINUOUS
10
0.510987
20
1.6404
11
0.514927
21
1.62724
0
LINE
8
BLACK
6
CONTINUOUS
10
0.514927
20
1.62724
11
0.517312
21
1.61371
0
LINE
8
BLACK
6
CONTINUOUS
10
0.517312
20
1.61371
11
0.51811
21
1.6
0
LINE
8
BLACK
6
CONTINUOUS
10
0.51811
20
1.6
11
0.517312
21
1.58629
0
LINE
8
BLACK
6
CONTINUOUS
10
0.517312
20
1.58629
11
0.514927
21
1.57276
0
LINE
8
BLACK
6
CONTINUOUS
10
0.514927
20
1.57276
11
0.510987
21
1.5596
0
LINE
8
BLACK
6
CONTINUOUS
10
0.510987
20
1.5596
11
0.505547
21
1.54699
0
LINE
8
BLACK
6
CONTINUOUS
10
0.505547
20
1.54699
11
0.49868
21
1.5351
0
LINE
8
BLACK
6
CONTINUOUS
10
0.49868
20
1.5351
11
0.490478
21
1.52408
0
LINE
8
BLACK
6
CONTINUOUS
10
0.490478
20
1.52408
11
0.481052
21
1.51409
0
LINE
8
BLACK
6
CONTINUOUS
10
0.481052
20
1.51409
11
0.470531
21
1.50526
0
LINE
8
BLACK
6
CONTINUOUS
10
0.470531
20
1.50526
11
0.459055
21
1.49771
0
LINE
8
BLACK
6
CONTINUOUS
10
0.459055
20
1.49771
11
0.446781
21
1.49155
0
LINE
8
BLACK
6
CONTINUOUS
10
0.446781
20
1.49155
11
0.433874
21
1.48685
0
LINE
8
BLACK
6
CONTINUOUS
10
0.433874
20
1.48685
11
0.42051
21
1.48368
0
LINE
8
BLACK
6
CONTINUOUS
10
0.42051
20
1.48368
11
0.406867
21
1.48209
0
LINE
8
BLACK
6
CONTINUOUS
10
0.406867
20
1.48209
11
0.393133
21
1.48209
0
LINE
8
BLACK
6
CONTINUOUS
10
0.393133
20
1.48209
11
0.37949
21
1.48368
0
LINE
8
BLACK
6
CONTINUOUS
10
0.37949
20
1.48368
11
0.366126
21
1.48685
0
LINE
8
BLACK
6
CONTINUOUS
10
0.366126
20
1.48685
11
0.353219
21
1.49155
0
LINE
8
BLACK
6
CONTINUOUS
10
0.353219
20
1.49155
11
0.340945
21
1.49771
0
LINE
8
BLACK
6
CONTINUOUS
10
0.340945
20
1.49771
11
0.329469
21
1.50526
0
LINE
8
BLACK
6
CONTINUOUS
10
0.329469
20
1.50526
11
0.318948
21
1.51409
0
LINE
8
BLACK
6
CONTINUOUS
10
0.318948
20
1.51409
11
0.309522
21
1.52408
0
LINE
8
BLACK
6
CONTINUOUS
10
0.309522
20
1.52408
11
0.30132
21
1.5351
0
LINE
8
BLACK
6
CONTINUOUS
10
0.30132
20
1.5351
11
0.294453
21
1.54699
0
LINE
8
BLACK
6
CONTINUOUS
10
0.294453
20
1.54699
11
0.289013
21
1.5596
0
LINE
8
BLACK
6
CONTINUOUS
10
0.289013
20
1.5596
11
0.285073
21
1.57276
0
LINE
8
BLACK
6
CONTINUOUS
10
0.285073
20
1.57276
11
0.282688
21
1.58629
0
LINE
8
BLACK
6
CONTINUOUS
10
0.282688
20
1.58629
11
0.28189
21
1.6
0
LINE
8
BLACK
6
CONTINUOUS
10
0.28189
20
1.6
11
0.282688
21
1.61371
0
LINE
8
BLACK
6
CONTINUOUS
10
0.282688
20
1.61371
11
0.285073
21
1.62724
0
LINE
8
BLACK
6
CONTINUOUS
10
0.285073
20
1.62724
11
0.289013
21
1.6404
0
LINE
8
BLACK
6
CONTINUOUS
10
0.289013
20
1.6404
11
0.294453
21
1.65301
0
LINE
8
BLACK
6
CONTINUOUS
10
0.294453
20
1.65301
11
0.30132
21
1.6649
0
LINE
8
BLACK
6
CONTINUOUS
10
0.30132
20
1.6649
11
0.309522
21
1.67592
0
LINE
8
BLACK
6
CONTINUOUS
10
0.309522
20
1.67592
11
0.318948
21
1.68591
0
LINE
8
BLACK
6
CONTINUOUS
10
0.318948
20
1.68591
11
0.329469
21
1.69474
0
LINE
8
BLACK
6
CONTINUOUS
10
0.329469
20
1.69474
11
0.340945
21
1.70229
0
LINE
8
BLACK
6
CONTINUOUS
10
0.340945
20
1.70229
11
0.353219
21
1.70845
0
LINE
8
BLACK
6
CONTINUOUS
10
0.353219
20
1.70845
11
0.366126
21
1.71315
0
LINE
8
BLACK
6
CONTINUOUS
10
0.366126
20
1.71315
11
0.37949
21
1.71632
0
LINE
8
BLACK
6
CONTINUOUS
10
0.37949
20
1.71632
11
0.393133
21
1.71791
0
LINE
8
BLACK
6
CONTINUOUS
10
0.393133
20
1.71791
11
0.406867
21
1.71791
0
LINE
8
BLACK
6
CONTINUOUS
10
0.406867
20
1.71791
11
0.42051
21
1.71632
0
LINE
8
BLACK
6
CONTINUOUS
10
2.42051
20
1.71632
11
2.43387
21
1.71315
0
LINE
8
BLACK
6
CONTINUOUS
10
2.43387
20
1.71315
11
2.44678
21
1.70845
0
LINE
8
BLACK
6
CONTINUOUS
10
2.44678
20
1.70845
11
2.45906
21
1.70229
0
LINE
8
BLACK
6
CONTINUOUS
10
2.45906
20
1.70229
11
2.47053
21
1.69474
0
LINE
8
BLACK
6
CONTINUOUS
10
2.47053
20
1.69474
11
2.48105
21
1.68591
0
LINE
8
BLACK
6
CONTINUOUS
10
2.48105
20
1.68591
11
2.49048
21
1.67592
0
LINE
8
BLACK
6
CONTINUOUS
10
2.49048
20
1.67592
11
2.49868
21
1.6649
0
LINE
8
BLACK
6
CONTINUOUS
10
2.49868
20
1.6649
11
2.50555
21
1.65301
0
LINE
8
BLACK
6
CONTINUOUS
10
2.50555
20
1.65301
11
2.51099
21
1.6404
0
LINE
8
BLACK
6
CONTINUOUS
10
2.51099
20
1.6404
11
2.51493
21
1.62724
0
LINE
8
BLACK
6
CONTINUOUS
10
2.51493
20
1.62724
11
2.51731
21
1.61371
0
LINE
8
BLACK
6
CONTINUOUS
10
2.51731
20
1.61371
11
2.51811
21
1.6
0
LINE
8
BLACK
6
CONTINUOUS
10
2.51811
20
1.6
11
2.51731
21
1.58629
0
LINE
8
BLACK
6
CONTINUOUS
10
2.51731
20
1.58629
11
2.51493
21
1.57276
0
LINE
8
BLACK
6
CONTINUOUS
10
2.51493
20
1.57276
11
2.51099
21
1.5596
0
LINE
8
BLACK
6
CONTINUOUS
10
2.51099
20
1.5596
11
2.50555
21
1.54699
0
LINE
8
BLACK
6
CONTINUOUS
10
2.50555
20
1.54699
11
2.49868
21
1.5351
0
LINE
8
BLACK
6
CONTINUOUS
10
2.49868
20
1.5351
11
2.49048
21
1.52408
0
LINE
8
BLACK
6
CONTINUOUS
10
2.49048
20
1.52408
11
2.48105
21
1.51409
0
LINE
8
BLACK
6
CONTINUOUS
10
2.48105
20
1.51409
11
2.47053
21
1.50526
0
LINE
8
BLACK
6
CONTINUOUS
10
2.47053
20
1.50526
11
2.45906
21
1.49771
0
LINE
8
BLACK
6
CONTINUOUS
10
2.45906
20
1.49771
11
2.44678
21
1.49155
0
LINE
8
BLACK
6
CONTINUOUS
10
2.44678
20
1.49155
11
2.43387
21
1.48685
0
LINE
8
BLACK
6
CONTINUOUS
10
2.43387
20
1.48685
11
2.42051
21
1.48368
0
LINE
8
BLACK
6
CONTINUOUS
10
2.42051
20
1.48368
11
2.40687
21
1.48209
0
LINE
8
BLACK
6
CONTINUOUS
10
2.40687
20
1.48209
11
2.39313
21
1.48209
0
LINE
8
BLACK
6
CONTINUOUS
10
2.39313
20
1.48209
11
2.37949
21
1.48368
0
LINE
8
BLACK
6
CONTINUOUS
10
2.37949
20
1.48368
11
2.36613
21
1.48685
0
LINE
8
BLACK
6
CONTINUOUS
10
2.36613
20
1.48685
11
2.35322
21
1.49155
0
LINE
8
BLACK
6
CONTINUOUS
10
2.35322
20
1.49155
11
2.34094
21
1.49771
0
LINE
8
BLACK
6
CONTINUOUS
10
2.34094
20
1.49771
11
2.32947
21
1.50526
0
LINE
8
BLACK
6
CONTINUOUS
10
2.32947
20
1.50526
11
2.31895
21
1.51409
0
LINE
8
BLACK
6
CONTINUOUS
10
2.31895
20
1.51409
11
2.30952
21
1.52408
0
LINE
8
BLACK
6
CONTINUOUS
10
2.30952
20
1.52408
11
2.30132
21
1.5351
0
LINE
8
BLACK
6
CONTINUOUS
10
2.30132
20
1.5351
11
2.29445
21
1.54699
0
LINE
8
BLACK
6
CONTINUOUS
10
2.29445
20
1.54699
11
2.28901
21
1.5596
0
LINE
8
BLACK
6
CONTINUOUS
10
2.28901
20
1.5596
11
2.28507
21
1.57276
0
LINE
8
BLACK
6
CONTINUOUS
10
2.28507
20
1.57276
11
2.28269
21
1.58629
0
LINE
8
BLACK
6
CONTINUOUS
10
2.28269
20
1.58629
11
2.28189
21
1.6
0
LINE
8
BLACK
6
CONTINUOUS
10
2.28189
20
1.6
11
2.28269
21
1.61371
0
LINE
8
BLACK
6
CONTINUOUS
10
2.28269
20
1.61371
11
2.28507
21
1.62724
0
LINE
8
BLACK
6
CONTINUOUS
10
2.28507
20
1.62724
11
2.28901
21
1.6404
0
LINE
8
BLACK
6
CONTINUOUS
10
2.28901
20
1.6404
11
2.29445
21
1.65301
0
LINE
8
BLACK
6
CONTINUOUS
10
2.29445
20
1.65301
11
2.30132
21
1.6649
0
LINE
8
BLACK
6
CONTINUOUS
10
2.30132
20
1.6649
11
2.30952
21
1.67592
0
LINE
8
BLACK
6
CONTINUOUS
10
2.30952
20
1.67592
11
2.31895
21
1.68591
0
LINE
8
BLACK
6
CONTINUOUS
10
2.31895
20
1.68591
11
2.32947
21
1.69474
0
LINE
8
BLACK
6
CONTINUOUS
10
2.32947
20
1.69474
11
2.34094
21
1.70229
0
LINE
8
BLACK
6
CONTINUOUS
10
2.34094
20
1.70229
11
2.35322
21
1.70845
0
LINE
8
BLACK
6
CONTINUOUS
10
2.35322
20
1.70845
11
2.36613
21
1.71315
0
LINE
8
BLACK
6
CONTINUOUS
10
2.36613
20
1.71315
11
2.37949
21
1.71632
0
LINE
8
BLACK
6
CONTINUOUS
10
2.37949
20
1.71632
11
2.39313
21
1.71791
0
LINE
8
BLACK
6
CONTINUOUS
10
2.39313
20
1.71791
11
2.40687
21
1.71791
0
LINE
8
BLACK
6
CONTINUOUS
10
2.40687
20
1.71791
11
2.42051
21
1.71632
0
LINE
8
BLACK
6
CONTINUOUS
10
0.793701
20
1.51575
11
0.754331
21
1.51575
0
LINE
8
BLACK
6
CONTINUOUS
10
0.754331
20
1.51575
11
0.754331
21
1.6063
0
LINE
8
BLACK
6
CONTINUOUS
10
0.754331
20
1.6063
11
0.754331
21
1.64567
0
LINE
8
BLACK
6
CONTINUOUS
10
0.754331
20
1.64567
11
0.793701
21
1.64567
0
LINE
8
BLACK
6
CONTINUOUS
10
0.793701
20
1.64567
11
0.884252
21
1.64567
0
LINE
8
BLACK
6
CONTINUOUS
10
0.884252
20
1.64567
11
0.884252
21
1.6063
0
LINE
8
BLACK
6
CONTINUOUS
10
0.884252
20
1.6063
11
0.793701
21
1.6063
0
LINE
8
BLACK
6
CONTINUOUS
10
0.793701
20
1.6063
11
0.793701
21
1.51575
0
LINE
8
BLACK
6
CONTINUOUS
10
2.04567
20
1.51575
11
2.0063
21
1.51575
0
LINE
8
BLACK
6
CONTINUOUS
10
2.0063
20
1.51575
11
2.0063
21
1.6063
0
LINE
8
BLACK
6
CONTINUOUS
10
2.0063
20
1.6063
11
1.91575
21
1.6063
0
LINE
8
BLACK
6
CONTINUOUS
10
1.91575
20
1.6063
11
1.91575
21
1.64567
0
LINE
8
BLACK
6
CONTINUOUS
10
1.91575
20
1.64567
11
2.0063
21
1.64567
0
LINE
8
BLACK
6
CONTINUOUS
10
2.0063
20
1.64567
11
2.04567
21
1.64567
0
LINE
8
BLACK
6
CONTINUOUS
10
2.04567
20
1.64567
11
2.04567
21
1.6063
0
LINE
8
BLACK
6
CONTINUOUS
10
2.04567
20
1.6063
11
2.04567
21
1.51575
0
LINE
8
BLACK
6
CONTINUOUS
10
1.12047
20
1.6063
11
0.970866
21
1.6063
0
LINE
8
BLACK
6
CONTINUOUS
10
0.970866
20
1.6063
11
0.970866
21
1.64567
0
LINE
8
BLACK
6
CONTINUOUS
10
0.970866
20
1.64567
11
1.12047
21
1.64567
0
LINE
8
BLACK
6
CONTINUOUS
10
1.12047
20
1.64567
11
1.12047
21
1.6063
0
LINE
8
BLACK
6
CONTINUOUS
10
1.35669
20
1.6063
11
1.20709
21
1.6063
0
LINE
8
BLACK
6
CONTINUOUS
10
1.20709
20
1.6063
11
1.20709
21
1.64567
0
LINE
8
BLACK
6
CONTINUOUS
10
1.20709
20
1.64567
11
1.35669
21
1.64567
0
LINE
8
BLACK
6
CONTINUOUS
10
1.35669
20
1.64567
11
1.35669
21
1.6063
0
LINE
8
BLACK
6
CONTINUOUS
10
1.59291
20
1.6063
11
1.44331
21
1.6063
0
LINE
8
BLACK
6
CONTINUOUS
10
1.44331
20
1.6063
11
1.44331
21
1.64567
0
LINE
8
BLACK
6
CONTINUOUS
10
1.44331
20
1.64567
11
1.59291
21
1.64567
0
LINE
8
BLACK
6
CONTINUOUS
10
1.59291
20
1.64567
11
1.59291
21
1.6063
0
LINE
8
BLACK
6
CONTINUOUS
10
1.82913
20
1.6063
11
1.67953
21
1.6063
0
LINE
8
BLACK
6
CONTINUOUS
10
1.67953
20
1.6063
11
1.67953
21
1.64567
0
LINE
8
BLACK
6
CONTINUOUS
10
1.67953
20
1.64567
11
1.82913
21
1.64567
0
LINE
8
BLACK
6
CONTINUOUS
10
1.82913
20
1.64567
11
1.82913
21
1.6063
0
LINE
8
BLACK
6
CONTINUOUS
10
2.17768
20
1.74361
11
2.18507
21
1.74137
0
LINE
8
BLACK
6
CONTINUOUS
10
2.18507
20
1.74137
11
2.19187
21
1.73774
0
LINE
8
BLACK
6
CONTINUOUS
10
2.19187
20
1.73774
11
2.19784
21
1.73284
0
LINE
8
BLACK
6
CONTINUOUS
10
2.19784
20
1.73284
11
2.20274
21
1.72687
0
LINE
8
BLACK
6
CONTINUOUS
10
2.20274
20
1.72687
11
2.20637
21
1.72007
0
LINE
8
BLACK
6
CONTINUOUS
10
2.20637
20
1.72007
11
2.20861
21
1.71268
0
LINE
8
BLACK
6
CONTINUOUS
10
2.20861
20
1.71268
11
2.20937
21
1.705
0
LINE
8
BLACK
6
CONTINUOUS
10
2.20937
20
1.705
11
2.20861
21
1.69732
0
LINE
8
BLACK
6
CONTINUOUS
10
2.20861
20
1.69732
11
2.20637
21
1.68993
0
LINE
8
BLACK
6
CONTINUOUS
10
2.20637
20
1.68993
11
2.20274
21
1.68313
0
LINE
8
BLACK
6
CONTINUOUS
10
2.20274
20
1.68313
11
2.19784
21
1.67716
0
LINE
8
BLACK
6
CONTINUOUS
10
2.19784
20
1.67716
11
2.19187
21
1.67226
0
LINE
8
BLACK
6
CONTINUOUS
10
2.19187
20
1.67226
11
2.18507
21
1.66863
0
LINE
8
BLACK
6
CONTINUOUS
10
2.18507
20
1.66863
11
2.17768
21
1.66639
0
LINE
8
BLACK
6
CONTINUOUS
10
2.17768
20
1.66639
11
2.17
21
1.66563
0
LINE
8
BLACK
6
CONTINUOUS
10
2.17
20
1.66563
11
2.16232
21
1.66639
0
LINE
8
BLACK
6
CONTINUOUS
10
2.16232
20
1.66639
11
2.15493
21
1.66863
0
LINE
8
BLACK
6
CONTINUOUS
10
2.15493
20
1.66863
11
2.14813
21
1.67226
0
LINE
8
BLACK
6
CONTINUOUS
10
2.14813
20
1.67226
11
2.14216
21
1.67716
0
LINE
8
BLACK
6
CONTINUOUS
10
2.14216
20
1.67716
11
2.13726
21
1.68313
0
LINE
8
BLACK
6
CONTINUOUS
10
2.13726
20
1.68313
11
2.13363
21
1.68993
0
LINE
8
BLACK
6
CONTINUOUS
10
2.13363
20
1.68993
11
2.13139
21
1.69732
0
LINE
8
BLACK
6
CONTINUOUS
10
2.13139
20
1.69732
11
2.13063
21
1.705
0
LINE
8
BLACK
6
CONTINUOUS
10
2.13063
20
1.705
11
2.13139
21
1.71268
0
LINE
8
BLACK
6
CONTINUOUS
10
2.13139
20
1.71268
11
2.13363
21
1.72007
0
LINE
8
BLACK
6
CONTINUOUS
10
2.13363
20
1.72007
11
2.13726
21
1.72687
0
LINE
8
BLACK
6
CONTINUOUS
10
2.13726
20
1.72687
11
2.14216
21
1.73284
0
LINE
8
BLACK
6
CONTINUOUS
10
2.14216
20
1.73284
11
2.14813
21
1.73774
0
LINE
8
BLACK
6
CONTINUOUS
10
2.14813
20
1.73774
11
2.15493
21
1.74137
0
LINE
8
BLACK
6
CONTINUOUS
10
2.15493
20
1.74137
11
2.16232
21
1.74361
0
LINE
8
BLACK
6
CONTINUOUS
10
2.16232
20
1.74361
11
2.17
21
1.74437
0
LINE
8
BLACK
6
CONTINUOUS
10
2.17
20
1.74437
11
2.17768
21
1.74361
0
LINE
8
BLACK
6
CONTINUOUS
10
1.37047
20
1.69047
11
1.34882
21
1.69047
0
LINE
8
BLACK
6
CONTINUOUS
10
1.34882
20
1.69047
11
1.34882
21
1.69067
0
LINE
8
BLACK
6
CONTINUOUS
10
1.34882
20
1.69067
11
1.34602
21
1.69067
0
LINE
8
BLACK
6
CONTINUOUS
10
1.34602
20
1.69067
11
1.34064
21
1.69225
0
LINE
8
BLACK
6
CONTINUOUS
10
1.34064
20
1.69225
11
1.33593
21
1.69528
0
LINE
8
BLACK
6
CONTINUOUS
10
1.33593
20
1.69528
11
1.33226
21
1.69951
0
LINE
8
BLACK
6
CONTINUOUS
10
1.33226
20
1.69951
11
1.32993
21
1.70461
0
LINE
8
BLACK
6
CONTINUOUS
10
1.32993
20
1.70461
11
1.32913
21
1.71016
0
LINE
8
BLACK
6
CONTINUOUS
10
1.32913
20
1.71016
11
1.32913
21
1.72984
0
LINE
8
BLACK
6
CONTINUOUS
10
1.32913
20
1.72984
11
1.32993
21
1.73539
0
LINE
8
BLACK
6
CONTINUOUS
10
1.32993
20
1.73539
11
1.33226
21
1.74049
0
LINE
8
BLACK
6
CONTINUOUS
10
1.33226
20
1.74049
11
1.33593
21
1.74472
0
LINE
8
BLACK
6
CONTINUOUS
10
1.33593
20
1.74472
11
1.34064
21
1.74775
0
LINE
8
BLACK
6
CONTINUOUS
10
1.34064
20
1.74775
11
1.34602
21
1.74933
0
LINE
8
BLACK
6
CONTINUOUS
10
1.34602
20
1.74933
11
1.34882
21
1.74933
0
LINE
8
BLACK
6
CONTINUOUS
10
1.34882
20
1.74933
11
1.34882
21
1.74953
0
LINE
8
BLACK
6
CONTINUOUS
10
1.34882
20
1.74953
11
1.37047
21
1.74953
0
LINE
8
BLACK
6
CONTINUOUS
10
1.37047
20
1.74953
11
1.37047
21
1.69047
0
LINE
8
BLACK
6
CONTINUOUS
10
1.41969
20
1.69047
11
1.38031
21
1.69047
0
LINE
8
BLACK
6
CONTINUOUS
10
1.38031
20
1.69047
11
1.38031
21
1.74953
0
LINE
8
BLACK
6
CONTINUOUS
10
1.38031
20
1.74953
11
1.41969
21
1.74953
0
LINE
8
BLACK
6
CONTINUOUS
10
1.41969
20
1.74953
11
1.41969
21
1.69047
0
LINE
8
BLACK
6
CONTINUOUS
10
1.45118
20
1.74933
11
1.45398
21
1.74933
0
LINE
8
BLACK
6
CONTINUOUS
10
1.45398
20
1.74933
11
1.45936
21
1.74775
0
LINE
8
BLACK
6
CONTINUOUS
10
1.45936
20
1.74775
11
1.46407
21
1.74472
0
LINE
8
BLACK
6
CONTINUOUS
10
1.46407
20
1.74472
11
1.46774
21
1.74049
0
LINE
8
BLACK
6
CONTINUOUS
10
1.46774
20
1.74049
11
1.47007
21
1.73539
0
LINE
8
BLACK
6
CONTINUOUS
10
1.47007
20
1.73539
11
1.47087
21
1.72984
0
LINE
8
BLACK
6
CONTINUOUS
10
1.47087
20
1.72984
11
1.47087
21
1.71016
0
LINE
8
BLACK
6
CONTINUOUS
10
1.47087
20
1.71016
11
1.47007
21
1.70461
0
LINE
8
BLACK
6
CONTINUOUS
10
1.47007
20
1.70461
11
1.46774
21
1.69951
0
LINE
8
BLACK
6
CONTINUOUS
10
1.46774
20
1.69951
11
1.46407
21
1.69528
0
LINE
8
BLACK
6
CONTINUOUS
10
1.46407
20
1.69528
11
1.45936
21
1.69225
0
LINE
8
BLACK
6
CONTINUOUS
10
1.45936
20
1.69225
11
1.45398
21
1.69067
0
LINE
8
BLACK
6
CONTINUOUS
10
1.45398
20
1.69067
11
1.45118
21
1.69067
0
LINE
8
BLACK
6
CONTINUOUS
10
1.45118
20
1.69067
11
1.45118
21
1.69047
0
LINE
8
BLACK
6
CONTINUOUS
10
1.45118
20
1.69047
11
1.42953
21
1.69047
0
LINE
8
BLACK
6
CONTINUOUS
10
1.42953
20
1.69047
11
1.42953
21
1.74953
0
LINE
8
BLACK
6
CONTINUOUS
10
1.42953
20
1.74953
11
1.45118
21
1.74953
0
LINE
8
BLACK
6
CONTINUOUS
10
1.45118
20
1.74953
11
1.45118
21
1.74933
  0
ENDSEC
  0
EOF
