  0
SECTION
  2
HEADER
  9
$ANGBASE
  50
0.0
  9
$ANGDIR
  70
1
  9
$MEASUREMENT
  70
0
  0
ENDSEC
  0
SECTION
  2
TABLES
  0
TABLE
  2
LTYPE
  70
4
  0
LTYPE
  5
40F
  2
CONTINUOUS
  70
0
  3
Solid line
  72
65
  73
0
  40
0.0
  0
LTYPE
  5
410
  2
DASHDOT
 70
0
  3
Dash Dot ____ _ ____ _
 72
65
 73
4
 40
2.0
 49
1.25
 49
-0.25
 49
0.25
 49
-0.25
  0
LTYPE
  5
411
  2
DASHED
 70
0
  3
Dashed __ __ __ __ __
 72
65
 73
2
 40
0.75
 49
0.5
 49
-0.25
  0
LTYPE
  5
43B
  2
DOTTED
 70
0
  3
Dotted .  .  .  .
 72
65
 73
2
 40
0.2
 49
0.0
 49
-0.2
  0
ENDTAB
  0
TABLE
  2
STYLE
  70
4
  0
STYLE
  2
KICAD
  70
0
  40
0
  41
1
  42
1
  50
0
  71
0
  3
isocp.shx
  0
STYLE
  2
KICADB
  70
0
  40
0
  41
1
  42
1
  50
0
  71
0
  3
isocp.shx
  0
STYLE
  2
KICADI
  70
0
  40
0
  41
1
  42
1
  50
15
  71
0
  3
isocp.shx
  0
STYLE
  2
KICADBI
  70
0
  40
0
  41
1
  42
1
  50
15
  71
0
  3
isocp.shx
  0
ENDTAB
  0
TABLE
  2
LAYER
  70
1
  0
LAYER
  2
BLACK
  70
0
  62
7
  6
CONTINUOUS
  0
ENDTAB
  0
ENDSEC
  0
SECTION
  2
ENTITIES
0
LINE
8
BLACK
6
CONTINUOUS
10
0.884252
20
0.393701
11
0.884252
21
0.354331
0
LINE
8
BLACK
6
CONTINUOUS
10
0.884252
20
0.354331
11
0.793701
21
0.354331
0
LINE
8
BLACK
6
CONTINUOUS
10
0.793701
20
0.354331
11
0.754331
21
0.354331
0
LINE
8
BLACK
6
CONTINUOUS
10
0.754331
20
0.354331
11
0.754331
21
0.393701
0
LINE
8
BLACK
6
CONTINUOUS
10
0.754331
20
0.393701
11
0.754331
21
0.484252
0
LINE
8
BLACK
6
CONTINUOUS
10
0.754331
20
0.484252
11
0.793701
21
0.484252
0
LINE
8
BLACK
6
CONTINUOUS
10
0.793701
20
0.484252
11
0.793701
21
0.393701
0
LINE
8
BLACK
6
CONTINUOUS
10
0.793701
20
0.393701
11
0.884252
21
0.393701
0
LINE
8
BLACK
6
CONTINUOUS
10
1.12047
20
0.354331
11
0.970866
21
0.354331
0
LINE
8
BLACK
6
CONTINUOUS
10
0.970866
20
0.354331
11
0.970866
21
0.393701
0
LINE
8
BLACK
6
CONTINUOUS
10
0.970866
20
0.393701
11
1.12047
21
0.393701
0
LINE
8
BLACK
6
CONTINUOUS
10
1.12047
20
0.393701
11
1.12047
21
0.354331
0
LINE
8
BLACK
6
CONTINUOUS
10
1.35669
20
0.354331
11
1.20709
21
0.354331
0
LINE
8
BLACK
6
CONTINUOUS
10
1.20709
20
0.354331
11
1.20709
21
0.393701
0
LINE
8
BLACK
6
CONTINUOUS
10
1.20709
20
0.393701
11
1.35669
21
0.393701
0
LINE
8
BLACK
6
CONTINUOUS
10
1.35669
20
0.393701
11
1.35669
21
0.354331
0
LINE
8
BLACK
6
CONTINUOUS
10
1.59291
20
0.354331
11
1.44331
21
0.354331
0
LINE
8
BLACK
6
CONTINUOUS
10
1.44331
20
0.354331
11
1.44331
21
0.393701
0
LINE
8
BLACK
6
CONTINUOUS
10
1.44331
20
0.393701
11
1.59291
21
0.393701
0
LINE
8
BLACK
6
CONTINUOUS
10
1.59291
20
0.393701
11
1.59291
21
0.354331
0
LINE
8
BLACK
6
CONTINUOUS
10
1.82913
20
0.354331
11
1.67953
21
0.354331
0
LINE
8
BLACK
6
CONTINUOUS
10
1.67953
20
0.354331
11
1.67953
21
0.393701
0
LINE
8
BLACK
6
CONTINUOUS
10
1.67953
20
0.393701
11
1.82913
21
0.393701
0
LINE
8
BLACK
6
CONTINUOUS
10
1.82913
20
0.393701
11
1.82913
21
0.354331
0
LINE
8
BLACK
6
CONTINUOUS
10
2.0063
20
0.393701
11
2.0063
21
0.484252
0
LINE
8
BLACK
6
CONTINUOUS
10
2.0063
20
0.484252
11
2.04567
21
0.484252
0
LINE
8
BLACK
6
CONTINUOUS
10
2.04567
20
0.484252
11
2.04567
21
0.393701
0
LINE
8
BLACK
6
CONTINUOUS
10
2.04567
20
0.393701
11
2.04567
21
0.354331
0
LINE
8
BLACK
6
CONTINUOUS
10
2.04567
20
0.354331
11
2.0063
21
0.354331
0
LINE
8
BLACK
6
CONTINUOUS
10
2.0063
20
0.354331
11
1.91575
21
0.354331
0
LINE
8
BLACK
6
CONTINUOUS
10
1.91575
20
0.354331
11
1.91575
21
0.393701
0
LINE
8
BLACK
6
CONTINUOUS
10
1.91575
20
0.393701
11
2.0063
21
0.393701
0
LINE
8
BLACK
6
CONTINUOUS
10
0.626208
20
0.477794
11
0.629401
21
0.475661
0
LINE
8
BLACK
6
CONTINUOUS
10
0.629401
20
0.475661
11
0.631534
21
0.472467
0
LINE
8
BLACK
6
CONTINUOUS
10
0.631534
20
0.472467
11
0.632283
21
0.468701
0
LINE
8
BLACK
6
CONTINUOUS
10
0.632283
20
0.468701
11
0.632283
21
0.431299
0
LINE
8
BLACK
6
CONTINUOUS
10
0.632283
20
0.431299
11
0.631534
21
0.427533
0
LINE
8
BLACK
6
CONTINUOUS
10
0.631534
20
0.427533
11
0.629401
21
0.424339
0
LINE
8
BLACK
6
CONTINUOUS
10
0.629401
20
0.424339
11
0.626208
21
0.422206
0
LINE
8
BLACK
6
CONTINUOUS
10
0.626208
20
0.422206
11
0.622441
21
0.421457
0
LINE
8
BLACK
6
CONTINUOUS
10
0.622441
20
0.421457
11
0.602756
21
0.421457
0
LINE
8
BLACK
6
CONTINUOUS
10
0.602756
20
0.421457
11
0.598989
21
0.422206
0
LINE
8
BLACK
6
CONTINUOUS
10
0.598989
20
0.422206
11
0.595796
21
0.424339
0
LINE
8
BLACK
6
CONTINUOUS
10
0.595796
20
0.424339
11
0.593663
21
0.427533
0
LINE
8
BLACK
6
CONTINUOUS
10
0.593663
20
0.427533
11
0.592913
21
0.431299
0
LINE
8
BLACK
6
CONTINUOUS
10
0.592913
20
0.431299
11
0.592913
21
0.468701
0
LINE
8
BLACK
6
CONTINUOUS
10
0.592913
20
0.468701
11
0.593663
21
0.472467
0
LINE
8
BLACK
6
CONTINUOUS
10
0.593663
20
0.472467
11
0.595796
21
0.475661
0
LINE
8
BLACK
6
CONTINUOUS
10
0.595796
20
0.475661
11
0.598989
21
0.477794
0
LINE
8
BLACK
6
CONTINUOUS
10
0.598989
20
0.477794
11
0.602756
21
0.478543
0
LINE
8
BLACK
6
CONTINUOUS
10
0.602756
20
0.478543
11
0.622441
21
0.478543
0
LINE
8
BLACK
6
CONTINUOUS
10
0.622441
20
0.478543
11
0.626208
21
0.477794
0
LINE
8
BLACK
6
CONTINUOUS
10
0.701011
20
0.477794
11
0.704204
21
0.475661
0
LINE
8
BLACK
6
CONTINUOUS
10
0.704204
20
0.475661
11
0.706337
21
0.472467
0
LINE
8
BLACK
6
CONTINUOUS
10
0.706337
20
0.472467
11
0.707087
21
0.468701
0
LINE
8
BLACK
6
CONTINUOUS
10
0.707087
20
0.468701
11
0.707087
21
0.431299
0
LINE
8
BLACK
6
CONTINUOUS
10
0.707087
20
0.431299
11
0.706337
21
0.427533
0
LINE
8
BLACK
6
CONTINUOUS
10
0.706337
20
0.427533
11
0.704204
21
0.424339
0
LINE
8
BLACK
6
CONTINUOUS
10
0.704204
20
0.424339
11
0.701011
21
0.422206
0
LINE
8
BLACK
6
CONTINUOUS
10
0.701011
20
0.422206
11
0.697244
21
0.421457
0
LINE
8
BLACK
6
CONTINUOUS
10
0.697244
20
0.421457
11
0.677559
21
0.421457
0
LINE
8
BLACK
6
CONTINUOUS
10
0.677559
20
0.421457
11
0.673792
21
0.422206
0
LINE
8
BLACK
6
CONTINUOUS
10
0.673792
20
0.422206
11
0.670599
21
0.424339
0
LINE
8
BLACK
6
CONTINUOUS
10
0.670599
20
0.424339
11
0.668466
21
0.427533
0
LINE
8
BLACK
6
CONTINUOUS
10
0.668466
20
0.427533
11
0.667717
21
0.431299
0
LINE
8
BLACK
6
CONTINUOUS
10
0.667717
20
0.431299
11
0.667717
21
0.468701
0
LINE
8
BLACK
6
CONTINUOUS
10
0.667717
20
0.468701
11
0.668466
21
0.472467
0
LINE
8
BLACK
6
CONTINUOUS
10
0.668466
20
0.472467
11
0.670599
21
0.475661
0
LINE
8
BLACK
6
CONTINUOUS
10
0.670599
20
0.475661
11
0.673792
21
0.477794
0
LINE
8
BLACK
6
CONTINUOUS
10
0.673792
20
0.477794
11
0.677559
21
0.478543
0
LINE
8
BLACK
6
CONTINUOUS
10
0.677559
20
0.478543
11
0.697244
21
0.478543
0
LINE
8
BLACK
6
CONTINUOUS
10
0.697244
20
0.478543
11
0.701011
21
0.477794
0
LINE
8
BLACK
6
CONTINUOUS
10
0.582929
20
0.545509
11
0.585962
21
0.543482
0
LINE
8
BLACK
6
CONTINUOUS
10
0.585962
20
0.543482
11
0.587989
21
0.540448
0
LINE
8
BLACK
6
CONTINUOUS
10
0.587989
20
0.540448
11
0.588701
21
0.53687
0
LINE
8
BLACK
6
CONTINUOUS
10
0.588701
20
0.53687
11
0.588701
21
0.514232
0
LINE
8
BLACK
6
CONTINUOUS
10
0.588701
20
0.514232
11
0.587989
21
0.510654
0
LINE
8
BLACK
6
CONTINUOUS
10
0.587989
20
0.510654
11
0.585962
21
0.507621
0
LINE
8
BLACK
6
CONTINUOUS
10
0.585962
20
0.507621
11
0.582929
21
0.505594
0
LINE
8
BLACK
6
CONTINUOUS
10
0.582929
20
0.505594
11
0.57935
21
0.504882
0
LINE
8
BLACK
6
CONTINUOUS
10
0.57935
20
0.504882
11
0.56065
21
0.504882
0
LINE
8
BLACK
6
CONTINUOUS
10
0.56065
20
0.504882
11
0.557071
21
0.505594
0
LINE
8
BLACK
6
CONTINUOUS
10
0.557071
20
0.505594
11
0.554038
21
0.507621
0
LINE
8
BLACK
6
CONTINUOUS
10
0.554038
20
0.507621
11
0.552011
21
0.510654
0
LINE
8
BLACK
6
CONTINUOUS
10
0.552011
20
0.510654
11
0.551299
21
0.514232
0
LINE
8
BLACK
6
CONTINUOUS
10
0.551299
20
0.514232
11
0.551299
21
0.53687
0
LINE
8
BLACK
6
CONTINUOUS
10
0.551299
20
0.53687
11
0.552011
21
0.540448
0
LINE
8
BLACK
6
CONTINUOUS
10
0.552011
20
0.540448
11
0.554038
21
0.543482
0
LINE
8
BLACK
6
CONTINUOUS
10
0.554038
20
0.543482
11
0.557071
21
0.545509
0
LINE
8
BLACK
6
CONTINUOUS
10
0.557071
20
0.545509
11
0.56065
21
0.54622
0
LINE
8
BLACK
6
CONTINUOUS
10
0.56065
20
0.54622
11
0.57935
21
0.54622
0
LINE
8
BLACK
6
CONTINUOUS
10
0.57935
20
0.54622
11
0.582929
21
0.545509
0
LINE
8
BLACK
6
CONTINUOUS
10
1.21207
20
0.573818
11
1.21527
21
0.571684
0
LINE
8
BLACK
6
CONTINUOUS
10
1.21527
20
0.571684
11
1.2174
21
0.568491
0
LINE
8
BLACK
6
CONTINUOUS
10
1.2174
20
0.568491
11
1.21815
21
0.564724
0
LINE
8
BLACK
6
CONTINUOUS
10
1.21815
20
0.564724
11
1.21815
21
0.539134
0
LINE
8
BLACK
6
CONTINUOUS
10
1.21815
20
0.539134
11
1.2174
21
0.535367
0
LINE
8
BLACK
6
CONTINUOUS
10
1.2174
20
0.535367
11
1.21527
21
0.532174
0
LINE
8
BLACK
6
CONTINUOUS
10
1.21527
20
0.532174
11
1.21207
21
0.530041
0
LINE
8
BLACK
6
CONTINUOUS
10
1.21207
20
0.530041
11
1.20831
21
0.529291
0
LINE
8
BLACK
6
CONTINUOUS
10
1.20831
20
0.529291
11
1.12169
21
0.529291
0
LINE
8
BLACK
6
CONTINUOUS
10
1.12169
20
0.529291
11
1.11793
21
0.530041
0
LINE
8
BLACK
6
CONTINUOUS
10
1.11793
20
0.530041
11
1.11473
21
0.532174
0
LINE
8
BLACK
6
CONTINUOUS
10
1.11473
20
0.532174
11
1.1126
21
0.535367
0
LINE
8
BLACK
6
CONTINUOUS
10
1.1126
20
0.535367
11
1.11185
21
0.539134
0
LINE
8
BLACK
6
CONTINUOUS
10
1.11185
20
0.539134
11
1.11185
21
0.564724
0
LINE
8
BLACK
6
CONTINUOUS
10
1.11185
20
0.564724
11
1.1126
21
0.568491
0
LINE
8
BLACK
6
CONTINUOUS
10
1.1126
20
0.568491
11
1.11473
21
0.571684
0
LINE
8
BLACK
6
CONTINUOUS
10
1.11473
20
0.571684
11
1.11793
21
0.573818
0
LINE
8
BLACK
6
CONTINUOUS
10
1.11793
20
0.573818
11
1.12169
21
0.574567
0
LINE
8
BLACK
6
CONTINUOUS
10
1.12169
20
0.574567
11
1.20831
21
0.574567
0
LINE
8
BLACK
6
CONTINUOUS
10
1.20831
20
0.574567
11
1.21207
21
0.573818
0
LINE
8
BLACK
6
CONTINUOUS
10
0.646208
20
0.607794
11
0.649401
21
0.605661
0
LINE
8
BLACK
6
CONTINUOUS
10
0.649401
20
0.605661
11
0.651534
21
0.602467
0
LINE
8
BLACK
6
CONTINUOUS
10
0.651534
20
0.602467
11
0.652283
21
0.598701
0
LINE
8
BLACK
6
CONTINUOUS
10
0.652283
20
0.598701
11
0.652283
21
0.561299
0
LINE
8
BLACK
6
CONTINUOUS
10
0.652283
20
0.561299
11
0.651534
21
0.557533
0
LINE
8
BLACK
6
CONTINUOUS
10
0.651534
20
0.557533
11
0.649401
21
0.554339
0
LINE
8
BLACK
6
CONTINUOUS
10
0.649401
20
0.554339
11
0.646208
21
0.552206
0
LINE
8
BLACK
6
CONTINUOUS
10
0.646208
20
0.552206
11
0.642441
21
0.551457
0
LINE
8
BLACK
6
CONTINUOUS
10
0.642441
20
0.551457
11
0.622756
21
0.551457
0
LINE
8
BLACK
6
CONTINUOUS
10
0.622756
20
0.551457
11
0.618989
21
0.552206
0
LINE
8
BLACK
6
CONTINUOUS
10
0.618989
20
0.552206
11
0.615796
21
0.554339
0
LINE
8
BLACK
6
CONTINUOUS
10
0.615796
20
0.554339
11
0.613663
21
0.557533
0
LINE
8
BLACK
6
CONTINUOUS
10
0.613663
20
0.557533
11
0.612913
21
0.561299
0
LINE
8
BLACK
6
CONTINUOUS
10
0.612913
20
0.561299
11
0.612913
21
0.598701
0
LINE
8
BLACK
6
CONTINUOUS
10
0.612913
20
0.598701
11
0.613663
21
0.602467
0
LINE
8
BLACK
6
CONTINUOUS
10
0.613663
20
0.602467
11
0.615796
21
0.605661
0
LINE
8
BLACK
6
CONTINUOUS
10
0.615796
20
0.605661
11
0.618989
21
0.607794
0
LINE
8
BLACK
6
CONTINUOUS
10
0.618989
20
0.607794
11
0.622756
21
0.608543
0
LINE
8
BLACK
6
CONTINUOUS
10
0.622756
20
0.608543
11
0.642441
21
0.608543
0
LINE
8
BLACK
6
CONTINUOUS
10
0.642441
20
0.608543
11
0.646208
21
0.607794
0
LINE
8
BLACK
6
CONTINUOUS
10
0.721011
20
0.607794
11
0.724204
21
0.605661
0
LINE
8
BLACK
6
CONTINUOUS
10
0.724204
20
0.605661
11
0.726337
21
0.602467
0
LINE
8
BLACK
6
CONTINUOUS
10
0.726337
20
0.602467
11
0.727087
21
0.598701
0
LINE
8
BLACK
6
CONTINUOUS
10
0.727087
20
0.598701
11
0.727087
21
0.561299
0
LINE
8
BLACK
6
CONTINUOUS
10
0.727087
20
0.561299
11
0.726337
21
0.557533
0
LINE
8
BLACK
6
CONTINUOUS
10
0.726337
20
0.557533
11
0.724204
21
0.554339
0
LINE
8
BLACK
6
CONTINUOUS
10
0.724204
20
0.554339
11
0.721011
21
0.552206
0
LINE
8
BLACK
6
CONTINUOUS
10
0.721011
20
0.552206
11
0.717244
21
0.551457
0
LINE
8
BLACK
6
CONTINUOUS
10
0.717244
20
0.551457
11
0.697559
21
0.551457
0
LINE
8
BLACK
6
CONTINUOUS
10
0.697559
20
0.551457
11
0.693792
21
0.552206
0
LINE
8
BLACK
6
CONTINUOUS
10
0.693792
20
0.552206
11
0.690599
21
0.554339
0
LINE
8
BLACK
6
CONTINUOUS
10
0.690599
20
0.554339
11
0.688466
21
0.557533
0
LINE
8
BLACK
6
CONTINUOUS
10
0.688466
20
0.557533
11
0.687717
21
0.561299
0
LINE
8
BLACK
6
CONTINUOUS
10
0.687717
20
0.561299
11
0.687717
21
0.598701
0
LINE
8
BLACK
6
CONTINUOUS
10
0.687717
20
0.598701
11
0.688466
21
0.602467
0
LINE
8
BLACK
6
CONTINUOUS
10
0.688466
20
0.602467
11
0.690599
21
0.605661
0
LINE
8
BLACK
6
CONTINUOUS
10
0.690599
20
0.605661
11
0.693792
21
0.607794
0
LINE
8
BLACK
6
CONTINUOUS
10
0.693792
20
0.607794
11
0.697559
21
0.608543
0
LINE
8
BLACK
6
CONTINUOUS
10
0.697559
20
0.608543
11
0.717244
21
0.608543
0
LINE
8
BLACK
6
CONTINUOUS
10
0.717244
20
0.608543
11
0.721011
21
0.607794
0
LINE
8
BLACK
6
CONTINUOUS
10
1.06148
20
0.593503
11
1.06468
21
0.591369
0
LINE
8
BLACK
6
CONTINUOUS
10
1.06468
20
0.591369
11
1.06681
21
0.588176
0
LINE
8
BLACK
6
CONTINUOUS
10
1.06681
20
0.588176
11
1.06756
21
0.584409
0
LINE
8
BLACK
6
CONTINUOUS
10
1.06756
20
0.584409
11
1.06756
21
0.56374
0
LINE
8
BLACK
6
CONTINUOUS
10
1.06756
20
0.56374
11
1.06681
21
0.559974
0
LINE
8
BLACK
6
CONTINUOUS
10
1.06681
20
0.559974
11
1.06468
21
0.55678
0
LINE
8
BLACK
6
CONTINUOUS
10
1.06468
20
0.55678
11
1.06148
21
0.554647
0
LINE
8
BLACK
6
CONTINUOUS
10
1.06148
20
0.554647
11
1.05772
21
0.553898
0
LINE
8
BLACK
6
CONTINUOUS
10
1.05772
20
0.553898
11
1.02228
21
0.553898
0
LINE
8
BLACK
6
CONTINUOUS
10
1.02228
20
0.553898
11
1.01852
21
0.554647
0
LINE
8
BLACK
6
CONTINUOUS
10
1.01852
20
0.554647
11
1.01532
21
0.55678
0
LINE
8
BLACK
6
CONTINUOUS
10
1.01532
20
0.55678
11
1.01319
21
0.559974
0
LINE
8
BLACK
6
CONTINUOUS
10
1.01319
20
0.559974
11
1.01244
21
0.56374
0
LINE
8
BLACK
6
CONTINUOUS
10
1.01244
20
0.56374
11
1.01244
21
0.584409
0
LINE
8
BLACK
6
CONTINUOUS
10
1.01244
20
0.584409
11
1.01319
21
0.588176
0
LINE
8
BLACK
6
CONTINUOUS
10
1.01319
20
0.588176
11
1.01532
21
0.591369
0
LINE
8
BLACK
6
CONTINUOUS
10
1.01532
20
0.591369
11
1.01852
21
0.593503
0
LINE
8
BLACK
6
CONTINUOUS
10
1.01852
20
0.593503
11
1.02228
21
0.594252
0
LINE
8
BLACK
6
CONTINUOUS
10
1.02228
20
0.594252
11
1.05772
21
0.594252
0
LINE
8
BLACK
6
CONTINUOUS
10
1.05772
20
0.594252
11
1.06148
21
0.593503
0
LINE
8
BLACK
6
CONTINUOUS
10
0.793701
20
0.570866
11
0.754331
21
0.570866
0
LINE
8
BLACK
6
CONTINUOUS
10
0.754331
20
0.570866
11
0.754331
21
0.720472
0
LINE
8
BLACK
6
CONTINUOUS
10
0.754331
20
0.720472
11
0.793701
21
0.720472
0
LINE
8
BLACK
6
CONTINUOUS
10
0.793701
20
0.720472
11
0.793701
21
0.570866
0
LINE
8
BLACK
6
CONTINUOUS
10
2.04567
20
0.570866
11
2.0063
21
0.570866
0
LINE
8
BLACK
6
CONTINUOUS
10
2.0063
20
0.570866
11
2.0063
21
0.720472
0
LINE
8
BLACK
6
CONTINUOUS
10
2.0063
20
0.720472
11
2.04567
21
0.720472
0
LINE
8
BLACK
6
CONTINUOUS
10
2.04567
20
0.720472
11
2.04567
21
0.570866
0
LINE
8
BLACK
6
CONTINUOUS
10
0.582929
20
0.614406
11
0.585962
21
0.612379
0
LINE
8
BLACK
6
CONTINUOUS
10
0.585962
20
0.612379
11
0.587989
21
0.609346
0
LINE
8
BLACK
6
CONTINUOUS
10
0.587989
20
0.609346
11
0.588701
21
0.605768
0
LINE
8
BLACK
6
CONTINUOUS
10
0.588701
20
0.605768
11
0.588701
21
0.58313
0
LINE
8
BLACK
6
CONTINUOUS
10
0.588701
20
0.58313
11
0.587989
21
0.579552
0
LINE
8
BLACK
6
CONTINUOUS
10
0.587989
20
0.579552
11
0.585962
21
0.576518
0
LINE
8
BLACK
6
CONTINUOUS
10
0.585962
20
0.576518
11
0.582929
21
0.574491
0
LINE
8
BLACK
6
CONTINUOUS
10
0.582929
20
0.574491
11
0.57935
21
0.57378
0
LINE
8
BLACK
6
CONTINUOUS
10
0.57935
20
0.57378
11
0.56065
21
0.57378
0
LINE
8
BLACK
6
CONTINUOUS
10
0.56065
20
0.57378
11
0.557071
21
0.574491
0
LINE
8
BLACK
6
CONTINUOUS
10
0.557071
20
0.574491
11
0.554038
21
0.576518
0
LINE
8
BLACK
6
CONTINUOUS
10
0.554038
20
0.576518
11
0.552011
21
0.579552
0
LINE
8
BLACK
6
CONTINUOUS
10
0.552011
20
0.579552
11
0.551299
21
0.58313
0
LINE
8
BLACK
6
CONTINUOUS
10
0.551299
20
0.58313
11
0.551299
21
0.605768
0
LINE
8
BLACK
6
CONTINUOUS
10
0.551299
20
0.605768
11
0.552011
21
0.609346
0
LINE
8
BLACK
6
CONTINUOUS
10
0.552011
20
0.609346
11
0.554038
21
0.612379
0
LINE
8
BLACK
6
CONTINUOUS
10
0.554038
20
0.612379
11
0.557071
21
0.614406
0
LINE
8
BLACK
6
CONTINUOUS
10
0.557071
20
0.614406
11
0.56065
21
0.615118
0
LINE
8
BLACK
6
CONTINUOUS
10
0.56065
20
0.615118
11
0.57935
21
0.615118
0
LINE
8
BLACK
6
CONTINUOUS
10
0.57935
20
0.615118
11
0.582929
21
0.614406
0
LINE
8
BLACK
6
CONTINUOUS
10
0.878176
20
0.64681
11
0.881369
21
0.644676
0
LINE
8
BLACK
6
CONTINUOUS
10
0.881369
20
0.644676
11
0.883503
21
0.641483
0
LINE
8
BLACK
6
CONTINUOUS
10
0.883503
20
0.641483
11
0.884252
21
0.637717
0
LINE
8
BLACK
6
CONTINUOUS
10
0.884252
20
0.637717
11
0.884252
21
0.602283
0
LINE
8
BLACK
6
CONTINUOUS
10
0.884252
20
0.602283
11
0.883503
21
0.598517
0
LINE
8
BLACK
6
CONTINUOUS
10
0.883503
20
0.598517
11
0.881369
21
0.595324
0
LINE
8
BLACK
6
CONTINUOUS
10
0.881369
20
0.595324
11
0.878176
21
0.59319
0
LINE
8
BLACK
6
CONTINUOUS
10
0.878176
20
0.59319
11
0.874409
21
0.592441
0
LINE
8
BLACK
6
CONTINUOUS
10
0.874409
20
0.592441
11
0.85374
21
0.592441
0
LINE
8
BLACK
6
CONTINUOUS
10
0.85374
20
0.592441
11
0.849974
21
0.59319
0
LINE
8
BLACK
6
CONTINUOUS
10
0.849974
20
0.59319
11
0.84678
21
0.595324
0
LINE
8
BLACK
6
CONTINUOUS
10
0.84678
20
0.595324
11
0.844647
21
0.598517
0
LINE
8
BLACK
6
CONTINUOUS
10
0.844647
20
0.598517
11
0.843898
21
0.602283
0
LINE
8
BLACK
6
CONTINUOUS
10
0.843898
20
0.602283
11
0.843898
21
0.637717
0
LINE
8
BLACK
6
CONTINUOUS
10
0.843898
20
0.637717
11
0.844647
21
0.641483
0
LINE
8
BLACK
6
CONTINUOUS
10
0.844647
20
0.641483
11
0.84678
21
0.644676
0
LINE
8
BLACK
6
CONTINUOUS
10
0.84678
20
0.644676
11
0.849974
21
0.64681
0
LINE
8
BLACK
6
CONTINUOUS
10
0.849974
20
0.64681
11
0.85374
21
0.647559
0
LINE
8
BLACK
6
CONTINUOUS
10
0.85374
20
0.647559
11
0.874409
21
0.647559
0
LINE
8
BLACK
6
CONTINUOUS
10
0.874409
20
0.647559
11
0.878176
21
0.64681
0
LINE
8
BLACK
6
CONTINUOUS
10
0.950026
20
0.64681
11
0.95322
21
0.644676
0
LINE
8
BLACK
6
CONTINUOUS
10
0.95322
20
0.644676
11
0.955353
21
0.641483
0
LINE
8
BLACK
6
CONTINUOUS
10
0.955353
20
0.641483
11
0.956102
21
0.637717
0
LINE
8
BLACK
6
CONTINUOUS
10
0.956102
20
0.637717
11
0.956102
21
0.602283
0
LINE
8
BLACK
6
CONTINUOUS
10
0.956102
20
0.602283
11
0.955353
21
0.598517
0
LINE
8
BLACK
6
CONTINUOUS
10
0.955353
20
0.598517
11
0.95322
21
0.595324
0
LINE
8
BLACK
6
CONTINUOUS
10
0.95322
20
0.595324
11
0.950026
21
0.59319
0
LINE
8
BLACK
6
CONTINUOUS
10
0.950026
20
0.59319
11
0.94626
21
0.592441
0
LINE
8
BLACK
6
CONTINUOUS
10
0.94626
20
0.592441
11
0.925591
21
0.592441
0
LINE
8
BLACK
6
CONTINUOUS
10
0.925591
20
0.592441
11
0.921824
21
0.59319
0
LINE
8
BLACK
6
CONTINUOUS
10
0.921824
20
0.59319
11
0.918631
21
0.595324
0
LINE
8
BLACK
6
CONTINUOUS
10
0.918631
20
0.595324
11
0.916497
21
0.598517
0
LINE
8
BLACK
6
CONTINUOUS
10
0.916497
20
0.598517
11
0.915748
21
0.602283
0
LINE
8
BLACK
6
CONTINUOUS
10
0.915748
20
0.602283
11
0.915748
21
0.637717
0
LINE
8
BLACK
6
CONTINUOUS
10
0.915748
20
0.637717
11
0.916497
21
0.641483
0
LINE
8
BLACK
6
CONTINUOUS
10
0.916497
20
0.641483
11
0.918631
21
0.644676
0
LINE
8
BLACK
6
CONTINUOUS
10
0.918631
20
0.644676
11
0.921824
21
0.64681
0
LINE
8
BLACK
6
CONTINUOUS
10
0.921824
20
0.64681
11
0.925591
21
0.647559
0
LINE
8
BLACK
6
CONTINUOUS
10
0.925591
20
0.647559
11
0.94626
21
0.647559
0
LINE
8
BLACK
6
CONTINUOUS
10
0.94626
20
0.647559
11
0.950026
21
0.64681
0
LINE
8
BLACK
6
CONTINUOUS
10
2.19121
20
0.657794
11
2.1944
21
0.655661
0
LINE
8
BLACK
6
CONTINUOUS
10
2.1944
20
0.655661
11
2.19653
21
0.652467
0
LINE
8
BLACK
6
CONTINUOUS
10
2.19653
20
0.652467
11
2.19728
21
0.648701
0
LINE
8
BLACK
6
CONTINUOUS
10
2.19728
20
0.648701
11
2.19728
21
0.611299
0
LINE
8
BLACK
6
CONTINUOUS
10
2.19728
20
0.611299
11
2.19653
21
0.607533
0
LINE
8
BLACK
6
CONTINUOUS
10
2.19653
20
0.607533
11
2.1944
21
0.604339
0
LINE
8
BLACK
6
CONTINUOUS
10
2.1944
20
0.604339
11
2.19121
21
0.602206
0
LINE
8
BLACK
6
CONTINUOUS
10
2.19121
20
0.602206
11
2.18744
21
0.601457
0
LINE
8
BLACK
6
CONTINUOUS
10
2.18744
20
0.601457
11
2.16776
21
0.601457
0
LINE
8
BLACK
6
CONTINUOUS
10
2.16776
20
0.601457
11
2.16399
21
0.602206
0
LINE
8
BLACK
6
CONTINUOUS
10
2.16399
20
0.602206
11
2.1608
21
0.604339
0
LINE
8
BLACK
6
CONTINUOUS
10
2.1608
20
0.604339
11
2.15866
21
0.607533
0
LINE
8
BLACK
6
CONTINUOUS
10
2.15866
20
0.607533
11
2.15791
21
0.611299
0
LINE
8
BLACK
6
CONTINUOUS
10
2.15791
20
0.611299
11
2.15791
21
0.648701
0
LINE
8
BLACK
6
CONTINUOUS
10
2.15791
20
0.648701
11
2.15866
21
0.652467
0
LINE
8
BLACK
6
CONTINUOUS
10
2.15866
20
0.652467
11
2.1608
21
0.655661
0
LINE
8
BLACK
6
CONTINUOUS
10
2.1608
20
0.655661
11
2.16399
21
0.657794
0
LINE
8
BLACK
6
CONTINUOUS
10
2.16399
20
0.657794
11
2.16776
21
0.658543
0
LINE
8
BLACK
6
CONTINUOUS
10
2.16776
20
0.658543
11
2.18744
21
0.658543
0
LINE
8
BLACK
6
CONTINUOUS
10
2.18744
20
0.658543
11
2.19121
21
0.657794
0
LINE
8
BLACK
6
CONTINUOUS
10
2.26601
20
0.657794
11
2.2692
21
0.655661
0
LINE
8
BLACK
6
CONTINUOUS
10
2.2692
20
0.655661
11
2.27134
21
0.652467
0
LINE
8
BLACK
6
CONTINUOUS
10
2.27134
20
0.652467
11
2.27209
21
0.648701
0
LINE
8
BLACK
6
CONTINUOUS
10
2.27209
20
0.648701
11
2.27209
21
0.611299
0
LINE
8
BLACK
6
CONTINUOUS
10
2.27209
20
0.611299
11
2.27134
21
0.607533
0
LINE
8
BLACK
6
CONTINUOUS
10
2.27134
20
0.607533
11
2.2692
21
0.604339
0
LINE
8
BLACK
6
CONTINUOUS
10
2.2692
20
0.604339
11
2.26601
21
0.602206
0
LINE
8
BLACK
6
CONTINUOUS
10
2.26601
20
0.602206
11
2.26224
21
0.601457
0
LINE
8
BLACK
6
CONTINUOUS
10
2.26224
20
0.601457
11
2.24256
21
0.601457
0
LINE
8
BLACK
6
CONTINUOUS
10
2.24256
20
0.601457
11
2.23879
21
0.602206
0
LINE
8
BLACK
6
CONTINUOUS
10
2.23879
20
0.602206
11
2.2356
21
0.604339
0
LINE
8
BLACK
6
CONTINUOUS
10
2.2356
20
0.604339
11
2.23347
21
0.607533
0
LINE
8
BLACK
6
CONTINUOUS
10
2.23347
20
0.607533
11
2.23272
21
0.611299
0
LINE
8
BLACK
6
CONTINUOUS
10
2.23272
20
0.611299
11
2.23272
21
0.648701
0
LINE
8
BLACK
6
CONTINUOUS
10
2.23272
20
0.648701
11
2.23347
21
0.652467
0
LINE
8
BLACK
6
CONTINUOUS
10
2.23347
20
0.652467
11
2.2356
21
0.655661
0
LINE
8
BLACK
6
CONTINUOUS
10
2.2356
20
0.655661
11
2.23879
21
0.657794
0
LINE
8
BLACK
6
CONTINUOUS
10
2.23879
20
0.657794
11
2.24256
21
0.658543
0
LINE
8
BLACK
6
CONTINUOUS
10
2.24256
20
0.658543
11
2.26224
21
0.658543
0
LINE
8
BLACK
6
CONTINUOUS
10
2.26224
20
0.658543
11
2.26601
21
0.657794
0
LINE
8
BLACK
6
CONTINUOUS
10
1.40317
20
0.681676
11
1.40508
21
0.680396
0
LINE
8
BLACK
6
CONTINUOUS
10
1.40508
20
0.680396
11
1.40636
21
0.67848
0
LINE
8
BLACK
6
CONTINUOUS
10
1.40636
20
0.67848
11
1.40681
21
0.67622
0
LINE
8
BLACK
6
CONTINUOUS
10
1.40681
20
0.67622
11
1.40681
21
0.629961
0
LINE
8
BLACK
6
CONTINUOUS
10
1.40681
20
0.629961
11
1.40636
21
0.627701
0
LINE
8
BLACK
6
CONTINUOUS
10
1.40636
20
0.627701
11
1.40508
21
0.625785
0
LINE
8
BLACK
6
CONTINUOUS
10
1.40508
20
0.625785
11
1.40317
21
0.624505
0
LINE
8
BLACK
6
CONTINUOUS
10
1.40317
20
0.624505
11
1.40091
21
0.624055
0
LINE
8
BLACK
6
CONTINUOUS
10
1.40091
20
0.624055
11
1.38909
21
0.624055
0
LINE
8
BLACK
6
CONTINUOUS
10
1.38909
20
0.624055
11
1.38683
21
0.624505
0
LINE
8
BLACK
6
CONTINUOUS
10
1.38683
20
0.624505
11
1.38492
21
0.625785
0
LINE
8
BLACK
6
CONTINUOUS
10
1.38492
20
0.625785
11
1.38364
21
0.627701
0
LINE
8
BLACK
6
CONTINUOUS
10
1.38364
20
0.627701
11
1.38319
21
0.629961
0
LINE
8
BLACK
6
CONTINUOUS
10
1.38319
20
0.629961
11
1.38319
21
0.67622
0
LINE
8
BLACK
6
CONTINUOUS
10
1.38319
20
0.67622
11
1.38364
21
0.67848
0
LINE
8
BLACK
6
CONTINUOUS
10
1.38364
20
0.67848
11
1.38492
21
0.680396
0
LINE
8
BLACK
6
CONTINUOUS
10
1.38492
20
0.680396
11
1.38683
21
0.681676
0
LINE
8
BLACK
6
CONTINUOUS
10
1.38683
20
0.681676
11
1.38909
21
0.682126
0
LINE
8
BLACK
6
CONTINUOUS
10
1.38909
20
0.682126
11
1.40091
21
0.682126
0
LINE
8
BLACK
6
CONTINUOUS
10
1.40091
20
0.682126
11
1.40317
21
0.681676
0
LINE
8
BLACK
6
CONTINUOUS
10
1.06148
20
0.665353
11
1.06468
21
0.66322
0
LINE
8
BLACK
6
CONTINUOUS
10
1.06468
20
0.66322
11
1.06681
21
0.660026
0
LINE
8
BLACK
6
CONTINUOUS
10
1.06681
20
0.660026
11
1.06756
21
0.65626
0
LINE
8
BLACK
6
CONTINUOUS
10
1.06756
20
0.65626
11
1.06756
21
0.635591
0
LINE
8
BLACK
6
CONTINUOUS
10
1.06756
20
0.635591
11
1.06681
21
0.631824
0
LINE
8
BLACK
6
CONTINUOUS
10
1.06681
20
0.631824
11
1.06468
21
0.628631
0
LINE
8
BLACK
6
CONTINUOUS
10
1.06468
20
0.628631
11
1.06148
21
0.626497
0
LINE
8
BLACK
6
CONTINUOUS
10
1.06148
20
0.626497
11
1.05772
21
0.625748
0
LINE
8
BLACK
6
CONTINUOUS
10
1.05772
20
0.625748
11
1.02228
21
0.625748
0
LINE
8
BLACK
6
CONTINUOUS
10
1.02228
20
0.625748
11
1.01852
21
0.626497
0
LINE
8
BLACK
6
CONTINUOUS
10
1.01852
20
0.626497
11
1.01532
21
0.628631
0
LINE
8
BLACK
6
CONTINUOUS
10
1.01532
20
0.628631
11
1.01319
21
0.631824
0
LINE
8
BLACK
6
CONTINUOUS
10
1.01319
20
0.631824
11
1.01244
21
0.635591
0
LINE
8
BLACK
6
CONTINUOUS
10
1.01244
20
0.635591
11
1.01244
21
0.65626
0
LINE
8
BLACK
6
CONTINUOUS
10
1.01244
20
0.65626
11
1.01319
21
0.660026
0
LINE
8
BLACK
6
CONTINUOUS
10
1.01319
20
0.660026
11
1.01532
21
0.66322
0
LINE
8
BLACK
6
CONTINUOUS
10
1.01532
20
0.66322
11
1.01852
21
0.665353
0
LINE
8
BLACK
6
CONTINUOUS
10
1.01852
20
0.665353
11
1.02228
21
0.666102
0
LINE
8
BLACK
6
CONTINUOUS
10
1.02228
20
0.666102
11
1.05772
21
0.666102
0
LINE
8
BLACK
6
CONTINUOUS
10
1.05772
20
0.666102
11
1.06148
21
0.665353
0
LINE
8
BLACK
6
CONTINUOUS
10
0.681483
20
0.671534
11
0.684676
21
0.669401
0
LINE
8
BLACK
6
CONTINUOUS
10
0.684676
20
0.669401
11
0.68681
21
0.666208
0
LINE
8
BLACK
6
CONTINUOUS
10
0.68681
20
0.666208
11
0.687559
21
0.662441
0
LINE
8
BLACK
6
CONTINUOUS
10
0.687559
20
0.662441
11
0.687559
21
0.63685
0
LINE
8
BLACK
6
CONTINUOUS
10
0.687559
20
0.63685
11
0.68681
21
0.633084
0
LINE
8
BLACK
6
CONTINUOUS
10
0.68681
20
0.633084
11
0.684676
21
0.629891
0
LINE
8
BLACK
6
CONTINUOUS
10
0.684676
20
0.629891
11
0.681483
21
0.627757
0
LINE
8
BLACK
6
CONTINUOUS
10
0.681483
20
0.627757
11
0.677717
21
0.627008
0
LINE
8
BLACK
6
CONTINUOUS
10
0.677717
20
0.627008
11
0.642283
21
0.627008
0
LINE
8
BLACK
6
CONTINUOUS
10
0.642283
20
0.627008
11
0.638517
21
0.627757
0
LINE
8
BLACK
6
CONTINUOUS
10
0.638517
20
0.627757
11
0.635324
21
0.629891
0
LINE
8
BLACK
6
CONTINUOUS
10
0.635324
20
0.629891
11
0.63319
21
0.633084
0
LINE
8
BLACK
6
CONTINUOUS
10
0.63319
20
0.633084
11
0.632441
21
0.63685
0
LINE
8
BLACK
6
CONTINUOUS
10
0.632441
20
0.63685
11
0.632441
21
0.662441
0
LINE
8
BLACK
6
CONTINUOUS
10
0.632441
20
0.662441
11
0.63319
21
0.666208
0
LINE
8
BLACK
6
CONTINUOUS
10
0.63319
20
0.666208
11
0.635324
21
0.669401
0
LINE
8
BLACK
6
CONTINUOUS
10
0.635324
20
0.669401
11
0.638517
21
0.671534
0
LINE
8
BLACK
6
CONTINUOUS
10
0.638517
20
0.671534
11
0.642283
21
0.672283
0
LINE
8
BLACK
6
CONTINUOUS
10
0.642283
20
0.672283
11
0.677717
21
0.672283
0
LINE
8
BLACK
6
CONTINUOUS
10
0.677717
20
0.672283
11
0.681483
21
0.671534
0
LINE
8
BLACK
6
CONTINUOUS
10
0.592467
20
0.675353
11
0.595661
21
0.67322
0
LINE
8
BLACK
6
CONTINUOUS
10
0.595661
20
0.67322
11
0.597794
21
0.670026
0
LINE
8
BLACK
6
CONTINUOUS
10
0.597794
20
0.670026
11
0.598543
21
0.66626
0
LINE
8
BLACK
6
CONTINUOUS
10
0.598543
20
0.66626
11
0.598543
21
0.646575
0
LINE
8
BLACK
6
CONTINUOUS
10
0.598543
20
0.646575
11
0.597794
21
0.642808
0
LINE
8
BLACK
6
CONTINUOUS
10
0.597794
20
0.642808
11
0.595661
21
0.639615
0
LINE
8
BLACK
6
CONTINUOUS
10
0.595661
20
0.639615
11
0.592467
21
0.637481
0
LINE
8
BLACK
6
CONTINUOUS
10
0.592467
20
0.637481
11
0.588701
21
0.636732
0
LINE
8
BLACK
6
CONTINUOUS
10
0.588701
20
0.636732
11
0.551299
21
0.636732
0
LINE
8
BLACK
6
CONTINUOUS
10
0.551299
20
0.636732
11
0.547533
21
0.637481
0
LINE
8
BLACK
6
CONTINUOUS
10
0.547533
20
0.637481
11
0.544339
21
0.639615
0
LINE
8
BLACK
6
CONTINUOUS
10
0.544339
20
0.639615
11
0.542206
21
0.642808
0
LINE
8
BLACK
6
CONTINUOUS
10
0.542206
20
0.642808
11
0.541457
21
0.646575
0
LINE
8
BLACK
6
CONTINUOUS
10
0.541457
20
0.646575
11
0.541457
21
0.66626
0
LINE
8
BLACK
6
CONTINUOUS
10
0.541457
20
0.66626
11
0.542206
21
0.670026
0
LINE
8
BLACK
6
CONTINUOUS
10
0.542206
20
0.670026
11
0.544339
21
0.67322
0
LINE
8
BLACK
6
CONTINUOUS
10
0.544339
20
0.67322
11
0.547533
21
0.675353
0
LINE
8
BLACK
6
CONTINUOUS
10
0.547533
20
0.675353
11
0.551299
21
0.676102
0
LINE
8
BLACK
6
CONTINUOUS
10
0.551299
20
0.676102
11
0.588701
21
0.676102
0
LINE
8
BLACK
6
CONTINUOUS
10
0.588701
20
0.676102
11
0.592467
21
0.675353
0
LINE
8
BLACK
6
CONTINUOUS
10
1.6605
20
0.69366
11
1.66369
21
0.691527
0
LINE
8
BLACK
6
CONTINUOUS
10
1.66369
20
0.691527
11
1.66583
21
0.688334
0
LINE
8
BLACK
6
CONTINUOUS
10
1.66583
20
0.688334
11
1.66657
21
0.684567
0
LINE
8
BLACK
6
CONTINUOUS
10
1.66657
20
0.684567
11
1.66657
21
0.649134
0
LINE
8
BLACK
6
CONTINUOUS
10
1.66657
20
0.649134
11
1.66583
21
0.645367
0
LINE
8
BLACK
6
CONTINUOUS
10
1.66583
20
0.645367
11
1.66369
21
0.642174
0
LINE
8
BLACK
6
CONTINUOUS
10
1.66369
20
0.642174
11
1.6605
21
0.640041
0
LINE
8
BLACK
6
CONTINUOUS
10
1.6605
20
0.640041
11
1.65673
21
0.639291
0
LINE
8
BLACK
6
CONTINUOUS
10
1.65673
20
0.639291
11
1.62327
21
0.639291
0
LINE
8
BLACK
6
CONTINUOUS
10
1.62327
20
0.639291
11
1.6195
21
0.640041
0
LINE
8
BLACK
6
CONTINUOUS
10
1.6195
20
0.640041
11
1.61631
21
0.642174
0
LINE
8
BLACK
6
CONTINUOUS
10
1.61631
20
0.642174
11
1.61417
21
0.645367
0
LINE
8
BLACK
6
CONTINUOUS
10
1.61417
20
0.645367
11
1.61343
21
0.649134
0
LINE
8
BLACK
6
CONTINUOUS
10
1.61343
20
0.649134
11
1.61343
21
0.684567
0
LINE
8
BLACK
6
CONTINUOUS
10
1.61343
20
0.684567
11
1.61417
21
0.688334
0
LINE
8
BLACK
6
CONTINUOUS
10
1.61417
20
0.688334
11
1.61631
21
0.691527
0
LINE
8
BLACK
6
CONTINUOUS
10
1.61631
20
0.691527
11
1.6195
21
0.69366
0
LINE
8
BLACK
6
CONTINUOUS
10
1.6195
20
0.69366
11
1.62327
21
0.694409
0
LINE
8
BLACK
6
CONTINUOUS
10
1.62327
20
0.694409
11
1.65673
21
0.694409
0
LINE
8
BLACK
6
CONTINUOUS
10
1.65673
20
0.694409
11
1.6605
21
0.69366
0
LINE
8
BLACK
6
CONTINUOUS
10
1.71818
20
0.69681
11
1.72137
21
0.694676
0
LINE
8
BLACK
6
CONTINUOUS
10
1.72137
20
0.694676
11
1.7235
21
0.691483
0
LINE
8
BLACK
6
CONTINUOUS
10
1.7235
20
0.691483
11
1.72425
21
0.687717
0
LINE
8
BLACK
6
CONTINUOUS
10
1.72425
20
0.687717
11
1.72425
21
0.652283
0
LINE
8
BLACK
6
CONTINUOUS
10
1.72425
20
0.652283
11
1.7235
21
0.648517
0
LINE
8
BLACK
6
CONTINUOUS
10
1.7235
20
0.648517
11
1.72137
21
0.645324
0
LINE
8
BLACK
6
CONTINUOUS
10
1.72137
20
0.645324
11
1.71818
21
0.64319
0
LINE
8
BLACK
6
CONTINUOUS
10
1.71818
20
0.64319
11
1.71441
21
0.642441
0
LINE
8
BLACK
6
CONTINUOUS
10
1.71441
20
0.642441
11
1.69374
21
0.642441
0
LINE
8
BLACK
6
CONTINUOUS
10
1.69374
20
0.642441
11
1.68997
21
0.64319
0
LINE
8
BLACK
6
CONTINUOUS
10
1.68997
20
0.64319
11
1.68678
21
0.645324
0
LINE
8
BLACK
6
CONTINUOUS
10
1.68678
20
0.645324
11
1.68465
21
0.648517
0
LINE
8
BLACK
6
CONTINUOUS
10
1.68465
20
0.648517
11
1.6839
21
0.652283
0
LINE
8
BLACK
6
CONTINUOUS
10
1.6839
20
0.652283
11
1.6839
21
0.687717
0
LINE
8
BLACK
6
CONTINUOUS
10
1.6839
20
0.687717
11
1.68465
21
0.691483
0
LINE
8
BLACK
6
CONTINUOUS
10
1.68465
20
0.691483
11
1.68678
21
0.694676
0
LINE
8
BLACK
6
CONTINUOUS
10
1.68678
20
0.694676
11
1.68997
21
0.69681
0
LINE
8
BLACK
6
CONTINUOUS
10
1.68997
20
0.69681
11
1.69374
21
0.697559
0
LINE
8
BLACK
6
CONTINUOUS
10
1.69374
20
0.697559
11
1.71441
21
0.697559
0
LINE
8
BLACK
6
CONTINUOUS
10
1.71441
20
0.697559
11
1.71818
21
0.69681
0
LINE
8
BLACK
6
CONTINUOUS
10
1.79003
20
0.69681
11
1.79322
21
0.694676
0
LINE
8
BLACK
6
CONTINUOUS
10
1.79322
20
0.694676
11
1.79535
21
0.691483
0
LINE
8
BLACK
6
CONTINUOUS
10
1.79535
20
0.691483
11
1.7961
21
0.687717
0
LINE
8
BLACK
6
CONTINUOUS
10
1.7961
20
0.687717
11
1.7961
21
0.652283
0
LINE
8
BLACK
6
CONTINUOUS
10
1.7961
20
0.652283
11
1.79535
21
0.648517
0
LINE
8
BLACK
6
CONTINUOUS
10
1.79535
20
0.648517
11
1.79322
21
0.645324
0
LINE
8
BLACK
6
CONTINUOUS
10
1.79322
20
0.645324
11
1.79003
21
0.64319
0
LINE
8
BLACK
6
CONTINUOUS
10
1.79003
20
0.64319
11
1.78626
21
0.642441
0
LINE
8
BLACK
6
CONTINUOUS
10
1.78626
20
0.642441
11
1.76559
21
0.642441
0
LINE
8
BLACK
6
CONTINUOUS
10
1.76559
20
0.642441
11
1.76182
21
0.64319
0
LINE
8
BLACK
6
CONTINUOUS
10
1.76182
20
0.64319
11
1.75863
21
0.645324
0
LINE
8
BLACK
6
CONTINUOUS
10
1.75863
20
0.645324
11
1.7565
21
0.648517
0
LINE
8
BLACK
6
CONTINUOUS
10
1.7565
20
0.648517
11
1.75575
21
0.652283
0
LINE
8
BLACK
6
CONTINUOUS
10
1.75575
20
0.652283
11
1.75575
21
0.687717
0
LINE
8
BLACK
6
CONTINUOUS
10
1.75575
20
0.687717
11
1.7565
21
0.691483
0
LINE
8
BLACK
6
CONTINUOUS
10
1.7565
20
0.691483
11
1.75863
21
0.694676
0
LINE
8
BLACK
6
CONTINUOUS
10
1.75863
20
0.694676
11
1.76182
21
0.69681
0
LINE
8
BLACK
6
CONTINUOUS
10
1.76182
20
0.69681
11
1.76559
21
0.697559
0
LINE
8
BLACK
6
CONTINUOUS
10
1.76559
20
0.697559
11
1.78626
21
0.697559
0
LINE
8
BLACK
6
CONTINUOUS
10
1.78626
20
0.697559
11
1.79003
21
0.69681
0
LINE
8
BLACK
6
CONTINUOUS
10
0.394176
20
0.714066
11
0.324579
21
0.644469
0
LINE
8
BLACK
6
CONTINUOUS
10
0.324579
20
0.644469
11
0.274469
21
0.694579
0
LINE
8
BLACK
6
CONTINUOUS
10
0.274469
20
0.694579
11
0.344066
21
0.764176
0
LINE
8
BLACK
6
CONTINUOUS
10
0.344066
20
0.764176
11
0.394176
21
0.714066
0
LINE
8
BLACK
6
CONTINUOUS
10
1.21207
20
0.689959
11
1.21527
21
0.687826
0
LINE
8
BLACK
6
CONTINUOUS
10
1.21527
20
0.687826
11
1.2174
21
0.684633
0
LINE
8
BLACK
6
CONTINUOUS
10
1.2174
20
0.684633
11
1.21815
21
0.680866
0
LINE
8
BLACK
6
CONTINUOUS
10
1.21815
20
0.680866
11
1.21815
21
0.655276
0
LINE
8
BLACK
6
CONTINUOUS
10
1.21815
20
0.655276
11
1.2174
21
0.651509
0
LINE
8
BLACK
6
CONTINUOUS
10
1.2174
20
0.651509
11
1.21527
21
0.648316
0
LINE
8
BLACK
6
CONTINUOUS
10
1.21527
20
0.648316
11
1.21207
21
0.646182
0
LINE
8
BLACK
6
CONTINUOUS
10
1.21207
20
0.646182
11
1.20831
21
0.645433
0
LINE
8
BLACK
6
CONTINUOUS
10
1.20831
20
0.645433
11
1.12169
21
0.645433
0
LINE
8
BLACK
6
CONTINUOUS
10
1.12169
20
0.645433
11
1.11793
21
0.646182
0
LINE
8
BLACK
6
CONTINUOUS
10
1.11793
20
0.646182
11
1.11473
21
0.648316
0
LINE
8
BLACK
6
CONTINUOUS
10
1.11473
20
0.648316
11
1.1126
21
0.651509
0
LINE
8
BLACK
6
CONTINUOUS
10
1.1126
20
0.651509
11
1.11185
21
0.655276
0
LINE
8
BLACK
6
CONTINUOUS
10
1.11185
20
0.655276
11
1.11185
21
0.680866
0
LINE
8
BLACK
6
CONTINUOUS
10
1.11185
20
0.680866
11
1.1126
21
0.684633
0
LINE
8
BLACK
6
CONTINUOUS
10
1.1126
20
0.684633
11
1.11473
21
0.687826
0
LINE
8
BLACK
6
CONTINUOUS
10
1.11473
20
0.687826
11
1.11793
21
0.689959
0
LINE
8
BLACK
6
CONTINUOUS
10
1.11793
20
0.689959
11
1.12169
21
0.690709
0
LINE
8
BLACK
6
CONTINUOUS
10
1.12169
20
0.690709
11
1.20831
21
0.690709
0
LINE
8
BLACK
6
CONTINUOUS
10
1.20831
20
0.690709
11
1.21207
21
0.689959
0
LINE
8
BLACK
6
CONTINUOUS
10
1.55747
20
0.691534
11
1.56066
21
0.689401
0
LINE
8
BLACK
6
CONTINUOUS
10
1.56066
20
0.689401
11
1.56279
21
0.686208
0
LINE
8
BLACK
6
CONTINUOUS
10
1.56279
20
0.686208
11
1.56354
21
0.682441
0
LINE
8
BLACK
6
CONTINUOUS
10
1.56354
20
0.682441
11
1.56354
21
0.662756
0
LINE
8
BLACK
6
CONTINUOUS
10
1.56354
20
0.662756
11
1.56279
21
0.658989
0
LINE
8
BLACK
6
CONTINUOUS
10
1.56279
20
0.658989
11
1.56066
21
0.655796
0
LINE
8
BLACK
6
CONTINUOUS
10
1.56066
20
0.655796
11
1.55747
21
0.653663
0
LINE
8
BLACK
6
CONTINUOUS
10
1.55747
20
0.653663
11
1.5537
21
0.652913
0
LINE
8
BLACK
6
CONTINUOUS
10
1.5537
20
0.652913
11
1.5163
21
0.652913
0
LINE
8
BLACK
6
CONTINUOUS
10
1.5163
20
0.652913
11
1.51253
21
0.653663
0
LINE
8
BLACK
6
CONTINUOUS
10
1.51253
20
0.653663
11
1.50934
21
0.655796
0
LINE
8
BLACK
6
CONTINUOUS
10
1.50934
20
0.655796
11
1.50721
21
0.658989
0
LINE
8
BLACK
6
CONTINUOUS
10
1.50721
20
0.658989
11
1.50646
21
0.662756
0
LINE
8
BLACK
6
CONTINUOUS
10
1.50646
20
0.662756
11
1.50646
21
0.682441
0
LINE
8
BLACK
6
CONTINUOUS
10
1.50646
20
0.682441
11
1.50721
21
0.686208
0
LINE
8
BLACK
6
CONTINUOUS
10
1.50721
20
0.686208
11
1.50934
21
0.689401
0
LINE
8
BLACK
6
CONTINUOUS
10
1.50934
20
0.689401
11
1.51253
21
0.691534
0
LINE
8
BLACK
6
CONTINUOUS
10
1.51253
20
0.691534
11
1.5163
21
0.692283
0
LINE
8
BLACK
6
CONTINUOUS
10
1.5163
20
0.692283
11
1.5537
21
0.692283
0
LINE
8
BLACK
6
CONTINUOUS
10
1.5537
20
0.692283
11
1.55747
21
0.691534
0
LINE
8
BLACK
6
CONTINUOUS
10
1.29148
20
0.703503
11
1.29468
21
0.701369
0
LINE
8
BLACK
6
CONTINUOUS
10
1.29468
20
0.701369
11
1.29681
21
0.698176
0
LINE
8
BLACK
6
CONTINUOUS
10
1.29681
20
0.698176
11
1.29756
21
0.694409
0
LINE
8
BLACK
6
CONTINUOUS
10
1.29756
20
0.694409
11
1.29756
21
0.67374
0
LINE
8
BLACK
6
CONTINUOUS
10
1.29756
20
0.67374
11
1.29681
21
0.669974
0
LINE
8
BLACK
6
CONTINUOUS
10
1.29681
20
0.669974
11
1.29468
21
0.66678
0
LINE
8
BLACK
6
CONTINUOUS
10
1.29468
20
0.66678
11
1.29148
21
0.664647
0
LINE
8
BLACK
6
CONTINUOUS
10
1.29148
20
0.664647
11
1.28772
21
0.663898
0
LINE
8
BLACK
6
CONTINUOUS
10
1.28772
20
0.663898
11
1.25228
21
0.663898
0
LINE
8
BLACK
6
CONTINUOUS
10
1.25228
20
0.663898
11
1.24852
21
0.664647
0
LINE
8
BLACK
6
CONTINUOUS
10
1.24852
20
0.664647
11
1.24532
21
0.66678
0
LINE
8
BLACK
6
CONTINUOUS
10
1.24532
20
0.66678
11
1.24319
21
0.669974
0
LINE
8
BLACK
6
CONTINUOUS
10
1.24319
20
0.669974
11
1.24244
21
0.67374
0
LINE
8
BLACK
6
CONTINUOUS
10
1.24244
20
0.67374
11
1.24244
21
0.694409
0
LINE
8
BLACK
6
CONTINUOUS
10
1.24244
20
0.694409
11
1.24319
21
0.698176
0
LINE
8
BLACK
6
CONTINUOUS
10
1.24319
20
0.698176
11
1.24532
21
0.701369
0
LINE
8
BLACK
6
CONTINUOUS
10
1.24532
20
0.701369
11
1.24852
21
0.703503
0
LINE
8
BLACK
6
CONTINUOUS
10
1.24852
20
0.703503
11
1.25228
21
0.704252
0
LINE
8
BLACK
6
CONTINUOUS
10
1.25228
20
0.704252
11
1.28772
21
0.704252
0
LINE
8
BLACK
6
CONTINUOUS
10
1.28772
20
0.704252
11
1.29148
21
0.703503
0
LINE
8
BLACK
6
CONTINUOUS
10
0.886208
20
0.737794
11
0.889401
21
0.735661
0
LINE
8
BLACK
6
CONTINUOUS
10
0.889401
20
0.735661
11
0.891534
21
0.732467
0
LINE
8
BLACK
6
CONTINUOUS
10
0.891534
20
0.732467
11
0.892283
21
0.728701
0
LINE
8
BLACK
6
CONTINUOUS
10
0.892283
20
0.728701
11
0.892283
21
0.691299
0
LINE
8
BLACK
6
CONTINUOUS
10
0.892283
20
0.691299
11
0.891534
21
0.687533
0
LINE
8
BLACK
6
CONTINUOUS
10
0.891534
20
0.687533
11
0.889401
21
0.684339
0
LINE
8
BLACK
6
CONTINUOUS
10
0.889401
20
0.684339
11
0.886208
21
0.682206
0
LINE
8
BLACK
6
CONTINUOUS
10
0.886208
20
0.682206
11
0.882441
21
0.681457
0
LINE
8
BLACK
6
CONTINUOUS
10
0.882441
20
0.681457
11
0.862756
21
0.681457
0
LINE
8
BLACK
6
CONTINUOUS
10
0.862756
20
0.681457
11
0.858989
21
0.682206
0
LINE
8
BLACK
6
CONTINUOUS
10
0.858989
20
0.682206
11
0.855796
21
0.684339
0
LINE
8
BLACK
6
CONTINUOUS
10
0.855796
20
0.684339
11
0.853663
21
0.687533
0
LINE
8
BLACK
6
CONTINUOUS
10
0.853663
20
0.687533
11
0.852913
21
0.691299
0
LINE
8
BLACK
6
CONTINUOUS
10
0.852913
20
0.691299
11
0.852913
21
0.728701
0
LINE
8
BLACK
6
CONTINUOUS
10
0.852913
20
0.728701
11
0.853663
21
0.732467
0
LINE
8
BLACK
6
CONTINUOUS
10
0.853663
20
0.732467
11
0.855796
21
0.735661
0
LINE
8
BLACK
6
CONTINUOUS
10
0.855796
20
0.735661
11
0.858989
21
0.737794
0
LINE
8
BLACK
6
CONTINUOUS
10
0.858989
20
0.737794
11
0.862756
21
0.738543
0
LINE
8
BLACK
6
CONTINUOUS
10
0.862756
20
0.738543
11
0.882441
21
0.738543
0
LINE
8
BLACK
6
CONTINUOUS
10
0.882441
20
0.738543
11
0.886208
21
0.737794
0
LINE
8
BLACK
6
CONTINUOUS
10
0.961011
20
0.737794
11
0.964204
21
0.735661
0
LINE
8
BLACK
6
CONTINUOUS
10
0.964204
20
0.735661
11
0.966337
21
0.732467
0
LINE
8
BLACK
6
CONTINUOUS
10
0.966337
20
0.732467
11
0.967087
21
0.728701
0
LINE
8
BLACK
6
CONTINUOUS
10
0.967087
20
0.728701
11
0.967087
21
0.691299
0
LINE
8
BLACK
6
CONTINUOUS
10
0.967087
20
0.691299
11
0.966337
21
0.687533
0
LINE
8
BLACK
6
CONTINUOUS
10
0.966337
20
0.687533
11
0.964204
21
0.684339
0
LINE
8
BLACK
6
CONTINUOUS
10
0.964204
20
0.684339
11
0.961011
21
0.682206
0
LINE
8
BLACK
6
CONTINUOUS
10
0.961011
20
0.682206
11
0.957244
21
0.681457
0
LINE
8
BLACK
6
CONTINUOUS
10
0.957244
20
0.681457
11
0.937559
21
0.681457
0
LINE
8
BLACK
6
CONTINUOUS
10
0.937559
20
0.681457
11
0.933792
21
0.682206
0
LINE
8
BLACK
6
CONTINUOUS
10
0.933792
20
0.682206
11
0.930599
21
0.684339
0
LINE
8
BLACK
6
CONTINUOUS
10
0.930599
20
0.684339
11
0.928466
21
0.687533
0
LINE
8
BLACK
6
CONTINUOUS
10
0.928466
20
0.687533
11
0.927717
21
0.691299
0
LINE
8
BLACK
6
CONTINUOUS
10
0.927717
20
0.691299
11
0.927717
21
0.728701
0
LINE
8
BLACK
6
CONTINUOUS
10
0.927717
20
0.728701
11
0.928466
21
0.732467
0
LINE
8
BLACK
6
CONTINUOUS
10
0.928466
20
0.732467
11
0.930599
21
0.735661
0
LINE
8
BLACK
6
CONTINUOUS
10
0.930599
20
0.735661
11
0.933792
21
0.737794
0
LINE
8
BLACK
6
CONTINUOUS
10
0.933792
20
0.737794
11
0.937559
21
0.738543
0
LINE
8
BLACK
6
CONTINUOUS
10
0.937559
20
0.738543
11
0.957244
21
0.738543
0
LINE
8
BLACK
6
CONTINUOUS
10
0.957244
20
0.738543
11
0.961011
21
0.737794
0
LINE
8
BLACK
6
CONTINUOUS
10
1.36576
20
0.755495
11
1.36768
21
0.754215
0
LINE
8
BLACK
6
CONTINUOUS
10
1.36768
20
0.754215
11
1.36896
21
0.752299
0
LINE
8
BLACK
6
CONTINUOUS
10
1.36896
20
0.752299
11
1.36941
21
0.750039
0
LINE
8
BLACK
6
CONTINUOUS
10
1.36941
20
0.750039
11
1.36941
21
0.70378
0
LINE
8
BLACK
6
CONTINUOUS
10
1.36941
20
0.70378
11
1.36896
21
0.70152
0
LINE
8
BLACK
6
CONTINUOUS
10
1.36896
20
0.70152
11
1.36768
21
0.699604
0
LINE
8
BLACK
6
CONTINUOUS
10
1.36768
20
0.699604
11
1.36576
21
0.698324
0
LINE
8
BLACK
6
CONTINUOUS
10
1.36576
20
0.698324
11
1.3635
21
0.697874
0
LINE
8
BLACK
6
CONTINUOUS
10
1.3635
20
0.697874
11
1.35169
21
0.697874
0
LINE
8
BLACK
6
CONTINUOUS
10
1.35169
20
0.697874
11
1.34943
21
0.698324
0
LINE
8
BLACK
6
CONTINUOUS
10
1.34943
20
0.698324
11
1.34752
21
0.699604
0
LINE
8
BLACK
6
CONTINUOUS
10
1.34752
20
0.699604
11
1.34624
21
0.70152
0
LINE
8
BLACK
6
CONTINUOUS
10
1.34624
20
0.70152
11
1.34579
21
0.70378
0
LINE
8
BLACK
6
CONTINUOUS
10
1.34579
20
0.70378
11
1.34579
21
0.750039
0
LINE
8
BLACK
6
CONTINUOUS
10
1.34579
20
0.750039
11
1.34624
21
0.752299
0
LINE
8
BLACK
6
CONTINUOUS
10
1.34624
20
0.752299
11
1.34752
21
0.754215
0
LINE
8
BLACK
6
CONTINUOUS
10
1.34752
20
0.754215
11
1.34943
21
0.755495
0
LINE
8
BLACK
6
CONTINUOUS
10
1.34943
20
0.755495
11
1.35169
21
0.755945
0
LINE
8
BLACK
6
CONTINUOUS
10
1.35169
20
0.755945
11
1.3635
21
0.755945
0
LINE
8
BLACK
6
CONTINUOUS
10
1.3635
20
0.755945
11
1.36576
21
0.755495
0
LINE
8
BLACK
6
CONTINUOUS
10
1.44057
20
0.755495
11
1.44248
21
0.754215
0
LINE
8
BLACK
6
CONTINUOUS
10
1.44248
20
0.754215
11
1.44376
21
0.752299
0
LINE
8
BLACK
6
CONTINUOUS
10
1.44376
20
0.752299
11
1.44421
21
0.750039
0
LINE
8
BLACK
6
CONTINUOUS
10
1.44421
20
0.750039
11
1.44421
21
0.70378
0
LINE
8
BLACK
6
CONTINUOUS
10
1.44421
20
0.70378
11
1.44376
21
0.70152
0
LINE
8
BLACK
6
CONTINUOUS
10
1.44376
20
0.70152
11
1.44248
21
0.699604
0
LINE
8
BLACK
6
CONTINUOUS
10
1.44248
20
0.699604
11
1.44057
21
0.698324
0
LINE
8
BLACK
6
CONTINUOUS
10
1.44057
20
0.698324
11
1.43831
21
0.697874
0
LINE
8
BLACK
6
CONTINUOUS
10
1.43831
20
0.697874
11
1.4265
21
0.697874
0
LINE
8
BLACK
6
CONTINUOUS
10
1.4265
20
0.697874
11
1.42424
21
0.698324
0
LINE
8
BLACK
6
CONTINUOUS
10
1.42424
20
0.698324
11
1.42232
21
0.699604
0
LINE
8
BLACK
6
CONTINUOUS
10
1.42232
20
0.699604
11
1.42104
21
0.70152
0
LINE
8
BLACK
6
CONTINUOUS
10
1.42104
20
0.70152
11
1.42059
21
0.70378
0
LINE
8
BLACK
6
CONTINUOUS
10
1.42059
20
0.70378
11
1.42059
21
0.750039
0
LINE
8
BLACK
6
CONTINUOUS
10
1.42059
20
0.750039
11
1.42104
21
0.752299
0
LINE
8
BLACK
6
CONTINUOUS
10
1.42104
20
0.752299
11
1.42232
21
0.754215
0
LINE
8
BLACK
6
CONTINUOUS
10
1.42232
20
0.754215
11
1.42424
21
0.755495
0
LINE
8
BLACK
6
CONTINUOUS
10
1.42424
20
0.755495
11
1.4265
21
0.755945
0
LINE
8
BLACK
6
CONTINUOUS
10
1.4265
20
0.755945
11
1.43831
21
0.755945
0
LINE
8
BLACK
6
CONTINUOUS
10
1.43831
20
0.755945
11
1.44057
21
0.755495
0
LINE
8
BLACK
6
CONTINUOUS
10
0.681483
20
0.752243
11
0.684676
21
0.750109
0
LINE
8
BLACK
6
CONTINUOUS
10
0.684676
20
0.750109
11
0.68681
21
0.746916
0
LINE
8
BLACK
6
CONTINUOUS
10
0.68681
20
0.746916
11
0.687559
21
0.74315
0
LINE
8
BLACK
6
CONTINUOUS
10
0.687559
20
0.74315
11
0.687559
21
0.717559
0
LINE
8
BLACK
6
CONTINUOUS
10
0.687559
20
0.717559
11
0.68681
21
0.713792
0
LINE
8
BLACK
6
CONTINUOUS
10
0.68681
20
0.713792
11
0.684676
21
0.710599
0
LINE
8
BLACK
6
CONTINUOUS
10
0.684676
20
0.710599
11
0.681483
21
0.708466
0
LINE
8
BLACK
6
CONTINUOUS
10
0.681483
20
0.708466
11
0.677717
21
0.707717
0
LINE
8
BLACK
6
CONTINUOUS
10
0.677717
20
0.707717
11
0.642283
21
0.707717
0
LINE
8
BLACK
6
CONTINUOUS
10
0.642283
20
0.707717
11
0.638517
21
0.708466
0
LINE
8
BLACK
6
CONTINUOUS
10
0.638517
20
0.708466
11
0.635324
21
0.710599
0
LINE
8
BLACK
6
CONTINUOUS
10
0.635324
20
0.710599
11
0.63319
21
0.713792
0
LINE
8
BLACK
6
CONTINUOUS
10
0.63319
20
0.713792
11
0.632441
21
0.717559
0
LINE
8
BLACK
6
CONTINUOUS
10
0.632441
20
0.717559
11
0.632441
21
0.74315
0
LINE
8
BLACK
6
CONTINUOUS
10
0.632441
20
0.74315
11
0.63319
21
0.746916
0
LINE
8
BLACK
6
CONTINUOUS
10
0.63319
20
0.746916
11
0.635324
21
0.750109
0
LINE
8
BLACK
6
CONTINUOUS
10
0.635324
20
0.750109
11
0.638517
21
0.752243
0
LINE
8
BLACK
6
CONTINUOUS
10
0.638517
20
0.752243
11
0.642283
21
0.752992
0
LINE
8
BLACK
6
CONTINUOUS
10
0.642283
20
0.752992
11
0.677717
21
0.752992
0
LINE
8
BLACK
6
CONTINUOUS
10
0.677717
20
0.752992
11
0.681483
21
0.752243
0
LINE
8
BLACK
6
CONTINUOUS
10
0.592467
20
0.750156
11
0.595661
21
0.748023
0
LINE
8
BLACK
6
CONTINUOUS
10
0.595661
20
0.748023
11
0.597794
21
0.74483
0
LINE
8
BLACK
6
CONTINUOUS
10
0.597794
20
0.74483
11
0.598543
21
0.741063
0
LINE
8
BLACK
6
CONTINUOUS
10
0.598543
20
0.741063
11
0.598543
21
0.721378
0
LINE
8
BLACK
6
CONTINUOUS
10
0.598543
20
0.721378
11
0.597794
21
0.717611
0
LINE
8
BLACK
6
CONTINUOUS
10
0.597794
20
0.717611
11
0.595661
21
0.714418
0
LINE
8
BLACK
6
CONTINUOUS
10
0.595661
20
0.714418
11
0.592467
21
0.712285
0
LINE
8
BLACK
6
CONTINUOUS
10
0.592467
20
0.712285
11
0.588701
21
0.711535
0
LINE
8
BLACK
6
CONTINUOUS
10
0.588701
20
0.711535
11
0.551299
21
0.711535
0
LINE
8
BLACK
6
CONTINUOUS
10
0.551299
20
0.711535
11
0.547533
21
0.712285
0
LINE
8
BLACK
6
CONTINUOUS
10
0.547533
20
0.712285
11
0.544339
21
0.714418
0
LINE
8
BLACK
6
CONTINUOUS
10
0.544339
20
0.714418
11
0.542206
21
0.717611
0
LINE
8
BLACK
6
CONTINUOUS
10
0.542206
20
0.717611
11
0.541457
21
0.721378
0
LINE
8
BLACK
6
CONTINUOUS
10
0.541457
20
0.721378
11
0.541457
21
0.741063
0
LINE
8
BLACK
6
CONTINUOUS
10
0.541457
20
0.741063
11
0.542206
21
0.74483
0
LINE
8
BLACK
6
CONTINUOUS
10
0.542206
20
0.74483
11
0.544339
21
0.748023
0
LINE
8
BLACK
6
CONTINUOUS
10
0.544339
20
0.748023
11
0.547533
21
0.750156
0
LINE
8
BLACK
6
CONTINUOUS
10
0.547533
20
0.750156
11
0.551299
21
0.750906
0
LINE
8
BLACK
6
CONTINUOUS
10
0.551299
20
0.750906
11
0.588701
21
0.750906
0
LINE
8
BLACK
6
CONTINUOUS
10
0.588701
20
0.750906
11
0.592467
21
0.750156
0
LINE
8
BLACK
6
CONTINUOUS
10
1.08849
20
0.8324
11
1.09168
21
0.830267
0
LINE
8
BLACK
6
CONTINUOUS
10
1.09168
20
0.830267
11
1.09382
21
0.827074
0
LINE
8
BLACK
6
CONTINUOUS
10
1.09382
20
0.827074
11
1.09457
21
0.823307
0
LINE
8
BLACK
6
CONTINUOUS
10
1.09457
20
0.823307
11
1.09457
21
0.736693
0
LINE
8
BLACK
6
CONTINUOUS
10
1.09457
20
0.736693
11
1.09382
21
0.732926
0
LINE
8
BLACK
6
CONTINUOUS
10
1.09382
20
0.732926
11
1.09168
21
0.729733
0
LINE
8
BLACK
6
CONTINUOUS
10
1.09168
20
0.729733
11
1.08849
21
0.7276
0
LINE
8
BLACK
6
CONTINUOUS
10
1.08849
20
0.7276
11
1.08472
21
0.72685
0
LINE
8
BLACK
6
CONTINUOUS
10
1.08472
20
0.72685
11
1.05913
21
0.72685
0
LINE
8
BLACK
6
CONTINUOUS
10
1.05913
20
0.72685
11
1.05537
21
0.7276
0
LINE
8
BLACK
6
CONTINUOUS
10
1.05537
20
0.7276
11
1.05217
21
0.729733
0
LINE
8
BLACK
6
CONTINUOUS
10
1.05217
20
0.729733
11
1.05004
21
0.732926
0
LINE
8
BLACK
6
CONTINUOUS
10
1.05004
20
0.732926
11
1.04929
21
0.736693
0
LINE
8
BLACK
6
CONTINUOUS
10
1.04929
20
0.736693
11
1.04929
21
0.823307
0
LINE
8
BLACK
6
CONTINUOUS
10
1.04929
20
0.823307
11
1.05004
21
0.827074
0
LINE
8
BLACK
6
CONTINUOUS
10
1.05004
20
0.827074
11
1.05217
21
0.830267
0
LINE
8
BLACK
6
CONTINUOUS
10
1.05217
20
0.830267
11
1.05537
21
0.8324
0
LINE
8
BLACK
6
CONTINUOUS
10
1.05537
20
0.8324
11
1.05913
21
0.83315
0
LINE
8
BLACK
6
CONTINUOUS
10
1.05913
20
0.83315
11
1.08472
21
0.83315
0
LINE
8
BLACK
6
CONTINUOUS
10
1.08472
20
0.83315
11
1.08849
21
0.8324
0
LINE
8
BLACK
6
CONTINUOUS
10
1.20463
20
0.8324
11
1.20783
21
0.830267
0
LINE
8
BLACK
6
CONTINUOUS
10
1.20783
20
0.830267
11
1.20996
21
0.827074
0
LINE
8
BLACK
6
CONTINUOUS
10
1.20996
20
0.827074
11
1.21071
21
0.823307
0
LINE
8
BLACK
6
CONTINUOUS
10
1.21071
20
0.823307
11
1.21071
21
0.736693
0
LINE
8
BLACK
6
CONTINUOUS
10
1.21071
20
0.736693
11
1.20996
21
0.732926
0
LINE
8
BLACK
6
CONTINUOUS
10
1.20996
20
0.732926
11
1.20783
21
0.729733
0
LINE
8
BLACK
6
CONTINUOUS
10
1.20783
20
0.729733
11
1.20463
21
0.7276
0
LINE
8
BLACK
6
CONTINUOUS
10
1.20463
20
0.7276
11
1.20087
21
0.72685
0
LINE
8
BLACK
6
CONTINUOUS
10
1.20087
20
0.72685
11
1.17528
21
0.72685
0
LINE
8
BLACK
6
CONTINUOUS
10
1.17528
20
0.72685
11
1.17151
21
0.7276
0
LINE
8
BLACK
6
CONTINUOUS
10
1.17151
20
0.7276
11
1.16832
21
0.729733
0
LINE
8
BLACK
6
CONTINUOUS
10
1.16832
20
0.729733
11
1.16618
21
0.732926
0
LINE
8
BLACK
6
CONTINUOUS
10
1.16618
20
0.732926
11
1.16543
21
0.736693
0
LINE
8
BLACK
6
CONTINUOUS
10
1.16543
20
0.736693
11
1.16543
21
0.823307
0
LINE
8
BLACK
6
CONTINUOUS
10
1.16543
20
0.823307
11
1.16618
21
0.827074
0
LINE
8
BLACK
6
CONTINUOUS
10
1.16618
20
0.827074
11
1.16832
21
0.830267
0
LINE
8
BLACK
6
CONTINUOUS
10
1.16832
20
0.830267
11
1.17151
21
0.8324
0
LINE
8
BLACK
6
CONTINUOUS
10
1.17151
20
0.8324
11
1.17528
21
0.83315
0
LINE
8
BLACK
6
CONTINUOUS
10
1.17528
20
0.83315
11
1.20087
21
0.83315
0
LINE
8
BLACK
6
CONTINUOUS
10
1.20087
20
0.83315
11
1.20463
21
0.8324
0
LINE
8
BLACK
6
CONTINUOUS
10
1.55747
20
0.766337
11
1.56066
21
0.764204
0
LINE
8
BLACK
6
CONTINUOUS
10
1.56066
20
0.764204
11
1.56279
21
0.761011
0
LINE
8
BLACK
6
CONTINUOUS
10
1.56279
20
0.761011
11
1.56354
21
0.757244
0
LINE
8
BLACK
6
CONTINUOUS
10
1.56354
20
0.757244
11
1.56354
21
0.737559
0
LINE
8
BLACK
6
CONTINUOUS
10
1.56354
20
0.737559
11
1.56279
21
0.733792
0
LINE
8
BLACK
6
CONTINUOUS
10
1.56279
20
0.733792
11
1.56066
21
0.730599
0
LINE
8
BLACK
6
CONTINUOUS
10
1.56066
20
0.730599
11
1.55747
21
0.728466
0
LINE
8
BLACK
6
CONTINUOUS
10
1.55747
20
0.728466
11
1.5537
21
0.727717
0
LINE
8
BLACK
6
CONTINUOUS
10
1.5537
20
0.727717
11
1.5163
21
0.727717
0
LINE
8
BLACK
6
CONTINUOUS
10
1.5163
20
0.727717
11
1.51253
21
0.728466
0
LINE
8
BLACK
6
CONTINUOUS
10
1.51253
20
0.728466
11
1.50934
21
0.730599
0
LINE
8
BLACK
6
CONTINUOUS
10
1.50934
20
0.730599
11
1.50721
21
0.733792
0
LINE
8
BLACK
6
CONTINUOUS
10
1.50721
20
0.733792
11
1.50646
21
0.737559
0
LINE
8
BLACK
6
CONTINUOUS
10
1.50646
20
0.737559
11
1.50646
21
0.757244
0
LINE
8
BLACK
6
CONTINUOUS
10
1.50646
20
0.757244
11
1.50721
21
0.761011
0
LINE
8
BLACK
6
CONTINUOUS
10
1.50721
20
0.761011
11
1.50934
21
0.764204
0
LINE
8
BLACK
6
CONTINUOUS
10
1.50934
20
0.764204
11
1.51253
21
0.766337
0
LINE
8
BLACK
6
CONTINUOUS
10
1.51253
20
0.766337
11
1.5163
21
0.767087
0
LINE
8
BLACK
6
CONTINUOUS
10
1.5163
20
0.767087
11
1.5537
21
0.767087
0
LINE
8
BLACK
6
CONTINUOUS
10
1.5537
20
0.767087
11
1.55747
21
0.766337
0
LINE
8
BLACK
6
CONTINUOUS
10
1.29148
20
0.775353
11
1.29468
21
0.77322
0
LINE
8
BLACK
6
CONTINUOUS
10
1.29468
20
0.77322
11
1.29681
21
0.770026
0
LINE
8
BLACK
6
CONTINUOUS
10
1.29681
20
0.770026
11
1.29756
21
0.76626
0
LINE
8
BLACK
6
CONTINUOUS
10
1.29756
20
0.76626
11
1.29756
21
0.745591
0
LINE
8
BLACK
6
CONTINUOUS
10
1.29756
20
0.745591
11
1.29681
21
0.741824
0
LINE
8
BLACK
6
CONTINUOUS
10
1.29681
20
0.741824
11
1.29468
21
0.738631
0
LINE
8
BLACK
6
CONTINUOUS
10
1.29468
20
0.738631
11
1.29148
21
0.736497
0
LINE
8
BLACK
6
CONTINUOUS
10
1.29148
20
0.736497
11
1.28772
21
0.735748
0
LINE
8
BLACK
6
CONTINUOUS
10
1.28772
20
0.735748
11
1.25228
21
0.735748
0
LINE
8
BLACK
6
CONTINUOUS
10
1.25228
20
0.735748
11
1.24852
21
0.736497
0
LINE
8
BLACK
6
CONTINUOUS
10
1.24852
20
0.736497
11
1.24532
21
0.738631
0
LINE
8
BLACK
6
CONTINUOUS
10
1.24532
20
0.738631
11
1.24319
21
0.741824
0
LINE
8
BLACK
6
CONTINUOUS
10
1.24319
20
0.741824
11
1.24244
21
0.745591
0
LINE
8
BLACK
6
CONTINUOUS
10
1.24244
20
0.745591
11
1.24244
21
0.76626
0
LINE
8
BLACK
6
CONTINUOUS
10
1.24244
20
0.76626
11
1.24319
21
0.770026
0
LINE
8
BLACK
6
CONTINUOUS
10
1.24319
20
0.770026
11
1.24532
21
0.77322
0
LINE
8
BLACK
6
CONTINUOUS
10
1.24532
20
0.77322
11
1.24852
21
0.775353
0
LINE
8
BLACK
6
CONTINUOUS
10
1.24852
20
0.775353
11
1.25228
21
0.776102
0
LINE
8
BLACK
6
CONTINUOUS
10
1.25228
20
0.776102
11
1.28772
21
0.776102
0
LINE
8
BLACK
6
CONTINUOUS
10
1.28772
20
0.776102
11
1.29148
21
0.775353
0
LINE
8
BLACK
6
CONTINUOUS
10
1.6605
20
0.799959
11
1.66369
21
0.797826
0
LINE
8
BLACK
6
CONTINUOUS
10
1.66369
20
0.797826
11
1.66583
21
0.794633
0
LINE
8
BLACK
6
CONTINUOUS
10
1.66583
20
0.794633
11
1.66657
21
0.790866
0
LINE
8
BLACK
6
CONTINUOUS
10
1.66657
20
0.790866
11
1.66657
21
0.755433
0
LINE
8
BLACK
6
CONTINUOUS
10
1.66657
20
0.755433
11
1.66583
21
0.751666
0
LINE
8
BLACK
6
CONTINUOUS
10
1.66583
20
0.751666
11
1.66369
21
0.748473
0
LINE
8
BLACK
6
CONTINUOUS
10
1.66369
20
0.748473
11
1.6605
21
0.74634
0
LINE
8
BLACK
6
CONTINUOUS
10
1.6605
20
0.74634
11
1.65673
21
0.745591
0
LINE
8
BLACK
6
CONTINUOUS
10
1.65673
20
0.745591
11
1.62327
21
0.745591
0
LINE
8
BLACK
6
CONTINUOUS
10
1.62327
20
0.745591
11
1.6195
21
0.74634
0
LINE
8
BLACK
6
CONTINUOUS
10
1.6195
20
0.74634
11
1.61631
21
0.748473
0
LINE
8
BLACK
6
CONTINUOUS
10
1.61631
20
0.748473
11
1.61417
21
0.751666
0
LINE
8
BLACK
6
CONTINUOUS
10
1.61417
20
0.751666
11
1.61343
21
0.755433
0
LINE
8
BLACK
6
CONTINUOUS
10
1.61343
20
0.755433
11
1.61343
21
0.790866
0
LINE
8
BLACK
6
CONTINUOUS
10
1.61343
20
0.790866
11
1.61417
21
0.794633
0
LINE
8
BLACK
6
CONTINUOUS
10
1.61417
20
0.794633
11
1.61631
21
0.797826
0
LINE
8
BLACK
6
CONTINUOUS
10
1.61631
20
0.797826
11
1.6195
21
0.799959
0
LINE
8
BLACK
6
CONTINUOUS
10
1.6195
20
0.799959
11
1.62327
21
0.800709
0
LINE
8
BLACK
6
CONTINUOUS
10
1.62327
20
0.800709
11
1.65673
21
0.800709
0
LINE
8
BLACK
6
CONTINUOUS
10
1.65673
20
0.800709
11
1.6605
21
0.799959
0
LINE
8
BLACK
6
CONTINUOUS
10
0.505531
20
0.825421
11
0.435934
21
0.755824
0
LINE
8
BLACK
6
CONTINUOUS
10
0.435934
20
0.755824
11
0.385824
21
0.805934
0
LINE
8
BLACK
6
CONTINUOUS
10
0.385824
20
0.805934
11
0.455421
21
0.875531
0
LINE
8
BLACK
6
CONTINUOUS
10
0.455421
20
0.875531
11
0.505531
21
0.825421
0
LINE
8
BLACK
6
CONTINUOUS
10
1.77621
20
0.817794
11
1.7794
21
0.815661
0
LINE
8
BLACK
6
CONTINUOUS
10
1.7794
20
0.815661
11
1.78153
21
0.812467
0
LINE
8
BLACK
6
CONTINUOUS
10
1.78153
20
0.812467
11
1.78228
21
0.808701
0
LINE
8
BLACK
6
CONTINUOUS
10
1.78228
20
0.808701
11
1.78228
21
0.771299
0
LINE
8
BLACK
6
CONTINUOUS
10
1.78228
20
0.771299
11
1.78153
21
0.767533
0
LINE
8
BLACK
6
CONTINUOUS
10
1.78153
20
0.767533
11
1.7794
21
0.764339
0
LINE
8
BLACK
6
CONTINUOUS
10
1.7794
20
0.764339
11
1.77621
21
0.762206
0
LINE
8
BLACK
6
CONTINUOUS
10
1.77621
20
0.762206
11
1.77244
21
0.761457
0
LINE
8
BLACK
6
CONTINUOUS
10
1.77244
20
0.761457
11
1.75276
21
0.761457
0
LINE
8
BLACK
6
CONTINUOUS
10
1.75276
20
0.761457
11
1.74899
21
0.762206
0
LINE
8
BLACK
6
CONTINUOUS
10
1.74899
20
0.762206
11
1.7458
21
0.764339
0
LINE
8
BLACK
6
CONTINUOUS
10
1.7458
20
0.764339
11
1.74366
21
0.767533
0
LINE
8
BLACK
6
CONTINUOUS
10
1.74366
20
0.767533
11
1.74291
21
0.771299
0
LINE
8
BLACK
6
CONTINUOUS
10
1.74291
20
0.771299
11
1.74291
21
0.808701
0
LINE
8
BLACK
6
CONTINUOUS
10
1.74291
20
0.808701
11
1.74366
21
0.812467
0
LINE
8
BLACK
6
CONTINUOUS
10
1.74366
20
0.812467
11
1.7458
21
0.815661
0
LINE
8
BLACK
6
CONTINUOUS
10
1.7458
20
0.815661
11
1.74899
21
0.817794
0
LINE
8
BLACK
6
CONTINUOUS
10
1.74899
20
0.817794
11
1.75276
21
0.818543
0
LINE
8
BLACK
6
CONTINUOUS
10
1.75276
20
0.818543
11
1.77244
21
0.818543
0
LINE
8
BLACK
6
CONTINUOUS
10
1.77244
20
0.818543
11
1.77621
21
0.817794
0
LINE
8
BLACK
6
CONTINUOUS
10
1.85101
20
0.817794
11
1.8542
21
0.815661
0
LINE
8
BLACK
6
CONTINUOUS
10
1.8542
20
0.815661
11
1.85634
21
0.812467
0
LINE
8
BLACK
6
CONTINUOUS
10
1.85634
20
0.812467
11
1.85709
21
0.808701
0
LINE
8
BLACK
6
CONTINUOUS
10
1.85709
20
0.808701
11
1.85709
21
0.771299
0
LINE
8
BLACK
6
CONTINUOUS
10
1.85709
20
0.771299
11
1.85634
21
0.767533
0
LINE
8
BLACK
6
CONTINUOUS
10
1.85634
20
0.767533
11
1.8542
21
0.764339
0
LINE
8
BLACK
6
CONTINUOUS
10
1.8542
20
0.764339
11
1.85101
21
0.762206
0
LINE
8
BLACK
6
CONTINUOUS
10
1.85101
20
0.762206
11
1.84724
21
0.761457
0
LINE
8
BLACK
6
CONTINUOUS
10
1.84724
20
0.761457
11
1.82756
21
0.761457
0
LINE
8
BLACK
6
CONTINUOUS
10
1.82756
20
0.761457
11
1.82379
21
0.762206
0
LINE
8
BLACK
6
CONTINUOUS
10
1.82379
20
0.762206
11
1.8206
21
0.764339
0
LINE
8
BLACK
6
CONTINUOUS
10
1.8206
20
0.764339
11
1.81847
21
0.767533
0
LINE
8
BLACK
6
CONTINUOUS
10
1.81847
20
0.767533
11
1.81772
21
0.771299
0
LINE
8
BLACK
6
CONTINUOUS
10
1.81772
20
0.771299
11
1.81772
21
0.808701
0
LINE
8
BLACK
6
CONTINUOUS
10
1.81772
20
0.808701
11
1.81847
21
0.812467
0
LINE
8
BLACK
6
CONTINUOUS
10
1.81847
20
0.812467
11
1.8206
21
0.815661
0
LINE
8
BLACK
6
CONTINUOUS
10
1.8206
20
0.815661
11
1.82379
21
0.817794
0
LINE
8
BLACK
6
CONTINUOUS
10
1.82379
20
0.817794
11
1.82756
21
0.818543
0
LINE
8
BLACK
6
CONTINUOUS
10
1.82756
20
0.818543
11
1.84724
21
0.818543
0
LINE
8
BLACK
6
CONTINUOUS
10
1.84724
20
0.818543
11
1.85101
21
0.817794
0
LINE
8
BLACK
6
CONTINUOUS
10
0.898334
20
0.825826
11
0.901527
21
0.823692
0
LINE
8
BLACK
6
CONTINUOUS
10
0.901527
20
0.823692
11
0.90366
21
0.820499
0
LINE
8
BLACK
6
CONTINUOUS
10
0.90366
20
0.820499
11
0.904409
21
0.816732
0
LINE
8
BLACK
6
CONTINUOUS
10
0.904409
20
0.816732
11
0.904409
21
0.783268
0
LINE
8
BLACK
6
CONTINUOUS
10
0.904409
20
0.783268
11
0.90366
21
0.779501
0
LINE
8
BLACK
6
CONTINUOUS
10
0.90366
20
0.779501
11
0.901527
21
0.776308
0
LINE
8
BLACK
6
CONTINUOUS
10
0.901527
20
0.776308
11
0.898334
21
0.774174
0
LINE
8
BLACK
6
CONTINUOUS
10
0.898334
20
0.774174
11
0.894567
21
0.773425
0
LINE
8
BLACK
6
CONTINUOUS
10
0.894567
20
0.773425
11
0.859134
21
0.773425
0
LINE
8
BLACK
6
CONTINUOUS
10
0.859134
20
0.773425
11
0.855367
21
0.774174
0
LINE
8
BLACK
6
CONTINUOUS
10
0.855367
20
0.774174
11
0.852174
21
0.776308
0
LINE
8
BLACK
6
CONTINUOUS
10
0.852174
20
0.776308
11
0.850041
21
0.779501
0
LINE
8
BLACK
6
CONTINUOUS
10
0.850041
20
0.779501
11
0.849291
21
0.783268
0
LINE
8
BLACK
6
CONTINUOUS
10
0.849291
20
0.783268
11
0.849291
21
0.816732
0
LINE
8
BLACK
6
CONTINUOUS
10
0.849291
20
0.816732
11
0.850041
21
0.820499
0
LINE
8
BLACK
6
CONTINUOUS
10
0.850041
20
0.820499
11
0.852174
21
0.823692
0
LINE
8
BLACK
6
CONTINUOUS
10
0.852174
20
0.823692
11
0.855367
21
0.825826
0
LINE
8
BLACK
6
CONTINUOUS
10
0.855367
20
0.825826
11
0.859134
21
0.826575
0
LINE
8
BLACK
6
CONTINUOUS
10
0.859134
20
0.826575
11
0.894567
21
0.826575
0
LINE
8
BLACK
6
CONTINUOUS
10
0.894567
20
0.826575
11
0.898334
21
0.825826
0
LINE
8
BLACK
6
CONTINUOUS
10
1.00463
20
0.825826
11
1.00783
21
0.823692
0
LINE
8
BLACK
6
CONTINUOUS
10
1.00783
20
0.823692
11
1.00996
21
0.820499
0
LINE
8
BLACK
6
CONTINUOUS
10
1.00996
20
0.820499
11
1.01071
21
0.816732
0
LINE
8
BLACK
6
CONTINUOUS
10
1.01071
20
0.816732
11
1.01071
21
0.783268
0
LINE
8
BLACK
6
CONTINUOUS
10
1.01071
20
0.783268
11
1.00996
21
0.779501
0
LINE
8
BLACK
6
CONTINUOUS
10
1.00996
20
0.779501
11
1.00783
21
0.776308
0
LINE
8
BLACK
6
CONTINUOUS
10
1.00783
20
0.776308
11
1.00463
21
0.774174
0
LINE
8
BLACK
6
CONTINUOUS
10
1.00463
20
0.774174
11
1.00087
21
0.773425
0
LINE
8
BLACK
6
CONTINUOUS
10
1.00087
20
0.773425
11
0.965433
21
0.773425
0
LINE
8
BLACK
6
CONTINUOUS
10
0.965433
20
0.773425
11
0.961666
21
0.774174
0
LINE
8
BLACK
6
CONTINUOUS
10
0.961666
20
0.774174
11
0.958473
21
0.776308
0
LINE
8
BLACK
6
CONTINUOUS
10
0.958473
20
0.776308
11
0.95634
21
0.779501
0
LINE
8
BLACK
6
CONTINUOUS
10
0.95634
20
0.779501
11
0.955591
21
0.783268
0
LINE
8
BLACK
6
CONTINUOUS
10
0.955591
20
0.783268
11
0.955591
21
0.816732
0
LINE
8
BLACK
6
CONTINUOUS
10
0.955591
20
0.816732
11
0.95634
21
0.820499
0
LINE
8
BLACK
6
CONTINUOUS
10
0.95634
20
0.820499
11
0.958473
21
0.823692
0
LINE
8
BLACK
6
CONTINUOUS
10
0.958473
20
0.823692
11
0.961666
21
0.825826
0
LINE
8
BLACK
6
CONTINUOUS
10
0.961666
20
0.825826
11
0.965433
21
0.826575
0
LINE
8
BLACK
6
CONTINUOUS
10
0.965433
20
0.826575
11
1.00087
21
0.826575
0
LINE
8
BLACK
6
CONTINUOUS
10
1.00087
20
0.826575
11
1.00463
21
0.825826
0
LINE
8
BLACK
6
CONTINUOUS
10
0.565764
20
0.84085
11
0.56768
21
0.83957
0
LINE
8
BLACK
6
CONTINUOUS
10
0.56768
20
0.83957
11
0.56896
21
0.837654
0
LINE
8
BLACK
6
CONTINUOUS
10
0.56896
20
0.837654
11
0.569409
21
0.835394
0
LINE
8
BLACK
6
CONTINUOUS
10
0.569409
20
0.835394
11
0.569409
21
0.795039
0
LINE
8
BLACK
6
CONTINUOUS
10
0.569409
20
0.795039
11
0.56896
21
0.792779
0
LINE
8
BLACK
6
CONTINUOUS
10
0.56896
20
0.792779
11
0.56768
21
0.790864
0
LINE
8
BLACK
6
CONTINUOUS
10
0.56768
20
0.790864
11
0.565764
21
0.789583
0
LINE
8
BLACK
6
CONTINUOUS
10
0.565764
20
0.789583
11
0.563504
21
0.789134
0
LINE
8
BLACK
6
CONTINUOUS
10
0.563504
20
0.789134
11
0.551693
21
0.789134
0
LINE
8
BLACK
6
CONTINUOUS
10
0.551693
20
0.789134
11
0.549433
21
0.789583
0
LINE
8
BLACK
6
CONTINUOUS
10
0.549433
20
0.789583
11
0.547517
21
0.790864
0
LINE
8
BLACK
6
CONTINUOUS
10
0.547517
20
0.790864
11
0.546237
21
0.792779
0
LINE
8
BLACK
6
CONTINUOUS
10
0.546237
20
0.792779
11
0.545787
21
0.795039
0
LINE
8
BLACK
6
CONTINUOUS
10
0.545787
20
0.795039
11
0.545787
21
0.835394
0
LINE
8
BLACK
6
CONTINUOUS
10
0.545787
20
0.835394
11
0.546237
21
0.837654
0
LINE
8
BLACK
6
CONTINUOUS
10
0.546237
20
0.837654
11
0.547517
21
0.83957
0
LINE
8
BLACK
6
CONTINUOUS
10
0.547517
20
0.83957
11
0.549433
21
0.84085
0
LINE
8
BLACK
6
CONTINUOUS
10
0.549433
20
0.84085
11
0.551693
21
0.841299
0
LINE
8
BLACK
6
CONTINUOUS
10
0.551693
20
0.841299
11
0.563504
21
0.841299
0
LINE
8
BLACK
6
CONTINUOUS
10
0.563504
20
0.841299
11
0.565764
21
0.84085
0
LINE
8
BLACK
6
CONTINUOUS
10
0.603165
20
0.84085
11
0.605081
21
0.83957
0
LINE
8
BLACK
6
CONTINUOUS
10
0.605081
20
0.83957
11
0.606361
21
0.837654
0
LINE
8
BLACK
6
CONTINUOUS
10
0.606361
20
0.837654
11
0.606811
21
0.835394
0
LINE
8
BLACK
6
CONTINUOUS
10
0.606811
20
0.835394
11
0.606811
21
0.795039
0
LINE
8
BLACK
6
CONTINUOUS
10
0.606811
20
0.795039
11
0.606361
21
0.792779
0
LINE
8
BLACK
6
CONTINUOUS
10
0.606361
20
0.792779
11
0.605081
21
0.790864
0
LINE
8
BLACK
6
CONTINUOUS
10
0.605081
20
0.790864
11
0.603165
21
0.789583
0
LINE
8
BLACK
6
CONTINUOUS
10
0.603165
20
0.789583
11
0.600906
21
0.789134
0
LINE
8
BLACK
6
CONTINUOUS
10
0.600906
20
0.789134
11
0.589094
21
0.789134
0
LINE
8
BLACK
6
CONTINUOUS
10
0.589094
20
0.789134
11
0.586835
21
0.789583
0
LINE
8
BLACK
6
CONTINUOUS
10
0.586835
20
0.789583
11
0.584919
21
0.790864
0
LINE
8
BLACK
6
CONTINUOUS
10
0.584919
20
0.790864
11
0.583639
21
0.792779
0
LINE
8
BLACK
6
CONTINUOUS
10
0.583639
20
0.792779
11
0.583189
21
0.795039
0
LINE
8
BLACK
6
CONTINUOUS
10
0.583189
20
0.795039
11
0.583189
21
0.835394
0
LINE
8
BLACK
6
CONTINUOUS
10
0.583189
20
0.835394
11
0.583639
21
0.837654
0
LINE
8
BLACK
6
CONTINUOUS
10
0.583639
20
0.837654
11
0.584919
21
0.83957
0
LINE
8
BLACK
6
CONTINUOUS
10
0.584919
20
0.83957
11
0.586835
21
0.84085
0
LINE
8
BLACK
6
CONTINUOUS
10
0.586835
20
0.84085
11
0.589094
21
0.841299
0
LINE
8
BLACK
6
CONTINUOUS
10
0.589094
20
0.841299
11
0.600906
21
0.841299
0
LINE
8
BLACK
6
CONTINUOUS
10
0.600906
20
0.841299
11
0.603165
21
0.84085
0
LINE
8
BLACK
6
CONTINUOUS
10
0.640567
20
0.84085
11
0.642483
21
0.83957
0
LINE
8
BLACK
6
CONTINUOUS
10
0.642483
20
0.83957
11
0.643763
21
0.837654
0
LINE
8
BLACK
6
CONTINUOUS
10
0.643763
20
0.837654
11
0.644213
21
0.835394
0
LINE
8
BLACK
6
CONTINUOUS
10
0.644213
20
0.835394
11
0.644213
21
0.795039
0
LINE
8
BLACK
6
CONTINUOUS
10
0.644213
20
0.795039
11
0.643763
21
0.792779
0
LINE
8
BLACK
6
CONTINUOUS
10
0.643763
20
0.792779
11
0.642483
21
0.790864
0
LINE
8
BLACK
6
CONTINUOUS
10
0.642483
20
0.790864
11
0.640567
21
0.789583
0
LINE
8
BLACK
6
CONTINUOUS
10
0.640567
20
0.789583
11
0.638307
21
0.789134
0
LINE
8
BLACK
6
CONTINUOUS
10
0.638307
20
0.789134
11
0.626496
21
0.789134
0
LINE
8
BLACK
6
CONTINUOUS
10
0.626496
20
0.789134
11
0.624236
21
0.789583
0
LINE
8
BLACK
6
CONTINUOUS
10
0.624236
20
0.789583
11
0.62232
21
0.790864
0
LINE
8
BLACK
6
CONTINUOUS
10
0.62232
20
0.790864
11
0.62104
21
0.792779
0
LINE
8
BLACK
6
CONTINUOUS
10
0.62104
20
0.792779
11
0.620591
21
0.795039
0
LINE
8
BLACK
6
CONTINUOUS
10
0.620591
20
0.795039
11
0.620591
21
0.835394
0
LINE
8
BLACK
6
CONTINUOUS
10
0.620591
20
0.835394
11
0.62104
21
0.837654
0
LINE
8
BLACK
6
CONTINUOUS
10
0.62104
20
0.837654
11
0.62232
21
0.83957
0
LINE
8
BLACK
6
CONTINUOUS
10
0.62232
20
0.83957
11
0.624236
21
0.84085
0
LINE
8
BLACK
6
CONTINUOUS
10
0.624236
20
0.84085
11
0.626496
21
0.841299
0
LINE
8
BLACK
6
CONTINUOUS
10
0.626496
20
0.841299
11
0.638307
21
0.841299
0
LINE
8
BLACK
6
CONTINUOUS
10
0.638307
20
0.841299
11
0.640567
21
0.84085
0
LINE
8
BLACK
6
CONTINUOUS
10
0.793701
20
0.807087
11
0.754331
21
0.807087
0
LINE
8
BLACK
6
CONTINUOUS
10
0.754331
20
0.807087
11
0.754331
21
0.956693
0
LINE
8
BLACK
6
CONTINUOUS
10
0.754331
20
0.956693
11
0.793701
21
0.956693
0
LINE
8
BLACK
6
CONTINUOUS
10
0.793701
20
0.956693
11
0.793701
21
0.807087
0
LINE
8
BLACK
6
CONTINUOUS
10
2.04567
20
0.807087
11
2.0063
21
0.807087
0
LINE
8
BLACK
6
CONTINUOUS
10
2.0063
20
0.807087
11
2.0063
21
0.956693
0
LINE
8
BLACK
6
CONTINUOUS
10
2.0063
20
0.956693
11
2.04567
21
0.956693
0
LINE
8
BLACK
6
CONTINUOUS
10
2.04567
20
0.956693
11
2.04567
21
0.807087
0
LINE
8
BLACK
6
CONTINUOUS
10
2.37148
20
0.873503
11
2.37468
21
0.871369
0
LINE
8
BLACK
6
CONTINUOUS
10
2.37468
20
0.871369
11
2.37681
21
0.868176
0
LINE
8
BLACK
6
CONTINUOUS
10
2.37681
20
0.868176
11
2.37756
21
0.864409
0
LINE
8
BLACK
6
CONTINUOUS
10
2.37756
20
0.864409
11
2.37756
21
0.84374
0
LINE
8
BLACK
6
CONTINUOUS
10
2.37756
20
0.84374
11
2.37681
21
0.839974
0
LINE
8
BLACK
6
CONTINUOUS
10
2.37681
20
0.839974
11
2.37468
21
0.83678
0
LINE
8
BLACK
6
CONTINUOUS
10
2.37468
20
0.83678
11
2.37148
21
0.834647
0
LINE
8
BLACK
6
CONTINUOUS
10
2.37148
20
0.834647
11
2.36772
21
0.833898
0
LINE
8
BLACK
6
CONTINUOUS
10
2.36772
20
0.833898
11
2.33228
21
0.833898
0
LINE
8
BLACK
6
CONTINUOUS
10
2.33228
20
0.833898
11
2.32852
21
0.834647
0
LINE
8
BLACK
6
CONTINUOUS
10
2.32852
20
0.834647
11
2.32532
21
0.83678
0
LINE
8
BLACK
6
CONTINUOUS
10
2.32532
20
0.83678
11
2.32319
21
0.839974
0
LINE
8
BLACK
6
CONTINUOUS
10
2.32319
20
0.839974
11
2.32244
21
0.84374
0
LINE
8
BLACK
6
CONTINUOUS
10
2.32244
20
0.84374
11
2.32244
21
0.864409
0
LINE
8
BLACK
6
CONTINUOUS
10
2.32244
20
0.864409
11
2.32319
21
0.868176
0
LINE
8
BLACK
6
CONTINUOUS
10
2.32319
20
0.868176
11
2.32532
21
0.871369
0
LINE
8
BLACK
6
CONTINUOUS
10
2.32532
20
0.871369
11
2.32852
21
0.873503
0
LINE
8
BLACK
6
CONTINUOUS
10
2.32852
20
0.873503
11
2.33228
21
0.874252
0
LINE
8
BLACK
6
CONTINUOUS
10
2.33228
20
0.874252
11
2.36772
21
0.874252
0
LINE
8
BLACK
6
CONTINUOUS
10
2.36772
20
0.874252
11
2.37148
21
0.873503
0
LINE
8
BLACK
6
CONTINUOUS
10
0.911483
20
0.893503
11
0.914676
21
0.891369
0
LINE
8
BLACK
6
CONTINUOUS
10
0.914676
20
0.891369
11
0.91681
21
0.888176
0
LINE
8
BLACK
6
CONTINUOUS
10
0.91681
20
0.888176
11
0.917559
21
0.884409
0
LINE
8
BLACK
6
CONTINUOUS
10
0.917559
20
0.884409
11
0.917559
21
0.86374
0
LINE
8
BLACK
6
CONTINUOUS
10
0.917559
20
0.86374
11
0.91681
21
0.859974
0
LINE
8
BLACK
6
CONTINUOUS
10
0.91681
20
0.859974
11
0.914676
21
0.85678
0
LINE
8
BLACK
6
CONTINUOUS
10
0.914676
20
0.85678
11
0.911483
21
0.854647
0
LINE
8
BLACK
6
CONTINUOUS
10
0.911483
20
0.854647
11
0.907717
21
0.853898
0
LINE
8
BLACK
6
CONTINUOUS
10
0.907717
20
0.853898
11
0.872283
21
0.853898
0
LINE
8
BLACK
6
CONTINUOUS
10
0.872283
20
0.853898
11
0.868517
21
0.854647
0
LINE
8
BLACK
6
CONTINUOUS
10
0.868517
20
0.854647
11
0.865324
21
0.85678
0
LINE
8
BLACK
6
CONTINUOUS
10
0.865324
20
0.85678
11
0.86319
21
0.859974
0
LINE
8
BLACK
6
CONTINUOUS
10
0.86319
20
0.859974
11
0.862441
21
0.86374
0
LINE
8
BLACK
6
CONTINUOUS
10
0.862441
20
0.86374
11
0.862441
21
0.884409
0
LINE
8
BLACK
6
CONTINUOUS
10
0.862441
20
0.884409
11
0.86319
21
0.888176
0
LINE
8
BLACK
6
CONTINUOUS
10
0.86319
20
0.888176
11
0.865324
21
0.891369
0
LINE
8
BLACK
6
CONTINUOUS
10
0.865324
20
0.891369
11
0.868517
21
0.893503
0
LINE
8
BLACK
6
CONTINUOUS
10
0.868517
20
0.893503
11
0.872283
21
0.894252
0
LINE
8
BLACK
6
CONTINUOUS
10
0.872283
20
0.894252
11
0.907717
21
0.894252
0
LINE
8
BLACK
6
CONTINUOUS
10
0.907717
20
0.894252
11
0.911483
21
0.893503
0
LINE
8
BLACK
6
CONTINUOUS
10
1.77848
20
0.88396
11
1.7804
21
0.88268
0
LINE
8
BLACK
6
CONTINUOUS
10
1.7804
20
0.88268
11
1.78168
21
0.880764
0
LINE
8
BLACK
6
CONTINUOUS
10
1.78168
20
0.880764
11
1.78213
21
0.878504
0
LINE
8
BLACK
6
CONTINUOUS
10
1.78213
20
0.878504
11
1.78213
21
0.866693
0
LINE
8
BLACK
6
CONTINUOUS
10
1.78213
20
0.866693
11
1.78168
21
0.864433
0
LINE
8
BLACK
6
CONTINUOUS
10
1.78168
20
0.864433
11
1.7804
21
0.862517
0
LINE
8
BLACK
6
CONTINUOUS
10
1.7804
20
0.862517
11
1.77848
21
0.861237
0
LINE
8
BLACK
6
CONTINUOUS
10
1.77848
20
0.861237
11
1.77622
21
0.860787
0
LINE
8
BLACK
6
CONTINUOUS
10
1.77622
20
0.860787
11
1.72996
21
0.860787
0
LINE
8
BLACK
6
CONTINUOUS
10
1.72996
20
0.860787
11
1.7277
21
0.861237
0
LINE
8
BLACK
6
CONTINUOUS
10
1.7277
20
0.861237
11
1.72578
21
0.862517
0
LINE
8
BLACK
6
CONTINUOUS
10
1.72578
20
0.862517
11
1.7245
21
0.864433
0
LINE
8
BLACK
6
CONTINUOUS
10
1.7245
20
0.864433
11
1.72406
21
0.866693
0
LINE
8
BLACK
6
CONTINUOUS
10
1.72406
20
0.866693
11
1.72406
21
0.878504
0
LINE
8
BLACK
6
CONTINUOUS
10
1.72406
20
0.878504
11
1.7245
21
0.880764
0
LINE
8
BLACK
6
CONTINUOUS
10
1.7245
20
0.880764
11
1.72578
21
0.88268
0
LINE
8
BLACK
6
CONTINUOUS
10
1.72578
20
0.88268
11
1.7277
21
0.88396
0
LINE
8
BLACK
6
CONTINUOUS
10
1.7277
20
0.88396
11
1.72996
21
0.884409
0
LINE
8
BLACK
6
CONTINUOUS
10
1.72996
20
0.884409
11
1.77622
21
0.884409
0
LINE
8
BLACK
6
CONTINUOUS
10
1.77622
20
0.884409
11
1.77848
21
0.88396
0
LINE
8
BLACK
6
CONTINUOUS
10
1.63707
20
0.913818
11
1.64027
21
0.911684
0
LINE
8
BLACK
6
CONTINUOUS
10
1.64027
20
0.911684
11
1.6424
21
0.908491
0
LINE
8
BLACK
6
CONTINUOUS
10
1.6424
20
0.908491
11
1.64315
21
0.904724
0
LINE
8
BLACK
6
CONTINUOUS
10
1.64315
20
0.904724
11
1.64315
21
0.879134
0
LINE
8
BLACK
6
CONTINUOUS
10
1.64315
20
0.879134
11
1.6424
21
0.875367
0
LINE
8
BLACK
6
CONTINUOUS
10
1.6424
20
0.875367
11
1.64027
21
0.872174
0
LINE
8
BLACK
6
CONTINUOUS
10
1.64027
20
0.872174
11
1.63707
21
0.870041
0
LINE
8
BLACK
6
CONTINUOUS
10
1.63707
20
0.870041
11
1.63331
21
0.869291
0
LINE
8
BLACK
6
CONTINUOUS
10
1.63331
20
0.869291
11
1.54669
21
0.869291
0
LINE
8
BLACK
6
CONTINUOUS
10
1.54669
20
0.869291
11
1.54293
21
0.870041
0
LINE
8
BLACK
6
CONTINUOUS
10
1.54293
20
0.870041
11
1.53973
21
0.872174
0
LINE
8
BLACK
6
CONTINUOUS
10
1.53973
20
0.872174
11
1.5376
21
0.875367
0
LINE
8
BLACK
6
CONTINUOUS
10
1.5376
20
0.875367
11
1.53685
21
0.879134
0
LINE
8
BLACK
6
CONTINUOUS
10
1.53685
20
0.879134
11
1.53685
21
0.904724
0
LINE
8
BLACK
6
CONTINUOUS
10
1.53685
20
0.904724
11
1.5376
21
0.908491
0
LINE
8
BLACK
6
CONTINUOUS
10
1.5376
20
0.908491
11
1.53973
21
0.911684
0
LINE
8
BLACK
6
CONTINUOUS
10
1.53973
20
0.911684
11
1.54293
21
0.913818
0
LINE
8
BLACK
6
CONTINUOUS
10
1.54293
20
0.913818
11
1.54669
21
0.914567
0
LINE
8
BLACK
6
CONTINUOUS
10
1.54669
20
0.914567
11
1.63331
21
0.914567
0
LINE
8
BLACK
6
CONTINUOUS
10
1.63331
20
0.914567
11
1.63707
21
0.913818
0
LINE
8
BLACK
6
CONTINUOUS
10
0.565764
20
0.930417
11
0.56768
21
0.929136
0
LINE
8
BLACK
6
CONTINUOUS
10
0.56768
20
0.929136
11
0.56896
21
0.927221
0
LINE
8
BLACK
6
CONTINUOUS
10
0.56896
20
0.927221
11
0.569409
21
0.924961
0
LINE
8
BLACK
6
CONTINUOUS
10
0.569409
20
0.924961
11
0.569409
21
0.884606
0
LINE
8
BLACK
6
CONTINUOUS
10
0.569409
20
0.884606
11
0.56896
21
0.882346
0
LINE
8
BLACK
6
CONTINUOUS
10
0.56896
20
0.882346
11
0.56768
21
0.88043
0
LINE
8
BLACK
6
CONTINUOUS
10
0.56768
20
0.88043
11
0.565764
21
0.87915
0
LINE
8
BLACK
6
CONTINUOUS
10
0.565764
20
0.87915
11
0.563504
21
0.878701
0
LINE
8
BLACK
6
CONTINUOUS
10
0.563504
20
0.878701
11
0.551693
21
0.878701
0
LINE
8
BLACK
6
CONTINUOUS
10
0.551693
20
0.878701
11
0.549433
21
0.87915
0
LINE
8
BLACK
6
CONTINUOUS
10
0.549433
20
0.87915
11
0.547517
21
0.88043
0
LINE
8
BLACK
6
CONTINUOUS
10
0.547517
20
0.88043
11
0.546237
21
0.882346
0
LINE
8
BLACK
6
CONTINUOUS
10
0.546237
20
0.882346
11
0.545787
21
0.884606
0
LINE
8
BLACK
6
CONTINUOUS
10
0.545787
20
0.884606
11
0.545787
21
0.924961
0
LINE
8
BLACK
6
CONTINUOUS
10
0.545787
20
0.924961
11
0.546237
21
0.927221
0
LINE
8
BLACK
6
CONTINUOUS
10
0.546237
20
0.927221
11
0.547517
21
0.929136
0
LINE
8
BLACK
6
CONTINUOUS
10
0.547517
20
0.929136
11
0.549433
21
0.930417
0
LINE
8
BLACK
6
CONTINUOUS
10
0.549433
20
0.930417
11
0.551693
21
0.930866
0
LINE
8
BLACK
6
CONTINUOUS
10
0.551693
20
0.930866
11
0.563504
21
0.930866
0
LINE
8
BLACK
6
CONTINUOUS
10
0.563504
20
0.930866
11
0.565764
21
0.930417
0
LINE
8
BLACK
6
CONTINUOUS
10
0.640567
20
0.930417
11
0.642483
21
0.929136
0
LINE
8
BLACK
6
CONTINUOUS
10
0.642483
20
0.929136
11
0.643763
21
0.927221
0
LINE
8
BLACK
6
CONTINUOUS
10
0.643763
20
0.927221
11
0.644213
21
0.924961
0
LINE
8
BLACK
6
CONTINUOUS
10
0.644213
20
0.924961
11
0.644213
21
0.884606
0
LINE
8
BLACK
6
CONTINUOUS
10
0.644213
20
0.884606
11
0.643763
21
0.882346
0
LINE
8
BLACK
6
CONTINUOUS
10
0.643763
20
0.882346
11
0.642483
21
0.88043
0
LINE
8
BLACK
6
CONTINUOUS
10
0.642483
20
0.88043
11
0.640567
21
0.87915
0
LINE
8
BLACK
6
CONTINUOUS
10
0.640567
20
0.87915
11
0.638307
21
0.878701
0
LINE
8
BLACK
6
CONTINUOUS
10
0.638307
20
0.878701
11
0.626496
21
0.878701
0
LINE
8
BLACK
6
CONTINUOUS
10
0.626496
20
0.878701
11
0.624236
21
0.87915
0
LINE
8
BLACK
6
CONTINUOUS
10
0.624236
20
0.87915
11
0.62232
21
0.88043
0
LINE
8
BLACK
6
CONTINUOUS
10
0.62232
20
0.88043
11
0.62104
21
0.882346
0
LINE
8
BLACK
6
CONTINUOUS
10
0.62104
20
0.882346
11
0.620591
21
0.884606
0
LINE
8
BLACK
6
CONTINUOUS
10
0.620591
20
0.884606
11
0.620591
21
0.924961
0
LINE
8
BLACK
6
CONTINUOUS
10
0.620591
20
0.924961
11
0.62104
21
0.927221
0
LINE
8
BLACK
6
CONTINUOUS
10
0.62104
20
0.927221
11
0.62232
21
0.929136
0
LINE
8
BLACK
6
CONTINUOUS
10
0.62232
20
0.929136
11
0.624236
21
0.930417
0
LINE
8
BLACK
6
CONTINUOUS
10
0.624236
20
0.930417
11
0.626496
21
0.930866
0
LINE
8
BLACK
6
CONTINUOUS
10
0.626496
20
0.930866
11
0.638307
21
0.930866
0
LINE
8
BLACK
6
CONTINUOUS
10
0.638307
20
0.930866
11
0.640567
21
0.930417
0
LINE
8
BLACK
6
CONTINUOUS
10
1.8523
20
0.921361
11
1.85422
21
0.920081
0
LINE
8
BLACK
6
CONTINUOUS
10
1.85422
20
0.920081
11
1.8555
21
0.918165
0
LINE
8
BLACK
6
CONTINUOUS
10
1.8555
20
0.918165
11
1.85594
21
0.915906
0
LINE
8
BLACK
6
CONTINUOUS
10
1.85594
20
0.915906
11
1.85594
21
0.904094
0
LINE
8
BLACK
6
CONTINUOUS
10
1.85594
20
0.904094
11
1.8555
21
0.901835
0
LINE
8
BLACK
6
CONTINUOUS
10
1.8555
20
0.901835
11
1.85422
21
0.899919
0
LINE
8
BLACK
6
CONTINUOUS
10
1.85422
20
0.899919
11
1.8523
21
0.898639
0
LINE
8
BLACK
6
CONTINUOUS
10
1.8523
20
0.898639
11
1.85004
21
0.898189
0
LINE
8
BLACK
6
CONTINUOUS
10
1.85004
20
0.898189
11
1.80378
21
0.898189
0
LINE
8
BLACK
6
CONTINUOUS
10
1.80378
20
0.898189
11
1.80152
21
0.898639
0
LINE
8
BLACK
6
CONTINUOUS
10
1.80152
20
0.898639
11
1.7996
21
0.899919
0
LINE
8
BLACK
6
CONTINUOUS
10
1.7996
20
0.899919
11
1.79832
21
0.901835
0
LINE
8
BLACK
6
CONTINUOUS
10
1.79832
20
0.901835
11
1.79787
21
0.904094
0
LINE
8
BLACK
6
CONTINUOUS
10
1.79787
20
0.904094
11
1.79787
21
0.915906
0
LINE
8
BLACK
6
CONTINUOUS
10
1.79787
20
0.915906
11
1.79832
21
0.918165
0
LINE
8
BLACK
6
CONTINUOUS
10
1.79832
20
0.918165
11
1.7996
21
0.920081
0
LINE
8
BLACK
6
CONTINUOUS
10
1.7996
20
0.920081
11
1.80152
21
0.921361
0
LINE
8
BLACK
6
CONTINUOUS
10
1.80152
20
0.921361
11
1.80378
21
0.921811
0
LINE
8
BLACK
6
CONTINUOUS
10
1.80378
20
0.921811
11
1.85004
21
0.921811
0
LINE
8
BLACK
6
CONTINUOUS
10
1.85004
20
0.921811
11
1.8523
21
0.921361
0
LINE
8
BLACK
6
CONTINUOUS
10
1.10148
20
0.943503
11
1.10468
21
0.941369
0
LINE
8
BLACK
6
CONTINUOUS
10
1.10468
20
0.941369
11
1.10681
21
0.938176
0
LINE
8
BLACK
6
CONTINUOUS
10
1.10681
20
0.938176
11
1.10756
21
0.934409
0
LINE
8
BLACK
6
CONTINUOUS
10
1.10756
20
0.934409
11
1.10756
21
0.91374
0
LINE
8
BLACK
6
CONTINUOUS
10
1.10756
20
0.91374
11
1.10681
21
0.909974
0
LINE
8
BLACK
6
CONTINUOUS
10
1.10681
20
0.909974
11
1.10468
21
0.90678
0
LINE
8
BLACK
6
CONTINUOUS
10
1.10468
20
0.90678
11
1.10148
21
0.904647
0
LINE
8
BLACK
6
CONTINUOUS
10
1.10148
20
0.904647
11
1.09772
21
0.903898
0
LINE
8
BLACK
6
CONTINUOUS
10
1.09772
20
0.903898
11
1.06228
21
0.903898
0
LINE
8
BLACK
6
CONTINUOUS
10
1.06228
20
0.903898
11
1.05852
21
0.904647
0
LINE
8
BLACK
6
CONTINUOUS
10
1.05852
20
0.904647
11
1.05532
21
0.90678
0
LINE
8
BLACK
6
CONTINUOUS
10
1.05532
20
0.90678
11
1.05319
21
0.909974
0
LINE
8
BLACK
6
CONTINUOUS
10
1.05319
20
0.909974
11
1.05244
21
0.91374
0
LINE
8
BLACK
6
CONTINUOUS
10
1.05244
20
0.91374
11
1.05244
21
0.934409
0
LINE
8
BLACK
6
CONTINUOUS
10
1.05244
20
0.934409
11
1.05319
21
0.938176
0
LINE
8
BLACK
6
CONTINUOUS
10
1.05319
20
0.938176
11
1.05532
21
0.941369
0
LINE
8
BLACK
6
CONTINUOUS
10
1.05532
20
0.941369
11
1.05852
21
0.943503
0
LINE
8
BLACK
6
CONTINUOUS
10
1.05852
20
0.943503
11
1.06228
21
0.944252
0
LINE
8
BLACK
6
CONTINUOUS
10
1.06228
20
0.944252
11
1.09772
21
0.944252
0
LINE
8
BLACK
6
CONTINUOUS
10
1.09772
20
0.944252
11
1.10148
21
0.943503
0
LINE
8
BLACK
6
CONTINUOUS
10
2.37148
20
0.945353
11
2.37468
21
0.94322
0
LINE
8
BLACK
6
CONTINUOUS
10
2.37468
20
0.94322
11
2.37681
21
0.940026
0
LINE
8
BLACK
6
CONTINUOUS
10
2.37681
20
0.940026
11
2.37756
21
0.93626
0
LINE
8
BLACK
6
CONTINUOUS
10
2.37756
20
0.93626
11
2.37756
21
0.915591
0
LINE
8
BLACK
6
CONTINUOUS
10
2.37756
20
0.915591
11
2.37681
21
0.911824
0
LINE
8
BLACK
6
CONTINUOUS
10
2.37681
20
0.911824
11
2.37468
21
0.908631
0
LINE
8
BLACK
6
CONTINUOUS
10
2.37468
20
0.908631
11
2.37148
21
0.906497
0
LINE
8
BLACK
6
CONTINUOUS
10
2.37148
20
0.906497
11
2.36772
21
0.905748
0
LINE
8
BLACK
6
CONTINUOUS
10
2.36772
20
0.905748
11
2.33228
21
0.905748
0
LINE
8
BLACK
6
CONTINUOUS
10
2.33228
20
0.905748
11
2.32852
21
0.906497
0
LINE
8
BLACK
6
CONTINUOUS
10
2.32852
20
0.906497
11
2.32532
21
0.908631
0
LINE
8
BLACK
6
CONTINUOUS
10
2.32532
20
0.908631
11
2.32319
21
0.911824
0
LINE
8
BLACK
6
CONTINUOUS
10
2.32319
20
0.911824
11
2.32244
21
0.915591
0
LINE
8
BLACK
6
CONTINUOUS
10
2.32244
20
0.915591
11
2.32244
21
0.93626
0
LINE
8
BLACK
6
CONTINUOUS
10
2.32244
20
0.93626
11
2.32319
21
0.940026
0
LINE
8
BLACK
6
CONTINUOUS
10
2.32319
20
0.940026
11
2.32532
21
0.94322
0
LINE
8
BLACK
6
CONTINUOUS
10
2.32532
20
0.94322
11
2.32852
21
0.945353
0
LINE
8
BLACK
6
CONTINUOUS
10
2.32852
20
0.945353
11
2.33228
21
0.946102
0
LINE
8
BLACK
6
CONTINUOUS
10
2.33228
20
0.946102
11
2.36772
21
0.946102
0
LINE
8
BLACK
6
CONTINUOUS
10
2.36772
20
0.946102
11
2.37148
21
0.945353
0
LINE
8
BLACK
6
CONTINUOUS
10
1.20318
20
0.96181
11
1.20637
21
0.959676
0
LINE
8
BLACK
6
CONTINUOUS
10
1.20637
20
0.959676
11
1.2085
21
0.956483
0
LINE
8
BLACK
6
CONTINUOUS
10
1.2085
20
0.956483
11
1.20925
21
0.952717
0
LINE
8
BLACK
6
CONTINUOUS
10
1.20925
20
0.952717
11
1.20925
21
0.917283
0
LINE
8
BLACK
6
CONTINUOUS
10
1.20925
20
0.917283
11
1.2085
21
0.913517
0
LINE
8
BLACK
6
CONTINUOUS
10
1.2085
20
0.913517
11
1.20637
21
0.910324
0
LINE
8
BLACK
6
CONTINUOUS
10
1.20637
20
0.910324
11
1.20318
21
0.90819
0
LINE
8
BLACK
6
CONTINUOUS
10
1.20318
20
0.90819
11
1.19941
21
0.907441
0
LINE
8
BLACK
6
CONTINUOUS
10
1.19941
20
0.907441
11
1.17874
21
0.907441
0
LINE
8
BLACK
6
CONTINUOUS
10
1.17874
20
0.907441
11
1.17497
21
0.90819
0
LINE
8
BLACK
6
CONTINUOUS
10
1.17497
20
0.90819
11
1.17178
21
0.910324
0
LINE
8
BLACK
6
CONTINUOUS
10
1.17178
20
0.910324
11
1.16965
21
0.913517
0
LINE
8
BLACK
6
CONTINUOUS
10
1.16965
20
0.913517
11
1.1689
21
0.917283
0
LINE
8
BLACK
6
CONTINUOUS
10
1.1689
20
0.917283
11
1.1689
21
0.952717
0
LINE
8
BLACK
6
CONTINUOUS
10
1.1689
20
0.952717
11
1.16965
21
0.956483
0
LINE
8
BLACK
6
CONTINUOUS
10
1.16965
20
0.956483
11
1.17178
21
0.959676
0
LINE
8
BLACK
6
CONTINUOUS
10
1.17178
20
0.959676
11
1.17497
21
0.96181
0
LINE
8
BLACK
6
CONTINUOUS
10
1.17497
20
0.96181
11
1.17874
21
0.962559
0
LINE
8
BLACK
6
CONTINUOUS
10
1.17874
20
0.962559
11
1.19941
21
0.962559
0
LINE
8
BLACK
6
CONTINUOUS
10
1.19941
20
0.962559
11
1.20318
21
0.96181
0
LINE
8
BLACK
6
CONTINUOUS
10
1.27503
20
0.96181
11
1.27822
21
0.959676
0
LINE
8
BLACK
6
CONTINUOUS
10
1.27822
20
0.959676
11
1.28035
21
0.956483
0
LINE
8
BLACK
6
CONTINUOUS
10
1.28035
20
0.956483
11
1.2811
21
0.952717
0
LINE
8
BLACK
6
CONTINUOUS
10
1.2811
20
0.952717
11
1.2811
21
0.917283
0
LINE
8
BLACK
6
CONTINUOUS
10
1.2811
20
0.917283
11
1.28035
21
0.913517
0
LINE
8
BLACK
6
CONTINUOUS
10
1.28035
20
0.913517
11
1.27822
21
0.910324
0
LINE
8
BLACK
6
CONTINUOUS
10
1.27822
20
0.910324
11
1.27503
21
0.90819
0
LINE
8
BLACK
6
CONTINUOUS
10
1.27503
20
0.90819
11
1.27126
21
0.907441
0
LINE
8
BLACK
6
CONTINUOUS
10
1.27126
20
0.907441
11
1.25059
21
0.907441
0
LINE
8
BLACK
6
CONTINUOUS
10
1.25059
20
0.907441
11
1.24682
21
0.90819
0
LINE
8
BLACK
6
CONTINUOUS
10
1.24682
20
0.90819
11
1.24363
21
0.910324
0
LINE
8
BLACK
6
CONTINUOUS
10
1.24363
20
0.910324
11
1.2415
21
0.913517
0
LINE
8
BLACK
6
CONTINUOUS
10
1.2415
20
0.913517
11
1.24075
21
0.917283
0
LINE
8
BLACK
6
CONTINUOUS
10
1.24075
20
0.917283
11
1.24075
21
0.952717
0
LINE
8
BLACK
6
CONTINUOUS
10
1.24075
20
0.952717
11
1.2415
21
0.956483
0
LINE
8
BLACK
6
CONTINUOUS
10
1.2415
20
0.956483
11
1.24363
21
0.959676
0
LINE
8
BLACK
6
CONTINUOUS
10
1.24363
20
0.959676
11
1.24682
21
0.96181
0
LINE
8
BLACK
6
CONTINUOUS
10
1.24682
20
0.96181
11
1.25059
21
0.962559
0
LINE
8
BLACK
6
CONTINUOUS
10
1.25059
20
0.962559
11
1.27126
21
0.962559
0
LINE
8
BLACK
6
CONTINUOUS
10
1.27126
20
0.962559
11
1.27503
21
0.96181
0
LINE
8
BLACK
6
CONTINUOUS
10
0.911483
20
0.965353
11
0.914676
21
0.96322
0
LINE
8
BLACK
6
CONTINUOUS
10
0.914676
20
0.96322
11
0.91681
21
0.960026
0
LINE
8
BLACK
6
CONTINUOUS
10
0.91681
20
0.960026
11
0.917559
21
0.95626
0
LINE
8
BLACK
6
CONTINUOUS
10
0.917559
20
0.95626
11
0.917559
21
0.935591
0
LINE
8
BLACK
6
CONTINUOUS
10
0.917559
20
0.935591
11
0.91681
21
0.931824
0
LINE
8
BLACK
6
CONTINUOUS
10
0.91681
20
0.931824
11
0.914676
21
0.928631
0
LINE
8
BLACK
6
CONTINUOUS
10
0.914676
20
0.928631
11
0.911483
21
0.926497
0
LINE
8
BLACK
6
CONTINUOUS
10
0.911483
20
0.926497
11
0.907717
21
0.925748
0
LINE
8
BLACK
6
CONTINUOUS
10
0.907717
20
0.925748
11
0.872283
21
0.925748
0
LINE
8
BLACK
6
CONTINUOUS
10
0.872283
20
0.925748
11
0.868517
21
0.926497
0
LINE
8
BLACK
6
CONTINUOUS
10
0.868517
20
0.926497
11
0.865324
21
0.928631
0
LINE
8
BLACK
6
CONTINUOUS
10
0.865324
20
0.928631
11
0.86319
21
0.931824
0
LINE
8
BLACK
6
CONTINUOUS
10
0.86319
20
0.931824
11
0.862441
21
0.935591
0
LINE
8
BLACK
6
CONTINUOUS
10
0.862441
20
0.935591
11
0.862441
21
0.95626
0
LINE
8
BLACK
6
CONTINUOUS
10
0.862441
20
0.95626
11
0.86319
21
0.960026
0
LINE
8
BLACK
6
CONTINUOUS
10
0.86319
20
0.960026
11
0.865324
21
0.96322
0
LINE
8
BLACK
6
CONTINUOUS
10
0.865324
20
0.96322
11
0.868517
21
0.965353
0
LINE
8
BLACK
6
CONTINUOUS
10
0.868517
20
0.965353
11
0.872283
21
0.966102
0
LINE
8
BLACK
6
CONTINUOUS
10
0.872283
20
0.966102
11
0.907717
21
0.966102
0
LINE
8
BLACK
6
CONTINUOUS
10
0.907717
20
0.966102
11
0.911483
21
0.965353
0
LINE
8
BLACK
6
CONTINUOUS
10
1.77848
20
0.958763
11
1.7804
21
0.957483
0
LINE
8
BLACK
6
CONTINUOUS
10
1.7804
20
0.957483
11
1.78168
21
0.955567
0
LINE
8
BLACK
6
CONTINUOUS
10
1.78168
20
0.955567
11
1.78213
21
0.953307
0
LINE
8
BLACK
6
CONTINUOUS
10
1.78213
20
0.953307
11
1.78213
21
0.941496
0
LINE
8
BLACK
6
CONTINUOUS
10
1.78213
20
0.941496
11
1.78168
21
0.939236
0
LINE
8
BLACK
6
CONTINUOUS
10
1.78168
20
0.939236
11
1.7804
21
0.93732
0
LINE
8
BLACK
6
CONTINUOUS
10
1.7804
20
0.93732
11
1.77848
21
0.93604
0
LINE
8
BLACK
6
CONTINUOUS
10
1.77848
20
0.93604
11
1.77622
21
0.935591
0
LINE
8
BLACK
6
CONTINUOUS
10
1.77622
20
0.935591
11
1.72996
21
0.935591
0
LINE
8
BLACK
6
CONTINUOUS
10
1.72996
20
0.935591
11
1.7277
21
0.93604
0
LINE
8
BLACK
6
CONTINUOUS
10
1.7277
20
0.93604
11
1.72578
21
0.93732
0
LINE
8
BLACK
6
CONTINUOUS
10
1.72578
20
0.93732
11
1.7245
21
0.939236
0
LINE
8
BLACK
6
CONTINUOUS
10
1.7245
20
0.939236
11
1.72406
21
0.941496
0
LINE
8
BLACK
6
CONTINUOUS
10
1.72406
20
0.941496
11
1.72406
21
0.953307
0
LINE
8
BLACK
6
CONTINUOUS
10
1.72406
20
0.953307
11
1.7245
21
0.955567
0
LINE
8
BLACK
6
CONTINUOUS
10
1.7245
20
0.955567
11
1.72578
21
0.957483
0
LINE
8
BLACK
6
CONTINUOUS
10
1.72578
20
0.957483
11
1.7277
21
0.958763
0
LINE
8
BLACK
6
CONTINUOUS
10
1.7277
20
0.958763
11
1.72996
21
0.959213
0
LINE
8
BLACK
6
CONTINUOUS
10
1.72996
20
0.959213
11
1.77622
21
0.959213
0
LINE
8
BLACK
6
CONTINUOUS
10
1.77622
20
0.959213
11
1.77848
21
0.958763
0
LINE
8
BLACK
6
CONTINUOUS
10
1.10148
20
1.01535
11
1.10468
21
1.01322
0
LINE
8
BLACK
6
CONTINUOUS
10
1.10468
20
1.01322
11
1.10681
21
1.01003
0
LINE
8
BLACK
6
CONTINUOUS
10
1.10681
20
1.01003
11
1.10756
21
1.00626
0
LINE
8
BLACK
6
CONTINUOUS
10
1.10756
20
1.00626
11
1.10756
21
0.985591
0
LINE
8
BLACK
6
CONTINUOUS
10
1.10756
20
0.985591
11
1.10681
21
0.981824
0
LINE
8
BLACK
6
CONTINUOUS
10
1.10681
20
0.981824
11
1.10468
21
0.978631
0
LINE
8
BLACK
6
CONTINUOUS
10
1.10468
20
0.978631
11
1.10148
21
0.976497
0
LINE
8
BLACK
6
CONTINUOUS
10
1.10148
20
0.976497
11
1.09772
21
0.975748
0
LINE
8
BLACK
6
CONTINUOUS
10
1.09772
20
0.975748
11
1.06228
21
0.975748
0
LINE
8
BLACK
6
CONTINUOUS
10
1.06228
20
0.975748
11
1.05852
21
0.976497
0
LINE
8
BLACK
6
CONTINUOUS
10
1.05852
20
0.976497
11
1.05532
21
0.978631
0
LINE
8
BLACK
6
CONTINUOUS
10
1.05532
20
0.978631
11
1.05319
21
0.981824
0
LINE
8
BLACK
6
CONTINUOUS
10
1.05319
20
0.981824
11
1.05244
21
0.985591
0
LINE
8
BLACK
6
CONTINUOUS
10
1.05244
20
0.985591
11
1.05244
21
1.00626
0
LINE
8
BLACK
6
CONTINUOUS
10
1.05244
20
1.00626
11
1.05319
21
1.01003
0
LINE
8
BLACK
6
CONTINUOUS
10
1.05319
20
1.01003
11
1.05532
21
1.01322
0
LINE
8
BLACK
6
CONTINUOUS
10
1.05532
20
1.01322
11
1.05852
21
1.01535
0
LINE
8
BLACK
6
CONTINUOUS
10
1.05852
20
1.01535
11
1.06228
21
1.0161
0
LINE
8
BLACK
6
CONTINUOUS
10
1.06228
20
1.0161
11
1.09772
21
1.0161
0
LINE
8
BLACK
6
CONTINUOUS
10
1.09772
20
1.0161
11
1.10148
21
1.01535
0
LINE
8
BLACK
6
CONTINUOUS
10
0.582231
20
1.02964
11
0.585424
21
1.02751
0
LINE
8
BLACK
6
CONTINUOUS
10
0.585424
20
1.02751
11
0.587558
21
1.02432
0
LINE
8
BLACK
6
CONTINUOUS
10
0.587558
20
1.02432
11
0.588307
21
1.02055
0
LINE
8
BLACK
6
CONTINUOUS
10
0.588307
20
1.02055
11
0.588307
21
0.987087
0
LINE
8
BLACK
6
CONTINUOUS
10
0.588307
20
0.987087
11
0.587558
21
0.98332
0
LINE
8
BLACK
6
CONTINUOUS
10
0.587558
20
0.98332
11
0.585424
21
0.980127
0
LINE
8
BLACK
6
CONTINUOUS
10
0.585424
20
0.980127
11
0.582231
21
0.977993
0
LINE
8
BLACK
6
CONTINUOUS
10
0.582231
20
0.977993
11
0.578465
21
0.977244
0
LINE
8
BLACK
6
CONTINUOUS
10
0.578465
20
0.977244
11
0.543031
21
0.977244
0
LINE
8
BLACK
6
CONTINUOUS
10
0.543031
20
0.977244
11
0.539265
21
0.977993
0
LINE
8
BLACK
6
CONTINUOUS
10
0.539265
20
0.977993
11
0.536072
21
0.980127
0
LINE
8
BLACK
6
CONTINUOUS
10
0.536072
20
0.980127
11
0.533938
21
0.98332
0
LINE
8
BLACK
6
CONTINUOUS
10
0.533938
20
0.98332
11
0.533189
21
0.987087
0
LINE
8
BLACK
6
CONTINUOUS
10
0.533189
20
0.987087
11
0.533189
21
1.02055
0
LINE
8
BLACK
6
CONTINUOUS
10
0.533189
20
1.02055
11
0.533938
21
1.02432
0
LINE
8
BLACK
6
CONTINUOUS
10
0.533938
20
1.02432
11
0.536072
21
1.02751
0
LINE
8
BLACK
6
CONTINUOUS
10
0.536072
20
1.02751
11
0.539265
21
1.02964
0
LINE
8
BLACK
6
CONTINUOUS
10
0.539265
20
1.02964
11
0.543031
21
1.03039
0
LINE
8
BLACK
6
CONTINUOUS
10
0.543031
20
1.03039
11
0.578465
21
1.03039
0
LINE
8
BLACK
6
CONTINUOUS
10
0.578465
20
1.03039
11
0.582231
21
1.02964
0
LINE
8
BLACK
6
CONTINUOUS
10
0.68853
20
1.02964
11
0.691724
21
1.02751
0
LINE
8
BLACK
6
CONTINUOUS
10
0.691724
20
1.02751
11
0.693857
21
1.02432
0
LINE
8
BLACK
6
CONTINUOUS
10
0.693857
20
1.02432
11
0.694606
21
1.02055
0
LINE
8
BLACK
6
CONTINUOUS
10
0.694606
20
1.02055
11
0.694606
21
0.987087
0
LINE
8
BLACK
6
CONTINUOUS
10
0.694606
20
0.987087
11
0.693857
21
0.98332
0
LINE
8
BLACK
6
CONTINUOUS
10
0.693857
20
0.98332
11
0.691724
21
0.980127
0
LINE
8
BLACK
6
CONTINUOUS
10
0.691724
20
0.980127
11
0.68853
21
0.977993
0
LINE
8
BLACK
6
CONTINUOUS
10
0.68853
20
0.977993
11
0.684764
21
0.977244
0
LINE
8
BLACK
6
CONTINUOUS
10
0.684764
20
0.977244
11
0.649331
21
0.977244
0
LINE
8
BLACK
6
CONTINUOUS
10
0.649331
20
0.977244
11
0.645564
21
0.977993
0
LINE
8
BLACK
6
CONTINUOUS
10
0.645564
20
0.977993
11
0.642371
21
0.980127
0
LINE
8
BLACK
6
CONTINUOUS
10
0.642371
20
0.980127
11
0.640237
21
0.98332
0
LINE
8
BLACK
6
CONTINUOUS
10
0.640237
20
0.98332
11
0.639488
21
0.987087
0
LINE
8
BLACK
6
CONTINUOUS
10
0.639488
20
0.987087
11
0.639488
21
1.02055
0
LINE
8
BLACK
6
CONTINUOUS
10
0.639488
20
1.02055
11
0.640237
21
1.02432
0
LINE
8
BLACK
6
CONTINUOUS
10
0.640237
20
1.02432
11
0.642371
21
1.02751
0
LINE
8
BLACK
6
CONTINUOUS
10
0.642371
20
1.02751
11
0.645564
21
1.02964
0
LINE
8
BLACK
6
CONTINUOUS
10
0.645564
20
1.02964
11
0.649331
21
1.03039
0
LINE
8
BLACK
6
CONTINUOUS
10
0.649331
20
1.03039
11
0.684764
21
1.03039
0
LINE
8
BLACK
6
CONTINUOUS
10
0.684764
20
1.03039
11
0.68853
21
1.02964
0
LINE
8
BLACK
6
CONTINUOUS
10
1.63707
20
1.02996
11
1.64027
21
1.02783
0
LINE
8
BLACK
6
CONTINUOUS
10
1.64027
20
1.02783
11
1.6424
21
1.02463
0
LINE
8
BLACK
6
CONTINUOUS
10
1.6424
20
1.02463
11
1.64315
21
1.02087
0
LINE
8
BLACK
6
CONTINUOUS
10
1.64315
20
1.02087
11
1.64315
21
0.995276
0
LINE
8
BLACK
6
CONTINUOUS
10
1.64315
20
0.995276
11
1.6424
21
0.991509
0
LINE
8
BLACK
6
CONTINUOUS
10
1.6424
20
0.991509
11
1.64027
21
0.988316
0
LINE
8
BLACK
6
CONTINUOUS
10
1.64027
20
0.988316
11
1.63707
21
0.986182
0
LINE
8
BLACK
6
CONTINUOUS
10
1.63707
20
0.986182
11
1.63331
21
0.985433
0
LINE
8
BLACK
6
CONTINUOUS
10
1.63331
20
0.985433
11
1.54669
21
0.985433
0
LINE
8
BLACK
6
CONTINUOUS
10
1.54669
20
0.985433
11
1.54293
21
0.986182
0
LINE
8
BLACK
6
CONTINUOUS
10
1.54293
20
0.986182
11
1.53973
21
0.988316
0
LINE
8
BLACK
6
CONTINUOUS
10
1.53973
20
0.988316
11
1.5376
21
0.991509
0
LINE
8
BLACK
6
CONTINUOUS
10
1.5376
20
0.991509
11
1.53685
21
0.995276
0
LINE
8
BLACK
6
CONTINUOUS
10
1.53685
20
0.995276
11
1.53685
21
1.02087
0
LINE
8
BLACK
6
CONTINUOUS
10
1.53685
20
1.02087
11
1.5376
21
1.02463
0
LINE
8
BLACK
6
CONTINUOUS
10
1.5376
20
1.02463
11
1.53973
21
1.02783
0
LINE
8
BLACK
6
CONTINUOUS
10
1.53973
20
1.02783
11
1.54293
21
1.02996
0
LINE
8
BLACK
6
CONTINUOUS
10
1.54293
20
1.02996
11
1.54669
21
1.03071
0
LINE
8
BLACK
6
CONTINUOUS
10
1.54669
20
1.03071
11
1.63331
21
1.03071
0
LINE
8
BLACK
6
CONTINUOUS
10
1.63331
20
1.03071
11
1.63707
21
1.02996
0
LINE
8
BLACK
6
CONTINUOUS
10
2.36831
20
1.02474
11
2.3711
21
1.02287
0
LINE
8
BLACK
6
CONTINUOUS
10
2.3711
20
1.02287
11
2.37297
21
1.02008
0
LINE
8
BLACK
6
CONTINUOUS
10
2.37297
20
1.02008
11
2.37362
21
1.01678
0
LINE
8
BLACK
6
CONTINUOUS
10
2.37362
20
1.01678
11
2.37362
21
0.999557
0
LINE
8
BLACK
6
CONTINUOUS
10
2.37362
20
0.999557
11
2.37297
21
0.996261
0
LINE
8
BLACK
6
CONTINUOUS
10
2.37297
20
0.996261
11
2.3711
21
0.993467
0
LINE
8
BLACK
6
CONTINUOUS
10
2.3711
20
0.993467
11
2.36831
21
0.9916
0
LINE
8
BLACK
6
CONTINUOUS
10
2.36831
20
0.9916
11
2.36501
21
0.990945
0
LINE
8
BLACK
6
CONTINUOUS
10
2.36501
20
0.990945
11
2.33499
21
0.990945
0
LINE
8
BLACK
6
CONTINUOUS
10
2.33499
20
0.990945
11
2.33169
21
0.9916
0
LINE
8
BLACK
6
CONTINUOUS
10
2.33169
20
0.9916
11
2.3289
21
0.993467
0
LINE
8
BLACK
6
CONTINUOUS
10
2.3289
20
0.993467
11
2.32703
21
0.996261
0
LINE
8
BLACK
6
CONTINUOUS
10
2.32703
20
0.996261
11
2.32638
21
0.999557
0
LINE
8
BLACK
6
CONTINUOUS
10
2.32638
20
0.999557
11
2.32638
21
1.01678
0
LINE
8
BLACK
6
CONTINUOUS
10
2.32638
20
1.01678
11
2.32703
21
1.02008
0
LINE
8
BLACK
6
CONTINUOUS
10
2.32703
20
1.02008
11
2.3289
21
1.02287
0
LINE
8
BLACK
6
CONTINUOUS
10
2.3289
20
1.02287
11
2.33169
21
1.02474
0
LINE
8
BLACK
6
CONTINUOUS
10
2.33169
20
1.02474
11
2.33499
21
1.02539
0
LINE
8
BLACK
6
CONTINUOUS
10
2.33499
20
1.02539
11
2.36501
21
1.02539
0
LINE
8
BLACK
6
CONTINUOUS
10
2.36501
20
1.02539
11
2.36831
21
1.02474
0
LINE
8
BLACK
6
CONTINUOUS
10
0.908334
20
1.04583
11
0.911527
21
1.04369
0
LINE
8
BLACK
6
CONTINUOUS
10
0.911527
20
1.04369
11
0.91366
21
1.0405
0
LINE
8
BLACK
6
CONTINUOUS
10
0.91366
20
1.0405
11
0.914409
21
1.03673
0
LINE
8
BLACK
6
CONTINUOUS
10
0.914409
20
1.03673
11
0.914409
21
1.00327
0
LINE
8
BLACK
6
CONTINUOUS
10
0.914409
20
1.00327
11
0.91366
21
0.999501
0
LINE
8
BLACK
6
CONTINUOUS
10
0.91366
20
0.999501
11
0.911527
21
0.996308
0
LINE
8
BLACK
6
CONTINUOUS
10
0.911527
20
0.996308
11
0.908334
21
0.994174
0
LINE
8
BLACK
6
CONTINUOUS
10
0.908334
20
0.994174
11
0.904567
21
0.993425
0
LINE
8
BLACK
6
CONTINUOUS
10
0.904567
20
0.993425
11
0.869134
21
0.993425
0
LINE
8
BLACK
6
CONTINUOUS
10
0.869134
20
0.993425
11
0.865367
21
0.994174
0
LINE
8
BLACK
6
CONTINUOUS
10
0.865367
20
0.994174
11
0.862174
21
0.996308
0
LINE
8
BLACK
6
CONTINUOUS
10
0.862174
20
0.996308
11
0.860041
21
0.999501
0
LINE
8
BLACK
6
CONTINUOUS
10
0.860041
20
0.999501
11
0.859291
21
1.00327
0
LINE
8
BLACK
6
CONTINUOUS
10
0.859291
20
1.00327
11
0.859291
21
1.03673
0
LINE
8
BLACK
6
CONTINUOUS
10
0.859291
20
1.03673
11
0.860041
21
1.0405
0
LINE
8
BLACK
6
CONTINUOUS
10
0.860041
20
1.0405
11
0.862174
21
1.04369
0
LINE
8
BLACK
6
CONTINUOUS
10
0.862174
20
1.04369
11
0.865367
21
1.04583
0
LINE
8
BLACK
6
CONTINUOUS
10
0.865367
20
1.04583
11
0.869134
21
1.04657
0
LINE
8
BLACK
6
CONTINUOUS
10
0.869134
20
1.04657
11
0.904567
21
1.04657
0
LINE
8
BLACK
6
CONTINUOUS
10
0.904567
20
1.04657
11
0.908334
21
1.04583
0
LINE
8
BLACK
6
CONTINUOUS
10
1.01463
20
1.04583
11
1.01783
21
1.04369
0
LINE
8
BLACK
6
CONTINUOUS
10
1.01783
20
1.04369
11
1.01996
21
1.0405
0
LINE
8
BLACK
6
CONTINUOUS
10
1.01996
20
1.0405
11
1.02071
21
1.03673
0
LINE
8
BLACK
6
CONTINUOUS
10
1.02071
20
1.03673
11
1.02071
21
1.00327
0
LINE
8
BLACK
6
CONTINUOUS
10
1.02071
20
1.00327
11
1.01996
21
0.999501
0
LINE
8
BLACK
6
CONTINUOUS
10
1.01996
20
0.999501
11
1.01783
21
0.996308
0
LINE
8
BLACK
6
CONTINUOUS
10
1.01783
20
0.996308
11
1.01463
21
0.994174
0
LINE
8
BLACK
6
CONTINUOUS
10
1.01463
20
0.994174
11
1.01087
21
0.993425
0
LINE
8
BLACK
6
CONTINUOUS
10
1.01087
20
0.993425
11
0.975433
21
0.993425
0
LINE
8
BLACK
6
CONTINUOUS
10
0.975433
20
0.993425
11
0.971666
21
0.994174
0
LINE
8
BLACK
6
CONTINUOUS
10
0.971666
20
0.994174
11
0.968473
21
0.996308
0
LINE
8
BLACK
6
CONTINUOUS
10
0.968473
20
0.996308
11
0.96634
21
0.999501
0
LINE
8
BLACK
6
CONTINUOUS
10
0.96634
20
0.999501
11
0.965591
21
1.00327
0
LINE
8
BLACK
6
CONTINUOUS
10
0.965591
20
1.00327
11
0.965591
21
1.03673
0
LINE
8
BLACK
6
CONTINUOUS
10
0.965591
20
1.03673
11
0.96634
21
1.0405
0
LINE
8
BLACK
6
CONTINUOUS
10
0.96634
20
1.0405
11
0.968473
21
1.04369
0
LINE
8
BLACK
6
CONTINUOUS
10
0.968473
20
1.04369
11
0.971666
21
1.04583
0
LINE
8
BLACK
6
CONTINUOUS
10
0.971666
20
1.04583
11
0.975433
21
1.04657
0
LINE
8
BLACK
6
CONTINUOUS
10
0.975433
20
1.04657
11
1.01087
21
1.04657
0
LINE
8
BLACK
6
CONTINUOUS
10
1.01087
20
1.04657
11
1.01463
21
1.04583
0
LINE
8
BLACK
6
CONTINUOUS
10
1.2923
20
1.02136
11
1.29422
21
1.02008
0
LINE
8
BLACK
6
CONTINUOUS
10
1.29422
20
1.02008
11
1.2955
21
1.01817
0
LINE
8
BLACK
6
CONTINUOUS
10
1.2955
20
1.01817
11
1.29594
21
1.01591
0
LINE
8
BLACK
6
CONTINUOUS
10
1.29594
20
1.01591
11
1.29594
21
1.00409
0
LINE
8
BLACK
6
CONTINUOUS
10
1.29594
20
1.00409
11
1.2955
21
1.00183
0
LINE
8
BLACK
6
CONTINUOUS
10
1.2955
20
1.00183
11
1.29422
21
0.999919
0
LINE
8
BLACK
6
CONTINUOUS
10
1.29422
20
0.999919
11
1.2923
21
0.998639
0
LINE
8
BLACK
6
CONTINUOUS
10
1.2923
20
0.998639
11
1.29004
21
0.998189
0
LINE
8
BLACK
6
CONTINUOUS
10
1.29004
20
0.998189
11
1.22508
21
0.998189
0
LINE
8
BLACK
6
CONTINUOUS
10
1.22508
20
0.998189
11
1.22282
21
0.998639
0
LINE
8
BLACK
6
CONTINUOUS
10
1.22282
20
0.998639
11
1.2209
21
0.999919
0
LINE
8
BLACK
6
CONTINUOUS
10
1.2209
20
0.999919
11
1.21962
21
1.00183
0
LINE
8
BLACK
6
CONTINUOUS
10
1.21962
20
1.00183
11
1.21917
21
1.00409
0
LINE
8
BLACK
6
CONTINUOUS
10
1.21917
20
1.00409
11
1.21917
21
1.01591
0
LINE
8
BLACK
6
CONTINUOUS
10
1.21917
20
1.01591
11
1.21962
21
1.01817
0
LINE
8
BLACK
6
CONTINUOUS
10
1.21962
20
1.01817
11
1.2209
21
1.02008
0
LINE
8
BLACK
6
CONTINUOUS
10
1.2209
20
1.02008
11
1.22282
21
1.02136
0
LINE
8
BLACK
6
CONTINUOUS
10
1.22282
20
1.02136
11
1.22508
21
1.02181
0
LINE
8
BLACK
6
CONTINUOUS
10
1.22508
20
1.02181
11
1.29004
21
1.02181
0
LINE
8
BLACK
6
CONTINUOUS
10
1.29004
20
1.02181
11
1.2923
21
1.02136
0
LINE
8
BLACK
6
CONTINUOUS
10
1.48718
20
1.02136
11
1.4891
21
1.02008
0
LINE
8
BLACK
6
CONTINUOUS
10
1.4891
20
1.02008
11
1.49038
21
1.01817
0
LINE
8
BLACK
6
CONTINUOUS
10
1.49038
20
1.01817
11
1.49083
21
1.01591
0
LINE
8
BLACK
6
CONTINUOUS
10
1.49083
20
1.01591
11
1.49083
21
1.00409
0
LINE
8
BLACK
6
CONTINUOUS
10
1.49083
20
1.00409
11
1.49038
21
1.00183
0
LINE
8
BLACK
6
CONTINUOUS
10
1.49038
20
1.00183
11
1.4891
21
0.999919
0
LINE
8
BLACK
6
CONTINUOUS
10
1.4891
20
0.999919
11
1.48718
21
0.998639
0
LINE
8
BLACK
6
CONTINUOUS
10
1.48718
20
0.998639
11
1.48492
21
0.998189
0
LINE
8
BLACK
6
CONTINUOUS
10
1.48492
20
0.998189
11
1.41996
21
0.998189
0
LINE
8
BLACK
6
CONTINUOUS
10
1.41996
20
0.998189
11
1.4177
21
0.998639
0
LINE
8
BLACK
6
CONTINUOUS
10
1.4177
20
0.998639
11
1.41578
21
0.999919
0
LINE
8
BLACK
6
CONTINUOUS
10
1.41578
20
0.999919
11
1.4145
21
1.00183
0
LINE
8
BLACK
6
CONTINUOUS
10
1.4145
20
1.00183
11
1.41406
21
1.00409
0
LINE
8
BLACK
6
CONTINUOUS
10
1.41406
20
1.00409
11
1.41406
21
1.01591
0
LINE
8
BLACK
6
CONTINUOUS
10
1.41406
20
1.01591
11
1.4145
21
1.01817
0
LINE
8
BLACK
6
CONTINUOUS
10
1.4145
20
1.01817
11
1.41578
21
1.02008
0
LINE
8
BLACK
6
CONTINUOUS
10
1.41578
20
1.02008
11
1.4177
21
1.02136
0
LINE
8
BLACK
6
CONTINUOUS
10
1.4177
20
1.02136
11
1.41996
21
1.02181
0
LINE
8
BLACK
6
CONTINUOUS
10
1.41996
20
1.02181
11
1.48492
21
1.02181
0
LINE
8
BLACK
6
CONTINUOUS
10
1.48492
20
1.02181
11
1.48718
21
1.02136
0
LINE
8
BLACK
6
CONTINUOUS
10
1.10247
20
1.06653
11
1.10566
21
1.0644
0
LINE
8
BLACK
6
CONTINUOUS
10
1.10566
20
1.0644
11
1.10779
21
1.06121
0
LINE
8
BLACK
6
CONTINUOUS
10
1.10779
20
1.06121
11
1.10854
21
1.05744
0
LINE
8
BLACK
6
CONTINUOUS
10
1.10854
20
1.05744
11
1.10854
21
1.03776
0
LINE
8
BLACK
6
CONTINUOUS
10
1.10854
20
1.03776
11
1.10779
21
1.03399
0
LINE
8
BLACK
6
CONTINUOUS
10
1.10779
20
1.03399
11
1.10566
21
1.0308
0
LINE
8
BLACK
6
CONTINUOUS
10
1.10566
20
1.0308
11
1.10247
21
1.02866
0
LINE
8
BLACK
6
CONTINUOUS
10
1.10247
20
1.02866
11
1.0987
21
1.02791
0
LINE
8
BLACK
6
CONTINUOUS
10
1.0987
20
1.02791
11
1.0613
21
1.02791
0
LINE
8
BLACK
6
CONTINUOUS
10
1.0613
20
1.02791
11
1.05753
21
1.02866
0
LINE
8
BLACK
6
CONTINUOUS
10
1.05753
20
1.02866
11
1.05434
21
1.0308
0
LINE
8
BLACK
6
CONTINUOUS
10
1.05434
20
1.0308
11
1.05221
21
1.03399
0
LINE
8
BLACK
6
CONTINUOUS
10
1.05221
20
1.03399
11
1.05146
21
1.03776
0
LINE
8
BLACK
6
CONTINUOUS
10
1.05146
20
1.03776
11
1.05146
21
1.05744
0
LINE
8
BLACK
6
CONTINUOUS
10
1.05146
20
1.05744
11
1.05221
21
1.06121
0
LINE
8
BLACK
6
CONTINUOUS
10
1.05221
20
1.06121
11
1.05434
21
1.0644
0
LINE
8
BLACK
6
CONTINUOUS
10
1.05434
20
1.0644
11
1.05753
21
1.06653
0
LINE
8
BLACK
6
CONTINUOUS
10
1.05753
20
1.06653
11
1.0613
21
1.06728
0
LINE
8
BLACK
6
CONTINUOUS
10
1.0613
20
1.06728
11
1.0987
21
1.06728
0
LINE
8
BLACK
6
CONTINUOUS
10
1.0987
20
1.06728
11
1.10247
21
1.06653
0
LINE
8
BLACK
6
CONTINUOUS
10
1.17648
20
1.0685
11
1.17968
21
1.06637
0
LINE
8
BLACK
6
CONTINUOUS
10
1.17968
20
1.06637
11
1.18181
21
1.06318
0
LINE
8
BLACK
6
CONTINUOUS
10
1.18181
20
1.06318
11
1.18256
21
1.05941
0
LINE
8
BLACK
6
CONTINUOUS
10
1.18256
20
1.05941
11
1.18256
21
1.03874
0
LINE
8
BLACK
6
CONTINUOUS
10
1.18256
20
1.03874
11
1.18181
21
1.03497
0
LINE
8
BLACK
6
CONTINUOUS
10
1.18181
20
1.03497
11
1.17968
21
1.03178
0
LINE
8
BLACK
6
CONTINUOUS
10
1.17968
20
1.03178
11
1.17648
21
1.02965
0
LINE
8
BLACK
6
CONTINUOUS
10
1.17648
20
1.02965
11
1.17272
21
1.0289
0
LINE
8
BLACK
6
CONTINUOUS
10
1.17272
20
1.0289
11
1.13728
21
1.0289
0
LINE
8
BLACK
6
CONTINUOUS
10
1.13728
20
1.0289
11
1.13352
21
1.02965
0
LINE
8
BLACK
6
CONTINUOUS
10
1.13352
20
1.02965
11
1.13032
21
1.03178
0
LINE
8
BLACK
6
CONTINUOUS
10
1.13032
20
1.03178
11
1.12819
21
1.03497
0
LINE
8
BLACK
6
CONTINUOUS
10
1.12819
20
1.03497
11
1.12744
21
1.03874
0
LINE
8
BLACK
6
CONTINUOUS
10
1.12744
20
1.03874
11
1.12744
21
1.05941
0
LINE
8
BLACK
6
CONTINUOUS
10
1.12744
20
1.05941
11
1.12819
21
1.06318
0
LINE
8
BLACK
6
CONTINUOUS
10
1.12819
20
1.06318
11
1.13032
21
1.06637
0
LINE
8
BLACK
6
CONTINUOUS
10
1.13032
20
1.06637
11
1.13352
21
1.0685
0
LINE
8
BLACK
6
CONTINUOUS
10
1.13352
20
1.0685
11
1.13728
21
1.06925
0
LINE
8
BLACK
6
CONTINUOUS
10
1.13728
20
1.06925
11
1.17272
21
1.06925
0
LINE
8
BLACK
6
CONTINUOUS
10
1.17272
20
1.06925
11
1.17648
21
1.0685
0
LINE
8
BLACK
6
CONTINUOUS
10
0.793701
20
1.04331
11
0.754331
21
1.04331
0
LINE
8
BLACK
6
CONTINUOUS
10
0.754331
20
1.04331
11
0.754331
21
1.19291
0
LINE
8
BLACK
6
CONTINUOUS
10
0.754331
20
1.19291
11
0.793701
21
1.19291
0
LINE
8
BLACK
6
CONTINUOUS
10
0.793701
20
1.19291
11
0.793701
21
1.04331
0
LINE
8
BLACK
6
CONTINUOUS
10
2.04567
20
1.04331
11
2.0063
21
1.04331
0
LINE
8
BLACK
6
CONTINUOUS
10
2.0063
20
1.04331
11
2.0063
21
1.19291
0
LINE
8
BLACK
6
CONTINUOUS
10
2.0063
20
1.19291
11
2.04567
21
1.19291
0
LINE
8
BLACK
6
CONTINUOUS
10
2.04567
20
1.19291
11
2.04567
21
1.04331
0
LINE
8
BLACK
6
CONTINUOUS
10
1.2923
20
1.07136
11
1.29422
21
1.07008
0
LINE
8
BLACK
6
CONTINUOUS
10
1.29422
20
1.07008
11
1.2955
21
1.06817
0
LINE
8
BLACK
6
CONTINUOUS
10
1.2955
20
1.06817
11
1.29594
21
1.06591
0
LINE
8
BLACK
6
CONTINUOUS
10
1.29594
20
1.06591
11
1.29594
21
1.05409
0
LINE
8
BLACK
6
CONTINUOUS
10
1.29594
20
1.05409
11
1.2955
21
1.05183
0
LINE
8
BLACK
6
CONTINUOUS
10
1.2955
20
1.05183
11
1.29422
21
1.04992
0
LINE
8
BLACK
6
CONTINUOUS
10
1.29422
20
1.04992
11
1.2923
21
1.04864
0
LINE
8
BLACK
6
CONTINUOUS
10
1.2923
20
1.04864
11
1.29004
21
1.04819
0
LINE
8
BLACK
6
CONTINUOUS
10
1.29004
20
1.04819
11
1.22508
21
1.04819
0
LINE
8
BLACK
6
CONTINUOUS
10
1.22508
20
1.04819
11
1.22282
21
1.04864
0
LINE
8
BLACK
6
CONTINUOUS
10
1.22282
20
1.04864
11
1.2209
21
1.04992
0
LINE
8
BLACK
6
CONTINUOUS
10
1.2209
20
1.04992
11
1.21962
21
1.05183
0
LINE
8
BLACK
6
CONTINUOUS
10
1.21962
20
1.05183
11
1.21917
21
1.05409
0
LINE
8
BLACK
6
CONTINUOUS
10
1.21917
20
1.05409
11
1.21917
21
1.06591
0
LINE
8
BLACK
6
CONTINUOUS
10
1.21917
20
1.06591
11
1.21962
21
1.06817
0
LINE
8
BLACK
6
CONTINUOUS
10
1.21962
20
1.06817
11
1.2209
21
1.07008
0
LINE
8
BLACK
6
CONTINUOUS
10
1.2209
20
1.07008
11
1.22282
21
1.07136
0
LINE
8
BLACK
6
CONTINUOUS
10
1.22282
20
1.07136
11
1.22508
21
1.07181
0
LINE
8
BLACK
6
CONTINUOUS
10
1.22508
20
1.07181
11
1.29004
21
1.07181
0
LINE
8
BLACK
6
CONTINUOUS
10
1.29004
20
1.07181
11
1.2923
21
1.07136
0
LINE
8
BLACK
6
CONTINUOUS
10
1.48718
20
1.07136
11
1.4891
21
1.07008
0
LINE
8
BLACK
6
CONTINUOUS
10
1.4891
20
1.07008
11
1.49038
21
1.06817
0
LINE
8
BLACK
6
CONTINUOUS
10
1.49038
20
1.06817
11
1.49083
21
1.06591
0
LINE
8
BLACK
6
CONTINUOUS
10
1.49083
20
1.06591
11
1.49083
21
1.05409
0
LINE
8
BLACK
6
CONTINUOUS
10
1.49083
20
1.05409
11
1.49038
21
1.05183
0
LINE
8
BLACK
6
CONTINUOUS
10
1.49038
20
1.05183
11
1.4891
21
1.04992
0
LINE
8
BLACK
6
CONTINUOUS
10
1.4891
20
1.04992
11
1.48718
21
1.04864
0
LINE
8
BLACK
6
CONTINUOUS
10
1.48718
20
1.04864
11
1.48492
21
1.04819
0
LINE
8
BLACK
6
CONTINUOUS
10
1.48492
20
1.04819
11
1.41996
21
1.04819
0
LINE
8
BLACK
6
CONTINUOUS
10
1.41996
20
1.04819
11
1.4177
21
1.04864
0
LINE
8
BLACK
6
CONTINUOUS
10
1.4177
20
1.04864
11
1.41578
21
1.04992
0
LINE
8
BLACK
6
CONTINUOUS
10
1.41578
20
1.04992
11
1.4145
21
1.05183
0
LINE
8
BLACK
6
CONTINUOUS
10
1.4145
20
1.05183
11
1.41406
21
1.05409
0
LINE
8
BLACK
6
CONTINUOUS
10
1.41406
20
1.05409
11
1.41406
21
1.06591
0
LINE
8
BLACK
6
CONTINUOUS
10
1.41406
20
1.06591
11
1.4145
21
1.06817
0
LINE
8
BLACK
6
CONTINUOUS
10
1.4145
20
1.06817
11
1.41578
21
1.07008
0
LINE
8
BLACK
6
CONTINUOUS
10
1.41578
20
1.07008
11
1.4177
21
1.07136
0
LINE
8
BLACK
6
CONTINUOUS
10
1.4177
20
1.07136
11
1.41996
21
1.07181
0
LINE
8
BLACK
6
CONTINUOUS
10
1.41996
20
1.07181
11
1.48492
21
1.07181
0
LINE
8
BLACK
6
CONTINUOUS
10
1.48492
20
1.07181
11
1.48718
21
1.07136
0
LINE
8
BLACK
6
CONTINUOUS
10
1.66648
20
1.1085
11
1.66968
21
1.10637
0
LINE
8
BLACK
6
CONTINUOUS
10
1.66968
20
1.10637
11
1.67181
21
1.10318
0
LINE
8
BLACK
6
CONTINUOUS
10
1.67181
20
1.10318
11
1.67256
21
1.09941
0
LINE
8
BLACK
6
CONTINUOUS
10
1.67256
20
1.09941
11
1.67256
21
1.07874
0
LINE
8
BLACK
6
CONTINUOUS
10
1.67256
20
1.07874
11
1.67181
21
1.07497
0
LINE
8
BLACK
6
CONTINUOUS
10
1.67181
20
1.07497
11
1.66968
21
1.07178
0
LINE
8
BLACK
6
CONTINUOUS
10
1.66968
20
1.07178
11
1.66648
21
1.06965
0
LINE
8
BLACK
6
CONTINUOUS
10
1.66648
20
1.06965
11
1.66272
21
1.0689
0
LINE
8
BLACK
6
CONTINUOUS
10
1.66272
20
1.0689
11
1.62728
21
1.0689
0
LINE
8
BLACK
6
CONTINUOUS
10
1.62728
20
1.0689
11
1.62352
21
1.06965
0
LINE
8
BLACK
6
CONTINUOUS
10
1.62352
20
1.06965
11
1.62032
21
1.07178
0
LINE
8
BLACK
6
CONTINUOUS
10
1.62032
20
1.07178
11
1.61819
21
1.07497
0
LINE
8
BLACK
6
CONTINUOUS
10
1.61819
20
1.07497
11
1.61744
21
1.07874
0
LINE
8
BLACK
6
CONTINUOUS
10
1.61744
20
1.07874
11
1.61744
21
1.09941
0
LINE
8
BLACK
6
CONTINUOUS
10
1.61744
20
1.09941
11
1.61819
21
1.10318
0
LINE
8
BLACK
6
CONTINUOUS
10
1.61819
20
1.10318
11
1.62032
21
1.10637
0
LINE
8
BLACK
6
CONTINUOUS
10
1.62032
20
1.10637
11
1.62352
21
1.1085
0
LINE
8
BLACK
6
CONTINUOUS
10
1.62352
20
1.1085
11
1.62728
21
1.10925
0
LINE
8
BLACK
6
CONTINUOUS
10
1.62728
20
1.10925
11
1.66272
21
1.10925
0
LINE
8
BLACK
6
CONTINUOUS
10
1.66272
20
1.10925
11
1.66648
21
1.1085
0
LINE
8
BLACK
6
CONTINUOUS
10
1.58247
20
1.11153
11
1.58566
21
1.1094
0
LINE
8
BLACK
6
CONTINUOUS
10
1.58566
20
1.1094
11
1.58779
21
1.10621
0
LINE
8
BLACK
6
CONTINUOUS
10
1.58779
20
1.10621
11
1.58854
21
1.10244
0
LINE
8
BLACK
6
CONTINUOUS
10
1.58854
20
1.10244
11
1.58854
21
1.08276
0
LINE
8
BLACK
6
CONTINUOUS
10
1.58854
20
1.08276
11
1.58779
21
1.07899
0
LINE
8
BLACK
6
CONTINUOUS
10
1.58779
20
1.07899
11
1.58566
21
1.0758
0
LINE
8
BLACK
6
CONTINUOUS
10
1.58566
20
1.0758
11
1.58247
21
1.07366
0
LINE
8
BLACK
6
CONTINUOUS
10
1.58247
20
1.07366
11
1.5787
21
1.07291
0
LINE
8
BLACK
6
CONTINUOUS
10
1.5787
20
1.07291
11
1.5413
21
1.07291
0
LINE
8
BLACK
6
CONTINUOUS
10
1.5413
20
1.07291
11
1.53753
21
1.07366
0
LINE
8
BLACK
6
CONTINUOUS
10
1.53753
20
1.07366
11
1.53434
21
1.0758
0
LINE
8
BLACK
6
CONTINUOUS
10
1.53434
20
1.0758
11
1.53221
21
1.07899
0
LINE
8
BLACK
6
CONTINUOUS
10
1.53221
20
1.07899
11
1.53146
21
1.08276
0
LINE
8
BLACK
6
CONTINUOUS
10
1.53146
20
1.08276
11
1.53146
21
1.10244
0
LINE
8
BLACK
6
CONTINUOUS
10
1.53146
20
1.10244
11
1.53221
21
1.10621
0
LINE
8
BLACK
6
CONTINUOUS
10
1.53221
20
1.10621
11
1.53434
21
1.1094
0
LINE
8
BLACK
6
CONTINUOUS
10
1.53434
20
1.1094
11
1.53753
21
1.11153
0
LINE
8
BLACK
6
CONTINUOUS
10
1.53753
20
1.11153
11
1.5413
21
1.11228
0
LINE
8
BLACK
6
CONTINUOUS
10
1.5413
20
1.11228
11
1.5787
21
1.11228
0
LINE
8
BLACK
6
CONTINUOUS
10
1.5787
20
1.11228
11
1.58247
21
1.11153
0
LINE
8
BLACK
6
CONTINUOUS
10
0.901483
20
1.1135
11
0.904676
21
1.11137
0
LINE
8
BLACK
6
CONTINUOUS
10
0.904676
20
1.11137
11
0.90681
21
1.10818
0
LINE
8
BLACK
6
CONTINUOUS
10
0.90681
20
1.10818
11
0.907559
21
1.10441
0
LINE
8
BLACK
6
CONTINUOUS
10
0.907559
20
1.10441
11
0.907559
21
1.08374
0
LINE
8
BLACK
6
CONTINUOUS
10
0.907559
20
1.08374
11
0.90681
21
1.07997
0
LINE
8
BLACK
6
CONTINUOUS
10
0.90681
20
1.07997
11
0.904676
21
1.07678
0
LINE
8
BLACK
6
CONTINUOUS
10
0.904676
20
1.07678
11
0.901483
21
1.07465
0
LINE
8
BLACK
6
CONTINUOUS
10
0.901483
20
1.07465
11
0.897717
21
1.0739
0
LINE
8
BLACK
6
CONTINUOUS
10
0.897717
20
1.0739
11
0.862283
21
1.0739
0
LINE
8
BLACK
6
CONTINUOUS
10
0.862283
20
1.0739
11
0.858517
21
1.07465
0
LINE
8
BLACK
6
CONTINUOUS
10
0.858517
20
1.07465
11
0.855324
21
1.07678
0
LINE
8
BLACK
6
CONTINUOUS
10
0.855324
20
1.07678
11
0.85319
21
1.07997
0
LINE
8
BLACK
6
CONTINUOUS
10
0.85319
20
1.07997
11
0.852441
21
1.08374
0
LINE
8
BLACK
6
CONTINUOUS
10
0.852441
20
1.08374
11
0.852441
21
1.10441
0
LINE
8
BLACK
6
CONTINUOUS
10
0.852441
20
1.10441
11
0.85319
21
1.10818
0
LINE
8
BLACK
6
CONTINUOUS
10
0.85319
20
1.10818
11
0.855324
21
1.11137
0
LINE
8
BLACK
6
CONTINUOUS
10
0.855324
20
1.11137
11
0.858517
21
1.1135
0
LINE
8
BLACK
6
CONTINUOUS
10
0.858517
20
1.1135
11
0.862283
21
1.11425
0
LINE
8
BLACK
6
CONTINUOUS
10
0.862283
20
1.11425
11
0.897717
21
1.11425
0
LINE
8
BLACK
6
CONTINUOUS
10
0.897717
20
1.11425
11
0.901483
21
1.1135
0
LINE
8
BLACK
6
CONTINUOUS
10
2.36831
20
1.1084
11
2.3711
21
1.10653
0
LINE
8
BLACK
6
CONTINUOUS
10
2.3711
20
1.10653
11
2.37297
21
1.10374
0
LINE
8
BLACK
6
CONTINUOUS
10
2.37297
20
1.10374
11
2.37362
21
1.10044
0
LINE
8
BLACK
6
CONTINUOUS
10
2.37362
20
1.10044
11
2.37362
21
1.08322
0
LINE
8
BLACK
6
CONTINUOUS
10
2.37362
20
1.08322
11
2.37297
21
1.07992
0
LINE
8
BLACK
6
CONTINUOUS
10
2.37297
20
1.07992
11
2.3711
21
1.07713
0
LINE
8
BLACK
6
CONTINUOUS
10
2.3711
20
1.07713
11
2.36831
21
1.07526
0
LINE
8
BLACK
6
CONTINUOUS
10
2.36831
20
1.07526
11
2.36501
21
1.07461
0
LINE
8
BLACK
6
CONTINUOUS
10
2.36501
20
1.07461
11
2.33499
21
1.07461
0
LINE
8
BLACK
6
CONTINUOUS
10
2.33499
20
1.07461
11
2.33169
21
1.07526
0
LINE
8
BLACK
6
CONTINUOUS
10
2.33169
20
1.07526
11
2.3289
21
1.07713
0
LINE
8
BLACK
6
CONTINUOUS
10
2.3289
20
1.07713
11
2.32703
21
1.07992
0
LINE
8
BLACK
6
CONTINUOUS
10
2.32703
20
1.07992
11
2.32638
21
1.08322
0
LINE
8
BLACK
6
CONTINUOUS
10
2.32638
20
1.08322
11
2.32638
21
1.10044
0
LINE
8
BLACK
6
CONTINUOUS
10
2.32638
20
1.10044
11
2.32703
21
1.10374
0
LINE
8
BLACK
6
CONTINUOUS
10
2.32703
20
1.10374
11
2.3289
21
1.10653
0
LINE
8
BLACK
6
CONTINUOUS
10
2.3289
20
1.10653
11
2.33169
21
1.1084
0
LINE
8
BLACK
6
CONTINUOUS
10
2.33169
20
1.1084
11
2.33499
21
1.10906
0
LINE
8
BLACK
6
CONTINUOUS
10
2.33499
20
1.10906
11
2.36501
21
1.10906
0
LINE
8
BLACK
6
CONTINUOUS
10
2.36501
20
1.10906
11
2.36831
21
1.1084
0
LINE
8
BLACK
6
CONTINUOUS
10
0.582231
20
1.12964
11
0.585424
21
1.12751
0
LINE
8
BLACK
6
CONTINUOUS
10
0.585424
20
1.12751
11
0.587558
21
1.12432
0
LINE
8
BLACK
6
CONTINUOUS
10
0.587558
20
1.12432
11
0.588307
21
1.12055
0
LINE
8
BLACK
6
CONTINUOUS
10
0.588307
20
1.12055
11
0.588307
21
1.08709
0
LINE
8
BLACK
6
CONTINUOUS
10
0.588307
20
1.08709
11
0.587558
21
1.08332
0
LINE
8
BLACK
6
CONTINUOUS
10
0.587558
20
1.08332
11
0.585424
21
1.08013
0
LINE
8
BLACK
6
CONTINUOUS
10
0.585424
20
1.08013
11
0.582231
21
1.07799
0
LINE
8
BLACK
6
CONTINUOUS
10
0.582231
20
1.07799
11
0.578465
21
1.07724
0
LINE
8
BLACK
6
CONTINUOUS
10
0.578465
20
1.07724
11
0.543031
21
1.07724
0
LINE
8
BLACK
6
CONTINUOUS
10
0.543031
20
1.07724
11
0.539265
21
1.07799
0
LINE
8
BLACK
6
CONTINUOUS
10
0.539265
20
1.07799
11
0.536072
21
1.08013
0
LINE
8
BLACK
6
CONTINUOUS
10
0.536072
20
1.08013
11
0.533938
21
1.08332
0
LINE
8
BLACK
6
CONTINUOUS
10
0.533938
20
1.08332
11
0.533189
21
1.08709
0
LINE
8
BLACK
6
CONTINUOUS
10
0.533189
20
1.08709
11
0.533189
21
1.12055
0
LINE
8
BLACK
6
CONTINUOUS
10
0.533189
20
1.12055
11
0.533938
21
1.12432
0
LINE
8
BLACK
6
CONTINUOUS
10
0.533938
20
1.12432
11
0.536072
21
1.12751
0
LINE
8
BLACK
6
CONTINUOUS
10
0.536072
20
1.12751
11
0.539265
21
1.12964
0
LINE
8
BLACK
6
CONTINUOUS
10
0.539265
20
1.12964
11
0.543031
21
1.13039
0
LINE
8
BLACK
6
CONTINUOUS
10
0.543031
20
1.13039
11
0.578465
21
1.13039
0
LINE
8
BLACK
6
CONTINUOUS
10
0.578465
20
1.13039
11
0.582231
21
1.12964
0
LINE
8
BLACK
6
CONTINUOUS
10
0.68853
20
1.12964
11
0.691724
21
1.12751
0
LINE
8
BLACK
6
CONTINUOUS
10
0.691724
20
1.12751
11
0.693857
21
1.12432
0
LINE
8
BLACK
6
CONTINUOUS
10
0.693857
20
1.12432
11
0.694606
21
1.12055
0
LINE
8
BLACK
6
CONTINUOUS
10
0.694606
20
1.12055
11
0.694606
21
1.08709
0
LINE
8
BLACK
6
CONTINUOUS
10
0.694606
20
1.08709
11
0.693857
21
1.08332
0
LINE
8
BLACK
6
CONTINUOUS
10
0.693857
20
1.08332
11
0.691724
21
1.08013
0
LINE
8
BLACK
6
CONTINUOUS
10
0.691724
20
1.08013
11
0.68853
21
1.07799
0
LINE
8
BLACK
6
CONTINUOUS
10
0.68853
20
1.07799
11
0.684764
21
1.07724
0
LINE
8
BLACK
6
CONTINUOUS
10
0.684764
20
1.07724
11
0.649331
21
1.07724
0
LINE
8
BLACK
6
CONTINUOUS
10
0.649331
20
1.07724
11
0.645564
21
1.07799
0
LINE
8
BLACK
6
CONTINUOUS
10
0.645564
20
1.07799
11
0.642371
21
1.08013
0
LINE
8
BLACK
6
CONTINUOUS
10
0.642371
20
1.08013
11
0.640237
21
1.08332
0
LINE
8
BLACK
6
CONTINUOUS
10
0.640237
20
1.08332
11
0.639488
21
1.08709
0
LINE
8
BLACK
6
CONTINUOUS
10
0.639488
20
1.08709
11
0.639488
21
1.12055
0
LINE
8
BLACK
6
CONTINUOUS
10
0.639488
20
1.12055
11
0.640237
21
1.12432
0
LINE
8
BLACK
6
CONTINUOUS
10
0.640237
20
1.12432
11
0.642371
21
1.12751
0
LINE
8
BLACK
6
CONTINUOUS
10
0.642371
20
1.12751
11
0.645564
21
1.12964
0
LINE
8
BLACK
6
CONTINUOUS
10
0.645564
20
1.12964
11
0.649331
21
1.13039
0
LINE
8
BLACK
6
CONTINUOUS
10
0.649331
20
1.13039
11
0.684764
21
1.13039
0
LINE
8
BLACK
6
CONTINUOUS
10
0.684764
20
1.13039
11
0.68853
21
1.12964
0
LINE
8
BLACK
6
CONTINUOUS
10
1.2923
20
1.12136
11
1.29422
21
1.12008
0
LINE
8
BLACK
6
CONTINUOUS
10
1.29422
20
1.12008
11
1.2955
21
1.11817
0
LINE
8
BLACK
6
CONTINUOUS
10
1.2955
20
1.11817
11
1.29594
21
1.11591
0
LINE
8
BLACK
6
CONTINUOUS
10
1.29594
20
1.11591
11
1.29594
21
1.10409
0
LINE
8
BLACK
6
CONTINUOUS
10
1.29594
20
1.10409
11
1.2955
21
1.10183
0
LINE
8
BLACK
6
CONTINUOUS
10
1.2955
20
1.10183
11
1.29422
21
1.09992
0
LINE
8
BLACK
6
CONTINUOUS
10
1.29422
20
1.09992
11
1.2923
21
1.09864
0
LINE
8
BLACK
6
CONTINUOUS
10
1.2923
20
1.09864
11
1.29004
21
1.09819
0
LINE
8
BLACK
6
CONTINUOUS
10
1.29004
20
1.09819
11
1.22508
21
1.09819
0
LINE
8
BLACK
6
CONTINUOUS
10
1.22508
20
1.09819
11
1.22282
21
1.09864
0
LINE
8
BLACK
6
CONTINUOUS
10
1.22282
20
1.09864
11
1.2209
21
1.09992
0
LINE
8
BLACK
6
CONTINUOUS
10
1.2209
20
1.09992
11
1.21962
21
1.10183
0
LINE
8
BLACK
6
CONTINUOUS
10
1.21962
20
1.10183
11
1.21917
21
1.10409
0
LINE
8
BLACK
6
CONTINUOUS
10
1.21917
20
1.10409
11
1.21917
21
1.11591
0
LINE
8
BLACK
6
CONTINUOUS
10
1.21917
20
1.11591
11
1.21962
21
1.11817
0
LINE
8
BLACK
6
CONTINUOUS
10
1.21962
20
1.11817
11
1.2209
21
1.12008
0
LINE
8
BLACK
6
CONTINUOUS
10
1.2209
20
1.12008
11
1.22282
21
1.12136
0
LINE
8
BLACK
6
CONTINUOUS
10
1.22282
20
1.12136
11
1.22508
21
1.12181
0
LINE
8
BLACK
6
CONTINUOUS
10
1.22508
20
1.12181
11
1.29004
21
1.12181
0
LINE
8
BLACK
6
CONTINUOUS
10
1.29004
20
1.12181
11
1.2923
21
1.12136
0
LINE
8
BLACK
6
CONTINUOUS
10
1.48718
20
1.12136
11
1.4891
21
1.12008
0
LINE
8
BLACK
6
CONTINUOUS
10
1.4891
20
1.12008
11
1.49038
21
1.11817
0
LINE
8
BLACK
6
CONTINUOUS
10
1.49038
20
1.11817
11
1.49083
21
1.11591
0
LINE
8
BLACK
6
CONTINUOUS
10
1.49083
20
1.11591
11
1.49083
21
1.10409
0
LINE
8
BLACK
6
CONTINUOUS
10
1.49083
20
1.10409
11
1.49038
21
1.10183
0
LINE
8
BLACK
6
CONTINUOUS
10
1.49038
20
1.10183
11
1.4891
21
1.09992
0
LINE
8
BLACK
6
CONTINUOUS
10
1.4891
20
1.09992
11
1.48718
21
1.09864
0
LINE
8
BLACK
6
CONTINUOUS
10
1.48718
20
1.09864
11
1.48492
21
1.09819
0
LINE
8
BLACK
6
CONTINUOUS
10
1.48492
20
1.09819
11
1.41996
21
1.09819
0
LINE
8
BLACK
6
CONTINUOUS
10
1.41996
20
1.09819
11
1.4177
21
1.09864
0
LINE
8
BLACK
6
CONTINUOUS
10
1.4177
20
1.09864
11
1.41578
21
1.09992
0
LINE
8
BLACK
6
CONTINUOUS
10
1.41578
20
1.09992
11
1.4145
21
1.10183
0
LINE
8
BLACK
6
CONTINUOUS
10
1.4145
20
1.10183
11
1.41406
21
1.10409
0
LINE
8
BLACK
6
CONTINUOUS
10
1.41406
20
1.10409
11
1.41406
21
1.11591
0
LINE
8
BLACK
6
CONTINUOUS
10
1.41406
20
1.11591
11
1.4145
21
1.11817
0
LINE
8
BLACK
6
CONTINUOUS
10
1.4145
20
1.11817
11
1.41578
21
1.12008
0
LINE
8
BLACK
6
CONTINUOUS
10
1.41578
20
1.12008
11
1.4177
21
1.12136
0
LINE
8
BLACK
6
CONTINUOUS
10
1.4177
20
1.12136
11
1.41996
21
1.12181
0
LINE
8
BLACK
6
CONTINUOUS
10
1.41996
20
1.12181
11
1.48492
21
1.12181
0
LINE
8
BLACK
6
CONTINUOUS
10
1.48492
20
1.12181
11
1.48718
21
1.12136
0
LINE
8
BLACK
6
CONTINUOUS
10
1.17648
20
1.14035
11
1.17968
21
1.13822
0
LINE
8
BLACK
6
CONTINUOUS
10
1.17968
20
1.13822
11
1.18181
21
1.13503
0
LINE
8
BLACK
6
CONTINUOUS
10
1.18181
20
1.13503
11
1.18256
21
1.13126
0
LINE
8
BLACK
6
CONTINUOUS
10
1.18256
20
1.13126
11
1.18256
21
1.11059
0
LINE
8
BLACK
6
CONTINUOUS
10
1.18256
20
1.11059
11
1.18181
21
1.10682
0
LINE
8
BLACK
6
CONTINUOUS
10
1.18181
20
1.10682
11
1.17968
21
1.10363
0
LINE
8
BLACK
6
CONTINUOUS
10
1.17968
20
1.10363
11
1.17648
21
1.1015
0
LINE
8
BLACK
6
CONTINUOUS
10
1.17648
20
1.1015
11
1.17272
21
1.10075
0
LINE
8
BLACK
6
CONTINUOUS
10
1.17272
20
1.10075
11
1.13728
21
1.10075
0
LINE
8
BLACK
6
CONTINUOUS
10
1.13728
20
1.10075
11
1.13352
21
1.1015
0
LINE
8
BLACK
6
CONTINUOUS
10
1.13352
20
1.1015
11
1.13032
21
1.10363
0
LINE
8
BLACK
6
CONTINUOUS
10
1.13032
20
1.10363
11
1.12819
21
1.10682
0
LINE
8
BLACK
6
CONTINUOUS
10
1.12819
20
1.10682
11
1.12744
21
1.11059
0
LINE
8
BLACK
6
CONTINUOUS
10
1.12744
20
1.11059
11
1.12744
21
1.13126
0
LINE
8
BLACK
6
CONTINUOUS
10
1.12744
20
1.13126
11
1.12819
21
1.13503
0
LINE
8
BLACK
6
CONTINUOUS
10
1.12819
20
1.13503
11
1.13032
21
1.13822
0
LINE
8
BLACK
6
CONTINUOUS
10
1.13032
20
1.13822
11
1.13352
21
1.14035
0
LINE
8
BLACK
6
CONTINUOUS
10
1.13352
20
1.14035
11
1.13728
21
1.1411
0
LINE
8
BLACK
6
CONTINUOUS
10
1.13728
20
1.1411
11
1.17272
21
1.1411
0
LINE
8
BLACK
6
CONTINUOUS
10
1.17272
20
1.1411
11
1.17648
21
1.14035
0
LINE
8
BLACK
6
CONTINUOUS
10
1.10247
20
1.14134
11
1.10566
21
1.1392
0
LINE
8
BLACK
6
CONTINUOUS
10
1.10566
20
1.1392
11
1.10779
21
1.13601
0
LINE
8
BLACK
6
CONTINUOUS
10
1.10779
20
1.13601
11
1.10854
21
1.13224
0
LINE
8
BLACK
6
CONTINUOUS
10
1.10854
20
1.13224
11
1.10854
21
1.11256
0
LINE
8
BLACK
6
CONTINUOUS
10
1.10854
20
1.11256
11
1.10779
21
1.10879
0
LINE
8
BLACK
6
CONTINUOUS
10
1.10779
20
1.10879
11
1.10566
21
1.1056
0
LINE
8
BLACK
6
CONTINUOUS
10
1.10566
20
1.1056
11
1.10247
21
1.10347
0
LINE
8
BLACK
6
CONTINUOUS
10
1.10247
20
1.10347
11
1.0987
21
1.10272
0
LINE
8
BLACK
6
CONTINUOUS
10
1.0987
20
1.10272
11
1.0613
21
1.10272
0
LINE
8
BLACK
6
CONTINUOUS
10
1.0613
20
1.10272
11
1.05753
21
1.10347
0
LINE
8
BLACK
6
CONTINUOUS
10
1.05753
20
1.10347
11
1.05434
21
1.1056
0
LINE
8
BLACK
6
CONTINUOUS
10
1.05434
20
1.1056
11
1.05221
21
1.10879
0
LINE
8
BLACK
6
CONTINUOUS
10
1.05221
20
1.10879
11
1.05146
21
1.11256
0
LINE
8
BLACK
6
CONTINUOUS
10
1.05146
20
1.11256
11
1.05146
21
1.13224
0
LINE
8
BLACK
6
CONTINUOUS
10
1.05146
20
1.13224
11
1.05221
21
1.13601
0
LINE
8
BLACK
6
CONTINUOUS
10
1.05221
20
1.13601
11
1.05434
21
1.1392
0
LINE
8
BLACK
6
CONTINUOUS
10
1.05434
20
1.1392
11
1.05753
21
1.14134
0
LINE
8
BLACK
6
CONTINUOUS
10
1.05753
20
1.14134
11
1.0613
21
1.14209
0
LINE
8
BLACK
6
CONTINUOUS
10
1.0613
20
1.14209
11
1.0987
21
1.14209
0
LINE
8
BLACK
6
CONTINUOUS
10
1.0987
20
1.14209
11
1.10247
21
1.14134
0
LINE
8
BLACK
6
CONTINUOUS
10
1.66648
20
1.18035
11
1.66968
21
1.17822
0
LINE
8
BLACK
6
CONTINUOUS
10
1.66968
20
1.17822
11
1.67181
21
1.17503
0
LINE
8
BLACK
6
CONTINUOUS
10
1.67181
20
1.17503
11
1.67256
21
1.17126
0
LINE
8
BLACK
6
CONTINUOUS
10
1.67256
20
1.17126
11
1.67256
21
1.15059
0
LINE
8
BLACK
6
CONTINUOUS
10
1.67256
20
1.15059
11
1.67181
21
1.14682
0
LINE
8
BLACK
6
CONTINUOUS
10
1.67181
20
1.14682
11
1.66968
21
1.14363
0
LINE
8
BLACK
6
CONTINUOUS
10
1.66968
20
1.14363
11
1.66648
21
1.1415
0
LINE
8
BLACK
6
CONTINUOUS
10
1.66648
20
1.1415
11
1.66272
21
1.14075
0
LINE
8
BLACK
6
CONTINUOUS
10
1.66272
20
1.14075
11
1.62728
21
1.14075
0
LINE
8
BLACK
6
CONTINUOUS
10
1.62728
20
1.14075
11
1.62352
21
1.1415
0
LINE
8
BLACK
6
CONTINUOUS
10
1.62352
20
1.1415
11
1.62032
21
1.14363
0
LINE
8
BLACK
6
CONTINUOUS
10
1.62032
20
1.14363
11
1.61819
21
1.14682
0
LINE
8
BLACK
6
CONTINUOUS
10
1.61819
20
1.14682
11
1.61744
21
1.15059
0
LINE
8
BLACK
6
CONTINUOUS
10
1.61744
20
1.15059
11
1.61744
21
1.17126
0
LINE
8
BLACK
6
CONTINUOUS
10
1.61744
20
1.17126
11
1.61819
21
1.17503
0
LINE
8
BLACK
6
CONTINUOUS
10
1.61819
20
1.17503
11
1.62032
21
1.17822
0
LINE
8
BLACK
6
CONTINUOUS
10
1.62032
20
1.17822
11
1.62352
21
1.18035
0
LINE
8
BLACK
6
CONTINUOUS
10
1.62352
20
1.18035
11
1.62728
21
1.1811
0
LINE
8
BLACK
6
CONTINUOUS
10
1.62728
20
1.1811
11
1.66272
21
1.1811
0
LINE
8
BLACK
6
CONTINUOUS
10
1.66272
20
1.1811
11
1.66648
21
1.18035
0
LINE
8
BLACK
6
CONTINUOUS
10
0.901483
20
1.18535
11
0.904676
21
1.18322
0
LINE
8
BLACK
6
CONTINUOUS
10
0.904676
20
1.18322
11
0.90681
21
1.18003
0
LINE
8
BLACK
6
CONTINUOUS
10
0.90681
20
1.18003
11
0.907559
21
1.17626
0
LINE
8
BLACK
6
CONTINUOUS
10
0.907559
20
1.17626
11
0.907559
21
1.15559
0
LINE
8
BLACK
6
CONTINUOUS
10
0.907559
20
1.15559
11
0.90681
21
1.15182
0
LINE
8
BLACK
6
CONTINUOUS
10
0.90681
20
1.15182
11
0.904676
21
1.14863
0
LINE
8
BLACK
6
CONTINUOUS
10
0.904676
20
1.14863
11
0.901483
21
1.1465
0
LINE
8
BLACK
6
CONTINUOUS
10
0.901483
20
1.1465
11
0.897717
21
1.14575
0
LINE
8
BLACK
6
CONTINUOUS
10
0.897717
20
1.14575
11
0.862283
21
1.14575
0
LINE
8
BLACK
6
CONTINUOUS
10
0.862283
20
1.14575
11
0.858517
21
1.1465
0
LINE
8
BLACK
6
CONTINUOUS
10
0.858517
20
1.1465
11
0.855324
21
1.14863
0
LINE
8
BLACK
6
CONTINUOUS
10
0.855324
20
1.14863
11
0.85319
21
1.15182
0
LINE
8
BLACK
6
CONTINUOUS
10
0.85319
20
1.15182
11
0.852441
21
1.15559
0
LINE
8
BLACK
6
CONTINUOUS
10
0.852441
20
1.15559
11
0.852441
21
1.17626
0
LINE
8
BLACK
6
CONTINUOUS
10
0.852441
20
1.17626
11
0.85319
21
1.18003
0
LINE
8
BLACK
6
CONTINUOUS
10
0.85319
20
1.18003
11
0.855324
21
1.18322
0
LINE
8
BLACK
6
CONTINUOUS
10
0.855324
20
1.18322
11
0.858517
21
1.18535
0
LINE
8
BLACK
6
CONTINUOUS
10
0.858517
20
1.18535
11
0.862283
21
1.1861
0
LINE
8
BLACK
6
CONTINUOUS
10
0.862283
20
1.1861
11
0.897717
21
1.1861
0
LINE
8
BLACK
6
CONTINUOUS
10
0.897717
20
1.1861
11
0.901483
21
1.18535
0
LINE
8
BLACK
6
CONTINUOUS
10
1.58247
20
1.18634
11
1.58566
21
1.1842
0
LINE
8
BLACK
6
CONTINUOUS
10
1.58566
20
1.1842
11
1.58779
21
1.18101
0
LINE
8
BLACK
6
CONTINUOUS
10
1.58779
20
1.18101
11
1.58854
21
1.17724
0
LINE
8
BLACK
6
CONTINUOUS
10
1.58854
20
1.17724
11
1.58854
21
1.15756
0
LINE
8
BLACK
6
CONTINUOUS
10
1.58854
20
1.15756
11
1.58779
21
1.15379
0
LINE
8
BLACK
6
CONTINUOUS
10
1.58779
20
1.15379
11
1.58566
21
1.1506
0
LINE
8
BLACK
6
CONTINUOUS
10
1.58566
20
1.1506
11
1.58247
21
1.14847
0
LINE
8
BLACK
6
CONTINUOUS
10
1.58247
20
1.14847
11
1.5787
21
1.14772
0
LINE
8
BLACK
6
CONTINUOUS
10
1.5787
20
1.14772
11
1.5413
21
1.14772
0
LINE
8
BLACK
6
CONTINUOUS
10
1.5413
20
1.14772
11
1.53753
21
1.14847
0
LINE
8
BLACK
6
CONTINUOUS
10
1.53753
20
1.14847
11
1.53434
21
1.1506
0
LINE
8
BLACK
6
CONTINUOUS
10
1.53434
20
1.1506
11
1.53221
21
1.15379
0
LINE
8
BLACK
6
CONTINUOUS
10
1.53221
20
1.15379
11
1.53146
21
1.15756
0
LINE
8
BLACK
6
CONTINUOUS
10
1.53146
20
1.15756
11
1.53146
21
1.17724
0
LINE
8
BLACK
6
CONTINUOUS
10
1.53146
20
1.17724
11
1.53221
21
1.18101
0
LINE
8
BLACK
6
CONTINUOUS
10
1.53221
20
1.18101
11
1.53434
21
1.1842
0
LINE
8
BLACK
6
CONTINUOUS
10
1.53434
20
1.1842
11
1.53753
21
1.18634
0
LINE
8
BLACK
6
CONTINUOUS
10
1.53753
20
1.18634
11
1.5413
21
1.18709
0
LINE
8
BLACK
6
CONTINUOUS
10
1.5413
20
1.18709
11
1.5787
21
1.18709
0
LINE
8
BLACK
6
CONTINUOUS
10
1.5787
20
1.18709
11
1.58247
21
1.18634
0
LINE
8
BLACK
6
CONTINUOUS
10
1.2923
20
1.17136
11
1.29422
21
1.17008
0
LINE
8
BLACK
6
CONTINUOUS
10
1.29422
20
1.17008
11
1.2955
21
1.16817
0
LINE
8
BLACK
6
CONTINUOUS
10
1.2955
20
1.16817
11
1.29594
21
1.16591
0
LINE
8
BLACK
6
CONTINUOUS
10
1.29594
20
1.16591
11
1.29594
21
1.15409
0
LINE
8
BLACK
6
CONTINUOUS
10
1.29594
20
1.15409
11
1.2955
21
1.15183
0
LINE
8
BLACK
6
CONTINUOUS
10
1.2955
20
1.15183
11
1.29422
21
1.14992
0
LINE
8
BLACK
6
CONTINUOUS
10
1.29422
20
1.14992
11
1.2923
21
1.14864
0
LINE
8
BLACK
6
CONTINUOUS
10
1.2923
20
1.14864
11
1.29004
21
1.14819
0
LINE
8
BLACK
6
CONTINUOUS
10
1.29004
20
1.14819
11
1.22508
21
1.14819
0
LINE
8
BLACK
6
CONTINUOUS
10
1.22508
20
1.14819
11
1.22282
21
1.14864
0
LINE
8
BLACK
6
CONTINUOUS
10
1.22282
20
1.14864
11
1.2209
21
1.14992
0
LINE
8
BLACK
6
CONTINUOUS
10
1.2209
20
1.14992
11
1.21962
21
1.15183
0
LINE
8
BLACK
6
CONTINUOUS
10
1.21962
20
1.15183
11
1.21917
21
1.15409
0
LINE
8
BLACK
6
CONTINUOUS
10
1.21917
20
1.15409
11
1.21917
21
1.16591
0
LINE
8
BLACK
6
CONTINUOUS
10
1.21917
20
1.16591
11
1.21962
21
1.16817
0
LINE
8
BLACK
6
CONTINUOUS
10
1.21962
20
1.16817
11
1.2209
21
1.17008
0
LINE
8
BLACK
6
CONTINUOUS
10
1.2209
20
1.17008
11
1.22282
21
1.17136
0
LINE
8
BLACK
6
CONTINUOUS
10
1.22282
20
1.17136
11
1.22508
21
1.17181
0
LINE
8
BLACK
6
CONTINUOUS
10
1.22508
20
1.17181
11
1.29004
21
1.17181
0
LINE
8
BLACK
6
CONTINUOUS
10
1.29004
20
1.17181
11
1.2923
21
1.17136
0
LINE
8
BLACK
6
CONTINUOUS
10
1.48718
20
1.17136
11
1.4891
21
1.17008
0
LINE
8
BLACK
6
CONTINUOUS
10
1.4891
20
1.17008
11
1.49038
21
1.16817
0
LINE
8
BLACK
6
CONTINUOUS
10
1.49038
20
1.16817
11
1.49083
21
1.16591
0
LINE
8
BLACK
6
CONTINUOUS
10
1.49083
20
1.16591
11
1.49083
21
1.15409
0
LINE
8
BLACK
6
CONTINUOUS
10
1.49083
20
1.15409
11
1.49038
21
1.15183
0
LINE
8
BLACK
6
CONTINUOUS
10
1.49038
20
1.15183
11
1.4891
21
1.14992
0
LINE
8
BLACK
6
CONTINUOUS
10
1.4891
20
1.14992
11
1.48718
21
1.14864
0
LINE
8
BLACK
6
CONTINUOUS
10
1.48718
20
1.14864
11
1.48492
21
1.14819
0
LINE
8
BLACK
6
CONTINUOUS
10
1.48492
20
1.14819
11
1.41996
21
1.14819
0
LINE
8
BLACK
6
CONTINUOUS
10
1.41996
20
1.14819
11
1.4177
21
1.14864
0
LINE
8
BLACK
6
CONTINUOUS
10
1.4177
20
1.14864
11
1.41578
21
1.14992
0
LINE
8
BLACK
6
CONTINUOUS
10
1.41578
20
1.14992
11
1.4145
21
1.15183
0
LINE
8
BLACK
6
CONTINUOUS
10
1.4145
20
1.15183
11
1.41406
21
1.15409
0
LINE
8
BLACK
6
CONTINUOUS
10
1.41406
20
1.15409
11
1.41406
21
1.16591
0
LINE
8
BLACK
6
CONTINUOUS
10
1.41406
20
1.16591
11
1.4145
21
1.16817
0
LINE
8
BLACK
6
CONTINUOUS
10
1.4145
20
1.16817
11
1.41578
21
1.17008
0
LINE
8
BLACK
6
CONTINUOUS
10
1.41578
20
1.17008
11
1.4177
21
1.17136
0
LINE
8
BLACK
6
CONTINUOUS
10
1.4177
20
1.17136
11
1.41996
21
1.17181
0
LINE
8
BLACK
6
CONTINUOUS
10
1.41996
20
1.17181
11
1.48492
21
1.17181
0
LINE
8
BLACK
6
CONTINUOUS
10
1.48492
20
1.17181
11
1.48718
21
1.17136
0
LINE
8
BLACK
6
CONTINUOUS
10
0.657677
20
1.17476
11
0.630118
21
1.17476
0
LINE
8
BLACK
6
CONTINUOUS
10
0.630118
20
1.17476
11
0.630118
21
1.29287
0
LINE
8
BLACK
6
CONTINUOUS
10
0.630118
20
1.29287
11
0.657677
21
1.29287
0
LINE
8
BLACK
6
CONTINUOUS
10
0.657677
20
1.29287
11
0.657677
21
1.17476
0
LINE
8
BLACK
6
CONTINUOUS
10
1.1755
20
1.24366
11
1.17869
21
1.24153
0
LINE
8
BLACK
6
CONTINUOUS
10
1.17869
20
1.24153
11
1.18083
21
1.23833
0
LINE
8
BLACK
6
CONTINUOUS
10
1.18083
20
1.23833
11
1.18157
21
1.23457
0
LINE
8
BLACK
6
CONTINUOUS
10
1.18157
20
1.23457
11
1.18157
21
1.19913
0
LINE
8
BLACK
6
CONTINUOUS
10
1.18157
20
1.19913
11
1.18083
21
1.19537
0
LINE
8
BLACK
6
CONTINUOUS
10
1.18083
20
1.19537
11
1.17869
21
1.19217
0
LINE
8
BLACK
6
CONTINUOUS
10
1.17869
20
1.19217
11
1.1755
21
1.19004
0
LINE
8
BLACK
6
CONTINUOUS
10
1.1755
20
1.19004
11
1.17173
21
1.18929
0
LINE
8
BLACK
6
CONTINUOUS
10
1.17173
20
1.18929
11
1.13827
21
1.18929
0
LINE
8
BLACK
6
CONTINUOUS
10
1.13827
20
1.18929
11
1.1345
21
1.19004
0
LINE
8
BLACK
6
CONTINUOUS
10
1.1345
20
1.19004
11
1.13131
21
1.19217
0
LINE
8
BLACK
6
CONTINUOUS
10
1.13131
20
1.19217
11
1.12917
21
1.19537
0
LINE
8
BLACK
6
CONTINUOUS
10
1.12917
20
1.19537
11
1.12843
21
1.19913
0
LINE
8
BLACK
6
CONTINUOUS
10
1.12843
20
1.19913
11
1.12843
21
1.23457
0
LINE
8
BLACK
6
CONTINUOUS
10
1.12843
20
1.23457
11
1.12917
21
1.23833
0
LINE
8
BLACK
6
CONTINUOUS
10
1.12917
20
1.23833
11
1.13131
21
1.24153
0
LINE
8
BLACK
6
CONTINUOUS
10
1.13131
20
1.24153
11
1.1345
21
1.24366
0
LINE
8
BLACK
6
CONTINUOUS
10
1.1345
20
1.24366
11
1.13827
21
1.24441
0
LINE
8
BLACK
6
CONTINUOUS
10
1.13827
20
1.24441
11
1.17173
21
1.24441
0
LINE
8
BLACK
6
CONTINUOUS
10
1.17173
20
1.24441
11
1.1755
21
1.24366
0
LINE
8
BLACK
6
CONTINUOUS
10
1.02818
20
1.24681
11
1.03137
21
1.24468
0
LINE
8
BLACK
6
CONTINUOUS
10
1.03137
20
1.24468
11
1.0335
21
1.24148
0
LINE
8
BLACK
6
CONTINUOUS
10
1.0335
20
1.24148
11
1.03425
21
1.23772
0
LINE
8
BLACK
6
CONTINUOUS
10
1.03425
20
1.23772
11
1.03425
21
1.20228
0
LINE
8
BLACK
6
CONTINUOUS
10
1.03425
20
1.20228
11
1.0335
21
1.19852
0
LINE
8
BLACK
6
CONTINUOUS
10
1.0335
20
1.19852
11
1.03137
21
1.19532
0
LINE
8
BLACK
6
CONTINUOUS
10
1.03137
20
1.19532
11
1.02818
21
1.19319
0
LINE
8
BLACK
6
CONTINUOUS
10
1.02818
20
1.19319
11
1.02441
21
1.19244
0
LINE
8
BLACK
6
CONTINUOUS
10
1.02441
20
1.19244
11
1.00374
21
1.19244
0
LINE
8
BLACK
6
CONTINUOUS
10
1.00374
20
1.19244
11
0.999974
21
1.19319
0
LINE
8
BLACK
6
CONTINUOUS
10
0.999974
20
1.19319
11
0.99678
21
1.19532
0
LINE
8
BLACK
6
CONTINUOUS
10
0.99678
20
1.19532
11
0.994647
21
1.19852
0
LINE
8
BLACK
6
CONTINUOUS
10
0.994647
20
1.19852
11
0.993898
21
1.20228
0
LINE
8
BLACK
6
CONTINUOUS
10
0.993898
20
1.20228
11
0.993898
21
1.23772
0
LINE
8
BLACK
6
CONTINUOUS
10
0.993898
20
1.23772
11
0.994647
21
1.24148
0
LINE
8
BLACK
6
CONTINUOUS
10
0.994647
20
1.24148
11
0.99678
21
1.24468
0
LINE
8
BLACK
6
CONTINUOUS
10
0.99678
20
1.24468
11
0.999974
21
1.24681
0
LINE
8
BLACK
6
CONTINUOUS
10
0.999974
20
1.24681
11
1.00374
21
1.24756
0
LINE
8
BLACK
6
CONTINUOUS
10
1.00374
20
1.24756
11
1.02441
21
1.24756
0
LINE
8
BLACK
6
CONTINUOUS
10
1.02441
20
1.24756
11
1.02818
21
1.24681
0
LINE
8
BLACK
6
CONTINUOUS
10
1.10003
20
1.24681
11
1.10322
21
1.24468
0
LINE
8
BLACK
6
CONTINUOUS
10
1.10322
20
1.24468
11
1.10535
21
1.24148
0
LINE
8
BLACK
6
CONTINUOUS
10
1.10535
20
1.24148
11
1.1061
21
1.23772
0
LINE
8
BLACK
6
CONTINUOUS
10
1.1061
20
1.23772
11
1.1061
21
1.20228
0
LINE
8
BLACK
6
CONTINUOUS
10
1.1061
20
1.20228
11
1.10535
21
1.19852
0
LINE
8
BLACK
6
CONTINUOUS
10
1.10535
20
1.19852
11
1.10322
21
1.19532
0
LINE
8
BLACK
6
CONTINUOUS
10
1.10322
20
1.19532
11
1.10003
21
1.19319
0
LINE
8
BLACK
6
CONTINUOUS
10
1.10003
20
1.19319
11
1.09626
21
1.19244
0
LINE
8
BLACK
6
CONTINUOUS
10
1.09626
20
1.19244
11
1.07559
21
1.19244
0
LINE
8
BLACK
6
CONTINUOUS
10
1.07559
20
1.19244
11
1.07182
21
1.19319
0
LINE
8
BLACK
6
CONTINUOUS
10
1.07182
20
1.19319
11
1.06863
21
1.19532
0
LINE
8
BLACK
6
CONTINUOUS
10
1.06863
20
1.19532
11
1.0665
21
1.19852
0
LINE
8
BLACK
6
CONTINUOUS
10
1.0665
20
1.19852
11
1.06575
21
1.20228
0
LINE
8
BLACK
6
CONTINUOUS
10
1.06575
20
1.20228
11
1.06575
21
1.23772
0
LINE
8
BLACK
6
CONTINUOUS
10
1.06575
20
1.23772
11
1.0665
21
1.24148
0
LINE
8
BLACK
6
CONTINUOUS
10
1.0665
20
1.24148
11
1.06863
21
1.24468
0
LINE
8
BLACK
6
CONTINUOUS
10
1.06863
20
1.24468
11
1.07182
21
1.24681
0
LINE
8
BLACK
6
CONTINUOUS
10
1.07182
20
1.24681
11
1.07559
21
1.24756
0
LINE
8
BLACK
6
CONTINUOUS
10
1.07559
20
1.24756
11
1.09626
21
1.24756
0
LINE
8
BLACK
6
CONTINUOUS
10
1.09626
20
1.24756
11
1.10003
21
1.24681
0
LINE
8
BLACK
6
CONTINUOUS
10
2.16121
20
1.25779
11
2.1644
21
1.25566
0
LINE
8
BLACK
6
CONTINUOUS
10
2.1644
20
1.25566
11
2.16653
21
1.25247
0
LINE
8
BLACK
6
CONTINUOUS
10
2.16653
20
1.25247
11
2.16728
21
1.2487
0
LINE
8
BLACK
6
CONTINUOUS
10
2.16728
20
1.2487
11
2.16728
21
1.2113
0
LINE
8
BLACK
6
CONTINUOUS
10
2.16728
20
1.2113
11
2.16653
21
1.20753
0
LINE
8
BLACK
6
CONTINUOUS
10
2.16653
20
1.20753
11
2.1644
21
1.20434
0
LINE
8
BLACK
6
CONTINUOUS
10
2.1644
20
1.20434
11
2.16121
21
1.20221
0
LINE
8
BLACK
6
CONTINUOUS
10
2.16121
20
1.20221
11
2.15744
21
1.20146
0
LINE
8
BLACK
6
CONTINUOUS
10
2.15744
20
1.20146
11
2.13776
21
1.20146
0
LINE
8
BLACK
6
CONTINUOUS
10
2.13776
20
1.20146
11
2.13399
21
1.20221
0
LINE
8
BLACK
6
CONTINUOUS
10
2.13399
20
1.20221
11
2.1308
21
1.20434
0
LINE
8
BLACK
6
CONTINUOUS
10
2.1308
20
1.20434
11
2.12866
21
1.20753
0
LINE
8
BLACK
6
CONTINUOUS
10
2.12866
20
1.20753
11
2.12791
21
1.2113
0
LINE
8
BLACK
6
CONTINUOUS
10
2.12791
20
1.2113
11
2.12791
21
1.2487
0
LINE
8
BLACK
6
CONTINUOUS
10
2.12791
20
1.2487
11
2.12866
21
1.25247
0
LINE
8
BLACK
6
CONTINUOUS
10
2.12866
20
1.25247
11
2.1308
21
1.25566
0
LINE
8
BLACK
6
CONTINUOUS
10
2.1308
20
1.25566
11
2.13399
21
1.25779
0
LINE
8
BLACK
6
CONTINUOUS
10
2.13399
20
1.25779
11
2.13776
21
1.25854
0
LINE
8
BLACK
6
CONTINUOUS
10
2.13776
20
1.25854
11
2.15744
21
1.25854
0
LINE
8
BLACK
6
CONTINUOUS
10
2.15744
20
1.25854
11
2.16121
21
1.25779
0
LINE
8
BLACK
6
CONTINUOUS
10
2.23601
20
1.25779
11
2.2392
21
1.25566
0
LINE
8
BLACK
6
CONTINUOUS
10
2.2392
20
1.25566
11
2.24134
21
1.25247
0
LINE
8
BLACK
6
CONTINUOUS
10
2.24134
20
1.25247
11
2.24209
21
1.2487
0
LINE
8
BLACK
6
CONTINUOUS
10
2.24209
20
1.2487
11
2.24209
21
1.2113
0
LINE
8
BLACK
6
CONTINUOUS
10
2.24209
20
1.2113
11
2.24134
21
1.20753
0
LINE
8
BLACK
6
CONTINUOUS
10
2.24134
20
1.20753
11
2.2392
21
1.20434
0
LINE
8
BLACK
6
CONTINUOUS
10
2.2392
20
1.20434
11
2.23601
21
1.20221
0
LINE
8
BLACK
6
CONTINUOUS
10
2.23601
20
1.20221
11
2.23224
21
1.20146
0
LINE
8
BLACK
6
CONTINUOUS
10
2.23224
20
1.20146
11
2.21256
21
1.20146
0
LINE
8
BLACK
6
CONTINUOUS
10
2.21256
20
1.20146
11
2.20879
21
1.20221
0
LINE
8
BLACK
6
CONTINUOUS
10
2.20879
20
1.20221
11
2.2056
21
1.20434
0
LINE
8
BLACK
6
CONTINUOUS
10
2.2056
20
1.20434
11
2.20347
21
1.20753
0
LINE
8
BLACK
6
CONTINUOUS
10
2.20347
20
1.20753
11
2.20272
21
1.2113
0
LINE
8
BLACK
6
CONTINUOUS
10
2.20272
20
1.2113
11
2.20272
21
1.2487
0
LINE
8
BLACK
6
CONTINUOUS
10
2.20272
20
1.2487
11
2.20347
21
1.25247
0
LINE
8
BLACK
6
CONTINUOUS
10
2.20347
20
1.25247
11
2.2056
21
1.25566
0
LINE
8
BLACK
6
CONTINUOUS
10
2.2056
20
1.25566
11
2.20879
21
1.25779
0
LINE
8
BLACK
6
CONTINUOUS
10
2.20879
20
1.25779
11
2.21256
21
1.25854
0
LINE
8
BLACK
6
CONTINUOUS
10
2.21256
20
1.25854
11
2.23224
21
1.25854
0
LINE
8
BLACK
6
CONTINUOUS
10
2.23224
20
1.25854
11
2.23601
21
1.25779
0
LINE
8
BLACK
6
CONTINUOUS
10
0.616339
20
1.20429
11
0.565157
21
1.20429
0
LINE
8
BLACK
6
CONTINUOUS
10
0.565157
20
1.20429
11
0.565157
21
1.26335
0
LINE
8
BLACK
6
CONTINUOUS
10
0.565157
20
1.26335
11
0.616339
21
1.26335
0
LINE
8
BLACK
6
CONTINUOUS
10
0.616339
20
1.26335
11
0.616339
21
1.20429
0
LINE
8
BLACK
6
CONTINUOUS
10
0.722638
20
1.20429
11
0.671457
21
1.20429
0
LINE
8
BLACK
6
CONTINUOUS
10
0.671457
20
1.20429
11
0.671457
21
1.26335
0
LINE
8
BLACK
6
CONTINUOUS
10
0.671457
20
1.26335
11
0.722638
21
1.26335
0
LINE
8
BLACK
6
CONTINUOUS
10
0.722638
20
1.26335
11
0.722638
21
1.20429
0
LINE
8
BLACK
6
CONTINUOUS
10
1.27747
20
1.24653
11
1.28066
21
1.2444
0
LINE
8
BLACK
6
CONTINUOUS
10
1.28066
20
1.2444
11
1.28279
21
1.24121
0
LINE
8
BLACK
6
CONTINUOUS
10
1.28279
20
1.24121
11
1.28354
21
1.23744
0
LINE
8
BLACK
6
CONTINUOUS
10
1.28354
20
1.23744
11
1.28354
21
1.21776
0
LINE
8
BLACK
6
CONTINUOUS
10
1.28354
20
1.21776
11
1.28279
21
1.21399
0
LINE
8
BLACK
6
CONTINUOUS
10
1.28279
20
1.21399
11
1.28066
21
1.2108
0
LINE
8
BLACK
6
CONTINUOUS
10
1.28066
20
1.2108
11
1.27747
21
1.20866
0
LINE
8
BLACK
6
CONTINUOUS
10
1.27747
20
1.20866
11
1.2737
21
1.20791
0
LINE
8
BLACK
6
CONTINUOUS
10
1.2737
20
1.20791
11
1.2363
21
1.20791
0
LINE
8
BLACK
6
CONTINUOUS
10
1.2363
20
1.20791
11
1.23253
21
1.20866
0
LINE
8
BLACK
6
CONTINUOUS
10
1.23253
20
1.20866
11
1.22934
21
1.2108
0
LINE
8
BLACK
6
CONTINUOUS
10
1.22934
20
1.2108
11
1.22721
21
1.21399
0
LINE
8
BLACK
6
CONTINUOUS
10
1.22721
20
1.21399
11
1.22646
21
1.21776
0
LINE
8
BLACK
6
CONTINUOUS
10
1.22646
20
1.21776
11
1.22646
21
1.23744
0
LINE
8
BLACK
6
CONTINUOUS
10
1.22646
20
1.23744
11
1.22721
21
1.24121
0
LINE
8
BLACK
6
CONTINUOUS
10
1.22721
20
1.24121
11
1.22934
21
1.2444
0
LINE
8
BLACK
6
CONTINUOUS
10
1.22934
20
1.2444
11
1.23253
21
1.24653
0
LINE
8
BLACK
6
CONTINUOUS
10
1.23253
20
1.24653
11
1.2363
21
1.24728
0
LINE
8
BLACK
6
CONTINUOUS
10
1.2363
20
1.24728
11
1.2737
21
1.24728
0
LINE
8
BLACK
6
CONTINUOUS
10
1.2737
20
1.24728
11
1.27747
21
1.24653
0
LINE
8
BLACK
6
CONTINUOUS
10
1.42621
20
1.26779
11
1.4294
21
1.26566
0
LINE
8
BLACK
6
CONTINUOUS
10
1.4294
20
1.26566
11
1.43153
21
1.26247
0
LINE
8
BLACK
6
CONTINUOUS
10
1.43153
20
1.26247
11
1.43228
21
1.2587
0
LINE
8
BLACK
6
CONTINUOUS
10
1.43228
20
1.2587
11
1.43228
21
1.2213
0
LINE
8
BLACK
6
CONTINUOUS
10
1.43228
20
1.2213
11
1.43153
21
1.21753
0
LINE
8
BLACK
6
CONTINUOUS
10
1.43153
20
1.21753
11
1.4294
21
1.21434
0
LINE
8
BLACK
6
CONTINUOUS
10
1.4294
20
1.21434
11
1.42621
21
1.21221
0
LINE
8
BLACK
6
CONTINUOUS
10
1.42621
20
1.21221
11
1.42244
21
1.21146
0
LINE
8
BLACK
6
CONTINUOUS
10
1.42244
20
1.21146
11
1.40276
21
1.21146
0
LINE
8
BLACK
6
CONTINUOUS
10
1.40276
20
1.21146
11
1.39899
21
1.21221
0
LINE
8
BLACK
6
CONTINUOUS
10
1.39899
20
1.21221
11
1.3958
21
1.21434
0
LINE
8
BLACK
6
CONTINUOUS
10
1.3958
20
1.21434
11
1.39366
21
1.21753
0
LINE
8
BLACK
6
CONTINUOUS
10
1.39366
20
1.21753
11
1.39291
21
1.2213
0
LINE
8
BLACK
6
CONTINUOUS
10
1.39291
20
1.2213
11
1.39291
21
1.2587
0
LINE
8
BLACK
6
CONTINUOUS
10
1.39291
20
1.2587
11
1.39366
21
1.26247
0
LINE
8
BLACK
6
CONTINUOUS
10
1.39366
20
1.26247
11
1.3958
21
1.26566
0
LINE
8
BLACK
6
CONTINUOUS
10
1.3958
20
1.26566
11
1.39899
21
1.26779
0
LINE
8
BLACK
6
CONTINUOUS
10
1.39899
20
1.26779
11
1.40276
21
1.26854
0
LINE
8
BLACK
6
CONTINUOUS
10
1.40276
20
1.26854
11
1.42244
21
1.26854
0
LINE
8
BLACK
6
CONTINUOUS
10
1.42244
20
1.26854
11
1.42621
21
1.26779
0
LINE
8
BLACK
6
CONTINUOUS
10
1.50101
20
1.26779
11
1.5042
21
1.26566
0
LINE
8
BLACK
6
CONTINUOUS
10
1.5042
20
1.26566
11
1.50634
21
1.26247
0
LINE
8
BLACK
6
CONTINUOUS
10
1.50634
20
1.26247
11
1.50709
21
1.2587
0
LINE
8
BLACK
6
CONTINUOUS
10
1.50709
20
1.2587
11
1.50709
21
1.2213
0
LINE
8
BLACK
6
CONTINUOUS
10
1.50709
20
1.2213
11
1.50634
21
1.21753
0
LINE
8
BLACK
6
CONTINUOUS
10
1.50634
20
1.21753
11
1.5042
21
1.21434
0
LINE
8
BLACK
6
CONTINUOUS
10
1.5042
20
1.21434
11
1.50101
21
1.21221
0
LINE
8
BLACK
6
CONTINUOUS
10
1.50101
20
1.21221
11
1.49724
21
1.21146
0
LINE
8
BLACK
6
CONTINUOUS
10
1.49724
20
1.21146
11
1.47756
21
1.21146
0
LINE
8
BLACK
6
CONTINUOUS
10
1.47756
20
1.21146
11
1.47379
21
1.21221
0
LINE
8
BLACK
6
CONTINUOUS
10
1.47379
20
1.21221
11
1.4706
21
1.21434
0
LINE
8
BLACK
6
CONTINUOUS
10
1.4706
20
1.21434
11
1.46847
21
1.21753
0
LINE
8
BLACK
6
CONTINUOUS
10
1.46847
20
1.21753
11
1.46772
21
1.2213
0
LINE
8
BLACK
6
CONTINUOUS
10
1.46772
20
1.2213
11
1.46772
21
1.2587
0
LINE
8
BLACK
6
CONTINUOUS
10
1.46772
20
1.2587
11
1.46847
21
1.26247
0
LINE
8
BLACK
6
CONTINUOUS
10
1.46847
20
1.26247
11
1.4706
21
1.26566
0
LINE
8
BLACK
6
CONTINUOUS
10
1.4706
20
1.26566
11
1.47379
21
1.26779
0
LINE
8
BLACK
6
CONTINUOUS
10
1.47379
20
1.26779
11
1.47756
21
1.26854
0
LINE
8
BLACK
6
CONTINUOUS
10
1.47756
20
1.26854
11
1.49724
21
1.26854
0
LINE
8
BLACK
6
CONTINUOUS
10
1.49724
20
1.26854
11
1.50101
21
1.26779
0
LINE
8
BLACK
6
CONTINUOUS
10
0.877467
20
1.25653
11
0.880661
21
1.2544
0
LINE
8
BLACK
6
CONTINUOUS
10
0.880661
20
1.2544
11
0.882794
21
1.25121
0
LINE
8
BLACK
6
CONTINUOUS
10
0.882794
20
1.25121
11
0.883543
21
1.24744
0
LINE
8
BLACK
6
CONTINUOUS
10
0.883543
20
1.24744
11
0.883543
21
1.22776
0
LINE
8
BLACK
6
CONTINUOUS
10
0.883543
20
1.22776
11
0.882794
21
1.22399
0
LINE
8
BLACK
6
CONTINUOUS
10
0.882794
20
1.22399
11
0.880661
21
1.2208
0
LINE
8
BLACK
6
CONTINUOUS
10
0.880661
20
1.2208
11
0.877467
21
1.21866
0
LINE
8
BLACK
6
CONTINUOUS
10
0.877467
20
1.21866
11
0.873701
21
1.21791
0
LINE
8
BLACK
6
CONTINUOUS
10
0.873701
20
1.21791
11
0.836299
21
1.21791
0
LINE
8
BLACK
6
CONTINUOUS
10
0.836299
20
1.21791
11
0.832533
21
1.21866
0
LINE
8
BLACK
6
CONTINUOUS
10
0.832533
20
1.21866
11
0.829339
21
1.2208
0
LINE
8
BLACK
6
CONTINUOUS
10
0.829339
20
1.2208
11
0.827206
21
1.22399
0
LINE
8
BLACK
6
CONTINUOUS
10
0.827206
20
1.22399
11
0.826457
21
1.22776
0
LINE
8
BLACK
6
CONTINUOUS
10
0.826457
20
1.22776
11
0.826457
21
1.24744
0
LINE
8
BLACK
6
CONTINUOUS
10
0.826457
20
1.24744
11
0.827206
21
1.25121
0
LINE
8
BLACK
6
CONTINUOUS
10
0.827206
20
1.25121
11
0.829339
21
1.2544
0
LINE
8
BLACK
6
CONTINUOUS
10
0.829339
20
1.2544
11
0.832533
21
1.25653
0
LINE
8
BLACK
6
CONTINUOUS
10
0.832533
20
1.25653
11
0.836299
21
1.25728
0
LINE
8
BLACK
6
CONTINUOUS
10
0.836299
20
1.25728
11
0.873701
21
1.25728
0
LINE
8
BLACK
6
CONTINUOUS
10
0.873701
20
1.25728
11
0.877467
21
1.25653
0
LINE
8
BLACK
6
CONTINUOUS
10
0.793701
20
1.27953
11
0.754331
21
1.27953
0
LINE
8
BLACK
6
CONTINUOUS
10
0.754331
20
1.27953
11
0.754331
21
1.42913
0
LINE
8
BLACK
6
CONTINUOUS
10
0.754331
20
1.42913
11
0.793701
21
1.42913
0
LINE
8
BLACK
6
CONTINUOUS
10
0.793701
20
1.42913
11
0.793701
21
1.27953
0
LINE
8
BLACK
6
CONTINUOUS
10
2.04567
20
1.27953
11
2.0063
21
1.27953
0
LINE
8
BLACK
6
CONTINUOUS
10
2.0063
20
1.27953
11
2.0063
21
1.42913
0
LINE
8
BLACK
6
CONTINUOUS
10
2.0063
20
1.42913
11
2.04567
21
1.42913
0
LINE
8
BLACK
6
CONTINUOUS
10
2.04567
20
1.42913
11
2.04567
21
1.27953
0
LINE
8
BLACK
6
CONTINUOUS
10
1.27747
20
1.32134
11
1.28066
21
1.3192
0
LINE
8
BLACK
6
CONTINUOUS
10
1.28066
20
1.3192
11
1.28279
21
1.31601
0
LINE
8
BLACK
6
CONTINUOUS
10
1.28279
20
1.31601
11
1.28354
21
1.31224
0
LINE
8
BLACK
6
CONTINUOUS
10
1.28354
20
1.31224
11
1.28354
21
1.29256
0
LINE
8
BLACK
6
CONTINUOUS
10
1.28354
20
1.29256
11
1.28279
21
1.28879
0
LINE
8
BLACK
6
CONTINUOUS
10
1.28279
20
1.28879
11
1.28066
21
1.2856
0
LINE
8
BLACK
6
CONTINUOUS
10
1.28066
20
1.2856
11
1.27747
21
1.28347
0
LINE
8
BLACK
6
CONTINUOUS
10
1.27747
20
1.28347
11
1.2737
21
1.28272
0
LINE
8
BLACK
6
CONTINUOUS
10
1.2737
20
1.28272
11
1.2363
21
1.28272
0
LINE
8
BLACK
6
CONTINUOUS
10
1.2363
20
1.28272
11
1.23253
21
1.28347
0
LINE
8
BLACK
6
CONTINUOUS
10
1.23253
20
1.28347
11
1.22934
21
1.2856
0
LINE
8
BLACK
6
CONTINUOUS
10
1.22934
20
1.2856
11
1.22721
21
1.28879
0
LINE
8
BLACK
6
CONTINUOUS
10
1.22721
20
1.28879
11
1.22646
21
1.29256
0
LINE
8
BLACK
6
CONTINUOUS
10
1.22646
20
1.29256
11
1.22646
21
1.31224
0
LINE
8
BLACK
6
CONTINUOUS
10
1.22646
20
1.31224
11
1.22721
21
1.31601
0
LINE
8
BLACK
6
CONTINUOUS
10
1.22721
20
1.31601
11
1.22934
21
1.3192
0
LINE
8
BLACK
6
CONTINUOUS
10
1.22934
20
1.3192
11
1.23253
21
1.32134
0
LINE
8
BLACK
6
CONTINUOUS
10
1.23253
20
1.32134
11
1.2363
21
1.32209
0
LINE
8
BLACK
6
CONTINUOUS
10
1.2363
20
1.32209
11
1.2737
21
1.32209
0
LINE
8
BLACK
6
CONTINUOUS
10
1.2737
20
1.32209
11
1.27747
21
1.32134
0
LINE
8
BLACK
6
CONTINUOUS
10
0.877467
20
1.33134
11
0.880661
21
1.3292
0
LINE
8
BLACK
6
CONTINUOUS
10
0.880661
20
1.3292
11
0.882794
21
1.32601
0
LINE
8
BLACK
6
CONTINUOUS
10
0.882794
20
1.32601
11
0.883543
21
1.32224
0
LINE
8
BLACK
6
CONTINUOUS
10
0.883543
20
1.32224
11
0.883543
21
1.30256
0
LINE
8
BLACK
6
CONTINUOUS
10
0.883543
20
1.30256
11
0.882794
21
1.29879
0
LINE
8
BLACK
6
CONTINUOUS
10
0.882794
20
1.29879
11
0.880661
21
1.2956
0
LINE
8
BLACK
6
CONTINUOUS
10
0.880661
20
1.2956
11
0.877467
21
1.29347
0
LINE
8
BLACK
6
CONTINUOUS
10
0.877467
20
1.29347
11
0.873701
21
1.29272
0
LINE
8
BLACK
6
CONTINUOUS
10
0.873701
20
1.29272
11
0.836299
21
1.29272
0
LINE
8
BLACK
6
CONTINUOUS
10
0.836299
20
1.29272
11
0.832533
21
1.29347
0
LINE
8
BLACK
6
CONTINUOUS
10
0.832533
20
1.29347
11
0.829339
21
1.2956
0
LINE
8
BLACK
6
CONTINUOUS
10
0.829339
20
1.2956
11
0.827206
21
1.29879
0
LINE
8
BLACK
6
CONTINUOUS
10
0.827206
20
1.29879
11
0.826457
21
1.30256
0
LINE
8
BLACK
6
CONTINUOUS
10
0.826457
20
1.30256
11
0.826457
21
1.32224
0
LINE
8
BLACK
6
CONTINUOUS
10
0.826457
20
1.32224
11
0.827206
21
1.32601
0
LINE
8
BLACK
6
CONTINUOUS
10
0.827206
20
1.32601
11
0.829339
21
1.3292
0
LINE
8
BLACK
6
CONTINUOUS
10
0.829339
20
1.3292
11
0.832533
21
1.33134
0
LINE
8
BLACK
6
CONTINUOUS
10
0.832533
20
1.33134
11
0.836299
21
1.33209
0
LINE
8
BLACK
6
CONTINUOUS
10
0.836299
20
1.33209
11
0.873701
21
1.33209
0
LINE
8
BLACK
6
CONTINUOUS
10
0.873701
20
1.33209
11
0.877467
21
1.33134
0
LINE
8
BLACK
6
CONTINUOUS
10
1.1755
20
1.34996
11
1.17869
21
1.34783
0
LINE
8
BLACK
6
CONTINUOUS
10
1.17869
20
1.34783
11
1.18083
21
1.34463
0
LINE
8
BLACK
6
CONTINUOUS
10
1.18083
20
1.34463
11
1.18157
21
1.34087
0
LINE
8
BLACK
6
CONTINUOUS
10
1.18157
20
1.34087
11
1.18157
21
1.30543
0
LINE
8
BLACK
6
CONTINUOUS
10
1.18157
20
1.30543
11
1.18083
21
1.30167
0
LINE
8
BLACK
6
CONTINUOUS
10
1.18083
20
1.30167
11
1.17869
21
1.29847
0
LINE
8
BLACK
6
CONTINUOUS
10
1.17869
20
1.29847
11
1.1755
21
1.29634
0
LINE
8
BLACK
6
CONTINUOUS
10
1.1755
20
1.29634
11
1.17173
21
1.29559
0
LINE
8
BLACK
6
CONTINUOUS
10
1.17173
20
1.29559
11
1.13827
21
1.29559
0
LINE
8
BLACK
6
CONTINUOUS
10
1.13827
20
1.29559
11
1.1345
21
1.29634
0
LINE
8
BLACK
6
CONTINUOUS
10
1.1345
20
1.29634
11
1.13131
21
1.29847
0
LINE
8
BLACK
6
CONTINUOUS
10
1.13131
20
1.29847
11
1.12917
21
1.30167
0
LINE
8
BLACK
6
CONTINUOUS
10
1.12917
20
1.30167
11
1.12843
21
1.30543
0
LINE
8
BLACK
6
CONTINUOUS
10
1.12843
20
1.30543
11
1.12843
21
1.34087
0
LINE
8
BLACK
6
CONTINUOUS
10
1.12843
20
1.34087
11
1.12917
21
1.34463
0
LINE
8
BLACK
6
CONTINUOUS
10
1.12917
20
1.34463
11
1.13131
21
1.34783
0
LINE
8
BLACK
6
CONTINUOUS
10
1.13131
20
1.34783
11
1.1345
21
1.34996
0
LINE
8
BLACK
6
CONTINUOUS
10
1.1345
20
1.34996
11
1.13827
21
1.35071
0
LINE
8
BLACK
6
CONTINUOUS
10
1.13827
20
1.35071
11
1.17173
21
1.35071
0
LINE
8
BLACK
6
CONTINUOUS
10
1.17173
20
1.35071
11
1.1755
21
1.34996
0
LINE
8
BLACK
6
CONTINUOUS
10
1.33457
20
1.41555
11
1.31291
21
1.41555
0
LINE
8
BLACK
6
CONTINUOUS
10
1.31291
20
1.41555
11
1.31291
21
1.42539
0
LINE
8
BLACK
6
CONTINUOUS
10
1.31291
20
1.42539
11
1.33457
21
1.42539
0
LINE
8
BLACK
6
CONTINUOUS
10
1.33457
20
1.42539
11
1.33457
21
1.41555
0
LINE
8
BLACK
6
CONTINUOUS
10
1.42709
20
1.41555
11
1.40543
21
1.41555
0
LINE
8
BLACK
6
CONTINUOUS
10
1.40543
20
1.41555
11
1.40543
21
1.42539
0
LINE
8
BLACK
6
CONTINUOUS
10
1.40543
20
1.42539
11
1.42709
21
1.42539
0
LINE
8
BLACK
6
CONTINUOUS
10
1.42709
20
1.42539
11
1.42709
21
1.41555
0
LINE
8
BLACK
6
CONTINUOUS
10
1.38772
20
1.4185
11
1.36291
21
1.4185
0
LINE
8
BLACK
6
CONTINUOUS
10
1.36291
20
1.4185
11
1.35228
21
1.42913
0
LINE
8
BLACK
6
CONTINUOUS
10
1.35228
20
1.42913
11
1.35228
21
1.4815
0
LINE
8
BLACK
6
CONTINUOUS
10
1.35228
20
1.4815
11
1.38772
21
1.4815
0
LINE
8
BLACK
6
CONTINUOUS
10
1.38772
20
1.4815
11
1.38772
21
1.4185
0
LINE
8
BLACK
6
CONTINUOUS
10
1.33457
20
1.43524
11
1.31291
21
1.43524
0
LINE
8
BLACK
6
CONTINUOUS
10
1.31291
20
1.43524
11
1.31291
21
1.44508
0
LINE
8
BLACK
6
CONTINUOUS
10
1.31291
20
1.44508
11
1.33457
21
1.44508
0
LINE
8
BLACK
6
CONTINUOUS
10
1.33457
20
1.44508
11
1.33457
21
1.43524
0
LINE
8
BLACK
6
CONTINUOUS
10
1.42709
20
1.43524
11
1.40543
21
1.43524
0
LINE
8
BLACK
6
CONTINUOUS
10
1.40543
20
1.43524
11
1.40543
21
1.44508
0
LINE
8
BLACK
6
CONTINUOUS
10
1.40543
20
1.44508
11
1.42709
21
1.44508
0
LINE
8
BLACK
6
CONTINUOUS
10
1.42709
20
1.44508
11
1.42709
21
1.43524
0
LINE
8
BLACK
6
CONTINUOUS
10
1.33457
20
1.45492
11
1.31291
21
1.45492
0
LINE
8
BLACK
6
CONTINUOUS
10
1.31291
20
1.45492
11
1.31291
21
1.46476
0
LINE
8
BLACK
6
CONTINUOUS
10
1.31291
20
1.46476
11
1.33457
21
1.46476
0
LINE
8
BLACK
6
CONTINUOUS
10
1.33457
20
1.46476
11
1.33457
21
1.45492
0
LINE
8
BLACK
6
CONTINUOUS
10
1.42709
20
1.45492
11
1.40543
21
1.45492
0
LINE
8
BLACK
6
CONTINUOUS
10
1.40543
20
1.45492
11
1.40543
21
1.46476
0
LINE
8
BLACK
6
CONTINUOUS
10
1.40543
20
1.46476
11
1.42709
21
1.46476
0
LINE
8
BLACK
6
CONTINUOUS
10
1.42709
20
1.46476
11
1.42709
21
1.45492
0
LINE
8
BLACK
6
CONTINUOUS
10
1.50621
20
1.52779
11
1.5094
21
1.52566
0
LINE
8
BLACK
6
CONTINUOUS
10
1.5094
20
1.52566
11
1.51153
21
1.52247
0
LINE
8
BLACK
6
CONTINUOUS
10
1.51153
20
1.52247
11
1.51228
21
1.5187
0
LINE
8
BLACK
6
CONTINUOUS
10
1.51228
20
1.5187
11
1.51228
21
1.4813
0
LINE
8
BLACK
6
CONTINUOUS
10
1.51228
20
1.4813
11
1.51153
21
1.47753
0
LINE
8
BLACK
6
CONTINUOUS
10
1.51153
20
1.47753
11
1.5094
21
1.47434
0
LINE
8
BLACK
6
CONTINUOUS
10
1.5094
20
1.47434
11
1.50621
21
1.47221
0
LINE
8
BLACK
6
CONTINUOUS
10
1.50621
20
1.47221
11
1.50244
21
1.47146
0
LINE
8
BLACK
6
CONTINUOUS
10
1.50244
20
1.47146
11
1.48276
21
1.47146
0
LINE
8
BLACK
6
CONTINUOUS
10
1.48276
20
1.47146
11
1.47899
21
1.47221
0
LINE
8
BLACK
6
CONTINUOUS
10
1.47899
20
1.47221
11
1.4758
21
1.47434
0
LINE
8
BLACK
6
CONTINUOUS
10
1.4758
20
1.47434
11
1.47366
21
1.47753
0
LINE
8
BLACK
6
CONTINUOUS
10
1.47366
20
1.47753
11
1.47291
21
1.4813
0
LINE
8
BLACK
6
CONTINUOUS
10
1.47291
20
1.4813
11
1.47291
21
1.5187
0
LINE
8
BLACK
6
CONTINUOUS
10
1.47291
20
1.5187
11
1.47366
21
1.52247
0
LINE
8
BLACK
6
CONTINUOUS
10
1.47366
20
1.52247
11
1.4758
21
1.52566
0
LINE
8
BLACK
6
CONTINUOUS
10
1.4758
20
1.52566
11
1.47899
21
1.52779
0
LINE
8
BLACK
6
CONTINUOUS
10
1.47899
20
1.52779
11
1.48276
21
1.52854
0
LINE
8
BLACK
6
CONTINUOUS
10
1.48276
20
1.52854
11
1.50244
21
1.52854
0
LINE
8
BLACK
6
CONTINUOUS
10
1.50244
20
1.52854
11
1.50621
21
1.52779
0
LINE
8
BLACK
6
CONTINUOUS
10
1.58101
20
1.52779
11
1.5842
21
1.52566
0
LINE
8
BLACK
6
CONTINUOUS
10
1.5842
20
1.52566
11
1.58634
21
1.52247
0
LINE
8
BLACK
6
CONTINUOUS
10
1.58634
20
1.52247
11
1.58709
21
1.5187
0
LINE
8
BLACK
6
CONTINUOUS
10
1.58709
20
1.5187
11
1.58709
21
1.4813
0
LINE
8
BLACK
6
CONTINUOUS
10
1.58709
20
1.4813
11
1.58634
21
1.47753
0
LINE
8
BLACK
6
CONTINUOUS
10
1.58634
20
1.47753
11
1.5842
21
1.47434
0
LINE
8
BLACK
6
CONTINUOUS
10
1.5842
20
1.47434
11
1.58101
21
1.47221
0
LINE
8
BLACK
6
CONTINUOUS
10
1.58101
20
1.47221
11
1.57724
21
1.47146
0
LINE
8
BLACK
6
CONTINUOUS
10
1.57724
20
1.47146
11
1.55756
21
1.47146
0
LINE
8
BLACK
6
CONTINUOUS
10
1.55756
20
1.47146
11
1.55379
21
1.47221
0
LINE
8
BLACK
6
CONTINUOUS
10
1.55379
20
1.47221
11
1.5506
21
1.47434
0
LINE
8
BLACK
6
CONTINUOUS
10
1.5506
20
1.47434
11
1.54847
21
1.47753
0
LINE
8
BLACK
6
CONTINUOUS
10
1.54847
20
1.47753
11
1.54772
21
1.4813
0
LINE
8
BLACK
6
CONTINUOUS
10
1.54772
20
1.4813
11
1.54772
21
1.5187
0
LINE
8
BLACK
6
CONTINUOUS
10
1.54772
20
1.5187
11
1.54847
21
1.52247
0
LINE
8
BLACK
6
CONTINUOUS
10
1.54847
20
1.52247
11
1.5506
21
1.52566
0
LINE
8
BLACK
6
CONTINUOUS
10
1.5506
20
1.52566
11
1.55379
21
1.52779
0
LINE
8
BLACK
6
CONTINUOUS
10
1.55379
20
1.52779
11
1.55756
21
1.52854
0
LINE
8
BLACK
6
CONTINUOUS
10
1.55756
20
1.52854
11
1.57724
21
1.52854
0
LINE
8
BLACK
6
CONTINUOUS
10
1.57724
20
1.52854
11
1.58101
21
1.52779
0
LINE
8
BLACK
6
CONTINUOUS
10
1.33457
20
1.47461
11
1.31291
21
1.47461
0
LINE
8
BLACK
6
CONTINUOUS
10
1.31291
20
1.47461
11
1.31291
21
1.48445
0
LINE
8
BLACK
6
CONTINUOUS
10
1.31291
20
1.48445
11
1.33457
21
1.48445
0
LINE
8
BLACK
6
CONTINUOUS
10
1.33457
20
1.48445
11
1.33457
21
1.47461
0
LINE
8
BLACK
6
CONTINUOUS
10
1.42709
20
1.47461
11
1.40543
21
1.47461
0
LINE
8
BLACK
6
CONTINUOUS
10
1.40543
20
1.47461
11
1.40543
21
1.48445
0
LINE
8
BLACK
6
CONTINUOUS
10
1.40543
20
1.48445
11
1.42709
21
1.48445
0
LINE
8
BLACK
6
CONTINUOUS
10
1.42709
20
1.48445
11
1.42709
21
1.47461
0
LINE
8
BLACK
6
CONTINUOUS
10
0.793701
20
1.51575
11
0.754331
21
1.51575
0
LINE
8
BLACK
6
CONTINUOUS
10
0.754331
20
1.51575
11
0.754331
21
1.6063
0
LINE
8
BLACK
6
CONTINUOUS
10
0.754331
20
1.6063
11
0.754331
21
1.64567
0
LINE
8
BLACK
6
CONTINUOUS
10
0.754331
20
1.64567
11
0.793701
21
1.64567
0
LINE
8
BLACK
6
CONTINUOUS
10
0.793701
20
1.64567
11
0.884252
21
1.64567
0
LINE
8
BLACK
6
CONTINUOUS
10
0.884252
20
1.64567
11
0.884252
21
1.6063
0
LINE
8
BLACK
6
CONTINUOUS
10
0.884252
20
1.6063
11
0.793701
21
1.6063
0
LINE
8
BLACK
6
CONTINUOUS
10
0.793701
20
1.6063
11
0.793701
21
1.51575
0
LINE
8
BLACK
6
CONTINUOUS
10
2.04567
20
1.51575
11
2.0063
21
1.51575
0
LINE
8
BLACK
6
CONTINUOUS
10
2.0063
20
1.51575
11
2.0063
21
1.6063
0
LINE
8
BLACK
6
CONTINUOUS
10
2.0063
20
1.6063
11
1.91575
21
1.6063
0
LINE
8
BLACK
6
CONTINUOUS
10
1.91575
20
1.6063
11
1.91575
21
1.64567
0
LINE
8
BLACK
6
CONTINUOUS
10
1.91575
20
1.64567
11
2.0063
21
1.64567
0
LINE
8
BLACK
6
CONTINUOUS
10
2.0063
20
1.64567
11
2.04567
21
1.64567
0
LINE
8
BLACK
6
CONTINUOUS
10
2.04567
20
1.64567
11
2.04567
21
1.6063
0
LINE
8
BLACK
6
CONTINUOUS
10
2.04567
20
1.6063
11
2.04567
21
1.51575
0
LINE
8
BLACK
6
CONTINUOUS
10
1.12047
20
1.6063
11
0.970866
21
1.6063
0
LINE
8
BLACK
6
CONTINUOUS
10
0.970866
20
1.6063
11
0.970866
21
1.64567
0
LINE
8
BLACK
6
CONTINUOUS
10
0.970866
20
1.64567
11
1.12047
21
1.64567
0
LINE
8
BLACK
6
CONTINUOUS
10
1.12047
20
1.64567
11
1.12047
21
1.6063
0
LINE
8
BLACK
6
CONTINUOUS
10
1.35669
20
1.6063
11
1.20709
21
1.6063
0
LINE
8
BLACK
6
CONTINUOUS
10
1.20709
20
1.6063
11
1.20709
21
1.64567
0
LINE
8
BLACK
6
CONTINUOUS
10
1.20709
20
1.64567
11
1.35669
21
1.64567
0
LINE
8
BLACK
6
CONTINUOUS
10
1.35669
20
1.64567
11
1.35669
21
1.6063
0
LINE
8
BLACK
6
CONTINUOUS
10
1.59291
20
1.6063
11
1.44331
21
1.6063
0
LINE
8
BLACK
6
CONTINUOUS
10
1.44331
20
1.6063
11
1.44331
21
1.64567
0
LINE
8
BLACK
6
CONTINUOUS
10
1.44331
20
1.64567
11
1.59291
21
1.64567
0
LINE
8
BLACK
6
CONTINUOUS
10
1.59291
20
1.64567
11
1.59291
21
1.6063
0
LINE
8
BLACK
6
CONTINUOUS
10
1.82913
20
1.6063
11
1.67953
21
1.6063
0
LINE
8
BLACK
6
CONTINUOUS
10
1.67953
20
1.6063
11
1.67953
21
1.64567
0
LINE
8
BLACK
6
CONTINUOUS
10
1.67953
20
1.64567
11
1.82913
21
1.64567
0
LINE
8
BLACK
6
CONTINUOUS
10
1.82913
20
1.64567
11
1.82913
21
1.6063
  0
ENDSEC
  0
EOF
