  0
SECTION
  2
HEADER
  9
$ANGBASE
  50
0.0
  9
$ANGDIR
  70
1
  9
$MEASUREMENT
  70
0
  0
ENDSEC
  0
SECTION
  2
TABLES
  0
TABLE
  2
LTYPE
  70
4
  0
LTYPE
  5
40F
  2
CONTINUOUS
  70
0
  3
Solid line
  72
65
  73
0
  40
0.0
  0
LTYPE
  5
410
  2
DASHDOT
 70
0
  3
Dash Dot ____ _ ____ _
 72
65
 73
4
 40
2.0
 49
1.25
 49
-0.25
 49
0.25
 49
-0.25
  0
LTYPE
  5
411
  2
DASHED
 70
0
  3
Dashed __ __ __ __ __
 72
65
 73
2
 40
0.75
 49
0.5
 49
-0.25
  0
LTYPE
  5
43B
  2
DOTTED
 70
0
  3
Dotted .  .  .  .
 72
65
 73
2
 40
0.2
 49
0.0
 49
-0.2
  0
ENDTAB
  0
TABLE
  2
STYLE
  70
4
  0
STYLE
  2
KICAD
  70
0
  40
0
  41
1
  42
1
  50
0
  71
0
  3
isocp.shx
  0
STYLE
  2
KICADB
  70
0
  40
0
  41
1
  42
1
  50
0
  71
0
  3
isocp.shx
  0
STYLE
  2
KICADI
  70
0
  40
0
  41
1
  42
1
  50
15
  71
0
  3
isocp.shx
  0
STYLE
  2
KICADBI
  70
0
  40
0
  41
1
  42
1
  50
15
  71
0
  3
isocp.shx
  0
ENDTAB
  0
TABLE
  2
LAYER
  70
1
  0
LAYER
  2
BLACK
  70
0
  62
7
  6
CONTINUOUS
  0
ENDTAB
  0
ENDSEC
  0
SECTION
  2
ENTITIES
0
LINE
8
BLACK
6
CONTINUOUS
10
1.24195
20
0.641866
11
1.24264
21
0.639968
0
LINE
8
BLACK
6
CONTINUOUS
10
1.24264
20
0.639968
11
1.24264
21
0.624599
0
LINE
8
BLACK
6
CONTINUOUS
10
1.24264
20
0.624599
11
1.2601
21
0.642056
0
LINE
8
BLACK
6
CONTINUOUS
10
1.2601
20
0.642056
11
1.26094
21
0.642644
0
LINE
8
BLACK
6
CONTINUOUS
10
1.26094
20
0.642644
11
1.26295
21
0.64282
0
LINE
8
BLACK
6
CONTINUOUS
10
1.26295
20
0.64282
11
1.2646
21
0.641661
0
LINE
8
BLACK
6
CONTINUOUS
10
1.2646
20
0.641661
11
1.26513
21
0.63971
0
LINE
8
BLACK
6
CONTINUOUS
10
1.26513
20
0.63971
11
1.26427
21
0.63788
0
LINE
8
BLACK
6
CONTINUOUS
10
1.26427
20
0.63788
11
1.24921
21
0.622818
0
LINE
8
BLACK
6
CONTINUOUS
10
1.24921
20
0.622818
11
1.26455
21
0.602369
0
LINE
8
BLACK
6
CONTINUOUS
10
1.26455
20
0.602369
11
1.26501
21
0.601455
0
LINE
8
BLACK
6
CONTINUOUS
10
1.26501
20
0.601455
11
1.2649
21
0.599438
0
LINE
8
BLACK
6
CONTINUOUS
10
1.2649
20
0.599438
11
1.26352
21
0.597964
0
LINE
8
BLACK
6
CONTINUOUS
10
1.26352
20
0.597964
11
1.26152
21
0.597722
0
LINE
8
BLACK
6
CONTINUOUS
10
1.26152
20
0.597722
11
1.25982
21
0.598826
0
LINE
8
BLACK
6
CONTINUOUS
10
1.25982
20
0.598826
11
1.24499
21
0.6186
0
LINE
8
BLACK
6
CONTINUOUS
10
1.24499
20
0.6186
11
1.24264
21
0.616248
0
LINE
8
BLACK
6
CONTINUOUS
10
1.24264
20
0.616248
11
1.24264
21
0.600598
0
LINE
8
BLACK
6
CONTINUOUS
10
1.24264
20
0.600598
11
1.24246
21
0.599588
0
LINE
8
BLACK
6
CONTINUOUS
10
1.24246
20
0.599588
11
1.24117
21
0.598041
0
LINE
8
BLACK
6
CONTINUOUS
10
1.24117
20
0.598041
11
1.23918
21
0.59769
0
LINE
8
BLACK
6
CONTINUOUS
10
1.23918
20
0.59769
11
1.23743
21
0.5987
0
LINE
8
BLACK
6
CONTINUOUS
10
1.23743
20
0.5987
11
1.23674
21
0.600598
0
LINE
8
BLACK
6
CONTINUOUS
10
1.23674
20
0.600598
11
1.23674
21
0.639968
0
LINE
8
BLACK
6
CONTINUOUS
10
1.23674
20
0.639968
11
1.23691
21
0.640978
0
LINE
8
BLACK
6
CONTINUOUS
10
1.23691
20
0.640978
11
1.23821
21
0.642525
0
LINE
8
BLACK
6
CONTINUOUS
10
1.23821
20
0.642525
11
1.2402
21
0.642876
0
LINE
8
BLACK
6
CONTINUOUS
10
1.2402
20
0.642876
11
1.24195
21
0.641866
0
LINE
8
BLACK
6
CONTINUOUS
10
1.38118
20
0.792767
11
1.38125
21
0.792769
0
LINE
8
BLACK
6
CONTINUOUS
10
1.38125
20
0.792769
11
1.38687
21
0.790894
0
LINE
8
BLACK
6
CONTINUOUS
10
1.38687
20
0.790894
11
1.38777
21
0.790406
0
LINE
8
BLACK
6
CONTINUOUS
10
1.38777
20
0.790406
11
1.38787
21
0.790256
0
LINE
8
BLACK
6
CONTINUOUS
10
1.38787
20
0.790256
11
1.38803
21
0.790181
0
LINE
8
BLACK
6
CONTINUOUS
10
1.38803
20
0.790181
11
1.39178
21
0.786431
0
LINE
8
BLACK
6
CONTINUOUS
10
1.39178
20
0.786431
11
1.39228
21
0.785708
0
LINE
8
BLACK
6
CONTINUOUS
10
1.39228
20
0.785708
11
1.39233
21
0.785664
0
LINE
8
BLACK
6
CONTINUOUS
10
1.39233
20
0.785664
11
1.3942
21
0.781914
0
LINE
8
BLACK
6
CONTINUOUS
10
1.3942
20
0.781914
11
1.39435
21
0.781426
0
LINE
8
BLACK
6
CONTINUOUS
10
1.39435
20
0.781426
11
1.39443
21
0.78131
0
LINE
8
BLACK
6
CONTINUOUS
10
1.39443
20
0.78131
11
1.3963
21
0.773811
0
LINE
8
BLACK
6
CONTINUOUS
10
1.3963
20
0.773811
11
1.39634
21
0.773223
0
LINE
8
BLACK
6
CONTINUOUS
10
1.39634
20
0.773223
11
1.39639
21
0.773095
0
LINE
8
BLACK
6
CONTINUOUS
10
1.39639
20
0.773095
11
1.39639
21
0.767471
0
LINE
8
BLACK
6
CONTINUOUS
10
1.39639
20
0.767471
11
1.39629
21
0.76689
0
LINE
8
BLACK
6
CONTINUOUS
10
1.39629
20
0.76689
11
1.3963
21
0.766754
0
LINE
8
BLACK
6
CONTINUOUS
10
1.3963
20
0.766754
11
1.39443
21
0.759255
0
LINE
8
BLACK
6
CONTINUOUS
10
1.39443
20
0.759255
11
1.39422
21
0.75879
0
LINE
8
BLACK
6
CONTINUOUS
10
1.39422
20
0.75879
11
1.3942
21
0.758651
0
LINE
8
BLACK
6
CONTINUOUS
10
1.3942
20
0.758651
11
1.39233
21
0.754901
0
LINE
8
BLACK
6
CONTINUOUS
10
1.39233
20
0.754901
11
1.3918
21
0.754193
0
LINE
8
BLACK
6
CONTINUOUS
10
1.3918
20
0.754193
11
1.39178
21
0.754134
0
LINE
8
BLACK
6
CONTINUOUS
10
1.39178
20
0.754134
11
1.38803
21
0.750385
0
LINE
8
BLACK
6
CONTINUOUS
10
1.38803
20
0.750385
11
1.38719
21
0.749796
0
LINE
8
BLACK
6
CONTINUOUS
10
1.38719
20
0.749796
11
1.38701
21
0.749781
0
LINE
8
BLACK
6
CONTINUOUS
10
1.38701
20
0.749781
11
1.38687
21
0.749671
0
LINE
8
BLACK
6
CONTINUOUS
10
1.38687
20
0.749671
11
1.38125
21
0.747796
0
LINE
8
BLACK
6
CONTINUOUS
10
1.38125
20
0.747796
11
1.38038
21
0.747667
0
LINE
8
BLACK
6
CONTINUOUS
10
1.38038
20
0.747667
11
1.38031
21
0.747645
0
LINE
8
BLACK
6
CONTINUOUS
10
1.38031
20
0.747645
11
1.37094
21
0.747645
0
LINE
8
BLACK
6
CONTINUOUS
10
1.37094
20
0.747645
11
1.37056
21
0.747713
0
LINE
8
BLACK
6
CONTINUOUS
10
1.37056
20
0.747713
11
1.37043
21
0.74769
0
LINE
8
BLACK
6
CONTINUOUS
10
1.37043
20
0.74769
11
1.37031
21
0.747755
0
LINE
8
BLACK
6
CONTINUOUS
10
1.37031
20
0.747755
11
1.36993
21
0.747823
0
LINE
8
BLACK
6
CONTINUOUS
10
1.36993
20
0.747823
11
1.36934
21
0.748316
0
LINE
8
BLACK
6
CONTINUOUS
10
1.36934
20
0.748316
11
1.36868
21
0.7487
0
LINE
8
BLACK
6
CONTINUOUS
10
1.36868
20
0.7487
11
1.36859
21
0.74895
0
LINE
8
BLACK
6
CONTINUOUS
10
1.36859
20
0.74895
11
1.36838
21
0.749121
0
LINE
8
BLACK
6
CONTINUOUS
10
1.36838
20
0.749121
11
1.36825
21
0.749877
0
LINE
8
BLACK
6
CONTINUOUS
10
1.36825
20
0.749877
11
1.36799
21
0.750598
0
LINE
8
BLACK
6
CONTINUOUS
10
1.36799
20
0.750598
11
1.36799
21
0.789968
0
LINE
8
BLACK
6
CONTINUOUS
10
1.36799
20
0.789968
11
1.36806
21
0.790351
0
LINE
8
BLACK
6
CONTINUOUS
10
1.36806
20
0.790351
11
1.36803
21
0.790481
0
LINE
8
BLACK
6
CONTINUOUS
10
1.36803
20
0.790481
11
1.3681
21
0.790594
0
LINE
8
BLACK
6
CONTINUOUS
10
1.3681
20
0.790594
11
1.36817
21
0.790978
0
LINE
8
BLACK
6
CONTINUOUS
10
1.36817
20
0.790978
11
1.36866
21
0.791565
0
LINE
8
BLACK
6
CONTINUOUS
10
1.36866
20
0.791565
11
1.36904
21
0.79223
0
LINE
8
BLACK
6
CONTINUOUS
10
1.36904
20
0.79223
11
1.36929
21
0.792321
0
LINE
8
BLACK
6
CONTINUOUS
10
1.36929
20
0.792321
11
1.36946
21
0.792525
0
LINE
8
BLACK
6
CONTINUOUS
10
1.36946
20
0.792525
11
1.37022
21
0.792658
0
LINE
8
BLACK
6
CONTINUOUS
10
1.37022
20
0.792658
11
1.37094
21
0.792921
0
LINE
8
BLACK
6
CONTINUOUS
10
1.37094
20
0.792921
11
1.38031
21
0.792921
0
LINE
8
BLACK
6
CONTINUOUS
10
1.38031
20
0.792921
11
1.38118
21
0.792767
0
LINE
8
BLACK
6
CONTINUOUS
10
1.37389
20
0.75355
11
1.37984
21
0.75355
0
LINE
8
BLACK
6
CONTINUOUS
10
1.37984
20
0.75355
11
1.38434
21
0.755053
0
LINE
8
BLACK
6
CONTINUOUS
10
1.38434
20
0.755053
11
1.38726
21
0.757971
0
LINE
8
BLACK
6
CONTINUOUS
10
1.38726
20
0.757971
11
1.38878
21
0.761002
0
LINE
8
BLACK
6
CONTINUOUS
10
1.38878
20
0.761002
11
1.39049
21
0.767834
0
LINE
8
BLACK
6
CONTINUOUS
10
1.39049
20
0.767834
11
1.39049
21
0.772731
0
LINE
8
BLACK
6
CONTINUOUS
10
1.39049
20
0.772731
11
1.38878
21
0.779563
0
LINE
8
BLACK
6
CONTINUOUS
10
1.38878
20
0.779563
11
1.38726
21
0.782594
0
LINE
8
BLACK
6
CONTINUOUS
10
1.38726
20
0.782594
11
1.38434
21
0.785512
0
LINE
8
BLACK
6
CONTINUOUS
10
1.38434
20
0.785512
11
1.37984
21
0.787015
0
LINE
8
BLACK
6
CONTINUOUS
10
1.37984
20
0.787015
11
1.37389
21
0.787015
0
LINE
8
BLACK
6
CONTINUOUS
10
1.37389
20
0.787015
11
1.37389
21
0.75355
0
LINE
8
BLACK
6
CONTINUOUS
10
1.42444
20
0.792742
11
1.42458
21
0.792629
0
LINE
8
BLACK
6
CONTINUOUS
10
1.42458
20
0.792629
11
1.42476
21
0.792609
0
LINE
8
BLACK
6
CONTINUOUS
10
1.42476
20
0.792609
11
1.4285
21
0.790734
0
LINE
8
BLACK
6
CONTINUOUS
10
1.4285
20
0.790734
11
1.42921
21
0.790208
0
LINE
8
BLACK
6
CONTINUOUS
10
1.42921
20
0.790208
11
1.42927
21
0.790181
0
LINE
8
BLACK
6
CONTINUOUS
10
1.42927
20
0.790181
11
1.43115
21
0.788306
0
LINE
8
BLACK
6
CONTINUOUS
10
1.43115
20
0.788306
11
1.43165
21
0.787583
0
LINE
8
BLACK
6
CONTINUOUS
10
1.43165
20
0.787583
11
1.4317
21
0.787539
0
LINE
8
BLACK
6
CONTINUOUS
10
1.4317
20
0.787539
11
1.43357
21
0.783789
0
LINE
8
BLACK
6
CONTINUOUS
10
1.43357
20
0.783789
11
1.43387
21
0.782806
0
LINE
8
BLACK
6
CONTINUOUS
10
1.43387
20
0.782806
11
1.43383
21
0.782635
0
LINE
8
BLACK
6
CONTINUOUS
10
1.43383
20
0.782635
11
1.43389
21
0.782469
0
LINE
8
BLACK
6
CONTINUOUS
10
1.43389
20
0.782469
11
1.43389
21
0.778719
0
LINE
8
BLACK
6
CONTINUOUS
10
1.43389
20
0.778719
11
1.43373
21
0.77785
0
LINE
8
BLACK
6
CONTINUOUS
10
1.43373
20
0.77785
11
1.43373
21
0.777785
0
LINE
8
BLACK
6
CONTINUOUS
10
1.43373
20
0.777785
11
1.43186
21
0.772161
0
LINE
8
BLACK
6
CONTINUOUS
10
1.43186
20
0.772161
11
1.43137
21
0.771259
0
LINE
8
BLACK
6
CONTINUOUS
10
1.43137
20
0.771259
11
1.43122
21
0.771167
0
LINE
8
BLACK
6
CONTINUOUS
10
1.43122
20
0.771167
11
1.43115
21
0.771007
0
LINE
8
BLACK
6
CONTINUOUS
10
1.43115
20
0.771007
11
1.41369
21
0.75355
0
LINE
8
BLACK
6
CONTINUOUS
10
1.41369
20
0.75355
11
1.43093
21
0.75355
0
LINE
8
BLACK
6
CONTINUOUS
10
1.43093
20
0.75355
11
1.43194
21
0.753372
0
LINE
8
BLACK
6
CONTINUOUS
10
1.43194
20
0.753372
11
1.43349
21
0.752074
0
LINE
8
BLACK
6
CONTINUOUS
10
1.43349
20
0.752074
11
1.43384
21
0.750085
0
LINE
8
BLACK
6
CONTINUOUS
10
1.43384
20
0.750085
11
1.43283
21
0.748336
0
LINE
8
BLACK
6
CONTINUOUS
10
1.43283
20
0.748336
11
1.43093
21
0.747645
0
LINE
8
BLACK
6
CONTINUOUS
10
1.43093
20
0.747645
11
1.40656
21
0.747645
0
LINE
8
BLACK
6
CONTINUOUS
10
1.40656
20
0.747645
11
1.40593
21
0.747757
0
LINE
8
BLACK
6
CONTINUOUS
10
1.40593
20
0.747757
11
1.4058
21
0.747746
0
LINE
8
BLACK
6
CONTINUOUS
10
1.4058
20
0.747746
11
1.40573
21
0.747791
0
LINE
8
BLACK
6
CONTINUOUS
10
1.40573
20
0.747791
11
1.40555
21
0.747823
0
LINE
8
BLACK
6
CONTINUOUS
10
1.40555
20
0.747823
11
1.40487
21
0.748394
0
LINE
8
BLACK
6
CONTINUOUS
10
1.40487
20
0.748394
11
1.40414
21
0.748904
0
LINE
8
BLACK
6
CONTINUOUS
10
1.40414
20
0.748904
11
1.40411
21
0.749035
0
LINE
8
BLACK
6
CONTINUOUS
10
1.40411
20
0.749035
11
1.404
21
0.749121
0
LINE
8
BLACK
6
CONTINUOUS
10
1.404
20
0.749121
11
1.40385
21
0.749997
0
LINE
8
BLACK
6
CONTINUOUS
10
1.40385
20
0.749997
11
1.40362
21
0.750855
0
LINE
8
BLACK
6
CONTINUOUS
10
1.40362
20
0.750855
11
1.40368
21
0.750977
0
LINE
8
BLACK
6
CONTINUOUS
10
1.40368
20
0.750977
11
1.40365
21
0.75111
0
LINE
8
BLACK
6
CONTINUOUS
10
1.40365
20
0.75111
11
1.4041
21
0.75188
0
LINE
8
BLACK
6
CONTINUOUS
10
1.4041
20
0.75188
11
1.40447
21
0.752686
0
LINE
8
BLACK
6
CONTINUOUS
10
1.40447
20
0.752686
11
1.42648
21
0.77469
0
LINE
8
BLACK
6
CONTINUOUS
10
1.42648
20
0.77469
11
1.42798
21
0.779198
0
LINE
8
BLACK
6
CONTINUOUS
10
1.42798
20
0.779198
11
1.42798
21
0.781772
0
LINE
8
BLACK
6
CONTINUOUS
10
1.42798
20
0.781772
11
1.42663
21
0.784469
0
LINE
8
BLACK
6
CONTINUOUS
10
1.42663
20
0.784469
11
1.42544
21
0.785666
0
LINE
8
BLACK
6
CONTINUOUS
10
1.42544
20
0.785666
11
1.42274
21
0.787015
0
LINE
8
BLACK
6
CONTINUOUS
10
1.42274
20
0.787015
11
1.41476
21
0.787015
0
LINE
8
BLACK
6
CONTINUOUS
10
1.41476
20
0.787015
11
1.41206
21
0.785666
0
LINE
8
BLACK
6
CONTINUOUS
10
1.41206
20
0.785666
11
1.41052
21
0.78413
0
LINE
8
BLACK
6
CONTINUOUS
10
1.41052
20
0.78413
11
1.40968
21
0.783542
0
LINE
8
BLACK
6
CONTINUOUS
10
1.40968
20
0.783542
11
1.40767
21
0.783366
0
LINE
8
BLACK
6
CONTINUOUS
10
1.40767
20
0.783366
11
1.40602
21
0.784525
0
LINE
8
BLACK
6
CONTINUOUS
10
1.40602
20
0.784525
11
1.40549
21
0.786476
0
LINE
8
BLACK
6
CONTINUOUS
10
1.40549
20
0.786476
11
1.40635
21
0.788306
0
LINE
8
BLACK
6
CONTINUOUS
10
1.40635
20
0.788306
11
1.40822
21
0.790181
0
LINE
8
BLACK
6
CONTINUOUS
10
1.40822
20
0.790181
11
1.40895
21
0.790687
0
LINE
8
BLACK
6
CONTINUOUS
10
1.40895
20
0.790687
11
1.40899
21
0.790734
0
LINE
8
BLACK
6
CONTINUOUS
10
1.40899
20
0.790734
11
1.41274
21
0.792609
0
LINE
8
BLACK
6
CONTINUOUS
10
1.41274
20
0.792609
11
1.41372
21
0.792901
0
LINE
8
BLACK
6
CONTINUOUS
10
1.41372
20
0.792901
11
1.41389
21
0.79286
0
LINE
8
BLACK
6
CONTINUOUS
10
1.41389
20
0.79286
11
1.41406
21
0.792921
0
LINE
8
BLACK
6
CONTINUOUS
10
1.41406
20
0.792921
11
1.42343
21
0.792921
0
LINE
8
BLACK
6
CONTINUOUS
10
1.42343
20
0.792921
11
1.42444
21
0.792742
0
LINE
8
BLACK
6
CONTINUOUS
10
1.67953
20
1.53346
11
1.68092
21
1.53289
0
LINE
8
BLACK
6
CONTINUOUS
10
1.68092
20
1.53289
11
1.6815
21
1.5315
0
LINE
8
BLACK
6
CONTINUOUS
10
1.6815
20
1.5315
11
1.6815
21
0.468504
0
LINE
8
BLACK
6
CONTINUOUS
10
1.6815
20
0.468504
11
1.68092
21
0.467112
0
LINE
8
BLACK
6
CONTINUOUS
10
1.68092
20
0.467112
11
1.67953
21
0.466535
0
LINE
8
BLACK
6
CONTINUOUS
10
1.67953
20
0.466535
11
1.12047
21
0.466535
0
LINE
8
BLACK
6
CONTINUOUS
10
1.12047
20
0.466535
11
1.11908
21
0.467112
0
LINE
8
BLACK
6
CONTINUOUS
10
1.11908
20
0.467112
11
1.1185
21
0.468504
0
LINE
8
BLACK
6
CONTINUOUS
10
1.1185
20
0.468504
11
1.1185
21
1.5315
0
LINE
8
BLACK
6
CONTINUOUS
10
1.1185
20
1.5315
11
1.11908
21
1.53289
0
LINE
8
BLACK
6
CONTINUOUS
10
1.11908
20
1.53289
11
1.12047
21
1.53346
0
LINE
8
BLACK
6
CONTINUOUS
10
1.12047
20
1.53346
11
1.67953
21
1.53346
0
LINE
8
BLACK
6
CONTINUOUS
10
1.12244
20
1.52953
11
1.12244
21
0.470472
0
LINE
8
BLACK
6
CONTINUOUS
10
1.12244
20
0.470472
11
1.67756
21
0.470472
0
LINE
8
BLACK
6
CONTINUOUS
10
1.67756
20
0.470472
11
1.67756
21
1.52953
0
LINE
8
BLACK
6
CONTINUOUS
10
1.67756
20
1.52953
11
1.12244
21
1.52953
0
LINE
8
BLACK
6
CONTINUOUS
10
0.335
20
0.61
11
0.275
21
0.61
0
LINE
8
BLACK
6
CONTINUOUS
10
0.275
20
0.61
11
0.275
21
0.67
0
LINE
8
BLACK
6
CONTINUOUS
10
0.275
20
0.67
11
0.335
21
0.67
0
LINE
8
BLACK
6
CONTINUOUS
10
0.335
20
0.67
11
0.335
21
0.61
0
LINE
8
BLACK
6
CONTINUOUS
10
0.435
20
0.61
11
0.375
21
0.61
0
LINE
8
BLACK
6
CONTINUOUS
10
0.375
20
0.61
11
0.375
21
0.67
0
LINE
8
BLACK
6
CONTINUOUS
10
0.375
20
0.67
11
0.435
21
0.67
0
LINE
8
BLACK
6
CONTINUOUS
10
0.435
20
0.67
11
0.435
21
0.61
0
LINE
8
BLACK
6
CONTINUOUS
10
0.335
20
0.71
11
0.275
21
0.71
0
LINE
8
BLACK
6
CONTINUOUS
10
0.275
20
0.71
11
0.275
21
0.77
0
LINE
8
BLACK
6
CONTINUOUS
10
0.275
20
0.77
11
0.335
21
0.77
0
LINE
8
BLACK
6
CONTINUOUS
10
0.335
20
0.77
11
0.335
21
0.71
0
LINE
8
BLACK
6
CONTINUOUS
10
0.435
20
0.71
11
0.375
21
0.71
0
LINE
8
BLACK
6
CONTINUOUS
10
0.375
20
0.71
11
0.375
21
0.77
0
LINE
8
BLACK
6
CONTINUOUS
10
0.375
20
0.77
11
0.435
21
0.77
0
LINE
8
BLACK
6
CONTINUOUS
10
0.435
20
0.77
11
0.435
21
0.71
0
LINE
8
BLACK
6
CONTINUOUS
10
0.335
20
0.81
11
0.275
21
0.81
0
LINE
8
BLACK
6
CONTINUOUS
10
0.275
20
0.81
11
0.275
21
0.87
0
LINE
8
BLACK
6
CONTINUOUS
10
0.275
20
0.87
11
0.335
21
0.87
0
LINE
8
BLACK
6
CONTINUOUS
10
0.335
20
0.87
11
0.335
21
0.81
0
LINE
8
BLACK
6
CONTINUOUS
10
0.435
20
0.81
11
0.375
21
0.81
0
LINE
8
BLACK
6
CONTINUOUS
10
0.375
20
0.81
11
0.375
21
0.87
0
LINE
8
BLACK
6
CONTINUOUS
10
0.375
20
0.87
11
0.435
21
0.87
0
LINE
8
BLACK
6
CONTINUOUS
10
0.435
20
0.87
11
0.435
21
0.81
0
LINE
8
BLACK
6
CONTINUOUS
10
0.335
20
0.91
11
0.275
21
0.91
0
LINE
8
BLACK
6
CONTINUOUS
10
0.275
20
0.91
11
0.275
21
0.97
0
LINE
8
BLACK
6
CONTINUOUS
10
0.275
20
0.97
11
0.335
21
0.97
0
LINE
8
BLACK
6
CONTINUOUS
10
0.335
20
0.97
11
0.335
21
0.91
0
LINE
8
BLACK
6
CONTINUOUS
10
0.435
20
0.91
11
0.375
21
0.91
0
LINE
8
BLACK
6
CONTINUOUS
10
0.375
20
0.91
11
0.375
21
0.97
0
LINE
8
BLACK
6
CONTINUOUS
10
0.375
20
0.97
11
0.435
21
0.97
0
LINE
8
BLACK
6
CONTINUOUS
10
0.435
20
0.97
11
0.435
21
0.91
0
LINE
8
BLACK
6
CONTINUOUS
10
0.335
20
1.01
11
0.275
21
1.01
0
LINE
8
BLACK
6
CONTINUOUS
10
0.275
20
1.01
11
0.275
21
1.07
0
LINE
8
BLACK
6
CONTINUOUS
10
0.275
20
1.07
11
0.335
21
1.07
0
LINE
8
BLACK
6
CONTINUOUS
10
0.335
20
1.07
11
0.335
21
1.01
0
LINE
8
BLACK
6
CONTINUOUS
10
0.435
20
1.01
11
0.375
21
1.01
0
LINE
8
BLACK
6
CONTINUOUS
10
0.375
20
1.01
11
0.375
21
1.07
0
LINE
8
BLACK
6
CONTINUOUS
10
0.375
20
1.07
11
0.435
21
1.07
0
LINE
8
BLACK
6
CONTINUOUS
10
0.435
20
1.07
11
0.435
21
1.01
0
LINE
8
BLACK
6
CONTINUOUS
10
0.455384
20
1.09289
11
0.455513
21
1.09291
0
LINE
8
BLACK
6
CONTINUOUS
10
0.455513
20
1.09291
11
0.455626
21
1.09284
0
LINE
8
BLACK
6
CONTINUOUS
10
0.455626
20
1.09284
11
0.45601
21
1.09277
0
LINE
8
BLACK
6
CONTINUOUS
10
0.45601
20
1.09277
11
0.456598
21
1.09228
0
LINE
8
BLACK
6
CONTINUOUS
10
0.456598
20
1.09228
11
0.457262
21
1.0919
0
LINE
8
BLACK
6
CONTINUOUS
10
0.457262
20
1.0919
11
0.457353
21
1.09165
0
LINE
8
BLACK
6
CONTINUOUS
10
0.457353
20
1.09165
11
0.457557
21
1.09148
0
LINE
8
BLACK
6
CONTINUOUS
10
0.457557
20
1.09148
11
0.45769
21
1.09072
0
LINE
8
BLACK
6
CONTINUOUS
10
0.45769
20
1.09072
11
0.457953
21
1.09
0
LINE
8
BLACK
6
CONTINUOUS
10
0.457953
20
1.09
11
0.457953
21
0.59
0
LINE
8
BLACK
6
CONTINUOUS
10
0.457953
20
0.59
11
0.457885
21
0.589616
0
LINE
8
BLACK
6
CONTINUOUS
10
0.457885
20
0.589616
11
0.457908
21
0.589487
0
LINE
8
BLACK
6
CONTINUOUS
10
0.457908
20
0.589487
11
0.457842
21
0.589374
0
LINE
8
BLACK
6
CONTINUOUS
10
0.457842
20
0.589374
11
0.457775
21
0.58899
0
LINE
8
BLACK
6
CONTINUOUS
10
0.457775
20
0.58899
11
0.457282
21
0.588402
0
LINE
8
BLACK
6
CONTINUOUS
10
0.457282
20
0.588402
11
0.456898
21
0.587738
0
LINE
8
BLACK
6
CONTINUOUS
10
0.456898
20
0.587738
11
0.456648
21
0.587647
0
LINE
8
BLACK
6
CONTINUOUS
10
0.456648
20
0.587647
11
0.456476
21
0.587443
0
LINE
8
BLACK
6
CONTINUOUS
10
0.456476
20
0.587443
11
0.455721
21
0.58731
0
LINE
8
BLACK
6
CONTINUOUS
10
0.455721
20
0.58731
11
0.455
21
0.587047
0
LINE
8
BLACK
6
CONTINUOUS
10
0.455
20
0.587047
11
0.255
21
0.587047
0
LINE
8
BLACK
6
CONTINUOUS
10
0.255
20
0.587047
11
0.254616
21
0.587115
0
LINE
8
BLACK
6
CONTINUOUS
10
0.254616
20
0.587115
11
0.254487
21
0.587092
0
LINE
8
BLACK
6
CONTINUOUS
10
0.254487
20
0.587092
11
0.254374
21
0.587158
0
LINE
8
BLACK
6
CONTINUOUS
10
0.254374
20
0.587158
11
0.25399
21
0.587225
0
LINE
8
BLACK
6
CONTINUOUS
10
0.25399
20
0.587225
11
0.253402
21
0.587718
0
LINE
8
BLACK
6
CONTINUOUS
10
0.253402
20
0.587718
11
0.252738
21
0.588102
0
LINE
8
BLACK
6
CONTINUOUS
10
0.252738
20
0.588102
11
0.252647
21
0.588352
0
LINE
8
BLACK
6
CONTINUOUS
10
0.252647
20
0.588352
11
0.252443
21
0.588524
0
LINE
8
BLACK
6
CONTINUOUS
10
0.252443
20
0.588524
11
0.25231
21
0.589279
0
LINE
8
BLACK
6
CONTINUOUS
10
0.25231
20
0.589279
11
0.252047
21
0.59
0
LINE
8
BLACK
6
CONTINUOUS
10
0.252047
20
0.59
11
0.252047
21
1.09
0
LINE
8
BLACK
6
CONTINUOUS
10
0.252047
20
1.09
11
0.252115
21
1.09038
0
LINE
8
BLACK
6
CONTINUOUS
10
0.252115
20
1.09038
11
0.252092
21
1.09051
0
LINE
8
BLACK
6
CONTINUOUS
10
0.252092
20
1.09051
11
0.252158
21
1.09063
0
LINE
8
BLACK
6
CONTINUOUS
10
0.252158
20
1.09063
11
0.252225
21
1.09101
0
LINE
8
BLACK
6
CONTINUOUS
10
0.252225
20
1.09101
11
0.252718
21
1.0916
0
LINE
8
BLACK
6
CONTINUOUS
10
0.252718
20
1.0916
11
0.253102
21
1.09226
0
LINE
8
BLACK
6
CONTINUOUS
10
0.253102
20
1.09226
11
0.253352
21
1.09235
0
LINE
8
BLACK
6
CONTINUOUS
10
0.253352
20
1.09235
11
0.253524
21
1.09256
0
LINE
8
BLACK
6
CONTINUOUS
10
0.253524
20
1.09256
11
0.254279
21
1.09269
0
LINE
8
BLACK
6
CONTINUOUS
10
0.254279
20
1.09269
11
0.255
21
1.09295
0
LINE
8
BLACK
6
CONTINUOUS
10
0.255
20
1.09295
11
0.455
21
1.09295
0
LINE
8
BLACK
6
CONTINUOUS
10
0.455
20
1.09295
11
0.455384
21
1.09289
0
LINE
8
BLACK
6
CONTINUOUS
10
0.257953
20
1.08705
11
0.257953
21
0.592953
0
LINE
8
BLACK
6
CONTINUOUS
10
0.257953
20
0.592953
11
0.452047
21
0.592953
0
LINE
8
BLACK
6
CONTINUOUS
10
0.452047
20
0.592953
11
0.452047
21
1.08705
0
LINE
8
BLACK
6
CONTINUOUS
10
0.452047
20
1.08705
11
0.257953
21
1.08705
0
LINE
8
BLACK
6
CONTINUOUS
10
2.32414
20
0.631354
11
2.32483
21
0.629456
0
LINE
8
BLACK
6
CONTINUOUS
10
2.32483
20
0.629456
11
2.32483
21
0.601334
0
LINE
8
BLACK
6
CONTINUOUS
10
2.32483
20
0.601334
11
2.32468
21
0.600465
0
LINE
8
BLACK
6
CONTINUOUS
10
2.32468
20
0.600465
11
2.32468
21
0.600401
0
LINE
8
BLACK
6
CONTINUOUS
10
2.32468
20
0.600401
11
2.3228
21
0.594776
0
LINE
8
BLACK
6
CONTINUOUS
10
2.3228
20
0.594776
11
2.32231
21
0.593875
0
LINE
8
BLACK
6
CONTINUOUS
10
2.32231
20
0.593875
11
2.32216
21
0.593782
0
LINE
8
BLACK
6
CONTINUOUS
10
2.32216
20
0.593782
11
2.32209
21
0.593622
0
LINE
8
BLACK
6
CONTINUOUS
10
2.32209
20
0.593622
11
2.31834
21
0.589873
0
LINE
8
BLACK
6
CONTINUOUS
10
2.31834
20
0.589873
11
2.3175
21
0.589285
0
LINE
8
BLACK
6
CONTINUOUS
10
2.3175
20
0.589285
11
2.31732
21
0.589269
0
LINE
8
BLACK
6
CONTINUOUS
10
2.31732
20
0.589269
11
2.31719
21
0.589159
0
LINE
8
BLACK
6
CONTINUOUS
10
2.31719
20
0.589159
11
2.31156
21
0.587285
0
LINE
8
BLACK
6
CONTINUOUS
10
2.31156
20
0.587285
11
2.31069
21
0.587155
0
LINE
8
BLACK
6
CONTINUOUS
10
2.31069
20
0.587155
11
2.31063
21
0.587133
0
LINE
8
BLACK
6
CONTINUOUS
10
2.31063
20
0.587133
11
2.30688
21
0.587133
0
LINE
8
BLACK
6
CONTINUOUS
10
2.30688
20
0.587133
11
2.30587
21
0.587311
0
LINE
8
BLACK
6
CONTINUOUS
10
2.30587
20
0.587311
11
2.30432
21
0.588609
0
LINE
8
BLACK
6
CONTINUOUS
10
2.30432
20
0.588609
11
2.30397
21
0.590599
0
LINE
8
BLACK
6
CONTINUOUS
10
2.30397
20
0.590599
11
2.30498
21
0.592348
0
LINE
8
BLACK
6
CONTINUOUS
10
2.30498
20
0.592348
11
2.30688
21
0.593039
0
LINE
8
BLACK
6
CONTINUOUS
10
2.30688
20
0.593039
11
2.31015
21
0.593039
0
LINE
8
BLACK
6
CONTINUOUS
10
2.31015
20
0.593039
11
2.31466
21
0.594541
0
LINE
8
BLACK
6
CONTINUOUS
10
2.31466
20
0.594541
11
2.31742
21
0.597305
0
LINE
8
BLACK
6
CONTINUOUS
10
2.31742
20
0.597305
11
2.31892
21
0.601814
0
LINE
8
BLACK
6
CONTINUOUS
10
2.31892
20
0.601814
11
2.31892
21
0.629456
0
LINE
8
BLACK
6
CONTINUOUS
10
2.31892
20
0.629456
11
2.3191
21
0.630466
0
LINE
8
BLACK
6
CONTINUOUS
10
2.3191
20
0.630466
11
2.3204
21
0.632013
0
LINE
8
BLACK
6
CONTINUOUS
10
2.3204
20
0.632013
11
2.32239
21
0.632364
0
LINE
8
BLACK
6
CONTINUOUS
10
2.32239
20
0.632364
11
2.32414
21
0.631354
0
LINE
8
BLACK
6
CONTINUOUS
10
2.35034
20
0.632334
11
2.35051
21
0.632364
0
LINE
8
BLACK
6
CONTINUOUS
10
2.35051
20
0.632364
11
2.35125
21
0.631935
0
LINE
8
BLACK
6
CONTINUOUS
10
2.35125
20
0.631935
11
2.35204
21
0.631591
0
LINE
8
BLACK
6
CONTINUOUS
10
2.35204
20
0.631591
11
2.35211
21
0.631439
0
LINE
8
BLACK
6
CONTINUOUS
10
2.35211
20
0.631439
11
2.35226
21
0.631354
0
LINE
8
BLACK
6
CONTINUOUS
10
2.35226
20
0.631354
11
2.35255
21
0.630549
0
LINE
8
BLACK
6
CONTINUOUS
10
2.35255
20
0.630549
11
2.35293
21
0.62978
0
LINE
8
BLACK
6
CONTINUOUS
10
2.35293
20
0.62978
11
2.35289
21
0.629616
0
LINE
8
BLACK
6
CONTINUOUS
10
2.35289
20
0.629616
11
2.35295
21
0.629456
0
LINE
8
BLACK
6
CONTINUOUS
10
2.35295
20
0.629456
11
2.35295
21
0.593039
0
LINE
8
BLACK
6
CONTINUOUS
10
2.35295
20
0.593039
11
2.36125
21
0.593039
0
LINE
8
BLACK
6
CONTINUOUS
10
2.36125
20
0.593039
11
2.36226
21
0.592861
0
LINE
8
BLACK
6
CONTINUOUS
10
2.36226
20
0.592861
11
2.3638
21
0.591562
0
LINE
8
BLACK
6
CONTINUOUS
10
2.3638
20
0.591562
11
2.36415
21
0.589573
0
LINE
8
BLACK
6
CONTINUOUS
10
2.36415
20
0.589573
11
2.36314
21
0.587824
0
LINE
8
BLACK
6
CONTINUOUS
10
2.36314
20
0.587824
11
2.36125
21
0.587133
0
LINE
8
BLACK
6
CONTINUOUS
10
2.36125
20
0.587133
11
2.33875
21
0.587133
0
LINE
8
BLACK
6
CONTINUOUS
10
2.33875
20
0.587133
11
2.33774
21
0.587311
0
LINE
8
BLACK
6
CONTINUOUS
10
2.33774
20
0.587311
11
2.33619
21
0.588609
0
LINE
8
BLACK
6
CONTINUOUS
10
2.33619
20
0.588609
11
2.33584
21
0.590599
0
LINE
8
BLACK
6
CONTINUOUS
10
2.33584
20
0.590599
11
2.33685
21
0.592348
0
LINE
8
BLACK
6
CONTINUOUS
10
2.33685
20
0.592348
11
2.33875
21
0.593039
0
LINE
8
BLACK
6
CONTINUOUS
10
2.33875
20
0.593039
11
2.34705
21
0.593039
0
LINE
8
BLACK
6
CONTINUOUS
10
2.34705
20
0.593039
11
2.34705
21
0.620453
0
LINE
8
BLACK
6
CONTINUOUS
10
2.34705
20
0.620453
11
2.34459
21
0.617994
0
LINE
8
BLACK
6
CONTINUOUS
10
2.34459
20
0.617994
11
2.34386
21
0.617488
0
LINE
8
BLACK
6
CONTINUOUS
10
2.34386
20
0.617488
11
2.34382
21
0.617441
0
LINE
8
BLACK
6
CONTINUOUS
10
2.34382
20
0.617441
11
2.34007
21
0.615566
0
LINE
8
BLACK
6
CONTINUOUS
10
2.34007
20
0.615566
11
2.33909
21
0.615274
0
LINE
8
BLACK
6
CONTINUOUS
10
2.33909
20
0.615274
11
2.33712
21
0.615743
0
LINE
8
BLACK
6
CONTINUOUS
10
2.33712
20
0.615743
11
2.33592
21
0.617366
0
LINE
8
BLACK
6
CONTINUOUS
10
2.33592
20
0.617366
11
2.33604
21
0.619382
0
LINE
8
BLACK
6
CONTINUOUS
10
2.33604
20
0.619382
11
2.33743
21
0.620848
0
LINE
8
BLACK
6
CONTINUOUS
10
2.33743
20
0.620848
11
2.34075
21
0.622509
0
LINE
8
BLACK
6
CONTINUOUS
10
2.34075
20
0.622509
11
2.34395
21
0.625713
0
LINE
8
BLACK
6
CONTINUOUS
10
2.34395
20
0.625713
11
2.34754
21
0.631094
0
LINE
8
BLACK
6
CONTINUOUS
10
2.34754
20
0.631094
11
2.34825
21
0.631835
0
LINE
8
BLACK
6
CONTINUOUS
10
2.34825
20
0.631835
11
2.34841
21
0.631883
0
LINE
8
BLACK
6
CONTINUOUS
10
2.34841
20
0.631883
11
2.34852
21
0.632013
0
LINE
8
BLACK
6
CONTINUOUS
10
2.34852
20
0.632013
11
2.34937
21
0.632162
0
LINE
8
BLACK
6
CONTINUOUS
10
2.34937
20
0.632162
11
2.35019
21
0.632403
0
LINE
8
BLACK
6
CONTINUOUS
10
2.35019
20
0.632403
11
2.35034
21
0.632334
0
LINE
8
BLACK
6
CONTINUOUS
10
2.39376
20
0.664584
11
2.39445
21
0.662913
0
LINE
8
BLACK
6
CONTINUOUS
10
2.39445
20
0.662913
11
2.39376
21
0.661243
0
LINE
8
BLACK
6
CONTINUOUS
10
2.39376
20
0.661243
11
2.39209
21
0.660551
0
LINE
8
BLACK
6
CONTINUOUS
10
2.39209
20
0.660551
11
2.27791
21
0.660551
0
LINE
8
BLACK
6
CONTINUOUS
10
2.27791
20
0.660551
11
2.27624
21
0.661243
0
LINE
8
BLACK
6
CONTINUOUS
10
2.27624
20
0.661243
11
2.27555
21
0.662913
0
LINE
8
BLACK
6
CONTINUOUS
10
2.27555
20
0.662913
11
2.27624
21
0.664584
0
LINE
8
BLACK
6
CONTINUOUS
10
2.27624
20
0.664584
11
2.27791
21
0.665276
0
LINE
8
BLACK
6
CONTINUOUS
10
2.27791
20
0.665276
11
2.39209
21
0.665276
0
LINE
8
BLACK
6
CONTINUOUS
10
2.39209
20
0.665276
11
2.39376
21
0.664584
0
LINE
8
BLACK
6
CONTINUOUS
10
2.20458
20
0.853757
11
2.20528
21
0.852087
0
LINE
8
BLACK
6
CONTINUOUS
10
2.20528
20
0.852087
11
2.20528
21
0.737913
0
LINE
8
BLACK
6
CONTINUOUS
10
2.20528
20
0.737913
11
2.20458
21
0.736243
0
LINE
8
BLACK
6
CONTINUOUS
10
2.20458
20
0.736243
11
2.20291
21
0.735551
0
LINE
8
BLACK
6
CONTINUOUS
10
2.20291
20
0.735551
11
2.20124
21
0.736243
0
LINE
8
BLACK
6
CONTINUOUS
10
2.20124
20
0.736243
11
2.20055
21
0.737913
0
LINE
8
BLACK
6
CONTINUOUS
10
2.20055
20
0.737913
11
2.20055
21
0.852087
0
LINE
8
BLACK
6
CONTINUOUS
10
2.20055
20
0.852087
11
2.20124
21
0.853757
0
LINE
8
BLACK
6
CONTINUOUS
10
2.20124
20
0.853757
11
2.20291
21
0.854449
0
LINE
8
BLACK
6
CONTINUOUS
10
2.20291
20
0.854449
11
2.20458
21
0.853757
0
LINE
8
BLACK
6
CONTINUOUS
10
2.46876
20
0.853757
11
2.46945
21
0.852087
0
LINE
8
BLACK
6
CONTINUOUS
10
2.46945
20
0.852087
11
2.46945
21
0.737913
0
LINE
8
BLACK
6
CONTINUOUS
10
2.46945
20
0.737913
11
2.46876
21
0.736243
0
LINE
8
BLACK
6
CONTINUOUS
10
2.46876
20
0.736243
11
2.46709
21
0.735551
0
LINE
8
BLACK
6
CONTINUOUS
10
2.46709
20
0.735551
11
2.46542
21
0.736243
0
LINE
8
BLACK
6
CONTINUOUS
10
2.46542
20
0.736243
11
2.46472
21
0.737913
0
LINE
8
BLACK
6
CONTINUOUS
10
2.46472
20
0.737913
11
2.46472
21
0.852087
0
LINE
8
BLACK
6
CONTINUOUS
10
2.46472
20
0.852087
11
2.46542
21
0.853757
0
LINE
8
BLACK
6
CONTINUOUS
10
2.46542
20
0.853757
11
2.46709
21
0.854449
0
LINE
8
BLACK
6
CONTINUOUS
10
2.46709
20
0.854449
11
2.46876
21
0.853757
0
LINE
8
BLACK
6
CONTINUOUS
10
2.39376
20
0.928757
11
2.39445
21
0.927087
0
LINE
8
BLACK
6
CONTINUOUS
10
2.39445
20
0.927087
11
2.39376
21
0.925416
0
LINE
8
BLACK
6
CONTINUOUS
10
2.39376
20
0.925416
11
2.39209
21
0.924724
0
LINE
8
BLACK
6
CONTINUOUS
10
2.39209
20
0.924724
11
2.27791
21
0.924724
0
LINE
8
BLACK
6
CONTINUOUS
10
2.27791
20
0.924724
11
2.27624
21
0.925416
0
LINE
8
BLACK
6
CONTINUOUS
10
2.27624
20
0.925416
11
2.27555
21
0.927087
0
LINE
8
BLACK
6
CONTINUOUS
10
2.27555
20
0.927087
11
2.27624
21
0.928757
0
LINE
8
BLACK
6
CONTINUOUS
10
2.27624
20
0.928757
11
2.27791
21
0.929449
0
LINE
8
BLACK
6
CONTINUOUS
10
2.27791
20
0.929449
11
2.39209
21
0.929449
0
LINE
8
BLACK
6
CONTINUOUS
10
2.39209
20
0.929449
11
2.39376
21
0.928757
0
LINE
8
BLACK
6
CONTINUOUS
10
2.40726
20
1.2169
11
2.40795
21
1.215
0
LINE
8
BLACK
6
CONTINUOUS
10
2.40795
20
1.215
11
2.40795
21
1.125
0
LINE
8
BLACK
6
CONTINUOUS
10
2.40795
20
1.125
11
2.40789
21
1.12462
0
LINE
8
BLACK
6
CONTINUOUS
10
2.40789
20
1.12462
11
2.40791
21
1.12449
0
LINE
8
BLACK
6
CONTINUOUS
10
2.40791
20
1.12449
11
2.40784
21
1.12437
0
LINE
8
BLACK
6
CONTINUOUS
10
2.40784
20
1.12437
11
2.40777
21
1.12399
0
LINE
8
BLACK
6
CONTINUOUS
10
2.40777
20
1.12399
11
2.40728
21
1.1234
0
LINE
8
BLACK
6
CONTINUOUS
10
2.40728
20
1.1234
11
2.4069
21
1.12274
0
LINE
8
BLACK
6
CONTINUOUS
10
2.4069
20
1.12274
11
2.40665
21
1.12265
0
LINE
8
BLACK
6
CONTINUOUS
10
2.40665
20
1.12265
11
2.40648
21
1.12244
0
LINE
8
BLACK
6
CONTINUOUS
10
2.40648
20
1.12244
11
2.40572
21
1.12231
0
LINE
8
BLACK
6
CONTINUOUS
10
2.40572
20
1.12231
11
2.405
21
1.12205
0
LINE
8
BLACK
6
CONTINUOUS
10
2.405
20
1.12205
11
2.205
21
1.12205
0
LINE
8
BLACK
6
CONTINUOUS
10
2.205
20
1.12205
11
2.20462
21
1.12211
0
LINE
8
BLACK
6
CONTINUOUS
10
2.20462
20
1.12211
11
2.20449
21
1.12209
0
LINE
8
BLACK
6
CONTINUOUS
10
2.20449
20
1.12209
11
2.20437
21
1.12216
0
LINE
8
BLACK
6
CONTINUOUS
10
2.20437
20
1.12216
11
2.20399
21
1.12223
0
LINE
8
BLACK
6
CONTINUOUS
10
2.20399
20
1.12223
11
2.2034
21
1.12272
0
LINE
8
BLACK
6
CONTINUOUS
10
2.2034
20
1.12272
11
2.20274
21
1.1231
0
LINE
8
BLACK
6
CONTINUOUS
10
2.20274
20
1.1231
11
2.20265
21
1.12335
0
LINE
8
BLACK
6
CONTINUOUS
10
2.20265
20
1.12335
11
2.20244
21
1.12352
0
LINE
8
BLACK
6
CONTINUOUS
10
2.20244
20
1.12352
11
2.20231
21
1.12428
0
LINE
8
BLACK
6
CONTINUOUS
10
2.20231
20
1.12428
11
2.20205
21
1.125
0
LINE
8
BLACK
6
CONTINUOUS
10
2.20205
20
1.125
11
2.20205
21
1.215
0
LINE
8
BLACK
6
CONTINUOUS
10
2.20205
20
1.215
11
2.20223
21
1.21601
0
LINE
8
BLACK
6
CONTINUOUS
10
2.20223
20
1.21601
11
2.20352
21
1.21756
0
LINE
8
BLACK
6
CONTINUOUS
10
2.20352
20
1.21756
11
2.20551
21
1.21791
0
LINE
8
BLACK
6
CONTINUOUS
10
2.20551
20
1.21791
11
2.20726
21
1.2169
0
LINE
8
BLACK
6
CONTINUOUS
10
2.20726
20
1.2169
11
2.20795
21
1.215
0
LINE
8
BLACK
6
CONTINUOUS
10
2.20795
20
1.215
11
2.20795
21
1.12795
0
LINE
8
BLACK
6
CONTINUOUS
10
2.20795
20
1.12795
11
2.40205
21
1.12795
0
LINE
8
BLACK
6
CONTINUOUS
10
2.40205
20
1.12795
11
2.40205
21
1.215
0
LINE
8
BLACK
6
CONTINUOUS
10
2.40205
20
1.215
11
2.40223
21
1.21601
0
LINE
8
BLACK
6
CONTINUOUS
10
2.40223
20
1.21601
11
2.40352
21
1.21756
0
LINE
8
BLACK
6
CONTINUOUS
10
2.40352
20
1.21756
11
2.40551
21
1.21791
0
LINE
8
BLACK
6
CONTINUOUS
10
2.40551
20
1.21791
11
2.40726
21
1.2169
0
CIRCLE
8
BLACK
10
0.305
20
1.04
40
0.00688976
0
CIRCLE
8
BLACK
10
0.405
20
1.04
40
0.00688976
0
CIRCLE
8
BLACK
10
0.305
20
0.94
40
0.00688976
0
CIRCLE
8
BLACK
10
0.405
20
0.94
40
0.00688976
0
CIRCLE
8
BLACK
10
0.305
20
0.84
40
0.00688976
0
CIRCLE
8
BLACK
10
0.405
20
0.84
40
0.00688976
0
CIRCLE
8
BLACK
10
0.305
20
0.74
40
0.00688976
0
CIRCLE
8
BLACK
10
0.405
20
0.74
40
0.00688976
0
CIRCLE
8
BLACK
10
0.305
20
0.64
40
0.00688976
0
CIRCLE
8
BLACK
10
0.405
20
0.64
40
0.00688976
0
CIRCLE
8
BLACK
10
2.4
20
1.6
40
0.00688976
0
CIRCLE
8
BLACK
10
2.255
20
1.175
40
0.00688976
0
CIRCLE
8
BLACK
10
2.355
20
1.175
40
0.00688976
0
CIRCLE
8
BLACK
10
2.4
20
0.4
40
0.00688976
0
CIRCLE
8
BLACK
10
2.335
20
0.795
40
0.00688976
0
CIRCLE
8
BLACK
10
2.435
20
0.695
40
0.00688976
0
CIRCLE
8
BLACK
10
2.435
20
0.895
40
0.00688976
0
CIRCLE
8
BLACK
10
2.235
20
0.695
40
0.00688976
0
CIRCLE
8
BLACK
10
2.235
20
0.895
40
0.00688976
0
CIRCLE
8
BLACK
10
0.4
20
0.4
40
0.00688976
0
CIRCLE
8
BLACK
10
0.4
20
1.6
40
0.00688976
0
CIRCLE
8
BLACK
10
1.30157
20
0.566929
40
0.00688976
0
CIRCLE
8
BLACK
10
1.49843
20
0.566929
40
0.00688976
  0
ENDSEC
  0
EOF
