  0
SECTION
  2
HEADER
  9
$ANGBASE
  50
0.0
  9
$ANGDIR
  70
1
  9
$MEASUREMENT
  70
0
  0
ENDSEC
  0
SECTION
  2
TABLES
  0
TABLE
  2
LTYPE
  70
4
  0
LTYPE
  5
40F
  2
CONTINUOUS
  70
0
  3
Solid line
  72
65
  73
0
  40
0.0
  0
LTYPE
  5
410
  2
DASHDOT
 70
0
  3
Dash Dot ____ _ ____ _
 72
65
 73
4
 40
2.0
 49
1.25
 49
-0.25
 49
0.25
 49
-0.25
  0
LTYPE
  5
411
  2
DASHED
 70
0
  3
Dashed __ __ __ __ __
 72
65
 73
2
 40
0.75
 49
0.5
 49
-0.25
  0
LTYPE
  5
43B
  2
DOTTED
 70
0
  3
Dotted .  .  .  .
 72
65
 73
2
 40
0.2
 49
0.0
 49
-0.2
  0
ENDTAB
  0
TABLE
  2
STYLE
  70
4
  0
STYLE
  2
KICAD
  70
0
  40
0
  41
1
  42
1
  50
0
  71
0
  3
isocp.shx
  0
STYLE
  2
KICADB
  70
0
  40
0
  41
1
  42
1
  50
0
  71
0
  3
isocp.shx
  0
STYLE
  2
KICADI
  70
0
  40
0
  41
1
  42
1
  50
15
  71
0
  3
isocp.shx
  0
STYLE
  2
KICADBI
  70
0
  40
0
  41
1
  42
1
  50
15
  71
0
  3
isocp.shx
  0
ENDTAB
  0
TABLE
  2
LAYER
  70
1
  0
LAYER
  2
BLACK
  70
0
  62
7
  6
CONTINUOUS
  0
ENDTAB
  0
ENDSEC
  0
SECTION
  2
ENTITIES
0
LINE
8
BLACK
6
CONTINUOUS
10
0.376208
20
0.427794
11
0.379401
21
0.425661
0
LINE
8
BLACK
6
CONTINUOUS
10
0.379401
20
0.425661
11
0.381534
21
0.422467
0
LINE
8
BLACK
6
CONTINUOUS
10
0.381534
20
0.422467
11
0.382283
21
0.418701
0
LINE
8
BLACK
6
CONTINUOUS
10
0.382283
20
0.418701
11
0.382283
21
0.381299
0
LINE
8
BLACK
6
CONTINUOUS
10
0.382283
20
0.381299
11
0.381534
21
0.377533
0
LINE
8
BLACK
6
CONTINUOUS
10
0.381534
20
0.377533
11
0.379401
21
0.374339
0
LINE
8
BLACK
6
CONTINUOUS
10
0.379401
20
0.374339
11
0.376208
21
0.372206
0
LINE
8
BLACK
6
CONTINUOUS
10
0.376208
20
0.372206
11
0.372441
21
0.371457
0
LINE
8
BLACK
6
CONTINUOUS
10
0.372441
20
0.371457
11
0.352756
21
0.371457
0
LINE
8
BLACK
6
CONTINUOUS
10
0.352756
20
0.371457
11
0.348989
21
0.372206
0
LINE
8
BLACK
6
CONTINUOUS
10
0.348989
20
0.372206
11
0.345796
21
0.374339
0
LINE
8
BLACK
6
CONTINUOUS
10
0.345796
20
0.374339
11
0.343663
21
0.377533
0
LINE
8
BLACK
6
CONTINUOUS
10
0.343663
20
0.377533
11
0.342913
21
0.381299
0
LINE
8
BLACK
6
CONTINUOUS
10
0.342913
20
0.381299
11
0.342913
21
0.418701
0
LINE
8
BLACK
6
CONTINUOUS
10
0.342913
20
0.418701
11
0.343663
21
0.422467
0
LINE
8
BLACK
6
CONTINUOUS
10
0.343663
20
0.422467
11
0.345796
21
0.425661
0
LINE
8
BLACK
6
CONTINUOUS
10
0.345796
20
0.425661
11
0.348989
21
0.427794
0
LINE
8
BLACK
6
CONTINUOUS
10
0.348989
20
0.427794
11
0.352756
21
0.428543
0
LINE
8
BLACK
6
CONTINUOUS
10
0.352756
20
0.428543
11
0.372441
21
0.428543
0
LINE
8
BLACK
6
CONTINUOUS
10
0.372441
20
0.428543
11
0.376208
21
0.427794
0
LINE
8
BLACK
6
CONTINUOUS
10
0.451011
20
0.427794
11
0.454204
21
0.425661
0
LINE
8
BLACK
6
CONTINUOUS
10
0.454204
20
0.425661
11
0.456337
21
0.422467
0
LINE
8
BLACK
6
CONTINUOUS
10
0.456337
20
0.422467
11
0.457087
21
0.418701
0
LINE
8
BLACK
6
CONTINUOUS
10
0.457087
20
0.418701
11
0.457087
21
0.381299
0
LINE
8
BLACK
6
CONTINUOUS
10
0.457087
20
0.381299
11
0.456337
21
0.377533
0
LINE
8
BLACK
6
CONTINUOUS
10
0.456337
20
0.377533
11
0.454204
21
0.374339
0
LINE
8
BLACK
6
CONTINUOUS
10
0.454204
20
0.374339
11
0.451011
21
0.372206
0
LINE
8
BLACK
6
CONTINUOUS
10
0.451011
20
0.372206
11
0.447244
21
0.371457
0
LINE
8
BLACK
6
CONTINUOUS
10
0.447244
20
0.371457
11
0.427559
21
0.371457
0
LINE
8
BLACK
6
CONTINUOUS
10
0.427559
20
0.371457
11
0.423792
21
0.372206
0
LINE
8
BLACK
6
CONTINUOUS
10
0.423792
20
0.372206
11
0.420599
21
0.374339
0
LINE
8
BLACK
6
CONTINUOUS
10
0.420599
20
0.374339
11
0.418466
21
0.377533
0
LINE
8
BLACK
6
CONTINUOUS
10
0.418466
20
0.377533
11
0.417717
21
0.381299
0
LINE
8
BLACK
6
CONTINUOUS
10
0.417717
20
0.381299
11
0.417717
21
0.418701
0
LINE
8
BLACK
6
CONTINUOUS
10
0.417717
20
0.418701
11
0.418466
21
0.422467
0
LINE
8
BLACK
6
CONTINUOUS
10
0.418466
20
0.422467
11
0.420599
21
0.425661
0
LINE
8
BLACK
6
CONTINUOUS
10
0.420599
20
0.425661
11
0.423792
21
0.427794
0
LINE
8
BLACK
6
CONTINUOUS
10
0.423792
20
0.427794
11
0.427559
21
0.428543
0
LINE
8
BLACK
6
CONTINUOUS
10
0.427559
20
0.428543
11
0.447244
21
0.428543
0
LINE
8
BLACK
6
CONTINUOUS
10
0.447244
20
0.428543
11
0.451011
21
0.427794
0
LINE
8
BLACK
6
CONTINUOUS
10
0.770472
20
0.608971
11
0.672047
21
0.608971
0
LINE
8
BLACK
6
CONTINUOUS
10
0.672047
20
0.608971
11
0.672047
21
0.679837
0
LINE
8
BLACK
6
CONTINUOUS
10
0.672047
20
0.679837
11
0.770472
21
0.679837
0
LINE
8
BLACK
6
CONTINUOUS
10
0.770472
20
0.679837
11
0.770472
21
0.608971
0
LINE
8
BLACK
6
CONTINUOUS
10
0.927953
20
0.608971
11
0.829528
21
0.608971
0
LINE
8
BLACK
6
CONTINUOUS
10
0.829528
20
0.608971
11
0.829528
21
0.679837
0
LINE
8
BLACK
6
CONTINUOUS
10
0.829528
20
0.679837
11
0.927953
21
0.679837
0
LINE
8
BLACK
6
CONTINUOUS
10
0.927953
20
0.679837
11
0.927953
21
0.608971
0
LINE
8
BLACK
6
CONTINUOUS
10
0.376208
20
1.04551
11
0.379401
21
1.04338
0
LINE
8
BLACK
6
CONTINUOUS
10
0.379401
20
1.04338
11
0.381534
21
1.04018
0
LINE
8
BLACK
6
CONTINUOUS
10
0.381534
20
1.04018
11
0.382283
21
1.03642
0
LINE
8
BLACK
6
CONTINUOUS
10
0.382283
20
1.03642
11
0.382283
21
0.999016
0
LINE
8
BLACK
6
CONTINUOUS
10
0.382283
20
0.999016
11
0.381534
21
0.995249
0
LINE
8
BLACK
6
CONTINUOUS
10
0.381534
20
0.995249
11
0.379401
21
0.992056
0
LINE
8
BLACK
6
CONTINUOUS
10
0.379401
20
0.992056
11
0.376208
21
0.989922
0
LINE
8
BLACK
6
CONTINUOUS
10
0.376208
20
0.989922
11
0.372441
21
0.989173
0
LINE
8
BLACK
6
CONTINUOUS
10
0.372441
20
0.989173
11
0.352756
21
0.989173
0
LINE
8
BLACK
6
CONTINUOUS
10
0.352756
20
0.989173
11
0.348989
21
0.989922
0
LINE
8
BLACK
6
CONTINUOUS
10
0.348989
20
0.989922
11
0.345796
21
0.992056
0
LINE
8
BLACK
6
CONTINUOUS
10
0.345796
20
0.992056
11
0.343663
21
0.995249
0
LINE
8
BLACK
6
CONTINUOUS
10
0.343663
20
0.995249
11
0.342913
21
0.999016
0
LINE
8
BLACK
6
CONTINUOUS
10
0.342913
20
0.999016
11
0.342913
21
1.03642
0
LINE
8
BLACK
6
CONTINUOUS
10
0.342913
20
1.03642
11
0.343663
21
1.04018
0
LINE
8
BLACK
6
CONTINUOUS
10
0.343663
20
1.04018
11
0.345796
21
1.04338
0
LINE
8
BLACK
6
CONTINUOUS
10
0.345796
20
1.04338
11
0.348989
21
1.04551
0
LINE
8
BLACK
6
CONTINUOUS
10
0.348989
20
1.04551
11
0.352756
21
1.04626
0
LINE
8
BLACK
6
CONTINUOUS
10
0.352756
20
1.04626
11
0.372441
21
1.04626
0
LINE
8
BLACK
6
CONTINUOUS
10
0.372441
20
1.04626
11
0.376208
21
1.04551
0
LINE
8
BLACK
6
CONTINUOUS
10
0.451011
20
1.04551
11
0.454204
21
1.04338
0
LINE
8
BLACK
6
CONTINUOUS
10
0.454204
20
1.04338
11
0.456337
21
1.04018
0
LINE
8
BLACK
6
CONTINUOUS
10
0.456337
20
1.04018
11
0.457087
21
1.03642
0
LINE
8
BLACK
6
CONTINUOUS
10
0.457087
20
1.03642
11
0.457087
21
0.999016
0
LINE
8
BLACK
6
CONTINUOUS
10
0.457087
20
0.999016
11
0.456337
21
0.995249
0
LINE
8
BLACK
6
CONTINUOUS
10
0.456337
20
0.995249
11
0.454204
21
0.992056
0
LINE
8
BLACK
6
CONTINUOUS
10
0.454204
20
0.992056
11
0.451011
21
0.989922
0
LINE
8
BLACK
6
CONTINUOUS
10
0.451011
20
0.989922
11
0.447244
21
0.989173
0
LINE
8
BLACK
6
CONTINUOUS
10
0.447244
20
0.989173
11
0.427559
21
0.989173
0
LINE
8
BLACK
6
CONTINUOUS
10
0.427559
20
0.989173
11
0.423792
21
0.989922
0
LINE
8
BLACK
6
CONTINUOUS
10
0.423792
20
0.989922
11
0.420599
21
0.992056
0
LINE
8
BLACK
6
CONTINUOUS
10
0.420599
20
0.992056
11
0.418466
21
0.995249
0
LINE
8
BLACK
6
CONTINUOUS
10
0.418466
20
0.995249
11
0.417717
21
0.999016
0
LINE
8
BLACK
6
CONTINUOUS
10
0.417717
20
0.999016
11
0.417717
21
1.03642
0
LINE
8
BLACK
6
CONTINUOUS
10
0.417717
20
1.03642
11
0.418466
21
1.04018
0
LINE
8
BLACK
6
CONTINUOUS
10
0.418466
20
1.04018
11
0.420599
21
1.04338
0
LINE
8
BLACK
6
CONTINUOUS
10
0.420599
20
1.04338
11
0.423792
21
1.04551
0
LINE
8
BLACK
6
CONTINUOUS
10
0.423792
20
1.04551
11
0.427559
21
1.04626
0
LINE
8
BLACK
6
CONTINUOUS
10
0.427559
20
1.04626
11
0.447244
21
1.04626
0
LINE
8
BLACK
6
CONTINUOUS
10
0.447244
20
1.04626
11
0.451011
21
1.04551
  0
ENDSEC
  0
EOF
