  0
SECTION
  2
HEADER
  9
$ANGBASE
  50
0.0
  9
$ANGDIR
  70
1
  9
$MEASUREMENT
  70
0
  0
ENDSEC
  0
SECTION
  2
TABLES
  0
TABLE
  2
LTYPE
  70
4
  0
LTYPE
  5
40F
  2
CONTINUOUS
  70
0
  3
Solid line
  72
65
  73
0
  40
0.0
  0
LTYPE
  5
410
  2
DASHDOT
 70
0
  3
Dash Dot ____ _ ____ _
 72
65
 73
4
 40
2.0
 49
1.25
 49
-0.25
 49
0.25
 49
-0.25
  0
LTYPE
  5
411
  2
DASHED
 70
0
  3
Dashed __ __ __ __ __
 72
65
 73
2
 40
0.75
 49
0.5
 49
-0.25
  0
LTYPE
  5
43B
  2
DOTTED
 70
0
  3
Dotted .  .  .  .
 72
65
 73
2
 40
0.2
 49
0.0
 49
-0.2
  0
ENDTAB
  0
TABLE
  2
STYLE
  70
4
  0
STYLE
  2
KICAD
  70
0
  40
0
  41
1
  42
1
  50
0
  71
0
  3
isocp.shx
  0
STYLE
  2
KICADB
  70
0
  40
0
  41
1
  42
1
  50
0
  71
0
  3
isocp.shx
  0
STYLE
  2
KICADI
  70
0
  40
0
  41
1
  42
1
  50
15
  71
0
  3
isocp.shx
  0
STYLE
  2
KICADBI
  70
0
  40
0
  41
1
  42
1
  50
15
  71
0
  3
isocp.shx
  0
ENDTAB
  0
TABLE
  2
LAYER
  70
1
  0
LAYER
  2
BLACK
  70
0
  62
7
  6
CONTINUOUS
  0
ENDTAB
  0
ENDSEC
  0
SECTION
  2
ENTITIES
0
LINE
8
BLACK
6
CONTINUOUS
10
0.608717
20
0.339434
11
0.617168
21
0.33717
0
LINE
8
BLACK
6
CONTINUOUS
10
0.617168
20
0.33717
11
0.625098
21
0.333472
0
LINE
8
BLACK
6
CONTINUOUS
10
0.625098
20
0.333472
11
0.632266
21
0.328453
0
LINE
8
BLACK
6
CONTINUOUS
10
0.632266
20
0.328453
11
0.638453
21
0.322266
0
LINE
8
BLACK
6
CONTINUOUS
10
0.638453
20
0.322266
11
0.643472
21
0.315098
0
LINE
8
BLACK
6
CONTINUOUS
10
0.643472
20
0.315098
11
0.64717
21
0.307168
0
LINE
8
BLACK
6
CONTINUOUS
10
0.64717
20
0.307168
11
0.649434
21
0.298717
0
LINE
8
BLACK
6
CONTINUOUS
10
0.649434
20
0.298717
11
0.650197
21
0.29
0
LINE
8
BLACK
6
CONTINUOUS
10
0.650197
20
0.29
11
0.649434
21
0.281283
0
LINE
8
BLACK
6
CONTINUOUS
10
0.649434
20
0.281283
11
0.64717
21
0.272832
0
LINE
8
BLACK
6
CONTINUOUS
10
0.64717
20
0.272832
11
0.643472
21
0.264902
0
LINE
8
BLACK
6
CONTINUOUS
10
0.643472
20
0.264902
11
0.638453
21
0.257734
0
LINE
8
BLACK
6
CONTINUOUS
10
0.638453
20
0.257734
11
0.632266
21
0.251547
0
LINE
8
BLACK
6
CONTINUOUS
10
0.632266
20
0.251547
11
0.625098
21
0.246528
0
LINE
8
BLACK
6
CONTINUOUS
10
0.625098
20
0.246528
11
0.617168
21
0.24283
0
LINE
8
BLACK
6
CONTINUOUS
10
0.617168
20
0.24283
11
0.608717
21
0.240566
0
LINE
8
BLACK
6
CONTINUOUS
10
0.608717
20
0.240566
11
0.6
21
0.239803
0
LINE
8
BLACK
6
CONTINUOUS
10
0.6
20
0.239803
11
0.591283
21
0.240566
0
LINE
8
BLACK
6
CONTINUOUS
10
0.591283
20
0.240566
11
0.582832
21
0.24283
0
LINE
8
BLACK
6
CONTINUOUS
10
0.582832
20
0.24283
11
0.574902
21
0.246528
0
LINE
8
BLACK
6
CONTINUOUS
10
0.574902
20
0.246528
11
0.567734
21
0.251547
0
LINE
8
BLACK
6
CONTINUOUS
10
0.567734
20
0.251547
11
0.561547
21
0.257734
0
LINE
8
BLACK
6
CONTINUOUS
10
0.561547
20
0.257734
11
0.556528
21
0.264902
0
LINE
8
BLACK
6
CONTINUOUS
10
0.556528
20
0.264902
11
0.55283
21
0.272832
0
LINE
8
BLACK
6
CONTINUOUS
10
0.55283
20
0.272832
11
0.550566
21
0.281283
0
LINE
8
BLACK
6
CONTINUOUS
10
0.550566
20
0.281283
11
0.549803
21
0.29
0
LINE
8
BLACK
6
CONTINUOUS
10
0.549803
20
0.29
11
0.550566
21
0.298717
0
LINE
8
BLACK
6
CONTINUOUS
10
0.550566
20
0.298717
11
0.55283
21
0.307168
0
LINE
8
BLACK
6
CONTINUOUS
10
0.55283
20
0.307168
11
0.556528
21
0.315098
0
LINE
8
BLACK
6
CONTINUOUS
10
0.556528
20
0.315098
11
0.561547
21
0.322266
0
LINE
8
BLACK
6
CONTINUOUS
10
0.561547
20
0.322266
11
0.567734
21
0.328453
0
LINE
8
BLACK
6
CONTINUOUS
10
0.567734
20
0.328453
11
0.574902
21
0.333472
0
LINE
8
BLACK
6
CONTINUOUS
10
0.574902
20
0.333472
11
0.582832
21
0.33717
0
LINE
8
BLACK
6
CONTINUOUS
10
0.582832
20
0.33717
11
0.591283
21
0.339434
0
LINE
8
BLACK
6
CONTINUOUS
10
0.591283
20
0.339434
11
0.6
21
0.340197
0
LINE
8
BLACK
6
CONTINUOUS
10
0.6
20
0.340197
11
0.608717
21
0.339434
0
LINE
8
BLACK
6
CONTINUOUS
10
0.552323
20
0.281593
11
0.554507
21
0.273442
0
LINE
8
BLACK
6
CONTINUOUS
10
0.554507
20
0.273442
11
0.558074
21
0.265794
0
LINE
8
BLACK
6
CONTINUOUS
10
0.558074
20
0.265794
11
0.562914
21
0.258881
0
LINE
8
BLACK
6
CONTINUOUS
10
0.562914
20
0.258881
11
0.568881
21
0.252914
0
LINE
8
BLACK
6
CONTINUOUS
10
0.568881
20
0.252914
11
0.575794
21
0.248074
0
LINE
8
BLACK
6
CONTINUOUS
10
0.575794
20
0.248074
11
0.583442
21
0.244507
0
LINE
8
BLACK
6
CONTINUOUS
10
0.583442
20
0.244507
11
0.591593
21
0.242323
0
LINE
8
BLACK
6
CONTINUOUS
10
0.591593
20
0.242323
11
0.6
21
0.241587
0
LINE
8
BLACK
6
CONTINUOUS
10
0.6
20
0.241587
11
0.608407
21
0.242323
0
LINE
8
BLACK
6
CONTINUOUS
10
0.608407
20
0.242323
11
0.616558
21
0.244507
0
LINE
8
BLACK
6
CONTINUOUS
10
0.616558
20
0.244507
11
0.624206
21
0.248074
0
LINE
8
BLACK
6
CONTINUOUS
10
0.624206
20
0.248074
11
0.631119
21
0.252914
0
LINE
8
BLACK
6
CONTINUOUS
10
0.631119
20
0.252914
11
0.637086
21
0.258881
0
LINE
8
BLACK
6
CONTINUOUS
10
0.637086
20
0.258881
11
0.641926
21
0.265794
0
LINE
8
BLACK
6
CONTINUOUS
10
0.641926
20
0.265794
11
0.645493
21
0.273442
0
LINE
8
BLACK
6
CONTINUOUS
10
0.645493
20
0.273442
11
0.647677
21
0.281593
0
LINE
8
BLACK
6
CONTINUOUS
10
0.647677
20
0.281593
11
0.648413
21
0.29
0
LINE
8
BLACK
6
CONTINUOUS
10
0.648413
20
0.29
11
0.647677
21
0.298407
0
LINE
8
BLACK
6
CONTINUOUS
10
0.647677
20
0.298407
11
0.645493
21
0.306558
0
LINE
8
BLACK
6
CONTINUOUS
10
0.645493
20
0.306558
11
0.641926
21
0.314206
0
LINE
8
BLACK
6
CONTINUOUS
10
0.641926
20
0.314206
11
0.637086
21
0.321119
0
LINE
8
BLACK
6
CONTINUOUS
10
0.637086
20
0.321119
11
0.631119
21
0.327086
0
LINE
8
BLACK
6
CONTINUOUS
10
0.631119
20
0.327086
11
0.624206
21
0.331926
0
LINE
8
BLACK
6
CONTINUOUS
10
0.624206
20
0.331926
11
0.616558
21
0.335493
0
LINE
8
BLACK
6
CONTINUOUS
10
0.616558
20
0.335493
11
0.608407
21
0.337677
0
LINE
8
BLACK
6
CONTINUOUS
10
0.608407
20
0.337677
11
0.6
21
0.338413
0
LINE
8
BLACK
6
CONTINUOUS
10
0.6
20
0.338413
11
0.591593
21
0.337677
0
LINE
8
BLACK
6
CONTINUOUS
10
0.591593
20
0.337677
11
0.583442
21
0.335493
0
LINE
8
BLACK
6
CONTINUOUS
10
0.583442
20
0.335493
11
0.575794
21
0.331926
0
LINE
8
BLACK
6
CONTINUOUS
10
0.575794
20
0.331926
11
0.568881
21
0.327086
0
LINE
8
BLACK
6
CONTINUOUS
10
0.568881
20
0.327086
11
0.562914
21
0.321119
0
LINE
8
BLACK
6
CONTINUOUS
10
0.562914
20
0.321119
11
0.558074
21
0.314206
0
LINE
8
BLACK
6
CONTINUOUS
10
0.558074
20
0.314206
11
0.554507
21
0.306558
0
LINE
8
BLACK
6
CONTINUOUS
10
0.554507
20
0.306558
11
0.552323
21
0.298407
0
LINE
8
BLACK
6
CONTINUOUS
10
0.552323
20
0.298407
11
0.551587
21
0.29
0
LINE
8
BLACK
6
CONTINUOUS
10
0.551587
20
0.29
11
0.552323
21
0.281593
0
LINE
8
BLACK
6
CONTINUOUS
10
1.22799
20
0.701535
11
1.22869
21
0.701247
0
LINE
8
BLACK
6
CONTINUOUS
10
1.22869
20
0.701247
11
1.22898
21
0.700551
0
LINE
8
BLACK
6
CONTINUOUS
10
1.22898
20
0.700551
11
1.22898
21
0.519449
0
LINE
8
BLACK
6
CONTINUOUS
10
1.22898
20
0.519449
11
1.22869
21
0.518753
0
LINE
8
BLACK
6
CONTINUOUS
10
1.22869
20
0.518753
11
1.22799
21
0.518465
0
LINE
8
BLACK
6
CONTINUOUS
10
1.22799
20
0.518465
11
1.10201
21
0.518465
0
LINE
8
BLACK
6
CONTINUOUS
10
1.10201
20
0.518465
11
1.10131
21
0.518753
0
LINE
8
BLACK
6
CONTINUOUS
10
1.10131
20
0.518753
11
1.10102
21
0.519449
0
LINE
8
BLACK
6
CONTINUOUS
10
1.10102
20
0.519449
11
1.10102
21
0.700551
0
LINE
8
BLACK
6
CONTINUOUS
10
1.10102
20
0.700551
11
1.10131
21
0.701247
0
LINE
8
BLACK
6
CONTINUOUS
10
1.10131
20
0.701247
11
1.10201
21
0.701535
0
LINE
8
BLACK
6
CONTINUOUS
10
1.10201
20
0.701535
11
1.22799
21
0.701535
0
LINE
8
BLACK
6
CONTINUOUS
10
1.10299
20
0.699567
11
1.10299
21
0.520433
0
LINE
8
BLACK
6
CONTINUOUS
10
1.10299
20
0.520433
11
1.22701
21
0.520433
0
LINE
8
BLACK
6
CONTINUOUS
10
1.22701
20
0.520433
11
1.22701
21
0.699567
0
LINE
8
BLACK
6
CONTINUOUS
10
1.22701
20
0.699567
11
1.10299
21
0.699567
0
LINE
8
BLACK
6
CONTINUOUS
10
1.0774
20
0.677126
11
1.0781
21
0.676838
0
LINE
8
BLACK
6
CONTINUOUS
10
1.0781
20
0.676838
11
1.07839
21
0.676142
0
LINE
8
BLACK
6
CONTINUOUS
10
1.07839
20
0.676142
11
1.07839
21
0.543858
0
LINE
8
BLACK
6
CONTINUOUS
10
1.07839
20
0.543858
11
1.0781
21
0.543162
0
LINE
8
BLACK
6
CONTINUOUS
10
1.0781
20
0.543162
11
1.0774
21
0.542874
0
LINE
8
BLACK
6
CONTINUOUS
10
1.0774
20
0.542874
11
1.0026
21
0.542874
0
LINE
8
BLACK
6
CONTINUOUS
10
1.0026
20
0.542874
11
1.0019
21
0.543162
0
LINE
8
BLACK
6
CONTINUOUS
10
1.0019
20
0.543162
11
1.00161
21
0.543858
0
LINE
8
BLACK
6
CONTINUOUS
10
1.00161
20
0.543858
11
1.00161
21
0.676142
0
LINE
8
BLACK
6
CONTINUOUS
10
1.00161
20
0.676142
11
1.0019
21
0.676838
0
LINE
8
BLACK
6
CONTINUOUS
10
1.0019
20
0.676838
11
1.0026
21
0.677126
0
LINE
8
BLACK
6
CONTINUOUS
10
1.0026
20
0.677126
11
1.0774
21
0.677126
0
LINE
8
BLACK
6
CONTINUOUS
10
1.00358
20
0.675157
11
1.00358
21
0.544843
0
LINE
8
BLACK
6
CONTINUOUS
10
1.00358
20
0.544843
11
1.07642
21
0.544843
0
LINE
8
BLACK
6
CONTINUOUS
10
1.07642
20
0.544843
11
1.07642
21
0.675157
0
LINE
8
BLACK
6
CONTINUOUS
10
1.07642
20
0.675157
11
1.00358
21
0.675157
0
LINE
8
BLACK
6
CONTINUOUS
10
0.966142
20
0.658386
11
0.966838
21
0.658098
0
LINE
8
BLACK
6
CONTINUOUS
10
0.966838
20
0.658098
11
0.967126
21
0.657402
0
LINE
8
BLACK
6
CONTINUOUS
10
0.967126
20
0.657402
11
0.967126
21
0.582598
0
LINE
8
BLACK
6
CONTINUOUS
10
0.967126
20
0.582598
11
0.966838
21
0.581902
0
LINE
8
BLACK
6
CONTINUOUS
10
0.966838
20
0.581902
11
0.966142
21
0.581614
0
LINE
8
BLACK
6
CONTINUOUS
10
0.966142
20
0.581614
11
0.833858
21
0.581614
0
LINE
8
BLACK
6
CONTINUOUS
10
0.833858
20
0.581614
11
0.833162
21
0.581902
0
LINE
8
BLACK
6
CONTINUOUS
10
0.833162
20
0.581902
11
0.832874
21
0.582598
0
LINE
8
BLACK
6
CONTINUOUS
10
0.832874
20
0.582598
11
0.832874
21
0.582598
0
LINE
8
BLACK
6
CONTINUOUS
10
0.832874
20
0.582598
11
0.832874
21
0.657402
0
LINE
8
BLACK
6
CONTINUOUS
10
0.832874
20
0.657402
11
0.833162
21
0.658098
0
LINE
8
BLACK
6
CONTINUOUS
10
0.833162
20
0.658098
11
0.833858
21
0.658386
0
LINE
8
BLACK
6
CONTINUOUS
10
0.833858
20
0.658386
11
0.966142
21
0.658386
0
LINE
8
BLACK
6
CONTINUOUS
10
0.834843
20
0.656417
11
0.834843
21
0.583583
0
LINE
8
BLACK
6
CONTINUOUS
10
0.834843
20
0.583583
11
0.965157
21
0.583583
0
LINE
8
BLACK
6
CONTINUOUS
10
0.965157
20
0.583583
11
0.965157
21
0.656417
0
LINE
8
BLACK
6
CONTINUOUS
10
0.965157
20
0.656417
11
0.834843
21
0.656417
0
LINE
8
BLACK
6
CONTINUOUS
10
1.46193
20
0.766575
11
1.46263
21
0.766287
0
LINE
8
BLACK
6
CONTINUOUS
10
1.46263
20
0.766287
11
1.46291
21
0.765591
0
LINE
8
BLACK
6
CONTINUOUS
10
1.46291
20
0.765591
11
1.46291
21
0.614409
0
LINE
8
BLACK
6
CONTINUOUS
10
1.46291
20
0.614409
11
1.46263
21
0.613713
0
LINE
8
BLACK
6
CONTINUOUS
10
1.46263
20
0.613713
11
1.46193
21
0.613425
0
LINE
8
BLACK
6
CONTINUOUS
10
1.46193
20
0.613425
11
1.32807
21
0.613425
0
LINE
8
BLACK
6
CONTINUOUS
10
1.32807
20
0.613425
11
1.32737
21
0.613713
0
LINE
8
BLACK
6
CONTINUOUS
10
1.32737
20
0.613713
11
1.32709
21
0.614409
0
LINE
8
BLACK
6
CONTINUOUS
10
1.32709
20
0.614409
11
1.32709
21
0.765591
0
LINE
8
BLACK
6
CONTINUOUS
10
1.32709
20
0.765591
11
1.32737
21
0.766287
0
LINE
8
BLACK
6
CONTINUOUS
10
1.32737
20
0.766287
11
1.32807
21
0.766575
0
LINE
8
BLACK
6
CONTINUOUS
10
1.32807
20
0.766575
11
1.46193
21
0.766575
0
LINE
8
BLACK
6
CONTINUOUS
10
1.32906
20
0.764606
11
1.32906
21
0.615394
0
LINE
8
BLACK
6
CONTINUOUS
10
1.32906
20
0.615394
11
1.46094
21
0.615394
0
LINE
8
BLACK
6
CONTINUOUS
10
1.46094
20
0.615394
11
1.46094
21
0.764606
0
LINE
8
BLACK
6
CONTINUOUS
10
1.46094
20
0.764606
11
1.32906
21
0.764606
0
LINE
8
BLACK
6
CONTINUOUS
10
1.68134
20
0.811535
11
1.68203
21
0.811247
0
LINE
8
BLACK
6
CONTINUOUS
10
1.68203
20
0.811247
11
1.68232
21
0.810551
0
LINE
8
BLACK
6
CONTINUOUS
10
1.68232
20
0.810551
11
1.68232
21
0.708386
0
LINE
8
BLACK
6
CONTINUOUS
10
1.68232
20
0.708386
11
1.80614
21
0.708386
0
LINE
8
BLACK
6
CONTINUOUS
10
1.80614
20
0.708386
11
1.80684
21
0.708098
0
LINE
8
BLACK
6
CONTINUOUS
10
1.80684
20
0.708098
11
1.80713
21
0.707402
0
LINE
8
BLACK
6
CONTINUOUS
10
1.80713
20
0.707402
11
1.80713
21
0.632598
0
LINE
8
BLACK
6
CONTINUOUS
10
1.80713
20
0.632598
11
1.80684
21
0.631902
0
LINE
8
BLACK
6
CONTINUOUS
10
1.80684
20
0.631902
11
1.80614
21
0.631614
0
LINE
8
BLACK
6
CONTINUOUS
10
1.80614
20
0.631614
11
1.68232
21
0.631614
0
LINE
8
BLACK
6
CONTINUOUS
10
1.68232
20
0.631614
11
1.68232
21
0.629449
0
LINE
8
BLACK
6
CONTINUOUS
10
1.68232
20
0.629449
11
1.68203
21
0.628753
0
LINE
8
BLACK
6
CONTINUOUS
10
1.68203
20
0.628753
11
1.68134
21
0.628465
0
LINE
8
BLACK
6
CONTINUOUS
10
1.68134
20
0.628465
11
1.59866
21
0.628465
0
LINE
8
BLACK
6
CONTINUOUS
10
1.59866
20
0.628465
11
1.59797
21
0.628753
0
LINE
8
BLACK
6
CONTINUOUS
10
1.59797
20
0.628753
11
1.59768
21
0.629449
0
LINE
8
BLACK
6
CONTINUOUS
10
1.59768
20
0.629449
11
1.59768
21
0.810551
0
LINE
8
BLACK
6
CONTINUOUS
10
1.59768
20
0.810551
11
1.59797
21
0.811247
0
LINE
8
BLACK
6
CONTINUOUS
10
1.59797
20
0.811247
11
1.59866
21
0.811535
0
LINE
8
BLACK
6
CONTINUOUS
10
1.59866
20
0.811535
11
1.68134
21
0.811535
0
LINE
8
BLACK
6
CONTINUOUS
10
1.59965
20
0.809567
11
1.59965
21
0.630433
0
LINE
8
BLACK
6
CONTINUOUS
10
1.59965
20
0.630433
11
1.68035
21
0.630433
0
LINE
8
BLACK
6
CONTINUOUS
10
1.68035
20
0.630433
11
1.68035
21
0.631614
0
LINE
8
BLACK
6
CONTINUOUS
10
1.68035
20
0.631614
11
1.67386
21
0.631614
0
LINE
8
BLACK
6
CONTINUOUS
10
1.67386
20
0.631614
11
1.67316
21
0.631902
0
LINE
8
BLACK
6
CONTINUOUS
10
1.67316
20
0.631902
11
1.67287
21
0.632598
0
LINE
8
BLACK
6
CONTINUOUS
10
1.67287
20
0.632598
11
1.67287
21
0.707402
0
LINE
8
BLACK
6
CONTINUOUS
10
1.67287
20
0.707402
11
1.67316
21
0.708098
0
LINE
8
BLACK
6
CONTINUOUS
10
1.67316
20
0.708098
11
1.67386
21
0.708386
0
LINE
8
BLACK
6
CONTINUOUS
10
1.67386
20
0.708386
11
1.68035
21
0.708386
0
LINE
8
BLACK
6
CONTINUOUS
10
1.68035
20
0.708386
11
1.68035
21
0.809567
0
LINE
8
BLACK
6
CONTINUOUS
10
1.68035
20
0.809567
11
1.59965
21
0.809567
0
LINE
8
BLACK
6
CONTINUOUS
10
1.67484
20
0.706417
11
1.67484
21
0.633583
0
LINE
8
BLACK
6
CONTINUOUS
10
1.67484
20
0.633583
11
1.68035
21
0.633583
0
LINE
8
BLACK
6
CONTINUOUS
10
1.68035
20
0.633583
11
1.68035
21
0.706417
0
LINE
8
BLACK
6
CONTINUOUS
10
1.68035
20
0.706417
11
1.67484
21
0.706417
0
LINE
8
BLACK
6
CONTINUOUS
10
1.68232
20
0.706417
11
1.68232
21
0.633583
0
LINE
8
BLACK
6
CONTINUOUS
10
1.68232
20
0.633583
11
1.80516
21
0.633583
0
LINE
8
BLACK
6
CONTINUOUS
10
1.80516
20
0.633583
11
1.80516
21
0.706417
0
LINE
8
BLACK
6
CONTINUOUS
10
1.80516
20
0.706417
11
1.68232
21
0.706417
0
LINE
8
BLACK
6
CONTINUOUS
10
1.57358
20
0.777913
11
1.57428
21
0.777625
0
LINE
8
BLACK
6
CONTINUOUS
10
1.57428
20
0.777625
11
1.57457
21
0.776929
0
LINE
8
BLACK
6
CONTINUOUS
10
1.57457
20
0.776929
11
1.57457
21
0.643071
0
LINE
8
BLACK
6
CONTINUOUS
10
1.57457
20
0.643071
11
1.57428
21
0.642375
0
LINE
8
BLACK
6
CONTINUOUS
10
1.57428
20
0.642375
11
1.57358
21
0.642087
0
LINE
8
BLACK
6
CONTINUOUS
10
1.57358
20
0.642087
11
1.49642
21
0.642087
0
LINE
8
BLACK
6
CONTINUOUS
10
1.49642
20
0.642087
11
1.49572
21
0.642375
0
LINE
8
BLACK
6
CONTINUOUS
10
1.49572
20
0.642375
11
1.49543
21
0.643071
0
LINE
8
BLACK
6
CONTINUOUS
10
1.49543
20
0.643071
11
1.49543
21
0.776929
0
LINE
8
BLACK
6
CONTINUOUS
10
1.49543
20
0.776929
11
1.49572
21
0.777625
0
LINE
8
BLACK
6
CONTINUOUS
10
1.49572
20
0.777625
11
1.49642
21
0.777913
0
LINE
8
BLACK
6
CONTINUOUS
10
1.49642
20
0.777913
11
1.57358
21
0.777913
0
LINE
8
BLACK
6
CONTINUOUS
10
1.4974
20
0.775945
11
1.4974
21
0.644055
0
LINE
8
BLACK
6
CONTINUOUS
10
1.4974
20
0.644055
11
1.5726
21
0.644055
0
LINE
8
BLACK
6
CONTINUOUS
10
1.5726
20
0.644055
11
1.5726
21
0.775945
0
LINE
8
BLACK
6
CONTINUOUS
10
1.5726
20
0.775945
11
1.4974
21
0.775945
0
LINE
8
BLACK
6
CONTINUOUS
10
1.3074
20
0.787126
11
1.3081
21
0.786838
0
LINE
8
BLACK
6
CONTINUOUS
10
1.3081
20
0.786838
11
1.30839
21
0.786142
0
LINE
8
BLACK
6
CONTINUOUS
10
1.30839
20
0.786142
11
1.30839
21
0.653858
0
LINE
8
BLACK
6
CONTINUOUS
10
1.30839
20
0.653858
11
1.3081
21
0.653162
0
LINE
8
BLACK
6
CONTINUOUS
10
1.3081
20
0.653162
11
1.3074
21
0.652874
0
LINE
8
BLACK
6
CONTINUOUS
10
1.3074
20
0.652874
11
1.2326
21
0.652874
0
LINE
8
BLACK
6
CONTINUOUS
10
1.2326
20
0.652874
11
1.2319
21
0.653162
0
LINE
8
BLACK
6
CONTINUOUS
10
1.2319
20
0.653162
11
1.23161
21
0.653858
0
LINE
8
BLACK
6
CONTINUOUS
10
1.23161
20
0.653858
11
1.23161
21
0.786142
0
LINE
8
BLACK
6
CONTINUOUS
10
1.23161
20
0.786142
11
1.2319
21
0.786838
0
LINE
8
BLACK
6
CONTINUOUS
10
1.2319
20
0.786838
11
1.2326
21
0.787126
0
LINE
8
BLACK
6
CONTINUOUS
10
1.2326
20
0.787126
11
1.3074
21
0.787126
0
LINE
8
BLACK
6
CONTINUOUS
10
1.23358
20
0.785157
11
1.23358
21
0.654843
0
LINE
8
BLACK
6
CONTINUOUS
10
1.23358
20
0.654843
11
1.30642
21
0.654843
0
LINE
8
BLACK
6
CONTINUOUS
10
1.30642
20
0.654843
11
1.30642
21
0.785157
0
LINE
8
BLACK
6
CONTINUOUS
10
1.30642
20
0.785157
11
1.23358
21
0.785157
0
LINE
8
BLACK
6
CONTINUOUS
10
0.976929
20
0.749567
11
0.977625
21
0.749279
0
LINE
8
BLACK
6
CONTINUOUS
10
0.977625
20
0.749279
11
0.977913
21
0.748583
0
LINE
8
BLACK
6
CONTINUOUS
10
0.977913
20
0.748583
11
0.977913
21
0.671417
0
LINE
8
BLACK
6
CONTINUOUS
10
0.977913
20
0.671417
11
0.977625
21
0.670721
0
LINE
8
BLACK
6
CONTINUOUS
10
0.977625
20
0.670721
11
0.976929
21
0.670433
0
LINE
8
BLACK
6
CONTINUOUS
10
0.976929
20
0.670433
11
0.843071
21
0.670433
0
LINE
8
BLACK
6
CONTINUOUS
10
0.843071
20
0.670433
11
0.842375
21
0.670721
0
LINE
8
BLACK
6
CONTINUOUS
10
0.842375
20
0.670721
11
0.842087
21
0.671417
0
LINE
8
BLACK
6
CONTINUOUS
10
0.842087
20
0.671417
11
0.842087
21
0.748583
0
LINE
8
BLACK
6
CONTINUOUS
10
0.842087
20
0.748583
11
0.842375
21
0.749279
0
LINE
8
BLACK
6
CONTINUOUS
10
0.842375
20
0.749279
11
0.843071
21
0.749567
0
LINE
8
BLACK
6
CONTINUOUS
10
0.843071
20
0.749567
11
0.976929
21
0.749567
0
LINE
8
BLACK
6
CONTINUOUS
10
0.844055
20
0.747598
11
0.844055
21
0.672402
0
LINE
8
BLACK
6
CONTINUOUS
10
0.844055
20
0.672402
11
0.975945
21
0.672402
0
LINE
8
BLACK
6
CONTINUOUS
10
0.975945
20
0.672402
11
0.975945
21
0.747598
0
LINE
8
BLACK
6
CONTINUOUS
10
0.975945
20
0.747598
11
0.844055
21
0.747598
0
LINE
8
BLACK
6
CONTINUOUS
10
1.22055
20
0.843976
11
1.22125
21
0.843688
0
LINE
8
BLACK
6
CONTINUOUS
10
1.22125
20
0.843688
11
1.22154
21
0.842992
0
LINE
8
BLACK
6
CONTINUOUS
10
1.22154
20
0.842992
11
1.22154
21
0.717008
0
LINE
8
BLACK
6
CONTINUOUS
10
1.22154
20
0.717008
11
1.22125
21
0.716312
0
LINE
8
BLACK
6
CONTINUOUS
10
1.22125
20
0.716312
11
1.22055
21
0.716024
0
LINE
8
BLACK
6
CONTINUOUS
10
1.22055
20
0.716024
11
1.03945
21
0.716024
0
LINE
8
BLACK
6
CONTINUOUS
10
1.03945
20
0.716024
11
1.03875
21
0.716312
0
LINE
8
BLACK
6
CONTINUOUS
10
1.03875
20
0.716312
11
1.03846
21
0.717008
0
LINE
8
BLACK
6
CONTINUOUS
10
1.03846
20
0.717008
11
1.03846
21
0.842992
0
LINE
8
BLACK
6
CONTINUOUS
10
1.03846
20
0.842992
11
1.03875
21
0.843688
0
LINE
8
BLACK
6
CONTINUOUS
10
1.03875
20
0.843688
11
1.03945
21
0.843976
0
LINE
8
BLACK
6
CONTINUOUS
10
1.03945
20
0.843976
11
1.22055
21
0.843976
0
LINE
8
BLACK
6
CONTINUOUS
10
1.04043
20
0.842008
11
1.04043
21
0.717992
0
LINE
8
BLACK
6
CONTINUOUS
10
1.04043
20
0.717992
11
1.21957
21
0.717992
0
LINE
8
BLACK
6
CONTINUOUS
10
1.21957
20
0.717992
11
1.21957
21
0.842008
0
LINE
8
BLACK
6
CONTINUOUS
10
1.21957
20
0.842008
11
1.04043
21
0.842008
0
LINE
8
BLACK
6
CONTINUOUS
10
1.86693
20
0.829567
11
1.86763
21
0.829279
0
LINE
8
BLACK
6
CONTINUOUS
10
1.86763
20
0.829279
11
1.86791
21
0.828583
0
LINE
8
BLACK
6
CONTINUOUS
10
1.86791
20
0.828583
11
1.86791
21
0.751417
0
LINE
8
BLACK
6
CONTINUOUS
10
1.86791
20
0.751417
11
1.86763
21
0.750721
0
LINE
8
BLACK
6
CONTINUOUS
10
1.86763
20
0.750721
11
1.86693
21
0.750433
0
LINE
8
BLACK
6
CONTINUOUS
10
1.86693
20
0.750433
11
1.73307
21
0.750433
0
LINE
8
BLACK
6
CONTINUOUS
10
1.73307
20
0.750433
11
1.73237
21
0.750721
0
LINE
8
BLACK
6
CONTINUOUS
10
1.73237
20
0.750721
11
1.73209
21
0.751417
0
LINE
8
BLACK
6
CONTINUOUS
10
1.73209
20
0.751417
11
1.73209
21
0.828583
0
LINE
8
BLACK
6
CONTINUOUS
10
1.73209
20
0.828583
11
1.73237
21
0.829279
0
LINE
8
BLACK
6
CONTINUOUS
10
1.73237
20
0.829279
11
1.73307
21
0.829567
0
LINE
8
BLACK
6
CONTINUOUS
10
1.73307
20
0.829567
11
1.86693
21
0.829567
0
LINE
8
BLACK
6
CONTINUOUS
10
1.73406
20
0.827598
11
1.73406
21
0.752402
0
LINE
8
BLACK
6
CONTINUOUS
10
1.73406
20
0.752402
11
1.86594
21
0.752402
0
LINE
8
BLACK
6
CONTINUOUS
10
1.86594
20
0.752402
11
1.86594
21
0.827598
0
LINE
8
BLACK
6
CONTINUOUS
10
1.86594
20
0.827598
11
1.73406
21
0.827598
0
LINE
8
BLACK
6
CONTINUOUS
10
1.02055
20
0.842323
11
1.02125
21
0.842035
0
LINE
8
BLACK
6
CONTINUOUS
10
1.02125
20
0.842035
11
1.02154
21
0.841339
0
LINE
8
BLACK
6
CONTINUOUS
10
1.02154
20
0.841339
11
1.02154
21
0.758661
0
LINE
8
BLACK
6
CONTINUOUS
10
1.02154
20
0.758661
11
1.02125
21
0.757965
0
LINE
8
BLACK
6
CONTINUOUS
10
1.02125
20
0.757965
11
1.02055
21
0.757677
0
LINE
8
BLACK
6
CONTINUOUS
10
1.02055
20
0.757677
11
0.839449
21
0.757677
0
LINE
8
BLACK
6
CONTINUOUS
10
0.839449
20
0.757677
11
0.838753
21
0.757965
0
LINE
8
BLACK
6
CONTINUOUS
10
0.838753
20
0.757965
11
0.838465
21
0.758661
0
LINE
8
BLACK
6
CONTINUOUS
10
0.838465
20
0.758661
11
0.838465
21
0.758661
0
LINE
8
BLACK
6
CONTINUOUS
10
0.838465
20
0.758661
11
0.838465
21
0.841339
0
LINE
8
BLACK
6
CONTINUOUS
10
0.838465
20
0.841339
11
0.838753
21
0.842035
0
LINE
8
BLACK
6
CONTINUOUS
10
0.838753
20
0.842035
11
0.839449
21
0.842323
0
LINE
8
BLACK
6
CONTINUOUS
10
0.839449
20
0.842323
11
1.02055
21
0.842323
0
LINE
8
BLACK
6
CONTINUOUS
10
0.840433
20
0.840354
11
0.840433
21
0.759646
0
LINE
8
BLACK
6
CONTINUOUS
10
0.840433
20
0.759646
11
1.01957
21
0.759646
0
LINE
8
BLACK
6
CONTINUOUS
10
1.01957
20
0.759646
11
1.01957
21
0.840354
0
LINE
8
BLACK
6
CONTINUOUS
10
1.01957
20
0.840354
11
0.840433
21
0.840354
0
LINE
8
BLACK
6
CONTINUOUS
10
1.86559
20
0.977913
11
1.86629
21
0.977625
0
LINE
8
BLACK
6
CONTINUOUS
10
1.86629
20
0.977625
11
1.86657
21
0.976929
0
LINE
8
BLACK
6
CONTINUOUS
10
1.86657
20
0.976929
11
1.86657
21
0.843071
0
LINE
8
BLACK
6
CONTINUOUS
10
1.86657
20
0.843071
11
1.86629
21
0.842375
0
LINE
8
BLACK
6
CONTINUOUS
10
1.86629
20
0.842375
11
1.86559
21
0.842087
0
LINE
8
BLACK
6
CONTINUOUS
10
1.86559
20
0.842087
11
1.71441
21
0.842087
0
LINE
8
BLACK
6
CONTINUOUS
10
1.71441
20
0.842087
11
1.71371
21
0.842375
0
LINE
8
BLACK
6
CONTINUOUS
10
1.71371
20
0.842375
11
1.71343
21
0.843071
0
LINE
8
BLACK
6
CONTINUOUS
10
1.71343
20
0.843071
11
1.71343
21
0.843071
0
LINE
8
BLACK
6
CONTINUOUS
10
1.71343
20
0.843071
11
1.71343
21
0.976929
0
LINE
8
BLACK
6
CONTINUOUS
10
1.71343
20
0.976929
11
1.71371
21
0.977625
0
LINE
8
BLACK
6
CONTINUOUS
10
1.71371
20
0.977625
11
1.71441
21
0.977913
0
LINE
8
BLACK
6
CONTINUOUS
10
1.71441
20
0.977913
11
1.86559
21
0.977913
0
LINE
8
BLACK
6
CONTINUOUS
10
1.71539
20
0.975945
11
1.71539
21
0.844055
0
LINE
8
BLACK
6
CONTINUOUS
10
1.71539
20
0.844055
11
1.86461
21
0.844055
0
LINE
8
BLACK
6
CONTINUOUS
10
1.86461
20
0.844055
11
1.86461
21
0.975945
0
LINE
8
BLACK
6
CONTINUOUS
10
1.86461
20
0.975945
11
1.71539
21
0.975945
0
LINE
8
BLACK
6
CONTINUOUS
10
0.927402
20
0.977126
11
0.928098
21
0.976838
0
LINE
8
BLACK
6
CONTINUOUS
10
0.928098
20
0.976838
11
0.928386
21
0.976142
0
LINE
8
BLACK
6
CONTINUOUS
10
0.928386
20
0.976142
11
0.928386
21
0.843858
0
LINE
8
BLACK
6
CONTINUOUS
10
0.928386
20
0.843858
11
0.928098
21
0.843162
0
LINE
8
BLACK
6
CONTINUOUS
10
0.928098
20
0.843162
11
0.927402
21
0.842874
0
LINE
8
BLACK
6
CONTINUOUS
10
0.927402
20
0.842874
11
0.852598
21
0.842874
0
LINE
8
BLACK
6
CONTINUOUS
10
0.852598
20
0.842874
11
0.851902
21
0.843162
0
LINE
8
BLACK
6
CONTINUOUS
10
0.851902
20
0.843162
11
0.851614
21
0.843858
0
LINE
8
BLACK
6
CONTINUOUS
10
0.851614
20
0.843858
11
0.851614
21
0.976142
0
LINE
8
BLACK
6
CONTINUOUS
10
0.851614
20
0.976142
11
0.851902
21
0.976838
0
LINE
8
BLACK
6
CONTINUOUS
10
0.851902
20
0.976838
11
0.852598
21
0.977126
0
LINE
8
BLACK
6
CONTINUOUS
10
0.852598
20
0.977126
11
0.927402
21
0.977126
0
LINE
8
BLACK
6
CONTINUOUS
10
0.853583
20
0.975157
11
0.853583
21
0.844843
0
LINE
8
BLACK
6
CONTINUOUS
10
0.853583
20
0.844843
11
0.926417
21
0.844843
0
LINE
8
BLACK
6
CONTINUOUS
10
0.926417
20
0.844843
11
0.926417
21
0.975157
0
LINE
8
BLACK
6
CONTINUOUS
10
0.926417
20
0.975157
11
0.853583
21
0.975157
0
LINE
8
BLACK
6
CONTINUOUS
10
1.65299
20
1.04154
11
1.65369
21
1.04125
0
LINE
8
BLACK
6
CONTINUOUS
10
1.65369
20
1.04125
11
1.65398
21
1.04055
0
LINE
8
BLACK
6
CONTINUOUS
10
1.65398
20
1.04055
11
1.65398
21
0.859449
0
LINE
8
BLACK
6
CONTINUOUS
10
1.65398
20
0.859449
11
1.65369
21
0.858753
0
LINE
8
BLACK
6
CONTINUOUS
10
1.65369
20
0.858753
11
1.65299
21
0.858465
0
LINE
8
BLACK
6
CONTINUOUS
10
1.65299
20
0.858465
11
1.52701
21
0.858465
0
LINE
8
BLACK
6
CONTINUOUS
10
1.52701
20
0.858465
11
1.52631
21
0.858753
0
LINE
8
BLACK
6
CONTINUOUS
10
1.52631
20
0.858753
11
1.52602
21
0.859449
0
LINE
8
BLACK
6
CONTINUOUS
10
1.52602
20
0.859449
11
1.52602
21
1.04055
0
LINE
8
BLACK
6
CONTINUOUS
10
1.52602
20
1.04055
11
1.52631
21
1.04125
0
LINE
8
BLACK
6
CONTINUOUS
10
1.52631
20
1.04125
11
1.52701
21
1.04154
0
LINE
8
BLACK
6
CONTINUOUS
10
1.52701
20
1.04154
11
1.65299
21
1.04154
0
LINE
8
BLACK
6
CONTINUOUS
10
1.52799
20
1.03957
11
1.52799
21
0.860433
0
LINE
8
BLACK
6
CONTINUOUS
10
1.52799
20
0.860433
11
1.65201
21
0.860433
0
LINE
8
BLACK
6
CONTINUOUS
10
1.65201
20
0.860433
11
1.65201
21
1.03957
0
LINE
8
BLACK
6
CONTINUOUS
10
1.65201
20
1.03957
11
1.52799
21
1.03957
0
LINE
8
BLACK
6
CONTINUOUS
10
1.11858
20
1.15291
11
1.11928
21
1.15263
0
LINE
8
BLACK
6
CONTINUOUS
10
1.11928
20
1.15263
11
1.11949
21
1.15213
0
LINE
8
BLACK
6
CONTINUOUS
10
1.11949
20
1.15213
11
1.1924
21
1.15213
0
LINE
8
BLACK
6
CONTINUOUS
10
1.1924
20
1.15213
11
1.1931
21
1.15184
0
LINE
8
BLACK
6
CONTINUOUS
10
1.1931
20
1.15184
11
1.19339
21
1.15114
0
LINE
8
BLACK
6
CONTINUOUS
10
1.19339
20
1.15114
11
1.19339
21
1.01886
0
LINE
8
BLACK
6
CONTINUOUS
10
1.19339
20
1.01886
11
1.1931
21
1.01816
0
LINE
8
BLACK
6
CONTINUOUS
10
1.1931
20
1.01816
11
1.1924
21
1.01787
0
LINE
8
BLACK
6
CONTINUOUS
10
1.1924
20
1.01787
11
1.11949
21
1.01787
0
LINE
8
BLACK
6
CONTINUOUS
10
1.11949
20
1.01787
11
1.11928
21
1.01737
0
LINE
8
BLACK
6
CONTINUOUS
10
1.11928
20
1.01737
11
1.11858
21
1.01709
0
LINE
8
BLACK
6
CONTINUOUS
10
1.11858
20
1.01709
11
1.11839
21
1.01709
0
LINE
8
BLACK
6
CONTINUOUS
10
1.11839
20
1.01709
11
1.11839
21
0.893858
0
LINE
8
BLACK
6
CONTINUOUS
10
1.11839
20
0.893858
11
1.1181
21
0.893162
0
LINE
8
BLACK
6
CONTINUOUS
10
1.1181
20
0.893162
11
1.1174
21
0.892874
0
LINE
8
BLACK
6
CONTINUOUS
10
1.1174
20
0.892874
11
1.0426
21
0.892874
0
LINE
8
BLACK
6
CONTINUOUS
10
1.0426
20
0.892874
11
1.0419
21
0.893162
0
LINE
8
BLACK
6
CONTINUOUS
10
1.0419
20
0.893162
11
1.04161
21
0.893858
0
LINE
8
BLACK
6
CONTINUOUS
10
1.04161
20
0.893858
11
1.04161
21
1.01709
0
LINE
8
BLACK
6
CONTINUOUS
10
1.04161
20
1.01709
11
1.04142
21
1.01709
0
LINE
8
BLACK
6
CONTINUOUS
10
1.04142
20
1.01709
11
1.04072
21
1.01737
0
LINE
8
BLACK
6
CONTINUOUS
10
1.04072
20
1.01737
11
1.04043
21
1.01807
0
LINE
8
BLACK
6
CONTINUOUS
10
1.04043
20
1.01807
11
1.04043
21
1.15193
0
LINE
8
BLACK
6
CONTINUOUS
10
1.04043
20
1.15193
11
1.04072
21
1.15263
0
LINE
8
BLACK
6
CONTINUOUS
10
1.04072
20
1.15263
11
1.04142
21
1.15291
0
LINE
8
BLACK
6
CONTINUOUS
10
1.04142
20
1.15291
11
1.11858
21
1.15291
0
LINE
8
BLACK
6
CONTINUOUS
10
1.04358
20
1.01709
11
1.04358
21
0.894843
0
LINE
8
BLACK
6
CONTINUOUS
10
1.04358
20
0.894843
11
1.11642
21
0.894843
0
LINE
8
BLACK
6
CONTINUOUS
10
1.11642
20
0.894843
11
1.11642
21
1.01709
0
LINE
8
BLACK
6
CONTINUOUS
10
1.11642
20
1.01709
11
1.04358
21
1.01709
0
LINE
8
BLACK
6
CONTINUOUS
10
1.04358
20
1.02516
11
1.04358
21
1.01906
0
LINE
8
BLACK
6
CONTINUOUS
10
1.04358
20
1.01906
11
1.11642
21
1.01906
0
LINE
8
BLACK
6
CONTINUOUS
10
1.11642
20
1.01906
11
1.11642
21
1.02516
0
LINE
8
BLACK
6
CONTINUOUS
10
1.11642
20
1.02516
11
1.04358
21
1.02516
0
LINE
8
BLACK
6
CONTINUOUS
10
1.11957
20
1.15016
11
1.11957
21
1.01984
0
LINE
8
BLACK
6
CONTINUOUS
10
1.11957
20
1.01984
11
1.19142
21
1.01984
0
LINE
8
BLACK
6
CONTINUOUS
10
1.19142
20
1.01984
11
1.19142
21
1.15016
0
LINE
8
BLACK
6
CONTINUOUS
10
1.19142
20
1.15016
11
1.11957
21
1.15016
0
LINE
8
BLACK
6
CONTINUOUS
10
1.0424
20
1.15094
11
1.0424
21
1.02704
0
LINE
8
BLACK
6
CONTINUOUS
10
1.0424
20
1.02704
11
1.0426
21
1.02713
0
LINE
8
BLACK
6
CONTINUOUS
10
1.0426
20
1.02713
11
1.11661
21
1.02713
0
LINE
8
BLACK
6
CONTINUOUS
10
1.11661
20
1.02713
11
1.11661
21
1.15094
0
LINE
8
BLACK
6
CONTINUOUS
10
1.11661
20
1.15094
11
1.0424
21
1.15094
0
LINE
8
BLACK
6
CONTINUOUS
10
1.29114
20
0.973386
11
1.29184
21
0.973098
0
LINE
8
BLACK
6
CONTINUOUS
10
1.29184
20
0.973098
11
1.29213
21
0.972402
0
LINE
8
BLACK
6
CONTINUOUS
10
1.29213
20
0.972402
11
1.29213
21
0.897598
0
LINE
8
BLACK
6
CONTINUOUS
10
1.29213
20
0.897598
11
1.29184
21
0.896902
0
LINE
8
BLACK
6
CONTINUOUS
10
1.29184
20
0.896902
11
1.29114
21
0.896614
0
LINE
8
BLACK
6
CONTINUOUS
10
1.29114
20
0.896614
11
1.15886
21
0.896614
0
LINE
8
BLACK
6
CONTINUOUS
10
1.15886
20
0.896614
11
1.15816
21
0.896902
0
LINE
8
BLACK
6
CONTINUOUS
10
1.15816
20
0.896902
11
1.15787
21
0.897598
0
LINE
8
BLACK
6
CONTINUOUS
10
1.15787
20
0.897598
11
1.15787
21
0.897598
0
LINE
8
BLACK
6
CONTINUOUS
10
1.15787
20
0.897598
11
1.15787
21
0.972402
0
LINE
8
BLACK
6
CONTINUOUS
10
1.15787
20
0.972402
11
1.15816
21
0.973098
0
LINE
8
BLACK
6
CONTINUOUS
10
1.15816
20
0.973098
11
1.15886
21
0.973386
0
LINE
8
BLACK
6
CONTINUOUS
10
1.15886
20
0.973386
11
1.29114
21
0.973386
0
LINE
8
BLACK
6
CONTINUOUS
10
1.15984
20
0.971417
11
1.15984
21
0.898583
0
LINE
8
BLACK
6
CONTINUOUS
10
1.15984
20
0.898583
11
1.29016
21
0.898583
0
LINE
8
BLACK
6
CONTINUOUS
10
1.29016
20
0.898583
11
1.29016
21
0.971417
0
LINE
8
BLACK
6
CONTINUOUS
10
1.29016
20
0.971417
11
1.15984
21
0.971417
0
LINE
8
BLACK
6
CONTINUOUS
10
1.03055
20
1.06232
11
1.03125
21
1.06203
0
LINE
8
BLACK
6
CONTINUOUS
10
1.03125
20
1.06203
11
1.03154
21
1.06134
0
LINE
8
BLACK
6
CONTINUOUS
10
1.03154
20
1.06134
11
1.03154
21
0.978661
0
LINE
8
BLACK
6
CONTINUOUS
10
1.03154
20
0.978661
11
1.03125
21
0.977965
0
LINE
8
BLACK
6
CONTINUOUS
10
1.03125
20
0.977965
11
1.03055
21
0.977677
0
LINE
8
BLACK
6
CONTINUOUS
10
1.03055
20
0.977677
11
0.849449
21
0.977677
0
LINE
8
BLACK
6
CONTINUOUS
10
0.849449
20
0.977677
11
0.848753
21
0.977965
0
LINE
8
BLACK
6
CONTINUOUS
10
0.848753
20
0.977965
11
0.848465
21
0.978661
0
LINE
8
BLACK
6
CONTINUOUS
10
0.848465
20
0.978661
11
0.848465
21
1.06134
0
LINE
8
BLACK
6
CONTINUOUS
10
0.848465
20
1.06134
11
0.848753
21
1.06203
0
LINE
8
BLACK
6
CONTINUOUS
10
0.848753
20
1.06203
11
0.849449
21
1.06232
0
LINE
8
BLACK
6
CONTINUOUS
10
0.849449
20
1.06232
11
1.03055
21
1.06232
0
LINE
8
BLACK
6
CONTINUOUS
10
0.850433
20
1.06035
11
0.850433
21
0.979646
0
LINE
8
BLACK
6
CONTINUOUS
10
0.850433
20
0.979646
11
1.02957
21
0.979646
0
LINE
8
BLACK
6
CONTINUOUS
10
1.02957
20
0.979646
11
1.02957
21
1.06035
0
LINE
8
BLACK
6
CONTINUOUS
10
1.02957
20
1.06035
11
0.850433
21
1.06035
0
LINE
8
BLACK
6
CONTINUOUS
10
1.50067
20
1.19228
11
1.50137
21
1.192
0
LINE
8
BLACK
6
CONTINUOUS
10
1.50137
20
1.192
11
1.50165
21
1.1913
0
LINE
8
BLACK
6
CONTINUOUS
10
1.50165
20
1.1913
11
1.50165
21
0.978701
0
LINE
8
BLACK
6
CONTINUOUS
10
1.50165
20
0.978701
11
1.50137
21
0.978005
0
LINE
8
BLACK
6
CONTINUOUS
10
1.50137
20
0.978005
11
1.50067
21
0.977717
0
LINE
8
BLACK
6
CONTINUOUS
10
1.50067
20
0.977717
11
1.20933
21
0.977717
0
LINE
8
BLACK
6
CONTINUOUS
10
1.20933
20
0.977717
11
1.20863
21
0.978005
0
LINE
8
BLACK
6
CONTINUOUS
10
1.20863
20
0.978005
11
1.20835
21
0.978701
0
LINE
8
BLACK
6
CONTINUOUS
10
1.20835
20
0.978701
11
1.20835
21
1.1913
0
LINE
8
BLACK
6
CONTINUOUS
10
1.20835
20
1.1913
11
1.20863
21
1.192
0
LINE
8
BLACK
6
CONTINUOUS
10
1.20863
20
1.192
11
1.20933
21
1.19228
0
LINE
8
BLACK
6
CONTINUOUS
10
1.20933
20
1.19228
11
1.50067
21
1.19228
0
LINE
8
BLACK
6
CONTINUOUS
10
1.21031
20
1.19031
11
1.21031
21
0.979685
0
LINE
8
BLACK
6
CONTINUOUS
10
1.21031
20
0.979685
11
1.49969
21
0.979685
0
LINE
8
BLACK
6
CONTINUOUS
10
1.49969
20
0.979685
11
1.49969
21
1.19031
0
LINE
8
BLACK
6
CONTINUOUS
10
1.49969
20
1.19031
11
1.21031
21
1.19031
0
LINE
8
BLACK
6
CONTINUOUS
10
1.6824
20
1.19213
11
1.6831
21
1.19184
0
LINE
8
BLACK
6
CONTINUOUS
10
1.6831
20
1.19184
11
1.68339
21
1.19114
0
LINE
8
BLACK
6
CONTINUOUS
10
1.68339
20
1.19114
11
1.68339
21
1.05886
0
LINE
8
BLACK
6
CONTINUOUS
10
1.68339
20
1.05886
11
1.6831
21
1.05816
0
LINE
8
BLACK
6
CONTINUOUS
10
1.6831
20
1.05816
11
1.6824
21
1.05787
0
LINE
8
BLACK
6
CONTINUOUS
10
1.6824
20
1.05787
11
1.6076
21
1.05787
0
LINE
8
BLACK
6
CONTINUOUS
10
1.6076
20
1.05787
11
1.6069
21
1.05816
0
LINE
8
BLACK
6
CONTINUOUS
10
1.6069
20
1.05816
11
1.60661
21
1.05886
0
LINE
8
BLACK
6
CONTINUOUS
10
1.60661
20
1.05886
11
1.60661
21
1.19114
0
LINE
8
BLACK
6
CONTINUOUS
10
1.60661
20
1.19114
11
1.6069
21
1.19184
0
LINE
8
BLACK
6
CONTINUOUS
10
1.6069
20
1.19184
11
1.6076
21
1.19213
0
LINE
8
BLACK
6
CONTINUOUS
10
1.6076
20
1.19213
11
1.6824
21
1.19213
0
LINE
8
BLACK
6
CONTINUOUS
10
1.60858
20
1.19016
11
1.60858
21
1.05984
0
LINE
8
BLACK
6
CONTINUOUS
10
1.60858
20
1.05984
11
1.68142
21
1.05984
0
LINE
8
BLACK
6
CONTINUOUS
10
1.68142
20
1.05984
11
1.68142
21
1.19016
0
LINE
8
BLACK
6
CONTINUOUS
10
1.68142
20
1.19016
11
1.60858
21
1.19016
0
LINE
8
BLACK
6
CONTINUOUS
10
1.59858
20
1.19791
11
1.59928
21
1.19763
0
LINE
8
BLACK
6
CONTINUOUS
10
1.59928
20
1.19763
11
1.59957
21
1.19693
0
LINE
8
BLACK
6
CONTINUOUS
10
1.59957
20
1.19693
11
1.59957
21
1.06307
0
LINE
8
BLACK
6
CONTINUOUS
10
1.59957
20
1.06307
11
1.59928
21
1.06237
0
LINE
8
BLACK
6
CONTINUOUS
10
1.59928
20
1.06237
11
1.59858
21
1.06209
0
LINE
8
BLACK
6
CONTINUOUS
10
1.59858
20
1.06209
11
1.52142
21
1.06209
0
LINE
8
BLACK
6
CONTINUOUS
10
1.52142
20
1.06209
11
1.52072
21
1.06237
0
LINE
8
BLACK
6
CONTINUOUS
10
1.52072
20
1.06237
11
1.52043
21
1.06307
0
LINE
8
BLACK
6
CONTINUOUS
10
1.52043
20
1.06307
11
1.52043
21
1.19693
0
LINE
8
BLACK
6
CONTINUOUS
10
1.52043
20
1.19693
11
1.52072
21
1.19763
0
LINE
8
BLACK
6
CONTINUOUS
10
1.52072
20
1.19763
11
1.52142
21
1.19791
0
LINE
8
BLACK
6
CONTINUOUS
10
1.52142
20
1.19791
11
1.59858
21
1.19791
0
LINE
8
BLACK
6
CONTINUOUS
10
1.5224
20
1.19594
11
1.5224
21
1.06406
0
LINE
8
BLACK
6
CONTINUOUS
10
1.5224
20
1.06406
11
1.5976
21
1.06406
0
LINE
8
BLACK
6
CONTINUOUS
10
1.5976
20
1.06406
11
1.5976
21
1.19594
0
LINE
8
BLACK
6
CONTINUOUS
10
1.5976
20
1.19594
11
1.5224
21
1.19594
0
LINE
8
BLACK
6
CONTINUOUS
10
0.917402
20
1.19713
11
0.918098
21
1.19684
0
LINE
8
BLACK
6
CONTINUOUS
10
0.918098
20
1.19684
11
0.918386
21
1.19614
0
LINE
8
BLACK
6
CONTINUOUS
10
0.918386
20
1.19614
11
0.918386
21
1.06386
0
LINE
8
BLACK
6
CONTINUOUS
10
0.918386
20
1.06386
11
0.918098
21
1.06316
0
LINE
8
BLACK
6
CONTINUOUS
10
0.918098
20
1.06316
11
0.917402
21
1.06287
0
LINE
8
BLACK
6
CONTINUOUS
10
0.917402
20
1.06287
11
0.842598
21
1.06287
0
LINE
8
BLACK
6
CONTINUOUS
10
0.842598
20
1.06287
11
0.841902
21
1.06316
0
LINE
8
BLACK
6
CONTINUOUS
10
0.841902
20
1.06316
11
0.841614
21
1.06386
0
LINE
8
BLACK
6
CONTINUOUS
10
0.841614
20
1.06386
11
0.841614
21
1.19614
0
LINE
8
BLACK
6
CONTINUOUS
10
0.841614
20
1.19614
11
0.841902
21
1.19684
0
LINE
8
BLACK
6
CONTINUOUS
10
0.841902
20
1.19684
11
0.842598
21
1.19713
0
LINE
8
BLACK
6
CONTINUOUS
10
0.842598
20
1.19713
11
0.917402
21
1.19713
0
LINE
8
BLACK
6
CONTINUOUS
10
0.843583
20
1.19516
11
0.843583
21
1.06484
0
LINE
8
BLACK
6
CONTINUOUS
10
0.843583
20
1.06484
11
0.916417
21
1.06484
0
LINE
8
BLACK
6
CONTINUOUS
10
0.916417
20
1.06484
11
0.916417
21
1.19516
0
LINE
8
BLACK
6
CONTINUOUS
10
0.916417
20
1.19516
11
0.843583
21
1.19516
0
LINE
8
BLACK
6
CONTINUOUS
10
1.19634
20
1.36154
11
1.19703
21
1.36125
0
LINE
8
BLACK
6
CONTINUOUS
10
1.19703
20
1.36125
11
1.19732
21
1.36055
0
LINE
8
BLACK
6
CONTINUOUS
10
1.19732
20
1.36055
11
1.19732
21
1.17945
0
LINE
8
BLACK
6
CONTINUOUS
10
1.19732
20
1.17945
11
1.19703
21
1.17875
0
LINE
8
BLACK
6
CONTINUOUS
10
1.19703
20
1.17875
11
1.19634
21
1.17846
0
LINE
8
BLACK
6
CONTINUOUS
10
1.19634
20
1.17846
11
1.11366
21
1.17846
0
LINE
8
BLACK
6
CONTINUOUS
10
1.11366
20
1.17846
11
1.11297
21
1.17875
0
LINE
8
BLACK
6
CONTINUOUS
10
1.11297
20
1.17875
11
1.11268
21
1.17945
0
LINE
8
BLACK
6
CONTINUOUS
10
1.11268
20
1.17945
11
1.11268
21
1.18161
0
LINE
8
BLACK
6
CONTINUOUS
10
1.11268
20
1.18161
11
0.983858
21
1.18161
0
LINE
8
BLACK
6
CONTINUOUS
10
0.983858
20
1.18161
11
0.983162
21
1.1819
0
LINE
8
BLACK
6
CONTINUOUS
10
0.983162
20
1.1819
11
0.982874
21
1.1826
0
LINE
8
BLACK
6
CONTINUOUS
10
0.982874
20
1.1826
11
0.982874
21
1.2574
0
LINE
8
BLACK
6
CONTINUOUS
10
0.982874
20
1.2574
11
0.983162
21
1.2581
0
LINE
8
BLACK
6
CONTINUOUS
10
0.983162
20
1.2581
11
0.983858
21
1.25839
0
LINE
8
BLACK
6
CONTINUOUS
10
0.983858
20
1.25839
11
1.11268
21
1.25839
0
LINE
8
BLACK
6
CONTINUOUS
10
1.11268
20
1.25839
11
1.11268
21
1.36055
0
LINE
8
BLACK
6
CONTINUOUS
10
1.11268
20
1.36055
11
1.11297
21
1.36125
0
LINE
8
BLACK
6
CONTINUOUS
10
1.11297
20
1.36125
11
1.11366
21
1.36154
0
LINE
8
BLACK
6
CONTINUOUS
10
1.11366
20
1.36154
11
1.19634
21
1.36154
0
LINE
8
BLACK
6
CONTINUOUS
10
1.11465
20
1.35957
11
1.11465
21
1.25839
0
LINE
8
BLACK
6
CONTINUOUS
10
1.11465
20
1.25839
11
1.11614
21
1.25839
0
LINE
8
BLACK
6
CONTINUOUS
10
1.11614
20
1.25839
11
1.11684
21
1.2581
0
LINE
8
BLACK
6
CONTINUOUS
10
1.11684
20
1.2581
11
1.11713
21
1.2574
0
LINE
8
BLACK
6
CONTINUOUS
10
1.11713
20
1.2574
11
1.11713
21
1.1826
0
LINE
8
BLACK
6
CONTINUOUS
10
1.11713
20
1.1826
11
1.11684
21
1.1819
0
LINE
8
BLACK
6
CONTINUOUS
10
1.11684
20
1.1819
11
1.11614
21
1.18161
0
LINE
8
BLACK
6
CONTINUOUS
10
1.11614
20
1.18161
11
1.11465
21
1.18161
0
LINE
8
BLACK
6
CONTINUOUS
10
1.11465
20
1.18161
11
1.11465
21
1.18043
0
LINE
8
BLACK
6
CONTINUOUS
10
1.11465
20
1.18043
11
1.19535
21
1.18043
0
LINE
8
BLACK
6
CONTINUOUS
10
1.19535
20
1.18043
11
1.19535
21
1.35957
0
LINE
8
BLACK
6
CONTINUOUS
10
1.19535
20
1.35957
11
1.11465
21
1.35957
0
LINE
8
BLACK
6
CONTINUOUS
10
0.984843
20
1.25642
11
0.984843
21
1.18358
0
LINE
8
BLACK
6
CONTINUOUS
10
0.984843
20
1.18358
11
1.11268
21
1.18358
0
LINE
8
BLACK
6
CONTINUOUS
10
1.11268
20
1.18358
11
1.11268
21
1.25642
0
LINE
8
BLACK
6
CONTINUOUS
10
1.11268
20
1.25642
11
0.984843
21
1.25642
0
LINE
8
BLACK
6
CONTINUOUS
10
1.11465
20
1.25642
11
1.11465
21
1.18358
0
LINE
8
BLACK
6
CONTINUOUS
10
1.11465
20
1.18358
11
1.11516
21
1.18358
0
LINE
8
BLACK
6
CONTINUOUS
10
1.11516
20
1.18358
11
1.11516
21
1.25642
0
LINE
8
BLACK
6
CONTINUOUS
10
1.11516
20
1.25642
11
1.11465
21
1.25642
0
LINE
8
BLACK
6
CONTINUOUS
10
1.29358
20
1.33291
11
1.29428
21
1.33263
0
LINE
8
BLACK
6
CONTINUOUS
10
1.29428
20
1.33263
11
1.29457
21
1.33193
0
LINE
8
BLACK
6
CONTINUOUS
10
1.29457
20
1.33193
11
1.29457
21
1.19807
0
LINE
8
BLACK
6
CONTINUOUS
10
1.29457
20
1.19807
11
1.29428
21
1.19737
0
LINE
8
BLACK
6
CONTINUOUS
10
1.29428
20
1.19737
11
1.29358
21
1.19709
0
LINE
8
BLACK
6
CONTINUOUS
10
1.29358
20
1.19709
11
1.21642
21
1.19709
0
LINE
8
BLACK
6
CONTINUOUS
10
1.21642
20
1.19709
11
1.21572
21
1.19737
0
LINE
8
BLACK
6
CONTINUOUS
10
1.21572
20
1.19737
11
1.21543
21
1.19807
0
LINE
8
BLACK
6
CONTINUOUS
10
1.21543
20
1.19807
11
1.21543
21
1.19807
0
LINE
8
BLACK
6
CONTINUOUS
10
1.21543
20
1.19807
11
1.21543
21
1.33193
0
LINE
8
BLACK
6
CONTINUOUS
10
1.21543
20
1.33193
11
1.21572
21
1.33263
0
LINE
8
BLACK
6
CONTINUOUS
10
1.21572
20
1.33263
11
1.21642
21
1.33291
0
LINE
8
BLACK
6
CONTINUOUS
10
1.21642
20
1.33291
11
1.29358
21
1.33291
0
LINE
8
BLACK
6
CONTINUOUS
10
1.2174
20
1.33094
11
1.2174
21
1.19906
0
LINE
8
BLACK
6
CONTINUOUS
10
1.2174
20
1.19906
11
1.2926
21
1.19906
0
LINE
8
BLACK
6
CONTINUOUS
10
1.2926
20
1.19906
11
1.2926
21
1.33094
0
LINE
8
BLACK
6
CONTINUOUS
10
1.2926
20
1.33094
11
1.2174
21
1.33094
0
LINE
8
BLACK
6
CONTINUOUS
10
1.51693
20
1.27957
11
1.51763
21
1.27928
0
LINE
8
BLACK
6
CONTINUOUS
10
1.51763
20
1.27928
11
1.51791
21
1.27858
0
LINE
8
BLACK
6
CONTINUOUS
10
1.51791
20
1.27858
11
1.51791
21
1.20142
0
LINE
8
BLACK
6
CONTINUOUS
10
1.51791
20
1.20142
11
1.51763
21
1.20072
0
LINE
8
BLACK
6
CONTINUOUS
10
1.51763
20
1.20072
11
1.51693
21
1.20043
0
LINE
8
BLACK
6
CONTINUOUS
10
1.51693
20
1.20043
11
1.38307
21
1.20043
0
LINE
8
BLACK
6
CONTINUOUS
10
1.38307
20
1.20043
11
1.38237
21
1.20072
0
LINE
8
BLACK
6
CONTINUOUS
10
1.38237
20
1.20072
11
1.38209
21
1.20142
0
LINE
8
BLACK
6
CONTINUOUS
10
1.38209
20
1.20142
11
1.38209
21
1.27858
0
LINE
8
BLACK
6
CONTINUOUS
10
1.38209
20
1.27858
11
1.38237
21
1.27928
0
LINE
8
BLACK
6
CONTINUOUS
10
1.38237
20
1.27928
11
1.38307
21
1.27957
0
LINE
8
BLACK
6
CONTINUOUS
10
1.38307
20
1.27957
11
1.51693
21
1.27957
0
LINE
8
BLACK
6
CONTINUOUS
10
1.38406
20
1.2776
11
1.38406
21
1.2024
0
LINE
8
BLACK
6
CONTINUOUS
10
1.38406
20
1.2024
11
1.51594
21
1.2024
0
LINE
8
BLACK
6
CONTINUOUS
10
1.51594
20
1.2024
11
1.51594
21
1.2776
0
LINE
8
BLACK
6
CONTINUOUS
10
1.51594
20
1.2776
11
1.38406
21
1.2776
0
LINE
8
BLACK
6
CONTINUOUS
10
0.893583
20
1.34291
11
0.894279
21
1.34263
0
LINE
8
BLACK
6
CONTINUOUS
10
0.894279
20
1.34263
11
0.894567
21
1.34193
0
LINE
8
BLACK
6
CONTINUOUS
10
0.894567
20
1.34193
11
0.894567
21
1.20807
0
LINE
8
BLACK
6
CONTINUOUS
10
0.894567
20
1.20807
11
0.894279
21
1.20737
0
LINE
8
BLACK
6
CONTINUOUS
10
0.894279
20
1.20737
11
0.893583
21
1.20709
0
LINE
8
BLACK
6
CONTINUOUS
10
0.893583
20
1.20709
11
0.816417
21
1.20709
0
LINE
8
BLACK
6
CONTINUOUS
10
0.816417
20
1.20709
11
0.815721
21
1.20737
0
LINE
8
BLACK
6
CONTINUOUS
10
0.815721
20
1.20737
11
0.815433
21
1.20807
0
LINE
8
BLACK
6
CONTINUOUS
10
0.815433
20
1.20807
11
0.815433
21
1.34193
0
LINE
8
BLACK
6
CONTINUOUS
10
0.815433
20
1.34193
11
0.815721
21
1.34263
0
LINE
8
BLACK
6
CONTINUOUS
10
0.815721
20
1.34263
11
0.816417
21
1.34291
0
LINE
8
BLACK
6
CONTINUOUS
10
0.816417
20
1.34291
11
0.893583
21
1.34291
0
LINE
8
BLACK
6
CONTINUOUS
10
0.817402
20
1.34094
11
0.817402
21
1.20906
0
LINE
8
BLACK
6
CONTINUOUS
10
0.817402
20
1.20906
11
0.892598
21
1.20906
0
LINE
8
BLACK
6
CONTINUOUS
10
0.892598
20
1.20906
11
0.892598
21
1.34094
0
LINE
8
BLACK
6
CONTINUOUS
10
0.892598
20
1.34094
11
0.817402
21
1.34094
0
LINE
8
BLACK
6
CONTINUOUS
10
1.43693
20
1.51004
11
1.43763
21
1.50975
0
LINE
8
BLACK
6
CONTINUOUS
10
1.43763
20
1.50975
11
1.43791
21
1.50906
0
LINE
8
BLACK
6
CONTINUOUS
10
1.43791
20
1.50906
11
1.43791
21
1.39094
0
LINE
8
BLACK
6
CONTINUOUS
10
1.43791
20
1.39094
11
1.43763
21
1.39025
0
LINE
8
BLACK
6
CONTINUOUS
10
1.43763
20
1.39025
11
1.43693
21
1.38996
0
LINE
8
BLACK
6
CONTINUOUS
10
1.43693
20
1.38996
11
1.30307
21
1.38996
0
LINE
8
BLACK
6
CONTINUOUS
10
1.30307
20
1.38996
11
1.30237
21
1.39025
0
LINE
8
BLACK
6
CONTINUOUS
10
1.30237
20
1.39025
11
1.30209
21
1.39094
0
LINE
8
BLACK
6
CONTINUOUS
10
1.30209
20
1.39094
11
1.30209
21
1.50906
0
LINE
8
BLACK
6
CONTINUOUS
10
1.30209
20
1.50906
11
1.30237
21
1.50975
0
LINE
8
BLACK
6
CONTINUOUS
10
1.30237
20
1.50975
11
1.30307
21
1.51004
0
LINE
8
BLACK
6
CONTINUOUS
10
1.30307
20
1.51004
11
1.43693
21
1.51004
0
LINE
8
BLACK
6
CONTINUOUS
10
1.30406
20
1.50807
11
1.30406
21
1.39193
0
LINE
8
BLACK
6
CONTINUOUS
10
1.30406
20
1.39193
11
1.43594
21
1.39193
0
LINE
8
BLACK
6
CONTINUOUS
10
1.43594
20
1.39193
11
1.43594
21
1.50807
0
LINE
8
BLACK
6
CONTINUOUS
10
1.43594
20
1.50807
11
1.30406
21
1.50807
0
LINE
8
BLACK
6
CONTINUOUS
10
1.59693
20
1.53957
11
1.59763
21
1.53928
0
LINE
8
BLACK
6
CONTINUOUS
10
1.59763
20
1.53928
11
1.59791
21
1.53858
0
LINE
8
BLACK
6
CONTINUOUS
10
1.59791
20
1.53858
11
1.59791
21
1.46142
0
LINE
8
BLACK
6
CONTINUOUS
10
1.59791
20
1.46142
11
1.59763
21
1.46072
0
LINE
8
BLACK
6
CONTINUOUS
10
1.59763
20
1.46072
11
1.59693
21
1.46043
0
LINE
8
BLACK
6
CONTINUOUS
10
1.59693
20
1.46043
11
1.46307
21
1.46043
0
LINE
8
BLACK
6
CONTINUOUS
10
1.46307
20
1.46043
11
1.46237
21
1.46072
0
LINE
8
BLACK
6
CONTINUOUS
10
1.46237
20
1.46072
11
1.46209
21
1.46142
0
LINE
8
BLACK
6
CONTINUOUS
10
1.46209
20
1.46142
11
1.46209
21
1.53858
0
LINE
8
BLACK
6
CONTINUOUS
10
1.46209
20
1.53858
11
1.46237
21
1.53928
0
LINE
8
BLACK
6
CONTINUOUS
10
1.46237
20
1.53928
11
1.46307
21
1.53957
0
LINE
8
BLACK
6
CONTINUOUS
10
1.46307
20
1.53957
11
1.59693
21
1.53957
0
LINE
8
BLACK
6
CONTINUOUS
10
1.46406
20
1.5376
11
1.46406
21
1.4624
0
LINE
8
BLACK
6
CONTINUOUS
10
1.46406
20
1.4624
11
1.59594
21
1.4624
0
LINE
8
BLACK
6
CONTINUOUS
10
1.59594
20
1.4624
11
1.59594
21
1.5376
0
LINE
8
BLACK
6
CONTINUOUS
10
1.59594
20
1.5376
11
1.46406
21
1.5376
0
LINE
8
BLACK
6
CONTINUOUS
10
1.99646
20
1.59744
11
1.99715
21
1.59715
0
LINE
8
BLACK
6
CONTINUOUS
10
1.99715
20
1.59715
11
1.99744
21
1.59646
0
LINE
8
BLACK
6
CONTINUOUS
10
1.99744
20
1.59646
11
1.99744
21
0.403543
0
LINE
8
BLACK
6
CONTINUOUS
10
1.99744
20
0.403543
11
1.99715
21
0.402847
0
LINE
8
BLACK
6
CONTINUOUS
10
1.99715
20
0.402847
11
1.99646
21
0.402559
0
LINE
8
BLACK
6
CONTINUOUS
10
1.99646
20
0.402559
11
0.803543
21
0.402559
0
LINE
8
BLACK
6
CONTINUOUS
10
0.803543
20
0.402559
11
0.802847
21
0.402847
0
LINE
8
BLACK
6
CONTINUOUS
10
0.802847
20
0.402847
11
0.802559
21
0.403543
0
LINE
8
BLACK
6
CONTINUOUS
10
0.802559
20
0.403543
11
0.802559
21
1.59646
0
LINE
8
BLACK
6
CONTINUOUS
10
0.802559
20
1.59646
11
0.802847
21
1.59715
0
LINE
8
BLACK
6
CONTINUOUS
10
0.802847
20
1.59715
11
0.803543
21
1.59744
0
LINE
8
BLACK
6
CONTINUOUS
10
0.803543
20
1.59744
11
1.99646
21
1.59744
0
LINE
8
BLACK
6
CONTINUOUS
10
0.804528
20
1.59547
11
0.804528
21
0.404528
0
LINE
8
BLACK
6
CONTINUOUS
10
0.804528
20
0.404528
11
1.99547
21
0.404528
0
LINE
8
BLACK
6
CONTINUOUS
10
1.99547
20
0.404528
11
1.99547
21
1.59547
0
LINE
8
BLACK
6
CONTINUOUS
10
1.99547
20
1.59547
11
0.804528
21
1.59547
0
LINE
8
BLACK
6
CONTINUOUS
10
2.05551
20
1.6565
11
2.05621
21
1.65621
0
LINE
8
BLACK
6
CONTINUOUS
10
2.05621
20
1.65621
11
2.0565
21
1.65551
0
LINE
8
BLACK
6
CONTINUOUS
10
2.0565
20
1.65551
11
2.0565
21
0.344488
0
LINE
8
BLACK
6
CONTINUOUS
10
2.0565
20
0.344488
11
2.05621
21
0.343792
0
LINE
8
BLACK
6
CONTINUOUS
10
2.05621
20
0.343792
11
2.05551
21
0.343504
0
LINE
8
BLACK
6
CONTINUOUS
10
2.05551
20
0.343504
11
0.744488
21
0.343504
0
LINE
8
BLACK
6
CONTINUOUS
10
0.744488
20
0.343504
11
0.743792
21
0.343792
0
LINE
8
BLACK
6
CONTINUOUS
10
0.743792
20
0.343792
11
0.743504
21
0.344488
0
LINE
8
BLACK
6
CONTINUOUS
10
0.743504
20
0.344488
11
0.743504
21
1.65551
0
LINE
8
BLACK
6
CONTINUOUS
10
0.743504
20
1.65551
11
0.743792
21
1.65621
0
LINE
8
BLACK
6
CONTINUOUS
10
0.743792
20
1.65621
11
0.744488
21
1.6565
0
LINE
8
BLACK
6
CONTINUOUS
10
0.744488
20
1.6565
11
2.05551
21
1.6565
0
LINE
8
BLACK
6
CONTINUOUS
10
0.745472
20
1.65453
11
0.745472
21
0.345472
0
LINE
8
BLACK
6
CONTINUOUS
10
0.745472
20
0.345472
11
2.05453
21
0.345472
0
LINE
8
BLACK
6
CONTINUOUS
10
2.05453
20
0.345472
11
2.05453
21
1.65453
0
LINE
8
BLACK
6
CONTINUOUS
10
2.05453
20
1.65453
11
0.745472
21
1.65453
0
LINE
8
BLACK
6
CONTINUOUS
10
0.716929
20
0.489567
11
0.717625
21
0.489279
0
LINE
8
BLACK
6
CONTINUOUS
10
0.717625
20
0.489279
11
0.717913
21
0.488583
0
LINE
8
BLACK
6
CONTINUOUS
10
0.717913
20
0.488583
11
0.717913
21
0.411417
0
LINE
8
BLACK
6
CONTINUOUS
10
0.717913
20
0.411417
11
0.717625
21
0.410721
0
LINE
8
BLACK
6
CONTINUOUS
10
0.717625
20
0.410721
11
0.716929
21
0.410433
0
LINE
8
BLACK
6
CONTINUOUS
10
0.716929
20
0.410433
11
0.583071
21
0.410433
0
LINE
8
BLACK
6
CONTINUOUS
10
0.583071
20
0.410433
11
0.582375
21
0.410721
0
LINE
8
BLACK
6
CONTINUOUS
10
0.582375
20
0.410721
11
0.582087
21
0.411417
0
LINE
8
BLACK
6
CONTINUOUS
10
0.582087
20
0.411417
11
0.582087
21
0.488583
0
LINE
8
BLACK
6
CONTINUOUS
10
0.582087
20
0.488583
11
0.582375
21
0.489279
0
LINE
8
BLACK
6
CONTINUOUS
10
0.582375
20
0.489279
11
0.583071
21
0.489567
0
LINE
8
BLACK
6
CONTINUOUS
10
0.583071
20
0.489567
11
0.716929
21
0.489567
0
LINE
8
BLACK
6
CONTINUOUS
10
0.584055
20
0.487598
11
0.584055
21
0.412402
0
LINE
8
BLACK
6
CONTINUOUS
10
0.584055
20
0.412402
11
0.715945
21
0.412402
0
LINE
8
BLACK
6
CONTINUOUS
10
0.715945
20
0.412402
11
0.715945
21
0.487598
0
LINE
8
BLACK
6
CONTINUOUS
10
0.715945
20
0.487598
11
0.584055
21
0.487598
0
LINE
8
BLACK
6
CONTINUOUS
10
0.608583
20
0.761732
11
0.609279
21
0.761444
0
LINE
8
BLACK
6
CONTINUOUS
10
0.609279
20
0.761444
11
0.609567
21
0.760748
0
LINE
8
BLACK
6
CONTINUOUS
10
0.609567
20
0.760748
11
0.609567
21
0.62689
0
LINE
8
BLACK
6
CONTINUOUS
10
0.609567
20
0.62689
11
0.609279
21
0.626194
0
LINE
8
BLACK
6
CONTINUOUS
10
0.609279
20
0.626194
11
0.608583
21
0.625906
0
LINE
8
BLACK
6
CONTINUOUS
10
0.608583
20
0.625906
11
0.598835
21
0.625906
0
LINE
8
BLACK
6
CONTINUOUS
10
0.598835
20
0.625906
11
0.599436
21
0.625657
0
LINE
8
BLACK
6
CONTINUOUS
10
0.599436
20
0.625657
11
0.599724
21
0.624961
0
LINE
8
BLACK
6
CONTINUOUS
10
0.599724
20
0.624961
11
0.599724
21
0.495039
0
LINE
8
BLACK
6
CONTINUOUS
10
0.599724
20
0.495039
11
0.599436
21
0.494343
0
LINE
8
BLACK
6
CONTINUOUS
10
0.599436
20
0.494343
11
0.59874
21
0.494055
0
LINE
8
BLACK
6
CONTINUOUS
10
0.59874
20
0.494055
11
0.54126
21
0.494055
0
LINE
8
BLACK
6
CONTINUOUS
10
0.54126
20
0.494055
11
0.540564
21
0.494343
0
LINE
8
BLACK
6
CONTINUOUS
10
0.540564
20
0.494343
11
0.540276
21
0.495039
0
LINE
8
BLACK
6
CONTINUOUS
10
0.540276
20
0.495039
11
0.540276
21
0.624961
0
LINE
8
BLACK
6
CONTINUOUS
10
0.540276
20
0.624961
11
0.540564
21
0.625657
0
LINE
8
BLACK
6
CONTINUOUS
10
0.540564
20
0.625657
11
0.541165
21
0.625906
0
LINE
8
BLACK
6
CONTINUOUS
10
0.541165
20
0.625906
11
0.531417
21
0.625906
0
LINE
8
BLACK
6
CONTINUOUS
10
0.531417
20
0.625906
11
0.530721
21
0.626194
0
LINE
8
BLACK
6
CONTINUOUS
10
0.530721
20
0.626194
11
0.530433
21
0.62689
0
LINE
8
BLACK
6
CONTINUOUS
10
0.530433
20
0.62689
11
0.530433
21
0.760748
0
LINE
8
BLACK
6
CONTINUOUS
10
0.530433
20
0.760748
11
0.530721
21
0.761444
0
LINE
8
BLACK
6
CONTINUOUS
10
0.530721
20
0.761444
11
0.531417
21
0.761732
0
LINE
8
BLACK
6
CONTINUOUS
10
0.531417
20
0.761732
11
0.608583
21
0.761732
0
LINE
8
BLACK
6
CONTINUOUS
10
0.542244
20
0.623976
11
0.542244
21
0.496024
0
LINE
8
BLACK
6
CONTINUOUS
10
0.542244
20
0.496024
11
0.597756
21
0.496024
0
LINE
8
BLACK
6
CONTINUOUS
10
0.597756
20
0.496024
11
0.597756
21
0.623976
0
LINE
8
BLACK
6
CONTINUOUS
10
0.597756
20
0.623976
11
0.542244
21
0.623976
0
LINE
8
BLACK
6
CONTINUOUS
10
0.532402
20
0.759764
11
0.532402
21
0.627874
0
LINE
8
BLACK
6
CONTINUOUS
10
0.532402
20
0.627874
11
0.607598
21
0.627874
0
LINE
8
BLACK
6
CONTINUOUS
10
0.607598
20
0.627874
11
0.607598
21
0.759764
0
LINE
8
BLACK
6
CONTINUOUS
10
0.607598
20
0.759764
11
0.532402
21
0.759764
0
LINE
8
BLACK
6
CONTINUOUS
10
0.697402
20
0.763819
11
0.698098
21
0.763531
0
LINE
8
BLACK
6
CONTINUOUS
10
0.698098
20
0.763531
11
0.698386
21
0.762835
0
LINE
8
BLACK
6
CONTINUOUS
10
0.698386
20
0.762835
11
0.698386
21
0.619567
0
LINE
8
BLACK
6
CONTINUOUS
10
0.698386
20
0.619567
11
0.736929
21
0.619567
0
LINE
8
BLACK
6
CONTINUOUS
10
0.736929
20
0.619567
11
0.737625
21
0.619279
0
LINE
8
BLACK
6
CONTINUOUS
10
0.737625
20
0.619279
11
0.737913
21
0.618583
0
LINE
8
BLACK
6
CONTINUOUS
10
0.737913
20
0.618583
11
0.737913
21
0.541417
0
LINE
8
BLACK
6
CONTINUOUS
10
0.737913
20
0.541417
11
0.737625
21
0.540721
0
LINE
8
BLACK
6
CONTINUOUS
10
0.737625
20
0.540721
11
0.736929
21
0.540433
0
LINE
8
BLACK
6
CONTINUOUS
10
0.736929
20
0.540433
11
0.603071
21
0.540433
0
LINE
8
BLACK
6
CONTINUOUS
10
0.603071
20
0.540433
11
0.602375
21
0.540721
0
LINE
8
BLACK
6
CONTINUOUS
10
0.602375
20
0.540721
11
0.602087
21
0.541417
0
LINE
8
BLACK
6
CONTINUOUS
10
0.602087
20
0.541417
11
0.602087
21
0.618583
0
LINE
8
BLACK
6
CONTINUOUS
10
0.602087
20
0.618583
11
0.602375
21
0.619279
0
LINE
8
BLACK
6
CONTINUOUS
10
0.602375
20
0.619279
11
0.603071
21
0.619567
0
LINE
8
BLACK
6
CONTINUOUS
10
0.603071
20
0.619567
11
0.621614
21
0.619567
0
LINE
8
BLACK
6
CONTINUOUS
10
0.621614
20
0.619567
11
0.621614
21
0.762835
0
LINE
8
BLACK
6
CONTINUOUS
10
0.621614
20
0.762835
11
0.621902
21
0.763531
0
LINE
8
BLACK
6
CONTINUOUS
10
0.621902
20
0.763531
11
0.622598
21
0.763819
0
LINE
8
BLACK
6
CONTINUOUS
10
0.622598
20
0.763819
11
0.697402
21
0.763819
0
LINE
8
BLACK
6
CONTINUOUS
10
0.698386
20
0.617598
11
0.698386
21
0.617165
0
LINE
8
BLACK
6
CONTINUOUS
10
0.698386
20
0.617165
11
0.698098
21
0.616469
0
LINE
8
BLACK
6
CONTINUOUS
10
0.698098
20
0.616469
11
0.697402
21
0.616181
0
LINE
8
BLACK
6
CONTINUOUS
10
0.697402
20
0.616181
11
0.622598
21
0.616181
0
LINE
8
BLACK
6
CONTINUOUS
10
0.622598
20
0.616181
11
0.621902
21
0.616469
0
LINE
8
BLACK
6
CONTINUOUS
10
0.621902
20
0.616469
11
0.621614
21
0.617165
0
LINE
8
BLACK
6
CONTINUOUS
10
0.621614
20
0.617165
11
0.621614
21
0.617598
0
LINE
8
BLACK
6
CONTINUOUS
10
0.621614
20
0.617598
11
0.604055
21
0.617598
0
LINE
8
BLACK
6
CONTINUOUS
10
0.604055
20
0.617598
11
0.604055
21
0.542402
0
LINE
8
BLACK
6
CONTINUOUS
10
0.604055
20
0.542402
11
0.735945
21
0.542402
0
LINE
8
BLACK
6
CONTINUOUS
10
0.735945
20
0.542402
11
0.735945
21
0.617598
0
LINE
8
BLACK
6
CONTINUOUS
10
0.735945
20
0.617598
11
0.698386
21
0.617598
0
LINE
8
BLACK
6
CONTINUOUS
10
0.623583
20
0.76185
11
0.623583
21
0.619567
0
LINE
8
BLACK
6
CONTINUOUS
10
0.623583
20
0.619567
11
0.696417
21
0.619567
0
LINE
8
BLACK
6
CONTINUOUS
10
0.696417
20
0.619567
11
0.696417
21
0.76185
0
LINE
8
BLACK
6
CONTINUOUS
10
0.696417
20
0.76185
11
0.623583
21
0.76185
0
LINE
8
BLACK
6
CONTINUOUS
10
2.28193
20
0.669567
11
2.28263
21
0.669279
0
LINE
8
BLACK
6
CONTINUOUS
10
2.28263
20
0.669279
11
2.28291
21
0.668583
0
LINE
8
BLACK
6
CONTINUOUS
10
2.28291
20
0.668583
11
2.28291
21
0.591417
0
LINE
8
BLACK
6
CONTINUOUS
10
2.28291
20
0.591417
11
2.28263
21
0.590721
0
LINE
8
BLACK
6
CONTINUOUS
10
2.28263
20
0.590721
11
2.28193
21
0.590433
0
LINE
8
BLACK
6
CONTINUOUS
10
2.28193
20
0.590433
11
2.14807
21
0.590433
0
LINE
8
BLACK
6
CONTINUOUS
10
2.14807
20
0.590433
11
2.14737
21
0.590721
0
LINE
8
BLACK
6
CONTINUOUS
10
2.14737
20
0.590721
11
2.14709
21
0.591417
0
LINE
8
BLACK
6
CONTINUOUS
10
2.14709
20
0.591417
11
2.14709
21
0.668583
0
LINE
8
BLACK
6
CONTINUOUS
10
2.14709
20
0.668583
11
2.14737
21
0.669279
0
LINE
8
BLACK
6
CONTINUOUS
10
2.14737
20
0.669279
11
2.14807
21
0.669567
0
LINE
8
BLACK
6
CONTINUOUS
10
2.14807
20
0.669567
11
2.28193
21
0.669567
0
LINE
8
BLACK
6
CONTINUOUS
10
2.14906
20
0.667598
11
2.14906
21
0.592402
0
LINE
8
BLACK
6
CONTINUOUS
10
2.14906
20
0.592402
11
2.28094
21
0.592402
0
LINE
8
BLACK
6
CONTINUOUS
10
2.28094
20
0.592402
11
2.28094
21
0.667598
0
LINE
8
BLACK
6
CONTINUOUS
10
2.28094
20
0.667598
11
2.14906
21
0.667598
0
LINE
8
BLACK
6
CONTINUOUS
10
0.661929
20
0.941693
11
0.662625
21
0.941405
0
LINE
8
BLACK
6
CONTINUOUS
10
0.662625
20
0.941405
11
0.662913
21
0.940709
0
LINE
8
BLACK
6
CONTINUOUS
10
0.662913
20
0.940709
11
0.662913
21
0.779291
0
LINE
8
BLACK
6
CONTINUOUS
10
0.662913
20
0.779291
11
0.662625
21
0.778595
0
LINE
8
BLACK
6
CONTINUOUS
10
0.662625
20
0.778595
11
0.661929
21
0.778307
0
LINE
8
BLACK
6
CONTINUOUS
10
0.661929
20
0.778307
11
0.528071
21
0.778307
0
LINE
8
BLACK
6
CONTINUOUS
10
0.528071
20
0.778307
11
0.527375
21
0.778595
0
LINE
8
BLACK
6
CONTINUOUS
10
0.527375
20
0.778595
11
0.527087
21
0.779291
0
LINE
8
BLACK
6
CONTINUOUS
10
0.527087
20
0.779291
11
0.527087
21
0.798259
0
LINE
8
BLACK
6
CONTINUOUS
10
0.527087
20
0.798259
11
0.341978
21
0.61315
0
LINE
8
BLACK
6
CONTINUOUS
10
0.341978
20
0.61315
11
0.341282
21
0.612862
0
LINE
8
BLACK
6
CONTINUOUS
10
0.341282
20
0.612862
11
0.340586
21
0.61315
0
LINE
8
BLACK
6
CONTINUOUS
10
0.340586
20
0.61315
11
0.340586
21
0.61315
0
LINE
8
BLACK
6
CONTINUOUS
10
0.340586
20
0.61315
11
0.24315
21
0.710586
0
LINE
8
BLACK
6
CONTINUOUS
10
0.24315
20
0.710586
11
0.242862
21
0.711282
0
LINE
8
BLACK
6
CONTINUOUS
10
0.242862
20
0.711282
11
0.24315
21
0.711978
0
LINE
8
BLACK
6
CONTINUOUS
10
0.24315
20
0.711978
11
0.24315
21
0.711978
0
LINE
8
BLACK
6
CONTINUOUS
10
0.24315
20
0.711978
11
0.438022
21
0.90685
0
LINE
8
BLACK
6
CONTINUOUS
10
0.438022
20
0.90685
11
0.438022
21
0.90685
0
LINE
8
BLACK
6
CONTINUOUS
10
0.438022
20
0.90685
11
0.438226
21
0.906934
0
LINE
8
BLACK
6
CONTINUOUS
10
0.438226
20
0.906934
11
0.438718
21
0.907138
0
LINE
8
BLACK
6
CONTINUOUS
10
0.438718
20
0.907138
11
0.439414
21
0.90685
0
LINE
8
BLACK
6
CONTINUOUS
10
0.439414
20
0.90685
11
0.527087
21
0.819177
0
LINE
8
BLACK
6
CONTINUOUS
10
0.527087
20
0.819177
11
0.527087
21
0.940709
0
LINE
8
BLACK
6
CONTINUOUS
10
0.527087
20
0.940709
11
0.527375
21
0.941405
0
LINE
8
BLACK
6
CONTINUOUS
10
0.527375
20
0.941405
11
0.528071
21
0.941693
0
LINE
8
BLACK
6
CONTINUOUS
10
0.528071
20
0.941693
11
0.661929
21
0.941693
0
LINE
8
BLACK
6
CONTINUOUS
10
0.245238
20
0.711282
11
0.341282
21
0.615238
0
LINE
8
BLACK
6
CONTINUOUS
10
0.341282
20
0.615238
11
0.527087
21
0.801043
0
LINE
8
BLACK
6
CONTINUOUS
10
0.527087
20
0.801043
11
0.527087
21
0.816393
0
LINE
8
BLACK
6
CONTINUOUS
10
0.527087
20
0.816393
11
0.438718
21
0.904762
0
LINE
8
BLACK
6
CONTINUOUS
10
0.438718
20
0.904762
11
0.245238
21
0.711282
0
LINE
8
BLACK
6
CONTINUOUS
10
0.529055
20
0.939724
11
0.529055
21
0.817209
0
LINE
8
BLACK
6
CONTINUOUS
10
0.529055
20
0.817209
11
0.53685
21
0.809414
0
LINE
8
BLACK
6
CONTINUOUS
10
0.53685
20
0.809414
11
0.53685
21
0.809414
0
LINE
8
BLACK
6
CONTINUOUS
10
0.53685
20
0.809414
11
0.537138
21
0.808718
0
LINE
8
BLACK
6
CONTINUOUS
10
0.537138
20
0.808718
11
0.53685
21
0.808022
0
LINE
8
BLACK
6
CONTINUOUS
10
0.53685
20
0.808022
11
0.529055
21
0.800227
0
LINE
8
BLACK
6
CONTINUOUS
10
0.529055
20
0.800227
11
0.529055
21
0.780276
0
LINE
8
BLACK
6
CONTINUOUS
10
0.529055
20
0.780276
11
0.660945
21
0.780276
0
LINE
8
BLACK
6
CONTINUOUS
10
0.660945
20
0.780276
11
0.660945
21
0.939724
0
LINE
8
BLACK
6
CONTINUOUS
10
0.660945
20
0.939724
11
0.529055
21
0.939724
0
LINE
8
BLACK
6
CONTINUOUS
10
0.529055
20
0.803011
11
0.534762
21
0.808718
0
LINE
8
BLACK
6
CONTINUOUS
10
0.534762
20
0.808718
11
0.529055
21
0.814425
0
LINE
8
BLACK
6
CONTINUOUS
10
0.529055
20
0.814425
11
0.529055
21
0.803011
0
LINE
8
BLACK
6
CONTINUOUS
10
2.3874
20
0.957126
11
2.3881
21
0.956838
0
LINE
8
BLACK
6
CONTINUOUS
10
2.3881
20
0.956838
11
2.38839
21
0.956142
0
LINE
8
BLACK
6
CONTINUOUS
10
2.38839
20
0.956142
11
2.38839
21
0.823858
0
LINE
8
BLACK
6
CONTINUOUS
10
2.38839
20
0.823858
11
2.3881
21
0.823162
0
LINE
8
BLACK
6
CONTINUOUS
10
2.3881
20
0.823162
11
2.3874
21
0.822874
0
LINE
8
BLACK
6
CONTINUOUS
10
2.3874
20
0.822874
11
2.3126
21
0.822874
0
LINE
8
BLACK
6
CONTINUOUS
10
2.3126
20
0.822874
11
2.3119
21
0.823162
0
LINE
8
BLACK
6
CONTINUOUS
10
2.3119
20
0.823162
11
2.31161
21
0.823858
0
LINE
8
BLACK
6
CONTINUOUS
10
2.31161
20
0.823858
11
2.31161
21
0.956142
0
LINE
8
BLACK
6
CONTINUOUS
10
2.31161
20
0.956142
11
2.3119
21
0.956838
0
LINE
8
BLACK
6
CONTINUOUS
10
2.3119
20
0.956838
11
2.3126
21
0.957126
0
LINE
8
BLACK
6
CONTINUOUS
10
2.3126
20
0.957126
11
2.3874
21
0.957126
0
LINE
8
BLACK
6
CONTINUOUS
10
2.31358
20
0.955157
11
2.31358
21
0.824843
0
LINE
8
BLACK
6
CONTINUOUS
10
2.31358
20
0.824843
11
2.38642
21
0.824843
0
LINE
8
BLACK
6
CONTINUOUS
10
2.38642
20
0.824843
11
2.38642
21
0.955157
0
LINE
8
BLACK
6
CONTINUOUS
10
2.38642
20
0.955157
11
2.31358
21
0.955157
0
LINE
8
BLACK
6
CONTINUOUS
10
0.704449
20
1.04614
11
0.705145
21
1.04585
0
LINE
8
BLACK
6
CONTINUOUS
10
0.705145
20
1.04585
11
0.705433
21
1.04516
0
LINE
8
BLACK
6
CONTINUOUS
10
0.705433
20
1.04516
11
0.705433
21
0.96248
0
LINE
8
BLACK
6
CONTINUOUS
10
0.705433
20
0.96248
11
0.705145
21
0.961784
0
LINE
8
BLACK
6
CONTINUOUS
10
0.705145
20
0.961784
11
0.704449
21
0.961496
0
LINE
8
BLACK
6
CONTINUOUS
10
0.704449
20
0.961496
11
0.523346
21
0.961496
0
LINE
8
BLACK
6
CONTINUOUS
10
0.523346
20
0.961496
11
0.52265
21
0.961784
0
LINE
8
BLACK
6
CONTINUOUS
10
0.52265
20
0.961784
11
0.522362
21
0.96248
0
LINE
8
BLACK
6
CONTINUOUS
10
0.522362
20
0.96248
11
0.522362
21
0.96248
0
LINE
8
BLACK
6
CONTINUOUS
10
0.522362
20
0.96248
11
0.522362
21
1.04516
0
LINE
8
BLACK
6
CONTINUOUS
10
0.522362
20
1.04516
11
0.52265
21
1.04585
0
LINE
8
BLACK
6
CONTINUOUS
10
0.52265
20
1.04585
11
0.523346
21
1.04614
0
LINE
8
BLACK
6
CONTINUOUS
10
0.523346
20
1.04614
11
0.704449
21
1.04614
0
LINE
8
BLACK
6
CONTINUOUS
10
0.524331
20
1.04417
11
0.524331
21
0.963465
0
LINE
8
BLACK
6
CONTINUOUS
10
0.524331
20
0.963465
11
0.703465
21
0.963465
0
LINE
8
BLACK
6
CONTINUOUS
10
0.703465
20
0.963465
11
0.703465
21
1.04417
0
LINE
8
BLACK
6
CONTINUOUS
10
0.703465
20
1.04417
11
0.524331
21
1.04417
0
LINE
8
BLACK
6
CONTINUOUS
10
2.38346
20
1.11988
11
2.38416
21
1.11959
0
LINE
8
BLACK
6
CONTINUOUS
10
2.38416
20
1.11959
11
2.38445
21
1.1189
0
LINE
8
BLACK
6
CONTINUOUS
10
2.38445
20
1.1189
11
2.38445
21
0.981102
0
LINE
8
BLACK
6
CONTINUOUS
10
2.38445
20
0.981102
11
2.38416
21
0.980406
0
LINE
8
BLACK
6
CONTINUOUS
10
2.38416
20
0.980406
11
2.38346
21
0.980118
0
LINE
8
BLACK
6
CONTINUOUS
10
2.38346
20
0.980118
11
2.31654
21
0.980118
0
LINE
8
BLACK
6
CONTINUOUS
10
2.31654
20
0.980118
11
2.31584
21
0.980406
0
LINE
8
BLACK
6
CONTINUOUS
10
2.31584
20
0.980406
11
2.31555
21
0.981102
0
LINE
8
BLACK
6
CONTINUOUS
10
2.31555
20
0.981102
11
2.31555
21
1.1189
0
LINE
8
BLACK
6
CONTINUOUS
10
2.31555
20
1.1189
11
2.31584
21
1.11959
0
LINE
8
BLACK
6
CONTINUOUS
10
2.31584
20
1.11959
11
2.31654
21
1.11988
0
LINE
8
BLACK
6
CONTINUOUS
10
2.31654
20
1.11988
11
2.38346
21
1.11988
0
LINE
8
BLACK
6
CONTINUOUS
10
2.31752
20
1.11791
11
2.31752
21
0.982087
0
LINE
8
BLACK
6
CONTINUOUS
10
2.31752
20
0.982087
11
2.38248
21
0.982087
0
LINE
8
BLACK
6
CONTINUOUS
10
2.38248
20
0.982087
11
2.38248
21
1.11791
0
LINE
8
BLACK
6
CONTINUOUS
10
2.38248
20
1.11791
11
2.31752
21
1.11791
0
LINE
8
BLACK
6
CONTINUOUS
10
0.704449
20
1.14614
11
0.705145
21
1.14585
0
LINE
8
BLACK
6
CONTINUOUS
10
0.705145
20
1.14585
11
0.705433
21
1.14516
0
LINE
8
BLACK
6
CONTINUOUS
10
0.705433
20
1.14516
11
0.705433
21
1.06248
0
LINE
8
BLACK
6
CONTINUOUS
10
0.705433
20
1.06248
11
0.705145
21
1.06178
0
LINE
8
BLACK
6
CONTINUOUS
10
0.705145
20
1.06178
11
0.704449
21
1.0615
0
LINE
8
BLACK
6
CONTINUOUS
10
0.704449
20
1.0615
11
0.523346
21
1.0615
0
LINE
8
BLACK
6
CONTINUOUS
10
0.523346
20
1.0615
11
0.52265
21
1.06178
0
LINE
8
BLACK
6
CONTINUOUS
10
0.52265
20
1.06178
11
0.522362
21
1.06248
0
LINE
8
BLACK
6
CONTINUOUS
10
0.522362
20
1.06248
11
0.522362
21
1.06248
0
LINE
8
BLACK
6
CONTINUOUS
10
0.522362
20
1.06248
11
0.522362
21
1.14516
0
LINE
8
BLACK
6
CONTINUOUS
10
0.522362
20
1.14516
11
0.52265
21
1.14585
0
LINE
8
BLACK
6
CONTINUOUS
10
0.52265
20
1.14585
11
0.523346
21
1.14614
0
LINE
8
BLACK
6
CONTINUOUS
10
0.523346
20
1.14614
11
0.704449
21
1.14614
0
LINE
8
BLACK
6
CONTINUOUS
10
0.524331
20
1.14417
11
0.524331
21
1.06346
0
LINE
8
BLACK
6
CONTINUOUS
10
0.524331
20
1.06346
11
0.703465
21
1.06346
0
LINE
8
BLACK
6
CONTINUOUS
10
0.703465
20
1.06346
11
0.703465
21
1.14417
0
LINE
8
BLACK
6
CONTINUOUS
10
0.703465
20
1.14417
11
0.524331
21
1.14417
0
LINE
8
BLACK
6
CONTINUOUS
10
2.25193
20
1.26957
11
2.25263
21
1.26928
0
LINE
8
BLACK
6
CONTINUOUS
10
2.25263
20
1.26928
11
2.25291
21
1.26858
0
LINE
8
BLACK
6
CONTINUOUS
10
2.25291
20
1.26858
11
2.25291
21
1.19142
0
LINE
8
BLACK
6
CONTINUOUS
10
2.25291
20
1.19142
11
2.25263
21
1.19072
0
LINE
8
BLACK
6
CONTINUOUS
10
2.25263
20
1.19072
11
2.25193
21
1.19043
0
LINE
8
BLACK
6
CONTINUOUS
10
2.25193
20
1.19043
11
2.11807
21
1.19043
0
LINE
8
BLACK
6
CONTINUOUS
10
2.11807
20
1.19043
11
2.11737
21
1.19072
0
LINE
8
BLACK
6
CONTINUOUS
10
2.11737
20
1.19072
11
2.11709
21
1.19142
0
LINE
8
BLACK
6
CONTINUOUS
10
2.11709
20
1.19142
11
2.11709
21
1.26858
0
LINE
8
BLACK
6
CONTINUOUS
10
2.11709
20
1.26858
11
2.11737
21
1.26928
0
LINE
8
BLACK
6
CONTINUOUS
10
2.11737
20
1.26928
11
2.11807
21
1.26957
0
LINE
8
BLACK
6
CONTINUOUS
10
2.11807
20
1.26957
11
2.25193
21
1.26957
0
LINE
8
BLACK
6
CONTINUOUS
10
2.11906
20
1.2676
11
2.11906
21
1.1924
0
LINE
8
BLACK
6
CONTINUOUS
10
2.11906
20
1.1924
11
2.25094
21
1.1924
0
LINE
8
BLACK
6
CONTINUOUS
10
2.25094
20
1.1924
11
2.25094
21
1.2676
0
LINE
8
BLACK
6
CONTINUOUS
10
2.25094
20
1.2676
11
2.11906
21
1.2676
0
LINE
8
BLACK
6
CONTINUOUS
10
2.17872
20
1.75443
11
2.18717
21
1.75217
0
LINE
8
BLACK
6
CONTINUOUS
10
2.18717
20
1.75217
11
2.1951
21
1.74847
0
LINE
8
BLACK
6
CONTINUOUS
10
2.1951
20
1.74847
11
2.20227
21
1.74345
0
LINE
8
BLACK
6
CONTINUOUS
10
2.20227
20
1.74345
11
2.20845
21
1.73727
0
LINE
8
BLACK
6
CONTINUOUS
10
2.20845
20
1.73727
11
2.21347
21
1.7301
0
LINE
8
BLACK
6
CONTINUOUS
10
2.21347
20
1.7301
11
2.21717
21
1.72217
0
LINE
8
BLACK
6
CONTINUOUS
10
2.21717
20
1.72217
11
2.21943
21
1.71372
0
LINE
8
BLACK
6
CONTINUOUS
10
2.21943
20
1.71372
11
2.2202
21
1.705
0
LINE
8
BLACK
6
CONTINUOUS
10
2.2202
20
1.705
11
2.21943
21
1.69628
0
LINE
8
BLACK
6
CONTINUOUS
10
2.21943
20
1.69628
11
2.21717
21
1.68783
0
LINE
8
BLACK
6
CONTINUOUS
10
2.21717
20
1.68783
11
2.21347
21
1.6799
0
LINE
8
BLACK
6
CONTINUOUS
10
2.21347
20
1.6799
11
2.20845
21
1.67273
0
LINE
8
BLACK
6
CONTINUOUS
10
2.20845
20
1.67273
11
2.20227
21
1.66655
0
LINE
8
BLACK
6
CONTINUOUS
10
2.20227
20
1.66655
11
2.1951
21
1.66153
0
LINE
8
BLACK
6
CONTINUOUS
10
2.1951
20
1.66153
11
2.18717
21
1.65783
0
LINE
8
BLACK
6
CONTINUOUS
10
2.18717
20
1.65783
11
2.17872
21
1.65557
0
LINE
8
BLACK
6
CONTINUOUS
10
2.17872
20
1.65557
11
2.17
21
1.6548
0
LINE
8
BLACK
6
CONTINUOUS
10
2.17
20
1.6548
11
2.16128
21
1.65557
0
LINE
8
BLACK
6
CONTINUOUS
10
2.16128
20
1.65557
11
2.15283
21
1.65783
0
LINE
8
BLACK
6
CONTINUOUS
10
2.15283
20
1.65783
11
2.1449
21
1.66153
0
LINE
8
BLACK
6
CONTINUOUS
10
2.1449
20
1.66153
11
2.13773
21
1.66655
0
LINE
8
BLACK
6
CONTINUOUS
10
2.13773
20
1.66655
11
2.13155
21
1.67273
0
LINE
8
BLACK
6
CONTINUOUS
10
2.13155
20
1.67273
11
2.12653
21
1.6799
0
LINE
8
BLACK
6
CONTINUOUS
10
2.12653
20
1.6799
11
2.12283
21
1.68783
0
LINE
8
BLACK
6
CONTINUOUS
10
2.12283
20
1.68783
11
2.12057
21
1.69628
0
LINE
8
BLACK
6
CONTINUOUS
10
2.12057
20
1.69628
11
2.1198
21
1.705
0
LINE
8
BLACK
6
CONTINUOUS
10
2.1198
20
1.705
11
2.12057
21
1.71372
0
LINE
8
BLACK
6
CONTINUOUS
10
2.12057
20
1.71372
11
2.12283
21
1.72217
0
LINE
8
BLACK
6
CONTINUOUS
10
2.12283
20
1.72217
11
2.12653
21
1.7301
0
LINE
8
BLACK
6
CONTINUOUS
10
2.12653
20
1.7301
11
2.13155
21
1.73727
0
LINE
8
BLACK
6
CONTINUOUS
10
2.13155
20
1.73727
11
2.13773
21
1.74345
0
LINE
8
BLACK
6
CONTINUOUS
10
2.13773
20
1.74345
11
2.1449
21
1.74847
0
LINE
8
BLACK
6
CONTINUOUS
10
2.1449
20
1.74847
11
2.15283
21
1.75217
0
LINE
8
BLACK
6
CONTINUOUS
10
2.15283
20
1.75217
11
2.16128
21
1.75443
0
LINE
8
BLACK
6
CONTINUOUS
10
2.16128
20
1.75443
11
2.17
21
1.7552
0
LINE
8
BLACK
6
CONTINUOUS
10
2.17
20
1.7552
11
2.17872
21
1.75443
0
LINE
8
BLACK
6
CONTINUOUS
10
2.12232
20
1.69659
11
2.12451
21
1.68844
0
LINE
8
BLACK
6
CONTINUOUS
10
2.12451
20
1.68844
11
2.12807
21
1.68079
0
LINE
8
BLACK
6
CONTINUOUS
10
2.12807
20
1.68079
11
2.13291
21
1.67388
0
LINE
8
BLACK
6
CONTINUOUS
10
2.13291
20
1.67388
11
2.13888
21
1.66791
0
LINE
8
BLACK
6
CONTINUOUS
10
2.13888
20
1.66791
11
2.14579
21
1.66307
0
LINE
8
BLACK
6
CONTINUOUS
10
2.14579
20
1.66307
11
2.15344
21
1.65951
0
LINE
8
BLACK
6
CONTINUOUS
10
2.15344
20
1.65951
11
2.16159
21
1.65732
0
LINE
8
BLACK
6
CONTINUOUS
10
2.16159
20
1.65732
11
2.17
21
1.65659
0
LINE
8
BLACK
6
CONTINUOUS
10
2.17
20
1.65659
11
2.17841
21
1.65732
0
LINE
8
BLACK
6
CONTINUOUS
10
2.17841
20
1.65732
11
2.18656
21
1.65951
0
LINE
8
BLACK
6
CONTINUOUS
10
2.18656
20
1.65951
11
2.19421
21
1.66307
0
LINE
8
BLACK
6
CONTINUOUS
10
2.19421
20
1.66307
11
2.20112
21
1.66791
0
LINE
8
BLACK
6
CONTINUOUS
10
2.20112
20
1.66791
11
2.20709
21
1.67388
0
LINE
8
BLACK
6
CONTINUOUS
10
2.20709
20
1.67388
11
2.21193
21
1.68079
0
LINE
8
BLACK
6
CONTINUOUS
10
2.21193
20
1.68079
11
2.21549
21
1.68844
0
LINE
8
BLACK
6
CONTINUOUS
10
2.21549
20
1.68844
11
2.21768
21
1.69659
0
LINE
8
BLACK
6
CONTINUOUS
10
2.21768
20
1.69659
11
2.21841
21
1.705
0
LINE
8
BLACK
6
CONTINUOUS
10
2.21841
20
1.705
11
2.21768
21
1.71341
0
LINE
8
BLACK
6
CONTINUOUS
10
2.21768
20
1.71341
11
2.21549
21
1.72156
0
LINE
8
BLACK
6
CONTINUOUS
10
2.21549
20
1.72156
11
2.21193
21
1.72921
0
LINE
8
BLACK
6
CONTINUOUS
10
2.21193
20
1.72921
11
2.20709
21
1.73612
0
LINE
8
BLACK
6
CONTINUOUS
10
2.20709
20
1.73612
11
2.20112
21
1.74209
0
LINE
8
BLACK
6
CONTINUOUS
10
2.20112
20
1.74209
11
2.19421
21
1.74693
0
LINE
8
BLACK
6
CONTINUOUS
10
2.19421
20
1.74693
11
2.18656
21
1.75049
0
LINE
8
BLACK
6
CONTINUOUS
10
2.18656
20
1.75049
11
2.17841
21
1.75268
0
LINE
8
BLACK
6
CONTINUOUS
10
2.17841
20
1.75268
11
2.17
21
1.75341
0
LINE
8
BLACK
6
CONTINUOUS
10
2.17
20
1.75341
11
2.16159
21
1.75268
0
LINE
8
BLACK
6
CONTINUOUS
10
2.16159
20
1.75268
11
2.15344
21
1.75049
0
LINE
8
BLACK
6
CONTINUOUS
10
2.15344
20
1.75049
11
2.14579
21
1.74693
0
LINE
8
BLACK
6
CONTINUOUS
10
2.14579
20
1.74693
11
2.13888
21
1.74209
0
LINE
8
BLACK
6
CONTINUOUS
10
2.13888
20
1.74209
11
2.13291
21
1.73612
0
LINE
8
BLACK
6
CONTINUOUS
10
2.13291
20
1.73612
11
2.12807
21
1.72921
0
LINE
8
BLACK
6
CONTINUOUS
10
2.12807
20
1.72921
11
2.12451
21
1.72156
0
LINE
8
BLACK
6
CONTINUOUS
10
2.12451
20
1.72156
11
2.12232
21
1.71341
0
LINE
8
BLACK
6
CONTINUOUS
10
2.12232
20
1.71341
11
2.12159
21
1.705
0
LINE
8
BLACK
6
CONTINUOUS
10
2.12159
20
1.705
11
2.12232
21
1.69659
0
LINE
8
BLACK
6
CONTINUOUS
10
1.49055
20
1.7702
11
1.49125
21
1.76991
0
LINE
8
BLACK
6
CONTINUOUS
10
1.49125
20
1.76991
11
1.49154
21
1.76921
0
LINE
8
BLACK
6
CONTINUOUS
10
1.49154
20
1.76921
11
1.49154
21
1.67079
0
LINE
8
BLACK
6
CONTINUOUS
10
1.49154
20
1.67079
11
1.49125
21
1.67009
0
LINE
8
BLACK
6
CONTINUOUS
10
1.49125
20
1.67009
11
1.49055
21
1.6698
0
LINE
8
BLACK
6
CONTINUOUS
10
1.49055
20
1.6698
11
1.30945
21
1.6698
0
LINE
8
BLACK
6
CONTINUOUS
10
1.30945
20
1.6698
11
1.30875
21
1.67009
0
LINE
8
BLACK
6
CONTINUOUS
10
1.30875
20
1.67009
11
1.30846
21
1.67079
0
LINE
8
BLACK
6
CONTINUOUS
10
1.30846
20
1.67079
11
1.30846
21
1.76921
0
LINE
8
BLACK
6
CONTINUOUS
10
1.30846
20
1.76921
11
1.30875
21
1.76991
0
LINE
8
BLACK
6
CONTINUOUS
10
1.30875
20
1.76991
11
1.30945
21
1.7702
0
LINE
8
BLACK
6
CONTINUOUS
10
1.30945
20
1.7702
11
1.49055
21
1.7702
0
LINE
8
BLACK
6
CONTINUOUS
10
1.31043
20
1.76823
11
1.31043
21
1.67177
0
LINE
8
BLACK
6
CONTINUOUS
10
1.31043
20
1.67177
11
1.48957
21
1.67177
0
LINE
8
BLACK
6
CONTINUOUS
10
1.48957
20
1.67177
11
1.48957
21
1.76823
0
LINE
8
BLACK
6
CONTINUOUS
10
1.48957
20
1.76823
11
1.31043
21
1.76823
  0
ENDSEC
  0
EOF
