  0
SECTION
  2
HEADER
  9
$ANGBASE
  50
0.0
  9
$ANGDIR
  70
1
  9
$MEASUREMENT
  70
0
  0
ENDSEC
  0
SECTION
  2
TABLES
  0
TABLE
  2
LTYPE
  70
4
  0
LTYPE
  5
40F
  2
CONTINUOUS
  70
0
  3
Solid line
  72
65
  73
0
  40
0.0
  0
LTYPE
  5
410
  2
DASHDOT
 70
0
  3
Dash Dot ____ _ ____ _
 72
65
 73
4
 40
2.0
 49
1.25
 49
-0.25
 49
0.25
 49
-0.25
  0
LTYPE
  5
411
  2
DASHED
 70
0
  3
Dashed __ __ __ __ __
 72
65
 73
2
 40
0.75
 49
0.5
 49
-0.25
  0
LTYPE
  5
43B
  2
DOTTED
 70
0
  3
Dotted .  .  .  .
 72
65
 73
2
 40
0.2
 49
0.0
 49
-0.2
  0
ENDTAB
  0
TABLE
  2
STYLE
  70
4
  0
STYLE
  2
KICAD
  70
0
  40
0
  41
1
  42
1
  50
0
  71
0
  3
isocp.shx
  0
STYLE
  2
KICADB
  70
0
  40
0
  41
1
  42
1
  50
0
  71
0
  3
isocp.shx
  0
STYLE
  2
KICADI
  70
0
  40
0
  41
1
  42
1
  50
15
  71
0
  3
isocp.shx
  0
STYLE
  2
KICADBI
  70
0
  40
0
  41
1
  42
1
  50
15
  71
0
  3
isocp.shx
  0
ENDTAB
  0
TABLE
  2
LAYER
  70
1
  0
LAYER
  2
BLACK
  70
0
  62
7
  6
CONTINUOUS
  0
ENDTAB
  0
ENDSEC
  0
SECTION
  2
ENTITIES
0
LINE
8
BLACK
6
CONTINUOUS
10
0.0205096
20
0.116316
11
0.0338744
21
0.113148
0
LINE
8
BLACK
6
CONTINUOUS
10
0.0338744
20
0.113148
11
0.0467811
21
0.108451
0
LINE
8
BLACK
6
CONTINUOUS
10
0.0467811
20
0.108451
11
0.0590551
21
0.102286
0
LINE
8
BLACK
6
CONTINUOUS
10
0.0590551
20
0.102286
11
0.0705306
21
0.094739
0
LINE
8
BLACK
6
CONTINUOUS
10
0.0705306
20
0.094739
11
0.0810522
21
0.0859103
0
LINE
8
BLACK
6
CONTINUOUS
10
0.0810522
20
0.0859103
11
0.0904777
21
0.0759198
0
LINE
8
BLACK
6
CONTINUOUS
10
0.0904777
20
0.0759198
11
0.0986796
21
0.0649026
0
LINE
8
BLACK
6
CONTINUOUS
10
0.0986796
20
0.0649026
11
0.105547
21
0.0530078
0
LINE
8
BLACK
6
CONTINUOUS
10
0.105547
20
0.0530078
11
0.110987
21
0.0403961
0
LINE
8
BLACK
6
CONTINUOUS
10
0.110987
20
0.0403961
11
0.114927
21
0.0272381
0
LINE
8
BLACK
6
CONTINUOUS
10
0.114927
20
0.0272381
11
0.117312
21
0.0137118
0
LINE
8
BLACK
6
CONTINUOUS
10
0.117312
20
0.0137118
11
0.11811
21
0
0
LINE
8
BLACK
6
CONTINUOUS
10
0.11811
20
0
11
0.117312
21
-0.0137118
0
LINE
8
BLACK
6
CONTINUOUS
10
0.117312
20
-0.0137118
11
0.114927
21
-0.0272381
0
LINE
8
BLACK
6
CONTINUOUS
10
0.114927
20
-0.0272381
11
0.110987
21
-0.0403961
0
LINE
8
BLACK
6
CONTINUOUS
10
0.110987
20
-0.0403961
11
0.105547
21
-0.0530078
0
LINE
8
BLACK
6
CONTINUOUS
10
0.105547
20
-0.0530078
11
0.0986796
21
-0.0649026
0
LINE
8
BLACK
6
CONTINUOUS
10
0.0986796
20
-0.0649026
11
0.0904777
21
-0.0759198
0
LINE
8
BLACK
6
CONTINUOUS
10
0.0904777
20
-0.0759198
11
0.0810522
21
-0.0859103
0
LINE
8
BLACK
6
CONTINUOUS
10
0.0810522
20
-0.0859103
11
0.0705306
21
-0.094739
0
LINE
8
BLACK
6
CONTINUOUS
10
0.0705306
20
-0.094739
11
0.0590551
21
-0.102286
0
LINE
8
BLACK
6
CONTINUOUS
10
0.0590551
20
-0.102286
11
0.0467811
21
-0.108451
0
LINE
8
BLACK
6
CONTINUOUS
10
0.0467811
20
-0.108451
11
0.0338744
21
-0.113148
0
LINE
8
BLACK
6
CONTINUOUS
10
0.0338744
20
-0.113148
11
0.0205096
21
-0.116316
0
LINE
8
BLACK
6
CONTINUOUS
10
0.0205096
20
-0.116316
11
0.00686748
21
-0.11791
0
LINE
8
BLACK
6
CONTINUOUS
10
0.00686748
20
-0.11791
11
-0.00686748
21
-0.11791
0
LINE
8
BLACK
6
CONTINUOUS
10
-0.00686748
20
-0.11791
11
-0.0205096
21
-0.116316
0
LINE
8
BLACK
6
CONTINUOUS
10
-0.0205096
20
-0.116316
11
-0.0338744
21
-0.113148
0
LINE
8
BLACK
6
CONTINUOUS
10
-0.0338744
20
-0.113148
11
-0.0467811
21
-0.108451
0
LINE
8
BLACK
6
CONTINUOUS
10
-0.0467811
20
-0.108451
11
-0.0590551
21
-0.102286
0
LINE
8
BLACK
6
CONTINUOUS
10
-0.0590551
20
-0.102286
11
-0.0705306
21
-0.094739
0
LINE
8
BLACK
6
CONTINUOUS
10
-0.0705306
20
-0.094739
11
-0.0810522
21
-0.0859103
0
LINE
8
BLACK
6
CONTINUOUS
10
-0.0810522
20
-0.0859103
11
-0.0904777
21
-0.0759198
0
LINE
8
BLACK
6
CONTINUOUS
10
-0.0904777
20
-0.0759198
11
-0.0986796
21
-0.0649026
0
LINE
8
BLACK
6
CONTINUOUS
10
-0.0986796
20
-0.0649026
11
-0.105547
21
-0.0530078
0
LINE
8
BLACK
6
CONTINUOUS
10
-0.105547
20
-0.0530078
11
-0.110987
21
-0.0403961
0
LINE
8
BLACK
6
CONTINUOUS
10
-0.110987
20
-0.0403961
11
-0.114927
21
-0.0272381
0
LINE
8
BLACK
6
CONTINUOUS
10
-0.114927
20
-0.0272381
11
-0.117312
21
-0.0137118
0
LINE
8
BLACK
6
CONTINUOUS
10
-0.117312
20
-0.0137118
11
-0.11811
21
0
0
LINE
8
BLACK
6
CONTINUOUS
10
-0.11811
20
0
11
-0.117312
21
0.0137118
0
LINE
8
BLACK
6
CONTINUOUS
10
-0.117312
20
0.0137118
11
-0.114927
21
0.0272381
0
LINE
8
BLACK
6
CONTINUOUS
10
-0.114927
20
0.0272381
11
-0.110987
21
0.0403961
0
LINE
8
BLACK
6
CONTINUOUS
10
-0.110987
20
0.0403961
11
-0.105547
21
0.0530078
0
LINE
8
BLACK
6
CONTINUOUS
10
-0.105547
20
0.0530078
11
-0.0986796
21
0.0649026
0
LINE
8
BLACK
6
CONTINUOUS
10
-0.0986796
20
0.0649026
11
-0.0904777
21
0.0759198
0
LINE
8
BLACK
6
CONTINUOUS
10
-0.0904777
20
0.0759198
11
-0.0810522
21
0.0859103
0
LINE
8
BLACK
6
CONTINUOUS
10
-0.0810522
20
0.0859103
11
-0.0705306
21
0.094739
0
LINE
8
BLACK
6
CONTINUOUS
10
-0.0705306
20
0.094739
11
-0.0590551
21
0.102286
0
LINE
8
BLACK
6
CONTINUOUS
10
-0.0590551
20
0.102286
11
-0.0467811
21
0.108451
0
LINE
8
BLACK
6
CONTINUOUS
10
-0.0467811
20
0.108451
11
-0.0338744
21
0.113148
0
LINE
8
BLACK
6
CONTINUOUS
10
-0.0338744
20
0.113148
11
-0.0205096
21
0.116316
0
LINE
8
BLACK
6
CONTINUOUS
10
-0.0205096
20
0.116316
11
-0.00686748
21
0.11791
0
LINE
8
BLACK
6
CONTINUOUS
10
-0.00686748
20
0.11791
11
0.00686748
21
0.11791
0
LINE
8
BLACK
6
CONTINUOUS
10
0.00686748
20
0.11791
11
0.0205096
21
0.116316
0
LINE
8
BLACK
6
CONTINUOUS
10
1.22051
20
0.116316
11
1.23387
21
0.113148
0
LINE
8
BLACK
6
CONTINUOUS
10
1.23387
20
0.113148
11
1.24678
21
0.108451
0
LINE
8
BLACK
6
CONTINUOUS
10
1.24678
20
0.108451
11
1.25906
21
0.102286
0
LINE
8
BLACK
6
CONTINUOUS
10
1.25906
20
0.102286
11
1.27053
21
0.094739
0
LINE
8
BLACK
6
CONTINUOUS
10
1.27053
20
0.094739
11
1.28105
21
0.0859103
0
LINE
8
BLACK
6
CONTINUOUS
10
1.28105
20
0.0859103
11
1.29048
21
0.0759198
0
LINE
8
BLACK
6
CONTINUOUS
10
1.29048
20
0.0759198
11
1.29868
21
0.0649026
0
LINE
8
BLACK
6
CONTINUOUS
10
1.29868
20
0.0649026
11
1.30555
21
0.0530078
0
LINE
8
BLACK
6
CONTINUOUS
10
1.30555
20
0.0530078
11
1.31099
21
0.0403961
0
LINE
8
BLACK
6
CONTINUOUS
10
1.31099
20
0.0403961
11
1.31493
21
0.0272381
0
LINE
8
BLACK
6
CONTINUOUS
10
1.31493
20
0.0272381
11
1.31731
21
0.0137118
0
LINE
8
BLACK
6
CONTINUOUS
10
1.31731
20
0.0137118
11
1.31811
21
0
0
LINE
8
BLACK
6
CONTINUOUS
10
1.31811
20
0
11
1.31731
21
-0.0137118
0
LINE
8
BLACK
6
CONTINUOUS
10
1.31731
20
-0.0137118
11
1.31493
21
-0.0272381
0
LINE
8
BLACK
6
CONTINUOUS
10
1.31493
20
-0.0272381
11
1.31099
21
-0.0403961
0
LINE
8
BLACK
6
CONTINUOUS
10
1.31099
20
-0.0403961
11
1.30555
21
-0.0530078
0
LINE
8
BLACK
6
CONTINUOUS
10
1.30555
20
-0.0530078
11
1.29868
21
-0.0649026
0
LINE
8
BLACK
6
CONTINUOUS
10
1.29868
20
-0.0649026
11
1.29048
21
-0.0759198
0
LINE
8
BLACK
6
CONTINUOUS
10
1.29048
20
-0.0759198
11
1.28105
21
-0.0859103
0
LINE
8
BLACK
6
CONTINUOUS
10
1.28105
20
-0.0859103
11
1.27053
21
-0.094739
0
LINE
8
BLACK
6
CONTINUOUS
10
1.27053
20
-0.094739
11
1.25906
21
-0.102286
0
LINE
8
BLACK
6
CONTINUOUS
10
1.25906
20
-0.102286
11
1.24678
21
-0.108451
0
LINE
8
BLACK
6
CONTINUOUS
10
1.24678
20
-0.108451
11
1.23387
21
-0.113148
0
LINE
8
BLACK
6
CONTINUOUS
10
1.23387
20
-0.113148
11
1.22051
21
-0.116316
0
LINE
8
BLACK
6
CONTINUOUS
10
1.22051
20
-0.116316
11
1.20687
21
-0.11791
0
LINE
8
BLACK
6
CONTINUOUS
10
1.20687
20
-0.11791
11
1.19313
21
-0.11791
0
LINE
8
BLACK
6
CONTINUOUS
10
1.19313
20
-0.11791
11
1.17949
21
-0.116316
0
LINE
8
BLACK
6
CONTINUOUS
10
1.17949
20
-0.116316
11
1.16613
21
-0.113148
0
LINE
8
BLACK
6
CONTINUOUS
10
1.16613
20
-0.113148
11
1.15322
21
-0.108451
0
LINE
8
BLACK
6
CONTINUOUS
10
1.15322
20
-0.108451
11
1.14094
21
-0.102286
0
LINE
8
BLACK
6
CONTINUOUS
10
1.14094
20
-0.102286
11
1.12947
21
-0.094739
0
LINE
8
BLACK
6
CONTINUOUS
10
1.12947
20
-0.094739
11
1.11895
21
-0.0859103
0
LINE
8
BLACK
6
CONTINUOUS
10
1.11895
20
-0.0859103
11
1.10952
21
-0.0759198
0
LINE
8
BLACK
6
CONTINUOUS
10
1.10952
20
-0.0759198
11
1.10132
21
-0.0649026
0
LINE
8
BLACK
6
CONTINUOUS
10
1.10132
20
-0.0649026
11
1.09445
21
-0.0530078
0
LINE
8
BLACK
6
CONTINUOUS
10
1.09445
20
-0.0530078
11
1.08901
21
-0.0403961
0
LINE
8
BLACK
6
CONTINUOUS
10
1.08901
20
-0.0403961
11
1.08507
21
-0.0272381
0
LINE
8
BLACK
6
CONTINUOUS
10
1.08507
20
-0.0272381
11
1.08269
21
-0.0137118
0
LINE
8
BLACK
6
CONTINUOUS
10
1.08269
20
-0.0137118
11
1.08189
21
0
0
LINE
8
BLACK
6
CONTINUOUS
10
1.08189
20
0
11
1.08269
21
0.0137118
0
LINE
8
BLACK
6
CONTINUOUS
10
1.08269
20
0.0137118
11
1.08507
21
0.0272381
0
LINE
8
BLACK
6
CONTINUOUS
10
1.08507
20
0.0272381
11
1.08901
21
0.0403961
0
LINE
8
BLACK
6
CONTINUOUS
10
1.08901
20
0.0403961
11
1.09445
21
0.0530078
0
LINE
8
BLACK
6
CONTINUOUS
10
1.09445
20
0.0530078
11
1.10132
21
0.0649026
0
LINE
8
BLACK
6
CONTINUOUS
10
1.10132
20
0.0649026
11
1.10952
21
0.0759198
0
LINE
8
BLACK
6
CONTINUOUS
10
1.10952
20
0.0759198
11
1.11895
21
0.0859103
0
LINE
8
BLACK
6
CONTINUOUS
10
1.11895
20
0.0859103
11
1.12947
21
0.094739
0
LINE
8
BLACK
6
CONTINUOUS
10
1.12947
20
0.094739
11
1.14094
21
0.102286
0
LINE
8
BLACK
6
CONTINUOUS
10
1.14094
20
0.102286
11
1.15322
21
0.108451
0
LINE
8
BLACK
6
CONTINUOUS
10
1.15322
20
0.108451
11
1.16613
21
0.113148
0
LINE
8
BLACK
6
CONTINUOUS
10
1.16613
20
0.113148
11
1.17949
21
0.116316
0
LINE
8
BLACK
6
CONTINUOUS
10
1.17949
20
0.116316
11
1.19313
21
0.11791
0
LINE
8
BLACK
6
CONTINUOUS
10
1.19313
20
0.11791
11
1.20687
21
0.11791
0
LINE
8
BLACK
6
CONTINUOUS
10
1.20687
20
0.11791
11
1.22051
21
0.116316
0
LINE
8
BLACK
6
CONTINUOUS
10
1.18
20
0.47
11
1.12
21
0.47
0
LINE
8
BLACK
6
CONTINUOUS
10
1.12
20
0.47
11
1.12
21
0.53
0
LINE
8
BLACK
6
CONTINUOUS
10
1.12
20
0.53
11
1.18
21
0.53
0
LINE
8
BLACK
6
CONTINUOUS
10
1.18
20
0.53
11
1.18
21
0.47
0
LINE
8
BLACK
6
CONTINUOUS
10
1.28
20
0.47
11
1.22
21
0.47
0
LINE
8
BLACK
6
CONTINUOUS
10
1.22
20
0.47
11
1.22
21
0.53
0
LINE
8
BLACK
6
CONTINUOUS
10
1.22
20
0.53
11
1.28
21
0.53
0
LINE
8
BLACK
6
CONTINUOUS
10
1.28
20
0.53
11
1.28
21
0.47
0
LINE
8
BLACK
6
CONTINUOUS
10
1.18
20
0.57
11
1.12
21
0.57
0
LINE
8
BLACK
6
CONTINUOUS
10
1.12
20
0.57
11
1.12
21
0.63
0
LINE
8
BLACK
6
CONTINUOUS
10
1.12
20
0.63
11
1.18
21
0.63
0
LINE
8
BLACK
6
CONTINUOUS
10
1.18
20
0.63
11
1.18
21
0.57
0
LINE
8
BLACK
6
CONTINUOUS
10
1.28
20
0.57
11
1.22
21
0.57
0
LINE
8
BLACK
6
CONTINUOUS
10
1.22
20
0.57
11
1.22
21
0.63
0
LINE
8
BLACK
6
CONTINUOUS
10
1.22
20
0.63
11
1.28
21
0.63
0
LINE
8
BLACK
6
CONTINUOUS
10
1.28
20
0.63
11
1.28
21
0.57
0
LINE
8
BLACK
6
CONTINUOUS
10
1.18
20
0.67
11
1.12
21
0.67
0
LINE
8
BLACK
6
CONTINUOUS
10
1.12
20
0.67
11
1.12
21
0.73
0
LINE
8
BLACK
6
CONTINUOUS
10
1.12
20
0.73
11
1.18
21
0.73
0
LINE
8
BLACK
6
CONTINUOUS
10
1.18
20
0.73
11
1.18
21
0.67
0
LINE
8
BLACK
6
CONTINUOUS
10
1.28
20
0.67
11
1.22
21
0.67
0
LINE
8
BLACK
6
CONTINUOUS
10
1.22
20
0.67
11
1.22
21
0.73
0
LINE
8
BLACK
6
CONTINUOUS
10
1.22
20
0.73
11
1.28
21
0.73
0
LINE
8
BLACK
6
CONTINUOUS
10
1.28
20
0.73
11
1.28
21
0.67
0
LINE
8
BLACK
6
CONTINUOUS
10
0.0205096
20
1.31632
11
0.0338744
21
1.31315
0
LINE
8
BLACK
6
CONTINUOUS
10
0.0338744
20
1.31315
11
0.0467811
21
1.30845
0
LINE
8
BLACK
6
CONTINUOUS
10
0.0467811
20
1.30845
11
0.0590551
21
1.30229
0
LINE
8
BLACK
6
CONTINUOUS
10
0.0590551
20
1.30229
11
0.0705306
21
1.29474
0
LINE
8
BLACK
6
CONTINUOUS
10
0.0705306
20
1.29474
11
0.0810522
21
1.28591
0
LINE
8
BLACK
6
CONTINUOUS
10
0.0810522
20
1.28591
11
0.0904777
21
1.27592
0
LINE
8
BLACK
6
CONTINUOUS
10
0.0904777
20
1.27592
11
0.0986796
21
1.2649
0
LINE
8
BLACK
6
CONTINUOUS
10
0.0986796
20
1.2649
11
0.105547
21
1.25301
0
LINE
8
BLACK
6
CONTINUOUS
10
0.105547
20
1.25301
11
0.110987
21
1.2404
0
LINE
8
BLACK
6
CONTINUOUS
10
0.110987
20
1.2404
11
0.114927
21
1.22724
0
LINE
8
BLACK
6
CONTINUOUS
10
0.114927
20
1.22724
11
0.117312
21
1.21371
0
LINE
8
BLACK
6
CONTINUOUS
10
0.117312
20
1.21371
11
0.11811
21
1.2
0
LINE
8
BLACK
6
CONTINUOUS
10
0.11811
20
1.2
11
0.117312
21
1.18629
0
LINE
8
BLACK
6
CONTINUOUS
10
0.117312
20
1.18629
11
0.114927
21
1.17276
0
LINE
8
BLACK
6
CONTINUOUS
10
0.114927
20
1.17276
11
0.110987
21
1.1596
0
LINE
8
BLACK
6
CONTINUOUS
10
0.110987
20
1.1596
11
0.105547
21
1.14699
0
LINE
8
BLACK
6
CONTINUOUS
10
0.105547
20
1.14699
11
0.0986796
21
1.1351
0
LINE
8
BLACK
6
CONTINUOUS
10
0.0986796
20
1.1351
11
0.0904777
21
1.12408
0
LINE
8
BLACK
6
CONTINUOUS
10
0.0904777
20
1.12408
11
0.0810522
21
1.11409
0
LINE
8
BLACK
6
CONTINUOUS
10
0.0810522
20
1.11409
11
0.0705306
21
1.10526
0
LINE
8
BLACK
6
CONTINUOUS
10
0.0705306
20
1.10526
11
0.0590551
21
1.09771
0
LINE
8
BLACK
6
CONTINUOUS
10
0.0590551
20
1.09771
11
0.0467811
21
1.09155
0
LINE
8
BLACK
6
CONTINUOUS
10
0.0467811
20
1.09155
11
0.0338744
21
1.08685
0
LINE
8
BLACK
6
CONTINUOUS
10
0.0338744
20
1.08685
11
0.0205096
21
1.08368
0
LINE
8
BLACK
6
CONTINUOUS
10
0.0205096
20
1.08368
11
0.00686748
21
1.08209
0
LINE
8
BLACK
6
CONTINUOUS
10
0.00686748
20
1.08209
11
-0.00686748
21
1.08209
0
LINE
8
BLACK
6
CONTINUOUS
10
-0.00686748
20
1.08209
11
-0.0205096
21
1.08368
0
LINE
8
BLACK
6
CONTINUOUS
10
-0.0205096
20
1.08368
11
-0.0338744
21
1.08685
0
LINE
8
BLACK
6
CONTINUOUS
10
-0.0338744
20
1.08685
11
-0.0467811
21
1.09155
0
LINE
8
BLACK
6
CONTINUOUS
10
-0.0467811
20
1.09155
11
-0.0590551
21
1.09771
0
LINE
8
BLACK
6
CONTINUOUS
10
-0.0590551
20
1.09771
11
-0.0705306
21
1.10526
0
LINE
8
BLACK
6
CONTINUOUS
10
-0.0705306
20
1.10526
11
-0.0810522
21
1.11409
0
LINE
8
BLACK
6
CONTINUOUS
10
-0.0810522
20
1.11409
11
-0.0904777
21
1.12408
0
LINE
8
BLACK
6
CONTINUOUS
10
-0.0904777
20
1.12408
11
-0.0986796
21
1.1351
0
LINE
8
BLACK
6
CONTINUOUS
10
-0.0986796
20
1.1351
11
-0.105547
21
1.14699
0
LINE
8
BLACK
6
CONTINUOUS
10
-0.105547
20
1.14699
11
-0.110987
21
1.1596
0
LINE
8
BLACK
6
CONTINUOUS
10
-0.110987
20
1.1596
11
-0.114927
21
1.17276
0
LINE
8
BLACK
6
CONTINUOUS
10
-0.114927
20
1.17276
11
-0.117312
21
1.18629
0
LINE
8
BLACK
6
CONTINUOUS
10
-0.117312
20
1.18629
11
-0.11811
21
1.2
0
LINE
8
BLACK
6
CONTINUOUS
10
-0.11811
20
1.2
11
-0.117312
21
1.21371
0
LINE
8
BLACK
6
CONTINUOUS
10
-0.117312
20
1.21371
11
-0.114927
21
1.22724
0
LINE
8
BLACK
6
CONTINUOUS
10
-0.114927
20
1.22724
11
-0.110987
21
1.2404
0
LINE
8
BLACK
6
CONTINUOUS
10
-0.110987
20
1.2404
11
-0.105547
21
1.25301
0
LINE
8
BLACK
6
CONTINUOUS
10
-0.105547
20
1.25301
11
-0.0986796
21
1.2649
0
LINE
8
BLACK
6
CONTINUOUS
10
-0.0986796
20
1.2649
11
-0.0904777
21
1.27592
0
LINE
8
BLACK
6
CONTINUOUS
10
-0.0904777
20
1.27592
11
-0.0810522
21
1.28591
0
LINE
8
BLACK
6
CONTINUOUS
10
-0.0810522
20
1.28591
11
-0.0705306
21
1.29474
0
LINE
8
BLACK
6
CONTINUOUS
10
-0.0705306
20
1.29474
11
-0.0590551
21
1.30229
0
LINE
8
BLACK
6
CONTINUOUS
10
-0.0590551
20
1.30229
11
-0.0467811
21
1.30845
0
LINE
8
BLACK
6
CONTINUOUS
10
-0.0467811
20
1.30845
11
-0.0338744
21
1.31315
0
LINE
8
BLACK
6
CONTINUOUS
10
-0.0338744
20
1.31315
11
-0.0205096
21
1.31632
0
LINE
8
BLACK
6
CONTINUOUS
10
-0.0205096
20
1.31632
11
-0.00686748
21
1.31791
0
LINE
8
BLACK
6
CONTINUOUS
10
-0.00686748
20
1.31791
11
0.00686748
21
1.31791
0
LINE
8
BLACK
6
CONTINUOUS
10
0.00686748
20
1.31791
11
0.0205096
21
1.31632
0
LINE
8
BLACK
6
CONTINUOUS
10
1.22051
20
1.31632
11
1.23387
21
1.31315
0
LINE
8
BLACK
6
CONTINUOUS
10
1.23387
20
1.31315
11
1.24678
21
1.30845
0
LINE
8
BLACK
6
CONTINUOUS
10
1.24678
20
1.30845
11
1.25906
21
1.30229
0
LINE
8
BLACK
6
CONTINUOUS
10
1.25906
20
1.30229
11
1.27053
21
1.29474
0
LINE
8
BLACK
6
CONTINUOUS
10
1.27053
20
1.29474
11
1.28105
21
1.28591
0
LINE
8
BLACK
6
CONTINUOUS
10
1.28105
20
1.28591
11
1.29048
21
1.27592
0
LINE
8
BLACK
6
CONTINUOUS
10
1.29048
20
1.27592
11
1.29868
21
1.2649
0
LINE
8
BLACK
6
CONTINUOUS
10
1.29868
20
1.2649
11
1.30555
21
1.25301
0
LINE
8
BLACK
6
CONTINUOUS
10
1.30555
20
1.25301
11
1.31099
21
1.2404
0
LINE
8
BLACK
6
CONTINUOUS
10
1.31099
20
1.2404
11
1.31493
21
1.22724
0
LINE
8
BLACK
6
CONTINUOUS
10
1.31493
20
1.22724
11
1.31731
21
1.21371
0
LINE
8
BLACK
6
CONTINUOUS
10
1.31731
20
1.21371
11
1.31811
21
1.2
0
LINE
8
BLACK
6
CONTINUOUS
10
1.31811
20
1.2
11
1.31731
21
1.18629
0
LINE
8
BLACK
6
CONTINUOUS
10
1.31731
20
1.18629
11
1.31493
21
1.17276
0
LINE
8
BLACK
6
CONTINUOUS
10
1.31493
20
1.17276
11
1.31099
21
1.1596
0
LINE
8
BLACK
6
CONTINUOUS
10
1.31099
20
1.1596
11
1.30555
21
1.14699
0
LINE
8
BLACK
6
CONTINUOUS
10
1.30555
20
1.14699
11
1.29868
21
1.1351
0
LINE
8
BLACK
6
CONTINUOUS
10
1.29868
20
1.1351
11
1.29048
21
1.12408
0
LINE
8
BLACK
6
CONTINUOUS
10
1.29048
20
1.12408
11
1.28105
21
1.11409
0
LINE
8
BLACK
6
CONTINUOUS
10
1.28105
20
1.11409
11
1.27053
21
1.10526
0
LINE
8
BLACK
6
CONTINUOUS
10
1.27053
20
1.10526
11
1.25906
21
1.09771
0
LINE
8
BLACK
6
CONTINUOUS
10
1.25906
20
1.09771
11
1.24678
21
1.09155
0
LINE
8
BLACK
6
CONTINUOUS
10
1.24678
20
1.09155
11
1.23387
21
1.08685
0
LINE
8
BLACK
6
CONTINUOUS
10
1.23387
20
1.08685
11
1.22051
21
1.08368
0
LINE
8
BLACK
6
CONTINUOUS
10
1.22051
20
1.08368
11
1.20687
21
1.08209
0
LINE
8
BLACK
6
CONTINUOUS
10
1.20687
20
1.08209
11
1.19313
21
1.08209
0
LINE
8
BLACK
6
CONTINUOUS
10
1.19313
20
1.08209
11
1.17949
21
1.08368
0
LINE
8
BLACK
6
CONTINUOUS
10
1.17949
20
1.08368
11
1.16613
21
1.08685
0
LINE
8
BLACK
6
CONTINUOUS
10
1.16613
20
1.08685
11
1.15322
21
1.09155
0
LINE
8
BLACK
6
CONTINUOUS
10
1.15322
20
1.09155
11
1.14094
21
1.09771
0
LINE
8
BLACK
6
CONTINUOUS
10
1.14094
20
1.09771
11
1.12947
21
1.10526
0
LINE
8
BLACK
6
CONTINUOUS
10
1.12947
20
1.10526
11
1.11895
21
1.11409
0
LINE
8
BLACK
6
CONTINUOUS
10
1.11895
20
1.11409
11
1.10952
21
1.12408
0
LINE
8
BLACK
6
CONTINUOUS
10
1.10952
20
1.12408
11
1.10132
21
1.1351
0
LINE
8
BLACK
6
CONTINUOUS
10
1.10132
20
1.1351
11
1.09445
21
1.14699
0
LINE
8
BLACK
6
CONTINUOUS
10
1.09445
20
1.14699
11
1.08901
21
1.1596
0
LINE
8
BLACK
6
CONTINUOUS
10
1.08901
20
1.1596
11
1.08507
21
1.17276
0
LINE
8
BLACK
6
CONTINUOUS
10
1.08507
20
1.17276
11
1.08269
21
1.18629
0
LINE
8
BLACK
6
CONTINUOUS
10
1.08269
20
1.18629
11
1.08189
21
1.2
0
LINE
8
BLACK
6
CONTINUOUS
10
1.08189
20
1.2
11
1.08269
21
1.21371
0
LINE
8
BLACK
6
CONTINUOUS
10
1.08269
20
1.21371
11
1.08507
21
1.22724
0
LINE
8
BLACK
6
CONTINUOUS
10
1.08507
20
1.22724
11
1.08901
21
1.2404
0
LINE
8
BLACK
6
CONTINUOUS
10
1.08901
20
1.2404
11
1.09445
21
1.25301
0
LINE
8
BLACK
6
CONTINUOUS
10
1.09445
20
1.25301
11
1.10132
21
1.2649
0
LINE
8
BLACK
6
CONTINUOUS
10
1.10132
20
1.2649
11
1.10952
21
1.27592
0
LINE
8
BLACK
6
CONTINUOUS
10
1.10952
20
1.27592
11
1.11895
21
1.28591
0
LINE
8
BLACK
6
CONTINUOUS
10
1.11895
20
1.28591
11
1.12947
21
1.29474
0
LINE
8
BLACK
6
CONTINUOUS
10
1.12947
20
1.29474
11
1.14094
21
1.30229
0
LINE
8
BLACK
6
CONTINUOUS
10
1.14094
20
1.30229
11
1.15322
21
1.30845
0
LINE
8
BLACK
6
CONTINUOUS
10
1.15322
20
1.30845
11
1.16613
21
1.31315
0
LINE
8
BLACK
6
CONTINUOUS
10
1.16613
20
1.31315
11
1.17949
21
1.31632
0
LINE
8
BLACK
6
CONTINUOUS
10
1.17949
20
1.31632
11
1.19313
21
1.31791
0
LINE
8
BLACK
6
CONTINUOUS
10
1.19313
20
1.31791
11
1.20687
21
1.31791
0
LINE
8
BLACK
6
CONTINUOUS
10
1.20687
20
1.31791
11
1.22051
21
1.31632
  0
ENDSEC
  0
EOF
