  0
SECTION
  2
HEADER
  9
$ANGBASE
  50
0.0
  9
$ANGDIR
  70
1
  9
$MEASUREMENT
  70
0
  0
ENDSEC
  0
SECTION
  2
TABLES
  0
TABLE
  2
LTYPE
  70
4
  0
LTYPE
  5
40F
  2
CONTINUOUS
  70
0
  3
Solid line
  72
65
  73
0
  40
0.0
  0
LTYPE
  5
410
  2
DASHDOT
 70
0
  3
Dash Dot ____ _ ____ _
 72
65
 73
4
 40
2.0
 49
1.25
 49
-0.25
 49
0.25
 49
-0.25
  0
LTYPE
  5
411
  2
DASHED
 70
0
  3
Dashed __ __ __ __ __
 72
65
 73
2
 40
0.75
 49
0.5
 49
-0.25
  0
LTYPE
  5
43B
  2
DOTTED
 70
0
  3
Dotted .  .  .  .
 72
65
 73
2
 40
0.2
 49
0.0
 49
-0.2
  0
ENDTAB
  0
TABLE
  2
STYLE
  70
4
  0
STYLE
  2
KICAD
  70
0
  40
0
  41
1
  42
1
  50
0
  71
0
  3
isocp.shx
  0
STYLE
  2
KICADB
  70
0
  40
0
  41
1
  42
1
  50
0
  71
0
  3
isocp.shx
  0
STYLE
  2
KICADI
  70
0
  40
0
  41
1
  42
1
  50
15
  71
0
  3
isocp.shx
  0
STYLE
  2
KICADBI
  70
0
  40
0
  41
1
  42
1
  50
15
  71
0
  3
isocp.shx
  0
ENDTAB
  0
TABLE
  2
LAYER
  70
1
  0
LAYER
  2
BLACK
  70
0
  62
7
  6
CONTINUOUS
  0
ENDTAB
  0
ENDSEC
  0
SECTION
  2
ENTITIES
0
LINE
8
BLACK
6
CONTINUOUS
10
0.42051
20
0.516316
11
0.433874
21
0.513148
0
LINE
8
BLACK
6
CONTINUOUS
10
0.433874
20
0.513148
11
0.446781
21
0.508451
0
LINE
8
BLACK
6
CONTINUOUS
10
0.446781
20
0.508451
11
0.459055
21
0.502286
0
LINE
8
BLACK
6
CONTINUOUS
10
0.459055
20
0.502286
11
0.470531
21
0.494739
0
LINE
8
BLACK
6
CONTINUOUS
10
0.470531
20
0.494739
11
0.481052
21
0.48591
0
LINE
8
BLACK
6
CONTINUOUS
10
0.481052
20
0.48591
11
0.490478
21
0.47592
0
LINE
8
BLACK
6
CONTINUOUS
10
0.490478
20
0.47592
11
0.49868
21
0.464903
0
LINE
8
BLACK
6
CONTINUOUS
10
0.49868
20
0.464903
11
0.505547
21
0.453008
0
LINE
8
BLACK
6
CONTINUOUS
10
0.505547
20
0.453008
11
0.510987
21
0.440396
0
LINE
8
BLACK
6
CONTINUOUS
10
0.510987
20
0.440396
11
0.514927
21
0.427238
0
LINE
8
BLACK
6
CONTINUOUS
10
0.514927
20
0.427238
11
0.517312
21
0.413712
0
LINE
8
BLACK
6
CONTINUOUS
10
0.517312
20
0.413712
11
0.51811
21
0.4
0
LINE
8
BLACK
6
CONTINUOUS
10
0.51811
20
0.4
11
0.517312
21
0.386288
0
LINE
8
BLACK
6
CONTINUOUS
10
0.517312
20
0.386288
11
0.514927
21
0.372762
0
LINE
8
BLACK
6
CONTINUOUS
10
0.514927
20
0.372762
11
0.510987
21
0.359604
0
LINE
8
BLACK
6
CONTINUOUS
10
0.510987
20
0.359604
11
0.505547
21
0.346992
0
LINE
8
BLACK
6
CONTINUOUS
10
0.505547
20
0.346992
11
0.49868
21
0.335097
0
LINE
8
BLACK
6
CONTINUOUS
10
0.49868
20
0.335097
11
0.490478
21
0.32408
0
LINE
8
BLACK
6
CONTINUOUS
10
0.490478
20
0.32408
11
0.481052
21
0.31409
0
LINE
8
BLACK
6
CONTINUOUS
10
0.481052
20
0.31409
11
0.470531
21
0.305261
0
LINE
8
BLACK
6
CONTINUOUS
10
0.470531
20
0.305261
11
0.459055
21
0.297714
0
LINE
8
BLACK
6
CONTINUOUS
10
0.459055
20
0.297714
11
0.446781
21
0.291549
0
LINE
8
BLACK
6
CONTINUOUS
10
0.446781
20
0.291549
11
0.433874
21
0.286852
0
LINE
8
BLACK
6
CONTINUOUS
10
0.433874
20
0.286852
11
0.42051
21
0.283684
0
LINE
8
BLACK
6
CONTINUOUS
10
0.42051
20
0.283684
11
0.406867
21
0.28209
0
LINE
8
BLACK
6
CONTINUOUS
10
0.406867
20
0.28209
11
0.393133
21
0.28209
0
LINE
8
BLACK
6
CONTINUOUS
10
0.393133
20
0.28209
11
0.37949
21
0.283684
0
LINE
8
BLACK
6
CONTINUOUS
10
0.37949
20
0.283684
11
0.366126
21
0.286852
0
LINE
8
BLACK
6
CONTINUOUS
10
0.366126
20
0.286852
11
0.353219
21
0.291549
0
LINE
8
BLACK
6
CONTINUOUS
10
0.353219
20
0.291549
11
0.340945
21
0.297714
0
LINE
8
BLACK
6
CONTINUOUS
10
0.340945
20
0.297714
11
0.329469
21
0.305261
0
LINE
8
BLACK
6
CONTINUOUS
10
0.329469
20
0.305261
11
0.318948
21
0.31409
0
LINE
8
BLACK
6
CONTINUOUS
10
0.318948
20
0.31409
11
0.309522
21
0.32408
0
LINE
8
BLACK
6
CONTINUOUS
10
0.309522
20
0.32408
11
0.30132
21
0.335097
0
LINE
8
BLACK
6
CONTINUOUS
10
0.30132
20
0.335097
11
0.294453
21
0.346992
0
LINE
8
BLACK
6
CONTINUOUS
10
0.294453
20
0.346992
11
0.289013
21
0.359604
0
LINE
8
BLACK
6
CONTINUOUS
10
0.289013
20
0.359604
11
0.285073
21
0.372762
0
LINE
8
BLACK
6
CONTINUOUS
10
0.285073
20
0.372762
11
0.282688
21
0.386288
0
LINE
8
BLACK
6
CONTINUOUS
10
0.282688
20
0.386288
11
0.28189
21
0.4
0
LINE
8
BLACK
6
CONTINUOUS
10
0.28189
20
0.4
11
0.282688
21
0.413712
0
LINE
8
BLACK
6
CONTINUOUS
10
0.282688
20
0.413712
11
0.285073
21
0.427238
0
LINE
8
BLACK
6
CONTINUOUS
10
0.285073
20
0.427238
11
0.289013
21
0.440396
0
LINE
8
BLACK
6
CONTINUOUS
10
0.289013
20
0.440396
11
0.294453
21
0.453008
0
LINE
8
BLACK
6
CONTINUOUS
10
0.294453
20
0.453008
11
0.30132
21
0.464903
0
LINE
8
BLACK
6
CONTINUOUS
10
0.30132
20
0.464903
11
0.309522
21
0.47592
0
LINE
8
BLACK
6
CONTINUOUS
10
0.309522
20
0.47592
11
0.318948
21
0.48591
0
LINE
8
BLACK
6
CONTINUOUS
10
0.318948
20
0.48591
11
0.329469
21
0.494739
0
LINE
8
BLACK
6
CONTINUOUS
10
0.329469
20
0.494739
11
0.340945
21
0.502286
0
LINE
8
BLACK
6
CONTINUOUS
10
0.340945
20
0.502286
11
0.353219
21
0.508451
0
LINE
8
BLACK
6
CONTINUOUS
10
0.353219
20
0.508451
11
0.366126
21
0.513148
0
LINE
8
BLACK
6
CONTINUOUS
10
0.366126
20
0.513148
11
0.37949
21
0.516316
0
LINE
8
BLACK
6
CONTINUOUS
10
0.37949
20
0.516316
11
0.393133
21
0.51791
0
LINE
8
BLACK
6
CONTINUOUS
10
0.393133
20
0.51791
11
0.406867
21
0.51791
0
LINE
8
BLACK
6
CONTINUOUS
10
0.406867
20
0.51791
11
0.42051
21
0.516316
0
LINE
8
BLACK
6
CONTINUOUS
10
2.42051
20
0.516316
11
2.43387
21
0.513148
0
LINE
8
BLACK
6
CONTINUOUS
10
2.43387
20
0.513148
11
2.44678
21
0.508451
0
LINE
8
BLACK
6
CONTINUOUS
10
2.44678
20
0.508451
11
2.45906
21
0.502286
0
LINE
8
BLACK
6
CONTINUOUS
10
2.45906
20
0.502286
11
2.47053
21
0.494739
0
LINE
8
BLACK
6
CONTINUOUS
10
2.47053
20
0.494739
11
2.48105
21
0.48591
0
LINE
8
BLACK
6
CONTINUOUS
10
2.48105
20
0.48591
11
2.49048
21
0.47592
0
LINE
8
BLACK
6
CONTINUOUS
10
2.49048
20
0.47592
11
2.49868
21
0.464903
0
LINE
8
BLACK
6
CONTINUOUS
10
2.49868
20
0.464903
11
2.50555
21
0.453008
0
LINE
8
BLACK
6
CONTINUOUS
10
2.50555
20
0.453008
11
2.51099
21
0.440396
0
LINE
8
BLACK
6
CONTINUOUS
10
2.51099
20
0.440396
11
2.51493
21
0.427238
0
LINE
8
BLACK
6
CONTINUOUS
10
2.51493
20
0.427238
11
2.51731
21
0.413712
0
LINE
8
BLACK
6
CONTINUOUS
10
2.51731
20
0.413712
11
2.51811
21
0.4
0
LINE
8
BLACK
6
CONTINUOUS
10
2.51811
20
0.4
11
2.51731
21
0.386288
0
LINE
8
BLACK
6
CONTINUOUS
10
2.51731
20
0.386288
11
2.51493
21
0.372762
0
LINE
8
BLACK
6
CONTINUOUS
10
2.51493
20
0.372762
11
2.51099
21
0.359604
0
LINE
8
BLACK
6
CONTINUOUS
10
2.51099
20
0.359604
11
2.50555
21
0.346992
0
LINE
8
BLACK
6
CONTINUOUS
10
2.50555
20
0.346992
11
2.49868
21
0.335097
0
LINE
8
BLACK
6
CONTINUOUS
10
2.49868
20
0.335097
11
2.49048
21
0.32408
0
LINE
8
BLACK
6
CONTINUOUS
10
2.49048
20
0.32408
11
2.48105
21
0.31409
0
LINE
8
BLACK
6
CONTINUOUS
10
2.48105
20
0.31409
11
2.47053
21
0.305261
0
LINE
8
BLACK
6
CONTINUOUS
10
2.47053
20
0.305261
11
2.45906
21
0.297714
0
LINE
8
BLACK
6
CONTINUOUS
10
2.45906
20
0.297714
11
2.44678
21
0.291549
0
LINE
8
BLACK
6
CONTINUOUS
10
2.44678
20
0.291549
11
2.43387
21
0.286852
0
LINE
8
BLACK
6
CONTINUOUS
10
2.43387
20
0.286852
11
2.42051
21
0.283684
0
LINE
8
BLACK
6
CONTINUOUS
10
2.42051
20
0.283684
11
2.40687
21
0.28209
0
LINE
8
BLACK
6
CONTINUOUS
10
2.40687
20
0.28209
11
2.39313
21
0.28209
0
LINE
8
BLACK
6
CONTINUOUS
10
2.39313
20
0.28209
11
2.37949
21
0.283684
0
LINE
8
BLACK
6
CONTINUOUS
10
2.37949
20
0.283684
11
2.36613
21
0.286852
0
LINE
8
BLACK
6
CONTINUOUS
10
2.36613
20
0.286852
11
2.35322
21
0.291549
0
LINE
8
BLACK
6
CONTINUOUS
10
2.35322
20
0.291549
11
2.34094
21
0.297714
0
LINE
8
BLACK
6
CONTINUOUS
10
2.34094
20
0.297714
11
2.32947
21
0.305261
0
LINE
8
BLACK
6
CONTINUOUS
10
2.32947
20
0.305261
11
2.31895
21
0.31409
0
LINE
8
BLACK
6
CONTINUOUS
10
2.31895
20
0.31409
11
2.30952
21
0.32408
0
LINE
8
BLACK
6
CONTINUOUS
10
2.30952
20
0.32408
11
2.30132
21
0.335097
0
LINE
8
BLACK
6
CONTINUOUS
10
2.30132
20
0.335097
11
2.29445
21
0.346992
0
LINE
8
BLACK
6
CONTINUOUS
10
2.29445
20
0.346992
11
2.28901
21
0.359604
0
LINE
8
BLACK
6
CONTINUOUS
10
2.28901
20
0.359604
11
2.28507
21
0.372762
0
LINE
8
BLACK
6
CONTINUOUS
10
2.28507
20
0.372762
11
2.28269
21
0.386288
0
LINE
8
BLACK
6
CONTINUOUS
10
2.28269
20
0.386288
11
2.28189
21
0.4
0
LINE
8
BLACK
6
CONTINUOUS
10
2.28189
20
0.4
11
2.28269
21
0.413712
0
LINE
8
BLACK
6
CONTINUOUS
10
2.28269
20
0.413712
11
2.28507
21
0.427238
0
LINE
8
BLACK
6
CONTINUOUS
10
2.28507
20
0.427238
11
2.28901
21
0.440396
0
LINE
8
BLACK
6
CONTINUOUS
10
2.28901
20
0.440396
11
2.29445
21
0.453008
0
LINE
8
BLACK
6
CONTINUOUS
10
2.29445
20
0.453008
11
2.30132
21
0.464903
0
LINE
8
BLACK
6
CONTINUOUS
10
2.30132
20
0.464903
11
2.30952
21
0.47592
0
LINE
8
BLACK
6
CONTINUOUS
10
2.30952
20
0.47592
11
2.31895
21
0.48591
0
LINE
8
BLACK
6
CONTINUOUS
10
2.31895
20
0.48591
11
2.32947
21
0.494739
0
LINE
8
BLACK
6
CONTINUOUS
10
2.32947
20
0.494739
11
2.34094
21
0.502286
0
LINE
8
BLACK
6
CONTINUOUS
10
2.34094
20
0.502286
11
2.35322
21
0.508451
0
LINE
8
BLACK
6
CONTINUOUS
10
2.35322
20
0.508451
11
2.36613
21
0.513148
0
LINE
8
BLACK
6
CONTINUOUS
10
2.36613
20
0.513148
11
2.37949
21
0.516316
0
LINE
8
BLACK
6
CONTINUOUS
10
2.37949
20
0.516316
11
2.39313
21
0.51791
0
LINE
8
BLACK
6
CONTINUOUS
10
2.39313
20
0.51791
11
2.40687
21
0.51791
0
LINE
8
BLACK
6
CONTINUOUS
10
2.40687
20
0.51791
11
2.42051
21
0.516316
0
LINE
8
BLACK
6
CONTINUOUS
10
1.30825
20
0.596177
11
1.31459
21
0.593958
0
LINE
8
BLACK
6
CONTINUOUS
10
1.31459
20
0.593958
11
1.32028
21
0.590384
0
LINE
8
BLACK
6
CONTINUOUS
10
1.32028
20
0.590384
11
1.32503
21
0.585634
0
LINE
8
BLACK
6
CONTINUOUS
10
1.32503
20
0.585634
11
1.3286
21
0.579946
0
LINE
8
BLACK
6
CONTINUOUS
10
1.3286
20
0.579946
11
1.33082
21
0.573605
0
LINE
8
BLACK
6
CONTINUOUS
10
1.33082
20
0.573605
11
1.33157
21
0.566929
0
LINE
8
BLACK
6
CONTINUOUS
10
1.33157
20
0.566929
11
1.33082
21
0.560254
0
LINE
8
BLACK
6
CONTINUOUS
10
1.33082
20
0.560254
11
1.3286
21
0.553913
0
LINE
8
BLACK
6
CONTINUOUS
10
1.3286
20
0.553913
11
1.32503
21
0.548224
0
LINE
8
BLACK
6
CONTINUOUS
10
1.32503
20
0.548224
11
1.32028
21
0.543474
0
LINE
8
BLACK
6
CONTINUOUS
10
1.32028
20
0.543474
11
1.31459
21
0.5399
0
LINE
8
BLACK
6
CONTINUOUS
10
1.31459
20
0.5399
11
1.30825
21
0.537681
0
LINE
8
BLACK
6
CONTINUOUS
10
1.30825
20
0.537681
11
1.30157
21
0.536929
0
LINE
8
BLACK
6
CONTINUOUS
10
1.30157
20
0.536929
11
1.2949
21
0.537681
0
LINE
8
BLACK
6
CONTINUOUS
10
1.2949
20
0.537681
11
1.28856
21
0.5399
0
LINE
8
BLACK
6
CONTINUOUS
10
1.28856
20
0.5399
11
1.28287
21
0.543474
0
LINE
8
BLACK
6
CONTINUOUS
10
1.28287
20
0.543474
11
1.27812
21
0.548224
0
LINE
8
BLACK
6
CONTINUOUS
10
1.27812
20
0.548224
11
1.27455
21
0.553913
0
LINE
8
BLACK
6
CONTINUOUS
10
1.27455
20
0.553913
11
1.27233
21
0.560254
0
LINE
8
BLACK
6
CONTINUOUS
10
1.27233
20
0.560254
11
1.27157
21
0.566929
0
LINE
8
BLACK
6
CONTINUOUS
10
1.27157
20
0.566929
11
1.27233
21
0.573605
0
LINE
8
BLACK
6
CONTINUOUS
10
1.27233
20
0.573605
11
1.27455
21
0.579946
0
LINE
8
BLACK
6
CONTINUOUS
10
1.27455
20
0.579946
11
1.27812
21
0.585634
0
LINE
8
BLACK
6
CONTINUOUS
10
1.27812
20
0.585634
11
1.28287
21
0.590384
0
LINE
8
BLACK
6
CONTINUOUS
10
1.28287
20
0.590384
11
1.28856
21
0.593958
0
LINE
8
BLACK
6
CONTINUOUS
10
1.28856
20
0.593958
11
1.2949
21
0.596177
0
LINE
8
BLACK
6
CONTINUOUS
10
1.2949
20
0.596177
11
1.30157
21
0.596929
0
LINE
8
BLACK
6
CONTINUOUS
10
1.30157
20
0.596929
11
1.30825
21
0.596177
0
LINE
8
BLACK
6
CONTINUOUS
10
1.5051
20
0.596177
11
1.51144
21
0.593958
0
LINE
8
BLACK
6
CONTINUOUS
10
1.51144
20
0.593958
11
1.51713
21
0.590384
0
LINE
8
BLACK
6
CONTINUOUS
10
1.51713
20
0.590384
11
1.52188
21
0.585634
0
LINE
8
BLACK
6
CONTINUOUS
10
1.52188
20
0.585634
11
1.52545
21
0.579946
0
LINE
8
BLACK
6
CONTINUOUS
10
1.52545
20
0.579946
11
1.52767
21
0.573605
0
LINE
8
BLACK
6
CONTINUOUS
10
1.52767
20
0.573605
11
1.52843
21
0.566929
0
LINE
8
BLACK
6
CONTINUOUS
10
1.52843
20
0.566929
11
1.52767
21
0.560254
0
LINE
8
BLACK
6
CONTINUOUS
10
1.52767
20
0.560254
11
1.52545
21
0.553913
0
LINE
8
BLACK
6
CONTINUOUS
10
1.52545
20
0.553913
11
1.52188
21
0.548224
0
LINE
8
BLACK
6
CONTINUOUS
10
1.52188
20
0.548224
11
1.51713
21
0.543474
0
LINE
8
BLACK
6
CONTINUOUS
10
1.51713
20
0.543474
11
1.51144
21
0.5399
0
LINE
8
BLACK
6
CONTINUOUS
10
1.51144
20
0.5399
11
1.5051
21
0.537681
0
LINE
8
BLACK
6
CONTINUOUS
10
1.5051
20
0.537681
11
1.49843
21
0.536929
0
LINE
8
BLACK
6
CONTINUOUS
10
1.49843
20
0.536929
11
1.49175
21
0.537681
0
LINE
8
BLACK
6
CONTINUOUS
10
1.49175
20
0.537681
11
1.48541
21
0.5399
0
LINE
8
BLACK
6
CONTINUOUS
10
1.48541
20
0.5399
11
1.47972
21
0.543474
0
LINE
8
BLACK
6
CONTINUOUS
10
1.47972
20
0.543474
11
1.47497
21
0.548224
0
LINE
8
BLACK
6
CONTINUOUS
10
1.47497
20
0.548224
11
1.4714
21
0.553913
0
LINE
8
BLACK
6
CONTINUOUS
10
1.4714
20
0.553913
11
1.46918
21
0.560254
0
LINE
8
BLACK
6
CONTINUOUS
10
1.46918
20
0.560254
11
1.46843
21
0.566929
0
LINE
8
BLACK
6
CONTINUOUS
10
1.46843
20
0.566929
11
1.46918
21
0.573605
0
LINE
8
BLACK
6
CONTINUOUS
10
1.46918
20
0.573605
11
1.4714
21
0.579946
0
LINE
8
BLACK
6
CONTINUOUS
10
1.4714
20
0.579946
11
1.47497
21
0.585634
0
LINE
8
BLACK
6
CONTINUOUS
10
1.47497
20
0.585634
11
1.47972
21
0.590384
0
LINE
8
BLACK
6
CONTINUOUS
10
1.47972
20
0.590384
11
1.48541
21
0.593958
0
LINE
8
BLACK
6
CONTINUOUS
10
1.48541
20
0.593958
11
1.49175
21
0.596177
0
LINE
8
BLACK
6
CONTINUOUS
10
1.49175
20
0.596177
11
1.49843
21
0.596929
0
LINE
8
BLACK
6
CONTINUOUS
10
1.49843
20
0.596929
11
1.5051
21
0.596177
0
LINE
8
BLACK
6
CONTINUOUS
10
0.335
20
0.61
11
0.275
21
0.61
0
LINE
8
BLACK
6
CONTINUOUS
10
0.275
20
0.61
11
0.275
21
0.67
0
LINE
8
BLACK
6
CONTINUOUS
10
0.275
20
0.67
11
0.335
21
0.67
0
LINE
8
BLACK
6
CONTINUOUS
10
0.335
20
0.67
11
0.335
21
0.61
0
LINE
8
BLACK
6
CONTINUOUS
10
0.435
20
0.61
11
0.375
21
0.61
0
LINE
8
BLACK
6
CONTINUOUS
10
0.375
20
0.61
11
0.375
21
0.67
0
LINE
8
BLACK
6
CONTINUOUS
10
0.375
20
0.67
11
0.435
21
0.67
0
LINE
8
BLACK
6
CONTINUOUS
10
0.435
20
0.67
11
0.435
21
0.61
0
LINE
8
BLACK
6
CONTINUOUS
10
2.24712
20
0.737601
11
2.25474
21
0.734648
0
LINE
8
BLACK
6
CONTINUOUS
10
2.25474
20
0.734648
11
2.26169
21
0.730345
0
LINE
8
BLACK
6
CONTINUOUS
10
2.26169
20
0.730345
11
2.26773
21
0.724839
0
LINE
8
BLACK
6
CONTINUOUS
10
2.26773
20
0.724839
11
2.27266
21
0.718316
0
LINE
8
BLACK
6
CONTINUOUS
10
2.27266
20
0.718316
11
2.2763
21
0.711
0
LINE
8
BLACK
6
CONTINUOUS
10
2.2763
20
0.711
11
2.27854
21
0.703139
0
LINE
8
BLACK
6
CONTINUOUS
10
2.27854
20
0.703139
11
2.27929
21
0.695
0
LINE
8
BLACK
6
CONTINUOUS
10
2.27929
20
0.695
11
2.27854
21
0.686861
0
LINE
8
BLACK
6
CONTINUOUS
10
2.27854
20
0.686861
11
2.2763
21
0.679
0
LINE
8
BLACK
6
CONTINUOUS
10
2.2763
20
0.679
11
2.27266
21
0.671684
0
LINE
8
BLACK
6
CONTINUOUS
10
2.27266
20
0.671684
11
2.26773
21
0.665161
0
LINE
8
BLACK
6
CONTINUOUS
10
2.26773
20
0.665161
11
2.26169
21
0.659655
0
LINE
8
BLACK
6
CONTINUOUS
10
2.26169
20
0.659655
11
2.25474
21
0.655352
0
LINE
8
BLACK
6
CONTINUOUS
10
2.25474
20
0.655352
11
2.24712
21
0.652399
0
LINE
8
BLACK
6
CONTINUOUS
10
2.24712
20
0.652399
11
2.23909
21
0.650898
0
LINE
8
BLACK
6
CONTINUOUS
10
2.23909
20
0.650898
11
2.23091
21
0.650898
0
LINE
8
BLACK
6
CONTINUOUS
10
2.23091
20
0.650898
11
2.22288
21
0.652399
0
LINE
8
BLACK
6
CONTINUOUS
10
2.22288
20
0.652399
11
2.21526
21
0.655352
0
LINE
8
BLACK
6
CONTINUOUS
10
2.21526
20
0.655352
11
2.20831
21
0.659655
0
LINE
8
BLACK
6
CONTINUOUS
10
2.20831
20
0.659655
11
2.20227
21
0.665161
0
LINE
8
BLACK
6
CONTINUOUS
10
2.20227
20
0.665161
11
2.19734
21
0.671684
0
LINE
8
BLACK
6
CONTINUOUS
10
2.19734
20
0.671684
11
2.1937
21
0.679
0
LINE
8
BLACK
6
CONTINUOUS
10
2.1937
20
0.679
11
2.19146
21
0.686861
0
LINE
8
BLACK
6
CONTINUOUS
10
2.19146
20
0.686861
11
2.19071
21
0.695
0
LINE
8
BLACK
6
CONTINUOUS
10
2.19071
20
0.695
11
2.19146
21
0.703139
0
LINE
8
BLACK
6
CONTINUOUS
10
2.19146
20
0.703139
11
2.1937
21
0.711
0
LINE
8
BLACK
6
CONTINUOUS
10
2.1937
20
0.711
11
2.19734
21
0.718316
0
LINE
8
BLACK
6
CONTINUOUS
10
2.19734
20
0.718316
11
2.20227
21
0.724839
0
LINE
8
BLACK
6
CONTINUOUS
10
2.20227
20
0.724839
11
2.20831
21
0.730345
0
LINE
8
BLACK
6
CONTINUOUS
10
2.20831
20
0.730345
11
2.21526
21
0.734648
0
LINE
8
BLACK
6
CONTINUOUS
10
2.21526
20
0.734648
11
2.22288
21
0.737601
0
LINE
8
BLACK
6
CONTINUOUS
10
2.22288
20
0.737601
11
2.23091
21
0.739102
0
LINE
8
BLACK
6
CONTINUOUS
10
2.23091
20
0.739102
11
2.23909
21
0.739102
0
LINE
8
BLACK
6
CONTINUOUS
10
2.23909
20
0.739102
11
2.24712
21
0.737601
0
LINE
8
BLACK
6
CONTINUOUS
10
2.44712
20
0.737601
11
2.45474
21
0.734648
0
LINE
8
BLACK
6
CONTINUOUS
10
2.45474
20
0.734648
11
2.46169
21
0.730345
0
LINE
8
BLACK
6
CONTINUOUS
10
2.46169
20
0.730345
11
2.46773
21
0.724839
0
LINE
8
BLACK
6
CONTINUOUS
10
2.46773
20
0.724839
11
2.47266
21
0.718316
0
LINE
8
BLACK
6
CONTINUOUS
10
2.47266
20
0.718316
11
2.4763
21
0.711
0
LINE
8
BLACK
6
CONTINUOUS
10
2.4763
20
0.711
11
2.47854
21
0.703139
0
LINE
8
BLACK
6
CONTINUOUS
10
2.47854
20
0.703139
11
2.47929
21
0.695
0
LINE
8
BLACK
6
CONTINUOUS
10
2.47929
20
0.695
11
2.47854
21
0.686861
0
LINE
8
BLACK
6
CONTINUOUS
10
2.47854
20
0.686861
11
2.4763
21
0.679
0
LINE
8
BLACK
6
CONTINUOUS
10
2.4763
20
0.679
11
2.47266
21
0.671684
0
LINE
8
BLACK
6
CONTINUOUS
10
2.47266
20
0.671684
11
2.46773
21
0.665161
0
LINE
8
BLACK
6
CONTINUOUS
10
2.46773
20
0.665161
11
2.46169
21
0.659655
0
LINE
8
BLACK
6
CONTINUOUS
10
2.46169
20
0.659655
11
2.45474
21
0.655352
0
LINE
8
BLACK
6
CONTINUOUS
10
2.45474
20
0.655352
11
2.44712
21
0.652399
0
LINE
8
BLACK
6
CONTINUOUS
10
2.44712
20
0.652399
11
2.43909
21
0.650898
0
LINE
8
BLACK
6
CONTINUOUS
10
2.43909
20
0.650898
11
2.43091
21
0.650898
0
LINE
8
BLACK
6
CONTINUOUS
10
2.43091
20
0.650898
11
2.42288
21
0.652399
0
LINE
8
BLACK
6
CONTINUOUS
10
2.42288
20
0.652399
11
2.41526
21
0.655352
0
LINE
8
BLACK
6
CONTINUOUS
10
2.41526
20
0.655352
11
2.40831
21
0.659655
0
LINE
8
BLACK
6
CONTINUOUS
10
2.40831
20
0.659655
11
2.40227
21
0.665161
0
LINE
8
BLACK
6
CONTINUOUS
10
2.40227
20
0.665161
11
2.39734
21
0.671684
0
LINE
8
BLACK
6
CONTINUOUS
10
2.39734
20
0.671684
11
2.3937
21
0.679
0
LINE
8
BLACK
6
CONTINUOUS
10
2.3937
20
0.679
11
2.39146
21
0.686861
0
LINE
8
BLACK
6
CONTINUOUS
10
2.39146
20
0.686861
11
2.39071
21
0.695
0
LINE
8
BLACK
6
CONTINUOUS
10
2.39071
20
0.695
11
2.39146
21
0.703139
0
LINE
8
BLACK
6
CONTINUOUS
10
2.39146
20
0.703139
11
2.3937
21
0.711
0
LINE
8
BLACK
6
CONTINUOUS
10
2.3937
20
0.711
11
2.39734
21
0.718316
0
LINE
8
BLACK
6
CONTINUOUS
10
2.39734
20
0.718316
11
2.40227
21
0.724839
0
LINE
8
BLACK
6
CONTINUOUS
10
2.40227
20
0.724839
11
2.40831
21
0.730345
0
LINE
8
BLACK
6
CONTINUOUS
10
2.40831
20
0.730345
11
2.41526
21
0.734648
0
LINE
8
BLACK
6
CONTINUOUS
10
2.41526
20
0.734648
11
2.42288
21
0.737601
0
LINE
8
BLACK
6
CONTINUOUS
10
2.42288
20
0.737601
11
2.43091
21
0.739102
0
LINE
8
BLACK
6
CONTINUOUS
10
2.43091
20
0.739102
11
2.43909
21
0.739102
0
LINE
8
BLACK
6
CONTINUOUS
10
2.43909
20
0.739102
11
2.44712
21
0.737601
0
LINE
8
BLACK
6
CONTINUOUS
10
0.335
20
0.71
11
0.275
21
0.71
0
LINE
8
BLACK
6
CONTINUOUS
10
0.275
20
0.71
11
0.275
21
0.77
0
LINE
8
BLACK
6
CONTINUOUS
10
0.275
20
0.77
11
0.335
21
0.77
0
LINE
8
BLACK
6
CONTINUOUS
10
0.335
20
0.77
11
0.335
21
0.71
0
LINE
8
BLACK
6
CONTINUOUS
10
0.435
20
0.71
11
0.375
21
0.71
0
LINE
8
BLACK
6
CONTINUOUS
10
0.375
20
0.71
11
0.375
21
0.77
0
LINE
8
BLACK
6
CONTINUOUS
10
0.375
20
0.77
11
0.435
21
0.77
0
LINE
8
BLACK
6
CONTINUOUS
10
0.435
20
0.77
11
0.435
21
0.71
0
LINE
8
BLACK
6
CONTINUOUS
10
2.34287
20
0.834579
11
2.35044
21
0.832283
0
LINE
8
BLACK
6
CONTINUOUS
10
2.35044
20
0.832283
11
2.35742
21
0.828553
0
LINE
8
BLACK
6
CONTINUOUS
10
2.35742
20
0.828553
11
2.36353
21
0.823535
0
LINE
8
BLACK
6
CONTINUOUS
10
2.36353
20
0.823535
11
2.36855
21
0.81742
0
LINE
8
BLACK
6
CONTINUOUS
10
2.36855
20
0.81742
11
2.37228
21
0.810443
0
LINE
8
BLACK
6
CONTINUOUS
10
2.37228
20
0.810443
11
2.37458
21
0.802873
0
LINE
8
BLACK
6
CONTINUOUS
10
2.37458
20
0.802873
11
2.37535
21
0.795
0
LINE
8
BLACK
6
CONTINUOUS
10
2.37535
20
0.795
11
2.37458
21
0.787127
0
LINE
8
BLACK
6
CONTINUOUS
10
2.37458
20
0.787127
11
2.37228
21
0.779557
0
LINE
8
BLACK
6
CONTINUOUS
10
2.37228
20
0.779557
11
2.36855
21
0.77258
0
LINE
8
BLACK
6
CONTINUOUS
10
2.36855
20
0.77258
11
2.36353
21
0.766465
0
LINE
8
BLACK
6
CONTINUOUS
10
2.36353
20
0.766465
11
2.35742
21
0.761447
0
LINE
8
BLACK
6
CONTINUOUS
10
2.35742
20
0.761447
11
2.35044
21
0.757717
0
LINE
8
BLACK
6
CONTINUOUS
10
2.35044
20
0.757717
11
2.34287
21
0.755421
0
LINE
8
BLACK
6
CONTINUOUS
10
2.34287
20
0.755421
11
2.335
21
0.754646
0
LINE
8
BLACK
6
CONTINUOUS
10
2.335
20
0.754646
11
2.32713
21
0.755421
0
LINE
8
BLACK
6
CONTINUOUS
10
2.32713
20
0.755421
11
2.31956
21
0.757717
0
LINE
8
BLACK
6
CONTINUOUS
10
2.31956
20
0.757717
11
2.31258
21
0.761447
0
LINE
8
BLACK
6
CONTINUOUS
10
2.31258
20
0.761447
11
2.30647
21
0.766465
0
LINE
8
BLACK
6
CONTINUOUS
10
2.30647
20
0.766465
11
2.30145
21
0.77258
0
LINE
8
BLACK
6
CONTINUOUS
10
2.30145
20
0.77258
11
2.29772
21
0.779557
0
LINE
8
BLACK
6
CONTINUOUS
10
2.29772
20
0.779557
11
2.29542
21
0.787127
0
LINE
8
BLACK
6
CONTINUOUS
10
2.29542
20
0.787127
11
2.29465
21
0.795
0
LINE
8
BLACK
6
CONTINUOUS
10
2.29465
20
0.795
11
2.29542
21
0.802873
0
LINE
8
BLACK
6
CONTINUOUS
10
2.29542
20
0.802873
11
2.29772
21
0.810443
0
LINE
8
BLACK
6
CONTINUOUS
10
2.29772
20
0.810443
11
2.30145
21
0.81742
0
LINE
8
BLACK
6
CONTINUOUS
10
2.30145
20
0.81742
11
2.30647
21
0.823535
0
LINE
8
BLACK
6
CONTINUOUS
10
2.30647
20
0.823535
11
2.31258
21
0.828553
0
LINE
8
BLACK
6
CONTINUOUS
10
2.31258
20
0.828553
11
2.31956
21
0.832283
0
LINE
8
BLACK
6
CONTINUOUS
10
2.31956
20
0.832283
11
2.32713
21
0.834579
0
LINE
8
BLACK
6
CONTINUOUS
10
2.32713
20
0.834579
11
2.335
21
0.835354
0
LINE
8
BLACK
6
CONTINUOUS
10
2.335
20
0.835354
11
2.34287
21
0.834579
0
LINE
8
BLACK
6
CONTINUOUS
10
0.335
20
0.81
11
0.275
21
0.81
0
LINE
8
BLACK
6
CONTINUOUS
10
0.275
20
0.81
11
0.275
21
0.87
0
LINE
8
BLACK
6
CONTINUOUS
10
0.275
20
0.87
11
0.335
21
0.87
0
LINE
8
BLACK
6
CONTINUOUS
10
0.335
20
0.87
11
0.335
21
0.81
0
LINE
8
BLACK
6
CONTINUOUS
10
0.435
20
0.81
11
0.375
21
0.81
0
LINE
8
BLACK
6
CONTINUOUS
10
0.375
20
0.81
11
0.375
21
0.87
0
LINE
8
BLACK
6
CONTINUOUS
10
0.375
20
0.87
11
0.435
21
0.87
0
LINE
8
BLACK
6
CONTINUOUS
10
0.435
20
0.87
11
0.435
21
0.81
0
LINE
8
BLACK
6
CONTINUOUS
10
2.24712
20
0.937601
11
2.25474
21
0.934648
0
LINE
8
BLACK
6
CONTINUOUS
10
2.25474
20
0.934648
11
2.26169
21
0.930345
0
LINE
8
BLACK
6
CONTINUOUS
10
2.26169
20
0.930345
11
2.26773
21
0.924839
0
LINE
8
BLACK
6
CONTINUOUS
10
2.26773
20
0.924839
11
2.27266
21
0.918316
0
LINE
8
BLACK
6
CONTINUOUS
10
2.27266
20
0.918316
11
2.2763
21
0.911
0
LINE
8
BLACK
6
CONTINUOUS
10
2.2763
20
0.911
11
2.27854
21
0.903139
0
LINE
8
BLACK
6
CONTINUOUS
10
2.27854
20
0.903139
11
2.27929
21
0.895
0
LINE
8
BLACK
6
CONTINUOUS
10
2.27929
20
0.895
11
2.27854
21
0.886861
0
LINE
8
BLACK
6
CONTINUOUS
10
2.27854
20
0.886861
11
2.2763
21
0.879
0
LINE
8
BLACK
6
CONTINUOUS
10
2.2763
20
0.879
11
2.27266
21
0.871684
0
LINE
8
BLACK
6
CONTINUOUS
10
2.27266
20
0.871684
11
2.26773
21
0.865161
0
LINE
8
BLACK
6
CONTINUOUS
10
2.26773
20
0.865161
11
2.26169
21
0.859655
0
LINE
8
BLACK
6
CONTINUOUS
10
2.26169
20
0.859655
11
2.25474
21
0.855352
0
LINE
8
BLACK
6
CONTINUOUS
10
2.25474
20
0.855352
11
2.24712
21
0.852399
0
LINE
8
BLACK
6
CONTINUOUS
10
2.24712
20
0.852399
11
2.23909
21
0.850898
0
LINE
8
BLACK
6
CONTINUOUS
10
2.23909
20
0.850898
11
2.23091
21
0.850898
0
LINE
8
BLACK
6
CONTINUOUS
10
2.23091
20
0.850898
11
2.22288
21
0.852399
0
LINE
8
BLACK
6
CONTINUOUS
10
2.22288
20
0.852399
11
2.21526
21
0.855352
0
LINE
8
BLACK
6
CONTINUOUS
10
2.21526
20
0.855352
11
2.20831
21
0.859655
0
LINE
8
BLACK
6
CONTINUOUS
10
2.20831
20
0.859655
11
2.20227
21
0.865161
0
LINE
8
BLACK
6
CONTINUOUS
10
2.20227
20
0.865161
11
2.19734
21
0.871684
0
LINE
8
BLACK
6
CONTINUOUS
10
2.19734
20
0.871684
11
2.1937
21
0.879
0
LINE
8
BLACK
6
CONTINUOUS
10
2.1937
20
0.879
11
2.19146
21
0.886861
0
LINE
8
BLACK
6
CONTINUOUS
10
2.19146
20
0.886861
11
2.19071
21
0.895
0
LINE
8
BLACK
6
CONTINUOUS
10
2.19071
20
0.895
11
2.19146
21
0.903139
0
LINE
8
BLACK
6
CONTINUOUS
10
2.19146
20
0.903139
11
2.1937
21
0.911
0
LINE
8
BLACK
6
CONTINUOUS
10
2.1937
20
0.911
11
2.19734
21
0.918316
0
LINE
8
BLACK
6
CONTINUOUS
10
2.19734
20
0.918316
11
2.20227
21
0.924839
0
LINE
8
BLACK
6
CONTINUOUS
10
2.20227
20
0.924839
11
2.20831
21
0.930345
0
LINE
8
BLACK
6
CONTINUOUS
10
2.20831
20
0.930345
11
2.21526
21
0.934648
0
LINE
8
BLACK
6
CONTINUOUS
10
2.21526
20
0.934648
11
2.22288
21
0.937601
0
LINE
8
BLACK
6
CONTINUOUS
10
2.22288
20
0.937601
11
2.23091
21
0.939102
0
LINE
8
BLACK
6
CONTINUOUS
10
2.23091
20
0.939102
11
2.23909
21
0.939102
0
LINE
8
BLACK
6
CONTINUOUS
10
2.23909
20
0.939102
11
2.24712
21
0.937601
0
LINE
8
BLACK
6
CONTINUOUS
10
2.44712
20
0.937601
11
2.45474
21
0.934648
0
LINE
8
BLACK
6
CONTINUOUS
10
2.45474
20
0.934648
11
2.46169
21
0.930345
0
LINE
8
BLACK
6
CONTINUOUS
10
2.46169
20
0.930345
11
2.46773
21
0.924839
0
LINE
8
BLACK
6
CONTINUOUS
10
2.46773
20
0.924839
11
2.47266
21
0.918316
0
LINE
8
BLACK
6
CONTINUOUS
10
2.47266
20
0.918316
11
2.4763
21
0.911
0
LINE
8
BLACK
6
CONTINUOUS
10
2.4763
20
0.911
11
2.47854
21
0.903139
0
LINE
8
BLACK
6
CONTINUOUS
10
2.47854
20
0.903139
11
2.47929
21
0.895
0
LINE
8
BLACK
6
CONTINUOUS
10
2.47929
20
0.895
11
2.47854
21
0.886861
0
LINE
8
BLACK
6
CONTINUOUS
10
2.47854
20
0.886861
11
2.4763
21
0.879
0
LINE
8
BLACK
6
CONTINUOUS
10
2.4763
20
0.879
11
2.47266
21
0.871684
0
LINE
8
BLACK
6
CONTINUOUS
10
2.47266
20
0.871684
11
2.46773
21
0.865161
0
LINE
8
BLACK
6
CONTINUOUS
10
2.46773
20
0.865161
11
2.46169
21
0.859655
0
LINE
8
BLACK
6
CONTINUOUS
10
2.46169
20
0.859655
11
2.45474
21
0.855352
0
LINE
8
BLACK
6
CONTINUOUS
10
2.45474
20
0.855352
11
2.44712
21
0.852399
0
LINE
8
BLACK
6
CONTINUOUS
10
2.44712
20
0.852399
11
2.43909
21
0.850898
0
LINE
8
BLACK
6
CONTINUOUS
10
2.43909
20
0.850898
11
2.43091
21
0.850898
0
LINE
8
BLACK
6
CONTINUOUS
10
2.43091
20
0.850898
11
2.42288
21
0.852399
0
LINE
8
BLACK
6
CONTINUOUS
10
2.42288
20
0.852399
11
2.41526
21
0.855352
0
LINE
8
BLACK
6
CONTINUOUS
10
2.41526
20
0.855352
11
2.40831
21
0.859655
0
LINE
8
BLACK
6
CONTINUOUS
10
2.40831
20
0.859655
11
2.40227
21
0.865161
0
LINE
8
BLACK
6
CONTINUOUS
10
2.40227
20
0.865161
11
2.39734
21
0.871684
0
LINE
8
BLACK
6
CONTINUOUS
10
2.39734
20
0.871684
11
2.3937
21
0.879
0
LINE
8
BLACK
6
CONTINUOUS
10
2.3937
20
0.879
11
2.39146
21
0.886861
0
LINE
8
BLACK
6
CONTINUOUS
10
2.39146
20
0.886861
11
2.39071
21
0.895
0
LINE
8
BLACK
6
CONTINUOUS
10
2.39071
20
0.895
11
2.39146
21
0.903139
0
LINE
8
BLACK
6
CONTINUOUS
10
2.39146
20
0.903139
11
2.3937
21
0.911
0
LINE
8
BLACK
6
CONTINUOUS
10
2.3937
20
0.911
11
2.39734
21
0.918316
0
LINE
8
BLACK
6
CONTINUOUS
10
2.39734
20
0.918316
11
2.40227
21
0.924839
0
LINE
8
BLACK
6
CONTINUOUS
10
2.40227
20
0.924839
11
2.40831
21
0.930345
0
LINE
8
BLACK
6
CONTINUOUS
10
2.40831
20
0.930345
11
2.41526
21
0.934648
0
LINE
8
BLACK
6
CONTINUOUS
10
2.41526
20
0.934648
11
2.42288
21
0.937601
0
LINE
8
BLACK
6
CONTINUOUS
10
2.42288
20
0.937601
11
2.43091
21
0.939102
0
LINE
8
BLACK
6
CONTINUOUS
10
2.43091
20
0.939102
11
2.43909
21
0.939102
0
LINE
8
BLACK
6
CONTINUOUS
10
2.43909
20
0.939102
11
2.44712
21
0.937601
0
LINE
8
BLACK
6
CONTINUOUS
10
0.335
20
0.91
11
0.275
21
0.91
0
LINE
8
BLACK
6
CONTINUOUS
10
0.275
20
0.91
11
0.275
21
0.97
0
LINE
8
BLACK
6
CONTINUOUS
10
0.275
20
0.97
11
0.335
21
0.97
0
LINE
8
BLACK
6
CONTINUOUS
10
0.335
20
0.97
11
0.335
21
0.91
0
LINE
8
BLACK
6
CONTINUOUS
10
0.435
20
0.91
11
0.375
21
0.91
0
LINE
8
BLACK
6
CONTINUOUS
10
0.375
20
0.91
11
0.375
21
0.97
0
LINE
8
BLACK
6
CONTINUOUS
10
0.375
20
0.97
11
0.435
21
0.97
0
LINE
8
BLACK
6
CONTINUOUS
10
0.435
20
0.97
11
0.435
21
0.91
0
LINE
8
BLACK
6
CONTINUOUS
10
0.335
20
1.01
11
0.275
21
1.01
0
LINE
8
BLACK
6
CONTINUOUS
10
0.275
20
1.01
11
0.275
21
1.07
0
LINE
8
BLACK
6
CONTINUOUS
10
0.275
20
1.07
11
0.335
21
1.07
0
LINE
8
BLACK
6
CONTINUOUS
10
0.335
20
1.07
11
0.335
21
1.01
0
LINE
8
BLACK
6
CONTINUOUS
10
0.435
20
1.01
11
0.375
21
1.01
0
LINE
8
BLACK
6
CONTINUOUS
10
0.375
20
1.01
11
0.375
21
1.07
0
LINE
8
BLACK
6
CONTINUOUS
10
0.375
20
1.07
11
0.435
21
1.07
0
LINE
8
BLACK
6
CONTINUOUS
10
0.435
20
1.07
11
0.435
21
1.01
0
LINE
8
BLACK
6
CONTINUOUS
10
2.285
20
1.145
11
2.225
21
1.145
0
LINE
8
BLACK
6
CONTINUOUS
10
2.225
20
1.145
11
2.225
21
1.205
0
LINE
8
BLACK
6
CONTINUOUS
10
2.225
20
1.205
11
2.285
21
1.205
0
LINE
8
BLACK
6
CONTINUOUS
10
2.285
20
1.205
11
2.285
21
1.145
0
LINE
8
BLACK
6
CONTINUOUS
10
2.385
20
1.145
11
2.325
21
1.145
0
LINE
8
BLACK
6
CONTINUOUS
10
2.325
20
1.145
11
2.325
21
1.205
0
LINE
8
BLACK
6
CONTINUOUS
10
2.325
20
1.205
11
2.385
21
1.205
0
LINE
8
BLACK
6
CONTINUOUS
10
2.385
20
1.205
11
2.385
21
1.145
0
LINE
8
BLACK
6
CONTINUOUS
10
0.42051
20
1.71632
11
0.433874
21
1.71315
0
LINE
8
BLACK
6
CONTINUOUS
10
0.433874
20
1.71315
11
0.446781
21
1.70845
0
LINE
8
BLACK
6
CONTINUOUS
10
0.446781
20
1.70845
11
0.459055
21
1.70229
0
LINE
8
BLACK
6
CONTINUOUS
10
0.459055
20
1.70229
11
0.470531
21
1.69474
0
LINE
8
BLACK
6
CONTINUOUS
10
0.470531
20
1.69474
11
0.481052
21
1.68591
0
LINE
8
BLACK
6
CONTINUOUS
10
0.481052
20
1.68591
11
0.490478
21
1.67592
0
LINE
8
BLACK
6
CONTINUOUS
10
0.490478
20
1.67592
11
0.49868
21
1.6649
0
LINE
8
BLACK
6
CONTINUOUS
10
0.49868
20
1.6649
11
0.505547
21
1.65301
0
LINE
8
BLACK
6
CONTINUOUS
10
0.505547
20
1.65301
11
0.510987
21
1.6404
0
LINE
8
BLACK
6
CONTINUOUS
10
0.510987
20
1.6404
11
0.514927
21
1.62724
0
LINE
8
BLACK
6
CONTINUOUS
10
0.514927
20
1.62724
11
0.517312
21
1.61371
0
LINE
8
BLACK
6
CONTINUOUS
10
0.517312
20
1.61371
11
0.51811
21
1.6
0
LINE
8
BLACK
6
CONTINUOUS
10
0.51811
20
1.6
11
0.517312
21
1.58629
0
LINE
8
BLACK
6
CONTINUOUS
10
0.517312
20
1.58629
11
0.514927
21
1.57276
0
LINE
8
BLACK
6
CONTINUOUS
10
0.514927
20
1.57276
11
0.510987
21
1.5596
0
LINE
8
BLACK
6
CONTINUOUS
10
0.510987
20
1.5596
11
0.505547
21
1.54699
0
LINE
8
BLACK
6
CONTINUOUS
10
0.505547
20
1.54699
11
0.49868
21
1.5351
0
LINE
8
BLACK
6
CONTINUOUS
10
0.49868
20
1.5351
11
0.490478
21
1.52408
0
LINE
8
BLACK
6
CONTINUOUS
10
0.490478
20
1.52408
11
0.481052
21
1.51409
0
LINE
8
BLACK
6
CONTINUOUS
10
0.481052
20
1.51409
11
0.470531
21
1.50526
0
LINE
8
BLACK
6
CONTINUOUS
10
0.470531
20
1.50526
11
0.459055
21
1.49771
0
LINE
8
BLACK
6
CONTINUOUS
10
0.459055
20
1.49771
11
0.446781
21
1.49155
0
LINE
8
BLACK
6
CONTINUOUS
10
0.446781
20
1.49155
11
0.433874
21
1.48685
0
LINE
8
BLACK
6
CONTINUOUS
10
0.433874
20
1.48685
11
0.42051
21
1.48368
0
LINE
8
BLACK
6
CONTINUOUS
10
0.42051
20
1.48368
11
0.406867
21
1.48209
0
LINE
8
BLACK
6
CONTINUOUS
10
0.406867
20
1.48209
11
0.393133
21
1.48209
0
LINE
8
BLACK
6
CONTINUOUS
10
0.393133
20
1.48209
11
0.37949
21
1.48368
0
LINE
8
BLACK
6
CONTINUOUS
10
0.37949
20
1.48368
11
0.366126
21
1.48685
0
LINE
8
BLACK
6
CONTINUOUS
10
0.366126
20
1.48685
11
0.353219
21
1.49155
0
LINE
8
BLACK
6
CONTINUOUS
10
0.353219
20
1.49155
11
0.340945
21
1.49771
0
LINE
8
BLACK
6
CONTINUOUS
10
0.340945
20
1.49771
11
0.329469
21
1.50526
0
LINE
8
BLACK
6
CONTINUOUS
10
0.329469
20
1.50526
11
0.318948
21
1.51409
0
LINE
8
BLACK
6
CONTINUOUS
10
0.318948
20
1.51409
11
0.309522
21
1.52408
0
LINE
8
BLACK
6
CONTINUOUS
10
0.309522
20
1.52408
11
0.30132
21
1.5351
0
LINE
8
BLACK
6
CONTINUOUS
10
0.30132
20
1.5351
11
0.294453
21
1.54699
0
LINE
8
BLACK
6
CONTINUOUS
10
0.294453
20
1.54699
11
0.289013
21
1.5596
0
LINE
8
BLACK
6
CONTINUOUS
10
0.289013
20
1.5596
11
0.285073
21
1.57276
0
LINE
8
BLACK
6
CONTINUOUS
10
0.285073
20
1.57276
11
0.282688
21
1.58629
0
LINE
8
BLACK
6
CONTINUOUS
10
0.282688
20
1.58629
11
0.28189
21
1.6
0
LINE
8
BLACK
6
CONTINUOUS
10
0.28189
20
1.6
11
0.282688
21
1.61371
0
LINE
8
BLACK
6
CONTINUOUS
10
0.282688
20
1.61371
11
0.285073
21
1.62724
0
LINE
8
BLACK
6
CONTINUOUS
10
0.285073
20
1.62724
11
0.289013
21
1.6404
0
LINE
8
BLACK
6
CONTINUOUS
10
0.289013
20
1.6404
11
0.294453
21
1.65301
0
LINE
8
BLACK
6
CONTINUOUS
10
0.294453
20
1.65301
11
0.30132
21
1.6649
0
LINE
8
BLACK
6
CONTINUOUS
10
0.30132
20
1.6649
11
0.309522
21
1.67592
0
LINE
8
BLACK
6
CONTINUOUS
10
0.309522
20
1.67592
11
0.318948
21
1.68591
0
LINE
8
BLACK
6
CONTINUOUS
10
0.318948
20
1.68591
11
0.329469
21
1.69474
0
LINE
8
BLACK
6
CONTINUOUS
10
0.329469
20
1.69474
11
0.340945
21
1.70229
0
LINE
8
BLACK
6
CONTINUOUS
10
0.340945
20
1.70229
11
0.353219
21
1.70845
0
LINE
8
BLACK
6
CONTINUOUS
10
0.353219
20
1.70845
11
0.366126
21
1.71315
0
LINE
8
BLACK
6
CONTINUOUS
10
0.366126
20
1.71315
11
0.37949
21
1.71632
0
LINE
8
BLACK
6
CONTINUOUS
10
0.37949
20
1.71632
11
0.393133
21
1.71791
0
LINE
8
BLACK
6
CONTINUOUS
10
0.393133
20
1.71791
11
0.406867
21
1.71791
0
LINE
8
BLACK
6
CONTINUOUS
10
0.406867
20
1.71791
11
0.42051
21
1.71632
0
LINE
8
BLACK
6
CONTINUOUS
10
2.42051
20
1.71632
11
2.43387
21
1.71315
0
LINE
8
BLACK
6
CONTINUOUS
10
2.43387
20
1.71315
11
2.44678
21
1.70845
0
LINE
8
BLACK
6
CONTINUOUS
10
2.44678
20
1.70845
11
2.45906
21
1.70229
0
LINE
8
BLACK
6
CONTINUOUS
10
2.45906
20
1.70229
11
2.47053
21
1.69474
0
LINE
8
BLACK
6
CONTINUOUS
10
2.47053
20
1.69474
11
2.48105
21
1.68591
0
LINE
8
BLACK
6
CONTINUOUS
10
2.48105
20
1.68591
11
2.49048
21
1.67592
0
LINE
8
BLACK
6
CONTINUOUS
10
2.49048
20
1.67592
11
2.49868
21
1.6649
0
LINE
8
BLACK
6
CONTINUOUS
10
2.49868
20
1.6649
11
2.50555
21
1.65301
0
LINE
8
BLACK
6
CONTINUOUS
10
2.50555
20
1.65301
11
2.51099
21
1.6404
0
LINE
8
BLACK
6
CONTINUOUS
10
2.51099
20
1.6404
11
2.51493
21
1.62724
0
LINE
8
BLACK
6
CONTINUOUS
10
2.51493
20
1.62724
11
2.51731
21
1.61371
0
LINE
8
BLACK
6
CONTINUOUS
10
2.51731
20
1.61371
11
2.51811
21
1.6
0
LINE
8
BLACK
6
CONTINUOUS
10
2.51811
20
1.6
11
2.51731
21
1.58629
0
LINE
8
BLACK
6
CONTINUOUS
10
2.51731
20
1.58629
11
2.51493
21
1.57276
0
LINE
8
BLACK
6
CONTINUOUS
10
2.51493
20
1.57276
11
2.51099
21
1.5596
0
LINE
8
BLACK
6
CONTINUOUS
10
2.51099
20
1.5596
11
2.50555
21
1.54699
0
LINE
8
BLACK
6
CONTINUOUS
10
2.50555
20
1.54699
11
2.49868
21
1.5351
0
LINE
8
BLACK
6
CONTINUOUS
10
2.49868
20
1.5351
11
2.49048
21
1.52408
0
LINE
8
BLACK
6
CONTINUOUS
10
2.49048
20
1.52408
11
2.48105
21
1.51409
0
LINE
8
BLACK
6
CONTINUOUS
10
2.48105
20
1.51409
11
2.47053
21
1.50526
0
LINE
8
BLACK
6
CONTINUOUS
10
2.47053
20
1.50526
11
2.45906
21
1.49771
0
LINE
8
BLACK
6
CONTINUOUS
10
2.45906
20
1.49771
11
2.44678
21
1.49155
0
LINE
8
BLACK
6
CONTINUOUS
10
2.44678
20
1.49155
11
2.43387
21
1.48685
0
LINE
8
BLACK
6
CONTINUOUS
10
2.43387
20
1.48685
11
2.42051
21
1.48368
0
LINE
8
BLACK
6
CONTINUOUS
10
2.42051
20
1.48368
11
2.40687
21
1.48209
0
LINE
8
BLACK
6
CONTINUOUS
10
2.40687
20
1.48209
11
2.39313
21
1.48209
0
LINE
8
BLACK
6
CONTINUOUS
10
2.39313
20
1.48209
11
2.37949
21
1.48368
0
LINE
8
BLACK
6
CONTINUOUS
10
2.37949
20
1.48368
11
2.36613
21
1.48685
0
LINE
8
BLACK
6
CONTINUOUS
10
2.36613
20
1.48685
11
2.35322
21
1.49155
0
LINE
8
BLACK
6
CONTINUOUS
10
2.35322
20
1.49155
11
2.34094
21
1.49771
0
LINE
8
BLACK
6
CONTINUOUS
10
2.34094
20
1.49771
11
2.32947
21
1.50526
0
LINE
8
BLACK
6
CONTINUOUS
10
2.32947
20
1.50526
11
2.31895
21
1.51409
0
LINE
8
BLACK
6
CONTINUOUS
10
2.31895
20
1.51409
11
2.30952
21
1.52408
0
LINE
8
BLACK
6
CONTINUOUS
10
2.30952
20
1.52408
11
2.30132
21
1.5351
0
LINE
8
BLACK
6
CONTINUOUS
10
2.30132
20
1.5351
11
2.29445
21
1.54699
0
LINE
8
BLACK
6
CONTINUOUS
10
2.29445
20
1.54699
11
2.28901
21
1.5596
0
LINE
8
BLACK
6
CONTINUOUS
10
2.28901
20
1.5596
11
2.28507
21
1.57276
0
LINE
8
BLACK
6
CONTINUOUS
10
2.28507
20
1.57276
11
2.28269
21
1.58629
0
LINE
8
BLACK
6
CONTINUOUS
10
2.28269
20
1.58629
11
2.28189
21
1.6
0
LINE
8
BLACK
6
CONTINUOUS
10
2.28189
20
1.6
11
2.28269
21
1.61371
0
LINE
8
BLACK
6
CONTINUOUS
10
2.28269
20
1.61371
11
2.28507
21
1.62724
0
LINE
8
BLACK
6
CONTINUOUS
10
2.28507
20
1.62724
11
2.28901
21
1.6404
0
LINE
8
BLACK
6
CONTINUOUS
10
2.28901
20
1.6404
11
2.29445
21
1.65301
0
LINE
8
BLACK
6
CONTINUOUS
10
2.29445
20
1.65301
11
2.30132
21
1.6649
0
LINE
8
BLACK
6
CONTINUOUS
10
2.30132
20
1.6649
11
2.30952
21
1.67592
0
LINE
8
BLACK
6
CONTINUOUS
10
2.30952
20
1.67592
11
2.31895
21
1.68591
0
LINE
8
BLACK
6
CONTINUOUS
10
2.31895
20
1.68591
11
2.32947
21
1.69474
0
LINE
8
BLACK
6
CONTINUOUS
10
2.32947
20
1.69474
11
2.34094
21
1.70229
0
LINE
8
BLACK
6
CONTINUOUS
10
2.34094
20
1.70229
11
2.35322
21
1.70845
0
LINE
8
BLACK
6
CONTINUOUS
10
2.35322
20
1.70845
11
2.36613
21
1.71315
0
LINE
8
BLACK
6
CONTINUOUS
10
2.36613
20
1.71315
11
2.37949
21
1.71632
0
LINE
8
BLACK
6
CONTINUOUS
10
2.37949
20
1.71632
11
2.39313
21
1.71791
0
LINE
8
BLACK
6
CONTINUOUS
10
2.39313
20
1.71791
11
2.40687
21
1.71791
0
LINE
8
BLACK
6
CONTINUOUS
10
2.40687
20
1.71791
11
2.42051
21
1.71632
0
CIRCLE
8
BLACK
10
0.305
20
1.04
40
0.00688976
0
CIRCLE
8
BLACK
10
0.405
20
1.04
40
0.00688976
0
CIRCLE
8
BLACK
10
0.305
20
0.94
40
0.00688976
0
CIRCLE
8
BLACK
10
0.405
20
0.94
40
0.00688976
0
CIRCLE
8
BLACK
10
0.305
20
0.84
40
0.00688976
0
CIRCLE
8
BLACK
10
0.405
20
0.84
40
0.00688976
0
CIRCLE
8
BLACK
10
0.305
20
0.74
40
0.00688976
0
CIRCLE
8
BLACK
10
0.405
20
0.74
40
0.00688976
0
CIRCLE
8
BLACK
10
0.305
20
0.64
40
0.00688976
0
CIRCLE
8
BLACK
10
0.405
20
0.64
40
0.00688976
0
CIRCLE
8
BLACK
10
2.4
20
1.6
40
0.00688976
0
CIRCLE
8
BLACK
10
2.255
20
1.175
40
0.00688976
0
CIRCLE
8
BLACK
10
2.355
20
1.175
40
0.00688976
0
CIRCLE
8
BLACK
10
2.4
20
0.4
40
0.00688976
0
CIRCLE
8
BLACK
10
2.335
20
0.795
40
0.00688976
0
CIRCLE
8
BLACK
10
2.435
20
0.695
40
0.00688976
0
CIRCLE
8
BLACK
10
2.435
20
0.895
40
0.00688976
0
CIRCLE
8
BLACK
10
2.235
20
0.695
40
0.00688976
0
CIRCLE
8
BLACK
10
2.235
20
0.895
40
0.00688976
0
CIRCLE
8
BLACK
10
0.4
20
0.4
40
0.00688976
0
CIRCLE
8
BLACK
10
0.4
20
1.6
40
0.00688976
0
CIRCLE
8
BLACK
10
1.30157
20
0.566929
40
0.00688976
0
CIRCLE
8
BLACK
10
1.49843
20
0.566929
40
0.00688976
  0
ENDSEC
  0
EOF
