  0
SECTION
  2
HEADER
  9
$ANGBASE
  50
0.0
  9
$ANGDIR
  70
1
  9
$MEASUREMENT
  70
0
  0
ENDSEC
  0
SECTION
  2
TABLES
  0
TABLE
  2
LTYPE
  70
4
  0
LTYPE
  5
40F
  2
CONTINUOUS
  70
0
  3
Solid line
  72
65
  73
0
  40
0.0
  0
LTYPE
  5
410
  2
DASHDOT
 70
0
  3
Dash Dot ____ _ ____ _
 72
65
 73
4
 40
2.0
 49
1.25
 49
-0.25
 49
0.25
 49
-0.25
  0
LTYPE
  5
411
  2
DASHED
 70
0
  3
Dashed __ __ __ __ __
 72
65
 73
2
 40
0.75
 49
0.5
 49
-0.25
  0
LTYPE
  5
43B
  2
DOTTED
 70
0
  3
Dotted .  .  .  .
 72
65
 73
2
 40
0.2
 49
0.0
 49
-0.2
  0
ENDTAB
  0
TABLE
  2
STYLE
  70
4
  0
STYLE
  2
KICAD
  70
0
  40
0
  41
1
  42
1
  50
0
  71
0
  3
isocp.shx
  0
STYLE
  2
KICADB
  70
0
  40
0
  41
1
  42
1
  50
0
  71
0
  3
isocp.shx
  0
STYLE
  2
KICADI
  70
0
  40
0
  41
1
  42
1
  50
15
  71
0
  3
isocp.shx
  0
STYLE
  2
KICADBI
  70
0
  40
0
  41
1
  42
1
  50
15
  71
0
  3
isocp.shx
  0
ENDTAB
  0
TABLE
  2
LAYER
  70
1
  0
LAYER
  2
BLACK
  70
0
  62
7
  6
CONTINUOUS
  0
ENDTAB
  0
ENDSEC
  0
SECTION
  2
ENTITIES
0
LINE
8
BLACK
6
CONTINUOUS
10
-0.0563808
20
1.07795
11
-0.05569
21
1.07606
0
LINE
8
BLACK
6
CONTINUOUS
10
-0.05569
20
1.07606
11
-0.05569
21
1.05543
0
LINE
8
BLACK
6
CONTINUOUS
10
-0.05569
20
1.05543
11
-0.055868
21
1.05442
0
LINE
8
BLACK
6
CONTINUOUS
10
-0.055868
20
1.05442
11
-0.0559815
21
1.05429
0
LINE
8
BLACK
6
CONTINUOUS
10
-0.0559815
20
1.05429
11
-0.0560017
21
1.05411
0
LINE
8
BLACK
6
CONTINUOUS
10
-0.0560017
20
1.05411
11
-0.0578765
21
1.05036
0
LINE
8
BLACK
6
CONTINUOUS
10
-0.0578765
20
1.05036
11
-0.0584874
21
1.04954
0
LINE
8
BLACK
6
CONTINUOUS
10
-0.0584874
20
1.04954
11
-0.0588931
21
1.04937
0
LINE
8
BLACK
6
CONTINUOUS
10
-0.0588931
20
1.04937
11
-0.059197
21
1.04904
0
LINE
8
BLACK
6
CONTINUOUS
10
-0.059197
20
1.04904
11
-0.0629465
21
1.04717
0
LINE
8
BLACK
6
CONTINUOUS
10
-0.0629465
20
1.04717
11
-0.0639294
21
1.04688
0
LINE
8
BLACK
6
CONTINUOUS
10
-0.0639294
20
1.04688
11
-0.0641011
21
1.04692
0
LINE
8
BLACK
6
CONTINUOUS
10
-0.0641011
20
1.04692
11
-0.064267
21
1.04686
0
LINE
8
BLACK
6
CONTINUOUS
10
-0.064267
20
1.04686
11
-0.0698913
21
1.04686
0
LINE
8
BLACK
6
CONTINUOUS
10
-0.0698913
20
1.04686
11
-0.0709012
21
1.04704
0
LINE
8
BLACK
6
CONTINUOUS
10
-0.0709012
20
1.04704
11
-0.0710365
21
1.04715
0
LINE
8
BLACK
6
CONTINUOUS
10
-0.0710365
20
1.04715
11
-0.0712118
21
1.04717
0
LINE
8
BLACK
6
CONTINUOUS
10
-0.0712118
20
1.04717
11
-0.0732531
21
1.04819
0
LINE
8
BLACK
6
CONTINUOUS
10
-0.0732531
20
1.04819
11
-0.0740392
21
1.04725
0
LINE
8
BLACK
6
CONTINUOUS
10
-0.0740392
20
1.04725
11
-0.0760283
21
1.0469
0
LINE
8
BLACK
6
CONTINUOUS
10
-0.0760283
20
1.0469
11
-0.0777775
21
1.04791
0
LINE
8
BLACK
6
CONTINUOUS
10
-0.0777775
20
1.04791
11
-0.0784683
21
1.04981
0
LINE
8
BLACK
6
CONTINUOUS
10
-0.0784683
20
1.04981
11
-0.0784683
21
1.07606
0
LINE
8
BLACK
6
CONTINUOUS
10
-0.0784683
20
1.07606
11
-0.0782903
21
1.07707
0
LINE
8
BLACK
6
CONTINUOUS
10
-0.0782903
20
1.07707
11
-0.076992
21
1.07861
0
LINE
8
BLACK
6
CONTINUOUS
10
-0.076992
20
1.07861
11
-0.0750028
21
1.07896
0
LINE
8
BLACK
6
CONTINUOUS
10
-0.0750028
20
1.07896
11
-0.0732537
21
1.07795
0
LINE
8
BLACK
6
CONTINUOUS
10
-0.0732537
20
1.07795
11
-0.0725628
21
1.07606
0
LINE
8
BLACK
6
CONTINUOUS
10
-0.0725628
20
1.07606
11
-0.0725628
21
1.05478
0
LINE
8
BLACK
6
CONTINUOUS
10
-0.0725628
20
1.05478
11
-0.0718917
21
1.05411
0
LINE
8
BLACK
6
CONTINUOUS
10
-0.0718917
20
1.05411
11
-0.0691943
21
1.05276
0
LINE
8
BLACK
6
CONTINUOUS
10
-0.0691943
20
1.05276
11
-0.0649641
21
1.05276
0
LINE
8
BLACK
6
CONTINUOUS
10
-0.0649641
20
1.05276
11
-0.0627183
21
1.05389
0
LINE
8
BLACK
6
CONTINUOUS
10
-0.0627183
20
1.05389
11
-0.0615955
21
1.05613
0
LINE
8
BLACK
6
CONTINUOUS
10
-0.0615955
20
1.05613
11
-0.0615955
21
1.07606
0
LINE
8
BLACK
6
CONTINUOUS
10
-0.0615955
20
1.07606
11
-0.0614174
21
1.07707
0
LINE
8
BLACK
6
CONTINUOUS
10
-0.0614174
20
1.07707
11
-0.0601191
21
1.07861
0
LINE
8
BLACK
6
CONTINUOUS
10
-0.0601191
20
1.07861
11
-0.05813
21
1.07896
0
LINE
8
BLACK
6
CONTINUOUS
10
-0.05813
20
1.07896
11
-0.0563808
21
1.07795
0
LINE
8
BLACK
6
CONTINUOUS
10
-0.0276365
20
1.09196
11
-0.0275013
21
1.09184
0
LINE
8
BLACK
6
CONTINUOUS
10
-0.0275013
20
1.09184
11
-0.0273259
21
1.09182
0
LINE
8
BLACK
6
CONTINUOUS
10
-0.0273259
20
1.09182
11
-0.0235764
21
1.08995
0
LINE
8
BLACK
6
CONTINUOUS
10
-0.0235764
20
1.08995
11
-0.0228674
21
1.08942
0
LINE
8
BLACK
6
CONTINUOUS
10
-0.0228674
20
1.08942
11
-0.022809
21
1.08939
0
LINE
8
BLACK
6
CONTINUOUS
10
-0.022809
20
1.08939
11
-0.0209343
21
1.08752
0
LINE
8
BLACK
6
CONTINUOUS
10
-0.0209343
20
1.08752
11
-0.020428
21
1.0868
0
LINE
8
BLACK
6
CONTINUOUS
10
-0.020428
20
1.0868
11
-0.0203811
21
1.08675
0
LINE
8
BLACK
6
CONTINUOUS
10
-0.0203811
20
1.08675
11
-0.0185064
21
1.083
0
LINE
8
BLACK
6
CONTINUOUS
10
-0.0185064
20
1.083
11
-0.0183611
21
1.08251
0
LINE
8
BLACK
6
CONTINUOUS
10
-0.0183611
20
1.08251
11
-0.0182828
21
1.0824
0
LINE
8
BLACK
6
CONTINUOUS
10
-0.0182828
20
1.0824
11
-0.016408
21
1.0749
0
LINE
8
BLACK
6
CONTINUOUS
10
-0.016408
20
1.0749
11
-0.0163666
21
1.07431
0
LINE
8
BLACK
6
CONTINUOUS
10
-0.0163666
20
1.07431
11
-0.0163199
21
1.07418
0
LINE
8
BLACK
6
CONTINUOUS
10
-0.0163199
20
1.07418
11
-0.0163199
21
1.06481
0
LINE
8
BLACK
6
CONTINUOUS
10
-0.0163199
20
1.06481
11
-0.0164222
21
1.06423
0
LINE
8
BLACK
6
CONTINUOUS
10
-0.0164222
20
1.06423
11
-0.016408
21
1.06409
0
LINE
8
BLACK
6
CONTINUOUS
10
-0.016408
20
1.06409
11
-0.0182828
21
1.05659
0
LINE
8
BLACK
6
CONTINUOUS
10
-0.0182828
20
1.05659
11
-0.0184904
21
1.05613
0
LINE
8
BLACK
6
CONTINUOUS
10
-0.0184904
20
1.05613
11
-0.0185064
21
1.05599
0
LINE
8
BLACK
6
CONTINUOUS
10
-0.0185064
20
1.05599
11
-0.0203811
21
1.05224
0
LINE
8
BLACK
6
CONTINUOUS
10
-0.0203811
20
1.05224
11
-0.0209071
21
1.05153
0
LINE
8
BLACK
6
CONTINUOUS
10
-0.0209071
20
1.05153
11
-0.0209343
21
1.05147
0
LINE
8
BLACK
6
CONTINUOUS
10
-0.0209343
20
1.05147
11
-0.022809
21
1.0496
0
LINE
8
BLACK
6
CONTINUOUS
10
-0.022809
20
1.0496
11
-0.0235322
21
1.04909
0
LINE
8
BLACK
6
CONTINUOUS
10
-0.0235322
20
1.04909
11
-0.0235764
21
1.04904
0
LINE
8
BLACK
6
CONTINUOUS
10
-0.0235764
20
1.04904
11
-0.0273259
21
1.04717
0
LINE
8
BLACK
6
CONTINUOUS
10
-0.0273259
20
1.04717
11
-0.0283089
21
1.04688
0
LINE
8
BLACK
6
CONTINUOUS
10
-0.0283089
20
1.04688
11
-0.0284806
21
1.04692
0
LINE
8
BLACK
6
CONTINUOUS
10
-0.0284806
20
1.04692
11
-0.0286465
21
1.04686
0
LINE
8
BLACK
6
CONTINUOUS
10
-0.0286465
20
1.04686
11
-0.032396
21
1.04686
0
LINE
8
BLACK
6
CONTINUOUS
10
-0.032396
20
1.04686
11
-0.0334059
21
1.04704
0
LINE
8
BLACK
6
CONTINUOUS
10
-0.0334059
20
1.04704
11
-0.0335412
21
1.04715
0
LINE
8
BLACK
6
CONTINUOUS
10
-0.0335412
20
1.04715
11
-0.0337165
21
1.04717
0
LINE
8
BLACK
6
CONTINUOUS
10
-0.0337165
20
1.04717
11
-0.037466
21
1.04904
0
LINE
8
BLACK
6
CONTINUOUS
10
-0.037466
20
1.04904
11
-0.0381752
21
1.04957
0
LINE
8
BLACK
6
CONTINUOUS
10
-0.0381752
20
1.04957
11
-0.0382335
21
1.0496
0
LINE
8
BLACK
6
CONTINUOUS
10
-0.0382335
20
1.0496
11
-0.0401082
21
1.05147
0
LINE
8
BLACK
6
CONTINUOUS
10
-0.0401082
20
1.05147
11
-0.0406145
21
1.0522
0
LINE
8
BLACK
6
CONTINUOUS
10
-0.0406145
20
1.0522
11
-0.0406613
21
1.05224
0
LINE
8
BLACK
6
CONTINUOUS
10
-0.0406613
20
1.05224
11
-0.0425361
21
1.05599
0
LINE
8
BLACK
6
CONTINUOUS
10
-0.0425361
20
1.05599
11
-0.0426814
21
1.05648
0
LINE
8
BLACK
6
CONTINUOUS
10
-0.0426814
20
1.05648
11
-0.0427596
21
1.05659
0
LINE
8
BLACK
6
CONTINUOUS
10
-0.0427596
20
1.05659
11
-0.0446344
21
1.06409
0
LINE
8
BLACK
6
CONTINUOUS
10
-0.0446344
20
1.06409
11
-0.0446759
21
1.06468
0
LINE
8
BLACK
6
CONTINUOUS
10
-0.0446759
20
1.06468
11
-0.0447226
21
1.06481
0
LINE
8
BLACK
6
CONTINUOUS
10
-0.0447226
20
1.06481
11
-0.0447226
21
1.07418
0
LINE
8
BLACK
6
CONTINUOUS
10
-0.0447226
20
1.07418
11
-0.0446202
21
1.07476
0
LINE
8
BLACK
6
CONTINUOUS
10
-0.0446202
20
1.07476
11
-0.0446344
21
1.0749
0
LINE
8
BLACK
6
CONTINUOUS
10
-0.0446344
20
1.0749
11
-0.0427596
21
1.0824
0
LINE
8
BLACK
6
CONTINUOUS
10
-0.0427596
20
1.0824
11
-0.0425521
21
1.08286
0
LINE
8
BLACK
6
CONTINUOUS
10
-0.0425521
20
1.08286
11
-0.0425361
21
1.083
0
LINE
8
BLACK
6
CONTINUOUS
10
-0.0425361
20
1.083
11
-0.0406613
21
1.08675
0
LINE
8
BLACK
6
CONTINUOUS
10
-0.0406613
20
1.08675
11
-0.0401354
21
1.08746
0
LINE
8
BLACK
6
CONTINUOUS
10
-0.0401354
20
1.08746
11
-0.0401082
21
1.08752
0
LINE
8
BLACK
6
CONTINUOUS
10
-0.0401082
20
1.08752
11
-0.0382334
21
1.08939
0
LINE
8
BLACK
6
CONTINUOUS
10
-0.0382334
20
1.08939
11
-0.0375104
21
1.0899
0
LINE
8
BLACK
6
CONTINUOUS
10
-0.0375104
20
1.0899
11
-0.037466
21
1.08995
0
LINE
8
BLACK
6
CONTINUOUS
10
-0.037466
20
1.08995
11
-0.0337165
21
1.09182
0
LINE
8
BLACK
6
CONTINUOUS
10
-0.0337165
20
1.09182
11
-0.0327336
21
1.09211
0
LINE
8
BLACK
6
CONTINUOUS
10
-0.0327336
20
1.09211
11
-0.0325619
21
1.09207
0
LINE
8
BLACK
6
CONTINUOUS
10
-0.0325619
20
1.09207
11
-0.032396
21
1.09213
0
LINE
8
BLACK
6
CONTINUOUS
10
-0.032396
20
1.09213
11
-0.0286465
21
1.09213
0
LINE
8
BLACK
6
CONTINUOUS
10
-0.0286465
20
1.09213
11
-0.0276365
21
1.09196
0
LINE
8
BLACK
6
CONTINUOUS
10
-0.0343964
20
1.08488
11
-0.0355935
21
1.08368
0
LINE
8
BLACK
6
CONTINUOUS
10
-0.0355935
20
1.08368
11
-0.0371091
21
1.08065
0
LINE
8
BLACK
6
CONTINUOUS
10
-0.0371091
20
1.08065
11
-0.038817
21
1.07382
0
LINE
8
BLACK
6
CONTINUOUS
10
-0.038817
20
1.07382
11
-0.038817
21
1.06517
0
LINE
8
BLACK
6
CONTINUOUS
10
-0.038817
20
1.06517
11
-0.0371091
21
1.05834
0
LINE
8
BLACK
6
CONTINUOUS
10
-0.0371091
20
1.05834
11
-0.0355935
21
1.05531
0
LINE
8
BLACK
6
CONTINUOUS
10
-0.0355935
20
1.05531
11
-0.0343964
21
1.05411
0
LINE
8
BLACK
6
CONTINUOUS
10
-0.0343964
20
1.05411
11
-0.0316989
21
1.05276
0
LINE
8
BLACK
6
CONTINUOUS
10
-0.0316989
20
1.05276
11
-0.0293435
21
1.05276
0
LINE
8
BLACK
6
CONTINUOUS
10
-0.0293435
20
1.05276
11
-0.0266461
21
1.05411
0
LINE
8
BLACK
6
CONTINUOUS
10
-0.0266461
20
1.05411
11
-0.0254489
21
1.05531
0
LINE
8
BLACK
6
CONTINUOUS
10
-0.0254489
20
1.05531
11
-0.0239334
21
1.05834
0
LINE
8
BLACK
6
CONTINUOUS
10
-0.0239334
20
1.05834
11
-0.0222254
21
1.06517
0
LINE
8
BLACK
6
CONTINUOUS
10
-0.0222254
20
1.06517
11
-0.0222254
21
1.07382
0
LINE
8
BLACK
6
CONTINUOUS
10
-0.0222254
20
1.07382
11
-0.0239334
21
1.08065
0
LINE
8
BLACK
6
CONTINUOUS
10
-0.0239334
20
1.08065
11
-0.0254489
21
1.08368
0
LINE
8
BLACK
6
CONTINUOUS
10
-0.0254489
20
1.08368
11
-0.026646
21
1.08488
0
LINE
8
BLACK
6
CONTINUOUS
10
-0.026646
20
1.08488
11
-0.0293435
21
1.08623
0
LINE
8
BLACK
6
CONTINUOUS
10
-0.0293435
20
1.08623
11
-0.0316989
21
1.08623
0
LINE
8
BLACK
6
CONTINUOUS
10
-0.0316989
20
1.08623
11
-0.0343964
21
1.08488
0
LINE
8
BLACK
6
CONTINUOUS
10
0.0076339
20
1.092
11
0.00780331
21
1.09201
0
LINE
8
BLACK
6
CONTINUOUS
10
0.00780331
20
1.09201
11
0.0084939
21
1.09151
0
LINE
8
BLACK
6
CONTINUOUS
10
0.0084939
20
1.09151
11
0.00923602
21
1.09108
0
LINE
8
BLACK
6
CONTINUOUS
10
0.00923602
20
1.09108
11
0.00929406
21
1.09092
0
LINE
8
BLACK
6
CONTINUOUS
10
0.00929406
20
1.09092
11
0.00943094
21
1.09082
0
LINE
8
BLACK
6
CONTINUOUS
10
0.00943094
20
1.09082
11
0.0130183
21
1.08544
0
LINE
8
BLACK
6
CONTINUOUS
10
0.0130183
20
1.08544
11
0.0162222
21
1.08223
0
LINE
8
BLACK
6
CONTINUOUS
10
0.0162222
20
1.08223
11
0.0195432
21
1.08057
0
LINE
8
BLACK
6
CONTINUOUS
10
0.0195432
20
1.08057
11
0.0203669
21
1.07996
0
LINE
8
BLACK
6
CONTINUOUS
10
0.0203669
20
1.07996
11
0.0211701
21
1.07811
0
LINE
8
BLACK
6
CONTINUOUS
10
0.0211701
20
1.07811
11
0.0205943
21
1.07617
0
LINE
8
BLACK
6
CONTINUOUS
10
0.0205943
20
1.07617
11
0.0189087
21
1.07506
0
LINE
8
BLACK
6
CONTINUOUS
10
0.0189087
20
1.07506
11
0.0169022
21
1.07529
0
LINE
8
BLACK
6
CONTINUOUS
10
0.0169022
20
1.07529
11
0.0131526
21
1.07717
0
LINE
8
BLACK
6
CONTINUOUS
10
0.0131526
20
1.07717
11
0.0124435
21
1.07769
0
LINE
8
BLACK
6
CONTINUOUS
10
0.0124435
20
1.07769
11
0.0123852
21
1.07772
0
LINE
8
BLACK
6
CONTINUOUS
10
0.0123852
20
1.07772
11
0.00992685
21
1.08018
0
LINE
8
BLACK
6
CONTINUOUS
10
0.00992685
20
1.08018
11
0.00992685
21
1.05276
0
LINE
8
BLACK
6
CONTINUOUS
10
0.00992685
20
1.05276
11
0.0182227
21
1.05276
0
LINE
8
BLACK
6
CONTINUOUS
10
0.0182227
20
1.05276
11
0.0192326
21
1.05258
0
LINE
8
BLACK
6
CONTINUOUS
10
0.0192326
20
1.05258
11
0.0207798
21
1.05129
0
LINE
8
BLACK
6
CONTINUOUS
10
0.0207798
20
1.05129
11
0.0211306
21
1.0493
0
LINE
8
BLACK
6
CONTINUOUS
10
0.0211306
20
1.0493
11
0.0201207
21
1.04755
0
LINE
8
BLACK
6
CONTINUOUS
10
0.0201207
20
1.04755
11
0.0182227
21
1.04686
0
LINE
8
BLACK
6
CONTINUOUS
10
0.0182227
20
1.04686
11
-0.00427449
21
1.04686
0
LINE
8
BLACK
6
CONTINUOUS
10
-0.00427449
20
1.04686
11
-0.00528441
21
1.04704
0
LINE
8
BLACK
6
CONTINUOUS
10
-0.00528441
20
1.04704
11
-0.00683165
21
1.04833
0
LINE
8
BLACK
6
CONTINUOUS
10
-0.00683165
20
1.04833
11
-0.0071824
21
1.05032
0
LINE
8
BLACK
6
CONTINUOUS
10
-0.0071824
20
1.05032
11
-0.00617248
21
1.05207
0
LINE
8
BLACK
6
CONTINUOUS
10
-0.00617248
20
1.05207
11
-0.00427449
21
1.05276
0
LINE
8
BLACK
6
CONTINUOUS
10
-0.00427449
20
1.05276
11
0.00402134
21
1.05276
0
LINE
8
BLACK
6
CONTINUOUS
10
0.00402134
20
1.05276
11
0.00402134
21
1.08918
0
LINE
8
BLACK
6
CONTINUOUS
10
0.00402134
20
1.08918
11
0.00419941
21
1.09019
0
LINE
8
BLACK
6
CONTINUOUS
10
0.00419941
20
1.09019
11
0.0043085
21
1.09032
0
LINE
8
BLACK
6
CONTINUOUS
10
0.0043085
20
1.09032
11
0.0043272
21
1.09049
0
LINE
8
BLACK
6
CONTINUOUS
10
0.0043272
20
1.09049
11
0.00494681
21
1.09108
0
LINE
8
BLACK
6
CONTINUOUS
10
0.00494681
20
1.09108
11
0.00549772
21
1.09174
0
LINE
8
BLACK
6
CONTINUOUS
10
0.00549772
20
1.09174
11
0.00566492
21
1.09177
0
LINE
8
BLACK
6
CONTINUOUS
10
0.00566492
20
1.09177
11
0.00578772
21
1.09188
0
LINE
8
BLACK
6
CONTINUOUS
10
0.00578772
20
1.09188
11
0.00664283
21
1.09194
0
LINE
8
BLACK
6
CONTINUOUS
10
0.00664283
20
1.09194
11
0.00748685
21
1.09209
0
LINE
8
BLACK
6
CONTINUOUS
10
0.00748685
20
1.09209
11
0.0076339
21
1.092
0
LINE
8
BLACK
6
CONTINUOUS
10
-0.0938798
20
1.09207
11
-0.0937505
21
1.09209
0
LINE
8
BLACK
6
CONTINUOUS
10
-0.0937505
20
1.09209
11
-0.0936369
21
1.09202
0
LINE
8
BLACK
6
CONTINUOUS
10
-0.0936369
20
1.09202
11
-0.0932533
21
1.09196
0
LINE
8
BLACK
6
CONTINUOUS
10
-0.0932533
20
1.09196
11
-0.0926657
21
1.09146
0
LINE
8
BLACK
6
CONTINUOUS
10
-0.0926657
20
1.09146
11
-0.0920013
21
1.09108
0
LINE
8
BLACK
6
CONTINUOUS
10
-0.0920013
20
1.09108
11
-0.0919102
21
1.09083
0
LINE
8
BLACK
6
CONTINUOUS
10
-0.0919102
20
1.09083
11
-0.0917061
21
1.09066
0
LINE
8
BLACK
6
CONTINUOUS
10
-0.0917061
20
1.09066
11
-0.0915729
21
1.0899
0
LINE
8
BLACK
6
CONTINUOUS
10
-0.0915729
20
1.0899
11
-0.0913105
21
1.08918
0
LINE
8
BLACK
6
CONTINUOUS
10
-0.0913105
20
1.08918
11
-0.0913105
21
1.04981
0
LINE
8
BLACK
6
CONTINUOUS
10
-0.0913105
20
1.04981
11
-0.0914886
21
1.0488
0
LINE
8
BLACK
6
CONTINUOUS
10
-0.0914886
20
1.0488
11
-0.0927869
21
1.04725
0
LINE
8
BLACK
6
CONTINUOUS
10
-0.0927869
20
1.04725
11
-0.094776
21
1.0469
0
LINE
8
BLACK
6
CONTINUOUS
10
-0.094776
20
1.0469
11
-0.0965252
21
1.04791
0
LINE
8
BLACK
6
CONTINUOUS
10
-0.0965252
20
1.04791
11
-0.097216
21
1.04981
0
LINE
8
BLACK
6
CONTINUOUS
10
-0.097216
20
1.04981
11
-0.097216
21
1.06748
0
LINE
8
BLACK
6
CONTINUOUS
10
-0.097216
20
1.06748
11
-0.107387
21
1.06748
0
LINE
8
BLACK
6
CONTINUOUS
10
-0.107387
20
1.06748
11
-0.108397
21
1.06766
0
LINE
8
BLACK
6
CONTINUOUS
10
-0.108397
20
1.06766
11
-0.109944
21
1.06896
0
LINE
8
BLACK
6
CONTINUOUS
10
-0.109944
20
1.06896
11
-0.110295
21
1.07095
0
LINE
8
BLACK
6
CONTINUOUS
10
-0.110295
20
1.07095
11
-0.109285
21
1.07269
0
LINE
8
BLACK
6
CONTINUOUS
10
-0.109285
20
1.07269
11
-0.107387
21
1.07339
0
LINE
8
BLACK
6
CONTINUOUS
10
-0.107387
20
1.07339
11
-0.097216
21
1.07339
0
LINE
8
BLACK
6
CONTINUOUS
10
-0.097216
20
1.07339
11
-0.097216
21
1.08623
0
LINE
8
BLACK
6
CONTINUOUS
10
-0.097216
20
1.08623
11
-0.113011
21
1.08623
0
LINE
8
BLACK
6
CONTINUOUS
10
-0.113011
20
1.08623
11
-0.114021
21
1.08641
0
LINE
8
BLACK
6
CONTINUOUS
10
-0.114021
20
1.08641
11
-0.115568
21
1.0877
0
LINE
8
BLACK
6
CONTINUOUS
10
-0.115568
20
1.0877
11
-0.115919
21
1.08969
0
LINE
8
BLACK
6
CONTINUOUS
10
-0.115919
20
1.08969
11
-0.114909
21
1.09144
0
LINE
8
BLACK
6
CONTINUOUS
10
-0.114909
20
1.09144
11
-0.113011
21
1.09213
0
LINE
8
BLACK
6
CONTINUOUS
10
-0.113011
20
1.09213
11
-0.0942633
21
1.09213
0
LINE
8
BLACK
6
CONTINUOUS
10
-0.0942633
20
1.09213
11
-0.0938798
21
1.09207
0
LINE
8
BLACK
6
CONTINUOUS
10
-0.0561494
20
1.14611
11
-0.0559904
21
1.14614
0
LINE
8
BLACK
6
CONTINUOUS
10
-0.0559904
20
1.14614
11
-0.0556094
21
1.14589
0
LINE
8
BLACK
6
CONTINUOUS
10
-0.0556094
20
1.14589
11
-0.0551857
21
1.14571
0
LINE
8
BLACK
6
CONTINUOUS
10
-0.0551857
20
1.14571
11
-0.0551237
21
1.14556
0
LINE
8
BLACK
6
CONTINUOUS
10
-0.0551237
20
1.14556
11
-0.0549889
21
1.14547
0
LINE
8
BLACK
6
CONTINUOUS
10
-0.0549889
20
1.14547
11
-0.0532007
21
1.14279
0
LINE
8
BLACK
6
CONTINUOUS
10
-0.0532007
20
1.14279
11
-0.0516169
21
1.14121
0
LINE
8
BLACK
6
CONTINUOUS
10
-0.0516169
20
1.14121
11
-0.0499707
21
1.14038
0
LINE
8
BLACK
6
CONTINUOUS
10
-0.0499707
20
1.14038
11
-0.049181
21
1.13947
0
LINE
8
BLACK
6
CONTINUOUS
10
-0.049181
20
1.13947
11
-0.0492664
21
1.13827
0
LINE
8
BLACK
6
CONTINUOUS
10
-0.0492664
20
1.13827
11
-0.050177
21
1.13748
0
LINE
8
BLACK
6
CONTINUOUS
10
-0.050177
20
1.13748
11
-0.0513793
21
1.13757
0
LINE
8
BLACK
6
CONTINUOUS
10
-0.0513793
20
1.13757
11
-0.053254
21
1.1385
0
LINE
8
BLACK
6
CONTINUOUS
10
-0.053254
20
1.1385
11
-0.0534238
21
1.1387
0
LINE
8
BLACK
6
CONTINUOUS
10
-0.0534238
20
1.1387
11
-0.0536633
21
1.1388
0
LINE
8
BLACK
6
CONTINUOUS
10
-0.0536633
20
1.1388
11
-0.0547244
21
1.13986
0
LINE
8
BLACK
6
CONTINUOUS
10
-0.0547244
20
1.13986
11
-0.0547244
21
1.12649
0
LINE
8
BLACK
6
CONTINUOUS
10
-0.0547244
20
1.12649
11
-0.050675
21
1.12649
0
LINE
8
BLACK
6
CONTINUOUS
10
-0.050675
20
1.12649
11
-0.0495614
21
1.12603
0
LINE
8
BLACK
6
CONTINUOUS
10
-0.0495614
20
1.12603
11
-0.0491002
21
1.12492
0
LINE
8
BLACK
6
CONTINUOUS
10
-0.0491002
20
1.12492
11
-0.0495614
21
1.1238
0
LINE
8
BLACK
6
CONTINUOUS
10
-0.0495614
20
1.1238
11
-0.050675
21
1.12334
0
LINE
8
BLACK
6
CONTINUOUS
10
-0.050675
20
1.12334
11
-0.0562993
21
1.12334
0
LINE
8
BLACK
6
CONTINUOUS
10
-0.0562993
20
1.12334
11
-0.0619235
21
1.12334
0
LINE
8
BLACK
6
CONTINUOUS
10
-0.0619235
20
1.12334
11
-0.0630371
21
1.1238
0
LINE
8
BLACK
6
CONTINUOUS
10
-0.0630371
20
1.1238
11
-0.0634983
21
1.12492
0
LINE
8
BLACK
6
CONTINUOUS
10
-0.0634983
20
1.12492
11
-0.0630371
21
1.12603
0
LINE
8
BLACK
6
CONTINUOUS
10
-0.0630371
20
1.12603
11
-0.0619235
21
1.12649
0
LINE
8
BLACK
6
CONTINUOUS
10
-0.0619235
20
1.12649
11
-0.0578741
21
1.12649
0
LINE
8
BLACK
6
CONTINUOUS
10
-0.0578741
20
1.12649
11
-0.0578741
21
1.1446
0
LINE
8
BLACK
6
CONTINUOUS
10
-0.0578741
20
1.1446
11
-0.057812
21
1.14475
0
LINE
8
BLACK
6
CONTINUOUS
10
-0.057812
20
1.14475
11
-0.0578435
21
1.14491
0
LINE
8
BLACK
6
CONTINUOUS
10
-0.0578435
20
1.14491
11
-0.0575883
21
1.14529
0
LINE
8
BLACK
6
CONTINUOUS
10
-0.0575883
20
1.14529
11
-0.0574128
21
1.14571
0
LINE
8
BLACK
6
CONTINUOUS
10
-0.0574128
20
1.14571
11
-0.057263
21
1.14578
0
LINE
8
BLACK
6
CONTINUOUS
10
-0.057263
20
1.14578
11
-0.0571728
21
1.14591
0
LINE
8
BLACK
6
CONTINUOUS
10
-0.0571728
20
1.14591
11
-0.056723
21
1.146
0
LINE
8
BLACK
6
CONTINUOUS
10
-0.056723
20
1.146
11
-0.0562993
21
1.14618
0
LINE
8
BLACK
6
CONTINUOUS
10
-0.0562993
20
1.14618
11
-0.0561494
21
1.14611
0
LINE
8
BLACK
6
CONTINUOUS
10
-0.0373121
20
1.14608
11
-0.0370536
21
1.14609
0
LINE
8
BLACK
6
CONTINUOUS
10
-0.0370536
20
1.14609
11
-0.0342415
21
1.14516
0
LINE
8
BLACK
6
CONTINUOUS
10
-0.0342415
20
1.14516
11
-0.0339646
21
1.14492
0
LINE
8
BLACK
6
CONTINUOUS
10
-0.0339646
20
1.14492
11
-0.0336259
21
1.14478
0
LINE
8
BLACK
6
CONTINUOUS
10
-0.0336259
20
1.14478
11
-0.0317511
21
1.1429
0
LINE
8
BLACK
6
CONTINUOUS
10
-0.0317511
20
1.1429
11
-0.031652
21
1.14266
0
LINE
8
BLACK
6
CONTINUOUS
10
-0.031652
20
1.14266
11
-0.0314561
21
1.14249
0
LINE
8
BLACK
6
CONTINUOUS
10
-0.0314561
20
1.14249
11
-0.0305187
21
1.14062
0
LINE
8
BLACK
6
CONTINUOUS
10
-0.0305187
20
1.14062
11
-0.0305061
21
1.14044
0
LINE
8
BLACK
6
CONTINUOUS
10
-0.0305061
20
1.14044
11
-0.0303995
21
1.1403
0
LINE
8
BLACK
6
CONTINUOUS
10
-0.0303995
20
1.1403
11
-0.0294621
21
1.13655
0
LINE
8
BLACK
6
CONTINUOUS
10
-0.0294621
20
1.13655
11
-0.0294915
21
1.13635
0
LINE
8
BLACK
6
CONTINUOUS
10
-0.0294915
20
1.13635
11
-0.0294151
21
1.13616
0
LINE
8
BLACK
6
CONTINUOUS
10
-0.0294151
20
1.13616
11
-0.0294151
21
1.13335
0
LINE
8
BLACK
6
CONTINUOUS
10
-0.0294151
20
1.13335
11
-0.0294915
21
1.13317
0
LINE
8
BLACK
6
CONTINUOUS
10
-0.0294915
20
1.13317
11
-0.0294621
21
1.13297
0
LINE
8
BLACK
6
CONTINUOUS
10
-0.0294621
20
1.13297
11
-0.0303995
21
1.12922
0
LINE
8
BLACK
6
CONTINUOUS
10
-0.0303995
20
1.12922
11
-0.0305061
21
1.12908
0
LINE
8
BLACK
6
CONTINUOUS
10
-0.0305061
20
1.12908
11
-0.0305187
21
1.1289
0
LINE
8
BLACK
6
CONTINUOUS
10
-0.0305187
20
1.1289
11
-0.0314561
21
1.12702
0
LINE
8
BLACK
6
CONTINUOUS
10
-0.0314561
20
1.12702
11
-0.031652
21
1.12685
0
LINE
8
BLACK
6
CONTINUOUS
10
-0.031652
20
1.12685
11
-0.0317511
21
1.12661
0
LINE
8
BLACK
6
CONTINUOUS
10
-0.0317511
20
1.12661
11
-0.0336259
21
1.12474
0
LINE
8
BLACK
6
CONTINUOUS
10
-0.0336259
20
1.12474
11
-0.0339646
21
1.1246
0
LINE
8
BLACK
6
CONTINUOUS
10
-0.0339646
20
1.1246
11
-0.0342415
21
1.12436
0
LINE
8
BLACK
6
CONTINUOUS
10
-0.0342415
20
1.12436
11
-0.0370536
21
1.12342
0
LINE
8
BLACK
6
CONTINUOUS
10
-0.0370536
20
1.12342
11
-0.0373121
21
1.12344
0
LINE
8
BLACK
6
CONTINUOUS
10
-0.0373121
20
1.12344
11
-0.0375516
21
1.12334
0
LINE
8
BLACK
6
CONTINUOUS
10
-0.0375516
20
1.12334
11
-0.0394263
21
1.12334
0
LINE
8
BLACK
6
CONTINUOUS
10
-0.0394263
20
1.12334
11
-0.0396657
21
1.12344
0
LINE
8
BLACK
6
CONTINUOUS
10
-0.0396657
20
1.12344
11
-0.0399243
21
1.12342
0
LINE
8
BLACK
6
CONTINUOUS
10
-0.0399243
20
1.12342
11
-0.0427365
21
1.12436
0
LINE
8
BLACK
6
CONTINUOUS
10
-0.0427365
20
1.12436
11
-0.0430134
21
1.1246
0
LINE
8
BLACK
6
CONTINUOUS
10
-0.0430134
20
1.1246
11
-0.0433521
21
1.12474
0
LINE
8
BLACK
6
CONTINUOUS
10
-0.0433521
20
1.12474
11
-0.0442894
21
1.12568
0
LINE
8
BLACK
6
CONTINUOUS
10
-0.0442894
20
1.12568
11
-0.0447507
21
1.12679
0
LINE
8
BLACK
6
CONTINUOUS
10
-0.0447507
20
1.12679
11
-0.0442894
21
1.1279
0
LINE
8
BLACK
6
CONTINUOUS
10
-0.0442894
20
1.1279
11
-0.0431758
21
1.12836
0
LINE
8
BLACK
6
CONTINUOUS
10
-0.0431758
20
1.12836
11
-0.0420623
21
1.1279
0
LINE
8
BLACK
6
CONTINUOUS
10
-0.0420623
20
1.1279
11
-0.0413878
21
1.12723
0
LINE
8
BLACK
6
CONTINUOUS
10
-0.0413878
20
1.12723
11
-0.0391708
21
1.12649
0
LINE
8
BLACK
6
CONTINUOUS
10
-0.0391708
20
1.12649
11
-0.0378071
21
1.12649
0
LINE
8
BLACK
6
CONTINUOUS
10
-0.0378071
20
1.12649
11
-0.0355902
21
1.12723
0
LINE
8
BLACK
6
CONTINUOUS
10
-0.0355902
20
1.12723
11
-0.0341589
21
1.12866
0
LINE
8
BLACK
6
CONTINUOUS
10
-0.0341589
20
1.12866
11
-0.0334132
21
1.13015
0
LINE
8
BLACK
6
CONTINUOUS
10
-0.0334132
20
1.13015
11
-0.0325647
21
1.13355
0
LINE
8
BLACK
6
CONTINUOUS
10
-0.0325647
20
1.13355
11
-0.0325647
21
1.13597
0
LINE
8
BLACK
6
CONTINUOUS
10
-0.0325647
20
1.13597
11
-0.0334132
21
1.13936
0
LINE
8
BLACK
6
CONTINUOUS
10
-0.0334132
20
1.13936
11
-0.0341589
21
1.14086
0
LINE
8
BLACK
6
CONTINUOUS
10
-0.0341589
20
1.14086
11
-0.0355902
21
1.14229
0
LINE
8
BLACK
6
CONTINUOUS
10
-0.0355902
20
1.14229
11
-0.0378071
21
1.14303
0
LINE
8
BLACK
6
CONTINUOUS
10
-0.0378071
20
1.14303
11
-0.0391708
21
1.14303
0
LINE
8
BLACK
6
CONTINUOUS
10
-0.0391708
20
1.14303
11
-0.0413878
21
1.14229
0
LINE
8
BLACK
6
CONTINUOUS
10
-0.0413878
20
1.14229
11
-0.0420623
21
1.14161
0
LINE
8
BLACK
6
CONTINUOUS
10
-0.0420623
20
1.14161
11
-0.0431759
21
1.14115
0
LINE
8
BLACK
6
CONTINUOUS
10
-0.0431759
20
1.14115
11
-0.0442894
21
1.14161
0
LINE
8
BLACK
6
CONTINUOUS
10
-0.0442894
20
1.14161
11
-0.0447507
21
1.14273
0
LINE
8
BLACK
6
CONTINUOUS
10
-0.0447507
20
1.14273
11
-0.0442894
21
1.14384
0
LINE
8
BLACK
6
CONTINUOUS
10
-0.0442894
20
1.14384
11
-0.043352
21
1.14478
0
LINE
8
BLACK
6
CONTINUOUS
10
-0.043352
20
1.14478
11
-0.0430134
21
1.14492
0
LINE
8
BLACK
6
CONTINUOUS
10
-0.0430134
20
1.14492
11
-0.0427365
21
1.14516
0
LINE
8
BLACK
6
CONTINUOUS
10
-0.0427365
20
1.14516
11
-0.0399243
21
1.14609
0
LINE
8
BLACK
6
CONTINUOUS
10
-0.0399243
20
1.14609
11
-0.0396658
21
1.14608
0
LINE
8
BLACK
6
CONTINUOUS
10
-0.0396658
20
1.14608
11
-0.0394263
21
1.14618
0
LINE
8
BLACK
6
CONTINUOUS
10
-0.0394263
20
1.14618
11
-0.0375516
21
1.14618
0
LINE
8
BLACK
6
CONTINUOUS
10
-0.0375516
20
1.14618
11
-0.0373121
21
1.14608
0
LINE
8
BLACK
6
CONTINUOUS
10
-0.00708661
20
1.16043
11
-0.00569469
21
1.15986
0
LINE
8
BLACK
6
CONTINUOUS
10
-0.00569469
20
1.15986
11
-0.00511811
21
1.15846
0
LINE
8
BLACK
6
CONTINUOUS
10
-0.00511811
20
1.15846
11
-0.00511811
21
1.10925
0
LINE
8
BLACK
6
CONTINUOUS
10
-0.00511811
20
1.10925
11
-0.00569469
21
1.10786
0
LINE
8
BLACK
6
CONTINUOUS
10
-0.00569469
20
1.10786
11
-0.00708661
21
1.10728
0
LINE
8
BLACK
6
CONTINUOUS
10
-0.00708661
20
1.10728
11
-0.0858268
21
1.10728
0
LINE
8
BLACK
6
CONTINUOUS
10
-0.0858268
20
1.10728
11
-0.0872187
21
1.10786
0
LINE
8
BLACK
6
CONTINUOUS
10
-0.0872187
20
1.10786
11
-0.0877953
21
1.10925
0
LINE
8
BLACK
6
CONTINUOUS
10
-0.0877953
20
1.10925
11
-0.0877953
21
1.15846
0
LINE
8
BLACK
6
CONTINUOUS
10
-0.0877953
20
1.15846
11
-0.0872187
21
1.15986
0
LINE
8
BLACK
6
CONTINUOUS
10
-0.0872187
20
1.15986
11
-0.0858268
21
1.16043
0
LINE
8
BLACK
6
CONTINUOUS
10
-0.0858268
20
1.16043
11
-0.00708661
21
1.16043
0
LINE
8
BLACK
6
CONTINUOUS
10
-0.0838583
20
1.1565
11
-0.0838583
21
1.11122
0
LINE
8
BLACK
6
CONTINUOUS
10
-0.0838583
20
1.11122
11
-0.00905512
21
1.11122
0
LINE
8
BLACK
6
CONTINUOUS
10
-0.00905512
20
1.11122
11
-0.00905512
21
1.1565
0
LINE
8
BLACK
6
CONTINUOUS
10
-0.00905512
20
1.1565
11
-0.0838583
21
1.1565
0
LINE
8
BLACK
6
CONTINUOUS
10
0.233945
20
1.26177
11
0.234636
21
1.25987
0
LINE
8
BLACK
6
CONTINUOUS
10
0.234636
20
1.25987
11
0.234636
21
1.25869
0
LINE
8
BLACK
6
CONTINUOUS
10
0.234636
20
1.25869
11
0.235985
21
1.25599
0
LINE
8
BLACK
6
CONTINUOUS
10
0.235985
20
1.25599
11
0.237521
21
1.25446
0
LINE
8
BLACK
6
CONTINUOUS
10
0.237521
20
1.25446
11
0.238109
21
1.25362
0
LINE
8
BLACK
6
CONTINUOUS
10
0.238109
20
1.25362
11
0.238285
21
1.25161
0
LINE
8
BLACK
6
CONTINUOUS
10
0.238285
20
1.25161
11
0.237127
21
1.24995
0
LINE
8
BLACK
6
CONTINUOUS
10
0.237127
20
1.24995
11
0.235176
21
1.24943
0
LINE
8
BLACK
6
CONTINUOUS
10
0.235176
20
1.24943
11
0.233345
21
1.25028
0
LINE
8
BLACK
6
CONTINUOUS
10
0.233345
20
1.25028
11
0.23147
21
1.25216
0
LINE
8
BLACK
6
CONTINUOUS
10
0.23147
20
1.25216
11
0.230964
21
1.25288
0
LINE
8
BLACK
6
CONTINUOUS
10
0.230964
20
1.25288
11
0.230917
21
1.25292
0
LINE
8
BLACK
6
CONTINUOUS
10
0.230917
20
1.25292
11
0.229042
21
1.25667
0
LINE
8
BLACK
6
CONTINUOUS
10
0.229042
20
1.25667
11
0.22875
21
1.25766
0
LINE
8
BLACK
6
CONTINUOUS
10
0.22875
20
1.25766
11
0.228791
21
1.25783
0
LINE
8
BLACK
6
CONTINUOUS
10
0.228791
20
1.25783
11
0.228731
21
1.25799
0
LINE
8
BLACK
6
CONTINUOUS
10
0.228731
20
1.25799
11
0.228731
21
1.25987
0
LINE
8
BLACK
6
CONTINUOUS
10
0.228731
20
1.25987
11
0.228909
21
1.26088
0
LINE
8
BLACK
6
CONTINUOUS
10
0.228909
20
1.26088
11
0.230207
21
1.26243
0
LINE
8
BLACK
6
CONTINUOUS
10
0.230207
20
1.26243
11
0.232196
21
1.26278
0
LINE
8
BLACK
6
CONTINUOUS
10
0.232196
20
1.26278
11
0.233945
21
1.26177
0
LINE
8
BLACK
6
CONTINUOUS
10
0.206447
20
1.30014
11
0.206582
21
1.30003
0
LINE
8
BLACK
6
CONTINUOUS
10
0.206582
20
1.30003
11
0.206757
21
1.3
0
LINE
8
BLACK
6
CONTINUOUS
10
0.206757
20
1.3
11
0.210507
21
1.29813
0
LINE
8
BLACK
6
CONTINUOUS
10
0.210507
20
1.29813
11
0.211216
21
1.2976
0
LINE
8
BLACK
6
CONTINUOUS
10
0.211216
20
1.2976
11
0.211274
21
1.29758
0
LINE
8
BLACK
6
CONTINUOUS
10
0.211274
20
1.29758
11
0.213149
21
1.2957
0
LINE
8
BLACK
6
CONTINUOUS
10
0.213149
20
1.2957
11
0.213407
21
1.29533
0
LINE
8
BLACK
6
CONTINUOUS
10
0.213407
20
1.29533
11
0.213518
21
1.29525
0
LINE
8
BLACK
6
CONTINUOUS
10
0.213518
20
1.29525
11
0.217267
21
1.28963
0
LINE
8
BLACK
6
CONTINUOUS
10
0.217267
20
1.28963
11
0.217666
21
1.28872
0
LINE
8
BLACK
6
CONTINUOUS
10
0.217666
20
1.28872
11
0.217675
21
1.28871
0
LINE
8
BLACK
6
CONTINUOUS
10
0.217675
20
1.28871
11
0.21955
21
1.28121
0
LINE
8
BLACK
6
CONTINUOUS
10
0.21955
20
1.28121
11
0.219591
21
1.28062
0
LINE
8
BLACK
6
CONTINUOUS
10
0.219591
20
1.28062
11
0.219638
21
1.28049
0
LINE
8
BLACK
6
CONTINUOUS
10
0.219638
20
1.28049
11
0.219638
21
1.26549
0
LINE
8
BLACK
6
CONTINUOUS
10
0.219638
20
1.26549
11
0.21946
21
1.26448
0
LINE
8
BLACK
6
CONTINUOUS
10
0.21946
20
1.26448
11
0.219347
21
1.26435
0
LINE
8
BLACK
6
CONTINUOUS
10
0.219347
20
1.26435
11
0.219326
21
1.26417
0
LINE
8
BLACK
6
CONTINUOUS
10
0.219326
20
1.26417
11
0.217452
21
1.26042
0
LINE
8
BLACK
6
CONTINUOUS
10
0.217452
20
1.26042
11
0.216926
21
1.25971
0
LINE
8
BLACK
6
CONTINUOUS
10
0.216926
20
1.25971
11
0.216899
21
1.25966
0
LINE
8
BLACK
6
CONTINUOUS
10
0.216899
20
1.25966
11
0.215024
21
1.25778
0
LINE
8
BLACK
6
CONTINUOUS
10
0.215024
20
1.25778
11
0.214301
21
1.25727
0
LINE
8
BLACK
6
CONTINUOUS
10
0.214301
20
1.25727
11
0.214256
21
1.25723
0
LINE
8
BLACK
6
CONTINUOUS
10
0.214256
20
1.25723
11
0.210507
21
1.25535
0
LINE
8
BLACK
6
CONTINUOUS
10
0.210507
20
1.25535
11
0.209524
21
1.25506
0
LINE
8
BLACK
6
CONTINUOUS
10
0.209524
20
1.25506
11
0.209352
21
1.2551
0
LINE
8
BLACK
6
CONTINUOUS
10
0.209352
20
1.2551
11
0.209186
21
1.25504
0
LINE
8
BLACK
6
CONTINUOUS
10
0.209186
20
1.25504
11
0.201687
21
1.25504
0
LINE
8
BLACK
6
CONTINUOUS
10
0.201687
20
1.25504
11
0.200677
21
1.25522
0
LINE
8
BLACK
6
CONTINUOUS
10
0.200677
20
1.25522
11
0.200542
21
1.25533
0
LINE
8
BLACK
6
CONTINUOUS
10
0.200542
20
1.25533
11
0.200367
21
1.25535
0
LINE
8
BLACK
6
CONTINUOUS
10
0.200367
20
1.25535
11
0.196617
21
1.25723
0
LINE
8
BLACK
6
CONTINUOUS
10
0.196617
20
1.25723
11
0.195908
21
1.25775
0
LINE
8
BLACK
6
CONTINUOUS
10
0.195908
20
1.25775
11
0.19585
21
1.25778
0
LINE
8
BLACK
6
CONTINUOUS
10
0.19585
20
1.25778
11
0.193975
21
1.25966
0
LINE
8
BLACK
6
CONTINUOUS
10
0.193975
20
1.25966
11
0.193469
21
1.26038
0
LINE
8
BLACK
6
CONTINUOUS
10
0.193469
20
1.26038
11
0.193422
21
1.26042
0
LINE
8
BLACK
6
CONTINUOUS
10
0.193422
20
1.26042
11
0.191547
21
1.26417
0
LINE
8
BLACK
6
CONTINUOUS
10
0.191547
20
1.26417
11
0.191255
21
1.26516
0
LINE
8
BLACK
6
CONTINUOUS
10
0.191255
20
1.26516
11
0.191296
21
1.26533
0
LINE
8
BLACK
6
CONTINUOUS
10
0.191296
20
1.26533
11
0.191235
21
1.26549
0
LINE
8
BLACK
6
CONTINUOUS
10
0.191235
20
1.26549
11
0.191235
21
1.27487
0
LINE
8
BLACK
6
CONTINUOUS
10
0.191235
20
1.27487
11
0.191414
21
1.27588
0
LINE
8
BLACK
6
CONTINUOUS
10
0.191414
20
1.27588
11
0.191527
21
1.27601
0
LINE
8
BLACK
6
CONTINUOUS
10
0.191527
20
1.27601
11
0.191547
21
1.27619
0
LINE
8
BLACK
6
CONTINUOUS
10
0.191547
20
1.27619
11
0.193422
21
1.27994
0
LINE
8
BLACK
6
CONTINUOUS
10
0.193422
20
1.27994
11
0.193948
21
1.28065
0
LINE
8
BLACK
6
CONTINUOUS
10
0.193948
20
1.28065
11
0.193975
21
1.2807
0
LINE
8
BLACK
6
CONTINUOUS
10
0.193975
20
1.2807
11
0.19585
21
1.28258
0
LINE
8
BLACK
6
CONTINUOUS
10
0.19585
20
1.28258
11
0.196573
21
1.28309
0
LINE
8
BLACK
6
CONTINUOUS
10
0.196573
20
1.28309
11
0.196617
21
1.28313
0
LINE
8
BLACK
6
CONTINUOUS
10
0.196617
20
1.28313
11
0.200367
21
1.28501
0
LINE
8
BLACK
6
CONTINUOUS
10
0.200367
20
1.28501
11
0.20135
21
1.2853
0
LINE
8
BLACK
6
CONTINUOUS
10
0.20135
20
1.2853
11
0.201521
21
1.28526
0
LINE
8
BLACK
6
CONTINUOUS
10
0.201521
20
1.28526
11
0.201687
21
1.28532
0
LINE
8
BLACK
6
CONTINUOUS
10
0.201687
20
1.28532
11
0.209186
21
1.28532
0
LINE
8
BLACK
6
CONTINUOUS
10
0.209186
20
1.28532
11
0.210196
21
1.28514
0
LINE
8
BLACK
6
CONTINUOUS
10
0.210196
20
1.28514
11
0.210331
21
1.28503
0
LINE
8
BLACK
6
CONTINUOUS
10
0.210331
20
1.28503
11
0.210507
21
1.28501
0
LINE
8
BLACK
6
CONTINUOUS
10
0.210507
20
1.28501
11
0.212799
21
1.28386
0
LINE
8
BLACK
6
CONTINUOUS
10
0.212799
20
1.28386
11
0.21207
21
1.28678
0
LINE
8
BLACK
6
CONTINUOUS
10
0.21207
20
1.28678
11
0.208766
21
1.29173
0
LINE
8
BLACK
6
CONTINUOUS
10
0.208766
20
1.29173
11
0.207437
21
1.29306
0
LINE
8
BLACK
6
CONTINUOUS
10
0.207437
20
1.29306
11
0.20474
21
1.29441
0
LINE
8
BLACK
6
CONTINUOUS
10
0.20474
20
1.29441
11
0.197938
21
1.29441
0
LINE
8
BLACK
6
CONTINUOUS
10
0.197938
20
1.29441
11
0.196928
21
1.29459
0
LINE
8
BLACK
6
CONTINUOUS
10
0.196928
20
1.29459
11
0.195381
21
1.29589
0
LINE
8
BLACK
6
CONTINUOUS
10
0.195381
20
1.29589
11
0.19503
21
1.29788
0
LINE
8
BLACK
6
CONTINUOUS
10
0.19503
20
1.29788
11
0.19604
21
1.29963
0
LINE
8
BLACK
6
CONTINUOUS
10
0.19604
20
1.29963
11
0.197938
21
1.30032
0
LINE
8
BLACK
6
CONTINUOUS
10
0.197938
20
1.30032
11
0.205437
21
1.30032
0
LINE
8
BLACK
6
CONTINUOUS
10
0.205437
20
1.30032
11
0.206447
21
1.30014
0
LINE
8
BLACK
6
CONTINUOUS
10
0.199687
20
1.27806
11
0.19849
21
1.27687
0
LINE
8
BLACK
6
CONTINUOUS
10
0.19849
20
1.27687
11
0.197141
21
1.27417
0
LINE
8
BLACK
6
CONTINUOUS
10
0.197141
20
1.27417
11
0.197141
21
1.26619
0
LINE
8
BLACK
6
CONTINUOUS
10
0.197141
20
1.26619
11
0.19849
21
1.26349
0
LINE
8
BLACK
6
CONTINUOUS
10
0.19849
20
1.26349
11
0.199687
21
1.2623
0
LINE
8
BLACK
6
CONTINUOUS
10
0.199687
20
1.2623
11
0.202384
21
1.26095
0
LINE
8
BLACK
6
CONTINUOUS
10
0.202384
20
1.26095
11
0.208489
21
1.26095
0
LINE
8
BLACK
6
CONTINUOUS
10
0.208489
20
1.26095
11
0.211187
21
1.2623
0
LINE
8
BLACK
6
CONTINUOUS
10
0.211187
20
1.2623
11
0.212384
21
1.26349
0
LINE
8
BLACK
6
CONTINUOUS
10
0.212384
20
1.26349
11
0.213733
21
1.26619
0
LINE
8
BLACK
6
CONTINUOUS
10
0.213733
20
1.26619
11
0.213733
21
1.27417
0
LINE
8
BLACK
6
CONTINUOUS
10
0.213733
20
1.27417
11
0.212384
21
1.27687
0
LINE
8
BLACK
6
CONTINUOUS
10
0.212384
20
1.27687
11
0.211187
21
1.27806
0
LINE
8
BLACK
6
CONTINUOUS
10
0.211187
20
1.27806
11
0.208489
21
1.27941
0
LINE
8
BLACK
6
CONTINUOUS
10
0.208489
20
1.27941
11
0.202384
21
1.27941
0
LINE
8
BLACK
6
CONTINUOUS
10
0.202384
20
1.27941
11
0.199687
21
1.27806
0
LINE
8
BLACK
6
CONTINUOUS
10
0.271207
20
1.30029
11
0.271274
21
1.30031
0
LINE
8
BLACK
6
CONTINUOUS
10
0.271274
20
1.30031
11
0.271386
21
1.30026
0
LINE
8
BLACK
6
CONTINUOUS
10
0.271386
20
1.30026
11
0.272064
21
1.30014
0
LINE
8
BLACK
6
CONTINUOUS
10
0.272064
20
1.30014
11
0.272544
21
1.29974
0
LINE
8
BLACK
6
CONTINUOUS
10
0.272544
20
1.29974
11
0.273115
21
1.29948
0
LINE
8
BLACK
6
CONTINUOUS
10
0.273115
20
1.29948
11
0.273294
21
1.29911
0
LINE
8
BLACK
6
CONTINUOUS
10
0.273294
20
1.29911
11
0.273611
21
1.29884
0
LINE
8
BLACK
6
CONTINUOUS
10
0.273611
20
1.29884
11
0.27372
21
1.29822
0
LINE
8
BLACK
6
CONTINUOUS
10
0.27372
20
1.29822
11
0.273992
21
1.29766
0
LINE
8
BLACK
6
CONTINUOUS
10
0.273992
20
1.29766
11
0.275866
21
1.27891
0
LINE
8
BLACK
6
CONTINUOUS
10
0.275866
20
1.27891
11
0.27579
21
1.27789
0
LINE
8
BLACK
6
CONTINUOUS
10
0.27579
20
1.27789
11
0.275779
21
1.27787
0
LINE
8
BLACK
6
CONTINUOUS
10
0.275779
20
1.27787
11
0.27578
21
1.27785
0
LINE
8
BLACK
6
CONTINUOUS
10
0.27578
20
1.27785
11
0.275212
21
1.27704
0
LINE
8
BLACK
6
CONTINUOUS
10
0.275212
20
1.27704
11
0.274652
21
1.27622
0
LINE
8
BLACK
6
CONTINUOUS
10
0.274652
20
1.27622
11
0.274633
21
1.27621
0
LINE
8
BLACK
6
CONTINUOUS
10
0.274633
20
1.27621
11
0.274622
21
1.2762
0
LINE
8
BLACK
6
CONTINUOUS
10
0.274622
20
1.2762
11
0.273663
21
1.27594
0
LINE
8
BLACK
6
CONTINUOUS
10
0.273663
20
1.27594
11
0.272707
21
1.27567
0
LINE
8
BLACK
6
CONTINUOUS
10
0.272707
20
1.27567
11
0.27269
21
1.27568
0
LINE
8
BLACK
6
CONTINUOUS
10
0.27269
20
1.27568
11
0.272671
21
1.27567
0
LINE
8
BLACK
6
CONTINUOUS
10
0.272671
20
1.27567
11
0.271773
21
1.27609
0
LINE
8
BLACK
6
CONTINUOUS
10
0.271773
20
1.27609
11
0.270866
21
1.2765
0
LINE
8
BLACK
6
CONTINUOUS
10
0.270866
20
1.2765
11
0.270858
21
1.27652
0
LINE
8
BLACK
6
CONTINUOUS
10
0.270858
20
1.27652
11
0.27084
21
1.27653
0
LINE
8
BLACK
6
CONTINUOUS
10
0.27084
20
1.27653
11
0.269304
21
1.27806
0
LINE
8
BLACK
6
CONTINUOUS
10
0.269304
20
1.27806
11
0.266607
21
1.27941
0
LINE
8
BLACK
6
CONTINUOUS
10
0.266607
20
1.27941
11
0.258627
21
1.27941
0
LINE
8
BLACK
6
CONTINUOUS
10
0.258627
20
1.27941
11
0.25593
21
1.27806
0
LINE
8
BLACK
6
CONTINUOUS
10
0.25593
20
1.27806
11
0.254733
21
1.27687
0
LINE
8
BLACK
6
CONTINUOUS
10
0.254733
20
1.27687
11
0.253384
21
1.27417
0
LINE
8
BLACK
6
CONTINUOUS
10
0.253384
20
1.27417
11
0.253384
21
1.26619
0
LINE
8
BLACK
6
CONTINUOUS
10
0.253384
20
1.26619
11
0.254733
21
1.26349
0
LINE
8
BLACK
6
CONTINUOUS
10
0.254733
20
1.26349
11
0.25593
21
1.2623
0
LINE
8
BLACK
6
CONTINUOUS
10
0.25593
20
1.2623
11
0.258627
21
1.26095
0
LINE
8
BLACK
6
CONTINUOUS
10
0.258627
20
1.26095
11
0.266607
21
1.26095
0
LINE
8
BLACK
6
CONTINUOUS
10
0.266607
20
1.26095
11
0.269304
21
1.2623
0
LINE
8
BLACK
6
CONTINUOUS
10
0.269304
20
1.2623
11
0.27084
21
1.26383
0
LINE
8
BLACK
6
CONTINUOUS
10
0.27084
20
1.26383
11
0.27168
21
1.26442
0
LINE
8
BLACK
6
CONTINUOUS
10
0.27168
20
1.26442
11
0.273693
21
1.2646
0
LINE
8
BLACK
6
CONTINUOUS
10
0.273693
20
1.2646
11
0.275347
21
1.26344
0
LINE
8
BLACK
6
CONTINUOUS
10
0.275347
20
1.26344
11
0.27587
21
1.26149
0
LINE
8
BLACK
6
CONTINUOUS
10
0.27587
20
1.26149
11
0.275016
21
1.25966
0
LINE
8
BLACK
6
CONTINUOUS
10
0.275016
20
1.25966
11
0.273142
21
1.25778
0
LINE
8
BLACK
6
CONTINUOUS
10
0.273142
20
1.25778
11
0.272418
21
1.25727
0
LINE
8
BLACK
6
CONTINUOUS
10
0.272418
20
1.25727
11
0.272374
21
1.25723
0
LINE
8
BLACK
6
CONTINUOUS
10
0.272374
20
1.25723
11
0.268625
21
1.25535
0
LINE
8
BLACK
6
CONTINUOUS
10
0.268625
20
1.25535
11
0.267642
21
1.25506
0
LINE
8
BLACK
6
CONTINUOUS
10
0.267642
20
1.25506
11
0.26747
21
1.2551
0
LINE
8
BLACK
6
CONTINUOUS
10
0.26747
20
1.2551
11
0.267304
21
1.25504
0
LINE
8
BLACK
6
CONTINUOUS
10
0.267304
20
1.25504
11
0.25793
21
1.25504
0
LINE
8
BLACK
6
CONTINUOUS
10
0.25793
20
1.25504
11
0.25692
21
1.25522
0
LINE
8
BLACK
6
CONTINUOUS
10
0.25692
20
1.25522
11
0.256785
21
1.25533
0
LINE
8
BLACK
6
CONTINUOUS
10
0.256785
20
1.25533
11
0.25661
21
1.25535
0
LINE
8
BLACK
6
CONTINUOUS
10
0.25661
20
1.25535
11
0.25286
21
1.25723
0
LINE
8
BLACK
6
CONTINUOUS
10
0.25286
20
1.25723
11
0.252151
21
1.25775
0
LINE
8
BLACK
6
CONTINUOUS
10
0.252151
20
1.25775
11
0.252093
21
1.25778
0
LINE
8
BLACK
6
CONTINUOUS
10
0.252093
20
1.25778
11
0.250218
21
1.25966
0
LINE
8
BLACK
6
CONTINUOUS
10
0.250218
20
1.25966
11
0.249712
21
1.26038
0
LINE
8
BLACK
6
CONTINUOUS
10
0.249712
20
1.26038
11
0.249665
21
1.26042
0
LINE
8
BLACK
6
CONTINUOUS
10
0.249665
20
1.26042
11
0.24779
21
1.26417
0
LINE
8
BLACK
6
CONTINUOUS
10
0.24779
20
1.26417
11
0.247498
21
1.26516
0
LINE
8
BLACK
6
CONTINUOUS
10
0.247498
20
1.26516
11
0.247539
21
1.26533
0
LINE
8
BLACK
6
CONTINUOUS
10
0.247539
20
1.26533
11
0.247478
21
1.26549
0
LINE
8
BLACK
6
CONTINUOUS
10
0.247478
20
1.26549
11
0.247478
21
1.27487
0
LINE
8
BLACK
6
CONTINUOUS
10
0.247478
20
1.27487
11
0.247656
21
1.27588
0
LINE
8
BLACK
6
CONTINUOUS
10
0.247656
20
1.27588
11
0.24777
21
1.27601
0
LINE
8
BLACK
6
CONTINUOUS
10
0.24777
20
1.27601
11
0.24779
21
1.27619
0
LINE
8
BLACK
6
CONTINUOUS
10
0.24779
20
1.27619
11
0.249665
21
1.27994
0
LINE
8
BLACK
6
CONTINUOUS
10
0.249665
20
1.27994
11
0.250191
21
1.28065
0
LINE
8
BLACK
6
CONTINUOUS
10
0.250191
20
1.28065
11
0.250218
21
1.2807
0
LINE
8
BLACK
6
CONTINUOUS
10
0.250218
20
1.2807
11
0.252093
21
1.28258
0
LINE
8
BLACK
6
CONTINUOUS
10
0.252093
20
1.28258
11
0.252816
21
1.28309
0
LINE
8
BLACK
6
CONTINUOUS
10
0.252816
20
1.28309
11
0.25286
21
1.28313
0
LINE
8
BLACK
6
CONTINUOUS
10
0.25286
20
1.28313
11
0.25661
21
1.28501
0
LINE
8
BLACK
6
CONTINUOUS
10
0.25661
20
1.28501
11
0.257593
21
1.2853
0
LINE
8
BLACK
6
CONTINUOUS
10
0.257593
20
1.2853
11
0.257764
21
1.28526
0
LINE
8
BLACK
6
CONTINUOUS
10
0.257764
20
1.28526
11
0.25793
21
1.28532
0
LINE
8
BLACK
6
CONTINUOUS
10
0.25793
20
1.28532
11
0.267304
21
1.28532
0
LINE
8
BLACK
6
CONTINUOUS
10
0.267304
20
1.28532
11
0.268314
21
1.28514
0
LINE
8
BLACK
6
CONTINUOUS
10
0.268314
20
1.28514
11
0.268449
21
1.28503
0
LINE
8
BLACK
6
CONTINUOUS
10
0.268449
20
1.28503
11
0.268625
21
1.28501
0
LINE
8
BLACK
6
CONTINUOUS
10
0.268625
20
1.28501
11
0.269358
21
1.28464
0
LINE
8
BLACK
6
CONTINUOUS
10
0.269358
20
1.28464
11
0.268381
21
1.29441
0
LINE
8
BLACK
6
CONTINUOUS
10
0.268381
20
1.29441
11
0.252306
21
1.29441
0
LINE
8
BLACK
6
CONTINUOUS
10
0.252306
20
1.29441
11
0.251296
21
1.29459
0
LINE
8
BLACK
6
CONTINUOUS
10
0.251296
20
1.29459
11
0.249749
21
1.29589
0
LINE
8
BLACK
6
CONTINUOUS
10
0.249749
20
1.29589
11
0.249398
21
1.29788
0
LINE
8
BLACK
6
CONTINUOUS
10
0.249398
20
1.29788
11
0.250408
21
1.29963
0
LINE
8
BLACK
6
CONTINUOUS
10
0.250408
20
1.29963
11
0.252306
21
1.30032
0
LINE
8
BLACK
6
CONTINUOUS
10
0.252306
20
1.30032
11
0.271054
21
1.30032
0
LINE
8
BLACK
6
CONTINUOUS
10
0.271054
20
1.30032
11
0.271207
21
1.30029
0
LINE
8
BLACK
6
CONTINUOUS
10
0.348788
20
1.30016
11
0.348853
21
1.30017
0
LINE
8
BLACK
6
CONTINUOUS
10
0.348853
20
1.30017
11
0.354477
21
1.29829
0
LINE
8
BLACK
6
CONTINUOUS
10
0.354477
20
1.29829
11
0.355379
21
1.2978
0
LINE
8
BLACK
6
CONTINUOUS
10
0.355379
20
1.2978
11
0.355471
21
1.29765
0
LINE
8
BLACK
6
CONTINUOUS
10
0.355471
20
1.29765
11
0.355631
21
1.29758
0
LINE
8
BLACK
6
CONTINUOUS
10
0.355631
20
1.29758
11
0.359381
21
1.29383
0
LINE
8
BLACK
6
CONTINUOUS
10
0.359381
20
1.29383
11
0.359887
21
1.2931
0
LINE
8
BLACK
6
CONTINUOUS
10
0.359887
20
1.2931
11
0.359934
21
1.29306
0
LINE
8
BLACK
6
CONTINUOUS
10
0.359934
20
1.29306
11
0.361809
21
1.28931
0
LINE
8
BLACK
6
CONTINUOUS
10
0.361809
20
1.28931
11
0.361954
21
1.28882
0
LINE
8
BLACK
6
CONTINUOUS
10
0.361954
20
1.28882
11
0.362032
21
1.28871
0
LINE
8
BLACK
6
CONTINUOUS
10
0.362032
20
1.28871
11
0.363907
21
1.28121
0
LINE
8
BLACK
6
CONTINUOUS
10
0.363907
20
1.28121
11
0.363948
21
1.28062
0
LINE
8
BLACK
6
CONTINUOUS
10
0.363948
20
1.28062
11
0.363995
21
1.28049
0
LINE
8
BLACK
6
CONTINUOUS
10
0.363995
20
1.28049
11
0.363995
21
1.27487
0
LINE
8
BLACK
6
CONTINUOUS
10
0.363995
20
1.27487
11
0.363893
21
1.27429
0
LINE
8
BLACK
6
CONTINUOUS
10
0.363893
20
1.27429
11
0.363907
21
1.27415
0
LINE
8
BLACK
6
CONTINUOUS
10
0.363907
20
1.27415
11
0.362032
21
1.26665
0
LINE
8
BLACK
6
CONTINUOUS
10
0.362032
20
1.26665
11
0.361825
21
1.26619
0
LINE
8
BLACK
6
CONTINUOUS
10
0.361825
20
1.26619
11
0.361809
21
1.26605
0
LINE
8
BLACK
6
CONTINUOUS
10
0.361809
20
1.26605
11
0.359934
21
1.2623
0
LINE
8
BLACK
6
CONTINUOUS
10
0.359934
20
1.2623
11
0.359408
21
1.26159
0
LINE
8
BLACK
6
CONTINUOUS
10
0.359408
20
1.26159
11
0.359381
21
1.26153
0
LINE
8
BLACK
6
CONTINUOUS
10
0.359381
20
1.26153
11
0.355631
21
1.25778
0
LINE
8
BLACK
6
CONTINUOUS
10
0.355631
20
1.25778
11
0.354791
21
1.25719
0
LINE
8
BLACK
6
CONTINUOUS
10
0.354791
20
1.25719
11
0.354615
21
1.25718
0
LINE
8
BLACK
6
CONTINUOUS
10
0.354615
20
1.25718
11
0.354477
21
1.25707
0
LINE
8
BLACK
6
CONTINUOUS
10
0.354477
20
1.25707
11
0.348853
21
1.25519
0
LINE
8
BLACK
6
CONTINUOUS
10
0.348853
20
1.25519
11
0.34798
21
1.25506
0
LINE
8
BLACK
6
CONTINUOUS
10
0.34798
20
1.25506
11
0.347919
21
1.25504
0
LINE
8
BLACK
6
CONTINUOUS
10
0.347919
20
1.25504
11
0.344169
21
1.25504
0
LINE
8
BLACK
6
CONTINUOUS
10
0.344169
20
1.25504
11
0.3433
21
1.25519
0
LINE
8
BLACK
6
CONTINUOUS
10
0.3433
20
1.25519
11
0.343236
21
1.25519
0
LINE
8
BLACK
6
CONTINUOUS
10
0.343236
20
1.25519
11
0.337611
21
1.25707
0
LINE
8
BLACK
6
CONTINUOUS
10
0.337611
20
1.25707
11
0.33671
21
1.25756
0
LINE
8
BLACK
6
CONTINUOUS
10
0.33671
20
1.25756
11
0.336617
21
1.25771
0
LINE
8
BLACK
6
CONTINUOUS
10
0.336617
20
1.25771
11
0.336457
21
1.25778
0
LINE
8
BLACK
6
CONTINUOUS
10
0.336457
20
1.25778
11
0.334582
21
1.25966
0
LINE
8
BLACK
6
CONTINUOUS
10
0.334582
20
1.25966
11
0.333994
21
1.2605
0
LINE
8
BLACK
6
CONTINUOUS
10
0.333994
20
1.2605
11
0.333818
21
1.26251
0
LINE
8
BLACK
6
CONTINUOUS
10
0.333818
20
1.26251
11
0.334977
21
1.26416
0
LINE
8
BLACK
6
CONTINUOUS
10
0.334977
20
1.26416
11
0.336928
21
1.26468
0
LINE
8
BLACK
6
CONTINUOUS
10
0.336928
20
1.26468
11
0.338758
21
1.26383
0
LINE
8
BLACK
6
CONTINUOUS
10
0.338758
20
1.26383
11
0.34014
21
1.26245
0
LINE
8
BLACK
6
CONTINUOUS
10
0.34014
20
1.26245
11
0.344649
21
1.26095
0
LINE
8
BLACK
6
CONTINUOUS
10
0.344649
20
1.26095
11
0.34744
21
1.26095
0
LINE
8
BLACK
6
CONTINUOUS
10
0.34744
20
1.26095
11
0.351948
21
1.26245
0
LINE
8
BLACK
6
CONTINUOUS
10
0.351948
20
1.26245
11
0.354866
21
1.26537
0
LINE
8
BLACK
6
CONTINUOUS
10
0.354866
20
1.26537
11
0.356382
21
1.2684
0
LINE
8
BLACK
6
CONTINUOUS
10
0.356382
20
1.2684
11
0.35809
21
1.27523
0
LINE
8
BLACK
6
CONTINUOUS
10
0.35809
20
1.27523
11
0.35809
21
1.28013
0
LINE
8
BLACK
6
CONTINUOUS
10
0.35809
20
1.28013
11
0.356382
21
1.28696
0
LINE
8
BLACK
6
CONTINUOUS
10
0.356382
20
1.28696
11
0.354866
21
1.28999
0
LINE
8
BLACK
6
CONTINUOUS
10
0.354866
20
1.28999
11
0.351948
21
1.29291
0
LINE
8
BLACK
6
CONTINUOUS
10
0.351948
20
1.29291
11
0.34744
21
1.29441
0
LINE
8
BLACK
6
CONTINUOUS
10
0.34744
20
1.29441
11
0.344649
21
1.29441
0
LINE
8
BLACK
6
CONTINUOUS
10
0.344649
20
1.29441
11
0.34014
21
1.29291
0
LINE
8
BLACK
6
CONTINUOUS
10
0.34014
20
1.29291
11
0.338758
21
1.29153
0
LINE
8
BLACK
6
CONTINUOUS
10
0.338758
20
1.29153
11
0.337918
21
1.29094
0
LINE
8
BLACK
6
CONTINUOUS
10
0.337918
20
1.29094
11
0.335906
21
1.29076
0
LINE
8
BLACK
6
CONTINUOUS
10
0.335906
20
1.29076
11
0.334252
21
1.29192
0
LINE
8
BLACK
6
CONTINUOUS
10
0.334252
20
1.29192
11
0.333729
21
1.29387
0
LINE
8
BLACK
6
CONTINUOUS
10
0.333729
20
1.29387
11
0.334582
21
1.2957
0
LINE
8
BLACK
6
CONTINUOUS
10
0.334582
20
1.2957
11
0.336457
21
1.29758
0
LINE
8
BLACK
6
CONTINUOUS
10
0.336457
20
1.29758
11
0.337297
21
1.29817
0
LINE
8
BLACK
6
CONTINUOUS
10
0.337297
20
1.29817
11
0.337473
21
1.29818
0
LINE
8
BLACK
6
CONTINUOUS
10
0.337473
20
1.29818
11
0.337611
21
1.29829
0
LINE
8
BLACK
6
CONTINUOUS
10
0.337611
20
1.29829
11
0.343236
21
1.30017
0
LINE
8
BLACK
6
CONTINUOUS
10
0.343236
20
1.30017
11
0.344109
21
1.30029
0
LINE
8
BLACK
6
CONTINUOUS
10
0.344109
20
1.30029
11
0.344169
21
1.30032
0
LINE
8
BLACK
6
CONTINUOUS
10
0.344169
20
1.30032
11
0.347919
21
1.30032
0
LINE
8
BLACK
6
CONTINUOUS
10
0.347919
20
1.30032
11
0.348788
21
1.30016
0
LINE
8
BLACK
6
CONTINUOUS
10
0.396817
20
1.30029
11
0.396884
21
1.30031
0
LINE
8
BLACK
6
CONTINUOUS
10
0.396884
20
1.30031
11
0.396995
21
1.30026
0
LINE
8
BLACK
6
CONTINUOUS
10
0.396995
20
1.30026
11
0.397673
21
1.30014
0
LINE
8
BLACK
6
CONTINUOUS
10
0.397673
20
1.30014
11
0.398153
21
1.29974
0
LINE
8
BLACK
6
CONTINUOUS
10
0.398153
20
1.29974
11
0.398725
21
1.29948
0
LINE
8
BLACK
6
CONTINUOUS
10
0.398725
20
1.29948
11
0.398904
21
1.29911
0
LINE
8
BLACK
6
CONTINUOUS
10
0.398904
20
1.29911
11
0.39922
21
1.29884
0
LINE
8
BLACK
6
CONTINUOUS
10
0.39922
20
1.29884
11
0.399329
21
1.29822
0
LINE
8
BLACK
6
CONTINUOUS
10
0.399329
20
1.29822
11
0.399601
21
1.29766
0
LINE
8
BLACK
6
CONTINUOUS
10
0.399601
20
1.29766
11
0.401476
21
1.27891
0
LINE
8
BLACK
6
CONTINUOUS
10
0.401476
20
1.27891
11
0.401399
21
1.27789
0
LINE
8
BLACK
6
CONTINUOUS
10
0.401399
20
1.27789
11
0.401388
21
1.27787
0
LINE
8
BLACK
6
CONTINUOUS
10
0.401388
20
1.27787
11
0.40139
21
1.27785
0
LINE
8
BLACK
6
CONTINUOUS
10
0.40139
20
1.27785
11
0.400821
21
1.27704
0
LINE
8
BLACK
6
CONTINUOUS
10
0.400821
20
1.27704
11
0.400261
21
1.27622
0
LINE
8
BLACK
6
CONTINUOUS
10
0.400261
20
1.27622
11
0.400242
21
1.27621
0
LINE
8
BLACK
6
CONTINUOUS
10
0.400242
20
1.27621
11
0.400231
21
1.2762
0
LINE
8
BLACK
6
CONTINUOUS
10
0.400231
20
1.2762
11
0.399272
21
1.27594
0
LINE
8
BLACK
6
CONTINUOUS
10
0.399272
20
1.27594
11
0.398317
21
1.27567
0
LINE
8
BLACK
6
CONTINUOUS
10
0.398317
20
1.27567
11
0.398299
21
1.27568
0
LINE
8
BLACK
6
CONTINUOUS
10
0.398299
20
1.27568
11
0.39828
21
1.27567
0
LINE
8
BLACK
6
CONTINUOUS
10
0.39828
20
1.27567
11
0.397382
21
1.27609
0
LINE
8
BLACK
6
CONTINUOUS
10
0.397382
20
1.27609
11
0.396476
21
1.2765
0
LINE
8
BLACK
6
CONTINUOUS
10
0.396476
20
1.2765
11
0.396467
21
1.27652
0
LINE
8
BLACK
6
CONTINUOUS
10
0.396467
20
1.27652
11
0.39645
21
1.27653
0
LINE
8
BLACK
6
CONTINUOUS
10
0.39645
20
1.27653
11
0.394914
21
1.27806
0
LINE
8
BLACK
6
CONTINUOUS
10
0.394914
20
1.27806
11
0.392216
21
1.27941
0
LINE
8
BLACK
6
CONTINUOUS
10
0.392216
20
1.27941
11
0.384237
21
1.27941
0
LINE
8
BLACK
6
CONTINUOUS
10
0.384237
20
1.27941
11
0.381539
21
1.27806
0
LINE
8
BLACK
6
CONTINUOUS
10
0.381539
20
1.27806
11
0.380342
21
1.27687
0
LINE
8
BLACK
6
CONTINUOUS
10
0.380342
20
1.27687
11
0.378993
21
1.27417
0
LINE
8
BLACK
6
CONTINUOUS
10
0.378993
20
1.27417
11
0.378993
21
1.26619
0
LINE
8
BLACK
6
CONTINUOUS
10
0.378993
20
1.26619
11
0.380342
21
1.26349
0
LINE
8
BLACK
6
CONTINUOUS
10
0.380342
20
1.26349
11
0.381539
21
1.2623
0
LINE
8
BLACK
6
CONTINUOUS
10
0.381539
20
1.2623
11
0.384237
21
1.26095
0
LINE
8
BLACK
6
CONTINUOUS
10
0.384237
20
1.26095
11
0.392216
21
1.26095
0
LINE
8
BLACK
6
CONTINUOUS
10
0.392216
20
1.26095
11
0.394914
21
1.2623
0
LINE
8
BLACK
6
CONTINUOUS
10
0.394914
20
1.2623
11
0.39645
21
1.26383
0
LINE
8
BLACK
6
CONTINUOUS
10
0.39645
20
1.26383
11
0.39729
21
1.26442
0
LINE
8
BLACK
6
CONTINUOUS
10
0.39729
20
1.26442
11
0.399302
21
1.2646
0
LINE
8
BLACK
6
CONTINUOUS
10
0.399302
20
1.2646
11
0.400956
21
1.26344
0
LINE
8
BLACK
6
CONTINUOUS
10
0.400956
20
1.26344
11
0.401479
21
1.26149
0
LINE
8
BLACK
6
CONTINUOUS
10
0.401479
20
1.26149
11
0.400626
21
1.25966
0
LINE
8
BLACK
6
CONTINUOUS
10
0.400626
20
1.25966
11
0.398751
21
1.25778
0
LINE
8
BLACK
6
CONTINUOUS
10
0.398751
20
1.25778
11
0.398028
21
1.25727
0
LINE
8
BLACK
6
CONTINUOUS
10
0.398028
20
1.25727
11
0.397983
21
1.25723
0
LINE
8
BLACK
6
CONTINUOUS
10
0.397983
20
1.25723
11
0.394234
21
1.25535
0
LINE
8
BLACK
6
CONTINUOUS
10
0.394234
20
1.25535
11
0.393251
21
1.25506
0
LINE
8
BLACK
6
CONTINUOUS
10
0.393251
20
1.25506
11
0.393079
21
1.2551
0
LINE
8
BLACK
6
CONTINUOUS
10
0.393079
20
1.2551
11
0.392913
21
1.25504
0
LINE
8
BLACK
6
CONTINUOUS
10
0.392913
20
1.25504
11
0.38354
21
1.25504
0
LINE
8
BLACK
6
CONTINUOUS
10
0.38354
20
1.25504
11
0.38253
21
1.25522
0
LINE
8
BLACK
6
CONTINUOUS
10
0.38253
20
1.25522
11
0.382394
21
1.25533
0
LINE
8
BLACK
6
CONTINUOUS
10
0.382394
20
1.25533
11
0.382219
21
1.25535
0
LINE
8
BLACK
6
CONTINUOUS
10
0.382219
20
1.25535
11
0.378469
21
1.25723
0
LINE
8
BLACK
6
CONTINUOUS
10
0.378469
20
1.25723
11
0.37776
21
1.25775
0
LINE
8
BLACK
6
CONTINUOUS
10
0.37776
20
1.25775
11
0.377702
21
1.25778
0
LINE
8
BLACK
6
CONTINUOUS
10
0.377702
20
1.25778
11
0.375827
21
1.25966
0
LINE
8
BLACK
6
CONTINUOUS
10
0.375827
20
1.25966
11
0.375321
21
1.26038
0
LINE
8
BLACK
6
CONTINUOUS
10
0.375321
20
1.26038
11
0.375274
21
1.26042
0
LINE
8
BLACK
6
CONTINUOUS
10
0.375274
20
1.26042
11
0.373399
21
1.26417
0
LINE
8
BLACK
6
CONTINUOUS
10
0.373399
20
1.26417
11
0.373107
21
1.26516
0
LINE
8
BLACK
6
CONTINUOUS
10
0.373107
20
1.26516
11
0.373148
21
1.26533
0
LINE
8
BLACK
6
CONTINUOUS
10
0.373148
20
1.26533
11
0.373088
21
1.26549
0
LINE
8
BLACK
6
CONTINUOUS
10
0.373088
20
1.26549
11
0.373088
21
1.27487
0
LINE
8
BLACK
6
CONTINUOUS
10
0.373088
20
1.27487
11
0.373266
21
1.27588
0
LINE
8
BLACK
6
CONTINUOUS
10
0.373266
20
1.27588
11
0.373379
21
1.27601
0
LINE
8
BLACK
6
CONTINUOUS
10
0.373379
20
1.27601
11
0.373399
21
1.27619
0
LINE
8
BLACK
6
CONTINUOUS
10
0.373399
20
1.27619
11
0.375274
21
1.27994
0
LINE
8
BLACK
6
CONTINUOUS
10
0.375274
20
1.27994
11
0.3758
21
1.28065
0
LINE
8
BLACK
6
CONTINUOUS
10
0.3758
20
1.28065
11
0.375827
21
1.2807
0
LINE
8
BLACK
6
CONTINUOUS
10
0.375827
20
1.2807
11
0.377702
21
1.28258
0
LINE
8
BLACK
6
CONTINUOUS
10
0.377702
20
1.28258
11
0.378425
21
1.28309
0
LINE
8
BLACK
6
CONTINUOUS
10
0.378425
20
1.28309
11
0.378469
21
1.28313
0
LINE
8
BLACK
6
CONTINUOUS
10
0.378469
20
1.28313
11
0.382219
21
1.28501
0
LINE
8
BLACK
6
CONTINUOUS
10
0.382219
20
1.28501
11
0.383202
21
1.2853
0
LINE
8
BLACK
6
CONTINUOUS
10
0.383202
20
1.2853
11
0.383374
21
1.28526
0
LINE
8
BLACK
6
CONTINUOUS
10
0.383374
20
1.28526
11
0.38354
21
1.28532
0
LINE
8
BLACK
6
CONTINUOUS
10
0.38354
20
1.28532
11
0.392913
21
1.28532
0
LINE
8
BLACK
6
CONTINUOUS
10
0.392913
20
1.28532
11
0.393923
21
1.28514
0
LINE
8
BLACK
6
CONTINUOUS
10
0.393923
20
1.28514
11
0.394059
21
1.28503
0
LINE
8
BLACK
6
CONTINUOUS
10
0.394059
20
1.28503
11
0.394234
21
1.28501
0
LINE
8
BLACK
6
CONTINUOUS
10
0.394234
20
1.28501
11
0.394968
21
1.28464
0
LINE
8
BLACK
6
CONTINUOUS
10
0.394968
20
1.28464
11
0.393991
21
1.29441
0
LINE
8
BLACK
6
CONTINUOUS
10
0.393991
20
1.29441
11
0.377915
21
1.29441
0
LINE
8
BLACK
6
CONTINUOUS
10
0.377915
20
1.29441
11
0.376905
21
1.29459
0
LINE
8
BLACK
6
CONTINUOUS
10
0.376905
20
1.29459
11
0.375358
21
1.29589
0
LINE
8
BLACK
6
CONTINUOUS
10
0.375358
20
1.29589
11
0.375007
21
1.29788
0
LINE
8
BLACK
6
CONTINUOUS
10
0.375007
20
1.29788
11
0.376017
21
1.29963
0
LINE
8
BLACK
6
CONTINUOUS
10
0.376017
20
1.29963
11
0.377915
21
1.30032
0
LINE
8
BLACK
6
CONTINUOUS
10
0.377915
20
1.30032
11
0.396663
21
1.30032
0
LINE
8
BLACK
6
CONTINUOUS
10
0.396663
20
1.30032
11
0.396817
21
1.30029
0
LINE
8
BLACK
6
CONTINUOUS
10
0.434312
20
1.30029
11
0.434379
21
1.30031
0
LINE
8
BLACK
6
CONTINUOUS
10
0.434379
20
1.30031
11
0.434491
21
1.30026
0
LINE
8
BLACK
6
CONTINUOUS
10
0.434491
20
1.30026
11
0.435168
21
1.30014
0
LINE
8
BLACK
6
CONTINUOUS
10
0.435168
20
1.30014
11
0.435648
21
1.29974
0
LINE
8
BLACK
6
CONTINUOUS
10
0.435648
20
1.29974
11
0.43622
21
1.29948
0
LINE
8
BLACK
6
CONTINUOUS
10
0.43622
20
1.29948
11
0.436399
21
1.29911
0
LINE
8
BLACK
6
CONTINUOUS
10
0.436399
20
1.29911
11
0.436715
21
1.29884
0
LINE
8
BLACK
6
CONTINUOUS
10
0.436715
20
1.29884
11
0.436824
21
1.29822
0
LINE
8
BLACK
6
CONTINUOUS
10
0.436824
20
1.29822
11
0.437096
21
1.29766
0
LINE
8
BLACK
6
CONTINUOUS
10
0.437096
20
1.29766
11
0.438971
21
1.27891
0
LINE
8
BLACK
6
CONTINUOUS
10
0.438971
20
1.27891
11
0.438894
21
1.27789
0
LINE
8
BLACK
6
CONTINUOUS
10
0.438894
20
1.27789
11
0.438883
21
1.27787
0
LINE
8
BLACK
6
CONTINUOUS
10
0.438883
20
1.27787
11
0.438885
21
1.27785
0
LINE
8
BLACK
6
CONTINUOUS
10
0.438885
20
1.27785
11
0.438317
21
1.27704
0
LINE
8
BLACK
6
CONTINUOUS
10
0.438317
20
1.27704
11
0.437756
21
1.27622
0
LINE
8
BLACK
6
CONTINUOUS
10
0.437756
20
1.27622
11
0.437738
21
1.27621
0
LINE
8
BLACK
6
CONTINUOUS
10
0.437738
20
1.27621
11
0.437727
21
1.2762
0
LINE
8
BLACK
6
CONTINUOUS
10
0.437727
20
1.2762
11
0.436768
21
1.27594
0
LINE
8
BLACK
6
CONTINUOUS
10
0.436768
20
1.27594
11
0.435812
21
1.27567
0
LINE
8
BLACK
6
CONTINUOUS
10
0.435812
20
1.27567
11
0.435794
21
1.27568
0
LINE
8
BLACK
6
CONTINUOUS
10
0.435794
20
1.27568
11
0.435776
21
1.27567
0
LINE
8
BLACK
6
CONTINUOUS
10
0.435776
20
1.27567
11
0.434877
21
1.27609
0
LINE
8
BLACK
6
CONTINUOUS
10
0.434877
20
1.27609
11
0.433971
21
1.2765
0
LINE
8
BLACK
6
CONTINUOUS
10
0.433971
20
1.2765
11
0.433963
21
1.27652
0
LINE
8
BLACK
6
CONTINUOUS
10
0.433963
20
1.27652
11
0.433945
21
1.27653
0
LINE
8
BLACK
6
CONTINUOUS
10
0.433945
20
1.27653
11
0.432409
21
1.27806
0
LINE
8
BLACK
6
CONTINUOUS
10
0.432409
20
1.27806
11
0.429712
21
1.27941
0
LINE
8
BLACK
6
CONTINUOUS
10
0.429712
20
1.27941
11
0.421732
21
1.27941
0
LINE
8
BLACK
6
CONTINUOUS
10
0.421732
20
1.27941
11
0.419034
21
1.27806
0
LINE
8
BLACK
6
CONTINUOUS
10
0.419034
20
1.27806
11
0.417837
21
1.27687
0
LINE
8
BLACK
6
CONTINUOUS
10
0.417837
20
1.27687
11
0.416489
21
1.27417
0
LINE
8
BLACK
6
CONTINUOUS
10
0.416489
20
1.27417
11
0.416489
21
1.26619
0
LINE
8
BLACK
6
CONTINUOUS
10
0.416489
20
1.26619
11
0.417837
21
1.26349
0
LINE
8
BLACK
6
CONTINUOUS
10
0.417837
20
1.26349
11
0.419034
21
1.2623
0
LINE
8
BLACK
6
CONTINUOUS
10
0.419034
20
1.2623
11
0.421732
21
1.26095
0
LINE
8
BLACK
6
CONTINUOUS
10
0.421732
20
1.26095
11
0.429712
21
1.26095
0
LINE
8
BLACK
6
CONTINUOUS
10
0.429712
20
1.26095
11
0.432409
21
1.2623
0
LINE
8
BLACK
6
CONTINUOUS
10
0.432409
20
1.2623
11
0.433945
21
1.26383
0
LINE
8
BLACK
6
CONTINUOUS
10
0.433945
20
1.26383
11
0.434785
21
1.26442
0
LINE
8
BLACK
6
CONTINUOUS
10
0.434785
20
1.26442
11
0.436797
21
1.2646
0
LINE
8
BLACK
6
CONTINUOUS
10
0.436797
20
1.2646
11
0.438452
21
1.26344
0
LINE
8
BLACK
6
CONTINUOUS
10
0.438452
20
1.26344
11
0.438974
21
1.26149
0
LINE
8
BLACK
6
CONTINUOUS
10
0.438974
20
1.26149
11
0.438121
21
1.25966
0
LINE
8
BLACK
6
CONTINUOUS
10
0.438121
20
1.25966
11
0.436246
21
1.25778
0
LINE
8
BLACK
6
CONTINUOUS
10
0.436246
20
1.25778
11
0.435523
21
1.25727
0
LINE
8
BLACK
6
CONTINUOUS
10
0.435523
20
1.25727
11
0.435479
21
1.25723
0
LINE
8
BLACK
6
CONTINUOUS
10
0.435479
20
1.25723
11
0.431729
21
1.25535
0
LINE
8
BLACK
6
CONTINUOUS
10
0.431729
20
1.25535
11
0.430746
21
1.25506
0
LINE
8
BLACK
6
CONTINUOUS
10
0.430746
20
1.25506
11
0.430575
21
1.2551
0
LINE
8
BLACK
6
CONTINUOUS
10
0.430575
20
1.2551
11
0.430409
21
1.25504
0
LINE
8
BLACK
6
CONTINUOUS
10
0.430409
20
1.25504
11
0.421035
21
1.25504
0
LINE
8
BLACK
6
CONTINUOUS
10
0.421035
20
1.25504
11
0.420025
21
1.25522
0
LINE
8
BLACK
6
CONTINUOUS
10
0.420025
20
1.25522
11
0.41989
21
1.25533
0
LINE
8
BLACK
6
CONTINUOUS
10
0.41989
20
1.25533
11
0.419714
21
1.25535
0
LINE
8
BLACK
6
CONTINUOUS
10
0.419714
20
1.25535
11
0.415965
21
1.25723
0
LINE
8
BLACK
6
CONTINUOUS
10
0.415965
20
1.25723
11
0.415256
21
1.25775
0
LINE
8
BLACK
6
CONTINUOUS
10
0.415256
20
1.25775
11
0.415197
21
1.25778
0
LINE
8
BLACK
6
CONTINUOUS
10
0.415197
20
1.25778
11
0.413323
21
1.25966
0
LINE
8
BLACK
6
CONTINUOUS
10
0.413323
20
1.25966
11
0.412816
21
1.26038
0
LINE
8
BLACK
6
CONTINUOUS
10
0.412816
20
1.26038
11
0.41277
21
1.26042
0
LINE
8
BLACK
6
CONTINUOUS
10
0.41277
20
1.26042
11
0.410895
21
1.26417
0
LINE
8
BLACK
6
CONTINUOUS
10
0.410895
20
1.26417
11
0.410602
21
1.26516
0
LINE
8
BLACK
6
CONTINUOUS
10
0.410602
20
1.26516
11
0.410643
21
1.26533
0
LINE
8
BLACK
6
CONTINUOUS
10
0.410643
20
1.26533
11
0.410583
21
1.26549
0
LINE
8
BLACK
6
CONTINUOUS
10
0.410583
20
1.26549
11
0.410583
21
1.27487
0
LINE
8
BLACK
6
CONTINUOUS
10
0.410583
20
1.27487
11
0.410761
21
1.27588
0
LINE
8
BLACK
6
CONTINUOUS
10
0.410761
20
1.27588
11
0.410875
21
1.27601
0
LINE
8
BLACK
6
CONTINUOUS
10
0.410875
20
1.27601
11
0.410895
21
1.27619
0
LINE
8
BLACK
6
CONTINUOUS
10
0.410895
20
1.27619
11
0.41277
21
1.27994
0
LINE
8
BLACK
6
CONTINUOUS
10
0.41277
20
1.27994
11
0.413295
21
1.28065
0
LINE
8
BLACK
6
CONTINUOUS
10
0.413295
20
1.28065
11
0.413323
21
1.2807
0
LINE
8
BLACK
6
CONTINUOUS
10
0.413323
20
1.2807
11
0.415197
21
1.28258
0
LINE
8
BLACK
6
CONTINUOUS
10
0.415197
20
1.28258
11
0.41592
21
1.28309
0
LINE
8
BLACK
6
CONTINUOUS
10
0.41592
20
1.28309
11
0.415965
21
1.28313
0
LINE
8
BLACK
6
CONTINUOUS
10
0.415965
20
1.28313
11
0.419714
21
1.28501
0
LINE
8
BLACK
6
CONTINUOUS
10
0.419714
20
1.28501
11
0.420697
21
1.2853
0
LINE
8
BLACK
6
CONTINUOUS
10
0.420697
20
1.2853
11
0.420869
21
1.28526
0
LINE
8
BLACK
6
CONTINUOUS
10
0.420869
20
1.28526
11
0.421035
21
1.28532
0
LINE
8
BLACK
6
CONTINUOUS
10
0.421035
20
1.28532
11
0.430409
21
1.28532
0
LINE
8
BLACK
6
CONTINUOUS
10
0.430409
20
1.28532
11
0.431419
21
1.28514
0
LINE
8
BLACK
6
CONTINUOUS
10
0.431419
20
1.28514
11
0.431554
21
1.28503
0
LINE
8
BLACK
6
CONTINUOUS
10
0.431554
20
1.28503
11
0.431729
21
1.28501
0
LINE
8
BLACK
6
CONTINUOUS
10
0.431729
20
1.28501
11
0.432463
21
1.28464
0
LINE
8
BLACK
6
CONTINUOUS
10
0.432463
20
1.28464
11
0.431486
21
1.29441
0
LINE
8
BLACK
6
CONTINUOUS
10
0.431486
20
1.29441
11
0.415411
21
1.29441
0
LINE
8
BLACK
6
CONTINUOUS
10
0.415411
20
1.29441
11
0.414401
21
1.29459
0
LINE
8
BLACK
6
CONTINUOUS
10
0.414401
20
1.29459
11
0.412853
21
1.29589
0
LINE
8
BLACK
6
CONTINUOUS
10
0.412853
20
1.29589
11
0.412503
21
1.29788
0
LINE
8
BLACK
6
CONTINUOUS
10
0.412503
20
1.29788
11
0.413513
21
1.29963
0
LINE
8
BLACK
6
CONTINUOUS
10
0.413513
20
1.29963
11
0.415411
21
1.30032
0
LINE
8
BLACK
6
CONTINUOUS
10
0.415411
20
1.30032
11
0.434158
21
1.30032
0
LINE
8
BLACK
6
CONTINUOUS
10
0.434158
20
1.30032
11
0.434312
21
1.30029
0
LINE
8
BLACK
6
CONTINUOUS
10
0.510159
20
1.30014
11
0.511706
21
1.29884
0
LINE
8
BLACK
6
CONTINUOUS
10
0.511706
20
1.29884
11
0.512057
21
1.29685
0
LINE
8
BLACK
6
CONTINUOUS
10
0.512057
20
1.29685
11
0.511047
21
1.2951
0
LINE
8
BLACK
6
CONTINUOUS
10
0.511047
20
1.2951
11
0.509149
21
1.29441
0
LINE
8
BLACK
6
CONTINUOUS
10
0.509149
20
1.29441
11
0.488419
21
1.29441
0
LINE
8
BLACK
6
CONTINUOUS
10
0.488419
20
1.29441
11
0.511606
21
1.25963
0
LINE
8
BLACK
6
CONTINUOUS
10
0.511606
20
1.25963
11
0.511659
21
1.25951
0
LINE
8
BLACK
6
CONTINUOUS
10
0.511659
20
1.25951
11
0.511706
21
1.25947
0
LINE
8
BLACK
6
CONTINUOUS
10
0.511706
20
1.25947
11
0.511726
21
1.25936
0
LINE
8
BLACK
6
CONTINUOUS
10
0.511726
20
1.25936
11
0.512018
21
1.25869
0
LINE
8
BLACK
6
CONTINUOUS
10
0.512018
20
1.25869
11
0.51195
21
1.25808
0
LINE
8
BLACK
6
CONTINUOUS
10
0.51195
20
1.25808
11
0.512057
21
1.25748
0
LINE
8
BLACK
6
CONTINUOUS
10
0.512057
20
1.25748
11
0.511843
21
1.25711
0
LINE
8
BLACK
6
CONTINUOUS
10
0.511843
20
1.25711
11
0.511796
21
1.25669
0
LINE
8
BLACK
6
CONTINUOUS
10
0.511796
20
1.25669
11
0.511353
21
1.25626
0
LINE
8
BLACK
6
CONTINUOUS
10
0.511353
20
1.25626
11
0.511047
21
1.25573
0
LINE
8
BLACK
6
CONTINUOUS
10
0.511047
20
1.25573
11
0.510645
21
1.25559
0
LINE
8
BLACK
6
CONTINUOUS
10
0.510645
20
1.25559
11
0.510335
21
1.25529
0
LINE
8
BLACK
6
CONTINUOUS
10
0.510335
20
1.25529
11
0.509724
21
1.25525
0
LINE
8
BLACK
6
CONTINUOUS
10
0.509724
20
1.25525
11
0.509149
21
1.25504
0
LINE
8
BLACK
6
CONTINUOUS
10
0.509149
20
1.25504
11
0.482902
21
1.25504
0
LINE
8
BLACK
6
CONTINUOUS
10
0.482902
20
1.25504
11
0.481892
21
1.25522
0
LINE
8
BLACK
6
CONTINUOUS
10
0.481892
20
1.25522
11
0.480345
21
1.25652
0
LINE
8
BLACK
6
CONTINUOUS
10
0.480345
20
1.25652
11
0.479994
21
1.25851
0
LINE
8
BLACK
6
CONTINUOUS
10
0.479994
20
1.25851
11
0.481004
21
1.26026
0
LINE
8
BLACK
6
CONTINUOUS
10
0.481004
20
1.26026
11
0.482902
21
1.26095
0
LINE
8
BLACK
6
CONTINUOUS
10
0.482902
20
1.26095
11
0.503632
21
1.26095
0
LINE
8
BLACK
6
CONTINUOUS
10
0.503632
20
1.26095
11
0.480445
21
1.29573
0
LINE
8
BLACK
6
CONTINUOUS
10
0.480445
20
1.29573
11
0.480392
21
1.29585
0
LINE
8
BLACK
6
CONTINUOUS
10
0.480392
20
1.29585
11
0.480345
21
1.29589
0
LINE
8
BLACK
6
CONTINUOUS
10
0.480345
20
1.29589
11
0.480325
21
1.296
0
LINE
8
BLACK
6
CONTINUOUS
10
0.480325
20
1.296
11
0.480033
21
1.29666
0
LINE
8
BLACK
6
CONTINUOUS
10
0.480033
20
1.29666
11
0.480101
21
1.29727
0
LINE
8
BLACK
6
CONTINUOUS
10
0.480101
20
1.29727
11
0.479994
21
1.29788
0
LINE
8
BLACK
6
CONTINUOUS
10
0.479994
20
1.29788
11
0.480208
21
1.29825
0
LINE
8
BLACK
6
CONTINUOUS
10
0.480208
20
1.29825
11
0.480255
21
1.29867
0
LINE
8
BLACK
6
CONTINUOUS
10
0.480255
20
1.29867
11
0.480698
21
1.2991
0
LINE
8
BLACK
6
CONTINUOUS
10
0.480698
20
1.2991
11
0.481004
21
1.29963
0
LINE
8
BLACK
6
CONTINUOUS
10
0.481004
20
1.29963
11
0.481406
21
1.29977
0
LINE
8
BLACK
6
CONTINUOUS
10
0.481406
20
1.29977
11
0.481716
21
1.30007
0
LINE
8
BLACK
6
CONTINUOUS
10
0.481716
20
1.30007
11
0.482327
21
1.30011
0
LINE
8
BLACK
6
CONTINUOUS
10
0.482327
20
1.30011
11
0.482902
21
1.30032
0
LINE
8
BLACK
6
CONTINUOUS
10
0.482902
20
1.30032
11
0.509149
21
1.30032
0
LINE
8
BLACK
6
CONTINUOUS
10
0.509149
20
1.30032
11
0.510159
21
1.30014
0
LINE
8
BLACK
6
CONTINUOUS
10
0.545153
20
1.30025
11
0.545282
21
1.30027
0
LINE
8
BLACK
6
CONTINUOUS
10
0.545282
20
1.30027
11
0.545396
21
1.30021
0
LINE
8
BLACK
6
CONTINUOUS
10
0.545396
20
1.30021
11
0.545779
21
1.30014
0
LINE
8
BLACK
6
CONTINUOUS
10
0.545779
20
1.30014
11
0.546367
21
1.29965
0
LINE
8
BLACK
6
CONTINUOUS
10
0.546367
20
1.29965
11
0.547031
21
1.29926
0
LINE
8
BLACK
6
CONTINUOUS
10
0.547031
20
1.29926
11
0.547122
21
1.29901
0
LINE
8
BLACK
6
CONTINUOUS
10
0.547122
20
1.29901
11
0.547327
21
1.29884
0
LINE
8
BLACK
6
CONTINUOUS
10
0.547327
20
1.29884
11
0.54746
21
1.29808
0
LINE
8
BLACK
6
CONTINUOUS
10
0.54746
20
1.29808
11
0.547722
21
1.29736
0
LINE
8
BLACK
6
CONTINUOUS
10
0.547722
20
1.29736
11
0.547722
21
1.25799
0
LINE
8
BLACK
6
CONTINUOUS
10
0.547722
20
1.25799
11
0.547654
21
1.25761
0
LINE
8
BLACK
6
CONTINUOUS
10
0.547654
20
1.25761
11
0.547677
21
1.25748
0
LINE
8
BLACK
6
CONTINUOUS
10
0.547677
20
1.25748
11
0.547612
21
1.25737
0
LINE
8
BLACK
6
CONTINUOUS
10
0.547612
20
1.25737
11
0.547544
21
1.25698
0
LINE
8
BLACK
6
CONTINUOUS
10
0.547544
20
1.25698
11
0.547051
21
1.2564
0
LINE
8
BLACK
6
CONTINUOUS
10
0.547051
20
1.2564
11
0.546667
21
1.25573
0
LINE
8
BLACK
6
CONTINUOUS
10
0.546667
20
1.25573
11
0.546417
21
1.25564
0
LINE
8
BLACK
6
CONTINUOUS
10
0.546417
20
1.25564
11
0.546246
21
1.25544
0
LINE
8
BLACK
6
CONTINUOUS
10
0.546246
20
1.25544
11
0.54549
21
1.2553
0
LINE
8
BLACK
6
CONTINUOUS
10
0.54549
20
1.2553
11
0.544769
21
1.25504
0
LINE
8
BLACK
6
CONTINUOUS
10
0.544769
20
1.25504
11
0.529771
21
1.25504
0
LINE
8
BLACK
6
CONTINUOUS
10
0.529771
20
1.25504
11
0.528761
21
1.25522
0
LINE
8
BLACK
6
CONTINUOUS
10
0.528761
20
1.25522
11
0.528626
21
1.25533
0
LINE
8
BLACK
6
CONTINUOUS
10
0.528626
20
1.25533
11
0.528451
21
1.25535
0
LINE
8
BLACK
6
CONTINUOUS
10
0.528451
20
1.25535
11
0.524701
21
1.25723
0
LINE
8
BLACK
6
CONTINUOUS
10
0.524701
20
1.25723
11
0.523992
21
1.25775
0
LINE
8
BLACK
6
CONTINUOUS
10
0.523992
20
1.25775
11
0.523934
21
1.25778
0
LINE
8
BLACK
6
CONTINUOUS
10
0.523934
20
1.25778
11
0.522059
21
1.25966
0
LINE
8
BLACK
6
CONTINUOUS
10
0.522059
20
1.25966
11
0.521553
21
1.26038
0
LINE
8
BLACK
6
CONTINUOUS
10
0.521553
20
1.26038
11
0.521506
21
1.26042
0
LINE
8
BLACK
6
CONTINUOUS
10
0.521506
20
1.26042
11
0.519631
21
1.26417
0
LINE
8
BLACK
6
CONTINUOUS
10
0.519631
20
1.26417
11
0.519339
21
1.26516
0
LINE
8
BLACK
6
CONTINUOUS
10
0.519339
20
1.26516
11
0.51938
21
1.26533
0
LINE
8
BLACK
6
CONTINUOUS
10
0.51938
20
1.26533
11
0.519319
21
1.26549
0
LINE
8
BLACK
6
CONTINUOUS
10
0.519319
20
1.26549
11
0.519319
21
1.27112
0
LINE
8
BLACK
6
CONTINUOUS
10
0.519319
20
1.27112
11
0.519498
21
1.27213
0
LINE
8
BLACK
6
CONTINUOUS
10
0.519498
20
1.27213
11
0.519611
21
1.27226
0
LINE
8
BLACK
6
CONTINUOUS
10
0.519611
20
1.27226
11
0.519631
21
1.27244
0
LINE
8
BLACK
6
CONTINUOUS
10
0.519631
20
1.27244
11
0.521506
21
1.27619
0
LINE
8
BLACK
6
CONTINUOUS
10
0.521506
20
1.27619
11
0.522032
21
1.2769
0
LINE
8
BLACK
6
CONTINUOUS
10
0.522032
20
1.2769
11
0.522059
21
1.27695
0
LINE
8
BLACK
6
CONTINUOUS
10
0.522059
20
1.27695
11
0.523934
21
1.27883
0
LINE
8
BLACK
6
CONTINUOUS
10
0.523934
20
1.27883
11
0.524774
21
1.27942
0
LINE
8
BLACK
6
CONTINUOUS
10
0.524774
20
1.27942
11
0.524792
21
1.27942
0
LINE
8
BLACK
6
CONTINUOUS
10
0.524792
20
1.27942
11
0.523934
21
1.28028
0
LINE
8
BLACK
6
CONTINUOUS
10
0.523934
20
1.28028
11
0.523428
21
1.281
0
LINE
8
BLACK
6
CONTINUOUS
10
0.523428
20
1.281
11
0.523381
21
1.28105
0
LINE
8
BLACK
6
CONTINUOUS
10
0.523381
20
1.28105
11
0.521506
21
1.28479
0
LINE
8
BLACK
6
CONTINUOUS
10
0.521506
20
1.28479
11
0.521214
21
1.28578
0
LINE
8
BLACK
6
CONTINUOUS
10
0.521214
20
1.28578
11
0.521255
21
1.28595
0
LINE
8
BLACK
6
CONTINUOUS
10
0.521255
20
1.28595
11
0.521194
21
1.28612
0
LINE
8
BLACK
6
CONTINUOUS
10
0.521194
20
1.28612
11
0.521194
21
1.28986
0
LINE
8
BLACK
6
CONTINUOUS
10
0.521194
20
1.28986
11
0.521372
21
1.29087
0
LINE
8
BLACK
6
CONTINUOUS
10
0.521372
20
1.29087
11
0.521486
21
1.29101
0
LINE
8
BLACK
6
CONTINUOUS
10
0.521486
20
1.29101
11
0.521506
21
1.29119
0
LINE
8
BLACK
6
CONTINUOUS
10
0.521506
20
1.29119
11
0.523381
21
1.29493
0
LINE
8
BLACK
6
CONTINUOUS
10
0.523381
20
1.29493
11
0.523907
21
1.29564
0
LINE
8
BLACK
6
CONTINUOUS
10
0.523907
20
1.29564
11
0.523934
21
1.2957
0
LINE
8
BLACK
6
CONTINUOUS
10
0.523934
20
1.2957
11
0.525809
21
1.29758
0
LINE
8
BLACK
6
CONTINUOUS
10
0.525809
20
1.29758
11
0.526532
21
1.29808
0
LINE
8
BLACK
6
CONTINUOUS
10
0.526532
20
1.29808
11
0.526576
21
1.29813
0
LINE
8
BLACK
6
CONTINUOUS
10
0.526576
20
1.29813
11
0.530326
21
1.3
0
LINE
8
BLACK
6
CONTINUOUS
10
0.530326
20
1.3
11
0.531308
21
1.3003
0
LINE
8
BLACK
6
CONTINUOUS
10
0.531308
20
1.3003
11
0.53148
21
1.30026
0
LINE
8
BLACK
6
CONTINUOUS
10
0.53148
20
1.30026
11
0.531646
21
1.30032
0
LINE
8
BLACK
6
CONTINUOUS
10
0.531646
20
1.30032
11
0.544769
21
1.30032
0
LINE
8
BLACK
6
CONTINUOUS
10
0.544769
20
1.30032
11
0.545153
21
1.30025
0
LINE
8
BLACK
6
CONTINUOUS
10
0.527617
20
1.27416
11
0.526574
21
1.27312
0
LINE
8
BLACK
6
CONTINUOUS
10
0.526574
20
1.27312
11
0.525225
21
1.27042
0
LINE
8
BLACK
6
CONTINUOUS
10
0.525225
20
1.27042
11
0.525225
21
1.26619
0
LINE
8
BLACK
6
CONTINUOUS
10
0.525225
20
1.26619
11
0.526574
21
1.26349
0
LINE
8
BLACK
6
CONTINUOUS
10
0.526574
20
1.26349
11
0.527771
21
1.2623
0
LINE
8
BLACK
6
CONTINUOUS
10
0.527771
20
1.2623
11
0.530468
21
1.26095
0
LINE
8
BLACK
6
CONTINUOUS
10
0.530468
20
1.26095
11
0.541817
21
1.26095
0
LINE
8
BLACK
6
CONTINUOUS
10
0.541817
20
1.26095
11
0.541817
21
1.27566
0
LINE
8
BLACK
6
CONTINUOUS
10
0.541817
20
1.27566
11
0.532125
21
1.27566
0
LINE
8
BLACK
6
CONTINUOUS
10
0.532125
20
1.27566
11
0.527617
21
1.27416
0
LINE
8
BLACK
6
CONTINUOUS
10
0.529646
20
1.29306
11
0.528448
21
1.29187
0
LINE
8
BLACK
6
CONTINUOUS
10
0.528448
20
1.29187
11
0.5271
21
1.28917
0
LINE
8
BLACK
6
CONTINUOUS
10
0.5271
20
1.28917
11
0.5271
21
1.28681
0
LINE
8
BLACK
6
CONTINUOUS
10
0.5271
20
1.28681
11
0.528448
21
1.28411
0
LINE
8
BLACK
6
CONTINUOUS
10
0.528448
20
1.28411
11
0.529646
21
1.28292
0
LINE
8
BLACK
6
CONTINUOUS
10
0.529646
20
1.28292
11
0.532343
21
1.28157
0
LINE
8
BLACK
6
CONTINUOUS
10
0.532343
20
1.28157
11
0.541817
21
1.28157
0
LINE
8
BLACK
6
CONTINUOUS
10
0.541817
20
1.28157
11
0.541817
21
1.29441
0
LINE
8
BLACK
6
CONTINUOUS
10
0.541817
20
1.29441
11
0.532343
21
1.29441
0
LINE
8
BLACK
6
CONTINUOUS
10
0.532343
20
1.29441
11
0.529646
21
1.29306
0
LINE
8
BLACK
6
CONTINUOUS
10
0.158239
20
1.29988
11
0.159494
21
1.2983
0
LINE
8
BLACK
6
CONTINUOUS
10
0.159494
20
1.2983
11
0.169816
21
1.26733
0
LINE
8
BLACK
6
CONTINUOUS
10
0.169816
20
1.26733
11
0.180138
21
1.2983
0
LINE
8
BLACK
6
CONTINUOUS
10
0.180138
20
1.2983
11
0.180627
21
1.2992
0
LINE
8
BLACK
6
CONTINUOUS
10
0.180627
20
1.2992
11
0.182348
21
1.30026
0
LINE
8
BLACK
6
CONTINUOUS
10
0.182348
20
1.30026
11
0.184346
21
1.29996
0
LINE
8
BLACK
6
CONTINUOUS
10
0.184346
20
1.29996
11
0.185686
21
1.29845
0
LINE
8
BLACK
6
CONTINUOUS
10
0.185686
20
1.29845
11
0.185741
21
1.29643
0
LINE
8
BLACK
6
CONTINUOUS
10
0.185741
20
1.29643
11
0.172617
21
1.25706
0
LINE
8
BLACK
6
CONTINUOUS
10
0.172617
20
1.25706
11
0.172129
21
1.25616
0
LINE
8
BLACK
6
CONTINUOUS
10
0.172129
20
1.25616
11
0.172057
21
1.25611
0
LINE
8
BLACK
6
CONTINUOUS
10
0.172057
20
1.25611
11
0.172026
21
1.25603
0
LINE
8
BLACK
6
CONTINUOUS
10
0.172026
20
1.25603
11
0.171204
21
1.25559
0
LINE
8
BLACK
6
CONTINUOUS
10
0.171204
20
1.25559
11
0.170408
21
1.2551
0
LINE
8
BLACK
6
CONTINUOUS
10
0.170408
20
1.2551
11
0.170324
21
1.25511
0
LINE
8
BLACK
6
CONTINUOUS
10
0.170324
20
1.25511
11
0.170249
21
1.25507
0
LINE
8
BLACK
6
CONTINUOUS
10
0.170249
20
1.25507
11
0.169334
21
1.25526
0
LINE
8
BLACK
6
CONTINUOUS
10
0.169334
20
1.25526
11
0.16841
21
1.2554
0
LINE
8
BLACK
6
CONTINUOUS
10
0.16841
20
1.2554
11
0.168354
21
1.25546
0
LINE
8
BLACK
6
CONTINUOUS
10
0.168354
20
1.25546
11
0.168271
21
1.25548
0
LINE
8
BLACK
6
CONTINUOUS
10
0.168271
20
1.25548
11
0.16769
21
1.25621
0
LINE
8
BLACK
6
CONTINUOUS
10
0.16769
20
1.25621
11
0.16707
21
1.25691
0
LINE
8
BLACK
6
CONTINUOUS
10
0.16707
20
1.25691
11
0.167068
21
1.25699
0
LINE
8
BLACK
6
CONTINUOUS
10
0.167068
20
1.25699
11
0.167015
21
1.25706
0
LINE
8
BLACK
6
CONTINUOUS
10
0.167015
20
1.25706
11
0.153892
21
1.29643
0
LINE
8
BLACK
6
CONTINUOUS
10
0.153892
20
1.29643
11
0.153741
21
1.29744
0
LINE
8
BLACK
6
CONTINUOUS
10
0.153741
20
1.29744
11
0.154484
21
1.29932
0
LINE
8
BLACK
6
CONTINUOUS
10
0.154484
20
1.29932
11
0.15626
21
1.30028
0
LINE
8
BLACK
6
CONTINUOUS
10
0.15626
20
1.30028
11
0.158239
21
1.29988
0
LINE
8
BLACK
6
CONTINUOUS
10
0.448827
20
1.29988
11
0.450083
21
1.2983
0
LINE
8
BLACK
6
CONTINUOUS
10
0.450083
20
1.2983
11
0.460405
21
1.26733
0
LINE
8
BLACK
6
CONTINUOUS
10
0.460405
20
1.26733
11
0.470727
21
1.2983
0
LINE
8
BLACK
6
CONTINUOUS
10
0.470727
20
1.2983
11
0.471215
21
1.2992
0
LINE
8
BLACK
6
CONTINUOUS
10
0.471215
20
1.2992
11
0.472936
21
1.30026
0
LINE
8
BLACK
6
CONTINUOUS
10
0.472936
20
1.30026
11
0.474934
21
1.29996
0
LINE
8
BLACK
6
CONTINUOUS
10
0.474934
20
1.29996
11
0.476274
21
1.29845
0
LINE
8
BLACK
6
CONTINUOUS
10
0.476274
20
1.29845
11
0.476329
21
1.29643
0
LINE
8
BLACK
6
CONTINUOUS
10
0.476329
20
1.29643
11
0.463206
21
1.25706
0
LINE
8
BLACK
6
CONTINUOUS
10
0.463206
20
1.25706
11
0.462718
21
1.25616
0
LINE
8
BLACK
6
CONTINUOUS
10
0.462718
20
1.25616
11
0.462645
21
1.25611
0
LINE
8
BLACK
6
CONTINUOUS
10
0.462645
20
1.25611
11
0.462614
21
1.25603
0
LINE
8
BLACK
6
CONTINUOUS
10
0.462614
20
1.25603
11
0.461793
21
1.25559
0
LINE
8
BLACK
6
CONTINUOUS
10
0.461793
20
1.25559
11
0.460997
21
1.2551
0
LINE
8
BLACK
6
CONTINUOUS
10
0.460997
20
1.2551
11
0.460913
21
1.25511
0
LINE
8
BLACK
6
CONTINUOUS
10
0.460913
20
1.25511
11
0.460838
21
1.25507
0
LINE
8
BLACK
6
CONTINUOUS
10
0.460838
20
1.25507
11
0.459923
21
1.25526
0
LINE
8
BLACK
6
CONTINUOUS
10
0.459923
20
1.25526
11
0.458999
21
1.2554
0
LINE
8
BLACK
6
CONTINUOUS
10
0.458999
20
1.2554
11
0.458942
21
1.25546
0
LINE
8
BLACK
6
CONTINUOUS
10
0.458942
20
1.25546
11
0.458859
21
1.25548
0
LINE
8
BLACK
6
CONTINUOUS
10
0.458859
20
1.25548
11
0.458279
21
1.25621
0
LINE
8
BLACK
6
CONTINUOUS
10
0.458279
20
1.25621
11
0.457659
21
1.25691
0
LINE
8
BLACK
6
CONTINUOUS
10
0.457659
20
1.25691
11
0.457657
21
1.25699
0
LINE
8
BLACK
6
CONTINUOUS
10
0.457657
20
1.25699
11
0.457604
21
1.25706
0
LINE
8
BLACK
6
CONTINUOUS
10
0.457604
20
1.25706
11
0.44448
21
1.29643
0
LINE
8
BLACK
6
CONTINUOUS
10
0.44448
20
1.29643
11
0.44433
21
1.29744
0
LINE
8
BLACK
6
CONTINUOUS
10
0.44433
20
1.29744
11
0.445072
21
1.29932
0
LINE
8
BLACK
6
CONTINUOUS
10
0.445072
20
1.29932
11
0.446848
21
1.30028
0
LINE
8
BLACK
6
CONTINUOUS
10
0.446848
20
1.30028
11
0.448827
21
1.29988
0
LINE
8
BLACK
6
CONTINUOUS
10
0.320807
20
1.27577
11
0.322355
21
1.27447
0
LINE
8
BLACK
6
CONTINUOUS
10
0.322355
20
1.27447
11
0.322705
21
1.27248
0
LINE
8
BLACK
6
CONTINUOUS
10
0.322705
20
1.27248
11
0.321695
21
1.27073
0
LINE
8
BLACK
6
CONTINUOUS
10
0.321695
20
1.27073
11
0.319797
21
1.27004
0
LINE
8
BLACK
6
CONTINUOUS
10
0.319797
20
1.27004
11
0.289801
21
1.27004
0
LINE
8
BLACK
6
CONTINUOUS
10
0.289801
20
1.27004
11
0.288791
21
1.27022
0
LINE
8
BLACK
6
CONTINUOUS
10
0.288791
20
1.27022
11
0.287244
21
1.27152
0
LINE
8
BLACK
6
CONTINUOUS
10
0.287244
20
1.27152
11
0.286893
21
1.2735
0
LINE
8
BLACK
6
CONTINUOUS
10
0.286893
20
1.2735
11
0.287903
21
1.27525
0
LINE
8
BLACK
6
CONTINUOUS
10
0.287903
20
1.27525
11
0.289801
21
1.27594
0
LINE
8
BLACK
6
CONTINUOUS
10
0.289801
20
1.27594
11
0.319797
21
1.27594
0
LINE
8
BLACK
6
CONTINUOUS
10
0.319797
20
1.27594
11
0.320807
21
1.27577
0
LINE
8
BLACK
6
CONTINUOUS
10
0.380504
20
1.41111
11
0.38108
21
1.40972
0
LINE
8
BLACK
6
CONTINUOUS
10
0.38108
20
1.40972
11
0.38108
21
1.38019
0
LINE
8
BLACK
6
CONTINUOUS
10
0.38108
20
1.38019
11
0.414612
21
1.38019
0
LINE
8
BLACK
6
CONTINUOUS
10
0.414612
20
1.38019
11
0.416004
21
1.37961
0
LINE
8
BLACK
6
CONTINUOUS
10
0.416004
20
1.37961
11
0.41658
21
1.37822
0
LINE
8
BLACK
6
CONTINUOUS
10
0.41658
20
1.37822
11
0.416004
21
1.37683
0
LINE
8
BLACK
6
CONTINUOUS
10
0.416004
20
1.37683
11
0.414612
21
1.37625
0
LINE
8
BLACK
6
CONTINUOUS
10
0.414612
20
1.37625
11
0.38108
21
1.37625
0
LINE
8
BLACK
6
CONTINUOUS
10
0.38108
20
1.37625
11
0.38108
21
1.34672
0
LINE
8
BLACK
6
CONTINUOUS
10
0.38108
20
1.34672
11
0.380504
21
1.34533
0
LINE
8
BLACK
6
CONTINUOUS
10
0.380504
20
1.34533
11
0.379112
21
1.34475
0
LINE
8
BLACK
6
CONTINUOUS
10
0.379112
20
1.34475
11
0.37772
21
1.34533
0
LINE
8
BLACK
6
CONTINUOUS
10
0.37772
20
1.34533
11
0.377143
21
1.34672
0
LINE
8
BLACK
6
CONTINUOUS
10
0.377143
20
1.34672
11
0.377143
21
1.37459
0
LINE
8
BLACK
6
CONTINUOUS
10
0.377143
20
1.37459
11
0.334886
21
1.34707
0
LINE
8
BLACK
6
CONTINUOUS
10
0.334886
20
1.34707
11
0.334332
21
1.34697
0
LINE
8
BLACK
6
CONTINUOUS
10
0.334332
20
1.34697
11
0.333812
21
1.34675
0
LINE
8
BLACK
6
CONTINUOUS
10
0.333812
20
1.34675
11
0.333615
21
1.34684
0
LINE
8
BLACK
6
CONTINUOUS
10
0.333615
20
1.34684
11
0.333405
21
1.3468
0
LINE
8
BLACK
6
CONTINUOUS
10
0.333405
20
1.3468
11
0.33294
21
1.34711
0
LINE
8
BLACK
6
CONTINUOUS
10
0.33294
20
1.34711
11
0.33242
21
1.34733
0
LINE
8
BLACK
6
CONTINUOUS
10
0.33242
20
1.34733
11
0.332338
21
1.34753
0
LINE
8
BLACK
6
CONTINUOUS
10
0.332338
20
1.34753
11
0.332162
21
1.34765
0
LINE
8
BLACK
6
CONTINUOUS
10
0.332162
20
1.34765
11
0.332059
21
1.3482
0
LINE
8
BLACK
6
CONTINUOUS
10
0.332059
20
1.3482
11
0.331843
21
1.34872
0
LINE
8
BLACK
6
CONTINUOUS
10
0.331843
20
1.34872
11
0.331843
21
1.37625
0
LINE
8
BLACK
6
CONTINUOUS
10
0.331843
20
1.37625
11
0.294512
21
1.37625
0
LINE
8
BLACK
6
CONTINUOUS
10
0.294512
20
1.37625
11
0.29312
21
1.37683
0
LINE
8
BLACK
6
CONTINUOUS
10
0.29312
20
1.37683
11
0.292543
21
1.37822
0
LINE
8
BLACK
6
CONTINUOUS
10
0.292543
20
1.37822
11
0.29312
21
1.37961
0
LINE
8
BLACK
6
CONTINUOUS
10
0.29312
20
1.37961
11
0.294512
21
1.38019
0
LINE
8
BLACK
6
CONTINUOUS
10
0.294512
20
1.38019
11
0.331843
21
1.38019
0
LINE
8
BLACK
6
CONTINUOUS
10
0.331843
20
1.38019
11
0.331843
21
1.40972
0
LINE
8
BLACK
6
CONTINUOUS
10
0.331843
20
1.40972
11
0.33207
21
1.41027
0
LINE
8
BLACK
6
CONTINUOUS
10
0.33207
20
1.41027
11
0.332196
21
1.41085
0
LINE
8
BLACK
6
CONTINUOUS
10
0.332196
20
1.41085
11
0.33235
21
1.41094
0
LINE
8
BLACK
6
CONTINUOUS
10
0.33235
20
1.41094
11
0.33242
21
1.41111
0
LINE
8
BLACK
6
CONTINUOUS
10
0.33242
20
1.41111
11
0.332966
21
1.41134
0
LINE
8
BLACK
6
CONTINUOUS
10
0.332966
20
1.41134
11
0.333464
21
1.41166
0
LINE
8
BLACK
6
CONTINUOUS
10
0.333464
20
1.41166
11
0.333643
21
1.41162
0
LINE
8
BLACK
6
CONTINUOUS
10
0.333643
20
1.41162
11
0.333812
21
1.41169
0
LINE
8
BLACK
6
CONTINUOUS
10
0.333812
20
1.41169
11
0.334358
21
1.41146
0
LINE
8
BLACK
6
CONTINUOUS
10
0.334358
20
1.41146
11
0.334936
21
1.41134
0
LINE
8
BLACK
6
CONTINUOUS
10
0.334936
20
1.41134
11
0.377143
21
1.38199
0
LINE
8
BLACK
6
CONTINUOUS
10
0.377143
20
1.38199
11
0.377143
21
1.40972
0
LINE
8
BLACK
6
CONTINUOUS
10
0.377143
20
1.40972
11
0.37772
21
1.41111
0
LINE
8
BLACK
6
CONTINUOUS
10
0.37772
20
1.41111
11
0.379112
21
1.41169
0
LINE
8
BLACK
6
CONTINUOUS
10
0.379112
20
1.41169
11
0.380504
21
1.41111
0
LINE
8
BLACK
6
CONTINUOUS
10
0.33578
20
1.35235
11
0.375587
21
1.37828
0
LINE
8
BLACK
6
CONTINUOUS
10
0.375587
20
1.37828
11
0.33578
21
1.40596
0
LINE
8
BLACK
6
CONTINUOUS
10
0.33578
20
1.40596
11
0.33578
21
1.35235
0
LINE
8
BLACK
6
CONTINUOUS
10
0.444094
20
1.43929
11
0.445486
21
1.43871
0
LINE
8
BLACK
6
CONTINUOUS
10
0.445486
20
1.43871
11
0.446063
21
1.43732
0
LINE
8
BLACK
6
CONTINUOUS
10
0.446063
20
1.43732
11
0.446063
21
1.31921
0
LINE
8
BLACK
6
CONTINUOUS
10
0.446063
20
1.31921
11
0.445486
21
1.31782
0
LINE
8
BLACK
6
CONTINUOUS
10
0.445486
20
1.31782
11
0.444094
21
1.31724
0
LINE
8
BLACK
6
CONTINUOUS
10
0.444094
20
1.31724
11
0.262992
21
1.31724
0
LINE
8
BLACK
6
CONTINUOUS
10
0.262992
20
1.31724
11
0.2616
21
1.31782
0
LINE
8
BLACK
6
CONTINUOUS
10
0.2616
20
1.31782
11
0.261024
21
1.31921
0
LINE
8
BLACK
6
CONTINUOUS
10
0.261024
20
1.31921
11
0.261024
21
1.43732
0
LINE
8
BLACK
6
CONTINUOUS
10
0.261024
20
1.43732
11
0.2616
21
1.43871
0
LINE
8
BLACK
6
CONTINUOUS
10
0.2616
20
1.43871
11
0.262992
21
1.43929
0
LINE
8
BLACK
6
CONTINUOUS
10
0.262992
20
1.43929
11
0.444094
21
1.43929
0
LINE
8
BLACK
6
CONTINUOUS
10
0.264961
20
1.43535
11
0.264961
21
1.32118
0
LINE
8
BLACK
6
CONTINUOUS
10
0.264961
20
1.32118
11
0.442126
21
1.32118
0
LINE
8
BLACK
6
CONTINUOUS
10
0.442126
20
1.32118
11
0.442126
21
1.43535
0
LINE
8
BLACK
6
CONTINUOUS
10
0.442126
20
1.43535
11
0.264961
21
1.43535
0
LINE
8
BLACK
6
CONTINUOUS
10
0.334518
20
1.50097
11
0.334687
21
1.50099
0
LINE
8
BLACK
6
CONTINUOUS
10
0.334687
20
1.50099
11
0.335378
21
1.50048
0
LINE
8
BLACK
6
CONTINUOUS
10
0.335378
20
1.50048
11
0.33612
21
1.50005
0
LINE
8
BLACK
6
CONTINUOUS
10
0.33612
20
1.50005
11
0.336178
21
1.49989
0
LINE
8
BLACK
6
CONTINUOUS
10
0.336178
20
1.49989
11
0.336315
21
1.49979
0
LINE
8
BLACK
6
CONTINUOUS
10
0.336315
20
1.49979
11
0.339902
21
1.49441
0
LINE
8
BLACK
6
CONTINUOUS
10
0.339902
20
1.49441
11
0.343106
21
1.4912
0
LINE
8
BLACK
6
CONTINUOUS
10
0.343106
20
1.4912
11
0.346427
21
1.48954
0
LINE
8
BLACK
6
CONTINUOUS
10
0.346427
20
1.48954
11
0.347251
21
1.48893
0
LINE
8
BLACK
6
CONTINUOUS
10
0.347251
20
1.48893
11
0.348054
21
1.48708
0
LINE
8
BLACK
6
CONTINUOUS
10
0.348054
20
1.48708
11
0.347478
21
1.48514
0
LINE
8
BLACK
6
CONTINUOUS
10
0.347478
20
1.48514
11
0.345793
21
1.48403
0
LINE
8
BLACK
6
CONTINUOUS
10
0.345793
20
1.48403
11
0.343786
21
1.48426
0
LINE
8
BLACK
6
CONTINUOUS
10
0.343786
20
1.48426
11
0.340037
21
1.48614
0
LINE
8
BLACK
6
CONTINUOUS
10
0.340037
20
1.48614
11
0.339328
21
1.48666
0
LINE
8
BLACK
6
CONTINUOUS
10
0.339328
20
1.48666
11
0.339269
21
1.48669
0
LINE
8
BLACK
6
CONTINUOUS
10
0.339269
20
1.48669
11
0.336811
21
1.48915
0
LINE
8
BLACK
6
CONTINUOUS
10
0.336811
20
1.48915
11
0.336811
21
1.46173
0
LINE
8
BLACK
6
CONTINUOUS
10
0.336811
20
1.46173
11
0.345107
21
1.46173
0
LINE
8
BLACK
6
CONTINUOUS
10
0.345107
20
1.46173
11
0.346117
21
1.46156
0
LINE
8
BLACK
6
CONTINUOUS
10
0.346117
20
1.46156
11
0.347664
21
1.46026
0
LINE
8
BLACK
6
CONTINUOUS
10
0.347664
20
1.46026
11
0.348015
21
1.45827
0
LINE
8
BLACK
6
CONTINUOUS
10
0.348015
20
1.45827
11
0.347005
21
1.45652
0
LINE
8
BLACK
6
CONTINUOUS
10
0.347005
20
1.45652
11
0.345107
21
1.45583
0
LINE
8
BLACK
6
CONTINUOUS
10
0.345107
20
1.45583
11
0.32261
21
1.45583
0
LINE
8
BLACK
6
CONTINUOUS
10
0.32261
20
1.45583
11
0.3216
21
1.45601
0
LINE
8
BLACK
6
CONTINUOUS
10
0.3216
20
1.45601
11
0.320052
21
1.4573
0
LINE
8
BLACK
6
CONTINUOUS
10
0.320052
20
1.4573
11
0.319702
21
1.45929
0
LINE
8
BLACK
6
CONTINUOUS
10
0.319702
20
1.45929
11
0.320712
21
1.46104
0
LINE
8
BLACK
6
CONTINUOUS
10
0.320712
20
1.46104
11
0.32261
21
1.46173
0
LINE
8
BLACK
6
CONTINUOUS
10
0.32261
20
1.46173
11
0.330905
21
1.46173
0
LINE
8
BLACK
6
CONTINUOUS
10
0.330905
20
1.46173
11
0.330905
21
1.49815
0
LINE
8
BLACK
6
CONTINUOUS
10
0.330905
20
1.49815
11
0.331084
21
1.49916
0
LINE
8
BLACK
6
CONTINUOUS
10
0.331084
20
1.49916
11
0.331193
21
1.49929
0
LINE
8
BLACK
6
CONTINUOUS
10
0.331193
20
1.49929
11
0.331211
21
1.49946
0
LINE
8
BLACK
6
CONTINUOUS
10
0.331211
20
1.49946
11
0.331831
21
1.50005
0
LINE
8
BLACK
6
CONTINUOUS
10
0.331831
20
1.50005
11
0.332382
21
1.50071
0
LINE
8
BLACK
6
CONTINUOUS
10
0.332382
20
1.50071
11
0.332549
21
1.50074
0
LINE
8
BLACK
6
CONTINUOUS
10
0.332549
20
1.50074
11
0.332672
21
1.50086
0
LINE
8
BLACK
6
CONTINUOUS
10
0.332672
20
1.50086
11
0.333527
21
1.50091
0
LINE
8
BLACK
6
CONTINUOUS
10
0.333527
20
1.50091
11
0.334371
21
1.50106
0
LINE
8
BLACK
6
CONTINUOUS
10
0.334371
20
1.50106
11
0.334518
21
1.50097
0
LINE
8
BLACK
6
CONTINUOUS
10
0.382986
20
1.50104
11
0.383115
21
1.50106
0
LINE
8
BLACK
6
CONTINUOUS
10
0.383115
20
1.50106
11
0.383228
21
1.50099
0
LINE
8
BLACK
6
CONTINUOUS
10
0.383228
20
1.50099
11
0.383612
21
1.50093
0
LINE
8
BLACK
6
CONTINUOUS
10
0.383612
20
1.50093
11
0.3842
21
1.50043
0
LINE
8
BLACK
6
CONTINUOUS
10
0.3842
20
1.50043
11
0.384864
21
1.50005
0
LINE
8
BLACK
6
CONTINUOUS
10
0.384864
20
1.50005
11
0.384955
21
1.4998
0
LINE
8
BLACK
6
CONTINUOUS
10
0.384955
20
1.4998
11
0.385159
21
1.49963
0
LINE
8
BLACK
6
CONTINUOUS
10
0.385159
20
1.49963
11
0.385293
21
1.49887
0
LINE
8
BLACK
6
CONTINUOUS
10
0.385293
20
1.49887
11
0.385555
21
1.49815
0
LINE
8
BLACK
6
CONTINUOUS
10
0.385555
20
1.49815
11
0.385555
21
1.45878
0
LINE
8
BLACK
6
CONTINUOUS
10
0.385555
20
1.45878
11
0.385487
21
1.4584
0
LINE
8
BLACK
6
CONTINUOUS
10
0.385487
20
1.4584
11
0.38551
21
1.45827
0
LINE
8
BLACK
6
CONTINUOUS
10
0.38551
20
1.45827
11
0.385444
21
1.45815
0
LINE
8
BLACK
6
CONTINUOUS
10
0.385444
20
1.45815
11
0.385377
21
1.45777
0
LINE
8
BLACK
6
CONTINUOUS
10
0.385377
20
1.45777
11
0.384884
21
1.45718
0
LINE
8
BLACK
6
CONTINUOUS
10
0.384884
20
1.45718
11
0.3845
21
1.45652
0
LINE
8
BLACK
6
CONTINUOUS
10
0.3845
20
1.45652
11
0.38425
21
1.45643
0
LINE
8
BLACK
6
CONTINUOUS
10
0.38425
20
1.45643
11
0.384079
21
1.45622
0
LINE
8
BLACK
6
CONTINUOUS
10
0.384079
20
1.45622
11
0.383323
21
1.45609
0
LINE
8
BLACK
6
CONTINUOUS
10
0.383323
20
1.45609
11
0.382602
21
1.45583
0
LINE
8
BLACK
6
CONTINUOUS
10
0.382602
20
1.45583
11
0.373228
21
1.45583
0
LINE
8
BLACK
6
CONTINUOUS
10
0.373228
20
1.45583
11
0.372359
21
1.45598
0
LINE
8
BLACK
6
CONTINUOUS
10
0.372359
20
1.45598
11
0.372295
21
1.45598
0
LINE
8
BLACK
6
CONTINUOUS
10
0.372295
20
1.45598
11
0.36667
21
1.45785
0
LINE
8
BLACK
6
CONTINUOUS
10
0.36667
20
1.45785
11
0.365769
21
1.45834
0
LINE
8
BLACK
6
CONTINUOUS
10
0.365769
20
1.45834
11
0.365676
21
1.45849
0
LINE
8
BLACK
6
CONTINUOUS
10
0.365676
20
1.45849
11
0.365516
21
1.45857
0
LINE
8
BLACK
6
CONTINUOUS
10
0.365516
20
1.45857
11
0.361767
21
1.46232
0
LINE
8
BLACK
6
CONTINUOUS
10
0.361767
20
1.46232
11
0.36126
21
1.46304
0
LINE
8
BLACK
6
CONTINUOUS
10
0.36126
20
1.46304
11
0.361213
21
1.46308
0
LINE
8
BLACK
6
CONTINUOUS
10
0.361213
20
1.46308
11
0.359339
21
1.46683
0
LINE
8
BLACK
6
CONTINUOUS
10
0.359339
20
1.46683
11
0.359193
21
1.46732
0
LINE
8
BLACK
6
CONTINUOUS
10
0.359193
20
1.46732
11
0.359115
21
1.46744
0
LINE
8
BLACK
6
CONTINUOUS
10
0.359115
20
1.46744
11
0.35724
21
1.47494
0
LINE
8
BLACK
6
CONTINUOUS
10
0.35724
20
1.47494
11
0.357199
21
1.47553
0
LINE
8
BLACK
6
CONTINUOUS
10
0.357199
20
1.47553
11
0.357152
21
1.47565
0
LINE
8
BLACK
6
CONTINUOUS
10
0.357152
20
1.47565
11
0.357152
21
1.48128
0
LINE
8
BLACK
6
CONTINUOUS
10
0.357152
20
1.48128
11
0.357255
21
1.48186
0
LINE
8
BLACK
6
CONTINUOUS
10
0.357255
20
1.48186
11
0.35724
21
1.48199
0
LINE
8
BLACK
6
CONTINUOUS
10
0.35724
20
1.48199
11
0.359115
21
1.48949
0
LINE
8
BLACK
6
CONTINUOUS
10
0.359115
20
1.48949
11
0.359323
21
1.48996
0
LINE
8
BLACK
6
CONTINUOUS
10
0.359323
20
1.48996
11
0.359339
21
1.4901
0
LINE
8
BLACK
6
CONTINUOUS
10
0.359339
20
1.4901
11
0.361213
21
1.49385
0
LINE
8
BLACK
6
CONTINUOUS
10
0.361213
20
1.49385
11
0.361739
21
1.49456
0
LINE
8
BLACK
6
CONTINUOUS
10
0.361739
20
1.49456
11
0.361767
21
1.49461
0
LINE
8
BLACK
6
CONTINUOUS
10
0.361767
20
1.49461
11
0.365516
21
1.49836
0
LINE
8
BLACK
6
CONTINUOUS
10
0.365516
20
1.49836
11
0.366356
21
1.49895
0
LINE
8
BLACK
6
CONTINUOUS
10
0.366356
20
1.49895
11
0.366532
21
1.49897
0
LINE
8
BLACK
6
CONTINUOUS
10
0.366532
20
1.49897
11
0.36667
21
1.49908
0
LINE
8
BLACK
6
CONTINUOUS
10
0.36667
20
1.49908
11
0.372295
21
1.50095
0
LINE
8
BLACK
6
CONTINUOUS
10
0.372295
20
1.50095
11
0.373168
21
1.50108
0
LINE
8
BLACK
6
CONTINUOUS
10
0.373168
20
1.50108
11
0.373228
21
1.5011
0
LINE
8
BLACK
6
CONTINUOUS
10
0.373228
20
1.5011
11
0.382602
21
1.5011
0
LINE
8
BLACK
6
CONTINUOUS
10
0.382602
20
1.5011
11
0.382986
21
1.50104
0
LINE
8
BLACK
6
CONTINUOUS
10
0.369199
20
1.4937
11
0.366281
21
1.49078
0
LINE
8
BLACK
6
CONTINUOUS
10
0.366281
20
1.49078
11
0.364766
21
1.48775
0
LINE
8
BLACK
6
CONTINUOUS
10
0.364766
20
1.48775
11
0.363058
21
1.48091
0
LINE
8
BLACK
6
CONTINUOUS
10
0.363058
20
1.48091
11
0.363058
21
1.47602
0
LINE
8
BLACK
6
CONTINUOUS
10
0.363058
20
1.47602
11
0.364766
21
1.46919
0
LINE
8
BLACK
6
CONTINUOUS
10
0.364766
20
1.46919
11
0.366281
21
1.46615
0
LINE
8
BLACK
6
CONTINUOUS
10
0.366281
20
1.46615
11
0.369199
21
1.46324
0
LINE
8
BLACK
6
CONTINUOUS
10
0.369199
20
1.46324
11
0.373707
21
1.46173
0
LINE
8
BLACK
6
CONTINUOUS
10
0.373707
20
1.46173
11
0.379649
21
1.46173
0
LINE
8
BLACK
6
CONTINUOUS
10
0.379649
20
1.46173
11
0.379649
21
1.4952
0
LINE
8
BLACK
6
CONTINUOUS
10
0.379649
20
1.4952
11
0.373707
21
1.4952
0
LINE
8
BLACK
6
CONTINUOUS
10
0.373707
20
1.4952
11
0.369199
21
1.4937
0
LINE
8
BLACK
6
CONTINUOUS
10
-0.0463842
20
1.70967
11
-0.0462489
21
1.70956
0
LINE
8
BLACK
6
CONTINUOUS
10
-0.0462489
20
1.70956
11
-0.0460736
21
1.70954
0
LINE
8
BLACK
6
CONTINUOUS
10
-0.0460736
20
1.70954
11
-0.0423241
21
1.70766
0
LINE
8
BLACK
6
CONTINUOUS
10
-0.0423241
20
1.70766
11
-0.041615
21
1.70714
0
LINE
8
BLACK
6
CONTINUOUS
10
-0.041615
20
1.70714
11
-0.0415567
21
1.70711
0
LINE
8
BLACK
6
CONTINUOUS
10
-0.0415567
20
1.70711
11
-0.0396819
21
1.70524
0
LINE
8
BLACK
6
CONTINUOUS
10
-0.0396819
20
1.70524
11
-0.0391756
21
1.70451
0
LINE
8
BLACK
6
CONTINUOUS
10
-0.0391756
20
1.70451
11
-0.0391288
21
1.70447
0
LINE
8
BLACK
6
CONTINUOUS
10
-0.0391288
20
1.70447
11
-0.037254
21
1.70072
0
LINE
8
BLACK
6
CONTINUOUS
10
-0.037254
20
1.70072
11
-0.0371087
21
1.70023
0
LINE
8
BLACK
6
CONTINUOUS
10
-0.0371087
20
1.70023
11
-0.0370304
21
1.70011
0
LINE
8
BLACK
6
CONTINUOUS
10
-0.0370304
20
1.70011
11
-0.0351557
21
1.69261
0
LINE
8
BLACK
6
CONTINUOUS
10
-0.0351557
20
1.69261
11
-0.0351142
21
1.69203
0
LINE
8
BLACK
6
CONTINUOUS
10
-0.0351142
20
1.69203
11
-0.0350675
21
1.6919
0
LINE
8
BLACK
6
CONTINUOUS
10
-0.0350675
20
1.6919
11
-0.0350675
21
1.68252
0
LINE
8
BLACK
6
CONTINUOUS
10
-0.0350675
20
1.68252
11
-0.0351699
21
1.68194
0
LINE
8
BLACK
6
CONTINUOUS
10
-0.0351699
20
1.68194
11
-0.0351557
21
1.68181
0
LINE
8
BLACK
6
CONTINUOUS
10
-0.0351557
20
1.68181
11
-0.0370304
21
1.67431
0
LINE
8
BLACK
6
CONTINUOUS
10
-0.0370304
20
1.67431
11
-0.037238
21
1.67384
0
LINE
8
BLACK
6
CONTINUOUS
10
-0.037238
20
1.67384
11
-0.037254
21
1.67371
0
LINE
8
BLACK
6
CONTINUOUS
10
-0.037254
20
1.67371
11
-0.0391288
21
1.66996
0
LINE
8
BLACK
6
CONTINUOUS
10
-0.0391288
20
1.66996
11
-0.0396547
21
1.66925
0
LINE
8
BLACK
6
CONTINUOUS
10
-0.0396547
20
1.66925
11
-0.0396819
21
1.66919
0
LINE
8
BLACK
6
CONTINUOUS
10
-0.0396819
20
1.66919
11
-0.0415566
21
1.66731
0
LINE
8
BLACK
6
CONTINUOUS
10
-0.0415566
20
1.66731
11
-0.0422798
21
1.66681
0
LINE
8
BLACK
6
CONTINUOUS
10
-0.0422798
20
1.66681
11
-0.0423241
21
1.66676
0
LINE
8
BLACK
6
CONTINUOUS
10
-0.0423241
20
1.66676
11
-0.0460736
21
1.66489
0
LINE
8
BLACK
6
CONTINUOUS
10
-0.0460736
20
1.66489
11
-0.0470565
21
1.66459
0
LINE
8
BLACK
6
CONTINUOUS
10
-0.0470565
20
1.66459
11
-0.0472282
21
1.66463
0
LINE
8
BLACK
6
CONTINUOUS
10
-0.0472282
20
1.66463
11
-0.0473941
21
1.66457
0
LINE
8
BLACK
6
CONTINUOUS
10
-0.0473941
20
1.66457
11
-0.0511436
21
1.66457
0
LINE
8
BLACK
6
CONTINUOUS
10
-0.0511436
20
1.66457
11
-0.0521535
21
1.66475
0
LINE
8
BLACK
6
CONTINUOUS
10
-0.0521535
20
1.66475
11
-0.0522888
21
1.66487
0
LINE
8
BLACK
6
CONTINUOUS
10
-0.0522888
20
1.66487
11
-0.0524641
21
1.66489
0
LINE
8
BLACK
6
CONTINUOUS
10
-0.0524641
20
1.66489
11
-0.0562137
21
1.66676
0
LINE
8
BLACK
6
CONTINUOUS
10
-0.0562137
20
1.66676
11
-0.0569228
21
1.66729
0
LINE
8
BLACK
6
CONTINUOUS
10
-0.0569228
20
1.66729
11
-0.0569811
21
1.66731
0
LINE
8
BLACK
6
CONTINUOUS
10
-0.0569811
20
1.66731
11
-0.0588559
21
1.66919
0
LINE
8
BLACK
6
CONTINUOUS
10
-0.0588559
20
1.66919
11
-0.0593622
21
1.66991
0
LINE
8
BLACK
6
CONTINUOUS
10
-0.0593622
20
1.66991
11
-0.0594089
21
1.66996
0
LINE
8
BLACK
6
CONTINUOUS
10
-0.0594089
20
1.66996
11
-0.0612837
21
1.67371
0
LINE
8
BLACK
6
CONTINUOUS
10
-0.0612837
20
1.67371
11
-0.061429
21
1.67419
0
LINE
8
BLACK
6
CONTINUOUS
10
-0.061429
20
1.67419
11
-0.0615073
21
1.67431
0
LINE
8
BLACK
6
CONTINUOUS
10
-0.0615073
20
1.67431
11
-0.063382
21
1.68181
0
LINE
8
BLACK
6
CONTINUOUS
10
-0.063382
20
1.68181
11
-0.0634235
21
1.6824
0
LINE
8
BLACK
6
CONTINUOUS
10
-0.0634235
20
1.6824
11
-0.0634702
21
1.68252
0
LINE
8
BLACK
6
CONTINUOUS
10
-0.0634702
20
1.68252
11
-0.0634702
21
1.6919
0
LINE
8
BLACK
6
CONTINUOUS
10
-0.0634702
20
1.6919
11
-0.0633679
21
1.69248
0
LINE
8
BLACK
6
CONTINUOUS
10
-0.0633679
20
1.69248
11
-0.063382
21
1.69261
0
LINE
8
BLACK
6
CONTINUOUS
10
-0.063382
20
1.69261
11
-0.0615073
21
1.70011
0
LINE
8
BLACK
6
CONTINUOUS
10
-0.0615073
20
1.70011
11
-0.0612997
21
1.70058
0
LINE
8
BLACK
6
CONTINUOUS
10
-0.0612997
20
1.70058
11
-0.0612837
21
1.70072
0
LINE
8
BLACK
6
CONTINUOUS
10
-0.0612837
20
1.70072
11
-0.0594089
21
1.70447
0
LINE
8
BLACK
6
CONTINUOUS
10
-0.0594089
20
1.70447
11
-0.058883
21
1.70518
0
LINE
8
BLACK
6
CONTINUOUS
10
-0.058883
20
1.70518
11
-0.0588558
21
1.70524
0
LINE
8
BLACK
6
CONTINUOUS
10
-0.0588558
20
1.70524
11
-0.0569811
21
1.70711
0
LINE
8
BLACK
6
CONTINUOUS
10
-0.0569811
20
1.70711
11
-0.056258
21
1.70762
0
LINE
8
BLACK
6
CONTINUOUS
10
-0.056258
20
1.70762
11
-0.0562137
21
1.70766
0
LINE
8
BLACK
6
CONTINUOUS
10
-0.0562137
20
1.70766
11
-0.0524641
21
1.70954
0
LINE
8
BLACK
6
CONTINUOUS
10
-0.0524641
20
1.70954
11
-0.0514812
21
1.70983
0
LINE
8
BLACK
6
CONTINUOUS
10
-0.0514812
20
1.70983
11
-0.0513095
21
1.70979
0
LINE
8
BLACK
6
CONTINUOUS
10
-0.0513095
20
1.70979
11
-0.0511436
21
1.70985
0
LINE
8
BLACK
6
CONTINUOUS
10
-0.0511436
20
1.70985
11
-0.0473941
21
1.70985
0
LINE
8
BLACK
6
CONTINUOUS
10
-0.0473941
20
1.70985
11
-0.0463842
21
1.70967
0
LINE
8
BLACK
6
CONTINUOUS
10
-0.0531441
20
1.7026
11
-0.0543412
21
1.7014
0
LINE
8
BLACK
6
CONTINUOUS
10
-0.0543412
20
1.7014
11
-0.0558567
21
1.69837
0
LINE
8
BLACK
6
CONTINUOUS
10
-0.0558567
20
1.69837
11
-0.0575647
21
1.69154
0
LINE
8
BLACK
6
CONTINUOUS
10
-0.0575647
20
1.69154
11
-0.0575647
21
1.68289
0
LINE
8
BLACK
6
CONTINUOUS
10
-0.0575647
20
1.68289
11
-0.0558567
21
1.67606
0
LINE
8
BLACK
6
CONTINUOUS
10
-0.0558567
20
1.67606
11
-0.0543412
21
1.67303
0
LINE
8
BLACK
6
CONTINUOUS
10
-0.0543412
20
1.67303
11
-0.0531441
21
1.67183
0
LINE
8
BLACK
6
CONTINUOUS
10
-0.0531441
20
1.67183
11
-0.0504466
21
1.67048
0
LINE
8
BLACK
6
CONTINUOUS
10
-0.0504466
20
1.67048
11
-0.0480911
21
1.67048
0
LINE
8
BLACK
6
CONTINUOUS
10
-0.0480911
20
1.67048
11
-0.0453937
21
1.67183
0
LINE
8
BLACK
6
CONTINUOUS
10
-0.0453937
20
1.67183
11
-0.0441966
21
1.67303
0
LINE
8
BLACK
6
CONTINUOUS
10
-0.0441966
20
1.67303
11
-0.0426811
21
1.67606
0
LINE
8
BLACK
6
CONTINUOUS
10
-0.0426811
20
1.67606
11
-0.040973
21
1.68289
0
LINE
8
BLACK
6
CONTINUOUS
10
-0.040973
20
1.68289
11
-0.040973
21
1.69154
0
LINE
8
BLACK
6
CONTINUOUS
10
-0.040973
20
1.69154
11
-0.0426811
21
1.69837
0
LINE
8
BLACK
6
CONTINUOUS
10
-0.0426811
20
1.69837
11
-0.0441965
21
1.7014
0
LINE
8
BLACK
6
CONTINUOUS
10
-0.0441965
20
1.7014
11
-0.0453937
21
1.7026
0
LINE
8
BLACK
6
CONTINUOUS
10
-0.0453937
20
1.7026
11
-0.0480911
21
1.70394
0
LINE
8
BLACK
6
CONTINUOUS
10
-0.0480911
20
1.70394
11
-0.0504466
21
1.70394
0
LINE
8
BLACK
6
CONTINUOUS
10
-0.0504466
20
1.70394
11
-0.0531441
21
1.7026
0
LINE
8
BLACK
6
CONTINUOUS
10
-0.00888886
20
1.70967
11
-0.00875362
21
1.70956
0
LINE
8
BLACK
6
CONTINUOUS
10
-0.00875362
20
1.70956
11
-0.00857827
21
1.70954
0
LINE
8
BLACK
6
CONTINUOUS
10
-0.00857827
20
1.70954
11
-0.00482874
21
1.70766
0
LINE
8
BLACK
6
CONTINUOUS
10
-0.00482874
20
1.70766
11
-0.00411969
21
1.70714
0
LINE
8
BLACK
6
CONTINUOUS
10
-0.00411969
20
1.70714
11
-0.00406134
21
1.70711
0
LINE
8
BLACK
6
CONTINUOUS
10
-0.00406134
20
1.70711
11
-0.00218657
21
1.70524
0
LINE
8
BLACK
6
CONTINUOUS
10
-0.00218657
20
1.70524
11
-0.00168031
21
1.70451
0
LINE
8
BLACK
6
CONTINUOUS
10
-0.00168031
20
1.70451
11
-0.00163346
21
1.70447
0
LINE
8
BLACK
6
CONTINUOUS
10
-0.00163346
20
1.70447
11
0.000241299
21
1.70072
0
LINE
8
BLACK
6
CONTINUOUS
10
0.000241299
20
1.70072
11
0.000386575
21
1.70023
0
LINE
8
BLACK
6
CONTINUOUS
10
0.000386575
20
1.70023
11
0.000464882
21
1.70011
0
LINE
8
BLACK
6
CONTINUOUS
10
0.000464882
20
1.70011
11
0.00233965
21
1.69261
0
LINE
8
BLACK
6
CONTINUOUS
10
0.00233965
20
1.69261
11
0.0023811
21
1.69203
0
LINE
8
BLACK
6
CONTINUOUS
10
0.0023811
20
1.69203
11
0.0024278
21
1.6919
0
LINE
8
BLACK
6
CONTINUOUS
10
0.0024278
20
1.6919
11
0.0024278
21
1.68252
0
LINE
8
BLACK
6
CONTINUOUS
10
0.0024278
20
1.68252
11
0.00232543
21
1.68194
0
LINE
8
BLACK
6
CONTINUOUS
10
0.00232543
20
1.68194
11
0.00233965
21
1.68181
0
LINE
8
BLACK
6
CONTINUOUS
10
0.00233965
20
1.68181
11
0.000464882
21
1.67431
0
LINE
8
BLACK
6
CONTINUOUS
10
0.000464882
20
1.67431
11
0.000257283
21
1.67384
0
LINE
8
BLACK
6
CONTINUOUS
10
0.000257283
20
1.67384
11
0.000241299
21
1.67371
0
LINE
8
BLACK
6
CONTINUOUS
10
0.000241299
20
1.67371
11
-0.00163346
21
1.66996
0
LINE
8
BLACK
6
CONTINUOUS
10
-0.00163346
20
1.66996
11
-0.00215941
21
1.66925
0
LINE
8
BLACK
6
CONTINUOUS
10
-0.00215941
20
1.66925
11
-0.00218657
21
1.66919
0
LINE
8
BLACK
6
CONTINUOUS
10
-0.00218657
20
1.66919
11
-0.0040613
21
1.66731
0
LINE
8
BLACK
6
CONTINUOUS
10
-0.0040613
20
1.66731
11
-0.00478449
21
1.66681
0
LINE
8
BLACK
6
CONTINUOUS
10
-0.00478449
20
1.66681
11
-0.00482874
21
1.66676
0
LINE
8
BLACK
6
CONTINUOUS
10
-0.00482874
20
1.66676
11
-0.00857827
21
1.66489
0
LINE
8
BLACK
6
CONTINUOUS
10
-0.00857827
20
1.66489
11
-0.00956122
21
1.66459
0
LINE
8
BLACK
6
CONTINUOUS
10
-0.00956122
20
1.66459
11
-0.00973291
21
1.66463
0
LINE
8
BLACK
6
CONTINUOUS
10
-0.00973291
20
1.66463
11
-0.00989878
21
1.66457
0
LINE
8
BLACK
6
CONTINUOUS
10
-0.00989878
20
1.66457
11
-0.0136483
21
1.66457
0
LINE
8
BLACK
6
CONTINUOUS
10
-0.0136483
20
1.66457
11
-0.0146582
21
1.66475
0
LINE
8
BLACK
6
CONTINUOUS
10
-0.0146582
20
1.66475
11
-0.0147935
21
1.66487
0
LINE
8
BLACK
6
CONTINUOUS
10
-0.0147935
20
1.66487
11
-0.0149688
21
1.66489
0
LINE
8
BLACK
6
CONTINUOUS
10
-0.0149688
20
1.66489
11
-0.0187183
21
1.66676
0
LINE
8
BLACK
6
CONTINUOUS
10
-0.0187183
20
1.66676
11
-0.0194275
21
1.66729
0
LINE
8
BLACK
6
CONTINUOUS
10
-0.0194275
20
1.66729
11
-0.0194858
21
1.66731
0
LINE
8
BLACK
6
CONTINUOUS
10
-0.0194858
20
1.66731
11
-0.0213606
21
1.66919
0
LINE
8
BLACK
6
CONTINUOUS
10
-0.0213606
20
1.66919
11
-0.0218669
21
1.66991
0
LINE
8
BLACK
6
CONTINUOUS
10
-0.0218669
20
1.66991
11
-0.0219136
21
1.66996
0
LINE
8
BLACK
6
CONTINUOUS
10
-0.0219136
20
1.66996
11
-0.0237884
21
1.67371
0
LINE
8
BLACK
6
CONTINUOUS
10
-0.0237884
20
1.67371
11
-0.0239337
21
1.67419
0
LINE
8
BLACK
6
CONTINUOUS
10
-0.0239337
20
1.67419
11
-0.024012
21
1.67431
0
LINE
8
BLACK
6
CONTINUOUS
10
-0.024012
20
1.67431
11
-0.0258867
21
1.68181
0
LINE
8
BLACK
6
CONTINUOUS
10
-0.0258867
20
1.68181
11
-0.0259282
21
1.6824
0
LINE
8
BLACK
6
CONTINUOUS
10
-0.0259282
20
1.6824
11
-0.0259749
21
1.68252
0
LINE
8
BLACK
6
CONTINUOUS
10
-0.0259749
20
1.68252
11
-0.0259749
21
1.6919
0
LINE
8
BLACK
6
CONTINUOUS
10
-0.0259749
20
1.6919
11
-0.0258726
21
1.69248
0
LINE
8
BLACK
6
CONTINUOUS
10
-0.0258726
20
1.69248
11
-0.0258867
21
1.69261
0
LINE
8
BLACK
6
CONTINUOUS
10
-0.0258867
20
1.69261
11
-0.024012
21
1.70011
0
LINE
8
BLACK
6
CONTINUOUS
10
-0.024012
20
1.70011
11
-0.0238044
21
1.70058
0
LINE
8
BLACK
6
CONTINUOUS
10
-0.0238044
20
1.70058
11
-0.0237884
21
1.70072
0
LINE
8
BLACK
6
CONTINUOUS
10
-0.0237884
20
1.70072
11
-0.0219136
21
1.70447
0
LINE
8
BLACK
6
CONTINUOUS
10
-0.0219136
20
1.70447
11
-0.0213877
21
1.70518
0
LINE
8
BLACK
6
CONTINUOUS
10
-0.0213877
20
1.70518
11
-0.0213605
21
1.70524
0
LINE
8
BLACK
6
CONTINUOUS
10
-0.0213605
20
1.70524
11
-0.0194857
21
1.70711
0
LINE
8
BLACK
6
CONTINUOUS
10
-0.0194857
20
1.70711
11
-0.0187627
21
1.70762
0
LINE
8
BLACK
6
CONTINUOUS
10
-0.0187627
20
1.70762
11
-0.0187183
21
1.70766
0
LINE
8
BLACK
6
CONTINUOUS
10
-0.0187183
20
1.70766
11
-0.0149688
21
1.70954
0
LINE
8
BLACK
6
CONTINUOUS
10
-0.0149688
20
1.70954
11
-0.0139859
21
1.70983
0
LINE
8
BLACK
6
CONTINUOUS
10
-0.0139859
20
1.70983
11
-0.0138142
21
1.70979
0
LINE
8
BLACK
6
CONTINUOUS
10
-0.0138142
20
1.70979
11
-0.0136483
21
1.70985
0
LINE
8
BLACK
6
CONTINUOUS
10
-0.0136483
20
1.70985
11
-0.00989878
21
1.70985
0
LINE
8
BLACK
6
CONTINUOUS
10
-0.00989878
20
1.70985
11
-0.00888886
21
1.70967
0
LINE
8
BLACK
6
CONTINUOUS
10
-0.0156487
20
1.7026
11
-0.0168459
21
1.7014
0
LINE
8
BLACK
6
CONTINUOUS
10
-0.0168459
20
1.7014
11
-0.0183614
21
1.69837
0
LINE
8
BLACK
6
CONTINUOUS
10
-0.0183614
20
1.69837
11
-0.0200694
21
1.69154
0
LINE
8
BLACK
6
CONTINUOUS
10
-0.0200694
20
1.69154
11
-0.0200694
21
1.68289
0
LINE
8
BLACK
6
CONTINUOUS
10
-0.0200694
20
1.68289
11
-0.0183614
21
1.67606
0
LINE
8
BLACK
6
CONTINUOUS
10
-0.0183614
20
1.67606
11
-0.0168459
21
1.67303
0
LINE
8
BLACK
6
CONTINUOUS
10
-0.0168459
20
1.67303
11
-0.0156487
21
1.67183
0
LINE
8
BLACK
6
CONTINUOUS
10
-0.0156487
20
1.67183
11
-0.0129513
21
1.67048
0
LINE
8
BLACK
6
CONTINUOUS
10
-0.0129513
20
1.67048
11
-0.0105958
21
1.67048
0
LINE
8
BLACK
6
CONTINUOUS
10
-0.0105958
20
1.67048
11
-0.00789839
21
1.67183
0
LINE
8
BLACK
6
CONTINUOUS
10
-0.00789839
20
1.67183
11
-0.00670126
21
1.67303
0
LINE
8
BLACK
6
CONTINUOUS
10
-0.00670126
20
1.67303
11
-0.00518575
21
1.67606
0
LINE
8
BLACK
6
CONTINUOUS
10
-0.00518575
20
1.67606
11
-0.00347776
21
1.68289
0
LINE
8
BLACK
6
CONTINUOUS
10
-0.00347776
20
1.68289
11
-0.00347776
21
1.69154
0
LINE
8
BLACK
6
CONTINUOUS
10
-0.00347776
20
1.69154
11
-0.00518575
21
1.69837
0
LINE
8
BLACK
6
CONTINUOUS
10
-0.00518575
20
1.69837
11
-0.00670122
21
1.7014
0
LINE
8
BLACK
6
CONTINUOUS
10
-0.00670122
20
1.7014
11
-0.00789835
21
1.7026
0
LINE
8
BLACK
6
CONTINUOUS
10
-0.00789835
20
1.7026
11
-0.0105958
21
1.70394
0
LINE
8
BLACK
6
CONTINUOUS
10
-0.0105958
20
1.70394
11
-0.0129513
21
1.70394
0
LINE
8
BLACK
6
CONTINUOUS
10
-0.0129513
20
1.70394
11
-0.0156487
21
1.7026
0
LINE
8
BLACK
6
CONTINUOUS
10
0.0263816
20
1.70972
11
0.026551
21
1.70973
0
LINE
8
BLACK
6
CONTINUOUS
10
0.026551
20
1.70973
11
0.0272416
21
1.70922
0
LINE
8
BLACK
6
CONTINUOUS
10
0.0272416
20
1.70922
11
0.0279837
21
1.70879
0
LINE
8
BLACK
6
CONTINUOUS
10
0.0279837
20
1.70879
11
0.0280417
21
1.70864
0
LINE
8
BLACK
6
CONTINUOUS
10
0.0280417
20
1.70864
11
0.0281786
21
1.70853
0
LINE
8
BLACK
6
CONTINUOUS
10
0.0281786
20
1.70853
11
0.0317659
21
1.70315
0
LINE
8
BLACK
6
CONTINUOUS
10
0.0317659
20
1.70315
11
0.0349699
21
1.69995
0
LINE
8
BLACK
6
CONTINUOUS
10
0.0349699
20
1.69995
11
0.0382909
21
1.69829
0
LINE
8
BLACK
6
CONTINUOUS
10
0.0382909
20
1.69829
11
0.0391145
21
1.69768
0
LINE
8
BLACK
6
CONTINUOUS
10
0.0391145
20
1.69768
11
0.0399178
21
1.69583
0
LINE
8
BLACK
6
CONTINUOUS
10
0.0399178
20
1.69583
11
0.0393419
21
1.69389
0
LINE
8
BLACK
6
CONTINUOUS
10
0.0393419
20
1.69389
11
0.0376564
21
1.69278
0
LINE
8
BLACK
6
CONTINUOUS
10
0.0376564
20
1.69278
11
0.0356498
21
1.69301
0
LINE
8
BLACK
6
CONTINUOUS
10
0.0356498
20
1.69301
11
0.0319003
21
1.69488
0
LINE
8
BLACK
6
CONTINUOUS
10
0.0319003
20
1.69488
11
0.0311912
21
1.69541
0
LINE
8
BLACK
6
CONTINUOUS
10
0.0311912
20
1.69541
11
0.0311329
21
1.69544
0
LINE
8
BLACK
6
CONTINUOUS
10
0.0311329
20
1.69544
11
0.0286745
21
1.69789
0
LINE
8
BLACK
6
CONTINUOUS
10
0.0286745
20
1.69789
11
0.0286745
21
1.67048
0
LINE
8
BLACK
6
CONTINUOUS
10
0.0286745
20
1.67048
11
0.0369704
21
1.67048
0
LINE
8
BLACK
6
CONTINUOUS
10
0.0369704
20
1.67048
11
0.0379803
21
1.6703
0
LINE
8
BLACK
6
CONTINUOUS
10
0.0379803
20
1.6703
11
0.0395275
21
1.669
0
LINE
8
BLACK
6
CONTINUOUS
10
0.0395275
20
1.669
11
0.0398783
21
1.66701
0
LINE
8
BLACK
6
CONTINUOUS
10
0.0398783
20
1.66701
11
0.0388683
21
1.66526
0
LINE
8
BLACK
6
CONTINUOUS
10
0.0388683
20
1.66526
11
0.0369704
21
1.66457
0
LINE
8
BLACK
6
CONTINUOUS
10
0.0369704
20
1.66457
11
0.0144732
21
1.66457
0
LINE
8
BLACK
6
CONTINUOUS
10
0.0144732
20
1.66457
11
0.0134633
21
1.66475
0
LINE
8
BLACK
6
CONTINUOUS
10
0.0134633
20
1.66475
11
0.011916
21
1.66605
0
LINE
8
BLACK
6
CONTINUOUS
10
0.011916
20
1.66605
11
0.0115653
21
1.66804
0
LINE
8
BLACK
6
CONTINUOUS
10
0.0115653
20
1.66804
11
0.0125752
21
1.66979
0
LINE
8
BLACK
6
CONTINUOUS
10
0.0125752
20
1.66979
11
0.0144732
21
1.67048
0
LINE
8
BLACK
6
CONTINUOUS
10
0.0144732
20
1.67048
11
0.022769
21
1.67048
0
LINE
8
BLACK
6
CONTINUOUS
10
0.022769
20
1.67048
11
0.022769
21
1.7069
0
LINE
8
BLACK
6
CONTINUOUS
10
0.022769
20
1.7069
11
0.0229471
21
1.70791
0
LINE
8
BLACK
6
CONTINUOUS
10
0.0229471
20
1.70791
11
0.0230562
21
1.70804
0
LINE
8
BLACK
6
CONTINUOUS
10
0.0230562
20
1.70804
11
0.0230749
21
1.70821
0
LINE
8
BLACK
6
CONTINUOUS
10
0.0230749
20
1.70821
11
0.0236945
21
1.7088
0
LINE
8
BLACK
6
CONTINUOUS
10
0.0236945
20
1.7088
11
0.0242454
21
1.70945
0
LINE
8
BLACK
6
CONTINUOUS
10
0.0242454
20
1.70945
11
0.0244126
21
1.70948
0
LINE
8
BLACK
6
CONTINUOUS
10
0.0244126
20
1.70948
11
0.0245354
21
1.7096
0
LINE
8
BLACK
6
CONTINUOUS
10
0.0245354
20
1.7096
11
0.0253905
21
1.70966
0
LINE
8
BLACK
6
CONTINUOUS
10
0.0253905
20
1.70966
11
0.0262345
21
1.7098
0
LINE
8
BLACK
6
CONTINUOUS
10
0.0262345
20
1.7098
11
0.0263816
21
1.70972
0
LINE
8
BLACK
6
CONTINUOUS
10
-0.112627
20
1.70978
11
-0.112498
21
1.7098
0
LINE
8
BLACK
6
CONTINUOUS
10
-0.112498
20
1.7098
11
-0.112385
21
1.70974
0
LINE
8
BLACK
6
CONTINUOUS
10
-0.112385
20
1.70974
11
-0.112001
21
1.70967
0
LINE
8
BLACK
6
CONTINUOUS
10
-0.112001
20
1.70967
11
-0.111413
21
1.70918
0
LINE
8
BLACK
6
CONTINUOUS
10
-0.111413
20
1.70918
11
-0.110749
21
1.70879
0
LINE
8
BLACK
6
CONTINUOUS
10
-0.110749
20
1.70879
11
-0.110658
21
1.70854
0
LINE
8
BLACK
6
CONTINUOUS
10
-0.110658
20
1.70854
11
-0.110454
21
1.70837
0
LINE
8
BLACK
6
CONTINUOUS
10
-0.110454
20
1.70837
11
-0.110321
21
1.70762
0
LINE
8
BLACK
6
CONTINUOUS
10
-0.110321
20
1.70762
11
-0.110058
21
1.7069
0
LINE
8
BLACK
6
CONTINUOUS
10
-0.110058
20
1.7069
11
-0.110058
21
1.66753
0
LINE
8
BLACK
6
CONTINUOUS
10
-0.110058
20
1.66753
11
-0.110236
21
1.66652
0
LINE
8
BLACK
6
CONTINUOUS
10
-0.110236
20
1.66652
11
-0.111535
21
1.66497
0
LINE
8
BLACK
6
CONTINUOUS
10
-0.111535
20
1.66497
11
-0.113524
21
1.66462
0
LINE
8
BLACK
6
CONTINUOUS
10
-0.113524
20
1.66462
11
-0.115273
21
1.66563
0
LINE
8
BLACK
6
CONTINUOUS
10
-0.115273
20
1.66563
11
-0.115964
21
1.66753
0
LINE
8
BLACK
6
CONTINUOUS
10
-0.115964
20
1.66753
11
-0.115964
21
1.6852
0
LINE
8
BLACK
6
CONTINUOUS
10
-0.115964
20
1.6852
11
-0.126134
21
1.6852
0
LINE
8
BLACK
6
CONTINUOUS
10
-0.126134
20
1.6852
11
-0.127144
21
1.68537
0
LINE
8
BLACK
6
CONTINUOUS
10
-0.127144
20
1.68537
11
-0.128691
21
1.68667
0
LINE
8
BLACK
6
CONTINUOUS
10
-0.128691
20
1.68667
11
-0.129042
21
1.68866
0
LINE
8
BLACK
6
CONTINUOUS
10
-0.129042
20
1.68866
11
-0.128032
21
1.69041
0
LINE
8
BLACK
6
CONTINUOUS
10
-0.128032
20
1.69041
11
-0.126134
21
1.6911
0
LINE
8
BLACK
6
CONTINUOUS
10
-0.126134
20
1.6911
11
-0.115964
21
1.6911
0
LINE
8
BLACK
6
CONTINUOUS
10
-0.115964
20
1.6911
11
-0.115964
21
1.70394
0
LINE
8
BLACK
6
CONTINUOUS
10
-0.115964
20
1.70394
11
-0.131759
21
1.70394
0
LINE
8
BLACK
6
CONTINUOUS
10
-0.131759
20
1.70394
11
-0.132768
21
1.70412
0
LINE
8
BLACK
6
CONTINUOUS
10
-0.132768
20
1.70412
11
-0.134316
21
1.70542
0
LINE
8
BLACK
6
CONTINUOUS
10
-0.134316
20
1.70542
11
-0.134666
21
1.70741
0
LINE
8
BLACK
6
CONTINUOUS
10
-0.134666
20
1.70741
11
-0.133657
21
1.70916
0
LINE
8
BLACK
6
CONTINUOUS
10
-0.133657
20
1.70916
11
-0.131759
21
1.70985
0
LINE
8
BLACK
6
CONTINUOUS
10
-0.131759
20
1.70985
11
-0.113011
21
1.70985
0
LINE
8
BLACK
6
CONTINUOUS
10
-0.113011
20
1.70985
11
-0.112627
21
1.70978
0
LINE
8
BLACK
6
CONTINUOUS
10
-0.0820047
20
1.69655
11
-0.0818695
21
1.69643
0
LINE
8
BLACK
6
CONTINUOUS
10
-0.0818695
20
1.69643
11
-0.0816941
21
1.69641
0
LINE
8
BLACK
6
CONTINUOUS
10
-0.0816941
20
1.69641
11
-0.0796528
21
1.69539
0
LINE
8
BLACK
6
CONTINUOUS
10
-0.0796528
20
1.69539
11
-0.0788667
21
1.69633
0
LINE
8
BLACK
6
CONTINUOUS
10
-0.0788667
20
1.69633
11
-0.0768776
21
1.69668
0
LINE
8
BLACK
6
CONTINUOUS
10
-0.0768776
20
1.69668
11
-0.0751284
21
1.69567
0
LINE
8
BLACK
6
CONTINUOUS
10
-0.0751284
20
1.69567
11
-0.0744376
21
1.69377
0
LINE
8
BLACK
6
CONTINUOUS
10
-0.0744376
20
1.69377
11
-0.0744376
21
1.66753
0
LINE
8
BLACK
6
CONTINUOUS
10
-0.0744376
20
1.66753
11
-0.0746157
21
1.66652
0
LINE
8
BLACK
6
CONTINUOUS
10
-0.0746157
20
1.66652
11
-0.075914
21
1.66497
0
LINE
8
BLACK
6
CONTINUOUS
10
-0.075914
20
1.66497
11
-0.0779031
21
1.66462
0
LINE
8
BLACK
6
CONTINUOUS
10
-0.0779031
20
1.66462
11
-0.0796523
21
1.66563
0
LINE
8
BLACK
6
CONTINUOUS
10
-0.0796523
20
1.66563
11
-0.0803431
21
1.66753
0
LINE
8
BLACK
6
CONTINUOUS
10
-0.0803431
20
1.66753
11
-0.0803431
21
1.6888
0
LINE
8
BLACK
6
CONTINUOUS
10
-0.0803431
20
1.6888
11
-0.0810142
21
1.68947
0
LINE
8
BLACK
6
CONTINUOUS
10
-0.0810142
20
1.68947
11
-0.0837117
21
1.69082
0
LINE
8
BLACK
6
CONTINUOUS
10
-0.0837117
20
1.69082
11
-0.0879419
21
1.69082
0
LINE
8
BLACK
6
CONTINUOUS
10
-0.0879419
20
1.69082
11
-0.0901876
21
1.6897
0
LINE
8
BLACK
6
CONTINUOUS
10
-0.0901876
20
1.6897
11
-0.0913105
21
1.68745
0
LINE
8
BLACK
6
CONTINUOUS
10
-0.0913105
20
1.68745
11
-0.0913105
21
1.66753
0
LINE
8
BLACK
6
CONTINUOUS
10
-0.0913105
20
1.66753
11
-0.0914885
21
1.66652
0
LINE
8
BLACK
6
CONTINUOUS
10
-0.0914885
20
1.66652
11
-0.0927869
21
1.66497
0
LINE
8
BLACK
6
CONTINUOUS
10
-0.0927869
20
1.66497
11
-0.094776
21
1.66462
0
LINE
8
BLACK
6
CONTINUOUS
10
-0.094776
20
1.66462
11
-0.0965252
21
1.66563
0
LINE
8
BLACK
6
CONTINUOUS
10
-0.0965252
20
1.66563
11
-0.097216
21
1.66753
0
LINE
8
BLACK
6
CONTINUOUS
10
-0.097216
20
1.66753
11
-0.097216
21
1.68815
0
LINE
8
BLACK
6
CONTINUOUS
10
-0.097216
20
1.68815
11
-0.0970379
21
1.68916
0
LINE
8
BLACK
6
CONTINUOUS
10
-0.0970379
20
1.68916
11
-0.0969244
21
1.68929
0
LINE
8
BLACK
6
CONTINUOUS
10
-0.0969244
20
1.68929
11
-0.0969043
21
1.68947
0
LINE
8
BLACK
6
CONTINUOUS
10
-0.0969043
20
1.68947
11
-0.0950295
21
1.69322
0
LINE
8
BLACK
6
CONTINUOUS
10
-0.0950295
20
1.69322
11
-0.0944186
21
1.69404
0
LINE
8
BLACK
6
CONTINUOUS
10
-0.0944186
20
1.69404
11
-0.0940129
21
1.69422
0
LINE
8
BLACK
6
CONTINUOUS
10
-0.0940129
20
1.69422
11
-0.093709
21
1.69454
0
LINE
8
BLACK
6
CONTINUOUS
10
-0.093709
20
1.69454
11
-0.0899594
21
1.69641
0
LINE
8
BLACK
6
CONTINUOUS
10
-0.0899594
20
1.69641
11
-0.0889765
21
1.69671
0
LINE
8
BLACK
6
CONTINUOUS
10
-0.0889765
20
1.69671
11
-0.0888048
21
1.69667
0
LINE
8
BLACK
6
CONTINUOUS
10
-0.0888048
20
1.69667
11
-0.0886389
21
1.69673
0
LINE
8
BLACK
6
CONTINUOUS
10
-0.0886389
20
1.69673
11
-0.0830146
21
1.69673
0
LINE
8
BLACK
6
CONTINUOUS
10
-0.0830146
20
1.69673
11
-0.0820047
21
1.69655
0
LINE
8
BLACK
6
CONTINUOUS
10
-0.0531485
20
1.76375
11
-0.0527828
21
1.76373
0
LINE
8
BLACK
6
CONTINUOUS
10
-0.0527828
20
1.76373
11
-0.050908
21
1.76279
0
LINE
8
BLACK
6
CONTINUOUS
10
-0.050908
20
1.76279
11
-0.0507382
21
1.76259
0
LINE
8
BLACK
6
CONTINUOUS
10
-0.0507382
20
1.76259
11
-0.0504988
21
1.76249
0
LINE
8
BLACK
6
CONTINUOUS
10
-0.0504988
20
1.76249
11
-0.0495614
21
1.76156
0
LINE
8
BLACK
6
CONTINUOUS
10
-0.0495614
20
1.76156
11
-0.0491002
21
1.76044
0
LINE
8
BLACK
6
CONTINUOUS
10
-0.0491002
20
1.76044
11
-0.0495614
21
1.75933
0
LINE
8
BLACK
6
CONTINUOUS
10
-0.0495614
20
1.75933
11
-0.050675
21
1.75887
0
LINE
8
BLACK
6
CONTINUOUS
10
-0.050675
20
1.75887
11
-0.0517885
21
1.75933
0
LINE
8
BLACK
6
CONTINUOUS
10
-0.0517885
20
1.75933
11
-0.0525452
21
1.76009
0
LINE
8
BLACK
6
CONTINUOUS
10
-0.0525452
20
1.76009
11
-0.0538589
21
1.76074
0
LINE
8
BLACK
6
CONTINUOUS
10
-0.0538589
20
1.76074
11
-0.0578022
21
1.76074
0
LINE
8
BLACK
6
CONTINUOUS
10
-0.0578022
20
1.76074
11
-0.059116
21
1.76009
0
LINE
8
BLACK
6
CONTINUOUS
10
-0.059116
20
1.76009
11
-0.0596919
21
1.75951
0
LINE
8
BLACK
6
CONTINUOUS
10
-0.0596919
20
1.75951
11
-0.0603487
21
1.7582
0
LINE
8
BLACK
6
CONTINUOUS
10
-0.0603487
20
1.7582
11
-0.0603487
21
1.75695
0
LINE
8
BLACK
6
CONTINUOUS
10
-0.0603487
20
1.75695
11
-0.0596098
21
1.75473
0
LINE
8
BLACK
6
CONTINUOUS
10
-0.0596098
20
1.75473
11
-0.048624
21
1.74375
0
LINE
8
BLACK
6
CONTINUOUS
10
-0.048624
20
1.74375
11
-0.0481628
21
1.74263
0
LINE
8
BLACK
6
CONTINUOUS
10
-0.0481628
20
1.74263
11
-0.048624
21
1.74152
0
LINE
8
BLACK
6
CONTINUOUS
10
-0.048624
20
1.74152
11
-0.0497376
21
1.74106
0
LINE
8
BLACK
6
CONTINUOUS
10
-0.0497376
20
1.74106
11
-0.0619235
21
1.74106
0
LINE
8
BLACK
6
CONTINUOUS
10
-0.0619235
20
1.74106
11
-0.0630371
21
1.74152
0
LINE
8
BLACK
6
CONTINUOUS
10
-0.0630371
20
1.74152
11
-0.0634983
21
1.74263
0
LINE
8
BLACK
6
CONTINUOUS
10
-0.0634983
20
1.74263
11
-0.0630371
21
1.74375
0
LINE
8
BLACK
6
CONTINUOUS
10
-0.0630371
20
1.74375
11
-0.0619235
21
1.74421
0
LINE
8
BLACK
6
CONTINUOUS
10
-0.0619235
20
1.74421
11
-0.0535395
21
1.74421
0
LINE
8
BLACK
6
CONTINUOUS
10
-0.0535395
20
1.74421
11
-0.0620997
21
1.75277
0
LINE
8
BLACK
6
CONTINUOUS
10
-0.0620997
20
1.75277
11
-0.06224
21
1.75311
0
LINE
8
BLACK
6
CONTINUOUS
10
-0.06224
20
1.75311
11
-0.0624801
21
1.75338
0
LINE
8
BLACK
6
CONTINUOUS
10
-0.0624801
20
1.75338
11
-0.0634175
21
1.75619
0
LINE
8
BLACK
6
CONTINUOUS
10
-0.0634175
20
1.75619
11
-0.0633992
21
1.75645
0
LINE
8
BLACK
6
CONTINUOUS
10
-0.0633992
20
1.75645
11
-0.0634983
21
1.75669
0
LINE
8
BLACK
6
CONTINUOUS
10
-0.0634983
20
1.75669
11
-0.0634983
21
1.75857
0
LINE
8
BLACK
6
CONTINUOUS
10
-0.0634983
20
1.75857
11
-0.0633581
21
1.75891
0
LINE
8
BLACK
6
CONTINUOUS
10
-0.0633581
20
1.75891
11
-0.0633321
21
1.75927
0
LINE
8
BLACK
6
CONTINUOUS
10
-0.0633321
20
1.75927
11
-0.0623947
21
1.76115
0
LINE
8
BLACK
6
CONTINUOUS
10
-0.0623947
20
1.76115
11
-0.0621989
21
1.76132
0
LINE
8
BLACK
6
CONTINUOUS
10
-0.0621989
20
1.76132
11
-0.0620997
21
1.76156
0
LINE
8
BLACK
6
CONTINUOUS
10
-0.0620997
20
1.76156
11
-0.0611623
21
1.76249
0
LINE
8
BLACK
6
CONTINUOUS
10
-0.0611623
20
1.76249
11
-0.0609229
21
1.76259
0
LINE
8
BLACK
6
CONTINUOUS
10
-0.0609229
20
1.76259
11
-0.0607531
21
1.76279
0
LINE
8
BLACK
6
CONTINUOUS
10
-0.0607531
20
1.76279
11
-0.0588783
21
1.76373
0
LINE
8
BLACK
6
CONTINUOUS
10
-0.0588783
20
1.76373
11
-0.0585127
21
1.76375
0
LINE
8
BLACK
6
CONTINUOUS
10
-0.0585127
20
1.76375
11
-0.058174
21
1.76389
0
LINE
8
BLACK
6
CONTINUOUS
10
-0.058174
20
1.76389
11
-0.0534871
21
1.76389
0
LINE
8
BLACK
6
CONTINUOUS
10
-0.0534871
20
1.76389
11
-0.0531485
21
1.76375
0
LINE
8
BLACK
6
CONTINUOUS
10
-0.0373121
20
1.76379
11
-0.0370536
21
1.76381
0
LINE
8
BLACK
6
CONTINUOUS
10
-0.0370536
20
1.76381
11
-0.0342415
21
1.76287
0
LINE
8
BLACK
6
CONTINUOUS
10
-0.0342415
20
1.76287
11
-0.0339646
21
1.76263
0
LINE
8
BLACK
6
CONTINUOUS
10
-0.0339646
20
1.76263
11
-0.0336259
21
1.76249
0
LINE
8
BLACK
6
CONTINUOUS
10
-0.0336259
20
1.76249
11
-0.0317511
21
1.76062
0
LINE
8
BLACK
6
CONTINUOUS
10
-0.0317511
20
1.76062
11
-0.031652
21
1.76038
0
LINE
8
BLACK
6
CONTINUOUS
10
-0.031652
20
1.76038
11
-0.0314561
21
1.76021
0
LINE
8
BLACK
6
CONTINUOUS
10
-0.0314561
20
1.76021
11
-0.0305187
21
1.75833
0
LINE
8
BLACK
6
CONTINUOUS
10
-0.0305187
20
1.75833
11
-0.0305061
21
1.75816
0
LINE
8
BLACK
6
CONTINUOUS
10
-0.0305061
20
1.75816
11
-0.0303995
21
1.75801
0
LINE
8
BLACK
6
CONTINUOUS
10
-0.0303995
20
1.75801
11
-0.0294621
21
1.75426
0
LINE
8
BLACK
6
CONTINUOUS
10
-0.0294621
20
1.75426
11
-0.0294915
21
1.75406
0
LINE
8
BLACK
6
CONTINUOUS
10
-0.0294915
20
1.75406
11
-0.0294151
21
1.75388
0
LINE
8
BLACK
6
CONTINUOUS
10
-0.0294151
20
1.75388
11
-0.0294151
21
1.75107
0
LINE
8
BLACK
6
CONTINUOUS
10
-0.0294151
20
1.75107
11
-0.0294915
21
1.75088
0
LINE
8
BLACK
6
CONTINUOUS
10
-0.0294915
20
1.75088
11
-0.0294621
21
1.75069
0
LINE
8
BLACK
6
CONTINUOUS
10
-0.0294621
20
1.75069
11
-0.0303995
21
1.74694
0
LINE
8
BLACK
6
CONTINUOUS
10
-0.0303995
20
1.74694
11
-0.0305061
21
1.74679
0
LINE
8
BLACK
6
CONTINUOUS
10
-0.0305061
20
1.74679
11
-0.0305187
21
1.74661
0
LINE
8
BLACK
6
CONTINUOUS
10
-0.0305187
20
1.74661
11
-0.0314561
21
1.74474
0
LINE
8
BLACK
6
CONTINUOUS
10
-0.0314561
20
1.74474
11
-0.031652
21
1.74457
0
LINE
8
BLACK
6
CONTINUOUS
10
-0.031652
20
1.74457
11
-0.0317511
21
1.74433
0
LINE
8
BLACK
6
CONTINUOUS
10
-0.0317511
20
1.74433
11
-0.0336259
21
1.74246
0
LINE
8
BLACK
6
CONTINUOUS
10
-0.0336259
20
1.74246
11
-0.0339646
21
1.74232
0
LINE
8
BLACK
6
CONTINUOUS
10
-0.0339646
20
1.74232
11
-0.0342415
21
1.74208
0
LINE
8
BLACK
6
CONTINUOUS
10
-0.0342415
20
1.74208
11
-0.0370536
21
1.74114
0
LINE
8
BLACK
6
CONTINUOUS
10
-0.0370536
20
1.74114
11
-0.0373121
21
1.74116
0
LINE
8
BLACK
6
CONTINUOUS
10
-0.0373121
20
1.74116
11
-0.0375516
21
1.74106
0
LINE
8
BLACK
6
CONTINUOUS
10
-0.0375516
20
1.74106
11
-0.0394263
21
1.74106
0
LINE
8
BLACK
6
CONTINUOUS
10
-0.0394263
20
1.74106
11
-0.0396657
21
1.74116
0
LINE
8
BLACK
6
CONTINUOUS
10
-0.0396657
20
1.74116
11
-0.0399243
21
1.74114
0
LINE
8
BLACK
6
CONTINUOUS
10
-0.0399243
20
1.74114
11
-0.0427365
21
1.74208
0
LINE
8
BLACK
6
CONTINUOUS
10
-0.0427365
20
1.74208
11
-0.0430134
21
1.74232
0
LINE
8
BLACK
6
CONTINUOUS
10
-0.0430134
20
1.74232
11
-0.0433521
21
1.74246
0
LINE
8
BLACK
6
CONTINUOUS
10
-0.0433521
20
1.74246
11
-0.0442894
21
1.74339
0
LINE
8
BLACK
6
CONTINUOUS
10
-0.0442894
20
1.74339
11
-0.0447507
21
1.74451
0
LINE
8
BLACK
6
CONTINUOUS
10
-0.0447507
20
1.74451
11
-0.0442894
21
1.74562
0
LINE
8
BLACK
6
CONTINUOUS
10
-0.0442894
20
1.74562
11
-0.0431758
21
1.74608
0
LINE
8
BLACK
6
CONTINUOUS
10
-0.0431758
20
1.74608
11
-0.0420623
21
1.74562
0
LINE
8
BLACK
6
CONTINUOUS
10
-0.0420623
20
1.74562
11
-0.0413878
21
1.74495
0
LINE
8
BLACK
6
CONTINUOUS
10
-0.0413878
20
1.74495
11
-0.0391708
21
1.74421
0
LINE
8
BLACK
6
CONTINUOUS
10
-0.0391708
20
1.74421
11
-0.0378071
21
1.74421
0
LINE
8
BLACK
6
CONTINUOUS
10
-0.0378071
20
1.74421
11
-0.0355902
21
1.74495
0
LINE
8
BLACK
6
CONTINUOUS
10
-0.0355902
20
1.74495
11
-0.0341589
21
1.74638
0
LINE
8
BLACK
6
CONTINUOUS
10
-0.0341589
20
1.74638
11
-0.0334132
21
1.74787
0
LINE
8
BLACK
6
CONTINUOUS
10
-0.0334132
20
1.74787
11
-0.0325647
21
1.75126
0
LINE
8
BLACK
6
CONTINUOUS
10
-0.0325647
20
1.75126
11
-0.0325647
21
1.75369
0
LINE
8
BLACK
6
CONTINUOUS
10
-0.0325647
20
1.75369
11
-0.0334132
21
1.75708
0
LINE
8
BLACK
6
CONTINUOUS
10
-0.0334132
20
1.75708
11
-0.0341589
21
1.75857
0
LINE
8
BLACK
6
CONTINUOUS
10
-0.0341589
20
1.75857
11
-0.0355902
21
1.76
0
LINE
8
BLACK
6
CONTINUOUS
10
-0.0355902
20
1.76
11
-0.0378071
21
1.76074
0
LINE
8
BLACK
6
CONTINUOUS
10
-0.0378071
20
1.76074
11
-0.0391708
21
1.76074
0
LINE
8
BLACK
6
CONTINUOUS
10
-0.0391708
20
1.76074
11
-0.0413878
21
1.76
0
LINE
8
BLACK
6
CONTINUOUS
10
-0.0413878
20
1.76
11
-0.0420623
21
1.75933
0
LINE
8
BLACK
6
CONTINUOUS
10
-0.0420623
20
1.75933
11
-0.0431759
21
1.75887
0
LINE
8
BLACK
6
CONTINUOUS
10
-0.0431759
20
1.75887
11
-0.0442894
21
1.75933
0
LINE
8
BLACK
6
CONTINUOUS
10
-0.0442894
20
1.75933
11
-0.0447507
21
1.76044
0
LINE
8
BLACK
6
CONTINUOUS
10
-0.0447507
20
1.76044
11
-0.0442894
21
1.76156
0
LINE
8
BLACK
6
CONTINUOUS
10
-0.0442894
20
1.76156
11
-0.043352
21
1.76249
0
LINE
8
BLACK
6
CONTINUOUS
10
-0.043352
20
1.76249
11
-0.0430134
21
1.76263
0
LINE
8
BLACK
6
CONTINUOUS
10
-0.0430134
20
1.76263
11
-0.0427365
21
1.76287
0
LINE
8
BLACK
6
CONTINUOUS
10
-0.0427365
20
1.76287
11
-0.0399243
21
1.76381
0
LINE
8
BLACK
6
CONTINUOUS
10
-0.0399243
20
1.76381
11
-0.0396658
21
1.76379
0
LINE
8
BLACK
6
CONTINUOUS
10
-0.0396658
20
1.76379
11
-0.0394263
21
1.76389
0
LINE
8
BLACK
6
CONTINUOUS
10
-0.0394263
20
1.76389
11
-0.0375516
21
1.76389
0
LINE
8
BLACK
6
CONTINUOUS
10
-0.0375516
20
1.76389
11
-0.0373121
21
1.76379
0
LINE
8
BLACK
6
CONTINUOUS
10
-0.00708661
20
1.77815
11
-0.00569469
21
1.77757
0
LINE
8
BLACK
6
CONTINUOUS
10
-0.00569469
20
1.77757
11
-0.00511811
21
1.77618
0
LINE
8
BLACK
6
CONTINUOUS
10
-0.00511811
20
1.77618
11
-0.00511811
21
1.72697
0
LINE
8
BLACK
6
CONTINUOUS
10
-0.00511811
20
1.72697
11
-0.00569469
21
1.72558
0
LINE
8
BLACK
6
CONTINUOUS
10
-0.00569469
20
1.72558
11
-0.00708661
21
1.725
0
LINE
8
BLACK
6
CONTINUOUS
10
-0.00708661
20
1.725
11
-0.0858268
21
1.725
0
LINE
8
BLACK
6
CONTINUOUS
10
-0.0858268
20
1.725
11
-0.0872187
21
1.72558
0
LINE
8
BLACK
6
CONTINUOUS
10
-0.0872187
20
1.72558
11
-0.0877953
21
1.72697
0
LINE
8
BLACK
6
CONTINUOUS
10
-0.0877953
20
1.72697
11
-0.0877953
21
1.77618
0
LINE
8
BLACK
6
CONTINUOUS
10
-0.0877953
20
1.77618
11
-0.0872187
21
1.77757
0
LINE
8
BLACK
6
CONTINUOUS
10
-0.0872187
20
1.77757
11
-0.0858268
21
1.77815
0
LINE
8
BLACK
6
CONTINUOUS
10
-0.0858268
20
1.77815
11
-0.00708661
21
1.77815
0
LINE
8
BLACK
6
CONTINUOUS
10
-0.0838583
20
1.77421
11
-0.0838583
21
1.72894
0
LINE
8
BLACK
6
CONTINUOUS
10
-0.0838583
20
1.72894
11
-0.00905512
21
1.72894
0
LINE
8
BLACK
6
CONTINUOUS
10
-0.00905512
20
1.72894
11
-0.00905512
21
1.77421
0
LINE
8
BLACK
6
CONTINUOUS
10
-0.00905512
20
1.77421
11
-0.0838583
21
1.77421
  0
ENDSEC
  0
EOF
