  0
SECTION
  2
HEADER
  9
$ANGBASE
  50
0.0
  9
$ANGDIR
  70
1
  9
$MEASUREMENT
  70
0
  0
ENDSEC
  0
SECTION
  2
TABLES
  0
TABLE
  2
LTYPE
  70
4
  0
LTYPE
  5
40F
  2
CONTINUOUS
  70
0
  3
Solid line
  72
65
  73
0
  40
0.0
  0
LTYPE
  5
410
  2
DASHDOT
 70
0
  3
Dash Dot ____ _ ____ _
 72
65
 73
4
 40
2.0
 49
1.25
 49
-0.25
 49
0.25
 49
-0.25
  0
LTYPE
  5
411
  2
DASHED
 70
0
  3
Dashed __ __ __ __ __
 72
65
 73
2
 40
0.75
 49
0.5
 49
-0.25
  0
LTYPE
  5
43B
  2
DOTTED
 70
0
  3
Dotted .  .  .  .
 72
65
 73
2
 40
0.2
 49
0.0
 49
-0.2
  0
ENDTAB
  0
TABLE
  2
STYLE
  70
4
  0
STYLE
  2
KICAD
  70
0
  40
0
  41
1
  42
1
  50
0
  71
0
  3
isocp.shx
  0
STYLE
  2
KICADB
  70
0
  40
0
  41
1
  42
1
  50
0
  71
0
  3
isocp.shx
  0
STYLE
  2
KICADI
  70
0
  40
0
  41
1
  42
1
  50
15
  71
0
  3
isocp.shx
  0
STYLE
  2
KICADBI
  70
0
  40
0
  41
1
  42
1
  50
15
  71
0
  3
isocp.shx
  0
ENDTAB
  0
TABLE
  2
LAYER
  70
1
  0
LAYER
  2
BLACK
  70
0
  62
7
  6
CONTINUOUS
  0
ENDTAB
  0
ENDSEC
  0
SECTION
  2
ENTITIES
0
LINE
8
BLACK
6
CONTINUOUS
10
0.411956
20
0.372733
11
0.412648
21
0.371063
0
LINE
8
BLACK
6
CONTINUOUS
10
0.412648
20
0.371063
11
0.411956
21
0.369393
0
LINE
8
BLACK
6
CONTINUOUS
10
0.411956
20
0.369393
11
0.410286
21
0.368701
0
LINE
8
BLACK
6
CONTINUOUS
10
0.410286
20
0.368701
11
0.389714
21
0.368701
0
LINE
8
BLACK
6
CONTINUOUS
10
0.389714
20
0.368701
11
0.388044
21
0.369393
0
LINE
8
BLACK
6
CONTINUOUS
10
0.388044
20
0.369393
11
0.387352
21
0.371063
0
LINE
8
BLACK
6
CONTINUOUS
10
0.387352
20
0.371063
11
0.388044
21
0.372733
0
LINE
8
BLACK
6
CONTINUOUS
10
0.388044
20
0.372733
11
0.389714
21
0.373425
0
LINE
8
BLACK
6
CONTINUOUS
10
0.389714
20
0.373425
11
0.410286
21
0.373425
0
LINE
8
BLACK
6
CONTINUOUS
10
0.410286
20
0.373425
11
0.411956
21
0.372733
0
LINE
8
BLACK
6
CONTINUOUS
10
0.411956
20
0.430607
11
0.412648
21
0.428937
0
LINE
8
BLACK
6
CONTINUOUS
10
0.412648
20
0.428937
11
0.411956
21
0.427267
0
LINE
8
BLACK
6
CONTINUOUS
10
0.411956
20
0.427267
11
0.410286
21
0.426575
0
LINE
8
BLACK
6
CONTINUOUS
10
0.410286
20
0.426575
11
0.389714
21
0.426575
0
LINE
8
BLACK
6
CONTINUOUS
10
0.389714
20
0.426575
11
0.388044
21
0.427267
0
LINE
8
BLACK
6
CONTINUOUS
10
0.388044
20
0.427267
11
0.387352
21
0.428937
0
LINE
8
BLACK
6
CONTINUOUS
10
0.387352
20
0.428937
11
0.388044
21
0.430607
0
LINE
8
BLACK
6
CONTINUOUS
10
0.388044
20
0.430607
11
0.389714
21
0.431299
0
LINE
8
BLACK
6
CONTINUOUS
10
0.389714
20
0.431299
11
0.410286
21
0.431299
0
LINE
8
BLACK
6
CONTINUOUS
10
0.410286
20
0.431299
11
0.411956
21
0.430607
0
LINE
8
BLACK
6
CONTINUOUS
10
0.380975
20
0.490429
11
0.381144
21
0.490439
0
LINE
8
BLACK
6
CONTINUOUS
10
0.381144
20
0.490439
11
0.381835
21
0.489932
0
LINE
8
BLACK
6
CONTINUOUS
10
0.381835
20
0.489932
11
0.382577
21
0.489504
0
LINE
8
BLACK
6
CONTINUOUS
10
0.382577
20
0.489504
11
0.382635
21
0.489344
0
LINE
8
BLACK
6
CONTINUOUS
10
0.382635
20
0.489344
11
0.382772
21
0.489243
0
LINE
8
BLACK
6
CONTINUOUS
10
0.382772
20
0.489243
11
0.386359
21
0.483862
0
LINE
8
BLACK
6
CONTINUOUS
10
0.386359
20
0.483862
11
0.389563
21
0.480658
0
LINE
8
BLACK
6
CONTINUOUS
10
0.389563
20
0.480658
11
0.392884
21
0.478998
0
LINE
8
BLACK
6
CONTINUOUS
10
0.392884
20
0.478998
11
0.393708
21
0.478387
0
LINE
8
BLACK
6
CONTINUOUS
10
0.393708
20
0.478387
11
0.394511
21
0.476534
0
LINE
8
BLACK
6
CONTINUOUS
10
0.394511
20
0.476534
11
0.393935
21
0.474598
0
LINE
8
BLACK
6
CONTINUOUS
10
0.393935
20
0.474598
11
0.39225
21
0.473485
0
LINE
8
BLACK
6
CONTINUOUS
10
0.39225
20
0.473485
11
0.390243
21
0.473716
0
LINE
8
BLACK
6
CONTINUOUS
10
0.390243
20
0.473716
11
0.386493
21
0.475591
0
LINE
8
BLACK
6
CONTINUOUS
10
0.386493
20
0.475591
11
0.385784
21
0.476117
0
LINE
8
BLACK
6
CONTINUOUS
10
0.385784
20
0.476117
11
0.385726
21
0.476144
0
LINE
8
BLACK
6
CONTINUOUS
10
0.385726
20
0.476144
11
0.383268
21
0.478602
0
LINE
8
BLACK
6
CONTINUOUS
10
0.383268
20
0.478602
11
0.383268
21
0.451188
0
LINE
8
BLACK
6
CONTINUOUS
10
0.383268
20
0.451188
11
0.391564
21
0.451188
0
LINE
8
BLACK
6
CONTINUOUS
10
0.391564
20
0.451188
11
0.392573
21
0.45101
0
LINE
8
BLACK
6
CONTINUOUS
10
0.392573
20
0.45101
11
0.394121
21
0.449712
0
LINE
8
BLACK
6
CONTINUOUS
10
0.394121
20
0.449712
11
0.394471
21
0.447723
0
LINE
8
BLACK
6
CONTINUOUS
10
0.394471
20
0.447723
11
0.393461
21
0.445974
0
LINE
8
BLACK
6
CONTINUOUS
10
0.393461
20
0.445974
11
0.391564
21
0.445283
0
LINE
8
BLACK
6
CONTINUOUS
10
0.391564
20
0.445283
11
0.369066
21
0.445283
0
LINE
8
BLACK
6
CONTINUOUS
10
0.369066
20
0.445283
11
0.368056
21
0.445461
0
LINE
8
BLACK
6
CONTINUOUS
10
0.368056
20
0.445461
11
0.366509
21
0.446759
0
LINE
8
BLACK
6
CONTINUOUS
10
0.366509
20
0.446759
11
0.366158
21
0.448748
0
LINE
8
BLACK
6
CONTINUOUS
10
0.366158
20
0.448748
11
0.367168
21
0.450497
0
LINE
8
BLACK
6
CONTINUOUS
10
0.367168
20
0.450497
11
0.369066
21
0.451188
0
LINE
8
BLACK
6
CONTINUOUS
10
0.369066
20
0.451188
11
0.377362
21
0.451188
0
LINE
8
BLACK
6
CONTINUOUS
10
0.377362
20
0.451188
11
0.377362
21
0.487606
0
LINE
8
BLACK
6
CONTINUOUS
10
0.377362
20
0.487606
11
0.37754
21
0.488615
0
LINE
8
BLACK
6
CONTINUOUS
10
0.37754
20
0.488615
11
0.377649
21
0.488746
0
LINE
8
BLACK
6
CONTINUOUS
10
0.377649
20
0.488746
11
0.377668
21
0.488914
0
LINE
8
BLACK
6
CONTINUOUS
10
0.377668
20
0.488914
11
0.378288
21
0.489506
0
LINE
8
BLACK
6
CONTINUOUS
10
0.378288
20
0.489506
11
0.378839
21
0.490163
0
LINE
8
BLACK
6
CONTINUOUS
10
0.378839
20
0.490163
11
0.379006
21
0.490192
0
LINE
8
BLACK
6
CONTINUOUS
10
0.379006
20
0.490192
11
0.379129
21
0.490309
0
LINE
8
BLACK
6
CONTINUOUS
10
0.379129
20
0.490309
11
0.379984
21
0.490365
0
LINE
8
BLACK
6
CONTINUOUS
10
0.379984
20
0.490365
11
0.380828
21
0.490513
0
LINE
8
BLACK
6
CONTINUOUS
10
0.380828
20
0.490513
11
0.380975
21
0.490429
0
LINE
8
BLACK
6
CONTINUOUS
10
0.41868
20
0.490405
11
0.418744
21
0.490407
0
LINE
8
BLACK
6
CONTINUOUS
10
0.418744
20
0.490407
11
0.424368
21
0.488532
0
LINE
8
BLACK
6
CONTINUOUS
10
0.424368
20
0.488532
11
0.42527
21
0.488044
0
LINE
8
BLACK
6
CONTINUOUS
10
0.42527
20
0.488044
11
0.425362
21
0.487893
0
LINE
8
BLACK
6
CONTINUOUS
10
0.425362
20
0.487893
11
0.425522
21
0.487819
0
LINE
8
BLACK
6
CONTINUOUS
10
0.425522
20
0.487819
11
0.429272
21
0.484069
0
LINE
8
BLACK
6
CONTINUOUS
10
0.429272
20
0.484069
11
0.429778
21
0.483346
0
LINE
8
BLACK
6
CONTINUOUS
10
0.429778
20
0.483346
11
0.429825
21
0.483302
0
LINE
8
BLACK
6
CONTINUOUS
10
0.429825
20
0.483302
11
0.4317
21
0.479552
0
LINE
8
BLACK
6
CONTINUOUS
10
0.4317
20
0.479552
11
0.431845
21
0.479064
0
LINE
8
BLACK
6
CONTINUOUS
10
0.431845
20
0.479064
11
0.431923
21
0.478948
0
LINE
8
BLACK
6
CONTINUOUS
10
0.431923
20
0.478948
11
0.433798
21
0.471449
0
LINE
8
BLACK
6
CONTINUOUS
10
0.433798
20
0.471449
11
0.43384
21
0.470861
0
LINE
8
BLACK
6
CONTINUOUS
10
0.43384
20
0.470861
11
0.433886
21
0.470733
0
LINE
8
BLACK
6
CONTINUOUS
10
0.433886
20
0.470733
11
0.433886
21
0.465108
0
LINE
8
BLACK
6
CONTINUOUS
10
0.433886
20
0.465108
11
0.433784
21
0.464528
0
LINE
8
BLACK
6
CONTINUOUS
10
0.433784
20
0.464528
11
0.433798
21
0.464392
0
LINE
8
BLACK
6
CONTINUOUS
10
0.433798
20
0.464392
11
0.431923
21
0.456893
0
LINE
8
BLACK
6
CONTINUOUS
10
0.431923
20
0.456893
11
0.431716
21
0.456428
0
LINE
8
BLACK
6
CONTINUOUS
10
0.431716
20
0.456428
11
0.4317
21
0.456289
0
LINE
8
BLACK
6
CONTINUOUS
10
0.4317
20
0.456289
11
0.429825
21
0.452539
0
LINE
8
BLACK
6
CONTINUOUS
10
0.429825
20
0.452539
11
0.429299
21
0.45183
0
LINE
8
BLACK
6
CONTINUOUS
10
0.429299
20
0.45183
11
0.429272
21
0.451772
0
LINE
8
BLACK
6
CONTINUOUS
10
0.429272
20
0.451772
11
0.425522
21
0.448022
0
LINE
8
BLACK
6
CONTINUOUS
10
0.425522
20
0.448022
11
0.424682
21
0.447434
0
LINE
8
BLACK
6
CONTINUOUS
10
0.424682
20
0.447434
11
0.424507
21
0.447419
0
LINE
8
BLACK
6
CONTINUOUS
10
0.424507
20
0.447419
11
0.424368
21
0.447309
0
LINE
8
BLACK
6
CONTINUOUS
10
0.424368
20
0.447309
11
0.418744
21
0.445434
0
LINE
8
BLACK
6
CONTINUOUS
10
0.418744
20
0.445434
11
0.417871
21
0.445305
0
LINE
8
BLACK
6
CONTINUOUS
10
0.417871
20
0.445305
11
0.41781
21
0.445283
0
LINE
8
BLACK
6
CONTINUOUS
10
0.41781
20
0.445283
11
0.414061
21
0.445283
0
LINE
8
BLACK
6
CONTINUOUS
10
0.414061
20
0.445283
11
0.413191
21
0.445436
0
LINE
8
BLACK
6
CONTINUOUS
10
0.413191
20
0.445436
11
0.413127
21
0.445434
0
LINE
8
BLACK
6
CONTINUOUS
10
0.413127
20
0.445434
11
0.407503
21
0.447309
0
LINE
8
BLACK
6
CONTINUOUS
10
0.407503
20
0.447309
11
0.406601
21
0.447797
0
LINE
8
BLACK
6
CONTINUOUS
10
0.406601
20
0.447797
11
0.406508
21
0.447948
0
LINE
8
BLACK
6
CONTINUOUS
10
0.406508
20
0.447948
11
0.406348
21
0.448022
0
LINE
8
BLACK
6
CONTINUOUS
10
0.406348
20
0.448022
11
0.404474
21
0.449897
0
LINE
8
BLACK
6
CONTINUOUS
10
0.404474
20
0.449897
11
0.403886
21
0.450737
0
LINE
8
BLACK
6
CONTINUOUS
10
0.403886
20
0.450737
11
0.40371
21
0.452749
0
LINE
8
BLACK
6
CONTINUOUS
10
0.40371
20
0.452749
11
0.404868
21
0.454404
0
LINE
8
BLACK
6
CONTINUOUS
10
0.404868
20
0.454404
11
0.406819
21
0.454927
0
LINE
8
BLACK
6
CONTINUOUS
10
0.406819
20
0.454927
11
0.40865
21
0.454073
0
LINE
8
BLACK
6
CONTINUOUS
10
0.40865
20
0.454073
11
0.410031
21
0.452691
0
LINE
8
BLACK
6
CONTINUOUS
10
0.410031
20
0.452691
11
0.41454
21
0.451188
0
LINE
8
BLACK
6
CONTINUOUS
10
0.41454
20
0.451188
11
0.417331
21
0.451188
0
LINE
8
BLACK
6
CONTINUOUS
10
0.417331
20
0.451188
11
0.421839
21
0.452691
0
LINE
8
BLACK
6
CONTINUOUS
10
0.421839
20
0.452691
11
0.424757
21
0.455609
0
LINE
8
BLACK
6
CONTINUOUS
10
0.424757
20
0.455609
11
0.426273
21
0.45864
0
LINE
8
BLACK
6
CONTINUOUS
10
0.426273
20
0.45864
11
0.427981
21
0.465472
0
LINE
8
BLACK
6
CONTINUOUS
10
0.427981
20
0.465472
11
0.427981
21
0.470369
0
LINE
8
BLACK
6
CONTINUOUS
10
0.427981
20
0.470369
11
0.426273
21
0.477201
0
LINE
8
BLACK
6
CONTINUOUS
10
0.426273
20
0.477201
11
0.424757
21
0.480232
0
LINE
8
BLACK
6
CONTINUOUS
10
0.424757
20
0.480232
11
0.421839
21
0.48315
0
LINE
8
BLACK
6
CONTINUOUS
10
0.421839
20
0.48315
11
0.417331
21
0.484653
0
LINE
8
BLACK
6
CONTINUOUS
10
0.417331
20
0.484653
11
0.41454
21
0.484653
0
LINE
8
BLACK
6
CONTINUOUS
10
0.41454
20
0.484653
11
0.410031
21
0.48315
0
LINE
8
BLACK
6
CONTINUOUS
10
0.410031
20
0.48315
11
0.40865
21
0.481768
0
LINE
8
BLACK
6
CONTINUOUS
10
0.40865
20
0.481768
11
0.40781
21
0.48118
0
LINE
8
BLACK
6
CONTINUOUS
10
0.40781
20
0.48118
11
0.405797
21
0.481004
0
LINE
8
BLACK
6
CONTINUOUS
10
0.405797
20
0.481004
11
0.404143
21
0.482162
0
LINE
8
BLACK
6
CONTINUOUS
10
0.404143
20
0.482162
11
0.40362
21
0.484113
0
LINE
8
BLACK
6
CONTINUOUS
10
0.40362
20
0.484113
11
0.404474
21
0.485944
0
LINE
8
BLACK
6
CONTINUOUS
10
0.404474
20
0.485944
11
0.406349
21
0.487819
0
LINE
8
BLACK
6
CONTINUOUS
10
0.406349
20
0.487819
11
0.407189
21
0.488407
0
LINE
8
BLACK
6
CONTINUOUS
10
0.407189
20
0.488407
11
0.407364
21
0.488422
0
LINE
8
BLACK
6
CONTINUOUS
10
0.407364
20
0.488422
11
0.407503
21
0.488532
0
LINE
8
BLACK
6
CONTINUOUS
10
0.407503
20
0.488532
11
0.413127
21
0.490407
0
LINE
8
BLACK
6
CONTINUOUS
10
0.413127
20
0.490407
11
0.414
21
0.490536
0
LINE
8
BLACK
6
CONTINUOUS
10
0.414
20
0.490536
11
0.414061
21
0.490558
0
LINE
8
BLACK
6
CONTINUOUS
10
0.414061
20
0.490558
11
0.41781
21
0.490558
0
LINE
8
BLACK
6
CONTINUOUS
10
0.41781
20
0.490558
11
0.41868
21
0.490405
0
LINE
8
BLACK
6
CONTINUOUS
10
0.933858
20
0.711727
11
0.935529
21
0.711035
0
LINE
8
BLACK
6
CONTINUOUS
10
0.935529
20
0.711035
11
0.93622
21
0.709365
0
LINE
8
BLACK
6
CONTINUOUS
10
0.93622
20
0.709365
11
0.93622
21
0.579443
0
LINE
8
BLACK
6
CONTINUOUS
10
0.93622
20
0.579443
11
0.935529
21
0.577773
0
LINE
8
BLACK
6
CONTINUOUS
10
0.935529
20
0.577773
11
0.933858
21
0.577081
0
LINE
8
BLACK
6
CONTINUOUS
10
0.933858
20
0.577081
11
0.72126
21
0.577081
0
LINE
8
BLACK
6
CONTINUOUS
10
0.72126
20
0.577081
11
0.71959
21
0.577773
0
LINE
8
BLACK
6
CONTINUOUS
10
0.71959
20
0.577773
11
0.718898
21
0.579443
0
LINE
8
BLACK
6
CONTINUOUS
10
0.718898
20
0.579443
11
0.71959
21
0.581114
0
LINE
8
BLACK
6
CONTINUOUS
10
0.71959
20
0.581114
11
0.72126
21
0.581806
0
LINE
8
BLACK
6
CONTINUOUS
10
0.72126
20
0.581806
11
0.931496
21
0.581806
0
LINE
8
BLACK
6
CONTINUOUS
10
0.931496
20
0.581806
11
0.931496
21
0.707002
0
LINE
8
BLACK
6
CONTINUOUS
10
0.931496
20
0.707002
11
0.72126
21
0.707002
0
LINE
8
BLACK
6
CONTINUOUS
10
0.72126
20
0.707002
11
0.71959
21
0.707694
0
LINE
8
BLACK
6
CONTINUOUS
10
0.71959
20
0.707694
11
0.718898
21
0.709365
0
LINE
8
BLACK
6
CONTINUOUS
10
0.718898
20
0.709365
11
0.71959
21
0.711035
0
LINE
8
BLACK
6
CONTINUOUS
10
0.71959
20
0.711035
11
0.72126
21
0.711727
0
LINE
8
BLACK
6
CONTINUOUS
10
0.72126
20
0.711727
11
0.933858
21
0.711727
0
LINE
8
BLACK
6
CONTINUOUS
10
0.780975
20
0.767116
11
0.781144
21
0.767127
0
LINE
8
BLACK
6
CONTINUOUS
10
0.781144
20
0.767127
11
0.781835
21
0.766619
0
LINE
8
BLACK
6
CONTINUOUS
10
0.781835
20
0.766619
11
0.782577
21
0.766191
0
LINE
8
BLACK
6
CONTINUOUS
10
0.782577
20
0.766191
11
0.782635
21
0.766031
0
LINE
8
BLACK
6
CONTINUOUS
10
0.782635
20
0.766031
11
0.782772
21
0.765931
0
LINE
8
BLACK
6
CONTINUOUS
10
0.782772
20
0.765931
11
0.786359
21
0.76055
0
LINE
8
BLACK
6
CONTINUOUS
10
0.786359
20
0.76055
11
0.789563
21
0.757346
0
LINE
8
BLACK
6
CONTINUOUS
10
0.789563
20
0.757346
11
0.792884
21
0.755685
0
LINE
8
BLACK
6
CONTINUOUS
10
0.792884
20
0.755685
11
0.793708
21
0.755074
0
LINE
8
BLACK
6
CONTINUOUS
10
0.793708
20
0.755074
11
0.794511
21
0.753221
0
LINE
8
BLACK
6
CONTINUOUS
10
0.794511
20
0.753221
11
0.793935
21
0.751285
0
LINE
8
BLACK
6
CONTINUOUS
10
0.793935
20
0.751285
11
0.79225
21
0.750172
0
LINE
8
BLACK
6
CONTINUOUS
10
0.79225
20
0.750172
11
0.790243
21
0.750403
0
LINE
8
BLACK
6
CONTINUOUS
10
0.790243
20
0.750403
11
0.786493
21
0.752278
0
LINE
8
BLACK
6
CONTINUOUS
10
0.786493
20
0.752278
11
0.785784
21
0.752804
0
LINE
8
BLACK
6
CONTINUOUS
10
0.785784
20
0.752804
11
0.785726
21
0.752831
0
LINE
8
BLACK
6
CONTINUOUS
10
0.785726
20
0.752831
11
0.783268
21
0.75529
0
LINE
8
BLACK
6
CONTINUOUS
10
0.783268
20
0.75529
11
0.783268
21
0.727876
0
LINE
8
BLACK
6
CONTINUOUS
10
0.783268
20
0.727876
11
0.791564
21
0.727876
0
LINE
8
BLACK
6
CONTINUOUS
10
0.791564
20
0.727876
11
0.792573
21
0.727698
0
LINE
8
BLACK
6
CONTINUOUS
10
0.792573
20
0.727698
11
0.794121
21
0.726399
0
LINE
8
BLACK
6
CONTINUOUS
10
0.794121
20
0.726399
11
0.794471
21
0.72441
0
LINE
8
BLACK
6
CONTINUOUS
10
0.794471
20
0.72441
11
0.793461
21
0.722661
0
LINE
8
BLACK
6
CONTINUOUS
10
0.793461
20
0.722661
11
0.791564
21
0.72197
0
LINE
8
BLACK
6
CONTINUOUS
10
0.791564
20
0.72197
11
0.769066
21
0.72197
0
LINE
8
BLACK
6
CONTINUOUS
10
0.769066
20
0.72197
11
0.768056
21
0.722148
0
LINE
8
BLACK
6
CONTINUOUS
10
0.768056
20
0.722148
11
0.766509
21
0.723446
0
LINE
8
BLACK
6
CONTINUOUS
10
0.766509
20
0.723446
11
0.766158
21
0.725436
0
LINE
8
BLACK
6
CONTINUOUS
10
0.766158
20
0.725436
11
0.767168
21
0.727185
0
LINE
8
BLACK
6
CONTINUOUS
10
0.767168
20
0.727185
11
0.769066
21
0.727876
0
LINE
8
BLACK
6
CONTINUOUS
10
0.769066
20
0.727876
11
0.777362
21
0.727876
0
LINE
8
BLACK
6
CONTINUOUS
10
0.777362
20
0.727876
11
0.777362
21
0.764293
0
LINE
8
BLACK
6
CONTINUOUS
10
0.777362
20
0.764293
11
0.77754
21
0.765303
0
LINE
8
BLACK
6
CONTINUOUS
10
0.77754
20
0.765303
11
0.777649
21
0.765433
0
LINE
8
BLACK
6
CONTINUOUS
10
0.777649
20
0.765433
11
0.777668
21
0.765602
0
LINE
8
BLACK
6
CONTINUOUS
10
0.777668
20
0.765602
11
0.778288
21
0.766194
0
LINE
8
BLACK
6
CONTINUOUS
10
0.778288
20
0.766194
11
0.778839
21
0.76685
0
LINE
8
BLACK
6
CONTINUOUS
10
0.778839
20
0.76685
11
0.779006
21
0.76688
0
LINE
8
BLACK
6
CONTINUOUS
10
0.779006
20
0.76688
11
0.779129
21
0.766997
0
LINE
8
BLACK
6
CONTINUOUS
10
0.779129
20
0.766997
11
0.779984
21
0.767052
0
LINE
8
BLACK
6
CONTINUOUS
10
0.779984
20
0.767052
11
0.780828
21
0.767201
0
LINE
8
BLACK
6
CONTINUOUS
10
0.780828
20
0.767201
11
0.780975
21
0.767116
0
LINE
8
BLACK
6
CONTINUOUS
10
0.829442
20
0.767178
11
0.829572
21
0.767201
0
LINE
8
BLACK
6
CONTINUOUS
10
0.829572
20
0.767201
11
0.829685
21
0.767135
0
LINE
8
BLACK
6
CONTINUOUS
10
0.829685
20
0.767135
11
0.830069
21
0.767068
0
LINE
8
BLACK
6
CONTINUOUS
10
0.830069
20
0.767068
11
0.830656
21
0.766575
0
LINE
8
BLACK
6
CONTINUOUS
10
0.830656
20
0.766575
11
0.831321
21
0.766191
0
LINE
8
BLACK
6
CONTINUOUS
10
0.831321
20
0.766191
11
0.831412
21
0.765941
0
LINE
8
BLACK
6
CONTINUOUS
10
0.831412
20
0.765941
11
0.831616
21
0.765769
0
LINE
8
BLACK
6
CONTINUOUS
10
0.831616
20
0.765769
11
0.831749
21
0.765014
0
LINE
8
BLACK
6
CONTINUOUS
10
0.831749
20
0.765014
11
0.832012
21
0.764293
0
LINE
8
BLACK
6
CONTINUOUS
10
0.832012
20
0.764293
11
0.832012
21
0.724923
0
LINE
8
BLACK
6
CONTINUOUS
10
0.832012
20
0.724923
11
0.831944
21
0.724539
0
LINE
8
BLACK
6
CONTINUOUS
10
0.831944
20
0.724539
11
0.831967
21
0.72441
0
LINE
8
BLACK
6
CONTINUOUS
10
0.831967
20
0.72441
11
0.831901
21
0.724297
0
LINE
8
BLACK
6
CONTINUOUS
10
0.831901
20
0.724297
11
0.831834
21
0.723913
0
LINE
8
BLACK
6
CONTINUOUS
10
0.831834
20
0.723913
11
0.83134
21
0.723325
0
LINE
8
BLACK
6
CONTINUOUS
10
0.83134
20
0.723325
11
0.830957
21
0.722661
0
LINE
8
BLACK
6
CONTINUOUS
10
0.830957
20
0.722661
11
0.830706
21
0.72257
0
LINE
8
BLACK
6
CONTINUOUS
10
0.830706
20
0.72257
11
0.830535
21
0.722366
0
LINE
8
BLACK
6
CONTINUOUS
10
0.830535
20
0.722366
11
0.82978
21
0.722232
0
LINE
8
BLACK
6
CONTINUOUS
10
0.82978
20
0.722232
11
0.829059
21
0.72197
0
LINE
8
BLACK
6
CONTINUOUS
10
0.829059
20
0.72197
11
0.819685
21
0.72197
0
LINE
8
BLACK
6
CONTINUOUS
10
0.819685
20
0.72197
11
0.818816
21
0.722123
0
LINE
8
BLACK
6
CONTINUOUS
10
0.818816
20
0.722123
11
0.818751
21
0.722122
0
LINE
8
BLACK
6
CONTINUOUS
10
0.818751
20
0.722122
11
0.813127
21
0.723996
0
LINE
8
BLACK
6
CONTINUOUS
10
0.813127
20
0.723996
11
0.812225
21
0.724485
0
LINE
8
BLACK
6
CONTINUOUS
10
0.812225
20
0.724485
11
0.812133
21
0.724635
0
LINE
8
BLACK
6
CONTINUOUS
10
0.812133
20
0.724635
11
0.811973
21
0.72471
0
LINE
8
BLACK
6
CONTINUOUS
10
0.811973
20
0.72471
11
0.808223
21
0.728459
0
LINE
8
BLACK
6
CONTINUOUS
10
0.808223
20
0.728459
11
0.807717
21
0.729182
0
LINE
8
BLACK
6
CONTINUOUS
10
0.807717
20
0.729182
11
0.80767
21
0.729227
0
LINE
8
BLACK
6
CONTINUOUS
10
0.80767
20
0.729227
11
0.805795
21
0.732976
0
LINE
8
BLACK
6
CONTINUOUS
10
0.805795
20
0.732976
11
0.80565
21
0.733465
0
LINE
8
BLACK
6
CONTINUOUS
10
0.80565
20
0.733465
11
0.805572
21
0.733581
0
LINE
8
BLACK
6
CONTINUOUS
10
0.805572
20
0.733581
11
0.803697
21
0.74108
0
LINE
8
BLACK
6
CONTINUOUS
10
0.803697
20
0.74108
11
0.803656
21
0.741668
0
LINE
8
BLACK
6
CONTINUOUS
10
0.803656
20
0.741668
11
0.803609
21
0.741796
0
LINE
8
BLACK
6
CONTINUOUS
10
0.803609
20
0.741796
11
0.803609
21
0.74742
0
LINE
8
BLACK
6
CONTINUOUS
10
0.803609
20
0.74742
11
0.803711
21
0.748
0
LINE
8
BLACK
6
CONTINUOUS
10
0.803711
20
0.748
11
0.803697
21
0.748136
0
LINE
8
BLACK
6
CONTINUOUS
10
0.803697
20
0.748136
11
0.805572
21
0.755635
0
LINE
8
BLACK
6
CONTINUOUS
10
0.805572
20
0.755635
11
0.805779
21
0.756101
0
LINE
8
BLACK
6
CONTINUOUS
10
0.805779
20
0.756101
11
0.805795
21
0.75624
0
LINE
8
BLACK
6
CONTINUOUS
10
0.805795
20
0.75624
11
0.80767
21
0.759989
0
LINE
8
BLACK
6
CONTINUOUS
10
0.80767
20
0.759989
11
0.808196
21
0.760698
0
LINE
8
BLACK
6
CONTINUOUS
10
0.808196
20
0.760698
11
0.808223
21
0.760757
0
LINE
8
BLACK
6
CONTINUOUS
10
0.808223
20
0.760757
11
0.811973
21
0.764506
0
LINE
8
BLACK
6
CONTINUOUS
10
0.811973
20
0.764506
11
0.812813
21
0.765094
0
LINE
8
BLACK
6
CONTINUOUS
10
0.812813
20
0.765094
11
0.812989
21
0.76511
0
LINE
8
BLACK
6
CONTINUOUS
10
0.812989
20
0.76511
11
0.813127
21
0.765219
0
LINE
8
BLACK
6
CONTINUOUS
10
0.813127
20
0.765219
11
0.818751
21
0.767094
0
LINE
8
BLACK
6
CONTINUOUS
10
0.818751
20
0.767094
11
0.819624
21
0.767224
0
LINE
8
BLACK
6
CONTINUOUS
10
0.819624
20
0.767224
11
0.819685
21
0.767246
0
LINE
8
BLACK
6
CONTINUOUS
10
0.819685
20
0.767246
11
0.829059
21
0.767246
0
LINE
8
BLACK
6
CONTINUOUS
10
0.829059
20
0.767246
11
0.829442
21
0.767178
0
LINE
8
BLACK
6
CONTINUOUS
10
0.815656
20
0.759837
11
0.812738
21
0.75692
0
LINE
8
BLACK
6
CONTINUOUS
10
0.812738
20
0.75692
11
0.811222
21
0.753889
0
LINE
8
BLACK
6
CONTINUOUS
10
0.811222
20
0.753889
11
0.809514
21
0.747057
0
LINE
8
BLACK
6
CONTINUOUS
10
0.809514
20
0.747057
11
0.809514
21
0.742159
0
LINE
8
BLACK
6
CONTINUOUS
10
0.809514
20
0.742159
11
0.811222
21
0.735327
0
LINE
8
BLACK
6
CONTINUOUS
10
0.811222
20
0.735327
11
0.812738
21
0.732296
0
LINE
8
BLACK
6
CONTINUOUS
10
0.812738
20
0.732296
11
0.815656
21
0.729378
0
LINE
8
BLACK
6
CONTINUOUS
10
0.815656
20
0.729378
11
0.820164
21
0.727876
0
LINE
8
BLACK
6
CONTINUOUS
10
0.820164
20
0.727876
11
0.826106
21
0.727876
0
LINE
8
BLACK
6
CONTINUOUS
10
0.826106
20
0.727876
11
0.826106
21
0.76134
0
LINE
8
BLACK
6
CONTINUOUS
10
0.826106
20
0.76134
11
0.820164
21
0.76134
0
LINE
8
BLACK
6
CONTINUOUS
10
0.820164
20
0.76134
11
0.815656
21
0.759837
0
LINE
8
BLACK
6
CONTINUOUS
10
0.411956
20
0.99045
11
0.412648
21
0.98878
0
LINE
8
BLACK
6
CONTINUOUS
10
0.412648
20
0.98878
11
0.411956
21
0.987109
0
LINE
8
BLACK
6
CONTINUOUS
10
0.411956
20
0.987109
11
0.410286
21
0.986417
0
LINE
8
BLACK
6
CONTINUOUS
10
0.410286
20
0.986417
11
0.389714
21
0.986417
0
LINE
8
BLACK
6
CONTINUOUS
10
0.389714
20
0.986417
11
0.388044
21
0.987109
0
LINE
8
BLACK
6
CONTINUOUS
10
0.388044
20
0.987109
11
0.387352
21
0.98878
0
LINE
8
BLACK
6
CONTINUOUS
10
0.387352
20
0.98878
11
0.388044
21
0.99045
0
LINE
8
BLACK
6
CONTINUOUS
10
0.388044
20
0.99045
11
0.389714
21
0.991142
0
LINE
8
BLACK
6
CONTINUOUS
10
0.389714
20
0.991142
11
0.410286
21
0.991142
0
LINE
8
BLACK
6
CONTINUOUS
10
0.410286
20
0.991142
11
0.411956
21
0.99045
0
LINE
8
BLACK
6
CONTINUOUS
10
0.411956
20
1.04832
11
0.412648
21
1.04665
0
LINE
8
BLACK
6
CONTINUOUS
10
0.412648
20
1.04665
11
0.411956
21
1.04498
0
LINE
8
BLACK
6
CONTINUOUS
10
0.411956
20
1.04498
11
0.410286
21
1.04429
0
LINE
8
BLACK
6
CONTINUOUS
10
0.410286
20
1.04429
11
0.389714
21
1.04429
0
LINE
8
BLACK
6
CONTINUOUS
10
0.389714
20
1.04429
11
0.388044
21
1.04498
0
LINE
8
BLACK
6
CONTINUOUS
10
0.388044
20
1.04498
11
0.387352
21
1.04665
0
LINE
8
BLACK
6
CONTINUOUS
10
0.387352
20
1.04665
11
0.388044
21
1.04832
0
LINE
8
BLACK
6
CONTINUOUS
10
0.388044
20
1.04832
11
0.389714
21
1.04902
0
LINE
8
BLACK
6
CONTINUOUS
10
0.389714
20
1.04902
11
0.410286
21
1.04902
0
LINE
8
BLACK
6
CONTINUOUS
10
0.410286
20
1.04902
11
0.411956
21
1.04832
0
LINE
8
BLACK
6
CONTINUOUS
10
0.386949
20
1.1081
11
0.387084
21
1.10798
0
LINE
8
BLACK
6
CONTINUOUS
10
0.387084
20
1.10798
11
0.38726
21
1.10796
0
LINE
8
BLACK
6
CONTINUOUS
10
0.38726
20
1.10796
11
0.391009
21
1.10609
0
LINE
8
BLACK
6
CONTINUOUS
10
0.391009
20
1.10609
11
0.391718
21
1.10556
0
LINE
8
BLACK
6
CONTINUOUS
10
0.391718
20
1.10556
11
0.391777
21
1.10554
0
LINE
8
BLACK
6
CONTINUOUS
10
0.391777
20
1.10554
11
0.393651
21
1.10366
0
LINE
8
BLACK
6
CONTINUOUS
10
0.393651
20
1.10366
11
0.39424
21
1.10282
0
LINE
8
BLACK
6
CONTINUOUS
10
0.39424
20
1.10282
11
0.394416
21
1.10081
0
LINE
8
BLACK
6
CONTINUOUS
10
0.394416
20
1.10081
11
0.393257
21
1.09915
0
LINE
8
BLACK
6
CONTINUOUS
10
0.393257
20
1.09915
11
0.391306
21
1.09863
0
LINE
8
BLACK
6
CONTINUOUS
10
0.391306
20
1.09863
11
0.389476
21
1.09948
0
LINE
8
BLACK
6
CONTINUOUS
10
0.389476
20
1.09948
11
0.38794
21
1.10102
0
LINE
8
BLACK
6
CONTINUOUS
10
0.38794
20
1.10102
11
0.385242
21
1.10237
0
LINE
8
BLACK
6
CONTINUOUS
10
0.385242
20
1.10237
11
0.377262
21
1.10237
0
LINE
8
BLACK
6
CONTINUOUS
10
0.377262
20
1.10237
11
0.374565
21
1.10102
0
LINE
8
BLACK
6
CONTINUOUS
10
0.374565
20
1.10102
11
0.373368
21
1.09982
0
LINE
8
BLACK
6
CONTINUOUS
10
0.373368
20
1.09982
11
0.372019
21
1.09713
0
LINE
8
BLACK
6
CONTINUOUS
10
0.372019
20
1.09713
11
0.372019
21
1.09455
0
LINE
8
BLACK
6
CONTINUOUS
10
0.372019
20
1.09455
11
0.373522
21
1.09004
0
LINE
8
BLACK
6
CONTINUOUS
10
0.373522
20
1.09004
11
0.395526
21
1.06804
0
LINE
8
BLACK
6
CONTINUOUS
10
0.395526
20
1.06804
11
0.395896
21
1.06751
0
LINE
8
BLACK
6
CONTINUOUS
10
0.395896
20
1.06751
11
0.395995
21
1.06743
0
LINE
8
BLACK
6
CONTINUOUS
10
0.395995
20
1.06743
11
0.396009
21
1.06735
0
LINE
8
BLACK
6
CONTINUOUS
10
0.396009
20
1.06735
11
0.396114
21
1.0672
0
LINE
8
BLACK
6
CONTINUOUS
10
0.396114
20
1.0672
11
0.396192
21
1.06631
0
LINE
8
BLACK
6
CONTINUOUS
10
0.396192
20
1.06631
11
0.396346
21
1.06544
0
LINE
8
BLACK
6
CONTINUOUS
10
0.396346
20
1.06544
11
0.396279
21
1.06532
0
LINE
8
BLACK
6
CONTINUOUS
10
0.396279
20
1.06532
11
0.39629
21
1.06519
0
LINE
8
BLACK
6
CONTINUOUS
10
0.39629
20
1.06519
11
0.395781
21
1.06446
0
LINE
8
BLACK
6
CONTINUOUS
10
0.395781
20
1.06446
11
0.395336
21
1.06369
0
LINE
8
BLACK
6
CONTINUOUS
10
0.395336
20
1.06369
11
0.395209
21
1.06364
0
LINE
8
BLACK
6
CONTINUOUS
10
0.395209
20
1.06364
11
0.395132
21
1.06353
0
LINE
8
BLACK
6
CONTINUOUS
10
0.395132
20
1.06353
11
0.394273
21
1.0633
0
LINE
8
BLACK
6
CONTINUOUS
10
0.394273
20
1.0633
11
0.393438
21
1.063
0
LINE
8
BLACK
6
CONTINUOUS
10
0.393438
20
1.063
11
0.369066
21
1.063
0
LINE
8
BLACK
6
CONTINUOUS
10
0.369066
20
1.063
11
0.368056
21
1.06318
0
LINE
8
BLACK
6
CONTINUOUS
10
0.368056
20
1.06318
11
0.366509
21
1.06448
0
LINE
8
BLACK
6
CONTINUOUS
10
0.366509
20
1.06448
11
0.366158
21
1.06646
0
LINE
8
BLACK
6
CONTINUOUS
10
0.366158
20
1.06646
11
0.367168
21
1.06821
0
LINE
8
BLACK
6
CONTINUOUS
10
0.367168
20
1.06821
11
0.369066
21
1.0689
0
LINE
8
BLACK
6
CONTINUOUS
10
0.369066
20
1.0689
11
0.38631
21
1.0689
0
LINE
8
BLACK
6
CONTINUOUS
10
0.38631
20
1.0689
11
0.368853
21
1.08636
0
LINE
8
BLACK
6
CONTINUOUS
10
0.368853
20
1.08636
11
0.368265
21
1.0872
0
LINE
8
BLACK
6
CONTINUOUS
10
0.368265
20
1.0872
11
0.36825
21
1.08738
0
LINE
8
BLACK
6
CONTINUOUS
10
0.36825
20
1.08738
11
0.36814
21
1.08752
0
LINE
8
BLACK
6
CONTINUOUS
10
0.36814
20
1.08752
11
0.366265
21
1.09314
0
LINE
8
BLACK
6
CONTINUOUS
10
0.366265
20
1.09314
11
0.366136
21
1.09401
0
LINE
8
BLACK
6
CONTINUOUS
10
0.366136
20
1.09401
11
0.366114
21
1.09407
0
LINE
8
BLACK
6
CONTINUOUS
10
0.366114
20
1.09407
11
0.366114
21
1.09782
0
LINE
8
BLACK
6
CONTINUOUS
10
0.366114
20
1.09782
11
0.366292
21
1.09883
0
LINE
8
BLACK
6
CONTINUOUS
10
0.366292
20
1.09883
11
0.366405
21
1.09897
0
LINE
8
BLACK
6
CONTINUOUS
10
0.366405
20
1.09897
11
0.366425
21
1.09914
0
LINE
8
BLACK
6
CONTINUOUS
10
0.366425
20
1.09914
11
0.3683
21
1.10289
0
LINE
8
BLACK
6
CONTINUOUS
10
0.3683
20
1.10289
11
0.368826
21
1.1036
0
LINE
8
BLACK
6
CONTINUOUS
10
0.368826
20
1.1036
11
0.368853
21
1.10366
0
LINE
8
BLACK
6
CONTINUOUS
10
0.368853
20
1.10366
11
0.370728
21
1.10554
0
LINE
8
BLACK
6
CONTINUOUS
10
0.370728
20
1.10554
11
0.371451
21
1.10604
0
LINE
8
BLACK
6
CONTINUOUS
10
0.371451
20
1.10604
11
0.371495
21
1.10609
0
LINE
8
BLACK
6
CONTINUOUS
10
0.371495
20
1.10609
11
0.375245
21
1.10796
0
LINE
8
BLACK
6
CONTINUOUS
10
0.375245
20
1.10796
11
0.376228
21
1.10826
0
LINE
8
BLACK
6
CONTINUOUS
10
0.376228
20
1.10826
11
0.376399
21
1.10821
0
LINE
8
BLACK
6
CONTINUOUS
10
0.376399
20
1.10821
11
0.376565
21
1.10827
0
LINE
8
BLACK
6
CONTINUOUS
10
0.376565
20
1.10827
11
0.385939
21
1.10827
0
LINE
8
BLACK
6
CONTINUOUS
10
0.385939
20
1.10827
11
0.386949
21
1.1081
0
LINE
8
BLACK
6
CONTINUOUS
10
0.41868
20
1.10812
11
0.418744
21
1.10812
0
LINE
8
BLACK
6
CONTINUOUS
10
0.418744
20
1.10812
11
0.424368
21
1.10625
0
LINE
8
BLACK
6
CONTINUOUS
10
0.424368
20
1.10625
11
0.42527
21
1.10576
0
LINE
8
BLACK
6
CONTINUOUS
10
0.42527
20
1.10576
11
0.425362
21
1.10561
0
LINE
8
BLACK
6
CONTINUOUS
10
0.425362
20
1.10561
11
0.425522
21
1.10554
0
LINE
8
BLACK
6
CONTINUOUS
10
0.425522
20
1.10554
11
0.429272
21
1.10179
0
LINE
8
BLACK
6
CONTINUOUS
10
0.429272
20
1.10179
11
0.429778
21
1.10106
0
LINE
8
BLACK
6
CONTINUOUS
10
0.429778
20
1.10106
11
0.429825
21
1.10102
0
LINE
8
BLACK
6
CONTINUOUS
10
0.429825
20
1.10102
11
0.4317
21
1.09727
0
LINE
8
BLACK
6
CONTINUOUS
10
0.4317
20
1.09727
11
0.431845
21
1.09678
0
LINE
8
BLACK
6
CONTINUOUS
10
0.431845
20
1.09678
11
0.431923
21
1.09666
0
LINE
8
BLACK
6
CONTINUOUS
10
0.431923
20
1.09666
11
0.433798
21
1.08917
0
LINE
8
BLACK
6
CONTINUOUS
10
0.433798
20
1.08917
11
0.43384
21
1.08858
0
LINE
8
BLACK
6
CONTINUOUS
10
0.43384
20
1.08858
11
0.433886
21
1.08845
0
LINE
8
BLACK
6
CONTINUOUS
10
0.433886
20
1.08845
11
0.433886
21
1.08282
0
LINE
8
BLACK
6
CONTINUOUS
10
0.433886
20
1.08282
11
0.433784
21
1.08224
0
LINE
8
BLACK
6
CONTINUOUS
10
0.433784
20
1.08224
11
0.433798
21
1.08211
0
LINE
8
BLACK
6
CONTINUOUS
10
0.433798
20
1.08211
11
0.431923
21
1.07461
0
LINE
8
BLACK
6
CONTINUOUS
10
0.431923
20
1.07461
11
0.431716
21
1.07414
0
LINE
8
BLACK
6
CONTINUOUS
10
0.431716
20
1.07414
11
0.4317
21
1.07401
0
LINE
8
BLACK
6
CONTINUOUS
10
0.4317
20
1.07401
11
0.429825
21
1.07026
0
LINE
8
BLACK
6
CONTINUOUS
10
0.429825
20
1.07026
11
0.429299
21
1.06955
0
LINE
8
BLACK
6
CONTINUOUS
10
0.429299
20
1.06955
11
0.429272
21
1.06949
0
LINE
8
BLACK
6
CONTINUOUS
10
0.429272
20
1.06949
11
0.425522
21
1.06574
0
LINE
8
BLACK
6
CONTINUOUS
10
0.425522
20
1.06574
11
0.424682
21
1.06515
0
LINE
8
BLACK
6
CONTINUOUS
10
0.424682
20
1.06515
11
0.424507
21
1.06514
0
LINE
8
BLACK
6
CONTINUOUS
10
0.424507
20
1.06514
11
0.424368
21
1.06503
0
LINE
8
BLACK
6
CONTINUOUS
10
0.424368
20
1.06503
11
0.418744
21
1.06315
0
LINE
8
BLACK
6
CONTINUOUS
10
0.418744
20
1.06315
11
0.417871
21
1.06302
0
LINE
8
BLACK
6
CONTINUOUS
10
0.417871
20
1.06302
11
0.41781
21
1.063
0
LINE
8
BLACK
6
CONTINUOUS
10
0.41781
20
1.063
11
0.414061
21
1.063
0
LINE
8
BLACK
6
CONTINUOUS
10
0.414061
20
1.063
11
0.413191
21
1.06315
0
LINE
8
BLACK
6
CONTINUOUS
10
0.413191
20
1.06315
11
0.413127
21
1.06315
0
LINE
8
BLACK
6
CONTINUOUS
10
0.413127
20
1.06315
11
0.407503
21
1.06503
0
LINE
8
BLACK
6
CONTINUOUS
10
0.407503
20
1.06503
11
0.406601
21
1.06551
0
LINE
8
BLACK
6
CONTINUOUS
10
0.406601
20
1.06551
11
0.406508
21
1.06566
0
LINE
8
BLACK
6
CONTINUOUS
10
0.406508
20
1.06566
11
0.406348
21
1.06574
0
LINE
8
BLACK
6
CONTINUOUS
10
0.406348
20
1.06574
11
0.404474
21
1.06761
0
LINE
8
BLACK
6
CONTINUOUS
10
0.404474
20
1.06761
11
0.403886
21
1.06845
0
LINE
8
BLACK
6
CONTINUOUS
10
0.403886
20
1.06845
11
0.40371
21
1.07047
0
LINE
8
BLACK
6
CONTINUOUS
10
0.40371
20
1.07047
11
0.404868
21
1.07212
0
LINE
8
BLACK
6
CONTINUOUS
10
0.404868
20
1.07212
11
0.406819
21
1.07264
0
LINE
8
BLACK
6
CONTINUOUS
10
0.406819
20
1.07264
11
0.40865
21
1.07179
0
LINE
8
BLACK
6
CONTINUOUS
10
0.40865
20
1.07179
11
0.410031
21
1.07041
0
LINE
8
BLACK
6
CONTINUOUS
10
0.410031
20
1.07041
11
0.41454
21
1.0689
0
LINE
8
BLACK
6
CONTINUOUS
10
0.41454
20
1.0689
11
0.417331
21
1.0689
0
LINE
8
BLACK
6
CONTINUOUS
10
0.417331
20
1.0689
11
0.421839
21
1.07041
0
LINE
8
BLACK
6
CONTINUOUS
10
0.421839
20
1.07041
11
0.424757
21
1.07333
0
LINE
8
BLACK
6
CONTINUOUS
10
0.424757
20
1.07333
11
0.426273
21
1.07636
0
LINE
8
BLACK
6
CONTINUOUS
10
0.426273
20
1.07636
11
0.427981
21
1.08319
0
LINE
8
BLACK
6
CONTINUOUS
10
0.427981
20
1.08319
11
0.427981
21
1.08809
0
LINE
8
BLACK
6
CONTINUOUS
10
0.427981
20
1.08809
11
0.426273
21
1.09492
0
LINE
8
BLACK
6
CONTINUOUS
10
0.426273
20
1.09492
11
0.424757
21
1.09795
0
LINE
8
BLACK
6
CONTINUOUS
10
0.424757
20
1.09795
11
0.421839
21
1.10087
0
LINE
8
BLACK
6
CONTINUOUS
10
0.421839
20
1.10087
11
0.417331
21
1.10237
0
LINE
8
BLACK
6
CONTINUOUS
10
0.417331
20
1.10237
11
0.41454
21
1.10237
0
LINE
8
BLACK
6
CONTINUOUS
10
0.41454
20
1.10237
11
0.410031
21
1.10087
0
LINE
8
BLACK
6
CONTINUOUS
10
0.410031
20
1.10087
11
0.40865
21
1.09948
0
LINE
8
BLACK
6
CONTINUOUS
10
0.40865
20
1.09948
11
0.40781
21
1.0989
0
LINE
8
BLACK
6
CONTINUOUS
10
0.40781
20
1.0989
11
0.405797
21
1.09872
0
LINE
8
BLACK
6
CONTINUOUS
10
0.405797
20
1.09872
11
0.404143
21
1.09988
0
LINE
8
BLACK
6
CONTINUOUS
10
0.404143
20
1.09988
11
0.40362
21
1.10183
0
LINE
8
BLACK
6
CONTINUOUS
10
0.40362
20
1.10183
11
0.404474
21
1.10366
0
LINE
8
BLACK
6
CONTINUOUS
10
0.404474
20
1.10366
11
0.406349
21
1.10554
0
LINE
8
BLACK
6
CONTINUOUS
10
0.406349
20
1.10554
11
0.407189
21
1.10612
0
LINE
8
BLACK
6
CONTINUOUS
10
0.407189
20
1.10612
11
0.407364
21
1.10614
0
LINE
8
BLACK
6
CONTINUOUS
10
0.407364
20
1.10614
11
0.407503
21
1.10625
0
LINE
8
BLACK
6
CONTINUOUS
10
0.407503
20
1.10625
11
0.413127
21
1.10812
0
LINE
8
BLACK
6
CONTINUOUS
10
0.413127
20
1.10812
11
0.414
21
1.10825
0
LINE
8
BLACK
6
CONTINUOUS
10
0.414
20
1.10825
11
0.414061
21
1.10827
0
LINE
8
BLACK
6
CONTINUOUS
10
0.414061
20
1.10827
11
0.41781
21
1.10827
0
LINE
8
BLACK
6
CONTINUOUS
10
0.41781
20
1.10827
11
0.41868
21
1.10812
0
CIRCLE
8
BLACK
10
0
20
1.2
40
0.00688976
0
CIRCLE
8
BLACK
10
1.2
20
0
40
0.00688976
0
CIRCLE
8
BLACK
10
1.25
20
0.5
40
0.00688976
0
CIRCLE
8
BLACK
10
1.15
20
0.5
40
0.00688976
0
CIRCLE
8
BLACK
10
1.25
20
0.6
40
0.00688976
0
CIRCLE
8
BLACK
10
1.15
20
0.6
40
0.00688976
0
CIRCLE
8
BLACK
10
1.25
20
0.7
40
0.00688976
0
CIRCLE
8
BLACK
10
1.15
20
0.7
40
0.00688976
0
CIRCLE
8
BLACK
10
0
20
0
40
0.00688976
0
CIRCLE
8
BLACK
10
1.2
20
1.2
40
0.00688976
  0
ENDSEC
  0
EOF
