  0
SECTION
  2
HEADER
  9
$ANGBASE
  50
0.0
  9
$ANGDIR
  70
1
  9
$MEASUREMENT
  70
0
  0
ENDSEC
  0
SECTION
  2
TABLES
  0
TABLE
  2
LTYPE
  70
4
  0
LTYPE
  5
40F
  2
CONTINUOUS
  70
0
  3
Solid line
  72
65
  73
0
  40
0.0
  0
LTYPE
  5
410
  2
DASHDOT
 70
0
  3
Dash Dot ____ _ ____ _
 72
65
 73
4
 40
2.0
 49
1.25
 49
-0.25
 49
0.25
 49
-0.25
  0
LTYPE
  5
411
  2
DASHED
 70
0
  3
Dashed __ __ __ __ __
 72
65
 73
2
 40
0.75
 49
0.5
 49
-0.25
  0
LTYPE
  5
43B
  2
DOTTED
 70
0
  3
Dotted .  .  .  .
 72
65
 73
2
 40
0.2
 49
0.0
 49
-0.2
  0
ENDTAB
  0
TABLE
  2
STYLE
  70
4
  0
STYLE
  2
KICAD
  70
0
  40
0
  41
1
  42
1
  50
0
  71
0
  3
isocp.shx
  0
STYLE
  2
KICADB
  70
0
  40
0
  41
1
  42
1
  50
0
  71
0
  3
isocp.shx
  0
STYLE
  2
KICADI
  70
0
  40
0
  41
1
  42
1
  50
15
  71
0
  3
isocp.shx
  0
STYLE
  2
KICADBI
  70
0
  40
0
  41
1
  42
1
  50
15
  71
0
  3
isocp.shx
  0
ENDTAB
  0
TABLE
  2
LAYER
  70
1
  0
LAYER
  2
BLACK
  70
0
  62
7
  6
CONTINUOUS
  0
ENDTAB
  0
ENDSEC
  0
SECTION
  2
ENTITIES
0
LINE
8
BLACK
6
CONTINUOUS
10
0.0204724
20
1.17343
11
0.0211684
21
1.17314
0
LINE
8
BLACK
6
CONTINUOUS
10
0.0211684
20
1.17314
11
0.0214567
21
1.17244
0
LINE
8
BLACK
6
CONTINUOUS
10
0.0214567
20
1.17244
11
0.0214567
21
1.09528
0
LINE
8
BLACK
6
CONTINUOUS
10
0.0214567
20
1.09528
11
0.0211684
21
1.09458
0
LINE
8
BLACK
6
CONTINUOUS
10
0.0211684
20
1.09458
11
0.0204724
21
1.09429
0
LINE
8
BLACK
6
CONTINUOUS
10
0.0204724
20
1.09429
11
-0.113386
21
1.09429
0
LINE
8
BLACK
6
CONTINUOUS
10
-0.113386
20
1.09429
11
-0.114082
21
1.09458
0
LINE
8
BLACK
6
CONTINUOUS
10
-0.114082
20
1.09458
11
-0.11437
21
1.09528
0
LINE
8
BLACK
6
CONTINUOUS
10
-0.11437
20
1.09528
11
-0.11437
21
1.17244
0
LINE
8
BLACK
6
CONTINUOUS
10
-0.11437
20
1.17244
11
-0.114082
21
1.17314
0
LINE
8
BLACK
6
CONTINUOUS
10
-0.114082
20
1.17314
11
-0.113386
21
1.17343
0
LINE
8
BLACK
6
CONTINUOUS
10
-0.113386
20
1.17343
11
0.0204724
21
1.17343
0
LINE
8
BLACK
6
CONTINUOUS
10
-0.112402
20
1.17146
11
-0.112402
21
1.09626
0
LINE
8
BLACK
6
CONTINUOUS
10
-0.112402
20
1.09626
11
0.0194882
21
1.09626
0
LINE
8
BLACK
6
CONTINUOUS
10
0.0194882
20
1.09626
11
0.0194882
21
1.17146
0
LINE
8
BLACK
6
CONTINUOUS
10
0.0194882
20
1.17146
11
-0.112402
21
1.17146
0
LINE
8
BLACK
6
CONTINUOUS
10
0.491339
20
1.44814
11
0.492035
21
1.44786
0
LINE
8
BLACK
6
CONTINUOUS
10
0.492035
20
1.44786
11
0.492323
21
1.44716
0
LINE
8
BLACK
6
CONTINUOUS
10
0.492323
20
1.44716
11
0.492323
21
1.30936
0
LINE
8
BLACK
6
CONTINUOUS
10
0.492323
20
1.30936
11
0.492035
21
1.30867
0
LINE
8
BLACK
6
CONTINUOUS
10
0.492035
20
1.30867
11
0.491339
21
1.30838
0
LINE
8
BLACK
6
CONTINUOUS
10
0.491339
20
1.30838
11
0.215748
21
1.30838
0
LINE
8
BLACK
6
CONTINUOUS
10
0.215748
20
1.30838
11
0.215052
21
1.30867
0
LINE
8
BLACK
6
CONTINUOUS
10
0.215052
20
1.30867
11
0.214764
21
1.30936
0
LINE
8
BLACK
6
CONTINUOUS
10
0.214764
20
1.30936
11
0.214764
21
1.30936
0
LINE
8
BLACK
6
CONTINUOUS
10
0.214764
20
1.30936
11
0.214764
21
1.44716
0
LINE
8
BLACK
6
CONTINUOUS
10
0.214764
20
1.44716
11
0.215052
21
1.44786
0
LINE
8
BLACK
6
CONTINUOUS
10
0.215052
20
1.44786
11
0.215748
21
1.44814
0
LINE
8
BLACK
6
CONTINUOUS
10
0.215748
20
1.44814
11
0.491339
21
1.44814
0
LINE
8
BLACK
6
CONTINUOUS
10
0.216732
20
1.44618
11
0.216732
21
1.31035
0
LINE
8
BLACK
6
CONTINUOUS
10
0.216732
20
1.31035
11
0.490354
21
1.31035
0
LINE
8
BLACK
6
CONTINUOUS
10
0.490354
20
1.31035
11
0.490354
21
1.44618
0
LINE
8
BLACK
6
CONTINUOUS
10
0.490354
20
1.44618
11
0.216732
21
1.44618
0
LINE
8
BLACK
6
CONTINUOUS
10
0.0204724
20
1.79114
11
0.0211684
21
1.79085
0
LINE
8
BLACK
6
CONTINUOUS
10
0.0211684
20
1.79085
11
0.0214567
21
1.79016
0
LINE
8
BLACK
6
CONTINUOUS
10
0.0214567
20
1.79016
11
0.0214567
21
1.71299
0
LINE
8
BLACK
6
CONTINUOUS
10
0.0214567
20
1.71299
11
0.0211684
21
1.7123
0
LINE
8
BLACK
6
CONTINUOUS
10
0.0211684
20
1.7123
11
0.0204724
21
1.71201
0
LINE
8
BLACK
6
CONTINUOUS
10
0.0204724
20
1.71201
11
-0.113386
21
1.71201
0
LINE
8
BLACK
6
CONTINUOUS
10
-0.113386
20
1.71201
11
-0.114082
21
1.7123
0
LINE
8
BLACK
6
CONTINUOUS
10
-0.114082
20
1.7123
11
-0.11437
21
1.71299
0
LINE
8
BLACK
6
CONTINUOUS
10
-0.11437
20
1.71299
11
-0.11437
21
1.79016
0
LINE
8
BLACK
6
CONTINUOUS
10
-0.11437
20
1.79016
11
-0.114082
21
1.79085
0
LINE
8
BLACK
6
CONTINUOUS
10
-0.114082
20
1.79085
11
-0.113386
21
1.79114
0
LINE
8
BLACK
6
CONTINUOUS
10
-0.113386
20
1.79114
11
0.0204724
21
1.79114
0
LINE
8
BLACK
6
CONTINUOUS
10
-0.112402
20
1.78917
11
-0.112402
21
1.71398
0
LINE
8
BLACK
6
CONTINUOUS
10
-0.112402
20
1.71398
11
0.0194882
21
1.71398
0
LINE
8
BLACK
6
CONTINUOUS
10
0.0194882
20
1.71398
11
0.0194882
21
1.78917
0
LINE
8
BLACK
6
CONTINUOUS
10
0.0194882
20
1.78917
11
-0.112402
21
1.78917
  0
ENDSEC
  0
EOF
