  0
SECTION
  2
HEADER
  9
$ANGBASE
  50
0.0
  9
$ANGDIR
  70
1
  9
$MEASUREMENT
  70
0
  0
ENDSEC
  0
SECTION
  2
TABLES
  0
TABLE
  2
LTYPE
  70
4
  0
LTYPE
  5
40F
  2
CONTINUOUS
  70
0
  3
Solid line
  72
65
  73
0
  40
0.0
  0
LTYPE
  5
410
  2
DASHDOT
 70
0
  3
Dash Dot ____ _ ____ _
 72
65
 73
4
 40
2.0
 49
1.25
 49
-0.25
 49
0.25
 49
-0.25
  0
LTYPE
  5
411
  2
DASHED
 70
0
  3
Dashed __ __ __ __ __
 72
65
 73
2
 40
0.75
 49
0.5
 49
-0.25
  0
LTYPE
  5
43B
  2
DOTTED
 70
0
  3
Dotted .  .  .  .
 72
65
 73
2
 40
0.2
 49
0.0
 49
-0.2
  0
ENDTAB
  0
TABLE
  2
STYLE
  70
4
  0
STYLE
  2
KICAD
  70
0
  40
0
  41
1
  42
1
  50
0
  71
0
  3
isocp.shx
  0
STYLE
  2
KICADB
  70
0
  40
0
  41
1
  42
1
  50
0
  71
0
  3
isocp.shx
  0
STYLE
  2
KICADI
  70
0
  40
0
  41
1
  42
1
  50
15
  71
0
  3
isocp.shx
  0
STYLE
  2
KICADBI
  70
0
  40
0
  41
1
  42
1
  50
15
  71
0
  3
isocp.shx
  0
ENDTAB
  0
TABLE
  2
LAYER
  70
1
  0
LAYER
  2
BLACK
  70
0
  62
7
  6
CONTINUOUS
  0
ENDTAB
  0
ENDSEC
  0
SECTION
  2
ENTITIES
0
LINE
8
BLACK
6
CONTINUOUS
10
0.414063
20
0.52481
11
0.427949
21
0.522451
0
LINE
8
BLACK
6
CONTINUOUS
10
0.427949
20
0.522451
11
0.441483
21
0.518552
0
LINE
8
BLACK
6
CONTINUOUS
10
0.441483
20
0.518552
11
0.454496
21
0.513162
0
LINE
8
BLACK
6
CONTINUOUS
10
0.454496
20
0.513162
11
0.466823
21
0.506349
0
LINE
8
BLACK
6
CONTINUOUS
10
0.466823
20
0.506349
11
0.47831
21
0.498198
0
LINE
8
BLACK
6
CONTINUOUS
10
0.47831
20
0.498198
11
0.488813
21
0.488813
0
LINE
8
BLACK
6
CONTINUOUS
10
0.488813
20
0.488813
11
0.498198
21
0.47831
0
LINE
8
BLACK
6
CONTINUOUS
10
0.498198
20
0.47831
11
0.506349
21
0.466823
0
LINE
8
BLACK
6
CONTINUOUS
10
0.506349
20
0.466823
11
0.513162
21
0.454496
0
LINE
8
BLACK
6
CONTINUOUS
10
0.513162
20
0.454496
11
0.518552
21
0.441483
0
LINE
8
BLACK
6
CONTINUOUS
10
0.518552
20
0.441483
11
0.522451
21
0.427949
0
LINE
8
BLACK
6
CONTINUOUS
10
0.522451
20
0.427949
11
0.52481
21
0.414063
0
LINE
8
BLACK
6
CONTINUOUS
10
0.52481
20
0.414063
11
0.5256
21
0.4
0
LINE
8
BLACK
6
CONTINUOUS
10
0.5256
20
0.4
11
0.52481
21
0.385937
0
LINE
8
BLACK
6
CONTINUOUS
10
0.52481
20
0.385937
11
0.522451
21
0.372051
0
LINE
8
BLACK
6
CONTINUOUS
10
0.522451
20
0.372051
11
0.518552
21
0.358517
0
LINE
8
BLACK
6
CONTINUOUS
10
0.518552
20
0.358517
11
0.513162
21
0.345504
0
LINE
8
BLACK
6
CONTINUOUS
10
0.513162
20
0.345504
11
0.506349
21
0.333177
0
LINE
8
BLACK
6
CONTINUOUS
10
0.506349
20
0.333177
11
0.498198
21
0.32169
0
LINE
8
BLACK
6
CONTINUOUS
10
0.498198
20
0.32169
11
0.488813
21
0.311187
0
LINE
8
BLACK
6
CONTINUOUS
10
0.488813
20
0.311187
11
0.47831
21
0.301802
0
LINE
8
BLACK
6
CONTINUOUS
10
0.47831
20
0.301802
11
0.466823
21
0.293651
0
LINE
8
BLACK
6
CONTINUOUS
10
0.466823
20
0.293651
11
0.454496
21
0.286838
0
LINE
8
BLACK
6
CONTINUOUS
10
0.454496
20
0.286838
11
0.441483
21
0.281448
0
LINE
8
BLACK
6
CONTINUOUS
10
0.441483
20
0.281448
11
0.427949
21
0.277549
0
LINE
8
BLACK
6
CONTINUOUS
10
0.427949
20
0.277549
11
0.414063
21
0.27519
0
LINE
8
BLACK
6
CONTINUOUS
10
0.414063
20
0.27519
11
0.4
21
0.2744
0
LINE
8
BLACK
6
CONTINUOUS
10
0.4
20
0.2744
11
0.385937
21
0.27519
0
LINE
8
BLACK
6
CONTINUOUS
10
0.385937
20
0.27519
11
0.372051
21
0.277549
0
LINE
8
BLACK
6
CONTINUOUS
10
0.372051
20
0.277549
11
0.358517
21
0.281448
0
LINE
8
BLACK
6
CONTINUOUS
10
0.358517
20
0.281448
11
0.345504
21
0.286838
0
LINE
8
BLACK
6
CONTINUOUS
10
0.345504
20
0.286838
11
0.333177
21
0.293651
0
LINE
8
BLACK
6
CONTINUOUS
10
0.333177
20
0.293651
11
0.32169
21
0.301802
0
LINE
8
BLACK
6
CONTINUOUS
10
0.32169
20
0.301802
11
0.311187
21
0.311187
0
LINE
8
BLACK
6
CONTINUOUS
10
0.311187
20
0.311187
11
0.301802
21
0.32169
0
LINE
8
BLACK
6
CONTINUOUS
10
0.301802
20
0.32169
11
0.293651
21
0.333177
0
LINE
8
BLACK
6
CONTINUOUS
10
0.293651
20
0.333177
11
0.286838
21
0.345504
0
LINE
8
BLACK
6
CONTINUOUS
10
0.286838
20
0.345504
11
0.281448
21
0.358517
0
LINE
8
BLACK
6
CONTINUOUS
10
0.281448
20
0.358517
11
0.277549
21
0.372051
0
LINE
8
BLACK
6
CONTINUOUS
10
0.277549
20
0.372051
11
0.27519
21
0.385937
0
LINE
8
BLACK
6
CONTINUOUS
10
0.27519
20
0.385937
11
0.2744
21
0.4
0
LINE
8
BLACK
6
CONTINUOUS
10
0.2744
20
0.4
11
0.27519
21
0.414063
0
LINE
8
BLACK
6
CONTINUOUS
10
0.27519
20
0.414063
11
0.277549
21
0.427949
0
LINE
8
BLACK
6
CONTINUOUS
10
0.277549
20
0.427949
11
0.281448
21
0.441483
0
LINE
8
BLACK
6
CONTINUOUS
10
0.281448
20
0.441483
11
0.286838
21
0.454496
0
LINE
8
BLACK
6
CONTINUOUS
10
0.286838
20
0.454496
11
0.293651
21
0.466823
0
LINE
8
BLACK
6
CONTINUOUS
10
0.293651
20
0.466823
11
0.301802
21
0.47831
0
LINE
8
BLACK
6
CONTINUOUS
10
0.301802
20
0.47831
11
0.311187
21
0.488813
0
LINE
8
BLACK
6
CONTINUOUS
10
0.311187
20
0.488813
11
0.32169
21
0.498198
0
LINE
8
BLACK
6
CONTINUOUS
10
0.32169
20
0.498198
11
0.333177
21
0.506349
0
LINE
8
BLACK
6
CONTINUOUS
10
0.333177
20
0.506349
11
0.345504
21
0.513162
0
LINE
8
BLACK
6
CONTINUOUS
10
0.345504
20
0.513162
11
0.358517
21
0.518552
0
LINE
8
BLACK
6
CONTINUOUS
10
0.358517
20
0.518552
11
0.372051
21
0.522451
0
LINE
8
BLACK
6
CONTINUOUS
10
0.372051
20
0.522451
11
0.385937
21
0.52481
0
LINE
8
BLACK
6
CONTINUOUS
10
0.385937
20
0.52481
11
0.4
21
0.5256
0
LINE
8
BLACK
6
CONTINUOUS
10
0.4
20
0.5256
11
0.414063
21
0.52481
0
LINE
8
BLACK
6
CONTINUOUS
10
0.289962
20
0.387138
11
0.292199
21
0.374451
0
LINE
8
BLACK
6
CONTINUOUS
10
0.292199
20
0.374451
11
0.295894
21
0.362108
0
LINE
8
BLACK
6
CONTINUOUS
10
0.295894
20
0.362108
11
0.300997
21
0.350279
0
LINE
8
BLACK
6
CONTINUOUS
10
0.300997
20
0.350279
11
0.307438
21
0.339121
0
LINE
8
BLACK
6
CONTINUOUS
10
0.307438
20
0.339121
11
0.315132
21
0.328787
0
LINE
8
BLACK
6
CONTINUOUS
10
0.315132
20
0.328787
11
0.323973
21
0.319416
0
LINE
8
BLACK
6
CONTINUOUS
10
0.323973
20
0.319416
11
0.333842
21
0.311135
0
LINE
8
BLACK
6
CONTINUOUS
10
0.333842
20
0.311135
11
0.344606
21
0.304055
0
LINE
8
BLACK
6
CONTINUOUS
10
0.344606
20
0.304055
11
0.356119
21
0.298273
0
LINE
8
BLACK
6
CONTINUOUS
10
0.356119
20
0.298273
11
0.368226
21
0.293867
0
LINE
8
BLACK
6
CONTINUOUS
10
0.368226
20
0.293867
11
0.380762
21
0.290896
0
LINE
8
BLACK
6
CONTINUOUS
10
0.380762
20
0.290896
11
0.393558
21
0.2894
0
LINE
8
BLACK
6
CONTINUOUS
10
0.393558
20
0.2894
11
0.406442
21
0.2894
0
LINE
8
BLACK
6
CONTINUOUS
10
0.406442
20
0.2894
11
0.419238
21
0.290896
0
LINE
8
BLACK
6
CONTINUOUS
10
0.419238
20
0.290896
11
0.431774
21
0.293867
0
LINE
8
BLACK
6
CONTINUOUS
10
0.431774
20
0.293867
11
0.443881
21
0.298273
0
LINE
8
BLACK
6
CONTINUOUS
10
0.443881
20
0.298273
11
0.455394
21
0.304055
0
LINE
8
BLACK
6
CONTINUOUS
10
0.455394
20
0.304055
11
0.466158
21
0.311135
0
LINE
8
BLACK
6
CONTINUOUS
10
0.466158
20
0.311135
11
0.476027
21
0.319416
0
LINE
8
BLACK
6
CONTINUOUS
10
0.476027
20
0.319416
11
0.484868
21
0.328787
0
LINE
8
BLACK
6
CONTINUOUS
10
0.484868
20
0.328787
11
0.492562
21
0.339121
0
LINE
8
BLACK
6
CONTINUOUS
10
0.492562
20
0.339121
11
0.499003
21
0.350279
0
LINE
8
BLACK
6
CONTINUOUS
10
0.499003
20
0.350279
11
0.504106
21
0.362108
0
LINE
8
BLACK
6
CONTINUOUS
10
0.504106
20
0.362108
11
0.507801
21
0.374451
0
LINE
8
BLACK
6
CONTINUOUS
10
0.507801
20
0.374451
11
0.510038
21
0.387138
0
LINE
8
BLACK
6
CONTINUOUS
10
0.510038
20
0.387138
11
0.510787
21
0.4
0
LINE
8
BLACK
6
CONTINUOUS
10
0.510787
20
0.4
11
0.510038
21
0.412862
0
LINE
8
BLACK
6
CONTINUOUS
10
0.510038
20
0.412862
11
0.507801
21
0.425549
0
LINE
8
BLACK
6
CONTINUOUS
10
0.507801
20
0.425549
11
0.504106
21
0.437892
0
LINE
8
BLACK
6
CONTINUOUS
10
0.504106
20
0.437892
11
0.499003
21
0.449721
0
LINE
8
BLACK
6
CONTINUOUS
10
0.499003
20
0.449721
11
0.492562
21
0.460879
0
LINE
8
BLACK
6
CONTINUOUS
10
0.492562
20
0.460879
11
0.484868
21
0.471213
0
LINE
8
BLACK
6
CONTINUOUS
10
0.484868
20
0.471213
11
0.476027
21
0.480584
0
LINE
8
BLACK
6
CONTINUOUS
10
0.476027
20
0.480584
11
0.466158
21
0.488865
0
LINE
8
BLACK
6
CONTINUOUS
10
0.466158
20
0.488865
11
0.455394
21
0.495945
0
LINE
8
BLACK
6
CONTINUOUS
10
0.455394
20
0.495945
11
0.443881
21
0.501727
0
LINE
8
BLACK
6
CONTINUOUS
10
0.443881
20
0.501727
11
0.431774
21
0.506133
0
LINE
8
BLACK
6
CONTINUOUS
10
0.431774
20
0.506133
11
0.419238
21
0.509104
0
LINE
8
BLACK
6
CONTINUOUS
10
0.419238
20
0.509104
11
0.406442
21
0.5106
0
LINE
8
BLACK
6
CONTINUOUS
10
0.406442
20
0.5106
11
0.393558
21
0.5106
0
LINE
8
BLACK
6
CONTINUOUS
10
0.393558
20
0.5106
11
0.380762
21
0.509104
0
LINE
8
BLACK
6
CONTINUOUS
10
0.380762
20
0.509104
11
0.368226
21
0.506133
0
LINE
8
BLACK
6
CONTINUOUS
10
0.368226
20
0.506133
11
0.356119
21
0.501727
0
LINE
8
BLACK
6
CONTINUOUS
10
0.356119
20
0.501727
11
0.344606
21
0.495945
0
LINE
8
BLACK
6
CONTINUOUS
10
0.344606
20
0.495945
11
0.333842
21
0.488865
0
LINE
8
BLACK
6
CONTINUOUS
10
0.333842
20
0.488865
11
0.323973
21
0.480584
0
LINE
8
BLACK
6
CONTINUOUS
10
0.323973
20
0.480584
11
0.315132
21
0.471213
0
LINE
8
BLACK
6
CONTINUOUS
10
0.315132
20
0.471213
11
0.307438
21
0.460879
0
LINE
8
BLACK
6
CONTINUOUS
10
0.307438
20
0.460879
11
0.300997
21
0.449721
0
LINE
8
BLACK
6
CONTINUOUS
10
0.300997
20
0.449721
11
0.295894
21
0.437892
0
LINE
8
BLACK
6
CONTINUOUS
10
0.295894
20
0.437892
11
0.292199
21
0.425549
0
LINE
8
BLACK
6
CONTINUOUS
10
0.292199
20
0.425549
11
0.289962
21
0.412862
0
LINE
8
BLACK
6
CONTINUOUS
10
0.289962
20
0.412862
11
0.289213
21
0.4
0
LINE
8
BLACK
6
CONTINUOUS
10
0.289213
20
0.4
11
0.289962
21
0.387138
0
LINE
8
BLACK
6
CONTINUOUS
10
2.41406
20
0.52481
11
2.42795
21
0.522451
0
LINE
8
BLACK
6
CONTINUOUS
10
2.42795
20
0.522451
11
2.44148
21
0.518552
0
LINE
8
BLACK
6
CONTINUOUS
10
2.44148
20
0.518552
11
2.4545
21
0.513162
0
LINE
8
BLACK
6
CONTINUOUS
10
2.4545
20
0.513162
11
2.46682
21
0.506349
0
LINE
8
BLACK
6
CONTINUOUS
10
2.46682
20
0.506349
11
2.47831
21
0.498198
0
LINE
8
BLACK
6
CONTINUOUS
10
2.47831
20
0.498198
11
2.48881
21
0.488813
0
LINE
8
BLACK
6
CONTINUOUS
10
2.48881
20
0.488813
11
2.4982
21
0.47831
0
LINE
8
BLACK
6
CONTINUOUS
10
2.4982
20
0.47831
11
2.50635
21
0.466823
0
LINE
8
BLACK
6
CONTINUOUS
10
2.50635
20
0.466823
11
2.51316
21
0.454496
0
LINE
8
BLACK
6
CONTINUOUS
10
2.51316
20
0.454496
11
2.51855
21
0.441483
0
LINE
8
BLACK
6
CONTINUOUS
10
2.51855
20
0.441483
11
2.52245
21
0.427949
0
LINE
8
BLACK
6
CONTINUOUS
10
2.52245
20
0.427949
11
2.52481
21
0.414063
0
LINE
8
BLACK
6
CONTINUOUS
10
2.52481
20
0.414063
11
2.5256
21
0.4
0
LINE
8
BLACK
6
CONTINUOUS
10
2.5256
20
0.4
11
2.52481
21
0.385937
0
LINE
8
BLACK
6
CONTINUOUS
10
2.52481
20
0.385937
11
2.52245
21
0.372051
0
LINE
8
BLACK
6
CONTINUOUS
10
2.52245
20
0.372051
11
2.51855
21
0.358517
0
LINE
8
BLACK
6
CONTINUOUS
10
2.51855
20
0.358517
11
2.51316
21
0.345504
0
LINE
8
BLACK
6
CONTINUOUS
10
2.51316
20
0.345504
11
2.50635
21
0.333177
0
LINE
8
BLACK
6
CONTINUOUS
10
2.50635
20
0.333177
11
2.4982
21
0.32169
0
LINE
8
BLACK
6
CONTINUOUS
10
2.4982
20
0.32169
11
2.48881
21
0.311187
0
LINE
8
BLACK
6
CONTINUOUS
10
2.48881
20
0.311187
11
2.47831
21
0.301802
0
LINE
8
BLACK
6
CONTINUOUS
10
2.47831
20
0.301802
11
2.46682
21
0.293651
0
LINE
8
BLACK
6
CONTINUOUS
10
2.46682
20
0.293651
11
2.4545
21
0.286838
0
LINE
8
BLACK
6
CONTINUOUS
10
2.4545
20
0.286838
11
2.44148
21
0.281448
0
LINE
8
BLACK
6
CONTINUOUS
10
2.44148
20
0.281448
11
2.42795
21
0.277549
0
LINE
8
BLACK
6
CONTINUOUS
10
2.42795
20
0.277549
11
2.41406
21
0.27519
0
LINE
8
BLACK
6
CONTINUOUS
10
2.41406
20
0.27519
11
2.4
21
0.2744
0
LINE
8
BLACK
6
CONTINUOUS
10
2.4
20
0.2744
11
2.38594
21
0.27519
0
LINE
8
BLACK
6
CONTINUOUS
10
2.38594
20
0.27519
11
2.37205
21
0.277549
0
LINE
8
BLACK
6
CONTINUOUS
10
2.37205
20
0.277549
11
2.35852
21
0.281448
0
LINE
8
BLACK
6
CONTINUOUS
10
2.35852
20
0.281448
11
2.3455
21
0.286838
0
LINE
8
BLACK
6
CONTINUOUS
10
2.3455
20
0.286838
11
2.33318
21
0.293651
0
LINE
8
BLACK
6
CONTINUOUS
10
2.33318
20
0.293651
11
2.32169
21
0.301802
0
LINE
8
BLACK
6
CONTINUOUS
10
2.32169
20
0.301802
11
2.31119
21
0.311187
0
LINE
8
BLACK
6
CONTINUOUS
10
2.31119
20
0.311187
11
2.3018
21
0.32169
0
LINE
8
BLACK
6
CONTINUOUS
10
2.3018
20
0.32169
11
2.29365
21
0.333177
0
LINE
8
BLACK
6
CONTINUOUS
10
2.29365
20
0.333177
11
2.28684
21
0.345504
0
LINE
8
BLACK
6
CONTINUOUS
10
2.28684
20
0.345504
11
2.28145
21
0.358517
0
LINE
8
BLACK
6
CONTINUOUS
10
2.28145
20
0.358517
11
2.27755
21
0.372051
0
LINE
8
BLACK
6
CONTINUOUS
10
2.27755
20
0.372051
11
2.27519
21
0.385937
0
LINE
8
BLACK
6
CONTINUOUS
10
2.27519
20
0.385937
11
2.2744
21
0.4
0
LINE
8
BLACK
6
CONTINUOUS
10
2.2744
20
0.4
11
2.27519
21
0.414063
0
LINE
8
BLACK
6
CONTINUOUS
10
2.27519
20
0.414063
11
2.27755
21
0.427949
0
LINE
8
BLACK
6
CONTINUOUS
10
2.27755
20
0.427949
11
2.28145
21
0.441483
0
LINE
8
BLACK
6
CONTINUOUS
10
2.28145
20
0.441483
11
2.28684
21
0.454496
0
LINE
8
BLACK
6
CONTINUOUS
10
2.28684
20
0.454496
11
2.29365
21
0.466823
0
LINE
8
BLACK
6
CONTINUOUS
10
2.29365
20
0.466823
11
2.3018
21
0.47831
0
LINE
8
BLACK
6
CONTINUOUS
10
2.3018
20
0.47831
11
2.31119
21
0.488813
0
LINE
8
BLACK
6
CONTINUOUS
10
2.31119
20
0.488813
11
2.32169
21
0.498198
0
LINE
8
BLACK
6
CONTINUOUS
10
2.32169
20
0.498198
11
2.33318
21
0.506349
0
LINE
8
BLACK
6
CONTINUOUS
10
2.33318
20
0.506349
11
2.3455
21
0.513162
0
LINE
8
BLACK
6
CONTINUOUS
10
2.3455
20
0.513162
11
2.35852
21
0.518552
0
LINE
8
BLACK
6
CONTINUOUS
10
2.35852
20
0.518552
11
2.37205
21
0.522451
0
LINE
8
BLACK
6
CONTINUOUS
10
2.37205
20
0.522451
11
2.38594
21
0.52481
0
LINE
8
BLACK
6
CONTINUOUS
10
2.38594
20
0.52481
11
2.4
21
0.5256
0
LINE
8
BLACK
6
CONTINUOUS
10
2.4
20
0.5256
11
2.41406
21
0.52481
0
LINE
8
BLACK
6
CONTINUOUS
10
2.28996
20
0.387138
11
2.2922
21
0.374451
0
LINE
8
BLACK
6
CONTINUOUS
10
2.2922
20
0.374451
11
2.29589
21
0.362108
0
LINE
8
BLACK
6
CONTINUOUS
10
2.29589
20
0.362108
11
2.301
21
0.350279
0
LINE
8
BLACK
6
CONTINUOUS
10
2.301
20
0.350279
11
2.30744
21
0.339121
0
LINE
8
BLACK
6
CONTINUOUS
10
2.30744
20
0.339121
11
2.31513
21
0.328787
0
LINE
8
BLACK
6
CONTINUOUS
10
2.31513
20
0.328787
11
2.32397
21
0.319416
0
LINE
8
BLACK
6
CONTINUOUS
10
2.32397
20
0.319416
11
2.33384
21
0.311135
0
LINE
8
BLACK
6
CONTINUOUS
10
2.33384
20
0.311135
11
2.34461
21
0.304055
0
LINE
8
BLACK
6
CONTINUOUS
10
2.34461
20
0.304055
11
2.35612
21
0.298273
0
LINE
8
BLACK
6
CONTINUOUS
10
2.35612
20
0.298273
11
2.36823
21
0.293867
0
LINE
8
BLACK
6
CONTINUOUS
10
2.36823
20
0.293867
11
2.38076
21
0.290896
0
LINE
8
BLACK
6
CONTINUOUS
10
2.38076
20
0.290896
11
2.39356
21
0.2894
0
LINE
8
BLACK
6
CONTINUOUS
10
2.39356
20
0.2894
11
2.40644
21
0.2894
0
LINE
8
BLACK
6
CONTINUOUS
10
2.40644
20
0.2894
11
2.41924
21
0.290896
0
LINE
8
BLACK
6
CONTINUOUS
10
2.41924
20
0.290896
11
2.43177
21
0.293867
0
LINE
8
BLACK
6
CONTINUOUS
10
2.43177
20
0.293867
11
2.44388
21
0.298273
0
LINE
8
BLACK
6
CONTINUOUS
10
2.44388
20
0.298273
11
2.45539
21
0.304055
0
LINE
8
BLACK
6
CONTINUOUS
10
2.45539
20
0.304055
11
2.46616
21
0.311135
0
LINE
8
BLACK
6
CONTINUOUS
10
2.46616
20
0.311135
11
2.47603
21
0.319416
0
LINE
8
BLACK
6
CONTINUOUS
10
2.47603
20
0.319416
11
2.48487
21
0.328787
0
LINE
8
BLACK
6
CONTINUOUS
10
2.48487
20
0.328787
11
2.49256
21
0.339121
0
LINE
8
BLACK
6
CONTINUOUS
10
2.49256
20
0.339121
11
2.499
21
0.350279
0
LINE
8
BLACK
6
CONTINUOUS
10
2.499
20
0.350279
11
2.50411
21
0.362108
0
LINE
8
BLACK
6
CONTINUOUS
10
2.50411
20
0.362108
11
2.5078
21
0.374451
0
LINE
8
BLACK
6
CONTINUOUS
10
2.5078
20
0.374451
11
2.51004
21
0.387138
0
LINE
8
BLACK
6
CONTINUOUS
10
2.51004
20
0.387138
11
2.51079
21
0.4
0
LINE
8
BLACK
6
CONTINUOUS
10
2.51079
20
0.4
11
2.51004
21
0.412862
0
LINE
8
BLACK
6
CONTINUOUS
10
2.51004
20
0.412862
11
2.5078
21
0.425549
0
LINE
8
BLACK
6
CONTINUOUS
10
2.5078
20
0.425549
11
2.50411
21
0.437892
0
LINE
8
BLACK
6
CONTINUOUS
10
2.50411
20
0.437892
11
2.499
21
0.449721
0
LINE
8
BLACK
6
CONTINUOUS
10
2.499
20
0.449721
11
2.49256
21
0.460879
0
LINE
8
BLACK
6
CONTINUOUS
10
2.49256
20
0.460879
11
2.48487
21
0.471213
0
LINE
8
BLACK
6
CONTINUOUS
10
2.48487
20
0.471213
11
2.47603
21
0.480584
0
LINE
8
BLACK
6
CONTINUOUS
10
2.47603
20
0.480584
11
2.46616
21
0.488865
0
LINE
8
BLACK
6
CONTINUOUS
10
2.46616
20
0.488865
11
2.45539
21
0.495945
0
LINE
8
BLACK
6
CONTINUOUS
10
2.45539
20
0.495945
11
2.44388
21
0.501727
0
LINE
8
BLACK
6
CONTINUOUS
10
2.44388
20
0.501727
11
2.43177
21
0.506133
0
LINE
8
BLACK
6
CONTINUOUS
10
2.43177
20
0.506133
11
2.41924
21
0.509104
0
LINE
8
BLACK
6
CONTINUOUS
10
2.41924
20
0.509104
11
2.40644
21
0.5106
0
LINE
8
BLACK
6
CONTINUOUS
10
2.40644
20
0.5106
11
2.39356
21
0.5106
0
LINE
8
BLACK
6
CONTINUOUS
10
2.39356
20
0.5106
11
2.38076
21
0.509104
0
LINE
8
BLACK
6
CONTINUOUS
10
2.38076
20
0.509104
11
2.36823
21
0.506133
0
LINE
8
BLACK
6
CONTINUOUS
10
2.36823
20
0.506133
11
2.35612
21
0.501727
0
LINE
8
BLACK
6
CONTINUOUS
10
2.35612
20
0.501727
11
2.34461
21
0.495945
0
LINE
8
BLACK
6
CONTINUOUS
10
2.34461
20
0.495945
11
2.33384
21
0.488865
0
LINE
8
BLACK
6
CONTINUOUS
10
2.33384
20
0.488865
11
2.32397
21
0.480584
0
LINE
8
BLACK
6
CONTINUOUS
10
2.32397
20
0.480584
11
2.31513
21
0.471213
0
LINE
8
BLACK
6
CONTINUOUS
10
2.31513
20
0.471213
11
2.30744
21
0.460879
0
LINE
8
BLACK
6
CONTINUOUS
10
2.30744
20
0.460879
11
2.301
21
0.449721
0
LINE
8
BLACK
6
CONTINUOUS
10
2.301
20
0.449721
11
2.29589
21
0.437892
0
LINE
8
BLACK
6
CONTINUOUS
10
2.29589
20
0.437892
11
2.2922
21
0.425549
0
LINE
8
BLACK
6
CONTINUOUS
10
2.2922
20
0.425549
11
2.28996
21
0.412862
0
LINE
8
BLACK
6
CONTINUOUS
10
2.28996
20
0.412862
11
2.28921
21
0.4
0
LINE
8
BLACK
6
CONTINUOUS
10
2.28921
20
0.4
11
2.28996
21
0.387138
0
LINE
8
BLACK
6
CONTINUOUS
10
1.37582
20
0.601436
11
1.3764
21
0.600044
0
LINE
8
BLACK
6
CONTINUOUS
10
1.3764
20
0.600044
11
1.3764
21
0.572175
0
LINE
8
BLACK
6
CONTINUOUS
10
1.3764
20
0.572175
11
1.41866
21
0.599694
0
LINE
8
BLACK
6
CONTINUOUS
10
1.41866
20
0.599694
11
1.41921
21
0.599797
0
LINE
8
BLACK
6
CONTINUOUS
10
1.41921
20
0.599797
11
1.41973
21
0.600013
0
LINE
8
BLACK
6
CONTINUOUS
10
1.41973
20
0.600013
11
1.41993
21
0.599931
0
LINE
8
BLACK
6
CONTINUOUS
10
1.41993
20
0.599931
11
1.42014
21
0.59997
0
LINE
8
BLACK
6
CONTINUOUS
10
1.42014
20
0.59997
11
1.4206
21
0.599652
0
LINE
8
BLACK
6
CONTINUOUS
10
1.4206
20
0.599652
11
1.42112
21
0.599436
0
LINE
8
BLACK
6
CONTINUOUS
10
1.42112
20
0.599436
11
1.42121
21
0.599239
0
LINE
8
BLACK
6
CONTINUOUS
10
1.42121
20
0.599239
11
1.42138
21
0.599118
0
LINE
8
BLACK
6
CONTINUOUS
10
1.42138
20
0.599118
11
1.42148
21
0.598565
0
LINE
8
BLACK
6
CONTINUOUS
10
1.42148
20
0.598565
11
1.4217
21
0.598044
0
LINE
8
BLACK
6
CONTINUOUS
10
1.4217
20
0.598044
11
1.4217
21
0.570513
0
LINE
8
BLACK
6
CONTINUOUS
10
1.4217
20
0.570513
11
1.45903
21
0.570513
0
LINE
8
BLACK
6
CONTINUOUS
10
1.45903
20
0.570513
11
1.46042
21
0.569936
0
LINE
8
BLACK
6
CONTINUOUS
10
1.46042
20
0.569936
11
1.461
21
0.568544
0
LINE
8
BLACK
6
CONTINUOUS
10
1.461
20
0.568544
11
1.46042
21
0.567152
0
LINE
8
BLACK
6
CONTINUOUS
10
1.46042
20
0.567152
11
1.45903
21
0.566576
0
LINE
8
BLACK
6
CONTINUOUS
10
1.45903
20
0.566576
11
1.4217
21
0.566576
0
LINE
8
BLACK
6
CONTINUOUS
10
1.4217
20
0.566576
11
1.4217
21
0.537044
0
LINE
8
BLACK
6
CONTINUOUS
10
1.4217
20
0.537044
11
1.42147
21
0.536498
0
LINE
8
BLACK
6
CONTINUOUS
10
1.42147
20
0.536498
11
1.42135
21
0.53592
0
LINE
8
BLACK
6
CONTINUOUS
10
1.42135
20
0.53592
11
1.42119
21
0.535821
0
LINE
8
BLACK
6
CONTINUOUS
10
1.42119
20
0.535821
11
1.42112
21
0.535652
0
LINE
8
BLACK
6
CONTINUOUS
10
1.42112
20
0.535652
11
1.42058
21
0.535426
0
LINE
8
BLACK
6
CONTINUOUS
10
1.42058
20
0.535426
11
1.42008
21
0.535107
0
LINE
8
BLACK
6
CONTINUOUS
10
1.42008
20
0.535107
11
1.4199
21
0.535146
0
LINE
8
BLACK
6
CONTINUOUS
10
1.4199
20
0.535146
11
1.41973
21
0.535076
0
LINE
8
BLACK
6
CONTINUOUS
10
1.41973
20
0.535076
11
1.41919
21
0.535302
0
LINE
8
BLACK
6
CONTINUOUS
10
1.41919
20
0.535302
11
1.41861
21
0.535428
0
LINE
8
BLACK
6
CONTINUOUS
10
1.41861
20
0.535428
11
1.3764
21
0.564778
0
LINE
8
BLACK
6
CONTINUOUS
10
1.3764
20
0.564778
11
1.3764
21
0.537044
0
LINE
8
BLACK
6
CONTINUOUS
10
1.3764
20
0.537044
11
1.37582
21
0.535652
0
LINE
8
BLACK
6
CONTINUOUS
10
1.37582
20
0.535652
11
1.37443
21
0.535076
0
LINE
8
BLACK
6
CONTINUOUS
10
1.37443
20
0.535076
11
1.37304
21
0.535652
0
LINE
8
BLACK
6
CONTINUOUS
10
1.37304
20
0.535652
11
1.37246
21
0.537044
0
LINE
8
BLACK
6
CONTINUOUS
10
1.37246
20
0.537044
11
1.37246
21
0.566576
0
LINE
8
BLACK
6
CONTINUOUS
10
1.37246
20
0.566576
11
1.33893
21
0.566576
0
LINE
8
BLACK
6
CONTINUOUS
10
1.33893
20
0.566576
11
1.33754
21
0.567152
0
LINE
8
BLACK
6
CONTINUOUS
10
1.33754
20
0.567152
11
1.33696
21
0.568544
0
LINE
8
BLACK
6
CONTINUOUS
10
1.33696
20
0.568544
11
1.33754
21
0.569936
0
LINE
8
BLACK
6
CONTINUOUS
10
1.33754
20
0.569936
11
1.33893
21
0.570513
0
LINE
8
BLACK
6
CONTINUOUS
10
1.33893
20
0.570513
11
1.37246
21
0.570513
0
LINE
8
BLACK
6
CONTINUOUS
10
1.37246
20
0.570513
11
1.37246
21
0.600044
0
LINE
8
BLACK
6
CONTINUOUS
10
1.37246
20
0.600044
11
1.37304
21
0.601436
0
LINE
8
BLACK
6
CONTINUOUS
10
1.37304
20
0.601436
11
1.37443
21
0.602013
0
LINE
8
BLACK
6
CONTINUOUS
10
1.37443
20
0.602013
11
1.37582
21
0.601436
0
LINE
8
BLACK
6
CONTINUOUS
10
1.37796
20
0.568491
11
1.41776
21
0.540811
0
LINE
8
BLACK
6
CONTINUOUS
10
1.41776
20
0.540811
11
1.41776
21
0.594413
0
LINE
8
BLACK
6
CONTINUOUS
10
1.41776
20
0.594413
11
1.37796
21
0.568491
0
LINE
8
BLACK
6
CONTINUOUS
10
1.24195
20
0.641866
11
1.24264
21
0.639968
0
LINE
8
BLACK
6
CONTINUOUS
10
1.24264
20
0.639968
11
1.24264
21
0.624599
0
LINE
8
BLACK
6
CONTINUOUS
10
1.24264
20
0.624599
11
1.2601
21
0.642056
0
LINE
8
BLACK
6
CONTINUOUS
10
1.2601
20
0.642056
11
1.26094
21
0.642644
0
LINE
8
BLACK
6
CONTINUOUS
10
1.26094
20
0.642644
11
1.26295
21
0.64282
0
LINE
8
BLACK
6
CONTINUOUS
10
1.26295
20
0.64282
11
1.2646
21
0.641661
0
LINE
8
BLACK
6
CONTINUOUS
10
1.2646
20
0.641661
11
1.26513
21
0.63971
0
LINE
8
BLACK
6
CONTINUOUS
10
1.26513
20
0.63971
11
1.26427
21
0.63788
0
LINE
8
BLACK
6
CONTINUOUS
10
1.26427
20
0.63788
11
1.24921
21
0.622818
0
LINE
8
BLACK
6
CONTINUOUS
10
1.24921
20
0.622818
11
1.26455
21
0.602369
0
LINE
8
BLACK
6
CONTINUOUS
10
1.26455
20
0.602369
11
1.26501
21
0.601455
0
LINE
8
BLACK
6
CONTINUOUS
10
1.26501
20
0.601455
11
1.2649
21
0.599438
0
LINE
8
BLACK
6
CONTINUOUS
10
1.2649
20
0.599438
11
1.26352
21
0.597964
0
LINE
8
BLACK
6
CONTINUOUS
10
1.26352
20
0.597964
11
1.26152
21
0.597722
0
LINE
8
BLACK
6
CONTINUOUS
10
1.26152
20
0.597722
11
1.25982
21
0.598826
0
LINE
8
BLACK
6
CONTINUOUS
10
1.25982
20
0.598826
11
1.24499
21
0.6186
0
LINE
8
BLACK
6
CONTINUOUS
10
1.24499
20
0.6186
11
1.24264
21
0.616248
0
LINE
8
BLACK
6
CONTINUOUS
10
1.24264
20
0.616248
11
1.24264
21
0.600598
0
LINE
8
BLACK
6
CONTINUOUS
10
1.24264
20
0.600598
11
1.24246
21
0.599588
0
LINE
8
BLACK
6
CONTINUOUS
10
1.24246
20
0.599588
11
1.24117
21
0.598041
0
LINE
8
BLACK
6
CONTINUOUS
10
1.24117
20
0.598041
11
1.23918
21
0.59769
0
LINE
8
BLACK
6
CONTINUOUS
10
1.23918
20
0.59769
11
1.23743
21
0.5987
0
LINE
8
BLACK
6
CONTINUOUS
10
1.23743
20
0.5987
11
1.23674
21
0.600598
0
LINE
8
BLACK
6
CONTINUOUS
10
1.23674
20
0.600598
11
1.23674
21
0.639968
0
LINE
8
BLACK
6
CONTINUOUS
10
1.23674
20
0.639968
11
1.23691
21
0.640978
0
LINE
8
BLACK
6
CONTINUOUS
10
1.23691
20
0.640978
11
1.23821
21
0.642525
0
LINE
8
BLACK
6
CONTINUOUS
10
1.23821
20
0.642525
11
1.2402
21
0.642876
0
LINE
8
BLACK
6
CONTINUOUS
10
1.2402
20
0.642876
11
1.24195
21
0.641866
0
LINE
8
BLACK
6
CONTINUOUS
10
1.38118
20
0.792767
11
1.38125
21
0.792769
0
LINE
8
BLACK
6
CONTINUOUS
10
1.38125
20
0.792769
11
1.38687
21
0.790894
0
LINE
8
BLACK
6
CONTINUOUS
10
1.38687
20
0.790894
11
1.38777
21
0.790406
0
LINE
8
BLACK
6
CONTINUOUS
10
1.38777
20
0.790406
11
1.38787
21
0.790256
0
LINE
8
BLACK
6
CONTINUOUS
10
1.38787
20
0.790256
11
1.38803
21
0.790181
0
LINE
8
BLACK
6
CONTINUOUS
10
1.38803
20
0.790181
11
1.39178
21
0.786431
0
LINE
8
BLACK
6
CONTINUOUS
10
1.39178
20
0.786431
11
1.39228
21
0.785708
0
LINE
8
BLACK
6
CONTINUOUS
10
1.39228
20
0.785708
11
1.39233
21
0.785664
0
LINE
8
BLACK
6
CONTINUOUS
10
1.39233
20
0.785664
11
1.3942
21
0.781914
0
LINE
8
BLACK
6
CONTINUOUS
10
1.3942
20
0.781914
11
1.39435
21
0.781426
0
LINE
8
BLACK
6
CONTINUOUS
10
1.39435
20
0.781426
11
1.39443
21
0.78131
0
LINE
8
BLACK
6
CONTINUOUS
10
1.39443
20
0.78131
11
1.3963
21
0.773811
0
LINE
8
BLACK
6
CONTINUOUS
10
1.3963
20
0.773811
11
1.39634
21
0.773223
0
LINE
8
BLACK
6
CONTINUOUS
10
1.39634
20
0.773223
11
1.39639
21
0.773095
0
LINE
8
BLACK
6
CONTINUOUS
10
1.39639
20
0.773095
11
1.39639
21
0.767471
0
LINE
8
BLACK
6
CONTINUOUS
10
1.39639
20
0.767471
11
1.39629
21
0.76689
0
LINE
8
BLACK
6
CONTINUOUS
10
1.39629
20
0.76689
11
1.3963
21
0.766754
0
LINE
8
BLACK
6
CONTINUOUS
10
1.3963
20
0.766754
11
1.39443
21
0.759255
0
LINE
8
BLACK
6
CONTINUOUS
10
1.39443
20
0.759255
11
1.39422
21
0.75879
0
LINE
8
BLACK
6
CONTINUOUS
10
1.39422
20
0.75879
11
1.3942
21
0.758651
0
LINE
8
BLACK
6
CONTINUOUS
10
1.3942
20
0.758651
11
1.39233
21
0.754901
0
LINE
8
BLACK
6
CONTINUOUS
10
1.39233
20
0.754901
11
1.3918
21
0.754193
0
LINE
8
BLACK
6
CONTINUOUS
10
1.3918
20
0.754193
11
1.39178
21
0.754134
0
LINE
8
BLACK
6
CONTINUOUS
10
1.39178
20
0.754134
11
1.38803
21
0.750385
0
LINE
8
BLACK
6
CONTINUOUS
10
1.38803
20
0.750385
11
1.38719
21
0.749796
0
LINE
8
BLACK
6
CONTINUOUS
10
1.38719
20
0.749796
11
1.38701
21
0.749781
0
LINE
8
BLACK
6
CONTINUOUS
10
1.38701
20
0.749781
11
1.38687
21
0.749671
0
LINE
8
BLACK
6
CONTINUOUS
10
1.38687
20
0.749671
11
1.38125
21
0.747796
0
LINE
8
BLACK
6
CONTINUOUS
10
1.38125
20
0.747796
11
1.38038
21
0.747667
0
LINE
8
BLACK
6
CONTINUOUS
10
1.38038
20
0.747667
11
1.38031
21
0.747645
0
LINE
8
BLACK
6
CONTINUOUS
10
1.38031
20
0.747645
11
1.37094
21
0.747645
0
LINE
8
BLACK
6
CONTINUOUS
10
1.37094
20
0.747645
11
1.37056
21
0.747713
0
LINE
8
BLACK
6
CONTINUOUS
10
1.37056
20
0.747713
11
1.37043
21
0.74769
0
LINE
8
BLACK
6
CONTINUOUS
10
1.37043
20
0.74769
11
1.37031
21
0.747755
0
LINE
8
BLACK
6
CONTINUOUS
10
1.37031
20
0.747755
11
1.36993
21
0.747823
0
LINE
8
BLACK
6
CONTINUOUS
10
1.36993
20
0.747823
11
1.36934
21
0.748316
0
LINE
8
BLACK
6
CONTINUOUS
10
1.36934
20
0.748316
11
1.36868
21
0.7487
0
LINE
8
BLACK
6
CONTINUOUS
10
1.36868
20
0.7487
11
1.36859
21
0.74895
0
LINE
8
BLACK
6
CONTINUOUS
10
1.36859
20
0.74895
11
1.36838
21
0.749121
0
LINE
8
BLACK
6
CONTINUOUS
10
1.36838
20
0.749121
11
1.36825
21
0.749877
0
LINE
8
BLACK
6
CONTINUOUS
10
1.36825
20
0.749877
11
1.36799
21
0.750598
0
LINE
8
BLACK
6
CONTINUOUS
10
1.36799
20
0.750598
11
1.36799
21
0.789968
0
LINE
8
BLACK
6
CONTINUOUS
10
1.36799
20
0.789968
11
1.36806
21
0.790351
0
LINE
8
BLACK
6
CONTINUOUS
10
1.36806
20
0.790351
11
1.36803
21
0.790481
0
LINE
8
BLACK
6
CONTINUOUS
10
1.36803
20
0.790481
11
1.3681
21
0.790594
0
LINE
8
BLACK
6
CONTINUOUS
10
1.3681
20
0.790594
11
1.36817
21
0.790978
0
LINE
8
BLACK
6
CONTINUOUS
10
1.36817
20
0.790978
11
1.36866
21
0.791565
0
LINE
8
BLACK
6
CONTINUOUS
10
1.36866
20
0.791565
11
1.36904
21
0.79223
0
LINE
8
BLACK
6
CONTINUOUS
10
1.36904
20
0.79223
11
1.36929
21
0.792321
0
LINE
8
BLACK
6
CONTINUOUS
10
1.36929
20
0.792321
11
1.36946
21
0.792525
0
LINE
8
BLACK
6
CONTINUOUS
10
1.36946
20
0.792525
11
1.37022
21
0.792658
0
LINE
8
BLACK
6
CONTINUOUS
10
1.37022
20
0.792658
11
1.37094
21
0.792921
0
LINE
8
BLACK
6
CONTINUOUS
10
1.37094
20
0.792921
11
1.38031
21
0.792921
0
LINE
8
BLACK
6
CONTINUOUS
10
1.38031
20
0.792921
11
1.38118
21
0.792767
0
LINE
8
BLACK
6
CONTINUOUS
10
1.37389
20
0.75355
11
1.37984
21
0.75355
0
LINE
8
BLACK
6
CONTINUOUS
10
1.37984
20
0.75355
11
1.38434
21
0.755053
0
LINE
8
BLACK
6
CONTINUOUS
10
1.38434
20
0.755053
11
1.38726
21
0.757971
0
LINE
8
BLACK
6
CONTINUOUS
10
1.38726
20
0.757971
11
1.38878
21
0.761002
0
LINE
8
BLACK
6
CONTINUOUS
10
1.38878
20
0.761002
11
1.39049
21
0.767834
0
LINE
8
BLACK
6
CONTINUOUS
10
1.39049
20
0.767834
11
1.39049
21
0.772731
0
LINE
8
BLACK
6
CONTINUOUS
10
1.39049
20
0.772731
11
1.38878
21
0.779563
0
LINE
8
BLACK
6
CONTINUOUS
10
1.38878
20
0.779563
11
1.38726
21
0.782594
0
LINE
8
BLACK
6
CONTINUOUS
10
1.38726
20
0.782594
11
1.38434
21
0.785512
0
LINE
8
BLACK
6
CONTINUOUS
10
1.38434
20
0.785512
11
1.37984
21
0.787015
0
LINE
8
BLACK
6
CONTINUOUS
10
1.37984
20
0.787015
11
1.37389
21
0.787015
0
LINE
8
BLACK
6
CONTINUOUS
10
1.37389
20
0.787015
11
1.37389
21
0.75355
0
LINE
8
BLACK
6
CONTINUOUS
10
1.42444
20
0.792742
11
1.42458
21
0.792629
0
LINE
8
BLACK
6
CONTINUOUS
10
1.42458
20
0.792629
11
1.42476
21
0.792609
0
LINE
8
BLACK
6
CONTINUOUS
10
1.42476
20
0.792609
11
1.4285
21
0.790734
0
LINE
8
BLACK
6
CONTINUOUS
10
1.4285
20
0.790734
11
1.42921
21
0.790208
0
LINE
8
BLACK
6
CONTINUOUS
10
1.42921
20
0.790208
11
1.42927
21
0.790181
0
LINE
8
BLACK
6
CONTINUOUS
10
1.42927
20
0.790181
11
1.43115
21
0.788306
0
LINE
8
BLACK
6
CONTINUOUS
10
1.43115
20
0.788306
11
1.43165
21
0.787583
0
LINE
8
BLACK
6
CONTINUOUS
10
1.43165
20
0.787583
11
1.4317
21
0.787539
0
LINE
8
BLACK
6
CONTINUOUS
10
1.4317
20
0.787539
11
1.43357
21
0.783789
0
LINE
8
BLACK
6
CONTINUOUS
10
1.43357
20
0.783789
11
1.43387
21
0.782806
0
LINE
8
BLACK
6
CONTINUOUS
10
1.43387
20
0.782806
11
1.43383
21
0.782635
0
LINE
8
BLACK
6
CONTINUOUS
10
1.43383
20
0.782635
11
1.43389
21
0.782469
0
LINE
8
BLACK
6
CONTINUOUS
10
1.43389
20
0.782469
11
1.43389
21
0.778719
0
LINE
8
BLACK
6
CONTINUOUS
10
1.43389
20
0.778719
11
1.43373
21
0.77785
0
LINE
8
BLACK
6
CONTINUOUS
10
1.43373
20
0.77785
11
1.43373
21
0.777785
0
LINE
8
BLACK
6
CONTINUOUS
10
1.43373
20
0.777785
11
1.43186
21
0.772161
0
LINE
8
BLACK
6
CONTINUOUS
10
1.43186
20
0.772161
11
1.43137
21
0.771259
0
LINE
8
BLACK
6
CONTINUOUS
10
1.43137
20
0.771259
11
1.43122
21
0.771167
0
LINE
8
BLACK
6
CONTINUOUS
10
1.43122
20
0.771167
11
1.43115
21
0.771007
0
LINE
8
BLACK
6
CONTINUOUS
10
1.43115
20
0.771007
11
1.41369
21
0.75355
0
LINE
8
BLACK
6
CONTINUOUS
10
1.41369
20
0.75355
11
1.43093
21
0.75355
0
LINE
8
BLACK
6
CONTINUOUS
10
1.43093
20
0.75355
11
1.43194
21
0.753372
0
LINE
8
BLACK
6
CONTINUOUS
10
1.43194
20
0.753372
11
1.43349
21
0.752074
0
LINE
8
BLACK
6
CONTINUOUS
10
1.43349
20
0.752074
11
1.43384
21
0.750085
0
LINE
8
BLACK
6
CONTINUOUS
10
1.43384
20
0.750085
11
1.43283
21
0.748336
0
LINE
8
BLACK
6
CONTINUOUS
10
1.43283
20
0.748336
11
1.43093
21
0.747645
0
LINE
8
BLACK
6
CONTINUOUS
10
1.43093
20
0.747645
11
1.40656
21
0.747645
0
LINE
8
BLACK
6
CONTINUOUS
10
1.40656
20
0.747645
11
1.40593
21
0.747757
0
LINE
8
BLACK
6
CONTINUOUS
10
1.40593
20
0.747757
11
1.4058
21
0.747746
0
LINE
8
BLACK
6
CONTINUOUS
10
1.4058
20
0.747746
11
1.40573
21
0.747791
0
LINE
8
BLACK
6
CONTINUOUS
10
1.40573
20
0.747791
11
1.40555
21
0.747823
0
LINE
8
BLACK
6
CONTINUOUS
10
1.40555
20
0.747823
11
1.40487
21
0.748394
0
LINE
8
BLACK
6
CONTINUOUS
10
1.40487
20
0.748394
11
1.40414
21
0.748904
0
LINE
8
BLACK
6
CONTINUOUS
10
1.40414
20
0.748904
11
1.40411
21
0.749035
0
LINE
8
BLACK
6
CONTINUOUS
10
1.40411
20
0.749035
11
1.404
21
0.749121
0
LINE
8
BLACK
6
CONTINUOUS
10
1.404
20
0.749121
11
1.40385
21
0.749997
0
LINE
8
BLACK
6
CONTINUOUS
10
1.40385
20
0.749997
11
1.40362
21
0.750855
0
LINE
8
BLACK
6
CONTINUOUS
10
1.40362
20
0.750855
11
1.40368
21
0.750977
0
LINE
8
BLACK
6
CONTINUOUS
10
1.40368
20
0.750977
11
1.40365
21
0.75111
0
LINE
8
BLACK
6
CONTINUOUS
10
1.40365
20
0.75111
11
1.4041
21
0.75188
0
LINE
8
BLACK
6
CONTINUOUS
10
1.4041
20
0.75188
11
1.40447
21
0.752686
0
LINE
8
BLACK
6
CONTINUOUS
10
1.40447
20
0.752686
11
1.42648
21
0.77469
0
LINE
8
BLACK
6
CONTINUOUS
10
1.42648
20
0.77469
11
1.42798
21
0.779198
0
LINE
8
BLACK
6
CONTINUOUS
10
1.42798
20
0.779198
11
1.42798
21
0.781772
0
LINE
8
BLACK
6
CONTINUOUS
10
1.42798
20
0.781772
11
1.42663
21
0.784469
0
LINE
8
BLACK
6
CONTINUOUS
10
1.42663
20
0.784469
11
1.42544
21
0.785666
0
LINE
8
BLACK
6
CONTINUOUS
10
1.42544
20
0.785666
11
1.42274
21
0.787015
0
LINE
8
BLACK
6
CONTINUOUS
10
1.42274
20
0.787015
11
1.41476
21
0.787015
0
LINE
8
BLACK
6
CONTINUOUS
10
1.41476
20
0.787015
11
1.41206
21
0.785666
0
LINE
8
BLACK
6
CONTINUOUS
10
1.41206
20
0.785666
11
1.41052
21
0.78413
0
LINE
8
BLACK
6
CONTINUOUS
10
1.41052
20
0.78413
11
1.40968
21
0.783542
0
LINE
8
BLACK
6
CONTINUOUS
10
1.40968
20
0.783542
11
1.40767
21
0.783366
0
LINE
8
BLACK
6
CONTINUOUS
10
1.40767
20
0.783366
11
1.40602
21
0.784525
0
LINE
8
BLACK
6
CONTINUOUS
10
1.40602
20
0.784525
11
1.40549
21
0.786476
0
LINE
8
BLACK
6
CONTINUOUS
10
1.40549
20
0.786476
11
1.40635
21
0.788306
0
LINE
8
BLACK
6
CONTINUOUS
10
1.40635
20
0.788306
11
1.40822
21
0.790181
0
LINE
8
BLACK
6
CONTINUOUS
10
1.40822
20
0.790181
11
1.40895
21
0.790687
0
LINE
8
BLACK
6
CONTINUOUS
10
1.40895
20
0.790687
11
1.40899
21
0.790734
0
LINE
8
BLACK
6
CONTINUOUS
10
1.40899
20
0.790734
11
1.41274
21
0.792609
0
LINE
8
BLACK
6
CONTINUOUS
10
1.41274
20
0.792609
11
1.41372
21
0.792901
0
LINE
8
BLACK
6
CONTINUOUS
10
1.41372
20
0.792901
11
1.41389
21
0.79286
0
LINE
8
BLACK
6
CONTINUOUS
10
1.41389
20
0.79286
11
1.41406
21
0.792921
0
LINE
8
BLACK
6
CONTINUOUS
10
1.41406
20
0.792921
11
1.42343
21
0.792921
0
LINE
8
BLACK
6
CONTINUOUS
10
1.42343
20
0.792921
11
1.42444
21
0.792742
0
LINE
8
BLACK
6
CONTINUOUS
10
1.67953
20
1.53346
11
1.68092
21
1.53289
0
LINE
8
BLACK
6
CONTINUOUS
10
1.68092
20
1.53289
11
1.6815
21
1.5315
0
LINE
8
BLACK
6
CONTINUOUS
10
1.6815
20
1.5315
11
1.6815
21
0.468504
0
LINE
8
BLACK
6
CONTINUOUS
10
1.6815
20
0.468504
11
1.68092
21
0.467112
0
LINE
8
BLACK
6
CONTINUOUS
10
1.68092
20
0.467112
11
1.67953
21
0.466535
0
LINE
8
BLACK
6
CONTINUOUS
10
1.67953
20
0.466535
11
1.12047
21
0.466535
0
LINE
8
BLACK
6
CONTINUOUS
10
1.12047
20
0.466535
11
1.11908
21
0.467112
0
LINE
8
BLACK
6
CONTINUOUS
10
1.11908
20
0.467112
11
1.1185
21
0.468504
0
LINE
8
BLACK
6
CONTINUOUS
10
1.1185
20
0.468504
11
1.1185
21
1.5315
0
LINE
8
BLACK
6
CONTINUOUS
10
1.1185
20
1.5315
11
1.11908
21
1.53289
0
LINE
8
BLACK
6
CONTINUOUS
10
1.11908
20
1.53289
11
1.12047
21
1.53346
0
LINE
8
BLACK
6
CONTINUOUS
10
1.12047
20
1.53346
11
1.67953
21
1.53346
0
LINE
8
BLACK
6
CONTINUOUS
10
1.12244
20
1.52953
11
1.12244
21
0.470472
0
LINE
8
BLACK
6
CONTINUOUS
10
1.12244
20
0.470472
11
1.67756
21
0.470472
0
LINE
8
BLACK
6
CONTINUOUS
10
1.67756
20
0.470472
11
1.67756
21
1.52953
0
LINE
8
BLACK
6
CONTINUOUS
10
1.67756
20
1.52953
11
1.12244
21
1.52953
0
LINE
8
BLACK
6
CONTINUOUS
10
2.32414
20
0.818362
11
2.32483
21
0.816464
0
LINE
8
BLACK
6
CONTINUOUS
10
2.32483
20
0.816464
11
2.32483
21
0.788342
0
LINE
8
BLACK
6
CONTINUOUS
10
2.32483
20
0.788342
11
2.32468
21
0.787473
0
LINE
8
BLACK
6
CONTINUOUS
10
2.32468
20
0.787473
11
2.32468
21
0.787409
0
LINE
8
BLACK
6
CONTINUOUS
10
2.32468
20
0.787409
11
2.3228
21
0.781784
0
LINE
8
BLACK
6
CONTINUOUS
10
2.3228
20
0.781784
11
2.32231
21
0.780883
0
LINE
8
BLACK
6
CONTINUOUS
10
2.32231
20
0.780883
11
2.32216
21
0.78079
0
LINE
8
BLACK
6
CONTINUOUS
10
2.32216
20
0.78079
11
2.32209
21
0.78063
0
LINE
8
BLACK
6
CONTINUOUS
10
2.32209
20
0.78063
11
2.31834
21
0.776881
0
LINE
8
BLACK
6
CONTINUOUS
10
2.31834
20
0.776881
11
2.3175
21
0.776292
0
LINE
8
BLACK
6
CONTINUOUS
10
2.3175
20
0.776292
11
2.31732
21
0.776277
0
LINE
8
BLACK
6
CONTINUOUS
10
2.31732
20
0.776277
11
2.31719
21
0.776167
0
LINE
8
BLACK
6
CONTINUOUS
10
2.31719
20
0.776167
11
2.31156
21
0.774293
0
LINE
8
BLACK
6
CONTINUOUS
10
2.31156
20
0.774293
11
2.31069
21
0.774163
0
LINE
8
BLACK
6
CONTINUOUS
10
2.31069
20
0.774163
11
2.31063
21
0.774141
0
LINE
8
BLACK
6
CONTINUOUS
10
2.31063
20
0.774141
11
2.30688
21
0.774141
0
LINE
8
BLACK
6
CONTINUOUS
10
2.30688
20
0.774141
11
2.30587
21
0.774319
0
LINE
8
BLACK
6
CONTINUOUS
10
2.30587
20
0.774319
11
2.30432
21
0.775617
0
LINE
8
BLACK
6
CONTINUOUS
10
2.30432
20
0.775617
11
2.30397
21
0.777606
0
LINE
8
BLACK
6
CONTINUOUS
10
2.30397
20
0.777606
11
2.30498
21
0.779356
0
LINE
8
BLACK
6
CONTINUOUS
10
2.30498
20
0.779356
11
2.30688
21
0.780046
0
LINE
8
BLACK
6
CONTINUOUS
10
2.30688
20
0.780046
11
2.31015
21
0.780046
0
LINE
8
BLACK
6
CONTINUOUS
10
2.31015
20
0.780046
11
2.31466
21
0.781549
0
LINE
8
BLACK
6
CONTINUOUS
10
2.31466
20
0.781549
11
2.31742
21
0.784313
0
LINE
8
BLACK
6
CONTINUOUS
10
2.31742
20
0.784313
11
2.31892
21
0.788821
0
LINE
8
BLACK
6
CONTINUOUS
10
2.31892
20
0.788821
11
2.31892
21
0.816464
0
LINE
8
BLACK
6
CONTINUOUS
10
2.31892
20
0.816464
11
2.3191
21
0.817474
0
LINE
8
BLACK
6
CONTINUOUS
10
2.3191
20
0.817474
11
2.3204
21
0.819021
0
LINE
8
BLACK
6
CONTINUOUS
10
2.3204
20
0.819021
11
2.32239
21
0.819372
0
LINE
8
BLACK
6
CONTINUOUS
10
2.32239
20
0.819372
11
2.32414
21
0.818362
0
LINE
8
BLACK
6
CONTINUOUS
10
2.35034
20
0.819342
11
2.35051
21
0.819372
0
LINE
8
BLACK
6
CONTINUOUS
10
2.35051
20
0.819372
11
2.35125
21
0.818943
0
LINE
8
BLACK
6
CONTINUOUS
10
2.35125
20
0.818943
11
2.35204
21
0.818599
0
LINE
8
BLACK
6
CONTINUOUS
10
2.35204
20
0.818599
11
2.35211
21
0.818447
0
LINE
8
BLACK
6
CONTINUOUS
10
2.35211
20
0.818447
11
2.35226
21
0.818362
0
LINE
8
BLACK
6
CONTINUOUS
10
2.35226
20
0.818362
11
2.35255
21
0.817557
0
LINE
8
BLACK
6
CONTINUOUS
10
2.35255
20
0.817557
11
2.35293
21
0.816788
0
LINE
8
BLACK
6
CONTINUOUS
10
2.35293
20
0.816788
11
2.35289
21
0.816623
0
LINE
8
BLACK
6
CONTINUOUS
10
2.35289
20
0.816623
11
2.35295
21
0.816464
0
LINE
8
BLACK
6
CONTINUOUS
10
2.35295
20
0.816464
11
2.35295
21
0.780046
0
LINE
8
BLACK
6
CONTINUOUS
10
2.35295
20
0.780046
11
2.36125
21
0.780046
0
LINE
8
BLACK
6
CONTINUOUS
10
2.36125
20
0.780046
11
2.36226
21
0.779868
0
LINE
8
BLACK
6
CONTINUOUS
10
2.36226
20
0.779868
11
2.3638
21
0.77857
0
LINE
8
BLACK
6
CONTINUOUS
10
2.3638
20
0.77857
11
2.36415
21
0.776581
0
LINE
8
BLACK
6
CONTINUOUS
10
2.36415
20
0.776581
11
2.36314
21
0.774832
0
LINE
8
BLACK
6
CONTINUOUS
10
2.36314
20
0.774832
11
2.36125
21
0.774141
0
LINE
8
BLACK
6
CONTINUOUS
10
2.36125
20
0.774141
11
2.33875
21
0.774141
0
LINE
8
BLACK
6
CONTINUOUS
10
2.33875
20
0.774141
11
2.33774
21
0.774319
0
LINE
8
BLACK
6
CONTINUOUS
10
2.33774
20
0.774319
11
2.33619
21
0.775617
0
LINE
8
BLACK
6
CONTINUOUS
10
2.33619
20
0.775617
11
2.33584
21
0.777606
0
LINE
8
BLACK
6
CONTINUOUS
10
2.33584
20
0.777606
11
2.33685
21
0.779356
0
LINE
8
BLACK
6
CONTINUOUS
10
2.33685
20
0.779356
11
2.33875
21
0.780046
0
LINE
8
BLACK
6
CONTINUOUS
10
2.33875
20
0.780046
11
2.34705
21
0.780046
0
LINE
8
BLACK
6
CONTINUOUS
10
2.34705
20
0.780046
11
2.34705
21
0.80746
0
LINE
8
BLACK
6
CONTINUOUS
10
2.34705
20
0.80746
11
2.34459
21
0.805002
0
LINE
8
BLACK
6
CONTINUOUS
10
2.34459
20
0.805002
11
2.34386
21
0.804496
0
LINE
8
BLACK
6
CONTINUOUS
10
2.34386
20
0.804496
11
2.34382
21
0.804449
0
LINE
8
BLACK
6
CONTINUOUS
10
2.34382
20
0.804449
11
2.34007
21
0.802574
0
LINE
8
BLACK
6
CONTINUOUS
10
2.34007
20
0.802574
11
2.33909
21
0.802282
0
LINE
8
BLACK
6
CONTINUOUS
10
2.33909
20
0.802282
11
2.33712
21
0.802751
0
LINE
8
BLACK
6
CONTINUOUS
10
2.33712
20
0.802751
11
2.33592
21
0.804373
0
LINE
8
BLACK
6
CONTINUOUS
10
2.33592
20
0.804373
11
2.33604
21
0.80639
0
LINE
8
BLACK
6
CONTINUOUS
10
2.33604
20
0.80639
11
2.33743
21
0.807856
0
LINE
8
BLACK
6
CONTINUOUS
10
2.33743
20
0.807856
11
2.34075
21
0.809517
0
LINE
8
BLACK
6
CONTINUOUS
10
2.34075
20
0.809517
11
2.34395
21
0.812721
0
LINE
8
BLACK
6
CONTINUOUS
10
2.34395
20
0.812721
11
2.34754
21
0.818102
0
LINE
8
BLACK
6
CONTINUOUS
10
2.34754
20
0.818102
11
2.34825
21
0.818843
0
LINE
8
BLACK
6
CONTINUOUS
10
2.34825
20
0.818843
11
2.34841
21
0.818891
0
LINE
8
BLACK
6
CONTINUOUS
10
2.34841
20
0.818891
11
2.34852
21
0.819021
0
LINE
8
BLACK
6
CONTINUOUS
10
2.34852
20
0.819021
11
2.34937
21
0.81917
0
LINE
8
BLACK
6
CONTINUOUS
10
2.34937
20
0.81917
11
2.35019
21
0.81941
0
LINE
8
BLACK
6
CONTINUOUS
10
2.35019
20
0.81941
11
2.35034
21
0.819342
0
LINE
8
BLACK
6
CONTINUOUS
10
2.46
20
0.921969
11
2.46139
21
0.921392
0
LINE
8
BLACK
6
CONTINUOUS
10
2.46139
20
0.921392
11
2.46197
21
0.92
0
LINE
8
BLACK
6
CONTINUOUS
10
2.46197
20
0.92
11
2.46197
21
0.67
0
LINE
8
BLACK
6
CONTINUOUS
10
2.46197
20
0.67
11
2.46139
21
0.668608
0
LINE
8
BLACK
6
CONTINUOUS
10
2.46139
20
0.668608
11
2.46
21
0.668031
0
LINE
8
BLACK
6
CONTINUOUS
10
2.46
20
0.668031
11
2.335
21
0.668031
0
LINE
8
BLACK
6
CONTINUOUS
10
2.335
20
0.668031
11
2.21
21
0.668031
0
LINE
8
BLACK
6
CONTINUOUS
10
2.21
20
0.668031
11
2.20861
21
0.668608
0
LINE
8
BLACK
6
CONTINUOUS
10
2.20861
20
0.668608
11
2.20803
21
0.67
0
LINE
8
BLACK
6
CONTINUOUS
10
2.20803
20
0.67
11
2.20803
21
0.92
0
LINE
8
BLACK
6
CONTINUOUS
10
2.20803
20
0.92
11
2.20861
21
0.921392
0
LINE
8
BLACK
6
CONTINUOUS
10
2.20861
20
0.921392
11
2.21
21
0.921969
0
LINE
8
BLACK
6
CONTINUOUS
10
2.21
20
0.921969
11
2.46
21
0.921969
0
LINE
8
BLACK
6
CONTINUOUS
10
2.21197
20
0.671969
11
2.30413
21
0.671969
0
LINE
8
BLACK
6
CONTINUOUS
10
2.30413
20
0.671969
11
2.29306
21
0.675157
0
LINE
8
BLACK
6
CONTINUOUS
10
2.29306
20
0.675157
11
2.27991
21
0.680605
0
LINE
8
BLACK
6
CONTINUOUS
10
2.27991
20
0.680605
11
2.26745
21
0.687493
0
LINE
8
BLACK
6
CONTINUOUS
10
2.26745
20
0.687493
11
2.25584
21
0.695732
0
LINE
8
BLACK
6
CONTINUOUS
10
2.25584
20
0.695732
11
2.24522
21
0.70522
0
LINE
8
BLACK
6
CONTINUOUS
10
2.24522
20
0.70522
11
2.23573
21
0.715836
0
LINE
8
BLACK
6
CONTINUOUS
10
2.23573
20
0.715836
11
2.22749
21
0.727449
0
LINE
8
BLACK
6
CONTINUOUS
10
2.22749
20
0.727449
11
2.22061
21
0.73991
0
LINE
8
BLACK
6
CONTINUOUS
10
2.22061
20
0.73991
11
2.21516
21
0.753065
0
LINE
8
BLACK
6
CONTINUOUS
10
2.21516
20
0.753065
11
2.21197
21
0.764131
0
LINE
8
BLACK
6
CONTINUOUS
10
2.21197
20
0.764131
11
2.21197
21
0.671969
0
LINE
8
BLACK
6
CONTINUOUS
10
2.33155
20
0.918031
11
2.3212
21
0.917451
0
LINE
8
BLACK
6
CONTINUOUS
10
2.3212
20
0.917451
11
2.30758
21
0.915136
0
LINE
8
BLACK
6
CONTINUOUS
10
2.30758
20
0.915136
11
2.2943
21
0.91131
0
LINE
8
BLACK
6
CONTINUOUS
10
2.2943
20
0.91131
11
2.28153
21
0.906022
0
LINE
8
BLACK
6
CONTINUOUS
10
2.28153
20
0.906022
11
2.26944
21
0.899338
0
LINE
8
BLACK
6
CONTINUOUS
10
2.26944
20
0.899338
11
2.25817
21
0.891341
0
LINE
8
BLACK
6
CONTINUOUS
10
2.25817
20
0.891341
11
2.24787
21
0.882133
0
LINE
8
BLACK
6
CONTINUOUS
10
2.24787
20
0.882133
11
2.23866
21
0.87183
0
LINE
8
BLACK
6
CONTINUOUS
10
2.23866
20
0.87183
11
2.23066
21
0.86056
0
LINE
8
BLACK
6
CONTINUOUS
10
2.23066
20
0.86056
11
2.22398
21
0.848465
0
LINE
8
BLACK
6
CONTINUOUS
10
2.22398
20
0.848465
11
2.21869
21
0.835699
0
LINE
8
BLACK
6
CONTINUOUS
10
2.21869
20
0.835699
11
2.21486
21
0.82242
0
LINE
8
BLACK
6
CONTINUOUS
10
2.21486
20
0.82242
11
2.21255
21
0.808797
0
LINE
8
BLACK
6
CONTINUOUS
10
2.21255
20
0.808797
11
2.21197
21
0.798452
0
LINE
8
BLACK
6
CONTINUOUS
10
2.21197
20
0.798452
11
2.21197
21
0.791548
0
LINE
8
BLACK
6
CONTINUOUS
10
2.21197
20
0.791548
11
2.21255
21
0.781203
0
LINE
8
BLACK
6
CONTINUOUS
10
2.21255
20
0.781203
11
2.21486
21
0.76758
0
LINE
8
BLACK
6
CONTINUOUS
10
2.21486
20
0.76758
11
2.21869
21
0.754301
0
LINE
8
BLACK
6
CONTINUOUS
10
2.21869
20
0.754301
11
2.22398
21
0.741535
0
LINE
8
BLACK
6
CONTINUOUS
10
2.22398
20
0.741535
11
2.23066
21
0.72944
0
LINE
8
BLACK
6
CONTINUOUS
10
2.23066
20
0.72944
11
2.23866
21
0.71817
0
LINE
8
BLACK
6
CONTINUOUS
10
2.23866
20
0.71817
11
2.24787
21
0.707867
0
LINE
8
BLACK
6
CONTINUOUS
10
2.24787
20
0.707867
11
2.25817
21
0.698659
0
LINE
8
BLACK
6
CONTINUOUS
10
2.25817
20
0.698659
11
2.26944
21
0.690662
0
LINE
8
BLACK
6
CONTINUOUS
10
2.26944
20
0.690662
11
2.28153
21
0.683978
0
LINE
8
BLACK
6
CONTINUOUS
10
2.28153
20
0.683978
11
2.2943
21
0.67869
0
LINE
8
BLACK
6
CONTINUOUS
10
2.2943
20
0.67869
11
2.30758
21
0.674864
0
LINE
8
BLACK
6
CONTINUOUS
10
2.30758
20
0.674864
11
2.3212
21
0.672549
0
LINE
8
BLACK
6
CONTINUOUS
10
2.3212
20
0.672549
11
2.33155
21
0.671969
0
LINE
8
BLACK
6
CONTINUOUS
10
2.33155
20
0.671969
11
2.33845
21
0.671969
0
LINE
8
BLACK
6
CONTINUOUS
10
2.33845
20
0.671969
11
2.3488
21
0.672549
0
LINE
8
BLACK
6
CONTINUOUS
10
2.3488
20
0.672549
11
2.36242
21
0.674864
0
LINE
8
BLACK
6
CONTINUOUS
10
2.36242
20
0.674864
11
2.3757
21
0.67869
0
LINE
8
BLACK
6
CONTINUOUS
10
2.3757
20
0.67869
11
2.38847
21
0.683978
0
LINE
8
BLACK
6
CONTINUOUS
10
2.38847
20
0.683978
11
2.40056
21
0.690662
0
LINE
8
BLACK
6
CONTINUOUS
10
2.40056
20
0.690662
11
2.41183
21
0.698659
0
LINE
8
BLACK
6
CONTINUOUS
10
2.41183
20
0.698659
11
2.42213
21
0.707867
0
LINE
8
BLACK
6
CONTINUOUS
10
2.42213
20
0.707867
11
2.43134
21
0.71817
0
LINE
8
BLACK
6
CONTINUOUS
10
2.43134
20
0.71817
11
2.43934
21
0.72944
0
LINE
8
BLACK
6
CONTINUOUS
10
2.43934
20
0.72944
11
2.44602
21
0.741535
0
LINE
8
BLACK
6
CONTINUOUS
10
2.44602
20
0.741535
11
2.45131
21
0.754301
0
LINE
8
BLACK
6
CONTINUOUS
10
2.45131
20
0.754301
11
2.45514
21
0.76758
0
LINE
8
BLACK
6
CONTINUOUS
10
2.45514
20
0.76758
11
2.45745
21
0.781203
0
LINE
8
BLACK
6
CONTINUOUS
10
2.45745
20
0.781203
11
2.45803
21
0.791548
0
LINE
8
BLACK
6
CONTINUOUS
10
2.45803
20
0.791548
11
2.45803
21
0.798452
0
LINE
8
BLACK
6
CONTINUOUS
10
2.45803
20
0.798452
11
2.45745
21
0.808797
0
LINE
8
BLACK
6
CONTINUOUS
10
2.45745
20
0.808797
11
2.45514
21
0.82242
0
LINE
8
BLACK
6
CONTINUOUS
10
2.45514
20
0.82242
11
2.45131
21
0.835699
0
LINE
8
BLACK
6
CONTINUOUS
10
2.45131
20
0.835699
11
2.44602
21
0.848465
0
LINE
8
BLACK
6
CONTINUOUS
10
2.44602
20
0.848465
11
2.43934
21
0.86056
0
LINE
8
BLACK
6
CONTINUOUS
10
2.43934
20
0.86056
11
2.43134
21
0.87183
0
LINE
8
BLACK
6
CONTINUOUS
10
2.43134
20
0.87183
11
2.42213
21
0.882133
0
LINE
8
BLACK
6
CONTINUOUS
10
2.42213
20
0.882133
11
2.41183
21
0.891341
0
LINE
8
BLACK
6
CONTINUOUS
10
2.41183
20
0.891341
11
2.40056
21
0.899338
0
LINE
8
BLACK
6
CONTINUOUS
10
2.40056
20
0.899338
11
2.38847
21
0.906022
0
LINE
8
BLACK
6
CONTINUOUS
10
2.38847
20
0.906022
11
2.3757
21
0.91131
0
LINE
8
BLACK
6
CONTINUOUS
10
2.3757
20
0.91131
11
2.36242
21
0.915136
0
LINE
8
BLACK
6
CONTINUOUS
10
2.36242
20
0.915136
11
2.3488
21
0.917451
0
LINE
8
BLACK
6
CONTINUOUS
10
2.3488
20
0.917451
11
2.33845
21
0.918031
0
LINE
8
BLACK
6
CONTINUOUS
10
2.33845
20
0.918031
11
2.33155
21
0.918031
0
LINE
8
BLACK
6
CONTINUOUS
10
2.45484
20
0.753065
11
2.44939
21
0.73991
0
LINE
8
BLACK
6
CONTINUOUS
10
2.44939
20
0.73991
11
2.44251
21
0.727449
0
LINE
8
BLACK
6
CONTINUOUS
10
2.44251
20
0.727449
11
2.43427
21
0.715836
0
LINE
8
BLACK
6
CONTINUOUS
10
2.43427
20
0.715836
11
2.42478
21
0.70522
0
LINE
8
BLACK
6
CONTINUOUS
10
2.42478
20
0.70522
11
2.41416
21
0.695732
0
LINE
8
BLACK
6
CONTINUOUS
10
2.41416
20
0.695732
11
2.40255
21
0.687493
0
LINE
8
BLACK
6
CONTINUOUS
10
2.40255
20
0.687493
11
2.39009
21
0.680605
0
LINE
8
BLACK
6
CONTINUOUS
10
2.39009
20
0.680605
11
2.37694
21
0.675157
0
LINE
8
BLACK
6
CONTINUOUS
10
2.37694
20
0.675157
11
2.36587
21
0.671969
0
LINE
8
BLACK
6
CONTINUOUS
10
2.36587
20
0.671969
11
2.45803
21
0.671969
0
LINE
8
BLACK
6
CONTINUOUS
10
2.45803
20
0.671969
11
2.45803
21
0.764131
0
LINE
8
BLACK
6
CONTINUOUS
10
2.45803
20
0.764131
11
2.45484
21
0.753065
0
LINE
8
BLACK
6
CONTINUOUS
10
2.21197
20
0.918031
11
2.21197
21
0.825869
0
LINE
8
BLACK
6
CONTINUOUS
10
2.21197
20
0.825869
11
2.21516
21
0.836935
0
LINE
8
BLACK
6
CONTINUOUS
10
2.21516
20
0.836935
11
2.22061
21
0.85009
0
LINE
8
BLACK
6
CONTINUOUS
10
2.22061
20
0.85009
11
2.22749
21
0.862551
0
LINE
8
BLACK
6
CONTINUOUS
10
2.22749
20
0.862551
11
2.23573
21
0.874164
0
LINE
8
BLACK
6
CONTINUOUS
10
2.23573
20
0.874164
11
2.24522
21
0.88478
0
LINE
8
BLACK
6
CONTINUOUS
10
2.24522
20
0.88478
11
2.25584
21
0.894268
0
LINE
8
BLACK
6
CONTINUOUS
10
2.25584
20
0.894268
11
2.26745
21
0.902507
0
LINE
8
BLACK
6
CONTINUOUS
10
2.26745
20
0.902507
11
2.27991
21
0.909395
0
LINE
8
BLACK
6
CONTINUOUS
10
2.27991
20
0.909395
11
2.29306
21
0.914843
0
LINE
8
BLACK
6
CONTINUOUS
10
2.29306
20
0.914843
11
2.30413
21
0.918031
0
LINE
8
BLACK
6
CONTINUOUS
10
2.30413
20
0.918031
11
2.21197
21
0.918031
0
LINE
8
BLACK
6
CONTINUOUS
10
2.36587
20
0.918031
11
2.37694
21
0.914843
0
LINE
8
BLACK
6
CONTINUOUS
10
2.37694
20
0.914843
11
2.39009
21
0.909395
0
LINE
8
BLACK
6
CONTINUOUS
10
2.39009
20
0.909395
11
2.40255
21
0.902507
0
LINE
8
BLACK
6
CONTINUOUS
10
2.40255
20
0.902507
11
2.41416
21
0.894268
0
LINE
8
BLACK
6
CONTINUOUS
10
2.41416
20
0.894268
11
2.42478
21
0.88478
0
LINE
8
BLACK
6
CONTINUOUS
10
2.42478
20
0.88478
11
2.43427
21
0.874164
0
LINE
8
BLACK
6
CONTINUOUS
10
2.43427
20
0.874164
11
2.44251
21
0.862551
0
LINE
8
BLACK
6
CONTINUOUS
10
2.44251
20
0.862551
11
2.44939
21
0.85009
0
LINE
8
BLACK
6
CONTINUOUS
10
2.44939
20
0.85009
11
2.45484
21
0.836935
0
LINE
8
BLACK
6
CONTINUOUS
10
2.45484
20
0.836935
11
2.45803
21
0.825869
0
LINE
8
BLACK
6
CONTINUOUS
10
2.45803
20
0.825869
11
2.45803
21
0.918031
0
LINE
8
BLACK
6
CONTINUOUS
10
2.45803
20
0.918031
11
2.36587
21
0.918031
0
LINE
8
BLACK
6
CONTINUOUS
10
2.31539
20
0.972969
11
2.31693
21
0.971671
0
LINE
8
BLACK
6
CONTINUOUS
10
2.31693
20
0.971671
11
2.31729
21
0.969682
0
LINE
8
BLACK
6
CONTINUOUS
10
2.31729
20
0.969682
11
2.31628
21
0.967933
0
LINE
8
BLACK
6
CONTINUOUS
10
2.31628
20
0.967933
11
2.31438
21
0.967242
0
LINE
8
BLACK
6
CONTINUOUS
10
2.31438
20
0.967242
11
2.28438
21
0.967242
0
LINE
8
BLACK
6
CONTINUOUS
10
2.28438
20
0.967242
11
2.28337
21
0.96742
0
LINE
8
BLACK
6
CONTINUOUS
10
2.28337
20
0.96742
11
2.28182
21
0.968718
0
LINE
8
BLACK
6
CONTINUOUS
10
2.28182
20
0.968718
11
2.28147
21
0.970707
0
LINE
8
BLACK
6
CONTINUOUS
10
2.28147
20
0.970707
11
2.28248
21
0.972457
0
LINE
8
BLACK
6
CONTINUOUS
10
2.28248
20
0.972457
11
2.28438
21
0.973147
0
LINE
8
BLACK
6
CONTINUOUS
10
2.28438
20
0.973147
11
2.31438
21
0.973147
0
LINE
8
BLACK
6
CONTINUOUS
10
2.31438
20
0.973147
11
2.31539
21
0.972969
0
LINE
8
BLACK
6
CONTINUOUS
10
2.16339
20
1.01611
11
2.16346
21
1.01612
0
LINE
8
BLACK
6
CONTINUOUS
10
2.16346
20
1.01612
11
2.16908
21
1.01424
0
LINE
8
BLACK
6
CONTINUOUS
10
2.16908
20
1.01424
11
2.16998
21
1.01375
0
LINE
8
BLACK
6
CONTINUOUS
10
2.16998
20
1.01375
11
2.17007
21
1.0136
0
LINE
8
BLACK
6
CONTINUOUS
10
2.17007
20
1.0136
11
2.17023
21
1.01353
0
LINE
8
BLACK
6
CONTINUOUS
10
2.17023
20
1.01353
11
2.17211
21
1.01165
0
LINE
8
BLACK
6
CONTINUOUS
10
2.17211
20
1.01165
11
2.1727
21
1.01081
0
LINE
8
BLACK
6
CONTINUOUS
10
2.1727
20
1.01081
11
2.17287
21
1.0088
0
LINE
8
BLACK
6
CONTINUOUS
10
2.17287
20
1.0088
11
2.17171
21
1.00715
0
LINE
8
BLACK
6
CONTINUOUS
10
2.17171
20
1.00715
11
2.16976
21
1.00662
0
LINE
8
BLACK
6
CONTINUOUS
10
2.16976
20
1.00662
11
2.16793
21
1.00748
0
LINE
8
BLACK
6
CONTINUOUS
10
2.16793
20
1.00748
11
2.16655
21
1.00886
0
LINE
8
BLACK
6
CONTINUOUS
10
2.16655
20
1.00886
11
2.16204
21
1.01036
0
LINE
8
BLACK
6
CONTINUOUS
10
2.16204
20
1.01036
11
2.15925
21
1.01036
0
LINE
8
BLACK
6
CONTINUOUS
10
2.15925
20
1.01036
11
2.15474
21
1.00886
0
LINE
8
BLACK
6
CONTINUOUS
10
2.15474
20
1.00886
11
2.15182
21
1.00594
0
LINE
8
BLACK
6
CONTINUOUS
10
2.15182
20
1.00594
11
2.15031
21
1.00291
0
LINE
8
BLACK
6
CONTINUOUS
10
2.15031
20
1.00291
11
2.1486
21
0.996078
0
LINE
8
BLACK
6
CONTINUOUS
10
2.1486
20
0.996078
11
2.1486
21
0.991181
0
LINE
8
BLACK
6
CONTINUOUS
10
2.1486
20
0.991181
11
2.15031
21
0.984349
0
LINE
8
BLACK
6
CONTINUOUS
10
2.15031
20
0.984349
11
2.15182
21
0.981318
0
LINE
8
BLACK
6
CONTINUOUS
10
2.15182
20
0.981318
11
2.15474
21
0.9784
0
LINE
8
BLACK
6
CONTINUOUS
10
2.15474
20
0.9784
11
2.15925
21
0.976897
0
LINE
8
BLACK
6
CONTINUOUS
10
2.15925
20
0.976897
11
2.16204
21
0.976897
0
LINE
8
BLACK
6
CONTINUOUS
10
2.16204
20
0.976897
11
2.16655
21
0.9784
0
LINE
8
BLACK
6
CONTINUOUS
10
2.16655
20
0.9784
11
2.16793
21
0.979782
0
LINE
8
BLACK
6
CONTINUOUS
10
2.16793
20
0.979782
11
2.16877
21
0.98037
0
LINE
8
BLACK
6
CONTINUOUS
10
2.16877
20
0.98037
11
2.17078
21
0.980546
0
LINE
8
BLACK
6
CONTINUOUS
10
2.17078
20
0.980546
11
2.17244
21
0.979387
0
LINE
8
BLACK
6
CONTINUOUS
10
2.17244
20
0.979387
11
2.17296
21
0.977436
0
LINE
8
BLACK
6
CONTINUOUS
10
2.17296
20
0.977436
11
2.17211
21
0.975606
0
LINE
8
BLACK
6
CONTINUOUS
10
2.17211
20
0.975606
11
2.17023
21
0.973731
0
LINE
8
BLACK
6
CONTINUOUS
10
2.17023
20
0.973731
11
2.16939
21
0.973143
0
LINE
8
BLACK
6
CONTINUOUS
10
2.16939
20
0.973143
11
2.16922
21
0.973127
0
LINE
8
BLACK
6
CONTINUOUS
10
2.16922
20
0.973127
11
2.16908
21
0.973018
0
LINE
8
BLACK
6
CONTINUOUS
10
2.16908
20
0.973018
11
2.16346
21
0.971143
0
LINE
8
BLACK
6
CONTINUOUS
10
2.16346
20
0.971143
11
2.16258
21
0.971013
0
LINE
8
BLACK
6
CONTINUOUS
10
2.16258
20
0.971013
11
2.16252
21
0.970991
0
LINE
8
BLACK
6
CONTINUOUS
10
2.16252
20
0.970991
11
2.15877
21
0.970991
0
LINE
8
BLACK
6
CONTINUOUS
10
2.15877
20
0.970991
11
2.1579
21
0.971145
0
LINE
8
BLACK
6
CONTINUOUS
10
2.1579
20
0.971145
11
2.15784
21
0.971143
0
LINE
8
BLACK
6
CONTINUOUS
10
2.15784
20
0.971143
11
2.15221
21
0.973018
0
LINE
8
BLACK
6
CONTINUOUS
10
2.15221
20
0.973018
11
2.15131
21
0.973506
0
LINE
8
BLACK
6
CONTINUOUS
10
2.15131
20
0.973506
11
2.15122
21
0.973656
0
LINE
8
BLACK
6
CONTINUOUS
10
2.15122
20
0.973656
11
2.15106
21
0.973731
0
LINE
8
BLACK
6
CONTINUOUS
10
2.15106
20
0.973731
11
2.14731
21
0.977481
0
LINE
8
BLACK
6
CONTINUOUS
10
2.14731
20
0.977481
11
2.1468
21
0.978204
0
LINE
8
BLACK
6
CONTINUOUS
10
2.1468
20
0.978204
11
2.14676
21
0.978248
0
LINE
8
BLACK
6
CONTINUOUS
10
2.14676
20
0.978248
11
2.14488
21
0.981997
0
LINE
8
BLACK
6
CONTINUOUS
10
2.14488
20
0.981997
11
2.14474
21
0.982486
0
LINE
8
BLACK
6
CONTINUOUS
10
2.14474
20
0.982486
11
2.14466
21
0.982602
0
LINE
8
BLACK
6
CONTINUOUS
10
2.14466
20
0.982602
11
2.14278
21
0.990101
0
LINE
8
BLACK
6
CONTINUOUS
10
2.14278
20
0.990101
11
2.14274
21
0.990689
0
LINE
8
BLACK
6
CONTINUOUS
10
2.14274
20
0.990689
11
2.1427
21
0.990817
0
LINE
8
BLACK
6
CONTINUOUS
10
2.1427
20
0.990817
11
2.1427
21
0.996441
0
LINE
8
BLACK
6
CONTINUOUS
10
2.1427
20
0.996441
11
2.1428
21
0.997022
0
LINE
8
BLACK
6
CONTINUOUS
10
2.1428
20
0.997022
11
2.14278
21
0.997157
0
LINE
8
BLACK
6
CONTINUOUS
10
2.14278
20
0.997157
11
2.14466
21
1.00466
0
LINE
8
BLACK
6
CONTINUOUS
10
2.14466
20
1.00466
11
2.14487
21
1.00512
0
LINE
8
BLACK
6
CONTINUOUS
10
2.14487
20
1.00512
11
2.14488
21
1.00526
0
LINE
8
BLACK
6
CONTINUOUS
10
2.14488
20
1.00526
11
2.14676
21
1.00901
0
LINE
8
BLACK
6
CONTINUOUS
10
2.14676
20
1.00901
11
2.14728
21
1.00972
0
LINE
8
BLACK
6
CONTINUOUS
10
2.14728
20
1.00972
11
2.14731
21
1.00978
0
LINE
8
BLACK
6
CONTINUOUS
10
2.14731
20
1.00978
11
2.15106
21
1.01353
0
LINE
8
BLACK
6
CONTINUOUS
10
2.15106
20
1.01353
11
2.1519
21
1.01412
0
LINE
8
BLACK
6
CONTINUOUS
10
2.1519
20
1.01412
11
2.15208
21
1.01413
0
LINE
8
BLACK
6
CONTINUOUS
10
2.15208
20
1.01413
11
2.15221
21
1.01424
0
LINE
8
BLACK
6
CONTINUOUS
10
2.15221
20
1.01424
11
2.15784
21
1.01612
0
LINE
8
BLACK
6
CONTINUOUS
10
2.15784
20
1.01612
11
2.15871
21
1.01624
0
LINE
8
BLACK
6
CONTINUOUS
10
2.15871
20
1.01624
11
2.15877
21
1.01627
0
LINE
8
BLACK
6
CONTINUOUS
10
2.15877
20
1.01627
11
2.16252
21
1.01627
0
LINE
8
BLACK
6
CONTINUOUS
10
2.16252
20
1.01627
11
2.16339
21
1.01611
0
LINE
8
BLACK
6
CONTINUOUS
10
2.19915
20
1.00297
11
2.19929
21
1.00285
0
LINE
8
BLACK
6
CONTINUOUS
10
2.19929
20
1.00285
11
2.19946
21
1.00283
0
LINE
8
BLACK
6
CONTINUOUS
10
2.19946
20
1.00283
11
2.20321
21
1.00096
0
LINE
8
BLACK
6
CONTINUOUS
10
2.20321
20
1.00096
11
2.20392
21
1.00043
0
LINE
8
BLACK
6
CONTINUOUS
10
2.20392
20
1.00043
11
2.20398
21
1.0004
0
LINE
8
BLACK
6
CONTINUOUS
10
2.20398
20
1.0004
11
2.20585
21
0.998529
0
LINE
8
BLACK
6
CONTINUOUS
10
2.20585
20
0.998529
11
2.20636
21
0.997806
0
LINE
8
BLACK
6
CONTINUOUS
10
2.20636
20
0.997806
11
2.20641
21
0.997762
0
LINE
8
BLACK
6
CONTINUOUS
10
2.20641
20
0.997762
11
2.20828
21
0.994012
0
LINE
8
BLACK
6
CONTINUOUS
10
2.20828
20
0.994012
11
2.20857
21
0.993029
0
LINE
8
BLACK
6
CONTINUOUS
10
2.20857
20
0.993029
11
2.20853
21
0.992858
0
LINE
8
BLACK
6
CONTINUOUS
10
2.20853
20
0.992858
11
2.20859
21
0.992692
0
LINE
8
BLACK
6
CONTINUOUS
10
2.20859
20
0.992692
11
2.20859
21
0.981443
0
LINE
8
BLACK
6
CONTINUOUS
10
2.20859
20
0.981443
11
2.20842
21
0.980433
0
LINE
8
BLACK
6
CONTINUOUS
10
2.20842
20
0.980433
11
2.2083
21
0.980298
0
LINE
8
BLACK
6
CONTINUOUS
10
2.2083
20
0.980298
11
2.20828
21
0.980123
0
LINE
8
BLACK
6
CONTINUOUS
10
2.20828
20
0.980123
11
2.20641
21
0.976373
0
LINE
8
BLACK
6
CONTINUOUS
10
2.20641
20
0.976373
11
2.20588
21
0.975664
0
LINE
8
BLACK
6
CONTINUOUS
10
2.20588
20
0.975664
11
2.20585
21
0.975606
0
LINE
8
BLACK
6
CONTINUOUS
10
2.20585
20
0.975606
11
2.20398
21
0.973731
0
LINE
8
BLACK
6
CONTINUOUS
10
2.20398
20
0.973731
11
2.20326
21
0.973225
0
LINE
8
BLACK
6
CONTINUOUS
10
2.20326
20
0.973225
11
2.20321
21
0.973178
0
LINE
8
BLACK
6
CONTINUOUS
10
2.20321
20
0.973178
11
2.19946
21
0.971303
0
LINE
8
BLACK
6
CONTINUOUS
10
2.19946
20
0.971303
11
2.19848
21
0.971011
0
LINE
8
BLACK
6
CONTINUOUS
10
2.19848
20
0.971011
11
2.19831
21
0.971052
0
LINE
8
BLACK
6
CONTINUOUS
10
2.19831
20
0.971052
11
2.19814
21
0.970991
0
LINE
8
BLACK
6
CONTINUOUS
10
2.19814
20
0.970991
11
2.19252
21
0.970991
0
LINE
8
BLACK
6
CONTINUOUS
10
2.19252
20
0.970991
11
2.19151
21
0.971169
0
LINE
8
BLACK
6
CONTINUOUS
10
2.19151
20
0.971169
11
2.19137
21
0.971283
0
LINE
8
BLACK
6
CONTINUOUS
10
2.19137
20
0.971283
11
2.1912
21
0.971303
0
LINE
8
BLACK
6
CONTINUOUS
10
2.1912
20
0.971303
11
2.18745
21
0.973178
0
LINE
8
BLACK
6
CONTINUOUS
10
2.18745
20
0.973178
11
2.18674
21
0.973704
0
LINE
8
BLACK
6
CONTINUOUS
10
2.18674
20
0.973704
11
2.18668
21
0.973731
0
LINE
8
BLACK
6
CONTINUOUS
10
2.18668
20
0.973731
11
2.18481
21
0.975606
0
LINE
8
BLACK
6
CONTINUOUS
10
2.18481
20
0.975606
11
2.1843
21
0.976329
0
LINE
8
BLACK
6
CONTINUOUS
10
2.1843
20
0.976329
11
2.18425
21
0.976373
0
LINE
8
BLACK
6
CONTINUOUS
10
2.18425
20
0.976373
11
2.18238
21
0.980123
0
LINE
8
BLACK
6
CONTINUOUS
10
2.18238
20
0.980123
11
2.18209
21
0.981106
0
LINE
8
BLACK
6
CONTINUOUS
10
2.18209
20
0.981106
11
2.18213
21
0.981277
0
LINE
8
BLACK
6
CONTINUOUS
10
2.18213
20
0.981277
11
2.18207
21
0.981443
0
LINE
8
BLACK
6
CONTINUOUS
10
2.18207
20
0.981443
11
2.18207
21
0.992692
0
LINE
8
BLACK
6
CONTINUOUS
10
2.18207
20
0.992692
11
2.18224
21
0.993702
0
LINE
8
BLACK
6
CONTINUOUS
10
2.18224
20
0.993702
11
2.18236
21
0.993837
0
LINE
8
BLACK
6
CONTINUOUS
10
2.18236
20
0.993837
11
2.18238
21
0.994012
0
LINE
8
BLACK
6
CONTINUOUS
10
2.18238
20
0.994012
11
2.18425
21
0.997762
0
LINE
8
BLACK
6
CONTINUOUS
10
2.18425
20
0.997762
11
2.18478
21
0.998471
0
LINE
8
BLACK
6
CONTINUOUS
10
2.18478
20
0.998471
11
2.18481
21
0.998529
0
LINE
8
BLACK
6
CONTINUOUS
10
2.18481
20
0.998529
11
2.18668
21
1.0004
0
LINE
8
BLACK
6
CONTINUOUS
10
2.18668
20
1.0004
11
2.1874
21
1.00091
0
LINE
8
BLACK
6
CONTINUOUS
10
2.1874
20
1.00091
11
2.18745
21
1.00096
0
LINE
8
BLACK
6
CONTINUOUS
10
2.18745
20
1.00096
11
2.1912
21
1.00283
0
LINE
8
BLACK
6
CONTINUOUS
10
2.1912
20
1.00283
11
2.19218
21
1.00312
0
LINE
8
BLACK
6
CONTINUOUS
10
2.19218
20
1.00312
11
2.19235
21
1.00308
0
LINE
8
BLACK
6
CONTINUOUS
10
2.19235
20
1.00308
11
2.19252
21
1.00314
0
LINE
8
BLACK
6
CONTINUOUS
10
2.19252
20
1.00314
11
2.19814
21
1.00314
0
LINE
8
BLACK
6
CONTINUOUS
10
2.19814
20
1.00314
11
2.19915
21
1.00297
0
LINE
8
BLACK
6
CONTINUOUS
10
2.19052
20
0.995889
11
2.18932
21
0.994692
0
LINE
8
BLACK
6
CONTINUOUS
10
2.18932
20
0.994692
11
2.18797
21
0.991995
0
LINE
8
BLACK
6
CONTINUOUS
10
2.18797
20
0.991995
11
2.18797
21
0.98214
0
LINE
8
BLACK
6
CONTINUOUS
10
2.18797
20
0.98214
11
2.18932
21
0.979443
0
LINE
8
BLACK
6
CONTINUOUS
10
2.18932
20
0.979443
11
2.19052
21
0.978246
0
LINE
8
BLACK
6
CONTINUOUS
10
2.19052
20
0.978246
11
2.19321
21
0.976897
0
LINE
8
BLACK
6
CONTINUOUS
10
2.19321
20
0.976897
11
2.19745
21
0.976897
0
LINE
8
BLACK
6
CONTINUOUS
10
2.19745
20
0.976897
11
2.20014
21
0.978246
0
LINE
8
BLACK
6
CONTINUOUS
10
2.20014
20
0.978246
11
2.20134
21
0.979443
0
LINE
8
BLACK
6
CONTINUOUS
10
2.20134
20
0.979443
11
2.20269
21
0.98214
0
LINE
8
BLACK
6
CONTINUOUS
10
2.20269
20
0.98214
11
2.20269
21
0.991995
0
LINE
8
BLACK
6
CONTINUOUS
10
2.20269
20
0.991995
11
2.20134
21
0.994692
0
LINE
8
BLACK
6
CONTINUOUS
10
2.20134
20
0.994692
11
2.20014
21
0.995889
0
LINE
8
BLACK
6
CONTINUOUS
10
2.20014
20
0.995889
11
2.19745
21
0.997238
0
LINE
8
BLACK
6
CONTINUOUS
10
2.19745
20
0.997238
11
2.19321
21
0.997238
0
LINE
8
BLACK
6
CONTINUOUS
10
2.19321
20
0.997238
11
2.19052
21
0.995889
0
LINE
8
BLACK
6
CONTINUOUS
10
2.33962
20
1.01611
11
2.33968
21
1.01612
0
LINE
8
BLACK
6
CONTINUOUS
10
2.33968
20
1.01612
11
2.34531
21
1.01424
0
LINE
8
BLACK
6
CONTINUOUS
10
2.34531
20
1.01424
11
2.34621
21
1.01375
0
LINE
8
BLACK
6
CONTINUOUS
10
2.34621
20
1.01375
11
2.3463
21
1.0136
0
LINE
8
BLACK
6
CONTINUOUS
10
2.3463
20
1.0136
11
2.34646
21
1.01353
0
LINE
8
BLACK
6
CONTINUOUS
10
2.34646
20
1.01353
11
2.34834
21
1.01165
0
LINE
8
BLACK
6
CONTINUOUS
10
2.34834
20
1.01165
11
2.34892
21
1.01081
0
LINE
8
BLACK
6
CONTINUOUS
10
2.34892
20
1.01081
11
2.3491
21
1.0088
0
LINE
8
BLACK
6
CONTINUOUS
10
2.3491
20
1.0088
11
2.34794
21
1.00715
0
LINE
8
BLACK
6
CONTINUOUS
10
2.34794
20
1.00715
11
2.34599
21
1.00662
0
LINE
8
BLACK
6
CONTINUOUS
10
2.34599
20
1.00662
11
2.34416
21
1.00748
0
LINE
8
BLACK
6
CONTINUOUS
10
2.34416
20
1.00748
11
2.34278
21
1.00886
0
LINE
8
BLACK
6
CONTINUOUS
10
2.34278
20
1.00886
11
2.33827
21
1.01036
0
LINE
8
BLACK
6
CONTINUOUS
10
2.33827
20
1.01036
11
2.33548
21
1.01036
0
LINE
8
BLACK
6
CONTINUOUS
10
2.33548
20
1.01036
11
2.33097
21
1.00886
0
LINE
8
BLACK
6
CONTINUOUS
10
2.33097
20
1.00886
11
2.32805
21
1.00594
0
LINE
8
BLACK
6
CONTINUOUS
10
2.32805
20
1.00594
11
2.32654
21
1.00291
0
LINE
8
BLACK
6
CONTINUOUS
10
2.32654
20
1.00291
11
2.32483
21
0.996078
0
LINE
8
BLACK
6
CONTINUOUS
10
2.32483
20
0.996078
11
2.32483
21
0.991181
0
LINE
8
BLACK
6
CONTINUOUS
10
2.32483
20
0.991181
11
2.32654
21
0.984349
0
LINE
8
BLACK
6
CONTINUOUS
10
2.32654
20
0.984349
11
2.32805
21
0.981318
0
LINE
8
BLACK
6
CONTINUOUS
10
2.32805
20
0.981318
11
2.33097
21
0.9784
0
LINE
8
BLACK
6
CONTINUOUS
10
2.33097
20
0.9784
11
2.33548
21
0.976897
0
LINE
8
BLACK
6
CONTINUOUS
10
2.33548
20
0.976897
11
2.33827
21
0.976897
0
LINE
8
BLACK
6
CONTINUOUS
10
2.33827
20
0.976897
11
2.34278
21
0.9784
0
LINE
8
BLACK
6
CONTINUOUS
10
2.34278
20
0.9784
11
2.34416
21
0.979782
0
LINE
8
BLACK
6
CONTINUOUS
10
2.34416
20
0.979782
11
2.345
21
0.98037
0
LINE
8
BLACK
6
CONTINUOUS
10
2.345
20
0.98037
11
2.34701
21
0.980546
0
LINE
8
BLACK
6
CONTINUOUS
10
2.34701
20
0.980546
11
2.34867
21
0.979387
0
LINE
8
BLACK
6
CONTINUOUS
10
2.34867
20
0.979387
11
2.34919
21
0.977436
0
LINE
8
BLACK
6
CONTINUOUS
10
2.34919
20
0.977436
11
2.34834
21
0.975606
0
LINE
8
BLACK
6
CONTINUOUS
10
2.34834
20
0.975606
11
2.34646
21
0.973731
0
LINE
8
BLACK
6
CONTINUOUS
10
2.34646
20
0.973731
11
2.34562
21
0.973143
0
LINE
8
BLACK
6
CONTINUOUS
10
2.34562
20
0.973143
11
2.34545
21
0.973127
0
LINE
8
BLACK
6
CONTINUOUS
10
2.34545
20
0.973127
11
2.34531
21
0.973018
0
LINE
8
BLACK
6
CONTINUOUS
10
2.34531
20
0.973018
11
2.33968
21
0.971143
0
LINE
8
BLACK
6
CONTINUOUS
10
2.33968
20
0.971143
11
2.33881
21
0.971013
0
LINE
8
BLACK
6
CONTINUOUS
10
2.33881
20
0.971013
11
2.33875
21
0.970991
0
LINE
8
BLACK
6
CONTINUOUS
10
2.33875
20
0.970991
11
2.335
21
0.970991
0
LINE
8
BLACK
6
CONTINUOUS
10
2.335
20
0.970991
11
2.33413
21
0.971145
0
LINE
8
BLACK
6
CONTINUOUS
10
2.33413
20
0.971145
11
2.33407
21
0.971143
0
LINE
8
BLACK
6
CONTINUOUS
10
2.33407
20
0.971143
11
2.32844
21
0.973018
0
LINE
8
BLACK
6
CONTINUOUS
10
2.32844
20
0.973018
11
2.32754
21
0.973506
0
LINE
8
BLACK
6
CONTINUOUS
10
2.32754
20
0.973506
11
2.32745
21
0.973656
0
LINE
8
BLACK
6
CONTINUOUS
10
2.32745
20
0.973656
11
2.32729
21
0.973731
0
LINE
8
BLACK
6
CONTINUOUS
10
2.32729
20
0.973731
11
2.32354
21
0.977481
0
LINE
8
BLACK
6
CONTINUOUS
10
2.32354
20
0.977481
11
2.32303
21
0.978204
0
LINE
8
BLACK
6
CONTINUOUS
10
2.32303
20
0.978204
11
2.32299
21
0.978248
0
LINE
8
BLACK
6
CONTINUOUS
10
2.32299
20
0.978248
11
2.32111
21
0.981997
0
LINE
8
BLACK
6
CONTINUOUS
10
2.32111
20
0.981997
11
2.32097
21
0.982486
0
LINE
8
BLACK
6
CONTINUOUS
10
2.32097
20
0.982486
11
2.32089
21
0.982602
0
LINE
8
BLACK
6
CONTINUOUS
10
2.32089
20
0.982602
11
2.31901
21
0.990101
0
LINE
8
BLACK
6
CONTINUOUS
10
2.31901
20
0.990101
11
2.31897
21
0.990689
0
LINE
8
BLACK
6
CONTINUOUS
10
2.31897
20
0.990689
11
2.31892
21
0.990817
0
LINE
8
BLACK
6
CONTINUOUS
10
2.31892
20
0.990817
11
2.31892
21
0.996441
0
LINE
8
BLACK
6
CONTINUOUS
10
2.31892
20
0.996441
11
2.31903
21
0.997022
0
LINE
8
BLACK
6
CONTINUOUS
10
2.31903
20
0.997022
11
2.31901
21
0.997157
0
LINE
8
BLACK
6
CONTINUOUS
10
2.31901
20
0.997157
11
2.32089
21
1.00466
0
LINE
8
BLACK
6
CONTINUOUS
10
2.32089
20
1.00466
11
2.32109
21
1.00512
0
LINE
8
BLACK
6
CONTINUOUS
10
2.32109
20
1.00512
11
2.32111
21
1.00526
0
LINE
8
BLACK
6
CONTINUOUS
10
2.32111
20
1.00526
11
2.32299
21
1.00901
0
LINE
8
BLACK
6
CONTINUOUS
10
2.32299
20
1.00901
11
2.32351
21
1.00972
0
LINE
8
BLACK
6
CONTINUOUS
10
2.32351
20
1.00972
11
2.32354
21
1.00978
0
LINE
8
BLACK
6
CONTINUOUS
10
2.32354
20
1.00978
11
2.32729
21
1.01353
0
LINE
8
BLACK
6
CONTINUOUS
10
2.32729
20
1.01353
11
2.32813
21
1.01412
0
LINE
8
BLACK
6
CONTINUOUS
10
2.32813
20
1.01412
11
2.3283
21
1.01413
0
LINE
8
BLACK
6
CONTINUOUS
10
2.3283
20
1.01413
11
2.32844
21
1.01424
0
LINE
8
BLACK
6
CONTINUOUS
10
2.32844
20
1.01424
11
2.33407
21
1.01612
0
LINE
8
BLACK
6
CONTINUOUS
10
2.33407
20
1.01612
11
2.33494
21
1.01624
0
LINE
8
BLACK
6
CONTINUOUS
10
2.33494
20
1.01624
11
2.335
21
1.01627
0
LINE
8
BLACK
6
CONTINUOUS
10
2.335
20
1.01627
11
2.33875
21
1.01627
0
LINE
8
BLACK
6
CONTINUOUS
10
2.33875
20
1.01627
11
2.33962
21
1.01611
0
LINE
8
BLACK
6
CONTINUOUS
10
2.37538
20
1.00297
11
2.37552
21
1.00285
0
LINE
8
BLACK
6
CONTINUOUS
10
2.37552
20
1.00285
11
2.37569
21
1.00283
0
LINE
8
BLACK
6
CONTINUOUS
10
2.37569
20
1.00283
11
2.37944
21
1.00096
0
LINE
8
BLACK
6
CONTINUOUS
10
2.37944
20
1.00096
11
2.38015
21
1.00043
0
LINE
8
BLACK
6
CONTINUOUS
10
2.38015
20
1.00043
11
2.38021
21
1.0004
0
LINE
8
BLACK
6
CONTINUOUS
10
2.38021
20
1.0004
11
2.38208
21
0.998529
0
LINE
8
BLACK
6
CONTINUOUS
10
2.38208
20
0.998529
11
2.38259
21
0.997806
0
LINE
8
BLACK
6
CONTINUOUS
10
2.38259
20
0.997806
11
2.38264
21
0.997762
0
LINE
8
BLACK
6
CONTINUOUS
10
2.38264
20
0.997762
11
2.38451
21
0.994012
0
LINE
8
BLACK
6
CONTINUOUS
10
2.38451
20
0.994012
11
2.3848
21
0.993029
0
LINE
8
BLACK
6
CONTINUOUS
10
2.3848
20
0.993029
11
2.38476
21
0.992858
0
LINE
8
BLACK
6
CONTINUOUS
10
2.38476
20
0.992858
11
2.38482
21
0.992692
0
LINE
8
BLACK
6
CONTINUOUS
10
2.38482
20
0.992692
11
2.38482
21
0.981443
0
LINE
8
BLACK
6
CONTINUOUS
10
2.38482
20
0.981443
11
2.38464
21
0.980433
0
LINE
8
BLACK
6
CONTINUOUS
10
2.38464
20
0.980433
11
2.38453
21
0.980298
0
LINE
8
BLACK
6
CONTINUOUS
10
2.38453
20
0.980298
11
2.38451
21
0.980123
0
LINE
8
BLACK
6
CONTINUOUS
10
2.38451
20
0.980123
11
2.38264
21
0.976373
0
LINE
8
BLACK
6
CONTINUOUS
10
2.38264
20
0.976373
11
2.38211
21
0.975664
0
LINE
8
BLACK
6
CONTINUOUS
10
2.38211
20
0.975664
11
2.38208
21
0.975606
0
LINE
8
BLACK
6
CONTINUOUS
10
2.38208
20
0.975606
11
2.38021
21
0.973731
0
LINE
8
BLACK
6
CONTINUOUS
10
2.38021
20
0.973731
11
2.37948
21
0.973225
0
LINE
8
BLACK
6
CONTINUOUS
10
2.37948
20
0.973225
11
2.37944
21
0.973178
0
LINE
8
BLACK
6
CONTINUOUS
10
2.37944
20
0.973178
11
2.37569
21
0.971303
0
LINE
8
BLACK
6
CONTINUOUS
10
2.37569
20
0.971303
11
2.37471
21
0.971011
0
LINE
8
BLACK
6
CONTINUOUS
10
2.37471
20
0.971011
11
2.37454
21
0.971052
0
LINE
8
BLACK
6
CONTINUOUS
10
2.37454
20
0.971052
11
2.37437
21
0.970991
0
LINE
8
BLACK
6
CONTINUOUS
10
2.37437
20
0.970991
11
2.36875
21
0.970991
0
LINE
8
BLACK
6
CONTINUOUS
10
2.36875
20
0.970991
11
2.36774
21
0.971169
0
LINE
8
BLACK
6
CONTINUOUS
10
2.36774
20
0.971169
11
2.3676
21
0.971283
0
LINE
8
BLACK
6
CONTINUOUS
10
2.3676
20
0.971283
11
2.36743
21
0.971303
0
LINE
8
BLACK
6
CONTINUOUS
10
2.36743
20
0.971303
11
2.36368
21
0.973178
0
LINE
8
BLACK
6
CONTINUOUS
10
2.36368
20
0.973178
11
2.36297
21
0.973704
0
LINE
8
BLACK
6
CONTINUOUS
10
2.36297
20
0.973704
11
2.36291
21
0.973731
0
LINE
8
BLACK
6
CONTINUOUS
10
2.36291
20
0.973731
11
2.36103
21
0.975606
0
LINE
8
BLACK
6
CONTINUOUS
10
2.36103
20
0.975606
11
2.36053
21
0.976329
0
LINE
8
BLACK
6
CONTINUOUS
10
2.36053
20
0.976329
11
2.36048
21
0.976373
0
LINE
8
BLACK
6
CONTINUOUS
10
2.36048
20
0.976373
11
2.35861
21
0.980123
0
LINE
8
BLACK
6
CONTINUOUS
10
2.35861
20
0.980123
11
2.35831
21
0.981106
0
LINE
8
BLACK
6
CONTINUOUS
10
2.35831
20
0.981106
11
2.35835
21
0.981277
0
LINE
8
BLACK
6
CONTINUOUS
10
2.35835
20
0.981277
11
2.35829
21
0.981443
0
LINE
8
BLACK
6
CONTINUOUS
10
2.35829
20
0.981443
11
2.35829
21
0.992692
0
LINE
8
BLACK
6
CONTINUOUS
10
2.35829
20
0.992692
11
2.35847
21
0.993702
0
LINE
8
BLACK
6
CONTINUOUS
10
2.35847
20
0.993702
11
2.35859
21
0.993837
0
LINE
8
BLACK
6
CONTINUOUS
10
2.35859
20
0.993837
11
2.35861
21
0.994012
0
LINE
8
BLACK
6
CONTINUOUS
10
2.35861
20
0.994012
11
2.36048
21
0.997762
0
LINE
8
BLACK
6
CONTINUOUS
10
2.36048
20
0.997762
11
2.36101
21
0.998471
0
LINE
8
BLACK
6
CONTINUOUS
10
2.36101
20
0.998471
11
2.36103
21
0.998529
0
LINE
8
BLACK
6
CONTINUOUS
10
2.36103
20
0.998529
11
2.36291
21
1.0004
0
LINE
8
BLACK
6
CONTINUOUS
10
2.36291
20
1.0004
11
2.36363
21
1.00091
0
LINE
8
BLACK
6
CONTINUOUS
10
2.36363
20
1.00091
11
2.36368
21
1.00096
0
LINE
8
BLACK
6
CONTINUOUS
10
2.36368
20
1.00096
11
2.36743
21
1.00283
0
LINE
8
BLACK
6
CONTINUOUS
10
2.36743
20
1.00283
11
2.36841
21
1.00312
0
LINE
8
BLACK
6
CONTINUOUS
10
2.36841
20
1.00312
11
2.36858
21
1.00308
0
LINE
8
BLACK
6
CONTINUOUS
10
2.36858
20
1.00308
11
2.36875
21
1.00314
0
LINE
8
BLACK
6
CONTINUOUS
10
2.36875
20
1.00314
11
2.37437
21
1.00314
0
LINE
8
BLACK
6
CONTINUOUS
10
2.37437
20
1.00314
11
2.37538
21
1.00297
0
LINE
8
BLACK
6
CONTINUOUS
10
2.36675
20
0.995889
11
2.36555
21
0.994692
0
LINE
8
BLACK
6
CONTINUOUS
10
2.36555
20
0.994692
11
2.3642
21
0.991995
0
LINE
8
BLACK
6
CONTINUOUS
10
2.3642
20
0.991995
11
2.3642
21
0.98214
0
LINE
8
BLACK
6
CONTINUOUS
10
2.3642
20
0.98214
11
2.36555
21
0.979443
0
LINE
8
BLACK
6
CONTINUOUS
10
2.36555
20
0.979443
11
2.36675
21
0.978246
0
LINE
8
BLACK
6
CONTINUOUS
10
2.36675
20
0.978246
11
2.36944
21
0.976897
0
LINE
8
BLACK
6
CONTINUOUS
10
2.36944
20
0.976897
11
2.37367
21
0.976897
0
LINE
8
BLACK
6
CONTINUOUS
10
2.37367
20
0.976897
11
2.37637
21
0.978246
0
LINE
8
BLACK
6
CONTINUOUS
10
2.37637
20
0.978246
11
2.37757
21
0.979443
0
LINE
8
BLACK
6
CONTINUOUS
10
2.37757
20
0.979443
11
2.37892
21
0.98214
0
LINE
8
BLACK
6
CONTINUOUS
10
2.37892
20
0.98214
11
2.37892
21
0.991995
0
LINE
8
BLACK
6
CONTINUOUS
10
2.37892
20
0.991995
11
2.37757
21
0.994692
0
LINE
8
BLACK
6
CONTINUOUS
10
2.37757
20
0.994692
11
2.37637
21
0.995889
0
LINE
8
BLACK
6
CONTINUOUS
10
2.37637
20
0.995889
11
2.37367
21
0.997238
0
LINE
8
BLACK
6
CONTINUOUS
10
2.37367
20
0.997238
11
2.36944
21
0.997238
0
LINE
8
BLACK
6
CONTINUOUS
10
2.36944
20
0.997238
11
2.36675
21
0.995889
0
LINE
8
BLACK
6
CONTINUOUS
10
2.411
20
1.00297
11
2.41114
21
1.00285
0
LINE
8
BLACK
6
CONTINUOUS
10
2.41114
20
1.00285
11
2.41131
21
1.00283
0
LINE
8
BLACK
6
CONTINUOUS
10
2.41131
20
1.00283
11
2.41506
21
1.00096
0
LINE
8
BLACK
6
CONTINUOUS
10
2.41506
20
1.00096
11
2.41588
21
1.00035
0
LINE
8
BLACK
6
CONTINUOUS
10
2.41588
20
1.00035
11
2.41606
21
0.999941
0
LINE
8
BLACK
6
CONTINUOUS
10
2.41606
20
0.999941
11
2.41638
21
0.999637
0
LINE
8
BLACK
6
CONTINUOUS
10
2.41638
20
0.999637
11
2.41826
21
0.995887
0
LINE
8
BLACK
6
CONTINUOUS
10
2.41826
20
0.995887
11
2.41855
21
0.994904
0
LINE
8
BLACK
6
CONTINUOUS
10
2.41855
20
0.994904
11
2.41851
21
0.994732
0
LINE
8
BLACK
6
CONTINUOUS
10
2.41851
20
0.994732
11
2.41857
21
0.994567
0
LINE
8
BLACK
6
CONTINUOUS
10
2.41857
20
0.994567
11
2.41857
21
0.973944
0
LINE
8
BLACK
6
CONTINUOUS
10
2.41857
20
0.973944
11
2.41839
21
0.972934
0
LINE
8
BLACK
6
CONTINUOUS
10
2.41839
20
0.972934
11
2.41709
21
0.971387
0
LINE
8
BLACK
6
CONTINUOUS
10
2.41709
20
0.971387
11
2.4151
21
0.971036
0
LINE
8
BLACK
6
CONTINUOUS
10
2.4151
20
0.971036
11
2.41397
21
0.971693
0
LINE
8
BLACK
6
CONTINUOUS
10
2.41397
20
0.971693
11
2.41319
21
0.971303
0
LINE
8
BLACK
6
CONTINUOUS
10
2.41319
20
0.971303
11
2.4122
21
0.971011
0
LINE
8
BLACK
6
CONTINUOUS
10
2.4122
20
0.971011
11
2.41203
21
0.971052
0
LINE
8
BLACK
6
CONTINUOUS
10
2.41203
20
0.971052
11
2.41187
21
0.970991
0
LINE
8
BLACK
6
CONTINUOUS
10
2.41187
20
0.970991
11
2.40249
21
0.970991
0
LINE
8
BLACK
6
CONTINUOUS
10
2.40249
20
0.970991
11
2.40148
21
0.971169
0
LINE
8
BLACK
6
CONTINUOUS
10
2.40148
20
0.971169
11
2.40135
21
0.971283
0
LINE
8
BLACK
6
CONTINUOUS
10
2.40135
20
0.971283
11
2.40117
21
0.971303
0
LINE
8
BLACK
6
CONTINUOUS
10
2.40117
20
0.971303
11
2.39742
21
0.973178
0
LINE
8
BLACK
6
CONTINUOUS
10
2.39742
20
0.973178
11
2.3966
21
0.973789
0
LINE
8
BLACK
6
CONTINUOUS
10
2.3966
20
0.973789
11
2.39642
21
0.974194
0
LINE
8
BLACK
6
CONTINUOUS
10
2.39642
20
0.974194
11
2.3961
21
0.974498
0
LINE
8
BLACK
6
CONTINUOUS
10
2.3961
20
0.974498
11
2.39423
21
0.978248
0
LINE
8
BLACK
6
CONTINUOUS
10
2.39423
20
0.978248
11
2.39393
21
0.979231
0
LINE
8
BLACK
6
CONTINUOUS
10
2.39393
20
0.979231
11
2.39397
21
0.979403
0
LINE
8
BLACK
6
CONTINUOUS
10
2.39397
20
0.979403
11
2.39391
21
0.979568
0
LINE
8
BLACK
6
CONTINUOUS
10
2.39391
20
0.979568
11
2.39391
21
0.983318
0
LINE
8
BLACK
6
CONTINUOUS
10
2.39391
20
0.983318
11
2.39409
21
0.984328
0
LINE
8
BLACK
6
CONTINUOUS
10
2.39409
20
0.984328
11
2.39421
21
0.984463
0
LINE
8
BLACK
6
CONTINUOUS
10
2.39421
20
0.984463
11
2.39423
21
0.984639
0
LINE
8
BLACK
6
CONTINUOUS
10
2.39423
20
0.984639
11
2.3961
21
0.988388
0
LINE
8
BLACK
6
CONTINUOUS
10
2.3961
20
0.988388
11
2.39671
21
0.989212
0
LINE
8
BLACK
6
CONTINUOUS
10
2.39671
20
0.989212
11
2.39712
21
0.989388
0
LINE
8
BLACK
6
CONTINUOUS
10
2.39712
20
0.989388
11
2.39742
21
0.989709
0
LINE
8
BLACK
6
CONTINUOUS
10
2.39742
20
0.989709
11
2.40117
21
0.991583
0
LINE
8
BLACK
6
CONTINUOUS
10
2.40117
20
0.991583
11
2.40215
21
0.991876
0
LINE
8
BLACK
6
CONTINUOUS
10
2.40215
20
0.991876
11
2.40233
21
0.991835
0
LINE
8
BLACK
6
CONTINUOUS
10
2.40233
20
0.991835
11
2.40249
21
0.991895
0
LINE
8
BLACK
6
CONTINUOUS
10
2.40249
20
0.991895
11
2.41117
21
0.991895
0
LINE
8
BLACK
6
CONTINUOUS
10
2.41117
20
0.991895
11
2.41266
21
0.992642
0
LINE
8
BLACK
6
CONTINUOUS
10
2.41266
20
0.992642
11
2.41266
21
0.99387
0
LINE
8
BLACK
6
CONTINUOUS
10
2.41266
20
0.99387
11
2.41154
21
0.996115
0
LINE
8
BLACK
6
CONTINUOUS
10
2.41154
20
0.996115
11
2.40929
21
0.997238
0
LINE
8
BLACK
6
CONTINUOUS
10
2.40929
20
0.997238
11
2.40319
21
0.997238
0
LINE
8
BLACK
6
CONTINUOUS
10
2.40319
20
0.997238
11
2.40006
21
0.995675
0
LINE
8
BLACK
6
CONTINUOUS
10
2.40006
20
0.995675
11
2.39908
21
0.995383
0
LINE
8
BLACK
6
CONTINUOUS
10
2.39908
20
0.995383
11
2.39712
21
0.995852
0
LINE
8
BLACK
6
CONTINUOUS
10
2.39712
20
0.995852
11
2.39591
21
0.997474
0
LINE
8
BLACK
6
CONTINUOUS
10
2.39591
20
0.997474
11
2.39603
21
0.99949
0
LINE
8
BLACK
6
CONTINUOUS
10
2.39603
20
0.99949
11
2.39742
21
1.00096
0
LINE
8
BLACK
6
CONTINUOUS
10
2.39742
20
1.00096
11
2.40117
21
1.00283
0
LINE
8
BLACK
6
CONTINUOUS
10
2.40117
20
1.00283
11
2.40215
21
1.00312
0
LINE
8
BLACK
6
CONTINUOUS
10
2.40215
20
1.00312
11
2.40233
21
1.00308
0
LINE
8
BLACK
6
CONTINUOUS
10
2.40233
20
1.00308
11
2.40249
21
1.00314
0
LINE
8
BLACK
6
CONTINUOUS
10
2.40249
20
1.00314
11
2.40999
21
1.00314
0
LINE
8
BLACK
6
CONTINUOUS
10
2.40999
20
1.00314
11
2.411
21
1.00297
0
LINE
8
BLACK
6
CONTINUOUS
10
2.4122
20
0.986009
11
2.41203
21
0.98605
0
LINE
8
BLACK
6
CONTINUOUS
10
2.41203
20
0.98605
11
2.41187
21
0.98599
0
LINE
8
BLACK
6
CONTINUOUS
10
2.41187
20
0.98599
11
2.40319
21
0.98599
0
LINE
8
BLACK
6
CONTINUOUS
10
2.40319
20
0.98599
11
2.40094
21
0.984867
0
LINE
8
BLACK
6
CONTINUOUS
10
2.40094
20
0.984867
11
2.39982
21
0.982621
0
LINE
8
BLACK
6
CONTINUOUS
10
2.39982
20
0.982621
11
2.39982
21
0.980266
0
LINE
8
BLACK
6
CONTINUOUS
10
2.39982
20
0.980266
11
2.40094
21
0.97802
0
LINE
8
BLACK
6
CONTINUOUS
10
2.40094
20
0.97802
11
2.40319
21
0.976897
0
LINE
8
BLACK
6
CONTINUOUS
10
2.40319
20
0.976897
11
2.41117
21
0.976897
0
LINE
8
BLACK
6
CONTINUOUS
10
2.41117
20
0.976897
11
2.41266
21
0.977644
0
LINE
8
BLACK
6
CONTINUOUS
10
2.41266
20
0.977644
11
2.41266
21
0.986146
0
LINE
8
BLACK
6
CONTINUOUS
10
2.41266
20
0.986146
11
2.4122
21
0.986009
0
LINE
8
BLACK
6
CONTINUOUS
10
2.49724
20
1.00297
11
2.49737
21
1.00285
0
LINE
8
BLACK
6
CONTINUOUS
10
2.49737
20
1.00285
11
2.49755
21
1.00283
0
LINE
8
BLACK
6
CONTINUOUS
10
2.49755
20
1.00283
11
2.5013
21
1.00096
0
LINE
8
BLACK
6
CONTINUOUS
10
2.5013
20
1.00096
11
2.50212
21
1.00035
0
LINE
8
BLACK
6
CONTINUOUS
10
2.50212
20
1.00035
11
2.5023
21
0.999941
0
LINE
8
BLACK
6
CONTINUOUS
10
2.5023
20
0.999941
11
2.50262
21
0.999637
0
LINE
8
BLACK
6
CONTINUOUS
10
2.50262
20
0.999637
11
2.5045
21
0.995887
0
LINE
8
BLACK
6
CONTINUOUS
10
2.5045
20
0.995887
11
2.50479
21
0.994904
0
LINE
8
BLACK
6
CONTINUOUS
10
2.50479
20
0.994904
11
2.50475
21
0.994732
0
LINE
8
BLACK
6
CONTINUOUS
10
2.50475
20
0.994732
11
2.50481
21
0.994567
0
LINE
8
BLACK
6
CONTINUOUS
10
2.50481
20
0.994567
11
2.50481
21
0.973944
0
LINE
8
BLACK
6
CONTINUOUS
10
2.50481
20
0.973944
11
2.50463
21
0.972934
0
LINE
8
BLACK
6
CONTINUOUS
10
2.50463
20
0.972934
11
2.50333
21
0.971387
0
LINE
8
BLACK
6
CONTINUOUS
10
2.50333
20
0.971387
11
2.50134
21
0.971036
0
LINE
8
BLACK
6
CONTINUOUS
10
2.50134
20
0.971036
11
2.5002
21
0.971693
0
LINE
8
BLACK
6
CONTINUOUS
10
2.5002
20
0.971693
11
2.49943
21
0.971303
0
LINE
8
BLACK
6
CONTINUOUS
10
2.49943
20
0.971303
11
2.49844
21
0.971011
0
LINE
8
BLACK
6
CONTINUOUS
10
2.49844
20
0.971011
11
2.49827
21
0.971052
0
LINE
8
BLACK
6
CONTINUOUS
10
2.49827
20
0.971052
11
2.4981
21
0.970991
0
LINE
8
BLACK
6
CONTINUOUS
10
2.4981
20
0.970991
11
2.48873
21
0.970991
0
LINE
8
BLACK
6
CONTINUOUS
10
2.48873
20
0.970991
11
2.48772
21
0.971169
0
LINE
8
BLACK
6
CONTINUOUS
10
2.48772
20
0.971169
11
2.48759
21
0.971283
0
LINE
8
BLACK
6
CONTINUOUS
10
2.48759
20
0.971283
11
2.48741
21
0.971303
0
LINE
8
BLACK
6
CONTINUOUS
10
2.48741
20
0.971303
11
2.48366
21
0.973178
0
LINE
8
BLACK
6
CONTINUOUS
10
2.48366
20
0.973178
11
2.48284
21
0.973789
0
LINE
8
BLACK
6
CONTINUOUS
10
2.48284
20
0.973789
11
2.48266
21
0.974194
0
LINE
8
BLACK
6
CONTINUOUS
10
2.48266
20
0.974194
11
2.48234
21
0.974498
0
LINE
8
BLACK
6
CONTINUOUS
10
2.48234
20
0.974498
11
2.48047
21
0.978248
0
LINE
8
BLACK
6
CONTINUOUS
10
2.48047
20
0.978248
11
2.48017
21
0.979231
0
LINE
8
BLACK
6
CONTINUOUS
10
2.48017
20
0.979231
11
2.48021
21
0.979403
0
LINE
8
BLACK
6
CONTINUOUS
10
2.48021
20
0.979403
11
2.48015
21
0.979568
0
LINE
8
BLACK
6
CONTINUOUS
10
2.48015
20
0.979568
11
2.48015
21
0.983318
0
LINE
8
BLACK
6
CONTINUOUS
10
2.48015
20
0.983318
11
2.48033
21
0.984328
0
LINE
8
BLACK
6
CONTINUOUS
10
2.48033
20
0.984328
11
2.48045
21
0.984463
0
LINE
8
BLACK
6
CONTINUOUS
10
2.48045
20
0.984463
11
2.48047
21
0.984639
0
LINE
8
BLACK
6
CONTINUOUS
10
2.48047
20
0.984639
11
2.48234
21
0.988388
0
LINE
8
BLACK
6
CONTINUOUS
10
2.48234
20
0.988388
11
2.48295
21
0.989212
0
LINE
8
BLACK
6
CONTINUOUS
10
2.48295
20
0.989212
11
2.48336
21
0.989388
0
LINE
8
BLACK
6
CONTINUOUS
10
2.48336
20
0.989388
11
2.48366
21
0.989709
0
LINE
8
BLACK
6
CONTINUOUS
10
2.48366
20
0.989709
11
2.48741
21
0.991583
0
LINE
8
BLACK
6
CONTINUOUS
10
2.48741
20
0.991583
11
2.48839
21
0.991876
0
LINE
8
BLACK
6
CONTINUOUS
10
2.48839
20
0.991876
11
2.48856
21
0.991835
0
LINE
8
BLACK
6
CONTINUOUS
10
2.48856
20
0.991835
11
2.48873
21
0.991895
0
LINE
8
BLACK
6
CONTINUOUS
10
2.48873
20
0.991895
11
2.49741
21
0.991895
0
LINE
8
BLACK
6
CONTINUOUS
10
2.49741
20
0.991895
11
2.4989
21
0.992642
0
LINE
8
BLACK
6
CONTINUOUS
10
2.4989
20
0.992642
11
2.4989
21
0.99387
0
LINE
8
BLACK
6
CONTINUOUS
10
2.4989
20
0.99387
11
2.49778
21
0.996115
0
LINE
8
BLACK
6
CONTINUOUS
10
2.49778
20
0.996115
11
2.49553
21
0.997238
0
LINE
8
BLACK
6
CONTINUOUS
10
2.49553
20
0.997238
11
2.48943
21
0.997238
0
LINE
8
BLACK
6
CONTINUOUS
10
2.48943
20
0.997238
11
2.4863
21
0.995675
0
LINE
8
BLACK
6
CONTINUOUS
10
2.4863
20
0.995675
11
2.48532
21
0.995383
0
LINE
8
BLACK
6
CONTINUOUS
10
2.48532
20
0.995383
11
2.48335
21
0.995852
0
LINE
8
BLACK
6
CONTINUOUS
10
2.48335
20
0.995852
11
2.48215
21
0.997474
0
LINE
8
BLACK
6
CONTINUOUS
10
2.48215
20
0.997474
11
2.48227
21
0.99949
0
LINE
8
BLACK
6
CONTINUOUS
10
2.48227
20
0.99949
11
2.48366
21
1.00096
0
LINE
8
BLACK
6
CONTINUOUS
10
2.48366
20
1.00096
11
2.48741
21
1.00283
0
LINE
8
BLACK
6
CONTINUOUS
10
2.48741
20
1.00283
11
2.48839
21
1.00312
0
LINE
8
BLACK
6
CONTINUOUS
10
2.48839
20
1.00312
11
2.48856
21
1.00308
0
LINE
8
BLACK
6
CONTINUOUS
10
2.48856
20
1.00308
11
2.48873
21
1.00314
0
LINE
8
BLACK
6
CONTINUOUS
10
2.48873
20
1.00314
11
2.49623
21
1.00314
0
LINE
8
BLACK
6
CONTINUOUS
10
2.49623
20
1.00314
11
2.49724
21
1.00297
0
LINE
8
BLACK
6
CONTINUOUS
10
2.49844
20
0.986009
11
2.49827
21
0.98605
0
LINE
8
BLACK
6
CONTINUOUS
10
2.49827
20
0.98605
11
2.4981
21
0.98599
0
LINE
8
BLACK
6
CONTINUOUS
10
2.4981
20
0.98599
11
2.48943
21
0.98599
0
LINE
8
BLACK
6
CONTINUOUS
10
2.48943
20
0.98599
11
2.48718
21
0.984867
0
LINE
8
BLACK
6
CONTINUOUS
10
2.48718
20
0.984867
11
2.48606
21
0.982621
0
LINE
8
BLACK
6
CONTINUOUS
10
2.48606
20
0.982621
11
2.48606
21
0.980266
0
LINE
8
BLACK
6
CONTINUOUS
10
2.48606
20
0.980266
11
2.48718
21
0.97802
0
LINE
8
BLACK
6
CONTINUOUS
10
2.48718
20
0.97802
11
2.48943
21
0.976897
0
LINE
8
BLACK
6
CONTINUOUS
10
2.48943
20
0.976897
11
2.49741
21
0.976897
0
LINE
8
BLACK
6
CONTINUOUS
10
2.49741
20
0.976897
11
2.4989
21
0.977644
0
LINE
8
BLACK
6
CONTINUOUS
10
2.4989
20
0.977644
11
2.4989
21
0.986146
0
LINE
8
BLACK
6
CONTINUOUS
10
2.4989
20
0.986146
11
2.49844
21
0.986009
0
LINE
8
BLACK
6
CONTINUOUS
10
2.45344
20
1.00216
11
2.45419
21
1.00029
0
LINE
8
BLACK
6
CONTINUOUS
10
2.45419
20
1.00029
11
2.45356
21
0.998367
0
LINE
8
BLACK
6
CONTINUOUS
10
2.45356
20
0.998367
11
2.44468
21
0.987068
0
LINE
8
BLACK
6
CONTINUOUS
10
2.44468
20
0.987068
11
2.45356
21
0.975768
0
LINE
8
BLACK
6
CONTINUOUS
10
2.45356
20
0.975768
11
2.45404
21
0.974864
0
LINE
8
BLACK
6
CONTINUOUS
10
2.45404
20
0.974864
11
2.45398
21
0.972846
0
LINE
8
BLACK
6
CONTINUOUS
10
2.45398
20
0.972846
11
2.45263
21
0.971341
0
LINE
8
BLACK
6
CONTINUOUS
10
2.45263
20
0.971341
11
2.45063
21
0.971054
0
LINE
8
BLACK
6
CONTINUOUS
10
2.45063
20
0.971054
11
2.44891
21
0.97212
0
LINE
8
BLACK
6
CONTINUOUS
10
2.44891
20
0.97212
11
2.44092
21
0.982288
0
LINE
8
BLACK
6
CONTINUOUS
10
2.44092
20
0.982288
11
2.43293
21
0.97212
0
LINE
8
BLACK
6
CONTINUOUS
10
2.43293
20
0.97212
11
2.43217
21
0.971436
0
LINE
8
BLACK
6
CONTINUOUS
10
2.43217
20
0.971436
11
2.43019
21
0.971021
0
LINE
8
BLACK
6
CONTINUOUS
10
2.43019
20
0.971021
11
2.42841
21
0.971974
0
LINE
8
BLACK
6
CONTINUOUS
10
2.42841
20
0.971974
11
2.42766
21
0.973849
0
LINE
8
BLACK
6
CONTINUOUS
10
2.42766
20
0.973849
11
2.42829
21
0.975768
0
LINE
8
BLACK
6
CONTINUOUS
10
2.42829
20
0.975768
11
2.43717
21
0.987068
0
LINE
8
BLACK
6
CONTINUOUS
10
2.43717
20
0.987068
11
2.42829
21
0.998367
0
LINE
8
BLACK
6
CONTINUOUS
10
2.42829
20
0.998367
11
2.42781
21
0.999271
0
LINE
8
BLACK
6
CONTINUOUS
10
2.42781
20
0.999271
11
2.42787
21
1.00129
0
LINE
8
BLACK
6
CONTINUOUS
10
2.42787
20
1.00129
11
2.42922
21
1.00279
0
LINE
8
BLACK
6
CONTINUOUS
10
2.42922
20
1.00279
11
2.43122
21
1.00308
0
LINE
8
BLACK
6
CONTINUOUS
10
2.43122
20
1.00308
11
2.43293
21
1.00202
0
LINE
8
BLACK
6
CONTINUOUS
10
2.43293
20
1.00202
11
2.44092
21
0.991847
0
LINE
8
BLACK
6
CONTINUOUS
10
2.44092
20
0.991847
11
2.44891
21
1.00202
0
LINE
8
BLACK
6
CONTINUOUS
10
2.44891
20
1.00202
11
2.44968
21
1.0027
0
LINE
8
BLACK
6
CONTINUOUS
10
2.44968
20
1.0027
11
2.45165
21
1.00311
0
LINE
8
BLACK
6
CONTINUOUS
10
2.45165
20
1.00311
11
2.45344
21
1.00216
0
LINE
8
BLACK
6
CONTINUOUS
10
2.23477
20
1.00297
11
2.23491
21
1.00285
0
LINE
8
BLACK
6
CONTINUOUS
10
2.23491
20
1.00285
11
2.23508
21
1.00283
0
LINE
8
BLACK
6
CONTINUOUS
10
2.23508
20
1.00283
11
2.23883
21
1.00096
0
LINE
8
BLACK
6
CONTINUOUS
10
2.23883
20
1.00096
11
2.23966
21
1.00035
0
LINE
8
BLACK
6
CONTINUOUS
10
2.23966
20
1.00035
11
2.23983
21
0.999941
0
LINE
8
BLACK
6
CONTINUOUS
10
2.23983
20
0.999941
11
2.24015
21
0.999637
0
LINE
8
BLACK
6
CONTINUOUS
10
2.24015
20
0.999637
11
2.24203
21
0.995887
0
LINE
8
BLACK
6
CONTINUOUS
10
2.24203
20
0.995887
11
2.24232
21
0.994904
0
LINE
8
BLACK
6
CONTINUOUS
10
2.24232
20
0.994904
11
2.24228
21
0.994732
0
LINE
8
BLACK
6
CONTINUOUS
10
2.24228
20
0.994732
11
2.24234
21
0.994567
0
LINE
8
BLACK
6
CONTINUOUS
10
2.24234
20
0.994567
11
2.24234
21
0.973944
0
LINE
8
BLACK
6
CONTINUOUS
10
2.24234
20
0.973944
11
2.24216
21
0.972934
0
LINE
8
BLACK
6
CONTINUOUS
10
2.24216
20
0.972934
11
2.24086
21
0.971387
0
LINE
8
BLACK
6
CONTINUOUS
10
2.24086
20
0.971387
11
2.23887
21
0.971036
0
LINE
8
BLACK
6
CONTINUOUS
10
2.23887
20
0.971036
11
2.23712
21
0.972046
0
LINE
8
BLACK
6
CONTINUOUS
10
2.23712
20
0.972046
11
2.23643
21
0.973944
0
LINE
8
BLACK
6
CONTINUOUS
10
2.23643
20
0.973944
11
2.23643
21
0.99387
0
LINE
8
BLACK
6
CONTINUOUS
10
2.23643
20
0.99387
11
2.23531
21
0.996115
0
LINE
8
BLACK
6
CONTINUOUS
10
2.23531
20
0.996115
11
2.23307
21
0.997238
0
LINE
8
BLACK
6
CONTINUOUS
10
2.23307
20
0.997238
11
2.22884
21
0.997238
0
LINE
8
BLACK
6
CONTINUOUS
10
2.22884
20
0.997238
11
2.22614
21
0.995889
0
LINE
8
BLACK
6
CONTINUOUS
10
2.22614
20
0.995889
11
2.22547
21
0.995218
0
LINE
8
BLACK
6
CONTINUOUS
10
2.22547
20
0.995218
11
2.22547
21
0.973944
0
LINE
8
BLACK
6
CONTINUOUS
10
2.22547
20
0.973944
11
2.22529
21
0.972934
0
LINE
8
BLACK
6
CONTINUOUS
10
2.22529
20
0.972934
11
2.22399
21
0.971387
0
LINE
8
BLACK
6
CONTINUOUS
10
2.22399
20
0.971387
11
2.222
21
0.971036
0
LINE
8
BLACK
6
CONTINUOUS
10
2.222
20
0.971036
11
2.22025
21
0.972046
0
LINE
8
BLACK
6
CONTINUOUS
10
2.22025
20
0.972046
11
2.21956
21
0.973944
0
LINE
8
BLACK
6
CONTINUOUS
10
2.21956
20
0.973944
11
2.21956
21
1.00019
0
LINE
8
BLACK
6
CONTINUOUS
10
2.21956
20
1.00019
11
2.21974
21
1.0012
0
LINE
8
BLACK
6
CONTINUOUS
10
2.21974
20
1.0012
11
2.22104
21
1.00275
0
LINE
8
BLACK
6
CONTINUOUS
10
2.22104
20
1.00275
11
2.22303
21
1.0031
0
LINE
8
BLACK
6
CONTINUOUS
10
2.22303
20
1.0031
11
2.22478
21
1.00209
0
LINE
8
BLACK
6
CONTINUOUS
10
2.22478
20
1.00209
11
2.22486
21
1.00185
0
LINE
8
BLACK
6
CONTINUOUS
10
2.22486
20
1.00185
11
2.22682
21
1.00283
0
LINE
8
BLACK
6
CONTINUOUS
10
2.22682
20
1.00283
11
2.2278
21
1.00312
0
LINE
8
BLACK
6
CONTINUOUS
10
2.2278
20
1.00312
11
2.22797
21
1.00308
0
LINE
8
BLACK
6
CONTINUOUS
10
2.22797
20
1.00308
11
2.22814
21
1.00314
0
LINE
8
BLACK
6
CONTINUOUS
10
2.22814
20
1.00314
11
2.23376
21
1.00314
0
LINE
8
BLACK
6
CONTINUOUS
10
2.23376
20
1.00314
11
2.23477
21
1.00297
0
LINE
8
BLACK
6
CONTINUOUS
10
2.27039
20
1.00297
11
2.27053
21
1.00285
0
LINE
8
BLACK
6
CONTINUOUS
10
2.27053
20
1.00285
11
2.2707
21
1.00283
0
LINE
8
BLACK
6
CONTINUOUS
10
2.2707
20
1.00283
11
2.27445
21
1.00096
0
LINE
8
BLACK
6
CONTINUOUS
10
2.27445
20
1.00096
11
2.27528
21
1.00035
0
LINE
8
BLACK
6
CONTINUOUS
10
2.27528
20
1.00035
11
2.27545
21
0.999941
0
LINE
8
BLACK
6
CONTINUOUS
10
2.27545
20
0.999941
11
2.27577
21
0.999637
0
LINE
8
BLACK
6
CONTINUOUS
10
2.27577
20
0.999637
11
2.27765
21
0.995887
0
LINE
8
BLACK
6
CONTINUOUS
10
2.27765
20
0.995887
11
2.27794
21
0.994904
0
LINE
8
BLACK
6
CONTINUOUS
10
2.27794
20
0.994904
11
2.2779
21
0.994732
0
LINE
8
BLACK
6
CONTINUOUS
10
2.2779
20
0.994732
11
2.27796
21
0.994567
0
LINE
8
BLACK
6
CONTINUOUS
10
2.27796
20
0.994567
11
2.27796
21
0.973944
0
LINE
8
BLACK
6
CONTINUOUS
10
2.27796
20
0.973944
11
2.27778
21
0.972934
0
LINE
8
BLACK
6
CONTINUOUS
10
2.27778
20
0.972934
11
2.27648
21
0.971387
0
LINE
8
BLACK
6
CONTINUOUS
10
2.27648
20
0.971387
11
2.27449
21
0.971036
0
LINE
8
BLACK
6
CONTINUOUS
10
2.27449
20
0.971036
11
2.27275
21
0.972046
0
LINE
8
BLACK
6
CONTINUOUS
10
2.27275
20
0.972046
11
2.27205
21
0.973944
0
LINE
8
BLACK
6
CONTINUOUS
10
2.27205
20
0.973944
11
2.27205
21
0.99387
0
LINE
8
BLACK
6
CONTINUOUS
10
2.27205
20
0.99387
11
2.27093
21
0.996115
0
LINE
8
BLACK
6
CONTINUOUS
10
2.27093
20
0.996115
11
2.26869
21
0.997238
0
LINE
8
BLACK
6
CONTINUOUS
10
2.26869
20
0.997238
11
2.26446
21
0.997238
0
LINE
8
BLACK
6
CONTINUOUS
10
2.26446
20
0.997238
11
2.26176
21
0.995889
0
LINE
8
BLACK
6
CONTINUOUS
10
2.26176
20
0.995889
11
2.26109
21
0.995218
0
LINE
8
BLACK
6
CONTINUOUS
10
2.26109
20
0.995218
11
2.26109
21
0.973944
0
LINE
8
BLACK
6
CONTINUOUS
10
2.26109
20
0.973944
11
2.26091
21
0.972934
0
LINE
8
BLACK
6
CONTINUOUS
10
2.26091
20
0.972934
11
2.25961
21
0.971387
0
LINE
8
BLACK
6
CONTINUOUS
10
2.25961
20
0.971387
11
2.25762
21
0.971036
0
LINE
8
BLACK
6
CONTINUOUS
10
2.25762
20
0.971036
11
2.25587
21
0.972046
0
LINE
8
BLACK
6
CONTINUOUS
10
2.25587
20
0.972046
11
2.25518
21
0.973944
0
LINE
8
BLACK
6
CONTINUOUS
10
2.25518
20
0.973944
11
2.25518
21
1.00019
0
LINE
8
BLACK
6
CONTINUOUS
10
2.25518
20
1.00019
11
2.25536
21
1.0012
0
LINE
8
BLACK
6
CONTINUOUS
10
2.25536
20
1.0012
11
2.25666
21
1.00275
0
LINE
8
BLACK
6
CONTINUOUS
10
2.25666
20
1.00275
11
2.25865
21
1.0031
0
LINE
8
BLACK
6
CONTINUOUS
10
2.25865
20
1.0031
11
2.2604
21
1.00209
0
LINE
8
BLACK
6
CONTINUOUS
10
2.2604
20
1.00209
11
2.26048
21
1.00185
0
LINE
8
BLACK
6
CONTINUOUS
10
2.26048
20
1.00185
11
2.26244
21
1.00283
0
LINE
8
BLACK
6
CONTINUOUS
10
2.26244
20
1.00283
11
2.26342
21
1.00312
0
LINE
8
BLACK
6
CONTINUOUS
10
2.26342
20
1.00312
11
2.26359
21
1.00308
0
LINE
8
BLACK
6
CONTINUOUS
10
2.26359
20
1.00308
11
2.26376
21
1.00314
0
LINE
8
BLACK
6
CONTINUOUS
10
2.26376
20
1.00314
11
2.26938
21
1.00314
0
LINE
8
BLACK
6
CONTINUOUS
10
2.26938
20
1.00314
11
2.27039
21
1.00297
0
LINE
8
BLACK
6
CONTINUOUS
10
2.4685
20
1.00209
11
2.46919
21
1.00019
0
LINE
8
BLACK
6
CONTINUOUS
10
2.46919
20
1.00019
11
2.46919
21
0.973944
0
LINE
8
BLACK
6
CONTINUOUS
10
2.46919
20
0.973944
11
2.46901
21
0.972934
0
LINE
8
BLACK
6
CONTINUOUS
10
2.46901
20
0.972934
11
2.46771
21
0.971387
0
LINE
8
BLACK
6
CONTINUOUS
10
2.46771
20
0.971387
11
2.46572
21
0.971036
0
LINE
8
BLACK
6
CONTINUOUS
10
2.46572
20
0.971036
11
2.46397
21
0.972046
0
LINE
8
BLACK
6
CONTINUOUS
10
2.46397
20
0.972046
11
2.46328
21
0.973944
0
LINE
8
BLACK
6
CONTINUOUS
10
2.46328
20
0.973944
11
2.46328
21
1.00019
0
LINE
8
BLACK
6
CONTINUOUS
10
2.46328
20
1.00019
11
2.46346
21
1.0012
0
LINE
8
BLACK
6
CONTINUOUS
10
2.46346
20
1.0012
11
2.46476
21
1.00275
0
LINE
8
BLACK
6
CONTINUOUS
10
2.46476
20
1.00275
11
2.46675
21
1.0031
0
LINE
8
BLACK
6
CONTINUOUS
10
2.46675
20
1.0031
11
2.4685
21
1.00209
0
LINE
8
BLACK
6
CONTINUOUS
10
2.52286
20
1.01521
11
2.52355
21
1.01331
0
LINE
8
BLACK
6
CONTINUOUS
10
2.52355
20
1.01331
11
2.52355
21
0.980266
0
LINE
8
BLACK
6
CONTINUOUS
10
2.52355
20
0.980266
11
2.52468
21
0.97802
0
LINE
8
BLACK
6
CONTINUOUS
10
2.52468
20
0.97802
11
2.52755
21
0.976585
0
LINE
8
BLACK
6
CONTINUOUS
10
2.52755
20
0.976585
11
2.52837
21
0.975974
0
LINE
8
BLACK
6
CONTINUOUS
10
2.52837
20
0.975974
11
2.52917
21
0.974121
0
LINE
8
BLACK
6
CONTINUOUS
10
2.52917
20
0.974121
11
2.5286
21
0.972185
0
LINE
8
BLACK
6
CONTINUOUS
10
2.5286
20
0.972185
11
2.52691
21
0.971072
0
LINE
8
BLACK
6
CONTINUOUS
10
2.52691
20
0.971072
11
2.52491
21
0.971303
0
LINE
8
BLACK
6
CONTINUOUS
10
2.52491
20
0.971303
11
2.52116
21
0.973178
0
LINE
8
BLACK
6
CONTINUOUS
10
2.52116
20
0.973178
11
2.52033
21
0.973789
0
LINE
8
BLACK
6
CONTINUOUS
10
2.52033
20
0.973789
11
2.52016
21
0.974194
0
LINE
8
BLACK
6
CONTINUOUS
10
2.52016
20
0.974194
11
2.51984
21
0.974498
0
LINE
8
BLACK
6
CONTINUOUS
10
2.51984
20
0.974498
11
2.51796
21
0.978248
0
LINE
8
BLACK
6
CONTINUOUS
10
2.51796
20
0.978248
11
2.51767
21
0.979231
0
LINE
8
BLACK
6
CONTINUOUS
10
2.51767
20
0.979231
11
2.51771
21
0.979403
0
LINE
8
BLACK
6
CONTINUOUS
10
2.51771
20
0.979403
11
2.51765
21
0.979568
0
LINE
8
BLACK
6
CONTINUOUS
10
2.51765
20
0.979568
11
2.51765
21
1.01331
0
LINE
8
BLACK
6
CONTINUOUS
10
2.51765
20
1.01331
11
2.51783
21
1.01432
0
LINE
8
BLACK
6
CONTINUOUS
10
2.51783
20
1.01432
11
2.51913
21
1.01587
0
LINE
8
BLACK
6
CONTINUOUS
10
2.51913
20
1.01587
11
2.52111
21
1.01622
0
LINE
8
BLACK
6
CONTINUOUS
10
2.52111
20
1.01622
11
2.52286
21
1.01521
0
LINE
8
BLACK
6
CONTINUOUS
10
2.46661
20
1.0162
11
2.46675
21
1.01622
0
LINE
8
BLACK
6
CONTINUOUS
10
2.46675
20
1.01622
11
2.46686
21
1.01615
0
LINE
8
BLACK
6
CONTINUOUS
10
2.46686
20
1.01615
11
2.467
21
1.01617
0
LINE
8
BLACK
6
CONTINUOUS
10
2.467
20
1.01617
11
2.46763
21
1.01573
0
LINE
8
BLACK
6
CONTINUOUS
10
2.46763
20
1.01573
11
2.46832
21
1.0154
0
LINE
8
BLACK
6
CONTINUOUS
10
2.46832
20
1.0154
11
2.4702
21
1.01353
0
LINE
8
BLACK
6
CONTINUOUS
10
2.4702
20
1.01353
11
2.47042
21
1.01321
0
LINE
8
BLACK
6
CONTINUOUS
10
2.47042
20
1.01321
11
2.47053
21
1.01313
0
LINE
8
BLACK
6
CONTINUOUS
10
2.47053
20
1.01313
11
2.47056
21
1.01301
0
LINE
8
BLACK
6
CONTINUOUS
10
2.47056
20
1.01301
11
2.47078
21
1.01269
0
LINE
8
BLACK
6
CONTINUOUS
10
2.47078
20
1.01269
11
2.47085
21
1.01192
0
LINE
8
BLACK
6
CONTINUOUS
10
2.47085
20
1.01192
11
2.47105
21
1.01118
0
LINE
8
BLACK
6
CONTINUOUS
10
2.47105
20
1.01118
11
2.47094
21
1.01094
0
LINE
8
BLACK
6
CONTINUOUS
10
2.47094
20
1.01094
11
2.47096
21
1.01068
0
LINE
8
BLACK
6
CONTINUOUS
10
2.47096
20
1.01068
11
2.47052
21
1.01005
0
LINE
8
BLACK
6
CONTINUOUS
10
2.47052
20
1.01005
11
2.4702
21
1.00935
0
LINE
8
BLACK
6
CONTINUOUS
10
2.4702
20
1.00935
11
2.46832
21
1.00748
0
LINE
8
BLACK
6
CONTINUOUS
10
2.46832
20
1.00748
11
2.468
21
1.00725
0
LINE
8
BLACK
6
CONTINUOUS
10
2.468
20
1.00725
11
2.46793
21
1.00715
0
LINE
8
BLACK
6
CONTINUOUS
10
2.46793
20
1.00715
11
2.4678
21
1.00711
0
LINE
8
BLACK
6
CONTINUOUS
10
2.4678
20
1.00711
11
2.46779
21
1.00711
0
LINE
8
BLACK
6
CONTINUOUS
10
2.46779
20
1.00711
11
2.46771
21
1.00701
0
LINE
8
BLACK
6
CONTINUOUS
10
2.46771
20
1.00701
11
2.46763
21
1.00699
0
LINE
8
BLACK
6
CONTINUOUS
10
2.46763
20
1.00699
11
2.46748
21
1.00689
0
LINE
8
BLACK
6
CONTINUOUS
10
2.46748
20
1.00689
11
2.46672
21
1.00682
0
LINE
8
BLACK
6
CONTINUOUS
10
2.46672
20
1.00682
11
2.46598
21
1.00662
0
LINE
8
BLACK
6
CONTINUOUS
10
2.46598
20
1.00662
11
2.46585
21
1.00668
0
LINE
8
BLACK
6
CONTINUOUS
10
2.46585
20
1.00668
11
2.46572
21
1.00666
0
LINE
8
BLACK
6
CONTINUOUS
10
2.46572
20
1.00666
11
2.4656
21
1.00672
0
LINE
8
BLACK
6
CONTINUOUS
10
2.4656
20
1.00672
11
2.46547
21
1.00671
0
LINE
8
BLACK
6
CONTINUOUS
10
2.46547
20
1.00671
11
2.46484
21
1.00715
0
LINE
8
BLACK
6
CONTINUOUS
10
2.46484
20
1.00715
11
2.46415
21
1.00748
0
LINE
8
BLACK
6
CONTINUOUS
10
2.46415
20
1.00748
11
2.46227
21
1.00935
0
LINE
8
BLACK
6
CONTINUOUS
10
2.46227
20
1.00935
11
2.46205
21
1.00967
0
LINE
8
BLACK
6
CONTINUOUS
10
2.46205
20
1.00967
11
2.46194
21
1.00975
0
LINE
8
BLACK
6
CONTINUOUS
10
2.46194
20
1.00975
11
2.46191
21
1.00987
0
LINE
8
BLACK
6
CONTINUOUS
10
2.46191
20
1.00987
11
2.46168
21
1.01019
0
LINE
8
BLACK
6
CONTINUOUS
10
2.46168
20
1.01019
11
2.46162
21
1.01096
0
LINE
8
BLACK
6
CONTINUOUS
10
2.46162
20
1.01096
11
2.46142
21
1.0117
0
LINE
8
BLACK
6
CONTINUOUS
10
2.46142
20
1.0117
11
2.46153
21
1.01194
0
LINE
8
BLACK
6
CONTINUOUS
10
2.46153
20
1.01194
11
2.46151
21
1.0122
0
LINE
8
BLACK
6
CONTINUOUS
10
2.46151
20
1.0122
11
2.46195
21
1.01283
0
LINE
8
BLACK
6
CONTINUOUS
10
2.46195
20
1.01283
11
2.46227
21
1.01353
0
LINE
8
BLACK
6
CONTINUOUS
10
2.46227
20
1.01353
11
2.46415
21
1.0154
0
LINE
8
BLACK
6
CONTINUOUS
10
2.46415
20
1.0154
11
2.46446
21
1.01563
0
LINE
8
BLACK
6
CONTINUOUS
10
2.46446
20
1.01563
11
2.46454
21
1.01573
0
LINE
8
BLACK
6
CONTINUOUS
10
2.46454
20
1.01573
11
2.46467
21
1.01577
0
LINE
8
BLACK
6
CONTINUOUS
10
2.46467
20
1.01577
11
2.46467
21
1.01577
0
LINE
8
BLACK
6
CONTINUOUS
10
2.46467
20
1.01577
11
2.46476
21
1.01587
0
LINE
8
BLACK
6
CONTINUOUS
10
2.46476
20
1.01587
11
2.46484
21
1.01589
0
LINE
8
BLACK
6
CONTINUOUS
10
2.46484
20
1.01589
11
2.46499
21
1.01599
0
LINE
8
BLACK
6
CONTINUOUS
10
2.46499
20
1.01599
11
2.46575
21
1.01606
0
LINE
8
BLACK
6
CONTINUOUS
10
2.46575
20
1.01606
11
2.46649
21
1.01626
0
LINE
8
BLACK
6
CONTINUOUS
10
2.46649
20
1.01626
11
2.46661
21
1.0162
0
LINE
8
BLACK
6
CONTINUOUS
10
2.40538
20
1.22789
11
2.40551
21
1.22791
0
LINE
8
BLACK
6
CONTINUOUS
10
2.40551
20
1.22791
11
2.40563
21
1.22784
0
LINE
8
BLACK
6
CONTINUOUS
10
2.40563
20
1.22784
11
2.40601
21
1.22777
0
LINE
8
BLACK
6
CONTINUOUS
10
2.40601
20
1.22777
11
2.4066
21
1.22728
0
LINE
8
BLACK
6
CONTINUOUS
10
2.4066
20
1.22728
11
2.40726
21
1.2269
0
LINE
8
BLACK
6
CONTINUOUS
10
2.40726
20
1.2269
11
2.40735
21
1.22665
0
LINE
8
BLACK
6
CONTINUOUS
10
2.40735
20
1.22665
11
2.40756
21
1.22648
0
LINE
8
BLACK
6
CONTINUOUS
10
2.40756
20
1.22648
11
2.40769
21
1.22572
0
LINE
8
BLACK
6
CONTINUOUS
10
2.40769
20
1.22572
11
2.40795
21
1.225
0
LINE
8
BLACK
6
CONTINUOUS
10
2.40795
20
1.225
11
2.40795
21
1.125
0
LINE
8
BLACK
6
CONTINUOUS
10
2.40795
20
1.125
11
2.40789
21
1.12462
0
LINE
8
BLACK
6
CONTINUOUS
10
2.40789
20
1.12462
11
2.40791
21
1.12449
0
LINE
8
BLACK
6
CONTINUOUS
10
2.40791
20
1.12449
11
2.40784
21
1.12437
0
LINE
8
BLACK
6
CONTINUOUS
10
2.40784
20
1.12437
11
2.40777
21
1.12399
0
LINE
8
BLACK
6
CONTINUOUS
10
2.40777
20
1.12399
11
2.40728
21
1.1234
0
LINE
8
BLACK
6
CONTINUOUS
10
2.40728
20
1.1234
11
2.4069
21
1.12274
0
LINE
8
BLACK
6
CONTINUOUS
10
2.4069
20
1.12274
11
2.40665
21
1.12265
0
LINE
8
BLACK
6
CONTINUOUS
10
2.40665
20
1.12265
11
2.40648
21
1.12244
0
LINE
8
BLACK
6
CONTINUOUS
10
2.40648
20
1.12244
11
2.40572
21
1.12231
0
LINE
8
BLACK
6
CONTINUOUS
10
2.40572
20
1.12231
11
2.405
21
1.12205
0
LINE
8
BLACK
6
CONTINUOUS
10
2.405
20
1.12205
11
2.205
21
1.12205
0
LINE
8
BLACK
6
CONTINUOUS
10
2.205
20
1.12205
11
2.20462
21
1.12211
0
LINE
8
BLACK
6
CONTINUOUS
10
2.20462
20
1.12211
11
2.20449
21
1.12209
0
LINE
8
BLACK
6
CONTINUOUS
10
2.20449
20
1.12209
11
2.20437
21
1.12216
0
LINE
8
BLACK
6
CONTINUOUS
10
2.20437
20
1.12216
11
2.20399
21
1.12223
0
LINE
8
BLACK
6
CONTINUOUS
10
2.20399
20
1.12223
11
2.2034
21
1.12272
0
LINE
8
BLACK
6
CONTINUOUS
10
2.2034
20
1.12272
11
2.20274
21
1.1231
0
LINE
8
BLACK
6
CONTINUOUS
10
2.20274
20
1.1231
11
2.20265
21
1.12335
0
LINE
8
BLACK
6
CONTINUOUS
10
2.20265
20
1.12335
11
2.20244
21
1.12352
0
LINE
8
BLACK
6
CONTINUOUS
10
2.20244
20
1.12352
11
2.20231
21
1.12428
0
LINE
8
BLACK
6
CONTINUOUS
10
2.20231
20
1.12428
11
2.20205
21
1.125
0
LINE
8
BLACK
6
CONTINUOUS
10
2.20205
20
1.125
11
2.20205
21
1.225
0
LINE
8
BLACK
6
CONTINUOUS
10
2.20205
20
1.225
11
2.20211
21
1.22538
0
LINE
8
BLACK
6
CONTINUOUS
10
2.20211
20
1.22538
11
2.20209
21
1.22551
0
LINE
8
BLACK
6
CONTINUOUS
10
2.20209
20
1.22551
11
2.20216
21
1.22563
0
LINE
8
BLACK
6
CONTINUOUS
10
2.20216
20
1.22563
11
2.20223
21
1.22601
0
LINE
8
BLACK
6
CONTINUOUS
10
2.20223
20
1.22601
11
2.20272
21
1.2266
0
LINE
8
BLACK
6
CONTINUOUS
10
2.20272
20
1.2266
11
2.2031
21
1.22726
0
LINE
8
BLACK
6
CONTINUOUS
10
2.2031
20
1.22726
11
2.20335
21
1.22735
0
LINE
8
BLACK
6
CONTINUOUS
10
2.20335
20
1.22735
11
2.20352
21
1.22756
0
LINE
8
BLACK
6
CONTINUOUS
10
2.20352
20
1.22756
11
2.20428
21
1.22769
0
LINE
8
BLACK
6
CONTINUOUS
10
2.20428
20
1.22769
11
2.205
21
1.22795
0
LINE
8
BLACK
6
CONTINUOUS
10
2.205
20
1.22795
11
2.405
21
1.22795
0
LINE
8
BLACK
6
CONTINUOUS
10
2.405
20
1.22795
11
2.40538
21
1.22789
0
LINE
8
BLACK
6
CONTINUOUS
10
2.20795
20
1.22205
11
2.20795
21
1.12795
0
LINE
8
BLACK
6
CONTINUOUS
10
2.20795
20
1.12795
11
2.40205
21
1.12795
0
LINE
8
BLACK
6
CONTINUOUS
10
2.40205
20
1.12795
11
2.40205
21
1.22205
0
LINE
8
BLACK
6
CONTINUOUS
10
2.40205
20
1.22205
11
2.20795
21
1.22205
0
LINE
8
BLACK
6
CONTINUOUS
10
0.414063
20
1.72481
11
0.427949
21
1.72245
0
LINE
8
BLACK
6
CONTINUOUS
10
0.427949
20
1.72245
11
0.441483
21
1.71855
0
LINE
8
BLACK
6
CONTINUOUS
10
0.441483
20
1.71855
11
0.454496
21
1.71316
0
LINE
8
BLACK
6
CONTINUOUS
10
0.454496
20
1.71316
11
0.466823
21
1.70635
0
LINE
8
BLACK
6
CONTINUOUS
10
0.466823
20
1.70635
11
0.47831
21
1.6982
0
LINE
8
BLACK
6
CONTINUOUS
10
0.47831
20
1.6982
11
0.488813
21
1.68881
0
LINE
8
BLACK
6
CONTINUOUS
10
0.488813
20
1.68881
11
0.498198
21
1.67831
0
LINE
8
BLACK
6
CONTINUOUS
10
0.498198
20
1.67831
11
0.506349
21
1.66682
0
LINE
8
BLACK
6
CONTINUOUS
10
0.506349
20
1.66682
11
0.513162
21
1.6545
0
LINE
8
BLACK
6
CONTINUOUS
10
0.513162
20
1.6545
11
0.518552
21
1.64148
0
LINE
8
BLACK
6
CONTINUOUS
10
0.518552
20
1.64148
11
0.522451
21
1.62795
0
LINE
8
BLACK
6
CONTINUOUS
10
0.522451
20
1.62795
11
0.52481
21
1.61406
0
LINE
8
BLACK
6
CONTINUOUS
10
0.52481
20
1.61406
11
0.5256
21
1.6
0
LINE
8
BLACK
6
CONTINUOUS
10
0.5256
20
1.6
11
0.52481
21
1.58594
0
LINE
8
BLACK
6
CONTINUOUS
10
0.52481
20
1.58594
11
0.522451
21
1.57205
0
LINE
8
BLACK
6
CONTINUOUS
10
0.522451
20
1.57205
11
0.518552
21
1.55852
0
LINE
8
BLACK
6
CONTINUOUS
10
0.518552
20
1.55852
11
0.513162
21
1.5455
0
LINE
8
BLACK
6
CONTINUOUS
10
0.513162
20
1.5455
11
0.506349
21
1.53318
0
LINE
8
BLACK
6
CONTINUOUS
10
0.506349
20
1.53318
11
0.498198
21
1.52169
0
LINE
8
BLACK
6
CONTINUOUS
10
0.498198
20
1.52169
11
0.488813
21
1.51119
0
LINE
8
BLACK
6
CONTINUOUS
10
0.488813
20
1.51119
11
0.47831
21
1.5018
0
LINE
8
BLACK
6
CONTINUOUS
10
0.47831
20
1.5018
11
0.466823
21
1.49365
0
LINE
8
BLACK
6
CONTINUOUS
10
0.466823
20
1.49365
11
0.454496
21
1.48684
0
LINE
8
BLACK
6
CONTINUOUS
10
0.454496
20
1.48684
11
0.441483
21
1.48145
0
LINE
8
BLACK
6
CONTINUOUS
10
0.441483
20
1.48145
11
0.427949
21
1.47755
0
LINE
8
BLACK
6
CONTINUOUS
10
0.427949
20
1.47755
11
0.414063
21
1.47519
0
LINE
8
BLACK
6
CONTINUOUS
10
0.414063
20
1.47519
11
0.4
21
1.4744
0
LINE
8
BLACK
6
CONTINUOUS
10
0.4
20
1.4744
11
0.385937
21
1.47519
0
LINE
8
BLACK
6
CONTINUOUS
10
0.385937
20
1.47519
11
0.372051
21
1.47755
0
LINE
8
BLACK
6
CONTINUOUS
10
0.372051
20
1.47755
11
0.358517
21
1.48145
0
LINE
8
BLACK
6
CONTINUOUS
10
0.358517
20
1.48145
11
0.345504
21
1.48684
0
LINE
8
BLACK
6
CONTINUOUS
10
0.345504
20
1.48684
11
0.333177
21
1.49365
0
LINE
8
BLACK
6
CONTINUOUS
10
0.333177
20
1.49365
11
0.32169
21
1.5018
0
LINE
8
BLACK
6
CONTINUOUS
10
0.32169
20
1.5018
11
0.311187
21
1.51119
0
LINE
8
BLACK
6
CONTINUOUS
10
0.311187
20
1.51119
11
0.301802
21
1.52169
0
LINE
8
BLACK
6
CONTINUOUS
10
0.301802
20
1.52169
11
0.293651
21
1.53318
0
LINE
8
BLACK
6
CONTINUOUS
10
0.293651
20
1.53318
11
0.286838
21
1.5455
0
LINE
8
BLACK
6
CONTINUOUS
10
0.286838
20
1.5455
11
0.281448
21
1.55852
0
LINE
8
BLACK
6
CONTINUOUS
10
0.281448
20
1.55852
11
0.277549
21
1.57205
0
LINE
8
BLACK
6
CONTINUOUS
10
0.277549
20
1.57205
11
0.27519
21
1.58594
0
LINE
8
BLACK
6
CONTINUOUS
10
0.27519
20
1.58594
11
0.2744
21
1.6
0
LINE
8
BLACK
6
CONTINUOUS
10
0.2744
20
1.6
11
0.27519
21
1.61406
0
LINE
8
BLACK
6
CONTINUOUS
10
0.27519
20
1.61406
11
0.277549
21
1.62795
0
LINE
8
BLACK
6
CONTINUOUS
10
0.277549
20
1.62795
11
0.281448
21
1.64148
0
LINE
8
BLACK
6
CONTINUOUS
10
0.281448
20
1.64148
11
0.286838
21
1.6545
0
LINE
8
BLACK
6
CONTINUOUS
10
0.286838
20
1.6545
11
0.293651
21
1.66682
0
LINE
8
BLACK
6
CONTINUOUS
10
0.293651
20
1.66682
11
0.301802
21
1.67831
0
LINE
8
BLACK
6
CONTINUOUS
10
0.301802
20
1.67831
11
0.311187
21
1.68881
0
LINE
8
BLACK
6
CONTINUOUS
10
0.311187
20
1.68881
11
0.32169
21
1.6982
0
LINE
8
BLACK
6
CONTINUOUS
10
0.32169
20
1.6982
11
0.333177
21
1.70635
0
LINE
8
BLACK
6
CONTINUOUS
10
0.333177
20
1.70635
11
0.345504
21
1.71316
0
LINE
8
BLACK
6
CONTINUOUS
10
0.345504
20
1.71316
11
0.358517
21
1.71855
0
LINE
8
BLACK
6
CONTINUOUS
10
0.358517
20
1.71855
11
0.372051
21
1.72245
0
LINE
8
BLACK
6
CONTINUOUS
10
0.372051
20
1.72245
11
0.385937
21
1.72481
0
LINE
8
BLACK
6
CONTINUOUS
10
0.385937
20
1.72481
11
0.4
21
1.7256
0
LINE
8
BLACK
6
CONTINUOUS
10
0.4
20
1.7256
11
0.414063
21
1.72481
0
LINE
8
BLACK
6
CONTINUOUS
10
0.289962
20
1.58714
11
0.292199
21
1.57445
0
LINE
8
BLACK
6
CONTINUOUS
10
0.292199
20
1.57445
11
0.295894
21
1.56211
0
LINE
8
BLACK
6
CONTINUOUS
10
0.295894
20
1.56211
11
0.300997
21
1.55028
0
LINE
8
BLACK
6
CONTINUOUS
10
0.300997
20
1.55028
11
0.307438
21
1.53912
0
LINE
8
BLACK
6
CONTINUOUS
10
0.307438
20
1.53912
11
0.315132
21
1.52879
0
LINE
8
BLACK
6
CONTINUOUS
10
0.315132
20
1.52879
11
0.323973
21
1.51942
0
LINE
8
BLACK
6
CONTINUOUS
10
0.323973
20
1.51942
11
0.333842
21
1.51113
0
LINE
8
BLACK
6
CONTINUOUS
10
0.333842
20
1.51113
11
0.344606
21
1.50406
0
LINE
8
BLACK
6
CONTINUOUS
10
0.344606
20
1.50406
11
0.356119
21
1.49827
0
LINE
8
BLACK
6
CONTINUOUS
10
0.356119
20
1.49827
11
0.368226
21
1.49387
0
LINE
8
BLACK
6
CONTINUOUS
10
0.368226
20
1.49387
11
0.380762
21
1.4909
0
LINE
8
BLACK
6
CONTINUOUS
10
0.380762
20
1.4909
11
0.393558
21
1.4894
0
LINE
8
BLACK
6
CONTINUOUS
10
0.393558
20
1.4894
11
0.406442
21
1.4894
0
LINE
8
BLACK
6
CONTINUOUS
10
0.406442
20
1.4894
11
0.419238
21
1.4909
0
LINE
8
BLACK
6
CONTINUOUS
10
0.419238
20
1.4909
11
0.431774
21
1.49387
0
LINE
8
BLACK
6
CONTINUOUS
10
0.431774
20
1.49387
11
0.443881
21
1.49827
0
LINE
8
BLACK
6
CONTINUOUS
10
0.443881
20
1.49827
11
0.455394
21
1.50406
0
LINE
8
BLACK
6
CONTINUOUS
10
0.455394
20
1.50406
11
0.466158
21
1.51113
0
LINE
8
BLACK
6
CONTINUOUS
10
0.466158
20
1.51113
11
0.476027
21
1.51942
0
LINE
8
BLACK
6
CONTINUOUS
10
0.476027
20
1.51942
11
0.484868
21
1.52879
0
LINE
8
BLACK
6
CONTINUOUS
10
0.484868
20
1.52879
11
0.492562
21
1.53912
0
LINE
8
BLACK
6
CONTINUOUS
10
0.492562
20
1.53912
11
0.499003
21
1.55028
0
LINE
8
BLACK
6
CONTINUOUS
10
0.499003
20
1.55028
11
0.504106
21
1.56211
0
LINE
8
BLACK
6
CONTINUOUS
10
0.504106
20
1.56211
11
0.507801
21
1.57445
0
LINE
8
BLACK
6
CONTINUOUS
10
0.507801
20
1.57445
11
0.510038
21
1.58714
0
LINE
8
BLACK
6
CONTINUOUS
10
0.510038
20
1.58714
11
0.510787
21
1.6
0
LINE
8
BLACK
6
CONTINUOUS
10
0.510787
20
1.6
11
0.510038
21
1.61286
0
LINE
8
BLACK
6
CONTINUOUS
10
0.510038
20
1.61286
11
0.507801
21
1.62555
0
LINE
8
BLACK
6
CONTINUOUS
10
0.507801
20
1.62555
11
0.504106
21
1.63789
0
LINE
8
BLACK
6
CONTINUOUS
10
0.504106
20
1.63789
11
0.499003
21
1.64972
0
LINE
8
BLACK
6
CONTINUOUS
10
0.499003
20
1.64972
11
0.492562
21
1.66088
0
LINE
8
BLACK
6
CONTINUOUS
10
0.492562
20
1.66088
11
0.484868
21
1.67121
0
LINE
8
BLACK
6
CONTINUOUS
10
0.484868
20
1.67121
11
0.476027
21
1.68058
0
LINE
8
BLACK
6
CONTINUOUS
10
0.476027
20
1.68058
11
0.466158
21
1.68887
0
LINE
8
BLACK
6
CONTINUOUS
10
0.466158
20
1.68887
11
0.455394
21
1.69594
0
LINE
8
BLACK
6
CONTINUOUS
10
0.455394
20
1.69594
11
0.443881
21
1.70173
0
LINE
8
BLACK
6
CONTINUOUS
10
0.443881
20
1.70173
11
0.431774
21
1.70613
0
LINE
8
BLACK
6
CONTINUOUS
10
0.431774
20
1.70613
11
0.419238
21
1.7091
0
LINE
8
BLACK
6
CONTINUOUS
10
0.419238
20
1.7091
11
0.406442
21
1.7106
0
LINE
8
BLACK
6
CONTINUOUS
10
0.406442
20
1.7106
11
0.393558
21
1.7106
0
LINE
8
BLACK
6
CONTINUOUS
10
0.393558
20
1.7106
11
0.380762
21
1.7091
0
LINE
8
BLACK
6
CONTINUOUS
10
0.380762
20
1.7091
11
0.368226
21
1.70613
0
LINE
8
BLACK
6
CONTINUOUS
10
0.368226
20
1.70613
11
0.356119
21
1.70173
0
LINE
8
BLACK
6
CONTINUOUS
10
0.356119
20
1.70173
11
0.344606
21
1.69594
0
LINE
8
BLACK
6
CONTINUOUS
10
0.344606
20
1.69594
11
0.333842
21
1.68887
0
LINE
8
BLACK
6
CONTINUOUS
10
0.333842
20
1.68887
11
0.323973
21
1.68058
0
LINE
8
BLACK
6
CONTINUOUS
10
0.323973
20
1.68058
11
0.315132
21
1.67121
0
LINE
8
BLACK
6
CONTINUOUS
10
0.315132
20
1.67121
11
0.307438
21
1.66088
0
LINE
8
BLACK
6
CONTINUOUS
10
0.307438
20
1.66088
11
0.300997
21
1.64972
0
LINE
8
BLACK
6
CONTINUOUS
10
0.300997
20
1.64972
11
0.295894
21
1.63789
0
LINE
8
BLACK
6
CONTINUOUS
10
0.295894
20
1.63789
11
0.292199
21
1.62555
0
LINE
8
BLACK
6
CONTINUOUS
10
0.292199
20
1.62555
11
0.289962
21
1.61286
0
LINE
8
BLACK
6
CONTINUOUS
10
0.289962
20
1.61286
11
0.289213
21
1.6
0
LINE
8
BLACK
6
CONTINUOUS
10
0.289213
20
1.6
11
0.289962
21
1.58714
0
LINE
8
BLACK
6
CONTINUOUS
10
2.41406
20
1.72481
11
2.42795
21
1.72245
0
LINE
8
BLACK
6
CONTINUOUS
10
2.42795
20
1.72245
11
2.44148
21
1.71855
0
LINE
8
BLACK
6
CONTINUOUS
10
2.44148
20
1.71855
11
2.4545
21
1.71316
0
LINE
8
BLACK
6
CONTINUOUS
10
2.4545
20
1.71316
11
2.46682
21
1.70635
0
LINE
8
BLACK
6
CONTINUOUS
10
2.46682
20
1.70635
11
2.47831
21
1.6982
0
LINE
8
BLACK
6
CONTINUOUS
10
2.47831
20
1.6982
11
2.48881
21
1.68881
0
LINE
8
BLACK
6
CONTINUOUS
10
2.48881
20
1.68881
11
2.4982
21
1.67831
0
LINE
8
BLACK
6
CONTINUOUS
10
2.4982
20
1.67831
11
2.50635
21
1.66682
0
LINE
8
BLACK
6
CONTINUOUS
10
2.50635
20
1.66682
11
2.51316
21
1.6545
0
LINE
8
BLACK
6
CONTINUOUS
10
2.51316
20
1.6545
11
2.51855
21
1.64148
0
LINE
8
BLACK
6
CONTINUOUS
10
2.51855
20
1.64148
11
2.52245
21
1.62795
0
LINE
8
BLACK
6
CONTINUOUS
10
2.52245
20
1.62795
11
2.52481
21
1.61406
0
LINE
8
BLACK
6
CONTINUOUS
10
2.52481
20
1.61406
11
2.5256
21
1.6
0
LINE
8
BLACK
6
CONTINUOUS
10
2.5256
20
1.6
11
2.52481
21
1.58594
0
LINE
8
BLACK
6
CONTINUOUS
10
2.52481
20
1.58594
11
2.52245
21
1.57205
0
LINE
8
BLACK
6
CONTINUOUS
10
2.52245
20
1.57205
11
2.51855
21
1.55852
0
LINE
8
BLACK
6
CONTINUOUS
10
2.51855
20
1.55852
11
2.51316
21
1.5455
0
LINE
8
BLACK
6
CONTINUOUS
10
2.51316
20
1.5455
11
2.50635
21
1.53318
0
LINE
8
BLACK
6
CONTINUOUS
10
2.50635
20
1.53318
11
2.4982
21
1.52169
0
LINE
8
BLACK
6
CONTINUOUS
10
2.4982
20
1.52169
11
2.48881
21
1.51119
0
LINE
8
BLACK
6
CONTINUOUS
10
2.48881
20
1.51119
11
2.47831
21
1.5018
0
LINE
8
BLACK
6
CONTINUOUS
10
2.47831
20
1.5018
11
2.46682
21
1.49365
0
LINE
8
BLACK
6
CONTINUOUS
10
2.46682
20
1.49365
11
2.4545
21
1.48684
0
LINE
8
BLACK
6
CONTINUOUS
10
2.4545
20
1.48684
11
2.44148
21
1.48145
0
LINE
8
BLACK
6
CONTINUOUS
10
2.44148
20
1.48145
11
2.42795
21
1.47755
0
LINE
8
BLACK
6
CONTINUOUS
10
2.42795
20
1.47755
11
2.41406
21
1.47519
0
LINE
8
BLACK
6
CONTINUOUS
10
2.41406
20
1.47519
11
2.4
21
1.4744
0
LINE
8
BLACK
6
CONTINUOUS
10
2.4
20
1.4744
11
2.38594
21
1.47519
0
LINE
8
BLACK
6
CONTINUOUS
10
2.38594
20
1.47519
11
2.37205
21
1.47755
0
LINE
8
BLACK
6
CONTINUOUS
10
2.37205
20
1.47755
11
2.35852
21
1.48145
0
LINE
8
BLACK
6
CONTINUOUS
10
2.35852
20
1.48145
11
2.3455
21
1.48684
0
LINE
8
BLACK
6
CONTINUOUS
10
2.3455
20
1.48684
11
2.33318
21
1.49365
0
LINE
8
BLACK
6
CONTINUOUS
10
2.33318
20
1.49365
11
2.32169
21
1.5018
0
LINE
8
BLACK
6
CONTINUOUS
10
2.32169
20
1.5018
11
2.31119
21
1.51119
0
LINE
8
BLACK
6
CONTINUOUS
10
2.31119
20
1.51119
11
2.3018
21
1.52169
0
LINE
8
BLACK
6
CONTINUOUS
10
2.3018
20
1.52169
11
2.29365
21
1.53318
0
LINE
8
BLACK
6
CONTINUOUS
10
2.29365
20
1.53318
11
2.28684
21
1.5455
0
LINE
8
BLACK
6
CONTINUOUS
10
2.28684
20
1.5455
11
2.28145
21
1.55852
0
LINE
8
BLACK
6
CONTINUOUS
10
2.28145
20
1.55852
11
2.27755
21
1.57205
0
LINE
8
BLACK
6
CONTINUOUS
10
2.27755
20
1.57205
11
2.27519
21
1.58594
0
LINE
8
BLACK
6
CONTINUOUS
10
2.27519
20
1.58594
11
2.2744
21
1.6
0
LINE
8
BLACK
6
CONTINUOUS
10
2.2744
20
1.6
11
2.27519
21
1.61406
0
LINE
8
BLACK
6
CONTINUOUS
10
2.27519
20
1.61406
11
2.27755
21
1.62795
0
LINE
8
BLACK
6
CONTINUOUS
10
2.27755
20
1.62795
11
2.28145
21
1.64148
0
LINE
8
BLACK
6
CONTINUOUS
10
2.28145
20
1.64148
11
2.28684
21
1.6545
0
LINE
8
BLACK
6
CONTINUOUS
10
2.28684
20
1.6545
11
2.29365
21
1.66682
0
LINE
8
BLACK
6
CONTINUOUS
10
2.29365
20
1.66682
11
2.3018
21
1.67831
0
LINE
8
BLACK
6
CONTINUOUS
10
2.3018
20
1.67831
11
2.31119
21
1.68881
0
LINE
8
BLACK
6
CONTINUOUS
10
2.31119
20
1.68881
11
2.32169
21
1.6982
0
LINE
8
BLACK
6
CONTINUOUS
10
2.32169
20
1.6982
11
2.33318
21
1.70635
0
LINE
8
BLACK
6
CONTINUOUS
10
2.33318
20
1.70635
11
2.3455
21
1.71316
0
LINE
8
BLACK
6
CONTINUOUS
10
2.3455
20
1.71316
11
2.35852
21
1.71855
0
LINE
8
BLACK
6
CONTINUOUS
10
2.35852
20
1.71855
11
2.37205
21
1.72245
0
LINE
8
BLACK
6
CONTINUOUS
10
2.37205
20
1.72245
11
2.38594
21
1.72481
0
LINE
8
BLACK
6
CONTINUOUS
10
2.38594
20
1.72481
11
2.4
21
1.7256
0
LINE
8
BLACK
6
CONTINUOUS
10
2.4
20
1.7256
11
2.41406
21
1.72481
0
LINE
8
BLACK
6
CONTINUOUS
10
2.28996
20
1.58714
11
2.2922
21
1.57445
0
LINE
8
BLACK
6
CONTINUOUS
10
2.2922
20
1.57445
11
2.29589
21
1.56211
0
LINE
8
BLACK
6
CONTINUOUS
10
2.29589
20
1.56211
11
2.301
21
1.55028
0
LINE
8
BLACK
6
CONTINUOUS
10
2.301
20
1.55028
11
2.30744
21
1.53912
0
LINE
8
BLACK
6
CONTINUOUS
10
2.30744
20
1.53912
11
2.31513
21
1.52879
0
LINE
8
BLACK
6
CONTINUOUS
10
2.31513
20
1.52879
11
2.32397
21
1.51942
0
LINE
8
BLACK
6
CONTINUOUS
10
2.32397
20
1.51942
11
2.33384
21
1.51113
0
LINE
8
BLACK
6
CONTINUOUS
10
2.33384
20
1.51113
11
2.34461
21
1.50406
0
LINE
8
BLACK
6
CONTINUOUS
10
2.34461
20
1.50406
11
2.35612
21
1.49827
0
LINE
8
BLACK
6
CONTINUOUS
10
2.35612
20
1.49827
11
2.36823
21
1.49387
0
LINE
8
BLACK
6
CONTINUOUS
10
2.36823
20
1.49387
11
2.38076
21
1.4909
0
LINE
8
BLACK
6
CONTINUOUS
10
2.38076
20
1.4909
11
2.39356
21
1.4894
0
LINE
8
BLACK
6
CONTINUOUS
10
2.39356
20
1.4894
11
2.40644
21
1.4894
0
LINE
8
BLACK
6
CONTINUOUS
10
2.40644
20
1.4894
11
2.41924
21
1.4909
0
LINE
8
BLACK
6
CONTINUOUS
10
2.41924
20
1.4909
11
2.43177
21
1.49387
0
LINE
8
BLACK
6
CONTINUOUS
10
2.43177
20
1.49387
11
2.44388
21
1.49827
0
LINE
8
BLACK
6
CONTINUOUS
10
2.44388
20
1.49827
11
2.45539
21
1.50406
0
LINE
8
BLACK
6
CONTINUOUS
10
2.45539
20
1.50406
11
2.46616
21
1.51113
0
LINE
8
BLACK
6
CONTINUOUS
10
2.46616
20
1.51113
11
2.47603
21
1.51942
0
LINE
8
BLACK
6
CONTINUOUS
10
2.47603
20
1.51942
11
2.48487
21
1.52879
0
LINE
8
BLACK
6
CONTINUOUS
10
2.48487
20
1.52879
11
2.49256
21
1.53912
0
LINE
8
BLACK
6
CONTINUOUS
10
2.49256
20
1.53912
11
2.499
21
1.55028
0
LINE
8
BLACK
6
CONTINUOUS
10
2.499
20
1.55028
11
2.50411
21
1.56211
0
LINE
8
BLACK
6
CONTINUOUS
10
2.50411
20
1.56211
11
2.5078
21
1.57445
0
LINE
8
BLACK
6
CONTINUOUS
10
2.5078
20
1.57445
11
2.51004
21
1.58714
0
LINE
8
BLACK
6
CONTINUOUS
10
2.51004
20
1.58714
11
2.51079
21
1.6
0
LINE
8
BLACK
6
CONTINUOUS
10
2.51079
20
1.6
11
2.51004
21
1.61286
0
LINE
8
BLACK
6
CONTINUOUS
10
2.51004
20
1.61286
11
2.5078
21
1.62555
0
LINE
8
BLACK
6
CONTINUOUS
10
2.5078
20
1.62555
11
2.50411
21
1.63789
0
LINE
8
BLACK
6
CONTINUOUS
10
2.50411
20
1.63789
11
2.499
21
1.64972
0
LINE
8
BLACK
6
CONTINUOUS
10
2.499
20
1.64972
11
2.49256
21
1.66088
0
LINE
8
BLACK
6
CONTINUOUS
10
2.49256
20
1.66088
11
2.48487
21
1.67121
0
LINE
8
BLACK
6
CONTINUOUS
10
2.48487
20
1.67121
11
2.47603
21
1.68058
0
LINE
8
BLACK
6
CONTINUOUS
10
2.47603
20
1.68058
11
2.46616
21
1.68887
0
LINE
8
BLACK
6
CONTINUOUS
10
2.46616
20
1.68887
11
2.45539
21
1.69594
0
LINE
8
BLACK
6
CONTINUOUS
10
2.45539
20
1.69594
11
2.44388
21
1.70173
0
LINE
8
BLACK
6
CONTINUOUS
10
2.44388
20
1.70173
11
2.43177
21
1.70613
0
LINE
8
BLACK
6
CONTINUOUS
10
2.43177
20
1.70613
11
2.41924
21
1.7091
0
LINE
8
BLACK
6
CONTINUOUS
10
2.41924
20
1.7091
11
2.40644
21
1.7106
0
LINE
8
BLACK
6
CONTINUOUS
10
2.40644
20
1.7106
11
2.39356
21
1.7106
0
LINE
8
BLACK
6
CONTINUOUS
10
2.39356
20
1.7106
11
2.38076
21
1.7091
0
LINE
8
BLACK
6
CONTINUOUS
10
2.38076
20
1.7091
11
2.36823
21
1.70613
0
LINE
8
BLACK
6
CONTINUOUS
10
2.36823
20
1.70613
11
2.35612
21
1.70173
0
LINE
8
BLACK
6
CONTINUOUS
10
2.35612
20
1.70173
11
2.34461
21
1.69594
0
LINE
8
BLACK
6
CONTINUOUS
10
2.34461
20
1.69594
11
2.33384
21
1.68887
0
LINE
8
BLACK
6
CONTINUOUS
10
2.33384
20
1.68887
11
2.32397
21
1.68058
0
LINE
8
BLACK
6
CONTINUOUS
10
2.32397
20
1.68058
11
2.31513
21
1.67121
0
LINE
8
BLACK
6
CONTINUOUS
10
2.31513
20
1.67121
11
2.30744
21
1.66088
0
LINE
8
BLACK
6
CONTINUOUS
10
2.30744
20
1.66088
11
2.301
21
1.64972
0
LINE
8
BLACK
6
CONTINUOUS
10
2.301
20
1.64972
11
2.29589
21
1.63789
0
LINE
8
BLACK
6
CONTINUOUS
10
2.29589
20
1.63789
11
2.2922
21
1.62555
0
LINE
8
BLACK
6
CONTINUOUS
10
2.2922
20
1.62555
11
2.28996
21
1.61286
0
LINE
8
BLACK
6
CONTINUOUS
10
2.28996
20
1.61286
11
2.28921
21
1.6
0
LINE
8
BLACK
6
CONTINUOUS
10
2.28921
20
1.6
11
2.28996
21
1.58714
  0
ENDSEC
  0
EOF
