  0
SECTION
  2
HEADER
  9
$ANGBASE
  50
0.0
  9
$ANGDIR
  70
1
  9
$MEASUREMENT
  70
0
  0
ENDSEC
  0
SECTION
  2
TABLES
  0
TABLE
  2
LTYPE
  70
4
  0
LTYPE
  5
40F
  2
CONTINUOUS
  70
0
  3
Solid line
  72
65
  73
0
  40
0.0
  0
LTYPE
  5
410
  2
DASHDOT
 70
0
  3
Dash Dot ____ _ ____ _
 72
65
 73
4
 40
2.0
 49
1.25
 49
-0.25
 49
0.25
 49
-0.25
  0
LTYPE
  5
411
  2
DASHED
 70
0
  3
Dashed __ __ __ __ __
 72
65
 73
2
 40
0.75
 49
0.5
 49
-0.25
  0
LTYPE
  5
43B
  2
DOTTED
 70
0
  3
Dotted .  .  .  .
 72
65
 73
2
 40
0.2
 49
0.0
 49
-0.2
  0
ENDTAB
  0
TABLE
  2
STYLE
  70
4
  0
STYLE
  2
KICAD
  70
0
  40
0
  41
1
  42
1
  50
0
  71
0
  3
isocp.shx
  0
STYLE
  2
KICADB
  70
0
  40
0
  41
1
  42
1
  50
0
  71
0
  3
isocp.shx
  0
STYLE
  2
KICADI
  70
0
  40
0
  41
1
  42
1
  50
15
  71
0
  3
isocp.shx
  0
STYLE
  2
KICADBI
  70
0
  40
0
  41
1
  42
1
  50
15
  71
0
  3
isocp.shx
  0
ENDTAB
  0
TABLE
  2
LAYER
  70
1
  0
LAYER
  2
BLACK
  70
0
  62
7
  6
CONTINUOUS
  0
ENDTAB
  0
ENDSEC
  0
SECTION
  2
ENTITIES
0
LINE
8
BLACK
6
CONTINUOUS
10
-0.0702492
20
1.16165
11
-0.067056
21
1.15952
0
LINE
8
BLACK
6
CONTINUOUS
10
-0.067056
20
1.15952
11
-0.0649224
21
1.15633
0
LINE
8
BLACK
6
CONTINUOUS
10
-0.0649224
20
1.15633
11
-0.0641732
21
1.15256
0
LINE
8
BLACK
6
CONTINUOUS
10
-0.0641732
20
1.15256
11
-0.0641732
21
1.11516
0
LINE
8
BLACK
6
CONTINUOUS
10
-0.0641732
20
1.11516
11
-0.0649224
21
1.11139
0
LINE
8
BLACK
6
CONTINUOUS
10
-0.0649224
20
1.11139
11
-0.067056
21
1.1082
0
LINE
8
BLACK
6
CONTINUOUS
10
-0.067056
20
1.1082
11
-0.0702492
21
1.10606
0
LINE
8
BLACK
6
CONTINUOUS
10
-0.0702492
20
1.10606
11
-0.0740157
21
1.10531
0
LINE
8
BLACK
6
CONTINUOUS
10
-0.0740157
20
1.10531
11
-0.0937008
21
1.10531
0
LINE
8
BLACK
6
CONTINUOUS
10
-0.0937008
20
1.10531
11
-0.0974674
21
1.10606
0
LINE
8
BLACK
6
CONTINUOUS
10
-0.0974674
20
1.10606
11
-0.100661
21
1.1082
0
LINE
8
BLACK
6
CONTINUOUS
10
-0.100661
20
1.1082
11
-0.102794
21
1.11139
0
LINE
8
BLACK
6
CONTINUOUS
10
-0.102794
20
1.11139
11
-0.103543
21
1.11516
0
LINE
8
BLACK
6
CONTINUOUS
10
-0.103543
20
1.11516
11
-0.103543
21
1.15256
0
LINE
8
BLACK
6
CONTINUOUS
10
-0.103543
20
1.15256
11
-0.102794
21
1.15633
0
LINE
8
BLACK
6
CONTINUOUS
10
-0.102794
20
1.15633
11
-0.100661
21
1.15952
0
LINE
8
BLACK
6
CONTINUOUS
10
-0.100661
20
1.15952
11
-0.0974674
21
1.16165
0
LINE
8
BLACK
6
CONTINUOUS
10
-0.0974674
20
1.16165
11
-0.0937008
21
1.1624
0
LINE
8
BLACK
6
CONTINUOUS
10
-0.0937008
20
1.1624
11
-0.0740157
21
1.1624
0
LINE
8
BLACK
6
CONTINUOUS
10
-0.0740157
20
1.1624
11
-0.0702492
21
1.16165
0
LINE
8
BLACK
6
CONTINUOUS
10
0.00455398
20
1.16165
11
0.00774713
21
1.15952
0
LINE
8
BLACK
6
CONTINUOUS
10
0.00774713
20
1.15952
11
0.00988071
21
1.15633
0
LINE
8
BLACK
6
CONTINUOUS
10
0.00988071
20
1.15633
11
0.0106299
21
1.15256
0
LINE
8
BLACK
6
CONTINUOUS
10
0.0106299
20
1.15256
11
0.0106299
21
1.11516
0
LINE
8
BLACK
6
CONTINUOUS
10
0.0106299
20
1.11516
11
0.00988071
21
1.11139
0
LINE
8
BLACK
6
CONTINUOUS
10
0.00988071
20
1.11139
11
0.00774713
21
1.1082
0
LINE
8
BLACK
6
CONTINUOUS
10
0.00774713
20
1.1082
11
0.00455398
21
1.10606
0
LINE
8
BLACK
6
CONTINUOUS
10
0.00455398
20
1.10606
11
0.000787402
21
1.10531
0
LINE
8
BLACK
6
CONTINUOUS
10
0.000787402
20
1.10531
11
-0.0188976
21
1.10531
0
LINE
8
BLACK
6
CONTINUOUS
10
-0.0188976
20
1.10531
11
-0.0226642
21
1.10606
0
LINE
8
BLACK
6
CONTINUOUS
10
-0.0226642
20
1.10606
11
-0.0258574
21
1.1082
0
LINE
8
BLACK
6
CONTINUOUS
10
-0.0258574
20
1.1082
11
-0.0279909
21
1.11139
0
LINE
8
BLACK
6
CONTINUOUS
10
-0.0279909
20
1.11139
11
-0.0287402
21
1.11516
0
LINE
8
BLACK
6
CONTINUOUS
10
-0.0287402
20
1.11516
11
-0.0287402
21
1.15256
0
LINE
8
BLACK
6
CONTINUOUS
10
-0.0287402
20
1.15256
11
-0.0279909
21
1.15633
0
LINE
8
BLACK
6
CONTINUOUS
10
-0.0279909
20
1.15633
11
-0.0258574
21
1.15952
0
LINE
8
BLACK
6
CONTINUOUS
10
-0.0258574
20
1.15952
11
-0.0226642
21
1.16165
0
LINE
8
BLACK
6
CONTINUOUS
10
-0.0226642
20
1.16165
11
-0.0188976
21
1.1624
0
LINE
8
BLACK
6
CONTINUOUS
10
-0.0188976
20
1.1624
11
0.000787402
21
1.1624
0
LINE
8
BLACK
6
CONTINUOUS
10
0.000787402
20
1.1624
11
0.00455398
21
1.16165
0
LINE
8
BLACK
6
CONTINUOUS
10
0.324016
20
1.34283
11
0.225591
21
1.34283
0
LINE
8
BLACK
6
CONTINUOUS
10
0.225591
20
1.34283
11
0.225591
21
1.4137
0
LINE
8
BLACK
6
CONTINUOUS
10
0.225591
20
1.4137
11
0.324016
21
1.4137
0
LINE
8
BLACK
6
CONTINUOUS
10
0.324016
20
1.4137
11
0.324016
21
1.34283
0
LINE
8
BLACK
6
CONTINUOUS
10
0.481496
20
1.34283
11
0.383071
21
1.34283
0
LINE
8
BLACK
6
CONTINUOUS
10
0.383071
20
1.34283
11
0.383071
21
1.4137
0
LINE
8
BLACK
6
CONTINUOUS
10
0.383071
20
1.4137
11
0.481496
21
1.4137
0
LINE
8
BLACK
6
CONTINUOUS
10
0.481496
20
1.4137
11
0.481496
21
1.34283
0
LINE
8
BLACK
6
CONTINUOUS
10
-0.0702492
20
1.77937
11
-0.067056
21
1.77724
0
LINE
8
BLACK
6
CONTINUOUS
10
-0.067056
20
1.77724
11
-0.0649224
21
1.77404
0
LINE
8
BLACK
6
CONTINUOUS
10
-0.0649224
20
1.77404
11
-0.0641732
21
1.77028
0
LINE
8
BLACK
6
CONTINUOUS
10
-0.0641732
20
1.77028
11
-0.0641732
21
1.73287
0
LINE
8
BLACK
6
CONTINUOUS
10
-0.0641732
20
1.73287
11
-0.0649224
21
1.72911
0
LINE
8
BLACK
6
CONTINUOUS
10
-0.0649224
20
1.72911
11
-0.067056
21
1.72591
0
LINE
8
BLACK
6
CONTINUOUS
10
-0.067056
20
1.72591
11
-0.0702492
21
1.72378
0
LINE
8
BLACK
6
CONTINUOUS
10
-0.0702492
20
1.72378
11
-0.0740157
21
1.72303
0
LINE
8
BLACK
6
CONTINUOUS
10
-0.0740157
20
1.72303
11
-0.0937008
21
1.72303
0
LINE
8
BLACK
6
CONTINUOUS
10
-0.0937008
20
1.72303
11
-0.0974674
21
1.72378
0
LINE
8
BLACK
6
CONTINUOUS
10
-0.0974674
20
1.72378
11
-0.100661
21
1.72591
0
LINE
8
BLACK
6
CONTINUOUS
10
-0.100661
20
1.72591
11
-0.102794
21
1.72911
0
LINE
8
BLACK
6
CONTINUOUS
10
-0.102794
20
1.72911
11
-0.103543
21
1.73287
0
LINE
8
BLACK
6
CONTINUOUS
10
-0.103543
20
1.73287
11
-0.103543
21
1.77028
0
LINE
8
BLACK
6
CONTINUOUS
10
-0.103543
20
1.77028
11
-0.102794
21
1.77404
0
LINE
8
BLACK
6
CONTINUOUS
10
-0.102794
20
1.77404
11
-0.100661
21
1.77724
0
LINE
8
BLACK
6
CONTINUOUS
10
-0.100661
20
1.77724
11
-0.0974674
21
1.77937
0
LINE
8
BLACK
6
CONTINUOUS
10
-0.0974674
20
1.77937
11
-0.0937008
21
1.78012
0
LINE
8
BLACK
6
CONTINUOUS
10
-0.0937008
20
1.78012
11
-0.0740157
21
1.78012
0
LINE
8
BLACK
6
CONTINUOUS
10
-0.0740157
20
1.78012
11
-0.0702492
21
1.77937
0
LINE
8
BLACK
6
CONTINUOUS
10
0.00455398
20
1.77937
11
0.00774713
21
1.77724
0
LINE
8
BLACK
6
CONTINUOUS
10
0.00774713
20
1.77724
11
0.00988071
21
1.77404
0
LINE
8
BLACK
6
CONTINUOUS
10
0.00988071
20
1.77404
11
0.0106299
21
1.77028
0
LINE
8
BLACK
6
CONTINUOUS
10
0.0106299
20
1.77028
11
0.0106299
21
1.73287
0
LINE
8
BLACK
6
CONTINUOUS
10
0.0106299
20
1.73287
11
0.00988071
21
1.72911
0
LINE
8
BLACK
6
CONTINUOUS
10
0.00988071
20
1.72911
11
0.00774713
21
1.72591
0
LINE
8
BLACK
6
CONTINUOUS
10
0.00774713
20
1.72591
11
0.00455398
21
1.72378
0
LINE
8
BLACK
6
CONTINUOUS
10
0.00455398
20
1.72378
11
0.000787402
21
1.72303
0
LINE
8
BLACK
6
CONTINUOUS
10
0.000787402
20
1.72303
11
-0.0188976
21
1.72303
0
LINE
8
BLACK
6
CONTINUOUS
10
-0.0188976
20
1.72303
11
-0.0226642
21
1.72378
0
LINE
8
BLACK
6
CONTINUOUS
10
-0.0226642
20
1.72378
11
-0.0258574
21
1.72591
0
LINE
8
BLACK
6
CONTINUOUS
10
-0.0258574
20
1.72591
11
-0.0279909
21
1.72911
0
LINE
8
BLACK
6
CONTINUOUS
10
-0.0279909
20
1.72911
11
-0.0287402
21
1.73287
0
LINE
8
BLACK
6
CONTINUOUS
10
-0.0287402
20
1.73287
11
-0.0287402
21
1.77028
0
LINE
8
BLACK
6
CONTINUOUS
10
-0.0287402
20
1.77028
11
-0.0279909
21
1.77404
0
LINE
8
BLACK
6
CONTINUOUS
10
-0.0279909
20
1.77404
11
-0.0258574
21
1.77724
0
LINE
8
BLACK
6
CONTINUOUS
10
-0.0258574
20
1.77724
11
-0.0226642
21
1.77937
0
LINE
8
BLACK
6
CONTINUOUS
10
-0.0226642
20
1.77937
11
-0.0188976
21
1.78012
0
LINE
8
BLACK
6
CONTINUOUS
10
-0.0188976
20
1.78012
11
0.000787402
21
1.78012
0
LINE
8
BLACK
6
CONTINUOUS
10
0.000787402
20
1.78012
11
0.00455398
21
1.77937
  0
ENDSEC
  0
EOF
