  0
SECTION
  2
HEADER
  9
$ANGBASE
  50
0.0
  9
$ANGDIR
  70
1
  9
$MEASUREMENT
  70
0
  0
ENDSEC
  0
SECTION
  2
TABLES
  0
TABLE
  2
LTYPE
  70
4
  0
LTYPE
  5
40F
  2
CONTINUOUS
  70
0
  3
Solid line
  72
65
  73
0
  40
0.0
  0
LTYPE
  5
410
  2
DASHDOT
 70
0
  3
Dash Dot ____ _ ____ _
 72
65
 73
4
 40
2.0
 49
1.25
 49
-0.25
 49
0.25
 49
-0.25
  0
LTYPE
  5
411
  2
DASHED
 70
0
  3
Dashed __ __ __ __ __
 72
65
 73
2
 40
0.75
 49
0.5
 49
-0.25
  0
LTYPE
  5
43B
  2
DOTTED
 70
0
  3
Dotted .  .  .  .
 72
65
 73
2
 40
0.2
 49
0.0
 49
-0.2
  0
ENDTAB
  0
TABLE
  2
STYLE
  70
4
  0
STYLE
  2
KICAD
  70
0
  40
0
  41
1
  42
1
  50
0
  71
0
  3
isocp.shx
  0
STYLE
  2
KICADB
  70
0
  40
0
  41
1
  42
1
  50
0
  71
0
  3
isocp.shx
  0
STYLE
  2
KICADI
  70
0
  40
0
  41
1
  42
1
  50
15
  71
0
  3
isocp.shx
  0
STYLE
  2
KICADBI
  70
0
  40
0
  41
1
  42
1
  50
15
  71
0
  3
isocp.shx
  0
ENDTAB
  0
TABLE
  2
LAYER
  70
1
  0
LAYER
  2
BLACK
  70
0
  62
7
  6
CONTINUOUS
  0
ENDTAB
  0
ENDSEC
  0
SECTION
  2
ENTITIES
0
LINE
8
BLACK
6
CONTINUOUS
10
1.24195
20
0.641866
11
1.24264
21
0.639968
0
LINE
8
BLACK
6
CONTINUOUS
10
1.24264
20
0.639968
11
1.24264
21
0.624599
0
LINE
8
BLACK
6
CONTINUOUS
10
1.24264
20
0.624599
11
1.2601
21
0.642056
0
LINE
8
BLACK
6
CONTINUOUS
10
1.2601
20
0.642056
11
1.26094
21
0.642644
0
LINE
8
BLACK
6
CONTINUOUS
10
1.26094
20
0.642644
11
1.26295
21
0.64282
0
LINE
8
BLACK
6
CONTINUOUS
10
1.26295
20
0.64282
11
1.2646
21
0.641661
0
LINE
8
BLACK
6
CONTINUOUS
10
1.2646
20
0.641661
11
1.26513
21
0.63971
0
LINE
8
BLACK
6
CONTINUOUS
10
1.26513
20
0.63971
11
1.26427
21
0.63788
0
LINE
8
BLACK
6
CONTINUOUS
10
1.26427
20
0.63788
11
1.24921
21
0.622818
0
LINE
8
BLACK
6
CONTINUOUS
10
1.24921
20
0.622818
11
1.26455
21
0.602369
0
LINE
8
BLACK
6
CONTINUOUS
10
1.26455
20
0.602369
11
1.26501
21
0.601455
0
LINE
8
BLACK
6
CONTINUOUS
10
1.26501
20
0.601455
11
1.2649
21
0.599438
0
LINE
8
BLACK
6
CONTINUOUS
10
1.2649
20
0.599438
11
1.26352
21
0.597964
0
LINE
8
BLACK
6
CONTINUOUS
10
1.26352
20
0.597964
11
1.26152
21
0.597722
0
LINE
8
BLACK
6
CONTINUOUS
10
1.26152
20
0.597722
11
1.25982
21
0.598826
0
LINE
8
BLACK
6
CONTINUOUS
10
1.25982
20
0.598826
11
1.24499
21
0.6186
0
LINE
8
BLACK
6
CONTINUOUS
10
1.24499
20
0.6186
11
1.24264
21
0.616248
0
LINE
8
BLACK
6
CONTINUOUS
10
1.24264
20
0.616248
11
1.24264
21
0.600598
0
LINE
8
BLACK
6
CONTINUOUS
10
1.24264
20
0.600598
11
1.24246
21
0.599588
0
LINE
8
BLACK
6
CONTINUOUS
10
1.24246
20
0.599588
11
1.24117
21
0.598041
0
LINE
8
BLACK
6
CONTINUOUS
10
1.24117
20
0.598041
11
1.23918
21
0.59769
0
LINE
8
BLACK
6
CONTINUOUS
10
1.23918
20
0.59769
11
1.23743
21
0.5987
0
LINE
8
BLACK
6
CONTINUOUS
10
1.23743
20
0.5987
11
1.23674
21
0.600598
0
LINE
8
BLACK
6
CONTINUOUS
10
1.23674
20
0.600598
11
1.23674
21
0.639968
0
LINE
8
BLACK
6
CONTINUOUS
10
1.23674
20
0.639968
11
1.23691
21
0.640978
0
LINE
8
BLACK
6
CONTINUOUS
10
1.23691
20
0.640978
11
1.23821
21
0.642525
0
LINE
8
BLACK
6
CONTINUOUS
10
1.23821
20
0.642525
11
1.2402
21
0.642876
0
LINE
8
BLACK
6
CONTINUOUS
10
1.2402
20
0.642876
11
1.24195
21
0.641866
0
LINE
8
BLACK
6
CONTINUOUS
10
1.38118
20
0.792767
11
1.38125
21
0.792769
0
LINE
8
BLACK
6
CONTINUOUS
10
1.38125
20
0.792769
11
1.38687
21
0.790894
0
LINE
8
BLACK
6
CONTINUOUS
10
1.38687
20
0.790894
11
1.38777
21
0.790406
0
LINE
8
BLACK
6
CONTINUOUS
10
1.38777
20
0.790406
11
1.38787
21
0.790256
0
LINE
8
BLACK
6
CONTINUOUS
10
1.38787
20
0.790256
11
1.38803
21
0.790181
0
LINE
8
BLACK
6
CONTINUOUS
10
1.38803
20
0.790181
11
1.39178
21
0.786431
0
LINE
8
BLACK
6
CONTINUOUS
10
1.39178
20
0.786431
11
1.39228
21
0.785708
0
LINE
8
BLACK
6
CONTINUOUS
10
1.39228
20
0.785708
11
1.39233
21
0.785664
0
LINE
8
BLACK
6
CONTINUOUS
10
1.39233
20
0.785664
11
1.3942
21
0.781914
0
LINE
8
BLACK
6
CONTINUOUS
10
1.3942
20
0.781914
11
1.39435
21
0.781426
0
LINE
8
BLACK
6
CONTINUOUS
10
1.39435
20
0.781426
11
1.39443
21
0.78131
0
LINE
8
BLACK
6
CONTINUOUS
10
1.39443
20
0.78131
11
1.3963
21
0.773811
0
LINE
8
BLACK
6
CONTINUOUS
10
1.3963
20
0.773811
11
1.39634
21
0.773223
0
LINE
8
BLACK
6
CONTINUOUS
10
1.39634
20
0.773223
11
1.39639
21
0.773095
0
LINE
8
BLACK
6
CONTINUOUS
10
1.39639
20
0.773095
11
1.39639
21
0.767471
0
LINE
8
BLACK
6
CONTINUOUS
10
1.39639
20
0.767471
11
1.39629
21
0.76689
0
LINE
8
BLACK
6
CONTINUOUS
10
1.39629
20
0.76689
11
1.3963
21
0.766754
0
LINE
8
BLACK
6
CONTINUOUS
10
1.3963
20
0.766754
11
1.39443
21
0.759255
0
LINE
8
BLACK
6
CONTINUOUS
10
1.39443
20
0.759255
11
1.39422
21
0.75879
0
LINE
8
BLACK
6
CONTINUOUS
10
1.39422
20
0.75879
11
1.3942
21
0.758651
0
LINE
8
BLACK
6
CONTINUOUS
10
1.3942
20
0.758651
11
1.39233
21
0.754901
0
LINE
8
BLACK
6
CONTINUOUS
10
1.39233
20
0.754901
11
1.3918
21
0.754193
0
LINE
8
BLACK
6
CONTINUOUS
10
1.3918
20
0.754193
11
1.39178
21
0.754134
0
LINE
8
BLACK
6
CONTINUOUS
10
1.39178
20
0.754134
11
1.38803
21
0.750385
0
LINE
8
BLACK
6
CONTINUOUS
10
1.38803
20
0.750385
11
1.38719
21
0.749796
0
LINE
8
BLACK
6
CONTINUOUS
10
1.38719
20
0.749796
11
1.38701
21
0.749781
0
LINE
8
BLACK
6
CONTINUOUS
10
1.38701
20
0.749781
11
1.38687
21
0.749671
0
LINE
8
BLACK
6
CONTINUOUS
10
1.38687
20
0.749671
11
1.38125
21
0.747796
0
LINE
8
BLACK
6
CONTINUOUS
10
1.38125
20
0.747796
11
1.38038
21
0.747667
0
LINE
8
BLACK
6
CONTINUOUS
10
1.38038
20
0.747667
11
1.38031
21
0.747645
0
LINE
8
BLACK
6
CONTINUOUS
10
1.38031
20
0.747645
11
1.37094
21
0.747645
0
LINE
8
BLACK
6
CONTINUOUS
10
1.37094
20
0.747645
11
1.37056
21
0.747713
0
LINE
8
BLACK
6
CONTINUOUS
10
1.37056
20
0.747713
11
1.37043
21
0.74769
0
LINE
8
BLACK
6
CONTINUOUS
10
1.37043
20
0.74769
11
1.37031
21
0.747755
0
LINE
8
BLACK
6
CONTINUOUS
10
1.37031
20
0.747755
11
1.36993
21
0.747823
0
LINE
8
BLACK
6
CONTINUOUS
10
1.36993
20
0.747823
11
1.36934
21
0.748316
0
LINE
8
BLACK
6
CONTINUOUS
10
1.36934
20
0.748316
11
1.36868
21
0.7487
0
LINE
8
BLACK
6
CONTINUOUS
10
1.36868
20
0.7487
11
1.36859
21
0.74895
0
LINE
8
BLACK
6
CONTINUOUS
10
1.36859
20
0.74895
11
1.36838
21
0.749121
0
LINE
8
BLACK
6
CONTINUOUS
10
1.36838
20
0.749121
11
1.36825
21
0.749877
0
LINE
8
BLACK
6
CONTINUOUS
10
1.36825
20
0.749877
11
1.36799
21
0.750598
0
LINE
8
BLACK
6
CONTINUOUS
10
1.36799
20
0.750598
11
1.36799
21
0.789968
0
LINE
8
BLACK
6
CONTINUOUS
10
1.36799
20
0.789968
11
1.36806
21
0.790351
0
LINE
8
BLACK
6
CONTINUOUS
10
1.36806
20
0.790351
11
1.36803
21
0.790481
0
LINE
8
BLACK
6
CONTINUOUS
10
1.36803
20
0.790481
11
1.3681
21
0.790594
0
LINE
8
BLACK
6
CONTINUOUS
10
1.3681
20
0.790594
11
1.36817
21
0.790978
0
LINE
8
BLACK
6
CONTINUOUS
10
1.36817
20
0.790978
11
1.36866
21
0.791565
0
LINE
8
BLACK
6
CONTINUOUS
10
1.36866
20
0.791565
11
1.36904
21
0.79223
0
LINE
8
BLACK
6
CONTINUOUS
10
1.36904
20
0.79223
11
1.36929
21
0.792321
0
LINE
8
BLACK
6
CONTINUOUS
10
1.36929
20
0.792321
11
1.36946
21
0.792525
0
LINE
8
BLACK
6
CONTINUOUS
10
1.36946
20
0.792525
11
1.37022
21
0.792658
0
LINE
8
BLACK
6
CONTINUOUS
10
1.37022
20
0.792658
11
1.37094
21
0.792921
0
LINE
8
BLACK
6
CONTINUOUS
10
1.37094
20
0.792921
11
1.38031
21
0.792921
0
LINE
8
BLACK
6
CONTINUOUS
10
1.38031
20
0.792921
11
1.38118
21
0.792767
0
LINE
8
BLACK
6
CONTINUOUS
10
1.37389
20
0.75355
11
1.37984
21
0.75355
0
LINE
8
BLACK
6
CONTINUOUS
10
1.37984
20
0.75355
11
1.38434
21
0.755053
0
LINE
8
BLACK
6
CONTINUOUS
10
1.38434
20
0.755053
11
1.38726
21
0.757971
0
LINE
8
BLACK
6
CONTINUOUS
10
1.38726
20
0.757971
11
1.38878
21
0.761002
0
LINE
8
BLACK
6
CONTINUOUS
10
1.38878
20
0.761002
11
1.39049
21
0.767834
0
LINE
8
BLACK
6
CONTINUOUS
10
1.39049
20
0.767834
11
1.39049
21
0.772731
0
LINE
8
BLACK
6
CONTINUOUS
10
1.39049
20
0.772731
11
1.38878
21
0.779563
0
LINE
8
BLACK
6
CONTINUOUS
10
1.38878
20
0.779563
11
1.38726
21
0.782594
0
LINE
8
BLACK
6
CONTINUOUS
10
1.38726
20
0.782594
11
1.38434
21
0.785512
0
LINE
8
BLACK
6
CONTINUOUS
10
1.38434
20
0.785512
11
1.37984
21
0.787015
0
LINE
8
BLACK
6
CONTINUOUS
10
1.37984
20
0.787015
11
1.37389
21
0.787015
0
LINE
8
BLACK
6
CONTINUOUS
10
1.37389
20
0.787015
11
1.37389
21
0.75355
0
LINE
8
BLACK
6
CONTINUOUS
10
1.42444
20
0.792742
11
1.42458
21
0.792629
0
LINE
8
BLACK
6
CONTINUOUS
10
1.42458
20
0.792629
11
1.42476
21
0.792609
0
LINE
8
BLACK
6
CONTINUOUS
10
1.42476
20
0.792609
11
1.4285
21
0.790734
0
LINE
8
BLACK
6
CONTINUOUS
10
1.4285
20
0.790734
11
1.42921
21
0.790208
0
LINE
8
BLACK
6
CONTINUOUS
10
1.42921
20
0.790208
11
1.42927
21
0.790181
0
LINE
8
BLACK
6
CONTINUOUS
10
1.42927
20
0.790181
11
1.43115
21
0.788306
0
LINE
8
BLACK
6
CONTINUOUS
10
1.43115
20
0.788306
11
1.43165
21
0.787583
0
LINE
8
BLACK
6
CONTINUOUS
10
1.43165
20
0.787583
11
1.4317
21
0.787539
0
LINE
8
BLACK
6
CONTINUOUS
10
1.4317
20
0.787539
11
1.43357
21
0.783789
0
LINE
8
BLACK
6
CONTINUOUS
10
1.43357
20
0.783789
11
1.43387
21
0.782806
0
LINE
8
BLACK
6
CONTINUOUS
10
1.43387
20
0.782806
11
1.43383
21
0.782635
0
LINE
8
BLACK
6
CONTINUOUS
10
1.43383
20
0.782635
11
1.43389
21
0.782469
0
LINE
8
BLACK
6
CONTINUOUS
10
1.43389
20
0.782469
11
1.43389
21
0.778719
0
LINE
8
BLACK
6
CONTINUOUS
10
1.43389
20
0.778719
11
1.43373
21
0.77785
0
LINE
8
BLACK
6
CONTINUOUS
10
1.43373
20
0.77785
11
1.43373
21
0.777785
0
LINE
8
BLACK
6
CONTINUOUS
10
1.43373
20
0.777785
11
1.43186
21
0.772161
0
LINE
8
BLACK
6
CONTINUOUS
10
1.43186
20
0.772161
11
1.43137
21
0.771259
0
LINE
8
BLACK
6
CONTINUOUS
10
1.43137
20
0.771259
11
1.43122
21
0.771167
0
LINE
8
BLACK
6
CONTINUOUS
10
1.43122
20
0.771167
11
1.43115
21
0.771007
0
LINE
8
BLACK
6
CONTINUOUS
10
1.43115
20
0.771007
11
1.41369
21
0.75355
0
LINE
8
BLACK
6
CONTINUOUS
10
1.41369
20
0.75355
11
1.43093
21
0.75355
0
LINE
8
BLACK
6
CONTINUOUS
10
1.43093
20
0.75355
11
1.43194
21
0.753372
0
LINE
8
BLACK
6
CONTINUOUS
10
1.43194
20
0.753372
11
1.43349
21
0.752074
0
LINE
8
BLACK
6
CONTINUOUS
10
1.43349
20
0.752074
11
1.43384
21
0.750085
0
LINE
8
BLACK
6
CONTINUOUS
10
1.43384
20
0.750085
11
1.43283
21
0.748336
0
LINE
8
BLACK
6
CONTINUOUS
10
1.43283
20
0.748336
11
1.43093
21
0.747645
0
LINE
8
BLACK
6
CONTINUOUS
10
1.43093
20
0.747645
11
1.40656
21
0.747645
0
LINE
8
BLACK
6
CONTINUOUS
10
1.40656
20
0.747645
11
1.40593
21
0.747757
0
LINE
8
BLACK
6
CONTINUOUS
10
1.40593
20
0.747757
11
1.4058
21
0.747746
0
LINE
8
BLACK
6
CONTINUOUS
10
1.4058
20
0.747746
11
1.40573
21
0.747791
0
LINE
8
BLACK
6
CONTINUOUS
10
1.40573
20
0.747791
11
1.40555
21
0.747823
0
LINE
8
BLACK
6
CONTINUOUS
10
1.40555
20
0.747823
11
1.40487
21
0.748394
0
LINE
8
BLACK
6
CONTINUOUS
10
1.40487
20
0.748394
11
1.40414
21
0.748904
0
LINE
8
BLACK
6
CONTINUOUS
10
1.40414
20
0.748904
11
1.40411
21
0.749035
0
LINE
8
BLACK
6
CONTINUOUS
10
1.40411
20
0.749035
11
1.404
21
0.749121
0
LINE
8
BLACK
6
CONTINUOUS
10
1.404
20
0.749121
11
1.40385
21
0.749997
0
LINE
8
BLACK
6
CONTINUOUS
10
1.40385
20
0.749997
11
1.40362
21
0.750855
0
LINE
8
BLACK
6
CONTINUOUS
10
1.40362
20
0.750855
11
1.40368
21
0.750977
0
LINE
8
BLACK
6
CONTINUOUS
10
1.40368
20
0.750977
11
1.40365
21
0.75111
0
LINE
8
BLACK
6
CONTINUOUS
10
1.40365
20
0.75111
11
1.4041
21
0.75188
0
LINE
8
BLACK
6
CONTINUOUS
10
1.4041
20
0.75188
11
1.40447
21
0.752686
0
LINE
8
BLACK
6
CONTINUOUS
10
1.40447
20
0.752686
11
1.42648
21
0.77469
0
LINE
8
BLACK
6
CONTINUOUS
10
1.42648
20
0.77469
11
1.42798
21
0.779198
0
LINE
8
BLACK
6
CONTINUOUS
10
1.42798
20
0.779198
11
1.42798
21
0.781772
0
LINE
8
BLACK
6
CONTINUOUS
10
1.42798
20
0.781772
11
1.42663
21
0.784469
0
LINE
8
BLACK
6
CONTINUOUS
10
1.42663
20
0.784469
11
1.42544
21
0.785666
0
LINE
8
BLACK
6
CONTINUOUS
10
1.42544
20
0.785666
11
1.42274
21
0.787015
0
LINE
8
BLACK
6
CONTINUOUS
10
1.42274
20
0.787015
11
1.41476
21
0.787015
0
LINE
8
BLACK
6
CONTINUOUS
10
1.41476
20
0.787015
11
1.41206
21
0.785666
0
LINE
8
BLACK
6
CONTINUOUS
10
1.41206
20
0.785666
11
1.41052
21
0.78413
0
LINE
8
BLACK
6
CONTINUOUS
10
1.41052
20
0.78413
11
1.40968
21
0.783542
0
LINE
8
BLACK
6
CONTINUOUS
10
1.40968
20
0.783542
11
1.40767
21
0.783366
0
LINE
8
BLACK
6
CONTINUOUS
10
1.40767
20
0.783366
11
1.40602
21
0.784525
0
LINE
8
BLACK
6
CONTINUOUS
10
1.40602
20
0.784525
11
1.40549
21
0.786476
0
LINE
8
BLACK
6
CONTINUOUS
10
1.40549
20
0.786476
11
1.40635
21
0.788306
0
LINE
8
BLACK
6
CONTINUOUS
10
1.40635
20
0.788306
11
1.40822
21
0.790181
0
LINE
8
BLACK
6
CONTINUOUS
10
1.40822
20
0.790181
11
1.40895
21
0.790687
0
LINE
8
BLACK
6
CONTINUOUS
10
1.40895
20
0.790687
11
1.40899
21
0.790734
0
LINE
8
BLACK
6
CONTINUOUS
10
1.40899
20
0.790734
11
1.41274
21
0.792609
0
LINE
8
BLACK
6
CONTINUOUS
10
1.41274
20
0.792609
11
1.41372
21
0.792901
0
LINE
8
BLACK
6
CONTINUOUS
10
1.41372
20
0.792901
11
1.41389
21
0.79286
0
LINE
8
BLACK
6
CONTINUOUS
10
1.41389
20
0.79286
11
1.41406
21
0.792921
0
LINE
8
BLACK
6
CONTINUOUS
10
1.41406
20
0.792921
11
1.42343
21
0.792921
0
LINE
8
BLACK
6
CONTINUOUS
10
1.42343
20
0.792921
11
1.42444
21
0.792742
0
LINE
8
BLACK
6
CONTINUOUS
10
1.67953
20
1.53346
11
1.68092
21
1.53289
0
LINE
8
BLACK
6
CONTINUOUS
10
1.68092
20
1.53289
11
1.6815
21
1.5315
0
LINE
8
BLACK
6
CONTINUOUS
10
1.6815
20
1.5315
11
1.6815
21
0.468504
0
LINE
8
BLACK
6
CONTINUOUS
10
1.6815
20
0.468504
11
1.68092
21
0.467112
0
LINE
8
BLACK
6
CONTINUOUS
10
1.68092
20
0.467112
11
1.67953
21
0.466535
0
LINE
8
BLACK
6
CONTINUOUS
10
1.67953
20
0.466535
11
1.12047
21
0.466535
0
LINE
8
BLACK
6
CONTINUOUS
10
1.12047
20
0.466535
11
1.11908
21
0.467112
0
LINE
8
BLACK
6
CONTINUOUS
10
1.11908
20
0.467112
11
1.1185
21
0.468504
0
LINE
8
BLACK
6
CONTINUOUS
10
1.1185
20
0.468504
11
1.1185
21
1.5315
0
LINE
8
BLACK
6
CONTINUOUS
10
1.1185
20
1.5315
11
1.11908
21
1.53289
0
LINE
8
BLACK
6
CONTINUOUS
10
1.11908
20
1.53289
11
1.12047
21
1.53346
0
LINE
8
BLACK
6
CONTINUOUS
10
1.12047
20
1.53346
11
1.67953
21
1.53346
0
LINE
8
BLACK
6
CONTINUOUS
10
1.12244
20
1.52953
11
1.12244
21
0.470472
0
LINE
8
BLACK
6
CONTINUOUS
10
1.12244
20
0.470472
11
1.67756
21
0.470472
0
LINE
8
BLACK
6
CONTINUOUS
10
1.67756
20
0.470472
11
1.67756
21
1.52953
0
LINE
8
BLACK
6
CONTINUOUS
10
1.67756
20
1.52953
11
1.12244
21
1.52953
0
LINE
8
BLACK
6
CONTINUOUS
10
2.40226
20
0.781898
11
2.40295
21
0.78
0
LINE
8
BLACK
6
CONTINUOUS
10
2.40295
20
0.78
11
2.40295
21
0.69
0
LINE
8
BLACK
6
CONTINUOUS
10
2.40295
20
0.69
11
2.40289
21
0.689616
0
LINE
8
BLACK
6
CONTINUOUS
10
2.40289
20
0.689616
11
2.40291
21
0.689487
0
LINE
8
BLACK
6
CONTINUOUS
10
2.40291
20
0.689487
11
2.40284
21
0.689374
0
LINE
8
BLACK
6
CONTINUOUS
10
2.40284
20
0.689374
11
2.40277
21
0.68899
0
LINE
8
BLACK
6
CONTINUOUS
10
2.40277
20
0.68899
11
2.40228
21
0.688402
0
LINE
8
BLACK
6
CONTINUOUS
10
2.40228
20
0.688402
11
2.4019
21
0.687738
0
LINE
8
BLACK
6
CONTINUOUS
10
2.4019
20
0.687738
11
2.40165
21
0.687647
0
LINE
8
BLACK
6
CONTINUOUS
10
2.40165
20
0.687647
11
2.40148
21
0.687443
0
LINE
8
BLACK
6
CONTINUOUS
10
2.40148
20
0.687443
11
2.40072
21
0.68731
0
LINE
8
BLACK
6
CONTINUOUS
10
2.40072
20
0.68731
11
2.4
21
0.687047
0
LINE
8
BLACK
6
CONTINUOUS
10
2.4
20
0.687047
11
2.2
21
0.687047
0
LINE
8
BLACK
6
CONTINUOUS
10
2.2
20
0.687047
11
2.19962
21
0.687115
0
LINE
8
BLACK
6
CONTINUOUS
10
2.19962
20
0.687115
11
2.19949
21
0.687092
0
LINE
8
BLACK
6
CONTINUOUS
10
2.19949
20
0.687092
11
2.19937
21
0.687158
0
LINE
8
BLACK
6
CONTINUOUS
10
2.19937
20
0.687158
11
2.19899
21
0.687225
0
LINE
8
BLACK
6
CONTINUOUS
10
2.19899
20
0.687225
11
2.1984
21
0.687718
0
LINE
8
BLACK
6
CONTINUOUS
10
2.1984
20
0.687718
11
2.19774
21
0.688102
0
LINE
8
BLACK
6
CONTINUOUS
10
2.19774
20
0.688102
11
2.19765
21
0.688352
0
LINE
8
BLACK
6
CONTINUOUS
10
2.19765
20
0.688352
11
2.19744
21
0.688524
0
LINE
8
BLACK
6
CONTINUOUS
10
2.19744
20
0.688524
11
2.19731
21
0.689279
0
LINE
8
BLACK
6
CONTINUOUS
10
2.19731
20
0.689279
11
2.19705
21
0.69
0
LINE
8
BLACK
6
CONTINUOUS
10
2.19705
20
0.69
11
2.19705
21
0.78
0
LINE
8
BLACK
6
CONTINUOUS
10
2.19705
20
0.78
11
2.19723
21
0.78101
0
LINE
8
BLACK
6
CONTINUOUS
10
2.19723
20
0.78101
11
2.19852
21
0.782557
0
LINE
8
BLACK
6
CONTINUOUS
10
2.19852
20
0.782557
11
2.20051
21
0.782908
0
LINE
8
BLACK
6
CONTINUOUS
10
2.20051
20
0.782908
11
2.20226
21
0.781898
0
LINE
8
BLACK
6
CONTINUOUS
10
2.20226
20
0.781898
11
2.20295
21
0.78
0
LINE
8
BLACK
6
CONTINUOUS
10
2.20295
20
0.78
11
2.20295
21
0.692953
0
LINE
8
BLACK
6
CONTINUOUS
10
2.20295
20
0.692953
11
2.39705
21
0.692953
0
LINE
8
BLACK
6
CONTINUOUS
10
2.39705
20
0.692953
11
2.39705
21
0.78
0
LINE
8
BLACK
6
CONTINUOUS
10
2.39705
20
0.78
11
2.39723
21
0.78101
0
LINE
8
BLACK
6
CONTINUOUS
10
2.39723
20
0.78101
11
2.39852
21
0.782557
0
LINE
8
BLACK
6
CONTINUOUS
10
2.39852
20
0.782557
11
2.40051
21
0.782908
0
LINE
8
BLACK
6
CONTINUOUS
10
2.40051
20
0.782908
11
2.40226
21
0.781898
0
LINE
8
BLACK
6
CONTINUOUS
10
0.34
20
0.925
11
0.28
21
0.925
0
LINE
8
BLACK
6
CONTINUOUS
10
0.28
20
0.925
11
0.28
21
0.985
0
LINE
8
BLACK
6
CONTINUOUS
10
0.28
20
0.985
11
0.34
21
0.985
0
LINE
8
BLACK
6
CONTINUOUS
10
0.34
20
0.985
11
0.34
21
0.925
0
LINE
8
BLACK
6
CONTINUOUS
10
0.44
20
0.925
11
0.38
21
0.925
0
LINE
8
BLACK
6
CONTINUOUS
10
0.38
20
0.925
11
0.38
21
0.985
0
LINE
8
BLACK
6
CONTINUOUS
10
0.38
20
0.985
11
0.44
21
0.985
0
LINE
8
BLACK
6
CONTINUOUS
10
0.44
20
0.985
11
0.44
21
0.925
0
LINE
8
BLACK
6
CONTINUOUS
10
0.34
20
1.025
11
0.28
21
1.025
0
LINE
8
BLACK
6
CONTINUOUS
10
0.28
20
1.025
11
0.28
21
1.085
0
LINE
8
BLACK
6
CONTINUOUS
10
0.28
20
1.085
11
0.34
21
1.085
0
LINE
8
BLACK
6
CONTINUOUS
10
0.34
20
1.085
11
0.34
21
1.025
0
LINE
8
BLACK
6
CONTINUOUS
10
0.44
20
1.025
11
0.38
21
1.025
0
LINE
8
BLACK
6
CONTINUOUS
10
0.38
20
1.025
11
0.38
21
1.085
0
LINE
8
BLACK
6
CONTINUOUS
10
0.38
20
1.085
11
0.44
21
1.085
0
LINE
8
BLACK
6
CONTINUOUS
10
0.44
20
1.085
11
0.44
21
1.025
0
LINE
8
BLACK
6
CONTINUOUS
10
0.34
20
1.125
11
0.28
21
1.125
0
LINE
8
BLACK
6
CONTINUOUS
10
0.28
20
1.125
11
0.28
21
1.185
0
LINE
8
BLACK
6
CONTINUOUS
10
0.28
20
1.185
11
0.34
21
1.185
0
LINE
8
BLACK
6
CONTINUOUS
10
0.34
20
1.185
11
0.34
21
1.125
0
LINE
8
BLACK
6
CONTINUOUS
10
0.44
20
1.125
11
0.38
21
1.125
0
LINE
8
BLACK
6
CONTINUOUS
10
0.38
20
1.125
11
0.38
21
1.185
0
LINE
8
BLACK
6
CONTINUOUS
10
0.38
20
1.185
11
0.44
21
1.185
0
LINE
8
BLACK
6
CONTINUOUS
10
0.44
20
1.185
11
0.44
21
1.125
0
LINE
8
BLACK
6
CONTINUOUS
10
0.34
20
1.225
11
0.28
21
1.225
0
LINE
8
BLACK
6
CONTINUOUS
10
0.28
20
1.225
11
0.28
21
1.285
0
LINE
8
BLACK
6
CONTINUOUS
10
0.28
20
1.285
11
0.34
21
1.285
0
LINE
8
BLACK
6
CONTINUOUS
10
0.34
20
1.285
11
0.34
21
1.225
0
LINE
8
BLACK
6
CONTINUOUS
10
0.44
20
1.225
11
0.38
21
1.225
0
LINE
8
BLACK
6
CONTINUOUS
10
0.38
20
1.225
11
0.38
21
1.285
0
LINE
8
BLACK
6
CONTINUOUS
10
0.38
20
1.285
11
0.44
21
1.285
0
LINE
8
BLACK
6
CONTINUOUS
10
0.44
20
1.285
11
0.44
21
1.225
0
LINE
8
BLACK
6
CONTINUOUS
10
0.34
20
1.325
11
0.28
21
1.325
0
LINE
8
BLACK
6
CONTINUOUS
10
0.28
20
1.325
11
0.28
21
1.385
0
LINE
8
BLACK
6
CONTINUOUS
10
0.28
20
1.385
11
0.34
21
1.385
0
LINE
8
BLACK
6
CONTINUOUS
10
0.34
20
1.385
11
0.34
21
1.325
0
LINE
8
BLACK
6
CONTINUOUS
10
0.44
20
1.325
11
0.38
21
1.325
0
LINE
8
BLACK
6
CONTINUOUS
10
0.38
20
1.325
11
0.38
21
1.385
0
LINE
8
BLACK
6
CONTINUOUS
10
0.38
20
1.385
11
0.44
21
1.385
0
LINE
8
BLACK
6
CONTINUOUS
10
0.44
20
1.385
11
0.44
21
1.325
0
LINE
8
BLACK
6
CONTINUOUS
10
0.460384
20
1.40789
11
0.460513
21
1.40791
0
LINE
8
BLACK
6
CONTINUOUS
10
0.460513
20
1.40791
11
0.460626
21
1.40784
0
LINE
8
BLACK
6
CONTINUOUS
10
0.460626
20
1.40784
11
0.46101
21
1.40777
0
LINE
8
BLACK
6
CONTINUOUS
10
0.46101
20
1.40777
11
0.461598
21
1.40728
0
LINE
8
BLACK
6
CONTINUOUS
10
0.461598
20
1.40728
11
0.462262
21
1.4069
0
LINE
8
BLACK
6
CONTINUOUS
10
0.462262
20
1.4069
11
0.462353
21
1.40665
0
LINE
8
BLACK
6
CONTINUOUS
10
0.462353
20
1.40665
11
0.462557
21
1.40648
0
LINE
8
BLACK
6
CONTINUOUS
10
0.462557
20
1.40648
11
0.46269
21
1.40572
0
LINE
8
BLACK
6
CONTINUOUS
10
0.46269
20
1.40572
11
0.462953
21
1.405
0
LINE
8
BLACK
6
CONTINUOUS
10
0.462953
20
1.405
11
0.462953
21
0.905
0
LINE
8
BLACK
6
CONTINUOUS
10
0.462953
20
0.905
11
0.462885
21
0.904616
0
LINE
8
BLACK
6
CONTINUOUS
10
0.462885
20
0.904616
11
0.462908
21
0.904487
0
LINE
8
BLACK
6
CONTINUOUS
10
0.462908
20
0.904487
11
0.462842
21
0.904374
0
LINE
8
BLACK
6
CONTINUOUS
10
0.462842
20
0.904374
11
0.462775
21
0.90399
0
LINE
8
BLACK
6
CONTINUOUS
10
0.462775
20
0.90399
11
0.462282
21
0.903402
0
LINE
8
BLACK
6
CONTINUOUS
10
0.462282
20
0.903402
11
0.461898
21
0.902738
0
LINE
8
BLACK
6
CONTINUOUS
10
0.461898
20
0.902738
11
0.461648
21
0.902647
0
LINE
8
BLACK
6
CONTINUOUS
10
0.461648
20
0.902647
11
0.461476
21
0.902443
0
LINE
8
BLACK
6
CONTINUOUS
10
0.461476
20
0.902443
11
0.460721
21
0.90231
0
LINE
8
BLACK
6
CONTINUOUS
10
0.460721
20
0.90231
11
0.46
21
0.902047
0
LINE
8
BLACK
6
CONTINUOUS
10
0.46
20
0.902047
11
0.26
21
0.902047
0
LINE
8
BLACK
6
CONTINUOUS
10
0.26
20
0.902047
11
0.259616
21
0.902115
0
LINE
8
BLACK
6
CONTINUOUS
10
0.259616
20
0.902115
11
0.259487
21
0.902092
0
LINE
8
BLACK
6
CONTINUOUS
10
0.259487
20
0.902092
11
0.259374
21
0.902158
0
LINE
8
BLACK
6
CONTINUOUS
10
0.259374
20
0.902158
11
0.25899
21
0.902225
0
LINE
8
BLACK
6
CONTINUOUS
10
0.25899
20
0.902225
11
0.258402
21
0.902718
0
LINE
8
BLACK
6
CONTINUOUS
10
0.258402
20
0.902718
11
0.257738
21
0.903102
0
LINE
8
BLACK
6
CONTINUOUS
10
0.257738
20
0.903102
11
0.257647
21
0.903352
0
LINE
8
BLACK
6
CONTINUOUS
10
0.257647
20
0.903352
11
0.257443
21
0.903524
0
LINE
8
BLACK
6
CONTINUOUS
10
0.257443
20
0.903524
11
0.25731
21
0.904279
0
LINE
8
BLACK
6
CONTINUOUS
10
0.25731
20
0.904279
11
0.257047
21
0.905
0
LINE
8
BLACK
6
CONTINUOUS
10
0.257047
20
0.905
11
0.257047
21
1.405
0
LINE
8
BLACK
6
CONTINUOUS
10
0.257047
20
1.405
11
0.257115
21
1.40538
0
LINE
8
BLACK
6
CONTINUOUS
10
0.257115
20
1.40538
11
0.257092
21
1.40551
0
LINE
8
BLACK
6
CONTINUOUS
10
0.257092
20
1.40551
11
0.257158
21
1.40563
0
LINE
8
BLACK
6
CONTINUOUS
10
0.257158
20
1.40563
11
0.257225
21
1.40601
0
LINE
8
BLACK
6
CONTINUOUS
10
0.257225
20
1.40601
11
0.257718
21
1.4066
0
LINE
8
BLACK
6
CONTINUOUS
10
0.257718
20
1.4066
11
0.258102
21
1.40726
0
LINE
8
BLACK
6
CONTINUOUS
10
0.258102
20
1.40726
11
0.258352
21
1.40735
0
LINE
8
BLACK
6
CONTINUOUS
10
0.258352
20
1.40735
11
0.258524
21
1.40756
0
LINE
8
BLACK
6
CONTINUOUS
10
0.258524
20
1.40756
11
0.259279
21
1.40769
0
LINE
8
BLACK
6
CONTINUOUS
10
0.259279
20
1.40769
11
0.26
21
1.40795
0
LINE
8
BLACK
6
CONTINUOUS
10
0.26
20
1.40795
11
0.46
21
1.40795
0
LINE
8
BLACK
6
CONTINUOUS
10
0.46
20
1.40795
11
0.460384
21
1.40789
0
LINE
8
BLACK
6
CONTINUOUS
10
0.262953
20
1.40205
11
0.262953
21
0.907953
0
LINE
8
BLACK
6
CONTINUOUS
10
0.262953
20
0.907953
11
0.457047
21
0.907953
0
LINE
8
BLACK
6
CONTINUOUS
10
0.457047
20
0.907953
11
0.457047
21
1.40205
0
LINE
8
BLACK
6
CONTINUOUS
10
0.457047
20
1.40205
11
0.262953
21
1.40205
0
LINE
8
BLACK
6
CONTINUOUS
10
2.33914
20
1.06635
11
2.33983
21
1.06446
0
LINE
8
BLACK
6
CONTINUOUS
10
2.33983
20
1.06446
11
2.33983
21
1.03633
0
LINE
8
BLACK
6
CONTINUOUS
10
2.33983
20
1.03633
11
2.33968
21
1.03547
0
LINE
8
BLACK
6
CONTINUOUS
10
2.33968
20
1.03547
11
2.33968
21
1.0354
0
LINE
8
BLACK
6
CONTINUOUS
10
2.33968
20
1.0354
11
2.3378
21
1.02978
0
LINE
8
BLACK
6
CONTINUOUS
10
2.3378
20
1.02978
11
2.33731
21
1.02887
0
LINE
8
BLACK
6
CONTINUOUS
10
2.33731
20
1.02887
11
2.33716
21
1.02878
0
LINE
8
BLACK
6
CONTINUOUS
10
2.33716
20
1.02878
11
2.33709
21
1.02862
0
LINE
8
BLACK
6
CONTINUOUS
10
2.33709
20
1.02862
11
2.33334
21
1.02487
0
LINE
8
BLACK
6
CONTINUOUS
10
2.33334
20
1.02487
11
2.3325
21
1.02428
0
LINE
8
BLACK
6
CONTINUOUS
10
2.3325
20
1.02428
11
2.33232
21
1.02427
0
LINE
8
BLACK
6
CONTINUOUS
10
2.33232
20
1.02427
11
2.33219
21
1.02416
0
LINE
8
BLACK
6
CONTINUOUS
10
2.33219
20
1.02416
11
2.32656
21
1.02228
0
LINE
8
BLACK
6
CONTINUOUS
10
2.32656
20
1.02228
11
2.32569
21
1.02216
0
LINE
8
BLACK
6
CONTINUOUS
10
2.32569
20
1.02216
11
2.32563
21
1.02213
0
LINE
8
BLACK
6
CONTINUOUS
10
2.32563
20
1.02213
11
2.32188
21
1.02213
0
LINE
8
BLACK
6
CONTINUOUS
10
2.32188
20
1.02213
11
2.32087
21
1.02231
0
LINE
8
BLACK
6
CONTINUOUS
10
2.32087
20
1.02231
11
2.31932
21
1.02361
0
LINE
8
BLACK
6
CONTINUOUS
10
2.31932
20
1.02361
11
2.31897
21
1.0256
0
LINE
8
BLACK
6
CONTINUOUS
10
2.31897
20
1.0256
11
2.31998
21
1.02735
0
LINE
8
BLACK
6
CONTINUOUS
10
2.31998
20
1.02735
11
2.32188
21
1.02804
0
LINE
8
BLACK
6
CONTINUOUS
10
2.32188
20
1.02804
11
2.32515
21
1.02804
0
LINE
8
BLACK
6
CONTINUOUS
10
2.32515
20
1.02804
11
2.32966
21
1.02954
0
LINE
8
BLACK
6
CONTINUOUS
10
2.32966
20
1.02954
11
2.33242
21
1.03231
0
LINE
8
BLACK
6
CONTINUOUS
10
2.33242
20
1.03231
11
2.33392
21
1.03681
0
LINE
8
BLACK
6
CONTINUOUS
10
2.33392
20
1.03681
11
2.33392
21
1.06446
0
LINE
8
BLACK
6
CONTINUOUS
10
2.33392
20
1.06446
11
2.3341
21
1.06547
0
LINE
8
BLACK
6
CONTINUOUS
10
2.3341
20
1.06547
11
2.3354
21
1.06701
0
LINE
8
BLACK
6
CONTINUOUS
10
2.3354
20
1.06701
11
2.33739
21
1.06736
0
LINE
8
BLACK
6
CONTINUOUS
10
2.33739
20
1.06736
11
2.33914
21
1.06635
0
LINE
8
BLACK
6
CONTINUOUS
10
2.36534
20
1.06733
11
2.36551
21
1.06736
0
LINE
8
BLACK
6
CONTINUOUS
10
2.36551
20
1.06736
11
2.36625
21
1.06694
0
LINE
8
BLACK
6
CONTINUOUS
10
2.36625
20
1.06694
11
2.36704
21
1.06659
0
LINE
8
BLACK
6
CONTINUOUS
10
2.36704
20
1.06659
11
2.36711
21
1.06644
0
LINE
8
BLACK
6
CONTINUOUS
10
2.36711
20
1.06644
11
2.36726
21
1.06635
0
LINE
8
BLACK
6
CONTINUOUS
10
2.36726
20
1.06635
11
2.36755
21
1.06555
0
LINE
8
BLACK
6
CONTINUOUS
10
2.36755
20
1.06555
11
2.36793
21
1.06478
0
LINE
8
BLACK
6
CONTINUOUS
10
2.36793
20
1.06478
11
2.36789
21
1.06462
0
LINE
8
BLACK
6
CONTINUOUS
10
2.36789
20
1.06462
11
2.36795
21
1.06446
0
LINE
8
BLACK
6
CONTINUOUS
10
2.36795
20
1.06446
11
2.36795
21
1.02804
0
LINE
8
BLACK
6
CONTINUOUS
10
2.36795
20
1.02804
11
2.37625
21
1.02804
0
LINE
8
BLACK
6
CONTINUOUS
10
2.37625
20
1.02804
11
2.37726
21
1.02786
0
LINE
8
BLACK
6
CONTINUOUS
10
2.37726
20
1.02786
11
2.3788
21
1.02656
0
LINE
8
BLACK
6
CONTINUOUS
10
2.3788
20
1.02656
11
2.37915
21
1.02457
0
LINE
8
BLACK
6
CONTINUOUS
10
2.37915
20
1.02457
11
2.37814
21
1.02282
0
LINE
8
BLACK
6
CONTINUOUS
10
2.37814
20
1.02282
11
2.37625
21
1.02213
0
LINE
8
BLACK
6
CONTINUOUS
10
2.37625
20
1.02213
11
2.35375
21
1.02213
0
LINE
8
BLACK
6
CONTINUOUS
10
2.35375
20
1.02213
11
2.35274
21
1.02231
0
LINE
8
BLACK
6
CONTINUOUS
10
2.35274
20
1.02231
11
2.35119
21
1.02361
0
LINE
8
BLACK
6
CONTINUOUS
10
2.35119
20
1.02361
11
2.35084
21
1.0256
0
LINE
8
BLACK
6
CONTINUOUS
10
2.35084
20
1.0256
11
2.35185
21
1.02735
0
LINE
8
BLACK
6
CONTINUOUS
10
2.35185
20
1.02735
11
2.35375
21
1.02804
0
LINE
8
BLACK
6
CONTINUOUS
10
2.35375
20
1.02804
11
2.36205
21
1.02804
0
LINE
8
BLACK
6
CONTINUOUS
10
2.36205
20
1.02804
11
2.36205
21
1.05545
0
LINE
8
BLACK
6
CONTINUOUS
10
2.36205
20
1.05545
11
2.35959
21
1.05299
0
LINE
8
BLACK
6
CONTINUOUS
10
2.35959
20
1.05299
11
2.35886
21
1.05249
0
LINE
8
BLACK
6
CONTINUOUS
10
2.35886
20
1.05249
11
2.35882
21
1.05244
0
LINE
8
BLACK
6
CONTINUOUS
10
2.35882
20
1.05244
11
2.35507
21
1.05057
0
LINE
8
BLACK
6
CONTINUOUS
10
2.35507
20
1.05057
11
2.35409
21
1.05027
0
LINE
8
BLACK
6
CONTINUOUS
10
2.35409
20
1.05027
11
2.35212
21
1.05074
0
LINE
8
BLACK
6
CONTINUOUS
10
2.35212
20
1.05074
11
2.35092
21
1.05237
0
LINE
8
BLACK
6
CONTINUOUS
10
2.35092
20
1.05237
11
2.35104
21
1.05438
0
LINE
8
BLACK
6
CONTINUOUS
10
2.35104
20
1.05438
11
2.35243
21
1.05585
0
LINE
8
BLACK
6
CONTINUOUS
10
2.35243
20
1.05585
11
2.35575
21
1.05751
0
LINE
8
BLACK
6
CONTINUOUS
10
2.35575
20
1.05751
11
2.35895
21
1.06071
0
LINE
8
BLACK
6
CONTINUOUS
10
2.35895
20
1.06071
11
2.36254
21
1.06609
0
LINE
8
BLACK
6
CONTINUOUS
10
2.36254
20
1.06609
11
2.36325
21
1.06684
0
LINE
8
BLACK
6
CONTINUOUS
10
2.36325
20
1.06684
11
2.36341
21
1.06688
0
LINE
8
BLACK
6
CONTINUOUS
10
2.36341
20
1.06688
11
2.36352
21
1.06701
0
LINE
8
BLACK
6
CONTINUOUS
10
2.36352
20
1.06701
11
2.36437
21
1.06716
0
LINE
8
BLACK
6
CONTINUOUS
10
2.36437
20
1.06716
11
2.36519
21
1.0674
0
LINE
8
BLACK
6
CONTINUOUS
10
2.36519
20
1.0674
11
2.36534
21
1.06733
0
LINE
8
BLACK
6
CONTINUOUS
10
2.40876
20
1.09958
11
2.40945
21
1.09791
0
LINE
8
BLACK
6
CONTINUOUS
10
2.40945
20
1.09791
11
2.40876
21
1.09624
0
LINE
8
BLACK
6
CONTINUOUS
10
2.40876
20
1.09624
11
2.40709
21
1.09555
0
LINE
8
BLACK
6
CONTINUOUS
10
2.40709
20
1.09555
11
2.29291
21
1.09555
0
LINE
8
BLACK
6
CONTINUOUS
10
2.29291
20
1.09555
11
2.29124
21
1.09624
0
LINE
8
BLACK
6
CONTINUOUS
10
2.29124
20
1.09624
11
2.29055
21
1.09791
0
LINE
8
BLACK
6
CONTINUOUS
10
2.29055
20
1.09791
11
2.29124
21
1.09958
0
LINE
8
BLACK
6
CONTINUOUS
10
2.29124
20
1.09958
11
2.29291
21
1.10028
0
LINE
8
BLACK
6
CONTINUOUS
10
2.29291
20
1.10028
11
2.40709
21
1.10028
0
LINE
8
BLACK
6
CONTINUOUS
10
2.40709
20
1.10028
11
2.40876
21
1.09958
0
LINE
8
BLACK
6
CONTINUOUS
10
2.21958
20
1.28876
11
2.22028
21
1.28709
0
LINE
8
BLACK
6
CONTINUOUS
10
2.22028
20
1.28709
11
2.22028
21
1.17291
0
LINE
8
BLACK
6
CONTINUOUS
10
2.22028
20
1.17291
11
2.21958
21
1.17124
0
LINE
8
BLACK
6
CONTINUOUS
10
2.21958
20
1.17124
11
2.21791
21
1.17055
0
LINE
8
BLACK
6
CONTINUOUS
10
2.21791
20
1.17055
11
2.21624
21
1.17124
0
LINE
8
BLACK
6
CONTINUOUS
10
2.21624
20
1.17124
11
2.21555
21
1.17291
0
LINE
8
BLACK
6
CONTINUOUS
10
2.21555
20
1.17291
11
2.21555
21
1.28709
0
LINE
8
BLACK
6
CONTINUOUS
10
2.21555
20
1.28709
11
2.21624
21
1.28876
0
LINE
8
BLACK
6
CONTINUOUS
10
2.21624
20
1.28876
11
2.21791
21
1.28945
0
LINE
8
BLACK
6
CONTINUOUS
10
2.21791
20
1.28945
11
2.21958
21
1.28876
0
LINE
8
BLACK
6
CONTINUOUS
10
2.48376
20
1.28876
11
2.48445
21
1.28709
0
LINE
8
BLACK
6
CONTINUOUS
10
2.48445
20
1.28709
11
2.48445
21
1.17291
0
LINE
8
BLACK
6
CONTINUOUS
10
2.48445
20
1.17291
11
2.48376
21
1.17124
0
LINE
8
BLACK
6
CONTINUOUS
10
2.48376
20
1.17124
11
2.48209
21
1.17055
0
LINE
8
BLACK
6
CONTINUOUS
10
2.48209
20
1.17055
11
2.48042
21
1.17124
0
LINE
8
BLACK
6
CONTINUOUS
10
2.48042
20
1.17124
11
2.47972
21
1.17291
0
LINE
8
BLACK
6
CONTINUOUS
10
2.47972
20
1.17291
11
2.47972
21
1.28709
0
LINE
8
BLACK
6
CONTINUOUS
10
2.47972
20
1.28709
11
2.48042
21
1.28876
0
LINE
8
BLACK
6
CONTINUOUS
10
2.48042
20
1.28876
11
2.48209
21
1.28945
0
LINE
8
BLACK
6
CONTINUOUS
10
2.48209
20
1.28945
11
2.48376
21
1.28876
0
LINE
8
BLACK
6
CONTINUOUS
10
2.40876
20
1.36376
11
2.40945
21
1.36209
0
LINE
8
BLACK
6
CONTINUOUS
10
2.40945
20
1.36209
11
2.40876
21
1.36042
0
LINE
8
BLACK
6
CONTINUOUS
10
2.40876
20
1.36042
11
2.40709
21
1.35972
0
LINE
8
BLACK
6
CONTINUOUS
10
2.40709
20
1.35972
11
2.29291
21
1.35972
0
LINE
8
BLACK
6
CONTINUOUS
10
2.29291
20
1.35972
11
2.29124
21
1.36042
0
LINE
8
BLACK
6
CONTINUOUS
10
2.29124
20
1.36042
11
2.29055
21
1.36209
0
LINE
8
BLACK
6
CONTINUOUS
10
2.29055
20
1.36209
11
2.29124
21
1.36376
0
LINE
8
BLACK
6
CONTINUOUS
10
2.29124
20
1.36376
11
2.29291
21
1.36445
0
LINE
8
BLACK
6
CONTINUOUS
10
2.29291
20
1.36445
11
2.40709
21
1.36445
0
LINE
8
BLACK
6
CONTINUOUS
10
2.40709
20
1.36445
11
2.40876
21
1.36376
0
CIRCLE
8
BLACK
10
0.31
20
1.355
40
0.00688976
0
CIRCLE
8
BLACK
10
0.41
20
1.355
40
0.00688976
0
CIRCLE
8
BLACK
10
0.31
20
1.255
40
0.00688976
0
CIRCLE
8
BLACK
10
0.41
20
1.255
40
0.00688976
0
CIRCLE
8
BLACK
10
0.31
20
1.155
40
0.00688976
0
CIRCLE
8
BLACK
10
0.41
20
1.155
40
0.00688976
0
CIRCLE
8
BLACK
10
0.31
20
1.055
40
0.00688976
0
CIRCLE
8
BLACK
10
0.41
20
1.055
40
0.00688976
0
CIRCLE
8
BLACK
10
0.31
20
0.955
40
0.00688976
0
CIRCLE
8
BLACK
10
0.41
20
0.955
40
0.00688976
0
CIRCLE
8
BLACK
10
2.4
20
1.6
40
0.00688976
0
CIRCLE
8
BLACK
10
2.25
20
0.74
40
0.00688976
0
CIRCLE
8
BLACK
10
2.35
20
0.74
40
0.00688976
0
CIRCLE
8
BLACK
10
2.4
20
0.4
40
0.00688976
0
CIRCLE
8
BLACK
10
2.35
20
1.23
40
0.00688976
0
CIRCLE
8
BLACK
10
2.45
20
1.13
40
0.00688976
0
CIRCLE
8
BLACK
10
2.45
20
1.33
40
0.00688976
0
CIRCLE
8
BLACK
10
2.25
20
1.13
40
0.00688976
0
CIRCLE
8
BLACK
10
2.25
20
1.33
40
0.00688976
0
CIRCLE
8
BLACK
10
0.4
20
0.4
40
0.00688976
0
CIRCLE
8
BLACK
10
0.4
20
1.6
40
0.00688976
0
CIRCLE
8
BLACK
10
1.30157
20
0.566929
40
0.00688976
0
CIRCLE
8
BLACK
10
1.49843
20
0.566929
40
0.00688976
  0
ENDSEC
  0
EOF
