  0
SECTION
  2
HEADER
  9
$ANGBASE
  50
0.0
  9
$ANGDIR
  70
1
  9
$MEASUREMENT
  70
0
  0
ENDSEC
  0
SECTION
  2
TABLES
  0
TABLE
  2
LTYPE
  70
4
  0
LTYPE
  5
40F
  2
CONTINUOUS
  70
0
  3
Solid line
  72
65
  73
0
  40
0.0
  0
LTYPE
  5
410
  2
DASHDOT
 70
0
  3
Dash Dot ____ _ ____ _
 72
65
 73
4
 40
2.0
 49
1.25
 49
-0.25
 49
0.25
 49
-0.25
  0
LTYPE
  5
411
  2
DASHED
 70
0
  3
Dashed __ __ __ __ __
 72
65
 73
2
 40
0.75
 49
0.5
 49
-0.25
  0
LTYPE
  5
43B
  2
DOTTED
 70
0
  3
Dotted .  .  .  .
 72
65
 73
2
 40
0.2
 49
0.0
 49
-0.2
  0
ENDTAB
  0
TABLE
  2
STYLE
  70
4
  0
STYLE
  2
KICAD
  70
0
  40
0
  41
1
  42
1
  50
0
  71
0
  3
isocp.shx
  0
STYLE
  2
KICADB
  70
0
  40
0
  41
1
  42
1
  50
0
  71
0
  3
isocp.shx
  0
STYLE
  2
KICADI
  70
0
  40
0
  41
1
  42
1
  50
15
  71
0
  3
isocp.shx
  0
STYLE
  2
KICADBI
  70
0
  40
0
  41
1
  42
1
  50
15
  71
0
  3
isocp.shx
  0
ENDTAB
  0
TABLE
  2
LAYER
  70
1
  0
LAYER
  2
BLACK
  70
0
  62
7
  6
CONTINUOUS
  0
ENDTAB
  0
ENDSEC
  0
SECTION
  2
ENTITIES
0
LINE
8
BLACK
6
CONTINUOUS
10
1.89038
20
0.31382
11
1.89097
21
0.313778
0
LINE
8
BLACK
6
CONTINUOUS
10
1.89097
20
0.313778
11
1.89659
21
0.310966
0
LINE
8
BLACK
6
CONTINUOUS
10
1.89659
20
0.310966
11
1.89686
21
0.310655
0
LINE
8
BLACK
6
CONTINUOUS
10
1.89686
20
0.310655
11
1.89724
21
0.310498
0
LINE
8
BLACK
6
CONTINUOUS
10
1.89724
20
0.310498
11
1.90005
21
0.307686
0
LINE
8
BLACK
6
CONTINUOUS
10
1.90005
20
0.307686
11
1.90021
21
0.307306
0
LINE
8
BLACK
6
CONTINUOUS
10
1.90021
20
0.307306
11
1.90052
21
0.307036
0
LINE
8
BLACK
6
CONTINUOUS
10
1.90052
20
0.307036
11
1.90333
21
0.301412
0
LINE
8
BLACK
6
CONTINUOUS
10
1.90333
20
0.301412
11
1.90337
21
0.300831
0
LINE
8
BLACK
6
CONTINUOUS
10
1.90337
20
0.300831
11
1.9036
21
0.300294
0
LINE
8
BLACK
6
CONTINUOUS
10
1.9036
20
0.300294
11
1.9036
21
0.291857
0
LINE
8
BLACK
6
CONTINUOUS
10
1.9036
20
0.291857
11
1.90337
21
0.29132
0
LINE
8
BLACK
6
CONTINUOUS
10
1.90337
20
0.29132
11
1.90333
21
0.290739
0
LINE
8
BLACK
6
CONTINUOUS
10
1.90333
20
0.290739
11
1.90052
21
0.285115
0
LINE
8
BLACK
6
CONTINUOUS
10
1.90052
20
0.285115
11
1.90021
21
0.284845
0
LINE
8
BLACK
6
CONTINUOUS
10
1.90021
20
0.284845
11
1.90005
21
0.284465
0
LINE
8
BLACK
6
CONTINUOUS
10
1.90005
20
0.284465
11
1.89724
21
0.281653
0
LINE
8
BLACK
6
CONTINUOUS
10
1.89724
20
0.281653
11
1.89686
21
0.281496
0
LINE
8
BLACK
6
CONTINUOUS
10
1.89686
20
0.281496
11
1.89659
21
0.281185
0
LINE
8
BLACK
6
CONTINUOUS
10
1.89659
20
0.281185
11
1.89097
21
0.278373
0
LINE
8
BLACK
6
CONTINUOUS
10
1.89097
20
0.278373
11
1.89038
21
0.278331
0
LINE
8
BLACK
6
CONTINUOUS
10
1.89038
20
0.278331
11
1.88985
21
0.278109
0
LINE
8
BLACK
6
CONTINUOUS
10
1.88985
20
0.278109
11
1.86985
21
0.278109
0
LINE
8
BLACK
6
CONTINUOUS
10
1.86985
20
0.278109
11
1.86985
21
0.252487
0
LINE
8
BLACK
6
CONTINUOUS
10
1.86985
20
0.252487
11
1.86912
21
0.250719
0
LINE
8
BLACK
6
CONTINUOUS
10
1.86912
20
0.250719
11
1.86735
21
0.249987
0
LINE
8
BLACK
6
CONTINUOUS
10
1.86735
20
0.249987
11
1.86558
21
0.250719
0
LINE
8
BLACK
6
CONTINUOUS
10
1.86558
20
0.250719
11
1.86485
21
0.252487
0
LINE
8
BLACK
6
CONTINUOUS
10
1.86485
20
0.252487
11
1.86485
21
0.311542
0
LINE
8
BLACK
6
CONTINUOUS
10
1.86485
20
0.311542
11
1.86558
21
0.31331
0
LINE
8
BLACK
6
CONTINUOUS
10
1.86558
20
0.31331
11
1.86735
21
0.314042
0
LINE
8
BLACK
6
CONTINUOUS
10
1.86735
20
0.314042
11
1.88985
21
0.314042
0
LINE
8
BLACK
6
CONTINUOUS
10
1.88985
20
0.314042
11
1.89038
21
0.31382
0
LINE
8
BLACK
6
CONTINUOUS
10
1.86985
20
0.283109
11
1.88926
21
0.283109
0
LINE
8
BLACK
6
CONTINUOUS
10
1.88926
20
0.283109
11
1.89399
21
0.285476
0
LINE
8
BLACK
6
CONTINUOUS
10
1.89399
20
0.285476
11
1.89623
21
0.287714
0
LINE
8
BLACK
6
CONTINUOUS
10
1.89623
20
0.287714
11
1.8986
21
0.292447
0
LINE
8
BLACK
6
CONTINUOUS
10
1.8986
20
0.292447
11
1.8986
21
0.299704
0
LINE
8
BLACK
6
CONTINUOUS
10
1.8986
20
0.299704
11
1.89623
21
0.304437
0
LINE
8
BLACK
6
CONTINUOUS
10
1.89623
20
0.304437
11
1.89399
21
0.306676
0
LINE
8
BLACK
6
CONTINUOUS
10
1.89399
20
0.306676
11
1.88926
21
0.309042
0
LINE
8
BLACK
6
CONTINUOUS
10
1.88926
20
0.309042
11
1.86985
21
0.309042
0
LINE
8
BLACK
6
CONTINUOUS
10
1.86985
20
0.309042
11
1.86985
21
0.283109
0
LINE
8
BLACK
6
CONTINUOUS
10
1.92817
20
0.31331
11
1.92891
21
0.311542
0
LINE
8
BLACK
6
CONTINUOUS
10
1.92891
20
0.311542
11
1.92891
21
0.252487
0
LINE
8
BLACK
6
CONTINUOUS
10
1.92891
20
0.252487
11
1.92817
21
0.250719
0
LINE
8
BLACK
6
CONTINUOUS
10
1.92817
20
0.250719
11
1.92641
21
0.249987
0
LINE
8
BLACK
6
CONTINUOUS
10
1.92641
20
0.249987
11
1.92464
21
0.250719
0
LINE
8
BLACK
6
CONTINUOUS
10
1.92464
20
0.250719
11
1.92391
21
0.252487
0
LINE
8
BLACK
6
CONTINUOUS
10
1.92391
20
0.252487
11
1.92391
21
0.311542
0
LINE
8
BLACK
6
CONTINUOUS
10
1.92391
20
0.311542
11
1.92464
21
0.31331
0
LINE
8
BLACK
6
CONTINUOUS
10
1.92464
20
0.31331
11
1.92641
21
0.314042
0
LINE
8
BLACK
6
CONTINUOUS
10
1.92641
20
0.314042
11
1.92817
21
0.31331
0
LINE
8
BLACK
6
CONTINUOUS
10
1.99004
20
0.31331
11
1.99077
21
0.311542
0
LINE
8
BLACK
6
CONTINUOUS
10
1.99077
20
0.311542
11
1.99077
21
0.252487
0
LINE
8
BLACK
6
CONTINUOUS
10
1.99077
20
0.252487
11
1.99064
21
0.25217
0
LINE
8
BLACK
6
CONTINUOUS
10
1.99064
20
0.25217
11
1.99068
21
0.251829
0
LINE
8
BLACK
6
CONTINUOUS
10
1.99068
20
0.251829
11
1.99029
21
0.251318
0
LINE
8
BLACK
6
CONTINUOUS
10
1.99029
20
0.251318
11
1.99004
21
0.250719
0
LINE
8
BLACK
6
CONTINUOUS
10
1.99004
20
0.250719
11
1.98972
21
0.250588
0
LINE
8
BLACK
6
CONTINUOUS
10
1.98972
20
0.250588
11
1.98951
21
0.250317
0
LINE
8
BLACK
6
CONTINUOUS
10
1.98951
20
0.250317
11
1.98887
21
0.250235
0
LINE
8
BLACK
6
CONTINUOUS
10
1.98887
20
0.250235
11
1.98827
21
0.249987
0
LINE
8
BLACK
6
CONTINUOUS
10
1.98827
20
0.249987
11
1.98796
21
0.250119
0
LINE
8
BLACK
6
CONTINUOUS
10
1.98796
20
0.250119
11
1.98761
21
0.250075
0
LINE
8
BLACK
6
CONTINUOUS
10
1.98761
20
0.250075
11
1.9871
21
0.250472
0
LINE
8
BLACK
6
CONTINUOUS
10
1.9871
20
0.250472
11
1.9865
21
0.250719
0
LINE
8
BLACK
6
CONTINUOUS
10
1.9865
20
0.250719
11
1.98637
21
0.251037
0
LINE
8
BLACK
6
CONTINUOUS
10
1.98637
20
0.251037
11
1.9861
21
0.251247
0
LINE
8
BLACK
6
CONTINUOUS
10
1.9861
20
0.251247
11
1.95703
21
0.302129
0
LINE
8
BLACK
6
CONTINUOUS
10
1.95703
20
0.302129
11
1.95703
21
0.252487
0
LINE
8
BLACK
6
CONTINUOUS
10
1.95703
20
0.252487
11
1.95629
21
0.250719
0
LINE
8
BLACK
6
CONTINUOUS
10
1.95629
20
0.250719
11
1.95453
21
0.249987
0
LINE
8
BLACK
6
CONTINUOUS
10
1.95453
20
0.249987
11
1.95276
21
0.250719
0
LINE
8
BLACK
6
CONTINUOUS
10
1.95276
20
0.250719
11
1.95203
21
0.252487
0
LINE
8
BLACK
6
CONTINUOUS
10
1.95203
20
0.252487
11
1.95203
21
0.311542
0
LINE
8
BLACK
6
CONTINUOUS
10
1.95203
20
0.311542
11
1.95216
21
0.31186
0
LINE
8
BLACK
6
CONTINUOUS
10
1.95216
20
0.31186
11
1.95211
21
0.3122
0
LINE
8
BLACK
6
CONTINUOUS
10
1.95211
20
0.3122
11
1.95251
21
0.312712
0
LINE
8
BLACK
6
CONTINUOUS
10
1.95251
20
0.312712
11
1.95276
21
0.31331
0
LINE
8
BLACK
6
CONTINUOUS
10
1.95276
20
0.31331
11
1.95308
21
0.313442
0
LINE
8
BLACK
6
CONTINUOUS
10
1.95308
20
0.313442
11
1.95329
21
0.313713
0
LINE
8
BLACK
6
CONTINUOUS
10
1.95329
20
0.313713
11
1.95393
21
0.313795
0
LINE
8
BLACK
6
CONTINUOUS
10
1.95393
20
0.313795
11
1.95453
21
0.314042
0
LINE
8
BLACK
6
CONTINUOUS
10
1.95453
20
0.314042
11
1.95484
21
0.313911
0
LINE
8
BLACK
6
CONTINUOUS
10
1.95484
20
0.313911
11
1.95518
21
0.313954
0
LINE
8
BLACK
6
CONTINUOUS
10
1.95518
20
0.313954
11
1.9557
21
0.313558
0
LINE
8
BLACK
6
CONTINUOUS
10
1.9557
20
0.313558
11
1.95629
21
0.31331
0
LINE
8
BLACK
6
CONTINUOUS
10
1.95629
20
0.31331
11
1.95643
21
0.312993
0
LINE
8
BLACK
6
CONTINUOUS
10
1.95643
20
0.312993
11
1.9567
21
0.312783
0
LINE
8
BLACK
6
CONTINUOUS
10
1.9567
20
0.312783
11
1.98577
21
0.261901
0
LINE
8
BLACK
6
CONTINUOUS
10
1.98577
20
0.261901
11
1.98577
21
0.311542
0
LINE
8
BLACK
6
CONTINUOUS
10
1.98577
20
0.311542
11
1.9865
21
0.31331
0
LINE
8
BLACK
6
CONTINUOUS
10
1.9865
20
0.31331
11
1.98827
21
0.314042
0
LINE
8
BLACK
6
CONTINUOUS
10
1.98827
20
0.314042
11
1.99004
21
0.31331
0
LINE
8
BLACK
6
CONTINUOUS
10
2.03083
20
0.313885
11
2.03125
21
0.313914
0
LINE
8
BLACK
6
CONTINUOUS
10
2.03125
20
0.313914
11
2.03968
21
0.311102
0
LINE
8
BLACK
6
CONTINUOUS
10
2.03968
20
0.311102
11
2.04012
21
0.310721
0
LINE
8
BLACK
6
CONTINUOUS
10
2.04012
20
0.310721
11
2.04066
21
0.310498
0
LINE
8
BLACK
6
CONTINUOUS
10
2.04066
20
0.310498
11
2.04628
21
0.304874
0
LINE
8
BLACK
6
CONTINUOUS
10
2.04628
20
0.304874
11
2.04644
21
0.304494
0
LINE
8
BLACK
6
CONTINUOUS
10
2.04644
20
0.304494
11
2.04675
21
0.304224
0
LINE
8
BLACK
6
CONTINUOUS
10
2.04675
20
0.304224
11
2.04956
21
0.2986
0
LINE
8
BLACK
6
CONTINUOUS
10
2.04956
20
0.2986
11
2.04958
21
0.298316
0
LINE
8
BLACK
6
CONTINUOUS
10
2.04958
20
0.298316
11
2.04975
21
0.298088
0
LINE
8
BLACK
6
CONTINUOUS
10
2.04975
20
0.298088
11
2.05257
21
0.286839
0
LINE
8
BLACK
6
CONTINUOUS
10
2.05257
20
0.286839
11
2.05252
21
0.286526
0
LINE
8
BLACK
6
CONTINUOUS
10
2.05252
20
0.286526
11
2.05264
21
0.286233
0
LINE
8
BLACK
6
CONTINUOUS
10
2.05264
20
0.286233
11
2.05264
21
0.277797
0
LINE
8
BLACK
6
CONTINUOUS
10
2.05264
20
0.277797
11
2.05252
21
0.277504
0
LINE
8
BLACK
6
CONTINUOUS
10
2.05252
20
0.277504
11
2.05257
21
0.27719
0
LINE
8
BLACK
6
CONTINUOUS
10
2.05257
20
0.27719
11
2.04975
21
0.265942
0
LINE
8
BLACK
6
CONTINUOUS
10
2.04975
20
0.265942
11
2.04958
21
0.265713
0
LINE
8
BLACK
6
CONTINUOUS
10
2.04958
20
0.265713
11
2.04956
21
0.26543
0
LINE
8
BLACK
6
CONTINUOUS
10
2.04956
20
0.26543
11
2.04675
21
0.259806
0
LINE
8
BLACK
6
CONTINUOUS
10
2.04675
20
0.259806
11
2.04644
21
0.259536
0
LINE
8
BLACK
6
CONTINUOUS
10
2.04644
20
0.259536
11
2.04628
21
0.259156
0
LINE
8
BLACK
6
CONTINUOUS
10
2.04628
20
0.259156
11
2.04066
21
0.253532
0
LINE
8
BLACK
6
CONTINUOUS
10
2.04066
20
0.253532
11
2.04012
21
0.253309
0
LINE
8
BLACK
6
CONTINUOUS
10
2.04012
20
0.253309
11
2.03968
21
0.252928
0
LINE
8
BLACK
6
CONTINUOUS
10
2.03968
20
0.252928
11
2.03125
21
0.250116
0
LINE
8
BLACK
6
CONTINUOUS
10
2.03125
20
0.250116
11
2.03083
21
0.250145
0
LINE
8
BLACK
6
CONTINUOUS
10
2.03083
20
0.250145
11
2.03045
21
0.249987
0
LINE
8
BLACK
6
CONTINUOUS
10
2.03045
20
0.249987
11
2.01639
21
0.249987
0
LINE
8
BLACK
6
CONTINUOUS
10
2.01639
20
0.249987
11
2.01463
21
0.250719
0
LINE
8
BLACK
6
CONTINUOUS
10
2.01463
20
0.250719
11
2.01389
21
0.252487
0
LINE
8
BLACK
6
CONTINUOUS
10
2.01389
20
0.252487
11
2.01389
21
0.311542
0
LINE
8
BLACK
6
CONTINUOUS
10
2.01389
20
0.311542
11
2.01463
21
0.31331
0
LINE
8
BLACK
6
CONTINUOUS
10
2.01463
20
0.31331
11
2.01639
21
0.314042
0
LINE
8
BLACK
6
CONTINUOUS
10
2.01639
20
0.314042
11
2.03045
21
0.314042
0
LINE
8
BLACK
6
CONTINUOUS
10
2.03045
20
0.314042
11
2.03083
21
0.313885
0
LINE
8
BLACK
6
CONTINUOUS
10
2.01889
20
0.254987
11
2.03005
21
0.254987
0
LINE
8
BLACK
6
CONTINUOUS
10
2.03005
20
0.254987
11
2.03754
21
0.257484
0
LINE
8
BLACK
6
CONTINUOUS
10
2.03754
20
0.257484
11
2.04246
21
0.262405
0
LINE
8
BLACK
6
CONTINUOUS
10
2.04246
20
0.262405
11
2.04497
21
0.267421
0
LINE
8
BLACK
6
CONTINUOUS
10
2.04497
20
0.267421
11
2.04764
21
0.278104
0
LINE
8
BLACK
6
CONTINUOUS
10
2.04764
20
0.278104
11
2.04764
21
0.285925
0
LINE
8
BLACK
6
CONTINUOUS
10
2.04764
20
0.285925
11
2.04497
21
0.296609
0
LINE
8
BLACK
6
CONTINUOUS
10
2.04497
20
0.296609
11
2.04246
21
0.301625
0
LINE
8
BLACK
6
CONTINUOUS
10
2.04246
20
0.301625
11
2.03754
21
0.306545
0
LINE
8
BLACK
6
CONTINUOUS
10
2.03754
20
0.306545
11
2.03005
21
0.309042
0
LINE
8
BLACK
6
CONTINUOUS
10
2.03005
20
0.309042
11
2.01889
21
0.309042
0
LINE
8
BLACK
6
CONTINUOUS
10
2.01889
20
0.309042
11
2.01889
21
0.254987
0
LINE
8
BLACK
6
CONTINUOUS
10
2.09286
20
0.31382
11
2.09344
21
0.313778
0
LINE
8
BLACK
6
CONTINUOUS
10
2.09344
20
0.313778
11
2.09906
21
0.310966
0
LINE
8
BLACK
6
CONTINUOUS
10
2.09906
20
0.310966
11
2.09933
21
0.310655
0
LINE
8
BLACK
6
CONTINUOUS
10
2.09933
20
0.310655
11
2.09971
21
0.310498
0
LINE
8
BLACK
6
CONTINUOUS
10
2.09971
20
0.310498
11
2.10253
21
0.307686
0
LINE
8
BLACK
6
CONTINUOUS
10
2.10253
20
0.307686
11
2.10268
21
0.307306
0
LINE
8
BLACK
6
CONTINUOUS
10
2.10268
20
0.307306
11
2.10299
21
0.307036
0
LINE
8
BLACK
6
CONTINUOUS
10
2.10299
20
0.307036
11
2.10581
21
0.301412
0
LINE
8
BLACK
6
CONTINUOUS
10
2.10581
20
0.301412
11
2.10583
21
0.301128
0
LINE
8
BLACK
6
CONTINUOUS
10
2.10583
20
0.301128
11
2.106
21
0.3009
0
LINE
8
BLACK
6
CONTINUOUS
10
2.106
20
0.3009
11
2.10881
21
0.289651
0
LINE
8
BLACK
6
CONTINUOUS
10
2.10881
20
0.289651
11
2.10876
21
0.289338
0
LINE
8
BLACK
6
CONTINUOUS
10
2.10876
20
0.289338
11
2.10888
21
0.289045
0
LINE
8
BLACK
6
CONTINUOUS
10
2.10888
20
0.289045
11
2.10888
21
0.274984
0
LINE
8
BLACK
6
CONTINUOUS
10
2.10888
20
0.274984
11
2.10876
21
0.274692
0
LINE
8
BLACK
6
CONTINUOUS
10
2.10876
20
0.274692
11
2.10881
21
0.274378
0
LINE
8
BLACK
6
CONTINUOUS
10
2.10881
20
0.274378
11
2.106
21
0.263129
0
LINE
8
BLACK
6
CONTINUOUS
10
2.106
20
0.263129
11
2.10583
21
0.262901
0
LINE
8
BLACK
6
CONTINUOUS
10
2.10583
20
0.262901
11
2.10581
21
0.262618
0
LINE
8
BLACK
6
CONTINUOUS
10
2.10581
20
0.262618
11
2.10299
21
0.256994
0
LINE
8
BLACK
6
CONTINUOUS
10
2.10299
20
0.256994
11
2.10268
21
0.256724
0
LINE
8
BLACK
6
CONTINUOUS
10
2.10268
20
0.256724
11
2.10253
21
0.256344
0
LINE
8
BLACK
6
CONTINUOUS
10
2.10253
20
0.256344
11
2.09971
21
0.253532
0
LINE
8
BLACK
6
CONTINUOUS
10
2.09971
20
0.253532
11
2.09933
21
0.253374
0
LINE
8
BLACK
6
CONTINUOUS
10
2.09933
20
0.253374
11
2.09906
21
0.253063
0
LINE
8
BLACK
6
CONTINUOUS
10
2.09906
20
0.253063
11
2.09344
21
0.250251
0
LINE
8
BLACK
6
CONTINUOUS
10
2.09344
20
0.250251
11
2.09286
21
0.25021
0
LINE
8
BLACK
6
CONTINUOUS
10
2.09286
20
0.25021
11
2.09232
21
0.249987
0
LINE
8
BLACK
6
CONTINUOUS
10
2.09232
20
0.249987
11
2.0867
21
0.249987
0
LINE
8
BLACK
6
CONTINUOUS
10
2.0867
20
0.249987
11
2.08616
21
0.25021
0
LINE
8
BLACK
6
CONTINUOUS
10
2.08616
20
0.25021
11
2.08558
21
0.250251
0
LINE
8
BLACK
6
CONTINUOUS
10
2.08558
20
0.250251
11
2.07996
21
0.253063
0
LINE
8
BLACK
6
CONTINUOUS
10
2.07996
20
0.253063
11
2.07969
21
0.253374
0
LINE
8
BLACK
6
CONTINUOUS
10
2.07969
20
0.253374
11
2.07931
21
0.253532
0
LINE
8
BLACK
6
CONTINUOUS
10
2.07931
20
0.253532
11
2.07649
21
0.256344
0
LINE
8
BLACK
6
CONTINUOUS
10
2.07649
20
0.256344
11
2.07634
21
0.256724
0
LINE
8
BLACK
6
CONTINUOUS
10
2.07634
20
0.256724
11
2.07603
21
0.256994
0
LINE
8
BLACK
6
CONTINUOUS
10
2.07603
20
0.256994
11
2.07321
21
0.262618
0
LINE
8
BLACK
6
CONTINUOUS
10
2.07321
20
0.262618
11
2.07319
21
0.262901
0
LINE
8
BLACK
6
CONTINUOUS
10
2.07319
20
0.262901
11
2.07302
21
0.263129
0
LINE
8
BLACK
6
CONTINUOUS
10
2.07302
20
0.263129
11
2.07021
21
0.274378
0
LINE
8
BLACK
6
CONTINUOUS
10
2.07021
20
0.274378
11
2.07026
21
0.274692
0
LINE
8
BLACK
6
CONTINUOUS
10
2.07026
20
0.274692
11
2.07014
21
0.274984
0
LINE
8
BLACK
6
CONTINUOUS
10
2.07014
20
0.274984
11
2.07014
21
0.289045
0
LINE
8
BLACK
6
CONTINUOUS
10
2.07014
20
0.289045
11
2.07026
21
0.289338
0
LINE
8
BLACK
6
CONTINUOUS
10
2.07026
20
0.289338
11
2.07021
21
0.289651
0
LINE
8
BLACK
6
CONTINUOUS
10
2.07021
20
0.289651
11
2.07302
21
0.3009
0
LINE
8
BLACK
6
CONTINUOUS
10
2.07302
20
0.3009
11
2.07319
21
0.301128
0
LINE
8
BLACK
6
CONTINUOUS
10
2.07319
20
0.301128
11
2.07321
21
0.301412
0
LINE
8
BLACK
6
CONTINUOUS
10
2.07321
20
0.301412
11
2.07603
21
0.307036
0
LINE
8
BLACK
6
CONTINUOUS
10
2.07603
20
0.307036
11
2.07634
21
0.307306
0
LINE
8
BLACK
6
CONTINUOUS
10
2.07634
20
0.307306
11
2.07649
21
0.307686
0
LINE
8
BLACK
6
CONTINUOUS
10
2.07649
20
0.307686
11
2.07931
21
0.310498
0
LINE
8
BLACK
6
CONTINUOUS
10
2.07931
20
0.310498
11
2.07969
21
0.310655
0
LINE
8
BLACK
6
CONTINUOUS
10
2.07969
20
0.310655
11
2.07996
21
0.310966
0
LINE
8
BLACK
6
CONTINUOUS
10
2.07996
20
0.310966
11
2.08558
21
0.313778
0
LINE
8
BLACK
6
CONTINUOUS
10
2.08558
20
0.313778
11
2.08616
21
0.31382
0
LINE
8
BLACK
6
CONTINUOUS
10
2.08616
20
0.31382
11
2.0867
21
0.314042
0
LINE
8
BLACK
6
CONTINUOUS
10
2.0867
20
0.314042
11
2.09232
21
0.314042
0
LINE
8
BLACK
6
CONTINUOUS
10
2.09232
20
0.314042
11
2.09286
21
0.31382
0
LINE
8
BLACK
6
CONTINUOUS
10
2.08255
20
0.306676
11
2.08032
21
0.304437
0
LINE
8
BLACK
6
CONTINUOUS
10
2.08032
20
0.304437
11
2.07781
21
0.299421
0
LINE
8
BLACK
6
CONTINUOUS
10
2.07781
20
0.299421
11
2.07514
21
0.288737
0
LINE
8
BLACK
6
CONTINUOUS
10
2.07514
20
0.288737
11
2.07514
21
0.275292
0
LINE
8
BLACK
6
CONTINUOUS
10
2.07514
20
0.275292
11
2.07781
21
0.264608
0
LINE
8
BLACK
6
CONTINUOUS
10
2.07781
20
0.264608
11
2.08032
21
0.259592
0
LINE
8
BLACK
6
CONTINUOUS
10
2.08032
20
0.259592
11
2.08255
21
0.257354
0
LINE
8
BLACK
6
CONTINUOUS
10
2.08255
20
0.257354
11
2.08729
21
0.254987
0
LINE
8
BLACK
6
CONTINUOUS
10
2.08729
20
0.254987
11
2.09173
21
0.254987
0
LINE
8
BLACK
6
CONTINUOUS
10
2.09173
20
0.254987
11
2.09647
21
0.257354
0
LINE
8
BLACK
6
CONTINUOUS
10
2.09647
20
0.257354
11
2.0987
21
0.259592
0
LINE
8
BLACK
6
CONTINUOUS
10
2.0987
20
0.259592
11
2.10121
21
0.264608
0
LINE
8
BLACK
6
CONTINUOUS
10
2.10121
20
0.264608
11
2.10388
21
0.275292
0
LINE
8
BLACK
6
CONTINUOUS
10
2.10388
20
0.275292
11
2.10388
21
0.288737
0
LINE
8
BLACK
6
CONTINUOUS
10
2.10388
20
0.288737
11
2.10121
21
0.299421
0
LINE
8
BLACK
6
CONTINUOUS
10
2.10121
20
0.299421
11
2.0987
21
0.304437
0
LINE
8
BLACK
6
CONTINUOUS
10
2.0987
20
0.304437
11
2.09647
21
0.306676
0
LINE
8
BLACK
6
CONTINUOUS
10
2.09647
20
0.306676
11
2.09173
21
0.309042
0
LINE
8
BLACK
6
CONTINUOUS
10
2.09173
20
0.309042
11
2.08729
21
0.309042
0
LINE
8
BLACK
6
CONTINUOUS
10
2.08729
20
0.309042
11
2.08255
21
0.306676
0
LINE
8
BLACK
6
CONTINUOUS
10
2.15191
20
0.31382
11
2.1525
21
0.313778
0
LINE
8
BLACK
6
CONTINUOUS
10
2.1525
20
0.313778
11
2.15812
21
0.310966
0
LINE
8
BLACK
6
CONTINUOUS
10
2.15812
20
0.310966
11
2.15839
21
0.310655
0
LINE
8
BLACK
6
CONTINUOUS
10
2.15839
20
0.310655
11
2.15877
21
0.310498
0
LINE
8
BLACK
6
CONTINUOUS
10
2.15877
20
0.310498
11
2.16158
21
0.307686
0
LINE
8
BLACK
6
CONTINUOUS
10
2.16158
20
0.307686
11
2.16174
21
0.307306
0
LINE
8
BLACK
6
CONTINUOUS
10
2.16174
20
0.307306
11
2.16205
21
0.307036
0
LINE
8
BLACK
6
CONTINUOUS
10
2.16205
20
0.307036
11
2.16486
21
0.301412
0
LINE
8
BLACK
6
CONTINUOUS
10
2.16486
20
0.301412
11
2.1649
21
0.300831
0
LINE
8
BLACK
6
CONTINUOUS
10
2.1649
20
0.300831
11
2.16513
21
0.300294
0
LINE
8
BLACK
6
CONTINUOUS
10
2.16513
20
0.300294
11
2.16513
21
0.294669
0
LINE
8
BLACK
6
CONTINUOUS
10
2.16513
20
0.294669
11
2.16497
21
0.294289
0
LINE
8
BLACK
6
CONTINUOUS
10
2.16497
20
0.294289
11
2.165
21
0.293879
0
LINE
8
BLACK
6
CONTINUOUS
10
2.165
20
0.293879
11
2.16219
21
0.285442
0
LINE
8
BLACK
6
CONTINUOUS
10
2.16219
20
0.285442
11
2.1618
21
0.285003
0
LINE
8
BLACK
6
CONTINUOUS
10
2.1618
20
0.285003
11
2.16158
21
0.284465
0
LINE
8
BLACK
6
CONTINUOUS
10
2.16158
20
0.284465
11
2.1321
21
0.254987
0
LINE
8
BLACK
6
CONTINUOUS
10
2.1321
20
0.254987
11
2.16263
21
0.254987
0
LINE
8
BLACK
6
CONTINUOUS
10
2.16263
20
0.254987
11
2.16439
21
0.254255
0
LINE
8
BLACK
6
CONTINUOUS
10
2.16439
20
0.254255
11
2.16513
21
0.252487
0
LINE
8
BLACK
6
CONTINUOUS
10
2.16513
20
0.252487
11
2.16439
21
0.250719
0
LINE
8
BLACK
6
CONTINUOUS
10
2.16439
20
0.250719
11
2.16263
21
0.249987
0
LINE
8
BLACK
6
CONTINUOUS
10
2.16263
20
0.249987
11
2.12607
21
0.249987
0
LINE
8
BLACK
6
CONTINUOUS
10
2.12607
20
0.249987
11
2.1243
21
0.250719
0
LINE
8
BLACK
6
CONTINUOUS
10
2.1243
20
0.250719
11
2.12357
21
0.252487
0
LINE
8
BLACK
6
CONTINUOUS
10
2.12357
20
0.252487
11
2.1243
21
0.254255
0
LINE
8
BLACK
6
CONTINUOUS
10
2.1243
20
0.254255
11
2.1243
21
0.254255
0
LINE
8
BLACK
6
CONTINUOUS
10
2.1243
20
0.254255
11
2.15763
21
0.287584
0
LINE
8
BLACK
6
CONTINUOUS
10
2.15763
20
0.287584
11
2.16013
21
0.295075
0
LINE
8
BLACK
6
CONTINUOUS
10
2.16013
20
0.295075
11
2.16013
21
0.299704
0
LINE
8
BLACK
6
CONTINUOUS
10
2.16013
20
0.299704
11
2.15776
21
0.304437
0
LINE
8
BLACK
6
CONTINUOUS
10
2.15776
20
0.304437
11
2.15552
21
0.306676
0
LINE
8
BLACK
6
CONTINUOUS
10
2.15552
20
0.306676
11
2.15079
21
0.309042
0
LINE
8
BLACK
6
CONTINUOUS
10
2.15079
20
0.309042
11
2.13791
21
0.309042
0
LINE
8
BLACK
6
CONTINUOUS
10
2.13791
20
0.309042
11
2.13317
21
0.306676
0
LINE
8
BLACK
6
CONTINUOUS
10
2.13317
20
0.306676
11
2.13065
21
0.30415
0
LINE
8
BLACK
6
CONTINUOUS
10
2.13065
20
0.30415
11
2.12888
21
0.303418
0
LINE
8
BLACK
6
CONTINUOUS
10
2.12888
20
0.303418
11
2.12711
21
0.30415
0
LINE
8
BLACK
6
CONTINUOUS
10
2.12711
20
0.30415
11
2.12638
21
0.305918
0
LINE
8
BLACK
6
CONTINUOUS
10
2.12638
20
0.305918
11
2.12711
21
0.307686
0
LINE
8
BLACK
6
CONTINUOUS
10
2.12711
20
0.307686
11
2.12992
21
0.310498
0
LINE
8
BLACK
6
CONTINUOUS
10
2.12992
20
0.310498
11
2.1303
21
0.310655
0
LINE
8
BLACK
6
CONTINUOUS
10
2.1303
20
0.310655
11
2.13057
21
0.310966
0
LINE
8
BLACK
6
CONTINUOUS
10
2.13057
20
0.310966
11
2.1362
21
0.313778
0
LINE
8
BLACK
6
CONTINUOUS
10
2.1362
20
0.313778
11
2.13678
21
0.31382
0
LINE
8
BLACK
6
CONTINUOUS
10
2.13678
20
0.31382
11
2.13732
21
0.314042
0
LINE
8
BLACK
6
CONTINUOUS
10
2.13732
20
0.314042
11
2.15138
21
0.314042
0
LINE
8
BLACK
6
CONTINUOUS
10
2.15138
20
0.314042
11
2.15191
21
0.31382
0
LINE
8
BLACK
6
CONTINUOUS
10
2.20012
20
0.313792
11
2.2003
21
0.313778
0
LINE
8
BLACK
6
CONTINUOUS
10
2.2003
20
0.313778
11
2.20082
21
0.31318
0
LINE
8
BLACK
6
CONTINUOUS
10
2.20082
20
0.31318
11
2.20142
21
0.31266
0
LINE
8
BLACK
6
CONTINUOUS
10
2.20142
20
0.31266
11
2.20143
21
0.312474
0
LINE
8
BLACK
6
CONTINUOUS
10
2.20143
20
0.312474
11
2.20156
21
0.312333
0
LINE
8
BLACK
6
CONTINUOUS
10
2.20156
20
0.312333
11
2.22124
21
0.253278
0
LINE
8
BLACK
6
CONTINUOUS
10
2.22124
20
0.253278
11
2.2211
21
0.251369
0
LINE
8
BLACK
6
CONTINUOUS
10
2.2211
20
0.251369
11
2.21966
21
0.250116
0
LINE
8
BLACK
6
CONTINUOUS
10
2.21966
20
0.250116
11
2.21775
21
0.250251
0
LINE
8
BLACK
6
CONTINUOUS
10
2.21775
20
0.250251
11
2.2165
21
0.251697
0
LINE
8
BLACK
6
CONTINUOUS
10
2.2165
20
0.251697
11
2.21144
21
0.26686
0
LINE
8
BLACK
6
CONTINUOUS
10
2.21144
20
0.26686
11
2.18692
21
0.26686
0
LINE
8
BLACK
6
CONTINUOUS
10
2.18692
20
0.26686
11
2.18187
21
0.251697
0
LINE
8
BLACK
6
CONTINUOUS
10
2.18187
20
0.251697
11
2.18062
21
0.250251
0
LINE
8
BLACK
6
CONTINUOUS
10
2.18062
20
0.250251
11
2.17871
21
0.250116
0
LINE
8
BLACK
6
CONTINUOUS
10
2.17871
20
0.250116
11
2.17726
21
0.251369
0
LINE
8
BLACK
6
CONTINUOUS
10
2.17726
20
0.251369
11
2.17713
21
0.253278
0
LINE
8
BLACK
6
CONTINUOUS
10
2.17713
20
0.253278
11
2.19681
21
0.312333
0
LINE
8
BLACK
6
CONTINUOUS
10
2.19681
20
0.312333
11
2.19693
21
0.312474
0
LINE
8
BLACK
6
CONTINUOUS
10
2.19693
20
0.312474
11
2.19695
21
0.31266
0
LINE
8
BLACK
6
CONTINUOUS
10
2.19695
20
0.31266
11
2.19755
21
0.31318
0
LINE
8
BLACK
6
CONTINUOUS
10
2.19755
20
0.31318
11
2.19807
21
0.313778
0
LINE
8
BLACK
6
CONTINUOUS
10
2.19807
20
0.313778
11
2.19825
21
0.313792
0
LINE
8
BLACK
6
CONTINUOUS
10
2.19825
20
0.313792
11
2.19839
21
0.313914
0
LINE
8
BLACK
6
CONTINUOUS
10
2.19839
20
0.313914
11
2.19918
21
0.313858
0
LINE
8
BLACK
6
CONTINUOUS
10
2.19918
20
0.313858
11
2.19997
21
0.313914
0
LINE
8
BLACK
6
CONTINUOUS
10
2.19997
20
0.313914
11
2.20012
21
0.313792
0
LINE
8
BLACK
6
CONTINUOUS
10
2.18859
20
0.27186
11
2.20978
21
0.27186
0
LINE
8
BLACK
6
CONTINUOUS
10
2.20978
20
0.27186
11
2.19918
21
0.303637
0
LINE
8
BLACK
6
CONTINUOUS
10
2.19918
20
0.303637
11
2.18859
21
0.27186
0
LINE
8
BLACK
6
CONTINUOUS
10
0.589431
20
0.296216
11
0.590163
21
0.294448
0
LINE
8
BLACK
6
CONTINUOUS
10
0.590163
20
0.294448
11
0.590163
21
0.277987
0
LINE
8
BLACK
6
CONTINUOUS
10
0.590163
20
0.277987
11
0.608393
21
0.296216
0
LINE
8
BLACK
6
CONTINUOUS
10
0.608393
20
0.296216
11
0.61016
21
0.296948
0
LINE
8
BLACK
6
CONTINUOUS
10
0.61016
20
0.296948
11
0.611928
21
0.296216
0
LINE
8
BLACK
6
CONTINUOUS
10
0.611928
20
0.296216
11
0.61266
21
0.294448
0
LINE
8
BLACK
6
CONTINUOUS
10
0.61266
20
0.294448
11
0.611928
21
0.29268
0
LINE
8
BLACK
6
CONTINUOUS
10
0.611928
20
0.29268
11
0.596588
21
0.277341
0
LINE
8
BLACK
6
CONTINUOUS
10
0.596588
20
0.277341
11
0.61216
21
0.256578
0
LINE
8
BLACK
6
CONTINUOUS
10
0.61216
20
0.256578
11
0.612635
21
0.254725
0
LINE
8
BLACK
6
CONTINUOUS
10
0.612635
20
0.254725
11
0.61166
21
0.253078
0
LINE
8
BLACK
6
CONTINUOUS
10
0.61166
20
0.253078
11
0.609807
21
0.252603
0
LINE
8
BLACK
6
CONTINUOUS
10
0.609807
20
0.252603
11
0.60816
21
0.253578
0
LINE
8
BLACK
6
CONTINUOUS
10
0.60816
20
0.253578
11
0.593017
21
0.273769
0
LINE
8
BLACK
6
CONTINUOUS
10
0.593017
20
0.273769
11
0.590163
21
0.270916
0
LINE
8
BLACK
6
CONTINUOUS
10
0.590163
20
0.270916
11
0.590163
21
0.255078
0
LINE
8
BLACK
6
CONTINUOUS
10
0.590163
20
0.255078
11
0.589431
21
0.25331
0
LINE
8
BLACK
6
CONTINUOUS
10
0.589431
20
0.25331
11
0.587663
21
0.252578
0
LINE
8
BLACK
6
CONTINUOUS
10
0.587663
20
0.252578
11
0.585896
21
0.25331
0
LINE
8
BLACK
6
CONTINUOUS
10
0.585896
20
0.25331
11
0.585163
21
0.255078
0
LINE
8
BLACK
6
CONTINUOUS
10
0.585163
20
0.255078
11
0.585163
21
0.294448
0
LINE
8
BLACK
6
CONTINUOUS
10
0.585163
20
0.294448
11
0.585896
21
0.296216
0
LINE
8
BLACK
6
CONTINUOUS
10
0.585896
20
0.296216
11
0.587663
21
0.296948
0
LINE
8
BLACK
6
CONTINUOUS
10
0.587663
20
0.296948
11
0.589431
21
0.296216
0
LINE
8
BLACK
6
CONTINUOUS
10
0.63882
20
0.283602
11
0.6394
21
0.283561
0
LINE
8
BLACK
6
CONTINUOUS
10
0.6394
20
0.283561
11
0.643149
21
0.281686
0
LINE
8
BLACK
6
CONTINUOUS
10
0.643149
20
0.281686
11
0.643669
21
0.281087
0
LINE
8
BLACK
6
CONTINUOUS
10
0.643669
20
0.281087
11
0.644268
21
0.280568
0
LINE
8
BLACK
6
CONTINUOUS
10
0.644268
20
0.280568
11
0.646142
21
0.276819
0
LINE
8
BLACK
6
CONTINUOUS
10
0.646142
20
0.276819
11
0.646184
21
0.276238
0
LINE
8
BLACK
6
CONTINUOUS
10
0.646184
20
0.276238
11
0.646406
21
0.275701
0
LINE
8
BLACK
6
CONTINUOUS
10
0.646406
20
0.275701
11
0.646406
21
0.255078
0
LINE
8
BLACK
6
CONTINUOUS
10
0.646406
20
0.255078
11
0.645674
21
0.25331
0
LINE
8
BLACK
6
CONTINUOUS
10
0.645674
20
0.25331
11
0.643906
21
0.252578
0
LINE
8
BLACK
6
CONTINUOUS
10
0.643906
20
0.252578
11
0.642178
21
0.253294
0
LINE
8
BLACK
6
CONTINUOUS
10
0.642178
20
0.253294
11
0.641275
21
0.252842
0
LINE
8
BLACK
6
CONTINUOUS
10
0.641275
20
0.252842
11
0.640694
21
0.252801
0
LINE
8
BLACK
6
CONTINUOUS
10
0.640694
20
0.252801
11
0.640157
21
0.252578
0
LINE
8
BLACK
6
CONTINUOUS
10
0.640157
20
0.252578
11
0.630783
21
0.252578
0
LINE
8
BLACK
6
CONTINUOUS
10
0.630783
20
0.252578
11
0.630245
21
0.252801
0
LINE
8
BLACK
6
CONTINUOUS
10
0.630245
20
0.252801
11
0.629665
21
0.252842
0
LINE
8
BLACK
6
CONTINUOUS
10
0.629665
20
0.252842
11
0.625915
21
0.254717
0
LINE
8
BLACK
6
CONTINUOUS
10
0.625915
20
0.254717
11
0.625396
21
0.255316
0
LINE
8
BLACK
6
CONTINUOUS
10
0.625396
20
0.255316
11
0.624797
21
0.255835
0
LINE
8
BLACK
6
CONTINUOUS
10
0.624797
20
0.255835
11
0.622923
21
0.259584
0
LINE
8
BLACK
6
CONTINUOUS
10
0.622923
20
0.259584
11
0.622881
21
0.260165
0
LINE
8
BLACK
6
CONTINUOUS
10
0.622881
20
0.260165
11
0.622659
21
0.260702
0
LINE
8
BLACK
6
CONTINUOUS
10
0.622659
20
0.260702
11
0.622659
21
0.264452
0
LINE
8
BLACK
6
CONTINUOUS
10
0.622659
20
0.264452
11
0.622881
21
0.26499
0
LINE
8
BLACK
6
CONTINUOUS
10
0.622881
20
0.26499
11
0.622923
21
0.26557
0
LINE
8
BLACK
6
CONTINUOUS
10
0.622923
20
0.26557
11
0.624797
21
0.26932
0
LINE
8
BLACK
6
CONTINUOUS
10
0.624797
20
0.26932
11
0.625396
21
0.269839
0
LINE
8
BLACK
6
CONTINUOUS
10
0.625396
20
0.269839
11
0.625915
21
0.270438
0
LINE
8
BLACK
6
CONTINUOUS
10
0.625915
20
0.270438
11
0.629665
21
0.272312
0
LINE
8
BLACK
6
CONTINUOUS
10
0.629665
20
0.272312
11
0.630245
21
0.272354
0
LINE
8
BLACK
6
CONTINUOUS
10
0.630245
20
0.272354
11
0.630783
21
0.272576
0
LINE
8
BLACK
6
CONTINUOUS
10
0.630783
20
0.272576
11
0.639567
21
0.272576
0
LINE
8
BLACK
6
CONTINUOUS
10
0.639567
20
0.272576
11
0.641406
21
0.273496
0
LINE
8
BLACK
6
CONTINUOUS
10
0.641406
20
0.273496
11
0.641406
21
0.27511
0
LINE
8
BLACK
6
CONTINUOUS
10
0.641406
20
0.27511
11
0.640168
21
0.277587
0
LINE
8
BLACK
6
CONTINUOUS
10
0.640168
20
0.277587
11
0.637692
21
0.278825
0
LINE
8
BLACK
6
CONTINUOUS
10
0.637692
20
0.278825
11
0.631373
21
0.278825
0
LINE
8
BLACK
6
CONTINUOUS
10
0.631373
20
0.278825
11
0.628151
21
0.277214
0
LINE
8
BLACK
6
CONTINUOUS
10
0.628151
20
0.277214
11
0.626243
21
0.277078
0
LINE
8
BLACK
6
CONTINUOUS
10
0.626243
20
0.277078
11
0.624797
21
0.278332
0
LINE
8
BLACK
6
CONTINUOUS
10
0.624797
20
0.278332
11
0.624662
21
0.280241
0
LINE
8
BLACK
6
CONTINUOUS
10
0.624662
20
0.280241
11
0.625915
21
0.281686
0
LINE
8
BLACK
6
CONTINUOUS
10
0.625915
20
0.281686
11
0.629665
21
0.283561
0
LINE
8
BLACK
6
CONTINUOUS
10
0.629665
20
0.283561
11
0.630245
21
0.283602
0
LINE
8
BLACK
6
CONTINUOUS
10
0.630245
20
0.283602
11
0.630783
21
0.283825
0
LINE
8
BLACK
6
CONTINUOUS
10
0.630783
20
0.283825
11
0.638282
21
0.283825
0
LINE
8
BLACK
6
CONTINUOUS
10
0.638282
20
0.283825
11
0.63882
21
0.283602
0
LINE
8
BLACK
6
CONTINUOUS
10
0.641275
20
0.26784
11
0.640694
21
0.267799
0
LINE
8
BLACK
6
CONTINUOUS
10
0.640694
20
0.267799
11
0.640157
21
0.267576
0
LINE
8
BLACK
6
CONTINUOUS
10
0.640157
20
0.267576
11
0.631373
21
0.267576
0
LINE
8
BLACK
6
CONTINUOUS
10
0.631373
20
0.267576
11
0.628897
21
0.266338
0
LINE
8
BLACK
6
CONTINUOUS
10
0.628897
20
0.266338
11
0.627659
21
0.263862
0
LINE
8
BLACK
6
CONTINUOUS
10
0.627659
20
0.263862
11
0.627659
21
0.261293
0
LINE
8
BLACK
6
CONTINUOUS
10
0.627659
20
0.261293
11
0.628897
21
0.258816
0
LINE
8
BLACK
6
CONTINUOUS
10
0.628897
20
0.258816
11
0.631373
21
0.257578
0
LINE
8
BLACK
6
CONTINUOUS
10
0.631373
20
0.257578
11
0.639567
21
0.257578
0
LINE
8
BLACK
6
CONTINUOUS
10
0.639567
20
0.257578
11
0.641406
21
0.258498
0
LINE
8
BLACK
6
CONTINUOUS
10
0.641406
20
0.258498
11
0.641406
21
0.267906
0
LINE
8
BLACK
6
CONTINUOUS
10
0.641406
20
0.267906
11
0.641275
21
0.26784
0
LINE
8
BLACK
6
CONTINUOUS
10
0.664422
20
0.296216
11
0.665154
21
0.294448
0
LINE
8
BLACK
6
CONTINUOUS
10
0.665154
20
0.294448
11
0.665154
21
0.272362
0
LINE
8
BLACK
6
CONTINUOUS
10
0.665154
20
0.272362
11
0.675884
21
0.283093
0
LINE
8
BLACK
6
CONTINUOUS
10
0.675884
20
0.283093
11
0.677652
21
0.283825
0
LINE
8
BLACK
6
CONTINUOUS
10
0.677652
20
0.283825
11
0.67942
21
0.283093
0
LINE
8
BLACK
6
CONTINUOUS
10
0.67942
20
0.283093
11
0.680152
21
0.281325
0
LINE
8
BLACK
6
CONTINUOUS
10
0.680152
20
0.281325
11
0.67942
21
0.279557
0
LINE
8
BLACK
6
CONTINUOUS
10
0.67942
20
0.279557
11
0.669704
21
0.269842
0
LINE
8
BLACK
6
CONTINUOUS
10
0.669704
20
0.269842
11
0.679652
21
0.256578
0
LINE
8
BLACK
6
CONTINUOUS
10
0.679652
20
0.256578
11
0.680127
21
0.254725
0
LINE
8
BLACK
6
CONTINUOUS
10
0.680127
20
0.254725
11
0.679152
21
0.253078
0
LINE
8
BLACK
6
CONTINUOUS
10
0.679152
20
0.253078
11
0.677298
21
0.252603
0
LINE
8
BLACK
6
CONTINUOUS
10
0.677298
20
0.252603
11
0.675652
21
0.253578
0
LINE
8
BLACK
6
CONTINUOUS
10
0.675652
20
0.253578
11
0.666133
21
0.26627
0
LINE
8
BLACK
6
CONTINUOUS
10
0.666133
20
0.26627
11
0.665154
21
0.265291
0
LINE
8
BLACK
6
CONTINUOUS
10
0.665154
20
0.265291
11
0.665154
21
0.255078
0
LINE
8
BLACK
6
CONTINUOUS
10
0.665154
20
0.255078
11
0.664422
21
0.25331
0
LINE
8
BLACK
6
CONTINUOUS
10
0.664422
20
0.25331
11
0.662654
21
0.252578
0
LINE
8
BLACK
6
CONTINUOUS
10
0.662654
20
0.252578
11
0.660886
21
0.25331
0
LINE
8
BLACK
6
CONTINUOUS
10
0.660886
20
0.25331
11
0.660154
21
0.255078
0
LINE
8
BLACK
6
CONTINUOUS
10
0.660154
20
0.255078
11
0.660154
21
0.294448
0
LINE
8
BLACK
6
CONTINUOUS
10
0.660154
20
0.294448
11
0.660886
21
0.296216
0
LINE
8
BLACK
6
CONTINUOUS
10
0.660886
20
0.296216
11
0.662654
21
0.296948
0
LINE
8
BLACK
6
CONTINUOUS
10
0.662654
20
0.296948
11
0.664422
21
0.296216
0
LINE
8
BLACK
6
CONTINUOUS
10
0.716915
20
0.283093
11
0.717647
21
0.281325
0
LINE
8
BLACK
6
CONTINUOUS
10
0.717647
20
0.281325
11
0.717647
21
0.255078
0
LINE
8
BLACK
6
CONTINUOUS
10
0.717647
20
0.255078
11
0.716915
21
0.25331
0
LINE
8
BLACK
6
CONTINUOUS
10
0.716915
20
0.25331
11
0.715147
21
0.252578
0
LINE
8
BLACK
6
CONTINUOUS
10
0.715147
20
0.252578
11
0.71338
21
0.25331
0
LINE
8
BLACK
6
CONTINUOUS
10
0.71338
20
0.25331
11
0.712647
21
0.255078
0
LINE
8
BLACK
6
CONTINUOUS
10
0.712647
20
0.255078
11
0.712647
21
0.281325
0
LINE
8
BLACK
6
CONTINUOUS
10
0.712647
20
0.281325
11
0.71338
21
0.283093
0
LINE
8
BLACK
6
CONTINUOUS
10
0.71338
20
0.283093
11
0.715147
21
0.283825
0
LINE
8
BLACK
6
CONTINUOUS
10
0.715147
20
0.283825
11
0.716915
21
0.283093
0
LINE
8
BLACK
6
CONTINUOUS
10
0.735663
20
0.296216
11
0.736395
21
0.294448
0
LINE
8
BLACK
6
CONTINUOUS
10
0.736395
20
0.294448
11
0.736395
21
0.272362
0
LINE
8
BLACK
6
CONTINUOUS
10
0.736395
20
0.272362
11
0.747125
21
0.283093
0
LINE
8
BLACK
6
CONTINUOUS
10
0.747125
20
0.283093
11
0.748893
21
0.283825
0
LINE
8
BLACK
6
CONTINUOUS
10
0.748893
20
0.283825
11
0.750661
21
0.283093
0
LINE
8
BLACK
6
CONTINUOUS
10
0.750661
20
0.283093
11
0.751393
21
0.281325
0
LINE
8
BLACK
6
CONTINUOUS
10
0.751393
20
0.281325
11
0.750661
21
0.279557
0
LINE
8
BLACK
6
CONTINUOUS
10
0.750661
20
0.279557
11
0.740945
21
0.269842
0
LINE
8
BLACK
6
CONTINUOUS
10
0.740945
20
0.269842
11
0.750893
21
0.256578
0
LINE
8
BLACK
6
CONTINUOUS
10
0.750893
20
0.256578
11
0.751368
21
0.254725
0
LINE
8
BLACK
6
CONTINUOUS
10
0.751368
20
0.254725
11
0.750393
21
0.253078
0
LINE
8
BLACK
6
CONTINUOUS
10
0.750393
20
0.253078
11
0.74854
21
0.252603
0
LINE
8
BLACK
6
CONTINUOUS
10
0.74854
20
0.252603
11
0.746893
21
0.253578
0
LINE
8
BLACK
6
CONTINUOUS
10
0.746893
20
0.253578
11
0.737374
21
0.26627
0
LINE
8
BLACK
6
CONTINUOUS
10
0.737374
20
0.26627
11
0.736395
21
0.265291
0
LINE
8
BLACK
6
CONTINUOUS
10
0.736395
20
0.265291
11
0.736395
21
0.255078
0
LINE
8
BLACK
6
CONTINUOUS
10
0.736395
20
0.255078
11
0.735663
21
0.25331
0
LINE
8
BLACK
6
CONTINUOUS
10
0.735663
20
0.25331
11
0.733895
21
0.252578
0
LINE
8
BLACK
6
CONTINUOUS
10
0.733895
20
0.252578
11
0.732127
21
0.25331
0
LINE
8
BLACK
6
CONTINUOUS
10
0.732127
20
0.25331
11
0.731395
21
0.255078
0
LINE
8
BLACK
6
CONTINUOUS
10
0.731395
20
0.255078
11
0.731395
21
0.294448
0
LINE
8
BLACK
6
CONTINUOUS
10
0.731395
20
0.294448
11
0.732127
21
0.296216
0
LINE
8
BLACK
6
CONTINUOUS
10
0.732127
20
0.296216
11
0.733895
21
0.296948
0
LINE
8
BLACK
6
CONTINUOUS
10
0.733895
20
0.296948
11
0.735663
21
0.296216
0
LINE
8
BLACK
6
CONTINUOUS
10
0.809423
20
0.296726
11
0.810004
21
0.296684
0
LINE
8
BLACK
6
CONTINUOUS
10
0.810004
20
0.296684
11
0.813753
21
0.29481
0
LINE
8
BLACK
6
CONTINUOUS
10
0.813753
20
0.29481
11
0.814023
21
0.294499
0
LINE
8
BLACK
6
CONTINUOUS
10
0.814023
20
0.294499
11
0.814403
21
0.294341
0
LINE
8
BLACK
6
CONTINUOUS
10
0.814403
20
0.294341
11
0.816278
21
0.292466
0
LINE
8
BLACK
6
CONTINUOUS
10
0.816278
20
0.292466
11
0.816435
21
0.292086
0
LINE
8
BLACK
6
CONTINUOUS
10
0.816435
20
0.292086
11
0.816746
21
0.291817
0
LINE
8
BLACK
6
CONTINUOUS
10
0.816746
20
0.291817
11
0.818621
21
0.288067
0
LINE
8
BLACK
6
CONTINUOUS
10
0.818621
20
0.288067
11
0.818662
21
0.287487
0
LINE
8
BLACK
6
CONTINUOUS
10
0.818662
20
0.287487
11
0.818885
21
0.286949
0
LINE
8
BLACK
6
CONTINUOUS
10
0.818885
20
0.286949
11
0.818885
21
0.2832
0
LINE
8
BLACK
6
CONTINUOUS
10
0.818885
20
0.2832
11
0.818727
21
0.282819
0
LINE
8
BLACK
6
CONTINUOUS
10
0.818727
20
0.282819
11
0.818756
21
0.282409
0
LINE
8
BLACK
6
CONTINUOUS
10
0.818756
20
0.282409
11
0.816882
21
0.276785
0
LINE
8
BLACK
6
CONTINUOUS
10
0.816882
20
0.276785
11
0.8165
21
0.276345
0
LINE
8
BLACK
6
CONTINUOUS
10
0.8165
20
0.276345
11
0.816278
21
0.275808
0
LINE
8
BLACK
6
CONTINUOUS
10
0.816278
20
0.275808
11
0.798048
21
0.257578
0
LINE
8
BLACK
6
CONTINUOUS
10
0.798048
20
0.257578
11
0.816385
21
0.257578
0
LINE
8
BLACK
6
CONTINUOUS
10
0.816385
20
0.257578
11
0.818152
21
0.256846
0
LINE
8
BLACK
6
CONTINUOUS
10
0.818152
20
0.256846
11
0.818885
21
0.255078
0
LINE
8
BLACK
6
CONTINUOUS
10
0.818885
20
0.255078
11
0.818152
21
0.25331
0
LINE
8
BLACK
6
CONTINUOUS
10
0.818152
20
0.25331
11
0.816385
21
0.252578
0
LINE
8
BLACK
6
CONTINUOUS
10
0.816385
20
0.252578
11
0.792013
21
0.252578
0
LINE
8
BLACK
6
CONTINUOUS
10
0.792013
20
0.252578
11
0.790245
21
0.25331
0
LINE
8
BLACK
6
CONTINUOUS
10
0.790245
20
0.25331
11
0.789513
21
0.255078
0
LINE
8
BLACK
6
CONTINUOUS
10
0.789513
20
0.255078
11
0.790245
21
0.256846
0
LINE
8
BLACK
6
CONTINUOUS
10
0.790245
20
0.256846
11
0.790245
21
0.256846
0
LINE
8
BLACK
6
CONTINUOUS
10
0.790245
20
0.256846
11
0.812325
21
0.278926
0
LINE
8
BLACK
6
CONTINUOUS
10
0.812325
20
0.278926
11
0.813885
21
0.283605
0
LINE
8
BLACK
6
CONTINUOUS
10
0.813885
20
0.283605
11
0.813885
21
0.286359
0
LINE
8
BLACK
6
CONTINUOUS
10
0.813885
20
0.286359
11
0.812455
21
0.289218
0
LINE
8
BLACK
6
CONTINUOUS
10
0.812455
20
0.289218
11
0.811154
21
0.290519
0
LINE
8
BLACK
6
CONTINUOUS
10
0.811154
20
0.290519
11
0.808295
21
0.291948
0
LINE
8
BLACK
6
CONTINUOUS
10
0.808295
20
0.291948
11
0.800102
21
0.291948
0
LINE
8
BLACK
6
CONTINUOUS
10
0.800102
20
0.291948
11
0.797243
21
0.290519
0
LINE
8
BLACK
6
CONTINUOUS
10
0.797243
20
0.290519
11
0.795655
21
0.288931
0
LINE
8
BLACK
6
CONTINUOUS
10
0.795655
20
0.288931
11
0.793888
21
0.288199
0
LINE
8
BLACK
6
CONTINUOUS
10
0.793888
20
0.288199
11
0.79212
21
0.288931
0
LINE
8
BLACK
6
CONTINUOUS
10
0.79212
20
0.288931
11
0.791388
21
0.290699
0
LINE
8
BLACK
6
CONTINUOUS
10
0.791388
20
0.290699
11
0.79212
21
0.292466
0
LINE
8
BLACK
6
CONTINUOUS
10
0.79212
20
0.292466
11
0.793994
21
0.294341
0
LINE
8
BLACK
6
CONTINUOUS
10
0.793994
20
0.294341
11
0.794375
21
0.294499
0
LINE
8
BLACK
6
CONTINUOUS
10
0.794375
20
0.294499
11
0.794644
21
0.29481
0
LINE
8
BLACK
6
CONTINUOUS
10
0.794644
20
0.29481
11
0.798394
21
0.296684
0
LINE
8
BLACK
6
CONTINUOUS
10
0.798394
20
0.296684
11
0.798974
21
0.296726
0
LINE
8
BLACK
6
CONTINUOUS
10
0.798974
20
0.296726
11
0.799512
21
0.296948
0
LINE
8
BLACK
6
CONTINUOUS
10
0.799512
20
0.296948
11
0.808886
21
0.296948
0
LINE
8
BLACK
6
CONTINUOUS
10
0.808886
20
0.296948
11
0.809423
21
0.296726
0
LINE
8
BLACK
6
CONTINUOUS
10
0.845044
20
0.296726
11
0.845624
21
0.296684
0
LINE
8
BLACK
6
CONTINUOUS
10
0.845624
20
0.296684
11
0.849374
21
0.29481
0
LINE
8
BLACK
6
CONTINUOUS
10
0.849374
20
0.29481
11
0.849643
21
0.294499
0
LINE
8
BLACK
6
CONTINUOUS
10
0.849643
20
0.294499
11
0.850023
21
0.294341
0
LINE
8
BLACK
6
CONTINUOUS
10
0.850023
20
0.294341
11
0.851898
21
0.292466
0
LINE
8
BLACK
6
CONTINUOUS
10
0.851898
20
0.292466
11
0.852056
21
0.292086
0
LINE
8
BLACK
6
CONTINUOUS
10
0.852056
20
0.292086
11
0.852367
21
0.291817
0
LINE
8
BLACK
6
CONTINUOUS
10
0.852367
20
0.291817
11
0.854241
21
0.288067
0
LINE
8
BLACK
6
CONTINUOUS
10
0.854241
20
0.288067
11
0.854261
21
0.287784
0
LINE
8
BLACK
6
CONTINUOUS
10
0.854261
20
0.287784
11
0.854431
21
0.287556
0
LINE
8
BLACK
6
CONTINUOUS
10
0.854431
20
0.287556
11
0.856305
21
0.280056
0
LINE
8
BLACK
6
CONTINUOUS
10
0.856305
20
0.280056
11
0.856259
21
0.279743
0
LINE
8
BLACK
6
CONTINUOUS
10
0.856259
20
0.279743
11
0.85638
21
0.27945
0
LINE
8
BLACK
6
CONTINUOUS
10
0.85638
20
0.27945
11
0.85638
21
0.270076
0
LINE
8
BLACK
6
CONTINUOUS
10
0.85638
20
0.270076
11
0.856259
21
0.269783
0
LINE
8
BLACK
6
CONTINUOUS
10
0.856259
20
0.269783
11
0.856305
21
0.26947
0
LINE
8
BLACK
6
CONTINUOUS
10
0.856305
20
0.26947
11
0.854431
21
0.261971
0
LINE
8
BLACK
6
CONTINUOUS
10
0.854431
20
0.261971
11
0.854261
21
0.261743
0
LINE
8
BLACK
6
CONTINUOUS
10
0.854261
20
0.261743
11
0.854241
21
0.261459
0
LINE
8
BLACK
6
CONTINUOUS
10
0.854241
20
0.261459
11
0.852367
21
0.25771
0
LINE
8
BLACK
6
CONTINUOUS
10
0.852367
20
0.25771
11
0.852056
21
0.25744
0
LINE
8
BLACK
6
CONTINUOUS
10
0.852056
20
0.25744
11
0.851898
21
0.25706
0
LINE
8
BLACK
6
CONTINUOUS
10
0.851898
20
0.25706
11
0.850024
21
0.255185
0
LINE
8
BLACK
6
CONTINUOUS
10
0.850024
20
0.255185
11
0.849643
21
0.255028
0
LINE
8
BLACK
6
CONTINUOUS
10
0.849643
20
0.255028
11
0.849374
21
0.254717
0
LINE
8
BLACK
6
CONTINUOUS
10
0.849374
20
0.254717
11
0.845624
21
0.252842
0
LINE
8
BLACK
6
CONTINUOUS
10
0.845624
20
0.252842
11
0.845044
21
0.252801
0
LINE
8
BLACK
6
CONTINUOUS
10
0.845044
20
0.252801
11
0.844506
21
0.252578
0
LINE
8
BLACK
6
CONTINUOUS
10
0.844506
20
0.252578
11
0.840757
21
0.252578
0
LINE
8
BLACK
6
CONTINUOUS
10
0.840757
20
0.252578
11
0.840219
21
0.252801
0
LINE
8
BLACK
6
CONTINUOUS
10
0.840219
20
0.252801
11
0.839639
21
0.252842
0
LINE
8
BLACK
6
CONTINUOUS
10
0.839639
20
0.252842
11
0.835889
21
0.254717
0
LINE
8
BLACK
6
CONTINUOUS
10
0.835889
20
0.254717
11
0.835619
21
0.255028
0
LINE
8
BLACK
6
CONTINUOUS
10
0.835619
20
0.255028
11
0.835239
21
0.255185
0
LINE
8
BLACK
6
CONTINUOUS
10
0.835239
20
0.255185
11
0.833365
21
0.25706
0
LINE
8
BLACK
6
CONTINUOUS
10
0.833365
20
0.25706
11
0.833207
21
0.25744
0
LINE
8
BLACK
6
CONTINUOUS
10
0.833207
20
0.25744
11
0.832896
21
0.25771
0
LINE
8
BLACK
6
CONTINUOUS
10
0.832896
20
0.25771
11
0.831022
21
0.261459
0
LINE
8
BLACK
6
CONTINUOUS
10
0.831022
20
0.261459
11
0.831001
21
0.261743
0
LINE
8
BLACK
6
CONTINUOUS
10
0.831001
20
0.261743
11
0.830832
21
0.261971
0
LINE
8
BLACK
6
CONTINUOUS
10
0.830832
20
0.261971
11
0.828957
21
0.26947
0
LINE
8
BLACK
6
CONTINUOUS
10
0.828957
20
0.26947
11
0.829004
21
0.269783
0
LINE
8
BLACK
6
CONTINUOUS
10
0.829004
20
0.269783
11
0.828883
21
0.270076
0
LINE
8
BLACK
6
CONTINUOUS
10
0.828883
20
0.270076
11
0.828883
21
0.27945
0
LINE
8
BLACK
6
CONTINUOUS
10
0.828883
20
0.27945
11
0.829004
21
0.279743
0
LINE
8
BLACK
6
CONTINUOUS
10
0.829004
20
0.279743
11
0.828957
21
0.280056
0
LINE
8
BLACK
6
CONTINUOUS
10
0.828957
20
0.280056
11
0.830832
21
0.287556
0
LINE
8
BLACK
6
CONTINUOUS
10
0.830832
20
0.287556
11
0.831001
21
0.287784
0
LINE
8
BLACK
6
CONTINUOUS
10
0.831001
20
0.287784
11
0.831022
21
0.288067
0
LINE
8
BLACK
6
CONTINUOUS
10
0.831022
20
0.288067
11
0.832896
21
0.291817
0
LINE
8
BLACK
6
CONTINUOUS
10
0.832896
20
0.291817
11
0.833207
21
0.292086
0
LINE
8
BLACK
6
CONTINUOUS
10
0.833207
20
0.292086
11
0.833365
21
0.292466
0
LINE
8
BLACK
6
CONTINUOUS
10
0.833365
20
0.292466
11
0.835239
21
0.294341
0
LINE
8
BLACK
6
CONTINUOUS
10
0.835239
20
0.294341
11
0.835619
21
0.294499
0
LINE
8
BLACK
6
CONTINUOUS
10
0.835619
20
0.294499
11
0.835889
21
0.29481
0
LINE
8
BLACK
6
CONTINUOUS
10
0.835889
20
0.29481
11
0.839639
21
0.296684
0
LINE
8
BLACK
6
CONTINUOUS
10
0.839639
20
0.296684
11
0.840219
21
0.296726
0
LINE
8
BLACK
6
CONTINUOUS
10
0.840219
20
0.296726
11
0.840757
21
0.296948
0
LINE
8
BLACK
6
CONTINUOUS
10
0.840757
20
0.296948
11
0.844506
21
0.296948
0
LINE
8
BLACK
6
CONTINUOUS
10
0.844506
20
0.296948
11
0.845044
21
0.296726
0
LINE
8
BLACK
6
CONTINUOUS
10
0.838488
20
0.290519
11
0.837187
21
0.289218
0
LINE
8
BLACK
6
CONTINUOUS
10
0.837187
20
0.289218
11
0.835616
21
0.286077
0
LINE
8
BLACK
6
CONTINUOUS
10
0.835616
20
0.286077
11
0.833883
21
0.279142
0
LINE
8
BLACK
6
CONTINUOUS
10
0.833883
20
0.279142
11
0.833883
21
0.270384
0
LINE
8
BLACK
6
CONTINUOUS
10
0.833883
20
0.270384
11
0.835616
21
0.26345
0
LINE
8
BLACK
6
CONTINUOUS
10
0.835616
20
0.26345
11
0.837187
21
0.260309
0
LINE
8
BLACK
6
CONTINUOUS
10
0.837187
20
0.260309
11
0.838488
21
0.259008
0
LINE
8
BLACK
6
CONTINUOUS
10
0.838488
20
0.259008
11
0.841347
21
0.257578
0
LINE
8
BLACK
6
CONTINUOUS
10
0.841347
20
0.257578
11
0.843916
21
0.257578
0
LINE
8
BLACK
6
CONTINUOUS
10
0.843916
20
0.257578
11
0.846775
21
0.259008
0
LINE
8
BLACK
6
CONTINUOUS
10
0.846775
20
0.259008
11
0.848076
21
0.260309
0
LINE
8
BLACK
6
CONTINUOUS
10
0.848076
20
0.260309
11
0.849646
21
0.26345
0
LINE
8
BLACK
6
CONTINUOUS
10
0.849646
20
0.26345
11
0.85138
21
0.270384
0
LINE
8
BLACK
6
CONTINUOUS
10
0.85138
20
0.270384
11
0.85138
21
0.279142
0
LINE
8
BLACK
6
CONTINUOUS
10
0.85138
20
0.279142
11
0.849646
21
0.286077
0
LINE
8
BLACK
6
CONTINUOUS
10
0.849646
20
0.286077
11
0.848076
21
0.289218
0
LINE
8
BLACK
6
CONTINUOUS
10
0.848076
20
0.289218
11
0.846775
21
0.290519
0
LINE
8
BLACK
6
CONTINUOUS
10
0.846775
20
0.290519
11
0.843916
21
0.291948
0
LINE
8
BLACK
6
CONTINUOUS
10
0.843916
20
0.291948
11
0.841347
21
0.291948
0
LINE
8
BLACK
6
CONTINUOUS
10
0.841347
20
0.291948
11
0.838488
21
0.290519
0
LINE
8
BLACK
6
CONTINUOUS
10
0.884414
20
0.296726
11
0.884994
21
0.296684
0
LINE
8
BLACK
6
CONTINUOUS
10
0.884994
20
0.296684
11
0.888744
21
0.29481
0
LINE
8
BLACK
6
CONTINUOUS
10
0.888744
20
0.29481
11
0.889013
21
0.294499
0
LINE
8
BLACK
6
CONTINUOUS
10
0.889013
20
0.294499
11
0.889394
21
0.294341
0
LINE
8
BLACK
6
CONTINUOUS
10
0.889394
20
0.294341
11
0.891268
21
0.292466
0
LINE
8
BLACK
6
CONTINUOUS
10
0.891268
20
0.292466
11
0.891426
21
0.292086
0
LINE
8
BLACK
6
CONTINUOUS
10
0.891426
20
0.292086
11
0.891737
21
0.291817
0
LINE
8
BLACK
6
CONTINUOUS
10
0.891737
20
0.291817
11
0.893611
21
0.288067
0
LINE
8
BLACK
6
CONTINUOUS
10
0.893611
20
0.288067
11
0.893653
21
0.287487
0
LINE
8
BLACK
6
CONTINUOUS
10
0.893653
20
0.287487
11
0.893875
21
0.286949
0
LINE
8
BLACK
6
CONTINUOUS
10
0.893875
20
0.286949
11
0.893875
21
0.2832
0
LINE
8
BLACK
6
CONTINUOUS
10
0.893875
20
0.2832
11
0.893718
21
0.282819
0
LINE
8
BLACK
6
CONTINUOUS
10
0.893718
20
0.282819
11
0.893747
21
0.282409
0
LINE
8
BLACK
6
CONTINUOUS
10
0.893747
20
0.282409
11
0.891872
21
0.276785
0
LINE
8
BLACK
6
CONTINUOUS
10
0.891872
20
0.276785
11
0.891491
21
0.276345
0
LINE
8
BLACK
6
CONTINUOUS
10
0.891491
20
0.276345
11
0.891268
21
0.275808
0
LINE
8
BLACK
6
CONTINUOUS
10
0.891268
20
0.275808
11
0.873039
21
0.257578
0
LINE
8
BLACK
6
CONTINUOUS
10
0.873039
20
0.257578
11
0.891375
21
0.257578
0
LINE
8
BLACK
6
CONTINUOUS
10
0.891375
20
0.257578
11
0.893143
21
0.256846
0
LINE
8
BLACK
6
CONTINUOUS
10
0.893143
20
0.256846
11
0.893875
21
0.255078
0
LINE
8
BLACK
6
CONTINUOUS
10
0.893875
20
0.255078
11
0.893143
21
0.25331
0
LINE
8
BLACK
6
CONTINUOUS
10
0.893143
20
0.25331
11
0.891375
21
0.252578
0
LINE
8
BLACK
6
CONTINUOUS
10
0.891375
20
0.252578
11
0.867003
21
0.252578
0
LINE
8
BLACK
6
CONTINUOUS
10
0.867003
20
0.252578
11
0.865236
21
0.25331
0
LINE
8
BLACK
6
CONTINUOUS
10
0.865236
20
0.25331
11
0.864503
21
0.255078
0
LINE
8
BLACK
6
CONTINUOUS
10
0.864503
20
0.255078
11
0.865236
21
0.256846
0
LINE
8
BLACK
6
CONTINUOUS
10
0.865236
20
0.256846
11
0.865236
21
0.256846
0
LINE
8
BLACK
6
CONTINUOUS
10
0.865236
20
0.256846
11
0.887315
21
0.278926
0
LINE
8
BLACK
6
CONTINUOUS
10
0.887315
20
0.278926
11
0.888875
21
0.283605
0
LINE
8
BLACK
6
CONTINUOUS
10
0.888875
20
0.283605
11
0.888875
21
0.286359
0
LINE
8
BLACK
6
CONTINUOUS
10
0.888875
20
0.286359
11
0.887446
21
0.289218
0
LINE
8
BLACK
6
CONTINUOUS
10
0.887446
20
0.289218
11
0.886145
21
0.290519
0
LINE
8
BLACK
6
CONTINUOUS
10
0.886145
20
0.290519
11
0.883286
21
0.291948
0
LINE
8
BLACK
6
CONTINUOUS
10
0.883286
20
0.291948
11
0.875093
21
0.291948
0
LINE
8
BLACK
6
CONTINUOUS
10
0.875093
20
0.291948
11
0.872234
21
0.290519
0
LINE
8
BLACK
6
CONTINUOUS
10
0.872234
20
0.290519
11
0.870646
21
0.288931
0
LINE
8
BLACK
6
CONTINUOUS
10
0.870646
20
0.288931
11
0.868878
21
0.288199
0
LINE
8
BLACK
6
CONTINUOUS
10
0.868878
20
0.288199
11
0.86711
21
0.288931
0
LINE
8
BLACK
6
CONTINUOUS
10
0.86711
20
0.288931
11
0.866378
21
0.290699
0
LINE
8
BLACK
6
CONTINUOUS
10
0.866378
20
0.290699
11
0.86711
21
0.292466
0
LINE
8
BLACK
6
CONTINUOUS
10
0.86711
20
0.292466
11
0.868985
21
0.294341
0
LINE
8
BLACK
6
CONTINUOUS
10
0.868985
20
0.294341
11
0.869365
21
0.294499
0
LINE
8
BLACK
6
CONTINUOUS
10
0.869365
20
0.294499
11
0.869635
21
0.29481
0
LINE
8
BLACK
6
CONTINUOUS
10
0.869635
20
0.29481
11
0.873384
21
0.296684
0
LINE
8
BLACK
6
CONTINUOUS
10
0.873384
20
0.296684
11
0.873965
21
0.296726
0
LINE
8
BLACK
6
CONTINUOUS
10
0.873965
20
0.296726
11
0.874502
21
0.296948
0
LINE
8
BLACK
6
CONTINUOUS
10
0.874502
20
0.296948
11
0.883876
21
0.296948
0
LINE
8
BLACK
6
CONTINUOUS
10
0.883876
20
0.296948
11
0.884414
21
0.296726
0
LINE
8
BLACK
6
CONTINUOUS
10
0.929683
20
0.296612
11
0.930517
21
0.29633
0
LINE
8
BLACK
6
CONTINUOUS
10
0.930517
20
0.29633
11
0.930556
21
0.29625
0
LINE
8
BLACK
6
CONTINUOUS
10
0.930556
20
0.29625
11
0.930638
21
0.296216
0
LINE
8
BLACK
6
CONTINUOUS
10
0.930638
20
0.296216
11
0.930975
21
0.295403
0
LINE
8
BLACK
6
CONTINUOUS
10
0.930975
20
0.295403
11
0.931365
21
0.294615
0
LINE
8
BLACK
6
CONTINUOUS
10
0.931365
20
0.294615
11
0.931337
21
0.29453
0
LINE
8
BLACK
6
CONTINUOUS
10
0.931337
20
0.29453
11
0.931371
21
0.294448
0
LINE
8
BLACK
6
CONTINUOUS
10
0.931371
20
0.294448
11
0.931034
21
0.293636
0
LINE
8
BLACK
6
CONTINUOUS
10
0.931034
20
0.293636
11
0.930752
21
0.292802
0
LINE
8
BLACK
6
CONTINUOUS
10
0.930752
20
0.292802
11
0.921257
21
0.28195
0
LINE
8
BLACK
6
CONTINUOUS
10
0.921257
20
0.28195
11
0.921372
21
0.28195
0
LINE
8
BLACK
6
CONTINUOUS
10
0.921372
20
0.28195
11
0.921909
21
0.281727
0
LINE
8
BLACK
6
CONTINUOUS
10
0.921909
20
0.281727
11
0.92249
21
0.281686
0
LINE
8
BLACK
6
CONTINUOUS
10
0.92249
20
0.281686
11
0.926239
21
0.279811
0
LINE
8
BLACK
6
CONTINUOUS
10
0.926239
20
0.279811
11
0.926509
21
0.279501
0
LINE
8
BLACK
6
CONTINUOUS
10
0.926509
20
0.279501
11
0.926889
21
0.279343
0
LINE
8
BLACK
6
CONTINUOUS
10
0.926889
20
0.279343
11
0.928764
21
0.277468
0
LINE
8
BLACK
6
CONTINUOUS
10
0.928764
20
0.277468
11
0.928921
21
0.277088
0
LINE
8
BLACK
6
CONTINUOUS
10
0.928921
20
0.277088
11
0.929232
21
0.276819
0
LINE
8
BLACK
6
CONTINUOUS
10
0.929232
20
0.276819
11
0.931107
21
0.273069
0
LINE
8
BLACK
6
CONTINUOUS
10
0.931107
20
0.273069
11
0.931148
21
0.272489
0
LINE
8
BLACK
6
CONTINUOUS
10
0.931148
20
0.272489
11
0.931371
21
0.271951
0
LINE
8
BLACK
6
CONTINUOUS
10
0.931371
20
0.271951
11
0.931371
21
0.262577
0
LINE
8
BLACK
6
CONTINUOUS
10
0.931371
20
0.262577
11
0.931148
21
0.26204
0
LINE
8
BLACK
6
CONTINUOUS
10
0.931148
20
0.26204
11
0.931107
21
0.261459
0
LINE
8
BLACK
6
CONTINUOUS
10
0.931107
20
0.261459
11
0.929232
21
0.25771
0
LINE
8
BLACK
6
CONTINUOUS
10
0.929232
20
0.25771
11
0.928921
21
0.25744
0
LINE
8
BLACK
6
CONTINUOUS
10
0.928921
20
0.25744
11
0.928764
21
0.25706
0
LINE
8
BLACK
6
CONTINUOUS
10
0.928764
20
0.25706
11
0.926889
21
0.255185
0
LINE
8
BLACK
6
CONTINUOUS
10
0.926889
20
0.255185
11
0.926509
21
0.255028
0
LINE
8
BLACK
6
CONTINUOUS
10
0.926509
20
0.255028
11
0.926239
21
0.254717
0
LINE
8
BLACK
6
CONTINUOUS
10
0.926239
20
0.254717
11
0.92249
21
0.252842
0
LINE
8
BLACK
6
CONTINUOUS
10
0.92249
20
0.252842
11
0.921909
21
0.252801
0
LINE
8
BLACK
6
CONTINUOUS
10
0.921909
20
0.252801
11
0.921372
21
0.252578
0
LINE
8
BLACK
6
CONTINUOUS
10
0.921372
20
0.252578
11
0.910123
21
0.252578
0
LINE
8
BLACK
6
CONTINUOUS
10
0.910123
20
0.252578
11
0.909585
21
0.252801
0
LINE
8
BLACK
6
CONTINUOUS
10
0.909585
20
0.252801
11
0.909005
21
0.252842
0
LINE
8
BLACK
6
CONTINUOUS
10
0.909005
20
0.252842
11
0.905255
21
0.254717
0
LINE
8
BLACK
6
CONTINUOUS
10
0.905255
20
0.254717
11
0.904986
21
0.255028
0
LINE
8
BLACK
6
CONTINUOUS
10
0.904986
20
0.255028
11
0.904606
21
0.255185
0
LINE
8
BLACK
6
CONTINUOUS
10
0.904606
20
0.255185
11
0.902731
21
0.25706
0
LINE
8
BLACK
6
CONTINUOUS
10
0.902731
20
0.25706
11
0.901999
21
0.258828
0
LINE
8
BLACK
6
CONTINUOUS
10
0.901999
20
0.258828
11
0.902731
21
0.260596
0
LINE
8
BLACK
6
CONTINUOUS
10
0.902731
20
0.260596
11
0.904499
21
0.261328
0
LINE
8
BLACK
6
CONTINUOUS
10
0.904499
20
0.261328
11
0.906266
21
0.260595
0
LINE
8
BLACK
6
CONTINUOUS
10
0.906266
20
0.260595
11
0.907854
21
0.259008
0
LINE
8
BLACK
6
CONTINUOUS
10
0.907854
20
0.259008
11
0.910713
21
0.257578
0
LINE
8
BLACK
6
CONTINUOUS
10
0.910713
20
0.257578
11
0.920781
21
0.257578
0
LINE
8
BLACK
6
CONTINUOUS
10
0.920781
20
0.257578
11
0.92364
21
0.259008
0
LINE
8
BLACK
6
CONTINUOUS
10
0.92364
20
0.259008
11
0.924941
21
0.260309
0
LINE
8
BLACK
6
CONTINUOUS
10
0.924941
20
0.260309
11
0.926371
21
0.263167
0
LINE
8
BLACK
6
CONTINUOUS
10
0.926371
20
0.263167
11
0.926371
21
0.271361
0
LINE
8
BLACK
6
CONTINUOUS
10
0.926371
20
0.271361
11
0.924941
21
0.27422
0
LINE
8
BLACK
6
CONTINUOUS
10
0.924941
20
0.27422
11
0.92364
21
0.275521
0
LINE
8
BLACK
6
CONTINUOUS
10
0.92364
20
0.275521
11
0.920781
21
0.27695
0
LINE
8
BLACK
6
CONTINUOUS
10
0.920781
20
0.27695
11
0.915747
21
0.27695
0
LINE
8
BLACK
6
CONTINUOUS
10
0.915747
20
0.27695
11
0.914935
21
0.277287
0
LINE
8
BLACK
6
CONTINUOUS
10
0.914935
20
0.277287
11
0.914101
21
0.277569
0
LINE
8
BLACK
6
CONTINUOUS
10
0.914101
20
0.277569
11
0.914062
21
0.277648
0
LINE
8
BLACK
6
CONTINUOUS
10
0.914062
20
0.277648
11
0.91398
21
0.277682
0
LINE
8
BLACK
6
CONTINUOUS
10
0.91398
20
0.277682
11
0.913643
21
0.278495
0
LINE
8
BLACK
6
CONTINUOUS
10
0.913643
20
0.278495
11
0.913253
21
0.279284
0
LINE
8
BLACK
6
CONTINUOUS
10
0.913253
20
0.279284
11
0.913281
21
0.279368
0
LINE
8
BLACK
6
CONTINUOUS
10
0.913281
20
0.279368
11
0.913247
21
0.27945
0
LINE
8
BLACK
6
CONTINUOUS
10
0.913247
20
0.27945
11
0.913584
21
0.280263
0
LINE
8
BLACK
6
CONTINUOUS
10
0.913584
20
0.280263
11
0.913866
21
0.281096
0
LINE
8
BLACK
6
CONTINUOUS
10
0.913866
20
0.281096
11
0.923361
21
0.291948
0
LINE
8
BLACK
6
CONTINUOUS
10
0.923361
20
0.291948
11
0.904499
21
0.291948
0
LINE
8
BLACK
6
CONTINUOUS
10
0.904499
20
0.291948
11
0.902731
21
0.29268
0
LINE
8
BLACK
6
CONTINUOUS
10
0.902731
20
0.29268
11
0.901999
21
0.294448
0
LINE
8
BLACK
6
CONTINUOUS
10
0.901999
20
0.294448
11
0.902731
21
0.296216
0
LINE
8
BLACK
6
CONTINUOUS
10
0.902731
20
0.296216
11
0.904499
21
0.296948
0
LINE
8
BLACK
6
CONTINUOUS
10
0.904499
20
0.296948
11
0.928871
21
0.296948
0
LINE
8
BLACK
6
CONTINUOUS
10
0.928871
20
0.296948
11
0.929683
21
0.296612
0
LINE
8
BLACK
6
CONTINUOUS
10
0.696293
20
0.296216
11
0.697025
21
0.294448
0
LINE
8
BLACK
6
CONTINUOUS
10
0.697025
20
0.294448
11
0.697025
21
0.261293
0
LINE
8
BLACK
6
CONTINUOUS
10
0.697025
20
0.261293
11
0.698263
21
0.258816
0
LINE
8
BLACK
6
CONTINUOUS
10
0.698263
20
0.258816
11
0.701267
21
0.257314
0
LINE
8
BLACK
6
CONTINUOUS
10
0.701267
20
0.257314
11
0.702521
21
0.255869
0
LINE
8
BLACK
6
CONTINUOUS
10
0.702521
20
0.255869
11
0.702385
21
0.25396
0
LINE
8
BLACK
6
CONTINUOUS
10
0.702385
20
0.25396
11
0.70094
21
0.252706
0
LINE
8
BLACK
6
CONTINUOUS
10
0.70094
20
0.252706
11
0.699031
21
0.252842
0
LINE
8
BLACK
6
CONTINUOUS
10
0.699031
20
0.252842
11
0.695282
21
0.254717
0
LINE
8
BLACK
6
CONTINUOUS
10
0.695282
20
0.254717
11
0.694762
21
0.255316
0
LINE
8
BLACK
6
CONTINUOUS
10
0.694762
20
0.255316
11
0.694164
21
0.255835
0
LINE
8
BLACK
6
CONTINUOUS
10
0.694164
20
0.255835
11
0.692289
21
0.259584
0
LINE
8
BLACK
6
CONTINUOUS
10
0.692289
20
0.259584
11
0.692248
21
0.260165
0
LINE
8
BLACK
6
CONTINUOUS
10
0.692248
20
0.260165
11
0.692025
21
0.260702
0
LINE
8
BLACK
6
CONTINUOUS
10
0.692025
20
0.260702
11
0.692025
21
0.294448
0
LINE
8
BLACK
6
CONTINUOUS
10
0.692025
20
0.294448
11
0.692757
21
0.296216
0
LINE
8
BLACK
6
CONTINUOUS
10
0.692757
20
0.296216
11
0.694525
21
0.296948
0
LINE
8
BLACK
6
CONTINUOUS
10
0.694525
20
0.296948
11
0.696293
21
0.296216
0
LINE
8
BLACK
6
CONTINUOUS
10
0.716915
20
0.296216
11
0.71879
21
0.294341
0
LINE
8
BLACK
6
CONTINUOUS
10
0.71879
20
0.294341
11
0.719195
21
0.293364
0
LINE
8
BLACK
6
CONTINUOUS
10
0.719195
20
0.293364
11
0.719522
21
0.292573
0
LINE
8
BLACK
6
CONTINUOUS
10
0.719522
20
0.292573
11
0.71879
21
0.290806
0
LINE
8
BLACK
6
CONTINUOUS
10
0.71879
20
0.290806
11
0.716915
21
0.288931
0
LINE
8
BLACK
6
CONTINUOUS
10
0.716915
20
0.288931
11
0.715147
21
0.288199
0
LINE
8
BLACK
6
CONTINUOUS
10
0.715147
20
0.288199
11
0.713896
21
0.288717
0
LINE
8
BLACK
6
CONTINUOUS
10
0.713896
20
0.288717
11
0.71338
21
0.288931
0
LINE
8
BLACK
6
CONTINUOUS
10
0.71338
20
0.288931
11
0.711505
21
0.290806
0
LINE
8
BLACK
6
CONTINUOUS
10
0.711505
20
0.290806
11
0.710773
21
0.292573
0
LINE
8
BLACK
6
CONTINUOUS
10
0.710773
20
0.292573
11
0.711505
21
0.294341
0
LINE
8
BLACK
6
CONTINUOUS
10
0.711505
20
0.294341
11
0.71338
21
0.296216
0
LINE
8
BLACK
6
CONTINUOUS
10
0.71338
20
0.296216
11
0.713897
21
0.29643
0
LINE
8
BLACK
6
CONTINUOUS
10
0.713897
20
0.29643
11
0.715147
21
0.296948
0
LINE
8
BLACK
6
CONTINUOUS
10
0.715147
20
0.296948
11
0.716915
21
0.296216
0
LINE
8
BLACK
6
CONTINUOUS
10
1.24195
20
0.641866
11
1.24264
21
0.639968
0
LINE
8
BLACK
6
CONTINUOUS
10
1.24264
20
0.639968
11
1.24264
21
0.624599
0
LINE
8
BLACK
6
CONTINUOUS
10
1.24264
20
0.624599
11
1.2601
21
0.642056
0
LINE
8
BLACK
6
CONTINUOUS
10
1.2601
20
0.642056
11
1.26094
21
0.642644
0
LINE
8
BLACK
6
CONTINUOUS
10
1.26094
20
0.642644
11
1.26295
21
0.64282
0
LINE
8
BLACK
6
CONTINUOUS
10
1.26295
20
0.64282
11
1.2646
21
0.641661
0
LINE
8
BLACK
6
CONTINUOUS
10
1.2646
20
0.641661
11
1.26513
21
0.63971
0
LINE
8
BLACK
6
CONTINUOUS
10
1.26513
20
0.63971
11
1.26427
21
0.63788
0
LINE
8
BLACK
6
CONTINUOUS
10
1.26427
20
0.63788
11
1.24921
21
0.622818
0
LINE
8
BLACK
6
CONTINUOUS
10
1.24921
20
0.622818
11
1.26455
21
0.602369
0
LINE
8
BLACK
6
CONTINUOUS
10
1.26455
20
0.602369
11
1.26501
21
0.601455
0
LINE
8
BLACK
6
CONTINUOUS
10
1.26501
20
0.601455
11
1.2649
21
0.599438
0
LINE
8
BLACK
6
CONTINUOUS
10
1.2649
20
0.599438
11
1.26352
21
0.597964
0
LINE
8
BLACK
6
CONTINUOUS
10
1.26352
20
0.597964
11
1.26152
21
0.597722
0
LINE
8
BLACK
6
CONTINUOUS
10
1.26152
20
0.597722
11
1.25982
21
0.598826
0
LINE
8
BLACK
6
CONTINUOUS
10
1.25982
20
0.598826
11
1.24499
21
0.6186
0
LINE
8
BLACK
6
CONTINUOUS
10
1.24499
20
0.6186
11
1.24264
21
0.616248
0
LINE
8
BLACK
6
CONTINUOUS
10
1.24264
20
0.616248
11
1.24264
21
0.600598
0
LINE
8
BLACK
6
CONTINUOUS
10
1.24264
20
0.600598
11
1.24246
21
0.599588
0
LINE
8
BLACK
6
CONTINUOUS
10
1.24246
20
0.599588
11
1.24117
21
0.598041
0
LINE
8
BLACK
6
CONTINUOUS
10
1.24117
20
0.598041
11
1.23918
21
0.59769
0
LINE
8
BLACK
6
CONTINUOUS
10
1.23918
20
0.59769
11
1.23743
21
0.5987
0
LINE
8
BLACK
6
CONTINUOUS
10
1.23743
20
0.5987
11
1.23674
21
0.600598
0
LINE
8
BLACK
6
CONTINUOUS
10
1.23674
20
0.600598
11
1.23674
21
0.639968
0
LINE
8
BLACK
6
CONTINUOUS
10
1.23674
20
0.639968
11
1.23691
21
0.640978
0
LINE
8
BLACK
6
CONTINUOUS
10
1.23691
20
0.640978
11
1.23821
21
0.642525
0
LINE
8
BLACK
6
CONTINUOUS
10
1.23821
20
0.642525
11
1.2402
21
0.642876
0
LINE
8
BLACK
6
CONTINUOUS
10
1.2402
20
0.642876
11
1.24195
21
0.641866
0
LINE
8
BLACK
6
CONTINUOUS
10
1.38118
20
0.792767
11
1.38125
21
0.792769
0
LINE
8
BLACK
6
CONTINUOUS
10
1.38125
20
0.792769
11
1.38687
21
0.790894
0
LINE
8
BLACK
6
CONTINUOUS
10
1.38687
20
0.790894
11
1.38777
21
0.790406
0
LINE
8
BLACK
6
CONTINUOUS
10
1.38777
20
0.790406
11
1.38787
21
0.790256
0
LINE
8
BLACK
6
CONTINUOUS
10
1.38787
20
0.790256
11
1.38803
21
0.790181
0
LINE
8
BLACK
6
CONTINUOUS
10
1.38803
20
0.790181
11
1.39178
21
0.786431
0
LINE
8
BLACK
6
CONTINUOUS
10
1.39178
20
0.786431
11
1.39228
21
0.785708
0
LINE
8
BLACK
6
CONTINUOUS
10
1.39228
20
0.785708
11
1.39233
21
0.785664
0
LINE
8
BLACK
6
CONTINUOUS
10
1.39233
20
0.785664
11
1.3942
21
0.781914
0
LINE
8
BLACK
6
CONTINUOUS
10
1.3942
20
0.781914
11
1.39435
21
0.781426
0
LINE
8
BLACK
6
CONTINUOUS
10
1.39435
20
0.781426
11
1.39443
21
0.78131
0
LINE
8
BLACK
6
CONTINUOUS
10
1.39443
20
0.78131
11
1.3963
21
0.773811
0
LINE
8
BLACK
6
CONTINUOUS
10
1.3963
20
0.773811
11
1.39634
21
0.773223
0
LINE
8
BLACK
6
CONTINUOUS
10
1.39634
20
0.773223
11
1.39639
21
0.773095
0
LINE
8
BLACK
6
CONTINUOUS
10
1.39639
20
0.773095
11
1.39639
21
0.767471
0
LINE
8
BLACK
6
CONTINUOUS
10
1.39639
20
0.767471
11
1.39629
21
0.76689
0
LINE
8
BLACK
6
CONTINUOUS
10
1.39629
20
0.76689
11
1.3963
21
0.766754
0
LINE
8
BLACK
6
CONTINUOUS
10
1.3963
20
0.766754
11
1.39443
21
0.759255
0
LINE
8
BLACK
6
CONTINUOUS
10
1.39443
20
0.759255
11
1.39422
21
0.75879
0
LINE
8
BLACK
6
CONTINUOUS
10
1.39422
20
0.75879
11
1.3942
21
0.758651
0
LINE
8
BLACK
6
CONTINUOUS
10
1.3942
20
0.758651
11
1.39233
21
0.754901
0
LINE
8
BLACK
6
CONTINUOUS
10
1.39233
20
0.754901
11
1.3918
21
0.754193
0
LINE
8
BLACK
6
CONTINUOUS
10
1.3918
20
0.754193
11
1.39178
21
0.754134
0
LINE
8
BLACK
6
CONTINUOUS
10
1.39178
20
0.754134
11
1.38803
21
0.750385
0
LINE
8
BLACK
6
CONTINUOUS
10
1.38803
20
0.750385
11
1.38719
21
0.749796
0
LINE
8
BLACK
6
CONTINUOUS
10
1.38719
20
0.749796
11
1.38701
21
0.749781
0
LINE
8
BLACK
6
CONTINUOUS
10
1.38701
20
0.749781
11
1.38687
21
0.749671
0
LINE
8
BLACK
6
CONTINUOUS
10
1.38687
20
0.749671
11
1.38125
21
0.747796
0
LINE
8
BLACK
6
CONTINUOUS
10
1.38125
20
0.747796
11
1.38038
21
0.747667
0
LINE
8
BLACK
6
CONTINUOUS
10
1.38038
20
0.747667
11
1.38031
21
0.747645
0
LINE
8
BLACK
6
CONTINUOUS
10
1.38031
20
0.747645
11
1.37094
21
0.747645
0
LINE
8
BLACK
6
CONTINUOUS
10
1.37094
20
0.747645
11
1.37056
21
0.747713
0
LINE
8
BLACK
6
CONTINUOUS
10
1.37056
20
0.747713
11
1.37043
21
0.74769
0
LINE
8
BLACK
6
CONTINUOUS
10
1.37043
20
0.74769
11
1.37031
21
0.747755
0
LINE
8
BLACK
6
CONTINUOUS
10
1.37031
20
0.747755
11
1.36993
21
0.747823
0
LINE
8
BLACK
6
CONTINUOUS
10
1.36993
20
0.747823
11
1.36934
21
0.748316
0
LINE
8
BLACK
6
CONTINUOUS
10
1.36934
20
0.748316
11
1.36868
21
0.7487
0
LINE
8
BLACK
6
CONTINUOUS
10
1.36868
20
0.7487
11
1.36859
21
0.74895
0
LINE
8
BLACK
6
CONTINUOUS
10
1.36859
20
0.74895
11
1.36838
21
0.749121
0
LINE
8
BLACK
6
CONTINUOUS
10
1.36838
20
0.749121
11
1.36825
21
0.749877
0
LINE
8
BLACK
6
CONTINUOUS
10
1.36825
20
0.749877
11
1.36799
21
0.750598
0
LINE
8
BLACK
6
CONTINUOUS
10
1.36799
20
0.750598
11
1.36799
21
0.789968
0
LINE
8
BLACK
6
CONTINUOUS
10
1.36799
20
0.789968
11
1.36806
21
0.790351
0
LINE
8
BLACK
6
CONTINUOUS
10
1.36806
20
0.790351
11
1.36803
21
0.790481
0
LINE
8
BLACK
6
CONTINUOUS
10
1.36803
20
0.790481
11
1.3681
21
0.790594
0
LINE
8
BLACK
6
CONTINUOUS
10
1.3681
20
0.790594
11
1.36817
21
0.790978
0
LINE
8
BLACK
6
CONTINUOUS
10
1.36817
20
0.790978
11
1.36866
21
0.791565
0
LINE
8
BLACK
6
CONTINUOUS
10
1.36866
20
0.791565
11
1.36904
21
0.79223
0
LINE
8
BLACK
6
CONTINUOUS
10
1.36904
20
0.79223
11
1.36929
21
0.792321
0
LINE
8
BLACK
6
CONTINUOUS
10
1.36929
20
0.792321
11
1.36946
21
0.792525
0
LINE
8
BLACK
6
CONTINUOUS
10
1.36946
20
0.792525
11
1.37022
21
0.792658
0
LINE
8
BLACK
6
CONTINUOUS
10
1.37022
20
0.792658
11
1.37094
21
0.792921
0
LINE
8
BLACK
6
CONTINUOUS
10
1.37094
20
0.792921
11
1.38031
21
0.792921
0
LINE
8
BLACK
6
CONTINUOUS
10
1.38031
20
0.792921
11
1.38118
21
0.792767
0
LINE
8
BLACK
6
CONTINUOUS
10
1.37389
20
0.75355
11
1.37984
21
0.75355
0
LINE
8
BLACK
6
CONTINUOUS
10
1.37984
20
0.75355
11
1.38434
21
0.755053
0
LINE
8
BLACK
6
CONTINUOUS
10
1.38434
20
0.755053
11
1.38726
21
0.757971
0
LINE
8
BLACK
6
CONTINUOUS
10
1.38726
20
0.757971
11
1.38878
21
0.761002
0
LINE
8
BLACK
6
CONTINUOUS
10
1.38878
20
0.761002
11
1.39049
21
0.767834
0
LINE
8
BLACK
6
CONTINUOUS
10
1.39049
20
0.767834
11
1.39049
21
0.772731
0
LINE
8
BLACK
6
CONTINUOUS
10
1.39049
20
0.772731
11
1.38878
21
0.779563
0
LINE
8
BLACK
6
CONTINUOUS
10
1.38878
20
0.779563
11
1.38726
21
0.782594
0
LINE
8
BLACK
6
CONTINUOUS
10
1.38726
20
0.782594
11
1.38434
21
0.785512
0
LINE
8
BLACK
6
CONTINUOUS
10
1.38434
20
0.785512
11
1.37984
21
0.787015
0
LINE
8
BLACK
6
CONTINUOUS
10
1.37984
20
0.787015
11
1.37389
21
0.787015
0
LINE
8
BLACK
6
CONTINUOUS
10
1.37389
20
0.787015
11
1.37389
21
0.75355
0
LINE
8
BLACK
6
CONTINUOUS
10
1.42444
20
0.792742
11
1.42458
21
0.792629
0
LINE
8
BLACK
6
CONTINUOUS
10
1.42458
20
0.792629
11
1.42476
21
0.792609
0
LINE
8
BLACK
6
CONTINUOUS
10
1.42476
20
0.792609
11
1.4285
21
0.790734
0
LINE
8
BLACK
6
CONTINUOUS
10
1.4285
20
0.790734
11
1.42921
21
0.790208
0
LINE
8
BLACK
6
CONTINUOUS
10
1.42921
20
0.790208
11
1.42927
21
0.790181
0
LINE
8
BLACK
6
CONTINUOUS
10
1.42927
20
0.790181
11
1.43115
21
0.788306
0
LINE
8
BLACK
6
CONTINUOUS
10
1.43115
20
0.788306
11
1.43165
21
0.787583
0
LINE
8
BLACK
6
CONTINUOUS
10
1.43165
20
0.787583
11
1.4317
21
0.787539
0
LINE
8
BLACK
6
CONTINUOUS
10
1.4317
20
0.787539
11
1.43357
21
0.783789
0
LINE
8
BLACK
6
CONTINUOUS
10
1.43357
20
0.783789
11
1.43387
21
0.782806
0
LINE
8
BLACK
6
CONTINUOUS
10
1.43387
20
0.782806
11
1.43383
21
0.782635
0
LINE
8
BLACK
6
CONTINUOUS
10
1.43383
20
0.782635
11
1.43389
21
0.782469
0
LINE
8
BLACK
6
CONTINUOUS
10
1.43389
20
0.782469
11
1.43389
21
0.778719
0
LINE
8
BLACK
6
CONTINUOUS
10
1.43389
20
0.778719
11
1.43373
21
0.77785
0
LINE
8
BLACK
6
CONTINUOUS
10
1.43373
20
0.77785
11
1.43373
21
0.777785
0
LINE
8
BLACK
6
CONTINUOUS
10
1.43373
20
0.777785
11
1.43186
21
0.772161
0
LINE
8
BLACK
6
CONTINUOUS
10
1.43186
20
0.772161
11
1.43137
21
0.771259
0
LINE
8
BLACK
6
CONTINUOUS
10
1.43137
20
0.771259
11
1.43122
21
0.771167
0
LINE
8
BLACK
6
CONTINUOUS
10
1.43122
20
0.771167
11
1.43115
21
0.771007
0
LINE
8
BLACK
6
CONTINUOUS
10
1.43115
20
0.771007
11
1.41369
21
0.75355
0
LINE
8
BLACK
6
CONTINUOUS
10
1.41369
20
0.75355
11
1.43093
21
0.75355
0
LINE
8
BLACK
6
CONTINUOUS
10
1.43093
20
0.75355
11
1.43194
21
0.753372
0
LINE
8
BLACK
6
CONTINUOUS
10
1.43194
20
0.753372
11
1.43349
21
0.752074
0
LINE
8
BLACK
6
CONTINUOUS
10
1.43349
20
0.752074
11
1.43384
21
0.750085
0
LINE
8
BLACK
6
CONTINUOUS
10
1.43384
20
0.750085
11
1.43283
21
0.748336
0
LINE
8
BLACK
6
CONTINUOUS
10
1.43283
20
0.748336
11
1.43093
21
0.747645
0
LINE
8
BLACK
6
CONTINUOUS
10
1.43093
20
0.747645
11
1.40656
21
0.747645
0
LINE
8
BLACK
6
CONTINUOUS
10
1.40656
20
0.747645
11
1.40593
21
0.747757
0
LINE
8
BLACK
6
CONTINUOUS
10
1.40593
20
0.747757
11
1.4058
21
0.747746
0
LINE
8
BLACK
6
CONTINUOUS
10
1.4058
20
0.747746
11
1.40573
21
0.747791
0
LINE
8
BLACK
6
CONTINUOUS
10
1.40573
20
0.747791
11
1.40555
21
0.747823
0
LINE
8
BLACK
6
CONTINUOUS
10
1.40555
20
0.747823
11
1.40487
21
0.748394
0
LINE
8
BLACK
6
CONTINUOUS
10
1.40487
20
0.748394
11
1.40414
21
0.748904
0
LINE
8
BLACK
6
CONTINUOUS
10
1.40414
20
0.748904
11
1.40411
21
0.749035
0
LINE
8
BLACK
6
CONTINUOUS
10
1.40411
20
0.749035
11
1.404
21
0.749121
0
LINE
8
BLACK
6
CONTINUOUS
10
1.404
20
0.749121
11
1.40385
21
0.749997
0
LINE
8
BLACK
6
CONTINUOUS
10
1.40385
20
0.749997
11
1.40362
21
0.750855
0
LINE
8
BLACK
6
CONTINUOUS
10
1.40362
20
0.750855
11
1.40368
21
0.750977
0
LINE
8
BLACK
6
CONTINUOUS
10
1.40368
20
0.750977
11
1.40365
21
0.75111
0
LINE
8
BLACK
6
CONTINUOUS
10
1.40365
20
0.75111
11
1.4041
21
0.75188
0
LINE
8
BLACK
6
CONTINUOUS
10
1.4041
20
0.75188
11
1.40447
21
0.752686
0
LINE
8
BLACK
6
CONTINUOUS
10
1.40447
20
0.752686
11
1.42648
21
0.77469
0
LINE
8
BLACK
6
CONTINUOUS
10
1.42648
20
0.77469
11
1.42798
21
0.779198
0
LINE
8
BLACK
6
CONTINUOUS
10
1.42798
20
0.779198
11
1.42798
21
0.781772
0
LINE
8
BLACK
6
CONTINUOUS
10
1.42798
20
0.781772
11
1.42663
21
0.784469
0
LINE
8
BLACK
6
CONTINUOUS
10
1.42663
20
0.784469
11
1.42544
21
0.785666
0
LINE
8
BLACK
6
CONTINUOUS
10
1.42544
20
0.785666
11
1.42274
21
0.787015
0
LINE
8
BLACK
6
CONTINUOUS
10
1.42274
20
0.787015
11
1.41476
21
0.787015
0
LINE
8
BLACK
6
CONTINUOUS
10
1.41476
20
0.787015
11
1.41206
21
0.785666
0
LINE
8
BLACK
6
CONTINUOUS
10
1.41206
20
0.785666
11
1.41052
21
0.78413
0
LINE
8
BLACK
6
CONTINUOUS
10
1.41052
20
0.78413
11
1.40968
21
0.783542
0
LINE
8
BLACK
6
CONTINUOUS
10
1.40968
20
0.783542
11
1.40767
21
0.783366
0
LINE
8
BLACK
6
CONTINUOUS
10
1.40767
20
0.783366
11
1.40602
21
0.784525
0
LINE
8
BLACK
6
CONTINUOUS
10
1.40602
20
0.784525
11
1.40549
21
0.786476
0
LINE
8
BLACK
6
CONTINUOUS
10
1.40549
20
0.786476
11
1.40635
21
0.788306
0
LINE
8
BLACK
6
CONTINUOUS
10
1.40635
20
0.788306
11
1.40822
21
0.790181
0
LINE
8
BLACK
6
CONTINUOUS
10
1.40822
20
0.790181
11
1.40895
21
0.790687
0
LINE
8
BLACK
6
CONTINUOUS
10
1.40895
20
0.790687
11
1.40899
21
0.790734
0
LINE
8
BLACK
6
CONTINUOUS
10
1.40899
20
0.790734
11
1.41274
21
0.792609
0
LINE
8
BLACK
6
CONTINUOUS
10
1.41274
20
0.792609
11
1.41372
21
0.792901
0
LINE
8
BLACK
6
CONTINUOUS
10
1.41372
20
0.792901
11
1.41389
21
0.79286
0
LINE
8
BLACK
6
CONTINUOUS
10
1.41389
20
0.79286
11
1.41406
21
0.792921
0
LINE
8
BLACK
6
CONTINUOUS
10
1.41406
20
0.792921
11
1.42343
21
0.792921
0
LINE
8
BLACK
6
CONTINUOUS
10
1.42343
20
0.792921
11
1.42444
21
0.792742
0
LINE
8
BLACK
6
CONTINUOUS
10
1.67953
20
1.53346
11
1.68092
21
1.53289
0
LINE
8
BLACK
6
CONTINUOUS
10
1.68092
20
1.53289
11
1.6815
21
1.5315
0
LINE
8
BLACK
6
CONTINUOUS
10
1.6815
20
1.5315
11
1.6815
21
0.468504
0
LINE
8
BLACK
6
CONTINUOUS
10
1.6815
20
0.468504
11
1.68092
21
0.467112
0
LINE
8
BLACK
6
CONTINUOUS
10
1.68092
20
0.467112
11
1.67953
21
0.466535
0
LINE
8
BLACK
6
CONTINUOUS
10
1.67953
20
0.466535
11
1.12047
21
0.466535
0
LINE
8
BLACK
6
CONTINUOUS
10
1.12047
20
0.466535
11
1.11908
21
0.467112
0
LINE
8
BLACK
6
CONTINUOUS
10
1.11908
20
0.467112
11
1.1185
21
0.468504
0
LINE
8
BLACK
6
CONTINUOUS
10
1.1185
20
0.468504
11
1.1185
21
1.5315
0
LINE
8
BLACK
6
CONTINUOUS
10
1.1185
20
1.5315
11
1.11908
21
1.53289
0
LINE
8
BLACK
6
CONTINUOUS
10
1.11908
20
1.53289
11
1.12047
21
1.53346
0
LINE
8
BLACK
6
CONTINUOUS
10
1.12047
20
1.53346
11
1.67953
21
1.53346
0
LINE
8
BLACK
6
CONTINUOUS
10
1.12244
20
1.52953
11
1.12244
21
0.470472
0
LINE
8
BLACK
6
CONTINUOUS
10
1.12244
20
0.470472
11
1.67756
21
0.470472
0
LINE
8
BLACK
6
CONTINUOUS
10
1.67756
20
0.470472
11
1.67756
21
1.52953
0
LINE
8
BLACK
6
CONTINUOUS
10
1.67756
20
1.52953
11
1.12244
21
1.52953
0
LINE
8
BLACK
6
CONTINUOUS
10
2.40226
20
0.781898
11
2.40295
21
0.78
0
LINE
8
BLACK
6
CONTINUOUS
10
2.40295
20
0.78
11
2.40295
21
0.69
0
LINE
8
BLACK
6
CONTINUOUS
10
2.40295
20
0.69
11
2.40289
21
0.689616
0
LINE
8
BLACK
6
CONTINUOUS
10
2.40289
20
0.689616
11
2.40291
21
0.689487
0
LINE
8
BLACK
6
CONTINUOUS
10
2.40291
20
0.689487
11
2.40284
21
0.689374
0
LINE
8
BLACK
6
CONTINUOUS
10
2.40284
20
0.689374
11
2.40277
21
0.68899
0
LINE
8
BLACK
6
CONTINUOUS
10
2.40277
20
0.68899
11
2.40228
21
0.688402
0
LINE
8
BLACK
6
CONTINUOUS
10
2.40228
20
0.688402
11
2.4019
21
0.687738
0
LINE
8
BLACK
6
CONTINUOUS
10
2.4019
20
0.687738
11
2.40165
21
0.687647
0
LINE
8
BLACK
6
CONTINUOUS
10
2.40165
20
0.687647
11
2.40148
21
0.687443
0
LINE
8
BLACK
6
CONTINUOUS
10
2.40148
20
0.687443
11
2.40072
21
0.68731
0
LINE
8
BLACK
6
CONTINUOUS
10
2.40072
20
0.68731
11
2.4
21
0.687047
0
LINE
8
BLACK
6
CONTINUOUS
10
2.4
20
0.687047
11
2.2
21
0.687047
0
LINE
8
BLACK
6
CONTINUOUS
10
2.2
20
0.687047
11
2.19962
21
0.687115
0
LINE
8
BLACK
6
CONTINUOUS
10
2.19962
20
0.687115
11
2.19949
21
0.687092
0
LINE
8
BLACK
6
CONTINUOUS
10
2.19949
20
0.687092
11
2.19937
21
0.687158
0
LINE
8
BLACK
6
CONTINUOUS
10
2.19937
20
0.687158
11
2.19899
21
0.687225
0
LINE
8
BLACK
6
CONTINUOUS
10
2.19899
20
0.687225
11
2.1984
21
0.687718
0
LINE
8
BLACK
6
CONTINUOUS
10
2.1984
20
0.687718
11
2.19774
21
0.688102
0
LINE
8
BLACK
6
CONTINUOUS
10
2.19774
20
0.688102
11
2.19765
21
0.688352
0
LINE
8
BLACK
6
CONTINUOUS
10
2.19765
20
0.688352
11
2.19744
21
0.688524
0
LINE
8
BLACK
6
CONTINUOUS
10
2.19744
20
0.688524
11
2.19731
21
0.689279
0
LINE
8
BLACK
6
CONTINUOUS
10
2.19731
20
0.689279
11
2.19705
21
0.69
0
LINE
8
BLACK
6
CONTINUOUS
10
2.19705
20
0.69
11
2.19705
21
0.78
0
LINE
8
BLACK
6
CONTINUOUS
10
2.19705
20
0.78
11
2.19723
21
0.78101
0
LINE
8
BLACK
6
CONTINUOUS
10
2.19723
20
0.78101
11
2.19852
21
0.782557
0
LINE
8
BLACK
6
CONTINUOUS
10
2.19852
20
0.782557
11
2.20051
21
0.782908
0
LINE
8
BLACK
6
CONTINUOUS
10
2.20051
20
0.782908
11
2.20226
21
0.781898
0
LINE
8
BLACK
6
CONTINUOUS
10
2.20226
20
0.781898
11
2.20295
21
0.78
0
LINE
8
BLACK
6
CONTINUOUS
10
2.20295
20
0.78
11
2.20295
21
0.692953
0
LINE
8
BLACK
6
CONTINUOUS
10
2.20295
20
0.692953
11
2.39705
21
0.692953
0
LINE
8
BLACK
6
CONTINUOUS
10
2.39705
20
0.692953
11
2.39705
21
0.78
0
LINE
8
BLACK
6
CONTINUOUS
10
2.39705
20
0.78
11
2.39723
21
0.78101
0
LINE
8
BLACK
6
CONTINUOUS
10
2.39723
20
0.78101
11
2.39852
21
0.782557
0
LINE
8
BLACK
6
CONTINUOUS
10
2.39852
20
0.782557
11
2.40051
21
0.782908
0
LINE
8
BLACK
6
CONTINUOUS
10
2.40051
20
0.782908
11
2.40226
21
0.781898
0
LINE
8
BLACK
6
CONTINUOUS
10
2.20257
20
0.858602
11
2.20315
21
0.858561
0
LINE
8
BLACK
6
CONTINUOUS
10
2.20315
20
0.858561
11
2.20405
21
0.858109
0
LINE
8
BLACK
6
CONTINUOUS
10
2.20405
20
0.858109
11
2.20578
21
0.858825
0
LINE
8
BLACK
6
CONTINUOUS
10
2.20578
20
0.858825
11
2.20755
21
0.858093
0
LINE
8
BLACK
6
CONTINUOUS
10
2.20755
20
0.858093
11
2.20828
21
0.856325
0
LINE
8
BLACK
6
CONTINUOUS
10
2.20828
20
0.856325
11
2.20828
21
0.824454
0
LINE
8
BLACK
6
CONTINUOUS
10
2.20828
20
0.824454
11
2.20806
21
0.823916
0
LINE
8
BLACK
6
CONTINUOUS
10
2.20806
20
0.823916
11
2.20802
21
0.823336
0
LINE
8
BLACK
6
CONTINUOUS
10
2.20802
20
0.823336
11
2.20614
21
0.819586
0
LINE
8
BLACK
6
CONTINUOUS
10
2.20614
20
0.819586
11
2.20583
21
0.819317
0
LINE
8
BLACK
6
CONTINUOUS
10
2.20583
20
0.819317
11
2.20567
21
0.818937
0
LINE
8
BLACK
6
CONTINUOUS
10
2.20567
20
0.818937
11
2.2038
21
0.817062
0
LINE
8
BLACK
6
CONTINUOUS
10
2.2038
20
0.817062
11
2.20342
21
0.816904
0
LINE
8
BLACK
6
CONTINUOUS
10
2.20342
20
0.816904
11
2.20315
21
0.816594
0
LINE
8
BLACK
6
CONTINUOUS
10
2.20315
20
0.816594
11
2.1994
21
0.814719
0
LINE
8
BLACK
6
CONTINUOUS
10
2.1994
20
0.814719
11
2.19882
21
0.814678
0
LINE
8
BLACK
6
CONTINUOUS
10
2.19882
20
0.814678
11
2.19828
21
0.814455
0
LINE
8
BLACK
6
CONTINUOUS
10
2.19828
20
0.814455
11
2.19266
21
0.814455
0
LINE
8
BLACK
6
CONTINUOUS
10
2.19266
20
0.814455
11
2.19212
21
0.814678
0
LINE
8
BLACK
6
CONTINUOUS
10
2.19212
20
0.814678
11
2.19154
21
0.814719
0
LINE
8
BLACK
6
CONTINUOUS
10
2.19154
20
0.814719
11
2.18779
21
0.816594
0
LINE
8
BLACK
6
CONTINUOUS
10
2.18779
20
0.816594
11
2.18653
21
0.818039
0
LINE
8
BLACK
6
CONTINUOUS
10
2.18653
20
0.818039
11
2.18667
21
0.819948
0
LINE
8
BLACK
6
CONTINUOUS
10
2.18667
20
0.819948
11
2.18812
21
0.821201
0
LINE
8
BLACK
6
CONTINUOUS
10
2.18812
20
0.821201
11
2.19002
21
0.821066
0
LINE
8
BLACK
6
CONTINUOUS
10
2.19002
20
0.821066
11
2.19325
21
0.819455
0
LINE
8
BLACK
6
CONTINUOUS
10
2.19325
20
0.819455
11
2.19769
21
0.819455
0
LINE
8
BLACK
6
CONTINUOUS
10
2.19769
20
0.819455
11
2.20055
21
0.820884
0
LINE
8
BLACK
6
CONTINUOUS
10
2.20055
20
0.820884
11
2.20185
21
0.822185
0
LINE
8
BLACK
6
CONTINUOUS
10
2.20185
20
0.822185
11
2.20328
21
0.825044
0
LINE
8
BLACK
6
CONTINUOUS
10
2.20328
20
0.825044
11
2.20328
21
0.827908
0
LINE
8
BLACK
6
CONTINUOUS
10
2.20328
20
0.827908
11
2.20315
21
0.827842
0
LINE
8
BLACK
6
CONTINUOUS
10
2.20315
20
0.827842
11
2.20257
21
0.827801
0
LINE
8
BLACK
6
CONTINUOUS
10
2.20257
20
0.827801
11
2.20203
21
0.827578
0
LINE
8
BLACK
6
CONTINUOUS
10
2.20203
20
0.827578
11
2.19453
21
0.827578
0
LINE
8
BLACK
6
CONTINUOUS
10
2.19453
20
0.827578
11
2.19399
21
0.827801
0
LINE
8
BLACK
6
CONTINUOUS
10
2.19399
20
0.827801
11
2.19341
21
0.827842
0
LINE
8
BLACK
6
CONTINUOUS
10
2.19341
20
0.827842
11
2.18966
21
0.829717
0
LINE
8
BLACK
6
CONTINUOUS
10
2.18966
20
0.829717
11
2.18939
21
0.830028
0
LINE
8
BLACK
6
CONTINUOUS
10
2.18939
20
0.830028
11
2.18901
21
0.830185
0
LINE
8
BLACK
6
CONTINUOUS
10
2.18901
20
0.830185
11
2.18714
21
0.83206
0
LINE
8
BLACK
6
CONTINUOUS
10
2.18714
20
0.83206
11
2.18698
21
0.83244
0
LINE
8
BLACK
6
CONTINUOUS
10
2.18698
20
0.83244
11
2.18667
21
0.83271
0
LINE
8
BLACK
6
CONTINUOUS
10
2.18667
20
0.83271
11
2.1848
21
0.836459
0
LINE
8
BLACK
6
CONTINUOUS
10
2.1848
20
0.836459
11
2.18475
21
0.83704
0
LINE
8
BLACK
6
CONTINUOUS
10
2.18475
20
0.83704
11
2.18453
21
0.837577
0
LINE
8
BLACK
6
CONTINUOUS
10
2.18453
20
0.837577
11
2.18453
21
0.848826
0
LINE
8
BLACK
6
CONTINUOUS
10
2.18453
20
0.848826
11
2.18475
21
0.849363
0
LINE
8
BLACK
6
CONTINUOUS
10
2.18475
20
0.849363
11
2.1848
21
0.849944
0
LINE
8
BLACK
6
CONTINUOUS
10
2.1848
20
0.849944
11
2.18667
21
0.853693
0
LINE
8
BLACK
6
CONTINUOUS
10
2.18667
20
0.853693
11
2.18698
21
0.853963
0
LINE
8
BLACK
6
CONTINUOUS
10
2.18698
20
0.853963
11
2.18714
21
0.854343
0
LINE
8
BLACK
6
CONTINUOUS
10
2.18714
20
0.854343
11
2.18901
21
0.856218
0
LINE
8
BLACK
6
CONTINUOUS
10
2.18901
20
0.856218
11
2.18939
21
0.856375
0
LINE
8
BLACK
6
CONTINUOUS
10
2.18939
20
0.856375
11
2.18966
21
0.856686
0
LINE
8
BLACK
6
CONTINUOUS
10
2.18966
20
0.856686
11
2.19341
21
0.858561
0
LINE
8
BLACK
6
CONTINUOUS
10
2.19341
20
0.858561
11
2.19399
21
0.858602
0
LINE
8
BLACK
6
CONTINUOUS
10
2.19399
20
0.858602
11
2.19453
21
0.858825
0
LINE
8
BLACK
6
CONTINUOUS
10
2.19453
20
0.858825
11
2.20203
21
0.858825
0
LINE
8
BLACK
6
CONTINUOUS
10
2.20203
20
0.858825
11
2.20257
21
0.858602
0
LINE
8
BLACK
6
CONTINUOUS
10
2.19226
20
0.852396
11
2.19096
21
0.851094
0
LINE
8
BLACK
6
CONTINUOUS
10
2.19096
20
0.851094
11
2.18953
21
0.848236
0
LINE
8
BLACK
6
CONTINUOUS
10
2.18953
20
0.848236
11
2.18953
21
0.838167
0
LINE
8
BLACK
6
CONTINUOUS
10
2.18953
20
0.838167
11
2.19096
21
0.835309
0
LINE
8
BLACK
6
CONTINUOUS
10
2.19096
20
0.835309
11
2.19226
21
0.834008
0
LINE
8
BLACK
6
CONTINUOUS
10
2.19226
20
0.834008
11
2.19512
21
0.832578
0
LINE
8
BLACK
6
CONTINUOUS
10
2.19512
20
0.832578
11
2.20144
21
0.832578
0
LINE
8
BLACK
6
CONTINUOUS
10
2.20144
20
0.832578
11
2.20328
21
0.833498
0
LINE
8
BLACK
6
CONTINUOUS
10
2.20328
20
0.833498
11
2.20328
21
0.852905
0
LINE
8
BLACK
6
CONTINUOUS
10
2.20328
20
0.852905
11
2.20144
21
0.853825
0
LINE
8
BLACK
6
CONTINUOUS
10
2.20144
20
0.853825
11
2.19512
21
0.853825
0
LINE
8
BLACK
6
CONTINUOUS
10
2.19512
20
0.853825
11
2.19226
21
0.852396
0
LINE
8
BLACK
6
CONTINUOUS
10
2.14804
20
0.871791
11
2.14845
21
0.87182
0
LINE
8
BLACK
6
CONTINUOUS
10
2.14845
20
0.87182
11
2.15408
21
0.869945
0
LINE
8
BLACK
6
CONTINUOUS
10
2.15408
20
0.869945
11
2.15552
21
0.868691
0
LINE
8
BLACK
6
CONTINUOUS
10
2.15552
20
0.868691
11
2.15566
21
0.866783
0
LINE
8
BLACK
6
CONTINUOUS
10
2.15566
20
0.866783
11
2.1544
21
0.865337
0
LINE
8
BLACK
6
CONTINUOUS
10
2.1544
20
0.865337
11
2.1525
21
0.865202
0
LINE
8
BLACK
6
CONTINUOUS
10
2.1525
20
0.865202
11
2.14726
21
0.866948
0
LINE
8
BLACK
6
CONTINUOUS
10
2.14726
20
0.866948
11
2.13888
21
0.866948
0
LINE
8
BLACK
6
CONTINUOUS
10
2.13888
20
0.866948
11
2.13602
21
0.865519
0
LINE
8
BLACK
6
CONTINUOUS
10
2.13602
20
0.865519
11
2.13472
21
0.864218
0
LINE
8
BLACK
6
CONTINUOUS
10
2.13472
20
0.864218
11
2.13329
21
0.861359
0
LINE
8
BLACK
6
CONTINUOUS
10
2.13329
20
0.861359
11
2.13329
21
0.85879
0
LINE
8
BLACK
6
CONTINUOUS
10
2.13329
20
0.85879
11
2.13472
21
0.855931
0
LINE
8
BLACK
6
CONTINUOUS
10
2.13472
20
0.855931
11
2.13602
21
0.85463
0
LINE
8
BLACK
6
CONTINUOUS
10
2.13602
20
0.85463
11
2.13916
21
0.853059
0
LINE
8
BLACK
6
CONTINUOUS
10
2.13916
20
0.853059
11
2.14639
21
0.851251
0
LINE
8
BLACK
6
CONTINUOUS
10
2.14639
20
0.851251
11
2.14662
21
0.851082
0
LINE
8
BLACK
6
CONTINUOUS
10
2.14662
20
0.851082
11
2.1469
21
0.851062
0
LINE
8
BLACK
6
CONTINUOUS
10
2.1469
20
0.851062
11
2.15065
21
0.849187
0
LINE
8
BLACK
6
CONTINUOUS
10
2.15065
20
0.849187
11
2.15092
21
0.848876
0
LINE
8
BLACK
6
CONTINUOUS
10
2.15092
20
0.848876
11
2.1513
21
0.848719
0
LINE
8
BLACK
6
CONTINUOUS
10
2.1513
20
0.848719
11
2.15318
21
0.846844
0
LINE
8
BLACK
6
CONTINUOUS
10
2.15318
20
0.846844
11
2.15334
21
0.846464
0
LINE
8
BLACK
6
CONTINUOUS
10
2.15334
20
0.846464
11
2.15365
21
0.846194
0
LINE
8
BLACK
6
CONTINUOUS
10
2.15365
20
0.846194
11
2.15552
21
0.842445
0
LINE
8
BLACK
6
CONTINUOUS
10
2.15552
20
0.842445
11
2.15556
21
0.841864
0
LINE
8
BLACK
6
CONTINUOUS
10
2.15556
20
0.841864
11
2.15579
21
0.841327
0
LINE
8
BLACK
6
CONTINUOUS
10
2.15579
20
0.841327
11
2.15579
21
0.837577
0
LINE
8
BLACK
6
CONTINUOUS
10
2.15579
20
0.837577
11
2.15556
21
0.83704
0
LINE
8
BLACK
6
CONTINUOUS
10
2.15556
20
0.83704
11
2.15552
21
0.836459
0
LINE
8
BLACK
6
CONTINUOUS
10
2.15552
20
0.836459
11
2.15365
21
0.83271
0
LINE
8
BLACK
6
CONTINUOUS
10
2.15365
20
0.83271
11
2.15334
21
0.83244
0
LINE
8
BLACK
6
CONTINUOUS
10
2.15334
20
0.83244
11
2.15318
21
0.83206
0
LINE
8
BLACK
6
CONTINUOUS
10
2.15318
20
0.83206
11
2.1513
21
0.830185
0
LINE
8
BLACK
6
CONTINUOUS
10
2.1513
20
0.830185
11
2.15092
21
0.830028
0
LINE
8
BLACK
6
CONTINUOUS
10
2.15092
20
0.830028
11
2.15065
21
0.829717
0
LINE
8
BLACK
6
CONTINUOUS
10
2.15065
20
0.829717
11
2.1469
21
0.827842
0
LINE
8
BLACK
6
CONTINUOUS
10
2.1469
20
0.827842
11
2.14632
21
0.827801
0
LINE
8
BLACK
6
CONTINUOUS
10
2.14632
20
0.827801
11
2.14579
21
0.827578
0
LINE
8
BLACK
6
CONTINUOUS
10
2.14579
20
0.827578
11
2.13641
21
0.827578
0
LINE
8
BLACK
6
CONTINUOUS
10
2.13641
20
0.827578
11
2.13603
21
0.827736
0
LINE
8
BLACK
6
CONTINUOUS
10
2.13603
20
0.827736
11
2.13562
21
0.827706
0
LINE
8
BLACK
6
CONTINUOUS
10
2.13562
20
0.827706
11
2.13
21
0.829581
0
LINE
8
BLACK
6
CONTINUOUS
10
2.13
20
0.829581
11
2.12855
21
0.830835
0
LINE
8
BLACK
6
CONTINUOUS
10
2.12855
20
0.830835
11
2.12842
21
0.832743
0
LINE
8
BLACK
6
CONTINUOUS
10
2.12842
20
0.832743
11
2.12967
21
0.834189
0
LINE
8
BLACK
6
CONTINUOUS
10
2.12967
20
0.834189
11
2.13158
21
0.834325
0
LINE
8
BLACK
6
CONTINUOUS
10
2.13158
20
0.834325
11
2.13682
21
0.832578
0
LINE
8
BLACK
6
CONTINUOUS
10
2.13682
20
0.832578
11
2.1452
21
0.832578
0
LINE
8
BLACK
6
CONTINUOUS
10
2.1452
20
0.832578
11
2.14806
21
0.834008
0
LINE
8
BLACK
6
CONTINUOUS
10
2.14806
20
0.834008
11
2.14936
21
0.835309
0
LINE
8
BLACK
6
CONTINUOUS
10
2.14936
20
0.835309
11
2.15079
21
0.838167
0
LINE
8
BLACK
6
CONTINUOUS
10
2.15079
20
0.838167
11
2.15079
21
0.840737
0
LINE
8
BLACK
6
CONTINUOUS
10
2.15079
20
0.840737
11
2.14936
21
0.843595
0
LINE
8
BLACK
6
CONTINUOUS
10
2.14936
20
0.843595
11
2.14806
21
0.844896
0
LINE
8
BLACK
6
CONTINUOUS
10
2.14806
20
0.844896
11
2.14491
21
0.846467
0
LINE
8
BLACK
6
CONTINUOUS
10
2.14491
20
0.846467
11
2.13768
21
0.848275
0
LINE
8
BLACK
6
CONTINUOUS
10
2.13768
20
0.848275
11
2.13745
21
0.848444
0
LINE
8
BLACK
6
CONTINUOUS
10
2.13745
20
0.848444
11
2.13717
21
0.848465
0
LINE
8
BLACK
6
CONTINUOUS
10
2.13717
20
0.848465
11
2.13342
21
0.850339
0
LINE
8
BLACK
6
CONTINUOUS
10
2.13342
20
0.850339
11
2.13315
21
0.85065
0
LINE
8
BLACK
6
CONTINUOUS
10
2.13315
20
0.85065
11
2.13277
21
0.850808
0
LINE
8
BLACK
6
CONTINUOUS
10
2.13277
20
0.850808
11
2.1309
21
0.852682
0
LINE
8
BLACK
6
CONTINUOUS
10
2.1309
20
0.852682
11
2.13074
21
0.853063
0
LINE
8
BLACK
6
CONTINUOUS
10
2.13074
20
0.853063
11
2.13043
21
0.853332
0
LINE
8
BLACK
6
CONTINUOUS
10
2.13043
20
0.853332
11
2.12855
21
0.857082
0
LINE
8
BLACK
6
CONTINUOUS
10
2.12855
20
0.857082
11
2.12851
21
0.857662
0
LINE
8
BLACK
6
CONTINUOUS
10
2.12851
20
0.857662
11
2.12829
21
0.8582
0
LINE
8
BLACK
6
CONTINUOUS
10
2.12829
20
0.8582
11
2.12829
21
0.861949
0
LINE
8
BLACK
6
CONTINUOUS
10
2.12829
20
0.861949
11
2.12851
21
0.862487
0
LINE
8
BLACK
6
CONTINUOUS
10
2.12851
20
0.862487
11
2.12855
21
0.863067
0
LINE
8
BLACK
6
CONTINUOUS
10
2.12855
20
0.863067
11
2.13043
21
0.866817
0
LINE
8
BLACK
6
CONTINUOUS
10
2.13043
20
0.866817
11
2.13074
21
0.867086
0
LINE
8
BLACK
6
CONTINUOUS
10
2.13074
20
0.867086
11
2.1309
21
0.867466
0
LINE
8
BLACK
6
CONTINUOUS
10
2.1309
20
0.867466
11
2.13277
21
0.869341
0
LINE
8
BLACK
6
CONTINUOUS
10
2.13277
20
0.869341
11
2.13315
21
0.869499
0
LINE
8
BLACK
6
CONTINUOUS
10
2.13315
20
0.869499
11
2.13342
21
0.86981
0
LINE
8
BLACK
6
CONTINUOUS
10
2.13342
20
0.86981
11
2.13717
21
0.871684
0
LINE
8
BLACK
6
CONTINUOUS
10
2.13717
20
0.871684
11
2.13775
21
0.871726
0
LINE
8
BLACK
6
CONTINUOUS
10
2.13775
20
0.871726
11
2.13829
21
0.871948
0
LINE
8
BLACK
6
CONTINUOUS
10
2.13829
20
0.871948
11
2.14766
21
0.871948
0
LINE
8
BLACK
6
CONTINUOUS
10
2.14766
20
0.871948
11
2.14804
21
0.871791
0
LINE
8
BLACK
6
CONTINUOUS
10
2.17193
20
0.858093
11
2.17266
21
0.856325
0
LINE
8
BLACK
6
CONTINUOUS
10
2.17266
20
0.856325
11
2.17266
21
0.830078
0
LINE
8
BLACK
6
CONTINUOUS
10
2.17266
20
0.830078
11
2.17193
21
0.82831
0
LINE
8
BLACK
6
CONTINUOUS
10
2.17193
20
0.82831
11
2.17016
21
0.827578
0
LINE
8
BLACK
6
CONTINUOUS
10
2.17016
20
0.827578
11
2.16839
21
0.82831
0
LINE
8
BLACK
6
CONTINUOUS
10
2.16839
20
0.82831
11
2.16766
21
0.830078
0
LINE
8
BLACK
6
CONTINUOUS
10
2.16766
20
0.830078
11
2.16766
21
0.856325
0
LINE
8
BLACK
6
CONTINUOUS
10
2.16766
20
0.856325
11
2.16839
21
0.858093
0
LINE
8
BLACK
6
CONTINUOUS
10
2.16839
20
0.858093
11
2.17016
21
0.858825
0
LINE
8
BLACK
6
CONTINUOUS
10
2.17016
20
0.858825
11
2.17193
21
0.858093
0
LINE
8
BLACK
6
CONTINUOUS
10
2.23631
20
0.858602
11
2.23689
21
0.858561
0
LINE
8
BLACK
6
CONTINUOUS
10
2.23689
20
0.858561
11
2.24064
21
0.856686
0
LINE
8
BLACK
6
CONTINUOUS
10
2.24064
20
0.856686
11
2.24116
21
0.856087
0
LINE
8
BLACK
6
CONTINUOUS
10
2.24116
20
0.856087
11
2.24176
21
0.855568
0
LINE
8
BLACK
6
CONTINUOUS
10
2.24176
20
0.855568
11
2.24364
21
0.851819
0
LINE
8
BLACK
6
CONTINUOUS
10
2.24364
20
0.851819
11
2.24368
21
0.851238
0
LINE
8
BLACK
6
CONTINUOUS
10
2.24368
20
0.851238
11
2.2439
21
0.850701
0
LINE
8
BLACK
6
CONTINUOUS
10
2.2439
20
0.850701
11
2.2439
21
0.830078
0
LINE
8
BLACK
6
CONTINUOUS
10
2.2439
20
0.830078
11
2.24317
21
0.82831
0
LINE
8
BLACK
6
CONTINUOUS
10
2.24317
20
0.82831
11
2.2414
21
0.827578
0
LINE
8
BLACK
6
CONTINUOUS
10
2.2414
20
0.827578
11
2.23963
21
0.82831
0
LINE
8
BLACK
6
CONTINUOUS
10
2.23963
20
0.82831
11
2.2389
21
0.830078
0
LINE
8
BLACK
6
CONTINUOUS
10
2.2389
20
0.830078
11
2.2389
21
0.85011
0
LINE
8
BLACK
6
CONTINUOUS
10
2.2389
20
0.85011
11
2.23766
21
0.852587
0
LINE
8
BLACK
6
CONTINUOUS
10
2.23766
20
0.852587
11
2.23519
21
0.853825
0
LINE
8
BLACK
6
CONTINUOUS
10
2.23519
20
0.853825
11
2.23074
21
0.853825
0
LINE
8
BLACK
6
CONTINUOUS
10
2.23074
20
0.853825
11
2.22788
21
0.852396
0
LINE
8
BLACK
6
CONTINUOUS
10
2.22788
20
0.852396
11
2.22703
21
0.85154
0
LINE
8
BLACK
6
CONTINUOUS
10
2.22703
20
0.85154
11
2.22703
21
0.830078
0
LINE
8
BLACK
6
CONTINUOUS
10
2.22703
20
0.830078
11
2.22629
21
0.82831
0
LINE
8
BLACK
6
CONTINUOUS
10
2.22629
20
0.82831
11
2.22453
21
0.827578
0
LINE
8
BLACK
6
CONTINUOUS
10
2.22453
20
0.827578
11
2.22276
21
0.82831
0
LINE
8
BLACK
6
CONTINUOUS
10
2.22276
20
0.82831
11
2.22203
21
0.830078
0
LINE
8
BLACK
6
CONTINUOUS
10
2.22203
20
0.830078
11
2.22203
21
0.856325
0
LINE
8
BLACK
6
CONTINUOUS
10
2.22203
20
0.856325
11
2.22276
21
0.858093
0
LINE
8
BLACK
6
CONTINUOUS
10
2.22276
20
0.858093
11
2.22453
21
0.858825
0
LINE
8
BLACK
6
CONTINUOUS
10
2.22453
20
0.858825
11
2.22629
21
0.858093
0
LINE
8
BLACK
6
CONTINUOUS
10
2.22629
20
0.858093
11
2.2266
21
0.857346
0
LINE
8
BLACK
6
CONTINUOUS
10
2.2266
20
0.857346
11
2.22903
21
0.858561
0
LINE
8
BLACK
6
CONTINUOUS
10
2.22903
20
0.858561
11
2.22961
21
0.858602
0
LINE
8
BLACK
6
CONTINUOUS
10
2.22961
20
0.858602
11
2.23015
21
0.858825
0
LINE
8
BLACK
6
CONTINUOUS
10
2.23015
20
0.858825
11
2.23578
21
0.858825
0
LINE
8
BLACK
6
CONTINUOUS
10
2.23578
20
0.858825
11
2.23631
21
0.858602
0
LINE
8
BLACK
6
CONTINUOUS
10
2.27193
20
0.858602
11
2.27251
21
0.858561
0
LINE
8
BLACK
6
CONTINUOUS
10
2.27251
20
0.858561
11
2.27626
21
0.856686
0
LINE
8
BLACK
6
CONTINUOUS
10
2.27626
20
0.856686
11
2.27678
21
0.856087
0
LINE
8
BLACK
6
CONTINUOUS
10
2.27678
20
0.856087
11
2.27738
21
0.855568
0
LINE
8
BLACK
6
CONTINUOUS
10
2.27738
20
0.855568
11
2.27926
21
0.851819
0
LINE
8
BLACK
6
CONTINUOUS
10
2.27926
20
0.851819
11
2.2793
21
0.851238
0
LINE
8
BLACK
6
CONTINUOUS
10
2.2793
20
0.851238
11
2.27952
21
0.850701
0
LINE
8
BLACK
6
CONTINUOUS
10
2.27952
20
0.850701
11
2.27952
21
0.830078
0
LINE
8
BLACK
6
CONTINUOUS
10
2.27952
20
0.830078
11
2.27879
21
0.82831
0
LINE
8
BLACK
6
CONTINUOUS
10
2.27879
20
0.82831
11
2.27702
21
0.827578
0
LINE
8
BLACK
6
CONTINUOUS
10
2.27702
20
0.827578
11
2.27529
21
0.828294
0
LINE
8
BLACK
6
CONTINUOUS
10
2.27529
20
0.828294
11
2.27439
21
0.827842
0
LINE
8
BLACK
6
CONTINUOUS
10
2.27439
20
0.827842
11
2.27381
21
0.827801
0
LINE
8
BLACK
6
CONTINUOUS
10
2.27381
20
0.827801
11
2.27327
21
0.827578
0
LINE
8
BLACK
6
CONTINUOUS
10
2.27327
20
0.827578
11
2.2639
21
0.827578
0
LINE
8
BLACK
6
CONTINUOUS
10
2.2639
20
0.827578
11
2.26336
21
0.827801
0
LINE
8
BLACK
6
CONTINUOUS
10
2.26336
20
0.827801
11
2.26278
21
0.827842
0
LINE
8
BLACK
6
CONTINUOUS
10
2.26278
20
0.827842
11
2.25903
21
0.829717
0
LINE
8
BLACK
6
CONTINUOUS
10
2.25903
20
0.829717
11
2.25851
21
0.830316
0
LINE
8
BLACK
6
CONTINUOUS
10
2.25851
20
0.830316
11
2.25791
21
0.830835
0
LINE
8
BLACK
6
CONTINUOUS
10
2.25791
20
0.830835
11
2.25604
21
0.834584
0
LINE
8
BLACK
6
CONTINUOUS
10
2.25604
20
0.834584
11
2.256
21
0.835165
0
LINE
8
BLACK
6
CONTINUOUS
10
2.256
20
0.835165
11
2.25577
21
0.835702
0
LINE
8
BLACK
6
CONTINUOUS
10
2.25577
20
0.835702
11
2.25577
21
0.839452
0
LINE
8
BLACK
6
CONTINUOUS
10
2.25577
20
0.839452
11
2.256
21
0.83999
0
LINE
8
BLACK
6
CONTINUOUS
10
2.256
20
0.83999
11
2.25604
21
0.84057
0
LINE
8
BLACK
6
CONTINUOUS
10
2.25604
20
0.84057
11
2.25791
21
0.84432
0
LINE
8
BLACK
6
CONTINUOUS
10
2.25791
20
0.84432
11
2.25851
21
0.844839
0
LINE
8
BLACK
6
CONTINUOUS
10
2.25851
20
0.844839
11
2.25903
21
0.845438
0
LINE
8
BLACK
6
CONTINUOUS
10
2.25903
20
0.845438
11
2.26278
21
0.847312
0
LINE
8
BLACK
6
CONTINUOUS
10
2.26278
20
0.847312
11
2.26336
21
0.847354
0
LINE
8
BLACK
6
CONTINUOUS
10
2.26336
20
0.847354
11
2.2639
21
0.847576
0
LINE
8
BLACK
6
CONTINUOUS
10
2.2639
20
0.847576
11
2.27268
21
0.847576
0
LINE
8
BLACK
6
CONTINUOUS
10
2.27268
20
0.847576
11
2.27452
21
0.848496
0
LINE
8
BLACK
6
CONTINUOUS
10
2.27452
20
0.848496
11
2.27452
21
0.85011
0
LINE
8
BLACK
6
CONTINUOUS
10
2.27452
20
0.85011
11
2.27328
21
0.852587
0
LINE
8
BLACK
6
CONTINUOUS
10
2.27328
20
0.852587
11
2.27081
21
0.853825
0
LINE
8
BLACK
6
CONTINUOUS
10
2.27081
20
0.853825
11
2.26449
21
0.853825
0
LINE
8
BLACK
6
CONTINUOUS
10
2.26449
20
0.853825
11
2.26127
21
0.852214
0
LINE
8
BLACK
6
CONTINUOUS
10
2.26127
20
0.852214
11
2.25936
21
0.852078
0
LINE
8
BLACK
6
CONTINUOUS
10
2.25936
20
0.852078
11
2.25791
21
0.853332
0
LINE
8
BLACK
6
CONTINUOUS
10
2.25791
20
0.853332
11
2.25778
21
0.855241
0
LINE
8
BLACK
6
CONTINUOUS
10
2.25778
20
0.855241
11
2.25903
21
0.856686
0
LINE
8
BLACK
6
CONTINUOUS
10
2.25903
20
0.856686
11
2.26278
21
0.858561
0
LINE
8
BLACK
6
CONTINUOUS
10
2.26278
20
0.858561
11
2.26336
21
0.858602
0
LINE
8
BLACK
6
CONTINUOUS
10
2.26336
20
0.858602
11
2.2639
21
0.858825
0
LINE
8
BLACK
6
CONTINUOUS
10
2.2639
20
0.858825
11
2.2714
21
0.858825
0
LINE
8
BLACK
6
CONTINUOUS
10
2.2714
20
0.858825
11
2.27193
21
0.858602
0
LINE
8
BLACK
6
CONTINUOUS
10
2.27439
20
0.84284
11
2.27381
21
0.842799
0
LINE
8
BLACK
6
CONTINUOUS
10
2.27381
20
0.842799
11
2.27327
21
0.842576
0
LINE
8
BLACK
6
CONTINUOUS
10
2.27327
20
0.842576
11
2.26449
21
0.842576
0
LINE
8
BLACK
6
CONTINUOUS
10
2.26449
20
0.842576
11
2.26201
21
0.841338
0
LINE
8
BLACK
6
CONTINUOUS
10
2.26201
20
0.841338
11
2.26077
21
0.838862
0
LINE
8
BLACK
6
CONTINUOUS
10
2.26077
20
0.838862
11
2.26077
21
0.836293
0
LINE
8
BLACK
6
CONTINUOUS
10
2.26077
20
0.836293
11
2.26201
21
0.833816
0
LINE
8
BLACK
6
CONTINUOUS
10
2.26201
20
0.833816
11
2.26449
21
0.832578
0
LINE
8
BLACK
6
CONTINUOUS
10
2.26449
20
0.832578
11
2.27268
21
0.832578
0
LINE
8
BLACK
6
CONTINUOUS
10
2.27268
20
0.832578
11
2.27452
21
0.833498
0
LINE
8
BLACK
6
CONTINUOUS
10
2.27452
20
0.833498
11
2.27452
21
0.842906
0
LINE
8
BLACK
6
CONTINUOUS
10
2.27452
20
0.842906
11
2.27439
21
0.84284
0
LINE
8
BLACK
6
CONTINUOUS
10
2.33316
20
0.861842
11
2.33389
21
0.860074
0
LINE
8
BLACK
6
CONTINUOUS
10
2.33389
20
0.860074
11
2.33389
21
0.847576
0
LINE
8
BLACK
6
CONTINUOUS
10
2.33389
20
0.847576
11
2.34639
21
0.847576
0
LINE
8
BLACK
6
CONTINUOUS
10
2.34639
20
0.847576
11
2.34815
21
0.846844
0
LINE
8
BLACK
6
CONTINUOUS
10
2.34815
20
0.846844
11
2.34889
21
0.845076
0
LINE
8
BLACK
6
CONTINUOUS
10
2.34889
20
0.845076
11
2.34815
21
0.843309
0
LINE
8
BLACK
6
CONTINUOUS
10
2.34815
20
0.843309
11
2.34639
21
0.842576
0
LINE
8
BLACK
6
CONTINUOUS
10
2.34639
20
0.842576
11
2.33389
21
0.842576
0
LINE
8
BLACK
6
CONTINUOUS
10
2.33389
20
0.842576
11
2.33389
21
0.830078
0
LINE
8
BLACK
6
CONTINUOUS
10
2.33389
20
0.830078
11
2.33316
21
0.82831
0
LINE
8
BLACK
6
CONTINUOUS
10
2.33316
20
0.82831
11
2.33139
21
0.827578
0
LINE
8
BLACK
6
CONTINUOUS
10
2.33139
20
0.827578
11
2.32962
21
0.82831
0
LINE
8
BLACK
6
CONTINUOUS
10
2.32962
20
0.82831
11
2.32889
21
0.830078
0
LINE
8
BLACK
6
CONTINUOUS
10
2.32889
20
0.830078
11
2.32889
21
0.842576
0
LINE
8
BLACK
6
CONTINUOUS
10
2.32889
20
0.842576
11
2.31639
21
0.842576
0
LINE
8
BLACK
6
CONTINUOUS
10
2.31639
20
0.842576
11
2.31462
21
0.843309
0
LINE
8
BLACK
6
CONTINUOUS
10
2.31462
20
0.843309
11
2.31389
21
0.845076
0
LINE
8
BLACK
6
CONTINUOUS
10
2.31389
20
0.845076
11
2.31462
21
0.846844
0
LINE
8
BLACK
6
CONTINUOUS
10
2.31462
20
0.846844
11
2.31639
21
0.847576
0
LINE
8
BLACK
6
CONTINUOUS
10
2.31639
20
0.847576
11
2.32889
21
0.847576
0
LINE
8
BLACK
6
CONTINUOUS
10
2.32889
20
0.847576
11
2.32889
21
0.860074
0
LINE
8
BLACK
6
CONTINUOUS
10
2.32889
20
0.860074
11
2.32962
21
0.861842
0
LINE
8
BLACK
6
CONTINUOUS
10
2.32962
20
0.861842
11
2.33139
21
0.862574
0
LINE
8
BLACK
6
CONTINUOUS
10
2.33139
20
0.862574
11
2.33316
21
0.861842
0
LINE
8
BLACK
6
CONTINUOUS
10
2.3788
20
0.871726
11
2.37938
21
0.871684
0
LINE
8
BLACK
6
CONTINUOUS
10
2.37938
20
0.871684
11
2.38313
21
0.86981
0
LINE
8
BLACK
6
CONTINUOUS
10
2.38313
20
0.86981
11
2.38339
21
0.869499
0
LINE
8
BLACK
6
CONTINUOUS
10
2.38339
20
0.869499
11
2.38377
21
0.869341
0
LINE
8
BLACK
6
CONTINUOUS
10
2.38377
20
0.869341
11
2.38565
21
0.867466
0
LINE
8
BLACK
6
CONTINUOUS
10
2.38565
20
0.867466
11
2.38581
21
0.867086
0
LINE
8
BLACK
6
CONTINUOUS
10
2.38581
20
0.867086
11
2.38612
21
0.866817
0
LINE
8
BLACK
6
CONTINUOUS
10
2.38612
20
0.866817
11
2.38799
21
0.863067
0
LINE
8
BLACK
6
CONTINUOUS
10
2.38799
20
0.863067
11
2.38803
21
0.862487
0
LINE
8
BLACK
6
CONTINUOUS
10
2.38803
20
0.862487
11
2.38826
21
0.861949
0
LINE
8
BLACK
6
CONTINUOUS
10
2.38826
20
0.861949
11
2.38826
21
0.8582
0
LINE
8
BLACK
6
CONTINUOUS
10
2.38826
20
0.8582
11
2.38803
21
0.857662
0
LINE
8
BLACK
6
CONTINUOUS
10
2.38803
20
0.857662
11
2.38799
21
0.857082
0
LINE
8
BLACK
6
CONTINUOUS
10
2.38799
20
0.857082
11
2.38612
21
0.853332
0
LINE
8
BLACK
6
CONTINUOUS
10
2.38612
20
0.853332
11
2.38581
21
0.853063
0
LINE
8
BLACK
6
CONTINUOUS
10
2.38581
20
0.853063
11
2.38565
21
0.852682
0
LINE
8
BLACK
6
CONTINUOUS
10
2.38565
20
0.852682
11
2.38429
21
0.851324
0
LINE
8
BLACK
6
CONTINUOUS
10
2.38429
20
0.851324
11
2.38467
21
0.851198
0
LINE
8
BLACK
6
CONTINUOUS
10
2.38467
20
0.851198
11
2.38511
21
0.850816
0
LINE
8
BLACK
6
CONTINUOUS
10
2.38511
20
0.850816
11
2.38565
21
0.850594
0
LINE
8
BLACK
6
CONTINUOUS
10
2.38565
20
0.850594
11
2.38752
21
0.848719
0
LINE
8
BLACK
6
CONTINUOUS
10
2.38752
20
0.848719
11
2.38768
21
0.848339
0
LINE
8
BLACK
6
CONTINUOUS
10
2.38768
20
0.848339
11
2.38799
21
0.848069
0
LINE
8
BLACK
6
CONTINUOUS
10
2.38799
20
0.848069
11
2.38987
21
0.84432
0
LINE
8
BLACK
6
CONTINUOUS
10
2.38987
20
0.84432
11
2.38991
21
0.843739
0
LINE
8
BLACK
6
CONTINUOUS
10
2.38991
20
0.843739
11
2.39013
21
0.843202
0
LINE
8
BLACK
6
CONTINUOUS
10
2.39013
20
0.843202
11
2.39013
21
0.837577
0
LINE
8
BLACK
6
CONTINUOUS
10
2.39013
20
0.837577
11
2.38991
21
0.83704
0
LINE
8
BLACK
6
CONTINUOUS
10
2.38991
20
0.83704
11
2.38987
21
0.836459
0
LINE
8
BLACK
6
CONTINUOUS
10
2.38987
20
0.836459
11
2.38799
21
0.83271
0
LINE
8
BLACK
6
CONTINUOUS
10
2.38799
20
0.83271
11
2.38768
21
0.83244
0
LINE
8
BLACK
6
CONTINUOUS
10
2.38768
20
0.83244
11
2.38752
21
0.83206
0
LINE
8
BLACK
6
CONTINUOUS
10
2.38752
20
0.83206
11
2.38565
21
0.830185
0
LINE
8
BLACK
6
CONTINUOUS
10
2.38565
20
0.830185
11
2.38527
21
0.830028
0
LINE
8
BLACK
6
CONTINUOUS
10
2.38527
20
0.830028
11
2.385
21
0.829717
0
LINE
8
BLACK
6
CONTINUOUS
10
2.385
20
0.829717
11
2.38125
21
0.827842
0
LINE
8
BLACK
6
CONTINUOUS
10
2.38125
20
0.827842
11
2.38067
21
0.827801
0
LINE
8
BLACK
6
CONTINUOUS
10
2.38067
20
0.827801
11
2.38013
21
0.827578
0
LINE
8
BLACK
6
CONTINUOUS
10
2.38013
20
0.827578
11
2.36513
21
0.827578
0
LINE
8
BLACK
6
CONTINUOUS
10
2.36513
20
0.827578
11
2.36337
21
0.82831
0
LINE
8
BLACK
6
CONTINUOUS
10
2.36337
20
0.82831
11
2.36263
21
0.830078
0
LINE
8
BLACK
6
CONTINUOUS
10
2.36263
20
0.830078
11
2.36263
21
0.830078
0
LINE
8
BLACK
6
CONTINUOUS
10
2.36263
20
0.830078
11
2.36263
21
0.869448
0
LINE
8
BLACK
6
CONTINUOUS
10
2.36263
20
0.869448
11
2.36337
21
0.871216
0
LINE
8
BLACK
6
CONTINUOUS
10
2.36337
20
0.871216
11
2.36513
21
0.871948
0
LINE
8
BLACK
6
CONTINUOUS
10
2.36513
20
0.871948
11
2.37826
21
0.871948
0
LINE
8
BLACK
6
CONTINUOUS
10
2.37826
20
0.871948
11
2.3788
21
0.871726
0
LINE
8
BLACK
6
CONTINUOUS
10
2.36763
20
0.832578
11
2.37954
21
0.832578
0
LINE
8
BLACK
6
CONTINUOUS
10
2.37954
20
0.832578
11
2.3824
21
0.834008
0
LINE
8
BLACK
6
CONTINUOUS
10
2.3824
20
0.834008
11
2.3837
21
0.835309
0
LINE
8
BLACK
6
CONTINUOUS
10
2.3837
20
0.835309
11
2.38513
21
0.838167
0
LINE
8
BLACK
6
CONTINUOUS
10
2.38513
20
0.838167
11
2.38513
21
0.842611
0
LINE
8
BLACK
6
CONTINUOUS
10
2.38513
20
0.842611
11
2.3837
21
0.84547
0
LINE
8
BLACK
6
CONTINUOUS
10
2.3837
20
0.84547
11
2.38253
21
0.846641
0
LINE
8
BLACK
6
CONTINUOUS
10
2.38253
20
0.846641
11
2.37785
21
0.848201
0
LINE
8
BLACK
6
CONTINUOUS
10
2.37785
20
0.848201
11
2.36763
21
0.848201
0
LINE
8
BLACK
6
CONTINUOUS
10
2.36763
20
0.848201
11
2.36763
21
0.832578
0
LINE
8
BLACK
6
CONTINUOUS
10
2.36763
20
0.853201
11
2.37767
21
0.853201
0
LINE
8
BLACK
6
CONTINUOUS
10
2.37767
20
0.853201
11
2.38053
21
0.85463
0
LINE
8
BLACK
6
CONTINUOUS
10
2.38053
20
0.85463
11
2.38183
21
0.855931
0
LINE
8
BLACK
6
CONTINUOUS
10
2.38183
20
0.855931
11
2.38326
21
0.85879
0
LINE
8
BLACK
6
CONTINUOUS
10
2.38326
20
0.85879
11
2.38326
21
0.861359
0
LINE
8
BLACK
6
CONTINUOUS
10
2.38326
20
0.861359
11
2.38183
21
0.864218
0
LINE
8
BLACK
6
CONTINUOUS
10
2.38183
20
0.864218
11
2.38053
21
0.865519
0
LINE
8
BLACK
6
CONTINUOUS
10
2.38053
20
0.865519
11
2.37767
21
0.866948
0
LINE
8
BLACK
6
CONTINUOUS
10
2.37767
20
0.866948
11
2.36763
21
0.866948
0
LINE
8
BLACK
6
CONTINUOUS
10
2.36763
20
0.866948
11
2.36763
21
0.853201
0
LINE
8
BLACK
6
CONTINUOUS
10
2.40627
20
0.858093
11
2.407
21
0.856325
0
LINE
8
BLACK
6
CONTINUOUS
10
2.407
20
0.856325
11
2.407
21
0.830078
0
LINE
8
BLACK
6
CONTINUOUS
10
2.407
20
0.830078
11
2.40627
21
0.82831
0
LINE
8
BLACK
6
CONTINUOUS
10
2.40627
20
0.82831
11
2.4045
21
0.827578
0
LINE
8
BLACK
6
CONTINUOUS
10
2.4045
20
0.827578
11
2.40274
21
0.82831
0
LINE
8
BLACK
6
CONTINUOUS
10
2.40274
20
0.82831
11
2.402
21
0.830078
0
LINE
8
BLACK
6
CONTINUOUS
10
2.402
20
0.830078
11
2.402
21
0.856325
0
LINE
8
BLACK
6
CONTINUOUS
10
2.402
20
0.856325
11
2.40274
21
0.858093
0
LINE
8
BLACK
6
CONTINUOUS
10
2.40274
20
0.858093
11
2.4045
21
0.858825
0
LINE
8
BLACK
6
CONTINUOUS
10
2.4045
20
0.858825
11
2.40627
21
0.858093
0
LINE
8
BLACK
6
CONTINUOUS
10
2.43504
20
0.858602
11
2.43562
21
0.858561
0
LINE
8
BLACK
6
CONTINUOUS
10
2.43562
20
0.858561
11
2.43937
21
0.856686
0
LINE
8
BLACK
6
CONTINUOUS
10
2.43937
20
0.856686
11
2.43989
21
0.856087
0
LINE
8
BLACK
6
CONTINUOUS
10
2.43989
20
0.856087
11
2.44049
21
0.855568
0
LINE
8
BLACK
6
CONTINUOUS
10
2.44049
20
0.855568
11
2.44236
21
0.851819
0
LINE
8
BLACK
6
CONTINUOUS
10
2.44236
20
0.851819
11
2.4424
21
0.851238
0
LINE
8
BLACK
6
CONTINUOUS
10
2.4424
20
0.851238
11
2.44262
21
0.850701
0
LINE
8
BLACK
6
CONTINUOUS
10
2.44262
20
0.850701
11
2.44262
21
0.830078
0
LINE
8
BLACK
6
CONTINUOUS
10
2.44262
20
0.830078
11
2.44189
21
0.82831
0
LINE
8
BLACK
6
CONTINUOUS
10
2.44189
20
0.82831
11
2.44012
21
0.827578
0
LINE
8
BLACK
6
CONTINUOUS
10
2.44012
20
0.827578
11
2.4384
21
0.828294
0
LINE
8
BLACK
6
CONTINUOUS
10
2.4384
20
0.828294
11
2.43749
21
0.827842
0
LINE
8
BLACK
6
CONTINUOUS
10
2.43749
20
0.827842
11
2.43691
21
0.827801
0
LINE
8
BLACK
6
CONTINUOUS
10
2.43691
20
0.827801
11
2.43638
21
0.827578
0
LINE
8
BLACK
6
CONTINUOUS
10
2.43638
20
0.827578
11
2.427
21
0.827578
0
LINE
8
BLACK
6
CONTINUOUS
10
2.427
20
0.827578
11
2.42646
21
0.827801
0
LINE
8
BLACK
6
CONTINUOUS
10
2.42646
20
0.827801
11
2.42588
21
0.827842
0
LINE
8
BLACK
6
CONTINUOUS
10
2.42588
20
0.827842
11
2.42213
21
0.829717
0
LINE
8
BLACK
6
CONTINUOUS
10
2.42213
20
0.829717
11
2.42161
21
0.830316
0
LINE
8
BLACK
6
CONTINUOUS
10
2.42161
20
0.830316
11
2.42102
21
0.830835
0
LINE
8
BLACK
6
CONTINUOUS
10
2.42102
20
0.830835
11
2.41914
21
0.834584
0
LINE
8
BLACK
6
CONTINUOUS
10
2.41914
20
0.834584
11
2.4191
21
0.835165
0
LINE
8
BLACK
6
CONTINUOUS
10
2.4191
20
0.835165
11
2.41888
21
0.835702
0
LINE
8
BLACK
6
CONTINUOUS
10
2.41888
20
0.835702
11
2.41888
21
0.839452
0
LINE
8
BLACK
6
CONTINUOUS
10
2.41888
20
0.839452
11
2.4191
21
0.83999
0
LINE
8
BLACK
6
CONTINUOUS
10
2.4191
20
0.83999
11
2.41914
21
0.84057
0
LINE
8
BLACK
6
CONTINUOUS
10
2.41914
20
0.84057
11
2.42102
21
0.84432
0
LINE
8
BLACK
6
CONTINUOUS
10
2.42102
20
0.84432
11
2.42161
21
0.844839
0
LINE
8
BLACK
6
CONTINUOUS
10
2.42161
20
0.844839
11
2.42213
21
0.845438
0
LINE
8
BLACK
6
CONTINUOUS
10
2.42213
20
0.845438
11
2.42588
21
0.847312
0
LINE
8
BLACK
6
CONTINUOUS
10
2.42588
20
0.847312
11
2.42646
21
0.847354
0
LINE
8
BLACK
6
CONTINUOUS
10
2.42646
20
0.847354
11
2.427
21
0.847576
0
LINE
8
BLACK
6
CONTINUOUS
10
2.427
20
0.847576
11
2.43579
21
0.847576
0
LINE
8
BLACK
6
CONTINUOUS
10
2.43579
20
0.847576
11
2.43762
21
0.848496
0
LINE
8
BLACK
6
CONTINUOUS
10
2.43762
20
0.848496
11
2.43762
21
0.85011
0
LINE
8
BLACK
6
CONTINUOUS
10
2.43762
20
0.85011
11
2.43639
21
0.852587
0
LINE
8
BLACK
6
CONTINUOUS
10
2.43639
20
0.852587
11
2.43391
21
0.853825
0
LINE
8
BLACK
6
CONTINUOUS
10
2.43391
20
0.853825
11
2.42759
21
0.853825
0
LINE
8
BLACK
6
CONTINUOUS
10
2.42759
20
0.853825
11
2.42437
21
0.852214
0
LINE
8
BLACK
6
CONTINUOUS
10
2.42437
20
0.852214
11
2.42246
21
0.852078
0
LINE
8
BLACK
6
CONTINUOUS
10
2.42246
20
0.852078
11
2.42102
21
0.853332
0
LINE
8
BLACK
6
CONTINUOUS
10
2.42102
20
0.853332
11
2.42088
21
0.855241
0
LINE
8
BLACK
6
CONTINUOUS
10
2.42088
20
0.855241
11
2.42213
21
0.856686
0
LINE
8
BLACK
6
CONTINUOUS
10
2.42213
20
0.856686
11
2.42588
21
0.858561
0
LINE
8
BLACK
6
CONTINUOUS
10
2.42588
20
0.858561
11
2.42646
21
0.858602
0
LINE
8
BLACK
6
CONTINUOUS
10
2.42646
20
0.858602
11
2.427
21
0.858825
0
LINE
8
BLACK
6
CONTINUOUS
10
2.427
20
0.858825
11
2.4345
21
0.858825
0
LINE
8
BLACK
6
CONTINUOUS
10
2.4345
20
0.858825
11
2.43504
21
0.858602
0
LINE
8
BLACK
6
CONTINUOUS
10
2.43749
20
0.84284
11
2.43691
21
0.842799
0
LINE
8
BLACK
6
CONTINUOUS
10
2.43691
20
0.842799
11
2.43638
21
0.842576
0
LINE
8
BLACK
6
CONTINUOUS
10
2.43638
20
0.842576
11
2.42759
21
0.842576
0
LINE
8
BLACK
6
CONTINUOUS
10
2.42759
20
0.842576
11
2.42512
21
0.841338
0
LINE
8
BLACK
6
CONTINUOUS
10
2.42512
20
0.841338
11
2.42388
21
0.838862
0
LINE
8
BLACK
6
CONTINUOUS
10
2.42388
20
0.838862
11
2.42388
21
0.836293
0
LINE
8
BLACK
6
CONTINUOUS
10
2.42388
20
0.836293
11
2.42512
21
0.833816
0
LINE
8
BLACK
6
CONTINUOUS
10
2.42512
20
0.833816
11
2.42759
21
0.832578
0
LINE
8
BLACK
6
CONTINUOUS
10
2.42759
20
0.832578
11
2.43579
21
0.832578
0
LINE
8
BLACK
6
CONTINUOUS
10
2.43579
20
0.832578
11
2.43762
21
0.833498
0
LINE
8
BLACK
6
CONTINUOUS
10
2.43762
20
0.833498
11
2.43762
21
0.842906
0
LINE
8
BLACK
6
CONTINUOUS
10
2.43762
20
0.842906
11
2.43749
21
0.84284
0
LINE
8
BLACK
6
CONTINUOUS
10
2.46878
20
0.858602
11
2.46936
21
0.858561
0
LINE
8
BLACK
6
CONTINUOUS
10
2.46936
20
0.858561
11
2.47311
21
0.856686
0
LINE
8
BLACK
6
CONTINUOUS
10
2.47311
20
0.856686
11
2.47437
21
0.855241
0
LINE
8
BLACK
6
CONTINUOUS
10
2.47437
20
0.855241
11
2.47423
21
0.853332
0
LINE
8
BLACK
6
CONTINUOUS
10
2.47423
20
0.853332
11
2.47279
21
0.852078
0
LINE
8
BLACK
6
CONTINUOUS
10
2.47279
20
0.852078
11
2.47088
21
0.852214
0
LINE
8
BLACK
6
CONTINUOUS
10
2.47088
20
0.852214
11
2.46766
21
0.853825
0
LINE
8
BLACK
6
CONTINUOUS
10
2.46766
20
0.853825
11
2.46321
21
0.853825
0
LINE
8
BLACK
6
CONTINUOUS
10
2.46321
20
0.853825
11
2.46074
21
0.852587
0
LINE
8
BLACK
6
CONTINUOUS
10
2.46074
20
0.852587
11
2.4595
21
0.85011
0
LINE
8
BLACK
6
CONTINUOUS
10
2.4595
20
0.85011
11
2.4595
21
0.849416
0
LINE
8
BLACK
6
CONTINUOUS
10
2.4595
20
0.849416
11
2.46074
21
0.84694
0
LINE
8
BLACK
6
CONTINUOUS
10
2.46074
20
0.84694
11
2.46321
21
0.845702
0
LINE
8
BLACK
6
CONTINUOUS
10
2.46321
20
0.845702
11
2.46825
21
0.845702
0
LINE
8
BLACK
6
CONTINUOUS
10
2.46825
20
0.845702
11
2.46878
21
0.845479
0
LINE
8
BLACK
6
CONTINUOUS
10
2.46878
20
0.845479
11
2.46936
21
0.845438
0
LINE
8
BLACK
6
CONTINUOUS
10
2.46936
20
0.845438
11
2.47311
21
0.843563
0
LINE
8
BLACK
6
CONTINUOUS
10
2.47311
20
0.843563
11
2.47363
21
0.842964
0
LINE
8
BLACK
6
CONTINUOUS
10
2.47363
20
0.842964
11
2.47423
21
0.842445
0
LINE
8
BLACK
6
CONTINUOUS
10
2.47423
20
0.842445
11
2.47611
21
0.838695
0
LINE
8
BLACK
6
CONTINUOUS
10
2.47611
20
0.838695
11
2.47615
21
0.838115
0
LINE
8
BLACK
6
CONTINUOUS
10
2.47615
20
0.838115
11
2.47637
21
0.837577
0
LINE
8
BLACK
6
CONTINUOUS
10
2.47637
20
0.837577
11
2.47637
21
0.835702
0
LINE
8
BLACK
6
CONTINUOUS
10
2.47637
20
0.835702
11
2.47615
21
0.835165
0
LINE
8
BLACK
6
CONTINUOUS
10
2.47615
20
0.835165
11
2.47611
21
0.834584
0
LINE
8
BLACK
6
CONTINUOUS
10
2.47611
20
0.834584
11
2.47423
21
0.830835
0
LINE
8
BLACK
6
CONTINUOUS
10
2.47423
20
0.830835
11
2.47363
21
0.830316
0
LINE
8
BLACK
6
CONTINUOUS
10
2.47363
20
0.830316
11
2.47311
21
0.829717
0
LINE
8
BLACK
6
CONTINUOUS
10
2.47311
20
0.829717
11
2.46936
21
0.827842
0
LINE
8
BLACK
6
CONTINUOUS
10
2.46936
20
0.827842
11
2.46878
21
0.827801
0
LINE
8
BLACK
6
CONTINUOUS
10
2.46878
20
0.827801
11
2.46825
21
0.827578
0
LINE
8
BLACK
6
CONTINUOUS
10
2.46825
20
0.827578
11
2.46075
21
0.827578
0
LINE
8
BLACK
6
CONTINUOUS
10
2.46075
20
0.827578
11
2.46021
21
0.827801
0
LINE
8
BLACK
6
CONTINUOUS
10
2.46021
20
0.827801
11
2.45963
21
0.827842
0
LINE
8
BLACK
6
CONTINUOUS
10
2.45963
20
0.827842
11
2.45588
21
0.829717
0
LINE
8
BLACK
6
CONTINUOUS
10
2.45588
20
0.829717
11
2.45463
21
0.831162
0
LINE
8
BLACK
6
CONTINUOUS
10
2.45463
20
0.831162
11
2.45476
21
0.833071
0
LINE
8
BLACK
6
CONTINUOUS
10
2.45476
20
0.833071
11
2.45621
21
0.834325
0
LINE
8
BLACK
6
CONTINUOUS
10
2.45621
20
0.834325
11
2.45812
21
0.834189
0
LINE
8
BLACK
6
CONTINUOUS
10
2.45812
20
0.834189
11
2.46134
21
0.832578
0
LINE
8
BLACK
6
CONTINUOUS
10
2.46134
20
0.832578
11
2.46766
21
0.832578
0
LINE
8
BLACK
6
CONTINUOUS
10
2.46766
20
0.832578
11
2.47013
21
0.833816
0
LINE
8
BLACK
6
CONTINUOUS
10
2.47013
20
0.833816
11
2.47137
21
0.836293
0
LINE
8
BLACK
6
CONTINUOUS
10
2.47137
20
0.836293
11
2.47137
21
0.836987
0
LINE
8
BLACK
6
CONTINUOUS
10
2.47137
20
0.836987
11
2.47013
21
0.839463
0
LINE
8
BLACK
6
CONTINUOUS
10
2.47013
20
0.839463
11
2.46766
21
0.840702
0
LINE
8
BLACK
6
CONTINUOUS
10
2.46766
20
0.840702
11
2.46262
21
0.840702
0
LINE
8
BLACK
6
CONTINUOUS
10
2.46262
20
0.840702
11
2.46208
21
0.840924
0
LINE
8
BLACK
6
CONTINUOUS
10
2.46208
20
0.840924
11
2.4615
21
0.840965
0
LINE
8
BLACK
6
CONTINUOUS
10
2.4615
20
0.840965
11
2.45775
21
0.84284
0
LINE
8
BLACK
6
CONTINUOUS
10
2.45775
20
0.84284
11
2.45724
21
0.843439
0
LINE
8
BLACK
6
CONTINUOUS
10
2.45724
20
0.843439
11
2.45664
21
0.843958
0
LINE
8
BLACK
6
CONTINUOUS
10
2.45664
20
0.843958
11
2.45476
21
0.847708
0
LINE
8
BLACK
6
CONTINUOUS
10
2.45476
20
0.847708
11
2.45472
21
0.848288
0
LINE
8
BLACK
6
CONTINUOUS
10
2.45472
20
0.848288
11
2.4545
21
0.848826
0
LINE
8
BLACK
6
CONTINUOUS
10
2.4545
20
0.848826
11
2.4545
21
0.850701
0
LINE
8
BLACK
6
CONTINUOUS
10
2.4545
20
0.850701
11
2.45472
21
0.851238
0
LINE
8
BLACK
6
CONTINUOUS
10
2.45472
20
0.851238
11
2.45476
21
0.851819
0
LINE
8
BLACK
6
CONTINUOUS
10
2.45476
20
0.851819
11
2.45664
21
0.855568
0
LINE
8
BLACK
6
CONTINUOUS
10
2.45664
20
0.855568
11
2.45724
21
0.856087
0
LINE
8
BLACK
6
CONTINUOUS
10
2.45724
20
0.856087
11
2.45775
21
0.856686
0
LINE
8
BLACK
6
CONTINUOUS
10
2.45775
20
0.856686
11
2.4615
21
0.858561
0
LINE
8
BLACK
6
CONTINUOUS
10
2.4615
20
0.858561
11
2.46208
21
0.858602
0
LINE
8
BLACK
6
CONTINUOUS
10
2.46208
20
0.858602
11
2.46262
21
0.858825
0
LINE
8
BLACK
6
CONTINUOUS
10
2.46262
20
0.858825
11
2.46825
21
0.858825
0
LINE
8
BLACK
6
CONTINUOUS
10
2.46825
20
0.858825
11
2.46878
21
0.858602
0
LINE
8
BLACK
6
CONTINUOUS
10
2.29754
20
0.871216
11
2.29827
21
0.869448
0
LINE
8
BLACK
6
CONTINUOUS
10
2.29827
20
0.869448
11
2.29827
21
0.836293
0
LINE
8
BLACK
6
CONTINUOUS
10
2.29827
20
0.836293
11
2.29951
21
0.833816
0
LINE
8
BLACK
6
CONTINUOUS
10
2.29951
20
0.833816
11
2.30251
21
0.832314
0
LINE
8
BLACK
6
CONTINUOUS
10
2.30251
20
0.832314
11
2.30376
21
0.830869
0
LINE
8
BLACK
6
CONTINUOUS
10
2.30376
20
0.830869
11
2.30363
21
0.82896
0
LINE
8
BLACK
6
CONTINUOUS
10
2.30363
20
0.82896
11
2.30218
21
0.827706
0
LINE
8
BLACK
6
CONTINUOUS
10
2.30218
20
0.827706
11
2.30027
21
0.827842
0
LINE
8
BLACK
6
CONTINUOUS
10
2.30027
20
0.827842
11
2.29652
21
0.829717
0
LINE
8
BLACK
6
CONTINUOUS
10
2.29652
20
0.829717
11
2.29601
21
0.830316
0
LINE
8
BLACK
6
CONTINUOUS
10
2.29601
20
0.830316
11
2.29541
21
0.830835
0
LINE
8
BLACK
6
CONTINUOUS
10
2.29541
20
0.830835
11
2.29353
21
0.834584
0
LINE
8
BLACK
6
CONTINUOUS
10
2.29353
20
0.834584
11
2.29349
21
0.835165
0
LINE
8
BLACK
6
CONTINUOUS
10
2.29349
20
0.835165
11
2.29327
21
0.835702
0
LINE
8
BLACK
6
CONTINUOUS
10
2.29327
20
0.835702
11
2.29327
21
0.869448
0
LINE
8
BLACK
6
CONTINUOUS
10
2.29327
20
0.869448
11
2.294
21
0.871216
0
LINE
8
BLACK
6
CONTINUOUS
10
2.294
20
0.871216
11
2.29577
21
0.871948
0
LINE
8
BLACK
6
CONTINUOUS
10
2.29577
20
0.871948
11
2.29754
21
0.871216
0
LINE
8
BLACK
6
CONTINUOUS
10
2.17193
20
0.871216
11
2.1738
21
0.869341
0
LINE
8
BLACK
6
CONTINUOUS
10
2.1738
20
0.869341
11
2.17421
21
0.868364
0
LINE
8
BLACK
6
CONTINUOUS
10
2.17421
20
0.868364
11
2.17453
21
0.867573
0
LINE
8
BLACK
6
CONTINUOUS
10
2.17453
20
0.867573
11
2.1738
21
0.865806
0
LINE
8
BLACK
6
CONTINUOUS
10
2.1738
20
0.865806
11
2.17193
21
0.863931
0
LINE
8
BLACK
6
CONTINUOUS
10
2.17193
20
0.863931
11
2.17193
21
0.863931
0
LINE
8
BLACK
6
CONTINUOUS
10
2.17193
20
0.863931
11
2.17016
21
0.863199
0
LINE
8
BLACK
6
CONTINUOUS
10
2.17016
20
0.863199
11
2.16891
21
0.863717
0
LINE
8
BLACK
6
CONTINUOUS
10
2.16891
20
0.863717
11
2.16839
21
0.863931
0
LINE
8
BLACK
6
CONTINUOUS
10
2.16839
20
0.863931
11
2.16652
21
0.865806
0
LINE
8
BLACK
6
CONTINUOUS
10
2.16652
20
0.865806
11
2.16578
21
0.867573
0
LINE
8
BLACK
6
CONTINUOUS
10
2.16578
20
0.867573
11
2.16652
21
0.869341
0
LINE
8
BLACK
6
CONTINUOUS
10
2.16652
20
0.869341
11
2.16652
21
0.869341
0
LINE
8
BLACK
6
CONTINUOUS
10
2.16652
20
0.869341
11
2.16839
21
0.871216
0
LINE
8
BLACK
6
CONTINUOUS
10
2.16839
20
0.871216
11
2.16891
21
0.87143
0
LINE
8
BLACK
6
CONTINUOUS
10
2.16891
20
0.87143
11
2.17016
21
0.871948
0
LINE
8
BLACK
6
CONTINUOUS
10
2.17016
20
0.871948
11
2.17193
21
0.871216
0
LINE
8
BLACK
6
CONTINUOUS
10
2.40627
20
0.871216
11
2.40815
21
0.869341
0
LINE
8
BLACK
6
CONTINUOUS
10
2.40815
20
0.869341
11
2.40855
21
0.868364
0
LINE
8
BLACK
6
CONTINUOUS
10
2.40855
20
0.868364
11
2.40888
21
0.867573
0
LINE
8
BLACK
6
CONTINUOUS
10
2.40888
20
0.867573
11
2.40815
21
0.865806
0
LINE
8
BLACK
6
CONTINUOUS
10
2.40815
20
0.865806
11
2.40627
21
0.863931
0
LINE
8
BLACK
6
CONTINUOUS
10
2.40627
20
0.863931
11
2.4045
21
0.863199
0
LINE
8
BLACK
6
CONTINUOUS
10
2.4045
20
0.863199
11
2.40325
21
0.863717
0
LINE
8
BLACK
6
CONTINUOUS
10
2.40325
20
0.863717
11
2.40274
21
0.863931
0
LINE
8
BLACK
6
CONTINUOUS
10
2.40274
20
0.863931
11
2.40086
21
0.865806
0
LINE
8
BLACK
6
CONTINUOUS
10
2.40086
20
0.865806
11
2.40013
21
0.867573
0
LINE
8
BLACK
6
CONTINUOUS
10
2.40013
20
0.867573
11
2.40086
21
0.869341
0
LINE
8
BLACK
6
CONTINUOUS
10
2.40086
20
0.869341
11
2.40274
21
0.871216
0
LINE
8
BLACK
6
CONTINUOUS
10
2.40274
20
0.871216
11
2.40325
21
0.87143
0
LINE
8
BLACK
6
CONTINUOUS
10
2.40325
20
0.87143
11
2.4045
21
0.871948
0
LINE
8
BLACK
6
CONTINUOUS
10
2.4045
20
0.871948
11
2.40627
21
0.871216
0
LINE
8
BLACK
6
CONTINUOUS
10
0.34
20
0.925
11
0.28
21
0.925
0
LINE
8
BLACK
6
CONTINUOUS
10
0.28
20
0.925
11
0.28
21
0.985
0
LINE
8
BLACK
6
CONTINUOUS
10
0.28
20
0.985
11
0.34
21
0.985
0
LINE
8
BLACK
6
CONTINUOUS
10
0.34
20
0.985
11
0.34
21
0.925
0
LINE
8
BLACK
6
CONTINUOUS
10
0.44
20
0.925
11
0.38
21
0.925
0
LINE
8
BLACK
6
CONTINUOUS
10
0.38
20
0.925
11
0.38
21
0.985
0
LINE
8
BLACK
6
CONTINUOUS
10
0.38
20
0.985
11
0.44
21
0.985
0
LINE
8
BLACK
6
CONTINUOUS
10
0.44
20
0.985
11
0.44
21
0.925
0
LINE
8
BLACK
6
CONTINUOUS
10
0.34
20
1.025
11
0.28
21
1.025
0
LINE
8
BLACK
6
CONTINUOUS
10
0.28
20
1.025
11
0.28
21
1.085
0
LINE
8
BLACK
6
CONTINUOUS
10
0.28
20
1.085
11
0.34
21
1.085
0
LINE
8
BLACK
6
CONTINUOUS
10
0.34
20
1.085
11
0.34
21
1.025
0
LINE
8
BLACK
6
CONTINUOUS
10
0.44
20
1.025
11
0.38
21
1.025
0
LINE
8
BLACK
6
CONTINUOUS
10
0.38
20
1.025
11
0.38
21
1.085
0
LINE
8
BLACK
6
CONTINUOUS
10
0.38
20
1.085
11
0.44
21
1.085
0
LINE
8
BLACK
6
CONTINUOUS
10
0.44
20
1.085
11
0.44
21
1.025
0
LINE
8
BLACK
6
CONTINUOUS
10
0.34
20
1.125
11
0.28
21
1.125
0
LINE
8
BLACK
6
CONTINUOUS
10
0.28
20
1.125
11
0.28
21
1.185
0
LINE
8
BLACK
6
CONTINUOUS
10
0.28
20
1.185
11
0.34
21
1.185
0
LINE
8
BLACK
6
CONTINUOUS
10
0.34
20
1.185
11
0.34
21
1.125
0
LINE
8
BLACK
6
CONTINUOUS
10
0.44
20
1.125
11
0.38
21
1.125
0
LINE
8
BLACK
6
CONTINUOUS
10
0.38
20
1.125
11
0.38
21
1.185
0
LINE
8
BLACK
6
CONTINUOUS
10
0.38
20
1.185
11
0.44
21
1.185
0
LINE
8
BLACK
6
CONTINUOUS
10
0.44
20
1.185
11
0.44
21
1.125
0
LINE
8
BLACK
6
CONTINUOUS
10
0.34
20
1.225
11
0.28
21
1.225
0
LINE
8
BLACK
6
CONTINUOUS
10
0.28
20
1.225
11
0.28
21
1.285
0
LINE
8
BLACK
6
CONTINUOUS
10
0.28
20
1.285
11
0.34
21
1.285
0
LINE
8
BLACK
6
CONTINUOUS
10
0.34
20
1.285
11
0.34
21
1.225
0
LINE
8
BLACK
6
CONTINUOUS
10
0.44
20
1.225
11
0.38
21
1.225
0
LINE
8
BLACK
6
CONTINUOUS
10
0.38
20
1.225
11
0.38
21
1.285
0
LINE
8
BLACK
6
CONTINUOUS
10
0.38
20
1.285
11
0.44
21
1.285
0
LINE
8
BLACK
6
CONTINUOUS
10
0.44
20
1.285
11
0.44
21
1.225
0
LINE
8
BLACK
6
CONTINUOUS
10
0.34
20
1.325
11
0.28
21
1.325
0
LINE
8
BLACK
6
CONTINUOUS
10
0.28
20
1.325
11
0.28
21
1.385
0
LINE
8
BLACK
6
CONTINUOUS
10
0.28
20
1.385
11
0.34
21
1.385
0
LINE
8
BLACK
6
CONTINUOUS
10
0.34
20
1.385
11
0.34
21
1.325
0
LINE
8
BLACK
6
CONTINUOUS
10
0.44
20
1.325
11
0.38
21
1.325
0
LINE
8
BLACK
6
CONTINUOUS
10
0.38
20
1.325
11
0.38
21
1.385
0
LINE
8
BLACK
6
CONTINUOUS
10
0.38
20
1.385
11
0.44
21
1.385
0
LINE
8
BLACK
6
CONTINUOUS
10
0.44
20
1.385
11
0.44
21
1.325
0
LINE
8
BLACK
6
CONTINUOUS
10
0.460384
20
1.40789
11
0.460513
21
1.40791
0
LINE
8
BLACK
6
CONTINUOUS
10
0.460513
20
1.40791
11
0.460626
21
1.40784
0
LINE
8
BLACK
6
CONTINUOUS
10
0.460626
20
1.40784
11
0.46101
21
1.40777
0
LINE
8
BLACK
6
CONTINUOUS
10
0.46101
20
1.40777
11
0.461598
21
1.40728
0
LINE
8
BLACK
6
CONTINUOUS
10
0.461598
20
1.40728
11
0.462262
21
1.4069
0
LINE
8
BLACK
6
CONTINUOUS
10
0.462262
20
1.4069
11
0.462353
21
1.40665
0
LINE
8
BLACK
6
CONTINUOUS
10
0.462353
20
1.40665
11
0.462557
21
1.40648
0
LINE
8
BLACK
6
CONTINUOUS
10
0.462557
20
1.40648
11
0.46269
21
1.40572
0
LINE
8
BLACK
6
CONTINUOUS
10
0.46269
20
1.40572
11
0.462953
21
1.405
0
LINE
8
BLACK
6
CONTINUOUS
10
0.462953
20
1.405
11
0.462953
21
0.905
0
LINE
8
BLACK
6
CONTINUOUS
10
0.462953
20
0.905
11
0.462885
21
0.904616
0
LINE
8
BLACK
6
CONTINUOUS
10
0.462885
20
0.904616
11
0.462908
21
0.904487
0
LINE
8
BLACK
6
CONTINUOUS
10
0.462908
20
0.904487
11
0.462842
21
0.904374
0
LINE
8
BLACK
6
CONTINUOUS
10
0.462842
20
0.904374
11
0.462775
21
0.90399
0
LINE
8
BLACK
6
CONTINUOUS
10
0.462775
20
0.90399
11
0.462282
21
0.903402
0
LINE
8
BLACK
6
CONTINUOUS
10
0.462282
20
0.903402
11
0.461898
21
0.902738
0
LINE
8
BLACK
6
CONTINUOUS
10
0.461898
20
0.902738
11
0.461648
21
0.902647
0
LINE
8
BLACK
6
CONTINUOUS
10
0.461648
20
0.902647
11
0.461476
21
0.902443
0
LINE
8
BLACK
6
CONTINUOUS
10
0.461476
20
0.902443
11
0.460721
21
0.90231
0
LINE
8
BLACK
6
CONTINUOUS
10
0.460721
20
0.90231
11
0.46
21
0.902047
0
LINE
8
BLACK
6
CONTINUOUS
10
0.46
20
0.902047
11
0.26
21
0.902047
0
LINE
8
BLACK
6
CONTINUOUS
10
0.26
20
0.902047
11
0.259616
21
0.902115
0
LINE
8
BLACK
6
CONTINUOUS
10
0.259616
20
0.902115
11
0.259487
21
0.902092
0
LINE
8
BLACK
6
CONTINUOUS
10
0.259487
20
0.902092
11
0.259374
21
0.902158
0
LINE
8
BLACK
6
CONTINUOUS
10
0.259374
20
0.902158
11
0.25899
21
0.902225
0
LINE
8
BLACK
6
CONTINUOUS
10
0.25899
20
0.902225
11
0.258402
21
0.902718
0
LINE
8
BLACK
6
CONTINUOUS
10
0.258402
20
0.902718
11
0.257738
21
0.903102
0
LINE
8
BLACK
6
CONTINUOUS
10
0.257738
20
0.903102
11
0.257647
21
0.903352
0
LINE
8
BLACK
6
CONTINUOUS
10
0.257647
20
0.903352
11
0.257443
21
0.903524
0
LINE
8
BLACK
6
CONTINUOUS
10
0.257443
20
0.903524
11
0.25731
21
0.904279
0
LINE
8
BLACK
6
CONTINUOUS
10
0.25731
20
0.904279
11
0.257047
21
0.905
0
LINE
8
BLACK
6
CONTINUOUS
10
0.257047
20
0.905
11
0.257047
21
1.405
0
LINE
8
BLACK
6
CONTINUOUS
10
0.257047
20
1.405
11
0.257115
21
1.40538
0
LINE
8
BLACK
6
CONTINUOUS
10
0.257115
20
1.40538
11
0.257092
21
1.40551
0
LINE
8
BLACK
6
CONTINUOUS
10
0.257092
20
1.40551
11
0.257158
21
1.40563
0
LINE
8
BLACK
6
CONTINUOUS
10
0.257158
20
1.40563
11
0.257225
21
1.40601
0
LINE
8
BLACK
6
CONTINUOUS
10
0.257225
20
1.40601
11
0.257718
21
1.4066
0
LINE
8
BLACK
6
CONTINUOUS
10
0.257718
20
1.4066
11
0.258102
21
1.40726
0
LINE
8
BLACK
6
CONTINUOUS
10
0.258102
20
1.40726
11
0.258352
21
1.40735
0
LINE
8
BLACK
6
CONTINUOUS
10
0.258352
20
1.40735
11
0.258524
21
1.40756
0
LINE
8
BLACK
6
CONTINUOUS
10
0.258524
20
1.40756
11
0.259279
21
1.40769
0
LINE
8
BLACK
6
CONTINUOUS
10
0.259279
20
1.40769
11
0.26
21
1.40795
0
LINE
8
BLACK
6
CONTINUOUS
10
0.26
20
1.40795
11
0.46
21
1.40795
0
LINE
8
BLACK
6
CONTINUOUS
10
0.46
20
1.40795
11
0.460384
21
1.40789
0
LINE
8
BLACK
6
CONTINUOUS
10
0.262953
20
1.40205
11
0.262953
21
0.907953
0
LINE
8
BLACK
6
CONTINUOUS
10
0.262953
20
0.907953
11
0.457047
21
0.907953
0
LINE
8
BLACK
6
CONTINUOUS
10
0.457047
20
0.907953
11
0.457047
21
1.40205
0
LINE
8
BLACK
6
CONTINUOUS
10
0.457047
20
1.40205
11
0.262953
21
1.40205
0
LINE
8
BLACK
6
CONTINUOUS
10
0.500074
20
0.981726
11
0.500654
21
0.981684
0
LINE
8
BLACK
6
CONTINUOUS
10
0.500654
20
0.981684
11
0.504404
21
0.97981
0
LINE
8
BLACK
6
CONTINUOUS
10
0.504404
20
0.97981
11
0.505657
21
0.978364
0
LINE
8
BLACK
6
CONTINUOUS
10
0.505657
20
0.978364
11
0.505522
21
0.976455
0
LINE
8
BLACK
6
CONTINUOUS
10
0.505522
20
0.976455
11
0.504076
21
0.975202
0
LINE
8
BLACK
6
CONTINUOUS
10
0.504076
20
0.975202
11
0.502168
21
0.975337
0
LINE
8
BLACK
6
CONTINUOUS
10
0.502168
20
0.975337
11
0.498946
21
0.976948
0
LINE
8
BLACK
6
CONTINUOUS
10
0.498946
20
0.976948
11
0.494318
21
0.976948
0
LINE
8
BLACK
6
CONTINUOUS
10
0.494318
20
0.976948
11
0.489638
21
0.975388
0
LINE
8
BLACK
6
CONTINUOUS
10
0.489638
20
0.975388
11
0.486593
21
0.972343
0
LINE
8
BLACK
6
CONTINUOUS
10
0.486593
20
0.972343
11
0.485022
21
0.969202
0
LINE
8
BLACK
6
CONTINUOUS
10
0.485022
20
0.969202
11
0.483288
21
0.962268
0
LINE
8
BLACK
6
CONTINUOUS
10
0.483288
20
0.962268
11
0.483288
21
0.957259
0
LINE
8
BLACK
6
CONTINUOUS
10
0.483288
20
0.957259
11
0.485022
21
0.950325
0
LINE
8
BLACK
6
CONTINUOUS
10
0.485022
20
0.950325
11
0.486593
21
0.947183
0
LINE
8
BLACK
6
CONTINUOUS
10
0.486593
20
0.947183
11
0.489638
21
0.944138
0
LINE
8
BLACK
6
CONTINUOUS
10
0.489638
20
0.944138
11
0.494318
21
0.942578
0
LINE
8
BLACK
6
CONTINUOUS
10
0.494318
20
0.942578
11
0.497256
21
0.942578
0
LINE
8
BLACK
6
CONTINUOUS
10
0.497256
20
0.942578
11
0.501935
21
0.944138
0
LINE
8
BLACK
6
CONTINUOUS
10
0.501935
20
0.944138
11
0.50266
21
0.944863
0
LINE
8
BLACK
6
CONTINUOUS
10
0.50266
20
0.944863
11
0.50266
21
0.954451
0
LINE
8
BLACK
6
CONTINUOUS
10
0.50266
20
0.954451
11
0.497661
21
0.954451
0
LINE
8
BLACK
6
CONTINUOUS
10
0.497661
20
0.954451
11
0.495894
21
0.955183
0
LINE
8
BLACK
6
CONTINUOUS
10
0.495894
20
0.955183
11
0.495161
21
0.956951
0
LINE
8
BLACK
6
CONTINUOUS
10
0.495161
20
0.956951
11
0.495894
21
0.958719
0
LINE
8
BLACK
6
CONTINUOUS
10
0.495894
20
0.958719
11
0.497661
21
0.959451
0
LINE
8
BLACK
6
CONTINUOUS
10
0.497661
20
0.959451
11
0.50516
21
0.959451
0
LINE
8
BLACK
6
CONTINUOUS
10
0.50516
20
0.959451
11
0.506928
21
0.958719
0
LINE
8
BLACK
6
CONTINUOUS
10
0.506928
20
0.958719
11
0.50766
21
0.956951
0
LINE
8
BLACK
6
CONTINUOUS
10
0.50766
20
0.956951
11
0.50766
21
0.943828
0
LINE
8
BLACK
6
CONTINUOUS
10
0.50766
20
0.943828
11
0.507511
21
0.943466
0
LINE
8
BLACK
6
CONTINUOUS
10
0.507511
20
0.943466
11
0.506928
21
0.94206
0
LINE
8
BLACK
6
CONTINUOUS
10
0.506928
20
0.94206
11
0.505053
21
0.940185
0
LINE
8
BLACK
6
CONTINUOUS
10
0.505053
20
0.940185
11
0.504516
21
0.939962
0
LINE
8
BLACK
6
CONTINUOUS
10
0.504516
20
0.939962
11
0.504076
21
0.939581
0
LINE
8
BLACK
6
CONTINUOUS
10
0.504076
20
0.939581
11
0.498452
21
0.937706
0
LINE
8
BLACK
6
CONTINUOUS
10
0.498452
20
0.937706
11
0.498042
21
0.937736
0
LINE
8
BLACK
6
CONTINUOUS
10
0.498042
20
0.937736
11
0.497661
21
0.937578
0
LINE
8
BLACK
6
CONTINUOUS
10
0.497661
20
0.937578
11
0.493912
21
0.937578
0
LINE
8
BLACK
6
CONTINUOUS
10
0.493912
20
0.937578
11
0.493532
21
0.937736
0
LINE
8
BLACK
6
CONTINUOUS
10
0.493532
20
0.937736
11
0.493121
21
0.937706
0
LINE
8
BLACK
6
CONTINUOUS
10
0.493121
20
0.937706
11
0.487497
21
0.939581
0
LINE
8
BLACK
6
CONTINUOUS
10
0.487497
20
0.939581
11
0.487057
21
0.939962
0
LINE
8
BLACK
6
CONTINUOUS
10
0.487057
20
0.939962
11
0.48652
21
0.940185
0
LINE
8
BLACK
6
CONTINUOUS
10
0.48652
20
0.940185
11
0.48277
21
0.943935
0
LINE
8
BLACK
6
CONTINUOUS
10
0.48277
20
0.943935
11
0.482613
21
0.944315
0
LINE
8
BLACK
6
CONTINUOUS
10
0.482613
20
0.944315
11
0.482302
21
0.944584
0
LINE
8
BLACK
6
CONTINUOUS
10
0.482302
20
0.944584
11
0.480427
21
0.948334
0
LINE
8
BLACK
6
CONTINUOUS
10
0.480427
20
0.948334
11
0.480407
21
0.948617
0
LINE
8
BLACK
6
CONTINUOUS
10
0.480407
20
0.948617
11
0.480238
21
0.948846
0
LINE
8
BLACK
6
CONTINUOUS
10
0.480238
20
0.948846
11
0.478363
21
0.956345
0
LINE
8
BLACK
6
CONTINUOUS
10
0.478363
20
0.956345
11
0.47841
21
0.956658
0
LINE
8
BLACK
6
CONTINUOUS
10
0.47841
20
0.956658
11
0.478289
21
0.956951
0
LINE
8
BLACK
6
CONTINUOUS
10
0.478289
20
0.956951
11
0.478289
21
0.962575
0
LINE
8
BLACK
6
CONTINUOUS
10
0.478289
20
0.962575
11
0.47841
21
0.962868
0
LINE
8
BLACK
6
CONTINUOUS
10
0.47841
20
0.962868
11
0.478363
21
0.963182
0
LINE
8
BLACK
6
CONTINUOUS
10
0.478363
20
0.963182
11
0.480238
21
0.970681
0
LINE
8
BLACK
6
CONTINUOUS
10
0.480238
20
0.970681
11
0.480407
21
0.970909
0
LINE
8
BLACK
6
CONTINUOUS
10
0.480407
20
0.970909
11
0.480427
21
0.971192
0
LINE
8
BLACK
6
CONTINUOUS
10
0.480427
20
0.971192
11
0.482302
21
0.974942
0
LINE
8
BLACK
6
CONTINUOUS
10
0.482302
20
0.974942
11
0.482613
21
0.975212
0
LINE
8
BLACK
6
CONTINUOUS
10
0.482613
20
0.975212
11
0.48277
21
0.975592
0
LINE
8
BLACK
6
CONTINUOUS
10
0.48277
20
0.975592
11
0.48652
21
0.979341
0
LINE
8
BLACK
6
CONTINUOUS
10
0.48652
20
0.979341
11
0.487057
21
0.979564
0
LINE
8
BLACK
6
CONTINUOUS
10
0.487057
20
0.979564
11
0.487497
21
0.979945
0
LINE
8
BLACK
6
CONTINUOUS
10
0.487497
20
0.979945
11
0.493121
21
0.98182
0
LINE
8
BLACK
6
CONTINUOUS
10
0.493121
20
0.98182
11
0.493532
21
0.981791
0
LINE
8
BLACK
6
CONTINUOUS
10
0.493532
20
0.981791
11
0.493912
21
0.981948
0
LINE
8
BLACK
6
CONTINUOUS
10
0.493912
20
0.981948
11
0.499536
21
0.981948
0
LINE
8
BLACK
6
CONTINUOUS
10
0.499536
20
0.981948
11
0.500074
21
0.981726
0
LINE
8
BLACK
6
CONTINUOUS
10
0.546298
20
0.981216
11
0.547031
21
0.979448
0
LINE
8
BLACK
6
CONTINUOUS
10
0.547031
20
0.979448
11
0.547031
21
0.940078
0
LINE
8
BLACK
6
CONTINUOUS
10
0.547031
20
0.940078
11
0.546899
21
0.939761
0
LINE
8
BLACK
6
CONTINUOUS
10
0.546899
20
0.939761
11
0.546942
21
0.93942
0
LINE
8
BLACK
6
CONTINUOUS
10
0.546942
20
0.93942
11
0.546546
21
0.938909
0
LINE
8
BLACK
6
CONTINUOUS
10
0.546546
20
0.938909
11
0.546298
21
0.93831
0
LINE
8
BLACK
6
CONTINUOUS
10
0.546298
20
0.93831
11
0.545981
21
0.938179
0
LINE
8
BLACK
6
CONTINUOUS
10
0.545981
20
0.938179
11
0.545771
21
0.937908
0
LINE
8
BLACK
6
CONTINUOUS
10
0.545771
20
0.937908
11
0.545129
21
0.937826
0
LINE
8
BLACK
6
CONTINUOUS
10
0.545129
20
0.937826
11
0.544531
21
0.937578
0
LINE
8
BLACK
6
CONTINUOUS
10
0.544531
20
0.937578
11
0.544213
21
0.93771
0
LINE
8
BLACK
6
CONTINUOUS
10
0.544213
20
0.93771
11
0.543873
21
0.937666
0
LINE
8
BLACK
6
CONTINUOUS
10
0.543873
20
0.937666
11
0.543361
21
0.938063
0
LINE
8
BLACK
6
CONTINUOUS
10
0.543361
20
0.938063
11
0.542763
21
0.93831
0
LINE
8
BLACK
6
CONTINUOUS
10
0.542763
20
0.93831
11
0.542631
21
0.938628
0
LINE
8
BLACK
6
CONTINUOUS
10
0.542631
20
0.938628
11
0.54236
21
0.938838
0
LINE
8
BLACK
6
CONTINUOUS
10
0.54236
20
0.938838
11
0.524533
21
0.970034
0
LINE
8
BLACK
6
CONTINUOUS
10
0.524533
20
0.970034
11
0.524533
21
0.940078
0
LINE
8
BLACK
6
CONTINUOUS
10
0.524533
20
0.940078
11
0.523801
21
0.93831
0
LINE
8
BLACK
6
CONTINUOUS
10
0.523801
20
0.93831
11
0.522033
21
0.937578
0
LINE
8
BLACK
6
CONTINUOUS
10
0.522033
20
0.937578
11
0.520266
21
0.93831
0
LINE
8
BLACK
6
CONTINUOUS
10
0.520266
20
0.93831
11
0.519533
21
0.940078
0
LINE
8
BLACK
6
CONTINUOUS
10
0.519533
20
0.940078
11
0.519533
21
0.979448
0
LINE
8
BLACK
6
CONTINUOUS
10
0.519533
20
0.979448
11
0.519665
21
0.979765
0
LINE
8
BLACK
6
CONTINUOUS
10
0.519665
20
0.979765
11
0.519621
21
0.980106
0
LINE
8
BLACK
6
CONTINUOUS
10
0.519621
20
0.980106
11
0.520018
21
0.980618
0
LINE
8
BLACK
6
CONTINUOUS
10
0.520018
20
0.980618
11
0.520266
21
0.981216
0
LINE
8
BLACK
6
CONTINUOUS
10
0.520266
20
0.981216
11
0.520583
21
0.981347
0
LINE
8
BLACK
6
CONTINUOUS
10
0.520583
20
0.981347
11
0.520793
21
0.981619
0
LINE
8
BLACK
6
CONTINUOUS
10
0.520793
20
0.981619
11
0.521435
21
0.9817
0
LINE
8
BLACK
6
CONTINUOUS
10
0.521435
20
0.9817
11
0.522033
21
0.981948
0
LINE
8
BLACK
6
CONTINUOUS
10
0.522033
20
0.981948
11
0.522351
21
0.981817
0
LINE
8
BLACK
6
CONTINUOUS
10
0.522351
20
0.981817
11
0.522691
21
0.98186
0
LINE
8
BLACK
6
CONTINUOUS
10
0.522691
20
0.98186
11
0.523203
21
0.981464
0
LINE
8
BLACK
6
CONTINUOUS
10
0.523203
20
0.981464
11
0.523801
21
0.981216
0
LINE
8
BLACK
6
CONTINUOUS
10
0.523801
20
0.981216
11
0.523932
21
0.980899
0
LINE
8
BLACK
6
CONTINUOUS
10
0.523932
20
0.980899
11
0.524204
21
0.980689
0
LINE
8
BLACK
6
CONTINUOUS
10
0.524204
20
0.980689
11
0.542031
21
0.949492
0
LINE
8
BLACK
6
CONTINUOUS
10
0.542031
20
0.949492
11
0.542031
21
0.979448
0
LINE
8
BLACK
6
CONTINUOUS
10
0.542031
20
0.979448
11
0.542763
21
0.981216
0
LINE
8
BLACK
6
CONTINUOUS
10
0.542763
20
0.981216
11
0.544531
21
0.981948
0
LINE
8
BLACK
6
CONTINUOUS
10
0.544531
20
0.981948
11
0.546298
21
0.981216
0
LINE
8
BLACK
6
CONTINUOUS
10
0.573032
20
0.981791
11
0.573443
21
0.98182
0
LINE
8
BLACK
6
CONTINUOUS
10
0.573443
20
0.98182
11
0.579067
21
0.979945
0
LINE
8
BLACK
6
CONTINUOUS
10
0.579067
20
0.979945
11
0.579506
21
0.979564
0
LINE
8
BLACK
6
CONTINUOUS
10
0.579506
20
0.979564
11
0.580044
21
0.979341
0
LINE
8
BLACK
6
CONTINUOUS
10
0.580044
20
0.979341
11
0.583794
21
0.975592
0
LINE
8
BLACK
6
CONTINUOUS
10
0.583794
20
0.975592
11
0.583951
21
0.975212
0
LINE
8
BLACK
6
CONTINUOUS
10
0.583951
20
0.975212
11
0.584262
21
0.974942
0
LINE
8
BLACK
6
CONTINUOUS
10
0.584262
20
0.974942
11
0.586137
21
0.971192
0
LINE
8
BLACK
6
CONTINUOUS
10
0.586137
20
0.971192
11
0.586157
21
0.970909
0
LINE
8
BLACK
6
CONTINUOUS
10
0.586157
20
0.970909
11
0.586326
21
0.970681
0
LINE
8
BLACK
6
CONTINUOUS
10
0.586326
20
0.970681
11
0.588201
21
0.963182
0
LINE
8
BLACK
6
CONTINUOUS
10
0.588201
20
0.963182
11
0.588154
21
0.962868
0
LINE
8
BLACK
6
CONTINUOUS
10
0.588154
20
0.962868
11
0.588275
21
0.962575
0
LINE
8
BLACK
6
CONTINUOUS
10
0.588275
20
0.962575
11
0.588275
21
0.956951
0
LINE
8
BLACK
6
CONTINUOUS
10
0.588275
20
0.956951
11
0.588154
21
0.956658
0
LINE
8
BLACK
6
CONTINUOUS
10
0.588154
20
0.956658
11
0.588201
21
0.956345
0
LINE
8
BLACK
6
CONTINUOUS
10
0.588201
20
0.956345
11
0.586326
21
0.948846
0
LINE
8
BLACK
6
CONTINUOUS
10
0.586326
20
0.948846
11
0.586157
21
0.948617
0
LINE
8
BLACK
6
CONTINUOUS
10
0.586157
20
0.948617
11
0.586137
21
0.948334
0
LINE
8
BLACK
6
CONTINUOUS
10
0.586137
20
0.948334
11
0.584262
21
0.944584
0
LINE
8
BLACK
6
CONTINUOUS
10
0.584262
20
0.944584
11
0.583951
21
0.944315
0
LINE
8
BLACK
6
CONTINUOUS
10
0.583951
20
0.944315
11
0.583794
21
0.943935
0
LINE
8
BLACK
6
CONTINUOUS
10
0.583794
20
0.943935
11
0.580044
21
0.940185
0
LINE
8
BLACK
6
CONTINUOUS
10
0.580044
20
0.940185
11
0.579506
21
0.939962
0
LINE
8
BLACK
6
CONTINUOUS
10
0.579506
20
0.939962
11
0.579067
21
0.939581
0
LINE
8
BLACK
6
CONTINUOUS
10
0.579067
20
0.939581
11
0.573443
21
0.937706
0
LINE
8
BLACK
6
CONTINUOUS
10
0.573443
20
0.937706
11
0.573032
21
0.937736
0
LINE
8
BLACK
6
CONTINUOUS
10
0.573032
20
0.937736
11
0.572652
21
0.937578
0
LINE
8
BLACK
6
CONTINUOUS
10
0.572652
20
0.937578
11
0.563278
21
0.937578
0
LINE
8
BLACK
6
CONTINUOUS
10
0.563278
20
0.937578
11
0.56151
21
0.93831
0
LINE
8
BLACK
6
CONTINUOUS
10
0.56151
20
0.93831
11
0.560778
21
0.940078
0
LINE
8
BLACK
6
CONTINUOUS
10
0.560778
20
0.940078
11
0.560778
21
0.979448
0
LINE
8
BLACK
6
CONTINUOUS
10
0.560778
20
0.979448
11
0.56151
21
0.981216
0
LINE
8
BLACK
6
CONTINUOUS
10
0.56151
20
0.981216
11
0.563278
21
0.981948
0
LINE
8
BLACK
6
CONTINUOUS
10
0.563278
20
0.981948
11
0.572652
21
0.981948
0
LINE
8
BLACK
6
CONTINUOUS
10
0.572652
20
0.981948
11
0.573032
21
0.981791
0
LINE
8
BLACK
6
CONTINUOUS
10
0.565778
20
0.942578
11
0.572246
21
0.942578
0
LINE
8
BLACK
6
CONTINUOUS
10
0.572246
20
0.942578
11
0.576926
21
0.944138
0
LINE
8
BLACK
6
CONTINUOUS
10
0.576926
20
0.944138
11
0.579971
21
0.947183
0
LINE
8
BLACK
6
CONTINUOUS
10
0.579971
20
0.947183
11
0.581542
21
0.950325
0
LINE
8
BLACK
6
CONTINUOUS
10
0.581542
20
0.950325
11
0.583275
21
0.957259
0
LINE
8
BLACK
6
CONTINUOUS
10
0.583275
20
0.957259
11
0.583275
21
0.962268
0
LINE
8
BLACK
6
CONTINUOUS
10
0.583275
20
0.962268
11
0.581542
21
0.969202
0
LINE
8
BLACK
6
CONTINUOUS
10
0.581542
20
0.969202
11
0.579971
21
0.972343
0
LINE
8
BLACK
6
CONTINUOUS
10
0.579971
20
0.972343
11
0.576926
21
0.975388
0
LINE
8
BLACK
6
CONTINUOUS
10
0.576926
20
0.975388
11
0.572246
21
0.976948
0
LINE
8
BLACK
6
CONTINUOUS
10
0.572246
20
0.976948
11
0.565778
21
0.976948
0
LINE
8
BLACK
6
CONTINUOUS
10
0.565778
20
0.976948
11
0.565778
21
0.942578
0
LINE
8
BLACK
6
CONTINUOUS
10
2.33914
20
1.06635
11
2.33983
21
1.06446
0
LINE
8
BLACK
6
CONTINUOUS
10
2.33983
20
1.06446
11
2.33983
21
1.03633
0
LINE
8
BLACK
6
CONTINUOUS
10
2.33983
20
1.03633
11
2.33968
21
1.03547
0
LINE
8
BLACK
6
CONTINUOUS
10
2.33968
20
1.03547
11
2.33968
21
1.0354
0
LINE
8
BLACK
6
CONTINUOUS
10
2.33968
20
1.0354
11
2.3378
21
1.02978
0
LINE
8
BLACK
6
CONTINUOUS
10
2.3378
20
1.02978
11
2.33731
21
1.02887
0
LINE
8
BLACK
6
CONTINUOUS
10
2.33731
20
1.02887
11
2.33716
21
1.02878
0
LINE
8
BLACK
6
CONTINUOUS
10
2.33716
20
1.02878
11
2.33709
21
1.02862
0
LINE
8
BLACK
6
CONTINUOUS
10
2.33709
20
1.02862
11
2.33334
21
1.02487
0
LINE
8
BLACK
6
CONTINUOUS
10
2.33334
20
1.02487
11
2.3325
21
1.02428
0
LINE
8
BLACK
6
CONTINUOUS
10
2.3325
20
1.02428
11
2.33232
21
1.02427
0
LINE
8
BLACK
6
CONTINUOUS
10
2.33232
20
1.02427
11
2.33219
21
1.02416
0
LINE
8
BLACK
6
CONTINUOUS
10
2.33219
20
1.02416
11
2.32656
21
1.02228
0
LINE
8
BLACK
6
CONTINUOUS
10
2.32656
20
1.02228
11
2.32569
21
1.02216
0
LINE
8
BLACK
6
CONTINUOUS
10
2.32569
20
1.02216
11
2.32563
21
1.02213
0
LINE
8
BLACK
6
CONTINUOUS
10
2.32563
20
1.02213
11
2.32188
21
1.02213
0
LINE
8
BLACK
6
CONTINUOUS
10
2.32188
20
1.02213
11
2.32087
21
1.02231
0
LINE
8
BLACK
6
CONTINUOUS
10
2.32087
20
1.02231
11
2.31932
21
1.02361
0
LINE
8
BLACK
6
CONTINUOUS
10
2.31932
20
1.02361
11
2.31897
21
1.0256
0
LINE
8
BLACK
6
CONTINUOUS
10
2.31897
20
1.0256
11
2.31998
21
1.02735
0
LINE
8
BLACK
6
CONTINUOUS
10
2.31998
20
1.02735
11
2.32188
21
1.02804
0
LINE
8
BLACK
6
CONTINUOUS
10
2.32188
20
1.02804
11
2.32515
21
1.02804
0
LINE
8
BLACK
6
CONTINUOUS
10
2.32515
20
1.02804
11
2.32966
21
1.02954
0
LINE
8
BLACK
6
CONTINUOUS
10
2.32966
20
1.02954
11
2.33242
21
1.03231
0
LINE
8
BLACK
6
CONTINUOUS
10
2.33242
20
1.03231
11
2.33392
21
1.03681
0
LINE
8
BLACK
6
CONTINUOUS
10
2.33392
20
1.03681
11
2.33392
21
1.06446
0
LINE
8
BLACK
6
CONTINUOUS
10
2.33392
20
1.06446
11
2.3341
21
1.06547
0
LINE
8
BLACK
6
CONTINUOUS
10
2.3341
20
1.06547
11
2.3354
21
1.06701
0
LINE
8
BLACK
6
CONTINUOUS
10
2.3354
20
1.06701
11
2.33739
21
1.06736
0
LINE
8
BLACK
6
CONTINUOUS
10
2.33739
20
1.06736
11
2.33914
21
1.06635
0
LINE
8
BLACK
6
CONTINUOUS
10
2.36534
20
1.06733
11
2.36551
21
1.06736
0
LINE
8
BLACK
6
CONTINUOUS
10
2.36551
20
1.06736
11
2.36625
21
1.06694
0
LINE
8
BLACK
6
CONTINUOUS
10
2.36625
20
1.06694
11
2.36704
21
1.06659
0
LINE
8
BLACK
6
CONTINUOUS
10
2.36704
20
1.06659
11
2.36711
21
1.06644
0
LINE
8
BLACK
6
CONTINUOUS
10
2.36711
20
1.06644
11
2.36726
21
1.06635
0
LINE
8
BLACK
6
CONTINUOUS
10
2.36726
20
1.06635
11
2.36755
21
1.06555
0
LINE
8
BLACK
6
CONTINUOUS
10
2.36755
20
1.06555
11
2.36793
21
1.06478
0
LINE
8
BLACK
6
CONTINUOUS
10
2.36793
20
1.06478
11
2.36789
21
1.06462
0
LINE
8
BLACK
6
CONTINUOUS
10
2.36789
20
1.06462
11
2.36795
21
1.06446
0
LINE
8
BLACK
6
CONTINUOUS
10
2.36795
20
1.06446
11
2.36795
21
1.02804
0
LINE
8
BLACK
6
CONTINUOUS
10
2.36795
20
1.02804
11
2.37625
21
1.02804
0
LINE
8
BLACK
6
CONTINUOUS
10
2.37625
20
1.02804
11
2.37726
21
1.02786
0
LINE
8
BLACK
6
CONTINUOUS
10
2.37726
20
1.02786
11
2.3788
21
1.02656
0
LINE
8
BLACK
6
CONTINUOUS
10
2.3788
20
1.02656
11
2.37915
21
1.02457
0
LINE
8
BLACK
6
CONTINUOUS
10
2.37915
20
1.02457
11
2.37814
21
1.02282
0
LINE
8
BLACK
6
CONTINUOUS
10
2.37814
20
1.02282
11
2.37625
21
1.02213
0
LINE
8
BLACK
6
CONTINUOUS
10
2.37625
20
1.02213
11
2.35375
21
1.02213
0
LINE
8
BLACK
6
CONTINUOUS
10
2.35375
20
1.02213
11
2.35274
21
1.02231
0
LINE
8
BLACK
6
CONTINUOUS
10
2.35274
20
1.02231
11
2.35119
21
1.02361
0
LINE
8
BLACK
6
CONTINUOUS
10
2.35119
20
1.02361
11
2.35084
21
1.0256
0
LINE
8
BLACK
6
CONTINUOUS
10
2.35084
20
1.0256
11
2.35185
21
1.02735
0
LINE
8
BLACK
6
CONTINUOUS
10
2.35185
20
1.02735
11
2.35375
21
1.02804
0
LINE
8
BLACK
6
CONTINUOUS
10
2.35375
20
1.02804
11
2.36205
21
1.02804
0
LINE
8
BLACK
6
CONTINUOUS
10
2.36205
20
1.02804
11
2.36205
21
1.05545
0
LINE
8
BLACK
6
CONTINUOUS
10
2.36205
20
1.05545
11
2.35959
21
1.05299
0
LINE
8
BLACK
6
CONTINUOUS
10
2.35959
20
1.05299
11
2.35886
21
1.05249
0
LINE
8
BLACK
6
CONTINUOUS
10
2.35886
20
1.05249
11
2.35882
21
1.05244
0
LINE
8
BLACK
6
CONTINUOUS
10
2.35882
20
1.05244
11
2.35507
21
1.05057
0
LINE
8
BLACK
6
CONTINUOUS
10
2.35507
20
1.05057
11
2.35409
21
1.05027
0
LINE
8
BLACK
6
CONTINUOUS
10
2.35409
20
1.05027
11
2.35212
21
1.05074
0
LINE
8
BLACK
6
CONTINUOUS
10
2.35212
20
1.05074
11
2.35092
21
1.05237
0
LINE
8
BLACK
6
CONTINUOUS
10
2.35092
20
1.05237
11
2.35104
21
1.05438
0
LINE
8
BLACK
6
CONTINUOUS
10
2.35104
20
1.05438
11
2.35243
21
1.05585
0
LINE
8
BLACK
6
CONTINUOUS
10
2.35243
20
1.05585
11
2.35575
21
1.05751
0
LINE
8
BLACK
6
CONTINUOUS
10
2.35575
20
1.05751
11
2.35895
21
1.06071
0
LINE
8
BLACK
6
CONTINUOUS
10
2.35895
20
1.06071
11
2.36254
21
1.06609
0
LINE
8
BLACK
6
CONTINUOUS
10
2.36254
20
1.06609
11
2.36325
21
1.06684
0
LINE
8
BLACK
6
CONTINUOUS
10
2.36325
20
1.06684
11
2.36341
21
1.06688
0
LINE
8
BLACK
6
CONTINUOUS
10
2.36341
20
1.06688
11
2.36352
21
1.06701
0
LINE
8
BLACK
6
CONTINUOUS
10
2.36352
20
1.06701
11
2.36437
21
1.06716
0
LINE
8
BLACK
6
CONTINUOUS
10
2.36437
20
1.06716
11
2.36519
21
1.0674
0
LINE
8
BLACK
6
CONTINUOUS
10
2.36519
20
1.0674
11
2.36534
21
1.06733
0
LINE
8
BLACK
6
CONTINUOUS
10
0.503042
20
1.07679
11
0.503452
21
1.07682
0
LINE
8
BLACK
6
CONTINUOUS
10
0.503452
20
1.07682
11
0.509076
21
1.07495
0
LINE
8
BLACK
6
CONTINUOUS
10
0.509076
20
1.07495
11
0.510522
21
1.07369
0
LINE
8
BLACK
6
CONTINUOUS
10
0.510522
20
1.07369
11
0.510657
21
1.07178
0
LINE
8
BLACK
6
CONTINUOUS
10
0.510657
20
1.07178
11
0.509404
21
1.07034
0
LINE
8
BLACK
6
CONTINUOUS
10
0.509404
20
1.07034
11
0.507495
21
1.0702
0
LINE
8
BLACK
6
CONTINUOUS
10
0.507495
20
1.0702
11
0.502256
21
1.07195
0
LINE
8
BLACK
6
CONTINUOUS
10
0.502256
20
1.07195
11
0.493878
21
1.07195
0
LINE
8
BLACK
6
CONTINUOUS
10
0.493878
20
1.07195
11
0.491019
21
1.07052
0
LINE
8
BLACK
6
CONTINUOUS
10
0.491019
20
1.07052
11
0.489718
21
1.06922
0
LINE
8
BLACK
6
CONTINUOUS
10
0.489718
20
1.06922
11
0.488289
21
1.06636
0
LINE
8
BLACK
6
CONTINUOUS
10
0.488289
20
1.06636
11
0.488289
21
1.06379
0
LINE
8
BLACK
6
CONTINUOUS
10
0.488289
20
1.06379
11
0.489718
21
1.06093
0
LINE
8
BLACK
6
CONTINUOUS
10
0.489718
20
1.06093
11
0.491019
21
1.05963
0
LINE
8
BLACK
6
CONTINUOUS
10
0.491019
20
1.05963
11
0.49416
21
1.05806
0
LINE
8
BLACK
6
CONTINUOUS
10
0.49416
20
1.05806
11
0.501393
21
1.05625
0
LINE
8
BLACK
6
CONTINUOUS
10
0.501393
20
1.05625
11
0.501621
21
1.05608
0
LINE
8
BLACK
6
CONTINUOUS
10
0.501621
20
1.05608
11
0.501905
21
1.05606
0
LINE
8
BLACK
6
CONTINUOUS
10
0.501905
20
1.05606
11
0.505654
21
1.05419
0
LINE
8
BLACK
6
CONTINUOUS
10
0.505654
20
1.05419
11
0.505924
21
1.05388
0
LINE
8
BLACK
6
CONTINUOUS
10
0.505924
20
1.05388
11
0.506304
21
1.05372
0
LINE
8
BLACK
6
CONTINUOUS
10
0.506304
20
1.05372
11
0.508179
21
1.05184
0
LINE
8
BLACK
6
CONTINUOUS
10
0.508179
20
1.05184
11
0.508336
21
1.05146
0
LINE
8
BLACK
6
CONTINUOUS
10
0.508336
20
1.05146
11
0.508647
21
1.05119
0
LINE
8
BLACK
6
CONTINUOUS
10
0.508647
20
1.05119
11
0.510522
21
1.04744
0
LINE
8
BLACK
6
CONTINUOUS
10
0.510522
20
1.04744
11
0.510563
21
1.04686
0
LINE
8
BLACK
6
CONTINUOUS
10
0.510563
20
1.04686
11
0.510786
21
1.04633
0
LINE
8
BLACK
6
CONTINUOUS
10
0.510786
20
1.04633
11
0.510786
21
1.04258
0
LINE
8
BLACK
6
CONTINUOUS
10
0.510786
20
1.04258
11
0.510563
21
1.04204
0
LINE
8
BLACK
6
CONTINUOUS
10
0.510563
20
1.04204
11
0.510522
21
1.04146
0
LINE
8
BLACK
6
CONTINUOUS
10
0.510522
20
1.04146
11
0.508647
21
1.03771
0
LINE
8
BLACK
6
CONTINUOUS
10
0.508647
20
1.03771
11
0.508336
21
1.03744
0
LINE
8
BLACK
6
CONTINUOUS
10
0.508336
20
1.03744
11
0.508179
21
1.03706
0
LINE
8
BLACK
6
CONTINUOUS
10
0.508179
20
1.03706
11
0.506304
21
1.03519
0
LINE
8
BLACK
6
CONTINUOUS
10
0.506304
20
1.03519
11
0.505924
21
1.03503
0
LINE
8
BLACK
6
CONTINUOUS
10
0.505924
20
1.03503
11
0.505654
21
1.03472
0
LINE
8
BLACK
6
CONTINUOUS
10
0.505654
20
1.03472
11
0.501905
21
1.03284
0
LINE
8
BLACK
6
CONTINUOUS
10
0.501905
20
1.03284
11
0.501324
21
1.0328
0
LINE
8
BLACK
6
CONTINUOUS
10
0.501324
20
1.0328
11
0.500787
21
1.03258
0
LINE
8
BLACK
6
CONTINUOUS
10
0.500787
20
1.03258
11
0.491413
21
1.03258
0
LINE
8
BLACK
6
CONTINUOUS
10
0.491413
20
1.03258
11
0.491033
21
1.03274
0
LINE
8
BLACK
6
CONTINUOUS
10
0.491033
20
1.03274
11
0.490622
21
1.03271
0
LINE
8
BLACK
6
CONTINUOUS
10
0.490622
20
1.03271
11
0.484998
21
1.03458
0
LINE
8
BLACK
6
CONTINUOUS
10
0.484998
20
1.03458
11
0.483552
21
1.03583
0
LINE
8
BLACK
6
CONTINUOUS
10
0.483552
20
1.03583
11
0.483417
21
1.03774
0
LINE
8
BLACK
6
CONTINUOUS
10
0.483417
20
1.03774
11
0.48467
21
1.03919
0
LINE
8
BLACK
6
CONTINUOUS
10
0.48467
20
1.03919
11
0.486579
21
1.03932
0
LINE
8
BLACK
6
CONTINUOUS
10
0.486579
20
1.03932
11
0.491819
21
1.03758
0
LINE
8
BLACK
6
CONTINUOUS
10
0.491819
20
1.03758
11
0.500196
21
1.03758
0
LINE
8
BLACK
6
CONTINUOUS
10
0.500196
20
1.03758
11
0.503055
21
1.03901
0
LINE
8
BLACK
6
CONTINUOUS
10
0.503055
20
1.03901
11
0.504356
21
1.04031
0
LINE
8
BLACK
6
CONTINUOUS
10
0.504356
20
1.04031
11
0.505786
21
1.04317
0
LINE
8
BLACK
6
CONTINUOUS
10
0.505786
20
1.04317
11
0.505786
21
1.04574
0
LINE
8
BLACK
6
CONTINUOUS
10
0.505786
20
1.04574
11
0.504356
21
1.0486
0
LINE
8
BLACK
6
CONTINUOUS
10
0.504356
20
1.0486
11
0.503055
21
1.0499
0
LINE
8
BLACK
6
CONTINUOUS
10
0.503055
20
1.0499
11
0.499914
21
1.05147
0
LINE
8
BLACK
6
CONTINUOUS
10
0.499914
20
1.05147
11
0.492681
21
1.05328
0
LINE
8
BLACK
6
CONTINUOUS
10
0.492681
20
1.05328
11
0.492453
21
1.05344
0
LINE
8
BLACK
6
CONTINUOUS
10
0.492453
20
1.05344
11
0.49217
21
1.05346
0
LINE
8
BLACK
6
CONTINUOUS
10
0.49217
20
1.05346
11
0.48842
21
1.05534
0
LINE
8
BLACK
6
CONTINUOUS
10
0.48842
20
1.05534
11
0.48815
21
1.05565
0
LINE
8
BLACK
6
CONTINUOUS
10
0.48815
20
1.05565
11
0.48777
21
1.05581
0
LINE
8
BLACK
6
CONTINUOUS
10
0.48777
20
1.05581
11
0.485896
21
1.05768
0
LINE
8
BLACK
6
CONTINUOUS
10
0.485896
20
1.05768
11
0.485738
21
1.05806
0
LINE
8
BLACK
6
CONTINUOUS
10
0.485738
20
1.05806
11
0.485427
21
1.05833
0
LINE
8
BLACK
6
CONTINUOUS
10
0.485427
20
1.05833
11
0.483552
21
1.06208
0
LINE
8
BLACK
6
CONTINUOUS
10
0.483552
20
1.06208
11
0.483511
21
1.06266
0
LINE
8
BLACK
6
CONTINUOUS
10
0.483511
20
1.06266
11
0.483289
21
1.0632
0
LINE
8
BLACK
6
CONTINUOUS
10
0.483289
20
1.0632
11
0.483289
21
1.06695
0
LINE
8
BLACK
6
CONTINUOUS
10
0.483289
20
1.06695
11
0.483511
21
1.06749
0
LINE
8
BLACK
6
CONTINUOUS
10
0.483511
20
1.06749
11
0.483552
21
1.06807
0
LINE
8
BLACK
6
CONTINUOUS
10
0.483552
20
1.06807
11
0.485427
21
1.07182
0
LINE
8
BLACK
6
CONTINUOUS
10
0.485427
20
1.07182
11
0.485738
21
1.07209
0
LINE
8
BLACK
6
CONTINUOUS
10
0.485738
20
1.07209
11
0.485896
21
1.07247
0
LINE
8
BLACK
6
CONTINUOUS
10
0.485896
20
1.07247
11
0.48777
21
1.07434
0
LINE
8
BLACK
6
CONTINUOUS
10
0.48777
20
1.07434
11
0.48815
21
1.0745
0
LINE
8
BLACK
6
CONTINUOUS
10
0.48815
20
1.0745
11
0.48842
21
1.07481
0
LINE
8
BLACK
6
CONTINUOUS
10
0.48842
20
1.07481
11
0.49217
21
1.07668
0
LINE
8
BLACK
6
CONTINUOUS
10
0.49217
20
1.07668
11
0.49275
21
1.07673
0
LINE
8
BLACK
6
CONTINUOUS
10
0.49275
20
1.07673
11
0.493288
21
1.07695
0
LINE
8
BLACK
6
CONTINUOUS
10
0.493288
20
1.07695
11
0.502661
21
1.07695
0
LINE
8
BLACK
6
CONTINUOUS
10
0.502661
20
1.07695
11
0.503042
21
1.07679
0
LINE
8
BLACK
6
CONTINUOUS
10
0.540537
20
1.07679
11
0.540947
21
1.07682
0
LINE
8
BLACK
6
CONTINUOUS
10
0.540947
20
1.07682
11
0.546572
21
1.07495
0
LINE
8
BLACK
6
CONTINUOUS
10
0.546572
20
1.07495
11
0.547011
21
1.07456
0
LINE
8
BLACK
6
CONTINUOUS
10
0.547011
20
1.07456
11
0.547549
21
1.07434
0
LINE
8
BLACK
6
CONTINUOUS
10
0.547549
20
1.07434
11
0.549424
21
1.07247
0
LINE
8
BLACK
6
CONTINUOUS
10
0.549424
20
1.07247
11
0.550156
21
1.0707
0
LINE
8
BLACK
6
CONTINUOUS
10
0.550156
20
1.0707
11
0.549424
21
1.06893
0
LINE
8
BLACK
6
CONTINUOUS
10
0.549424
20
1.06893
11
0.547656
21
1.0682
0
LINE
8
BLACK
6
CONTINUOUS
10
0.547656
20
1.0682
11
0.545888
21
1.06893
0
LINE
8
BLACK
6
CONTINUOUS
10
0.545888
20
1.06893
11
0.544431
21
1.07039
0
LINE
8
BLACK
6
CONTINUOUS
10
0.544431
20
1.07039
11
0.539751
21
1.07195
0
LINE
8
BLACK
6
CONTINUOUS
10
0.539751
20
1.07195
11
0.536813
21
1.07195
0
LINE
8
BLACK
6
CONTINUOUS
10
0.536813
20
1.07195
11
0.532133
21
1.07039
0
LINE
8
BLACK
6
CONTINUOUS
10
0.532133
20
1.07039
11
0.529088
21
1.06734
0
LINE
8
BLACK
6
CONTINUOUS
10
0.529088
20
1.06734
11
0.527517
21
1.0642
0
LINE
8
BLACK
6
CONTINUOUS
10
0.527517
20
1.0642
11
0.525784
21
1.05727
0
LINE
8
BLACK
6
CONTINUOUS
10
0.525784
20
1.05727
11
0.525784
21
1.05226
0
LINE
8
BLACK
6
CONTINUOUS
10
0.525784
20
1.05226
11
0.527517
21
1.04532
0
LINE
8
BLACK
6
CONTINUOUS
10
0.527517
20
1.04532
11
0.529088
21
1.04218
0
LINE
8
BLACK
6
CONTINUOUS
10
0.529088
20
1.04218
11
0.532133
21
1.03914
0
LINE
8
BLACK
6
CONTINUOUS
10
0.532133
20
1.03914
11
0.536813
21
1.03758
0
LINE
8
BLACK
6
CONTINUOUS
10
0.536813
20
1.03758
11
0.539751
21
1.03758
0
LINE
8
BLACK
6
CONTINUOUS
10
0.539751
20
1.03758
11
0.54443
21
1.03914
0
LINE
8
BLACK
6
CONTINUOUS
10
0.54443
20
1.03914
11
0.545888
21
1.0406
0
LINE
8
BLACK
6
CONTINUOUS
10
0.545888
20
1.0406
11
0.547656
21
1.04133
0
LINE
8
BLACK
6
CONTINUOUS
10
0.547656
20
1.04133
11
0.549424
21
1.0406
0
LINE
8
BLACK
6
CONTINUOUS
10
0.549424
20
1.0406
11
0.550156
21
1.03883
0
LINE
8
BLACK
6
CONTINUOUS
10
0.550156
20
1.03883
11
0.549424
21
1.03706
0
LINE
8
BLACK
6
CONTINUOUS
10
0.549424
20
1.03706
11
0.547549
21
1.03519
0
LINE
8
BLACK
6
CONTINUOUS
10
0.547549
20
1.03519
11
0.547011
21
1.03496
0
LINE
8
BLACK
6
CONTINUOUS
10
0.547011
20
1.03496
11
0.546572
21
1.03458
0
LINE
8
BLACK
6
CONTINUOUS
10
0.546572
20
1.03458
11
0.540947
21
1.03271
0
LINE
8
BLACK
6
CONTINUOUS
10
0.540947
20
1.03271
11
0.540537
21
1.03274
0
LINE
8
BLACK
6
CONTINUOUS
10
0.540537
20
1.03274
11
0.540157
21
1.03258
0
LINE
8
BLACK
6
CONTINUOUS
10
0.540157
20
1.03258
11
0.536407
21
1.03258
0
LINE
8
BLACK
6
CONTINUOUS
10
0.536407
20
1.03258
11
0.536027
21
1.03274
0
LINE
8
BLACK
6
CONTINUOUS
10
0.536027
20
1.03274
11
0.535617
21
1.03271
0
LINE
8
BLACK
6
CONTINUOUS
10
0.535617
20
1.03271
11
0.529992
21
1.03458
0
LINE
8
BLACK
6
CONTINUOUS
10
0.529992
20
1.03458
11
0.529553
21
1.03496
0
LINE
8
BLACK
6
CONTINUOUS
10
0.529553
20
1.03496
11
0.529015
21
1.03519
0
LINE
8
BLACK
6
CONTINUOUS
10
0.529015
20
1.03519
11
0.525266
21
1.03893
0
LINE
8
BLACK
6
CONTINUOUS
10
0.525266
20
1.03893
11
0.525108
21
1.03931
0
LINE
8
BLACK
6
CONTINUOUS
10
0.525108
20
1.03931
11
0.524797
21
1.03958
0
LINE
8
BLACK
6
CONTINUOUS
10
0.524797
20
1.03958
11
0.522923
21
1.04333
0
LINE
8
BLACK
6
CONTINUOUS
10
0.522923
20
1.04333
11
0.522902
21
1.04362
0
LINE
8
BLACK
6
CONTINUOUS
10
0.522902
20
1.04362
11
0.522733
21
1.04385
0
LINE
8
BLACK
6
CONTINUOUS
10
0.522733
20
1.04385
11
0.520858
21
1.05134
0
LINE
8
BLACK
6
CONTINUOUS
10
0.520858
20
1.05134
11
0.520905
21
1.05166
0
LINE
8
BLACK
6
CONTINUOUS
10
0.520905
20
1.05166
11
0.520784
21
1.05195
0
LINE
8
BLACK
6
CONTINUOUS
10
0.520784
20
1.05195
11
0.520784
21
1.05758
0
LINE
8
BLACK
6
CONTINUOUS
10
0.520784
20
1.05758
11
0.520905
21
1.05787
0
LINE
8
BLACK
6
CONTINUOUS
10
0.520905
20
1.05787
11
0.520858
21
1.05818
0
LINE
8
BLACK
6
CONTINUOUS
10
0.520858
20
1.05818
11
0.522733
21
1.06568
0
LINE
8
BLACK
6
CONTINUOUS
10
0.522733
20
1.06568
11
0.522902
21
1.06591
0
LINE
8
BLACK
6
CONTINUOUS
10
0.522902
20
1.06591
11
0.522923
21
1.06619
0
LINE
8
BLACK
6
CONTINUOUS
10
0.522923
20
1.06619
11
0.524797
21
1.06994
0
LINE
8
BLACK
6
CONTINUOUS
10
0.524797
20
1.06994
11
0.525108
21
1.07021
0
LINE
8
BLACK
6
CONTINUOUS
10
0.525108
20
1.07021
11
0.525266
21
1.07059
0
LINE
8
BLACK
6
CONTINUOUS
10
0.525266
20
1.07059
11
0.529015
21
1.07434
0
LINE
8
BLACK
6
CONTINUOUS
10
0.529015
20
1.07434
11
0.529553
21
1.07456
0
LINE
8
BLACK
6
CONTINUOUS
10
0.529553
20
1.07456
11
0.529992
21
1.07495
0
LINE
8
BLACK
6
CONTINUOUS
10
0.529992
20
1.07495
11
0.535617
21
1.07682
0
LINE
8
BLACK
6
CONTINUOUS
10
0.535617
20
1.07682
11
0.536027
21
1.07679
0
LINE
8
BLACK
6
CONTINUOUS
10
0.536027
20
1.07679
11
0.536407
21
1.07695
0
LINE
8
BLACK
6
CONTINUOUS
10
0.536407
20
1.07695
11
0.540157
21
1.07695
0
LINE
8
BLACK
6
CONTINUOUS
10
0.540157
20
1.07695
11
0.540537
21
1.07679
0
LINE
8
BLACK
6
CONTINUOUS
10
0.566296
20
1.07622
11
0.567029
21
1.07445
0
LINE
8
BLACK
6
CONTINUOUS
10
0.567029
20
1.07445
11
0.567029
21
1.03758
0
LINE
8
BLACK
6
CONTINUOUS
10
0.567029
20
1.03758
11
0.583276
21
1.03758
0
LINE
8
BLACK
6
CONTINUOUS
10
0.583276
20
1.03758
11
0.585044
21
1.03685
0
LINE
8
BLACK
6
CONTINUOUS
10
0.585044
20
1.03685
11
0.585776
21
1.03508
0
LINE
8
BLACK
6
CONTINUOUS
10
0.585776
20
1.03508
11
0.585044
21
1.03331
0
LINE
8
BLACK
6
CONTINUOUS
10
0.585044
20
1.03331
11
0.583276
21
1.03258
0
LINE
8
BLACK
6
CONTINUOUS
10
0.583276
20
1.03258
11
0.564529
21
1.03258
0
LINE
8
BLACK
6
CONTINUOUS
10
0.564529
20
1.03258
11
0.562761
21
1.03331
0
LINE
8
BLACK
6
CONTINUOUS
10
0.562761
20
1.03331
11
0.562029
21
1.03508
0
LINE
8
BLACK
6
CONTINUOUS
10
0.562029
20
1.03508
11
0.562029
21
1.07445
0
LINE
8
BLACK
6
CONTINUOUS
10
0.562029
20
1.07445
11
0.562761
21
1.07622
0
LINE
8
BLACK
6
CONTINUOUS
10
0.562761
20
1.07622
11
0.564529
21
1.07695
0
LINE
8
BLACK
6
CONTINUOUS
10
0.564529
20
1.07695
11
0.566296
21
1.07622
0
LINE
8
BLACK
6
CONTINUOUS
10
2.40876
20
1.09958
11
2.40945
21
1.09791
0
LINE
8
BLACK
6
CONTINUOUS
10
2.40945
20
1.09791
11
2.40876
21
1.09624
0
LINE
8
BLACK
6
CONTINUOUS
10
2.40876
20
1.09624
11
2.40709
21
1.09555
0
LINE
8
BLACK
6
CONTINUOUS
10
2.40709
20
1.09555
11
2.29291
21
1.09555
0
LINE
8
BLACK
6
CONTINUOUS
10
2.29291
20
1.09555
11
2.29124
21
1.09624
0
LINE
8
BLACK
6
CONTINUOUS
10
2.29124
20
1.09624
11
2.29055
21
1.09791
0
LINE
8
BLACK
6
CONTINUOUS
10
2.29055
20
1.09791
11
2.29124
21
1.09958
0
LINE
8
BLACK
6
CONTINUOUS
10
2.29124
20
1.09958
11
2.29291
21
1.10028
0
LINE
8
BLACK
6
CONTINUOUS
10
2.29291
20
1.10028
11
2.40709
21
1.10028
0
LINE
8
BLACK
6
CONTINUOUS
10
2.40709
20
1.10028
11
2.40876
21
1.09958
0
LINE
8
BLACK
6
CONTINUOUS
10
0.531163
20
1.17179
11
0.531573
21
1.17182
0
LINE
8
BLACK
6
CONTINUOUS
10
0.531573
20
1.17182
11
0.537198
21
1.16995
0
LINE
8
BLACK
6
CONTINUOUS
10
0.537198
20
1.16995
11
0.537637
21
1.16956
0
LINE
8
BLACK
6
CONTINUOUS
10
0.537637
20
1.16956
11
0.538175
21
1.16934
0
LINE
8
BLACK
6
CONTINUOUS
10
0.538175
20
1.16934
11
0.541924
21
1.16559
0
LINE
8
BLACK
6
CONTINUOUS
10
0.541924
20
1.16559
11
0.542082
21
1.16521
0
LINE
8
BLACK
6
CONTINUOUS
10
0.542082
20
1.16521
11
0.542393
21
1.16494
0
LINE
8
BLACK
6
CONTINUOUS
10
0.542393
20
1.16494
11
0.544268
21
1.16119
0
LINE
8
BLACK
6
CONTINUOUS
10
0.544268
20
1.16119
11
0.544288
21
1.16091
0
LINE
8
BLACK
6
CONTINUOUS
10
0.544288
20
1.16091
11
0.544457
21
1.16068
0
LINE
8
BLACK
6
CONTINUOUS
10
0.544457
20
1.16068
11
0.546332
21
1.15318
0
LINE
8
BLACK
6
CONTINUOUS
10
0.546332
20
1.15318
11
0.546285
21
1.15287
0
LINE
8
BLACK
6
CONTINUOUS
10
0.546285
20
1.15287
11
0.546406
21
1.15258
0
LINE
8
BLACK
6
CONTINUOUS
10
0.546406
20
1.15258
11
0.546406
21
1.14695
0
LINE
8
BLACK
6
CONTINUOUS
10
0.546406
20
1.14695
11
0.546285
21
1.14666
0
LINE
8
BLACK
6
CONTINUOUS
10
0.546285
20
1.14666
11
0.546332
21
1.14634
0
LINE
8
BLACK
6
CONTINUOUS
10
0.546332
20
1.14634
11
0.544457
21
1.13885
0
LINE
8
BLACK
6
CONTINUOUS
10
0.544457
20
1.13885
11
0.544288
21
1.13862
0
LINE
8
BLACK
6
CONTINUOUS
10
0.544288
20
1.13862
11
0.544268
21
1.13833
0
LINE
8
BLACK
6
CONTINUOUS
10
0.544268
20
1.13833
11
0.542393
21
1.13458
0
LINE
8
BLACK
6
CONTINUOUS
10
0.542393
20
1.13458
11
0.542082
21
1.13431
0
LINE
8
BLACK
6
CONTINUOUS
10
0.542082
20
1.13431
11
0.541924
21
1.13393
0
LINE
8
BLACK
6
CONTINUOUS
10
0.541924
20
1.13393
11
0.538175
21
1.13019
0
LINE
8
BLACK
6
CONTINUOUS
10
0.538175
20
1.13019
11
0.537637
21
1.12996
0
LINE
8
BLACK
6
CONTINUOUS
10
0.537637
20
1.12996
11
0.537198
21
1.12958
0
LINE
8
BLACK
6
CONTINUOUS
10
0.537198
20
1.12958
11
0.531573
21
1.12771
0
LINE
8
BLACK
6
CONTINUOUS
10
0.531573
20
1.12771
11
0.531163
21
1.12774
0
LINE
8
BLACK
6
CONTINUOUS
10
0.531163
20
1.12774
11
0.530783
21
1.12758
0
LINE
8
BLACK
6
CONTINUOUS
10
0.530783
20
1.12758
11
0.521409
21
1.12758
0
LINE
8
BLACK
6
CONTINUOUS
10
0.521409
20
1.12758
11
0.519641
21
1.12831
0
LINE
8
BLACK
6
CONTINUOUS
10
0.519641
20
1.12831
11
0.518909
21
1.13008
0
LINE
8
BLACK
6
CONTINUOUS
10
0.518909
20
1.13008
11
0.518909
21
1.16945
0
LINE
8
BLACK
6
CONTINUOUS
10
0.518909
20
1.16945
11
0.519641
21
1.17122
0
LINE
8
BLACK
6
CONTINUOUS
10
0.519641
20
1.17122
11
0.521409
21
1.17195
0
LINE
8
BLACK
6
CONTINUOUS
10
0.521409
20
1.17195
11
0.530783
21
1.17195
0
LINE
8
BLACK
6
CONTINUOUS
10
0.530783
20
1.17195
11
0.531163
21
1.17179
0
LINE
8
BLACK
6
CONTINUOUS
10
0.523909
20
1.13258
11
0.530377
21
1.13258
0
LINE
8
BLACK
6
CONTINUOUS
10
0.530377
20
1.13258
11
0.535057
21
1.13414
0
LINE
8
BLACK
6
CONTINUOUS
10
0.535057
20
1.13414
11
0.538102
21
1.13718
0
LINE
8
BLACK
6
CONTINUOUS
10
0.538102
20
1.13718
11
0.539673
21
1.14032
0
LINE
8
BLACK
6
CONTINUOUS
10
0.539673
20
1.14032
11
0.541406
21
1.14726
0
LINE
8
BLACK
6
CONTINUOUS
10
0.541406
20
1.14726
11
0.541406
21
1.15227
0
LINE
8
BLACK
6
CONTINUOUS
10
0.541406
20
1.15227
11
0.539673
21
1.1592
0
LINE
8
BLACK
6
CONTINUOUS
10
0.539673
20
1.1592
11
0.538102
21
1.16234
0
LINE
8
BLACK
6
CONTINUOUS
10
0.538102
20
1.16234
11
0.535057
21
1.16539
0
LINE
8
BLACK
6
CONTINUOUS
10
0.535057
20
1.16539
11
0.530377
21
1.16695
0
LINE
8
BLACK
6
CONTINUOUS
10
0.530377
20
1.16695
11
0.523909
21
1.16695
0
LINE
8
BLACK
6
CONTINUOUS
10
0.523909
20
1.16695
11
0.523909
21
1.13258
0
LINE
8
BLACK
6
CONTINUOUS
10
0.570533
20
1.17179
11
0.570944
21
1.17182
0
LINE
8
BLACK
6
CONTINUOUS
10
0.570944
20
1.17182
11
0.576568
21
1.16995
0
LINE
8
BLACK
6
CONTINUOUS
10
0.576568
20
1.16995
11
0.577007
21
1.16956
0
LINE
8
BLACK
6
CONTINUOUS
10
0.577007
20
1.16956
11
0.577545
21
1.16934
0
LINE
8
BLACK
6
CONTINUOUS
10
0.577545
20
1.16934
11
0.581295
21
1.16559
0
LINE
8
BLACK
6
CONTINUOUS
10
0.581295
20
1.16559
11
0.581452
21
1.16521
0
LINE
8
BLACK
6
CONTINUOUS
10
0.581452
20
1.16521
11
0.581763
21
1.16494
0
LINE
8
BLACK
6
CONTINUOUS
10
0.581763
20
1.16494
11
0.583638
21
1.16119
0
LINE
8
BLACK
6
CONTINUOUS
10
0.583638
20
1.16119
11
0.583658
21
1.16091
0
LINE
8
BLACK
6
CONTINUOUS
10
0.583658
20
1.16091
11
0.583827
21
1.16068
0
LINE
8
BLACK
6
CONTINUOUS
10
0.583827
20
1.16068
11
0.585702
21
1.15318
0
LINE
8
BLACK
6
CONTINUOUS
10
0.585702
20
1.15318
11
0.585655
21
1.15287
0
LINE
8
BLACK
6
CONTINUOUS
10
0.585655
20
1.15287
11
0.585776
21
1.15258
0
LINE
8
BLACK
6
CONTINUOUS
10
0.585776
20
1.15258
11
0.585776
21
1.14695
0
LINE
8
BLACK
6
CONTINUOUS
10
0.585776
20
1.14695
11
0.585655
21
1.14666
0
LINE
8
BLACK
6
CONTINUOUS
10
0.585655
20
1.14666
11
0.585702
21
1.14634
0
LINE
8
BLACK
6
CONTINUOUS
10
0.585702
20
1.14634
11
0.583827
21
1.13885
0
LINE
8
BLACK
6
CONTINUOUS
10
0.583827
20
1.13885
11
0.583658
21
1.13862
0
LINE
8
BLACK
6
CONTINUOUS
10
0.583658
20
1.13862
11
0.583638
21
1.13833
0
LINE
8
BLACK
6
CONTINUOUS
10
0.583638
20
1.13833
11
0.581763
21
1.13458
0
LINE
8
BLACK
6
CONTINUOUS
10
0.581763
20
1.13458
11
0.581452
21
1.13431
0
LINE
8
BLACK
6
CONTINUOUS
10
0.581452
20
1.13431
11
0.581295
21
1.13393
0
LINE
8
BLACK
6
CONTINUOUS
10
0.581295
20
1.13393
11
0.577545
21
1.13019
0
LINE
8
BLACK
6
CONTINUOUS
10
0.577545
20
1.13019
11
0.577007
21
1.12996
0
LINE
8
BLACK
6
CONTINUOUS
10
0.577007
20
1.12996
11
0.576568
21
1.12958
0
LINE
8
BLACK
6
CONTINUOUS
10
0.576568
20
1.12958
11
0.570944
21
1.12771
0
LINE
8
BLACK
6
CONTINUOUS
10
0.570944
20
1.12771
11
0.570533
21
1.12774
0
LINE
8
BLACK
6
CONTINUOUS
10
0.570533
20
1.12774
11
0.570153
21
1.12758
0
LINE
8
BLACK
6
CONTINUOUS
10
0.570153
20
1.12758
11
0.560779
21
1.12758
0
LINE
8
BLACK
6
CONTINUOUS
10
0.560779
20
1.12758
11
0.559011
21
1.12831
0
LINE
8
BLACK
6
CONTINUOUS
10
0.559011
20
1.12831
11
0.558279
21
1.13008
0
LINE
8
BLACK
6
CONTINUOUS
10
0.558279
20
1.13008
11
0.558279
21
1.16945
0
LINE
8
BLACK
6
CONTINUOUS
10
0.558279
20
1.16945
11
0.559011
21
1.17122
0
LINE
8
BLACK
6
CONTINUOUS
10
0.559011
20
1.17122
11
0.560779
21
1.17195
0
LINE
8
BLACK
6
CONTINUOUS
10
0.560779
20
1.17195
11
0.570153
21
1.17195
0
LINE
8
BLACK
6
CONTINUOUS
10
0.570153
20
1.17195
11
0.570533
21
1.17179
0
LINE
8
BLACK
6
CONTINUOUS
10
0.563279
20
1.13258
11
0.569747
21
1.13258
0
LINE
8
BLACK
6
CONTINUOUS
10
0.569747
20
1.13258
11
0.574427
21
1.13414
0
LINE
8
BLACK
6
CONTINUOUS
10
0.574427
20
1.13414
11
0.577472
21
1.13718
0
LINE
8
BLACK
6
CONTINUOUS
10
0.577472
20
1.13718
11
0.579043
21
1.14032
0
LINE
8
BLACK
6
CONTINUOUS
10
0.579043
20
1.14032
11
0.580776
21
1.14726
0
LINE
8
BLACK
6
CONTINUOUS
10
0.580776
20
1.14726
11
0.580776
21
1.15227
0
LINE
8
BLACK
6
CONTINUOUS
10
0.580776
20
1.15227
11
0.579043
21
1.1592
0
LINE
8
BLACK
6
CONTINUOUS
10
0.579043
20
1.1592
11
0.577472
21
1.16234
0
LINE
8
BLACK
6
CONTINUOUS
10
0.577472
20
1.16234
11
0.574427
21
1.16539
0
LINE
8
BLACK
6
CONTINUOUS
10
0.574427
20
1.16539
11
0.569747
21
1.16695
0
LINE
8
BLACK
6
CONTINUOUS
10
0.569747
20
1.16695
11
0.563279
21
1.16695
0
LINE
8
BLACK
6
CONTINUOUS
10
0.563279
20
1.16695
11
0.563279
21
1.13258
0
LINE
8
BLACK
6
CONTINUOUS
10
0.510522
20
1.17057
11
0.510657
21
1.16866
0
LINE
8
BLACK
6
CONTINUOUS
10
0.510657
20
1.16866
11
0.497534
21
1.12929
0
LINE
8
BLACK
6
CONTINUOUS
10
0.497534
20
1.12929
11
0.497412
21
1.12915
0
LINE
8
BLACK
6
CONTINUOUS
10
0.497412
20
1.12915
11
0.497398
21
1.12896
0
LINE
8
BLACK
6
CONTINUOUS
10
0.497398
20
1.12896
11
0.4968
21
1.12844
0
LINE
8
BLACK
6
CONTINUOUS
10
0.4968
20
1.12844
11
0.49628
21
1.12784
0
LINE
8
BLACK
6
CONTINUOUS
10
0.49628
20
1.12784
11
0.496094
21
1.12783
0
LINE
8
BLACK
6
CONTINUOUS
10
0.496094
20
1.12783
11
0.495953
21
1.12771
0
LINE
8
BLACK
6
CONTINUOUS
10
0.495953
20
1.12771
11
0.495162
21
1.12776
0
LINE
8
BLACK
6
CONTINUOUS
10
0.495162
20
1.12776
11
0.494372
21
1.12771
0
LINE
8
BLACK
6
CONTINUOUS
10
0.494372
20
1.12771
11
0.494231
21
1.12783
0
LINE
8
BLACK
6
CONTINUOUS
10
0.494231
20
1.12783
11
0.494044
21
1.12784
0
LINE
8
BLACK
6
CONTINUOUS
10
0.494044
20
1.12784
11
0.493525
21
1.12844
0
LINE
8
BLACK
6
CONTINUOUS
10
0.493525
20
1.12844
11
0.492926
21
1.12896
0
LINE
8
BLACK
6
CONTINUOUS
10
0.492926
20
1.12896
11
0.492913
21
1.12915
0
LINE
8
BLACK
6
CONTINUOUS
10
0.492913
20
1.12915
11
0.492791
21
1.12929
0
LINE
8
BLACK
6
CONTINUOUS
10
0.492791
20
1.12929
11
0.479667
21
1.16866
0
LINE
8
BLACK
6
CONTINUOUS
10
0.479667
20
1.16866
11
0.479803
21
1.17057
0
LINE
8
BLACK
6
CONTINUOUS
10
0.479803
20
1.17057
11
0.481248
21
1.17182
0
LINE
8
BLACK
6
CONTINUOUS
10
0.481248
20
1.17182
11
0.483157
21
1.17168
0
LINE
8
BLACK
6
CONTINUOUS
10
0.483157
20
1.17168
11
0.484411
21
1.17024
0
LINE
8
BLACK
6
CONTINUOUS
10
0.484411
20
1.17024
11
0.495162
21
1.13798
0
LINE
8
BLACK
6
CONTINUOUS
10
0.495162
20
1.13798
11
0.505914
21
1.17024
0
LINE
8
BLACK
6
CONTINUOUS
10
0.505914
20
1.17024
11
0.507168
21
1.17168
0
LINE
8
BLACK
6
CONTINUOUS
10
0.507168
20
1.17168
11
0.509076
21
1.17182
0
LINE
8
BLACK
6
CONTINUOUS
10
0.509076
20
1.17182
11
0.510522
21
1.17057
0
LINE
8
BLACK
6
CONTINUOUS
10
2.21958
20
1.28876
11
2.22028
21
1.28709
0
LINE
8
BLACK
6
CONTINUOUS
10
2.22028
20
1.28709
11
2.22028
21
1.17291
0
LINE
8
BLACK
6
CONTINUOUS
10
2.22028
20
1.17291
11
2.21958
21
1.17124
0
LINE
8
BLACK
6
CONTINUOUS
10
2.21958
20
1.17124
11
2.21791
21
1.17055
0
LINE
8
BLACK
6
CONTINUOUS
10
2.21791
20
1.17055
11
2.21624
21
1.17124
0
LINE
8
BLACK
6
CONTINUOUS
10
2.21624
20
1.17124
11
2.21555
21
1.17291
0
LINE
8
BLACK
6
CONTINUOUS
10
2.21555
20
1.17291
11
2.21555
21
1.28709
0
LINE
8
BLACK
6
CONTINUOUS
10
2.21555
20
1.28709
11
2.21624
21
1.28876
0
LINE
8
BLACK
6
CONTINUOUS
10
2.21624
20
1.28876
11
2.21791
21
1.28945
0
LINE
8
BLACK
6
CONTINUOUS
10
2.21791
20
1.28945
11
2.21958
21
1.28876
0
LINE
8
BLACK
6
CONTINUOUS
10
2.48376
20
1.28876
11
2.48445
21
1.28709
0
LINE
8
BLACK
6
CONTINUOUS
10
2.48445
20
1.28709
11
2.48445
21
1.17291
0
LINE
8
BLACK
6
CONTINUOUS
10
2.48445
20
1.17291
11
2.48376
21
1.17124
0
LINE
8
BLACK
6
CONTINUOUS
10
2.48376
20
1.17124
11
2.48209
21
1.17055
0
LINE
8
BLACK
6
CONTINUOUS
10
2.48209
20
1.17055
11
2.48042
21
1.17124
0
LINE
8
BLACK
6
CONTINUOUS
10
2.48042
20
1.17124
11
2.47972
21
1.17291
0
LINE
8
BLACK
6
CONTINUOUS
10
2.47972
20
1.17291
11
2.47972
21
1.28709
0
LINE
8
BLACK
6
CONTINUOUS
10
2.47972
20
1.28709
11
2.48042
21
1.28876
0
LINE
8
BLACK
6
CONTINUOUS
10
2.48042
20
1.28876
11
2.48209
21
1.28945
0
LINE
8
BLACK
6
CONTINUOUS
10
2.48209
20
1.28945
11
2.48376
21
1.28876
0
LINE
8
BLACK
6
CONTINUOUS
10
2.16209
20
1.21441
11
2.1624
21
1.21446
0
LINE
8
BLACK
6
CONTINUOUS
10
2.1624
20
1.21446
11
2.1699
21
1.21259
0
LINE
8
BLACK
6
CONTINUOUS
10
2.1699
20
1.21259
11
2.17044
21
1.21219
0
LINE
8
BLACK
6
CONTINUOUS
10
2.17044
20
1.21219
11
2.17107
21
1.21193
0
LINE
8
BLACK
6
CONTINUOUS
10
2.17107
20
1.21193
11
2.17481
21
1.20818
0
LINE
8
BLACK
6
CONTINUOUS
10
2.17481
20
1.20818
11
2.17497
21
1.2078
0
LINE
8
BLACK
6
CONTINUOUS
10
2.17497
20
1.2078
11
2.17528
21
1.20753
0
LINE
8
BLACK
6
CONTINUOUS
10
2.17528
20
1.20753
11
2.17716
21
1.20378
0
LINE
8
BLACK
6
CONTINUOUS
10
2.17716
20
1.20378
11
2.1772
21
1.2032
0
LINE
8
BLACK
6
CONTINUOUS
10
2.1772
20
1.2032
11
2.17742
21
1.20266
0
LINE
8
BLACK
6
CONTINUOUS
10
2.17742
20
1.20266
11
2.17742
21
1.19516
0
LINE
8
BLACK
6
CONTINUOUS
10
2.17742
20
1.19516
11
2.1772
21
1.19462
0
LINE
8
BLACK
6
CONTINUOUS
10
2.1772
20
1.19462
11
2.17716
21
1.19404
0
LINE
8
BLACK
6
CONTINUOUS
10
2.17716
20
1.19404
11
2.17528
21
1.19029
0
LINE
8
BLACK
6
CONTINUOUS
10
2.17528
20
1.19029
11
2.17497
21
1.19003
0
LINE
8
BLACK
6
CONTINUOUS
10
2.17497
20
1.19003
11
2.17481
21
1.18965
0
LINE
8
BLACK
6
CONTINUOUS
10
2.17481
20
1.18965
11
2.17107
21
1.1859
0
LINE
8
BLACK
6
CONTINUOUS
10
2.17107
20
1.1859
11
2.17044
21
1.18564
0
LINE
8
BLACK
6
CONTINUOUS
10
2.17044
20
1.18564
11
2.1699
21
1.18524
0
LINE
8
BLACK
6
CONTINUOUS
10
2.1699
20
1.18524
11
2.1624
21
1.18336
0
LINE
8
BLACK
6
CONTINUOUS
10
2.1624
20
1.18336
11
2.16209
21
1.18341
0
LINE
8
BLACK
6
CONTINUOUS
10
2.16209
20
1.18341
11
2.1618
21
1.18329
0
LINE
8
BLACK
6
CONTINUOUS
10
2.1618
20
1.18329
11
2.14868
21
1.18329
0
LINE
8
BLACK
6
CONTINUOUS
10
2.14868
20
1.18329
11
2.14838
21
1.18341
0
LINE
8
BLACK
6
CONTINUOUS
10
2.14838
20
1.18341
11
2.14807
21
1.18336
0
LINE
8
BLACK
6
CONTINUOUS
10
2.14807
20
1.18336
11
2.14057
21
1.18524
0
LINE
8
BLACK
6
CONTINUOUS
10
2.14057
20
1.18524
11
2.14003
21
1.18564
0
LINE
8
BLACK
6
CONTINUOUS
10
2.14003
20
1.18564
11
2.13941
21
1.1859
0
LINE
8
BLACK
6
CONTINUOUS
10
2.13941
20
1.1859
11
2.13566
21
1.18965
0
LINE
8
BLACK
6
CONTINUOUS
10
2.13566
20
1.18965
11
2.1355
21
1.19003
0
LINE
8
BLACK
6
CONTINUOUS
10
2.1355
20
1.19003
11
2.13519
21
1.19029
0
LINE
8
BLACK
6
CONTINUOUS
10
2.13519
20
1.19029
11
2.13332
21
1.19404
0
LINE
8
BLACK
6
CONTINUOUS
10
2.13332
20
1.19404
11
2.13327
21
1.19462
0
LINE
8
BLACK
6
CONTINUOUS
10
2.13327
20
1.19462
11
2.13305
21
1.19516
0
LINE
8
BLACK
6
CONTINUOUS
10
2.13305
20
1.19516
11
2.13305
21
1.20266
0
LINE
8
BLACK
6
CONTINUOUS
10
2.13305
20
1.20266
11
2.13327
21
1.2032
0
LINE
8
BLACK
6
CONTINUOUS
10
2.13327
20
1.2032
11
2.13332
21
1.20378
0
LINE
8
BLACK
6
CONTINUOUS
10
2.13332
20
1.20378
11
2.13519
21
1.20753
0
LINE
8
BLACK
6
CONTINUOUS
10
2.13519
20
1.20753
11
2.1355
21
1.2078
0
LINE
8
BLACK
6
CONTINUOUS
10
2.1355
20
1.2078
11
2.13566
21
1.20818
0
LINE
8
BLACK
6
CONTINUOUS
10
2.13566
20
1.20818
11
2.13941
21
1.21193
0
LINE
8
BLACK
6
CONTINUOUS
10
2.13941
20
1.21193
11
2.14003
21
1.21219
0
LINE
8
BLACK
6
CONTINUOUS
10
2.14003
20
1.21219
11
2.14057
21
1.21259
0
LINE
8
BLACK
6
CONTINUOUS
10
2.14057
20
1.21259
11
2.14807
21
1.21446
0
LINE
8
BLACK
6
CONTINUOUS
10
2.14807
20
1.21446
11
2.14838
21
1.21441
0
LINE
8
BLACK
6
CONTINUOUS
10
2.14838
20
1.21441
11
2.14868
21
1.21454
0
LINE
8
BLACK
6
CONTINUOUS
10
2.14868
20
1.21454
11
2.1618
21
1.21454
0
LINE
8
BLACK
6
CONTINUOUS
10
2.1618
20
1.21454
11
2.16209
21
1.21441
0
LINE
8
BLACK
6
CONTINUOUS
10
2.14245
20
1.2079
11
2.13948
21
1.20493
0
LINE
8
BLACK
6
CONTINUOUS
10
2.13948
20
1.20493
11
2.13805
21
1.20207
0
LINE
8
BLACK
6
CONTINUOUS
10
2.13805
20
1.20207
11
2.13805
21
1.19575
0
LINE
8
BLACK
6
CONTINUOUS
10
2.13805
20
1.19575
11
2.13948
21
1.19289
0
LINE
8
BLACK
6
CONTINUOUS
10
2.13948
20
1.19289
11
2.14245
21
1.18992
0
LINE
8
BLACK
6
CONTINUOUS
10
2.14245
20
1.18992
11
2.14898
21
1.18829
0
LINE
8
BLACK
6
CONTINUOUS
10
2.14898
20
1.18829
11
2.16149
21
1.18829
0
LINE
8
BLACK
6
CONTINUOUS
10
2.16149
20
1.18829
11
2.16802
21
1.18992
0
LINE
8
BLACK
6
CONTINUOUS
10
2.16802
20
1.18992
11
2.17099
21
1.19289
0
LINE
8
BLACK
6
CONTINUOUS
10
2.17099
20
1.19289
11
2.17242
21
1.19575
0
LINE
8
BLACK
6
CONTINUOUS
10
2.17242
20
1.19575
11
2.17242
21
1.20207
0
LINE
8
BLACK
6
CONTINUOUS
10
2.17242
20
1.20207
11
2.17099
21
1.20493
0
LINE
8
BLACK
6
CONTINUOUS
10
2.17099
20
1.20493
11
2.16802
21
1.2079
0
LINE
8
BLACK
6
CONTINUOUS
10
2.16802
20
1.2079
11
2.16149
21
1.20954
0
LINE
8
BLACK
6
CONTINUOUS
10
2.16149
20
1.20954
11
2.14898
21
1.20954
0
LINE
8
BLACK
6
CONTINUOUS
10
2.14898
20
1.20954
11
2.14245
21
1.2079
0
LINE
8
BLACK
6
CONTINUOUS
10
2.16796
20
1.25368
11
2.16854
21
1.25364
0
LINE
8
BLACK
6
CONTINUOUS
10
2.16854
20
1.25364
11
2.17229
21
1.25177
0
LINE
8
BLACK
6
CONTINUOUS
10
2.17229
20
1.25177
11
2.17256
21
1.25146
0
LINE
8
BLACK
6
CONTINUOUS
10
2.17256
20
1.25146
11
2.17294
21
1.2513
0
LINE
8
BLACK
6
CONTINUOUS
10
2.17294
20
1.2513
11
2.17481
21
1.24942
0
LINE
8
BLACK
6
CONTINUOUS
10
2.17481
20
1.24942
11
2.17497
21
1.24904
0
LINE
8
BLACK
6
CONTINUOUS
10
2.17497
20
1.24904
11
2.17528
21
1.24877
0
LINE
8
BLACK
6
CONTINUOUS
10
2.17528
20
1.24877
11
2.17716
21
1.24502
0
LINE
8
BLACK
6
CONTINUOUS
10
2.17716
20
1.24502
11
2.1772
21
1.24444
0
LINE
8
BLACK
6
CONTINUOUS
10
2.1772
20
1.24444
11
2.17742
21
1.24391
0
LINE
8
BLACK
6
CONTINUOUS
10
2.17742
20
1.24391
11
2.17742
21
1.23641
0
LINE
8
BLACK
6
CONTINUOUS
10
2.17742
20
1.23641
11
2.1772
21
1.23587
0
LINE
8
BLACK
6
CONTINUOUS
10
2.1772
20
1.23587
11
2.17716
21
1.23529
0
LINE
8
BLACK
6
CONTINUOUS
10
2.17716
20
1.23529
11
2.17528
21
1.23154
0
LINE
8
BLACK
6
CONTINUOUS
10
2.17528
20
1.23154
11
2.17497
21
1.23127
0
LINE
8
BLACK
6
CONTINUOUS
10
2.17497
20
1.23127
11
2.17481
21
1.23089
0
LINE
8
BLACK
6
CONTINUOUS
10
2.17481
20
1.23089
11
2.17294
21
1.22902
0
LINE
8
BLACK
6
CONTINUOUS
10
2.17294
20
1.22902
11
2.17256
21
1.22886
0
LINE
8
BLACK
6
CONTINUOUS
10
2.17256
20
1.22886
11
2.17229
21
1.22855
0
LINE
8
BLACK
6
CONTINUOUS
10
2.17229
20
1.22855
11
2.16854
21
1.22667
0
LINE
8
BLACK
6
CONTINUOUS
10
2.16854
20
1.22667
11
2.16796
21
1.22663
0
LINE
8
BLACK
6
CONTINUOUS
10
2.16796
20
1.22663
11
2.16742
21
1.22641
0
LINE
8
BLACK
6
CONTINUOUS
10
2.16742
20
1.22641
11
2.13555
21
1.22641
0
LINE
8
BLACK
6
CONTINUOUS
10
2.13555
20
1.22641
11
2.13378
21
1.22714
0
LINE
8
BLACK
6
CONTINUOUS
10
2.13378
20
1.22714
11
2.13305
21
1.22891
0
LINE
8
BLACK
6
CONTINUOUS
10
2.13305
20
1.22891
11
2.13378
21
1.23068
0
LINE
8
BLACK
6
CONTINUOUS
10
2.13378
20
1.23068
11
2.13555
21
1.23141
0
LINE
8
BLACK
6
CONTINUOUS
10
2.13555
20
1.23141
11
2.16683
21
1.23141
0
LINE
8
BLACK
6
CONTINUOUS
10
2.16683
20
1.23141
11
2.16969
21
1.23284
0
LINE
8
BLACK
6
CONTINUOUS
10
2.16969
20
1.23284
11
2.17099
21
1.23414
0
LINE
8
BLACK
6
CONTINUOUS
10
2.17099
20
1.23414
11
2.17242
21
1.237
0
LINE
8
BLACK
6
CONTINUOUS
10
2.17242
20
1.237
11
2.17242
21
1.24332
0
LINE
8
BLACK
6
CONTINUOUS
10
2.17242
20
1.24332
11
2.17099
21
1.24617
0
LINE
8
BLACK
6
CONTINUOUS
10
2.17099
20
1.24617
11
2.16969
21
1.24748
0
LINE
8
BLACK
6
CONTINUOUS
10
2.16969
20
1.24748
11
2.16683
21
1.24891
0
LINE
8
BLACK
6
CONTINUOUS
10
2.16683
20
1.24891
11
2.13555
21
1.24891
0
LINE
8
BLACK
6
CONTINUOUS
10
2.13555
20
1.24891
11
2.13378
21
1.24964
0
LINE
8
BLACK
6
CONTINUOUS
10
2.13378
20
1.24964
11
2.13305
21
1.25141
0
LINE
8
BLACK
6
CONTINUOUS
10
2.13305
20
1.25141
11
2.13378
21
1.25317
0
LINE
8
BLACK
6
CONTINUOUS
10
2.13378
20
1.25317
11
2.13555
21
1.25391
0
LINE
8
BLACK
6
CONTINUOUS
10
2.13555
20
1.25391
11
2.16742
21
1.25391
0
LINE
8
BLACK
6
CONTINUOUS
10
2.16742
20
1.25391
11
2.16796
21
1.25368
0
LINE
8
BLACK
6
CONTINUOUS
10
0.503042
20
1.27179
11
0.503452
21
1.27182
0
LINE
8
BLACK
6
CONTINUOUS
10
0.503452
20
1.27182
11
0.509076
21
1.26995
0
LINE
8
BLACK
6
CONTINUOUS
10
0.509076
20
1.26995
11
0.510522
21
1.26869
0
LINE
8
BLACK
6
CONTINUOUS
10
0.510522
20
1.26869
11
0.510657
21
1.26678
0
LINE
8
BLACK
6
CONTINUOUS
10
0.510657
20
1.26678
11
0.509404
21
1.26534
0
LINE
8
BLACK
6
CONTINUOUS
10
0.509404
20
1.26534
11
0.507495
21
1.2652
0
LINE
8
BLACK
6
CONTINUOUS
10
0.507495
20
1.2652
11
0.502256
21
1.26695
0
LINE
8
BLACK
6
CONTINUOUS
10
0.502256
20
1.26695
11
0.493878
21
1.26695
0
LINE
8
BLACK
6
CONTINUOUS
10
0.493878
20
1.26695
11
0.491019
21
1.26552
0
LINE
8
BLACK
6
CONTINUOUS
10
0.491019
20
1.26552
11
0.489718
21
1.26422
0
LINE
8
BLACK
6
CONTINUOUS
10
0.489718
20
1.26422
11
0.488289
21
1.26136
0
LINE
8
BLACK
6
CONTINUOUS
10
0.488289
20
1.26136
11
0.488289
21
1.25879
0
LINE
8
BLACK
6
CONTINUOUS
10
0.488289
20
1.25879
11
0.489718
21
1.25593
0
LINE
8
BLACK
6
CONTINUOUS
10
0.489718
20
1.25593
11
0.491019
21
1.25463
0
LINE
8
BLACK
6
CONTINUOUS
10
0.491019
20
1.25463
11
0.49416
21
1.25306
0
LINE
8
BLACK
6
CONTINUOUS
10
0.49416
20
1.25306
11
0.501393
21
1.25125
0
LINE
8
BLACK
6
CONTINUOUS
10
0.501393
20
1.25125
11
0.501621
21
1.25108
0
LINE
8
BLACK
6
CONTINUOUS
10
0.501621
20
1.25108
11
0.501905
21
1.25106
0
LINE
8
BLACK
6
CONTINUOUS
10
0.501905
20
1.25106
11
0.505654
21
1.24919
0
LINE
8
BLACK
6
CONTINUOUS
10
0.505654
20
1.24919
11
0.505924
21
1.24888
0
LINE
8
BLACK
6
CONTINUOUS
10
0.505924
20
1.24888
11
0.506304
21
1.24872
0
LINE
8
BLACK
6
CONTINUOUS
10
0.506304
20
1.24872
11
0.508179
21
1.24684
0
LINE
8
BLACK
6
CONTINUOUS
10
0.508179
20
1.24684
11
0.508336
21
1.24646
0
LINE
8
BLACK
6
CONTINUOUS
10
0.508336
20
1.24646
11
0.508647
21
1.24619
0
LINE
8
BLACK
6
CONTINUOUS
10
0.508647
20
1.24619
11
0.510522
21
1.24244
0
LINE
8
BLACK
6
CONTINUOUS
10
0.510522
20
1.24244
11
0.510563
21
1.24186
0
LINE
8
BLACK
6
CONTINUOUS
10
0.510563
20
1.24186
11
0.510786
21
1.24133
0
LINE
8
BLACK
6
CONTINUOUS
10
0.510786
20
1.24133
11
0.510786
21
1.23758
0
LINE
8
BLACK
6
CONTINUOUS
10
0.510786
20
1.23758
11
0.510563
21
1.23704
0
LINE
8
BLACK
6
CONTINUOUS
10
0.510563
20
1.23704
11
0.510522
21
1.23646
0
LINE
8
BLACK
6
CONTINUOUS
10
0.510522
20
1.23646
11
0.508647
21
1.23271
0
LINE
8
BLACK
6
CONTINUOUS
10
0.508647
20
1.23271
11
0.508336
21
1.23244
0
LINE
8
BLACK
6
CONTINUOUS
10
0.508336
20
1.23244
11
0.508179
21
1.23206
0
LINE
8
BLACK
6
CONTINUOUS
10
0.508179
20
1.23206
11
0.506304
21
1.23019
0
LINE
8
BLACK
6
CONTINUOUS
10
0.506304
20
1.23019
11
0.505924
21
1.23003
0
LINE
8
BLACK
6
CONTINUOUS
10
0.505924
20
1.23003
11
0.505654
21
1.22972
0
LINE
8
BLACK
6
CONTINUOUS
10
0.505654
20
1.22972
11
0.501905
21
1.22784
0
LINE
8
BLACK
6
CONTINUOUS
10
0.501905
20
1.22784
11
0.501324
21
1.2278
0
LINE
8
BLACK
6
CONTINUOUS
10
0.501324
20
1.2278
11
0.500787
21
1.22758
0
LINE
8
BLACK
6
CONTINUOUS
10
0.500787
20
1.22758
11
0.491413
21
1.22758
0
LINE
8
BLACK
6
CONTINUOUS
10
0.491413
20
1.22758
11
0.491033
21
1.22774
0
LINE
8
BLACK
6
CONTINUOUS
10
0.491033
20
1.22774
11
0.490622
21
1.22771
0
LINE
8
BLACK
6
CONTINUOUS
10
0.490622
20
1.22771
11
0.484998
21
1.22958
0
LINE
8
BLACK
6
CONTINUOUS
10
0.484998
20
1.22958
11
0.483552
21
1.23083
0
LINE
8
BLACK
6
CONTINUOUS
10
0.483552
20
1.23083
11
0.483417
21
1.23274
0
LINE
8
BLACK
6
CONTINUOUS
10
0.483417
20
1.23274
11
0.48467
21
1.23419
0
LINE
8
BLACK
6
CONTINUOUS
10
0.48467
20
1.23419
11
0.486579
21
1.23432
0
LINE
8
BLACK
6
CONTINUOUS
10
0.486579
20
1.23432
11
0.491819
21
1.23258
0
LINE
8
BLACK
6
CONTINUOUS
10
0.491819
20
1.23258
11
0.500196
21
1.23258
0
LINE
8
BLACK
6
CONTINUOUS
10
0.500196
20
1.23258
11
0.503055
21
1.23401
0
LINE
8
BLACK
6
CONTINUOUS
10
0.503055
20
1.23401
11
0.504356
21
1.23531
0
LINE
8
BLACK
6
CONTINUOUS
10
0.504356
20
1.23531
11
0.505786
21
1.23817
0
LINE
8
BLACK
6
CONTINUOUS
10
0.505786
20
1.23817
11
0.505786
21
1.24074
0
LINE
8
BLACK
6
CONTINUOUS
10
0.505786
20
1.24074
11
0.504356
21
1.2436
0
LINE
8
BLACK
6
CONTINUOUS
10
0.504356
20
1.2436
11
0.503055
21
1.2449
0
LINE
8
BLACK
6
CONTINUOUS
10
0.503055
20
1.2449
11
0.499914
21
1.24647
0
LINE
8
BLACK
6
CONTINUOUS
10
0.499914
20
1.24647
11
0.492681
21
1.24828
0
LINE
8
BLACK
6
CONTINUOUS
10
0.492681
20
1.24828
11
0.492453
21
1.24844
0
LINE
8
BLACK
6
CONTINUOUS
10
0.492453
20
1.24844
11
0.49217
21
1.24846
0
LINE
8
BLACK
6
CONTINUOUS
10
0.49217
20
1.24846
11
0.48842
21
1.25034
0
LINE
8
BLACK
6
CONTINUOUS
10
0.48842
20
1.25034
11
0.48815
21
1.25065
0
LINE
8
BLACK
6
CONTINUOUS
10
0.48815
20
1.25065
11
0.48777
21
1.25081
0
LINE
8
BLACK
6
CONTINUOUS
10
0.48777
20
1.25081
11
0.485896
21
1.25268
0
LINE
8
BLACK
6
CONTINUOUS
10
0.485896
20
1.25268
11
0.485738
21
1.25306
0
LINE
8
BLACK
6
CONTINUOUS
10
0.485738
20
1.25306
11
0.485427
21
1.25333
0
LINE
8
BLACK
6
CONTINUOUS
10
0.485427
20
1.25333
11
0.483552
21
1.25708
0
LINE
8
BLACK
6
CONTINUOUS
10
0.483552
20
1.25708
11
0.483511
21
1.25766
0
LINE
8
BLACK
6
CONTINUOUS
10
0.483511
20
1.25766
11
0.483289
21
1.2582
0
LINE
8
BLACK
6
CONTINUOUS
10
0.483289
20
1.2582
11
0.483289
21
1.26195
0
LINE
8
BLACK
6
CONTINUOUS
10
0.483289
20
1.26195
11
0.483511
21
1.26249
0
LINE
8
BLACK
6
CONTINUOUS
10
0.483511
20
1.26249
11
0.483552
21
1.26307
0
LINE
8
BLACK
6
CONTINUOUS
10
0.483552
20
1.26307
11
0.485427
21
1.26682
0
LINE
8
BLACK
6
CONTINUOUS
10
0.485427
20
1.26682
11
0.485738
21
1.26709
0
LINE
8
BLACK
6
CONTINUOUS
10
0.485738
20
1.26709
11
0.485896
21
1.26747
0
LINE
8
BLACK
6
CONTINUOUS
10
0.485896
20
1.26747
11
0.48777
21
1.26934
0
LINE
8
BLACK
6
CONTINUOUS
10
0.48777
20
1.26934
11
0.48815
21
1.2695
0
LINE
8
BLACK
6
CONTINUOUS
10
0.48815
20
1.2695
11
0.48842
21
1.26981
0
LINE
8
BLACK
6
CONTINUOUS
10
0.48842
20
1.26981
11
0.49217
21
1.27168
0
LINE
8
BLACK
6
CONTINUOUS
10
0.49217
20
1.27168
11
0.49275
21
1.27173
0
LINE
8
BLACK
6
CONTINUOUS
10
0.49275
20
1.27173
11
0.493288
21
1.27195
0
LINE
8
BLACK
6
CONTINUOUS
10
0.493288
20
1.27195
11
0.502661
21
1.27195
0
LINE
8
BLACK
6
CONTINUOUS
10
0.502661
20
1.27195
11
0.503042
21
1.27179
0
LINE
8
BLACK
6
CONTINUOUS
10
0.534913
20
1.27179
11
0.535323
21
1.27182
0
LINE
8
BLACK
6
CONTINUOUS
10
0.535323
20
1.27182
11
0.540947
21
1.26995
0
LINE
8
BLACK
6
CONTINUOUS
10
0.540947
20
1.26995
11
0.541387
21
1.26956
0
LINE
8
BLACK
6
CONTINUOUS
10
0.541387
20
1.26956
11
0.541924
21
1.26934
0
LINE
8
BLACK
6
CONTINUOUS
10
0.541924
20
1.26934
11
0.545674
21
1.26559
0
LINE
8
BLACK
6
CONTINUOUS
10
0.545674
20
1.26559
11
0.545831
21
1.26521
0
LINE
8
BLACK
6
CONTINUOUS
10
0.545831
20
1.26521
11
0.546142
21
1.26494
0
LINE
8
BLACK
6
CONTINUOUS
10
0.546142
20
1.26494
11
0.548017
21
1.26119
0
LINE
8
BLACK
6
CONTINUOUS
10
0.548017
20
1.26119
11
0.548037
21
1.26091
0
LINE
8
BLACK
6
CONTINUOUS
10
0.548037
20
1.26091
11
0.548206
21
1.26068
0
LINE
8
BLACK
6
CONTINUOUS
10
0.548206
20
1.26068
11
0.550081
21
1.25318
0
LINE
8
BLACK
6
CONTINUOUS
10
0.550081
20
1.25318
11
0.550034
21
1.25287
0
LINE
8
BLACK
6
CONTINUOUS
10
0.550034
20
1.25287
11
0.550156
21
1.25258
0
LINE
8
BLACK
6
CONTINUOUS
10
0.550156
20
1.25258
11
0.550156
21
1.24695
0
LINE
8
BLACK
6
CONTINUOUS
10
0.550156
20
1.24695
11
0.550034
21
1.24666
0
LINE
8
BLACK
6
CONTINUOUS
10
0.550034
20
1.24666
11
0.550081
21
1.24634
0
LINE
8
BLACK
6
CONTINUOUS
10
0.550081
20
1.24634
11
0.548206
21
1.23885
0
LINE
8
BLACK
6
CONTINUOUS
10
0.548206
20
1.23885
11
0.548037
21
1.23862
0
LINE
8
BLACK
6
CONTINUOUS
10
0.548037
20
1.23862
11
0.548017
21
1.23833
0
LINE
8
BLACK
6
CONTINUOUS
10
0.548017
20
1.23833
11
0.546142
21
1.23458
0
LINE
8
BLACK
6
CONTINUOUS
10
0.546142
20
1.23458
11
0.545831
21
1.23431
0
LINE
8
BLACK
6
CONTINUOUS
10
0.545831
20
1.23431
11
0.545674
21
1.23393
0
LINE
8
BLACK
6
CONTINUOUS
10
0.545674
20
1.23393
11
0.541924
21
1.23019
0
LINE
8
BLACK
6
CONTINUOUS
10
0.541924
20
1.23019
11
0.541387
21
1.22996
0
LINE
8
BLACK
6
CONTINUOUS
10
0.541387
20
1.22996
11
0.540947
21
1.22958
0
LINE
8
BLACK
6
CONTINUOUS
10
0.540947
20
1.22958
11
0.535323
21
1.22771
0
LINE
8
BLACK
6
CONTINUOUS
10
0.535323
20
1.22771
11
0.534913
21
1.22774
0
LINE
8
BLACK
6
CONTINUOUS
10
0.534913
20
1.22774
11
0.534532
21
1.22758
0
LINE
8
BLACK
6
CONTINUOUS
10
0.534532
20
1.22758
11
0.525159
21
1.22758
0
LINE
8
BLACK
6
CONTINUOUS
10
0.525159
20
1.22758
11
0.523391
21
1.22831
0
LINE
8
BLACK
6
CONTINUOUS
10
0.523391
20
1.22831
11
0.522659
21
1.23008
0
LINE
8
BLACK
6
CONTINUOUS
10
0.522659
20
1.23008
11
0.522659
21
1.26945
0
LINE
8
BLACK
6
CONTINUOUS
10
0.522659
20
1.26945
11
0.523391
21
1.27122
0
LINE
8
BLACK
6
CONTINUOUS
10
0.523391
20
1.27122
11
0.525159
21
1.27195
0
LINE
8
BLACK
6
CONTINUOUS
10
0.525159
20
1.27195
11
0.534532
21
1.27195
0
LINE
8
BLACK
6
CONTINUOUS
10
0.534532
20
1.27195
11
0.534913
21
1.27179
0
LINE
8
BLACK
6
CONTINUOUS
10
0.527659
20
1.23258
11
0.534127
21
1.23258
0
LINE
8
BLACK
6
CONTINUOUS
10
0.534127
20
1.23258
11
0.538806
21
1.23414
0
LINE
8
BLACK
6
CONTINUOUS
10
0.538806
20
1.23414
11
0.541852
21
1.23718
0
LINE
8
BLACK
6
CONTINUOUS
10
0.541852
20
1.23718
11
0.543422
21
1.24032
0
LINE
8
BLACK
6
CONTINUOUS
10
0.543422
20
1.24032
11
0.545156
21
1.24726
0
LINE
8
BLACK
6
CONTINUOUS
10
0.545156
20
1.24726
11
0.545156
21
1.25227
0
LINE
8
BLACK
6
CONTINUOUS
10
0.545156
20
1.25227
11
0.543422
21
1.2592
0
LINE
8
BLACK
6
CONTINUOUS
10
0.543422
20
1.2592
11
0.541852
21
1.26234
0
LINE
8
BLACK
6
CONTINUOUS
10
0.541852
20
1.26234
11
0.538806
21
1.26539
0
LINE
8
BLACK
6
CONTINUOUS
10
0.538806
20
1.26539
11
0.534127
21
1.26695
0
LINE
8
BLACK
6
CONTINUOUS
10
0.534127
20
1.26695
11
0.527659
21
1.26695
0
LINE
8
BLACK
6
CONTINUOUS
10
0.527659
20
1.26695
11
0.527659
21
1.23258
0
LINE
8
BLACK
6
CONTINUOUS
10
0.572959
20
1.2717
11
0.573146
21
1.27168
0
LINE
8
BLACK
6
CONTINUOUS
10
0.573146
20
1.27168
11
0.573665
21
1.27109
0
LINE
8
BLACK
6
CONTINUOUS
10
0.573665
20
1.27109
11
0.574264
21
1.27057
0
LINE
8
BLACK
6
CONTINUOUS
10
0.574264
20
1.27057
11
0.574277
21
1.27038
0
LINE
8
BLACK
6
CONTINUOUS
10
0.574277
20
1.27038
11
0.574399
21
1.27024
0
LINE
8
BLACK
6
CONTINUOUS
10
0.574399
20
1.27024
11
0.587523
21
1.23087
0
LINE
8
BLACK
6
CONTINUOUS
10
0.587523
20
1.23087
11
0.587387
21
1.22896
0
LINE
8
BLACK
6
CONTINUOUS
10
0.587387
20
1.22896
11
0.585942
21
1.22771
0
LINE
8
BLACK
6
CONTINUOUS
10
0.585942
20
1.22771
11
0.584033
21
1.22784
0
LINE
8
BLACK
6
CONTINUOUS
10
0.584033
20
1.22784
11
0.582779
21
1.22929
0
LINE
8
BLACK
6
CONTINUOUS
10
0.582779
20
1.22929
11
0.5796
21
1.23883
0
LINE
8
BLACK
6
CONTINUOUS
10
0.5796
20
1.23883
11
0.564456
21
1.23883
0
LINE
8
BLACK
6
CONTINUOUS
10
0.564456
20
1.23883
11
0.561276
21
1.22929
0
LINE
8
BLACK
6
CONTINUOUS
10
0.561276
20
1.22929
11
0.560022
21
1.22784
0
LINE
8
BLACK
6
CONTINUOUS
10
0.560022
20
1.22784
11
0.558114
21
1.22771
0
LINE
8
BLACK
6
CONTINUOUS
10
0.558114
20
1.22771
11
0.556668
21
1.22896
0
LINE
8
BLACK
6
CONTINUOUS
10
0.556668
20
1.22896
11
0.556533
21
1.23087
0
LINE
8
BLACK
6
CONTINUOUS
10
0.556533
20
1.23087
11
0.569656
21
1.27024
0
LINE
8
BLACK
6
CONTINUOUS
10
0.569656
20
1.27024
11
0.569778
21
1.27038
0
LINE
8
BLACK
6
CONTINUOUS
10
0.569778
20
1.27038
11
0.569792
21
1.27057
0
LINE
8
BLACK
6
CONTINUOUS
10
0.569792
20
1.27057
11
0.57039
21
1.27109
0
LINE
8
BLACK
6
CONTINUOUS
10
0.57039
20
1.27109
11
0.57091
21
1.27168
0
LINE
8
BLACK
6
CONTINUOUS
10
0.57091
20
1.27168
11
0.571096
21
1.2717
0
LINE
8
BLACK
6
CONTINUOUS
10
0.571096
20
1.2717
11
0.571237
21
1.27182
0
LINE
8
BLACK
6
CONTINUOUS
10
0.571237
20
1.27182
11
0.572028
21
1.27176
0
LINE
8
BLACK
6
CONTINUOUS
10
0.572028
20
1.27176
11
0.572818
21
1.27182
0
LINE
8
BLACK
6
CONTINUOUS
10
0.572818
20
1.27182
11
0.572959
21
1.2717
0
LINE
8
BLACK
6
CONTINUOUS
10
0.566122
20
1.24383
11
0.577933
21
1.24383
0
LINE
8
BLACK
6
CONTINUOUS
10
0.577933
20
1.24383
11
0.572028
21
1.26154
0
LINE
8
BLACK
6
CONTINUOUS
10
0.572028
20
1.26154
11
0.566122
21
1.24383
0
LINE
8
BLACK
6
CONTINUOUS
10
2.13732
20
1.28879
11
2.13805
21
1.28703
0
LINE
8
BLACK
6
CONTINUOUS
10
2.13805
20
1.28703
11
2.13805
21
1.27828
0
LINE
8
BLACK
6
CONTINUOUS
10
2.13805
20
1.27828
11
2.17492
21
1.27828
0
LINE
8
BLACK
6
CONTINUOUS
10
2.17492
20
1.27828
11
2.17669
21
1.27755
0
LINE
8
BLACK
6
CONTINUOUS
10
2.17669
20
1.27755
11
2.17742
21
1.27578
0
LINE
8
BLACK
6
CONTINUOUS
10
2.17742
20
1.27578
11
2.17669
21
1.27401
0
LINE
8
BLACK
6
CONTINUOUS
10
2.17669
20
1.27401
11
2.17492
21
1.27328
0
LINE
8
BLACK
6
CONTINUOUS
10
2.17492
20
1.27328
11
2.13805
21
1.27328
0
LINE
8
BLACK
6
CONTINUOUS
10
2.13805
20
1.27328
11
2.13805
21
1.26453
0
LINE
8
BLACK
6
CONTINUOUS
10
2.13805
20
1.26453
11
2.13732
21
1.26276
0
LINE
8
BLACK
6
CONTINUOUS
10
2.13732
20
1.26276
11
2.13555
21
1.26203
0
LINE
8
BLACK
6
CONTINUOUS
10
2.13555
20
1.26203
11
2.13378
21
1.26276
0
LINE
8
BLACK
6
CONTINUOUS
10
2.13378
20
1.26276
11
2.13305
21
1.26453
0
LINE
8
BLACK
6
CONTINUOUS
10
2.13305
20
1.26453
11
2.13305
21
1.28703
0
LINE
8
BLACK
6
CONTINUOUS
10
2.13305
20
1.28703
11
2.13378
21
1.28879
0
LINE
8
BLACK
6
CONTINUOUS
10
2.13378
20
1.28879
11
2.13555
21
1.28953
0
LINE
8
BLACK
6
CONTINUOUS
10
2.13555
20
1.28953
11
2.13732
21
1.28879
0
LINE
8
BLACK
6
CONTINUOUS
10
0.500074
20
1.37673
11
0.500654
21
1.37668
0
LINE
8
BLACK
6
CONTINUOUS
10
0.500654
20
1.37668
11
0.504404
21
1.37481
0
LINE
8
BLACK
6
CONTINUOUS
10
0.504404
20
1.37481
11
0.505657
21
1.37336
0
LINE
8
BLACK
6
CONTINUOUS
10
0.505657
20
1.37336
11
0.505522
21
1.37146
0
LINE
8
BLACK
6
CONTINUOUS
10
0.505522
20
1.37146
11
0.504076
21
1.3702
0
LINE
8
BLACK
6
CONTINUOUS
10
0.504076
20
1.3702
11
0.502168
21
1.37034
0
LINE
8
BLACK
6
CONTINUOUS
10
0.502168
20
1.37034
11
0.498946
21
1.37195
0
LINE
8
BLACK
6
CONTINUOUS
10
0.498946
20
1.37195
11
0.494318
21
1.37195
0
LINE
8
BLACK
6
CONTINUOUS
10
0.494318
20
1.37195
11
0.489638
21
1.37039
0
LINE
8
BLACK
6
CONTINUOUS
10
0.489638
20
1.37039
11
0.486593
21
1.36734
0
LINE
8
BLACK
6
CONTINUOUS
10
0.486593
20
1.36734
11
0.485022
21
1.3642
0
LINE
8
BLACK
6
CONTINUOUS
10
0.485022
20
1.3642
11
0.483288
21
1.35727
0
LINE
8
BLACK
6
CONTINUOUS
10
0.483288
20
1.35727
11
0.483288
21
1.35226
0
LINE
8
BLACK
6
CONTINUOUS
10
0.483288
20
1.35226
11
0.485022
21
1.34532
0
LINE
8
BLACK
6
CONTINUOUS
10
0.485022
20
1.34532
11
0.486593
21
1.34218
0
LINE
8
BLACK
6
CONTINUOUS
10
0.486593
20
1.34218
11
0.489638
21
1.33914
0
LINE
8
BLACK
6
CONTINUOUS
10
0.489638
20
1.33914
11
0.494318
21
1.33758
0
LINE
8
BLACK
6
CONTINUOUS
10
0.494318
20
1.33758
11
0.497256
21
1.33758
0
LINE
8
BLACK
6
CONTINUOUS
10
0.497256
20
1.33758
11
0.501935
21
1.33914
0
LINE
8
BLACK
6
CONTINUOUS
10
0.501935
20
1.33914
11
0.50266
21
1.33986
0
LINE
8
BLACK
6
CONTINUOUS
10
0.50266
20
1.33986
11
0.50266
21
1.34945
0
LINE
8
BLACK
6
CONTINUOUS
10
0.50266
20
1.34945
11
0.497661
21
1.34945
0
LINE
8
BLACK
6
CONTINUOUS
10
0.497661
20
1.34945
11
0.495894
21
1.35018
0
LINE
8
BLACK
6
CONTINUOUS
10
0.495894
20
1.35018
11
0.495161
21
1.35195
0
LINE
8
BLACK
6
CONTINUOUS
10
0.495161
20
1.35195
11
0.495894
21
1.35372
0
LINE
8
BLACK
6
CONTINUOUS
10
0.495894
20
1.35372
11
0.497661
21
1.35445
0
LINE
8
BLACK
6
CONTINUOUS
10
0.497661
20
1.35445
11
0.50516
21
1.35445
0
LINE
8
BLACK
6
CONTINUOUS
10
0.50516
20
1.35445
11
0.506928
21
1.35372
0
LINE
8
BLACK
6
CONTINUOUS
10
0.506928
20
1.35372
11
0.50766
21
1.35195
0
LINE
8
BLACK
6
CONTINUOUS
10
0.50766
20
1.35195
11
0.50766
21
1.33883
0
LINE
8
BLACK
6
CONTINUOUS
10
0.50766
20
1.33883
11
0.507511
21
1.33847
0
LINE
8
BLACK
6
CONTINUOUS
10
0.507511
20
1.33847
11
0.506928
21
1.33706
0
LINE
8
BLACK
6
CONTINUOUS
10
0.506928
20
1.33706
11
0.505053
21
1.33519
0
LINE
8
BLACK
6
CONTINUOUS
10
0.505053
20
1.33519
11
0.504516
21
1.33496
0
LINE
8
BLACK
6
CONTINUOUS
10
0.504516
20
1.33496
11
0.504076
21
1.33458
0
LINE
8
BLACK
6
CONTINUOUS
10
0.504076
20
1.33458
11
0.498452
21
1.33271
0
LINE
8
BLACK
6
CONTINUOUS
10
0.498452
20
1.33271
11
0.498042
21
1.33274
0
LINE
8
BLACK
6
CONTINUOUS
10
0.498042
20
1.33274
11
0.497661
21
1.33258
0
LINE
8
BLACK
6
CONTINUOUS
10
0.497661
20
1.33258
11
0.493912
21
1.33258
0
LINE
8
BLACK
6
CONTINUOUS
10
0.493912
20
1.33258
11
0.493532
21
1.33274
0
LINE
8
BLACK
6
CONTINUOUS
10
0.493532
20
1.33274
11
0.493121
21
1.33271
0
LINE
8
BLACK
6
CONTINUOUS
10
0.493121
20
1.33271
11
0.487497
21
1.33458
0
LINE
8
BLACK
6
CONTINUOUS
10
0.487497
20
1.33458
11
0.487057
21
1.33496
0
LINE
8
BLACK
6
CONTINUOUS
10
0.487057
20
1.33496
11
0.48652
21
1.33519
0
LINE
8
BLACK
6
CONTINUOUS
10
0.48652
20
1.33519
11
0.48277
21
1.33893
0
LINE
8
BLACK
6
CONTINUOUS
10
0.48277
20
1.33893
11
0.482613
21
1.33931
0
LINE
8
BLACK
6
CONTINUOUS
10
0.482613
20
1.33931
11
0.482302
21
1.33958
0
LINE
8
BLACK
6
CONTINUOUS
10
0.482302
20
1.33958
11
0.480427
21
1.34333
0
LINE
8
BLACK
6
CONTINUOUS
10
0.480427
20
1.34333
11
0.480407
21
1.34362
0
LINE
8
BLACK
6
CONTINUOUS
10
0.480407
20
1.34362
11
0.480238
21
1.34385
0
LINE
8
BLACK
6
CONTINUOUS
10
0.480238
20
1.34385
11
0.478363
21
1.35134
0
LINE
8
BLACK
6
CONTINUOUS
10
0.478363
20
1.35134
11
0.47841
21
1.35166
0
LINE
8
BLACK
6
CONTINUOUS
10
0.47841
20
1.35166
11
0.478289
21
1.35195
0
LINE
8
BLACK
6
CONTINUOUS
10
0.478289
20
1.35195
11
0.478289
21
1.35758
0
LINE
8
BLACK
6
CONTINUOUS
10
0.478289
20
1.35758
11
0.47841
21
1.35787
0
LINE
8
BLACK
6
CONTINUOUS
10
0.47841
20
1.35787
11
0.478363
21
1.35818
0
LINE
8
BLACK
6
CONTINUOUS
10
0.478363
20
1.35818
11
0.480238
21
1.36568
0
LINE
8
BLACK
6
CONTINUOUS
10
0.480238
20
1.36568
11
0.480407
21
1.36591
0
LINE
8
BLACK
6
CONTINUOUS
10
0.480407
20
1.36591
11
0.480427
21
1.36619
0
LINE
8
BLACK
6
CONTINUOUS
10
0.480427
20
1.36619
11
0.482302
21
1.36994
0
LINE
8
BLACK
6
CONTINUOUS
10
0.482302
20
1.36994
11
0.482613
21
1.37021
0
LINE
8
BLACK
6
CONTINUOUS
10
0.482613
20
1.37021
11
0.48277
21
1.37059
0
LINE
8
BLACK
6
CONTINUOUS
10
0.48277
20
1.37059
11
0.48652
21
1.37434
0
LINE
8
BLACK
6
CONTINUOUS
10
0.48652
20
1.37434
11
0.487057
21
1.37456
0
LINE
8
BLACK
6
CONTINUOUS
10
0.487057
20
1.37456
11
0.487497
21
1.37495
0
LINE
8
BLACK
6
CONTINUOUS
10
0.487497
20
1.37495
11
0.493121
21
1.37682
0
LINE
8
BLACK
6
CONTINUOUS
10
0.493121
20
1.37682
11
0.493532
21
1.37679
0
LINE
8
BLACK
6
CONTINUOUS
10
0.493532
20
1.37679
11
0.493912
21
1.37695
0
LINE
8
BLACK
6
CONTINUOUS
10
0.493912
20
1.37695
11
0.499536
21
1.37695
0
LINE
8
BLACK
6
CONTINUOUS
10
0.499536
20
1.37695
11
0.500074
21
1.37673
0
LINE
8
BLACK
6
CONTINUOUS
10
0.546298
20
1.37622
11
0.547031
21
1.37445
0
LINE
8
BLACK
6
CONTINUOUS
10
0.547031
20
1.37445
11
0.547031
21
1.33508
0
LINE
8
BLACK
6
CONTINUOUS
10
0.547031
20
1.33508
11
0.546899
21
1.33476
0
LINE
8
BLACK
6
CONTINUOUS
10
0.546899
20
1.33476
11
0.546942
21
1.33442
0
LINE
8
BLACK
6
CONTINUOUS
10
0.546942
20
1.33442
11
0.546546
21
1.33391
0
LINE
8
BLACK
6
CONTINUOUS
10
0.546546
20
1.33391
11
0.546298
21
1.33331
0
LINE
8
BLACK
6
CONTINUOUS
10
0.546298
20
1.33331
11
0.545981
21
1.33318
0
LINE
8
BLACK
6
CONTINUOUS
10
0.545981
20
1.33318
11
0.545771
21
1.33291
0
LINE
8
BLACK
6
CONTINUOUS
10
0.545771
20
1.33291
11
0.545129
21
1.33283
0
LINE
8
BLACK
6
CONTINUOUS
10
0.545129
20
1.33283
11
0.544531
21
1.33258
0
LINE
8
BLACK
6
CONTINUOUS
10
0.544531
20
1.33258
11
0.544213
21
1.33271
0
LINE
8
BLACK
6
CONTINUOUS
10
0.544213
20
1.33271
11
0.543873
21
1.33267
0
LINE
8
BLACK
6
CONTINUOUS
10
0.543873
20
1.33267
11
0.543361
21
1.33306
0
LINE
8
BLACK
6
CONTINUOUS
10
0.543361
20
1.33306
11
0.542763
21
1.33331
0
LINE
8
BLACK
6
CONTINUOUS
10
0.542763
20
1.33331
11
0.542631
21
1.33363
0
LINE
8
BLACK
6
CONTINUOUS
10
0.542631
20
1.33363
11
0.54236
21
1.33384
0
LINE
8
BLACK
6
CONTINUOUS
10
0.54236
20
1.33384
11
0.524533
21
1.36503
0
LINE
8
BLACK
6
CONTINUOUS
10
0.524533
20
1.36503
11
0.524533
21
1.33508
0
LINE
8
BLACK
6
CONTINUOUS
10
0.524533
20
1.33508
11
0.523801
21
1.33331
0
LINE
8
BLACK
6
CONTINUOUS
10
0.523801
20
1.33331
11
0.522033
21
1.33258
0
LINE
8
BLACK
6
CONTINUOUS
10
0.522033
20
1.33258
11
0.520266
21
1.33331
0
LINE
8
BLACK
6
CONTINUOUS
10
0.520266
20
1.33331
11
0.519533
21
1.33508
0
LINE
8
BLACK
6
CONTINUOUS
10
0.519533
20
1.33508
11
0.519533
21
1.37445
0
LINE
8
BLACK
6
CONTINUOUS
10
0.519533
20
1.37445
11
0.519665
21
1.37477
0
LINE
8
BLACK
6
CONTINUOUS
10
0.519665
20
1.37477
11
0.519621
21
1.37511
0
LINE
8
BLACK
6
CONTINUOUS
10
0.519621
20
1.37511
11
0.520018
21
1.37562
0
LINE
8
BLACK
6
CONTINUOUS
10
0.520018
20
1.37562
11
0.520266
21
1.37622
0
LINE
8
BLACK
6
CONTINUOUS
10
0.520266
20
1.37622
11
0.520583
21
1.37635
0
LINE
8
BLACK
6
CONTINUOUS
10
0.520583
20
1.37635
11
0.520793
21
1.37662
0
LINE
8
BLACK
6
CONTINUOUS
10
0.520793
20
1.37662
11
0.521435
21
1.3767
0
LINE
8
BLACK
6
CONTINUOUS
10
0.521435
20
1.3767
11
0.522033
21
1.37695
0
LINE
8
BLACK
6
CONTINUOUS
10
0.522033
20
1.37695
11
0.522351
21
1.37682
0
LINE
8
BLACK
6
CONTINUOUS
10
0.522351
20
1.37682
11
0.522691
21
1.37686
0
LINE
8
BLACK
6
CONTINUOUS
10
0.522691
20
1.37686
11
0.523203
21
1.37646
0
LINE
8
BLACK
6
CONTINUOUS
10
0.523203
20
1.37646
11
0.523801
21
1.37622
0
LINE
8
BLACK
6
CONTINUOUS
10
0.523801
20
1.37622
11
0.523932
21
1.3759
0
LINE
8
BLACK
6
CONTINUOUS
10
0.523932
20
1.3759
11
0.524204
21
1.37569
0
LINE
8
BLACK
6
CONTINUOUS
10
0.524204
20
1.37569
11
0.542031
21
1.34449
0
LINE
8
BLACK
6
CONTINUOUS
10
0.542031
20
1.34449
11
0.542031
21
1.37445
0
LINE
8
BLACK
6
CONTINUOUS
10
0.542031
20
1.37445
11
0.542763
21
1.37622
0
LINE
8
BLACK
6
CONTINUOUS
10
0.542763
20
1.37622
11
0.544531
21
1.37695
0
LINE
8
BLACK
6
CONTINUOUS
10
0.544531
20
1.37695
11
0.546298
21
1.37622
0
LINE
8
BLACK
6
CONTINUOUS
10
0.573032
20
1.37679
11
0.573443
21
1.37682
0
LINE
8
BLACK
6
CONTINUOUS
10
0.573443
20
1.37682
11
0.579067
21
1.37495
0
LINE
8
BLACK
6
CONTINUOUS
10
0.579067
20
1.37495
11
0.579506
21
1.37456
0
LINE
8
BLACK
6
CONTINUOUS
10
0.579506
20
1.37456
11
0.580044
21
1.37434
0
LINE
8
BLACK
6
CONTINUOUS
10
0.580044
20
1.37434
11
0.583794
21
1.37059
0
LINE
8
BLACK
6
CONTINUOUS
10
0.583794
20
1.37059
11
0.583951
21
1.37021
0
LINE
8
BLACK
6
CONTINUOUS
10
0.583951
20
1.37021
11
0.584262
21
1.36994
0
LINE
8
BLACK
6
CONTINUOUS
10
0.584262
20
1.36994
11
0.586137
21
1.36619
0
LINE
8
BLACK
6
CONTINUOUS
10
0.586137
20
1.36619
11
0.586157
21
1.36591
0
LINE
8
BLACK
6
CONTINUOUS
10
0.586157
20
1.36591
11
0.586326
21
1.36568
0
LINE
8
BLACK
6
CONTINUOUS
10
0.586326
20
1.36568
11
0.588201
21
1.35818
0
LINE
8
BLACK
6
CONTINUOUS
10
0.588201
20
1.35818
11
0.588154
21
1.35787
0
LINE
8
BLACK
6
CONTINUOUS
10
0.588154
20
1.35787
11
0.588275
21
1.35758
0
LINE
8
BLACK
6
CONTINUOUS
10
0.588275
20
1.35758
11
0.588275
21
1.35195
0
LINE
8
BLACK
6
CONTINUOUS
10
0.588275
20
1.35195
11
0.588154
21
1.35166
0
LINE
8
BLACK
6
CONTINUOUS
10
0.588154
20
1.35166
11
0.588201
21
1.35134
0
LINE
8
BLACK
6
CONTINUOUS
10
0.588201
20
1.35134
11
0.586326
21
1.34385
0
LINE
8
BLACK
6
CONTINUOUS
10
0.586326
20
1.34385
11
0.586157
21
1.34362
0
LINE
8
BLACK
6
CONTINUOUS
10
0.586157
20
1.34362
11
0.586137
21
1.34333
0
LINE
8
BLACK
6
CONTINUOUS
10
0.586137
20
1.34333
11
0.584262
21
1.33958
0
LINE
8
BLACK
6
CONTINUOUS
10
0.584262
20
1.33958
11
0.583951
21
1.33931
0
LINE
8
BLACK
6
CONTINUOUS
10
0.583951
20
1.33931
11
0.583794
21
1.33893
0
LINE
8
BLACK
6
CONTINUOUS
10
0.583794
20
1.33893
11
0.580044
21
1.33519
0
LINE
8
BLACK
6
CONTINUOUS
10
0.580044
20
1.33519
11
0.579506
21
1.33496
0
LINE
8
BLACK
6
CONTINUOUS
10
0.579506
20
1.33496
11
0.579067
21
1.33458
0
LINE
8
BLACK
6
CONTINUOUS
10
0.579067
20
1.33458
11
0.573443
21
1.33271
0
LINE
8
BLACK
6
CONTINUOUS
10
0.573443
20
1.33271
11
0.573032
21
1.33274
0
LINE
8
BLACK
6
CONTINUOUS
10
0.573032
20
1.33274
11
0.572652
21
1.33258
0
LINE
8
BLACK
6
CONTINUOUS
10
0.572652
20
1.33258
11
0.563278
21
1.33258
0
LINE
8
BLACK
6
CONTINUOUS
10
0.563278
20
1.33258
11
0.56151
21
1.33331
0
LINE
8
BLACK
6
CONTINUOUS
10
0.56151
20
1.33331
11
0.560778
21
1.33508
0
LINE
8
BLACK
6
CONTINUOUS
10
0.560778
20
1.33508
11
0.560778
21
1.33508
0
LINE
8
BLACK
6
CONTINUOUS
10
0.560778
20
1.33508
11
0.560778
21
1.37445
0
LINE
8
BLACK
6
CONTINUOUS
10
0.560778
20
1.37445
11
0.56151
21
1.37622
0
LINE
8
BLACK
6
CONTINUOUS
10
0.56151
20
1.37622
11
0.563278
21
1.37695
0
LINE
8
BLACK
6
CONTINUOUS
10
0.563278
20
1.37695
11
0.572652
21
1.37695
0
LINE
8
BLACK
6
CONTINUOUS
10
0.572652
20
1.37695
11
0.573032
21
1.37679
0
LINE
8
BLACK
6
CONTINUOUS
10
0.565778
20
1.33758
11
0.572246
21
1.33758
0
LINE
8
BLACK
6
CONTINUOUS
10
0.572246
20
1.33758
11
0.576926
21
1.33914
0
LINE
8
BLACK
6
CONTINUOUS
10
0.576926
20
1.33914
11
0.579971
21
1.34218
0
LINE
8
BLACK
6
CONTINUOUS
10
0.579971
20
1.34218
11
0.581542
21
1.34532
0
LINE
8
BLACK
6
CONTINUOUS
10
0.581542
20
1.34532
11
0.583275
21
1.35226
0
LINE
8
BLACK
6
CONTINUOUS
10
0.583275
20
1.35226
11
0.583275
21
1.35727
0
LINE
8
BLACK
6
CONTINUOUS
10
0.583275
20
1.35727
11
0.581542
21
1.3642
0
LINE
8
BLACK
6
CONTINUOUS
10
0.581542
20
1.3642
11
0.579971
21
1.36734
0
LINE
8
BLACK
6
CONTINUOUS
10
0.579971
20
1.36734
11
0.576926
21
1.37039
0
LINE
8
BLACK
6
CONTINUOUS
10
0.576926
20
1.37039
11
0.572246
21
1.37195
0
LINE
8
BLACK
6
CONTINUOUS
10
0.572246
20
1.37195
11
0.565778
21
1.37195
0
LINE
8
BLACK
6
CONTINUOUS
10
0.565778
20
1.37195
11
0.565778
21
1.33758
0
LINE
8
BLACK
6
CONTINUOUS
10
2.40876
20
1.36376
11
2.40945
21
1.36209
0
LINE
8
BLACK
6
CONTINUOUS
10
2.40945
20
1.36209
11
2.40876
21
1.36042
0
LINE
8
BLACK
6
CONTINUOUS
10
2.40876
20
1.36042
11
2.40709
21
1.35972
0
LINE
8
BLACK
6
CONTINUOUS
10
2.40709
20
1.35972
11
2.29291
21
1.35972
0
LINE
8
BLACK
6
CONTINUOUS
10
2.29291
20
1.35972
11
2.29124
21
1.36042
0
LINE
8
BLACK
6
CONTINUOUS
10
2.29124
20
1.36042
11
2.29055
21
1.36209
0
LINE
8
BLACK
6
CONTINUOUS
10
2.29055
20
1.36209
11
2.29124
21
1.36376
0
LINE
8
BLACK
6
CONTINUOUS
10
2.29124
20
1.36376
11
2.29291
21
1.36445
0
LINE
8
BLACK
6
CONTINUOUS
10
2.29291
20
1.36445
11
2.40709
21
1.36445
0
LINE
8
BLACK
6
CONTINUOUS
10
2.40709
20
1.36445
11
2.40876
21
1.36376
0
CIRCLE
8
BLACK
10
0.31
20
1.355
40
0.00688976
0
CIRCLE
8
BLACK
10
0.41
20
1.355
40
0.00688976
0
CIRCLE
8
BLACK
10
0.31
20
1.255
40
0.00688976
0
CIRCLE
8
BLACK
10
0.41
20
1.255
40
0.00688976
0
CIRCLE
8
BLACK
10
0.31
20
1.155
40
0.00688976
0
CIRCLE
8
BLACK
10
0.41
20
1.155
40
0.00688976
0
CIRCLE
8
BLACK
10
0.31
20
1.055
40
0.00688976
0
CIRCLE
8
BLACK
10
0.41
20
1.055
40
0.00688976
0
CIRCLE
8
BLACK
10
0.31
20
0.955
40
0.00688976
0
CIRCLE
8
BLACK
10
0.41
20
0.955
40
0.00688976
0
CIRCLE
8
BLACK
10
2.4
20
1.6
40
0.00688976
0
CIRCLE
8
BLACK
10
2.25
20
0.74
40
0.00688976
0
CIRCLE
8
BLACK
10
2.35
20
0.74
40
0.00688976
0
CIRCLE
8
BLACK
10
2.4
20
0.4
40
0.00688976
0
CIRCLE
8
BLACK
10
2.35
20
1.23
40
0.00688976
0
CIRCLE
8
BLACK
10
2.45
20
1.13
40
0.00688976
0
CIRCLE
8
BLACK
10
2.45
20
1.33
40
0.00688976
0
CIRCLE
8
BLACK
10
2.25
20
1.13
40
0.00688976
0
CIRCLE
8
BLACK
10
2.25
20
1.33
40
0.00688976
0
CIRCLE
8
BLACK
10
0.4
20
0.4
40
0.00688976
0
CIRCLE
8
BLACK
10
0.4
20
1.6
40
0.00688976
0
CIRCLE
8
BLACK
10
1.30157
20
0.566929
40
0.00688976
0
CIRCLE
8
BLACK
10
1.49843
20
0.566929
40
0.00688976
  0
ENDSEC
  0
EOF
