  0
SECTION
  2
HEADER
  9
$ANGBASE
  50
0.0
  9
$ANGDIR
  70
1
  9
$MEASUREMENT
  70
0
  0
ENDSEC
  0
SECTION
  2
TABLES
  0
TABLE
  2
LTYPE
  70
4
  0
LTYPE
  5
40F
  2
CONTINUOUS
  70
0
  3
Solid line
  72
65
  73
0
  40
0.0
  0
LTYPE
  5
410
  2
DASHDOT
 70
0
  3
Dash Dot ____ _ ____ _
 72
65
 73
4
 40
2.0
 49
1.25
 49
-0.25
 49
0.25
 49
-0.25
  0
LTYPE
  5
411
  2
DASHED
 70
0
  3
Dashed __ __ __ __ __
 72
65
 73
2
 40
0.75
 49
0.5
 49
-0.25
  0
LTYPE
  5
43B
  2
DOTTED
 70
0
  3
Dotted .  .  .  .
 72
65
 73
2
 40
0.2
 49
0.0
 49
-0.2
  0
ENDTAB
  0
TABLE
  2
STYLE
  70
4
  0
STYLE
  2
KICAD
  70
0
  40
0
  41
1
  42
1
  50
0
  71
0
  3
isocp.shx
  0
STYLE
  2
KICADB
  70
0
  40
0
  41
1
  42
1
  50
0
  71
0
  3
isocp.shx
  0
STYLE
  2
KICADI
  70
0
  40
0
  41
1
  42
1
  50
15
  71
0
  3
isocp.shx
  0
STYLE
  2
KICADBI
  70
0
  40
0
  41
1
  42
1
  50
15
  71
0
  3
isocp.shx
  0
ENDTAB
  0
TABLE
  2
LAYER
  70
1
  0
LAYER
  2
BLACK
  70
0
  62
7
  6
CONTINUOUS
  0
ENDTAB
  0
ENDSEC
  0
SECTION
  2
ENTITIES
0
LINE
8
BLACK
6
CONTINUOUS
10
0.390076
20
0.344097
11
0.390767
21
0.342199
0
LINE
8
BLACK
6
CONTINUOUS
10
0.390767
20
0.342199
11
0.390767
21
0.321576
0
LINE
8
BLACK
6
CONTINUOUS
10
0.390767
20
0.321576
11
0.390589
21
0.320566
0
LINE
8
BLACK
6
CONTINUOUS
10
0.390589
20
0.320566
11
0.390475
21
0.320431
0
LINE
8
BLACK
6
CONTINUOUS
10
0.390475
20
0.320431
11
0.390455
21
0.320256
0
LINE
8
BLACK
6
CONTINUOUS
10
0.390455
20
0.320256
11
0.38858
21
0.316506
0
LINE
8
BLACK
6
CONTINUOUS
10
0.38858
20
0.316506
11
0.387969
21
0.315683
0
LINE
8
BLACK
6
CONTINUOUS
10
0.387969
20
0.315683
11
0.387564
21
0.315507
0
LINE
8
BLACK
6
CONTINUOUS
10
0.387564
20
0.315507
11
0.38726
21
0.315186
0
LINE
8
BLACK
6
CONTINUOUS
10
0.38726
20
0.315186
11
0.38351
21
0.313311
0
LINE
8
BLACK
6
CONTINUOUS
10
0.38351
20
0.313311
11
0.382527
21
0.313019
0
LINE
8
BLACK
6
CONTINUOUS
10
0.382527
20
0.313019
11
0.382356
21
0.31306
0
LINE
8
BLACK
6
CONTINUOUS
10
0.382356
20
0.31306
11
0.38219
21
0.312999
0
LINE
8
BLACK
6
CONTINUOUS
10
0.38219
20
0.312999
11
0.376565
21
0.312999
0
LINE
8
BLACK
6
CONTINUOUS
10
0.376565
20
0.312999
11
0.375555
21
0.313177
0
LINE
8
BLACK
6
CONTINUOUS
10
0.375555
20
0.313177
11
0.37542
21
0.313291
0
LINE
8
BLACK
6
CONTINUOUS
10
0.37542
20
0.313291
11
0.375245
21
0.313311
0
LINE
8
BLACK
6
CONTINUOUS
10
0.375245
20
0.313311
11
0.373204
21
0.314332
0
LINE
8
BLACK
6
CONTINUOUS
10
0.373204
20
0.314332
11
0.372417
21
0.313395
0
LINE
8
BLACK
6
CONTINUOUS
10
0.372417
20
0.313395
11
0.370428
21
0.313044
0
LINE
8
BLACK
6
CONTINUOUS
10
0.370428
20
0.313044
11
0.368679
21
0.314054
0
LINE
8
BLACK
6
CONTINUOUS
10
0.368679
20
0.314054
11
0.367988
21
0.315952
0
LINE
8
BLACK
6
CONTINUOUS
10
0.367988
20
0.315952
11
0.367988
21
0.342199
0
LINE
8
BLACK
6
CONTINUOUS
10
0.367988
20
0.342199
11
0.368166
21
0.343209
0
LINE
8
BLACK
6
CONTINUOUS
10
0.368166
20
0.343209
11
0.369465
21
0.344756
0
LINE
8
BLACK
6
CONTINUOUS
10
0.369465
20
0.344756
11
0.371454
21
0.345107
0
LINE
8
BLACK
6
CONTINUOUS
10
0.371454
20
0.345107
11
0.373203
21
0.344097
0
LINE
8
BLACK
6
CONTINUOUS
10
0.373203
20
0.344097
11
0.373894
21
0.342199
0
LINE
8
BLACK
6
CONTINUOUS
10
0.373894
20
0.342199
11
0.373894
21
0.320925
0
LINE
8
BLACK
6
CONTINUOUS
10
0.373894
20
0.320925
11
0.374565
21
0.320254
0
LINE
8
BLACK
6
CONTINUOUS
10
0.374565
20
0.320254
11
0.377262
21
0.318905
0
LINE
8
BLACK
6
CONTINUOUS
10
0.377262
20
0.318905
11
0.381493
21
0.318905
0
LINE
8
BLACK
6
CONTINUOUS
10
0.381493
20
0.318905
11
0.383738
21
0.320028
0
LINE
8
BLACK
6
CONTINUOUS
10
0.383738
20
0.320028
11
0.384861
21
0.322273
0
LINE
8
BLACK
6
CONTINUOUS
10
0.384861
20
0.322273
11
0.384861
21
0.342199
0
LINE
8
BLACK
6
CONTINUOUS
10
0.384861
20
0.342199
11
0.385039
21
0.343209
0
LINE
8
BLACK
6
CONTINUOUS
10
0.385039
20
0.343209
11
0.386338
21
0.344756
0
LINE
8
BLACK
6
CONTINUOUS
10
0.386338
20
0.344756
11
0.388327
21
0.345107
0
LINE
8
BLACK
6
CONTINUOUS
10
0.388327
20
0.345107
11
0.390076
21
0.344097
0
LINE
8
BLACK
6
CONTINUOUS
10
0.41882
20
0.358097
11
0.418955
21
0.357983
0
LINE
8
BLACK
6
CONTINUOUS
10
0.418955
20
0.357983
11
0.419131
21
0.357963
0
LINE
8
BLACK
6
CONTINUOUS
10
0.419131
20
0.357963
11
0.42288
21
0.356088
0
LINE
8
BLACK
6
CONTINUOUS
10
0.42288
20
0.356088
11
0.423589
21
0.355562
0
LINE
8
BLACK
6
CONTINUOUS
10
0.423589
20
0.355562
11
0.423648
21
0.355535
0
LINE
8
BLACK
6
CONTINUOUS
10
0.423648
20
0.355535
11
0.425522
21
0.35366
0
LINE
8
BLACK
6
CONTINUOUS
10
0.425522
20
0.35366
11
0.426029
21
0.352937
0
LINE
8
BLACK
6
CONTINUOUS
10
0.426029
20
0.352937
11
0.426076
21
0.352893
0
LINE
8
BLACK
6
CONTINUOUS
10
0.426076
20
0.352893
11
0.42795
21
0.349144
0
LINE
8
BLACK
6
CONTINUOUS
10
0.42795
20
0.349144
11
0.428096
21
0.348655
0
LINE
8
BLACK
6
CONTINUOUS
10
0.428096
20
0.348655
11
0.428174
21
0.348539
0
LINE
8
BLACK
6
CONTINUOUS
10
0.428174
20
0.348539
11
0.430049
21
0.34104
0
LINE
8
BLACK
6
CONTINUOUS
10
0.430049
20
0.34104
11
0.43009
21
0.340452
0
LINE
8
BLACK
6
CONTINUOUS
10
0.43009
20
0.340452
11
0.430137
21
0.340324
0
LINE
8
BLACK
6
CONTINUOUS
10
0.430137
20
0.340324
11
0.430137
21
0.33095
0
LINE
8
BLACK
6
CONTINUOUS
10
0.430137
20
0.33095
11
0.430034
21
0.33037
0
LINE
8
BLACK
6
CONTINUOUS
10
0.430034
20
0.33037
11
0.430049
21
0.330234
0
LINE
8
BLACK
6
CONTINUOUS
10
0.430049
20
0.330234
11
0.428174
21
0.322735
0
LINE
8
BLACK
6
CONTINUOUS
10
0.428174
20
0.322735
11
0.427966
21
0.32227
0
LINE
8
BLACK
6
CONTINUOUS
10
0.427966
20
0.32227
11
0.42795
21
0.322131
0
LINE
8
BLACK
6
CONTINUOUS
10
0.42795
20
0.322131
11
0.426076
21
0.318381
0
LINE
8
BLACK
6
CONTINUOUS
10
0.426076
20
0.318381
11
0.42555
21
0.317672
0
LINE
8
BLACK
6
CONTINUOUS
10
0.42555
20
0.317672
11
0.425522
21
0.317614
0
LINE
8
BLACK
6
CONTINUOUS
10
0.425522
20
0.317614
11
0.423648
21
0.315739
0
LINE
8
BLACK
6
CONTINUOUS
10
0.423648
20
0.315739
11
0.422925
21
0.315233
0
LINE
8
BLACK
6
CONTINUOUS
10
0.422925
20
0.315233
11
0.42288
21
0.315186
0
LINE
8
BLACK
6
CONTINUOUS
10
0.42288
20
0.315186
11
0.419131
21
0.313311
0
LINE
8
BLACK
6
CONTINUOUS
10
0.419131
20
0.313311
11
0.418148
21
0.313019
0
LINE
8
BLACK
6
CONTINUOUS
10
0.418148
20
0.313019
11
0.417976
21
0.31306
0
LINE
8
BLACK
6
CONTINUOUS
10
0.417976
20
0.31306
11
0.41781
21
0.312999
0
LINE
8
BLACK
6
CONTINUOUS
10
0.41781
20
0.312999
11
0.414061
21
0.312999
0
LINE
8
BLACK
6
CONTINUOUS
10
0.414061
20
0.312999
11
0.413051
21
0.313177
0
LINE
8
BLACK
6
CONTINUOUS
10
0.413051
20
0.313177
11
0.412916
21
0.313291
0
LINE
8
BLACK
6
CONTINUOUS
10
0.412916
20
0.313291
11
0.41274
21
0.313311
0
LINE
8
BLACK
6
CONTINUOUS
10
0.41274
20
0.313311
11
0.408991
21
0.315186
0
LINE
8
BLACK
6
CONTINUOUS
10
0.408991
20
0.315186
11
0.408282
21
0.315712
0
LINE
8
BLACK
6
CONTINUOUS
10
0.408282
20
0.315712
11
0.408223
21
0.315739
0
LINE
8
BLACK
6
CONTINUOUS
10
0.408223
20
0.315739
11
0.406348
21
0.317614
0
LINE
8
BLACK
6
CONTINUOUS
10
0.406348
20
0.317614
11
0.405842
21
0.318337
0
LINE
8
BLACK
6
CONTINUOUS
10
0.405842
20
0.318337
11
0.405795
21
0.318381
0
LINE
8
BLACK
6
CONTINUOUS
10
0.405795
20
0.318381
11
0.403921
21
0.322131
0
LINE
8
BLACK
6
CONTINUOUS
10
0.403921
20
0.322131
11
0.403775
21
0.322619
0
LINE
8
BLACK
6
CONTINUOUS
10
0.403775
20
0.322619
11
0.403697
21
0.322735
0
LINE
8
BLACK
6
CONTINUOUS
10
0.403697
20
0.322735
11
0.401822
21
0.330234
0
LINE
8
BLACK
6
CONTINUOUS
10
0.401822
20
0.330234
11
0.401781
21
0.330822
0
LINE
8
BLACK
6
CONTINUOUS
10
0.401781
20
0.330822
11
0.401734
21
0.33095
0
LINE
8
BLACK
6
CONTINUOUS
10
0.401734
20
0.33095
11
0.401734
21
0.340324
0
LINE
8
BLACK
6
CONTINUOUS
10
0.401734
20
0.340324
11
0.401836
21
0.340904
0
LINE
8
BLACK
6
CONTINUOUS
10
0.401836
20
0.340904
11
0.401822
21
0.34104
0
LINE
8
BLACK
6
CONTINUOUS
10
0.401822
20
0.34104
11
0.403697
21
0.348539
0
LINE
8
BLACK
6
CONTINUOUS
10
0.403697
20
0.348539
11
0.403905
21
0.349005
0
LINE
8
BLACK
6
CONTINUOUS
10
0.403905
20
0.349005
11
0.403921
21
0.349144
0
LINE
8
BLACK
6
CONTINUOUS
10
0.403921
20
0.349144
11
0.405795
21
0.352893
0
LINE
8
BLACK
6
CONTINUOUS
10
0.405795
20
0.352893
11
0.406321
21
0.353602
0
LINE
8
BLACK
6
CONTINUOUS
10
0.406321
20
0.353602
11
0.406349
21
0.35366
0
LINE
8
BLACK
6
CONTINUOUS
10
0.406349
20
0.35366
11
0.408223
21
0.355535
0
LINE
8
BLACK
6
CONTINUOUS
10
0.408223
20
0.355535
11
0.408946
21
0.356042
0
LINE
8
BLACK
6
CONTINUOUS
10
0.408946
20
0.356042
11
0.408991
21
0.356088
0
LINE
8
BLACK
6
CONTINUOUS
10
0.408991
20
0.356088
11
0.41274
21
0.357963
0
LINE
8
BLACK
6
CONTINUOUS
10
0.41274
20
0.357963
11
0.413723
21
0.358255
0
LINE
8
BLACK
6
CONTINUOUS
10
0.413723
20
0.358255
11
0.413895
21
0.358214
0
LINE
8
BLACK
6
CONTINUOUS
10
0.413895
20
0.358214
11
0.414061
21
0.358275
0
LINE
8
BLACK
6
CONTINUOUS
10
0.414061
20
0.358275
11
0.41781
21
0.358275
0
LINE
8
BLACK
6
CONTINUOUS
10
0.41781
20
0.358275
11
0.41882
21
0.358097
0
LINE
8
BLACK
6
CONTINUOUS
10
0.41206
20
0.351021
11
0.410863
21
0.349824
0
LINE
8
BLACK
6
CONTINUOUS
10
0.410863
20
0.349824
11
0.409348
21
0.346792
0
LINE
8
BLACK
6
CONTINUOUS
10
0.409348
20
0.346792
11
0.40764
21
0.33996
0
LINE
8
BLACK
6
CONTINUOUS
10
0.40764
20
0.33996
11
0.40764
21
0.331314
0
LINE
8
BLACK
6
CONTINUOUS
10
0.40764
20
0.331314
11
0.409348
21
0.324482
0
LINE
8
BLACK
6
CONTINUOUS
10
0.409348
20
0.324482
11
0.410863
21
0.321451
0
LINE
8
BLACK
6
CONTINUOUS
10
0.410863
20
0.321451
11
0.41206
21
0.320254
0
LINE
8
BLACK
6
CONTINUOUS
10
0.41206
20
0.320254
11
0.414758
21
0.318905
0
LINE
8
BLACK
6
CONTINUOUS
10
0.414758
20
0.318905
11
0.417113
21
0.318905
0
LINE
8
BLACK
6
CONTINUOUS
10
0.417113
20
0.318905
11
0.419811
21
0.320254
0
LINE
8
BLACK
6
CONTINUOUS
10
0.419811
20
0.320254
11
0.421008
21
0.321451
0
LINE
8
BLACK
6
CONTINUOUS
10
0.421008
20
0.321451
11
0.422523
21
0.324482
0
LINE
8
BLACK
6
CONTINUOUS
10
0.422523
20
0.324482
11
0.424231
21
0.331314
0
LINE
8
BLACK
6
CONTINUOUS
10
0.424231
20
0.331314
11
0.424231
21
0.33996
0
LINE
8
BLACK
6
CONTINUOUS
10
0.424231
20
0.33996
11
0.422523
21
0.346793
0
LINE
8
BLACK
6
CONTINUOUS
10
0.422523
20
0.346793
11
0.421008
21
0.349824
0
LINE
8
BLACK
6
CONTINUOUS
10
0.421008
20
0.349824
11
0.419811
21
0.351021
0
LINE
8
BLACK
6
CONTINUOUS
10
0.419811
20
0.351021
11
0.417113
21
0.352369
0
LINE
8
BLACK
6
CONTINUOUS
10
0.417113
20
0.352369
11
0.414758
21
0.352369
0
LINE
8
BLACK
6
CONTINUOUS
10
0.414758
20
0.352369
11
0.41206
21
0.351021
0
LINE
8
BLACK
6
CONTINUOUS
10
0.454091
20
0.358145
11
0.45426
21
0.358156
0
LINE
8
BLACK
6
CONTINUOUS
10
0.45426
20
0.358156
11
0.454951
21
0.357649
0
LINE
8
BLACK
6
CONTINUOUS
10
0.454951
20
0.357649
11
0.455693
21
0.35722
0
LINE
8
BLACK
6
CONTINUOUS
10
0.455693
20
0.35722
11
0.455751
21
0.357061
0
LINE
8
BLACK
6
CONTINUOUS
10
0.455751
20
0.357061
11
0.455888
21
0.35696
0
LINE
8
BLACK
6
CONTINUOUS
10
0.455888
20
0.35696
11
0.459475
21
0.351579
0
LINE
8
BLACK
6
CONTINUOUS
10
0.459475
20
0.351579
11
0.462679
21
0.348375
0
LINE
8
BLACK
6
CONTINUOUS
10
0.462679
20
0.348375
11
0.466
21
0.346715
0
LINE
8
BLACK
6
CONTINUOUS
10
0.466
20
0.346715
11
0.466824
21
0.346104
0
LINE
8
BLACK
6
CONTINUOUS
10
0.466824
20
0.346104
11
0.467627
21
0.34425
0
LINE
8
BLACK
6
CONTINUOUS
10
0.467627
20
0.34425
11
0.467051
21
0.342314
0
LINE
8
BLACK
6
CONTINUOUS
10
0.467051
20
0.342314
11
0.465365
21
0.341202
0
LINE
8
BLACK
6
CONTINUOUS
10
0.465365
20
0.341202
11
0.463359
21
0.341432
0
LINE
8
BLACK
6
CONTINUOUS
10
0.463359
20
0.341432
11
0.459609
21
0.343307
0
LINE
8
BLACK
6
CONTINUOUS
10
0.459609
20
0.343307
11
0.4589
21
0.343833
0
LINE
8
BLACK
6
CONTINUOUS
10
0.4589
20
0.343833
11
0.458842
21
0.34386
0
LINE
8
BLACK
6
CONTINUOUS
10
0.458842
20
0.34386
11
0.456384
21
0.346319
0
LINE
8
BLACK
6
CONTINUOUS
10
0.456384
20
0.346319
11
0.456384
21
0.318905
0
LINE
8
BLACK
6
CONTINUOUS
10
0.456384
20
0.318905
11
0.464679
21
0.318905
0
LINE
8
BLACK
6
CONTINUOUS
10
0.464679
20
0.318905
11
0.465689
21
0.318727
0
LINE
8
BLACK
6
CONTINUOUS
10
0.465689
20
0.318727
11
0.467237
21
0.317428
0
LINE
8
BLACK
6
CONTINUOUS
10
0.467237
20
0.317428
11
0.467587
21
0.315439
0
LINE
8
BLACK
6
CONTINUOUS
10
0.467587
20
0.315439
11
0.466577
21
0.31369
0
LINE
8
BLACK
6
CONTINUOUS
10
0.466577
20
0.31369
11
0.464679
21
0.312999
0
LINE
8
BLACK
6
CONTINUOUS
10
0.464679
20
0.312999
11
0.442182
21
0.312999
0
LINE
8
BLACK
6
CONTINUOUS
10
0.442182
20
0.312999
11
0.441172
21
0.313177
0
LINE
8
BLACK
6
CONTINUOUS
10
0.441172
20
0.313177
11
0.439625
21
0.314476
0
LINE
8
BLACK
6
CONTINUOUS
10
0.439625
20
0.314476
11
0.439274
21
0.316465
0
LINE
8
BLACK
6
CONTINUOUS
10
0.439274
20
0.316465
11
0.440284
21
0.318214
0
LINE
8
BLACK
6
CONTINUOUS
10
0.440284
20
0.318214
11
0.442182
21
0.318905
0
LINE
8
BLACK
6
CONTINUOUS
10
0.442182
20
0.318905
11
0.450478
21
0.318905
0
LINE
8
BLACK
6
CONTINUOUS
10
0.450478
20
0.318905
11
0.450478
21
0.355322
0
LINE
8
BLACK
6
CONTINUOUS
10
0.450478
20
0.355322
11
0.450656
21
0.356332
0
LINE
8
BLACK
6
CONTINUOUS
10
0.450656
20
0.356332
11
0.450765
21
0.356462
0
LINE
8
BLACK
6
CONTINUOUS
10
0.450765
20
0.356462
11
0.450784
21
0.356631
0
LINE
8
BLACK
6
CONTINUOUS
10
0.450784
20
0.356631
11
0.451404
21
0.357223
0
LINE
8
BLACK
6
CONTINUOUS
10
0.451404
20
0.357223
11
0.451954
21
0.357879
0
LINE
8
BLACK
6
CONTINUOUS
10
0.451954
20
0.357879
11
0.452122
21
0.357909
0
LINE
8
BLACK
6
CONTINUOUS
10
0.452122
20
0.357909
11
0.452244
21
0.358026
0
LINE
8
BLACK
6
CONTINUOUS
10
0.452244
20
0.358026
11
0.4531
21
0.358081
0
LINE
8
BLACK
6
CONTINUOUS
10
0.4531
20
0.358081
11
0.453944
21
0.35823
0
LINE
8
BLACK
6
CONTINUOUS
10
0.453944
20
0.35823
11
0.454091
21
0.358145
0
LINE
8
BLACK
6
CONTINUOUS
10
0.352577
20
0.358207
11
0.352706
21
0.35823
0
LINE
8
BLACK
6
CONTINUOUS
10
0.352706
20
0.35823
11
0.35282
21
0.358164
0
LINE
8
BLACK
6
CONTINUOUS
10
0.35282
20
0.358164
11
0.353203
21
0.358097
0
LINE
8
BLACK
6
CONTINUOUS
10
0.353203
20
0.358097
11
0.353791
21
0.357604
0
LINE
8
BLACK
6
CONTINUOUS
10
0.353791
20
0.357604
11
0.354455
21
0.35722
0
LINE
8
BLACK
6
CONTINUOUS
10
0.354455
20
0.35722
11
0.354546
21
0.35697
0
LINE
8
BLACK
6
CONTINUOUS
10
0.354546
20
0.35697
11
0.354751
21
0.356798
0
LINE
8
BLACK
6
CONTINUOUS
10
0.354751
20
0.356798
11
0.354884
21
0.356043
0
LINE
8
BLACK
6
CONTINUOUS
10
0.354884
20
0.356043
11
0.355146
21
0.355322
0
LINE
8
BLACK
6
CONTINUOUS
10
0.355146
20
0.355322
11
0.355146
21
0.315952
0
LINE
8
BLACK
6
CONTINUOUS
10
0.355146
20
0.315952
11
0.354968
21
0.314942
0
LINE
8
BLACK
6
CONTINUOUS
10
0.354968
20
0.314942
11
0.35367
21
0.313395
0
LINE
8
BLACK
6
CONTINUOUS
10
0.35367
20
0.313395
11
0.351681
21
0.313044
0
LINE
8
BLACK
6
CONTINUOUS
10
0.351681
20
0.313044
11
0.349931
21
0.314054
0
LINE
8
BLACK
6
CONTINUOUS
10
0.349931
20
0.314054
11
0.349241
21
0.315952
0
LINE
8
BLACK
6
CONTINUOUS
10
0.349241
20
0.315952
11
0.349241
21
0.333622
0
LINE
8
BLACK
6
CONTINUOUS
10
0.349241
20
0.333622
11
0.33907
21
0.333622
0
LINE
8
BLACK
6
CONTINUOUS
10
0.33907
20
0.333622
11
0.33806
21
0.3338
0
LINE
8
BLACK
6
CONTINUOUS
10
0.33806
20
0.3338
11
0.336513
21
0.335098
0
LINE
8
BLACK
6
CONTINUOUS
10
0.336513
20
0.335098
11
0.336162
21
0.337087
0
LINE
8
BLACK
6
CONTINUOUS
10
0.336162
20
0.337087
11
0.337172
21
0.338836
0
LINE
8
BLACK
6
CONTINUOUS
10
0.337172
20
0.338836
11
0.33907
21
0.339527
0
LINE
8
BLACK
6
CONTINUOUS
10
0.33907
20
0.339527
11
0.349241
21
0.339527
0
LINE
8
BLACK
6
CONTINUOUS
10
0.349241
20
0.339527
11
0.349241
21
0.352369
0
LINE
8
BLACK
6
CONTINUOUS
10
0.349241
20
0.352369
11
0.333446
21
0.352369
0
LINE
8
BLACK
6
CONTINUOUS
10
0.333446
20
0.352369
11
0.332436
21
0.352547
0
LINE
8
BLACK
6
CONTINUOUS
10
0.332436
20
0.352547
11
0.330889
21
0.353846
0
LINE
8
BLACK
6
CONTINUOUS
10
0.330889
20
0.353846
11
0.330538
21
0.355835
0
LINE
8
BLACK
6
CONTINUOUS
10
0.330538
20
0.355835
11
0.331548
21
0.357584
0
LINE
8
BLACK
6
CONTINUOUS
10
0.331548
20
0.357584
11
0.333446
21
0.358275
0
LINE
8
BLACK
6
CONTINUOUS
10
0.333446
20
0.358275
11
0.352193
21
0.358275
0
LINE
8
BLACK
6
CONTINUOUS
10
0.352193
20
0.358275
11
0.352577
21
0.358207
0
LINE
8
BLACK
6
CONTINUOUS
10
0.390307
20
0.412255
11
0.390466
21
0.412286
0
LINE
8
BLACK
6
CONTINUOUS
10
0.390466
20
0.412286
11
0.390847
21
0.412031
0
LINE
8
BLACK
6
CONTINUOUS
10
0.390847
20
0.412031
11
0.391271
21
0.411856
0
LINE
8
BLACK
6
CONTINUOUS
10
0.391271
20
0.411856
11
0.391333
21
0.411706
0
LINE
8
BLACK
6
CONTINUOUS
10
0.391333
20
0.411706
11
0.391468
21
0.411616
0
LINE
8
BLACK
6
CONTINUOUS
10
0.391468
20
0.411616
11
0.393256
21
0.408933
0
LINE
8
BLACK
6
CONTINUOUS
10
0.393256
20
0.408933
11
0.39484
21
0.407349
0
LINE
8
BLACK
6
CONTINUOUS
10
0.39484
20
0.407349
11
0.396486
21
0.406526
0
LINE
8
BLACK
6
CONTINUOUS
10
0.396486
20
0.406526
11
0.397276
21
0.405616
0
LINE
8
BLACK
6
CONTINUOUS
10
0.397276
20
0.405616
11
0.39719
21
0.404414
0
LINE
8
BLACK
6
CONTINUOUS
10
0.39719
20
0.404414
11
0.39628
21
0.403624
0
LINE
8
BLACK
6
CONTINUOUS
10
0.39628
20
0.403624
11
0.395077
21
0.403709
0
LINE
8
BLACK
6
CONTINUOUS
10
0.395077
20
0.403709
11
0.393203
21
0.404647
0
LINE
8
BLACK
6
CONTINUOUS
10
0.393203
20
0.404647
11
0.393033
21
0.404843
0
LINE
8
BLACK
6
CONTINUOUS
10
0.393033
20
0.404843
11
0.392793
21
0.404942
0
LINE
8
BLACK
6
CONTINUOUS
10
0.392793
20
0.404942
11
0.391732
21
0.406003
0
LINE
8
BLACK
6
CONTINUOUS
10
0.391732
20
0.406003
11
0.391732
21
0.392632
0
LINE
8
BLACK
6
CONTINUOUS
10
0.391732
20
0.392632
11
0.395782
21
0.392632
0
LINE
8
BLACK
6
CONTINUOUS
10
0.395782
20
0.392632
11
0.396895
21
0.392171
0
LINE
8
BLACK
6
CONTINUOUS
10
0.396895
20
0.392171
11
0.397357
21
0.391057
0
LINE
8
BLACK
6
CONTINUOUS
10
0.397357
20
0.391057
11
0.396895
21
0.389944
0
LINE
8
BLACK
6
CONTINUOUS
10
0.396895
20
0.389944
11
0.395782
21
0.389482
0
LINE
8
BLACK
6
CONTINUOUS
10
0.395782
20
0.389482
11
0.390157
21
0.389482
0
LINE
8
BLACK
6
CONTINUOUS
10
0.390157
20
0.389482
11
0.384533
21
0.389482
0
LINE
8
BLACK
6
CONTINUOUS
10
0.384533
20
0.389482
11
0.38342
21
0.389944
0
LINE
8
BLACK
6
CONTINUOUS
10
0.38342
20
0.389944
11
0.382958
21
0.391057
0
LINE
8
BLACK
6
CONTINUOUS
10
0.382958
20
0.391057
11
0.38342
21
0.392171
0
LINE
8
BLACK
6
CONTINUOUS
10
0.38342
20
0.392171
11
0.384533
21
0.392632
0
LINE
8
BLACK
6
CONTINUOUS
10
0.384533
20
0.392632
11
0.388583
21
0.392632
0
LINE
8
BLACK
6
CONTINUOUS
10
0.388583
20
0.392632
11
0.388583
21
0.410742
0
LINE
8
BLACK
6
CONTINUOUS
10
0.388583
20
0.410742
11
0.388645
21
0.410892
0
LINE
8
BLACK
6
CONTINUOUS
10
0.388645
20
0.410892
11
0.388613
21
0.411051
0
LINE
8
BLACK
6
CONTINUOUS
10
0.388613
20
0.411051
11
0.388868
21
0.411432
0
LINE
8
BLACK
6
CONTINUOUS
10
0.388868
20
0.411432
11
0.389044
21
0.411856
0
LINE
8
BLACK
6
CONTINUOUS
10
0.389044
20
0.411856
11
0.389194
21
0.411918
0
LINE
8
BLACK
6
CONTINUOUS
10
0.389194
20
0.411918
11
0.389284
21
0.412052
0
LINE
8
BLACK
6
CONTINUOUS
10
0.389284
20
0.412052
11
0.389734
21
0.412141
0
LINE
8
BLACK
6
CONTINUOUS
10
0.389734
20
0.412141
11
0.390157
21
0.412317
0
LINE
8
BLACK
6
CONTINUOUS
10
0.390157
20
0.412317
11
0.390307
21
0.412255
0
LINE
8
BLACK
6
CONTINUOUS
10
0.409145
20
0.412218
11
0.409403
21
0.412236
0
LINE
8
BLACK
6
CONTINUOUS
10
0.409403
20
0.412236
11
0.412215
21
0.411299
0
LINE
8
BLACK
6
CONTINUOUS
10
0.412215
20
0.411299
11
0.412492
21
0.411059
0
LINE
8
BLACK
6
CONTINUOUS
10
0.412492
20
0.411059
11
0.412831
21
0.410918
0
LINE
8
BLACK
6
CONTINUOUS
10
0.412831
20
0.410918
11
0.414706
21
0.409044
0
LINE
8
BLACK
6
CONTINUOUS
10
0.414706
20
0.409044
11
0.414805
21
0.408804
0
LINE
8
BLACK
6
CONTINUOUS
10
0.414805
20
0.408804
11
0.415001
21
0.408634
0
LINE
8
BLACK
6
CONTINUOUS
10
0.415001
20
0.408634
11
0.415938
21
0.40676
0
LINE
8
BLACK
6
CONTINUOUS
10
0.415938
20
0.40676
11
0.415951
21
0.406581
0
LINE
8
BLACK
6
CONTINUOUS
10
0.415951
20
0.406581
11
0.416057
21
0.406437
0
LINE
8
BLACK
6
CONTINUOUS
10
0.416057
20
0.406437
11
0.416995
21
0.402688
0
LINE
8
BLACK
6
CONTINUOUS
10
0.416995
20
0.402688
11
0.416965
21
0.40249
0
LINE
8
BLACK
6
CONTINUOUS
10
0.416965
20
0.40249
11
0.417042
21
0.402306
0
LINE
8
BLACK
6
CONTINUOUS
10
0.417042
20
0.402306
11
0.417042
21
0.399494
0
LINE
8
BLACK
6
CONTINUOUS
10
0.417042
20
0.399494
11
0.416965
21
0.399309
0
LINE
8
BLACK
6
CONTINUOUS
10
0.416965
20
0.399309
11
0.416995
21
0.399112
0
LINE
8
BLACK
6
CONTINUOUS
10
0.416995
20
0.399112
11
0.416057
21
0.395362
0
LINE
8
BLACK
6
CONTINUOUS
10
0.416057
20
0.395362
11
0.415951
21
0.395218
0
LINE
8
BLACK
6
CONTINUOUS
10
0.415951
20
0.395218
11
0.415938
21
0.39504
0
LINE
8
BLACK
6
CONTINUOUS
10
0.415938
20
0.39504
11
0.415001
21
0.393165
0
LINE
8
BLACK
6
CONTINUOUS
10
0.415001
20
0.393165
11
0.414805
21
0.392995
0
LINE
8
BLACK
6
CONTINUOUS
10
0.414805
20
0.392995
11
0.414706
21
0.392756
0
LINE
8
BLACK
6
CONTINUOUS
10
0.414706
20
0.392756
11
0.412831
21
0.390881
0
LINE
8
BLACK
6
CONTINUOUS
10
0.412831
20
0.390881
11
0.412492
21
0.390741
0
LINE
8
BLACK
6
CONTINUOUS
10
0.412492
20
0.390741
11
0.412215
21
0.390501
0
LINE
8
BLACK
6
CONTINUOUS
10
0.412215
20
0.390501
11
0.409403
21
0.389563
0
LINE
8
BLACK
6
CONTINUOUS
10
0.409403
20
0.389563
11
0.409145
21
0.389582
0
LINE
8
BLACK
6
CONTINUOUS
10
0.409145
20
0.389582
11
0.408905
21
0.389482
0
LINE
8
BLACK
6
CONTINUOUS
10
0.408905
20
0.389482
11
0.40703
21
0.389482
0
LINE
8
BLACK
6
CONTINUOUS
10
0.40703
20
0.389482
11
0.406791
21
0.389581
0
LINE
8
BLACK
6
CONTINUOUS
10
0.406791
20
0.389581
11
0.406532
21
0.389563
0
LINE
8
BLACK
6
CONTINUOUS
10
0.406532
20
0.389563
11
0.40372
21
0.390501
0
LINE
8
BLACK
6
CONTINUOUS
10
0.40372
20
0.390501
11
0.403443
21
0.390741
0
LINE
8
BLACK
6
CONTINUOUS
10
0.403443
20
0.390741
11
0.403105
21
0.390881
0
LINE
8
BLACK
6
CONTINUOUS
10
0.403105
20
0.390881
11
0.402167
21
0.391818
0
LINE
8
BLACK
6
CONTINUOUS
10
0.402167
20
0.391818
11
0.401706
21
0.392932
0
LINE
8
BLACK
6
CONTINUOUS
10
0.401706
20
0.392932
11
0.402167
21
0.394045
0
LINE
8
BLACK
6
CONTINUOUS
10
0.402167
20
0.394045
11
0.403281
21
0.394507
0
LINE
8
BLACK
6
CONTINUOUS
10
0.403281
20
0.394507
11
0.404394
21
0.394045
0
LINE
8
BLACK
6
CONTINUOUS
10
0.404394
20
0.394045
11
0.405069
21
0.393371
0
LINE
8
BLACK
6
CONTINUOUS
10
0.405069
20
0.393371
11
0.407286
21
0.392632
0
LINE
8
BLACK
6
CONTINUOUS
10
0.407286
20
0.392632
11
0.40865
21
0.392632
0
LINE
8
BLACK
6
CONTINUOUS
10
0.40865
20
0.392632
11
0.410867
21
0.393371
0
LINE
8
BLACK
6
CONTINUOUS
10
0.410867
20
0.393371
11
0.412298
21
0.394802
0
LINE
8
BLACK
6
CONTINUOUS
10
0.412298
20
0.394802
11
0.413044
21
0.396294
0
LINE
8
BLACK
6
CONTINUOUS
10
0.413044
20
0.396294
11
0.413892
21
0.399687
0
LINE
8
BLACK
6
CONTINUOUS
10
0.413892
20
0.399687
11
0.413892
21
0.402112
0
LINE
8
BLACK
6
CONTINUOUS
10
0.413892
20
0.402112
11
0.413044
21
0.405506
0
LINE
8
BLACK
6
CONTINUOUS
10
0.413044
20
0.405506
11
0.412298
21
0.406997
0
LINE
8
BLACK
6
CONTINUOUS
10
0.412298
20
0.406997
11
0.410867
21
0.408428
0
LINE
8
BLACK
6
CONTINUOUS
10
0.410867
20
0.408428
11
0.40865
21
0.409167
0
LINE
8
BLACK
6
CONTINUOUS
10
0.40865
20
0.409167
11
0.407286
21
0.409167
0
LINE
8
BLACK
6
CONTINUOUS
10
0.407286
20
0.409167
11
0.405069
21
0.408428
0
LINE
8
BLACK
6
CONTINUOUS
10
0.405069
20
0.408428
11
0.404394
21
0.407754
0
LINE
8
BLACK
6
CONTINUOUS
10
0.404394
20
0.407754
11
0.403281
21
0.407293
0
LINE
8
BLACK
6
CONTINUOUS
10
0.403281
20
0.407293
11
0.402167
21
0.407754
0
LINE
8
BLACK
6
CONTINUOUS
10
0.402167
20
0.407754
11
0.401706
21
0.408867
0
LINE
8
BLACK
6
CONTINUOUS
10
0.401706
20
0.408867
11
0.402167
21
0.409981
0
LINE
8
BLACK
6
CONTINUOUS
10
0.402167
20
0.409981
11
0.403105
21
0.410918
0
LINE
8
BLACK
6
CONTINUOUS
10
0.403105
20
0.410918
11
0.403443
21
0.411059
0
LINE
8
BLACK
6
CONTINUOUS
10
0.403443
20
0.411059
11
0.40372
21
0.411299
0
LINE
8
BLACK
6
CONTINUOUS
10
0.40372
20
0.411299
11
0.406532
21
0.412236
0
LINE
8
BLACK
6
CONTINUOUS
10
0.406532
20
0.412236
11
0.406791
21
0.412218
0
LINE
8
BLACK
6
CONTINUOUS
10
0.406791
20
0.412218
11
0.40703
21
0.412317
0
LINE
8
BLACK
6
CONTINUOUS
10
0.40703
20
0.412317
11
0.408905
21
0.412317
0
LINE
8
BLACK
6
CONTINUOUS
10
0.408905
20
0.412317
11
0.409145
21
0.412218
0
LINE
8
BLACK
6
CONTINUOUS
10
0.43937
20
0.426575
11
0.440762
21
0.425998
0
LINE
8
BLACK
6
CONTINUOUS
10
0.440762
20
0.425998
11
0.441339
21
0.424606
0
LINE
8
BLACK
6
CONTINUOUS
10
0.441339
20
0.424606
11
0.441339
21
0.375394
0
LINE
8
BLACK
6
CONTINUOUS
10
0.441339
20
0.375394
11
0.440762
21
0.374002
0
LINE
8
BLACK
6
CONTINUOUS
10
0.440762
20
0.374002
11
0.43937
21
0.373425
0
LINE
8
BLACK
6
CONTINUOUS
10
0.43937
20
0.373425
11
0.36063
21
0.373425
0
LINE
8
BLACK
6
CONTINUOUS
10
0.36063
20
0.373425
11
0.359238
21
0.374002
0
LINE
8
BLACK
6
CONTINUOUS
10
0.359238
20
0.374002
11
0.358661
21
0.375394
0
LINE
8
BLACK
6
CONTINUOUS
10
0.358661
20
0.375394
11
0.358661
21
0.424606
0
LINE
8
BLACK
6
CONTINUOUS
10
0.358661
20
0.424606
11
0.359238
21
0.425998
0
LINE
8
BLACK
6
CONTINUOUS
10
0.359238
20
0.425998
11
0.36063
21
0.426575
0
LINE
8
BLACK
6
CONTINUOUS
10
0.36063
20
0.426575
11
0.43937
21
0.426575
0
LINE
8
BLACK
6
CONTINUOUS
10
0.362598
20
0.422638
11
0.362598
21
0.377362
0
LINE
8
BLACK
6
CONTINUOUS
10
0.362598
20
0.377362
11
0.437402
21
0.377362
0
LINE
8
BLACK
6
CONTINUOUS
10
0.437402
20
0.377362
11
0.437402
21
0.422638
0
LINE
8
BLACK
6
CONTINUOUS
10
0.437402
20
0.422638
11
0.362598
21
0.422638
0
LINE
8
BLACK
6
CONTINUOUS
10
0.680402
20
0.527908
11
0.681093
21
0.52601
0
LINE
8
BLACK
6
CONTINUOUS
10
0.681093
20
0.52601
11
0.681093
21
0.524833
0
LINE
8
BLACK
6
CONTINUOUS
10
0.681093
20
0.524833
11
0.682442
21
0.522135
0
LINE
8
BLACK
6
CONTINUOUS
10
0.682442
20
0.522135
11
0.683978
21
0.520599
0
LINE
8
BLACK
6
CONTINUOUS
10
0.683978
20
0.520599
11
0.684566
21
0.519759
0
LINE
8
BLACK
6
CONTINUOUS
10
0.684566
20
0.519759
11
0.684742
21
0.517747
0
LINE
8
BLACK
6
CONTINUOUS
10
0.684742
20
0.517747
11
0.683583
21
0.516092
0
LINE
8
BLACK
6
CONTINUOUS
10
0.683583
20
0.516092
11
0.681632
21
0.51557
0
LINE
8
BLACK
6
CONTINUOUS
10
0.681632
20
0.51557
11
0.679802
21
0.516423
0
LINE
8
BLACK
6
CONTINUOUS
10
0.679802
20
0.516423
11
0.677927
21
0.518298
0
LINE
8
BLACK
6
CONTINUOUS
10
0.677927
20
0.518298
11
0.677421
21
0.519021
0
LINE
8
BLACK
6
CONTINUOUS
10
0.677421
20
0.519021
11
0.677374
21
0.519065
0
LINE
8
BLACK
6
CONTINUOUS
10
0.677374
20
0.519065
11
0.675499
21
0.522815
0
LINE
8
BLACK
6
CONTINUOUS
10
0.675499
20
0.522815
11
0.675207
21
0.523798
0
LINE
8
BLACK
6
CONTINUOUS
10
0.675207
20
0.523798
11
0.675248
21
0.52397
0
LINE
8
BLACK
6
CONTINUOUS
10
0.675248
20
0.52397
11
0.675187
21
0.524135
0
LINE
8
BLACK
6
CONTINUOUS
10
0.675187
20
0.524135
11
0.675187
21
0.52601
0
LINE
8
BLACK
6
CONTINUOUS
10
0.675187
20
0.52601
11
0.675366
21
0.52702
0
LINE
8
BLACK
6
CONTINUOUS
10
0.675366
20
0.52702
11
0.676664
21
0.528567
0
LINE
8
BLACK
6
CONTINUOUS
10
0.676664
20
0.528567
11
0.678653
21
0.528918
0
LINE
8
BLACK
6
CONTINUOUS
10
0.678653
20
0.528918
11
0.680402
21
0.527908
0
LINE
8
BLACK
6
CONTINUOUS
10
0.652903
20
0.56628
11
0.653039
21
0.566167
0
LINE
8
BLACK
6
CONTINUOUS
10
0.653039
20
0.566167
11
0.653214
21
0.566147
0
LINE
8
BLACK
6
CONTINUOUS
10
0.653214
20
0.566147
11
0.656964
21
0.564272
0
LINE
8
BLACK
6
CONTINUOUS
10
0.656964
20
0.564272
11
0.657673
21
0.563746
0
LINE
8
BLACK
6
CONTINUOUS
10
0.657673
20
0.563746
11
0.657731
21
0.563719
0
LINE
8
BLACK
6
CONTINUOUS
10
0.657731
20
0.563719
11
0.659606
21
0.561844
0
LINE
8
BLACK
6
CONTINUOUS
10
0.659606
20
0.561844
11
0.659864
21
0.561475
0
LINE
8
BLACK
6
CONTINUOUS
10
0.659864
20
0.561475
11
0.659975
21
0.561394
0
LINE
8
BLACK
6
CONTINUOUS
10
0.659975
20
0.561394
11
0.663724
21
0.55577
0
LINE
8
BLACK
6
CONTINUOUS
10
0.663724
20
0.55577
11
0.664122
21
0.554862
0
LINE
8
BLACK
6
CONTINUOUS
10
0.664122
20
0.554862
11
0.664132
21
0.554848
0
LINE
8
BLACK
6
CONTINUOUS
10
0.664132
20
0.554848
11
0.666007
21
0.547349
0
LINE
8
BLACK
6
CONTINUOUS
10
0.666007
20
0.547349
11
0.666048
21
0.546761
0
LINE
8
BLACK
6
CONTINUOUS
10
0.666048
20
0.546761
11
0.666095
21
0.546633
0
LINE
8
BLACK
6
CONTINUOUS
10
0.666095
20
0.546633
11
0.666095
21
0.531635
0
LINE
8
BLACK
6
CONTINUOUS
10
0.666095
20
0.531635
11
0.665917
21
0.530625
0
LINE
8
BLACK
6
CONTINUOUS
10
0.665917
20
0.530625
11
0.665803
21
0.530489
0
LINE
8
BLACK
6
CONTINUOUS
10
0.665803
20
0.530489
11
0.665783
21
0.530314
0
LINE
8
BLACK
6
CONTINUOUS
10
0.665783
20
0.530314
11
0.663908
21
0.526565
0
LINE
8
BLACK
6
CONTINUOUS
10
0.663908
20
0.526565
11
0.663382
21
0.525855
0
LINE
8
BLACK
6
CONTINUOUS
10
0.663382
20
0.525855
11
0.663355
21
0.525797
0
LINE
8
BLACK
6
CONTINUOUS
10
0.663355
20
0.525797
11
0.661481
21
0.523922
0
LINE
8
BLACK
6
CONTINUOUS
10
0.661481
20
0.523922
11
0.660757
21
0.523416
0
LINE
8
BLACK
6
CONTINUOUS
10
0.660757
20
0.523416
11
0.660713
21
0.523369
0
LINE
8
BLACK
6
CONTINUOUS
10
0.660713
20
0.523369
11
0.656964
21
0.521494
0
LINE
8
BLACK
6
CONTINUOUS
10
0.656964
20
0.521494
11
0.655981
21
0.521202
0
LINE
8
BLACK
6
CONTINUOUS
10
0.655981
20
0.521202
11
0.655809
21
0.521243
0
LINE
8
BLACK
6
CONTINUOUS
10
0.655809
20
0.521243
11
0.655643
21
0.521183
0
LINE
8
BLACK
6
CONTINUOUS
10
0.655643
20
0.521183
11
0.648144
21
0.521183
0
LINE
8
BLACK
6
CONTINUOUS
10
0.648144
20
0.521183
11
0.647134
21
0.521361
0
LINE
8
BLACK
6
CONTINUOUS
10
0.647134
20
0.521361
11
0.646999
21
0.521474
0
LINE
8
BLACK
6
CONTINUOUS
10
0.646999
20
0.521474
11
0.646823
21
0.521494
0
LINE
8
BLACK
6
CONTINUOUS
10
0.646823
20
0.521494
11
0.643074
21
0.523369
0
LINE
8
BLACK
6
CONTINUOUS
10
0.643074
20
0.523369
11
0.642365
21
0.523895
0
LINE
8
BLACK
6
CONTINUOUS
10
0.642365
20
0.523895
11
0.642306
21
0.523922
0
LINE
8
BLACK
6
CONTINUOUS
10
0.642306
20
0.523922
11
0.640432
21
0.525797
0
LINE
8
BLACK
6
CONTINUOUS
10
0.640432
20
0.525797
11
0.639925
21
0.52652
0
LINE
8
BLACK
6
CONTINUOUS
10
0.639925
20
0.52652
11
0.639879
21
0.526565
0
LINE
8
BLACK
6
CONTINUOUS
10
0.639879
20
0.526565
11
0.638004
21
0.530314
0
LINE
8
BLACK
6
CONTINUOUS
10
0.638004
20
0.530314
11
0.637712
21
0.531297
0
LINE
8
BLACK
6
CONTINUOUS
10
0.637712
20
0.531297
11
0.637753
21
0.531469
0
LINE
8
BLACK
6
CONTINUOUS
10
0.637753
20
0.531469
11
0.637692
21
0.531635
0
LINE
8
BLACK
6
CONTINUOUS
10
0.637692
20
0.531635
11
0.637692
21
0.541008
0
LINE
8
BLACK
6
CONTINUOUS
10
0.637692
20
0.541008
11
0.63787
21
0.542018
0
LINE
8
BLACK
6
CONTINUOUS
10
0.63787
20
0.542018
11
0.637984
21
0.542154
0
LINE
8
BLACK
6
CONTINUOUS
10
0.637984
20
0.542154
11
0.638004
21
0.542329
0
LINE
8
BLACK
6
CONTINUOUS
10
0.638004
20
0.542329
11
0.639879
21
0.546078
0
LINE
8
BLACK
6
CONTINUOUS
10
0.639879
20
0.546078
11
0.640405
21
0.546788
0
LINE
8
BLACK
6
CONTINUOUS
10
0.640405
20
0.546788
11
0.640432
21
0.546846
0
LINE
8
BLACK
6
CONTINUOUS
10
0.640432
20
0.546846
11
0.642307
21
0.548721
0
LINE
8
BLACK
6
CONTINUOUS
10
0.642307
20
0.548721
11
0.64303
21
0.549227
0
LINE
8
BLACK
6
CONTINUOUS
10
0.64303
20
0.549227
11
0.643074
21
0.549274
0
LINE
8
BLACK
6
CONTINUOUS
10
0.643074
20
0.549274
11
0.646823
21
0.551148
0
LINE
8
BLACK
6
CONTINUOUS
10
0.646823
20
0.551148
11
0.647806
21
0.551441
0
LINE
8
BLACK
6
CONTINUOUS
10
0.647806
20
0.551441
11
0.647978
21
0.5514
0
LINE
8
BLACK
6
CONTINUOUS
10
0.647978
20
0.5514
11
0.648144
21
0.55146
0
LINE
8
BLACK
6
CONTINUOUS
10
0.648144
20
0.55146
11
0.655643
21
0.55146
0
LINE
8
BLACK
6
CONTINUOUS
10
0.655643
20
0.55146
11
0.656653
21
0.551282
0
LINE
8
BLACK
6
CONTINUOUS
10
0.656653
20
0.551282
11
0.656788
21
0.551169
0
LINE
8
BLACK
6
CONTINUOUS
10
0.656788
20
0.551169
11
0.656964
21
0.551148
0
LINE
8
BLACK
6
CONTINUOUS
10
0.656964
20
0.551148
11
0.659256
21
0.550002
0
LINE
8
BLACK
6
CONTINUOUS
10
0.659256
20
0.550002
11
0.658527
21
0.552919
0
LINE
8
BLACK
6
CONTINUOUS
10
0.658527
20
0.552919
11
0.655223
21
0.557875
0
LINE
8
BLACK
6
CONTINUOUS
10
0.655223
20
0.557875
11
0.653894
21
0.559204
0
LINE
8
BLACK
6
CONTINUOUS
10
0.653894
20
0.559204
11
0.651196
21
0.560553
0
LINE
8
BLACK
6
CONTINUOUS
10
0.651196
20
0.560553
11
0.644394
21
0.560553
0
LINE
8
BLACK
6
CONTINUOUS
10
0.644394
20
0.560553
11
0.643385
21
0.560731
0
LINE
8
BLACK
6
CONTINUOUS
10
0.643385
20
0.560731
11
0.641837
21
0.562029
0
LINE
8
BLACK
6
CONTINUOUS
10
0.641837
20
0.562029
11
0.641487
21
0.564018
0
LINE
8
BLACK
6
CONTINUOUS
10
0.641487
20
0.564018
11
0.642496
21
0.565767
0
LINE
8
BLACK
6
CONTINUOUS
10
0.642496
20
0.565767
11
0.644394
21
0.566458
0
LINE
8
BLACK
6
CONTINUOUS
10
0.644394
20
0.566458
11
0.651894
21
0.566458
0
LINE
8
BLACK
6
CONTINUOUS
10
0.651894
20
0.566458
11
0.652903
21
0.56628
0
LINE
8
BLACK
6
CONTINUOUS
10
0.646144
20
0.544206
11
0.644946
21
0.543009
0
LINE
8
BLACK
6
CONTINUOUS
10
0.644946
20
0.543009
11
0.643598
21
0.540311
0
LINE
8
BLACK
6
CONTINUOUS
10
0.643598
20
0.540311
11
0.643598
21
0.532332
0
LINE
8
BLACK
6
CONTINUOUS
10
0.643598
20
0.532332
11
0.644946
21
0.529634
0
LINE
8
BLACK
6
CONTINUOUS
10
0.644946
20
0.529634
11
0.646144
21
0.528437
0
LINE
8
BLACK
6
CONTINUOUS
10
0.646144
20
0.528437
11
0.648841
21
0.527088
0
LINE
8
BLACK
6
CONTINUOUS
10
0.648841
20
0.527088
11
0.654946
21
0.527088
0
LINE
8
BLACK
6
CONTINUOUS
10
0.654946
20
0.527088
11
0.657643
21
0.528437
0
LINE
8
BLACK
6
CONTINUOUS
10
0.657643
20
0.528437
11
0.658841
21
0.529634
0
LINE
8
BLACK
6
CONTINUOUS
10
0.658841
20
0.529634
11
0.660189
21
0.532332
0
LINE
8
BLACK
6
CONTINUOUS
10
0.660189
20
0.532332
11
0.660189
21
0.540311
0
LINE
8
BLACK
6
CONTINUOUS
10
0.660189
20
0.540311
11
0.658841
21
0.543009
0
LINE
8
BLACK
6
CONTINUOUS
10
0.658841
20
0.543009
11
0.657643
21
0.544206
0
LINE
8
BLACK
6
CONTINUOUS
10
0.657643
20
0.544206
11
0.654946
21
0.545555
0
LINE
8
BLACK
6
CONTINUOUS
10
0.654946
20
0.545555
11
0.648841
21
0.545555
0
LINE
8
BLACK
6
CONTINUOUS
10
0.648841
20
0.545555
11
0.646144
21
0.544206
0
LINE
8
BLACK
6
CONTINUOUS
10
0.717664
20
0.566431
11
0.717731
21
0.56645
0
LINE
8
BLACK
6
CONTINUOUS
10
0.717731
20
0.56645
11
0.717843
21
0.5664
0
LINE
8
BLACK
6
CONTINUOUS
10
0.717843
20
0.5664
11
0.71852
21
0.56628
0
LINE
8
BLACK
6
CONTINUOUS
10
0.71852
20
0.56628
11
0.719001
21
0.565877
0
LINE
8
BLACK
6
CONTINUOUS
10
0.719001
20
0.565877
11
0.719572
21
0.565619
0
LINE
8
BLACK
6
CONTINUOUS
10
0.719572
20
0.565619
11
0.719751
21
0.565247
0
LINE
8
BLACK
6
CONTINUOUS
10
0.719751
20
0.565247
11
0.720067
21
0.564982
0
LINE
8
BLACK
6
CONTINUOUS
10
0.720067
20
0.564982
11
0.720176
21
0.564364
0
LINE
8
BLACK
6
CONTINUOUS
10
0.720176
20
0.564364
11
0.720448
21
0.563799
0
LINE
8
BLACK
6
CONTINUOUS
10
0.720448
20
0.563799
11
0.722323
21
0.545052
0
LINE
8
BLACK
6
CONTINUOUS
10
0.722323
20
0.545052
11
0.722246
21
0.544029
0
LINE
8
BLACK
6
CONTINUOUS
10
0.722246
20
0.544029
11
0.722235
21
0.544013
0
LINE
8
BLACK
6
CONTINUOUS
10
0.722235
20
0.544013
11
0.722237
21
0.543994
0
LINE
8
BLACK
6
CONTINUOUS
10
0.722237
20
0.543994
11
0.721669
21
0.543182
0
LINE
8
BLACK
6
CONTINUOUS
10
0.721669
20
0.543182
11
0.721109
21
0.54236
0
LINE
8
BLACK
6
CONTINUOUS
10
0.721109
20
0.54236
11
0.72109
21
0.542355
0
LINE
8
BLACK
6
CONTINUOUS
10
0.72109
20
0.542355
11
0.721079
21
0.542339
0
LINE
8
BLACK
6
CONTINUOUS
10
0.721079
20
0.542339
11
0.72012
21
0.542082
0
LINE
8
BLACK
6
CONTINUOUS
10
0.72012
20
0.542082
11
0.719164
21
0.541813
0
LINE
8
BLACK
6
CONTINUOUS
10
0.719164
20
0.541813
11
0.719146
21
0.541821
0
LINE
8
BLACK
6
CONTINUOUS
10
0.719146
20
0.541821
11
0.719128
21
0.541816
0
LINE
8
BLACK
6
CONTINUOUS
10
0.719128
20
0.541816
11
0.718229
21
0.542235
0
LINE
8
BLACK
6
CONTINUOUS
10
0.718229
20
0.542235
11
0.717323
21
0.542644
0
LINE
8
BLACK
6
CONTINUOUS
10
0.717323
20
0.542644
11
0.717315
21
0.542662
0
LINE
8
BLACK
6
CONTINUOUS
10
0.717315
20
0.542662
11
0.717297
21
0.54267
0
LINE
8
BLACK
6
CONTINUOUS
10
0.717297
20
0.54267
11
0.715761
21
0.544206
0
LINE
8
BLACK
6
CONTINUOUS
10
0.715761
20
0.544206
11
0.713064
21
0.545555
0
LINE
8
BLACK
6
CONTINUOUS
10
0.713064
20
0.545555
11
0.705084
21
0.545555
0
LINE
8
BLACK
6
CONTINUOUS
10
0.705084
20
0.545555
11
0.702386
21
0.544206
0
LINE
8
BLACK
6
CONTINUOUS
10
0.702386
20
0.544206
11
0.701189
21
0.543009
0
LINE
8
BLACK
6
CONTINUOUS
10
0.701189
20
0.543009
11
0.699841
21
0.540311
0
LINE
8
BLACK
6
CONTINUOUS
10
0.699841
20
0.540311
11
0.699841
21
0.532332
0
LINE
8
BLACK
6
CONTINUOUS
10
0.699841
20
0.532332
11
0.701189
21
0.529634
0
LINE
8
BLACK
6
CONTINUOUS
10
0.701189
20
0.529634
11
0.702386
21
0.528437
0
LINE
8
BLACK
6
CONTINUOUS
10
0.702386
20
0.528437
11
0.705084
21
0.527088
0
LINE
8
BLACK
6
CONTINUOUS
10
0.705084
20
0.527088
11
0.713064
21
0.527088
0
LINE
8
BLACK
6
CONTINUOUS
10
0.713064
20
0.527088
11
0.715761
21
0.528437
0
LINE
8
BLACK
6
CONTINUOUS
10
0.715761
20
0.528437
11
0.717297
21
0.529973
0
LINE
8
BLACK
6
CONTINUOUS
10
0.717297
20
0.529973
11
0.718137
21
0.530561
0
LINE
8
BLACK
6
CONTINUOUS
10
0.718137
20
0.530561
11
0.720149
21
0.530737
0
LINE
8
BLACK
6
CONTINUOUS
10
0.720149
20
0.530737
11
0.721804
21
0.529579
0
LINE
8
BLACK
6
CONTINUOUS
10
0.721804
20
0.529579
11
0.722327
21
0.527628
0
LINE
8
BLACK
6
CONTINUOUS
10
0.722327
20
0.527628
11
0.721473
21
0.525797
0
LINE
8
BLACK
6
CONTINUOUS
10
0.721473
20
0.525797
11
0.719598
21
0.523922
0
LINE
8
BLACK
6
CONTINUOUS
10
0.719598
20
0.523922
11
0.718875
21
0.523416
0
LINE
8
BLACK
6
CONTINUOUS
10
0.718875
20
0.523416
11
0.718831
21
0.523369
0
LINE
8
BLACK
6
CONTINUOUS
10
0.718831
20
0.523369
11
0.715081
21
0.521494
0
LINE
8
BLACK
6
CONTINUOUS
10
0.715081
20
0.521494
11
0.714098
21
0.521202
0
LINE
8
BLACK
6
CONTINUOUS
10
0.714098
20
0.521202
11
0.713927
21
0.521243
0
LINE
8
BLACK
6
CONTINUOUS
10
0.713927
20
0.521243
11
0.713761
21
0.521183
0
LINE
8
BLACK
6
CONTINUOUS
10
0.713761
20
0.521183
11
0.704387
21
0.521183
0
LINE
8
BLACK
6
CONTINUOUS
10
0.704387
20
0.521183
11
0.703377
21
0.521361
0
LINE
8
BLACK
6
CONTINUOUS
10
0.703377
20
0.521361
11
0.703242
21
0.521474
0
LINE
8
BLACK
6
CONTINUOUS
10
0.703242
20
0.521474
11
0.703066
21
0.521494
0
LINE
8
BLACK
6
CONTINUOUS
10
0.703066
20
0.521494
11
0.699317
21
0.523369
0
LINE
8
BLACK
6
CONTINUOUS
10
0.699317
20
0.523369
11
0.698608
21
0.523895
0
LINE
8
BLACK
6
CONTINUOUS
10
0.698608
20
0.523895
11
0.698549
21
0.523922
0
LINE
8
BLACK
6
CONTINUOUS
10
0.698549
20
0.523922
11
0.696675
21
0.525797
0
LINE
8
BLACK
6
CONTINUOUS
10
0.696675
20
0.525797
11
0.696168
21
0.52652
0
LINE
8
BLACK
6
CONTINUOUS
10
0.696168
20
0.52652
11
0.696122
21
0.526565
0
LINE
8
BLACK
6
CONTINUOUS
10
0.696122
20
0.526565
11
0.694247
21
0.530314
0
LINE
8
BLACK
6
CONTINUOUS
10
0.694247
20
0.530314
11
0.693954
21
0.531297
0
LINE
8
BLACK
6
CONTINUOUS
10
0.693954
20
0.531297
11
0.693995
21
0.531469
0
LINE
8
BLACK
6
CONTINUOUS
10
0.693995
20
0.531469
11
0.693935
21
0.531635
0
LINE
8
BLACK
6
CONTINUOUS
10
0.693935
20
0.531635
11
0.693935
21
0.541008
0
LINE
8
BLACK
6
CONTINUOUS
10
0.693935
20
0.541008
11
0.694113
21
0.542018
0
LINE
8
BLACK
6
CONTINUOUS
10
0.694113
20
0.542018
11
0.694227
21
0.542154
0
LINE
8
BLACK
6
CONTINUOUS
10
0.694227
20
0.542154
11
0.694247
21
0.542329
0
LINE
8
BLACK
6
CONTINUOUS
10
0.694247
20
0.542329
11
0.696122
21
0.546078
0
LINE
8
BLACK
6
CONTINUOUS
10
0.696122
20
0.546078
11
0.696648
21
0.546788
0
LINE
8
BLACK
6
CONTINUOUS
10
0.696648
20
0.546788
11
0.696675
21
0.546846
0
LINE
8
BLACK
6
CONTINUOUS
10
0.696675
20
0.546846
11
0.698549
21
0.548721
0
LINE
8
BLACK
6
CONTINUOUS
10
0.698549
20
0.548721
11
0.699273
21
0.549227
0
LINE
8
BLACK
6
CONTINUOUS
10
0.699273
20
0.549227
11
0.699317
21
0.549274
0
LINE
8
BLACK
6
CONTINUOUS
10
0.699317
20
0.549274
11
0.703066
21
0.551148
0
LINE
8
BLACK
6
CONTINUOUS
10
0.703066
20
0.551148
11
0.704049
21
0.551441
0
LINE
8
BLACK
6
CONTINUOUS
10
0.704049
20
0.551441
11
0.704221
21
0.5514
0
LINE
8
BLACK
6
CONTINUOUS
10
0.704221
20
0.5514
11
0.704387
21
0.55146
0
LINE
8
BLACK
6
CONTINUOUS
10
0.704387
20
0.55146
11
0.713761
21
0.55146
0
LINE
8
BLACK
6
CONTINUOUS
10
0.713761
20
0.55146
11
0.714771
21
0.551282
0
LINE
8
BLACK
6
CONTINUOUS
10
0.714771
20
0.551282
11
0.714906
21
0.551169
0
LINE
8
BLACK
6
CONTINUOUS
10
0.714906
20
0.551169
11
0.715081
21
0.551148
0
LINE
8
BLACK
6
CONTINUOUS
10
0.715081
20
0.551148
11
0.715815
21
0.550782
0
LINE
8
BLACK
6
CONTINUOUS
10
0.715815
20
0.550782
11
0.714838
21
0.560553
0
LINE
8
BLACK
6
CONTINUOUS
10
0.714838
20
0.560553
11
0.698763
21
0.560553
0
LINE
8
BLACK
6
CONTINUOUS
10
0.698763
20
0.560553
11
0.697753
21
0.560731
0
LINE
8
BLACK
6
CONTINUOUS
10
0.697753
20
0.560731
11
0.696205
21
0.562029
0
LINE
8
BLACK
6
CONTINUOUS
10
0.696205
20
0.562029
11
0.695855
21
0.564018
0
LINE
8
BLACK
6
CONTINUOUS
10
0.695855
20
0.564018
11
0.696865
21
0.565767
0
LINE
8
BLACK
6
CONTINUOUS
10
0.696865
20
0.565767
11
0.698763
21
0.566458
0
LINE
8
BLACK
6
CONTINUOUS
10
0.698763
20
0.566458
11
0.71751
21
0.566458
0
LINE
8
BLACK
6
CONTINUOUS
10
0.71751
20
0.566458
11
0.717664
21
0.566431
0
LINE
8
BLACK
6
CONTINUOUS
10
0.795245
20
0.566305
11
0.795309
21
0.566307
0
LINE
8
BLACK
6
CONTINUOUS
10
0.795309
20
0.566307
11
0.800934
21
0.564432
0
LINE
8
BLACK
6
CONTINUOUS
10
0.800934
20
0.564432
11
0.801835
21
0.563944
0
LINE
8
BLACK
6
CONTINUOUS
10
0.801835
20
0.563944
11
0.801928
21
0.563793
0
LINE
8
BLACK
6
CONTINUOUS
10
0.801928
20
0.563793
11
0.802088
21
0.563719
0
LINE
8
BLACK
6
CONTINUOUS
10
0.802088
20
0.563719
11
0.805837
21
0.559969
0
LINE
8
BLACK
6
CONTINUOUS
10
0.805837
20
0.559969
11
0.806344
21
0.559246
0
LINE
8
BLACK
6
CONTINUOUS
10
0.806344
20
0.559246
11
0.806391
21
0.559202
0
LINE
8
BLACK
6
CONTINUOUS
10
0.806391
20
0.559202
11
0.808265
21
0.555452
0
LINE
8
BLACK
6
CONTINUOUS
10
0.808265
20
0.555452
11
0.808411
21
0.554964
0
LINE
8
BLACK
6
CONTINUOUS
10
0.808411
20
0.554964
11
0.808489
21
0.554848
0
LINE
8
BLACK
6
CONTINUOUS
10
0.808489
20
0.554848
11
0.810364
21
0.547349
0
LINE
8
BLACK
6
CONTINUOUS
10
0.810364
20
0.547349
11
0.810405
21
0.546761
0
LINE
8
BLACK
6
CONTINUOUS
10
0.810405
20
0.546761
11
0.810452
21
0.546633
0
LINE
8
BLACK
6
CONTINUOUS
10
0.810452
20
0.546633
11
0.810452
21
0.541008
0
LINE
8
BLACK
6
CONTINUOUS
10
0.810452
20
0.541008
11
0.810349
21
0.540428
0
LINE
8
BLACK
6
CONTINUOUS
10
0.810349
20
0.540428
11
0.810364
21
0.540292
0
LINE
8
BLACK
6
CONTINUOUS
10
0.810364
20
0.540292
11
0.808489
21
0.532793
0
LINE
8
BLACK
6
CONTINUOUS
10
0.808489
20
0.532793
11
0.808281
21
0.532328
0
LINE
8
BLACK
6
CONTINUOUS
10
0.808281
20
0.532328
11
0.808265
21
0.532189
0
LINE
8
BLACK
6
CONTINUOUS
10
0.808265
20
0.532189
11
0.806391
21
0.528439
0
LINE
8
BLACK
6
CONTINUOUS
10
0.806391
20
0.528439
11
0.805865
21
0.52773
0
LINE
8
BLACK
6
CONTINUOUS
10
0.805865
20
0.52773
11
0.805837
21
0.527672
0
LINE
8
BLACK
6
CONTINUOUS
10
0.805837
20
0.527672
11
0.802088
21
0.523922
0
LINE
8
BLACK
6
CONTINUOUS
10
0.802088
20
0.523922
11
0.801248
21
0.523334
0
LINE
8
BLACK
6
CONTINUOUS
10
0.801248
20
0.523334
11
0.801072
21
0.523319
0
LINE
8
BLACK
6
CONTINUOUS
10
0.801072
20
0.523319
11
0.800934
21
0.523209
0
LINE
8
BLACK
6
CONTINUOUS
10
0.800934
20
0.523209
11
0.795309
21
0.521334
0
LINE
8
BLACK
6
CONTINUOUS
10
0.795309
20
0.521334
11
0.794436
21
0.521205
0
LINE
8
BLACK
6
CONTINUOUS
10
0.794436
20
0.521205
11
0.794376
21
0.521183
0
LINE
8
BLACK
6
CONTINUOUS
10
0.794376
20
0.521183
11
0.790626
21
0.521183
0
LINE
8
BLACK
6
CONTINUOUS
10
0.790626
20
0.521183
11
0.789757
21
0.521336
0
LINE
8
BLACK
6
CONTINUOUS
10
0.789757
20
0.521336
11
0.789692
21
0.521334
0
LINE
8
BLACK
6
CONTINUOUS
10
0.789692
20
0.521334
11
0.784068
21
0.523209
0
LINE
8
BLACK
6
CONTINUOUS
10
0.784068
20
0.523209
11
0.783166
21
0.523697
0
LINE
8
BLACK
6
CONTINUOUS
10
0.783166
20
0.523697
11
0.783074
21
0.523848
0
LINE
8
BLACK
6
CONTINUOUS
10
0.783074
20
0.523848
11
0.782914
21
0.523922
0
LINE
8
BLACK
6
CONTINUOUS
10
0.782914
20
0.523922
11
0.781039
21
0.525797
0
LINE
8
BLACK
6
CONTINUOUS
10
0.781039
20
0.525797
11
0.780451
21
0.526637
0
LINE
8
BLACK
6
CONTINUOUS
10
0.780451
20
0.526637
11
0.780275
21
0.528649
0
LINE
8
BLACK
6
CONTINUOUS
10
0.780275
20
0.528649
11
0.781433
21
0.530304
0
LINE
8
BLACK
6
CONTINUOUS
10
0.781433
20
0.530304
11
0.783384
21
0.530827
0
LINE
8
BLACK
6
CONTINUOUS
10
0.783384
20
0.530827
11
0.785215
21
0.529973
0
LINE
8
BLACK
6
CONTINUOUS
10
0.785215
20
0.529973
11
0.786597
21
0.528591
0
LINE
8
BLACK
6
CONTINUOUS
10
0.786597
20
0.528591
11
0.791105
21
0.527088
0
LINE
8
BLACK
6
CONTINUOUS
10
0.791105
20
0.527088
11
0.793897
21
0.527088
0
LINE
8
BLACK
6
CONTINUOUS
10
0.793897
20
0.527088
11
0.798405
21
0.528591
0
LINE
8
BLACK
6
CONTINUOUS
10
0.798405
20
0.528591
11
0.801323
21
0.531509
0
LINE
8
BLACK
6
CONTINUOUS
10
0.801323
20
0.531509
11
0.802838
21
0.53454
0
LINE
8
BLACK
6
CONTINUOUS
10
0.802838
20
0.53454
11
0.804546
21
0.541372
0
LINE
8
BLACK
6
CONTINUOUS
10
0.804546
20
0.541372
11
0.804546
21
0.546269
0
LINE
8
BLACK
6
CONTINUOUS
10
0.804546
20
0.546269
11
0.802838
21
0.553101
0
LINE
8
BLACK
6
CONTINUOUS
10
0.802838
20
0.553101
11
0.801323
21
0.556132
0
LINE
8
BLACK
6
CONTINUOUS
10
0.801323
20
0.556132
11
0.798405
21
0.55905
0
LINE
8
BLACK
6
CONTINUOUS
10
0.798405
20
0.55905
11
0.793897
21
0.560553
0
LINE
8
BLACK
6
CONTINUOUS
10
0.793897
20
0.560553
11
0.791105
21
0.560553
0
LINE
8
BLACK
6
CONTINUOUS
10
0.791105
20
0.560553
11
0.786597
21
0.55905
0
LINE
8
BLACK
6
CONTINUOUS
10
0.786597
20
0.55905
11
0.785215
21
0.557668
0
LINE
8
BLACK
6
CONTINUOUS
10
0.785215
20
0.557668
11
0.784375
21
0.55708
0
LINE
8
BLACK
6
CONTINUOUS
10
0.784375
20
0.55708
11
0.782363
21
0.556904
0
LINE
8
BLACK
6
CONTINUOUS
10
0.782363
20
0.556904
11
0.780708
21
0.558062
0
LINE
8
BLACK
6
CONTINUOUS
10
0.780708
20
0.558062
11
0.780186
21
0.560013
0
LINE
8
BLACK
6
CONTINUOUS
10
0.780186
20
0.560013
11
0.781039
21
0.561844
0
LINE
8
BLACK
6
CONTINUOUS
10
0.781039
20
0.561844
11
0.782914
21
0.563719
0
LINE
8
BLACK
6
CONTINUOUS
10
0.782914
20
0.563719
11
0.783754
21
0.564307
0
LINE
8
BLACK
6
CONTINUOUS
10
0.783754
20
0.564307
11
0.78393
21
0.564322
0
LINE
8
BLACK
6
CONTINUOUS
10
0.78393
20
0.564322
11
0.784068
21
0.564432
0
LINE
8
BLACK
6
CONTINUOUS
10
0.784068
20
0.564432
11
0.789692
21
0.566307
0
LINE
8
BLACK
6
CONTINUOUS
10
0.789692
20
0.566307
11
0.790566
21
0.566436
0
LINE
8
BLACK
6
CONTINUOUS
10
0.790566
20
0.566436
11
0.790626
21
0.566458
0
LINE
8
BLACK
6
CONTINUOUS
10
0.790626
20
0.566458
11
0.794376
21
0.566458
0
LINE
8
BLACK
6
CONTINUOUS
10
0.794376
20
0.566458
11
0.795245
21
0.566305
0
LINE
8
BLACK
6
CONTINUOUS
10
0.843273
20
0.566431
11
0.84334
21
0.56645
0
LINE
8
BLACK
6
CONTINUOUS
10
0.84334
20
0.56645
11
0.843452
21
0.5664
0
LINE
8
BLACK
6
CONTINUOUS
10
0.843452
20
0.5664
11
0.844129
21
0.56628
0
LINE
8
BLACK
6
CONTINUOUS
10
0.844129
20
0.56628
11
0.84461
21
0.565877
0
LINE
8
BLACK
6
CONTINUOUS
10
0.84461
20
0.565877
11
0.845181
21
0.565619
0
LINE
8
BLACK
6
CONTINUOUS
10
0.845181
20
0.565619
11
0.84536
21
0.565247
0
LINE
8
BLACK
6
CONTINUOUS
10
0.84536
20
0.565247
11
0.845677
21
0.564982
0
LINE
8
BLACK
6
CONTINUOUS
10
0.845677
20
0.564982
11
0.845786
21
0.564364
0
LINE
8
BLACK
6
CONTINUOUS
10
0.845786
20
0.564364
11
0.846058
21
0.563799
0
LINE
8
BLACK
6
CONTINUOUS
10
0.846058
20
0.563799
11
0.847932
21
0.545052
0
LINE
8
BLACK
6
CONTINUOUS
10
0.847932
20
0.545052
11
0.847856
21
0.544029
0
LINE
8
BLACK
6
CONTINUOUS
10
0.847856
20
0.544029
11
0.847845
21
0.544013
0
LINE
8
BLACK
6
CONTINUOUS
10
0.847845
20
0.544013
11
0.847846
21
0.543994
0
LINE
8
BLACK
6
CONTINUOUS
10
0.847846
20
0.543994
11
0.847278
21
0.543182
0
LINE
8
BLACK
6
CONTINUOUS
10
0.847278
20
0.543182
11
0.846718
21
0.54236
0
LINE
8
BLACK
6
CONTINUOUS
10
0.846718
20
0.54236
11
0.846699
21
0.542355
0
LINE
8
BLACK
6
CONTINUOUS
10
0.846699
20
0.542355
11
0.846688
21
0.542339
0
LINE
8
BLACK
6
CONTINUOUS
10
0.846688
20
0.542339
11
0.845729
21
0.542082
0
LINE
8
BLACK
6
CONTINUOUS
10
0.845729
20
0.542082
11
0.844773
21
0.541813
0
LINE
8
BLACK
6
CONTINUOUS
10
0.844773
20
0.541813
11
0.844756
21
0.541821
0
LINE
8
BLACK
6
CONTINUOUS
10
0.844756
20
0.541821
11
0.844737
21
0.541816
0
LINE
8
BLACK
6
CONTINUOUS
10
0.844737
20
0.541816
11
0.843839
21
0.542235
0
LINE
8
BLACK
6
CONTINUOUS
10
0.843839
20
0.542235
11
0.842932
21
0.542644
0
LINE
8
BLACK
6
CONTINUOUS
10
0.842932
20
0.542644
11
0.842924
21
0.542662
0
LINE
8
BLACK
6
CONTINUOUS
10
0.842924
20
0.542662
11
0.842906
21
0.54267
0
LINE
8
BLACK
6
CONTINUOUS
10
0.842906
20
0.54267
11
0.84137
21
0.544206
0
LINE
8
BLACK
6
CONTINUOUS
10
0.84137
20
0.544206
11
0.838673
21
0.545555
0
LINE
8
BLACK
6
CONTINUOUS
10
0.838673
20
0.545555
11
0.830693
21
0.545555
0
LINE
8
BLACK
6
CONTINUOUS
10
0.830693
20
0.545555
11
0.827996
21
0.544206
0
LINE
8
BLACK
6
CONTINUOUS
10
0.827996
20
0.544206
11
0.826799
21
0.543009
0
LINE
8
BLACK
6
CONTINUOUS
10
0.826799
20
0.543009
11
0.82545
21
0.540311
0
LINE
8
BLACK
6
CONTINUOUS
10
0.82545
20
0.540311
11
0.82545
21
0.532332
0
LINE
8
BLACK
6
CONTINUOUS
10
0.82545
20
0.532332
11
0.826799
21
0.529634
0
LINE
8
BLACK
6
CONTINUOUS
10
0.826799
20
0.529634
11
0.827996
21
0.528437
0
LINE
8
BLACK
6
CONTINUOUS
10
0.827996
20
0.528437
11
0.830693
21
0.527088
0
LINE
8
BLACK
6
CONTINUOUS
10
0.830693
20
0.527088
11
0.838673
21
0.527088
0
LINE
8
BLACK
6
CONTINUOUS
10
0.838673
20
0.527088
11
0.84137
21
0.528437
0
LINE
8
BLACK
6
CONTINUOUS
10
0.84137
20
0.528437
11
0.842906
21
0.529973
0
LINE
8
BLACK
6
CONTINUOUS
10
0.842906
20
0.529973
11
0.843746
21
0.530561
0
LINE
8
BLACK
6
CONTINUOUS
10
0.843746
20
0.530561
11
0.845759
21
0.530737
0
LINE
8
BLACK
6
CONTINUOUS
10
0.845759
20
0.530737
11
0.847413
21
0.529579
0
LINE
8
BLACK
6
CONTINUOUS
10
0.847413
20
0.529579
11
0.847936
21
0.527628
0
LINE
8
BLACK
6
CONTINUOUS
10
0.847936
20
0.527628
11
0.847082
21
0.525797
0
LINE
8
BLACK
6
CONTINUOUS
10
0.847082
20
0.525797
11
0.845208
21
0.523922
0
LINE
8
BLACK
6
CONTINUOUS
10
0.845208
20
0.523922
11
0.844484
21
0.523416
0
LINE
8
BLACK
6
CONTINUOUS
10
0.844484
20
0.523416
11
0.84444
21
0.523369
0
LINE
8
BLACK
6
CONTINUOUS
10
0.84444
20
0.523369
11
0.840691
21
0.521494
0
LINE
8
BLACK
6
CONTINUOUS
10
0.840691
20
0.521494
11
0.839708
21
0.521202
0
LINE
8
BLACK
6
CONTINUOUS
10
0.839708
20
0.521202
11
0.839536
21
0.521243
0
LINE
8
BLACK
6
CONTINUOUS
10
0.839536
20
0.521243
11
0.83937
21
0.521183
0
LINE
8
BLACK
6
CONTINUOUS
10
0.83937
20
0.521183
11
0.829996
21
0.521183
0
LINE
8
BLACK
6
CONTINUOUS
10
0.829996
20
0.521183
11
0.828986
21
0.521361
0
LINE
8
BLACK
6
CONTINUOUS
10
0.828986
20
0.521361
11
0.828851
21
0.521474
0
LINE
8
BLACK
6
CONTINUOUS
10
0.828851
20
0.521474
11
0.828676
21
0.521494
0
LINE
8
BLACK
6
CONTINUOUS
10
0.828676
20
0.521494
11
0.824926
21
0.523369
0
LINE
8
BLACK
6
CONTINUOUS
10
0.824926
20
0.523369
11
0.824217
21
0.523895
0
LINE
8
BLACK
6
CONTINUOUS
10
0.824217
20
0.523895
11
0.824159
21
0.523922
0
LINE
8
BLACK
6
CONTINUOUS
10
0.824159
20
0.523922
11
0.822284
21
0.525797
0
LINE
8
BLACK
6
CONTINUOUS
10
0.822284
20
0.525797
11
0.821778
21
0.52652
0
LINE
8
BLACK
6
CONTINUOUS
10
0.821778
20
0.52652
11
0.821731
21
0.526565
0
LINE
8
BLACK
6
CONTINUOUS
10
0.821731
20
0.526565
11
0.819856
21
0.530314
0
LINE
8
BLACK
6
CONTINUOUS
10
0.819856
20
0.530314
11
0.819564
21
0.531297
0
LINE
8
BLACK
6
CONTINUOUS
10
0.819564
20
0.531297
11
0.819605
21
0.531469
0
LINE
8
BLACK
6
CONTINUOUS
10
0.819605
20
0.531469
11
0.819544
21
0.531635
0
LINE
8
BLACK
6
CONTINUOUS
10
0.819544
20
0.531635
11
0.819544
21
0.541008
0
LINE
8
BLACK
6
CONTINUOUS
10
0.819544
20
0.541008
11
0.819722
21
0.542018
0
LINE
8
BLACK
6
CONTINUOUS
10
0.819722
20
0.542018
11
0.819836
21
0.542154
0
LINE
8
BLACK
6
CONTINUOUS
10
0.819836
20
0.542154
11
0.819856
21
0.542329
0
LINE
8
BLACK
6
CONTINUOUS
10
0.819856
20
0.542329
11
0.821731
21
0.546078
0
LINE
8
BLACK
6
CONTINUOUS
10
0.821731
20
0.546078
11
0.822257
21
0.546788
0
LINE
8
BLACK
6
CONTINUOUS
10
0.822257
20
0.546788
11
0.822284
21
0.546846
0
LINE
8
BLACK
6
CONTINUOUS
10
0.822284
20
0.546846
11
0.824159
21
0.548721
0
LINE
8
BLACK
6
CONTINUOUS
10
0.824159
20
0.548721
11
0.824882
21
0.549227
0
LINE
8
BLACK
6
CONTINUOUS
10
0.824882
20
0.549227
11
0.824926
21
0.549274
0
LINE
8
BLACK
6
CONTINUOUS
10
0.824926
20
0.549274
11
0.828676
21
0.551148
0
LINE
8
BLACK
6
CONTINUOUS
10
0.828676
20
0.551148
11
0.829659
21
0.551441
0
LINE
8
BLACK
6
CONTINUOUS
10
0.829659
20
0.551441
11
0.82983
21
0.5514
0
LINE
8
BLACK
6
CONTINUOUS
10
0.82983
20
0.5514
11
0.829996
21
0.55146
0
LINE
8
BLACK
6
CONTINUOUS
10
0.829996
20
0.55146
11
0.83937
21
0.55146
0
LINE
8
BLACK
6
CONTINUOUS
10
0.83937
20
0.55146
11
0.84038
21
0.551282
0
LINE
8
BLACK
6
CONTINUOUS
10
0.84038
20
0.551282
11
0.840515
21
0.551169
0
LINE
8
BLACK
6
CONTINUOUS
10
0.840515
20
0.551169
11
0.840691
21
0.551148
0
LINE
8
BLACK
6
CONTINUOUS
10
0.840691
20
0.551148
11
0.841424
21
0.550782
0
LINE
8
BLACK
6
CONTINUOUS
10
0.841424
20
0.550782
11
0.840447
21
0.560553
0
LINE
8
BLACK
6
CONTINUOUS
10
0.840447
20
0.560553
11
0.824372
21
0.560553
0
LINE
8
BLACK
6
CONTINUOUS
10
0.824372
20
0.560553
11
0.823362
21
0.560731
0
LINE
8
BLACK
6
CONTINUOUS
10
0.823362
20
0.560731
11
0.821815
21
0.562029
0
LINE
8
BLACK
6
CONTINUOUS
10
0.821815
20
0.562029
11
0.821464
21
0.564018
0
LINE
8
BLACK
6
CONTINUOUS
10
0.821464
20
0.564018
11
0.822474
21
0.565767
0
LINE
8
BLACK
6
CONTINUOUS
10
0.822474
20
0.565767
11
0.824372
21
0.566458
0
LINE
8
BLACK
6
CONTINUOUS
10
0.824372
20
0.566458
11
0.84312
21
0.566458
0
LINE
8
BLACK
6
CONTINUOUS
10
0.84312
20
0.566458
11
0.843273
21
0.566431
0
LINE
8
BLACK
6
CONTINUOUS
10
0.880769
20
0.566431
11
0.880836
21
0.56645
0
LINE
8
BLACK
6
CONTINUOUS
10
0.880836
20
0.56645
11
0.880947
21
0.5664
0
LINE
8
BLACK
6
CONTINUOUS
10
0.880947
20
0.5664
11
0.881625
21
0.56628
0
LINE
8
BLACK
6
CONTINUOUS
10
0.881625
20
0.56628
11
0.882105
21
0.565877
0
LINE
8
BLACK
6
CONTINUOUS
10
0.882105
20
0.565877
11
0.882677
21
0.565619
0
LINE
8
BLACK
6
CONTINUOUS
10
0.882677
20
0.565619
11
0.882856
21
0.565247
0
LINE
8
BLACK
6
CONTINUOUS
10
0.882856
20
0.565247
11
0.883172
21
0.564982
0
LINE
8
BLACK
6
CONTINUOUS
10
0.883172
20
0.564982
11
0.883281
21
0.564364
0
LINE
8
BLACK
6
CONTINUOUS
10
0.883281
20
0.564364
11
0.883553
21
0.563799
0
LINE
8
BLACK
6
CONTINUOUS
10
0.883553
20
0.563799
11
0.885428
21
0.545052
0
LINE
8
BLACK
6
CONTINUOUS
10
0.885428
20
0.545052
11
0.885351
21
0.544029
0
LINE
8
BLACK
6
CONTINUOUS
10
0.885351
20
0.544029
11
0.88534
21
0.544013
0
LINE
8
BLACK
6
CONTINUOUS
10
0.88534
20
0.544013
11
0.885342
21
0.543994
0
LINE
8
BLACK
6
CONTINUOUS
10
0.885342
20
0.543994
11
0.884773
21
0.543182
0
LINE
8
BLACK
6
CONTINUOUS
10
0.884773
20
0.543182
11
0.884213
21
0.54236
0
LINE
8
BLACK
6
CONTINUOUS
10
0.884213
20
0.54236
11
0.884194
21
0.542355
0
LINE
8
BLACK
6
CONTINUOUS
10
0.884194
20
0.542355
11
0.884183
21
0.542339
0
LINE
8
BLACK
6
CONTINUOUS
10
0.884183
20
0.542339
11
0.883224
21
0.542082
0
LINE
8
BLACK
6
CONTINUOUS
10
0.883224
20
0.542082
11
0.882269
21
0.541813
0
LINE
8
BLACK
6
CONTINUOUS
10
0.882269
20
0.541813
11
0.882251
21
0.541821
0
LINE
8
BLACK
6
CONTINUOUS
10
0.882251
20
0.541821
11
0.882232
21
0.541816
0
LINE
8
BLACK
6
CONTINUOUS
10
0.882232
20
0.541816
11
0.881334
21
0.542235
0
LINE
8
BLACK
6
CONTINUOUS
10
0.881334
20
0.542235
11
0.880428
21
0.542644
0
LINE
8
BLACK
6
CONTINUOUS
10
0.880428
20
0.542644
11
0.880419
21
0.542662
0
LINE
8
BLACK
6
CONTINUOUS
10
0.880419
20
0.542662
11
0.880402
21
0.54267
0
LINE
8
BLACK
6
CONTINUOUS
10
0.880402
20
0.54267
11
0.878866
21
0.544206
0
LINE
8
BLACK
6
CONTINUOUS
10
0.878866
20
0.544206
11
0.876168
21
0.545555
0
LINE
8
BLACK
6
CONTINUOUS
10
0.876168
20
0.545555
11
0.868189
21
0.545555
0
LINE
8
BLACK
6
CONTINUOUS
10
0.868189
20
0.545555
11
0.865491
21
0.544206
0
LINE
8
BLACK
6
CONTINUOUS
10
0.865491
20
0.544206
11
0.864294
21
0.543009
0
LINE
8
BLACK
6
CONTINUOUS
10
0.864294
20
0.543009
11
0.862945
21
0.540311
0
LINE
8
BLACK
6
CONTINUOUS
10
0.862945
20
0.540311
11
0.862945
21
0.532332
0
LINE
8
BLACK
6
CONTINUOUS
10
0.862945
20
0.532332
11
0.864294
21
0.529634
0
LINE
8
BLACK
6
CONTINUOUS
10
0.864294
20
0.529634
11
0.865491
21
0.528437
0
LINE
8
BLACK
6
CONTINUOUS
10
0.865491
20
0.528437
11
0.868189
21
0.527088
0
LINE
8
BLACK
6
CONTINUOUS
10
0.868189
20
0.527088
11
0.876168
21
0.527088
0
LINE
8
BLACK
6
CONTINUOUS
10
0.876168
20
0.527088
11
0.878866
21
0.528437
0
LINE
8
BLACK
6
CONTINUOUS
10
0.878866
20
0.528437
11
0.880402
21
0.529973
0
LINE
8
BLACK
6
CONTINUOUS
10
0.880402
20
0.529973
11
0.881242
21
0.530561
0
LINE
8
BLACK
6
CONTINUOUS
10
0.881242
20
0.530561
11
0.883254
21
0.530737
0
LINE
8
BLACK
6
CONTINUOUS
10
0.883254
20
0.530737
11
0.884908
21
0.529579
0
LINE
8
BLACK
6
CONTINUOUS
10
0.884908
20
0.529579
11
0.885431
21
0.527628
0
LINE
8
BLACK
6
CONTINUOUS
10
0.885431
20
0.527628
11
0.884578
21
0.525797
0
LINE
8
BLACK
6
CONTINUOUS
10
0.884578
20
0.525797
11
0.882703
21
0.523922
0
LINE
8
BLACK
6
CONTINUOUS
10
0.882703
20
0.523922
11
0.88198
21
0.523416
0
LINE
8
BLACK
6
CONTINUOUS
10
0.88198
20
0.523416
11
0.881935
21
0.523369
0
LINE
8
BLACK
6
CONTINUOUS
10
0.881935
20
0.523369
11
0.878186
21
0.521494
0
LINE
8
BLACK
6
CONTINUOUS
10
0.878186
20
0.521494
11
0.877203
21
0.521202
0
LINE
8
BLACK
6
CONTINUOUS
10
0.877203
20
0.521202
11
0.877031
21
0.521243
0
LINE
8
BLACK
6
CONTINUOUS
10
0.877031
20
0.521243
11
0.876865
21
0.521183
0
LINE
8
BLACK
6
CONTINUOUS
10
0.876865
20
0.521183
11
0.867492
21
0.521183
0
LINE
8
BLACK
6
CONTINUOUS
10
0.867492
20
0.521183
11
0.866482
21
0.521361
0
LINE
8
BLACK
6
CONTINUOUS
10
0.866482
20
0.521361
11
0.866346
21
0.521474
0
LINE
8
BLACK
6
CONTINUOUS
10
0.866346
20
0.521474
11
0.866171
21
0.521494
0
LINE
8
BLACK
6
CONTINUOUS
10
0.866171
20
0.521494
11
0.862421
21
0.523369
0
LINE
8
BLACK
6
CONTINUOUS
10
0.862421
20
0.523369
11
0.861712
21
0.523895
0
LINE
8
BLACK
6
CONTINUOUS
10
0.861712
20
0.523895
11
0.861654
21
0.523922
0
LINE
8
BLACK
6
CONTINUOUS
10
0.861654
20
0.523922
11
0.859779
21
0.525797
0
LINE
8
BLACK
6
CONTINUOUS
10
0.859779
20
0.525797
11
0.859273
21
0.52652
0
LINE
8
BLACK
6
CONTINUOUS
10
0.859273
20
0.52652
11
0.859226
21
0.526565
0
LINE
8
BLACK
6
CONTINUOUS
10
0.859226
20
0.526565
11
0.857351
21
0.530314
0
LINE
8
BLACK
6
CONTINUOUS
10
0.857351
20
0.530314
11
0.857059
21
0.531297
0
LINE
8
BLACK
6
CONTINUOUS
10
0.857059
20
0.531297
11
0.8571
21
0.531469
0
LINE
8
BLACK
6
CONTINUOUS
10
0.8571
20
0.531469
11
0.85704
21
0.531635
0
LINE
8
BLACK
6
CONTINUOUS
10
0.85704
20
0.531635
11
0.85704
21
0.541008
0
LINE
8
BLACK
6
CONTINUOUS
10
0.85704
20
0.541008
11
0.857218
21
0.542018
0
LINE
8
BLACK
6
CONTINUOUS
10
0.857218
20
0.542018
11
0.857331
21
0.542154
0
LINE
8
BLACK
6
CONTINUOUS
10
0.857331
20
0.542154
11
0.857351
21
0.542329
0
LINE
8
BLACK
6
CONTINUOUS
10
0.857351
20
0.542329
11
0.859226
21
0.546078
0
LINE
8
BLACK
6
CONTINUOUS
10
0.859226
20
0.546078
11
0.859752
21
0.546788
0
LINE
8
BLACK
6
CONTINUOUS
10
0.859752
20
0.546788
11
0.859779
21
0.546846
0
LINE
8
BLACK
6
CONTINUOUS
10
0.859779
20
0.546846
11
0.861654
21
0.548721
0
LINE
8
BLACK
6
CONTINUOUS
10
0.861654
20
0.548721
11
0.862377
21
0.549227
0
LINE
8
BLACK
6
CONTINUOUS
10
0.862377
20
0.549227
11
0.862421
21
0.549274
0
LINE
8
BLACK
6
CONTINUOUS
10
0.862421
20
0.549274
11
0.866171
21
0.551148
0
LINE
8
BLACK
6
CONTINUOUS
10
0.866171
20
0.551148
11
0.867154
21
0.551441
0
LINE
8
BLACK
6
CONTINUOUS
10
0.867154
20
0.551441
11
0.867326
21
0.5514
0
LINE
8
BLACK
6
CONTINUOUS
10
0.867326
20
0.5514
11
0.867492
21
0.55146
0
LINE
8
BLACK
6
CONTINUOUS
10
0.867492
20
0.55146
11
0.876865
21
0.55146
0
LINE
8
BLACK
6
CONTINUOUS
10
0.876865
20
0.55146
11
0.877875
21
0.551282
0
LINE
8
BLACK
6
CONTINUOUS
10
0.877875
20
0.551282
11
0.878011
21
0.551169
0
LINE
8
BLACK
6
CONTINUOUS
10
0.878011
20
0.551169
11
0.878186
21
0.551148
0
LINE
8
BLACK
6
CONTINUOUS
10
0.878186
20
0.551148
11
0.87892
21
0.550782
0
LINE
8
BLACK
6
CONTINUOUS
10
0.87892
20
0.550782
11
0.877943
21
0.560553
0
LINE
8
BLACK
6
CONTINUOUS
10
0.877943
20
0.560553
11
0.861867
21
0.560553
0
LINE
8
BLACK
6
CONTINUOUS
10
0.861867
20
0.560553
11
0.860857
21
0.560731
0
LINE
8
BLACK
6
CONTINUOUS
10
0.860857
20
0.560731
11
0.85931
21
0.562029
0
LINE
8
BLACK
6
CONTINUOUS
10
0.85931
20
0.562029
11
0.858959
21
0.564018
0
LINE
8
BLACK
6
CONTINUOUS
10
0.858959
20
0.564018
11
0.859969
21
0.565767
0
LINE
8
BLACK
6
CONTINUOUS
10
0.859969
20
0.565767
11
0.861867
21
0.566458
0
LINE
8
BLACK
6
CONTINUOUS
10
0.861867
20
0.566458
11
0.880615
21
0.566458
0
LINE
8
BLACK
6
CONTINUOUS
10
0.880615
20
0.566458
11
0.880769
21
0.566431
0
LINE
8
BLACK
6
CONTINUOUS
10
0.956615
20
0.56628
11
0.958163
21
0.564982
0
LINE
8
BLACK
6
CONTINUOUS
10
0.958163
20
0.564982
11
0.958513
21
0.562993
0
LINE
8
BLACK
6
CONTINUOUS
10
0.958513
20
0.562993
11
0.957504
21
0.561244
0
LINE
8
BLACK
6
CONTINUOUS
10
0.957504
20
0.561244
11
0.955606
21
0.560553
0
LINE
8
BLACK
6
CONTINUOUS
10
0.955606
20
0.560553
11
0.934876
21
0.560553
0
LINE
8
BLACK
6
CONTINUOUS
10
0.934876
20
0.560553
11
0.958062
21
0.525773
0
LINE
8
BLACK
6
CONTINUOUS
10
0.958062
20
0.525773
11
0.958116
21
0.525651
0
LINE
8
BLACK
6
CONTINUOUS
10
0.958116
20
0.525651
11
0.958163
21
0.525612
0
LINE
8
BLACK
6
CONTINUOUS
10
0.958163
20
0.525612
11
0.958182
21
0.5255
0
LINE
8
BLACK
6
CONTINUOUS
10
0.958182
20
0.5255
11
0.958474
21
0.524834
0
LINE
8
BLACK
6
CONTINUOUS
10
0.958474
20
0.524834
11
0.958407
21
0.524226
0
LINE
8
BLACK
6
CONTINUOUS
10
0.958407
20
0.524226
11
0.958513
21
0.523623
0
LINE
8
BLACK
6
CONTINUOUS
10
0.958513
20
0.523623
11
0.958299
21
0.523252
0
LINE
8
BLACK
6
CONTINUOUS
10
0.958299
20
0.523252
11
0.958252
21
0.522827
0
LINE
8
BLACK
6
CONTINUOUS
10
0.958252
20
0.522827
11
0.95781
21
0.522404
0
LINE
8
BLACK
6
CONTINUOUS
10
0.95781
20
0.522404
11
0.957504
21
0.521874
0
LINE
8
BLACK
6
CONTINUOUS
10
0.957504
20
0.521874
11
0.957101
21
0.521727
0
LINE
8
BLACK
6
CONTINUOUS
10
0.957101
20
0.521727
11
0.956792
21
0.521432
0
LINE
8
BLACK
6
CONTINUOUS
10
0.956792
20
0.521432
11
0.956181
21
0.521392
0
LINE
8
BLACK
6
CONTINUOUS
10
0.956181
20
0.521392
11
0.955606
21
0.521183
0
LINE
8
BLACK
6
CONTINUOUS
10
0.955606
20
0.521183
11
0.929359
21
0.521183
0
LINE
8
BLACK
6
CONTINUOUS
10
0.929359
20
0.521183
11
0.928349
21
0.521361
0
LINE
8
BLACK
6
CONTINUOUS
10
0.928349
20
0.521361
11
0.926802
21
0.522659
0
LINE
8
BLACK
6
CONTINUOUS
10
0.926802
20
0.522659
11
0.926451
21
0.524648
0
LINE
8
BLACK
6
CONTINUOUS
10
0.926451
20
0.524648
11
0.927461
21
0.526397
0
LINE
8
BLACK
6
CONTINUOUS
10
0.927461
20
0.526397
11
0.929359
21
0.527088
0
LINE
8
BLACK
6
CONTINUOUS
10
0.929359
20
0.527088
11
0.950088
21
0.527088
0
LINE
8
BLACK
6
CONTINUOUS
10
0.950088
20
0.527088
11
0.926902
21
0.561868
0
LINE
8
BLACK
6
CONTINUOUS
10
0.926902
20
0.561868
11
0.926848
21
0.56199
0
LINE
8
BLACK
6
CONTINUOUS
10
0.926848
20
0.56199
11
0.926802
21
0.562029
0
LINE
8
BLACK
6
CONTINUOUS
10
0.926802
20
0.562029
11
0.926782
21
0.562141
0
LINE
8
BLACK
6
CONTINUOUS
10
0.926782
20
0.562141
11
0.92649
21
0.562807
0
LINE
8
BLACK
6
CONTINUOUS
10
0.92649
20
0.562807
11
0.926557
21
0.563415
0
LINE
8
BLACK
6
CONTINUOUS
10
0.926557
20
0.563415
11
0.926451
21
0.564018
0
LINE
8
BLACK
6
CONTINUOUS
10
0.926451
20
0.564018
11
0.926665
21
0.564389
0
LINE
8
BLACK
6
CONTINUOUS
10
0.926665
20
0.564389
11
0.926712
21
0.564814
0
LINE
8
BLACK
6
CONTINUOUS
10
0.926712
20
0.564814
11
0.927155
21
0.565237
0
LINE
8
BLACK
6
CONTINUOUS
10
0.927155
20
0.565237
11
0.927461
21
0.565767
0
LINE
8
BLACK
6
CONTINUOUS
10
0.927461
20
0.565767
11
0.927863
21
0.565914
0
LINE
8
BLACK
6
CONTINUOUS
10
0.927863
20
0.565914
11
0.928172
21
0.566209
0
LINE
8
BLACK
6
CONTINUOUS
10
0.928172
20
0.566209
11
0.928783
21
0.566249
0
LINE
8
BLACK
6
CONTINUOUS
10
0.928783
20
0.566249
11
0.929359
21
0.566458
0
LINE
8
BLACK
6
CONTINUOUS
10
0.929359
20
0.566458
11
0.955606
21
0.566458
0
LINE
8
BLACK
6
CONTINUOUS
10
0.955606
20
0.566458
11
0.956615
21
0.56628
0
LINE
8
BLACK
6
CONTINUOUS
10
0.99161
20
0.566391
11
0.991739
21
0.566413
0
LINE
8
BLACK
6
CONTINUOUS
10
0.991739
20
0.566413
11
0.991852
21
0.566348
0
LINE
8
BLACK
6
CONTINUOUS
10
0.991852
20
0.566348
11
0.992236
21
0.56628
0
LINE
8
BLACK
6
CONTINUOUS
10
0.992236
20
0.56628
11
0.992824
21
0.565787
0
LINE
8
BLACK
6
CONTINUOUS
10
0.992824
20
0.565787
11
0.993488
21
0.565404
0
LINE
8
BLACK
6
CONTINUOUS
10
0.993488
20
0.565404
11
0.993579
21
0.565153
0
LINE
8
BLACK
6
CONTINUOUS
10
0.993579
20
0.565153
11
0.993783
21
0.564982
0
LINE
8
BLACK
6
CONTINUOUS
10
0.993783
20
0.564982
11
0.993916
21
0.564226
0
LINE
8
BLACK
6
CONTINUOUS
10
0.993916
20
0.564226
11
0.994179
21
0.563506
0
LINE
8
BLACK
6
CONTINUOUS
10
0.994179
20
0.563506
11
0.994179
21
0.524135
0
LINE
8
BLACK
6
CONTINUOUS
10
0.994179
20
0.524135
11
0.994111
21
0.523752
0
LINE
8
BLACK
6
CONTINUOUS
10
0.994111
20
0.523752
11
0.994134
21
0.523623
0
LINE
8
BLACK
6
CONTINUOUS
10
0.994134
20
0.523623
11
0.994068
21
0.523509
0
LINE
8
BLACK
6
CONTINUOUS
10
0.994068
20
0.523509
11
0.994001
21
0.523126
0
LINE
8
BLACK
6
CONTINUOUS
10
0.994001
20
0.523126
11
0.993508
21
0.522538
0
LINE
8
BLACK
6
CONTINUOUS
10
0.993508
20
0.522538
11
0.993124
21
0.521874
0
LINE
8
BLACK
6
CONTINUOUS
10
0.993124
20
0.521874
11
0.992874
21
0.521782
0
LINE
8
BLACK
6
CONTINUOUS
10
0.992874
20
0.521782
11
0.992702
21
0.521578
0
LINE
8
BLACK
6
CONTINUOUS
10
0.992702
20
0.521578
11
0.991947
21
0.521445
0
LINE
8
BLACK
6
CONTINUOUS
10
0.991947
20
0.521445
11
0.991226
21
0.521183
0
LINE
8
BLACK
6
CONTINUOUS
10
0.991226
20
0.521183
11
0.976228
21
0.521183
0
LINE
8
BLACK
6
CONTINUOUS
10
0.976228
20
0.521183
11
0.975218
21
0.521361
0
LINE
8
BLACK
6
CONTINUOUS
10
0.975218
20
0.521361
11
0.975083
21
0.521474
0
LINE
8
BLACK
6
CONTINUOUS
10
0.975083
20
0.521474
11
0.974907
21
0.521494
0
LINE
8
BLACK
6
CONTINUOUS
10
0.974907
20
0.521494
11
0.971158
21
0.523369
0
LINE
8
BLACK
6
CONTINUOUS
10
0.971158
20
0.523369
11
0.970449
21
0.523895
0
LINE
8
BLACK
6
CONTINUOUS
10
0.970449
20
0.523895
11
0.97039
21
0.523922
0
LINE
8
BLACK
6
CONTINUOUS
10
0.97039
20
0.523922
11
0.968516
21
0.525797
0
LINE
8
BLACK
6
CONTINUOUS
10
0.968516
20
0.525797
11
0.968009
21
0.52652
0
LINE
8
BLACK
6
CONTINUOUS
10
0.968009
20
0.52652
11
0.967963
21
0.526565
0
LINE
8
BLACK
6
CONTINUOUS
10
0.967963
20
0.526565
11
0.966088
21
0.530314
0
LINE
8
BLACK
6
CONTINUOUS
10
0.966088
20
0.530314
11
0.965796
21
0.531297
0
LINE
8
BLACK
6
CONTINUOUS
10
0.965796
20
0.531297
11
0.965836
21
0.531469
0
LINE
8
BLACK
6
CONTINUOUS
10
0.965836
20
0.531469
11
0.965776
21
0.531635
0
LINE
8
BLACK
6
CONTINUOUS
10
0.965776
20
0.531635
11
0.965776
21
0.537259
0
LINE
8
BLACK
6
CONTINUOUS
10
0.965776
20
0.537259
11
0.965954
21
0.538269
0
LINE
8
BLACK
6
CONTINUOUS
10
0.965954
20
0.538269
11
0.966068
21
0.538404
0
LINE
8
BLACK
6
CONTINUOUS
10
0.966068
20
0.538404
11
0.966088
21
0.538579
0
LINE
8
BLACK
6
CONTINUOUS
10
0.966088
20
0.538579
11
0.967963
21
0.542329
0
LINE
8
BLACK
6
CONTINUOUS
10
0.967963
20
0.542329
11
0.968489
21
0.543038
0
LINE
8
BLACK
6
CONTINUOUS
10
0.968489
20
0.543038
11
0.968516
21
0.543096
0
LINE
8
BLACK
6
CONTINUOUS
10
0.968516
20
0.543096
11
0.970391
21
0.544971
0
LINE
8
BLACK
6
CONTINUOUS
10
0.970391
20
0.544971
11
0.971231
21
0.545559
0
LINE
8
BLACK
6
CONTINUOUS
10
0.971231
20
0.545559
11
0.971249
21
0.545561
0
LINE
8
BLACK
6
CONTINUOUS
10
0.971249
20
0.545561
11
0.970391
21
0.54642
0
LINE
8
BLACK
6
CONTINUOUS
10
0.970391
20
0.54642
11
0.969884
21
0.547143
0
LINE
8
BLACK
6
CONTINUOUS
10
0.969884
20
0.547143
11
0.969837
21
0.547187
0
LINE
8
BLACK
6
CONTINUOUS
10
0.969837
20
0.547187
11
0.967963
21
0.550936
0
LINE
8
BLACK
6
CONTINUOUS
10
0.967963
20
0.550936
11
0.96767
21
0.551919
0
LINE
8
BLACK
6
CONTINUOUS
10
0.96767
20
0.551919
11
0.967711
21
0.552091
0
LINE
8
BLACK
6
CONTINUOUS
10
0.967711
20
0.552091
11
0.967651
21
0.552257
0
LINE
8
BLACK
6
CONTINUOUS
10
0.967651
20
0.552257
11
0.967651
21
0.556006
0
LINE
8
BLACK
6
CONTINUOUS
10
0.967651
20
0.556006
11
0.967829
21
0.557016
0
LINE
8
BLACK
6
CONTINUOUS
10
0.967829
20
0.557016
11
0.967942
21
0.557152
0
LINE
8
BLACK
6
CONTINUOUS
10
0.967942
20
0.557152
11
0.967963
21
0.557327
0
LINE
8
BLACK
6
CONTINUOUS
10
0.967963
20
0.557327
11
0.969837
21
0.561077
0
LINE
8
BLACK
6
CONTINUOUS
10
0.969837
20
0.561077
11
0.970363
21
0.561786
0
LINE
8
BLACK
6
CONTINUOUS
10
0.970363
20
0.561786
11
0.970391
21
0.561844
0
LINE
8
BLACK
6
CONTINUOUS
10
0.970391
20
0.561844
11
0.972265
21
0.563719
0
LINE
8
BLACK
6
CONTINUOUS
10
0.972265
20
0.563719
11
0.972988
21
0.564225
0
LINE
8
BLACK
6
CONTINUOUS
10
0.972988
20
0.564225
11
0.973033
21
0.564272
0
LINE
8
BLACK
6
CONTINUOUS
10
0.973033
20
0.564272
11
0.976782
21
0.566147
0
LINE
8
BLACK
6
CONTINUOUS
10
0.976782
20
0.566147
11
0.977765
21
0.566439
0
LINE
8
BLACK
6
CONTINUOUS
10
0.977765
20
0.566439
11
0.977937
21
0.566398
0
LINE
8
BLACK
6
CONTINUOUS
10
0.977937
20
0.566398
11
0.978103
21
0.566458
0
LINE
8
BLACK
6
CONTINUOUS
10
0.978103
20
0.566458
11
0.991226
21
0.566458
0
LINE
8
BLACK
6
CONTINUOUS
10
0.991226
20
0.566458
11
0.99161
21
0.566391
0
LINE
8
BLACK
6
CONTINUOUS
10
0.974073
20
0.540302
11
0.97303
21
0.539259
0
LINE
8
BLACK
6
CONTINUOUS
10
0.97303
20
0.539259
11
0.971682
21
0.536562
0
LINE
8
BLACK
6
CONTINUOUS
10
0.971682
20
0.536562
11
0.971682
21
0.532332
0
LINE
8
BLACK
6
CONTINUOUS
10
0.971682
20
0.532332
11
0.97303
21
0.529634
0
LINE
8
BLACK
6
CONTINUOUS
10
0.97303
20
0.529634
11
0.974228
21
0.528437
0
LINE
8
BLACK
6
CONTINUOUS
10
0.974228
20
0.528437
11
0.976925
21
0.527088
0
LINE
8
BLACK
6
CONTINUOUS
10
0.976925
20
0.527088
11
0.988273
21
0.527088
0
LINE
8
BLACK
6
CONTINUOUS
10
0.988273
20
0.527088
11
0.988273
21
0.541805
0
LINE
8
BLACK
6
CONTINUOUS
10
0.988273
20
0.541805
11
0.978582
21
0.541805
0
LINE
8
BLACK
6
CONTINUOUS
10
0.978582
20
0.541805
11
0.974073
21
0.540302
0
LINE
8
BLACK
6
CONTINUOUS
10
0.976102
20
0.559204
11
0.974905
21
0.558007
0
LINE
8
BLACK
6
CONTINUOUS
10
0.974905
20
0.558007
11
0.973556
21
0.555309
0
LINE
8
BLACK
6
CONTINUOUS
10
0.973556
20
0.555309
11
0.973556
21
0.552954
0
LINE
8
BLACK
6
CONTINUOUS
10
0.973556
20
0.552954
11
0.974905
21
0.550257
0
LINE
8
BLACK
6
CONTINUOUS
10
0.974905
20
0.550257
11
0.976102
21
0.549059
0
LINE
8
BLACK
6
CONTINUOUS
10
0.976102
20
0.549059
11
0.9788
21
0.547711
0
LINE
8
BLACK
6
CONTINUOUS
10
0.9788
20
0.547711
11
0.988273
21
0.547711
0
LINE
8
BLACK
6
CONTINUOUS
10
0.988273
20
0.547711
11
0.988273
21
0.560553
0
LINE
8
BLACK
6
CONTINUOUS
10
0.988273
20
0.560553
11
0.9788
21
0.560553
0
LINE
8
BLACK
6
CONTINUOUS
10
0.9788
20
0.560553
11
0.976102
21
0.559204
0
LINE
8
BLACK
6
CONTINUOUS
10
0.604695
20
0.566021
11
0.605951
21
0.564439
0
LINE
8
BLACK
6
CONTINUOUS
10
0.605951
20
0.564439
11
0.616273
21
0.533473
0
LINE
8
BLACK
6
CONTINUOUS
10
0.616273
20
0.533473
11
0.626595
21
0.564439
0
LINE
8
BLACK
6
CONTINUOUS
10
0.626595
20
0.564439
11
0.627083
21
0.565341
0
LINE
8
BLACK
6
CONTINUOUS
10
0.627083
20
0.565341
11
0.628804
21
0.566398
0
LINE
8
BLACK
6
CONTINUOUS
10
0.628804
20
0.566398
11
0.630802
21
0.566102
0
LINE
8
BLACK
6
CONTINUOUS
10
0.630802
20
0.566102
11
0.632142
21
0.564591
0
LINE
8
BLACK
6
CONTINUOUS
10
0.632142
20
0.564591
11
0.632198
21
0.562572
0
LINE
8
BLACK
6
CONTINUOUS
10
0.632198
20
0.562572
11
0.619074
21
0.523202
0
LINE
8
BLACK
6
CONTINUOUS
10
0.619074
20
0.523202
11
0.618586
21
0.5223
0
LINE
8
BLACK
6
CONTINUOUS
10
0.618586
20
0.5223
11
0.618513
21
0.522255
0
LINE
8
BLACK
6
CONTINUOUS
10
0.618513
20
0.522255
11
0.618482
21
0.522176
0
LINE
8
BLACK
6
CONTINUOUS
10
0.618482
20
0.522176
11
0.617661
21
0.521732
0
LINE
8
BLACK
6
CONTINUOUS
10
0.617661
20
0.521732
11
0.616865
21
0.521243
0
LINE
8
BLACK
6
CONTINUOUS
10
0.616865
20
0.521243
11
0.616781
21
0.521255
0
LINE
8
BLACK
6
CONTINUOUS
10
0.616781
20
0.521255
11
0.616706
21
0.521215
0
LINE
8
BLACK
6
CONTINUOUS
10
0.616706
20
0.521215
11
0.615791
21
0.521402
0
LINE
8
BLACK
6
CONTINUOUS
10
0.615791
20
0.521402
11
0.614867
21
0.521539
0
LINE
8
BLACK
6
CONTINUOUS
10
0.614867
20
0.521539
11
0.61481
21
0.521603
0
LINE
8
BLACK
6
CONTINUOUS
10
0.61481
20
0.521603
11
0.614727
21
0.52162
0
LINE
8
BLACK
6
CONTINUOUS
10
0.614727
20
0.52162
11
0.614147
21
0.522351
0
LINE
8
BLACK
6
CONTINUOUS
10
0.614147
20
0.522351
11
0.613527
21
0.52305
0
LINE
8
BLACK
6
CONTINUOUS
10
0.613527
20
0.52305
11
0.613525
21
0.523135
0
LINE
8
BLACK
6
CONTINUOUS
10
0.613525
20
0.523135
11
0.613472
21
0.523202
0
LINE
8
BLACK
6
CONTINUOUS
10
0.613472
20
0.523202
11
0.600348
21
0.562572
0
LINE
8
BLACK
6
CONTINUOUS
10
0.600348
20
0.562572
11
0.600198
21
0.563586
0
LINE
8
BLACK
6
CONTINUOUS
10
0.600198
20
0.563586
11
0.60094
21
0.565465
0
LINE
8
BLACK
6
CONTINUOUS
10
0.60094
20
0.565465
11
0.602716
21
0.566426
0
LINE
8
BLACK
6
CONTINUOUS
10
0.602716
20
0.566426
11
0.604695
21
0.566021
0
LINE
8
BLACK
6
CONTINUOUS
10
0.895284
20
0.566021
11
0.896539
21
0.564439
0
LINE
8
BLACK
6
CONTINUOUS
10
0.896539
20
0.564439
11
0.906862
21
0.533473
0
LINE
8
BLACK
6
CONTINUOUS
10
0.906862
20
0.533473
11
0.917184
21
0.564439
0
LINE
8
BLACK
6
CONTINUOUS
10
0.917184
20
0.564439
11
0.917672
21
0.565341
0
LINE
8
BLACK
6
CONTINUOUS
10
0.917672
20
0.565341
11
0.919393
21
0.566398
0
LINE
8
BLACK
6
CONTINUOUS
10
0.919393
20
0.566398
11
0.921391
21
0.566102
0
LINE
8
BLACK
6
CONTINUOUS
10
0.921391
20
0.566102
11
0.922731
21
0.564591
0
LINE
8
BLACK
6
CONTINUOUS
10
0.922731
20
0.564591
11
0.922786
21
0.562572
0
LINE
8
BLACK
6
CONTINUOUS
10
0.922786
20
0.562572
11
0.909663
21
0.523202
0
LINE
8
BLACK
6
CONTINUOUS
10
0.909663
20
0.523202
11
0.909175
21
0.5223
0
LINE
8
BLACK
6
CONTINUOUS
10
0.909175
20
0.5223
11
0.909102
21
0.522255
0
LINE
8
BLACK
6
CONTINUOUS
10
0.909102
20
0.522255
11
0.909071
21
0.522176
0
LINE
8
BLACK
6
CONTINUOUS
10
0.909071
20
0.522176
11
0.908249
21
0.521732
0
LINE
8
BLACK
6
CONTINUOUS
10
0.908249
20
0.521732
11
0.907454
21
0.521243
0
LINE
8
BLACK
6
CONTINUOUS
10
0.907454
20
0.521243
11
0.907369
21
0.521255
0
LINE
8
BLACK
6
CONTINUOUS
10
0.907369
20
0.521255
11
0.907295
21
0.521215
0
LINE
8
BLACK
6
CONTINUOUS
10
0.907295
20
0.521215
11
0.90638
21
0.521402
0
LINE
8
BLACK
6
CONTINUOUS
10
0.90638
20
0.521402
11
0.905456
21
0.521539
0
LINE
8
BLACK
6
CONTINUOUS
10
0.905456
20
0.521539
11
0.905399
21
0.521603
0
LINE
8
BLACK
6
CONTINUOUS
10
0.905399
20
0.521603
11
0.905316
21
0.52162
0
LINE
8
BLACK
6
CONTINUOUS
10
0.905316
20
0.52162
11
0.904736
21
0.522351
0
LINE
8
BLACK
6
CONTINUOUS
10
0.904736
20
0.522351
11
0.904116
21
0.52305
0
LINE
8
BLACK
6
CONTINUOUS
10
0.904116
20
0.52305
11
0.904113
21
0.523135
0
LINE
8
BLACK
6
CONTINUOUS
10
0.904113
20
0.523135
11
0.90406
21
0.523202
0
LINE
8
BLACK
6
CONTINUOUS
10
0.90406
20
0.523202
11
0.890937
21
0.562572
0
LINE
8
BLACK
6
CONTINUOUS
10
0.890937
20
0.562572
11
0.890787
21
0.563586
0
LINE
8
BLACK
6
CONTINUOUS
10
0.890787
20
0.563586
11
0.891529
21
0.565465
0
LINE
8
BLACK
6
CONTINUOUS
10
0.891529
20
0.565465
11
0.893305
21
0.566426
0
LINE
8
BLACK
6
CONTINUOUS
10
0.893305
20
0.566426
11
0.895284
21
0.566021
0
LINE
8
BLACK
6
CONTINUOUS
10
0.767264
20
0.541908
11
0.768811
21
0.54061
0
LINE
8
BLACK
6
CONTINUOUS
10
0.768811
20
0.54061
11
0.769162
21
0.538621
0
LINE
8
BLACK
6
CONTINUOUS
10
0.769162
20
0.538621
11
0.768152
21
0.536872
0
LINE
8
BLACK
6
CONTINUOUS
10
0.768152
20
0.536872
11
0.766254
21
0.536181
0
LINE
8
BLACK
6
CONTINUOUS
10
0.766254
20
0.536181
11
0.736258
21
0.536181
0
LINE
8
BLACK
6
CONTINUOUS
10
0.736258
20
0.536181
11
0.735248
21
0.536359
0
LINE
8
BLACK
6
CONTINUOUS
10
0.735248
20
0.536359
11
0.733701
21
0.537657
0
LINE
8
BLACK
6
CONTINUOUS
10
0.733701
20
0.537657
11
0.73335
21
0.539646
0
LINE
8
BLACK
6
CONTINUOUS
10
0.73335
20
0.539646
11
0.73436
21
0.541396
0
LINE
8
BLACK
6
CONTINUOUS
10
0.73436
20
0.541396
11
0.736258
21
0.542086
0
LINE
8
BLACK
6
CONTINUOUS
10
0.736258
20
0.542086
11
0.766254
21
0.542086
0
LINE
8
BLACK
6
CONTINUOUS
10
0.766254
20
0.542086
11
0.767264
21
0.541908
0
LINE
8
BLACK
6
CONTINUOUS
10
0.82696
20
0.677256
11
0.827537
21
0.675864
0
LINE
8
BLACK
6
CONTINUOUS
10
0.827537
20
0.675864
11
0.827537
21
0.646332
0
LINE
8
BLACK
6
CONTINUOUS
10
0.827537
20
0.646332
11
0.861069
21
0.646332
0
LINE
8
BLACK
6
CONTINUOUS
10
0.861069
20
0.646332
11
0.86246
21
0.645756
0
LINE
8
BLACK
6
CONTINUOUS
10
0.86246
20
0.645756
11
0.863037
21
0.644364
0
LINE
8
BLACK
6
CONTINUOUS
10
0.863037
20
0.644364
11
0.86246
21
0.642972
0
LINE
8
BLACK
6
CONTINUOUS
10
0.86246
20
0.642972
11
0.861069
21
0.642395
0
LINE
8
BLACK
6
CONTINUOUS
10
0.861069
20
0.642395
11
0.827537
21
0.642395
0
LINE
8
BLACK
6
CONTINUOUS
10
0.827537
20
0.642395
11
0.827537
21
0.612864
0
LINE
8
BLACK
6
CONTINUOUS
10
0.827537
20
0.612864
11
0.82696
21
0.611472
0
LINE
8
BLACK
6
CONTINUOUS
10
0.82696
20
0.611472
11
0.825569
21
0.610895
0
LINE
8
BLACK
6
CONTINUOUS
10
0.825569
20
0.610895
11
0.824177
21
0.611472
0
LINE
8
BLACK
6
CONTINUOUS
10
0.824177
20
0.611472
11
0.8236
21
0.612864
0
LINE
8
BLACK
6
CONTINUOUS
10
0.8236
20
0.612864
11
0.8236
21
0.640733
0
LINE
8
BLACK
6
CONTINUOUS
10
0.8236
20
0.640733
11
0.781343
21
0.613214
0
LINE
8
BLACK
6
CONTINUOUS
10
0.781343
20
0.613214
11
0.780789
21
0.613111
0
LINE
8
BLACK
6
CONTINUOUS
10
0.780789
20
0.613111
11
0.780269
21
0.612895
0
LINE
8
BLACK
6
CONTINUOUS
10
0.780269
20
0.612895
11
0.780071
21
0.612977
0
LINE
8
BLACK
6
CONTINUOUS
10
0.780071
20
0.612977
11
0.779862
21
0.612938
0
LINE
8
BLACK
6
CONTINUOUS
10
0.779862
20
0.612938
11
0.779397
21
0.613256
0
LINE
8
BLACK
6
CONTINUOUS
10
0.779397
20
0.613256
11
0.778877
21
0.613472
0
LINE
8
BLACK
6
CONTINUOUS
10
0.778877
20
0.613472
11
0.778795
21
0.613669
0
LINE
8
BLACK
6
CONTINUOUS
10
0.778795
20
0.613669
11
0.778619
21
0.61379
0
LINE
8
BLACK
6
CONTINUOUS
10
0.778619
20
0.61379
11
0.778516
21
0.614343
0
LINE
8
BLACK
6
CONTINUOUS
10
0.778516
20
0.614343
11
0.7783
21
0.614864
0
LINE
8
BLACK
6
CONTINUOUS
10
0.7783
20
0.614864
11
0.7783
21
0.642395
0
LINE
8
BLACK
6
CONTINUOUS
10
0.7783
20
0.642395
11
0.740969
21
0.642395
0
LINE
8
BLACK
6
CONTINUOUS
10
0.740969
20
0.642395
11
0.739577
21
0.642972
0
LINE
8
BLACK
6
CONTINUOUS
10
0.739577
20
0.642972
11
0.739
21
0.644364
0
LINE
8
BLACK
6
CONTINUOUS
10
0.739
20
0.644364
11
0.739577
21
0.645756
0
LINE
8
BLACK
6
CONTINUOUS
10
0.739577
20
0.645756
11
0.740969
21
0.646332
0
LINE
8
BLACK
6
CONTINUOUS
10
0.740969
20
0.646332
11
0.7783
21
0.646332
0
LINE
8
BLACK
6
CONTINUOUS
10
0.7783
20
0.646332
11
0.7783
21
0.675864
0
LINE
8
BLACK
6
CONTINUOUS
10
0.7783
20
0.675864
11
0.778526
21
0.67641
0
LINE
8
BLACK
6
CONTINUOUS
10
0.778526
20
0.67641
11
0.778652
21
0.676988
0
LINE
8
BLACK
6
CONTINUOUS
10
0.778652
20
0.676988
11
0.778806
21
0.677087
0
LINE
8
BLACK
6
CONTINUOUS
10
0.778806
20
0.677087
11
0.778877
21
0.677256
0
LINE
8
BLACK
6
CONTINUOUS
10
0.778877
20
0.677256
11
0.779423
21
0.677482
0
LINE
8
BLACK
6
CONTINUOUS
10
0.779423
20
0.677482
11
0.77992
21
0.677801
0
LINE
8
BLACK
6
CONTINUOUS
10
0.77992
20
0.677801
11
0.780099
21
0.677762
0
LINE
8
BLACK
6
CONTINUOUS
10
0.780099
20
0.677762
11
0.780269
21
0.677832
0
LINE
8
BLACK
6
CONTINUOUS
10
0.780269
20
0.677832
11
0.780815
21
0.677606
0
LINE
8
BLACK
6
CONTINUOUS
10
0.780815
20
0.677606
11
0.781392
21
0.67748
0
LINE
8
BLACK
6
CONTINUOUS
10
0.781392
20
0.67748
11
0.8236
21
0.64813
0
LINE
8
BLACK
6
CONTINUOUS
10
0.8236
20
0.64813
11
0.8236
21
0.675864
0
LINE
8
BLACK
6
CONTINUOUS
10
0.8236
20
0.675864
11
0.824177
21
0.677256
0
LINE
8
BLACK
6
CONTINUOUS
10
0.824177
20
0.677256
11
0.825569
21
0.677832
0
LINE
8
BLACK
6
CONTINUOUS
10
0.825569
20
0.677832
11
0.82696
21
0.677256
0
LINE
8
BLACK
6
CONTINUOUS
10
0.782237
20
0.618495
11
0.822043
21
0.644417
0
LINE
8
BLACK
6
CONTINUOUS
10
0.822043
20
0.644417
11
0.782237
21
0.672097
0
LINE
8
BLACK
6
CONTINUOUS
10
0.782237
20
0.672097
11
0.782237
21
0.618495
0
LINE
8
BLACK
6
CONTINUOUS
10
0.890551
20
0.705428
11
0.891943
21
0.704851
0
LINE
8
BLACK
6
CONTINUOUS
10
0.891943
20
0.704851
11
0.89252
21
0.703459
0
LINE
8
BLACK
6
CONTINUOUS
10
0.89252
20
0.703459
11
0.89252
21
0.585349
0
LINE
8
BLACK
6
CONTINUOUS
10
0.89252
20
0.585349
11
0.891943
21
0.583957
0
LINE
8
BLACK
6
CONTINUOUS
10
0.891943
20
0.583957
11
0.890551
21
0.58338
0
LINE
8
BLACK
6
CONTINUOUS
10
0.890551
20
0.58338
11
0.709449
21
0.58338
0
LINE
8
BLACK
6
CONTINUOUS
10
0.709449
20
0.58338
11
0.708057
21
0.583957
0
LINE
8
BLACK
6
CONTINUOUS
10
0.708057
20
0.583957
11
0.70748
21
0.585349
0
LINE
8
BLACK
6
CONTINUOUS
10
0.70748
20
0.585349
11
0.70748
21
0.703459
0
LINE
8
BLACK
6
CONTINUOUS
10
0.70748
20
0.703459
11
0.708057
21
0.704851
0
LINE
8
BLACK
6
CONTINUOUS
10
0.708057
20
0.704851
11
0.709449
21
0.705428
0
LINE
8
BLACK
6
CONTINUOUS
10
0.709449
20
0.705428
11
0.890551
21
0.705428
0
LINE
8
BLACK
6
CONTINUOUS
10
0.711417
20
0.701491
11
0.711417
21
0.587317
0
LINE
8
BLACK
6
CONTINUOUS
10
0.711417
20
0.587317
11
0.888583
21
0.587317
0
LINE
8
BLACK
6
CONTINUOUS
10
0.888583
20
0.587317
11
0.888583
21
0.701491
0
LINE
8
BLACK
6
CONTINUOUS
10
0.888583
20
0.701491
11
0.711417
21
0.701491
0
LINE
8
BLACK
6
CONTINUOUS
10
0.780975
20
0.767116
11
0.781144
21
0.767127
0
LINE
8
BLACK
6
CONTINUOUS
10
0.781144
20
0.767127
11
0.781835
21
0.766619
0
LINE
8
BLACK
6
CONTINUOUS
10
0.781835
20
0.766619
11
0.782577
21
0.766191
0
LINE
8
BLACK
6
CONTINUOUS
10
0.782577
20
0.766191
11
0.782635
21
0.766031
0
LINE
8
BLACK
6
CONTINUOUS
10
0.782635
20
0.766031
11
0.782772
21
0.765931
0
LINE
8
BLACK
6
CONTINUOUS
10
0.782772
20
0.765931
11
0.786359
21
0.76055
0
LINE
8
BLACK
6
CONTINUOUS
10
0.786359
20
0.76055
11
0.789563
21
0.757346
0
LINE
8
BLACK
6
CONTINUOUS
10
0.789563
20
0.757346
11
0.792884
21
0.755685
0
LINE
8
BLACK
6
CONTINUOUS
10
0.792884
20
0.755685
11
0.793708
21
0.755074
0
LINE
8
BLACK
6
CONTINUOUS
10
0.793708
20
0.755074
11
0.794511
21
0.753221
0
LINE
8
BLACK
6
CONTINUOUS
10
0.794511
20
0.753221
11
0.793935
21
0.751285
0
LINE
8
BLACK
6
CONTINUOUS
10
0.793935
20
0.751285
11
0.79225
21
0.750172
0
LINE
8
BLACK
6
CONTINUOUS
10
0.79225
20
0.750172
11
0.790243
21
0.750403
0
LINE
8
BLACK
6
CONTINUOUS
10
0.790243
20
0.750403
11
0.786493
21
0.752278
0
LINE
8
BLACK
6
CONTINUOUS
10
0.786493
20
0.752278
11
0.785784
21
0.752804
0
LINE
8
BLACK
6
CONTINUOUS
10
0.785784
20
0.752804
11
0.785726
21
0.752831
0
LINE
8
BLACK
6
CONTINUOUS
10
0.785726
20
0.752831
11
0.783268
21
0.75529
0
LINE
8
BLACK
6
CONTINUOUS
10
0.783268
20
0.75529
11
0.783268
21
0.727876
0
LINE
8
BLACK
6
CONTINUOUS
10
0.783268
20
0.727876
11
0.791564
21
0.727876
0
LINE
8
BLACK
6
CONTINUOUS
10
0.791564
20
0.727876
11
0.792573
21
0.727698
0
LINE
8
BLACK
6
CONTINUOUS
10
0.792573
20
0.727698
11
0.794121
21
0.726399
0
LINE
8
BLACK
6
CONTINUOUS
10
0.794121
20
0.726399
11
0.794471
21
0.72441
0
LINE
8
BLACK
6
CONTINUOUS
10
0.794471
20
0.72441
11
0.793461
21
0.722661
0
LINE
8
BLACK
6
CONTINUOUS
10
0.793461
20
0.722661
11
0.791564
21
0.72197
0
LINE
8
BLACK
6
CONTINUOUS
10
0.791564
20
0.72197
11
0.769066
21
0.72197
0
LINE
8
BLACK
6
CONTINUOUS
10
0.769066
20
0.72197
11
0.768056
21
0.722148
0
LINE
8
BLACK
6
CONTINUOUS
10
0.768056
20
0.722148
11
0.766509
21
0.723446
0
LINE
8
BLACK
6
CONTINUOUS
10
0.766509
20
0.723446
11
0.766158
21
0.725436
0
LINE
8
BLACK
6
CONTINUOUS
10
0.766158
20
0.725436
11
0.767168
21
0.727185
0
LINE
8
BLACK
6
CONTINUOUS
10
0.767168
20
0.727185
11
0.769066
21
0.727876
0
LINE
8
BLACK
6
CONTINUOUS
10
0.769066
20
0.727876
11
0.777362
21
0.727876
0
LINE
8
BLACK
6
CONTINUOUS
10
0.777362
20
0.727876
11
0.777362
21
0.764293
0
LINE
8
BLACK
6
CONTINUOUS
10
0.777362
20
0.764293
11
0.77754
21
0.765303
0
LINE
8
BLACK
6
CONTINUOUS
10
0.77754
20
0.765303
11
0.777649
21
0.765433
0
LINE
8
BLACK
6
CONTINUOUS
10
0.777649
20
0.765433
11
0.777668
21
0.765602
0
LINE
8
BLACK
6
CONTINUOUS
10
0.777668
20
0.765602
11
0.778288
21
0.766194
0
LINE
8
BLACK
6
CONTINUOUS
10
0.778288
20
0.766194
11
0.778839
21
0.76685
0
LINE
8
BLACK
6
CONTINUOUS
10
0.778839
20
0.76685
11
0.779006
21
0.76688
0
LINE
8
BLACK
6
CONTINUOUS
10
0.779006
20
0.76688
11
0.779129
21
0.766997
0
LINE
8
BLACK
6
CONTINUOUS
10
0.779129
20
0.766997
11
0.779984
21
0.767052
0
LINE
8
BLACK
6
CONTINUOUS
10
0.779984
20
0.767052
11
0.780828
21
0.767201
0
LINE
8
BLACK
6
CONTINUOUS
10
0.780828
20
0.767201
11
0.780975
21
0.767116
0
LINE
8
BLACK
6
CONTINUOUS
10
0.829442
20
0.767178
11
0.829572
21
0.767201
0
LINE
8
BLACK
6
CONTINUOUS
10
0.829572
20
0.767201
11
0.829685
21
0.767135
0
LINE
8
BLACK
6
CONTINUOUS
10
0.829685
20
0.767135
11
0.830069
21
0.767068
0
LINE
8
BLACK
6
CONTINUOUS
10
0.830069
20
0.767068
11
0.830656
21
0.766575
0
LINE
8
BLACK
6
CONTINUOUS
10
0.830656
20
0.766575
11
0.831321
21
0.766191
0
LINE
8
BLACK
6
CONTINUOUS
10
0.831321
20
0.766191
11
0.831412
21
0.765941
0
LINE
8
BLACK
6
CONTINUOUS
10
0.831412
20
0.765941
11
0.831616
21
0.765769
0
LINE
8
BLACK
6
CONTINUOUS
10
0.831616
20
0.765769
11
0.831749
21
0.765014
0
LINE
8
BLACK
6
CONTINUOUS
10
0.831749
20
0.765014
11
0.832012
21
0.764293
0
LINE
8
BLACK
6
CONTINUOUS
10
0.832012
20
0.764293
11
0.832012
21
0.724923
0
LINE
8
BLACK
6
CONTINUOUS
10
0.832012
20
0.724923
11
0.831944
21
0.724539
0
LINE
8
BLACK
6
CONTINUOUS
10
0.831944
20
0.724539
11
0.831967
21
0.72441
0
LINE
8
BLACK
6
CONTINUOUS
10
0.831967
20
0.72441
11
0.831901
21
0.724297
0
LINE
8
BLACK
6
CONTINUOUS
10
0.831901
20
0.724297
11
0.831834
21
0.723913
0
LINE
8
BLACK
6
CONTINUOUS
10
0.831834
20
0.723913
11
0.83134
21
0.723325
0
LINE
8
BLACK
6
CONTINUOUS
10
0.83134
20
0.723325
11
0.830957
21
0.722661
0
LINE
8
BLACK
6
CONTINUOUS
10
0.830957
20
0.722661
11
0.830706
21
0.72257
0
LINE
8
BLACK
6
CONTINUOUS
10
0.830706
20
0.72257
11
0.830535
21
0.722366
0
LINE
8
BLACK
6
CONTINUOUS
10
0.830535
20
0.722366
11
0.82978
21
0.722232
0
LINE
8
BLACK
6
CONTINUOUS
10
0.82978
20
0.722232
11
0.829059
21
0.72197
0
LINE
8
BLACK
6
CONTINUOUS
10
0.829059
20
0.72197
11
0.819685
21
0.72197
0
LINE
8
BLACK
6
CONTINUOUS
10
0.819685
20
0.72197
11
0.818816
21
0.722123
0
LINE
8
BLACK
6
CONTINUOUS
10
0.818816
20
0.722123
11
0.818751
21
0.722122
0
LINE
8
BLACK
6
CONTINUOUS
10
0.818751
20
0.722122
11
0.813127
21
0.723996
0
LINE
8
BLACK
6
CONTINUOUS
10
0.813127
20
0.723996
11
0.812225
21
0.724485
0
LINE
8
BLACK
6
CONTINUOUS
10
0.812225
20
0.724485
11
0.812133
21
0.724635
0
LINE
8
BLACK
6
CONTINUOUS
10
0.812133
20
0.724635
11
0.811973
21
0.72471
0
LINE
8
BLACK
6
CONTINUOUS
10
0.811973
20
0.72471
11
0.808223
21
0.728459
0
LINE
8
BLACK
6
CONTINUOUS
10
0.808223
20
0.728459
11
0.807717
21
0.729182
0
LINE
8
BLACK
6
CONTINUOUS
10
0.807717
20
0.729182
11
0.80767
21
0.729227
0
LINE
8
BLACK
6
CONTINUOUS
10
0.80767
20
0.729227
11
0.805795
21
0.732976
0
LINE
8
BLACK
6
CONTINUOUS
10
0.805795
20
0.732976
11
0.80565
21
0.733465
0
LINE
8
BLACK
6
CONTINUOUS
10
0.80565
20
0.733465
11
0.805572
21
0.733581
0
LINE
8
BLACK
6
CONTINUOUS
10
0.805572
20
0.733581
11
0.803697
21
0.74108
0
LINE
8
BLACK
6
CONTINUOUS
10
0.803697
20
0.74108
11
0.803656
21
0.741668
0
LINE
8
BLACK
6
CONTINUOUS
10
0.803656
20
0.741668
11
0.803609
21
0.741796
0
LINE
8
BLACK
6
CONTINUOUS
10
0.803609
20
0.741796
11
0.803609
21
0.74742
0
LINE
8
BLACK
6
CONTINUOUS
10
0.803609
20
0.74742
11
0.803711
21
0.748
0
LINE
8
BLACK
6
CONTINUOUS
10
0.803711
20
0.748
11
0.803697
21
0.748136
0
LINE
8
BLACK
6
CONTINUOUS
10
0.803697
20
0.748136
11
0.805572
21
0.755635
0
LINE
8
BLACK
6
CONTINUOUS
10
0.805572
20
0.755635
11
0.805779
21
0.756101
0
LINE
8
BLACK
6
CONTINUOUS
10
0.805779
20
0.756101
11
0.805795
21
0.75624
0
LINE
8
BLACK
6
CONTINUOUS
10
0.805795
20
0.75624
11
0.80767
21
0.759989
0
LINE
8
BLACK
6
CONTINUOUS
10
0.80767
20
0.759989
11
0.808196
21
0.760698
0
LINE
8
BLACK
6
CONTINUOUS
10
0.808196
20
0.760698
11
0.808223
21
0.760757
0
LINE
8
BLACK
6
CONTINUOUS
10
0.808223
20
0.760757
11
0.811973
21
0.764506
0
LINE
8
BLACK
6
CONTINUOUS
10
0.811973
20
0.764506
11
0.812813
21
0.765094
0
LINE
8
BLACK
6
CONTINUOUS
10
0.812813
20
0.765094
11
0.812989
21
0.76511
0
LINE
8
BLACK
6
CONTINUOUS
10
0.812989
20
0.76511
11
0.813127
21
0.765219
0
LINE
8
BLACK
6
CONTINUOUS
10
0.813127
20
0.765219
11
0.818751
21
0.767094
0
LINE
8
BLACK
6
CONTINUOUS
10
0.818751
20
0.767094
11
0.819624
21
0.767224
0
LINE
8
BLACK
6
CONTINUOUS
10
0.819624
20
0.767224
11
0.819685
21
0.767246
0
LINE
8
BLACK
6
CONTINUOUS
10
0.819685
20
0.767246
11
0.829059
21
0.767246
0
LINE
8
BLACK
6
CONTINUOUS
10
0.829059
20
0.767246
11
0.829442
21
0.767178
0
LINE
8
BLACK
6
CONTINUOUS
10
0.815656
20
0.759837
11
0.812738
21
0.75692
0
LINE
8
BLACK
6
CONTINUOUS
10
0.812738
20
0.75692
11
0.811222
21
0.753889
0
LINE
8
BLACK
6
CONTINUOUS
10
0.811222
20
0.753889
11
0.809514
21
0.747057
0
LINE
8
BLACK
6
CONTINUOUS
10
0.809514
20
0.747057
11
0.809514
21
0.742159
0
LINE
8
BLACK
6
CONTINUOUS
10
0.809514
20
0.742159
11
0.811222
21
0.735327
0
LINE
8
BLACK
6
CONTINUOUS
10
0.811222
20
0.735327
11
0.812738
21
0.732296
0
LINE
8
BLACK
6
CONTINUOUS
10
0.812738
20
0.732296
11
0.815656
21
0.729378
0
LINE
8
BLACK
6
CONTINUOUS
10
0.815656
20
0.729378
11
0.820164
21
0.727876
0
LINE
8
BLACK
6
CONTINUOUS
10
0.820164
20
0.727876
11
0.826106
21
0.727876
0
LINE
8
BLACK
6
CONTINUOUS
10
0.826106
20
0.727876
11
0.826106
21
0.76134
0
LINE
8
BLACK
6
CONTINUOUS
10
0.826106
20
0.76134
11
0.820164
21
0.76134
0
LINE
8
BLACK
6
CONTINUOUS
10
0.820164
20
0.76134
11
0.815656
21
0.759837
0
LINE
8
BLACK
6
CONTINUOUS
10
0.400073
20
0.975813
11
0.400208
21
0.9757
0
LINE
8
BLACK
6
CONTINUOUS
10
0.400208
20
0.9757
11
0.400383
21
0.97568
0
LINE
8
BLACK
6
CONTINUOUS
10
0.400383
20
0.97568
11
0.404133
21
0.973805
0
LINE
8
BLACK
6
CONTINUOUS
10
0.404133
20
0.973805
11
0.404842
21
0.973279
0
LINE
8
BLACK
6
CONTINUOUS
10
0.404842
20
0.973279
11
0.4049
21
0.973252
0
LINE
8
BLACK
6
CONTINUOUS
10
0.4049
20
0.973252
11
0.406775
21
0.971377
0
LINE
8
BLACK
6
CONTINUOUS
10
0.406775
20
0.971377
11
0.407281
21
0.970654
0
LINE
8
BLACK
6
CONTINUOUS
10
0.407281
20
0.970654
11
0.407328
21
0.97061
0
LINE
8
BLACK
6
CONTINUOUS
10
0.407328
20
0.97061
11
0.409203
21
0.96686
0
LINE
8
BLACK
6
CONTINUOUS
10
0.409203
20
0.96686
11
0.409348
21
0.966372
0
LINE
8
BLACK
6
CONTINUOUS
10
0.409348
20
0.966372
11
0.409426
21
0.966256
0
LINE
8
BLACK
6
CONTINUOUS
10
0.409426
20
0.966256
11
0.411301
21
0.958757
0
LINE
8
BLACK
6
CONTINUOUS
10
0.411301
20
0.958757
11
0.411342
21
0.958169
0
LINE
8
BLACK
6
CONTINUOUS
10
0.411342
20
0.958169
11
0.411389
21
0.958041
0
LINE
8
BLACK
6
CONTINUOUS
10
0.411389
20
0.958041
11
0.411389
21
0.948667
0
LINE
8
BLACK
6
CONTINUOUS
10
0.411389
20
0.948667
11
0.411287
21
0.948086
0
LINE
8
BLACK
6
CONTINUOUS
10
0.411287
20
0.948086
11
0.411301
21
0.947951
0
LINE
8
BLACK
6
CONTINUOUS
10
0.411301
20
0.947951
11
0.409426
21
0.940451
0
LINE
8
BLACK
6
CONTINUOUS
10
0.409426
20
0.940451
11
0.409219
21
0.939986
0
LINE
8
BLACK
6
CONTINUOUS
10
0.409219
20
0.939986
11
0.409203
21
0.939847
0
LINE
8
BLACK
6
CONTINUOUS
10
0.409203
20
0.939847
11
0.407328
21
0.936098
0
LINE
8
BLACK
6
CONTINUOUS
10
0.407328
20
0.936098
11
0.406802
21
0.935389
0
LINE
8
BLACK
6
CONTINUOUS
10
0.406802
20
0.935389
11
0.406775
21
0.93533
0
LINE
8
BLACK
6
CONTINUOUS
10
0.406775
20
0.93533
11
0.4049
21
0.933455
0
LINE
8
BLACK
6
CONTINUOUS
10
0.4049
20
0.933455
11
0.404177
21
0.932949
0
LINE
8
BLACK
6
CONTINUOUS
10
0.404177
20
0.932949
11
0.404133
21
0.932902
0
LINE
8
BLACK
6
CONTINUOUS
10
0.404133
20
0.932902
11
0.400383
21
0.931028
0
LINE
8
BLACK
6
CONTINUOUS
10
0.400383
20
0.931028
11
0.3994
21
0.930735
0
LINE
8
BLACK
6
CONTINUOUS
10
0.3994
20
0.930735
11
0.399228
21
0.930776
0
LINE
8
BLACK
6
CONTINUOUS
10
0.399228
20
0.930776
11
0.399063
21
0.930716
0
LINE
8
BLACK
6
CONTINUOUS
10
0.399063
20
0.930716
11
0.395313
21
0.930716
0
LINE
8
BLACK
6
CONTINUOUS
10
0.395313
20
0.930716
11
0.394303
21
0.930894
0
LINE
8
BLACK
6
CONTINUOUS
10
0.394303
20
0.930894
11
0.394168
21
0.931007
0
LINE
8
BLACK
6
CONTINUOUS
10
0.394168
20
0.931007
11
0.393993
21
0.931028
0
LINE
8
BLACK
6
CONTINUOUS
10
0.393993
20
0.931028
11
0.390243
21
0.932902
0
LINE
8
BLACK
6
CONTINUOUS
10
0.390243
20
0.932902
11
0.389534
21
0.933428
0
LINE
8
BLACK
6
CONTINUOUS
10
0.389534
20
0.933428
11
0.389476
21
0.933455
0
LINE
8
BLACK
6
CONTINUOUS
10
0.389476
20
0.933455
11
0.387601
21
0.93533
0
LINE
8
BLACK
6
CONTINUOUS
10
0.387601
20
0.93533
11
0.387095
21
0.936053
0
LINE
8
BLACK
6
CONTINUOUS
10
0.387095
20
0.936053
11
0.387048
21
0.936098
0
LINE
8
BLACK
6
CONTINUOUS
10
0.387048
20
0.936098
11
0.385173
21
0.939847
0
LINE
8
BLACK
6
CONTINUOUS
10
0.385173
20
0.939847
11
0.385028
21
0.940336
0
LINE
8
BLACK
6
CONTINUOUS
10
0.385028
20
0.940336
11
0.384949
21
0.940451
0
LINE
8
BLACK
6
CONTINUOUS
10
0.384949
20
0.940451
11
0.383075
21
0.947951
0
LINE
8
BLACK
6
CONTINUOUS
10
0.383075
20
0.947951
11
0.383033
21
0.948538
0
LINE
8
BLACK
6
CONTINUOUS
10
0.383033
20
0.948538
11
0.382986
21
0.948667
0
LINE
8
BLACK
6
CONTINUOUS
10
0.382986
20
0.948667
11
0.382986
21
0.958041
0
LINE
8
BLACK
6
CONTINUOUS
10
0.382986
20
0.958041
11
0.383089
21
0.958621
0
LINE
8
BLACK
6
CONTINUOUS
10
0.383089
20
0.958621
11
0.383075
21
0.958757
0
LINE
8
BLACK
6
CONTINUOUS
10
0.383075
20
0.958757
11
0.384949
21
0.966256
0
LINE
8
BLACK
6
CONTINUOUS
10
0.384949
20
0.966256
11
0.385157
21
0.966721
0
LINE
8
BLACK
6
CONTINUOUS
10
0.385157
20
0.966721
11
0.385173
21
0.96686
0
LINE
8
BLACK
6
CONTINUOUS
10
0.385173
20
0.96686
11
0.387048
21
0.97061
0
LINE
8
BLACK
6
CONTINUOUS
10
0.387048
20
0.97061
11
0.387574
21
0.971319
0
LINE
8
BLACK
6
CONTINUOUS
10
0.387574
20
0.971319
11
0.387601
21
0.971377
0
LINE
8
BLACK
6
CONTINUOUS
10
0.387601
20
0.971377
11
0.389476
21
0.973252
0
LINE
8
BLACK
6
CONTINUOUS
10
0.389476
20
0.973252
11
0.390199
21
0.973758
0
LINE
8
BLACK
6
CONTINUOUS
10
0.390199
20
0.973758
11
0.390243
21
0.973805
0
LINE
8
BLACK
6
CONTINUOUS
10
0.390243
20
0.973805
11
0.393993
21
0.97568
0
LINE
8
BLACK
6
CONTINUOUS
10
0.393993
20
0.97568
11
0.394975
21
0.975972
0
LINE
8
BLACK
6
CONTINUOUS
10
0.394975
20
0.975972
11
0.395147
21
0.975931
0
LINE
8
BLACK
6
CONTINUOUS
10
0.395147
20
0.975931
11
0.395313
21
0.975991
0
LINE
8
BLACK
6
CONTINUOUS
10
0.395313
20
0.975991
11
0.399063
21
0.975991
0
LINE
8
BLACK
6
CONTINUOUS
10
0.399063
20
0.975991
11
0.400073
21
0.975813
0
LINE
8
BLACK
6
CONTINUOUS
10
0.393313
20
0.968737
11
0.392116
21
0.96754
0
LINE
8
BLACK
6
CONTINUOUS
10
0.392116
20
0.96754
11
0.3906
21
0.964509
0
LINE
8
BLACK
6
CONTINUOUS
10
0.3906
20
0.964509
11
0.388892
21
0.957677
0
LINE
8
BLACK
6
CONTINUOUS
10
0.388892
20
0.957677
11
0.388892
21
0.94903
0
LINE
8
BLACK
6
CONTINUOUS
10
0.388892
20
0.94903
11
0.3906
21
0.942198
0
LINE
8
BLACK
6
CONTINUOUS
10
0.3906
20
0.942198
11
0.392116
21
0.939167
0
LINE
8
BLACK
6
CONTINUOUS
10
0.392116
20
0.939167
11
0.393313
21
0.93797
0
LINE
8
BLACK
6
CONTINUOUS
10
0.393313
20
0.93797
11
0.39601
21
0.936621
0
LINE
8
BLACK
6
CONTINUOUS
10
0.39601
20
0.936621
11
0.398366
21
0.936621
0
LINE
8
BLACK
6
CONTINUOUS
10
0.398366
20
0.936621
11
0.401063
21
0.93797
0
LINE
8
BLACK
6
CONTINUOUS
10
0.401063
20
0.93797
11
0.40226
21
0.939167
0
LINE
8
BLACK
6
CONTINUOUS
10
0.40226
20
0.939167
11
0.403776
21
0.942198
0
LINE
8
BLACK
6
CONTINUOUS
10
0.403776
20
0.942198
11
0.405484
21
0.94903
0
LINE
8
BLACK
6
CONTINUOUS
10
0.405484
20
0.94903
11
0.405484
21
0.957677
0
LINE
8
BLACK
6
CONTINUOUS
10
0.405484
20
0.957677
11
0.403776
21
0.964509
0
LINE
8
BLACK
6
CONTINUOUS
10
0.403776
20
0.964509
11
0.40226
21
0.96754
0
LINE
8
BLACK
6
CONTINUOUS
10
0.40226
20
0.96754
11
0.401063
21
0.968737
0
LINE
8
BLACK
6
CONTINUOUS
10
0.401063
20
0.968737
11
0.398366
21
0.970086
0
LINE
8
BLACK
6
CONTINUOUS
10
0.398366
20
0.970086
11
0.39601
21
0.970086
0
LINE
8
BLACK
6
CONTINUOUS
10
0.39601
20
0.970086
11
0.393313
21
0.968737
0
LINE
8
BLACK
6
CONTINUOUS
10
0.437568
20
0.975813
11
0.437703
21
0.9757
0
LINE
8
BLACK
6
CONTINUOUS
10
0.437703
20
0.9757
11
0.437878
21
0.97568
0
LINE
8
BLACK
6
CONTINUOUS
10
0.437878
20
0.97568
11
0.441628
21
0.973805
0
LINE
8
BLACK
6
CONTINUOUS
10
0.441628
20
0.973805
11
0.442337
21
0.973279
0
LINE
8
BLACK
6
CONTINUOUS
10
0.442337
20
0.973279
11
0.442395
21
0.973252
0
LINE
8
BLACK
6
CONTINUOUS
10
0.442395
20
0.973252
11
0.44427
21
0.971377
0
LINE
8
BLACK
6
CONTINUOUS
10
0.44427
20
0.971377
11
0.444776
21
0.970654
0
LINE
8
BLACK
6
CONTINUOUS
10
0.444776
20
0.970654
11
0.444823
21
0.97061
0
LINE
8
BLACK
6
CONTINUOUS
10
0.444823
20
0.97061
11
0.446698
21
0.96686
0
LINE
8
BLACK
6
CONTINUOUS
10
0.446698
20
0.96686
11
0.446843
21
0.966372
0
LINE
8
BLACK
6
CONTINUOUS
10
0.446843
20
0.966372
11
0.446922
21
0.966256
0
LINE
8
BLACK
6
CONTINUOUS
10
0.446922
20
0.966256
11
0.448796
21
0.958757
0
LINE
8
BLACK
6
CONTINUOUS
10
0.448796
20
0.958757
11
0.448838
21
0.958169
0
LINE
8
BLACK
6
CONTINUOUS
10
0.448838
20
0.958169
11
0.448884
21
0.958041
0
LINE
8
BLACK
6
CONTINUOUS
10
0.448884
20
0.958041
11
0.448884
21
0.948667
0
LINE
8
BLACK
6
CONTINUOUS
10
0.448884
20
0.948667
11
0.448782
21
0.948086
0
LINE
8
BLACK
6
CONTINUOUS
10
0.448782
20
0.948086
11
0.448796
21
0.947951
0
LINE
8
BLACK
6
CONTINUOUS
10
0.448796
20
0.947951
11
0.446922
21
0.940451
0
LINE
8
BLACK
6
CONTINUOUS
10
0.446922
20
0.940451
11
0.446714
21
0.939986
0
LINE
8
BLACK
6
CONTINUOUS
10
0.446714
20
0.939986
11
0.446698
21
0.939847
0
LINE
8
BLACK
6
CONTINUOUS
10
0.446698
20
0.939847
11
0.444823
21
0.936098
0
LINE
8
BLACK
6
CONTINUOUS
10
0.444823
20
0.936098
11
0.444297
21
0.935389
0
LINE
8
BLACK
6
CONTINUOUS
10
0.444297
20
0.935389
11
0.44427
21
0.93533
0
LINE
8
BLACK
6
CONTINUOUS
10
0.44427
20
0.93533
11
0.442395
21
0.933455
0
LINE
8
BLACK
6
CONTINUOUS
10
0.442395
20
0.933455
11
0.441672
21
0.932949
0
LINE
8
BLACK
6
CONTINUOUS
10
0.441672
20
0.932949
11
0.441628
21
0.932902
0
LINE
8
BLACK
6
CONTINUOUS
10
0.441628
20
0.932902
11
0.437878
21
0.931028
0
LINE
8
BLACK
6
CONTINUOUS
10
0.437878
20
0.931028
11
0.436895
21
0.930735
0
LINE
8
BLACK
6
CONTINUOUS
10
0.436895
20
0.930735
11
0.436724
21
0.930776
0
LINE
8
BLACK
6
CONTINUOUS
10
0.436724
20
0.930776
11
0.436558
21
0.930716
0
LINE
8
BLACK
6
CONTINUOUS
10
0.436558
20
0.930716
11
0.432808
21
0.930716
0
LINE
8
BLACK
6
CONTINUOUS
10
0.432808
20
0.930716
11
0.431798
21
0.930894
0
LINE
8
BLACK
6
CONTINUOUS
10
0.431798
20
0.930894
11
0.431663
21
0.931007
0
LINE
8
BLACK
6
CONTINUOUS
10
0.431663
20
0.931007
11
0.431488
21
0.931028
0
LINE
8
BLACK
6
CONTINUOUS
10
0.431488
20
0.931028
11
0.427738
21
0.932902
0
LINE
8
BLACK
6
CONTINUOUS
10
0.427738
20
0.932902
11
0.427029
21
0.933428
0
LINE
8
BLACK
6
CONTINUOUS
10
0.427029
20
0.933428
11
0.426971
21
0.933455
0
LINE
8
BLACK
6
CONTINUOUS
10
0.426971
20
0.933455
11
0.425096
21
0.93533
0
LINE
8
BLACK
6
CONTINUOUS
10
0.425096
20
0.93533
11
0.42459
21
0.936053
0
LINE
8
BLACK
6
CONTINUOUS
10
0.42459
20
0.936053
11
0.424543
21
0.936098
0
LINE
8
BLACK
6
CONTINUOUS
10
0.424543
20
0.936098
11
0.422668
21
0.939847
0
LINE
8
BLACK
6
CONTINUOUS
10
0.422668
20
0.939847
11
0.422523
21
0.940336
0
LINE
8
BLACK
6
CONTINUOUS
10
0.422523
20
0.940336
11
0.422445
21
0.940451
0
LINE
8
BLACK
6
CONTINUOUS
10
0.422445
20
0.940451
11
0.42057
21
0.947951
0
LINE
8
BLACK
6
CONTINUOUS
10
0.42057
20
0.947951
11
0.420528
21
0.948538
0
LINE
8
BLACK
6
CONTINUOUS
10
0.420528
20
0.948538
11
0.420482
21
0.948667
0
LINE
8
BLACK
6
CONTINUOUS
10
0.420482
20
0.948667
11
0.420482
21
0.958041
0
LINE
8
BLACK
6
CONTINUOUS
10
0.420482
20
0.958041
11
0.420584
21
0.958621
0
LINE
8
BLACK
6
CONTINUOUS
10
0.420584
20
0.958621
11
0.42057
21
0.958757
0
LINE
8
BLACK
6
CONTINUOUS
10
0.42057
20
0.958757
11
0.422445
21
0.966256
0
LINE
8
BLACK
6
CONTINUOUS
10
0.422445
20
0.966256
11
0.422652
21
0.966721
0
LINE
8
BLACK
6
CONTINUOUS
10
0.422652
20
0.966721
11
0.422668
21
0.96686
0
LINE
8
BLACK
6
CONTINUOUS
10
0.422668
20
0.96686
11
0.424543
21
0.97061
0
LINE
8
BLACK
6
CONTINUOUS
10
0.424543
20
0.97061
11
0.425069
21
0.971319
0
LINE
8
BLACK
6
CONTINUOUS
10
0.425069
20
0.971319
11
0.425096
21
0.971377
0
LINE
8
BLACK
6
CONTINUOUS
10
0.425096
20
0.971377
11
0.426971
21
0.973252
0
LINE
8
BLACK
6
CONTINUOUS
10
0.426971
20
0.973252
11
0.427694
21
0.973758
0
LINE
8
BLACK
6
CONTINUOUS
10
0.427694
20
0.973758
11
0.427738
21
0.973805
0
LINE
8
BLACK
6
CONTINUOUS
10
0.427738
20
0.973805
11
0.431488
21
0.97568
0
LINE
8
BLACK
6
CONTINUOUS
10
0.431488
20
0.97568
11
0.432471
21
0.975972
0
LINE
8
BLACK
6
CONTINUOUS
10
0.432471
20
0.975972
11
0.432642
21
0.975931
0
LINE
8
BLACK
6
CONTINUOUS
10
0.432642
20
0.975931
11
0.432808
21
0.975991
0
LINE
8
BLACK
6
CONTINUOUS
10
0.432808
20
0.975991
11
0.436558
21
0.975991
0
LINE
8
BLACK
6
CONTINUOUS
10
0.436558
20
0.975991
11
0.437568
21
0.975813
0
LINE
8
BLACK
6
CONTINUOUS
10
0.430808
20
0.968737
11
0.429611
21
0.96754
0
LINE
8
BLACK
6
CONTINUOUS
10
0.429611
20
0.96754
11
0.428095
21
0.964509
0
LINE
8
BLACK
6
CONTINUOUS
10
0.428095
20
0.964509
11
0.426387
21
0.957677
0
LINE
8
BLACK
6
CONTINUOUS
10
0.426387
20
0.957677
11
0.426387
21
0.94903
0
LINE
8
BLACK
6
CONTINUOUS
10
0.426387
20
0.94903
11
0.428095
21
0.942198
0
LINE
8
BLACK
6
CONTINUOUS
10
0.428095
20
0.942198
11
0.429611
21
0.939167
0
LINE
8
BLACK
6
CONTINUOUS
10
0.429611
20
0.939167
11
0.430808
21
0.93797
0
LINE
8
BLACK
6
CONTINUOUS
10
0.430808
20
0.93797
11
0.433505
21
0.936621
0
LINE
8
BLACK
6
CONTINUOUS
10
0.433505
20
0.936621
11
0.435861
21
0.936621
0
LINE
8
BLACK
6
CONTINUOUS
10
0.435861
20
0.936621
11
0.438558
21
0.93797
0
LINE
8
BLACK
6
CONTINUOUS
10
0.438558
20
0.93797
11
0.439755
21
0.939167
0
LINE
8
BLACK
6
CONTINUOUS
10
0.439755
20
0.939167
11
0.441271
21
0.942198
0
LINE
8
BLACK
6
CONTINUOUS
10
0.441271
20
0.942198
11
0.442979
21
0.94903
0
LINE
8
BLACK
6
CONTINUOUS
10
0.442979
20
0.94903
11
0.442979
21
0.957677
0
LINE
8
BLACK
6
CONTINUOUS
10
0.442979
20
0.957677
11
0.441271
21
0.964509
0
LINE
8
BLACK
6
CONTINUOUS
10
0.441271
20
0.964509
11
0.439755
21
0.96754
0
LINE
8
BLACK
6
CONTINUOUS
10
0.439755
20
0.96754
11
0.438558
21
0.968737
0
LINE
8
BLACK
6
CONTINUOUS
10
0.438558
20
0.968737
11
0.435861
21
0.970086
0
LINE
8
BLACK
6
CONTINUOUS
10
0.435861
20
0.970086
11
0.433505
21
0.970086
0
LINE
8
BLACK
6
CONTINUOUS
10
0.433505
20
0.970086
11
0.430808
21
0.968737
0
LINE
8
BLACK
6
CONTINUOUS
10
0.472838
20
0.975862
11
0.473008
21
0.975873
0
LINE
8
BLACK
6
CONTINUOUS
10
0.473008
20
0.975873
11
0.473698
21
0.975365
0
LINE
8
BLACK
6
CONTINUOUS
10
0.473698
20
0.975365
11
0.47444
21
0.974937
0
LINE
8
BLACK
6
CONTINUOUS
10
0.47444
20
0.974937
11
0.474498
21
0.974777
0
LINE
8
BLACK
6
CONTINUOUS
10
0.474498
20
0.974777
11
0.474635
21
0.974677
0
LINE
8
BLACK
6
CONTINUOUS
10
0.474635
20
0.974677
11
0.478223
21
0.969296
0
LINE
8
BLACK
6
CONTINUOUS
10
0.478223
20
0.969296
11
0.481427
21
0.966092
0
LINE
8
BLACK
6
CONTINUOUS
10
0.481427
20
0.966092
11
0.484748
21
0.964431
0
LINE
8
BLACK
6
CONTINUOUS
10
0.484748
20
0.964431
11
0.485571
21
0.96382
0
LINE
8
BLACK
6
CONTINUOUS
10
0.485571
20
0.96382
11
0.486374
21
0.961967
0
LINE
8
BLACK
6
CONTINUOUS
10
0.486374
20
0.961967
11
0.485799
21
0.960031
0
LINE
8
BLACK
6
CONTINUOUS
10
0.485799
20
0.960031
11
0.484113
21
0.958918
0
LINE
8
BLACK
6
CONTINUOUS
10
0.484113
20
0.958918
11
0.482107
21
0.959149
0
LINE
8
BLACK
6
CONTINUOUS
10
0.482107
20
0.959149
11
0.478357
21
0.961024
0
LINE
8
BLACK
6
CONTINUOUS
10
0.478357
20
0.961024
11
0.477648
21
0.96155
0
LINE
8
BLACK
6
CONTINUOUS
10
0.477648
20
0.96155
11
0.47759
21
0.961577
0
LINE
8
BLACK
6
CONTINUOUS
10
0.47759
20
0.961577
11
0.475131
21
0.964035
0
LINE
8
BLACK
6
CONTINUOUS
10
0.475131
20
0.964035
11
0.475131
21
0.936621
0
LINE
8
BLACK
6
CONTINUOUS
10
0.475131
20
0.936621
11
0.483427
21
0.936621
0
LINE
8
BLACK
6
CONTINUOUS
10
0.483427
20
0.936621
11
0.484437
21
0.936443
0
LINE
8
BLACK
6
CONTINUOUS
10
0.484437
20
0.936443
11
0.485984
21
0.935145
0
LINE
8
BLACK
6
CONTINUOUS
10
0.485984
20
0.935145
11
0.486335
21
0.933156
0
LINE
8
BLACK
6
CONTINUOUS
10
0.486335
20
0.933156
11
0.485325
21
0.931407
0
LINE
8
BLACK
6
CONTINUOUS
10
0.485325
20
0.931407
11
0.483427
21
0.930716
0
LINE
8
BLACK
6
CONTINUOUS
10
0.483427
20
0.930716
11
0.46093
21
0.930716
0
LINE
8
BLACK
6
CONTINUOUS
10
0.46093
20
0.930716
11
0.45992
21
0.930894
0
LINE
8
BLACK
6
CONTINUOUS
10
0.45992
20
0.930894
11
0.458373
21
0.932192
0
LINE
8
BLACK
6
CONTINUOUS
10
0.458373
20
0.932192
11
0.458022
21
0.934181
0
LINE
8
BLACK
6
CONTINUOUS
10
0.458022
20
0.934181
11
0.459032
21
0.93593
0
LINE
8
BLACK
6
CONTINUOUS
10
0.459032
20
0.93593
11
0.46093
21
0.936621
0
LINE
8
BLACK
6
CONTINUOUS
10
0.46093
20
0.936621
11
0.469226
21
0.936621
0
LINE
8
BLACK
6
CONTINUOUS
10
0.469226
20
0.936621
11
0.469226
21
0.973039
0
LINE
8
BLACK
6
CONTINUOUS
10
0.469226
20
0.973039
11
0.469404
21
0.974049
0
LINE
8
BLACK
6
CONTINUOUS
10
0.469404
20
0.974049
11
0.469513
21
0.974179
0
LINE
8
BLACK
6
CONTINUOUS
10
0.469513
20
0.974179
11
0.469532
21
0.974347
0
LINE
8
BLACK
6
CONTINUOUS
10
0.469532
20
0.974347
11
0.470151
21
0.974939
0
LINE
8
BLACK
6
CONTINUOUS
10
0.470151
20
0.974939
11
0.470702
21
0.975596
0
LINE
8
BLACK
6
CONTINUOUS
10
0.470702
20
0.975596
11
0.470869
21
0.975625
0
LINE
8
BLACK
6
CONTINUOUS
10
0.470869
20
0.975625
11
0.470992
21
0.975743
0
LINE
8
BLACK
6
CONTINUOUS
10
0.470992
20
0.975743
11
0.471847
21
0.975798
0
LINE
8
BLACK
6
CONTINUOUS
10
0.471847
20
0.975798
11
0.472691
21
0.975947
0
LINE
8
BLACK
6
CONTINUOUS
10
0.472691
20
0.975947
11
0.472838
21
0.975862
0
LINE
8
BLACK
6
CONTINUOUS
10
0.333829
20
0.975924
11
0.333959
21
0.975947
0
LINE
8
BLACK
6
CONTINUOUS
10
0.333959
20
0.975947
11
0.334072
21
0.975881
0
LINE
8
BLACK
6
CONTINUOUS
10
0.334072
20
0.975881
11
0.334456
21
0.975813
0
LINE
8
BLACK
6
CONTINUOUS
10
0.334456
20
0.975813
11
0.335043
21
0.97532
0
LINE
8
BLACK
6
CONTINUOUS
10
0.335043
20
0.97532
11
0.335708
21
0.974937
0
LINE
8
BLACK
6
CONTINUOUS
10
0.335708
20
0.974937
11
0.335799
21
0.974686
0
LINE
8
BLACK
6
CONTINUOUS
10
0.335799
20
0.974686
11
0.336003
21
0.974515
0
LINE
8
BLACK
6
CONTINUOUS
10
0.336003
20
0.974515
11
0.336136
21
0.973759
0
LINE
8
BLACK
6
CONTINUOUS
10
0.336136
20
0.973759
11
0.336399
21
0.973039
0
LINE
8
BLACK
6
CONTINUOUS
10
0.336399
20
0.973039
11
0.336399
21
0.933669
0
LINE
8
BLACK
6
CONTINUOUS
10
0.336399
20
0.933669
11
0.33622
21
0.932659
0
LINE
8
BLACK
6
CONTINUOUS
10
0.33622
20
0.932659
11
0.334922
21
0.931111
0
LINE
8
BLACK
6
CONTINUOUS
10
0.334922
20
0.931111
11
0.332933
21
0.930761
0
LINE
8
BLACK
6
CONTINUOUS
10
0.332933
20
0.930761
11
0.331184
21
0.931771
0
LINE
8
BLACK
6
CONTINUOUS
10
0.331184
20
0.931771
11
0.330493
21
0.933669
0
LINE
8
BLACK
6
CONTINUOUS
10
0.330493
20
0.933669
11
0.330493
21
0.951338
0
LINE
8
BLACK
6
CONTINUOUS
10
0.330493
20
0.951338
11
0.320322
21
0.951338
0
LINE
8
BLACK
6
CONTINUOUS
10
0.320322
20
0.951338
11
0.319313
21
0.951516
0
LINE
8
BLACK
6
CONTINUOUS
10
0.319313
20
0.951516
11
0.317765
21
0.952815
0
LINE
8
BLACK
6
CONTINUOUS
10
0.317765
20
0.952815
11
0.317415
21
0.954804
0
LINE
8
BLACK
6
CONTINUOUS
10
0.317415
20
0.954804
11
0.318424
21
0.956553
0
LINE
8
BLACK
6
CONTINUOUS
10
0.318424
20
0.956553
11
0.320322
21
0.957244
0
LINE
8
BLACK
6
CONTINUOUS
10
0.320322
20
0.957244
11
0.330493
21
0.957244
0
LINE
8
BLACK
6
CONTINUOUS
10
0.330493
20
0.957244
11
0.330493
21
0.970086
0
LINE
8
BLACK
6
CONTINUOUS
10
0.330493
20
0.970086
11
0.314698
21
0.970086
0
LINE
8
BLACK
6
CONTINUOUS
10
0.314698
20
0.970086
11
0.313688
21
0.970264
0
LINE
8
BLACK
6
CONTINUOUS
10
0.313688
20
0.970264
11
0.312141
21
0.971562
0
LINE
8
BLACK
6
CONTINUOUS
10
0.312141
20
0.971562
11
0.31179
21
0.973551
0
LINE
8
BLACK
6
CONTINUOUS
10
0.31179
20
0.973551
11
0.3128
21
0.975301
0
LINE
8
BLACK
6
CONTINUOUS
10
0.3128
20
0.975301
11
0.314698
21
0.975991
0
LINE
8
BLACK
6
CONTINUOUS
10
0.314698
20
0.975991
11
0.333446
21
0.975991
0
LINE
8
BLACK
6
CONTINUOUS
10
0.333446
20
0.975991
11
0.333829
21
0.975924
0
LINE
8
BLACK
6
CONTINUOUS
10
0.364452
20
0.96269
11
0.364587
21
0.962576
0
LINE
8
BLACK
6
CONTINUOUS
10
0.364587
20
0.962576
11
0.364763
21
0.962556
0
LINE
8
BLACK
6
CONTINUOUS
10
0.364763
20
0.962556
11
0.366804
21
0.961536
0
LINE
8
BLACK
6
CONTINUOUS
10
0.366804
20
0.961536
11
0.36759
21
0.962472
0
LINE
8
BLACK
6
CONTINUOUS
10
0.36759
20
0.962472
11
0.369579
21
0.962823
0
LINE
8
BLACK
6
CONTINUOUS
10
0.369579
20
0.962823
11
0.371328
21
0.961813
0
LINE
8
BLACK
6
CONTINUOUS
10
0.371328
20
0.961813
11
0.372019
21
0.959915
0
LINE
8
BLACK
6
CONTINUOUS
10
0.372019
20
0.959915
11
0.372019
21
0.933669
0
LINE
8
BLACK
6
CONTINUOUS
10
0.372019
20
0.933669
11
0.371841
21
0.932659
0
LINE
8
BLACK
6
CONTINUOUS
10
0.371841
20
0.932659
11
0.370543
21
0.931111
0
LINE
8
BLACK
6
CONTINUOUS
10
0.370543
20
0.931111
11
0.368554
21
0.930761
0
LINE
8
BLACK
6
CONTINUOUS
10
0.368554
20
0.930761
11
0.366804
21
0.931771
0
LINE
8
BLACK
6
CONTINUOUS
10
0.366804
20
0.931771
11
0.366114
21
0.933669
0
LINE
8
BLACK
6
CONTINUOUS
10
0.366114
20
0.933669
11
0.366114
21
0.954943
0
LINE
8
BLACK
6
CONTINUOUS
10
0.366114
20
0.954943
11
0.365442
21
0.955614
0
LINE
8
BLACK
6
CONTINUOUS
10
0.365442
20
0.955614
11
0.362745
21
0.956963
0
LINE
8
BLACK
6
CONTINUOUS
10
0.362745
20
0.956963
11
0.358515
21
0.956963
0
LINE
8
BLACK
6
CONTINUOUS
10
0.358515
20
0.956963
11
0.356269
21
0.95584
0
LINE
8
BLACK
6
CONTINUOUS
10
0.356269
20
0.95584
11
0.355146
21
0.953594
0
LINE
8
BLACK
6
CONTINUOUS
10
0.355146
20
0.953594
11
0.355146
21
0.933669
0
LINE
8
BLACK
6
CONTINUOUS
10
0.355146
20
0.933669
11
0.354968
21
0.932659
0
LINE
8
BLACK
6
CONTINUOUS
10
0.354968
20
0.932659
11
0.35367
21
0.931111
0
LINE
8
BLACK
6
CONTINUOUS
10
0.35367
20
0.931111
11
0.351681
21
0.930761
0
LINE
8
BLACK
6
CONTINUOUS
10
0.351681
20
0.930761
11
0.349932
21
0.931771
0
LINE
8
BLACK
6
CONTINUOUS
10
0.349932
20
0.931771
11
0.349241
21
0.933669
0
LINE
8
BLACK
6
CONTINUOUS
10
0.349241
20
0.933669
11
0.349241
21
0.954291
0
LINE
8
BLACK
6
CONTINUOUS
10
0.349241
20
0.954291
11
0.349419
21
0.955301
0
LINE
8
BLACK
6
CONTINUOUS
10
0.349419
20
0.955301
11
0.349532
21
0.955436
0
LINE
8
BLACK
6
CONTINUOUS
10
0.349532
20
0.955436
11
0.349552
21
0.955611
0
LINE
8
BLACK
6
CONTINUOUS
10
0.349552
20
0.955611
11
0.351427
21
0.959361
0
LINE
8
BLACK
6
CONTINUOUS
10
0.351427
20
0.959361
11
0.352038
21
0.960185
0
LINE
8
BLACK
6
CONTINUOUS
10
0.352038
20
0.960185
11
0.352444
21
0.960361
0
LINE
8
BLACK
6
CONTINUOUS
10
0.352444
20
0.960361
11
0.352748
21
0.960682
0
LINE
8
BLACK
6
CONTINUOUS
10
0.352748
20
0.960682
11
0.356497
21
0.962556
0
LINE
8
BLACK
6
CONTINUOUS
10
0.356497
20
0.962556
11
0.35748
21
0.962849
0
LINE
8
BLACK
6
CONTINUOUS
10
0.35748
20
0.962849
11
0.357652
21
0.962808
0
LINE
8
BLACK
6
CONTINUOUS
10
0.357652
20
0.962808
11
0.357818
21
0.962868
0
LINE
8
BLACK
6
CONTINUOUS
10
0.357818
20
0.962868
11
0.363442
21
0.962868
0
LINE
8
BLACK
6
CONTINUOUS
10
0.363442
20
0.962868
11
0.364452
21
0.96269
0
LINE
8
BLACK
6
CONTINUOUS
10
0.393308
20
1.02989
11
0.393674
21
1.02987
0
LINE
8
BLACK
6
CONTINUOUS
10
0.393674
20
1.02987
11
0.395549
21
1.02893
0
LINE
8
BLACK
6
CONTINUOUS
10
0.395549
20
1.02893
11
0.395718
21
1.02873
0
LINE
8
BLACK
6
CONTINUOUS
10
0.395718
20
1.02873
11
0.395958
21
1.02863
0
LINE
8
BLACK
6
CONTINUOUS
10
0.395958
20
1.02863
11
0.396895
21
1.0277
0
LINE
8
BLACK
6
CONTINUOUS
10
0.396895
20
1.0277
11
0.397357
21
1.02658
0
LINE
8
BLACK
6
CONTINUOUS
10
0.397357
20
1.02658
11
0.396895
21
1.02547
0
LINE
8
BLACK
6
CONTINUOUS
10
0.396895
20
1.02547
11
0.395782
21
1.02501
0
LINE
8
BLACK
6
CONTINUOUS
10
0.395782
20
1.02501
11
0.394668
21
1.02547
0
LINE
8
BLACK
6
CONTINUOUS
10
0.394668
20
1.02547
11
0.393912
21
1.02623
0
LINE
8
BLACK
6
CONTINUOUS
10
0.393912
20
1.02623
11
0.392598
21
1.02688
0
LINE
8
BLACK
6
CONTINUOUS
10
0.392598
20
1.02688
11
0.388654
21
1.02688
0
LINE
8
BLACK
6
CONTINUOUS
10
0.388654
20
1.02688
11
0.387341
21
1.02623
0
LINE
8
BLACK
6
CONTINUOUS
10
0.387341
20
1.02623
11
0.386765
21
1.02565
0
LINE
8
BLACK
6
CONTINUOUS
10
0.386765
20
1.02565
11
0.386108
21
1.02434
0
LINE
8
BLACK
6
CONTINUOUS
10
0.386108
20
1.02434
11
0.386108
21
1.02309
0
LINE
8
BLACK
6
CONTINUOUS
10
0.386108
20
1.02309
11
0.386847
21
1.02087
0
LINE
8
BLACK
6
CONTINUOUS
10
0.386847
20
1.02087
11
0.397833
21
1.00989
0
LINE
8
BLACK
6
CONTINUOUS
10
0.397833
20
1.00989
11
0.398294
21
1.00877
0
LINE
8
BLACK
6
CONTINUOUS
10
0.398294
20
1.00877
11
0.397833
21
1.00766
0
LINE
8
BLACK
6
CONTINUOUS
10
0.397833
20
1.00766
11
0.396719
21
1.0072
0
LINE
8
BLACK
6
CONTINUOUS
10
0.396719
20
1.0072
11
0.384533
21
1.0072
0
LINE
8
BLACK
6
CONTINUOUS
10
0.384533
20
1.0072
11
0.38342
21
1.00766
0
LINE
8
BLACK
6
CONTINUOUS
10
0.38342
20
1.00766
11
0.382958
21
1.00877
0
LINE
8
BLACK
6
CONTINUOUS
10
0.382958
20
1.00877
11
0.38342
21
1.00989
0
LINE
8
BLACK
6
CONTINUOUS
10
0.38342
20
1.00989
11
0.384533
21
1.01035
0
LINE
8
BLACK
6
CONTINUOUS
10
0.384533
20
1.01035
11
0.392917
21
1.01035
0
LINE
8
BLACK
6
CONTINUOUS
10
0.392917
20
1.01035
11
0.384357
21
1.01891
0
LINE
8
BLACK
6
CONTINUOUS
10
0.384357
20
1.01891
11
0.384217
21
1.01925
0
LINE
8
BLACK
6
CONTINUOUS
10
0.384217
20
1.01925
11
0.383977
21
1.01952
0
LINE
8
BLACK
6
CONTINUOUS
10
0.383977
20
1.01952
11
0.383039
21
1.02234
0
LINE
8
BLACK
6
CONTINUOUS
10
0.383039
20
1.02234
11
0.383058
21
1.02259
0
LINE
8
BLACK
6
CONTINUOUS
10
0.383058
20
1.02259
11
0.382958
21
1.02283
0
LINE
8
BLACK
6
CONTINUOUS
10
0.382958
20
1.02283
11
0.382958
21
1.02471
0
LINE
8
BLACK
6
CONTINUOUS
10
0.382958
20
1.02471
11
0.383099
21
1.02505
0
LINE
8
BLACK
6
CONTINUOUS
10
0.383099
20
1.02505
11
0.383125
21
1.02541
0
LINE
8
BLACK
6
CONTINUOUS
10
0.383125
20
1.02541
11
0.384062
21
1.02729
0
LINE
8
BLACK
6
CONTINUOUS
10
0.384062
20
1.02729
11
0.384258
21
1.02746
0
LINE
8
BLACK
6
CONTINUOUS
10
0.384258
20
1.02746
11
0.384357
21
1.0277
0
LINE
8
BLACK
6
CONTINUOUS
10
0.384357
20
1.0277
11
0.385294
21
1.02863
0
LINE
8
BLACK
6
CONTINUOUS
10
0.385294
20
1.02863
11
0.385534
21
1.02873
0
LINE
8
BLACK
6
CONTINUOUS
10
0.385534
20
1.02873
11
0.385704
21
1.02893
0
LINE
8
BLACK
6
CONTINUOUS
10
0.385704
20
1.02893
11
0.387578
21
1.02987
0
LINE
8
BLACK
6
CONTINUOUS
10
0.387578
20
1.02987
11
0.387944
21
1.02989
0
LINE
8
BLACK
6
CONTINUOUS
10
0.387944
20
1.02989
11
0.388283
21
1.03003
0
LINE
8
BLACK
6
CONTINUOUS
10
0.388283
20
1.03003
11
0.39297
21
1.03003
0
LINE
8
BLACK
6
CONTINUOUS
10
0.39297
20
1.03003
11
0.393308
21
1.02989
0
LINE
8
BLACK
6
CONTINUOUS
10
0.409145
20
1.02993
11
0.409403
21
1.02995
0
LINE
8
BLACK
6
CONTINUOUS
10
0.409403
20
1.02995
11
0.412215
21
1.02902
0
LINE
8
BLACK
6
CONTINUOUS
10
0.412215
20
1.02902
11
0.412492
21
1.02878
0
LINE
8
BLACK
6
CONTINUOUS
10
0.412492
20
1.02878
11
0.412831
21
1.02863
0
LINE
8
BLACK
6
CONTINUOUS
10
0.412831
20
1.02863
11
0.414706
21
1.02676
0
LINE
8
BLACK
6
CONTINUOUS
10
0.414706
20
1.02676
11
0.414805
21
1.02652
0
LINE
8
BLACK
6
CONTINUOUS
10
0.414805
20
1.02652
11
0.415001
21
1.02635
0
LINE
8
BLACK
6
CONTINUOUS
10
0.415001
20
1.02635
11
0.415938
21
1.02448
0
LINE
8
BLACK
6
CONTINUOUS
10
0.415938
20
1.02448
11
0.415951
21
1.0243
0
LINE
8
BLACK
6
CONTINUOUS
10
0.415951
20
1.0243
11
0.416057
21
1.02415
0
LINE
8
BLACK
6
CONTINUOUS
10
0.416057
20
1.02415
11
0.416995
21
1.0204
0
LINE
8
BLACK
6
CONTINUOUS
10
0.416995
20
1.0204
11
0.416965
21
1.02021
0
LINE
8
BLACK
6
CONTINUOUS
10
0.416965
20
1.02021
11
0.417042
21
1.02002
0
LINE
8
BLACK
6
CONTINUOUS
10
0.417042
20
1.02002
11
0.417042
21
1.01721
0
LINE
8
BLACK
6
CONTINUOUS
10
0.417042
20
1.01721
11
0.416965
21
1.01703
0
LINE
8
BLACK
6
CONTINUOUS
10
0.416965
20
1.01703
11
0.416995
21
1.01683
0
LINE
8
BLACK
6
CONTINUOUS
10
0.416995
20
1.01683
11
0.416057
21
1.01308
0
LINE
8
BLACK
6
CONTINUOUS
10
0.416057
20
1.01308
11
0.415951
21
1.01293
0
LINE
8
BLACK
6
CONTINUOUS
10
0.415951
20
1.01293
11
0.415938
21
1.01276
0
LINE
8
BLACK
6
CONTINUOUS
10
0.415938
20
1.01276
11
0.415001
21
1.01088
0
LINE
8
BLACK
6
CONTINUOUS
10
0.415001
20
1.01088
11
0.414805
21
1.01071
0
LINE
8
BLACK
6
CONTINUOUS
10
0.414805
20
1.01071
11
0.414706
21
1.01047
0
LINE
8
BLACK
6
CONTINUOUS
10
0.414706
20
1.01047
11
0.412831
21
1.0086
0
LINE
8
BLACK
6
CONTINUOUS
10
0.412831
20
1.0086
11
0.412492
21
1.00846
0
LINE
8
BLACK
6
CONTINUOUS
10
0.412492
20
1.00846
11
0.412215
21
1.00822
0
LINE
8
BLACK
6
CONTINUOUS
10
0.412215
20
1.00822
11
0.409403
21
1.00728
0
LINE
8
BLACK
6
CONTINUOUS
10
0.409403
20
1.00728
11
0.409145
21
1.0073
0
LINE
8
BLACK
6
CONTINUOUS
10
0.409145
20
1.0073
11
0.408905
21
1.0072
0
LINE
8
BLACK
6
CONTINUOUS
10
0.408905
20
1.0072
11
0.40703
21
1.0072
0
LINE
8
BLACK
6
CONTINUOUS
10
0.40703
20
1.0072
11
0.406791
21
1.0073
0
LINE
8
BLACK
6
CONTINUOUS
10
0.406791
20
1.0073
11
0.406532
21
1.00728
0
LINE
8
BLACK
6
CONTINUOUS
10
0.406532
20
1.00728
11
0.40372
21
1.00822
0
LINE
8
BLACK
6
CONTINUOUS
10
0.40372
20
1.00822
11
0.403443
21
1.00846
0
LINE
8
BLACK
6
CONTINUOUS
10
0.403443
20
1.00846
11
0.403105
21
1.0086
0
LINE
8
BLACK
6
CONTINUOUS
10
0.403105
20
1.0086
11
0.402167
21
1.00953
0
LINE
8
BLACK
6
CONTINUOUS
10
0.402167
20
1.00953
11
0.401706
21
1.01065
0
LINE
8
BLACK
6
CONTINUOUS
10
0.401706
20
1.01065
11
0.402167
21
1.01176
0
LINE
8
BLACK
6
CONTINUOUS
10
0.402167
20
1.01176
11
0.403281
21
1.01222
0
LINE
8
BLACK
6
CONTINUOUS
10
0.403281
20
1.01222
11
0.404394
21
1.01176
0
LINE
8
BLACK
6
CONTINUOUS
10
0.404394
20
1.01176
11
0.405069
21
1.01109
0
LINE
8
BLACK
6
CONTINUOUS
10
0.405069
20
1.01109
11
0.407286
21
1.01035
0
LINE
8
BLACK
6
CONTINUOUS
10
0.407286
20
1.01035
11
0.40865
21
1.01035
0
LINE
8
BLACK
6
CONTINUOUS
10
0.40865
20
1.01035
11
0.410867
21
1.01109
0
LINE
8
BLACK
6
CONTINUOUS
10
0.410867
20
1.01109
11
0.412298
21
1.01252
0
LINE
8
BLACK
6
CONTINUOUS
10
0.412298
20
1.01252
11
0.413044
21
1.01401
0
LINE
8
BLACK
6
CONTINUOUS
10
0.413044
20
1.01401
11
0.413892
21
1.0174
0
LINE
8
BLACK
6
CONTINUOUS
10
0.413892
20
1.0174
11
0.413892
21
1.01983
0
LINE
8
BLACK
6
CONTINUOUS
10
0.413892
20
1.01983
11
0.413044
21
1.02322
0
LINE
8
BLACK
6
CONTINUOUS
10
0.413044
20
1.02322
11
0.412298
21
1.02471
0
LINE
8
BLACK
6
CONTINUOUS
10
0.412298
20
1.02471
11
0.410867
21
1.02614
0
LINE
8
BLACK
6
CONTINUOUS
10
0.410867
20
1.02614
11
0.40865
21
1.02688
0
LINE
8
BLACK
6
CONTINUOUS
10
0.40865
20
1.02688
11
0.407286
21
1.02688
0
LINE
8
BLACK
6
CONTINUOUS
10
0.407286
20
1.02688
11
0.405069
21
1.02614
0
LINE
8
BLACK
6
CONTINUOUS
10
0.405069
20
1.02614
11
0.404394
21
1.02547
0
LINE
8
BLACK
6
CONTINUOUS
10
0.404394
20
1.02547
11
0.403281
21
1.02501
0
LINE
8
BLACK
6
CONTINUOUS
10
0.403281
20
1.02501
11
0.402167
21
1.02547
0
LINE
8
BLACK
6
CONTINUOUS
10
0.402167
20
1.02547
11
0.401706
21
1.02658
0
LINE
8
BLACK
6
CONTINUOUS
10
0.401706
20
1.02658
11
0.402167
21
1.0277
0
LINE
8
BLACK
6
CONTINUOUS
10
0.402167
20
1.0277
11
0.403105
21
1.02863
0
LINE
8
BLACK
6
CONTINUOUS
10
0.403105
20
1.02863
11
0.403443
21
1.02878
0
LINE
8
BLACK
6
CONTINUOUS
10
0.403443
20
1.02878
11
0.40372
21
1.02902
0
LINE
8
BLACK
6
CONTINUOUS
10
0.40372
20
1.02902
11
0.406532
21
1.02995
0
LINE
8
BLACK
6
CONTINUOUS
10
0.406532
20
1.02995
11
0.406791
21
1.02993
0
LINE
8
BLACK
6
CONTINUOUS
10
0.406791
20
1.02993
11
0.40703
21
1.03003
0
LINE
8
BLACK
6
CONTINUOUS
10
0.40703
20
1.03003
11
0.408905
21
1.03003
0
LINE
8
BLACK
6
CONTINUOUS
10
0.408905
20
1.03003
11
0.409145
21
1.02993
0
LINE
8
BLACK
6
CONTINUOUS
10
0.43937
20
1.04429
11
0.440762
21
1.04371
0
LINE
8
BLACK
6
CONTINUOUS
10
0.440762
20
1.04371
11
0.441339
21
1.04232
0
LINE
8
BLACK
6
CONTINUOUS
10
0.441339
20
1.04232
11
0.441339
21
0.99311
0
LINE
8
BLACK
6
CONTINUOUS
10
0.441339
20
0.99311
11
0.440762
21
0.991718
0
LINE
8
BLACK
6
CONTINUOUS
10
0.440762
20
0.991718
11
0.43937
21
0.991142
0
LINE
8
BLACK
6
CONTINUOUS
10
0.43937
20
0.991142
11
0.36063
21
0.991142
0
LINE
8
BLACK
6
CONTINUOUS
10
0.36063
20
0.991142
11
0.359238
21
0.991718
0
LINE
8
BLACK
6
CONTINUOUS
10
0.359238
20
0.991718
11
0.358661
21
0.99311
0
LINE
8
BLACK
6
CONTINUOUS
10
0.358661
20
0.99311
11
0.358661
21
1.04232
0
LINE
8
BLACK
6
CONTINUOUS
10
0.358661
20
1.04232
11
0.359238
21
1.04371
0
LINE
8
BLACK
6
CONTINUOUS
10
0.359238
20
1.04371
11
0.36063
21
1.04429
0
LINE
8
BLACK
6
CONTINUOUS
10
0.36063
20
1.04429
11
0.43937
21
1.04429
0
LINE
8
BLACK
6
CONTINUOUS
10
0.362598
20
1.04035
11
0.362598
21
0.995079
0
LINE
8
BLACK
6
CONTINUOUS
10
0.362598
20
0.995079
11
0.437402
21
0.995079
0
LINE
8
BLACK
6
CONTINUOUS
10
0.437402
20
0.995079
11
0.437402
21
1.04035
0
LINE
8
BLACK
6
CONTINUOUS
10
0.437402
20
1.04035
11
0.362598
21
1.04035
  0
ENDSEC
  0
EOF
