  0
SECTION
  2
HEADER
  9
$ANGBASE
  50
0.0
  9
$ANGDIR
  70
1
  9
$MEASUREMENT
  70
0
  0
ENDSEC
  0
SECTION
  2
TABLES
  0
TABLE
  2
LTYPE
  70
4
  0
LTYPE
  5
40F
  2
CONTINUOUS
  70
0
  3
Solid line
  72
65
  73
0
  40
0.0
  0
LTYPE
  5
410
  2
DASHDOT
 70
0
  3
Dash Dot ____ _ ____ _
 72
65
 73
4
 40
2.0
 49
1.25
 49
-0.25
 49
0.25
 49
-0.25
  0
LTYPE
  5
411
  2
DASHED
 70
0
  3
Dashed __ __ __ __ __
 72
65
 73
2
 40
0.75
 49
0.5
 49
-0.25
  0
LTYPE
  5
43B
  2
DOTTED
 70
0
  3
Dotted .  .  .  .
 72
65
 73
2
 40
0.2
 49
0.0
 49
-0.2
  0
ENDTAB
  0
TABLE
  2
STYLE
  70
4
  0
STYLE
  2
KICAD
  70
0
  40
0
  41
1
  42
1
  50
0
  71
0
  3
isocp.shx
  0
STYLE
  2
KICADB
  70
0
  40
0
  41
1
  42
1
  50
0
  71
0
  3
isocp.shx
  0
STYLE
  2
KICADI
  70
0
  40
0
  41
1
  42
1
  50
15
  71
0
  3
isocp.shx
  0
STYLE
  2
KICADBI
  70
0
  40
0
  41
1
  42
1
  50
15
  71
0
  3
isocp.shx
  0
ENDTAB
  0
TABLE
  2
LAYER
  70
1
  0
LAYER
  2
BLACK
  70
0
  62
7
  6
CONTINUOUS
  0
ENDTAB
  0
ENDSEC
  0
SECTION
  2
ENTITIES
0
LINE
8
BLACK
6
CONTINUOUS
10
0.0140628
20
0.12481
11
0.0279486
21
0.122451
0
LINE
8
BLACK
6
CONTINUOUS
10
0.0279486
20
0.122451
11
0.041483
21
0.118552
0
LINE
8
BLACK
6
CONTINUOUS
10
0.041483
20
0.118552
11
0.0544958
21
0.113162
0
LINE
8
BLACK
6
CONTINUOUS
10
0.0544958
20
0.113162
11
0.0668232
21
0.106349
0
LINE
8
BLACK
6
CONTINUOUS
10
0.0668232
20
0.106349
11
0.0783103
21
0.098198
0
LINE
8
BLACK
6
CONTINUOUS
10
0.0783103
20
0.098198
11
0.0888126
21
0.0888126
0
LINE
8
BLACK
6
CONTINUOUS
10
0.0888126
20
0.0888126
11
0.098198
21
0.0783103
0
LINE
8
BLACK
6
CONTINUOUS
10
0.098198
20
0.0783103
11
0.106349
21
0.0668232
0
LINE
8
BLACK
6
CONTINUOUS
10
0.106349
20
0.0668232
11
0.113162
21
0.0544958
0
LINE
8
BLACK
6
CONTINUOUS
10
0.113162
20
0.0544958
11
0.118552
21
0.041483
0
LINE
8
BLACK
6
CONTINUOUS
10
0.118552
20
0.041483
11
0.122451
21
0.0279486
0
LINE
8
BLACK
6
CONTINUOUS
10
0.122451
20
0.0279486
11
0.12481
21
0.0140628
0
LINE
8
BLACK
6
CONTINUOUS
10
0.12481
20
0.0140628
11
0.1256
21
0
0
LINE
8
BLACK
6
CONTINUOUS
10
0.1256
20
0
11
0.12481
21
-0.0140628
0
LINE
8
BLACK
6
CONTINUOUS
10
0.12481
20
-0.0140628
11
0.122451
21
-0.0279486
0
LINE
8
BLACK
6
CONTINUOUS
10
0.122451
20
-0.0279486
11
0.118552
21
-0.041483
0
LINE
8
BLACK
6
CONTINUOUS
10
0.118552
20
-0.041483
11
0.113162
21
-0.0544958
0
LINE
8
BLACK
6
CONTINUOUS
10
0.113162
20
-0.0544958
11
0.106349
21
-0.0668232
0
LINE
8
BLACK
6
CONTINUOUS
10
0.106349
20
-0.0668232
11
0.098198
21
-0.0783103
0
LINE
8
BLACK
6
CONTINUOUS
10
0.098198
20
-0.0783103
11
0.0888126
21
-0.0888126
0
LINE
8
BLACK
6
CONTINUOUS
10
0.0888126
20
-0.0888126
11
0.0783103
21
-0.098198
0
LINE
8
BLACK
6
CONTINUOUS
10
0.0783103
20
-0.098198
11
0.0668232
21
-0.106349
0
LINE
8
BLACK
6
CONTINUOUS
10
0.0668232
20
-0.106349
11
0.0544958
21
-0.113162
0
LINE
8
BLACK
6
CONTINUOUS
10
0.0544958
20
-0.113162
11
0.041483
21
-0.118552
0
LINE
8
BLACK
6
CONTINUOUS
10
0.041483
20
-0.118552
11
0.0279486
21
-0.122451
0
LINE
8
BLACK
6
CONTINUOUS
10
0.0279486
20
-0.122451
11
0.0140628
21
-0.12481
0
LINE
8
BLACK
6
CONTINUOUS
10
0.0140628
20
-0.12481
11
0
21
-0.1256
0
LINE
8
BLACK
6
CONTINUOUS
10
0
20
-0.1256
11
-0.0140628
21
-0.12481
0
LINE
8
BLACK
6
CONTINUOUS
10
-0.0140628
20
-0.12481
11
-0.0279486
21
-0.122451
0
LINE
8
BLACK
6
CONTINUOUS
10
-0.0279486
20
-0.122451
11
-0.041483
21
-0.118552
0
LINE
8
BLACK
6
CONTINUOUS
10
-0.041483
20
-0.118552
11
-0.0544958
21
-0.113162
0
LINE
8
BLACK
6
CONTINUOUS
10
-0.0544958
20
-0.113162
11
-0.0668232
21
-0.106349
0
LINE
8
BLACK
6
CONTINUOUS
10
-0.0668232
20
-0.106349
11
-0.0783103
21
-0.098198
0
LINE
8
BLACK
6
CONTINUOUS
10
-0.0783103
20
-0.098198
11
-0.0888126
21
-0.0888126
0
LINE
8
BLACK
6
CONTINUOUS
10
-0.0888126
20
-0.0888126
11
-0.098198
21
-0.0783103
0
LINE
8
BLACK
6
CONTINUOUS
10
-0.098198
20
-0.0783103
11
-0.106349
21
-0.0668232
0
LINE
8
BLACK
6
CONTINUOUS
10
-0.106349
20
-0.0668232
11
-0.113162
21
-0.0544958
0
LINE
8
BLACK
6
CONTINUOUS
10
-0.113162
20
-0.0544958
11
-0.118552
21
-0.041483
0
LINE
8
BLACK
6
CONTINUOUS
10
-0.118552
20
-0.041483
11
-0.122451
21
-0.0279486
0
LINE
8
BLACK
6
CONTINUOUS
10
-0.122451
20
-0.0279486
11
-0.12481
21
-0.0140628
0
LINE
8
BLACK
6
CONTINUOUS
10
-0.12481
20
-0.0140628
11
-0.1256
21
0
0
LINE
8
BLACK
6
CONTINUOUS
10
-0.1256
20
0
11
-0.12481
21
0.0140628
0
LINE
8
BLACK
6
CONTINUOUS
10
-0.12481
20
0.0140628
11
-0.122451
21
0.0279486
0
LINE
8
BLACK
6
CONTINUOUS
10
-0.122451
20
0.0279486
11
-0.118552
21
0.041483
0
LINE
8
BLACK
6
CONTINUOUS
10
-0.118552
20
0.041483
11
-0.113162
21
0.0544958
0
LINE
8
BLACK
6
CONTINUOUS
10
-0.113162
20
0.0544958
11
-0.106349
21
0.0668232
0
LINE
8
BLACK
6
CONTINUOUS
10
-0.106349
20
0.0668232
11
-0.098198
21
0.0783103
0
LINE
8
BLACK
6
CONTINUOUS
10
-0.098198
20
0.0783103
11
-0.0888126
21
0.0888126
0
LINE
8
BLACK
6
CONTINUOUS
10
-0.0888126
20
0.0888126
11
-0.0783103
21
0.098198
0
LINE
8
BLACK
6
CONTINUOUS
10
-0.0783103
20
0.098198
11
-0.0668232
21
0.106349
0
LINE
8
BLACK
6
CONTINUOUS
10
-0.0668232
20
0.106349
11
-0.0544958
21
0.113162
0
LINE
8
BLACK
6
CONTINUOUS
10
-0.0544958
20
0.113162
11
-0.041483
21
0.118552
0
LINE
8
BLACK
6
CONTINUOUS
10
-0.041483
20
0.118552
11
-0.0279486
21
0.122451
0
LINE
8
BLACK
6
CONTINUOUS
10
-0.0279486
20
0.122451
11
-0.0140628
21
0.12481
0
LINE
8
BLACK
6
CONTINUOUS
10
-0.0140628
20
0.12481
11
0
21
0.1256
0
LINE
8
BLACK
6
CONTINUOUS
10
0
20
0.1256
11
0.0140628
21
0.12481
0
LINE
8
BLACK
6
CONTINUOUS
10
-0.110038
20
-0.0128617
11
-0.107801
21
-0.0255493
0
LINE
8
BLACK
6
CONTINUOUS
10
-0.107801
20
-0.0255493
11
-0.104106
21
-0.0378915
0
LINE
8
BLACK
6
CONTINUOUS
10
-0.104106
20
-0.0378915
11
-0.0990033
21
-0.0497213
0
LINE
8
BLACK
6
CONTINUOUS
10
-0.0990033
20
-0.0497213
11
-0.0925616
21
-0.0608787
0
LINE
8
BLACK
6
CONTINUOUS
10
-0.0925616
20
-0.0608787
11
-0.0848681
21
-0.0712128
0
LINE
8
BLACK
6
CONTINUOUS
10
-0.0848681
20
-0.0712128
11
-0.076027
21
-0.0805839
0
LINE
8
BLACK
6
CONTINUOUS
10
-0.076027
20
-0.0805839
11
-0.0661577
21
-0.0888652
0
LINE
8
BLACK
6
CONTINUOUS
10
-0.0661577
20
-0.0888652
11
-0.0553937
21
-0.0959447
0
LINE
8
BLACK
6
CONTINUOUS
10
-0.0553937
20
-0.0959447
11
-0.0438807
21
-0.101727
0
LINE
8
BLACK
6
CONTINUOUS
10
-0.0438807
20
-0.101727
11
-0.0317742
21
-0.106133
0
LINE
8
BLACK
6
CONTINUOUS
10
-0.0317742
20
-0.106133
11
-0.019238
21
-0.109104
0
LINE
8
BLACK
6
CONTINUOUS
10
-0.019238
20
-0.109104
11
-0.00644173
21
-0.1106
0
LINE
8
BLACK
6
CONTINUOUS
10
-0.00644173
20
-0.1106
11
0.00644173
21
-0.1106
0
LINE
8
BLACK
6
CONTINUOUS
10
0.00644173
20
-0.1106
11
0.019238
21
-0.109104
0
LINE
8
BLACK
6
CONTINUOUS
10
0.019238
20
-0.109104
11
0.0317742
21
-0.106133
0
LINE
8
BLACK
6
CONTINUOUS
10
0.0317742
20
-0.106133
11
0.0438807
21
-0.101727
0
LINE
8
BLACK
6
CONTINUOUS
10
0.0438807
20
-0.101727
11
0.0553937
21
-0.0959447
0
LINE
8
BLACK
6
CONTINUOUS
10
0.0553937
20
-0.0959447
11
0.0661577
21
-0.0888652
0
LINE
8
BLACK
6
CONTINUOUS
10
0.0661577
20
-0.0888652
11
0.076027
21
-0.0805839
0
LINE
8
BLACK
6
CONTINUOUS
10
0.076027
20
-0.0805839
11
0.0848681
21
-0.0712128
0
LINE
8
BLACK
6
CONTINUOUS
10
0.0848681
20
-0.0712128
11
0.0925616
21
-0.0608787
0
LINE
8
BLACK
6
CONTINUOUS
10
0.0925616
20
-0.0608787
11
0.0990033
21
-0.0497213
0
LINE
8
BLACK
6
CONTINUOUS
10
0.0990033
20
-0.0497213
11
0.104106
21
-0.0378915
0
LINE
8
BLACK
6
CONTINUOUS
10
0.104106
20
-0.0378915
11
0.107801
21
-0.0255493
0
LINE
8
BLACK
6
CONTINUOUS
10
0.107801
20
-0.0255493
11
0.110038
21
-0.0128617
0
LINE
8
BLACK
6
CONTINUOUS
10
0.110038
20
-0.0128617
11
0.110787
21
0
0
LINE
8
BLACK
6
CONTINUOUS
10
0.110787
20
0
11
0.110038
21
0.0128617
0
LINE
8
BLACK
6
CONTINUOUS
10
0.110038
20
0.0128617
11
0.107801
21
0.0255493
0
LINE
8
BLACK
6
CONTINUOUS
10
0.107801
20
0.0255493
11
0.104106
21
0.0378915
0
LINE
8
BLACK
6
CONTINUOUS
10
0.104106
20
0.0378915
11
0.0990033
21
0.0497213
0
LINE
8
BLACK
6
CONTINUOUS
10
0.0990033
20
0.0497213
11
0.0925616
21
0.0608787
0
LINE
8
BLACK
6
CONTINUOUS
10
0.0925616
20
0.0608787
11
0.0848681
21
0.0712128
0
LINE
8
BLACK
6
CONTINUOUS
10
0.0848681
20
0.0712128
11
0.076027
21
0.0805839
0
LINE
8
BLACK
6
CONTINUOUS
10
0.076027
20
0.0805839
11
0.0661577
21
0.0888652
0
LINE
8
BLACK
6
CONTINUOUS
10
0.0661577
20
0.0888652
11
0.0553937
21
0.0959447
0
LINE
8
BLACK
6
CONTINUOUS
10
0.0553937
20
0.0959447
11
0.0438807
21
0.101727
0
LINE
8
BLACK
6
CONTINUOUS
10
0.0438807
20
0.101727
11
0.0317742
21
0.106133
0
LINE
8
BLACK
6
CONTINUOUS
10
0.0317742
20
0.106133
11
0.019238
21
0.109104
0
LINE
8
BLACK
6
CONTINUOUS
10
0.019238
20
0.109104
11
0.00644173
21
0.1106
0
LINE
8
BLACK
6
CONTINUOUS
10
0.00644173
20
0.1106
11
-0.00644173
21
0.1106
0
LINE
8
BLACK
6
CONTINUOUS
10
-0.00644173
20
0.1106
11
-0.019238
21
0.109104
0
LINE
8
BLACK
6
CONTINUOUS
10
-0.019238
20
0.109104
11
-0.0317742
21
0.106133
0
LINE
8
BLACK
6
CONTINUOUS
10
-0.0317742
20
0.106133
11
-0.0438807
21
0.101727
0
LINE
8
BLACK
6
CONTINUOUS
10
-0.0438807
20
0.101727
11
-0.0553937
21
0.0959447
0
LINE
8
BLACK
6
CONTINUOUS
10
-0.0553937
20
0.0959447
11
-0.0661577
21
0.0888652
0
LINE
8
BLACK
6
CONTINUOUS
10
-0.0661577
20
0.0888652
11
-0.076027
21
0.0805839
0
LINE
8
BLACK
6
CONTINUOUS
10
-0.076027
20
0.0805839
11
-0.0848681
21
0.0712128
0
LINE
8
BLACK
6
CONTINUOUS
10
-0.0848681
20
0.0712128
11
-0.0925616
21
0.0608787
0
LINE
8
BLACK
6
CONTINUOUS
10
-0.0925616
20
0.0608787
11
-0.0990033
21
0.0497213
0
LINE
8
BLACK
6
CONTINUOUS
10
-0.0990033
20
0.0497213
11
-0.104106
21
0.0378915
0
LINE
8
BLACK
6
CONTINUOUS
10
-0.104106
20
0.0378915
11
-0.107801
21
0.0255493
0
LINE
8
BLACK
6
CONTINUOUS
10
-0.107801
20
0.0255493
11
-0.110038
21
0.0128617
0
LINE
8
BLACK
6
CONTINUOUS
10
-0.110038
20
0.0128617
11
-0.110787
21
0
0
LINE
8
BLACK
6
CONTINUOUS
10
-0.110787
20
0
11
-0.110038
21
-0.0128617
0
LINE
8
BLACK
6
CONTINUOUS
10
1.21406
20
0.12481
11
1.22795
21
0.122451
0
LINE
8
BLACK
6
CONTINUOUS
10
1.22795
20
0.122451
11
1.24148
21
0.118552
0
LINE
8
BLACK
6
CONTINUOUS
10
1.24148
20
0.118552
11
1.2545
21
0.113162
0
LINE
8
BLACK
6
CONTINUOUS
10
1.2545
20
0.113162
11
1.26682
21
0.106349
0
LINE
8
BLACK
6
CONTINUOUS
10
1.26682
20
0.106349
11
1.27831
21
0.098198
0
LINE
8
BLACK
6
CONTINUOUS
10
1.27831
20
0.098198
11
1.28881
21
0.0888126
0
LINE
8
BLACK
6
CONTINUOUS
10
1.28881
20
0.0888126
11
1.2982
21
0.0783103
0
LINE
8
BLACK
6
CONTINUOUS
10
1.2982
20
0.0783103
11
1.30635
21
0.0668232
0
LINE
8
BLACK
6
CONTINUOUS
10
1.30635
20
0.0668232
11
1.31316
21
0.0544958
0
LINE
8
BLACK
6
CONTINUOUS
10
1.31316
20
0.0544958
11
1.31855
21
0.041483
0
LINE
8
BLACK
6
CONTINUOUS
10
1.31855
20
0.041483
11
1.32245
21
0.0279486
0
LINE
8
BLACK
6
CONTINUOUS
10
1.32245
20
0.0279486
11
1.32481
21
0.0140628
0
LINE
8
BLACK
6
CONTINUOUS
10
1.32481
20
0.0140628
11
1.3256
21
0
0
LINE
8
BLACK
6
CONTINUOUS
10
1.3256
20
0
11
1.32481
21
-0.0140628
0
LINE
8
BLACK
6
CONTINUOUS
10
1.32481
20
-0.0140628
11
1.32245
21
-0.0279486
0
LINE
8
BLACK
6
CONTINUOUS
10
1.32245
20
-0.0279486
11
1.31855
21
-0.041483
0
LINE
8
BLACK
6
CONTINUOUS
10
1.31855
20
-0.041483
11
1.31316
21
-0.0544958
0
LINE
8
BLACK
6
CONTINUOUS
10
1.31316
20
-0.0544958
11
1.30635
21
-0.0668232
0
LINE
8
BLACK
6
CONTINUOUS
10
1.30635
20
-0.0668232
11
1.2982
21
-0.0783103
0
LINE
8
BLACK
6
CONTINUOUS
10
1.2982
20
-0.0783103
11
1.28881
21
-0.0888126
0
LINE
8
BLACK
6
CONTINUOUS
10
1.28881
20
-0.0888126
11
1.27831
21
-0.098198
0
LINE
8
BLACK
6
CONTINUOUS
10
1.27831
20
-0.098198
11
1.26682
21
-0.106349
0
LINE
8
BLACK
6
CONTINUOUS
10
1.26682
20
-0.106349
11
1.2545
21
-0.113162
0
LINE
8
BLACK
6
CONTINUOUS
10
1.2545
20
-0.113162
11
1.24148
21
-0.118552
0
LINE
8
BLACK
6
CONTINUOUS
10
1.24148
20
-0.118552
11
1.22795
21
-0.122451
0
LINE
8
BLACK
6
CONTINUOUS
10
1.22795
20
-0.122451
11
1.21406
21
-0.12481
0
LINE
8
BLACK
6
CONTINUOUS
10
1.21406
20
-0.12481
11
1.2
21
-0.1256
0
LINE
8
BLACK
6
CONTINUOUS
10
1.2
20
-0.1256
11
1.18594
21
-0.12481
0
LINE
8
BLACK
6
CONTINUOUS
10
1.18594
20
-0.12481
11
1.17205
21
-0.122451
0
LINE
8
BLACK
6
CONTINUOUS
10
1.17205
20
-0.122451
11
1.15852
21
-0.118552
0
LINE
8
BLACK
6
CONTINUOUS
10
1.15852
20
-0.118552
11
1.1455
21
-0.113162
0
LINE
8
BLACK
6
CONTINUOUS
10
1.1455
20
-0.113162
11
1.13318
21
-0.106349
0
LINE
8
BLACK
6
CONTINUOUS
10
1.13318
20
-0.106349
11
1.12169
21
-0.098198
0
LINE
8
BLACK
6
CONTINUOUS
10
1.12169
20
-0.098198
11
1.11119
21
-0.0888126
0
LINE
8
BLACK
6
CONTINUOUS
10
1.11119
20
-0.0888126
11
1.1018
21
-0.0783103
0
LINE
8
BLACK
6
CONTINUOUS
10
1.1018
20
-0.0783103
11
1.09365
21
-0.0668232
0
LINE
8
BLACK
6
CONTINUOUS
10
1.09365
20
-0.0668232
11
1.08684
21
-0.0544958
0
LINE
8
BLACK
6
CONTINUOUS
10
1.08684
20
-0.0544958
11
1.08145
21
-0.041483
0
LINE
8
BLACK
6
CONTINUOUS
10
1.08145
20
-0.041483
11
1.07755
21
-0.0279486
0
LINE
8
BLACK
6
CONTINUOUS
10
1.07755
20
-0.0279486
11
1.07519
21
-0.0140628
0
LINE
8
BLACK
6
CONTINUOUS
10
1.07519
20
-0.0140628
11
1.0744
21
0
0
LINE
8
BLACK
6
CONTINUOUS
10
1.0744
20
0
11
1.07519
21
0.0140628
0
LINE
8
BLACK
6
CONTINUOUS
10
1.07519
20
0.0140628
11
1.07755
21
0.0279486
0
LINE
8
BLACK
6
CONTINUOUS
10
1.07755
20
0.0279486
11
1.08145
21
0.041483
0
LINE
8
BLACK
6
CONTINUOUS
10
1.08145
20
0.041483
11
1.08684
21
0.0544958
0
LINE
8
BLACK
6
CONTINUOUS
10
1.08684
20
0.0544958
11
1.09365
21
0.0668232
0
LINE
8
BLACK
6
CONTINUOUS
10
1.09365
20
0.0668232
11
1.1018
21
0.0783103
0
LINE
8
BLACK
6
CONTINUOUS
10
1.1018
20
0.0783103
11
1.11119
21
0.0888126
0
LINE
8
BLACK
6
CONTINUOUS
10
1.11119
20
0.0888126
11
1.12169
21
0.098198
0
LINE
8
BLACK
6
CONTINUOUS
10
1.12169
20
0.098198
11
1.13318
21
0.106349
0
LINE
8
BLACK
6
CONTINUOUS
10
1.13318
20
0.106349
11
1.1455
21
0.113162
0
LINE
8
BLACK
6
CONTINUOUS
10
1.1455
20
0.113162
11
1.15852
21
0.118552
0
LINE
8
BLACK
6
CONTINUOUS
10
1.15852
20
0.118552
11
1.17205
21
0.122451
0
LINE
8
BLACK
6
CONTINUOUS
10
1.17205
20
0.122451
11
1.18594
21
0.12481
0
LINE
8
BLACK
6
CONTINUOUS
10
1.18594
20
0.12481
11
1.2
21
0.1256
0
LINE
8
BLACK
6
CONTINUOUS
10
1.2
20
0.1256
11
1.21406
21
0.12481
0
LINE
8
BLACK
6
CONTINUOUS
10
1.08996
20
-0.0128617
11
1.0922
21
-0.0255493
0
LINE
8
BLACK
6
CONTINUOUS
10
1.0922
20
-0.0255493
11
1.09589
21
-0.0378915
0
LINE
8
BLACK
6
CONTINUOUS
10
1.09589
20
-0.0378915
11
1.101
21
-0.0497213
0
LINE
8
BLACK
6
CONTINUOUS
10
1.101
20
-0.0497213
11
1.10744
21
-0.0608787
0
LINE
8
BLACK
6
CONTINUOUS
10
1.10744
20
-0.0608787
11
1.11513
21
-0.0712128
0
LINE
8
BLACK
6
CONTINUOUS
10
1.11513
20
-0.0712128
11
1.12397
21
-0.0805839
0
LINE
8
BLACK
6
CONTINUOUS
10
1.12397
20
-0.0805839
11
1.13384
21
-0.0888652
0
LINE
8
BLACK
6
CONTINUOUS
10
1.13384
20
-0.0888652
11
1.14461
21
-0.0959447
0
LINE
8
BLACK
6
CONTINUOUS
10
1.14461
20
-0.0959447
11
1.15612
21
-0.101727
0
LINE
8
BLACK
6
CONTINUOUS
10
1.15612
20
-0.101727
11
1.16823
21
-0.106133
0
LINE
8
BLACK
6
CONTINUOUS
10
1.16823
20
-0.106133
11
1.18076
21
-0.109104
0
LINE
8
BLACK
6
CONTINUOUS
10
1.18076
20
-0.109104
11
1.19356
21
-0.1106
0
LINE
8
BLACK
6
CONTINUOUS
10
1.19356
20
-0.1106
11
1.20644
21
-0.1106
0
LINE
8
BLACK
6
CONTINUOUS
10
1.20644
20
-0.1106
11
1.21924
21
-0.109104
0
LINE
8
BLACK
6
CONTINUOUS
10
1.21924
20
-0.109104
11
1.23177
21
-0.106133
0
LINE
8
BLACK
6
CONTINUOUS
10
1.23177
20
-0.106133
11
1.24388
21
-0.101727
0
LINE
8
BLACK
6
CONTINUOUS
10
1.24388
20
-0.101727
11
1.25539
21
-0.0959447
0
LINE
8
BLACK
6
CONTINUOUS
10
1.25539
20
-0.0959447
11
1.26616
21
-0.0888652
0
LINE
8
BLACK
6
CONTINUOUS
10
1.26616
20
-0.0888652
11
1.27603
21
-0.0805839
0
LINE
8
BLACK
6
CONTINUOUS
10
1.27603
20
-0.0805839
11
1.28487
21
-0.0712128
0
LINE
8
BLACK
6
CONTINUOUS
10
1.28487
20
-0.0712128
11
1.29256
21
-0.0608787
0
LINE
8
BLACK
6
CONTINUOUS
10
1.29256
20
-0.0608787
11
1.299
21
-0.0497213
0
LINE
8
BLACK
6
CONTINUOUS
10
1.299
20
-0.0497213
11
1.30411
21
-0.0378915
0
LINE
8
BLACK
6
CONTINUOUS
10
1.30411
20
-0.0378915
11
1.3078
21
-0.0255493
0
LINE
8
BLACK
6
CONTINUOUS
10
1.3078
20
-0.0255493
11
1.31004
21
-0.0128617
0
LINE
8
BLACK
6
CONTINUOUS
10
1.31004
20
-0.0128617
11
1.31079
21
0
0
LINE
8
BLACK
6
CONTINUOUS
10
1.31079
20
0
11
1.31004
21
0.0128617
0
LINE
8
BLACK
6
CONTINUOUS
10
1.31004
20
0.0128617
11
1.3078
21
0.0255493
0
LINE
8
BLACK
6
CONTINUOUS
10
1.3078
20
0.0255493
11
1.30411
21
0.0378915
0
LINE
8
BLACK
6
CONTINUOUS
10
1.30411
20
0.0378915
11
1.299
21
0.0497213
0
LINE
8
BLACK
6
CONTINUOUS
10
1.299
20
0.0497213
11
1.29256
21
0.0608787
0
LINE
8
BLACK
6
CONTINUOUS
10
1.29256
20
0.0608787
11
1.28487
21
0.0712128
0
LINE
8
BLACK
6
CONTINUOUS
10
1.28487
20
0.0712128
11
1.27603
21
0.0805839
0
LINE
8
BLACK
6
CONTINUOUS
10
1.27603
20
0.0805839
11
1.26616
21
0.0888652
0
LINE
8
BLACK
6
CONTINUOUS
10
1.26616
20
0.0888652
11
1.25539
21
0.0959447
0
LINE
8
BLACK
6
CONTINUOUS
10
1.25539
20
0.0959447
11
1.24388
21
0.101727
0
LINE
8
BLACK
6
CONTINUOUS
10
1.24388
20
0.101727
11
1.23177
21
0.106133
0
LINE
8
BLACK
6
CONTINUOUS
10
1.23177
20
0.106133
11
1.21924
21
0.109104
0
LINE
8
BLACK
6
CONTINUOUS
10
1.21924
20
0.109104
11
1.20644
21
0.1106
0
LINE
8
BLACK
6
CONTINUOUS
10
1.20644
20
0.1106
11
1.19356
21
0.1106
0
LINE
8
BLACK
6
CONTINUOUS
10
1.19356
20
0.1106
11
1.18076
21
0.109104
0
LINE
8
BLACK
6
CONTINUOUS
10
1.18076
20
0.109104
11
1.16823
21
0.106133
0
LINE
8
BLACK
6
CONTINUOUS
10
1.16823
20
0.106133
11
1.15612
21
0.101727
0
LINE
8
BLACK
6
CONTINUOUS
10
1.15612
20
0.101727
11
1.14461
21
0.0959447
0
LINE
8
BLACK
6
CONTINUOUS
10
1.14461
20
0.0959447
11
1.13384
21
0.0888652
0
LINE
8
BLACK
6
CONTINUOUS
10
1.13384
20
0.0888652
11
1.12397
21
0.0805839
0
LINE
8
BLACK
6
CONTINUOUS
10
1.12397
20
0.0805839
11
1.11513
21
0.0712128
0
LINE
8
BLACK
6
CONTINUOUS
10
1.11513
20
0.0712128
11
1.10744
21
0.0608787
0
LINE
8
BLACK
6
CONTINUOUS
10
1.10744
20
0.0608787
11
1.101
21
0.0497213
0
LINE
8
BLACK
6
CONTINUOUS
10
1.101
20
0.0497213
11
1.09589
21
0.0378915
0
LINE
8
BLACK
6
CONTINUOUS
10
1.09589
20
0.0378915
11
1.0922
21
0.0255493
0
LINE
8
BLACK
6
CONTINUOUS
10
1.0922
20
0.0255493
11
1.08996
21
0.0128617
0
LINE
8
BLACK
6
CONTINUOUS
10
1.08996
20
0.0128617
11
1.08921
21
0
0
LINE
8
BLACK
6
CONTINUOUS
10
1.08921
20
0
11
1.08996
21
-0.0128617
0
LINE
8
BLACK
6
CONTINUOUS
10
1.30038
20
0.752885
11
1.30051
21
0.752908
0
LINE
8
BLACK
6
CONTINUOUS
10
1.30051
20
0.752908
11
1.30063
21
0.752842
0
LINE
8
BLACK
6
CONTINUOUS
10
1.30063
20
0.752842
11
1.30101
21
0.752775
0
LINE
8
BLACK
6
CONTINUOUS
10
1.30101
20
0.752775
11
1.3016
21
0.752282
0
LINE
8
BLACK
6
CONTINUOUS
10
1.3016
20
0.752282
11
1.30226
21
0.751898
0
LINE
8
BLACK
6
CONTINUOUS
10
1.30226
20
0.751898
11
1.30235
21
0.751648
0
LINE
8
BLACK
6
CONTINUOUS
10
1.30235
20
0.751648
11
1.30256
21
0.751476
0
LINE
8
BLACK
6
CONTINUOUS
10
1.30256
20
0.751476
11
1.30269
21
0.750721
0
LINE
8
BLACK
6
CONTINUOUS
10
1.30269
20
0.750721
11
1.30295
21
0.75
0
LINE
8
BLACK
6
CONTINUOUS
10
1.30295
20
0.75
11
1.30295
21
0.45
0
LINE
8
BLACK
6
CONTINUOUS
10
1.30295
20
0.45
11
1.30289
21
0.449616
0
LINE
8
BLACK
6
CONTINUOUS
10
1.30289
20
0.449616
11
1.30291
21
0.449487
0
LINE
8
BLACK
6
CONTINUOUS
10
1.30291
20
0.449487
11
1.30284
21
0.449374
0
LINE
8
BLACK
6
CONTINUOUS
10
1.30284
20
0.449374
11
1.30277
21
0.44899
0
LINE
8
BLACK
6
CONTINUOUS
10
1.30277
20
0.44899
11
1.30228
21
0.448402
0
LINE
8
BLACK
6
CONTINUOUS
10
1.30228
20
0.448402
11
1.3019
21
0.447738
0
LINE
8
BLACK
6
CONTINUOUS
10
1.3019
20
0.447738
11
1.30165
21
0.447647
0
LINE
8
BLACK
6
CONTINUOUS
10
1.30165
20
0.447647
11
1.30148
21
0.447443
0
LINE
8
BLACK
6
CONTINUOUS
10
1.30148
20
0.447443
11
1.30072
21
0.44731
0
LINE
8
BLACK
6
CONTINUOUS
10
1.30072
20
0.44731
11
1.3
21
0.447047
0
LINE
8
BLACK
6
CONTINUOUS
10
1.3
20
0.447047
11
1.1
21
0.447047
0
LINE
8
BLACK
6
CONTINUOUS
10
1.1
20
0.447047
11
1.09962
21
0.447115
0
LINE
8
BLACK
6
CONTINUOUS
10
1.09962
20
0.447115
11
1.09949
21
0.447092
0
LINE
8
BLACK
6
CONTINUOUS
10
1.09949
20
0.447092
11
1.09937
21
0.447158
0
LINE
8
BLACK
6
CONTINUOUS
10
1.09937
20
0.447158
11
1.09899
21
0.447225
0
LINE
8
BLACK
6
CONTINUOUS
10
1.09899
20
0.447225
11
1.0984
21
0.447718
0
LINE
8
BLACK
6
CONTINUOUS
10
1.0984
20
0.447718
11
1.09774
21
0.448102
0
LINE
8
BLACK
6
CONTINUOUS
10
1.09774
20
0.448102
11
1.09765
21
0.448352
0
LINE
8
BLACK
6
CONTINUOUS
10
1.09765
20
0.448352
11
1.09744
21
0.448524
0
LINE
8
BLACK
6
CONTINUOUS
10
1.09744
20
0.448524
11
1.09731
21
0.449279
0
LINE
8
BLACK
6
CONTINUOUS
10
1.09731
20
0.449279
11
1.09705
21
0.45
0
LINE
8
BLACK
6
CONTINUOUS
10
1.09705
20
0.45
11
1.09705
21
0.75
0
LINE
8
BLACK
6
CONTINUOUS
10
1.09705
20
0.75
11
1.09711
21
0.750384
0
LINE
8
BLACK
6
CONTINUOUS
10
1.09711
20
0.750384
11
1.09709
21
0.750513
0
LINE
8
BLACK
6
CONTINUOUS
10
1.09709
20
0.750513
11
1.09716
21
0.750626
0
LINE
8
BLACK
6
CONTINUOUS
10
1.09716
20
0.750626
11
1.09723
21
0.75101
0
LINE
8
BLACK
6
CONTINUOUS
10
1.09723
20
0.75101
11
1.09772
21
0.751598
0
LINE
8
BLACK
6
CONTINUOUS
10
1.09772
20
0.751598
11
1.0981
21
0.752262
0
LINE
8
BLACK
6
CONTINUOUS
10
1.0981
20
0.752262
11
1.09835
21
0.752353
0
LINE
8
BLACK
6
CONTINUOUS
10
1.09835
20
0.752353
11
1.09852
21
0.752557
0
LINE
8
BLACK
6
CONTINUOUS
10
1.09852
20
0.752557
11
1.09928
21
0.75269
0
LINE
8
BLACK
6
CONTINUOUS
10
1.09928
20
0.75269
11
1.1
21
0.752953
0
LINE
8
BLACK
6
CONTINUOUS
10
1.1
20
0.752953
11
1.3
21
0.752953
0
LINE
8
BLACK
6
CONTINUOUS
10
1.3
20
0.752953
11
1.30038
21
0.752885
0
LINE
8
BLACK
6
CONTINUOUS
10
1.10295
20
0.747047
11
1.10295
21
0.452953
0
LINE
8
BLACK
6
CONTINUOUS
10
1.10295
20
0.452953
11
1.29705
21
0.452953
0
LINE
8
BLACK
6
CONTINUOUS
10
1.29705
20
0.452953
11
1.29705
21
0.747047
0
LINE
8
BLACK
6
CONTINUOUS
10
1.29705
20
0.747047
11
1.10295
21
0.747047
0
LINE
8
BLACK
6
CONTINUOUS
10
0.0140628
20
1.32481
11
0.0279486
21
1.32245
0
LINE
8
BLACK
6
CONTINUOUS
10
0.0279486
20
1.32245
11
0.041483
21
1.31855
0
LINE
8
BLACK
6
CONTINUOUS
10
0.041483
20
1.31855
11
0.0544958
21
1.31316
0
LINE
8
BLACK
6
CONTINUOUS
10
0.0544958
20
1.31316
11
0.0668232
21
1.30635
0
LINE
8
BLACK
6
CONTINUOUS
10
0.0668232
20
1.30635
11
0.0783103
21
1.2982
0
LINE
8
BLACK
6
CONTINUOUS
10
0.0783103
20
1.2982
11
0.0888126
21
1.28881
0
LINE
8
BLACK
6
CONTINUOUS
10
0.0888126
20
1.28881
11
0.098198
21
1.27831
0
LINE
8
BLACK
6
CONTINUOUS
10
0.098198
20
1.27831
11
0.106349
21
1.26682
0
LINE
8
BLACK
6
CONTINUOUS
10
0.106349
20
1.26682
11
0.113162
21
1.2545
0
LINE
8
BLACK
6
CONTINUOUS
10
0.113162
20
1.2545
11
0.118552
21
1.24148
0
LINE
8
BLACK
6
CONTINUOUS
10
0.118552
20
1.24148
11
0.122451
21
1.22795
0
LINE
8
BLACK
6
CONTINUOUS
10
0.122451
20
1.22795
11
0.12481
21
1.21406
0
LINE
8
BLACK
6
CONTINUOUS
10
0.12481
20
1.21406
11
0.1256
21
1.2
0
LINE
8
BLACK
6
CONTINUOUS
10
0.1256
20
1.2
11
0.12481
21
1.18594
0
LINE
8
BLACK
6
CONTINUOUS
10
0.12481
20
1.18594
11
0.122451
21
1.17205
0
LINE
8
BLACK
6
CONTINUOUS
10
0.122451
20
1.17205
11
0.118552
21
1.15852
0
LINE
8
BLACK
6
CONTINUOUS
10
0.118552
20
1.15852
11
0.113162
21
1.1455
0
LINE
8
BLACK
6
CONTINUOUS
10
0.113162
20
1.1455
11
0.106349
21
1.13318
0
LINE
8
BLACK
6
CONTINUOUS
10
0.106349
20
1.13318
11
0.098198
21
1.12169
0
LINE
8
BLACK
6
CONTINUOUS
10
0.098198
20
1.12169
11
0.0888126
21
1.11119
0
LINE
8
BLACK
6
CONTINUOUS
10
0.0888126
20
1.11119
11
0.0783103
21
1.1018
0
LINE
8
BLACK
6
CONTINUOUS
10
0.0783103
20
1.1018
11
0.0668232
21
1.09365
0
LINE
8
BLACK
6
CONTINUOUS
10
0.0668232
20
1.09365
11
0.0544958
21
1.08684
0
LINE
8
BLACK
6
CONTINUOUS
10
0.0544958
20
1.08684
11
0.041483
21
1.08145
0
LINE
8
BLACK
6
CONTINUOUS
10
0.041483
20
1.08145
11
0.0279486
21
1.07755
0
LINE
8
BLACK
6
CONTINUOUS
10
0.0279486
20
1.07755
11
0.0140628
21
1.07519
0
LINE
8
BLACK
6
CONTINUOUS
10
0.0140628
20
1.07519
11
0
21
1.0744
0
LINE
8
BLACK
6
CONTINUOUS
10
0
20
1.0744
11
-0.0140628
21
1.07519
0
LINE
8
BLACK
6
CONTINUOUS
10
-0.0140628
20
1.07519
11
-0.0279486
21
1.07755
0
LINE
8
BLACK
6
CONTINUOUS
10
-0.0279486
20
1.07755
11
-0.041483
21
1.08145
0
LINE
8
BLACK
6
CONTINUOUS
10
-0.041483
20
1.08145
11
-0.0544958
21
1.08684
0
LINE
8
BLACK
6
CONTINUOUS
10
-0.0544958
20
1.08684
11
-0.0668232
21
1.09365
0
LINE
8
BLACK
6
CONTINUOUS
10
-0.0668232
20
1.09365
11
-0.0783103
21
1.1018
0
LINE
8
BLACK
6
CONTINUOUS
10
-0.0783103
20
1.1018
11
-0.0888126
21
1.11119
0
LINE
8
BLACK
6
CONTINUOUS
10
-0.0888126
20
1.11119
11
-0.098198
21
1.12169
0
LINE
8
BLACK
6
CONTINUOUS
10
-0.098198
20
1.12169
11
-0.106349
21
1.13318
0
LINE
8
BLACK
6
CONTINUOUS
10
-0.106349
20
1.13318
11
-0.113162
21
1.1455
0
LINE
8
BLACK
6
CONTINUOUS
10
-0.113162
20
1.1455
11
-0.118552
21
1.15852
0
LINE
8
BLACK
6
CONTINUOUS
10
-0.118552
20
1.15852
11
-0.122451
21
1.17205
0
LINE
8
BLACK
6
CONTINUOUS
10
-0.122451
20
1.17205
11
-0.12481
21
1.18594
0
LINE
8
BLACK
6
CONTINUOUS
10
-0.12481
20
1.18594
11
-0.1256
21
1.2
0
LINE
8
BLACK
6
CONTINUOUS
10
-0.1256
20
1.2
11
-0.12481
21
1.21406
0
LINE
8
BLACK
6
CONTINUOUS
10
-0.12481
20
1.21406
11
-0.122451
21
1.22795
0
LINE
8
BLACK
6
CONTINUOUS
10
-0.122451
20
1.22795
11
-0.118552
21
1.24148
0
LINE
8
BLACK
6
CONTINUOUS
10
-0.118552
20
1.24148
11
-0.113162
21
1.2545
0
LINE
8
BLACK
6
CONTINUOUS
10
-0.113162
20
1.2545
11
-0.106349
21
1.26682
0
LINE
8
BLACK
6
CONTINUOUS
10
-0.106349
20
1.26682
11
-0.098198
21
1.27831
0
LINE
8
BLACK
6
CONTINUOUS
10
-0.098198
20
1.27831
11
-0.0888126
21
1.28881
0
LINE
8
BLACK
6
CONTINUOUS
10
-0.0888126
20
1.28881
11
-0.0783103
21
1.2982
0
LINE
8
BLACK
6
CONTINUOUS
10
-0.0783103
20
1.2982
11
-0.0668232
21
1.30635
0
LINE
8
BLACK
6
CONTINUOUS
10
-0.0668232
20
1.30635
11
-0.0544958
21
1.31316
0
LINE
8
BLACK
6
CONTINUOUS
10
-0.0544958
20
1.31316
11
-0.041483
21
1.31855
0
LINE
8
BLACK
6
CONTINUOUS
10
-0.041483
20
1.31855
11
-0.0279486
21
1.32245
0
LINE
8
BLACK
6
CONTINUOUS
10
-0.0279486
20
1.32245
11
-0.0140628
21
1.32481
0
LINE
8
BLACK
6
CONTINUOUS
10
-0.0140628
20
1.32481
11
0
21
1.3256
0
LINE
8
BLACK
6
CONTINUOUS
10
0
20
1.3256
11
0.0140628
21
1.32481
0
LINE
8
BLACK
6
CONTINUOUS
10
-0.110038
20
1.18714
11
-0.107801
21
1.17445
0
LINE
8
BLACK
6
CONTINUOUS
10
-0.107801
20
1.17445
11
-0.104106
21
1.16211
0
LINE
8
BLACK
6
CONTINUOUS
10
-0.104106
20
1.16211
11
-0.0990033
21
1.15028
0
LINE
8
BLACK
6
CONTINUOUS
10
-0.0990033
20
1.15028
11
-0.0925616
21
1.13912
0
LINE
8
BLACK
6
CONTINUOUS
10
-0.0925616
20
1.13912
11
-0.0848681
21
1.12879
0
LINE
8
BLACK
6
CONTINUOUS
10
-0.0848681
20
1.12879
11
-0.076027
21
1.11942
0
LINE
8
BLACK
6
CONTINUOUS
10
-0.076027
20
1.11942
11
-0.0661577
21
1.11113
0
LINE
8
BLACK
6
CONTINUOUS
10
-0.0661577
20
1.11113
11
-0.0553937
21
1.10406
0
LINE
8
BLACK
6
CONTINUOUS
10
-0.0553937
20
1.10406
11
-0.0438807
21
1.09827
0
LINE
8
BLACK
6
CONTINUOUS
10
-0.0438807
20
1.09827
11
-0.0317742
21
1.09387
0
LINE
8
BLACK
6
CONTINUOUS
10
-0.0317742
20
1.09387
11
-0.019238
21
1.0909
0
LINE
8
BLACK
6
CONTINUOUS
10
-0.019238
20
1.0909
11
-0.00644173
21
1.0894
0
LINE
8
BLACK
6
CONTINUOUS
10
-0.00644173
20
1.0894
11
0.00644173
21
1.0894
0
LINE
8
BLACK
6
CONTINUOUS
10
0.00644173
20
1.0894
11
0.019238
21
1.0909
0
LINE
8
BLACK
6
CONTINUOUS
10
0.019238
20
1.0909
11
0.0317742
21
1.09387
0
LINE
8
BLACK
6
CONTINUOUS
10
0.0317742
20
1.09387
11
0.0438807
21
1.09827
0
LINE
8
BLACK
6
CONTINUOUS
10
0.0438807
20
1.09827
11
0.0553937
21
1.10406
0
LINE
8
BLACK
6
CONTINUOUS
10
0.0553937
20
1.10406
11
0.0661577
21
1.11113
0
LINE
8
BLACK
6
CONTINUOUS
10
0.0661577
20
1.11113
11
0.076027
21
1.11942
0
LINE
8
BLACK
6
CONTINUOUS
10
0.076027
20
1.11942
11
0.0848681
21
1.12879
0
LINE
8
BLACK
6
CONTINUOUS
10
0.0848681
20
1.12879
11
0.0925616
21
1.13912
0
LINE
8
BLACK
6
CONTINUOUS
10
0.0925616
20
1.13912
11
0.0990033
21
1.15028
0
LINE
8
BLACK
6
CONTINUOUS
10
0.0990033
20
1.15028
11
0.104106
21
1.16211
0
LINE
8
BLACK
6
CONTINUOUS
10
0.104106
20
1.16211
11
0.107801
21
1.17445
0
LINE
8
BLACK
6
CONTINUOUS
10
0.107801
20
1.17445
11
0.110038
21
1.18714
0
LINE
8
BLACK
6
CONTINUOUS
10
0.110038
20
1.18714
11
0.110787
21
1.2
0
LINE
8
BLACK
6
CONTINUOUS
10
0.110787
20
1.2
11
0.110038
21
1.21286
0
LINE
8
BLACK
6
CONTINUOUS
10
0.110038
20
1.21286
11
0.107801
21
1.22555
0
LINE
8
BLACK
6
CONTINUOUS
10
0.107801
20
1.22555
11
0.104106
21
1.23789
0
LINE
8
BLACK
6
CONTINUOUS
10
0.104106
20
1.23789
11
0.0990033
21
1.24972
0
LINE
8
BLACK
6
CONTINUOUS
10
0.0990033
20
1.24972
11
0.0925616
21
1.26088
0
LINE
8
BLACK
6
CONTINUOUS
10
0.0925616
20
1.26088
11
0.0848681
21
1.27121
0
LINE
8
BLACK
6
CONTINUOUS
10
0.0848681
20
1.27121
11
0.076027
21
1.28058
0
LINE
8
BLACK
6
CONTINUOUS
10
0.076027
20
1.28058
11
0.0661577
21
1.28887
0
LINE
8
BLACK
6
CONTINUOUS
10
0.0661577
20
1.28887
11
0.0553937
21
1.29594
0
LINE
8
BLACK
6
CONTINUOUS
10
0.0553937
20
1.29594
11
0.0438807
21
1.30173
0
LINE
8
BLACK
6
CONTINUOUS
10
0.0438807
20
1.30173
11
0.0317742
21
1.30613
0
LINE
8
BLACK
6
CONTINUOUS
10
0.0317742
20
1.30613
11
0.019238
21
1.3091
0
LINE
8
BLACK
6
CONTINUOUS
10
0.019238
20
1.3091
11
0.00644173
21
1.3106
0
LINE
8
BLACK
6
CONTINUOUS
10
0.00644173
20
1.3106
11
-0.00644173
21
1.3106
0
LINE
8
BLACK
6
CONTINUOUS
10
-0.00644173
20
1.3106
11
-0.019238
21
1.3091
0
LINE
8
BLACK
6
CONTINUOUS
10
-0.019238
20
1.3091
11
-0.0317742
21
1.30613
0
LINE
8
BLACK
6
CONTINUOUS
10
-0.0317742
20
1.30613
11
-0.0438807
21
1.30173
0
LINE
8
BLACK
6
CONTINUOUS
10
-0.0438807
20
1.30173
11
-0.0553937
21
1.29594
0
LINE
8
BLACK
6
CONTINUOUS
10
-0.0553937
20
1.29594
11
-0.0661577
21
1.28887
0
LINE
8
BLACK
6
CONTINUOUS
10
-0.0661577
20
1.28887
11
-0.076027
21
1.28058
0
LINE
8
BLACK
6
CONTINUOUS
10
-0.076027
20
1.28058
11
-0.0848681
21
1.27121
0
LINE
8
BLACK
6
CONTINUOUS
10
-0.0848681
20
1.27121
11
-0.0925616
21
1.26088
0
LINE
8
BLACK
6
CONTINUOUS
10
-0.0925616
20
1.26088
11
-0.0990033
21
1.24972
0
LINE
8
BLACK
6
CONTINUOUS
10
-0.0990033
20
1.24972
11
-0.104106
21
1.23789
0
LINE
8
BLACK
6
CONTINUOUS
10
-0.104106
20
1.23789
11
-0.107801
21
1.22555
0
LINE
8
BLACK
6
CONTINUOUS
10
-0.107801
20
1.22555
11
-0.110038
21
1.21286
0
LINE
8
BLACK
6
CONTINUOUS
10
-0.110038
20
1.21286
11
-0.110787
21
1.2
0
LINE
8
BLACK
6
CONTINUOUS
10
-0.110787
20
1.2
11
-0.110038
21
1.18714
0
LINE
8
BLACK
6
CONTINUOUS
10
1.21406
20
1.32481
11
1.22795
21
1.32245
0
LINE
8
BLACK
6
CONTINUOUS
10
1.22795
20
1.32245
11
1.24148
21
1.31855
0
LINE
8
BLACK
6
CONTINUOUS
10
1.24148
20
1.31855
11
1.2545
21
1.31316
0
LINE
8
BLACK
6
CONTINUOUS
10
1.2545
20
1.31316
11
1.26682
21
1.30635
0
LINE
8
BLACK
6
CONTINUOUS
10
1.26682
20
1.30635
11
1.27831
21
1.2982
0
LINE
8
BLACK
6
CONTINUOUS
10
1.27831
20
1.2982
11
1.28881
21
1.28881
0
LINE
8
BLACK
6
CONTINUOUS
10
1.28881
20
1.28881
11
1.2982
21
1.27831
0
LINE
8
BLACK
6
CONTINUOUS
10
1.2982
20
1.27831
11
1.30635
21
1.26682
0
LINE
8
BLACK
6
CONTINUOUS
10
1.30635
20
1.26682
11
1.31316
21
1.2545
0
LINE
8
BLACK
6
CONTINUOUS
10
1.31316
20
1.2545
11
1.31855
21
1.24148
0
LINE
8
BLACK
6
CONTINUOUS
10
1.31855
20
1.24148
11
1.32245
21
1.22795
0
LINE
8
BLACK
6
CONTINUOUS
10
1.32245
20
1.22795
11
1.32481
21
1.21406
0
LINE
8
BLACK
6
CONTINUOUS
10
1.32481
20
1.21406
11
1.3256
21
1.2
0
LINE
8
BLACK
6
CONTINUOUS
10
1.3256
20
1.2
11
1.32481
21
1.18594
0
LINE
8
BLACK
6
CONTINUOUS
10
1.32481
20
1.18594
11
1.32245
21
1.17205
0
LINE
8
BLACK
6
CONTINUOUS
10
1.32245
20
1.17205
11
1.31855
21
1.15852
0
LINE
8
BLACK
6
CONTINUOUS
10
1.31855
20
1.15852
11
1.31316
21
1.1455
0
LINE
8
BLACK
6
CONTINUOUS
10
1.31316
20
1.1455
11
1.30635
21
1.13318
0
LINE
8
BLACK
6
CONTINUOUS
10
1.30635
20
1.13318
11
1.2982
21
1.12169
0
LINE
8
BLACK
6
CONTINUOUS
10
1.2982
20
1.12169
11
1.28881
21
1.11119
0
LINE
8
BLACK
6
CONTINUOUS
10
1.28881
20
1.11119
11
1.27831
21
1.1018
0
LINE
8
BLACK
6
CONTINUOUS
10
1.27831
20
1.1018
11
1.26682
21
1.09365
0
LINE
8
BLACK
6
CONTINUOUS
10
1.26682
20
1.09365
11
1.2545
21
1.08684
0
LINE
8
BLACK
6
CONTINUOUS
10
1.2545
20
1.08684
11
1.24148
21
1.08145
0
LINE
8
BLACK
6
CONTINUOUS
10
1.24148
20
1.08145
11
1.22795
21
1.07755
0
LINE
8
BLACK
6
CONTINUOUS
10
1.22795
20
1.07755
11
1.21406
21
1.07519
0
LINE
8
BLACK
6
CONTINUOUS
10
1.21406
20
1.07519
11
1.2
21
1.0744
0
LINE
8
BLACK
6
CONTINUOUS
10
1.2
20
1.0744
11
1.18594
21
1.07519
0
LINE
8
BLACK
6
CONTINUOUS
10
1.18594
20
1.07519
11
1.17205
21
1.07755
0
LINE
8
BLACK
6
CONTINUOUS
10
1.17205
20
1.07755
11
1.15852
21
1.08145
0
LINE
8
BLACK
6
CONTINUOUS
10
1.15852
20
1.08145
11
1.1455
21
1.08684
0
LINE
8
BLACK
6
CONTINUOUS
10
1.1455
20
1.08684
11
1.13318
21
1.09365
0
LINE
8
BLACK
6
CONTINUOUS
10
1.13318
20
1.09365
11
1.12169
21
1.1018
0
LINE
8
BLACK
6
CONTINUOUS
10
1.12169
20
1.1018
11
1.11119
21
1.11119
0
LINE
8
BLACK
6
CONTINUOUS
10
1.11119
20
1.11119
11
1.1018
21
1.12169
0
LINE
8
BLACK
6
CONTINUOUS
10
1.1018
20
1.12169
11
1.09365
21
1.13318
0
LINE
8
BLACK
6
CONTINUOUS
10
1.09365
20
1.13318
11
1.08684
21
1.1455
0
LINE
8
BLACK
6
CONTINUOUS
10
1.08684
20
1.1455
11
1.08145
21
1.15852
0
LINE
8
BLACK
6
CONTINUOUS
10
1.08145
20
1.15852
11
1.07755
21
1.17205
0
LINE
8
BLACK
6
CONTINUOUS
10
1.07755
20
1.17205
11
1.07519
21
1.18594
0
LINE
8
BLACK
6
CONTINUOUS
10
1.07519
20
1.18594
11
1.0744
21
1.2
0
LINE
8
BLACK
6
CONTINUOUS
10
1.0744
20
1.2
11
1.07519
21
1.21406
0
LINE
8
BLACK
6
CONTINUOUS
10
1.07519
20
1.21406
11
1.07755
21
1.22795
0
LINE
8
BLACK
6
CONTINUOUS
10
1.07755
20
1.22795
11
1.08145
21
1.24148
0
LINE
8
BLACK
6
CONTINUOUS
10
1.08145
20
1.24148
11
1.08684
21
1.2545
0
LINE
8
BLACK
6
CONTINUOUS
10
1.08684
20
1.2545
11
1.09365
21
1.26682
0
LINE
8
BLACK
6
CONTINUOUS
10
1.09365
20
1.26682
11
1.1018
21
1.27831
0
LINE
8
BLACK
6
CONTINUOUS
10
1.1018
20
1.27831
11
1.11119
21
1.28881
0
LINE
8
BLACK
6
CONTINUOUS
10
1.11119
20
1.28881
11
1.12169
21
1.2982
0
LINE
8
BLACK
6
CONTINUOUS
10
1.12169
20
1.2982
11
1.13318
21
1.30635
0
LINE
8
BLACK
6
CONTINUOUS
10
1.13318
20
1.30635
11
1.1455
21
1.31316
0
LINE
8
BLACK
6
CONTINUOUS
10
1.1455
20
1.31316
11
1.15852
21
1.31855
0
LINE
8
BLACK
6
CONTINUOUS
10
1.15852
20
1.31855
11
1.17205
21
1.32245
0
LINE
8
BLACK
6
CONTINUOUS
10
1.17205
20
1.32245
11
1.18594
21
1.32481
0
LINE
8
BLACK
6
CONTINUOUS
10
1.18594
20
1.32481
11
1.2
21
1.3256
0
LINE
8
BLACK
6
CONTINUOUS
10
1.2
20
1.3256
11
1.21406
21
1.32481
0
LINE
8
BLACK
6
CONTINUOUS
10
1.08996
20
1.18714
11
1.0922
21
1.17445
0
LINE
8
BLACK
6
CONTINUOUS
10
1.0922
20
1.17445
11
1.09589
21
1.16211
0
LINE
8
BLACK
6
CONTINUOUS
10
1.09589
20
1.16211
11
1.101
21
1.15028
0
LINE
8
BLACK
6
CONTINUOUS
10
1.101
20
1.15028
11
1.10744
21
1.13912
0
LINE
8
BLACK
6
CONTINUOUS
10
1.10744
20
1.13912
11
1.11513
21
1.12879
0
LINE
8
BLACK
6
CONTINUOUS
10
1.11513
20
1.12879
11
1.12397
21
1.11942
0
LINE
8
BLACK
6
CONTINUOUS
10
1.12397
20
1.11942
11
1.13384
21
1.11113
0
LINE
8
BLACK
6
CONTINUOUS
10
1.13384
20
1.11113
11
1.14461
21
1.10406
0
LINE
8
BLACK
6
CONTINUOUS
10
1.14461
20
1.10406
11
1.15612
21
1.09827
0
LINE
8
BLACK
6
CONTINUOUS
10
1.15612
20
1.09827
11
1.16823
21
1.09387
0
LINE
8
BLACK
6
CONTINUOUS
10
1.16823
20
1.09387
11
1.18076
21
1.0909
0
LINE
8
BLACK
6
CONTINUOUS
10
1.18076
20
1.0909
11
1.19356
21
1.0894
0
LINE
8
BLACK
6
CONTINUOUS
10
1.19356
20
1.0894
11
1.20644
21
1.0894
0
LINE
8
BLACK
6
CONTINUOUS
10
1.20644
20
1.0894
11
1.21924
21
1.0909
0
LINE
8
BLACK
6
CONTINUOUS
10
1.21924
20
1.0909
11
1.23177
21
1.09387
0
LINE
8
BLACK
6
CONTINUOUS
10
1.23177
20
1.09387
11
1.24388
21
1.09827
0
LINE
8
BLACK
6
CONTINUOUS
10
1.24388
20
1.09827
11
1.25539
21
1.10406
0
LINE
8
BLACK
6
CONTINUOUS
10
1.25539
20
1.10406
11
1.26616
21
1.11113
0
LINE
8
BLACK
6
CONTINUOUS
10
1.26616
20
1.11113
11
1.27603
21
1.11942
0
LINE
8
BLACK
6
CONTINUOUS
10
1.27603
20
1.11942
11
1.28487
21
1.12879
0
LINE
8
BLACK
6
CONTINUOUS
10
1.28487
20
1.12879
11
1.29256
21
1.13912
0
LINE
8
BLACK
6
CONTINUOUS
10
1.29256
20
1.13912
11
1.299
21
1.15028
0
LINE
8
BLACK
6
CONTINUOUS
10
1.299
20
1.15028
11
1.30411
21
1.16211
0
LINE
8
BLACK
6
CONTINUOUS
10
1.30411
20
1.16211
11
1.3078
21
1.17445
0
LINE
8
BLACK
6
CONTINUOUS
10
1.3078
20
1.17445
11
1.31004
21
1.18714
0
LINE
8
BLACK
6
CONTINUOUS
10
1.31004
20
1.18714
11
1.31079
21
1.2
0
LINE
8
BLACK
6
CONTINUOUS
10
1.31079
20
1.2
11
1.31004
21
1.21286
0
LINE
8
BLACK
6
CONTINUOUS
10
1.31004
20
1.21286
11
1.3078
21
1.22555
0
LINE
8
BLACK
6
CONTINUOUS
10
1.3078
20
1.22555
11
1.30411
21
1.23789
0
LINE
8
BLACK
6
CONTINUOUS
10
1.30411
20
1.23789
11
1.299
21
1.24972
0
LINE
8
BLACK
6
CONTINUOUS
10
1.299
20
1.24972
11
1.29256
21
1.26088
0
LINE
8
BLACK
6
CONTINUOUS
10
1.29256
20
1.26088
11
1.28487
21
1.27121
0
LINE
8
BLACK
6
CONTINUOUS
10
1.28487
20
1.27121
11
1.27603
21
1.28058
0
LINE
8
BLACK
6
CONTINUOUS
10
1.27603
20
1.28058
11
1.26616
21
1.28887
0
LINE
8
BLACK
6
CONTINUOUS
10
1.26616
20
1.28887
11
1.25539
21
1.29594
0
LINE
8
BLACK
6
CONTINUOUS
10
1.25539
20
1.29594
11
1.24388
21
1.30173
0
LINE
8
BLACK
6
CONTINUOUS
10
1.24388
20
1.30173
11
1.23177
21
1.30613
0
LINE
8
BLACK
6
CONTINUOUS
10
1.23177
20
1.30613
11
1.21924
21
1.3091
0
LINE
8
BLACK
6
CONTINUOUS
10
1.21924
20
1.3091
11
1.20644
21
1.3106
0
LINE
8
BLACK
6
CONTINUOUS
10
1.20644
20
1.3106
11
1.19356
21
1.3106
0
LINE
8
BLACK
6
CONTINUOUS
10
1.19356
20
1.3106
11
1.18076
21
1.3091
0
LINE
8
BLACK
6
CONTINUOUS
10
1.18076
20
1.3091
11
1.16823
21
1.30613
0
LINE
8
BLACK
6
CONTINUOUS
10
1.16823
20
1.30613
11
1.15612
21
1.30173
0
LINE
8
BLACK
6
CONTINUOUS
10
1.15612
20
1.30173
11
1.14461
21
1.29594
0
LINE
8
BLACK
6
CONTINUOUS
10
1.14461
20
1.29594
11
1.13384
21
1.28887
0
LINE
8
BLACK
6
CONTINUOUS
10
1.13384
20
1.28887
11
1.12397
21
1.28058
0
LINE
8
BLACK
6
CONTINUOUS
10
1.12397
20
1.28058
11
1.11513
21
1.27121
0
LINE
8
BLACK
6
CONTINUOUS
10
1.11513
20
1.27121
11
1.10744
21
1.26088
0
LINE
8
BLACK
6
CONTINUOUS
10
1.10744
20
1.26088
11
1.101
21
1.24972
0
LINE
8
BLACK
6
CONTINUOUS
10
1.101
20
1.24972
11
1.09589
21
1.23789
0
LINE
8
BLACK
6
CONTINUOUS
10
1.09589
20
1.23789
11
1.0922
21
1.22555
0
LINE
8
BLACK
6
CONTINUOUS
10
1.0922
20
1.22555
11
1.08996
21
1.21286
0
LINE
8
BLACK
6
CONTINUOUS
10
1.08996
20
1.21286
11
1.08921
21
1.2
0
LINE
8
BLACK
6
CONTINUOUS
10
1.08921
20
1.2
11
1.08996
21
1.18714
  0
ENDSEC
  0
EOF
