  0
SECTION
  2
HEADER
  9
$ANGBASE
  50
0.0
  9
$ANGDIR
  70
1
  9
$MEASUREMENT
  70
0
  0
ENDSEC
  0
SECTION
  2
TABLES
  0
TABLE
  2
LTYPE
  70
4
  0
LTYPE
  5
40F
  2
CONTINUOUS
  70
0
  3
Solid line
  72
65
  73
0
  40
0.0
  0
LTYPE
  5
410
  2
DASHDOT
 70
0
  3
Dash Dot ____ _ ____ _
 72
65
 73
4
 40
2.0
 49
1.25
 49
-0.25
 49
0.25
 49
-0.25
  0
LTYPE
  5
411
  2
DASHED
 70
0
  3
Dashed __ __ __ __ __
 72
65
 73
2
 40
0.75
 49
0.5
 49
-0.25
  0
LTYPE
  5
43B
  2
DOTTED
 70
0
  3
Dotted .  .  .  .
 72
65
 73
2
 40
0.2
 49
0.0
 49
-0.2
  0
ENDTAB
  0
TABLE
  2
STYLE
  70
4
  0
STYLE
  2
KICAD
  70
0
  40
0
  41
1
  42
1
  50
0
  71
0
  3
isocp.shx
  0
STYLE
  2
KICADB
  70
0
  40
0
  41
1
  42
1
  50
0
  71
0
  3
isocp.shx
  0
STYLE
  2
KICADI
  70
0
  40
0
  41
1
  42
1
  50
15
  71
0
  3
isocp.shx
  0
STYLE
  2
KICADBI
  70
0
  40
0
  41
1
  42
1
  50
15
  71
0
  3
isocp.shx
  0
ENDTAB
  0
TABLE
  2
LAYER
  70
1
  0
LAYER
  2
BLACK
  70
0
  62
7
  6
CONTINUOUS
  0
ENDTAB
  0
ENDSEC
  0
SECTION
  2
ENTITIES
0
LINE
8
BLACK
6
CONTINUOUS
10
0.42051
20
0.516316
11
0.433874
21
0.513148
0
LINE
8
BLACK
6
CONTINUOUS
10
0.433874
20
0.513148
11
0.446781
21
0.508451
0
LINE
8
BLACK
6
CONTINUOUS
10
0.446781
20
0.508451
11
0.459055
21
0.502286
0
LINE
8
BLACK
6
CONTINUOUS
10
0.459055
20
0.502286
11
0.470531
21
0.494739
0
LINE
8
BLACK
6
CONTINUOUS
10
0.470531
20
0.494739
11
0.481052
21
0.48591
0
LINE
8
BLACK
6
CONTINUOUS
10
0.481052
20
0.48591
11
0.490478
21
0.47592
0
LINE
8
BLACK
6
CONTINUOUS
10
0.490478
20
0.47592
11
0.49868
21
0.464903
0
LINE
8
BLACK
6
CONTINUOUS
10
0.49868
20
0.464903
11
0.505547
21
0.453008
0
LINE
8
BLACK
6
CONTINUOUS
10
0.505547
20
0.453008
11
0.510987
21
0.440396
0
LINE
8
BLACK
6
CONTINUOUS
10
0.510987
20
0.440396
11
0.514927
21
0.427238
0
LINE
8
BLACK
6
CONTINUOUS
10
0.514927
20
0.427238
11
0.517312
21
0.413712
0
LINE
8
BLACK
6
CONTINUOUS
10
0.517312
20
0.413712
11
0.51811
21
0.4
0
LINE
8
BLACK
6
CONTINUOUS
10
0.51811
20
0.4
11
0.517312
21
0.386288
0
LINE
8
BLACK
6
CONTINUOUS
10
0.517312
20
0.386288
11
0.514927
21
0.372762
0
LINE
8
BLACK
6
CONTINUOUS
10
0.514927
20
0.372762
11
0.510987
21
0.359604
0
LINE
8
BLACK
6
CONTINUOUS
10
0.510987
20
0.359604
11
0.505547
21
0.346992
0
LINE
8
BLACK
6
CONTINUOUS
10
0.505547
20
0.346992
11
0.49868
21
0.335097
0
LINE
8
BLACK
6
CONTINUOUS
10
0.49868
20
0.335097
11
0.490478
21
0.32408
0
LINE
8
BLACK
6
CONTINUOUS
10
0.490478
20
0.32408
11
0.481052
21
0.31409
0
LINE
8
BLACK
6
CONTINUOUS
10
0.481052
20
0.31409
11
0.470531
21
0.305261
0
LINE
8
BLACK
6
CONTINUOUS
10
0.470531
20
0.305261
11
0.459055
21
0.297714
0
LINE
8
BLACK
6
CONTINUOUS
10
0.459055
20
0.297714
11
0.446781
21
0.291549
0
LINE
8
BLACK
6
CONTINUOUS
10
0.446781
20
0.291549
11
0.433874
21
0.286852
0
LINE
8
BLACK
6
CONTINUOUS
10
0.433874
20
0.286852
11
0.42051
21
0.283684
0
LINE
8
BLACK
6
CONTINUOUS
10
0.42051
20
0.283684
11
0.406867
21
0.28209
0
LINE
8
BLACK
6
CONTINUOUS
10
0.406867
20
0.28209
11
0.393133
21
0.28209
0
LINE
8
BLACK
6
CONTINUOUS
10
0.393133
20
0.28209
11
0.37949
21
0.283684
0
LINE
8
BLACK
6
CONTINUOUS
10
0.37949
20
0.283684
11
0.366126
21
0.286852
0
LINE
8
BLACK
6
CONTINUOUS
10
0.366126
20
0.286852
11
0.353219
21
0.291549
0
LINE
8
BLACK
6
CONTINUOUS
10
0.353219
20
0.291549
11
0.340945
21
0.297714
0
LINE
8
BLACK
6
CONTINUOUS
10
0.340945
20
0.297714
11
0.329469
21
0.305261
0
LINE
8
BLACK
6
CONTINUOUS
10
0.329469
20
0.305261
11
0.318948
21
0.31409
0
LINE
8
BLACK
6
CONTINUOUS
10
0.318948
20
0.31409
11
0.309522
21
0.32408
0
LINE
8
BLACK
6
CONTINUOUS
10
0.309522
20
0.32408
11
0.30132
21
0.335097
0
LINE
8
BLACK
6
CONTINUOUS
10
0.30132
20
0.335097
11
0.294453
21
0.346992
0
LINE
8
BLACK
6
CONTINUOUS
10
0.294453
20
0.346992
11
0.289013
21
0.359604
0
LINE
8
BLACK
6
CONTINUOUS
10
0.289013
20
0.359604
11
0.285073
21
0.372762
0
LINE
8
BLACK
6
CONTINUOUS
10
0.285073
20
0.372762
11
0.282688
21
0.386288
0
LINE
8
BLACK
6
CONTINUOUS
10
0.282688
20
0.386288
11
0.28189
21
0.4
0
LINE
8
BLACK
6
CONTINUOUS
10
0.28189
20
0.4
11
0.282688
21
0.413712
0
LINE
8
BLACK
6
CONTINUOUS
10
0.282688
20
0.413712
11
0.285073
21
0.427238
0
LINE
8
BLACK
6
CONTINUOUS
10
0.285073
20
0.427238
11
0.289013
21
0.440396
0
LINE
8
BLACK
6
CONTINUOUS
10
0.289013
20
0.440396
11
0.294453
21
0.453008
0
LINE
8
BLACK
6
CONTINUOUS
10
0.294453
20
0.453008
11
0.30132
21
0.464903
0
LINE
8
BLACK
6
CONTINUOUS
10
0.30132
20
0.464903
11
0.309522
21
0.47592
0
LINE
8
BLACK
6
CONTINUOUS
10
0.309522
20
0.47592
11
0.318948
21
0.48591
0
LINE
8
BLACK
6
CONTINUOUS
10
0.318948
20
0.48591
11
0.329469
21
0.494739
0
LINE
8
BLACK
6
CONTINUOUS
10
0.329469
20
0.494739
11
0.340945
21
0.502286
0
LINE
8
BLACK
6
CONTINUOUS
10
0.340945
20
0.502286
11
0.353219
21
0.508451
0
LINE
8
BLACK
6
CONTINUOUS
10
0.353219
20
0.508451
11
0.366126
21
0.513148
0
LINE
8
BLACK
6
CONTINUOUS
10
0.366126
20
0.513148
11
0.37949
21
0.516316
0
LINE
8
BLACK
6
CONTINUOUS
10
0.37949
20
0.516316
11
0.393133
21
0.51791
0
LINE
8
BLACK
6
CONTINUOUS
10
0.393133
20
0.51791
11
0.406867
21
0.51791
0
LINE
8
BLACK
6
CONTINUOUS
10
0.406867
20
0.51791
11
0.42051
21
0.516316
0
LINE
8
BLACK
6
CONTINUOUS
10
1.62051
20
0.516316
11
1.63387
21
0.513148
0
LINE
8
BLACK
6
CONTINUOUS
10
1.63387
20
0.513148
11
1.64678
21
0.508451
0
LINE
8
BLACK
6
CONTINUOUS
10
1.64678
20
0.508451
11
1.65906
21
0.502286
0
LINE
8
BLACK
6
CONTINUOUS
10
1.65906
20
0.502286
11
1.67053
21
0.494739
0
LINE
8
BLACK
6
CONTINUOUS
10
1.67053
20
0.494739
11
1.68105
21
0.48591
0
LINE
8
BLACK
6
CONTINUOUS
10
1.68105
20
0.48591
11
1.69048
21
0.47592
0
LINE
8
BLACK
6
CONTINUOUS
10
1.69048
20
0.47592
11
1.69868
21
0.464903
0
LINE
8
BLACK
6
CONTINUOUS
10
1.69868
20
0.464903
11
1.70555
21
0.453008
0
LINE
8
BLACK
6
CONTINUOUS
10
1.70555
20
0.453008
11
1.71099
21
0.440396
0
LINE
8
BLACK
6
CONTINUOUS
10
1.71099
20
0.440396
11
1.71493
21
0.427238
0
LINE
8
BLACK
6
CONTINUOUS
10
1.71493
20
0.427238
11
1.71731
21
0.413712
0
LINE
8
BLACK
6
CONTINUOUS
10
1.71731
20
0.413712
11
1.71811
21
0.4
0
LINE
8
BLACK
6
CONTINUOUS
10
1.71811
20
0.4
11
1.71731
21
0.386288
0
LINE
8
BLACK
6
CONTINUOUS
10
1.71731
20
0.386288
11
1.71493
21
0.372762
0
LINE
8
BLACK
6
CONTINUOUS
10
1.71493
20
0.372762
11
1.71099
21
0.359604
0
LINE
8
BLACK
6
CONTINUOUS
10
1.71099
20
0.359604
11
1.70555
21
0.346992
0
LINE
8
BLACK
6
CONTINUOUS
10
1.70555
20
0.346992
11
1.69868
21
0.335097
0
LINE
8
BLACK
6
CONTINUOUS
10
1.69868
20
0.335097
11
1.69048
21
0.32408
0
LINE
8
BLACK
6
CONTINUOUS
10
1.69048
20
0.32408
11
1.68105
21
0.31409
0
LINE
8
BLACK
6
CONTINUOUS
10
1.68105
20
0.31409
11
1.67053
21
0.305261
0
LINE
8
BLACK
6
CONTINUOUS
10
1.67053
20
0.305261
11
1.65906
21
0.297714
0
LINE
8
BLACK
6
CONTINUOUS
10
1.65906
20
0.297714
11
1.64678
21
0.291549
0
LINE
8
BLACK
6
CONTINUOUS
10
1.64678
20
0.291549
11
1.63387
21
0.286852
0
LINE
8
BLACK
6
CONTINUOUS
10
1.63387
20
0.286852
11
1.62051
21
0.283684
0
LINE
8
BLACK
6
CONTINUOUS
10
1.62051
20
0.283684
11
1.60687
21
0.28209
0
LINE
8
BLACK
6
CONTINUOUS
10
1.60687
20
0.28209
11
1.59313
21
0.28209
0
LINE
8
BLACK
6
CONTINUOUS
10
1.59313
20
0.28209
11
1.57949
21
0.283684
0
LINE
8
BLACK
6
CONTINUOUS
10
1.57949
20
0.283684
11
1.56613
21
0.286852
0
LINE
8
BLACK
6
CONTINUOUS
10
1.56613
20
0.286852
11
1.55322
21
0.291549
0
LINE
8
BLACK
6
CONTINUOUS
10
1.55322
20
0.291549
11
1.54094
21
0.297714
0
LINE
8
BLACK
6
CONTINUOUS
10
1.54094
20
0.297714
11
1.52947
21
0.305261
0
LINE
8
BLACK
6
CONTINUOUS
10
1.52947
20
0.305261
11
1.51895
21
0.31409
0
LINE
8
BLACK
6
CONTINUOUS
10
1.51895
20
0.31409
11
1.50952
21
0.32408
0
LINE
8
BLACK
6
CONTINUOUS
10
1.50952
20
0.32408
11
1.50132
21
0.335097
0
LINE
8
BLACK
6
CONTINUOUS
10
1.50132
20
0.335097
11
1.49445
21
0.346992
0
LINE
8
BLACK
6
CONTINUOUS
10
1.49445
20
0.346992
11
1.48901
21
0.359604
0
LINE
8
BLACK
6
CONTINUOUS
10
1.48901
20
0.359604
11
1.48507
21
0.372762
0
LINE
8
BLACK
6
CONTINUOUS
10
1.48507
20
0.372762
11
1.48269
21
0.386288
0
LINE
8
BLACK
6
CONTINUOUS
10
1.48269
20
0.386288
11
1.48189
21
0.4
0
LINE
8
BLACK
6
CONTINUOUS
10
1.48189
20
0.4
11
1.48269
21
0.413712
0
LINE
8
BLACK
6
CONTINUOUS
10
1.48269
20
0.413712
11
1.48507
21
0.427238
0
LINE
8
BLACK
6
CONTINUOUS
10
1.48507
20
0.427238
11
1.48901
21
0.440396
0
LINE
8
BLACK
6
CONTINUOUS
10
1.48901
20
0.440396
11
1.49445
21
0.453008
0
LINE
8
BLACK
6
CONTINUOUS
10
1.49445
20
0.453008
11
1.50132
21
0.464903
0
LINE
8
BLACK
6
CONTINUOUS
10
1.50132
20
0.464903
11
1.50952
21
0.47592
0
LINE
8
BLACK
6
CONTINUOUS
10
1.50952
20
0.47592
11
1.51895
21
0.48591
0
LINE
8
BLACK
6
CONTINUOUS
10
1.51895
20
0.48591
11
1.52947
21
0.494739
0
LINE
8
BLACK
6
CONTINUOUS
10
1.52947
20
0.494739
11
1.54094
21
0.502286
0
LINE
8
BLACK
6
CONTINUOUS
10
1.54094
20
0.502286
11
1.55322
21
0.508451
0
LINE
8
BLACK
6
CONTINUOUS
10
1.55322
20
0.508451
11
1.56613
21
0.513148
0
LINE
8
BLACK
6
CONTINUOUS
10
1.56613
20
0.513148
11
1.57949
21
0.516316
0
LINE
8
BLACK
6
CONTINUOUS
10
1.57949
20
0.516316
11
1.59313
21
0.51791
0
LINE
8
BLACK
6
CONTINUOUS
10
1.59313
20
0.51791
11
1.60687
21
0.51791
0
LINE
8
BLACK
6
CONTINUOUS
10
1.60687
20
0.51791
11
1.62051
21
0.516316
0
LINE
8
BLACK
6
CONTINUOUS
10
3.00703
20
0.505944
11
3.01023
21
0.50381
0
LINE
8
BLACK
6
CONTINUOUS
10
3.01023
20
0.50381
11
3.01236
21
0.500617
0
LINE
8
BLACK
6
CONTINUOUS
10
3.01236
20
0.500617
11
3.01311
21
0.49685
0
LINE
8
BLACK
6
CONTINUOUS
10
3.01311
20
0.49685
11
3.01311
21
0.459449
0
LINE
8
BLACK
6
CONTINUOUS
10
3.01311
20
0.459449
11
3.01236
21
0.455682
0
LINE
8
BLACK
6
CONTINUOUS
10
3.01236
20
0.455682
11
3.01023
21
0.452489
0
LINE
8
BLACK
6
CONTINUOUS
10
3.01023
20
0.452489
11
3.00703
21
0.450356
0
LINE
8
BLACK
6
CONTINUOUS
10
3.00703
20
0.450356
11
3.00327
21
0.449606
0
LINE
8
BLACK
6
CONTINUOUS
10
3.00327
20
0.449606
11
2.98358
21
0.449606
0
LINE
8
BLACK
6
CONTINUOUS
10
2.98358
20
0.449606
11
2.97982
21
0.450356
0
LINE
8
BLACK
6
CONTINUOUS
10
2.97982
20
0.450356
11
2.97662
21
0.452489
0
LINE
8
BLACK
6
CONTINUOUS
10
2.97662
20
0.452489
11
2.97449
21
0.455682
0
LINE
8
BLACK
6
CONTINUOUS
10
2.97449
20
0.455682
11
2.97374
21
0.459449
0
LINE
8
BLACK
6
CONTINUOUS
10
2.97374
20
0.459449
11
2.97374
21
0.49685
0
LINE
8
BLACK
6
CONTINUOUS
10
2.97374
20
0.49685
11
2.97449
21
0.500617
0
LINE
8
BLACK
6
CONTINUOUS
10
2.97449
20
0.500617
11
2.97662
21
0.50381
0
LINE
8
BLACK
6
CONTINUOUS
10
2.97662
20
0.50381
11
2.97982
21
0.505944
0
LINE
8
BLACK
6
CONTINUOUS
10
2.97982
20
0.505944
11
2.98358
21
0.506693
0
LINE
8
BLACK
6
CONTINUOUS
10
2.98358
20
0.506693
11
3.00327
21
0.506693
0
LINE
8
BLACK
6
CONTINUOUS
10
3.00327
20
0.506693
11
3.00703
21
0.505944
0
LINE
8
BLACK
6
CONTINUOUS
10
3.08184
20
0.505944
11
3.08503
21
0.50381
0
LINE
8
BLACK
6
CONTINUOUS
10
3.08503
20
0.50381
11
3.08716
21
0.500617
0
LINE
8
BLACK
6
CONTINUOUS
10
3.08716
20
0.500617
11
3.08791
21
0.49685
0
LINE
8
BLACK
6
CONTINUOUS
10
3.08791
20
0.49685
11
3.08791
21
0.459449
0
LINE
8
BLACK
6
CONTINUOUS
10
3.08791
20
0.459449
11
3.08716
21
0.455682
0
LINE
8
BLACK
6
CONTINUOUS
10
3.08716
20
0.455682
11
3.08503
21
0.452489
0
LINE
8
BLACK
6
CONTINUOUS
10
3.08503
20
0.452489
11
3.08184
21
0.450356
0
LINE
8
BLACK
6
CONTINUOUS
10
3.08184
20
0.450356
11
3.07807
21
0.449606
0
LINE
8
BLACK
6
CONTINUOUS
10
3.07807
20
0.449606
11
3.05839
21
0.449606
0
LINE
8
BLACK
6
CONTINUOUS
10
3.05839
20
0.449606
11
3.05462
21
0.450356
0
LINE
8
BLACK
6
CONTINUOUS
10
3.05462
20
0.450356
11
3.05143
21
0.452489
0
LINE
8
BLACK
6
CONTINUOUS
10
3.05143
20
0.452489
11
3.04929
21
0.455682
0
LINE
8
BLACK
6
CONTINUOUS
10
3.04929
20
0.455682
11
3.04854
21
0.459449
0
LINE
8
BLACK
6
CONTINUOUS
10
3.04854
20
0.459449
11
3.04854
21
0.49685
0
LINE
8
BLACK
6
CONTINUOUS
10
3.04854
20
0.49685
11
3.04929
21
0.500617
0
LINE
8
BLACK
6
CONTINUOUS
10
3.04929
20
0.500617
11
3.05143
21
0.50381
0
LINE
8
BLACK
6
CONTINUOUS
10
3.05143
20
0.50381
11
3.05462
21
0.505944
0
LINE
8
BLACK
6
CONTINUOUS
10
3.05462
20
0.505944
11
3.05839
21
0.506693
0
LINE
8
BLACK
6
CONTINUOUS
10
3.05839
20
0.506693
11
3.07807
21
0.506693
0
LINE
8
BLACK
6
CONTINUOUS
10
3.07807
20
0.506693
11
3.08184
21
0.505944
0
LINE
8
BLACK
6
CONTINUOUS
10
2.47768
20
0.470472
11
2.45012
21
0.470472
0
LINE
8
BLACK
6
CONTINUOUS
10
2.45012
20
0.470472
11
2.45012
21
0.588583
0
LINE
8
BLACK
6
CONTINUOUS
10
2.45012
20
0.588583
11
2.47768
21
0.588583
0
LINE
8
BLACK
6
CONTINUOUS
10
2.47768
20
0.588583
11
2.47768
21
0.470472
0
LINE
8
BLACK
6
CONTINUOUS
10
2.23289
20
0.494629
11
2.23481
21
0.493349
0
LINE
8
BLACK
6
CONTINUOUS
10
2.23481
20
0.493349
11
2.23609
21
0.491433
0
LINE
8
BLACK
6
CONTINUOUS
10
2.23609
20
0.491433
11
2.23654
21
0.489173
0
LINE
8
BLACK
6
CONTINUOUS
10
2.23654
20
0.489173
11
2.23654
21
0.477362
0
LINE
8
BLACK
6
CONTINUOUS
10
2.23654
20
0.477362
11
2.23609
21
0.475102
0
LINE
8
BLACK
6
CONTINUOUS
10
2.23609
20
0.475102
11
2.23481
21
0.473186
0
LINE
8
BLACK
6
CONTINUOUS
10
2.23481
20
0.473186
11
2.23289
21
0.471906
0
LINE
8
BLACK
6
CONTINUOUS
10
2.23289
20
0.471906
11
2.23063
21
0.471457
0
LINE
8
BLACK
6
CONTINUOUS
10
2.23063
20
0.471457
11
2.19028
21
0.471457
0
LINE
8
BLACK
6
CONTINUOUS
10
2.19028
20
0.471457
11
2.18802
21
0.471906
0
LINE
8
BLACK
6
CONTINUOUS
10
2.18802
20
0.471906
11
2.1861
21
0.473186
0
LINE
8
BLACK
6
CONTINUOUS
10
2.1861
20
0.473186
11
2.18482
21
0.475102
0
LINE
8
BLACK
6
CONTINUOUS
10
2.18482
20
0.475102
11
2.18437
21
0.477362
0
LINE
8
BLACK
6
CONTINUOUS
10
2.18437
20
0.477362
11
2.18437
21
0.489173
0
LINE
8
BLACK
6
CONTINUOUS
10
2.18437
20
0.489173
11
2.18482
21
0.491433
0
LINE
8
BLACK
6
CONTINUOUS
10
2.18482
20
0.491433
11
2.1861
21
0.493349
0
LINE
8
BLACK
6
CONTINUOUS
10
2.1861
20
0.493349
11
2.18802
21
0.494629
0
LINE
8
BLACK
6
CONTINUOUS
10
2.18802
20
0.494629
11
2.19028
21
0.495079
0
LINE
8
BLACK
6
CONTINUOUS
10
2.19028
20
0.495079
11
2.23063
21
0.495079
0
LINE
8
BLACK
6
CONTINUOUS
10
2.23063
20
0.495079
11
2.23289
21
0.494629
0
LINE
8
BLACK
6
CONTINUOUS
10
2.32246
20
0.494629
11
2.32437
21
0.493349
0
LINE
8
BLACK
6
CONTINUOUS
10
2.32437
20
0.493349
11
2.32565
21
0.491433
0
LINE
8
BLACK
6
CONTINUOUS
10
2.32565
20
0.491433
11
2.3261
21
0.489173
0
LINE
8
BLACK
6
CONTINUOUS
10
2.3261
20
0.489173
11
2.3261
21
0.477362
0
LINE
8
BLACK
6
CONTINUOUS
10
2.3261
20
0.477362
11
2.32565
21
0.475102
0
LINE
8
BLACK
6
CONTINUOUS
10
2.32565
20
0.475102
11
2.32437
21
0.473186
0
LINE
8
BLACK
6
CONTINUOUS
10
2.32437
20
0.473186
11
2.32246
21
0.471906
0
LINE
8
BLACK
6
CONTINUOUS
10
2.32246
20
0.471906
11
2.3202
21
0.471457
0
LINE
8
BLACK
6
CONTINUOUS
10
2.3202
20
0.471457
11
2.27984
21
0.471457
0
LINE
8
BLACK
6
CONTINUOUS
10
2.27984
20
0.471457
11
2.27758
21
0.471906
0
LINE
8
BLACK
6
CONTINUOUS
10
2.27758
20
0.471906
11
2.27567
21
0.473186
0
LINE
8
BLACK
6
CONTINUOUS
10
2.27567
20
0.473186
11
2.27439
21
0.475102
0
LINE
8
BLACK
6
CONTINUOUS
10
2.27439
20
0.475102
11
2.27394
21
0.477362
0
LINE
8
BLACK
6
CONTINUOUS
10
2.27394
20
0.477362
11
2.27394
21
0.489173
0
LINE
8
BLACK
6
CONTINUOUS
10
2.27394
20
0.489173
11
2.27439
21
0.491433
0
LINE
8
BLACK
6
CONTINUOUS
10
2.27439
20
0.491433
11
2.27567
21
0.493349
0
LINE
8
BLACK
6
CONTINUOUS
10
2.27567
20
0.493349
11
2.27758
21
0.494629
0
LINE
8
BLACK
6
CONTINUOUS
10
2.27758
20
0.494629
11
2.27984
21
0.495079
0
LINE
8
BLACK
6
CONTINUOUS
10
2.27984
20
0.495079
11
2.3202
21
0.495079
0
LINE
8
BLACK
6
CONTINUOUS
10
2.3202
20
0.495079
11
2.32246
21
0.494629
0
LINE
8
BLACK
6
CONTINUOUS
10
3.29114
20
0.494213
11
3.23114
21
0.494213
0
LINE
8
BLACK
6
CONTINUOUS
10
3.23114
20
0.494213
11
3.23114
21
0.554213
0
LINE
8
BLACK
6
CONTINUOUS
10
3.23114
20
0.554213
11
3.29114
21
0.554213
0
LINE
8
BLACK
6
CONTINUOUS
10
3.29114
20
0.554213
11
3.29114
21
0.494213
0
LINE
8
BLACK
6
CONTINUOUS
10
3.39114
20
0.494213
11
3.33114
21
0.494213
0
LINE
8
BLACK
6
CONTINUOUS
10
3.33114
20
0.494213
11
3.33114
21
0.554213
0
LINE
8
BLACK
6
CONTINUOUS
10
3.33114
20
0.554213
11
3.39114
21
0.554213
0
LINE
8
BLACK
6
CONTINUOUS
10
3.39114
20
0.554213
11
3.39114
21
0.494213
0
LINE
8
BLACK
6
CONTINUOUS
10
2.43634
20
0.5
11
2.38516
21
0.5
0
LINE
8
BLACK
6
CONTINUOUS
10
2.38516
20
0.5
11
2.38516
21
0.559055
0
LINE
8
BLACK
6
CONTINUOUS
10
2.38516
20
0.559055
11
2.43634
21
0.559055
0
LINE
8
BLACK
6
CONTINUOUS
10
2.43634
20
0.559055
11
2.43634
21
0.5
0
LINE
8
BLACK
6
CONTINUOUS
10
2.54264
20
0.5
11
2.49146
21
0.5
0
LINE
8
BLACK
6
CONTINUOUS
10
2.49146
20
0.5
11
2.49146
21
0.559055
0
LINE
8
BLACK
6
CONTINUOUS
10
2.49146
20
0.559055
11
2.54264
21
0.559055
0
LINE
8
BLACK
6
CONTINUOUS
10
2.54264
20
0.559055
11
2.54264
21
0.5
0
LINE
8
BLACK
6
CONTINUOUS
10
2.23289
20
0.532031
11
2.23481
21
0.530751
0
LINE
8
BLACK
6
CONTINUOUS
10
2.23481
20
0.530751
11
2.23609
21
0.528835
0
LINE
8
BLACK
6
CONTINUOUS
10
2.23609
20
0.528835
11
2.23654
21
0.526575
0
LINE
8
BLACK
6
CONTINUOUS
10
2.23654
20
0.526575
11
2.23654
21
0.514764
0
LINE
8
BLACK
6
CONTINUOUS
10
2.23654
20
0.514764
11
2.23609
21
0.512504
0
LINE
8
BLACK
6
CONTINUOUS
10
2.23609
20
0.512504
11
2.23481
21
0.510588
0
LINE
8
BLACK
6
CONTINUOUS
10
2.23481
20
0.510588
11
2.23289
21
0.509308
0
LINE
8
BLACK
6
CONTINUOUS
10
2.23289
20
0.509308
11
2.23063
21
0.508858
0
LINE
8
BLACK
6
CONTINUOUS
10
2.23063
20
0.508858
11
2.19028
21
0.508858
0
LINE
8
BLACK
6
CONTINUOUS
10
2.19028
20
0.508858
11
2.18802
21
0.509308
0
LINE
8
BLACK
6
CONTINUOUS
10
2.18802
20
0.509308
11
2.1861
21
0.510588
0
LINE
8
BLACK
6
CONTINUOUS
10
2.1861
20
0.510588
11
2.18482
21
0.512504
0
LINE
8
BLACK
6
CONTINUOUS
10
2.18482
20
0.512504
11
2.18437
21
0.514764
0
LINE
8
BLACK
6
CONTINUOUS
10
2.18437
20
0.514764
11
2.18437
21
0.526575
0
LINE
8
BLACK
6
CONTINUOUS
10
2.18437
20
0.526575
11
2.18482
21
0.528835
0
LINE
8
BLACK
6
CONTINUOUS
10
2.18482
20
0.528835
11
2.1861
21
0.530751
0
LINE
8
BLACK
6
CONTINUOUS
10
2.1861
20
0.530751
11
2.18802
21
0.532031
0
LINE
8
BLACK
6
CONTINUOUS
10
2.18802
20
0.532031
11
2.19028
21
0.53248
0
LINE
8
BLACK
6
CONTINUOUS
10
2.19028
20
0.53248
11
2.23063
21
0.53248
0
LINE
8
BLACK
6
CONTINUOUS
10
2.23063
20
0.53248
11
2.23289
21
0.532031
0
LINE
8
BLACK
6
CONTINUOUS
10
2.65287
20
0.508858
11
2.63122
21
0.508858
0
LINE
8
BLACK
6
CONTINUOUS
10
2.63122
20
0.508858
11
2.63122
21
0.509059
0
LINE
8
BLACK
6
CONTINUOUS
10
2.63122
20
0.509059
11
2.62842
21
0.509059
0
LINE
8
BLACK
6
CONTINUOUS
10
2.62842
20
0.509059
11
2.62304
21
0.510637
0
LINE
8
BLACK
6
CONTINUOUS
10
2.62304
20
0.510637
11
2.61833
21
0.513666
0
LINE
8
BLACK
6
CONTINUOUS
10
2.61833
20
0.513666
11
2.61466
21
0.517901
0
LINE
8
BLACK
6
CONTINUOUS
10
2.61466
20
0.517901
11
2.61233
21
0.522997
0
LINE
8
BLACK
6
CONTINUOUS
10
2.61233
20
0.522997
11
2.61154
21
0.528543
0
LINE
8
BLACK
6
CONTINUOUS
10
2.61154
20
0.528543
11
2.61154
21
0.548228
0
LINE
8
BLACK
6
CONTINUOUS
10
2.61154
20
0.548228
11
2.61233
21
0.553774
0
LINE
8
BLACK
6
CONTINUOUS
10
2.61233
20
0.553774
11
2.61466
21
0.558871
0
LINE
8
BLACK
6
CONTINUOUS
10
2.61466
20
0.558871
11
2.61833
21
0.563105
0
LINE
8
BLACK
6
CONTINUOUS
10
2.61833
20
0.563105
11
2.62304
21
0.566134
0
LINE
8
BLACK
6
CONTINUOUS
10
2.62304
20
0.566134
11
2.62842
21
0.567713
0
LINE
8
BLACK
6
CONTINUOUS
10
2.62842
20
0.567713
11
2.63122
21
0.567713
0
LINE
8
BLACK
6
CONTINUOUS
10
2.63122
20
0.567713
11
2.63122
21
0.567913
0
LINE
8
BLACK
6
CONTINUOUS
10
2.63122
20
0.567913
11
2.65287
21
0.567913
0
LINE
8
BLACK
6
CONTINUOUS
10
2.65287
20
0.567913
11
2.65287
21
0.508858
0
LINE
8
BLACK
6
CONTINUOUS
10
2.70209
20
0.508858
11
2.66272
21
0.508858
0
LINE
8
BLACK
6
CONTINUOUS
10
2.66272
20
0.508858
11
2.66272
21
0.567913
0
LINE
8
BLACK
6
CONTINUOUS
10
2.66272
20
0.567913
11
2.70209
21
0.567913
0
LINE
8
BLACK
6
CONTINUOUS
10
2.70209
20
0.567913
11
2.70209
21
0.508858
0
LINE
8
BLACK
6
CONTINUOUS
10
2.73358
20
0.567713
11
2.73638
21
0.567713
0
LINE
8
BLACK
6
CONTINUOUS
10
2.73638
20
0.567713
11
2.74176
21
0.566134
0
LINE
8
BLACK
6
CONTINUOUS
10
2.74176
20
0.566134
11
2.74647
21
0.563105
0
LINE
8
BLACK
6
CONTINUOUS
10
2.74647
20
0.563105
11
2.75014
21
0.558871
0
LINE
8
BLACK
6
CONTINUOUS
10
2.75014
20
0.558871
11
2.75247
21
0.553774
0
LINE
8
BLACK
6
CONTINUOUS
10
2.75247
20
0.553774
11
2.75327
21
0.548228
0
LINE
8
BLACK
6
CONTINUOUS
10
2.75327
20
0.548228
11
2.75327
21
0.528543
0
LINE
8
BLACK
6
CONTINUOUS
10
2.75327
20
0.528543
11
2.75247
21
0.522997
0
LINE
8
BLACK
6
CONTINUOUS
10
2.75247
20
0.522997
11
2.75014
21
0.517901
0
LINE
8
BLACK
6
CONTINUOUS
10
2.75014
20
0.517901
11
2.74647
21
0.513666
0
LINE
8
BLACK
6
CONTINUOUS
10
2.74647
20
0.513666
11
2.74176
21
0.510637
0
LINE
8
BLACK
6
CONTINUOUS
10
2.74176
20
0.510637
11
2.73638
21
0.509059
0
LINE
8
BLACK
6
CONTINUOUS
10
2.73638
20
0.509059
11
2.73358
21
0.509059
0
LINE
8
BLACK
6
CONTINUOUS
10
2.73358
20
0.509059
11
2.73358
21
0.508858
0
LINE
8
BLACK
6
CONTINUOUS
10
2.73358
20
0.508858
11
2.71193
21
0.508858
0
LINE
8
BLACK
6
CONTINUOUS
10
2.71193
20
0.508858
11
2.71193
21
0.567913
0
LINE
8
BLACK
6
CONTINUOUS
10
2.71193
20
0.567913
11
2.73358
21
0.567913
0
LINE
8
BLACK
6
CONTINUOUS
10
2.73358
20
0.567913
11
2.73358
21
0.567713
0
LINE
8
BLACK
6
CONTINUOUS
10
2.23289
20
0.569432
11
2.23481
21
0.568152
0
LINE
8
BLACK
6
CONTINUOUS
10
2.23481
20
0.568152
11
2.23609
21
0.566236
0
LINE
8
BLACK
6
CONTINUOUS
10
2.23609
20
0.566236
11
2.23654
21
0.563976
0
LINE
8
BLACK
6
CONTINUOUS
10
2.23654
20
0.563976
11
2.23654
21
0.552165
0
LINE
8
BLACK
6
CONTINUOUS
10
2.23654
20
0.552165
11
2.23609
21
0.549905
0
LINE
8
BLACK
6
CONTINUOUS
10
2.23609
20
0.549905
11
2.23481
21
0.54799
0
LINE
8
BLACK
6
CONTINUOUS
10
2.23481
20
0.54799
11
2.23289
21
0.546709
0
LINE
8
BLACK
6
CONTINUOUS
10
2.23289
20
0.546709
11
2.23063
21
0.54626
0
LINE
8
BLACK
6
CONTINUOUS
10
2.23063
20
0.54626
11
2.19028
21
0.54626
0
LINE
8
BLACK
6
CONTINUOUS
10
2.19028
20
0.54626
11
2.18802
21
0.546709
0
LINE
8
BLACK
6
CONTINUOUS
10
2.18802
20
0.546709
11
2.1861
21
0.54799
0
LINE
8
BLACK
6
CONTINUOUS
10
2.1861
20
0.54799
11
2.18482
21
0.549905
0
LINE
8
BLACK
6
CONTINUOUS
10
2.18482
20
0.549905
11
2.18437
21
0.552165
0
LINE
8
BLACK
6
CONTINUOUS
10
2.18437
20
0.552165
11
2.18437
21
0.563976
0
LINE
8
BLACK
6
CONTINUOUS
10
2.18437
20
0.563976
11
2.18482
21
0.566236
0
LINE
8
BLACK
6
CONTINUOUS
10
2.18482
20
0.566236
11
2.1861
21
0.568152
0
LINE
8
BLACK
6
CONTINUOUS
10
2.1861
20
0.568152
11
2.18802
21
0.569432
0
LINE
8
BLACK
6
CONTINUOUS
10
2.18802
20
0.569432
11
2.19028
21
0.569882
0
LINE
8
BLACK
6
CONTINUOUS
10
2.19028
20
0.569882
11
2.23063
21
0.569882
0
LINE
8
BLACK
6
CONTINUOUS
10
2.23063
20
0.569882
11
2.23289
21
0.569432
0
LINE
8
BLACK
6
CONTINUOUS
10
2.32246
20
0.569432
11
2.32437
21
0.568152
0
LINE
8
BLACK
6
CONTINUOUS
10
2.32437
20
0.568152
11
2.32565
21
0.566236
0
LINE
8
BLACK
6
CONTINUOUS
10
2.32565
20
0.566236
11
2.3261
21
0.563976
0
LINE
8
BLACK
6
CONTINUOUS
10
2.3261
20
0.563976
11
2.3261
21
0.552165
0
LINE
8
BLACK
6
CONTINUOUS
10
2.3261
20
0.552165
11
2.32565
21
0.549905
0
LINE
8
BLACK
6
CONTINUOUS
10
2.32565
20
0.549905
11
2.32437
21
0.54799
0
LINE
8
BLACK
6
CONTINUOUS
10
2.32437
20
0.54799
11
2.32246
21
0.546709
0
LINE
8
BLACK
6
CONTINUOUS
10
2.32246
20
0.546709
11
2.3202
21
0.54626
0
LINE
8
BLACK
6
CONTINUOUS
10
2.3202
20
0.54626
11
2.27984
21
0.54626
0
LINE
8
BLACK
6
CONTINUOUS
10
2.27984
20
0.54626
11
2.27758
21
0.546709
0
LINE
8
BLACK
6
CONTINUOUS
10
2.27758
20
0.546709
11
2.27567
21
0.54799
0
LINE
8
BLACK
6
CONTINUOUS
10
2.27567
20
0.54799
11
2.27439
21
0.549905
0
LINE
8
BLACK
6
CONTINUOUS
10
2.27439
20
0.549905
11
2.27394
21
0.552165
0
LINE
8
BLACK
6
CONTINUOUS
10
2.27394
20
0.552165
11
2.27394
21
0.563976
0
LINE
8
BLACK
6
CONTINUOUS
10
2.27394
20
0.563976
11
2.27439
21
0.566236
0
LINE
8
BLACK
6
CONTINUOUS
10
2.27439
20
0.566236
11
2.27567
21
0.568152
0
LINE
8
BLACK
6
CONTINUOUS
10
2.27567
20
0.568152
11
2.27758
21
0.569432
0
LINE
8
BLACK
6
CONTINUOUS
10
2.27758
20
0.569432
11
2.27984
21
0.569882
0
LINE
8
BLACK
6
CONTINUOUS
10
2.27984
20
0.569882
11
2.3202
21
0.569882
0
LINE
8
BLACK
6
CONTINUOUS
10
2.3202
20
0.569882
11
2.32246
21
0.569432
0
LINE
8
BLACK
6
CONTINUOUS
10
3.00703
20
0.624448
11
3.01023
21
0.622314
0
LINE
8
BLACK
6
CONTINUOUS
10
3.01023
20
0.622314
11
3.01236
21
0.619121
0
LINE
8
BLACK
6
CONTINUOUS
10
3.01236
20
0.619121
11
3.01311
21
0.615354
0
LINE
8
BLACK
6
CONTINUOUS
10
3.01311
20
0.615354
11
3.01311
21
0.577953
0
LINE
8
BLACK
6
CONTINUOUS
10
3.01311
20
0.577953
11
3.01236
21
0.574186
0
LINE
8
BLACK
6
CONTINUOUS
10
3.01236
20
0.574186
11
3.01023
21
0.570993
0
LINE
8
BLACK
6
CONTINUOUS
10
3.01023
20
0.570993
11
3.00703
21
0.568859
0
LINE
8
BLACK
6
CONTINUOUS
10
3.00703
20
0.568859
11
3.00327
21
0.56811
0
LINE
8
BLACK
6
CONTINUOUS
10
3.00327
20
0.56811
11
2.98358
21
0.56811
0
LINE
8
BLACK
6
CONTINUOUS
10
2.98358
20
0.56811
11
2.97982
21
0.568859
0
LINE
8
BLACK
6
CONTINUOUS
10
2.97982
20
0.568859
11
2.97662
21
0.570993
0
LINE
8
BLACK
6
CONTINUOUS
10
2.97662
20
0.570993
11
2.97449
21
0.574186
0
LINE
8
BLACK
6
CONTINUOUS
10
2.97449
20
0.574186
11
2.97374
21
0.577953
0
LINE
8
BLACK
6
CONTINUOUS
10
2.97374
20
0.577953
11
2.97374
21
0.615354
0
LINE
8
BLACK
6
CONTINUOUS
10
2.97374
20
0.615354
11
2.97449
21
0.619121
0
LINE
8
BLACK
6
CONTINUOUS
10
2.97449
20
0.619121
11
2.97662
21
0.622314
0
LINE
8
BLACK
6
CONTINUOUS
10
2.97662
20
0.622314
11
2.97982
21
0.624448
0
LINE
8
BLACK
6
CONTINUOUS
10
2.97982
20
0.624448
11
2.98358
21
0.625197
0
LINE
8
BLACK
6
CONTINUOUS
10
2.98358
20
0.625197
11
3.00327
21
0.625197
0
LINE
8
BLACK
6
CONTINUOUS
10
3.00327
20
0.625197
11
3.00703
21
0.624448
0
LINE
8
BLACK
6
CONTINUOUS
10
3.08184
20
0.624448
11
3.08503
21
0.622314
0
LINE
8
BLACK
6
CONTINUOUS
10
3.08503
20
0.622314
11
3.08716
21
0.619121
0
LINE
8
BLACK
6
CONTINUOUS
10
3.08716
20
0.619121
11
3.08791
21
0.615354
0
LINE
8
BLACK
6
CONTINUOUS
10
3.08791
20
0.615354
11
3.08791
21
0.577953
0
LINE
8
BLACK
6
CONTINUOUS
10
3.08791
20
0.577953
11
3.08716
21
0.574186
0
LINE
8
BLACK
6
CONTINUOUS
10
3.08716
20
0.574186
11
3.08503
21
0.570993
0
LINE
8
BLACK
6
CONTINUOUS
10
3.08503
20
0.570993
11
3.08184
21
0.568859
0
LINE
8
BLACK
6
CONTINUOUS
10
3.08184
20
0.568859
11
3.07807
21
0.56811
0
LINE
8
BLACK
6
CONTINUOUS
10
3.07807
20
0.56811
11
3.05839
21
0.56811
0
LINE
8
BLACK
6
CONTINUOUS
10
3.05839
20
0.56811
11
3.05462
21
0.568859
0
LINE
8
BLACK
6
CONTINUOUS
10
3.05462
20
0.568859
11
3.05143
21
0.570993
0
LINE
8
BLACK
6
CONTINUOUS
10
3.05143
20
0.570993
11
3.04929
21
0.574186
0
LINE
8
BLACK
6
CONTINUOUS
10
3.04929
20
0.574186
11
3.04854
21
0.577953
0
LINE
8
BLACK
6
CONTINUOUS
10
3.04854
20
0.577953
11
3.04854
21
0.615354
0
LINE
8
BLACK
6
CONTINUOUS
10
3.04854
20
0.615354
11
3.04929
21
0.619121
0
LINE
8
BLACK
6
CONTINUOUS
10
3.04929
20
0.619121
11
3.05143
21
0.622314
0
LINE
8
BLACK
6
CONTINUOUS
10
3.05143
20
0.622314
11
3.05462
21
0.624448
0
LINE
8
BLACK
6
CONTINUOUS
10
3.05462
20
0.624448
11
3.05839
21
0.625197
0
LINE
8
BLACK
6
CONTINUOUS
10
3.05839
20
0.625197
11
3.07807
21
0.625197
0
LINE
8
BLACK
6
CONTINUOUS
10
3.07807
20
0.625197
11
3.08184
21
0.624448
0
LINE
8
BLACK
6
CONTINUOUS
10
3.27324
20
0.658409
11
3.27516
21
0.657129
0
LINE
8
BLACK
6
CONTINUOUS
10
3.27516
20
0.657129
11
3.27644
21
0.655213
0
LINE
8
BLACK
6
CONTINUOUS
10
3.27644
20
0.655213
11
3.27689
21
0.652953
0
LINE
8
BLACK
6
CONTINUOUS
10
3.27689
20
0.652953
11
3.27689
21
0.641142
0
LINE
8
BLACK
6
CONTINUOUS
10
3.27689
20
0.641142
11
3.27644
21
0.638882
0
LINE
8
BLACK
6
CONTINUOUS
10
3.27644
20
0.638882
11
3.27516
21
0.636966
0
LINE
8
BLACK
6
CONTINUOUS
10
3.27516
20
0.636966
11
3.27324
21
0.635686
0
LINE
8
BLACK
6
CONTINUOUS
10
3.27324
20
0.635686
11
3.27098
21
0.635236
0
LINE
8
BLACK
6
CONTINUOUS
10
3.27098
20
0.635236
11
3.22472
21
0.635236
0
LINE
8
BLACK
6
CONTINUOUS
10
3.22472
20
0.635236
11
3.22246
21
0.635686
0
LINE
8
BLACK
6
CONTINUOUS
10
3.22246
20
0.635686
11
3.22055
21
0.636966
0
LINE
8
BLACK
6
CONTINUOUS
10
3.22055
20
0.636966
11
3.21927
21
0.638882
0
LINE
8
BLACK
6
CONTINUOUS
10
3.21927
20
0.638882
11
3.21882
21
0.641142
0
LINE
8
BLACK
6
CONTINUOUS
10
3.21882
20
0.641142
11
3.21882
21
0.652953
0
LINE
8
BLACK
6
CONTINUOUS
10
3.21882
20
0.652953
11
3.21927
21
0.655213
0
LINE
8
BLACK
6
CONTINUOUS
10
3.21927
20
0.655213
11
3.22055
21
0.657129
0
LINE
8
BLACK
6
CONTINUOUS
10
3.22055
20
0.657129
11
3.22246
21
0.658409
0
LINE
8
BLACK
6
CONTINUOUS
10
3.22246
20
0.658409
11
3.22472
21
0.658858
0
LINE
8
BLACK
6
CONTINUOUS
10
3.22472
20
0.658858
11
3.27098
21
0.658858
0
LINE
8
BLACK
6
CONTINUOUS
10
3.27098
20
0.658858
11
3.27324
21
0.658409
0
LINE
8
BLACK
6
CONTINUOUS
10
2.21453
20
0.675704
11
2.21741
21
0.673783
0
LINE
8
BLACK
6
CONTINUOUS
10
2.21741
20
0.673783
11
2.21933
21
0.67091
0
LINE
8
BLACK
6
CONTINUOUS
10
2.21933
20
0.67091
11
2.22
21
0.66752
0
LINE
8
BLACK
6
CONTINUOUS
10
2.22
20
0.66752
11
2.22
21
0.647835
0
LINE
8
BLACK
6
CONTINUOUS
10
2.22
20
0.647835
11
2.21933
21
0.644445
0
LINE
8
BLACK
6
CONTINUOUS
10
2.21933
20
0.644445
11
2.21741
21
0.641571
0
LINE
8
BLACK
6
CONTINUOUS
10
2.21741
20
0.641571
11
2.21453
21
0.639651
0
LINE
8
BLACK
6
CONTINUOUS
10
2.21453
20
0.639651
11
2.21114
21
0.638976
0
LINE
8
BLACK
6
CONTINUOUS
10
2.21114
20
0.638976
11
2.19343
21
0.638976
0
LINE
8
BLACK
6
CONTINUOUS
10
2.19343
20
0.638976
11
2.19004
21
0.639651
0
LINE
8
BLACK
6
CONTINUOUS
10
2.19004
20
0.639651
11
2.18716
21
0.641571
0
LINE
8
BLACK
6
CONTINUOUS
10
2.18716
20
0.641571
11
2.18524
21
0.644445
0
LINE
8
BLACK
6
CONTINUOUS
10
2.18524
20
0.644445
11
2.18457
21
0.647835
0
LINE
8
BLACK
6
CONTINUOUS
10
2.18457
20
0.647835
11
2.18457
21
0.66752
0
LINE
8
BLACK
6
CONTINUOUS
10
2.18457
20
0.66752
11
2.18524
21
0.67091
0
LINE
8
BLACK
6
CONTINUOUS
10
2.18524
20
0.67091
11
2.18716
21
0.673783
0
LINE
8
BLACK
6
CONTINUOUS
10
2.18716
20
0.673783
11
2.19004
21
0.675704
0
LINE
8
BLACK
6
CONTINUOUS
10
2.19004
20
0.675704
11
2.19343
21
0.676378
0
LINE
8
BLACK
6
CONTINUOUS
10
2.19343
20
0.676378
11
2.21114
21
0.676378
0
LINE
8
BLACK
6
CONTINUOUS
10
2.21114
20
0.676378
11
2.21453
21
0.675704
0
LINE
8
BLACK
6
CONTINUOUS
10
2.27556
20
0.675704
11
2.27843
21
0.673783
0
LINE
8
BLACK
6
CONTINUOUS
10
2.27843
20
0.673783
11
2.28035
21
0.67091
0
LINE
8
BLACK
6
CONTINUOUS
10
2.28035
20
0.67091
11
2.28102
21
0.66752
0
LINE
8
BLACK
6
CONTINUOUS
10
2.28102
20
0.66752
11
2.28102
21
0.647835
0
LINE
8
BLACK
6
CONTINUOUS
10
2.28102
20
0.647835
11
2.28035
21
0.644445
0
LINE
8
BLACK
6
CONTINUOUS
10
2.28035
20
0.644445
11
2.27843
21
0.641571
0
LINE
8
BLACK
6
CONTINUOUS
10
2.27843
20
0.641571
11
2.27556
21
0.639651
0
LINE
8
BLACK
6
CONTINUOUS
10
2.27556
20
0.639651
11
2.27217
21
0.638976
0
LINE
8
BLACK
6
CONTINUOUS
10
2.27217
20
0.638976
11
2.25445
21
0.638976
0
LINE
8
BLACK
6
CONTINUOUS
10
2.25445
20
0.638976
11
2.25106
21
0.639651
0
LINE
8
BLACK
6
CONTINUOUS
10
2.25106
20
0.639651
11
2.24819
21
0.641571
0
LINE
8
BLACK
6
CONTINUOUS
10
2.24819
20
0.641571
11
2.24626
21
0.644445
0
LINE
8
BLACK
6
CONTINUOUS
10
2.24626
20
0.644445
11
2.24559
21
0.647835
0
LINE
8
BLACK
6
CONTINUOUS
10
2.24559
20
0.647835
11
2.24559
21
0.66752
0
LINE
8
BLACK
6
CONTINUOUS
10
2.24559
20
0.66752
11
2.24626
21
0.67091
0
LINE
8
BLACK
6
CONTINUOUS
10
2.24626
20
0.67091
11
2.24819
21
0.673783
0
LINE
8
BLACK
6
CONTINUOUS
10
2.24819
20
0.673783
11
2.25106
21
0.675704
0
LINE
8
BLACK
6
CONTINUOUS
10
2.25106
20
0.675704
11
2.25445
21
0.676378
0
LINE
8
BLACK
6
CONTINUOUS
10
2.25445
20
0.676378
11
2.27217
21
0.676378
0
LINE
8
BLACK
6
CONTINUOUS
10
2.27217
20
0.676378
11
2.27556
21
0.675704
0
LINE
8
BLACK
6
CONTINUOUS
10
2.37241
20
0.675704
11
2.37528
21
0.673783
0
LINE
8
BLACK
6
CONTINUOUS
10
2.37528
20
0.673783
11
2.3772
21
0.67091
0
LINE
8
BLACK
6
CONTINUOUS
10
2.3772
20
0.67091
11
2.37787
21
0.66752
0
LINE
8
BLACK
6
CONTINUOUS
10
2.37787
20
0.66752
11
2.37787
21
0.647835
0
LINE
8
BLACK
6
CONTINUOUS
10
2.37787
20
0.647835
11
2.3772
21
0.644445
0
LINE
8
BLACK
6
CONTINUOUS
10
2.3772
20
0.644445
11
2.37528
21
0.641571
0
LINE
8
BLACK
6
CONTINUOUS
10
2.37528
20
0.641571
11
2.37241
21
0.639651
0
LINE
8
BLACK
6
CONTINUOUS
10
2.37241
20
0.639651
11
2.36902
21
0.638976
0
LINE
8
BLACK
6
CONTINUOUS
10
2.36902
20
0.638976
11
2.3513
21
0.638976
0
LINE
8
BLACK
6
CONTINUOUS
10
2.3513
20
0.638976
11
2.34791
21
0.639651
0
LINE
8
BLACK
6
CONTINUOUS
10
2.34791
20
0.639651
11
2.34504
21
0.641571
0
LINE
8
BLACK
6
CONTINUOUS
10
2.34504
20
0.641571
11
2.34312
21
0.644445
0
LINE
8
BLACK
6
CONTINUOUS
10
2.34312
20
0.644445
11
2.34244
21
0.647835
0
LINE
8
BLACK
6
CONTINUOUS
10
2.34244
20
0.647835
11
2.34244
21
0.66752
0
LINE
8
BLACK
6
CONTINUOUS
10
2.34244
20
0.66752
11
2.34312
21
0.67091
0
LINE
8
BLACK
6
CONTINUOUS
10
2.34312
20
0.67091
11
2.34504
21
0.673783
0
LINE
8
BLACK
6
CONTINUOUS
10
2.34504
20
0.673783
11
2.34791
21
0.675704
0
LINE
8
BLACK
6
CONTINUOUS
10
2.34791
20
0.675704
11
2.3513
21
0.676378
0
LINE
8
BLACK
6
CONTINUOUS
10
2.3513
20
0.676378
11
2.36902
21
0.676378
0
LINE
8
BLACK
6
CONTINUOUS
10
2.36902
20
0.676378
11
2.37241
21
0.675704
0
LINE
8
BLACK
6
CONTINUOUS
10
2.43343
20
0.675704
11
2.4363
21
0.673783
0
LINE
8
BLACK
6
CONTINUOUS
10
2.4363
20
0.673783
11
2.43822
21
0.67091
0
LINE
8
BLACK
6
CONTINUOUS
10
2.43822
20
0.67091
11
2.4389
21
0.66752
0
LINE
8
BLACK
6
CONTINUOUS
10
2.4389
20
0.66752
11
2.4389
21
0.647835
0
LINE
8
BLACK
6
CONTINUOUS
10
2.4389
20
0.647835
11
2.43822
21
0.644445
0
LINE
8
BLACK
6
CONTINUOUS
10
2.43822
20
0.644445
11
2.4363
21
0.641571
0
LINE
8
BLACK
6
CONTINUOUS
10
2.4363
20
0.641571
11
2.43343
21
0.639651
0
LINE
8
BLACK
6
CONTINUOUS
10
2.43343
20
0.639651
11
2.43004
21
0.638976
0
LINE
8
BLACK
6
CONTINUOUS
10
2.43004
20
0.638976
11
2.41232
21
0.638976
0
LINE
8
BLACK
6
CONTINUOUS
10
2.41232
20
0.638976
11
2.40893
21
0.639651
0
LINE
8
BLACK
6
CONTINUOUS
10
2.40893
20
0.639651
11
2.40606
21
0.641571
0
LINE
8
BLACK
6
CONTINUOUS
10
2.40606
20
0.641571
11
2.40414
21
0.644445
0
LINE
8
BLACK
6
CONTINUOUS
10
2.40414
20
0.644445
11
2.40346
21
0.647835
0
LINE
8
BLACK
6
CONTINUOUS
10
2.40346
20
0.647835
11
2.40346
21
0.66752
0
LINE
8
BLACK
6
CONTINUOUS
10
2.40346
20
0.66752
11
2.40414
21
0.67091
0
LINE
8
BLACK
6
CONTINUOUS
10
2.40414
20
0.67091
11
2.40606
21
0.673783
0
LINE
8
BLACK
6
CONTINUOUS
10
2.40606
20
0.673783
11
2.40893
21
0.675704
0
LINE
8
BLACK
6
CONTINUOUS
10
2.40893
20
0.675704
11
2.41232
21
0.676378
0
LINE
8
BLACK
6
CONTINUOUS
10
2.41232
20
0.676378
11
2.43004
21
0.676378
0
LINE
8
BLACK
6
CONTINUOUS
10
2.43004
20
0.676378
11
2.43343
21
0.675704
0
LINE
8
BLACK
6
CONTINUOUS
10
2.53028
20
0.675704
11
2.53315
21
0.673783
0
LINE
8
BLACK
6
CONTINUOUS
10
2.53315
20
0.673783
11
2.53507
21
0.67091
0
LINE
8
BLACK
6
CONTINUOUS
10
2.53507
20
0.67091
11
2.53575
21
0.66752
0
LINE
8
BLACK
6
CONTINUOUS
10
2.53575
20
0.66752
11
2.53575
21
0.647835
0
LINE
8
BLACK
6
CONTINUOUS
10
2.53575
20
0.647835
11
2.53507
21
0.644445
0
LINE
8
BLACK
6
CONTINUOUS
10
2.53507
20
0.644445
11
2.53315
21
0.641571
0
LINE
8
BLACK
6
CONTINUOUS
10
2.53315
20
0.641571
11
2.53028
21
0.639651
0
LINE
8
BLACK
6
CONTINUOUS
10
2.53028
20
0.639651
11
2.52689
21
0.638976
0
LINE
8
BLACK
6
CONTINUOUS
10
2.52689
20
0.638976
11
2.50917
21
0.638976
0
LINE
8
BLACK
6
CONTINUOUS
10
2.50917
20
0.638976
11
2.50578
21
0.639651
0
LINE
8
BLACK
6
CONTINUOUS
10
2.50578
20
0.639651
11
2.50291
21
0.641571
0
LINE
8
BLACK
6
CONTINUOUS
10
2.50291
20
0.641571
11
2.50099
21
0.644445
0
LINE
8
BLACK
6
CONTINUOUS
10
2.50099
20
0.644445
11
2.50031
21
0.647835
0
LINE
8
BLACK
6
CONTINUOUS
10
2.50031
20
0.647835
11
2.50031
21
0.66752
0
LINE
8
BLACK
6
CONTINUOUS
10
2.50031
20
0.66752
11
2.50099
21
0.67091
0
LINE
8
BLACK
6
CONTINUOUS
10
2.50099
20
0.67091
11
2.50291
21
0.673783
0
LINE
8
BLACK
6
CONTINUOUS
10
2.50291
20
0.673783
11
2.50578
21
0.675704
0
LINE
8
BLACK
6
CONTINUOUS
10
2.50578
20
0.675704
11
2.50917
21
0.676378
0
LINE
8
BLACK
6
CONTINUOUS
10
2.50917
20
0.676378
11
2.52689
21
0.676378
0
LINE
8
BLACK
6
CONTINUOUS
10
2.52689
20
0.676378
11
2.53028
21
0.675704
0
LINE
8
BLACK
6
CONTINUOUS
10
2.5913
20
0.675704
11
2.59418
21
0.673783
0
LINE
8
BLACK
6
CONTINUOUS
10
2.59418
20
0.673783
11
2.5961
21
0.67091
0
LINE
8
BLACK
6
CONTINUOUS
10
2.5961
20
0.67091
11
2.59677
21
0.66752
0
LINE
8
BLACK
6
CONTINUOUS
10
2.59677
20
0.66752
11
2.59677
21
0.647835
0
LINE
8
BLACK
6
CONTINUOUS
10
2.59677
20
0.647835
11
2.5961
21
0.644445
0
LINE
8
BLACK
6
CONTINUOUS
10
2.5961
20
0.644445
11
2.59418
21
0.641571
0
LINE
8
BLACK
6
CONTINUOUS
10
2.59418
20
0.641571
11
2.5913
21
0.639651
0
LINE
8
BLACK
6
CONTINUOUS
10
2.5913
20
0.639651
11
2.58791
21
0.638976
0
LINE
8
BLACK
6
CONTINUOUS
10
2.58791
20
0.638976
11
2.5702
21
0.638976
0
LINE
8
BLACK
6
CONTINUOUS
10
2.5702
20
0.638976
11
2.56681
21
0.639651
0
LINE
8
BLACK
6
CONTINUOUS
10
2.56681
20
0.639651
11
2.56393
21
0.641571
0
LINE
8
BLACK
6
CONTINUOUS
10
2.56393
20
0.641571
11
2.56201
21
0.644445
0
LINE
8
BLACK
6
CONTINUOUS
10
2.56201
20
0.644445
11
2.56134
21
0.647835
0
LINE
8
BLACK
6
CONTINUOUS
10
2.56134
20
0.647835
11
2.56134
21
0.66752
0
LINE
8
BLACK
6
CONTINUOUS
10
2.56134
20
0.66752
11
2.56201
21
0.67091
0
LINE
8
BLACK
6
CONTINUOUS
10
2.56201
20
0.67091
11
2.56393
21
0.673783
0
LINE
8
BLACK
6
CONTINUOUS
10
2.56393
20
0.673783
11
2.56681
21
0.675704
0
LINE
8
BLACK
6
CONTINUOUS
10
2.56681
20
0.675704
11
2.5702
21
0.676378
0
LINE
8
BLACK
6
CONTINUOUS
10
2.5702
20
0.676378
11
2.58791
21
0.676378
0
LINE
8
BLACK
6
CONTINUOUS
10
2.58791
20
0.676378
11
2.5913
21
0.675704
0
LINE
8
BLACK
6
CONTINUOUS
10
2.68482
20
0.675779
11
2.68738
21
0.674072
0
LINE
8
BLACK
6
CONTINUOUS
10
2.68738
20
0.674072
11
2.68909
21
0.671517
0
LINE
8
BLACK
6
CONTINUOUS
10
2.68909
20
0.671517
11
2.68969
21
0.668504
0
LINE
8
BLACK
6
CONTINUOUS
10
2.68969
20
0.668504
11
2.68969
21
0.64685
0
LINE
8
BLACK
6
CONTINUOUS
10
2.68969
20
0.64685
11
2.68909
21
0.643837
0
LINE
8
BLACK
6
CONTINUOUS
10
2.68909
20
0.643837
11
2.68738
21
0.641283
0
LINE
8
BLACK
6
CONTINUOUS
10
2.68738
20
0.641283
11
2.68482
21
0.639576
0
LINE
8
BLACK
6
CONTINUOUS
10
2.68482
20
0.639576
11
2.68181
21
0.638976
0
LINE
8
BLACK
6
CONTINUOUS
10
2.68181
20
0.638976
11
2.66606
21
0.638976
0
LINE
8
BLACK
6
CONTINUOUS
10
2.66606
20
0.638976
11
2.66305
21
0.639576
0
LINE
8
BLACK
6
CONTINUOUS
10
2.66305
20
0.639576
11
2.6605
21
0.641283
0
LINE
8
BLACK
6
CONTINUOUS
10
2.6605
20
0.641283
11
2.65879
21
0.643837
0
LINE
8
BLACK
6
CONTINUOUS
10
2.65879
20
0.643837
11
2.65819
21
0.64685
0
LINE
8
BLACK
6
CONTINUOUS
10
2.65819
20
0.64685
11
2.65819
21
0.668504
0
LINE
8
BLACK
6
CONTINUOUS
10
2.65819
20
0.668504
11
2.65879
21
0.671517
0
LINE
8
BLACK
6
CONTINUOUS
10
2.65879
20
0.671517
11
2.6605
21
0.674072
0
LINE
8
BLACK
6
CONTINUOUS
10
2.6605
20
0.674072
11
2.66305
21
0.675779
0
LINE
8
BLACK
6
CONTINUOUS
10
2.66305
20
0.675779
11
2.66606
21
0.676378
0
LINE
8
BLACK
6
CONTINUOUS
10
2.66606
20
0.676378
11
2.68181
21
0.676378
0
LINE
8
BLACK
6
CONTINUOUS
10
2.68181
20
0.676378
11
2.68482
21
0.675779
0
LINE
8
BLACK
6
CONTINUOUS
10
2.74978
20
0.675779
11
2.75234
21
0.674072
0
LINE
8
BLACK
6
CONTINUOUS
10
2.75234
20
0.674072
11
2.75405
21
0.671517
0
LINE
8
BLACK
6
CONTINUOUS
10
2.75405
20
0.671517
11
2.75465
21
0.668504
0
LINE
8
BLACK
6
CONTINUOUS
10
2.75465
20
0.668504
11
2.75465
21
0.64685
0
LINE
8
BLACK
6
CONTINUOUS
10
2.75465
20
0.64685
11
2.75405
21
0.643837
0
LINE
8
BLACK
6
CONTINUOUS
10
2.75405
20
0.643837
11
2.75234
21
0.641283
0
LINE
8
BLACK
6
CONTINUOUS
10
2.75234
20
0.641283
11
2.74978
21
0.639576
0
LINE
8
BLACK
6
CONTINUOUS
10
2.74978
20
0.639576
11
2.74677
21
0.638976
0
LINE
8
BLACK
6
CONTINUOUS
10
2.74677
20
0.638976
11
2.73102
21
0.638976
0
LINE
8
BLACK
6
CONTINUOUS
10
2.73102
20
0.638976
11
2.72801
21
0.639576
0
LINE
8
BLACK
6
CONTINUOUS
10
2.72801
20
0.639576
11
2.72546
21
0.641283
0
LINE
8
BLACK
6
CONTINUOUS
10
2.72546
20
0.641283
11
2.72375
21
0.643837
0
LINE
8
BLACK
6
CONTINUOUS
10
2.72375
20
0.643837
11
2.72315
21
0.64685
0
LINE
8
BLACK
6
CONTINUOUS
10
2.72315
20
0.64685
11
2.72315
21
0.668504
0
LINE
8
BLACK
6
CONTINUOUS
10
2.72315
20
0.668504
11
2.72375
21
0.671517
0
LINE
8
BLACK
6
CONTINUOUS
10
2.72375
20
0.671517
11
2.72546
21
0.674072
0
LINE
8
BLACK
6
CONTINUOUS
10
2.72546
20
0.674072
11
2.72801
21
0.675779
0
LINE
8
BLACK
6
CONTINUOUS
10
2.72801
20
0.675779
11
2.73102
21
0.676378
0
LINE
8
BLACK
6
CONTINUOUS
10
2.73102
20
0.676378
11
2.74677
21
0.676378
0
LINE
8
BLACK
6
CONTINUOUS
10
2.74677
20
0.676378
11
2.74978
21
0.675779
0
LINE
8
BLACK
6
CONTINUOUS
10
2.8427
20
0.675779
11
2.84525
21
0.674072
0
LINE
8
BLACK
6
CONTINUOUS
10
2.84525
20
0.674072
11
2.84696
21
0.671517
0
LINE
8
BLACK
6
CONTINUOUS
10
2.84696
20
0.671517
11
2.84756
21
0.668504
0
LINE
8
BLACK
6
CONTINUOUS
10
2.84756
20
0.668504
11
2.84756
21
0.64685
0
LINE
8
BLACK
6
CONTINUOUS
10
2.84756
20
0.64685
11
2.84696
21
0.643837
0
LINE
8
BLACK
6
CONTINUOUS
10
2.84696
20
0.643837
11
2.84525
21
0.641283
0
LINE
8
BLACK
6
CONTINUOUS
10
2.84525
20
0.641283
11
2.8427
21
0.639576
0
LINE
8
BLACK
6
CONTINUOUS
10
2.8427
20
0.639576
11
2.83969
21
0.638976
0
LINE
8
BLACK
6
CONTINUOUS
10
2.83969
20
0.638976
11
2.82394
21
0.638976
0
LINE
8
BLACK
6
CONTINUOUS
10
2.82394
20
0.638976
11
2.82092
21
0.639576
0
LINE
8
BLACK
6
CONTINUOUS
10
2.82092
20
0.639576
11
2.81837
21
0.641283
0
LINE
8
BLACK
6
CONTINUOUS
10
2.81837
20
0.641283
11
2.81666
21
0.643837
0
LINE
8
BLACK
6
CONTINUOUS
10
2.81666
20
0.643837
11
2.81606
21
0.64685
0
LINE
8
BLACK
6
CONTINUOUS
10
2.81606
20
0.64685
11
2.81606
21
0.668504
0
LINE
8
BLACK
6
CONTINUOUS
10
2.81606
20
0.668504
11
2.81666
21
0.671517
0
LINE
8
BLACK
6
CONTINUOUS
10
2.81666
20
0.671517
11
2.81837
21
0.674072
0
LINE
8
BLACK
6
CONTINUOUS
10
2.81837
20
0.674072
11
2.82092
21
0.675779
0
LINE
8
BLACK
6
CONTINUOUS
10
2.82092
20
0.675779
11
2.82394
21
0.676378
0
LINE
8
BLACK
6
CONTINUOUS
10
2.82394
20
0.676378
11
2.83969
21
0.676378
0
LINE
8
BLACK
6
CONTINUOUS
10
2.83969
20
0.676378
11
2.8427
21
0.675779
0
LINE
8
BLACK
6
CONTINUOUS
10
2.90766
20
0.675779
11
2.91021
21
0.674072
0
LINE
8
BLACK
6
CONTINUOUS
10
2.91021
20
0.674072
11
2.91192
21
0.671517
0
LINE
8
BLACK
6
CONTINUOUS
10
2.91192
20
0.671517
11
2.91252
21
0.668504
0
LINE
8
BLACK
6
CONTINUOUS
10
2.91252
20
0.668504
11
2.91252
21
0.64685
0
LINE
8
BLACK
6
CONTINUOUS
10
2.91252
20
0.64685
11
2.91192
21
0.643837
0
LINE
8
BLACK
6
CONTINUOUS
10
2.91192
20
0.643837
11
2.91021
21
0.641283
0
LINE
8
BLACK
6
CONTINUOUS
10
2.91021
20
0.641283
11
2.90766
21
0.639576
0
LINE
8
BLACK
6
CONTINUOUS
10
2.90766
20
0.639576
11
2.90465
21
0.638976
0
LINE
8
BLACK
6
CONTINUOUS
10
2.90465
20
0.638976
11
2.8889
21
0.638976
0
LINE
8
BLACK
6
CONTINUOUS
10
2.8889
20
0.638976
11
2.88588
21
0.639576
0
LINE
8
BLACK
6
CONTINUOUS
10
2.88588
20
0.639576
11
2.88333
21
0.641283
0
LINE
8
BLACK
6
CONTINUOUS
10
2.88333
20
0.641283
11
2.88162
21
0.643837
0
LINE
8
BLACK
6
CONTINUOUS
10
2.88162
20
0.643837
11
2.88102
21
0.64685
0
LINE
8
BLACK
6
CONTINUOUS
10
2.88102
20
0.64685
11
2.88102
21
0.668504
0
LINE
8
BLACK
6
CONTINUOUS
10
2.88102
20
0.668504
11
2.88162
21
0.671517
0
LINE
8
BLACK
6
CONTINUOUS
10
2.88162
20
0.671517
11
2.88333
21
0.674072
0
LINE
8
BLACK
6
CONTINUOUS
10
2.88333
20
0.674072
11
2.88588
21
0.675779
0
LINE
8
BLACK
6
CONTINUOUS
10
2.88588
20
0.675779
11
2.8889
21
0.676378
0
LINE
8
BLACK
6
CONTINUOUS
10
2.8889
20
0.676378
11
2.90465
21
0.676378
0
LINE
8
BLACK
6
CONTINUOUS
10
2.90465
20
0.676378
11
2.90766
21
0.675779
0
LINE
8
BLACK
6
CONTINUOUS
10
3.34706
20
0.69581
11
3.34898
21
0.69453
0
LINE
8
BLACK
6
CONTINUOUS
10
3.34898
20
0.69453
11
3.35026
21
0.692614
0
LINE
8
BLACK
6
CONTINUOUS
10
3.35026
20
0.692614
11
3.35071
21
0.690354
0
LINE
8
BLACK
6
CONTINUOUS
10
3.35071
20
0.690354
11
3.35071
21
0.678543
0
LINE
8
BLACK
6
CONTINUOUS
10
3.35071
20
0.678543
11
3.35026
21
0.676283
0
LINE
8
BLACK
6
CONTINUOUS
10
3.35026
20
0.676283
11
3.34898
21
0.674367
0
LINE
8
BLACK
6
CONTINUOUS
10
3.34898
20
0.674367
11
3.34706
21
0.673087
0
LINE
8
BLACK
6
CONTINUOUS
10
3.34706
20
0.673087
11
3.3448
21
0.672638
0
LINE
8
BLACK
6
CONTINUOUS
10
3.3448
20
0.672638
11
3.29854
21
0.672638
0
LINE
8
BLACK
6
CONTINUOUS
10
3.29854
20
0.672638
11
3.29628
21
0.673087
0
LINE
8
BLACK
6
CONTINUOUS
10
3.29628
20
0.673087
11
3.29437
21
0.674367
0
LINE
8
BLACK
6
CONTINUOUS
10
3.29437
20
0.674367
11
3.29309
21
0.676283
0
LINE
8
BLACK
6
CONTINUOUS
10
3.29309
20
0.676283
11
3.29264
21
0.678543
0
LINE
8
BLACK
6
CONTINUOUS
10
3.29264
20
0.678543
11
3.29264
21
0.690354
0
LINE
8
BLACK
6
CONTINUOUS
10
3.29264
20
0.690354
11
3.29309
21
0.692614
0
LINE
8
BLACK
6
CONTINUOUS
10
3.29309
20
0.692614
11
3.29437
21
0.69453
0
LINE
8
BLACK
6
CONTINUOUS
10
3.29437
20
0.69453
11
3.29628
21
0.69581
0
LINE
8
BLACK
6
CONTINUOUS
10
3.29628
20
0.69581
11
3.29854
21
0.69626
0
LINE
8
BLACK
6
CONTINUOUS
10
3.29854
20
0.69626
11
3.3448
21
0.69626
0
LINE
8
BLACK
6
CONTINUOUS
10
3.3448
20
0.69626
11
3.34706
21
0.69581
0
LINE
8
BLACK
6
CONTINUOUS
10
3.45859
20
0.776212
11
3.46597
21
0.773972
0
LINE
8
BLACK
6
CONTINUOUS
10
3.46597
20
0.773972
11
3.47278
21
0.770333
0
LINE
8
BLACK
6
CONTINUOUS
10
3.47278
20
0.770333
11
3.47874
21
0.765437
0
LINE
8
BLACK
6
CONTINUOUS
10
3.47874
20
0.765437
11
3.48364
21
0.759471
0
LINE
8
BLACK
6
CONTINUOUS
10
3.48364
20
0.759471
11
3.48728
21
0.752665
0
LINE
8
BLACK
6
CONTINUOUS
10
3.48728
20
0.752665
11
3.48952
21
0.745279
0
LINE
8
BLACK
6
CONTINUOUS
10
3.48952
20
0.745279
11
3.49028
21
0.737598
0
LINE
8
BLACK
6
CONTINUOUS
10
3.49028
20
0.737598
11
3.48952
21
0.729918
0
LINE
8
BLACK
6
CONTINUOUS
10
3.48952
20
0.729918
11
3.48728
21
0.722532
0
LINE
8
BLACK
6
CONTINUOUS
10
3.48728
20
0.722532
11
3.48364
21
0.715726
0
LINE
8
BLACK
6
CONTINUOUS
10
3.48364
20
0.715726
11
3.47874
21
0.70976
0
LINE
8
BLACK
6
CONTINUOUS
10
3.47874
20
0.70976
11
3.47278
21
0.704863
0
LINE
8
BLACK
6
CONTINUOUS
10
3.47278
20
0.704863
11
3.46597
21
0.701225
0
LINE
8
BLACK
6
CONTINUOUS
10
3.46597
20
0.701225
11
3.45859
21
0.698985
0
LINE
8
BLACK
6
CONTINUOUS
10
3.45859
20
0.698985
11
3.45091
21
0.698228
0
LINE
8
BLACK
6
CONTINUOUS
10
3.45091
20
0.698228
11
3.44322
21
0.698985
0
LINE
8
BLACK
6
CONTINUOUS
10
3.44322
20
0.698985
11
3.43584
21
0.701225
0
LINE
8
BLACK
6
CONTINUOUS
10
3.43584
20
0.701225
11
3.42903
21
0.704863
0
LINE
8
BLACK
6
CONTINUOUS
10
3.42903
20
0.704863
11
3.42307
21
0.70976
0
LINE
8
BLACK
6
CONTINUOUS
10
3.42307
20
0.70976
11
3.41817
21
0.715726
0
LINE
8
BLACK
6
CONTINUOUS
10
3.41817
20
0.715726
11
3.41453
21
0.722532
0
LINE
8
BLACK
6
CONTINUOUS
10
3.41453
20
0.722532
11
3.41229
21
0.729918
0
LINE
8
BLACK
6
CONTINUOUS
10
3.41229
20
0.729918
11
3.41154
21
0.737598
0
LINE
8
BLACK
6
CONTINUOUS
10
3.41154
20
0.737598
11
3.41229
21
0.745279
0
LINE
8
BLACK
6
CONTINUOUS
10
3.41229
20
0.745279
11
3.41453
21
0.752665
0
LINE
8
BLACK
6
CONTINUOUS
10
3.41453
20
0.752665
11
3.41817
21
0.759471
0
LINE
8
BLACK
6
CONTINUOUS
10
3.41817
20
0.759471
11
3.42307
21
0.765437
0
LINE
8
BLACK
6
CONTINUOUS
10
3.42307
20
0.765437
11
3.42903
21
0.770333
0
LINE
8
BLACK
6
CONTINUOUS
10
3.42903
20
0.770333
11
3.43584
21
0.773972
0
LINE
8
BLACK
6
CONTINUOUS
10
3.43584
20
0.773972
11
3.44322
21
0.776212
0
LINE
8
BLACK
6
CONTINUOUS
10
3.44322
20
0.776212
11
3.45091
21
0.776969
0
LINE
8
BLACK
6
CONTINUOUS
10
3.45091
20
0.776969
11
3.45859
21
0.776212
0
LINE
8
BLACK
6
CONTINUOUS
10
3.04587
20
0.698543
11
2.98587
21
0.698543
0
LINE
8
BLACK
6
CONTINUOUS
10
2.98587
20
0.698543
11
2.98587
21
0.758543
0
LINE
8
BLACK
6
CONTINUOUS
10
2.98587
20
0.758543
11
3.04587
21
0.758543
0
LINE
8
BLACK
6
CONTINUOUS
10
3.04587
20
0.758543
11
3.04587
21
0.698543
0
LINE
8
BLACK
6
CONTINUOUS
10
3.14587
20
0.698543
11
3.08587
21
0.698543
0
LINE
8
BLACK
6
CONTINUOUS
10
3.08587
20
0.698543
11
3.08587
21
0.758543
0
LINE
8
BLACK
6
CONTINUOUS
10
3.08587
20
0.758543
11
3.14587
21
0.758543
0
LINE
8
BLACK
6
CONTINUOUS
10
3.14587
20
0.758543
11
3.14587
21
0.698543
0
LINE
8
BLACK
6
CONTINUOUS
10
3.27324
20
0.733212
11
3.27516
21
0.731932
0
LINE
8
BLACK
6
CONTINUOUS
10
3.27516
20
0.731932
11
3.27644
21
0.730016
0
LINE
8
BLACK
6
CONTINUOUS
10
3.27644
20
0.730016
11
3.27689
21
0.727756
0
LINE
8
BLACK
6
CONTINUOUS
10
3.27689
20
0.727756
11
3.27689
21
0.715945
0
LINE
8
BLACK
6
CONTINUOUS
10
3.27689
20
0.715945
11
3.27644
21
0.713685
0
LINE
8
BLACK
6
CONTINUOUS
10
3.27644
20
0.713685
11
3.27516
21
0.711769
0
LINE
8
BLACK
6
CONTINUOUS
10
3.27516
20
0.711769
11
3.27324
21
0.710489
0
LINE
8
BLACK
6
CONTINUOUS
10
3.27324
20
0.710489
11
3.27098
21
0.710039
0
LINE
8
BLACK
6
CONTINUOUS
10
3.27098
20
0.710039
11
3.22472
21
0.710039
0
LINE
8
BLACK
6
CONTINUOUS
10
3.22472
20
0.710039
11
3.22246
21
0.710489
0
LINE
8
BLACK
6
CONTINUOUS
10
3.22246
20
0.710489
11
3.22055
21
0.711769
0
LINE
8
BLACK
6
CONTINUOUS
10
3.22055
20
0.711769
11
3.21927
21
0.713685
0
LINE
8
BLACK
6
CONTINUOUS
10
3.21927
20
0.713685
11
3.21882
21
0.715945
0
LINE
8
BLACK
6
CONTINUOUS
10
3.21882
20
0.715945
11
3.21882
21
0.727756
0
LINE
8
BLACK
6
CONTINUOUS
10
3.21882
20
0.727756
11
3.21927
21
0.730016
0
LINE
8
BLACK
6
CONTINUOUS
10
3.21927
20
0.730016
11
3.22055
21
0.731932
0
LINE
8
BLACK
6
CONTINUOUS
10
3.22055
20
0.731932
11
3.22246
21
0.733212
0
LINE
8
BLACK
6
CONTINUOUS
10
3.22246
20
0.733212
11
3.22472
21
0.733661
0
LINE
8
BLACK
6
CONTINUOUS
10
3.22472
20
0.733661
11
3.27098
21
0.733661
0
LINE
8
BLACK
6
CONTINUOUS
10
3.27098
20
0.733661
11
3.27324
21
0.733212
0
LINE
8
BLACK
6
CONTINUOUS
10
2.21453
20
0.774523
11
2.21741
21
0.772602
0
LINE
8
BLACK
6
CONTINUOUS
10
2.21741
20
0.772602
11
2.21933
21
0.769729
0
LINE
8
BLACK
6
CONTINUOUS
10
2.21933
20
0.769729
11
2.22
21
0.766339
0
LINE
8
BLACK
6
CONTINUOUS
10
2.22
20
0.766339
11
2.22
21
0.746654
0
LINE
8
BLACK
6
CONTINUOUS
10
2.22
20
0.746654
11
2.21933
21
0.743264
0
LINE
8
BLACK
6
CONTINUOUS
10
2.21933
20
0.743264
11
2.21741
21
0.74039
0
LINE
8
BLACK
6
CONTINUOUS
10
2.21741
20
0.74039
11
2.21453
21
0.73847
0
LINE
8
BLACK
6
CONTINUOUS
10
2.21453
20
0.73847
11
2.21114
21
0.737795
0
LINE
8
BLACK
6
CONTINUOUS
10
2.21114
20
0.737795
11
2.19343
21
0.737795
0
LINE
8
BLACK
6
CONTINUOUS
10
2.19343
20
0.737795
11
2.19004
21
0.73847
0
LINE
8
BLACK
6
CONTINUOUS
10
2.19004
20
0.73847
11
2.18716
21
0.74039
0
LINE
8
BLACK
6
CONTINUOUS
10
2.18716
20
0.74039
11
2.18524
21
0.743264
0
LINE
8
BLACK
6
CONTINUOUS
10
2.18524
20
0.743264
11
2.18457
21
0.746654
0
LINE
8
BLACK
6
CONTINUOUS
10
2.18457
20
0.746654
11
2.18457
21
0.766339
0
LINE
8
BLACK
6
CONTINUOUS
10
2.18457
20
0.766339
11
2.18524
21
0.769729
0
LINE
8
BLACK
6
CONTINUOUS
10
2.18524
20
0.769729
11
2.18716
21
0.772602
0
LINE
8
BLACK
6
CONTINUOUS
10
2.18716
20
0.772602
11
2.19004
21
0.774523
0
LINE
8
BLACK
6
CONTINUOUS
10
2.19004
20
0.774523
11
2.19343
21
0.775197
0
LINE
8
BLACK
6
CONTINUOUS
10
2.19343
20
0.775197
11
2.21114
21
0.775197
0
LINE
8
BLACK
6
CONTINUOUS
10
2.21114
20
0.775197
11
2.21453
21
0.774523
0
LINE
8
BLACK
6
CONTINUOUS
10
2.27556
20
0.774523
11
2.27843
21
0.772602
0
LINE
8
BLACK
6
CONTINUOUS
10
2.27843
20
0.772602
11
2.28035
21
0.769729
0
LINE
8
BLACK
6
CONTINUOUS
10
2.28035
20
0.769729
11
2.28102
21
0.766339
0
LINE
8
BLACK
6
CONTINUOUS
10
2.28102
20
0.766339
11
2.28102
21
0.746654
0
LINE
8
BLACK
6
CONTINUOUS
10
2.28102
20
0.746654
11
2.28035
21
0.743264
0
LINE
8
BLACK
6
CONTINUOUS
10
2.28035
20
0.743264
11
2.27843
21
0.74039
0
LINE
8
BLACK
6
CONTINUOUS
10
2.27843
20
0.74039
11
2.27556
21
0.73847
0
LINE
8
BLACK
6
CONTINUOUS
10
2.27556
20
0.73847
11
2.27217
21
0.737795
0
LINE
8
BLACK
6
CONTINUOUS
10
2.27217
20
0.737795
11
2.25445
21
0.737795
0
LINE
8
BLACK
6
CONTINUOUS
10
2.25445
20
0.737795
11
2.25106
21
0.73847
0
LINE
8
BLACK
6
CONTINUOUS
10
2.25106
20
0.73847
11
2.24819
21
0.74039
0
LINE
8
BLACK
6
CONTINUOUS
10
2.24819
20
0.74039
11
2.24626
21
0.743264
0
LINE
8
BLACK
6
CONTINUOUS
10
2.24626
20
0.743264
11
2.24559
21
0.746654
0
LINE
8
BLACK
6
CONTINUOUS
10
2.24559
20
0.746654
11
2.24559
21
0.766339
0
LINE
8
BLACK
6
CONTINUOUS
10
2.24559
20
0.766339
11
2.24626
21
0.769729
0
LINE
8
BLACK
6
CONTINUOUS
10
2.24626
20
0.769729
11
2.24819
21
0.772602
0
LINE
8
BLACK
6
CONTINUOUS
10
2.24819
20
0.772602
11
2.25106
21
0.774523
0
LINE
8
BLACK
6
CONTINUOUS
10
2.25106
20
0.774523
11
2.25445
21
0.775197
0
LINE
8
BLACK
6
CONTINUOUS
10
2.25445
20
0.775197
11
2.27217
21
0.775197
0
LINE
8
BLACK
6
CONTINUOUS
10
2.27217
20
0.775197
11
2.27556
21
0.774523
0
LINE
8
BLACK
6
CONTINUOUS
10
2.37241
20
0.774523
11
2.37528
21
0.772602
0
LINE
8
BLACK
6
CONTINUOUS
10
2.37528
20
0.772602
11
2.3772
21
0.769729
0
LINE
8
BLACK
6
CONTINUOUS
10
2.3772
20
0.769729
11
2.37787
21
0.766339
0
LINE
8
BLACK
6
CONTINUOUS
10
2.37787
20
0.766339
11
2.37787
21
0.746654
0
LINE
8
BLACK
6
CONTINUOUS
10
2.37787
20
0.746654
11
2.3772
21
0.743264
0
LINE
8
BLACK
6
CONTINUOUS
10
2.3772
20
0.743264
11
2.37528
21
0.74039
0
LINE
8
BLACK
6
CONTINUOUS
10
2.37528
20
0.74039
11
2.37241
21
0.73847
0
LINE
8
BLACK
6
CONTINUOUS
10
2.37241
20
0.73847
11
2.36902
21
0.737795
0
LINE
8
BLACK
6
CONTINUOUS
10
2.36902
20
0.737795
11
2.3513
21
0.737795
0
LINE
8
BLACK
6
CONTINUOUS
10
2.3513
20
0.737795
11
2.34791
21
0.73847
0
LINE
8
BLACK
6
CONTINUOUS
10
2.34791
20
0.73847
11
2.34504
21
0.74039
0
LINE
8
BLACK
6
CONTINUOUS
10
2.34504
20
0.74039
11
2.34312
21
0.743264
0
LINE
8
BLACK
6
CONTINUOUS
10
2.34312
20
0.743264
11
2.34244
21
0.746654
0
LINE
8
BLACK
6
CONTINUOUS
10
2.34244
20
0.746654
11
2.34244
21
0.766339
0
LINE
8
BLACK
6
CONTINUOUS
10
2.34244
20
0.766339
11
2.34312
21
0.769729
0
LINE
8
BLACK
6
CONTINUOUS
10
2.34312
20
0.769729
11
2.34504
21
0.772602
0
LINE
8
BLACK
6
CONTINUOUS
10
2.34504
20
0.772602
11
2.34791
21
0.774523
0
LINE
8
BLACK
6
CONTINUOUS
10
2.34791
20
0.774523
11
2.3513
21
0.775197
0
LINE
8
BLACK
6
CONTINUOUS
10
2.3513
20
0.775197
11
2.36902
21
0.775197
0
LINE
8
BLACK
6
CONTINUOUS
10
2.36902
20
0.775197
11
2.37241
21
0.774523
0
LINE
8
BLACK
6
CONTINUOUS
10
2.43343
20
0.774523
11
2.4363
21
0.772602
0
LINE
8
BLACK
6
CONTINUOUS
10
2.4363
20
0.772602
11
2.43822
21
0.769729
0
LINE
8
BLACK
6
CONTINUOUS
10
2.43822
20
0.769729
11
2.4389
21
0.766339
0
LINE
8
BLACK
6
CONTINUOUS
10
2.4389
20
0.766339
11
2.4389
21
0.746654
0
LINE
8
BLACK
6
CONTINUOUS
10
2.4389
20
0.746654
11
2.43822
21
0.743264
0
LINE
8
BLACK
6
CONTINUOUS
10
2.43822
20
0.743264
11
2.4363
21
0.74039
0
LINE
8
BLACK
6
CONTINUOUS
10
2.4363
20
0.74039
11
2.43343
21
0.73847
0
LINE
8
BLACK
6
CONTINUOUS
10
2.43343
20
0.73847
11
2.43004
21
0.737795
0
LINE
8
BLACK
6
CONTINUOUS
10
2.43004
20
0.737795
11
2.41232
21
0.737795
0
LINE
8
BLACK
6
CONTINUOUS
10
2.41232
20
0.737795
11
2.40893
21
0.73847
0
LINE
8
BLACK
6
CONTINUOUS
10
2.40893
20
0.73847
11
2.40606
21
0.74039
0
LINE
8
BLACK
6
CONTINUOUS
10
2.40606
20
0.74039
11
2.40414
21
0.743264
0
LINE
8
BLACK
6
CONTINUOUS
10
2.40414
20
0.743264
11
2.40346
21
0.746654
0
LINE
8
BLACK
6
CONTINUOUS
10
2.40346
20
0.746654
11
2.40346
21
0.766339
0
LINE
8
BLACK
6
CONTINUOUS
10
2.40346
20
0.766339
11
2.40414
21
0.769729
0
LINE
8
BLACK
6
CONTINUOUS
10
2.40414
20
0.769729
11
2.40606
21
0.772602
0
LINE
8
BLACK
6
CONTINUOUS
10
2.40606
20
0.772602
11
2.40893
21
0.774523
0
LINE
8
BLACK
6
CONTINUOUS
10
2.40893
20
0.774523
11
2.41232
21
0.775197
0
LINE
8
BLACK
6
CONTINUOUS
10
2.41232
20
0.775197
11
2.43004
21
0.775197
0
LINE
8
BLACK
6
CONTINUOUS
10
2.43004
20
0.775197
11
2.43343
21
0.774523
0
LINE
8
BLACK
6
CONTINUOUS
10
2.53028
20
0.774523
11
2.53315
21
0.772602
0
LINE
8
BLACK
6
CONTINUOUS
10
2.53315
20
0.772602
11
2.53507
21
0.769729
0
LINE
8
BLACK
6
CONTINUOUS
10
2.53507
20
0.769729
11
2.53575
21
0.766339
0
LINE
8
BLACK
6
CONTINUOUS
10
2.53575
20
0.766339
11
2.53575
21
0.746654
0
LINE
8
BLACK
6
CONTINUOUS
10
2.53575
20
0.746654
11
2.53507
21
0.743264
0
LINE
8
BLACK
6
CONTINUOUS
10
2.53507
20
0.743264
11
2.53315
21
0.74039
0
LINE
8
BLACK
6
CONTINUOUS
10
2.53315
20
0.74039
11
2.53028
21
0.73847
0
LINE
8
BLACK
6
CONTINUOUS
10
2.53028
20
0.73847
11
2.52689
21
0.737795
0
LINE
8
BLACK
6
CONTINUOUS
10
2.52689
20
0.737795
11
2.50917
21
0.737795
0
LINE
8
BLACK
6
CONTINUOUS
10
2.50917
20
0.737795
11
2.50578
21
0.73847
0
LINE
8
BLACK
6
CONTINUOUS
10
2.50578
20
0.73847
11
2.50291
21
0.74039
0
LINE
8
BLACK
6
CONTINUOUS
10
2.50291
20
0.74039
11
2.50099
21
0.743264
0
LINE
8
BLACK
6
CONTINUOUS
10
2.50099
20
0.743264
11
2.50031
21
0.746654
0
LINE
8
BLACK
6
CONTINUOUS
10
2.50031
20
0.746654
11
2.50031
21
0.766339
0
LINE
8
BLACK
6
CONTINUOUS
10
2.50031
20
0.766339
11
2.50099
21
0.769729
0
LINE
8
BLACK
6
CONTINUOUS
10
2.50099
20
0.769729
11
2.50291
21
0.772602
0
LINE
8
BLACK
6
CONTINUOUS
10
2.50291
20
0.772602
11
2.50578
21
0.774523
0
LINE
8
BLACK
6
CONTINUOUS
10
2.50578
20
0.774523
11
2.50917
21
0.775197
0
LINE
8
BLACK
6
CONTINUOUS
10
2.50917
20
0.775197
11
2.52689
21
0.775197
0
LINE
8
BLACK
6
CONTINUOUS
10
2.52689
20
0.775197
11
2.53028
21
0.774523
0
LINE
8
BLACK
6
CONTINUOUS
10
2.5913
20
0.774523
11
2.59418
21
0.772602
0
LINE
8
BLACK
6
CONTINUOUS
10
2.59418
20
0.772602
11
2.5961
21
0.769729
0
LINE
8
BLACK
6
CONTINUOUS
10
2.5961
20
0.769729
11
2.59677
21
0.766339
0
LINE
8
BLACK
6
CONTINUOUS
10
2.59677
20
0.766339
11
2.59677
21
0.746654
0
LINE
8
BLACK
6
CONTINUOUS
10
2.59677
20
0.746654
11
2.5961
21
0.743264
0
LINE
8
BLACK
6
CONTINUOUS
10
2.5961
20
0.743264
11
2.59418
21
0.74039
0
LINE
8
BLACK
6
CONTINUOUS
10
2.59418
20
0.74039
11
2.5913
21
0.73847
0
LINE
8
BLACK
6
CONTINUOUS
10
2.5913
20
0.73847
11
2.58791
21
0.737795
0
LINE
8
BLACK
6
CONTINUOUS
10
2.58791
20
0.737795
11
2.5702
21
0.737795
0
LINE
8
BLACK
6
CONTINUOUS
10
2.5702
20
0.737795
11
2.56681
21
0.73847
0
LINE
8
BLACK
6
CONTINUOUS
10
2.56681
20
0.73847
11
2.56393
21
0.74039
0
LINE
8
BLACK
6
CONTINUOUS
10
2.56393
20
0.74039
11
2.56201
21
0.743264
0
LINE
8
BLACK
6
CONTINUOUS
10
2.56201
20
0.743264
11
2.56134
21
0.746654
0
LINE
8
BLACK
6
CONTINUOUS
10
2.56134
20
0.746654
11
2.56134
21
0.766339
0
LINE
8
BLACK
6
CONTINUOUS
10
2.56134
20
0.766339
11
2.56201
21
0.769729
0
LINE
8
BLACK
6
CONTINUOUS
10
2.56201
20
0.769729
11
2.56393
21
0.772602
0
LINE
8
BLACK
6
CONTINUOUS
10
2.56393
20
0.772602
11
2.56681
21
0.774523
0
LINE
8
BLACK
6
CONTINUOUS
10
2.56681
20
0.774523
11
2.5702
21
0.775197
0
LINE
8
BLACK
6
CONTINUOUS
10
2.5702
20
0.775197
11
2.58791
21
0.775197
0
LINE
8
BLACK
6
CONTINUOUS
10
2.58791
20
0.775197
11
2.5913
21
0.774523
0
LINE
8
BLACK
6
CONTINUOUS
10
2.68482
20
0.774597
11
2.68738
21
0.772891
0
LINE
8
BLACK
6
CONTINUOUS
10
2.68738
20
0.772891
11
2.68909
21
0.770336
0
LINE
8
BLACK
6
CONTINUOUS
10
2.68909
20
0.770336
11
2.68969
21
0.767323
0
LINE
8
BLACK
6
CONTINUOUS
10
2.68969
20
0.767323
11
2.68969
21
0.745669
0
LINE
8
BLACK
6
CONTINUOUS
10
2.68969
20
0.745669
11
2.68909
21
0.742656
0
LINE
8
BLACK
6
CONTINUOUS
10
2.68909
20
0.742656
11
2.68738
21
0.740102
0
LINE
8
BLACK
6
CONTINUOUS
10
2.68738
20
0.740102
11
2.68482
21
0.738395
0
LINE
8
BLACK
6
CONTINUOUS
10
2.68482
20
0.738395
11
2.68181
21
0.737795
0
LINE
8
BLACK
6
CONTINUOUS
10
2.68181
20
0.737795
11
2.66606
21
0.737795
0
LINE
8
BLACK
6
CONTINUOUS
10
2.66606
20
0.737795
11
2.66305
21
0.738395
0
LINE
8
BLACK
6
CONTINUOUS
10
2.66305
20
0.738395
11
2.6605
21
0.740102
0
LINE
8
BLACK
6
CONTINUOUS
10
2.6605
20
0.740102
11
2.65879
21
0.742656
0
LINE
8
BLACK
6
CONTINUOUS
10
2.65879
20
0.742656
11
2.65819
21
0.745669
0
LINE
8
BLACK
6
CONTINUOUS
10
2.65819
20
0.745669
11
2.65819
21
0.767323
0
LINE
8
BLACK
6
CONTINUOUS
10
2.65819
20
0.767323
11
2.65879
21
0.770336
0
LINE
8
BLACK
6
CONTINUOUS
10
2.65879
20
0.770336
11
2.6605
21
0.772891
0
LINE
8
BLACK
6
CONTINUOUS
10
2.6605
20
0.772891
11
2.66305
21
0.774597
0
LINE
8
BLACK
6
CONTINUOUS
10
2.66305
20
0.774597
11
2.66606
21
0.775197
0
LINE
8
BLACK
6
CONTINUOUS
10
2.66606
20
0.775197
11
2.68181
21
0.775197
0
LINE
8
BLACK
6
CONTINUOUS
10
2.68181
20
0.775197
11
2.68482
21
0.774597
0
LINE
8
BLACK
6
CONTINUOUS
10
2.74978
20
0.774597
11
2.75234
21
0.772891
0
LINE
8
BLACK
6
CONTINUOUS
10
2.75234
20
0.772891
11
2.75405
21
0.770336
0
LINE
8
BLACK
6
CONTINUOUS
10
2.75405
20
0.770336
11
2.75465
21
0.767323
0
LINE
8
BLACK
6
CONTINUOUS
10
2.75465
20
0.767323
11
2.75465
21
0.745669
0
LINE
8
BLACK
6
CONTINUOUS
10
2.75465
20
0.745669
11
2.75405
21
0.742656
0
LINE
8
BLACK
6
CONTINUOUS
10
2.75405
20
0.742656
11
2.75234
21
0.740102
0
LINE
8
BLACK
6
CONTINUOUS
10
2.75234
20
0.740102
11
2.74978
21
0.738395
0
LINE
8
BLACK
6
CONTINUOUS
10
2.74978
20
0.738395
11
2.74677
21
0.737795
0
LINE
8
BLACK
6
CONTINUOUS
10
2.74677
20
0.737795
11
2.73102
21
0.737795
0
LINE
8
BLACK
6
CONTINUOUS
10
2.73102
20
0.737795
11
2.72801
21
0.738395
0
LINE
8
BLACK
6
CONTINUOUS
10
2.72801
20
0.738395
11
2.72546
21
0.740102
0
LINE
8
BLACK
6
CONTINUOUS
10
2.72546
20
0.740102
11
2.72375
21
0.742656
0
LINE
8
BLACK
6
CONTINUOUS
10
2.72375
20
0.742656
11
2.72315
21
0.745669
0
LINE
8
BLACK
6
CONTINUOUS
10
2.72315
20
0.745669
11
2.72315
21
0.767323
0
LINE
8
BLACK
6
CONTINUOUS
10
2.72315
20
0.767323
11
2.72375
21
0.770336
0
LINE
8
BLACK
6
CONTINUOUS
10
2.72375
20
0.770336
11
2.72546
21
0.772891
0
LINE
8
BLACK
6
CONTINUOUS
10
2.72546
20
0.772891
11
2.72801
21
0.774597
0
LINE
8
BLACK
6
CONTINUOUS
10
2.72801
20
0.774597
11
2.73102
21
0.775197
0
LINE
8
BLACK
6
CONTINUOUS
10
2.73102
20
0.775197
11
2.74677
21
0.775197
0
LINE
8
BLACK
6
CONTINUOUS
10
2.74677
20
0.775197
11
2.74978
21
0.774597
0
LINE
8
BLACK
6
CONTINUOUS
10
2.8427
20
0.774597
11
2.84525
21
0.772891
0
LINE
8
BLACK
6
CONTINUOUS
10
2.84525
20
0.772891
11
2.84696
21
0.770336
0
LINE
8
BLACK
6
CONTINUOUS
10
2.84696
20
0.770336
11
2.84756
21
0.767323
0
LINE
8
BLACK
6
CONTINUOUS
10
2.84756
20
0.767323
11
2.84756
21
0.745669
0
LINE
8
BLACK
6
CONTINUOUS
10
2.84756
20
0.745669
11
2.84696
21
0.742656
0
LINE
8
BLACK
6
CONTINUOUS
10
2.84696
20
0.742656
11
2.84525
21
0.740102
0
LINE
8
BLACK
6
CONTINUOUS
10
2.84525
20
0.740102
11
2.8427
21
0.738395
0
LINE
8
BLACK
6
CONTINUOUS
10
2.8427
20
0.738395
11
2.83969
21
0.737795
0
LINE
8
BLACK
6
CONTINUOUS
10
2.83969
20
0.737795
11
2.82394
21
0.737795
0
LINE
8
BLACK
6
CONTINUOUS
10
2.82394
20
0.737795
11
2.82092
21
0.738395
0
LINE
8
BLACK
6
CONTINUOUS
10
2.82092
20
0.738395
11
2.81837
21
0.740102
0
LINE
8
BLACK
6
CONTINUOUS
10
2.81837
20
0.740102
11
2.81666
21
0.742656
0
LINE
8
BLACK
6
CONTINUOUS
10
2.81666
20
0.742656
11
2.81606
21
0.745669
0
LINE
8
BLACK
6
CONTINUOUS
10
2.81606
20
0.745669
11
2.81606
21
0.767323
0
LINE
8
BLACK
6
CONTINUOUS
10
2.81606
20
0.767323
11
2.81666
21
0.770336
0
LINE
8
BLACK
6
CONTINUOUS
10
2.81666
20
0.770336
11
2.81837
21
0.772891
0
LINE
8
BLACK
6
CONTINUOUS
10
2.81837
20
0.772891
11
2.82092
21
0.774597
0
LINE
8
BLACK
6
CONTINUOUS
10
2.82092
20
0.774597
11
2.82394
21
0.775197
0
LINE
8
BLACK
6
CONTINUOUS
10
2.82394
20
0.775197
11
2.83969
21
0.775197
0
LINE
8
BLACK
6
CONTINUOUS
10
2.83969
20
0.775197
11
2.8427
21
0.774597
0
LINE
8
BLACK
6
CONTINUOUS
10
2.90766
20
0.774597
11
2.91021
21
0.772891
0
LINE
8
BLACK
6
CONTINUOUS
10
2.91021
20
0.772891
11
2.91192
21
0.770336
0
LINE
8
BLACK
6
CONTINUOUS
10
2.91192
20
0.770336
11
2.91252
21
0.767323
0
LINE
8
BLACK
6
CONTINUOUS
10
2.91252
20
0.767323
11
2.91252
21
0.745669
0
LINE
8
BLACK
6
CONTINUOUS
10
2.91252
20
0.745669
11
2.91192
21
0.742656
0
LINE
8
BLACK
6
CONTINUOUS
10
2.91192
20
0.742656
11
2.91021
21
0.740102
0
LINE
8
BLACK
6
CONTINUOUS
10
2.91021
20
0.740102
11
2.90766
21
0.738395
0
LINE
8
BLACK
6
CONTINUOUS
10
2.90766
20
0.738395
11
2.90465
21
0.737795
0
LINE
8
BLACK
6
CONTINUOUS
10
2.90465
20
0.737795
11
2.8889
21
0.737795
0
LINE
8
BLACK
6
CONTINUOUS
10
2.8889
20
0.737795
11
2.88588
21
0.738395
0
LINE
8
BLACK
6
CONTINUOUS
10
2.88588
20
0.738395
11
2.88333
21
0.740102
0
LINE
8
BLACK
6
CONTINUOUS
10
2.88333
20
0.740102
11
2.88162
21
0.742656
0
LINE
8
BLACK
6
CONTINUOUS
10
2.88162
20
0.742656
11
2.88102
21
0.745669
0
LINE
8
BLACK
6
CONTINUOUS
10
2.88102
20
0.745669
11
2.88102
21
0.767323
0
LINE
8
BLACK
6
CONTINUOUS
10
2.88102
20
0.767323
11
2.88162
21
0.770336
0
LINE
8
BLACK
6
CONTINUOUS
10
2.88162
20
0.770336
11
2.88333
21
0.772891
0
LINE
8
BLACK
6
CONTINUOUS
10
2.88333
20
0.772891
11
2.88588
21
0.774597
0
LINE
8
BLACK
6
CONTINUOUS
10
2.88588
20
0.774597
11
2.8889
21
0.775197
0
LINE
8
BLACK
6
CONTINUOUS
10
2.8889
20
0.775197
11
2.90465
21
0.775197
0
LINE
8
BLACK
6
CONTINUOUS
10
2.90465
20
0.775197
11
2.90766
21
0.774597
0
LINE
8
BLACK
6
CONTINUOUS
10
3.04587
20
0.798543
11
2.98587
21
0.798543
0
LINE
8
BLACK
6
CONTINUOUS
10
2.98587
20
0.798543
11
2.98587
21
0.858543
0
LINE
8
BLACK
6
CONTINUOUS
10
2.98587
20
0.858543
11
3.04587
21
0.858543
0
LINE
8
BLACK
6
CONTINUOUS
10
3.04587
20
0.858543
11
3.04587
21
0.798543
0
LINE
8
BLACK
6
CONTINUOUS
10
3.14587
20
0.798543
11
3.08587
21
0.798543
0
LINE
8
BLACK
6
CONTINUOUS
10
3.08587
20
0.798543
11
3.08587
21
0.858543
0
LINE
8
BLACK
6
CONTINUOUS
10
3.08587
20
0.858543
11
3.14587
21
0.858543
0
LINE
8
BLACK
6
CONTINUOUS
10
3.14587
20
0.858543
11
3.14587
21
0.798543
0
LINE
8
BLACK
6
CONTINUOUS
10
3.27324
20
0.833606
11
3.27516
21
0.832325
0
LINE
8
BLACK
6
CONTINUOUS
10
3.27516
20
0.832325
11
3.27644
21
0.83041
0
LINE
8
BLACK
6
CONTINUOUS
10
3.27644
20
0.83041
11
3.27689
21
0.82815
0
LINE
8
BLACK
6
CONTINUOUS
10
3.27689
20
0.82815
11
3.27689
21
0.816339
0
LINE
8
BLACK
6
CONTINUOUS
10
3.27689
20
0.816339
11
3.27644
21
0.814079
0
LINE
8
BLACK
6
CONTINUOUS
10
3.27644
20
0.814079
11
3.27516
21
0.812163
0
LINE
8
BLACK
6
CONTINUOUS
10
3.27516
20
0.812163
11
3.27324
21
0.810883
0
LINE
8
BLACK
6
CONTINUOUS
10
3.27324
20
0.810883
11
3.27098
21
0.810433
0
LINE
8
BLACK
6
CONTINUOUS
10
3.27098
20
0.810433
11
3.22472
21
0.810433
0
LINE
8
BLACK
6
CONTINUOUS
10
3.22472
20
0.810433
11
3.22246
21
0.810883
0
LINE
8
BLACK
6
CONTINUOUS
10
3.22246
20
0.810883
11
3.22055
21
0.812163
0
LINE
8
BLACK
6
CONTINUOUS
10
3.22055
20
0.812163
11
3.21927
21
0.814079
0
LINE
8
BLACK
6
CONTINUOUS
10
3.21927
20
0.814079
11
3.21882
21
0.816339
0
LINE
8
BLACK
6
CONTINUOUS
10
3.21882
20
0.816339
11
3.21882
21
0.82815
0
LINE
8
BLACK
6
CONTINUOUS
10
3.21882
20
0.82815
11
3.21927
21
0.83041
0
LINE
8
BLACK
6
CONTINUOUS
10
3.21927
20
0.83041
11
3.22055
21
0.832325
0
LINE
8
BLACK
6
CONTINUOUS
10
3.22055
20
0.832325
11
3.22246
21
0.833606
0
LINE
8
BLACK
6
CONTINUOUS
10
3.22246
20
0.833606
11
3.22472
21
0.834055
0
LINE
8
BLACK
6
CONTINUOUS
10
3.22472
20
0.834055
11
3.27098
21
0.834055
0
LINE
8
BLACK
6
CONTINUOUS
10
3.27098
20
0.834055
11
3.27324
21
0.833606
0
LINE
8
BLACK
6
CONTINUOUS
10
2.21453
20
0.873341
11
2.21741
21
0.871421
0
LINE
8
BLACK
6
CONTINUOUS
10
2.21741
20
0.871421
11
2.21933
21
0.868547
0
LINE
8
BLACK
6
CONTINUOUS
10
2.21933
20
0.868547
11
2.22
21
0.865157
0
LINE
8
BLACK
6
CONTINUOUS
10
2.22
20
0.865157
11
2.22
21
0.845472
0
LINE
8
BLACK
6
CONTINUOUS
10
2.22
20
0.845472
11
2.21933
21
0.842083
0
LINE
8
BLACK
6
CONTINUOUS
10
2.21933
20
0.842083
11
2.21741
21
0.839209
0
LINE
8
BLACK
6
CONTINUOUS
10
2.21741
20
0.839209
11
2.21453
21
0.837288
0
LINE
8
BLACK
6
CONTINUOUS
10
2.21453
20
0.837288
11
2.21114
21
0.836614
0
LINE
8
BLACK
6
CONTINUOUS
10
2.21114
20
0.836614
11
2.19343
21
0.836614
0
LINE
8
BLACK
6
CONTINUOUS
10
2.19343
20
0.836614
11
2.19004
21
0.837288
0
LINE
8
BLACK
6
CONTINUOUS
10
2.19004
20
0.837288
11
2.18716
21
0.839209
0
LINE
8
BLACK
6
CONTINUOUS
10
2.18716
20
0.839209
11
2.18524
21
0.842083
0
LINE
8
BLACK
6
CONTINUOUS
10
2.18524
20
0.842083
11
2.18457
21
0.845472
0
LINE
8
BLACK
6
CONTINUOUS
10
2.18457
20
0.845472
11
2.18457
21
0.865157
0
LINE
8
BLACK
6
CONTINUOUS
10
2.18457
20
0.865157
11
2.18524
21
0.868547
0
LINE
8
BLACK
6
CONTINUOUS
10
2.18524
20
0.868547
11
2.18716
21
0.871421
0
LINE
8
BLACK
6
CONTINUOUS
10
2.18716
20
0.871421
11
2.19004
21
0.873341
0
LINE
8
BLACK
6
CONTINUOUS
10
2.19004
20
0.873341
11
2.19343
21
0.874016
0
LINE
8
BLACK
6
CONTINUOUS
10
2.19343
20
0.874016
11
2.21114
21
0.874016
0
LINE
8
BLACK
6
CONTINUOUS
10
2.21114
20
0.874016
11
2.21453
21
0.873341
0
LINE
8
BLACK
6
CONTINUOUS
10
2.27556
20
0.873341
11
2.27843
21
0.871421
0
LINE
8
BLACK
6
CONTINUOUS
10
2.27843
20
0.871421
11
2.28035
21
0.868547
0
LINE
8
BLACK
6
CONTINUOUS
10
2.28035
20
0.868547
11
2.28102
21
0.865157
0
LINE
8
BLACK
6
CONTINUOUS
10
2.28102
20
0.865157
11
2.28102
21
0.845472
0
LINE
8
BLACK
6
CONTINUOUS
10
2.28102
20
0.845472
11
2.28035
21
0.842083
0
LINE
8
BLACK
6
CONTINUOUS
10
2.28035
20
0.842083
11
2.27843
21
0.839209
0
LINE
8
BLACK
6
CONTINUOUS
10
2.27843
20
0.839209
11
2.27556
21
0.837288
0
LINE
8
BLACK
6
CONTINUOUS
10
2.27556
20
0.837288
11
2.27217
21
0.836614
0
LINE
8
BLACK
6
CONTINUOUS
10
2.27217
20
0.836614
11
2.25445
21
0.836614
0
LINE
8
BLACK
6
CONTINUOUS
10
2.25445
20
0.836614
11
2.25106
21
0.837288
0
LINE
8
BLACK
6
CONTINUOUS
10
2.25106
20
0.837288
11
2.24819
21
0.839209
0
LINE
8
BLACK
6
CONTINUOUS
10
2.24819
20
0.839209
11
2.24626
21
0.842083
0
LINE
8
BLACK
6
CONTINUOUS
10
2.24626
20
0.842083
11
2.24559
21
0.845472
0
LINE
8
BLACK
6
CONTINUOUS
10
2.24559
20
0.845472
11
2.24559
21
0.865157
0
LINE
8
BLACK
6
CONTINUOUS
10
2.24559
20
0.865157
11
2.24626
21
0.868547
0
LINE
8
BLACK
6
CONTINUOUS
10
2.24626
20
0.868547
11
2.24819
21
0.871421
0
LINE
8
BLACK
6
CONTINUOUS
10
2.24819
20
0.871421
11
2.25106
21
0.873341
0
LINE
8
BLACK
6
CONTINUOUS
10
2.25106
20
0.873341
11
2.25445
21
0.874016
0
LINE
8
BLACK
6
CONTINUOUS
10
2.25445
20
0.874016
11
2.27217
21
0.874016
0
LINE
8
BLACK
6
CONTINUOUS
10
2.27217
20
0.874016
11
2.27556
21
0.873341
0
LINE
8
BLACK
6
CONTINUOUS
10
2.37241
20
0.873341
11
2.37528
21
0.871421
0
LINE
8
BLACK
6
CONTINUOUS
10
2.37528
20
0.871421
11
2.3772
21
0.868547
0
LINE
8
BLACK
6
CONTINUOUS
10
2.3772
20
0.868547
11
2.37787
21
0.865157
0
LINE
8
BLACK
6
CONTINUOUS
10
2.37787
20
0.865157
11
2.37787
21
0.845472
0
LINE
8
BLACK
6
CONTINUOUS
10
2.37787
20
0.845472
11
2.3772
21
0.842083
0
LINE
8
BLACK
6
CONTINUOUS
10
2.3772
20
0.842083
11
2.37528
21
0.839209
0
LINE
8
BLACK
6
CONTINUOUS
10
2.37528
20
0.839209
11
2.37241
21
0.837288
0
LINE
8
BLACK
6
CONTINUOUS
10
2.37241
20
0.837288
11
2.36902
21
0.836614
0
LINE
8
BLACK
6
CONTINUOUS
10
2.36902
20
0.836614
11
2.3513
21
0.836614
0
LINE
8
BLACK
6
CONTINUOUS
10
2.3513
20
0.836614
11
2.34791
21
0.837288
0
LINE
8
BLACK
6
CONTINUOUS
10
2.34791
20
0.837288
11
2.34504
21
0.839209
0
LINE
8
BLACK
6
CONTINUOUS
10
2.34504
20
0.839209
11
2.34312
21
0.842083
0
LINE
8
BLACK
6
CONTINUOUS
10
2.34312
20
0.842083
11
2.34244
21
0.845472
0
LINE
8
BLACK
6
CONTINUOUS
10
2.34244
20
0.845472
11
2.34244
21
0.865157
0
LINE
8
BLACK
6
CONTINUOUS
10
2.34244
20
0.865157
11
2.34312
21
0.868547
0
LINE
8
BLACK
6
CONTINUOUS
10
2.34312
20
0.868547
11
2.34504
21
0.871421
0
LINE
8
BLACK
6
CONTINUOUS
10
2.34504
20
0.871421
11
2.34791
21
0.873341
0
LINE
8
BLACK
6
CONTINUOUS
10
2.34791
20
0.873341
11
2.3513
21
0.874016
0
LINE
8
BLACK
6
CONTINUOUS
10
2.3513
20
0.874016
11
2.36902
21
0.874016
0
LINE
8
BLACK
6
CONTINUOUS
10
2.36902
20
0.874016
11
2.37241
21
0.873341
0
LINE
8
BLACK
6
CONTINUOUS
10
2.43343
20
0.873341
11
2.4363
21
0.871421
0
LINE
8
BLACK
6
CONTINUOUS
10
2.4363
20
0.871421
11
2.43822
21
0.868547
0
LINE
8
BLACK
6
CONTINUOUS
10
2.43822
20
0.868547
11
2.4389
21
0.865157
0
LINE
8
BLACK
6
CONTINUOUS
10
2.4389
20
0.865157
11
2.4389
21
0.845472
0
LINE
8
BLACK
6
CONTINUOUS
10
2.4389
20
0.845472
11
2.43822
21
0.842083
0
LINE
8
BLACK
6
CONTINUOUS
10
2.43822
20
0.842083
11
2.4363
21
0.839209
0
LINE
8
BLACK
6
CONTINUOUS
10
2.4363
20
0.839209
11
2.43343
21
0.837288
0
LINE
8
BLACK
6
CONTINUOUS
10
2.43343
20
0.837288
11
2.43004
21
0.836614
0
LINE
8
BLACK
6
CONTINUOUS
10
2.43004
20
0.836614
11
2.41232
21
0.836614
0
LINE
8
BLACK
6
CONTINUOUS
10
2.41232
20
0.836614
11
2.40893
21
0.837288
0
LINE
8
BLACK
6
CONTINUOUS
10
2.40893
20
0.837288
11
2.40606
21
0.839209
0
LINE
8
BLACK
6
CONTINUOUS
10
2.40606
20
0.839209
11
2.40414
21
0.842083
0
LINE
8
BLACK
6
CONTINUOUS
10
2.40414
20
0.842083
11
2.40346
21
0.845472
0
LINE
8
BLACK
6
CONTINUOUS
10
2.40346
20
0.845472
11
2.40346
21
0.865157
0
LINE
8
BLACK
6
CONTINUOUS
10
2.40346
20
0.865157
11
2.40414
21
0.868547
0
LINE
8
BLACK
6
CONTINUOUS
10
2.40414
20
0.868547
11
2.40606
21
0.871421
0
LINE
8
BLACK
6
CONTINUOUS
10
2.40606
20
0.871421
11
2.40893
21
0.873341
0
LINE
8
BLACK
6
CONTINUOUS
10
2.40893
20
0.873341
11
2.41232
21
0.874016
0
LINE
8
BLACK
6
CONTINUOUS
10
2.41232
20
0.874016
11
2.43004
21
0.874016
0
LINE
8
BLACK
6
CONTINUOUS
10
2.43004
20
0.874016
11
2.43343
21
0.873341
0
LINE
8
BLACK
6
CONTINUOUS
10
2.53028
20
0.873341
11
2.53315
21
0.871421
0
LINE
8
BLACK
6
CONTINUOUS
10
2.53315
20
0.871421
11
2.53507
21
0.868547
0
LINE
8
BLACK
6
CONTINUOUS
10
2.53507
20
0.868547
11
2.53575
21
0.865157
0
LINE
8
BLACK
6
CONTINUOUS
10
2.53575
20
0.865157
11
2.53575
21
0.845472
0
LINE
8
BLACK
6
CONTINUOUS
10
2.53575
20
0.845472
11
2.53507
21
0.842083
0
LINE
8
BLACK
6
CONTINUOUS
10
2.53507
20
0.842083
11
2.53315
21
0.839209
0
LINE
8
BLACK
6
CONTINUOUS
10
2.53315
20
0.839209
11
2.53028
21
0.837288
0
LINE
8
BLACK
6
CONTINUOUS
10
2.53028
20
0.837288
11
2.52689
21
0.836614
0
LINE
8
BLACK
6
CONTINUOUS
10
2.52689
20
0.836614
11
2.50917
21
0.836614
0
LINE
8
BLACK
6
CONTINUOUS
10
2.50917
20
0.836614
11
2.50578
21
0.837288
0
LINE
8
BLACK
6
CONTINUOUS
10
2.50578
20
0.837288
11
2.50291
21
0.839209
0
LINE
8
BLACK
6
CONTINUOUS
10
2.50291
20
0.839209
11
2.50099
21
0.842083
0
LINE
8
BLACK
6
CONTINUOUS
10
2.50099
20
0.842083
11
2.50031
21
0.845472
0
LINE
8
BLACK
6
CONTINUOUS
10
2.50031
20
0.845472
11
2.50031
21
0.865157
0
LINE
8
BLACK
6
CONTINUOUS
10
2.50031
20
0.865157
11
2.50099
21
0.868547
0
LINE
8
BLACK
6
CONTINUOUS
10
2.50099
20
0.868547
11
2.50291
21
0.871421
0
LINE
8
BLACK
6
CONTINUOUS
10
2.50291
20
0.871421
11
2.50578
21
0.873341
0
LINE
8
BLACK
6
CONTINUOUS
10
2.50578
20
0.873341
11
2.50917
21
0.874016
0
LINE
8
BLACK
6
CONTINUOUS
10
2.50917
20
0.874016
11
2.52689
21
0.874016
0
LINE
8
BLACK
6
CONTINUOUS
10
2.52689
20
0.874016
11
2.53028
21
0.873341
0
LINE
8
BLACK
6
CONTINUOUS
10
2.5913
20
0.873341
11
2.59418
21
0.871421
0
LINE
8
BLACK
6
CONTINUOUS
10
2.59418
20
0.871421
11
2.5961
21
0.868547
0
LINE
8
BLACK
6
CONTINUOUS
10
2.5961
20
0.868547
11
2.59677
21
0.865157
0
LINE
8
BLACK
6
CONTINUOUS
10
2.59677
20
0.865157
11
2.59677
21
0.845472
0
LINE
8
BLACK
6
CONTINUOUS
10
2.59677
20
0.845472
11
2.5961
21
0.842083
0
LINE
8
BLACK
6
CONTINUOUS
10
2.5961
20
0.842083
11
2.59418
21
0.839209
0
LINE
8
BLACK
6
CONTINUOUS
10
2.59418
20
0.839209
11
2.5913
21
0.837288
0
LINE
8
BLACK
6
CONTINUOUS
10
2.5913
20
0.837288
11
2.58791
21
0.836614
0
LINE
8
BLACK
6
CONTINUOUS
10
2.58791
20
0.836614
11
2.5702
21
0.836614
0
LINE
8
BLACK
6
CONTINUOUS
10
2.5702
20
0.836614
11
2.56681
21
0.837288
0
LINE
8
BLACK
6
CONTINUOUS
10
2.56681
20
0.837288
11
2.56393
21
0.839209
0
LINE
8
BLACK
6
CONTINUOUS
10
2.56393
20
0.839209
11
2.56201
21
0.842083
0
LINE
8
BLACK
6
CONTINUOUS
10
2.56201
20
0.842083
11
2.56134
21
0.845472
0
LINE
8
BLACK
6
CONTINUOUS
10
2.56134
20
0.845472
11
2.56134
21
0.865157
0
LINE
8
BLACK
6
CONTINUOUS
10
2.56134
20
0.865157
11
2.56201
21
0.868547
0
LINE
8
BLACK
6
CONTINUOUS
10
2.56201
20
0.868547
11
2.56393
21
0.871421
0
LINE
8
BLACK
6
CONTINUOUS
10
2.56393
20
0.871421
11
2.56681
21
0.873341
0
LINE
8
BLACK
6
CONTINUOUS
10
2.56681
20
0.873341
11
2.5702
21
0.874016
0
LINE
8
BLACK
6
CONTINUOUS
10
2.5702
20
0.874016
11
2.58791
21
0.874016
0
LINE
8
BLACK
6
CONTINUOUS
10
2.58791
20
0.874016
11
2.5913
21
0.873341
0
LINE
8
BLACK
6
CONTINUOUS
10
2.68482
20
0.873416
11
2.68738
21
0.871709
0
LINE
8
BLACK
6
CONTINUOUS
10
2.68738
20
0.871709
11
2.68909
21
0.869155
0
LINE
8
BLACK
6
CONTINUOUS
10
2.68909
20
0.869155
11
2.68969
21
0.866142
0
LINE
8
BLACK
6
CONTINUOUS
10
2.68969
20
0.866142
11
2.68969
21
0.844488
0
LINE
8
BLACK
6
CONTINUOUS
10
2.68969
20
0.844488
11
2.68909
21
0.841475
0
LINE
8
BLACK
6
CONTINUOUS
10
2.68909
20
0.841475
11
2.68738
21
0.83892
0
LINE
8
BLACK
6
CONTINUOUS
10
2.68738
20
0.83892
11
2.68482
21
0.837214
0
LINE
8
BLACK
6
CONTINUOUS
10
2.68482
20
0.837214
11
2.68181
21
0.836614
0
LINE
8
BLACK
6
CONTINUOUS
10
2.68181
20
0.836614
11
2.66606
21
0.836614
0
LINE
8
BLACK
6
CONTINUOUS
10
2.66606
20
0.836614
11
2.66305
21
0.837214
0
LINE
8
BLACK
6
CONTINUOUS
10
2.66305
20
0.837214
11
2.6605
21
0.83892
0
LINE
8
BLACK
6
CONTINUOUS
10
2.6605
20
0.83892
11
2.65879
21
0.841475
0
LINE
8
BLACK
6
CONTINUOUS
10
2.65879
20
0.841475
11
2.65819
21
0.844488
0
LINE
8
BLACK
6
CONTINUOUS
10
2.65819
20
0.844488
11
2.65819
21
0.866142
0
LINE
8
BLACK
6
CONTINUOUS
10
2.65819
20
0.866142
11
2.65879
21
0.869155
0
LINE
8
BLACK
6
CONTINUOUS
10
2.65879
20
0.869155
11
2.6605
21
0.871709
0
LINE
8
BLACK
6
CONTINUOUS
10
2.6605
20
0.871709
11
2.66305
21
0.873416
0
LINE
8
BLACK
6
CONTINUOUS
10
2.66305
20
0.873416
11
2.66606
21
0.874016
0
LINE
8
BLACK
6
CONTINUOUS
10
2.66606
20
0.874016
11
2.68181
21
0.874016
0
LINE
8
BLACK
6
CONTINUOUS
10
2.68181
20
0.874016
11
2.68482
21
0.873416
0
LINE
8
BLACK
6
CONTINUOUS
10
2.74978
20
0.873416
11
2.75234
21
0.871709
0
LINE
8
BLACK
6
CONTINUOUS
10
2.75234
20
0.871709
11
2.75405
21
0.869155
0
LINE
8
BLACK
6
CONTINUOUS
10
2.75405
20
0.869155
11
2.75465
21
0.866142
0
LINE
8
BLACK
6
CONTINUOUS
10
2.75465
20
0.866142
11
2.75465
21
0.844488
0
LINE
8
BLACK
6
CONTINUOUS
10
2.75465
20
0.844488
11
2.75405
21
0.841475
0
LINE
8
BLACK
6
CONTINUOUS
10
2.75405
20
0.841475
11
2.75234
21
0.83892
0
LINE
8
BLACK
6
CONTINUOUS
10
2.75234
20
0.83892
11
2.74978
21
0.837214
0
LINE
8
BLACK
6
CONTINUOUS
10
2.74978
20
0.837214
11
2.74677
21
0.836614
0
LINE
8
BLACK
6
CONTINUOUS
10
2.74677
20
0.836614
11
2.73102
21
0.836614
0
LINE
8
BLACK
6
CONTINUOUS
10
2.73102
20
0.836614
11
2.72801
21
0.837214
0
LINE
8
BLACK
6
CONTINUOUS
10
2.72801
20
0.837214
11
2.72546
21
0.83892
0
LINE
8
BLACK
6
CONTINUOUS
10
2.72546
20
0.83892
11
2.72375
21
0.841475
0
LINE
8
BLACK
6
CONTINUOUS
10
2.72375
20
0.841475
11
2.72315
21
0.844488
0
LINE
8
BLACK
6
CONTINUOUS
10
2.72315
20
0.844488
11
2.72315
21
0.866142
0
LINE
8
BLACK
6
CONTINUOUS
10
2.72315
20
0.866142
11
2.72375
21
0.869155
0
LINE
8
BLACK
6
CONTINUOUS
10
2.72375
20
0.869155
11
2.72546
21
0.871709
0
LINE
8
BLACK
6
CONTINUOUS
10
2.72546
20
0.871709
11
2.72801
21
0.873416
0
LINE
8
BLACK
6
CONTINUOUS
10
2.72801
20
0.873416
11
2.73102
21
0.874016
0
LINE
8
BLACK
6
CONTINUOUS
10
2.73102
20
0.874016
11
2.74677
21
0.874016
0
LINE
8
BLACK
6
CONTINUOUS
10
2.74677
20
0.874016
11
2.74978
21
0.873416
0
LINE
8
BLACK
6
CONTINUOUS
10
2.8427
20
0.873416
11
2.84525
21
0.871709
0
LINE
8
BLACK
6
CONTINUOUS
10
2.84525
20
0.871709
11
2.84696
21
0.869155
0
LINE
8
BLACK
6
CONTINUOUS
10
2.84696
20
0.869155
11
2.84756
21
0.866142
0
LINE
8
BLACK
6
CONTINUOUS
10
2.84756
20
0.866142
11
2.84756
21
0.844488
0
LINE
8
BLACK
6
CONTINUOUS
10
2.84756
20
0.844488
11
2.84696
21
0.841475
0
LINE
8
BLACK
6
CONTINUOUS
10
2.84696
20
0.841475
11
2.84525
21
0.83892
0
LINE
8
BLACK
6
CONTINUOUS
10
2.84525
20
0.83892
11
2.8427
21
0.837214
0
LINE
8
BLACK
6
CONTINUOUS
10
2.8427
20
0.837214
11
2.83969
21
0.836614
0
LINE
8
BLACK
6
CONTINUOUS
10
2.83969
20
0.836614
11
2.82394
21
0.836614
0
LINE
8
BLACK
6
CONTINUOUS
10
2.82394
20
0.836614
11
2.82092
21
0.837214
0
LINE
8
BLACK
6
CONTINUOUS
10
2.82092
20
0.837214
11
2.81837
21
0.83892
0
LINE
8
BLACK
6
CONTINUOUS
10
2.81837
20
0.83892
11
2.81666
21
0.841475
0
LINE
8
BLACK
6
CONTINUOUS
10
2.81666
20
0.841475
11
2.81606
21
0.844488
0
LINE
8
BLACK
6
CONTINUOUS
10
2.81606
20
0.844488
11
2.81606
21
0.866142
0
LINE
8
BLACK
6
CONTINUOUS
10
2.81606
20
0.866142
11
2.81666
21
0.869155
0
LINE
8
BLACK
6
CONTINUOUS
10
2.81666
20
0.869155
11
2.81837
21
0.871709
0
LINE
8
BLACK
6
CONTINUOUS
10
2.81837
20
0.871709
11
2.82092
21
0.873416
0
LINE
8
BLACK
6
CONTINUOUS
10
2.82092
20
0.873416
11
2.82394
21
0.874016
0
LINE
8
BLACK
6
CONTINUOUS
10
2.82394
20
0.874016
11
2.83969
21
0.874016
0
LINE
8
BLACK
6
CONTINUOUS
10
2.83969
20
0.874016
11
2.8427
21
0.873416
0
LINE
8
BLACK
6
CONTINUOUS
10
2.90766
20
0.873416
11
2.91021
21
0.871709
0
LINE
8
BLACK
6
CONTINUOUS
10
2.91021
20
0.871709
11
2.91192
21
0.869155
0
LINE
8
BLACK
6
CONTINUOUS
10
2.91192
20
0.869155
11
2.91252
21
0.866142
0
LINE
8
BLACK
6
CONTINUOUS
10
2.91252
20
0.866142
11
2.91252
21
0.844488
0
LINE
8
BLACK
6
CONTINUOUS
10
2.91252
20
0.844488
11
2.91192
21
0.841475
0
LINE
8
BLACK
6
CONTINUOUS
10
2.91192
20
0.841475
11
2.91021
21
0.83892
0
LINE
8
BLACK
6
CONTINUOUS
10
2.91021
20
0.83892
11
2.90766
21
0.837214
0
LINE
8
BLACK
6
CONTINUOUS
10
2.90766
20
0.837214
11
2.90465
21
0.836614
0
LINE
8
BLACK
6
CONTINUOUS
10
2.90465
20
0.836614
11
2.8889
21
0.836614
0
LINE
8
BLACK
6
CONTINUOUS
10
2.8889
20
0.836614
11
2.88588
21
0.837214
0
LINE
8
BLACK
6
CONTINUOUS
10
2.88588
20
0.837214
11
2.88333
21
0.83892
0
LINE
8
BLACK
6
CONTINUOUS
10
2.88333
20
0.83892
11
2.88162
21
0.841475
0
LINE
8
BLACK
6
CONTINUOUS
10
2.88162
20
0.841475
11
2.88102
21
0.844488
0
LINE
8
BLACK
6
CONTINUOUS
10
2.88102
20
0.844488
11
2.88102
21
0.866142
0
LINE
8
BLACK
6
CONTINUOUS
10
2.88102
20
0.866142
11
2.88162
21
0.869155
0
LINE
8
BLACK
6
CONTINUOUS
10
2.88162
20
0.869155
11
2.88333
21
0.871709
0
LINE
8
BLACK
6
CONTINUOUS
10
2.88333
20
0.871709
11
2.88588
21
0.873416
0
LINE
8
BLACK
6
CONTINUOUS
10
2.88588
20
0.873416
11
2.8889
21
0.874016
0
LINE
8
BLACK
6
CONTINUOUS
10
2.8889
20
0.874016
11
2.90465
21
0.874016
0
LINE
8
BLACK
6
CONTINUOUS
10
2.90465
20
0.874016
11
2.90766
21
0.873416
0
LINE
8
BLACK
6
CONTINUOUS
10
3.45859
20
0.915976
11
3.46597
21
0.913735
0
LINE
8
BLACK
6
CONTINUOUS
10
3.46597
20
0.913735
11
3.47278
21
0.910097
0
LINE
8
BLACK
6
CONTINUOUS
10
3.47278
20
0.910097
11
3.47874
21
0.905201
0
LINE
8
BLACK
6
CONTINUOUS
10
3.47874
20
0.905201
11
3.48364
21
0.899235
0
LINE
8
BLACK
6
CONTINUOUS
10
3.48364
20
0.899235
11
3.48728
21
0.892428
0
LINE
8
BLACK
6
CONTINUOUS
10
3.48728
20
0.892428
11
3.48952
21
0.885043
0
LINE
8
BLACK
6
CONTINUOUS
10
3.48952
20
0.885043
11
3.49028
21
0.877362
0
LINE
8
BLACK
6
CONTINUOUS
10
3.49028
20
0.877362
11
3.48952
21
0.869681
0
LINE
8
BLACK
6
CONTINUOUS
10
3.48952
20
0.869681
11
3.48728
21
0.862296
0
LINE
8
BLACK
6
CONTINUOUS
10
3.48728
20
0.862296
11
3.48364
21
0.855489
0
LINE
8
BLACK
6
CONTINUOUS
10
3.48364
20
0.855489
11
3.47874
21
0.849523
0
LINE
8
BLACK
6
CONTINUOUS
10
3.47874
20
0.849523
11
3.47278
21
0.844627
0
LINE
8
BLACK
6
CONTINUOUS
10
3.47278
20
0.844627
11
3.46597
21
0.840989
0
LINE
8
BLACK
6
CONTINUOUS
10
3.46597
20
0.840989
11
3.45859
21
0.838749
0
LINE
8
BLACK
6
CONTINUOUS
10
3.45859
20
0.838749
11
3.45091
21
0.837992
0
LINE
8
BLACK
6
CONTINUOUS
10
3.45091
20
0.837992
11
3.44322
21
0.838749
0
LINE
8
BLACK
6
CONTINUOUS
10
3.44322
20
0.838749
11
3.43584
21
0.840989
0
LINE
8
BLACK
6
CONTINUOUS
10
3.43584
20
0.840989
11
3.42903
21
0.844627
0
LINE
8
BLACK
6
CONTINUOUS
10
3.42903
20
0.844627
11
3.42307
21
0.849523
0
LINE
8
BLACK
6
CONTINUOUS
10
3.42307
20
0.849523
11
3.41817
21
0.855489
0
LINE
8
BLACK
6
CONTINUOUS
10
3.41817
20
0.855489
11
3.41453
21
0.862296
0
LINE
8
BLACK
6
CONTINUOUS
10
3.41453
20
0.862296
11
3.41229
21
0.869681
0
LINE
8
BLACK
6
CONTINUOUS
10
3.41229
20
0.869681
11
3.41154
21
0.877362
0
LINE
8
BLACK
6
CONTINUOUS
10
3.41154
20
0.877362
11
3.41229
21
0.885043
0
LINE
8
BLACK
6
CONTINUOUS
10
3.41229
20
0.885043
11
3.41453
21
0.892428
0
LINE
8
BLACK
6
CONTINUOUS
10
3.41453
20
0.892428
11
3.41817
21
0.899235
0
LINE
8
BLACK
6
CONTINUOUS
10
3.41817
20
0.899235
11
3.42307
21
0.905201
0
LINE
8
BLACK
6
CONTINUOUS
10
3.42307
20
0.905201
11
3.42903
21
0.910097
0
LINE
8
BLACK
6
CONTINUOUS
10
3.42903
20
0.910097
11
3.43584
21
0.913735
0
LINE
8
BLACK
6
CONTINUOUS
10
3.43584
20
0.913735
11
3.44322
21
0.915976
0
LINE
8
BLACK
6
CONTINUOUS
10
3.44322
20
0.915976
11
3.45091
21
0.916732
0
LINE
8
BLACK
6
CONTINUOUS
10
3.45091
20
0.916732
11
3.45859
21
0.915976
0
LINE
8
BLACK
6
CONTINUOUS
10
3.34706
20
0.871007
11
3.34898
21
0.869727
0
LINE
8
BLACK
6
CONTINUOUS
10
3.34898
20
0.869727
11
3.35026
21
0.867811
0
LINE
8
BLACK
6
CONTINUOUS
10
3.35026
20
0.867811
11
3.35071
21
0.865551
0
LINE
8
BLACK
6
CONTINUOUS
10
3.35071
20
0.865551
11
3.35071
21
0.85374
0
LINE
8
BLACK
6
CONTINUOUS
10
3.35071
20
0.85374
11
3.35026
21
0.85148
0
LINE
8
BLACK
6
CONTINUOUS
10
3.35026
20
0.85148
11
3.34898
21
0.849564
0
LINE
8
BLACK
6
CONTINUOUS
10
3.34898
20
0.849564
11
3.34706
21
0.848284
0
LINE
8
BLACK
6
CONTINUOUS
10
3.34706
20
0.848284
11
3.3448
21
0.847835
0
LINE
8
BLACK
6
CONTINUOUS
10
3.3448
20
0.847835
11
3.29854
21
0.847835
0
LINE
8
BLACK
6
CONTINUOUS
10
3.29854
20
0.847835
11
3.29628
21
0.848284
0
LINE
8
BLACK
6
CONTINUOUS
10
3.29628
20
0.848284
11
3.29437
21
0.849564
0
LINE
8
BLACK
6
CONTINUOUS
10
3.29437
20
0.849564
11
3.29309
21
0.85148
0
LINE
8
BLACK
6
CONTINUOUS
10
3.29309
20
0.85148
11
3.29264
21
0.85374
0
LINE
8
BLACK
6
CONTINUOUS
10
3.29264
20
0.85374
11
3.29264
21
0.865551
0
LINE
8
BLACK
6
CONTINUOUS
10
3.29264
20
0.865551
11
3.29309
21
0.867811
0
LINE
8
BLACK
6
CONTINUOUS
10
3.29309
20
0.867811
11
3.29437
21
0.869727
0
LINE
8
BLACK
6
CONTINUOUS
10
3.29437
20
0.869727
11
3.29628
21
0.871007
0
LINE
8
BLACK
6
CONTINUOUS
10
3.29628
20
0.871007
11
3.29854
21
0.871457
0
LINE
8
BLACK
6
CONTINUOUS
10
3.29854
20
0.871457
11
3.3448
21
0.871457
0
LINE
8
BLACK
6
CONTINUOUS
10
3.3448
20
0.871457
11
3.34706
21
0.871007
0
LINE
8
BLACK
6
CONTINUOUS
10
3.27324
20
0.908409
11
3.27516
21
0.907129
0
LINE
8
BLACK
6
CONTINUOUS
10
3.27516
20
0.907129
11
3.27644
21
0.905213
0
LINE
8
BLACK
6
CONTINUOUS
10
3.27644
20
0.905213
11
3.27689
21
0.902953
0
LINE
8
BLACK
6
CONTINUOUS
10
3.27689
20
0.902953
11
3.27689
21
0.891142
0
LINE
8
BLACK
6
CONTINUOUS
10
3.27689
20
0.891142
11
3.27644
21
0.888882
0
LINE
8
BLACK
6
CONTINUOUS
10
3.27644
20
0.888882
11
3.27516
21
0.886966
0
LINE
8
BLACK
6
CONTINUOUS
10
3.27516
20
0.886966
11
3.27324
21
0.885686
0
LINE
8
BLACK
6
CONTINUOUS
10
3.27324
20
0.885686
11
3.27098
21
0.885236
0
LINE
8
BLACK
6
CONTINUOUS
10
3.27098
20
0.885236
11
3.22472
21
0.885236
0
LINE
8
BLACK
6
CONTINUOUS
10
3.22472
20
0.885236
11
3.22246
21
0.885686
0
LINE
8
BLACK
6
CONTINUOUS
10
3.22246
20
0.885686
11
3.22055
21
0.886966
0
LINE
8
BLACK
6
CONTINUOUS
10
3.22055
20
0.886966
11
3.21927
21
0.888882
0
LINE
8
BLACK
6
CONTINUOUS
10
3.21927
20
0.888882
11
3.21882
21
0.891142
0
LINE
8
BLACK
6
CONTINUOUS
10
3.21882
20
0.891142
11
3.21882
21
0.902953
0
LINE
8
BLACK
6
CONTINUOUS
10
3.21882
20
0.902953
11
3.21927
21
0.905213
0
LINE
8
BLACK
6
CONTINUOUS
10
3.21927
20
0.905213
11
3.22055
21
0.907129
0
LINE
8
BLACK
6
CONTINUOUS
10
3.22055
20
0.907129
11
3.22246
21
0.908409
0
LINE
8
BLACK
6
CONTINUOUS
10
3.22246
20
0.908409
11
3.22472
21
0.908858
0
LINE
8
BLACK
6
CONTINUOUS
10
3.22472
20
0.908858
11
3.27098
21
0.908858
0
LINE
8
BLACK
6
CONTINUOUS
10
3.27098
20
0.908858
11
3.27324
21
0.908409
0
LINE
8
BLACK
6
CONTINUOUS
10
3.04587
20
0.898543
11
2.98587
21
0.898543
0
LINE
8
BLACK
6
CONTINUOUS
10
2.98587
20
0.898543
11
2.98587
21
0.958543
0
LINE
8
BLACK
6
CONTINUOUS
10
2.98587
20
0.958543
11
3.04587
21
0.958543
0
LINE
8
BLACK
6
CONTINUOUS
10
3.04587
20
0.958543
11
3.04587
21
0.898543
0
LINE
8
BLACK
6
CONTINUOUS
10
3.14587
20
0.898543
11
3.08587
21
0.898543
0
LINE
8
BLACK
6
CONTINUOUS
10
3.08587
20
0.898543
11
3.08587
21
0.958543
0
LINE
8
BLACK
6
CONTINUOUS
10
3.08587
20
0.958543
11
3.14587
21
0.958543
0
LINE
8
BLACK
6
CONTINUOUS
10
3.14587
20
0.958543
11
3.14587
21
0.898543
0
LINE
8
BLACK
6
CONTINUOUS
10
2.21453
20
0.97216
11
2.21741
21
0.97024
0
LINE
8
BLACK
6
CONTINUOUS
10
2.21741
20
0.97024
11
2.21933
21
0.967366
0
LINE
8
BLACK
6
CONTINUOUS
10
2.21933
20
0.967366
11
2.22
21
0.963976
0
LINE
8
BLACK
6
CONTINUOUS
10
2.22
20
0.963976
11
2.22
21
0.944291
0
LINE
8
BLACK
6
CONTINUOUS
10
2.22
20
0.944291
11
2.21933
21
0.940901
0
LINE
8
BLACK
6
CONTINUOUS
10
2.21933
20
0.940901
11
2.21741
21
0.938028
0
LINE
8
BLACK
6
CONTINUOUS
10
2.21741
20
0.938028
11
2.21453
21
0.936107
0
LINE
8
BLACK
6
CONTINUOUS
10
2.21453
20
0.936107
11
2.21114
21
0.935433
0
LINE
8
BLACK
6
CONTINUOUS
10
2.21114
20
0.935433
11
2.19343
21
0.935433
0
LINE
8
BLACK
6
CONTINUOUS
10
2.19343
20
0.935433
11
2.19004
21
0.936107
0
LINE
8
BLACK
6
CONTINUOUS
10
2.19004
20
0.936107
11
2.18716
21
0.938028
0
LINE
8
BLACK
6
CONTINUOUS
10
2.18716
20
0.938028
11
2.18524
21
0.940901
0
LINE
8
BLACK
6
CONTINUOUS
10
2.18524
20
0.940901
11
2.18457
21
0.944291
0
LINE
8
BLACK
6
CONTINUOUS
10
2.18457
20
0.944291
11
2.18457
21
0.963976
0
LINE
8
BLACK
6
CONTINUOUS
10
2.18457
20
0.963976
11
2.18524
21
0.967366
0
LINE
8
BLACK
6
CONTINUOUS
10
2.18524
20
0.967366
11
2.18716
21
0.97024
0
LINE
8
BLACK
6
CONTINUOUS
10
2.18716
20
0.97024
11
2.19004
21
0.97216
0
LINE
8
BLACK
6
CONTINUOUS
10
2.19004
20
0.97216
11
2.19343
21
0.972835
0
LINE
8
BLACK
6
CONTINUOUS
10
2.19343
20
0.972835
11
2.21114
21
0.972835
0
LINE
8
BLACK
6
CONTINUOUS
10
2.21114
20
0.972835
11
2.21453
21
0.97216
0
LINE
8
BLACK
6
CONTINUOUS
10
2.27556
20
0.97216
11
2.27843
21
0.97024
0
LINE
8
BLACK
6
CONTINUOUS
10
2.27843
20
0.97024
11
2.28035
21
0.967366
0
LINE
8
BLACK
6
CONTINUOUS
10
2.28035
20
0.967366
11
2.28102
21
0.963976
0
LINE
8
BLACK
6
CONTINUOUS
10
2.28102
20
0.963976
11
2.28102
21
0.944291
0
LINE
8
BLACK
6
CONTINUOUS
10
2.28102
20
0.944291
11
2.28035
21
0.940901
0
LINE
8
BLACK
6
CONTINUOUS
10
2.28035
20
0.940901
11
2.27843
21
0.938028
0
LINE
8
BLACK
6
CONTINUOUS
10
2.27843
20
0.938028
11
2.27556
21
0.936107
0
LINE
8
BLACK
6
CONTINUOUS
10
2.27556
20
0.936107
11
2.27217
21
0.935433
0
LINE
8
BLACK
6
CONTINUOUS
10
2.27217
20
0.935433
11
2.25445
21
0.935433
0
LINE
8
BLACK
6
CONTINUOUS
10
2.25445
20
0.935433
11
2.25106
21
0.936107
0
LINE
8
BLACK
6
CONTINUOUS
10
2.25106
20
0.936107
11
2.24819
21
0.938028
0
LINE
8
BLACK
6
CONTINUOUS
10
2.24819
20
0.938028
11
2.24626
21
0.940901
0
LINE
8
BLACK
6
CONTINUOUS
10
2.24626
20
0.940901
11
2.24559
21
0.944291
0
LINE
8
BLACK
6
CONTINUOUS
10
2.24559
20
0.944291
11
2.24559
21
0.963976
0
LINE
8
BLACK
6
CONTINUOUS
10
2.24559
20
0.963976
11
2.24626
21
0.967366
0
LINE
8
BLACK
6
CONTINUOUS
10
2.24626
20
0.967366
11
2.24819
21
0.97024
0
LINE
8
BLACK
6
CONTINUOUS
10
2.24819
20
0.97024
11
2.25106
21
0.97216
0
LINE
8
BLACK
6
CONTINUOUS
10
2.25106
20
0.97216
11
2.25445
21
0.972835
0
LINE
8
BLACK
6
CONTINUOUS
10
2.25445
20
0.972835
11
2.27217
21
0.972835
0
LINE
8
BLACK
6
CONTINUOUS
10
2.27217
20
0.972835
11
2.27556
21
0.97216
0
LINE
8
BLACK
6
CONTINUOUS
10
2.37241
20
0.97216
11
2.37528
21
0.97024
0
LINE
8
BLACK
6
CONTINUOUS
10
2.37528
20
0.97024
11
2.3772
21
0.967366
0
LINE
8
BLACK
6
CONTINUOUS
10
2.3772
20
0.967366
11
2.37787
21
0.963976
0
LINE
8
BLACK
6
CONTINUOUS
10
2.37787
20
0.963976
11
2.37787
21
0.944291
0
LINE
8
BLACK
6
CONTINUOUS
10
2.37787
20
0.944291
11
2.3772
21
0.940901
0
LINE
8
BLACK
6
CONTINUOUS
10
2.3772
20
0.940901
11
2.37528
21
0.938028
0
LINE
8
BLACK
6
CONTINUOUS
10
2.37528
20
0.938028
11
2.37241
21
0.936107
0
LINE
8
BLACK
6
CONTINUOUS
10
2.37241
20
0.936107
11
2.36902
21
0.935433
0
LINE
8
BLACK
6
CONTINUOUS
10
2.36902
20
0.935433
11
2.3513
21
0.935433
0
LINE
8
BLACK
6
CONTINUOUS
10
2.3513
20
0.935433
11
2.34791
21
0.936107
0
LINE
8
BLACK
6
CONTINUOUS
10
2.34791
20
0.936107
11
2.34504
21
0.938028
0
LINE
8
BLACK
6
CONTINUOUS
10
2.34504
20
0.938028
11
2.34312
21
0.940901
0
LINE
8
BLACK
6
CONTINUOUS
10
2.34312
20
0.940901
11
2.34244
21
0.944291
0
LINE
8
BLACK
6
CONTINUOUS
10
2.34244
20
0.944291
11
2.34244
21
0.963976
0
LINE
8
BLACK
6
CONTINUOUS
10
2.34244
20
0.963976
11
2.34312
21
0.967366
0
LINE
8
BLACK
6
CONTINUOUS
10
2.34312
20
0.967366
11
2.34504
21
0.97024
0
LINE
8
BLACK
6
CONTINUOUS
10
2.34504
20
0.97024
11
2.34791
21
0.97216
0
LINE
8
BLACK
6
CONTINUOUS
10
2.34791
20
0.97216
11
2.3513
21
0.972835
0
LINE
8
BLACK
6
CONTINUOUS
10
2.3513
20
0.972835
11
2.36902
21
0.972835
0
LINE
8
BLACK
6
CONTINUOUS
10
2.36902
20
0.972835
11
2.37241
21
0.97216
0
LINE
8
BLACK
6
CONTINUOUS
10
2.43343
20
0.97216
11
2.4363
21
0.97024
0
LINE
8
BLACK
6
CONTINUOUS
10
2.4363
20
0.97024
11
2.43822
21
0.967366
0
LINE
8
BLACK
6
CONTINUOUS
10
2.43822
20
0.967366
11
2.4389
21
0.963976
0
LINE
8
BLACK
6
CONTINUOUS
10
2.4389
20
0.963976
11
2.4389
21
0.944291
0
LINE
8
BLACK
6
CONTINUOUS
10
2.4389
20
0.944291
11
2.43822
21
0.940901
0
LINE
8
BLACK
6
CONTINUOUS
10
2.43822
20
0.940901
11
2.4363
21
0.938028
0
LINE
8
BLACK
6
CONTINUOUS
10
2.4363
20
0.938028
11
2.43343
21
0.936107
0
LINE
8
BLACK
6
CONTINUOUS
10
2.43343
20
0.936107
11
2.43004
21
0.935433
0
LINE
8
BLACK
6
CONTINUOUS
10
2.43004
20
0.935433
11
2.41232
21
0.935433
0
LINE
8
BLACK
6
CONTINUOUS
10
2.41232
20
0.935433
11
2.40893
21
0.936107
0
LINE
8
BLACK
6
CONTINUOUS
10
2.40893
20
0.936107
11
2.40606
21
0.938028
0
LINE
8
BLACK
6
CONTINUOUS
10
2.40606
20
0.938028
11
2.40414
21
0.940901
0
LINE
8
BLACK
6
CONTINUOUS
10
2.40414
20
0.940901
11
2.40346
21
0.944291
0
LINE
8
BLACK
6
CONTINUOUS
10
2.40346
20
0.944291
11
2.40346
21
0.963976
0
LINE
8
BLACK
6
CONTINUOUS
10
2.40346
20
0.963976
11
2.40414
21
0.967366
0
LINE
8
BLACK
6
CONTINUOUS
10
2.40414
20
0.967366
11
2.40606
21
0.97024
0
LINE
8
BLACK
6
CONTINUOUS
10
2.40606
20
0.97024
11
2.40893
21
0.97216
0
LINE
8
BLACK
6
CONTINUOUS
10
2.40893
20
0.97216
11
2.41232
21
0.972835
0
LINE
8
BLACK
6
CONTINUOUS
10
2.41232
20
0.972835
11
2.43004
21
0.972835
0
LINE
8
BLACK
6
CONTINUOUS
10
2.43004
20
0.972835
11
2.43343
21
0.97216
0
LINE
8
BLACK
6
CONTINUOUS
10
2.53028
20
0.97216
11
2.53315
21
0.97024
0
LINE
8
BLACK
6
CONTINUOUS
10
2.53315
20
0.97024
11
2.53507
21
0.967366
0
LINE
8
BLACK
6
CONTINUOUS
10
2.53507
20
0.967366
11
2.53575
21
0.963976
0
LINE
8
BLACK
6
CONTINUOUS
10
2.53575
20
0.963976
11
2.53575
21
0.944291
0
LINE
8
BLACK
6
CONTINUOUS
10
2.53575
20
0.944291
11
2.53507
21
0.940901
0
LINE
8
BLACK
6
CONTINUOUS
10
2.53507
20
0.940901
11
2.53315
21
0.938028
0
LINE
8
BLACK
6
CONTINUOUS
10
2.53315
20
0.938028
11
2.53028
21
0.936107
0
LINE
8
BLACK
6
CONTINUOUS
10
2.53028
20
0.936107
11
2.52689
21
0.935433
0
LINE
8
BLACK
6
CONTINUOUS
10
2.52689
20
0.935433
11
2.50917
21
0.935433
0
LINE
8
BLACK
6
CONTINUOUS
10
2.50917
20
0.935433
11
2.50578
21
0.936107
0
LINE
8
BLACK
6
CONTINUOUS
10
2.50578
20
0.936107
11
2.50291
21
0.938028
0
LINE
8
BLACK
6
CONTINUOUS
10
2.50291
20
0.938028
11
2.50099
21
0.940901
0
LINE
8
BLACK
6
CONTINUOUS
10
2.50099
20
0.940901
11
2.50031
21
0.944291
0
LINE
8
BLACK
6
CONTINUOUS
10
2.50031
20
0.944291
11
2.50031
21
0.963976
0
LINE
8
BLACK
6
CONTINUOUS
10
2.50031
20
0.963976
11
2.50099
21
0.967366
0
LINE
8
BLACK
6
CONTINUOUS
10
2.50099
20
0.967366
11
2.50291
21
0.97024
0
LINE
8
BLACK
6
CONTINUOUS
10
2.50291
20
0.97024
11
2.50578
21
0.97216
0
LINE
8
BLACK
6
CONTINUOUS
10
2.50578
20
0.97216
11
2.50917
21
0.972835
0
LINE
8
BLACK
6
CONTINUOUS
10
2.50917
20
0.972835
11
2.52689
21
0.972835
0
LINE
8
BLACK
6
CONTINUOUS
10
2.52689
20
0.972835
11
2.53028
21
0.97216
0
LINE
8
BLACK
6
CONTINUOUS
10
2.5913
20
0.97216
11
2.59418
21
0.97024
0
LINE
8
BLACK
6
CONTINUOUS
10
2.59418
20
0.97024
11
2.5961
21
0.967366
0
LINE
8
BLACK
6
CONTINUOUS
10
2.5961
20
0.967366
11
2.59677
21
0.963976
0
LINE
8
BLACK
6
CONTINUOUS
10
2.59677
20
0.963976
11
2.59677
21
0.944291
0
LINE
8
BLACK
6
CONTINUOUS
10
2.59677
20
0.944291
11
2.5961
21
0.940901
0
LINE
8
BLACK
6
CONTINUOUS
10
2.5961
20
0.940901
11
2.59418
21
0.938028
0
LINE
8
BLACK
6
CONTINUOUS
10
2.59418
20
0.938028
11
2.5913
21
0.936107
0
LINE
8
BLACK
6
CONTINUOUS
10
2.5913
20
0.936107
11
2.58791
21
0.935433
0
LINE
8
BLACK
6
CONTINUOUS
10
2.58791
20
0.935433
11
2.5702
21
0.935433
0
LINE
8
BLACK
6
CONTINUOUS
10
2.5702
20
0.935433
11
2.56681
21
0.936107
0
LINE
8
BLACK
6
CONTINUOUS
10
2.56681
20
0.936107
11
2.56393
21
0.938028
0
LINE
8
BLACK
6
CONTINUOUS
10
2.56393
20
0.938028
11
2.56201
21
0.940901
0
LINE
8
BLACK
6
CONTINUOUS
10
2.56201
20
0.940901
11
2.56134
21
0.944291
0
LINE
8
BLACK
6
CONTINUOUS
10
2.56134
20
0.944291
11
2.56134
21
0.963976
0
LINE
8
BLACK
6
CONTINUOUS
10
2.56134
20
0.963976
11
2.56201
21
0.967366
0
LINE
8
BLACK
6
CONTINUOUS
10
2.56201
20
0.967366
11
2.56393
21
0.97024
0
LINE
8
BLACK
6
CONTINUOUS
10
2.56393
20
0.97024
11
2.56681
21
0.97216
0
LINE
8
BLACK
6
CONTINUOUS
10
2.56681
20
0.97216
11
2.5702
21
0.972835
0
LINE
8
BLACK
6
CONTINUOUS
10
2.5702
20
0.972835
11
2.58791
21
0.972835
0
LINE
8
BLACK
6
CONTINUOUS
10
2.58791
20
0.972835
11
2.5913
21
0.97216
0
LINE
8
BLACK
6
CONTINUOUS
10
2.68482
20
0.972235
11
2.68738
21
0.970528
0
LINE
8
BLACK
6
CONTINUOUS
10
2.68738
20
0.970528
11
2.68909
21
0.967974
0
LINE
8
BLACK
6
CONTINUOUS
10
2.68909
20
0.967974
11
2.68969
21
0.964961
0
LINE
8
BLACK
6
CONTINUOUS
10
2.68969
20
0.964961
11
2.68969
21
0.943307
0
LINE
8
BLACK
6
CONTINUOUS
10
2.68969
20
0.943307
11
2.68909
21
0.940294
0
LINE
8
BLACK
6
CONTINUOUS
10
2.68909
20
0.940294
11
2.68738
21
0.937739
0
LINE
8
BLACK
6
CONTINUOUS
10
2.68738
20
0.937739
11
2.68482
21
0.936032
0
LINE
8
BLACK
6
CONTINUOUS
10
2.68482
20
0.936032
11
2.68181
21
0.935433
0
LINE
8
BLACK
6
CONTINUOUS
10
2.68181
20
0.935433
11
2.66606
21
0.935433
0
LINE
8
BLACK
6
CONTINUOUS
10
2.66606
20
0.935433
11
2.66305
21
0.936032
0
LINE
8
BLACK
6
CONTINUOUS
10
2.66305
20
0.936032
11
2.6605
21
0.937739
0
LINE
8
BLACK
6
CONTINUOUS
10
2.6605
20
0.937739
11
2.65879
21
0.940294
0
LINE
8
BLACK
6
CONTINUOUS
10
2.65879
20
0.940294
11
2.65819
21
0.943307
0
LINE
8
BLACK
6
CONTINUOUS
10
2.65819
20
0.943307
11
2.65819
21
0.964961
0
LINE
8
BLACK
6
CONTINUOUS
10
2.65819
20
0.964961
11
2.65879
21
0.967974
0
LINE
8
BLACK
6
CONTINUOUS
10
2.65879
20
0.967974
11
2.6605
21
0.970528
0
LINE
8
BLACK
6
CONTINUOUS
10
2.6605
20
0.970528
11
2.66305
21
0.972235
0
LINE
8
BLACK
6
CONTINUOUS
10
2.66305
20
0.972235
11
2.66606
21
0.972835
0
LINE
8
BLACK
6
CONTINUOUS
10
2.66606
20
0.972835
11
2.68181
21
0.972835
0
LINE
8
BLACK
6
CONTINUOUS
10
2.68181
20
0.972835
11
2.68482
21
0.972235
0
LINE
8
BLACK
6
CONTINUOUS
10
2.74978
20
0.972235
11
2.75234
21
0.970528
0
LINE
8
BLACK
6
CONTINUOUS
10
2.75234
20
0.970528
11
2.75405
21
0.967974
0
LINE
8
BLACK
6
CONTINUOUS
10
2.75405
20
0.967974
11
2.75465
21
0.964961
0
LINE
8
BLACK
6
CONTINUOUS
10
2.75465
20
0.964961
11
2.75465
21
0.943307
0
LINE
8
BLACK
6
CONTINUOUS
10
2.75465
20
0.943307
11
2.75405
21
0.940294
0
LINE
8
BLACK
6
CONTINUOUS
10
2.75405
20
0.940294
11
2.75234
21
0.937739
0
LINE
8
BLACK
6
CONTINUOUS
10
2.75234
20
0.937739
11
2.74978
21
0.936032
0
LINE
8
BLACK
6
CONTINUOUS
10
2.74978
20
0.936032
11
2.74677
21
0.935433
0
LINE
8
BLACK
6
CONTINUOUS
10
2.74677
20
0.935433
11
2.73102
21
0.935433
0
LINE
8
BLACK
6
CONTINUOUS
10
2.73102
20
0.935433
11
2.72801
21
0.936032
0
LINE
8
BLACK
6
CONTINUOUS
10
2.72801
20
0.936032
11
2.72546
21
0.937739
0
LINE
8
BLACK
6
CONTINUOUS
10
2.72546
20
0.937739
11
2.72375
21
0.940294
0
LINE
8
BLACK
6
CONTINUOUS
10
2.72375
20
0.940294
11
2.72315
21
0.943307
0
LINE
8
BLACK
6
CONTINUOUS
10
2.72315
20
0.943307
11
2.72315
21
0.964961
0
LINE
8
BLACK
6
CONTINUOUS
10
2.72315
20
0.964961
11
2.72375
21
0.967974
0
LINE
8
BLACK
6
CONTINUOUS
10
2.72375
20
0.967974
11
2.72546
21
0.970528
0
LINE
8
BLACK
6
CONTINUOUS
10
2.72546
20
0.970528
11
2.72801
21
0.972235
0
LINE
8
BLACK
6
CONTINUOUS
10
2.72801
20
0.972235
11
2.73102
21
0.972835
0
LINE
8
BLACK
6
CONTINUOUS
10
2.73102
20
0.972835
11
2.74677
21
0.972835
0
LINE
8
BLACK
6
CONTINUOUS
10
2.74677
20
0.972835
11
2.74978
21
0.972235
0
LINE
8
BLACK
6
CONTINUOUS
10
2.8427
20
0.972235
11
2.84525
21
0.970528
0
LINE
8
BLACK
6
CONTINUOUS
10
2.84525
20
0.970528
11
2.84696
21
0.967974
0
LINE
8
BLACK
6
CONTINUOUS
10
2.84696
20
0.967974
11
2.84756
21
0.964961
0
LINE
8
BLACK
6
CONTINUOUS
10
2.84756
20
0.964961
11
2.84756
21
0.943307
0
LINE
8
BLACK
6
CONTINUOUS
10
2.84756
20
0.943307
11
2.84696
21
0.940294
0
LINE
8
BLACK
6
CONTINUOUS
10
2.84696
20
0.940294
11
2.84525
21
0.937739
0
LINE
8
BLACK
6
CONTINUOUS
10
2.84525
20
0.937739
11
2.8427
21
0.936032
0
LINE
8
BLACK
6
CONTINUOUS
10
2.8427
20
0.936032
11
2.83969
21
0.935433
0
LINE
8
BLACK
6
CONTINUOUS
10
2.83969
20
0.935433
11
2.82394
21
0.935433
0
LINE
8
BLACK
6
CONTINUOUS
10
2.82394
20
0.935433
11
2.82092
21
0.936032
0
LINE
8
BLACK
6
CONTINUOUS
10
2.82092
20
0.936032
11
2.81837
21
0.937739
0
LINE
8
BLACK
6
CONTINUOUS
10
2.81837
20
0.937739
11
2.81666
21
0.940294
0
LINE
8
BLACK
6
CONTINUOUS
10
2.81666
20
0.940294
11
2.81606
21
0.943307
0
LINE
8
BLACK
6
CONTINUOUS
10
2.81606
20
0.943307
11
2.81606
21
0.964961
0
LINE
8
BLACK
6
CONTINUOUS
10
2.81606
20
0.964961
11
2.81666
21
0.967974
0
LINE
8
BLACK
6
CONTINUOUS
10
2.81666
20
0.967974
11
2.81837
21
0.970528
0
LINE
8
BLACK
6
CONTINUOUS
10
2.81837
20
0.970528
11
2.82092
21
0.972235
0
LINE
8
BLACK
6
CONTINUOUS
10
2.82092
20
0.972235
11
2.82394
21
0.972835
0
LINE
8
BLACK
6
CONTINUOUS
10
2.82394
20
0.972835
11
2.83969
21
0.972835
0
LINE
8
BLACK
6
CONTINUOUS
10
2.83969
20
0.972835
11
2.8427
21
0.972235
0
LINE
8
BLACK
6
CONTINUOUS
10
2.90766
20
0.972235
11
2.91021
21
0.970528
0
LINE
8
BLACK
6
CONTINUOUS
10
2.91021
20
0.970528
11
2.91192
21
0.967974
0
LINE
8
BLACK
6
CONTINUOUS
10
2.91192
20
0.967974
11
2.91252
21
0.964961
0
LINE
8
BLACK
6
CONTINUOUS
10
2.91252
20
0.964961
11
2.91252
21
0.943307
0
LINE
8
BLACK
6
CONTINUOUS
10
2.91252
20
0.943307
11
2.91192
21
0.940294
0
LINE
8
BLACK
6
CONTINUOUS
10
2.91192
20
0.940294
11
2.91021
21
0.937739
0
LINE
8
BLACK
6
CONTINUOUS
10
2.91021
20
0.937739
11
2.90766
21
0.936032
0
LINE
8
BLACK
6
CONTINUOUS
10
2.90766
20
0.936032
11
2.90465
21
0.935433
0
LINE
8
BLACK
6
CONTINUOUS
10
2.90465
20
0.935433
11
2.8889
21
0.935433
0
LINE
8
BLACK
6
CONTINUOUS
10
2.8889
20
0.935433
11
2.88588
21
0.936032
0
LINE
8
BLACK
6
CONTINUOUS
10
2.88588
20
0.936032
11
2.88333
21
0.937739
0
LINE
8
BLACK
6
CONTINUOUS
10
2.88333
20
0.937739
11
2.88162
21
0.940294
0
LINE
8
BLACK
6
CONTINUOUS
10
2.88162
20
0.940294
11
2.88102
21
0.943307
0
LINE
8
BLACK
6
CONTINUOUS
10
2.88102
20
0.943307
11
2.88102
21
0.964961
0
LINE
8
BLACK
6
CONTINUOUS
10
2.88102
20
0.964961
11
2.88162
21
0.967974
0
LINE
8
BLACK
6
CONTINUOUS
10
2.88162
20
0.967974
11
2.88333
21
0.970528
0
LINE
8
BLACK
6
CONTINUOUS
10
2.88333
20
0.970528
11
2.88588
21
0.972235
0
LINE
8
BLACK
6
CONTINUOUS
10
2.88588
20
0.972235
11
2.8889
21
0.972835
0
LINE
8
BLACK
6
CONTINUOUS
10
2.8889
20
0.972835
11
2.90465
21
0.972835
0
LINE
8
BLACK
6
CONTINUOUS
10
2.90465
20
0.972835
11
2.90766
21
0.972235
0
LINE
8
BLACK
6
CONTINUOUS
10
3.29214
20
1.01057
11
3.29406
21
1.00929
0
LINE
8
BLACK
6
CONTINUOUS
10
3.29406
20
1.00929
11
3.29534
21
1.00738
0
LINE
8
BLACK
6
CONTINUOUS
10
3.29534
20
1.00738
11
3.29579
21
1.00512
0
LINE
8
BLACK
6
CONTINUOUS
10
3.29579
20
1.00512
11
3.29579
21
0.993307
0
LINE
8
BLACK
6
CONTINUOUS
10
3.29579
20
0.993307
11
3.29534
21
0.991047
0
LINE
8
BLACK
6
CONTINUOUS
10
3.29534
20
0.991047
11
3.29406
21
0.989131
0
LINE
8
BLACK
6
CONTINUOUS
10
3.29406
20
0.989131
11
3.29214
21
0.987851
0
LINE
8
BLACK
6
CONTINUOUS
10
3.29214
20
0.987851
11
3.28988
21
0.987402
0
LINE
8
BLACK
6
CONTINUOUS
10
3.28988
20
0.987402
11
3.22492
21
0.987402
0
LINE
8
BLACK
6
CONTINUOUS
10
3.22492
20
0.987402
11
3.22266
21
0.987851
0
LINE
8
BLACK
6
CONTINUOUS
10
3.22266
20
0.987851
11
3.22075
21
0.989131
0
LINE
8
BLACK
6
CONTINUOUS
10
3.22075
20
0.989131
11
3.21947
21
0.991047
0
LINE
8
BLACK
6
CONTINUOUS
10
3.21947
20
0.991047
11
3.21902
21
0.993307
0
LINE
8
BLACK
6
CONTINUOUS
10
3.21902
20
0.993307
11
3.21902
21
1.00512
0
LINE
8
BLACK
6
CONTINUOUS
10
3.21902
20
1.00512
11
3.21947
21
1.00738
0
LINE
8
BLACK
6
CONTINUOUS
10
3.21947
20
1.00738
11
3.22075
21
1.00929
0
LINE
8
BLACK
6
CONTINUOUS
10
3.22075
20
1.00929
11
3.22266
21
1.01057
0
LINE
8
BLACK
6
CONTINUOUS
10
3.22266
20
1.01057
11
3.22492
21
1.01102
0
LINE
8
BLACK
6
CONTINUOUS
10
3.22492
20
1.01102
11
3.28988
21
1.01102
0
LINE
8
BLACK
6
CONTINUOUS
10
3.28988
20
1.01102
11
3.29214
21
1.01057
0
LINE
8
BLACK
6
CONTINUOUS
10
3.48702
20
1.01057
11
3.48894
21
1.00929
0
LINE
8
BLACK
6
CONTINUOUS
10
3.48894
20
1.00929
11
3.49022
21
1.00738
0
LINE
8
BLACK
6
CONTINUOUS
10
3.49022
20
1.00738
11
3.49067
21
1.00512
0
LINE
8
BLACK
6
CONTINUOUS
10
3.49067
20
1.00512
11
3.49067
21
0.993307
0
LINE
8
BLACK
6
CONTINUOUS
10
3.49067
20
0.993307
11
3.49022
21
0.991047
0
LINE
8
BLACK
6
CONTINUOUS
10
3.49022
20
0.991047
11
3.48894
21
0.989131
0
LINE
8
BLACK
6
CONTINUOUS
10
3.48894
20
0.989131
11
3.48702
21
0.987851
0
LINE
8
BLACK
6
CONTINUOUS
10
3.48702
20
0.987851
11
3.48476
21
0.987402
0
LINE
8
BLACK
6
CONTINUOUS
10
3.48476
20
0.987402
11
3.4198
21
0.987402
0
LINE
8
BLACK
6
CONTINUOUS
10
3.4198
20
0.987402
11
3.41754
21
0.987851
0
LINE
8
BLACK
6
CONTINUOUS
10
3.41754
20
0.987851
11
3.41563
21
0.989131
0
LINE
8
BLACK
6
CONTINUOUS
10
3.41563
20
0.989131
11
3.41435
21
0.991047
0
LINE
8
BLACK
6
CONTINUOUS
10
3.41435
20
0.991047
11
3.4139
21
0.993307
0
LINE
8
BLACK
6
CONTINUOUS
10
3.4139
20
0.993307
11
3.4139
21
1.00512
0
LINE
8
BLACK
6
CONTINUOUS
10
3.4139
20
1.00512
11
3.41435
21
1.00738
0
LINE
8
BLACK
6
CONTINUOUS
10
3.41435
20
1.00738
11
3.41563
21
1.00929
0
LINE
8
BLACK
6
CONTINUOUS
10
3.41563
20
1.00929
11
3.41754
21
1.01057
0
LINE
8
BLACK
6
CONTINUOUS
10
3.41754
20
1.01057
11
3.4198
21
1.01102
0
LINE
8
BLACK
6
CONTINUOUS
10
3.4198
20
1.01102
11
3.48476
21
1.01102
0
LINE
8
BLACK
6
CONTINUOUS
10
3.48476
20
1.01102
11
3.48702
21
1.01057
0
LINE
8
BLACK
6
CONTINUOUS
10
3.04587
20
0.998543
11
2.98587
21
0.998543
0
LINE
8
BLACK
6
CONTINUOUS
10
2.98587
20
0.998543
11
2.98587
21
1.05854
0
LINE
8
BLACK
6
CONTINUOUS
10
2.98587
20
1.05854
11
3.04587
21
1.05854
0
LINE
8
BLACK
6
CONTINUOUS
10
3.04587
20
1.05854
11
3.04587
21
0.998543
0
LINE
8
BLACK
6
CONTINUOUS
10
3.14587
20
0.998543
11
3.08587
21
0.998543
0
LINE
8
BLACK
6
CONTINUOUS
10
3.08587
20
0.998543
11
3.08587
21
1.05854
0
LINE
8
BLACK
6
CONTINUOUS
10
3.08587
20
1.05854
11
3.14587
21
1.05854
0
LINE
8
BLACK
6
CONTINUOUS
10
3.14587
20
1.05854
11
3.14587
21
0.998543
0
LINE
8
BLACK
6
CONTINUOUS
10
2.21453
20
1.07098
11
2.21741
21
1.06906
0
LINE
8
BLACK
6
CONTINUOUS
10
2.21741
20
1.06906
11
2.21933
21
1.06619
0
LINE
8
BLACK
6
CONTINUOUS
10
2.21933
20
1.06619
11
2.22
21
1.0628
0
LINE
8
BLACK
6
CONTINUOUS
10
2.22
20
1.0628
11
2.22
21
1.04311
0
LINE
8
BLACK
6
CONTINUOUS
10
2.22
20
1.04311
11
2.21933
21
1.03972
0
LINE
8
BLACK
6
CONTINUOUS
10
2.21933
20
1.03972
11
2.21741
21
1.03685
0
LINE
8
BLACK
6
CONTINUOUS
10
2.21741
20
1.03685
11
2.21453
21
1.03493
0
LINE
8
BLACK
6
CONTINUOUS
10
2.21453
20
1.03493
11
2.21114
21
1.03425
0
LINE
8
BLACK
6
CONTINUOUS
10
2.21114
20
1.03425
11
2.19343
21
1.03425
0
LINE
8
BLACK
6
CONTINUOUS
10
2.19343
20
1.03425
11
2.19004
21
1.03493
0
LINE
8
BLACK
6
CONTINUOUS
10
2.19004
20
1.03493
11
2.18716
21
1.03685
0
LINE
8
BLACK
6
CONTINUOUS
10
2.18716
20
1.03685
11
2.18524
21
1.03972
0
LINE
8
BLACK
6
CONTINUOUS
10
2.18524
20
1.03972
11
2.18457
21
1.04311
0
LINE
8
BLACK
6
CONTINUOUS
10
2.18457
20
1.04311
11
2.18457
21
1.0628
0
LINE
8
BLACK
6
CONTINUOUS
10
2.18457
20
1.0628
11
2.18524
21
1.06619
0
LINE
8
BLACK
6
CONTINUOUS
10
2.18524
20
1.06619
11
2.18716
21
1.06906
0
LINE
8
BLACK
6
CONTINUOUS
10
2.18716
20
1.06906
11
2.19004
21
1.07098
0
LINE
8
BLACK
6
CONTINUOUS
10
2.19004
20
1.07098
11
2.19343
21
1.07165
0
LINE
8
BLACK
6
CONTINUOUS
10
2.19343
20
1.07165
11
2.21114
21
1.07165
0
LINE
8
BLACK
6
CONTINUOUS
10
2.21114
20
1.07165
11
2.21453
21
1.07098
0
LINE
8
BLACK
6
CONTINUOUS
10
2.27556
20
1.07098
11
2.27843
21
1.06906
0
LINE
8
BLACK
6
CONTINUOUS
10
2.27843
20
1.06906
11
2.28035
21
1.06619
0
LINE
8
BLACK
6
CONTINUOUS
10
2.28035
20
1.06619
11
2.28102
21
1.0628
0
LINE
8
BLACK
6
CONTINUOUS
10
2.28102
20
1.0628
11
2.28102
21
1.04311
0
LINE
8
BLACK
6
CONTINUOUS
10
2.28102
20
1.04311
11
2.28035
21
1.03972
0
LINE
8
BLACK
6
CONTINUOUS
10
2.28035
20
1.03972
11
2.27843
21
1.03685
0
LINE
8
BLACK
6
CONTINUOUS
10
2.27843
20
1.03685
11
2.27556
21
1.03493
0
LINE
8
BLACK
6
CONTINUOUS
10
2.27556
20
1.03493
11
2.27217
21
1.03425
0
LINE
8
BLACK
6
CONTINUOUS
10
2.27217
20
1.03425
11
2.25445
21
1.03425
0
LINE
8
BLACK
6
CONTINUOUS
10
2.25445
20
1.03425
11
2.25106
21
1.03493
0
LINE
8
BLACK
6
CONTINUOUS
10
2.25106
20
1.03493
11
2.24819
21
1.03685
0
LINE
8
BLACK
6
CONTINUOUS
10
2.24819
20
1.03685
11
2.24626
21
1.03972
0
LINE
8
BLACK
6
CONTINUOUS
10
2.24626
20
1.03972
11
2.24559
21
1.04311
0
LINE
8
BLACK
6
CONTINUOUS
10
2.24559
20
1.04311
11
2.24559
21
1.0628
0
LINE
8
BLACK
6
CONTINUOUS
10
2.24559
20
1.0628
11
2.24626
21
1.06619
0
LINE
8
BLACK
6
CONTINUOUS
10
2.24626
20
1.06619
11
2.24819
21
1.06906
0
LINE
8
BLACK
6
CONTINUOUS
10
2.24819
20
1.06906
11
2.25106
21
1.07098
0
LINE
8
BLACK
6
CONTINUOUS
10
2.25106
20
1.07098
11
2.25445
21
1.07165
0
LINE
8
BLACK
6
CONTINUOUS
10
2.25445
20
1.07165
11
2.27217
21
1.07165
0
LINE
8
BLACK
6
CONTINUOUS
10
2.27217
20
1.07165
11
2.27556
21
1.07098
0
LINE
8
BLACK
6
CONTINUOUS
10
2.37241
20
1.07098
11
2.37528
21
1.06906
0
LINE
8
BLACK
6
CONTINUOUS
10
2.37528
20
1.06906
11
2.3772
21
1.06619
0
LINE
8
BLACK
6
CONTINUOUS
10
2.3772
20
1.06619
11
2.37787
21
1.0628
0
LINE
8
BLACK
6
CONTINUOUS
10
2.37787
20
1.0628
11
2.37787
21
1.04311
0
LINE
8
BLACK
6
CONTINUOUS
10
2.37787
20
1.04311
11
2.3772
21
1.03972
0
LINE
8
BLACK
6
CONTINUOUS
10
2.3772
20
1.03972
11
2.37528
21
1.03685
0
LINE
8
BLACK
6
CONTINUOUS
10
2.37528
20
1.03685
11
2.37241
21
1.03493
0
LINE
8
BLACK
6
CONTINUOUS
10
2.37241
20
1.03493
11
2.36902
21
1.03425
0
LINE
8
BLACK
6
CONTINUOUS
10
2.36902
20
1.03425
11
2.3513
21
1.03425
0
LINE
8
BLACK
6
CONTINUOUS
10
2.3513
20
1.03425
11
2.34791
21
1.03493
0
LINE
8
BLACK
6
CONTINUOUS
10
2.34791
20
1.03493
11
2.34504
21
1.03685
0
LINE
8
BLACK
6
CONTINUOUS
10
2.34504
20
1.03685
11
2.34312
21
1.03972
0
LINE
8
BLACK
6
CONTINUOUS
10
2.34312
20
1.03972
11
2.34244
21
1.04311
0
LINE
8
BLACK
6
CONTINUOUS
10
2.34244
20
1.04311
11
2.34244
21
1.0628
0
LINE
8
BLACK
6
CONTINUOUS
10
2.34244
20
1.0628
11
2.34312
21
1.06619
0
LINE
8
BLACK
6
CONTINUOUS
10
2.34312
20
1.06619
11
2.34504
21
1.06906
0
LINE
8
BLACK
6
CONTINUOUS
10
2.34504
20
1.06906
11
2.34791
21
1.07098
0
LINE
8
BLACK
6
CONTINUOUS
10
2.34791
20
1.07098
11
2.3513
21
1.07165
0
LINE
8
BLACK
6
CONTINUOUS
10
2.3513
20
1.07165
11
2.36902
21
1.07165
0
LINE
8
BLACK
6
CONTINUOUS
10
2.36902
20
1.07165
11
2.37241
21
1.07098
0
LINE
8
BLACK
6
CONTINUOUS
10
2.43343
20
1.07098
11
2.4363
21
1.06906
0
LINE
8
BLACK
6
CONTINUOUS
10
2.4363
20
1.06906
11
2.43822
21
1.06619
0
LINE
8
BLACK
6
CONTINUOUS
10
2.43822
20
1.06619
11
2.4389
21
1.0628
0
LINE
8
BLACK
6
CONTINUOUS
10
2.4389
20
1.0628
11
2.4389
21
1.04311
0
LINE
8
BLACK
6
CONTINUOUS
10
2.4389
20
1.04311
11
2.43822
21
1.03972
0
LINE
8
BLACK
6
CONTINUOUS
10
2.43822
20
1.03972
11
2.4363
21
1.03685
0
LINE
8
BLACK
6
CONTINUOUS
10
2.4363
20
1.03685
11
2.43343
21
1.03493
0
LINE
8
BLACK
6
CONTINUOUS
10
2.43343
20
1.03493
11
2.43004
21
1.03425
0
LINE
8
BLACK
6
CONTINUOUS
10
2.43004
20
1.03425
11
2.41232
21
1.03425
0
LINE
8
BLACK
6
CONTINUOUS
10
2.41232
20
1.03425
11
2.40893
21
1.03493
0
LINE
8
BLACK
6
CONTINUOUS
10
2.40893
20
1.03493
11
2.40606
21
1.03685
0
LINE
8
BLACK
6
CONTINUOUS
10
2.40606
20
1.03685
11
2.40414
21
1.03972
0
LINE
8
BLACK
6
CONTINUOUS
10
2.40414
20
1.03972
11
2.40346
21
1.04311
0
LINE
8
BLACK
6
CONTINUOUS
10
2.40346
20
1.04311
11
2.40346
21
1.0628
0
LINE
8
BLACK
6
CONTINUOUS
10
2.40346
20
1.0628
11
2.40414
21
1.06619
0
LINE
8
BLACK
6
CONTINUOUS
10
2.40414
20
1.06619
11
2.40606
21
1.06906
0
LINE
8
BLACK
6
CONTINUOUS
10
2.40606
20
1.06906
11
2.40893
21
1.07098
0
LINE
8
BLACK
6
CONTINUOUS
10
2.40893
20
1.07098
11
2.41232
21
1.07165
0
LINE
8
BLACK
6
CONTINUOUS
10
2.41232
20
1.07165
11
2.43004
21
1.07165
0
LINE
8
BLACK
6
CONTINUOUS
10
2.43004
20
1.07165
11
2.43343
21
1.07098
0
LINE
8
BLACK
6
CONTINUOUS
10
2.53028
20
1.07098
11
2.53315
21
1.06906
0
LINE
8
BLACK
6
CONTINUOUS
10
2.53315
20
1.06906
11
2.53507
21
1.06619
0
LINE
8
BLACK
6
CONTINUOUS
10
2.53507
20
1.06619
11
2.53575
21
1.0628
0
LINE
8
BLACK
6
CONTINUOUS
10
2.53575
20
1.0628
11
2.53575
21
1.04311
0
LINE
8
BLACK
6
CONTINUOUS
10
2.53575
20
1.04311
11
2.53507
21
1.03972
0
LINE
8
BLACK
6
CONTINUOUS
10
2.53507
20
1.03972
11
2.53315
21
1.03685
0
LINE
8
BLACK
6
CONTINUOUS
10
2.53315
20
1.03685
11
2.53028
21
1.03493
0
LINE
8
BLACK
6
CONTINUOUS
10
2.53028
20
1.03493
11
2.52689
21
1.03425
0
LINE
8
BLACK
6
CONTINUOUS
10
2.52689
20
1.03425
11
2.50917
21
1.03425
0
LINE
8
BLACK
6
CONTINUOUS
10
2.50917
20
1.03425
11
2.50578
21
1.03493
0
LINE
8
BLACK
6
CONTINUOUS
10
2.50578
20
1.03493
11
2.50291
21
1.03685
0
LINE
8
BLACK
6
CONTINUOUS
10
2.50291
20
1.03685
11
2.50099
21
1.03972
0
LINE
8
BLACK
6
CONTINUOUS
10
2.50099
20
1.03972
11
2.50031
21
1.04311
0
LINE
8
BLACK
6
CONTINUOUS
10
2.50031
20
1.04311
11
2.50031
21
1.0628
0
LINE
8
BLACK
6
CONTINUOUS
10
2.50031
20
1.0628
11
2.50099
21
1.06619
0
LINE
8
BLACK
6
CONTINUOUS
10
2.50099
20
1.06619
11
2.50291
21
1.06906
0
LINE
8
BLACK
6
CONTINUOUS
10
2.50291
20
1.06906
11
2.50578
21
1.07098
0
LINE
8
BLACK
6
CONTINUOUS
10
2.50578
20
1.07098
11
2.50917
21
1.07165
0
LINE
8
BLACK
6
CONTINUOUS
10
2.50917
20
1.07165
11
2.52689
21
1.07165
0
LINE
8
BLACK
6
CONTINUOUS
10
2.52689
20
1.07165
11
2.53028
21
1.07098
0
LINE
8
BLACK
6
CONTINUOUS
10
2.5913
20
1.07098
11
2.59418
21
1.06906
0
LINE
8
BLACK
6
CONTINUOUS
10
2.59418
20
1.06906
11
2.5961
21
1.06619
0
LINE
8
BLACK
6
CONTINUOUS
10
2.5961
20
1.06619
11
2.59677
21
1.0628
0
LINE
8
BLACK
6
CONTINUOUS
10
2.59677
20
1.0628
11
2.59677
21
1.04311
0
LINE
8
BLACK
6
CONTINUOUS
10
2.59677
20
1.04311
11
2.5961
21
1.03972
0
LINE
8
BLACK
6
CONTINUOUS
10
2.5961
20
1.03972
11
2.59418
21
1.03685
0
LINE
8
BLACK
6
CONTINUOUS
10
2.59418
20
1.03685
11
2.5913
21
1.03493
0
LINE
8
BLACK
6
CONTINUOUS
10
2.5913
20
1.03493
11
2.58791
21
1.03425
0
LINE
8
BLACK
6
CONTINUOUS
10
2.58791
20
1.03425
11
2.5702
21
1.03425
0
LINE
8
BLACK
6
CONTINUOUS
10
2.5702
20
1.03425
11
2.56681
21
1.03493
0
LINE
8
BLACK
6
CONTINUOUS
10
2.56681
20
1.03493
11
2.56393
21
1.03685
0
LINE
8
BLACK
6
CONTINUOUS
10
2.56393
20
1.03685
11
2.56201
21
1.03972
0
LINE
8
BLACK
6
CONTINUOUS
10
2.56201
20
1.03972
11
2.56134
21
1.04311
0
LINE
8
BLACK
6
CONTINUOUS
10
2.56134
20
1.04311
11
2.56134
21
1.0628
0
LINE
8
BLACK
6
CONTINUOUS
10
2.56134
20
1.0628
11
2.56201
21
1.06619
0
LINE
8
BLACK
6
CONTINUOUS
10
2.56201
20
1.06619
11
2.56393
21
1.06906
0
LINE
8
BLACK
6
CONTINUOUS
10
2.56393
20
1.06906
11
2.56681
21
1.07098
0
LINE
8
BLACK
6
CONTINUOUS
10
2.56681
20
1.07098
11
2.5702
21
1.07165
0
LINE
8
BLACK
6
CONTINUOUS
10
2.5702
20
1.07165
11
2.58791
21
1.07165
0
LINE
8
BLACK
6
CONTINUOUS
10
2.58791
20
1.07165
11
2.5913
21
1.07098
0
LINE
8
BLACK
6
CONTINUOUS
10
2.68482
20
1.07105
11
2.68738
21
1.06935
0
LINE
8
BLACK
6
CONTINUOUS
10
2.68738
20
1.06935
11
2.68909
21
1.06679
0
LINE
8
BLACK
6
CONTINUOUS
10
2.68909
20
1.06679
11
2.68969
21
1.06378
0
LINE
8
BLACK
6
CONTINUOUS
10
2.68969
20
1.06378
11
2.68969
21
1.04213
0
LINE
8
BLACK
6
CONTINUOUS
10
2.68969
20
1.04213
11
2.68909
21
1.03911
0
LINE
8
BLACK
6
CONTINUOUS
10
2.68909
20
1.03911
11
2.68738
21
1.03656
0
LINE
8
BLACK
6
CONTINUOUS
10
2.68738
20
1.03656
11
2.68482
21
1.03485
0
LINE
8
BLACK
6
CONTINUOUS
10
2.68482
20
1.03485
11
2.68181
21
1.03425
0
LINE
8
BLACK
6
CONTINUOUS
10
2.68181
20
1.03425
11
2.66606
21
1.03425
0
LINE
8
BLACK
6
CONTINUOUS
10
2.66606
20
1.03425
11
2.66305
21
1.03485
0
LINE
8
BLACK
6
CONTINUOUS
10
2.66305
20
1.03485
11
2.6605
21
1.03656
0
LINE
8
BLACK
6
CONTINUOUS
10
2.6605
20
1.03656
11
2.65879
21
1.03911
0
LINE
8
BLACK
6
CONTINUOUS
10
2.65879
20
1.03911
11
2.65819
21
1.04213
0
LINE
8
BLACK
6
CONTINUOUS
10
2.65819
20
1.04213
11
2.65819
21
1.06378
0
LINE
8
BLACK
6
CONTINUOUS
10
2.65819
20
1.06378
11
2.65879
21
1.06679
0
LINE
8
BLACK
6
CONTINUOUS
10
2.65879
20
1.06679
11
2.6605
21
1.06935
0
LINE
8
BLACK
6
CONTINUOUS
10
2.6605
20
1.06935
11
2.66305
21
1.07105
0
LINE
8
BLACK
6
CONTINUOUS
10
2.66305
20
1.07105
11
2.66606
21
1.07165
0
LINE
8
BLACK
6
CONTINUOUS
10
2.66606
20
1.07165
11
2.68181
21
1.07165
0
LINE
8
BLACK
6
CONTINUOUS
10
2.68181
20
1.07165
11
2.68482
21
1.07105
0
LINE
8
BLACK
6
CONTINUOUS
10
2.74978
20
1.07105
11
2.75234
21
1.06935
0
LINE
8
BLACK
6
CONTINUOUS
10
2.75234
20
1.06935
11
2.75405
21
1.06679
0
LINE
8
BLACK
6
CONTINUOUS
10
2.75405
20
1.06679
11
2.75465
21
1.06378
0
LINE
8
BLACK
6
CONTINUOUS
10
2.75465
20
1.06378
11
2.75465
21
1.04213
0
LINE
8
BLACK
6
CONTINUOUS
10
2.75465
20
1.04213
11
2.75405
21
1.03911
0
LINE
8
BLACK
6
CONTINUOUS
10
2.75405
20
1.03911
11
2.75234
21
1.03656
0
LINE
8
BLACK
6
CONTINUOUS
10
2.75234
20
1.03656
11
2.74978
21
1.03485
0
LINE
8
BLACK
6
CONTINUOUS
10
2.74978
20
1.03485
11
2.74677
21
1.03425
0
LINE
8
BLACK
6
CONTINUOUS
10
2.74677
20
1.03425
11
2.73102
21
1.03425
0
LINE
8
BLACK
6
CONTINUOUS
10
2.73102
20
1.03425
11
2.72801
21
1.03485
0
LINE
8
BLACK
6
CONTINUOUS
10
2.72801
20
1.03485
11
2.72546
21
1.03656
0
LINE
8
BLACK
6
CONTINUOUS
10
2.72546
20
1.03656
11
2.72375
21
1.03911
0
LINE
8
BLACK
6
CONTINUOUS
10
2.72375
20
1.03911
11
2.72315
21
1.04213
0
LINE
8
BLACK
6
CONTINUOUS
10
2.72315
20
1.04213
11
2.72315
21
1.06378
0
LINE
8
BLACK
6
CONTINUOUS
10
2.72315
20
1.06378
11
2.72375
21
1.06679
0
LINE
8
BLACK
6
CONTINUOUS
10
2.72375
20
1.06679
11
2.72546
21
1.06935
0
LINE
8
BLACK
6
CONTINUOUS
10
2.72546
20
1.06935
11
2.72801
21
1.07105
0
LINE
8
BLACK
6
CONTINUOUS
10
2.72801
20
1.07105
11
2.73102
21
1.07165
0
LINE
8
BLACK
6
CONTINUOUS
10
2.73102
20
1.07165
11
2.74677
21
1.07165
0
LINE
8
BLACK
6
CONTINUOUS
10
2.74677
20
1.07165
11
2.74978
21
1.07105
0
LINE
8
BLACK
6
CONTINUOUS
10
2.8427
20
1.07105
11
2.84525
21
1.06935
0
LINE
8
BLACK
6
CONTINUOUS
10
2.84525
20
1.06935
11
2.84696
21
1.06679
0
LINE
8
BLACK
6
CONTINUOUS
10
2.84696
20
1.06679
11
2.84756
21
1.06378
0
LINE
8
BLACK
6
CONTINUOUS
10
2.84756
20
1.06378
11
2.84756
21
1.04213
0
LINE
8
BLACK
6
CONTINUOUS
10
2.84756
20
1.04213
11
2.84696
21
1.03911
0
LINE
8
BLACK
6
CONTINUOUS
10
2.84696
20
1.03911
11
2.84525
21
1.03656
0
LINE
8
BLACK
6
CONTINUOUS
10
2.84525
20
1.03656
11
2.8427
21
1.03485
0
LINE
8
BLACK
6
CONTINUOUS
10
2.8427
20
1.03485
11
2.83969
21
1.03425
0
LINE
8
BLACK
6
CONTINUOUS
10
2.83969
20
1.03425
11
2.82394
21
1.03425
0
LINE
8
BLACK
6
CONTINUOUS
10
2.82394
20
1.03425
11
2.82092
21
1.03485
0
LINE
8
BLACK
6
CONTINUOUS
10
2.82092
20
1.03485
11
2.81837
21
1.03656
0
LINE
8
BLACK
6
CONTINUOUS
10
2.81837
20
1.03656
11
2.81666
21
1.03911
0
LINE
8
BLACK
6
CONTINUOUS
10
2.81666
20
1.03911
11
2.81606
21
1.04213
0
LINE
8
BLACK
6
CONTINUOUS
10
2.81606
20
1.04213
11
2.81606
21
1.06378
0
LINE
8
BLACK
6
CONTINUOUS
10
2.81606
20
1.06378
11
2.81666
21
1.06679
0
LINE
8
BLACK
6
CONTINUOUS
10
2.81666
20
1.06679
11
2.81837
21
1.06935
0
LINE
8
BLACK
6
CONTINUOUS
10
2.81837
20
1.06935
11
2.82092
21
1.07105
0
LINE
8
BLACK
6
CONTINUOUS
10
2.82092
20
1.07105
11
2.82394
21
1.07165
0
LINE
8
BLACK
6
CONTINUOUS
10
2.82394
20
1.07165
11
2.83969
21
1.07165
0
LINE
8
BLACK
6
CONTINUOUS
10
2.83969
20
1.07165
11
2.8427
21
1.07105
0
LINE
8
BLACK
6
CONTINUOUS
10
2.90766
20
1.07105
11
2.91021
21
1.06935
0
LINE
8
BLACK
6
CONTINUOUS
10
2.91021
20
1.06935
11
2.91192
21
1.06679
0
LINE
8
BLACK
6
CONTINUOUS
10
2.91192
20
1.06679
11
2.91252
21
1.06378
0
LINE
8
BLACK
6
CONTINUOUS
10
2.91252
20
1.06378
11
2.91252
21
1.04213
0
LINE
8
BLACK
6
CONTINUOUS
10
2.91252
20
1.04213
11
2.91192
21
1.03911
0
LINE
8
BLACK
6
CONTINUOUS
10
2.91192
20
1.03911
11
2.91021
21
1.03656
0
LINE
8
BLACK
6
CONTINUOUS
10
2.91021
20
1.03656
11
2.90766
21
1.03485
0
LINE
8
BLACK
6
CONTINUOUS
10
2.90766
20
1.03485
11
2.90465
21
1.03425
0
LINE
8
BLACK
6
CONTINUOUS
10
2.90465
20
1.03425
11
2.8889
21
1.03425
0
LINE
8
BLACK
6
CONTINUOUS
10
2.8889
20
1.03425
11
2.88588
21
1.03485
0
LINE
8
BLACK
6
CONTINUOUS
10
2.88588
20
1.03485
11
2.88333
21
1.03656
0
LINE
8
BLACK
6
CONTINUOUS
10
2.88333
20
1.03656
11
2.88162
21
1.03911
0
LINE
8
BLACK
6
CONTINUOUS
10
2.88162
20
1.03911
11
2.88102
21
1.04213
0
LINE
8
BLACK
6
CONTINUOUS
10
2.88102
20
1.04213
11
2.88102
21
1.06378
0
LINE
8
BLACK
6
CONTINUOUS
10
2.88102
20
1.06378
11
2.88162
21
1.06679
0
LINE
8
BLACK
6
CONTINUOUS
10
2.88162
20
1.06679
11
2.88333
21
1.06935
0
LINE
8
BLACK
6
CONTINUOUS
10
2.88333
20
1.06935
11
2.88588
21
1.07105
0
LINE
8
BLACK
6
CONTINUOUS
10
2.88588
20
1.07105
11
2.8889
21
1.07165
0
LINE
8
BLACK
6
CONTINUOUS
10
2.8889
20
1.07165
11
2.90465
21
1.07165
0
LINE
8
BLACK
6
CONTINUOUS
10
2.90465
20
1.07165
11
2.90766
21
1.07105
0
LINE
8
BLACK
6
CONTINUOUS
10
3.29214
20
1.06057
11
3.29406
21
1.05929
0
LINE
8
BLACK
6
CONTINUOUS
10
3.29406
20
1.05929
11
3.29534
21
1.05738
0
LINE
8
BLACK
6
CONTINUOUS
10
3.29534
20
1.05738
11
3.29579
21
1.05512
0
LINE
8
BLACK
6
CONTINUOUS
10
3.29579
20
1.05512
11
3.29579
21
1.04331
0
LINE
8
BLACK
6
CONTINUOUS
10
3.29579
20
1.04331
11
3.29534
21
1.04105
0
LINE
8
BLACK
6
CONTINUOUS
10
3.29534
20
1.04105
11
3.29406
21
1.03913
0
LINE
8
BLACK
6
CONTINUOUS
10
3.29406
20
1.03913
11
3.29214
21
1.03785
0
LINE
8
BLACK
6
CONTINUOUS
10
3.29214
20
1.03785
11
3.28988
21
1.0374
0
LINE
8
BLACK
6
CONTINUOUS
10
3.28988
20
1.0374
11
3.22492
21
1.0374
0
LINE
8
BLACK
6
CONTINUOUS
10
3.22492
20
1.0374
11
3.22266
21
1.03785
0
LINE
8
BLACK
6
CONTINUOUS
10
3.22266
20
1.03785
11
3.22075
21
1.03913
0
LINE
8
BLACK
6
CONTINUOUS
10
3.22075
20
1.03913
11
3.21947
21
1.04105
0
LINE
8
BLACK
6
CONTINUOUS
10
3.21947
20
1.04105
11
3.21902
21
1.04331
0
LINE
8
BLACK
6
CONTINUOUS
10
3.21902
20
1.04331
11
3.21902
21
1.05512
0
LINE
8
BLACK
6
CONTINUOUS
10
3.21902
20
1.05512
11
3.21947
21
1.05738
0
LINE
8
BLACK
6
CONTINUOUS
10
3.21947
20
1.05738
11
3.22075
21
1.05929
0
LINE
8
BLACK
6
CONTINUOUS
10
3.22075
20
1.05929
11
3.22266
21
1.06057
0
LINE
8
BLACK
6
CONTINUOUS
10
3.22266
20
1.06057
11
3.22492
21
1.06102
0
LINE
8
BLACK
6
CONTINUOUS
10
3.22492
20
1.06102
11
3.28988
21
1.06102
0
LINE
8
BLACK
6
CONTINUOUS
10
3.28988
20
1.06102
11
3.29214
21
1.06057
0
LINE
8
BLACK
6
CONTINUOUS
10
3.48702
20
1.06057
11
3.48894
21
1.05929
0
LINE
8
BLACK
6
CONTINUOUS
10
3.48894
20
1.05929
11
3.49022
21
1.05738
0
LINE
8
BLACK
6
CONTINUOUS
10
3.49022
20
1.05738
11
3.49067
21
1.05512
0
LINE
8
BLACK
6
CONTINUOUS
10
3.49067
20
1.05512
11
3.49067
21
1.04331
0
LINE
8
BLACK
6
CONTINUOUS
10
3.49067
20
1.04331
11
3.49022
21
1.04105
0
LINE
8
BLACK
6
CONTINUOUS
10
3.49022
20
1.04105
11
3.48894
21
1.03913
0
LINE
8
BLACK
6
CONTINUOUS
10
3.48894
20
1.03913
11
3.48702
21
1.03785
0
LINE
8
BLACK
6
CONTINUOUS
10
3.48702
20
1.03785
11
3.48476
21
1.0374
0
LINE
8
BLACK
6
CONTINUOUS
10
3.48476
20
1.0374
11
3.4198
21
1.0374
0
LINE
8
BLACK
6
CONTINUOUS
10
3.4198
20
1.0374
11
3.41754
21
1.03785
0
LINE
8
BLACK
6
CONTINUOUS
10
3.41754
20
1.03785
11
3.41563
21
1.03913
0
LINE
8
BLACK
6
CONTINUOUS
10
3.41563
20
1.03913
11
3.41435
21
1.04105
0
LINE
8
BLACK
6
CONTINUOUS
10
3.41435
20
1.04105
11
3.4139
21
1.04331
0
LINE
8
BLACK
6
CONTINUOUS
10
3.4139
20
1.04331
11
3.4139
21
1.05512
0
LINE
8
BLACK
6
CONTINUOUS
10
3.4139
20
1.05512
11
3.41435
21
1.05738
0
LINE
8
BLACK
6
CONTINUOUS
10
3.41435
20
1.05738
11
3.41563
21
1.05929
0
LINE
8
BLACK
6
CONTINUOUS
10
3.41563
20
1.05929
11
3.41754
21
1.06057
0
LINE
8
BLACK
6
CONTINUOUS
10
3.41754
20
1.06057
11
3.4198
21
1.06102
0
LINE
8
BLACK
6
CONTINUOUS
10
3.4198
20
1.06102
11
3.48476
21
1.06102
0
LINE
8
BLACK
6
CONTINUOUS
10
3.48476
20
1.06102
11
3.48702
21
1.06057
0
LINE
8
BLACK
6
CONTINUOUS
10
3.29214
20
1.11057
11
3.29406
21
1.10929
0
LINE
8
BLACK
6
CONTINUOUS
10
3.29406
20
1.10929
11
3.29534
21
1.10738
0
LINE
8
BLACK
6
CONTINUOUS
10
3.29534
20
1.10738
11
3.29579
21
1.10512
0
LINE
8
BLACK
6
CONTINUOUS
10
3.29579
20
1.10512
11
3.29579
21
1.09331
0
LINE
8
BLACK
6
CONTINUOUS
10
3.29579
20
1.09331
11
3.29534
21
1.09105
0
LINE
8
BLACK
6
CONTINUOUS
10
3.29534
20
1.09105
11
3.29406
21
1.08913
0
LINE
8
BLACK
6
CONTINUOUS
10
3.29406
20
1.08913
11
3.29214
21
1.08785
0
LINE
8
BLACK
6
CONTINUOUS
10
3.29214
20
1.08785
11
3.28988
21
1.0874
0
LINE
8
BLACK
6
CONTINUOUS
10
3.28988
20
1.0874
11
3.22492
21
1.0874
0
LINE
8
BLACK
6
CONTINUOUS
10
3.22492
20
1.0874
11
3.22266
21
1.08785
0
LINE
8
BLACK
6
CONTINUOUS
10
3.22266
20
1.08785
11
3.22075
21
1.08913
0
LINE
8
BLACK
6
CONTINUOUS
10
3.22075
20
1.08913
11
3.21947
21
1.09105
0
LINE
8
BLACK
6
CONTINUOUS
10
3.21947
20
1.09105
11
3.21902
21
1.09331
0
LINE
8
BLACK
6
CONTINUOUS
10
3.21902
20
1.09331
11
3.21902
21
1.10512
0
LINE
8
BLACK
6
CONTINUOUS
10
3.21902
20
1.10512
11
3.21947
21
1.10738
0
LINE
8
BLACK
6
CONTINUOUS
10
3.21947
20
1.10738
11
3.22075
21
1.10929
0
LINE
8
BLACK
6
CONTINUOUS
10
3.22075
20
1.10929
11
3.22266
21
1.11057
0
LINE
8
BLACK
6
CONTINUOUS
10
3.22266
20
1.11057
11
3.22492
21
1.11102
0
LINE
8
BLACK
6
CONTINUOUS
10
3.22492
20
1.11102
11
3.28988
21
1.11102
0
LINE
8
BLACK
6
CONTINUOUS
10
3.28988
20
1.11102
11
3.29214
21
1.11057
0
LINE
8
BLACK
6
CONTINUOUS
10
3.48702
20
1.11057
11
3.48894
21
1.10929
0
LINE
8
BLACK
6
CONTINUOUS
10
3.48894
20
1.10929
11
3.49022
21
1.10738
0
LINE
8
BLACK
6
CONTINUOUS
10
3.49022
20
1.10738
11
3.49067
21
1.10512
0
LINE
8
BLACK
6
CONTINUOUS
10
3.49067
20
1.10512
11
3.49067
21
1.09331
0
LINE
8
BLACK
6
CONTINUOUS
10
3.49067
20
1.09331
11
3.49022
21
1.09105
0
LINE
8
BLACK
6
CONTINUOUS
10
3.49022
20
1.09105
11
3.48894
21
1.08913
0
LINE
8
BLACK
6
CONTINUOUS
10
3.48894
20
1.08913
11
3.48702
21
1.08785
0
LINE
8
BLACK
6
CONTINUOUS
10
3.48702
20
1.08785
11
3.48476
21
1.0874
0
LINE
8
BLACK
6
CONTINUOUS
10
3.48476
20
1.0874
11
3.4198
21
1.0874
0
LINE
8
BLACK
6
CONTINUOUS
10
3.4198
20
1.0874
11
3.41754
21
1.08785
0
LINE
8
BLACK
6
CONTINUOUS
10
3.41754
20
1.08785
11
3.41563
21
1.08913
0
LINE
8
BLACK
6
CONTINUOUS
10
3.41563
20
1.08913
11
3.41435
21
1.09105
0
LINE
8
BLACK
6
CONTINUOUS
10
3.41435
20
1.09105
11
3.4139
21
1.09331
0
LINE
8
BLACK
6
CONTINUOUS
10
3.4139
20
1.09331
11
3.4139
21
1.10512
0
LINE
8
BLACK
6
CONTINUOUS
10
3.4139
20
1.10512
11
3.41435
21
1.10738
0
LINE
8
BLACK
6
CONTINUOUS
10
3.41435
20
1.10738
11
3.41563
21
1.10929
0
LINE
8
BLACK
6
CONTINUOUS
10
3.41563
20
1.10929
11
3.41754
21
1.11057
0
LINE
8
BLACK
6
CONTINUOUS
10
3.41754
20
1.11057
11
3.4198
21
1.11102
0
LINE
8
BLACK
6
CONTINUOUS
10
3.4198
20
1.11102
11
3.48476
21
1.11102
0
LINE
8
BLACK
6
CONTINUOUS
10
3.48476
20
1.11102
11
3.48702
21
1.11057
0
LINE
8
BLACK
6
CONTINUOUS
10
3.04587
20
1.09854
11
2.98587
21
1.09854
0
LINE
8
BLACK
6
CONTINUOUS
10
2.98587
20
1.09854
11
2.98587
21
1.15854
0
LINE
8
BLACK
6
CONTINUOUS
10
2.98587
20
1.15854
11
3.04587
21
1.15854
0
LINE
8
BLACK
6
CONTINUOUS
10
3.04587
20
1.15854
11
3.04587
21
1.09854
0
LINE
8
BLACK
6
CONTINUOUS
10
3.14587
20
1.09854
11
3.08587
21
1.09854
0
LINE
8
BLACK
6
CONTINUOUS
10
3.08587
20
1.09854
11
3.08587
21
1.15854
0
LINE
8
BLACK
6
CONTINUOUS
10
3.08587
20
1.15854
11
3.14587
21
1.15854
0
LINE
8
BLACK
6
CONTINUOUS
10
3.14587
20
1.15854
11
3.14587
21
1.09854
0
LINE
8
BLACK
6
CONTINUOUS
10
2.21453
20
1.1698
11
2.21741
21
1.16788
0
LINE
8
BLACK
6
CONTINUOUS
10
2.21741
20
1.16788
11
2.21933
21
1.165
0
LINE
8
BLACK
6
CONTINUOUS
10
2.21933
20
1.165
11
2.22
21
1.16161
0
LINE
8
BLACK
6
CONTINUOUS
10
2.22
20
1.16161
11
2.22
21
1.14193
0
LINE
8
BLACK
6
CONTINUOUS
10
2.22
20
1.14193
11
2.21933
21
1.13854
0
LINE
8
BLACK
6
CONTINUOUS
10
2.21933
20
1.13854
11
2.21741
21
1.13567
0
LINE
8
BLACK
6
CONTINUOUS
10
2.21741
20
1.13567
11
2.21453
21
1.13375
0
LINE
8
BLACK
6
CONTINUOUS
10
2.21453
20
1.13375
11
2.21114
21
1.13307
0
LINE
8
BLACK
6
CONTINUOUS
10
2.21114
20
1.13307
11
2.19343
21
1.13307
0
LINE
8
BLACK
6
CONTINUOUS
10
2.19343
20
1.13307
11
2.19004
21
1.13375
0
LINE
8
BLACK
6
CONTINUOUS
10
2.19004
20
1.13375
11
2.18716
21
1.13567
0
LINE
8
BLACK
6
CONTINUOUS
10
2.18716
20
1.13567
11
2.18524
21
1.13854
0
LINE
8
BLACK
6
CONTINUOUS
10
2.18524
20
1.13854
11
2.18457
21
1.14193
0
LINE
8
BLACK
6
CONTINUOUS
10
2.18457
20
1.14193
11
2.18457
21
1.16161
0
LINE
8
BLACK
6
CONTINUOUS
10
2.18457
20
1.16161
11
2.18524
21
1.165
0
LINE
8
BLACK
6
CONTINUOUS
10
2.18524
20
1.165
11
2.18716
21
1.16788
0
LINE
8
BLACK
6
CONTINUOUS
10
2.18716
20
1.16788
11
2.19004
21
1.1698
0
LINE
8
BLACK
6
CONTINUOUS
10
2.19004
20
1.1698
11
2.19343
21
1.17047
0
LINE
8
BLACK
6
CONTINUOUS
10
2.19343
20
1.17047
11
2.21114
21
1.17047
0
LINE
8
BLACK
6
CONTINUOUS
10
2.21114
20
1.17047
11
2.21453
21
1.1698
0
LINE
8
BLACK
6
CONTINUOUS
10
2.27556
20
1.1698
11
2.27843
21
1.16788
0
LINE
8
BLACK
6
CONTINUOUS
10
2.27843
20
1.16788
11
2.28035
21
1.165
0
LINE
8
BLACK
6
CONTINUOUS
10
2.28035
20
1.165
11
2.28102
21
1.16161
0
LINE
8
BLACK
6
CONTINUOUS
10
2.28102
20
1.16161
11
2.28102
21
1.14193
0
LINE
8
BLACK
6
CONTINUOUS
10
2.28102
20
1.14193
11
2.28035
21
1.13854
0
LINE
8
BLACK
6
CONTINUOUS
10
2.28035
20
1.13854
11
2.27843
21
1.13567
0
LINE
8
BLACK
6
CONTINUOUS
10
2.27843
20
1.13567
11
2.27556
21
1.13375
0
LINE
8
BLACK
6
CONTINUOUS
10
2.27556
20
1.13375
11
2.27217
21
1.13307
0
LINE
8
BLACK
6
CONTINUOUS
10
2.27217
20
1.13307
11
2.25445
21
1.13307
0
LINE
8
BLACK
6
CONTINUOUS
10
2.25445
20
1.13307
11
2.25106
21
1.13375
0
LINE
8
BLACK
6
CONTINUOUS
10
2.25106
20
1.13375
11
2.24819
21
1.13567
0
LINE
8
BLACK
6
CONTINUOUS
10
2.24819
20
1.13567
11
2.24626
21
1.13854
0
LINE
8
BLACK
6
CONTINUOUS
10
2.24626
20
1.13854
11
2.24559
21
1.14193
0
LINE
8
BLACK
6
CONTINUOUS
10
2.24559
20
1.14193
11
2.24559
21
1.16161
0
LINE
8
BLACK
6
CONTINUOUS
10
2.24559
20
1.16161
11
2.24626
21
1.165
0
LINE
8
BLACK
6
CONTINUOUS
10
2.24626
20
1.165
11
2.24819
21
1.16788
0
LINE
8
BLACK
6
CONTINUOUS
10
2.24819
20
1.16788
11
2.25106
21
1.1698
0
LINE
8
BLACK
6
CONTINUOUS
10
2.25106
20
1.1698
11
2.25445
21
1.17047
0
LINE
8
BLACK
6
CONTINUOUS
10
2.25445
20
1.17047
11
2.27217
21
1.17047
0
LINE
8
BLACK
6
CONTINUOUS
10
2.27217
20
1.17047
11
2.27556
21
1.1698
0
LINE
8
BLACK
6
CONTINUOUS
10
2.37241
20
1.1698
11
2.37528
21
1.16788
0
LINE
8
BLACK
6
CONTINUOUS
10
2.37528
20
1.16788
11
2.3772
21
1.165
0
LINE
8
BLACK
6
CONTINUOUS
10
2.3772
20
1.165
11
2.37787
21
1.16161
0
LINE
8
BLACK
6
CONTINUOUS
10
2.37787
20
1.16161
11
2.37787
21
1.14193
0
LINE
8
BLACK
6
CONTINUOUS
10
2.37787
20
1.14193
11
2.3772
21
1.13854
0
LINE
8
BLACK
6
CONTINUOUS
10
2.3772
20
1.13854
11
2.37528
21
1.13567
0
LINE
8
BLACK
6
CONTINUOUS
10
2.37528
20
1.13567
11
2.37241
21
1.13375
0
LINE
8
BLACK
6
CONTINUOUS
10
2.37241
20
1.13375
11
2.36902
21
1.13307
0
LINE
8
BLACK
6
CONTINUOUS
10
2.36902
20
1.13307
11
2.3513
21
1.13307
0
LINE
8
BLACK
6
CONTINUOUS
10
2.3513
20
1.13307
11
2.34791
21
1.13375
0
LINE
8
BLACK
6
CONTINUOUS
10
2.34791
20
1.13375
11
2.34504
21
1.13567
0
LINE
8
BLACK
6
CONTINUOUS
10
2.34504
20
1.13567
11
2.34312
21
1.13854
0
LINE
8
BLACK
6
CONTINUOUS
10
2.34312
20
1.13854
11
2.34244
21
1.14193
0
LINE
8
BLACK
6
CONTINUOUS
10
2.34244
20
1.14193
11
2.34244
21
1.16161
0
LINE
8
BLACK
6
CONTINUOUS
10
2.34244
20
1.16161
11
2.34312
21
1.165
0
LINE
8
BLACK
6
CONTINUOUS
10
2.34312
20
1.165
11
2.34504
21
1.16788
0
LINE
8
BLACK
6
CONTINUOUS
10
2.34504
20
1.16788
11
2.34791
21
1.1698
0
LINE
8
BLACK
6
CONTINUOUS
10
2.34791
20
1.1698
11
2.3513
21
1.17047
0
LINE
8
BLACK
6
CONTINUOUS
10
2.3513
20
1.17047
11
2.36902
21
1.17047
0
LINE
8
BLACK
6
CONTINUOUS
10
2.36902
20
1.17047
11
2.37241
21
1.1698
0
LINE
8
BLACK
6
CONTINUOUS
10
2.43343
20
1.1698
11
2.4363
21
1.16788
0
LINE
8
BLACK
6
CONTINUOUS
10
2.4363
20
1.16788
11
2.43822
21
1.165
0
LINE
8
BLACK
6
CONTINUOUS
10
2.43822
20
1.165
11
2.4389
21
1.16161
0
LINE
8
BLACK
6
CONTINUOUS
10
2.4389
20
1.16161
11
2.4389
21
1.14193
0
LINE
8
BLACK
6
CONTINUOUS
10
2.4389
20
1.14193
11
2.43822
21
1.13854
0
LINE
8
BLACK
6
CONTINUOUS
10
2.43822
20
1.13854
11
2.4363
21
1.13567
0
LINE
8
BLACK
6
CONTINUOUS
10
2.4363
20
1.13567
11
2.43343
21
1.13375
0
LINE
8
BLACK
6
CONTINUOUS
10
2.43343
20
1.13375
11
2.43004
21
1.13307
0
LINE
8
BLACK
6
CONTINUOUS
10
2.43004
20
1.13307
11
2.41232
21
1.13307
0
LINE
8
BLACK
6
CONTINUOUS
10
2.41232
20
1.13307
11
2.40893
21
1.13375
0
LINE
8
BLACK
6
CONTINUOUS
10
2.40893
20
1.13375
11
2.40606
21
1.13567
0
LINE
8
BLACK
6
CONTINUOUS
10
2.40606
20
1.13567
11
2.40414
21
1.13854
0
LINE
8
BLACK
6
CONTINUOUS
10
2.40414
20
1.13854
11
2.40346
21
1.14193
0
LINE
8
BLACK
6
CONTINUOUS
10
2.40346
20
1.14193
11
2.40346
21
1.16161
0
LINE
8
BLACK
6
CONTINUOUS
10
2.40346
20
1.16161
11
2.40414
21
1.165
0
LINE
8
BLACK
6
CONTINUOUS
10
2.40414
20
1.165
11
2.40606
21
1.16788
0
LINE
8
BLACK
6
CONTINUOUS
10
2.40606
20
1.16788
11
2.40893
21
1.1698
0
LINE
8
BLACK
6
CONTINUOUS
10
2.40893
20
1.1698
11
2.41232
21
1.17047
0
LINE
8
BLACK
6
CONTINUOUS
10
2.41232
20
1.17047
11
2.43004
21
1.17047
0
LINE
8
BLACK
6
CONTINUOUS
10
2.43004
20
1.17047
11
2.43343
21
1.1698
0
LINE
8
BLACK
6
CONTINUOUS
10
2.53028
20
1.1698
11
2.53315
21
1.16788
0
LINE
8
BLACK
6
CONTINUOUS
10
2.53315
20
1.16788
11
2.53507
21
1.165
0
LINE
8
BLACK
6
CONTINUOUS
10
2.53507
20
1.165
11
2.53575
21
1.16161
0
LINE
8
BLACK
6
CONTINUOUS
10
2.53575
20
1.16161
11
2.53575
21
1.14193
0
LINE
8
BLACK
6
CONTINUOUS
10
2.53575
20
1.14193
11
2.53507
21
1.13854
0
LINE
8
BLACK
6
CONTINUOUS
10
2.53507
20
1.13854
11
2.53315
21
1.13567
0
LINE
8
BLACK
6
CONTINUOUS
10
2.53315
20
1.13567
11
2.53028
21
1.13375
0
LINE
8
BLACK
6
CONTINUOUS
10
2.53028
20
1.13375
11
2.52689
21
1.13307
0
LINE
8
BLACK
6
CONTINUOUS
10
2.52689
20
1.13307
11
2.50917
21
1.13307
0
LINE
8
BLACK
6
CONTINUOUS
10
2.50917
20
1.13307
11
2.50578
21
1.13375
0
LINE
8
BLACK
6
CONTINUOUS
10
2.50578
20
1.13375
11
2.50291
21
1.13567
0
LINE
8
BLACK
6
CONTINUOUS
10
2.50291
20
1.13567
11
2.50099
21
1.13854
0
LINE
8
BLACK
6
CONTINUOUS
10
2.50099
20
1.13854
11
2.50031
21
1.14193
0
LINE
8
BLACK
6
CONTINUOUS
10
2.50031
20
1.14193
11
2.50031
21
1.16161
0
LINE
8
BLACK
6
CONTINUOUS
10
2.50031
20
1.16161
11
2.50099
21
1.165
0
LINE
8
BLACK
6
CONTINUOUS
10
2.50099
20
1.165
11
2.50291
21
1.16788
0
LINE
8
BLACK
6
CONTINUOUS
10
2.50291
20
1.16788
11
2.50578
21
1.1698
0
LINE
8
BLACK
6
CONTINUOUS
10
2.50578
20
1.1698
11
2.50917
21
1.17047
0
LINE
8
BLACK
6
CONTINUOUS
10
2.50917
20
1.17047
11
2.52689
21
1.17047
0
LINE
8
BLACK
6
CONTINUOUS
10
2.52689
20
1.17047
11
2.53028
21
1.1698
0
LINE
8
BLACK
6
CONTINUOUS
10
2.5913
20
1.1698
11
2.59418
21
1.16788
0
LINE
8
BLACK
6
CONTINUOUS
10
2.59418
20
1.16788
11
2.5961
21
1.165
0
LINE
8
BLACK
6
CONTINUOUS
10
2.5961
20
1.165
11
2.59677
21
1.16161
0
LINE
8
BLACK
6
CONTINUOUS
10
2.59677
20
1.16161
11
2.59677
21
1.14193
0
LINE
8
BLACK
6
CONTINUOUS
10
2.59677
20
1.14193
11
2.5961
21
1.13854
0
LINE
8
BLACK
6
CONTINUOUS
10
2.5961
20
1.13854
11
2.59418
21
1.13567
0
LINE
8
BLACK
6
CONTINUOUS
10
2.59418
20
1.13567
11
2.5913
21
1.13375
0
LINE
8
BLACK
6
CONTINUOUS
10
2.5913
20
1.13375
11
2.58791
21
1.13307
0
LINE
8
BLACK
6
CONTINUOUS
10
2.58791
20
1.13307
11
2.5702
21
1.13307
0
LINE
8
BLACK
6
CONTINUOUS
10
2.5702
20
1.13307
11
2.56681
21
1.13375
0
LINE
8
BLACK
6
CONTINUOUS
10
2.56681
20
1.13375
11
2.56393
21
1.13567
0
LINE
8
BLACK
6
CONTINUOUS
10
2.56393
20
1.13567
11
2.56201
21
1.13854
0
LINE
8
BLACK
6
CONTINUOUS
10
2.56201
20
1.13854
11
2.56134
21
1.14193
0
LINE
8
BLACK
6
CONTINUOUS
10
2.56134
20
1.14193
11
2.56134
21
1.16161
0
LINE
8
BLACK
6
CONTINUOUS
10
2.56134
20
1.16161
11
2.56201
21
1.165
0
LINE
8
BLACK
6
CONTINUOUS
10
2.56201
20
1.165
11
2.56393
21
1.16788
0
LINE
8
BLACK
6
CONTINUOUS
10
2.56393
20
1.16788
11
2.56681
21
1.1698
0
LINE
8
BLACK
6
CONTINUOUS
10
2.56681
20
1.1698
11
2.5702
21
1.17047
0
LINE
8
BLACK
6
CONTINUOUS
10
2.5702
20
1.17047
11
2.58791
21
1.17047
0
LINE
8
BLACK
6
CONTINUOUS
10
2.58791
20
1.17047
11
2.5913
21
1.1698
0
LINE
8
BLACK
6
CONTINUOUS
10
2.68815
20
1.1698
11
2.69103
21
1.16788
0
LINE
8
BLACK
6
CONTINUOUS
10
2.69103
20
1.16788
11
2.69295
21
1.165
0
LINE
8
BLACK
6
CONTINUOUS
10
2.69295
20
1.165
11
2.69362
21
1.16161
0
LINE
8
BLACK
6
CONTINUOUS
10
2.69362
20
1.16161
11
2.69362
21
1.14193
0
LINE
8
BLACK
6
CONTINUOUS
10
2.69362
20
1.14193
11
2.69295
21
1.13854
0
LINE
8
BLACK
6
CONTINUOUS
10
2.69295
20
1.13854
11
2.69103
21
1.13567
0
LINE
8
BLACK
6
CONTINUOUS
10
2.69103
20
1.13567
11
2.68815
21
1.13375
0
LINE
8
BLACK
6
CONTINUOUS
10
2.68815
20
1.13375
11
2.68476
21
1.13307
0
LINE
8
BLACK
6
CONTINUOUS
10
2.68476
20
1.13307
11
2.66705
21
1.13307
0
LINE
8
BLACK
6
CONTINUOUS
10
2.66705
20
1.13307
11
2.66366
21
1.13375
0
LINE
8
BLACK
6
CONTINUOUS
10
2.66366
20
1.13375
11
2.66078
21
1.13567
0
LINE
8
BLACK
6
CONTINUOUS
10
2.66078
20
1.13567
11
2.65886
21
1.13854
0
LINE
8
BLACK
6
CONTINUOUS
10
2.65886
20
1.13854
11
2.65819
21
1.14193
0
LINE
8
BLACK
6
CONTINUOUS
10
2.65819
20
1.14193
11
2.65819
21
1.16161
0
LINE
8
BLACK
6
CONTINUOUS
10
2.65819
20
1.16161
11
2.65886
21
1.165
0
LINE
8
BLACK
6
CONTINUOUS
10
2.65886
20
1.165
11
2.66078
21
1.16788
0
LINE
8
BLACK
6
CONTINUOUS
10
2.66078
20
1.16788
11
2.66366
21
1.1698
0
LINE
8
BLACK
6
CONTINUOUS
10
2.66366
20
1.1698
11
2.66705
21
1.17047
0
LINE
8
BLACK
6
CONTINUOUS
10
2.66705
20
1.17047
11
2.68476
21
1.17047
0
LINE
8
BLACK
6
CONTINUOUS
10
2.68476
20
1.17047
11
2.68815
21
1.1698
0
LINE
8
BLACK
6
CONTINUOUS
10
2.74918
20
1.1698
11
2.75205
21
1.16788
0
LINE
8
BLACK
6
CONTINUOUS
10
2.75205
20
1.16788
11
2.75397
21
1.165
0
LINE
8
BLACK
6
CONTINUOUS
10
2.75397
20
1.165
11
2.75465
21
1.16161
0
LINE
8
BLACK
6
CONTINUOUS
10
2.75465
20
1.16161
11
2.75465
21
1.14193
0
LINE
8
BLACK
6
CONTINUOUS
10
2.75465
20
1.14193
11
2.75397
21
1.13854
0
LINE
8
BLACK
6
CONTINUOUS
10
2.75397
20
1.13854
11
2.75205
21
1.13567
0
LINE
8
BLACK
6
CONTINUOUS
10
2.75205
20
1.13567
11
2.74918
21
1.13375
0
LINE
8
BLACK
6
CONTINUOUS
10
2.74918
20
1.13375
11
2.74579
21
1.13307
0
LINE
8
BLACK
6
CONTINUOUS
10
2.74579
20
1.13307
11
2.72807
21
1.13307
0
LINE
8
BLACK
6
CONTINUOUS
10
2.72807
20
1.13307
11
2.72468
21
1.13375
0
LINE
8
BLACK
6
CONTINUOUS
10
2.72468
20
1.13375
11
2.72181
21
1.13567
0
LINE
8
BLACK
6
CONTINUOUS
10
2.72181
20
1.13567
11
2.71989
21
1.13854
0
LINE
8
BLACK
6
CONTINUOUS
10
2.71989
20
1.13854
11
2.71921
21
1.14193
0
LINE
8
BLACK
6
CONTINUOUS
10
2.71921
20
1.14193
11
2.71921
21
1.16161
0
LINE
8
BLACK
6
CONTINUOUS
10
2.71921
20
1.16161
11
2.71989
21
1.165
0
LINE
8
BLACK
6
CONTINUOUS
10
2.71989
20
1.165
11
2.72181
21
1.16788
0
LINE
8
BLACK
6
CONTINUOUS
10
2.72181
20
1.16788
11
2.72468
21
1.1698
0
LINE
8
BLACK
6
CONTINUOUS
10
2.72468
20
1.1698
11
2.72807
21
1.17047
0
LINE
8
BLACK
6
CONTINUOUS
10
2.72807
20
1.17047
11
2.74579
21
1.17047
0
LINE
8
BLACK
6
CONTINUOUS
10
2.74579
20
1.17047
11
2.74918
21
1.1698
0
LINE
8
BLACK
6
CONTINUOUS
10
2.8427
20
1.16987
11
2.84525
21
1.16817
0
LINE
8
BLACK
6
CONTINUOUS
10
2.84525
20
1.16817
11
2.84696
21
1.16561
0
LINE
8
BLACK
6
CONTINUOUS
10
2.84696
20
1.16561
11
2.84756
21
1.1626
0
LINE
8
BLACK
6
CONTINUOUS
10
2.84756
20
1.1626
11
2.84756
21
1.14094
0
LINE
8
BLACK
6
CONTINUOUS
10
2.84756
20
1.14094
11
2.84696
21
1.13793
0
LINE
8
BLACK
6
CONTINUOUS
10
2.84696
20
1.13793
11
2.84525
21
1.13538
0
LINE
8
BLACK
6
CONTINUOUS
10
2.84525
20
1.13538
11
2.8427
21
1.13367
0
LINE
8
BLACK
6
CONTINUOUS
10
2.8427
20
1.13367
11
2.83969
21
1.13307
0
LINE
8
BLACK
6
CONTINUOUS
10
2.83969
20
1.13307
11
2.82394
21
1.13307
0
LINE
8
BLACK
6
CONTINUOUS
10
2.82394
20
1.13307
11
2.82092
21
1.13367
0
LINE
8
BLACK
6
CONTINUOUS
10
2.82092
20
1.13367
11
2.81837
21
1.13538
0
LINE
8
BLACK
6
CONTINUOUS
10
2.81837
20
1.13538
11
2.81666
21
1.13793
0
LINE
8
BLACK
6
CONTINUOUS
10
2.81666
20
1.13793
11
2.81606
21
1.14094
0
LINE
8
BLACK
6
CONTINUOUS
10
2.81606
20
1.14094
11
2.81606
21
1.1626
0
LINE
8
BLACK
6
CONTINUOUS
10
2.81606
20
1.1626
11
2.81666
21
1.16561
0
LINE
8
BLACK
6
CONTINUOUS
10
2.81666
20
1.16561
11
2.81837
21
1.16817
0
LINE
8
BLACK
6
CONTINUOUS
10
2.81837
20
1.16817
11
2.82092
21
1.16987
0
LINE
8
BLACK
6
CONTINUOUS
10
2.82092
20
1.16987
11
2.82394
21
1.17047
0
LINE
8
BLACK
6
CONTINUOUS
10
2.82394
20
1.17047
11
2.83969
21
1.17047
0
LINE
8
BLACK
6
CONTINUOUS
10
2.83969
20
1.17047
11
2.8427
21
1.16987
0
LINE
8
BLACK
6
CONTINUOUS
10
2.90766
20
1.16987
11
2.91021
21
1.16817
0
LINE
8
BLACK
6
CONTINUOUS
10
2.91021
20
1.16817
11
2.91192
21
1.16561
0
LINE
8
BLACK
6
CONTINUOUS
10
2.91192
20
1.16561
11
2.91252
21
1.1626
0
LINE
8
BLACK
6
CONTINUOUS
10
2.91252
20
1.1626
11
2.91252
21
1.14094
0
LINE
8
BLACK
6
CONTINUOUS
10
2.91252
20
1.14094
11
2.91192
21
1.13793
0
LINE
8
BLACK
6
CONTINUOUS
10
2.91192
20
1.13793
11
2.91021
21
1.13538
0
LINE
8
BLACK
6
CONTINUOUS
10
2.91021
20
1.13538
11
2.90766
21
1.13367
0
LINE
8
BLACK
6
CONTINUOUS
10
2.90766
20
1.13367
11
2.90465
21
1.13307
0
LINE
8
BLACK
6
CONTINUOUS
10
2.90465
20
1.13307
11
2.8889
21
1.13307
0
LINE
8
BLACK
6
CONTINUOUS
10
2.8889
20
1.13307
11
2.88588
21
1.13367
0
LINE
8
BLACK
6
CONTINUOUS
10
2.88588
20
1.13367
11
2.88333
21
1.13538
0
LINE
8
BLACK
6
CONTINUOUS
10
2.88333
20
1.13538
11
2.88162
21
1.13793
0
LINE
8
BLACK
6
CONTINUOUS
10
2.88162
20
1.13793
11
2.88102
21
1.14094
0
LINE
8
BLACK
6
CONTINUOUS
10
2.88102
20
1.14094
11
2.88102
21
1.1626
0
LINE
8
BLACK
6
CONTINUOUS
10
2.88102
20
1.1626
11
2.88162
21
1.16561
0
LINE
8
BLACK
6
CONTINUOUS
10
2.88162
20
1.16561
11
2.88333
21
1.16817
0
LINE
8
BLACK
6
CONTINUOUS
10
2.88333
20
1.16817
11
2.88588
21
1.16987
0
LINE
8
BLACK
6
CONTINUOUS
10
2.88588
20
1.16987
11
2.8889
21
1.17047
0
LINE
8
BLACK
6
CONTINUOUS
10
2.8889
20
1.17047
11
2.90465
21
1.17047
0
LINE
8
BLACK
6
CONTINUOUS
10
2.90465
20
1.17047
11
2.90766
21
1.16987
0
LINE
8
BLACK
6
CONTINUOUS
10
3.29214
20
1.16057
11
3.29406
21
1.15929
0
LINE
8
BLACK
6
CONTINUOUS
10
3.29406
20
1.15929
11
3.29534
21
1.15738
0
LINE
8
BLACK
6
CONTINUOUS
10
3.29534
20
1.15738
11
3.29579
21
1.15512
0
LINE
8
BLACK
6
CONTINUOUS
10
3.29579
20
1.15512
11
3.29579
21
1.14331
0
LINE
8
BLACK
6
CONTINUOUS
10
3.29579
20
1.14331
11
3.29534
21
1.14105
0
LINE
8
BLACK
6
CONTINUOUS
10
3.29534
20
1.14105
11
3.29406
21
1.13913
0
LINE
8
BLACK
6
CONTINUOUS
10
3.29406
20
1.13913
11
3.29214
21
1.13785
0
LINE
8
BLACK
6
CONTINUOUS
10
3.29214
20
1.13785
11
3.28988
21
1.1374
0
LINE
8
BLACK
6
CONTINUOUS
10
3.28988
20
1.1374
11
3.22492
21
1.1374
0
LINE
8
BLACK
6
CONTINUOUS
10
3.22492
20
1.1374
11
3.22266
21
1.13785
0
LINE
8
BLACK
6
CONTINUOUS
10
3.22266
20
1.13785
11
3.22075
21
1.13913
0
LINE
8
BLACK
6
CONTINUOUS
10
3.22075
20
1.13913
11
3.21947
21
1.14105
0
LINE
8
BLACK
6
CONTINUOUS
10
3.21947
20
1.14105
11
3.21902
21
1.14331
0
LINE
8
BLACK
6
CONTINUOUS
10
3.21902
20
1.14331
11
3.21902
21
1.15512
0
LINE
8
BLACK
6
CONTINUOUS
10
3.21902
20
1.15512
11
3.21947
21
1.15738
0
LINE
8
BLACK
6
CONTINUOUS
10
3.21947
20
1.15738
11
3.22075
21
1.15929
0
LINE
8
BLACK
6
CONTINUOUS
10
3.22075
20
1.15929
11
3.22266
21
1.16057
0
LINE
8
BLACK
6
CONTINUOUS
10
3.22266
20
1.16057
11
3.22492
21
1.16102
0
LINE
8
BLACK
6
CONTINUOUS
10
3.22492
20
1.16102
11
3.28988
21
1.16102
0
LINE
8
BLACK
6
CONTINUOUS
10
3.28988
20
1.16102
11
3.29214
21
1.16057
0
LINE
8
BLACK
6
CONTINUOUS
10
3.48702
20
1.16057
11
3.48894
21
1.15929
0
LINE
8
BLACK
6
CONTINUOUS
10
3.48894
20
1.15929
11
3.49022
21
1.15738
0
LINE
8
BLACK
6
CONTINUOUS
10
3.49022
20
1.15738
11
3.49067
21
1.15512
0
LINE
8
BLACK
6
CONTINUOUS
10
3.49067
20
1.15512
11
3.49067
21
1.14331
0
LINE
8
BLACK
6
CONTINUOUS
10
3.49067
20
1.14331
11
3.49022
21
1.14105
0
LINE
8
BLACK
6
CONTINUOUS
10
3.49022
20
1.14105
11
3.48894
21
1.13913
0
LINE
8
BLACK
6
CONTINUOUS
10
3.48894
20
1.13913
11
3.48702
21
1.13785
0
LINE
8
BLACK
6
CONTINUOUS
10
3.48702
20
1.13785
11
3.48476
21
1.1374
0
LINE
8
BLACK
6
CONTINUOUS
10
3.48476
20
1.1374
11
3.4198
21
1.1374
0
LINE
8
BLACK
6
CONTINUOUS
10
3.4198
20
1.1374
11
3.41754
21
1.13785
0
LINE
8
BLACK
6
CONTINUOUS
10
3.41754
20
1.13785
11
3.41563
21
1.13913
0
LINE
8
BLACK
6
CONTINUOUS
10
3.41563
20
1.13913
11
3.41435
21
1.14105
0
LINE
8
BLACK
6
CONTINUOUS
10
3.41435
20
1.14105
11
3.4139
21
1.14331
0
LINE
8
BLACK
6
CONTINUOUS
10
3.4139
20
1.14331
11
3.4139
21
1.15512
0
LINE
8
BLACK
6
CONTINUOUS
10
3.4139
20
1.15512
11
3.41435
21
1.15738
0
LINE
8
BLACK
6
CONTINUOUS
10
3.41435
20
1.15738
11
3.41563
21
1.15929
0
LINE
8
BLACK
6
CONTINUOUS
10
3.41563
20
1.15929
11
3.41754
21
1.16057
0
LINE
8
BLACK
6
CONTINUOUS
10
3.41754
20
1.16057
11
3.4198
21
1.16102
0
LINE
8
BLACK
6
CONTINUOUS
10
3.4198
20
1.16102
11
3.48476
21
1.16102
0
LINE
8
BLACK
6
CONTINUOUS
10
3.48476
20
1.16102
11
3.48702
21
1.16057
0
LINE
8
BLACK
6
CONTINUOUS
10
0.665664
20
1.27646
11
0.673286
21
1.27351
0
LINE
8
BLACK
6
CONTINUOUS
10
0.673286
20
1.27351
11
0.680235
21
1.2692
0
LINE
8
BLACK
6
CONTINUOUS
10
0.680235
20
1.2692
11
0.686275
21
1.2637
0
LINE
8
BLACK
6
CONTINUOUS
10
0.686275
20
1.2637
11
0.691201
21
1.25717
0
LINE
8
BLACK
6
CONTINUOUS
10
0.691201
20
1.25717
11
0.694844
21
1.24986
0
LINE
8
BLACK
6
CONTINUOUS
10
0.694844
20
1.24986
11
0.697081
21
1.242
0
LINE
8
BLACK
6
CONTINUOUS
10
0.697081
20
1.242
11
0.697835
21
1.23386
0
LINE
8
BLACK
6
CONTINUOUS
10
0.697835
20
1.23386
11
0.697081
21
1.22572
0
LINE
8
BLACK
6
CONTINUOUS
10
0.697081
20
1.22572
11
0.694844
21
1.21786
0
LINE
8
BLACK
6
CONTINUOUS
10
0.694844
20
1.21786
11
0.691201
21
1.21054
0
LINE
8
BLACK
6
CONTINUOUS
10
0.691201
20
1.21054
11
0.686275
21
1.20402
0
LINE
8
BLACK
6
CONTINUOUS
10
0.686275
20
1.20402
11
0.680235
21
1.19851
0
LINE
8
BLACK
6
CONTINUOUS
10
0.680235
20
1.19851
11
0.673286
21
1.19421
0
LINE
8
BLACK
6
CONTINUOUS
10
0.673286
20
1.19421
11
0.665664
21
1.19126
0
LINE
8
BLACK
6
CONTINUOUS
10
0.665664
20
1.19126
11
0.65763
21
1.18976
0
LINE
8
BLACK
6
CONTINUOUS
10
0.65763
20
1.18976
11
0.649457
21
1.18976
0
LINE
8
BLACK
6
CONTINUOUS
10
0.649457
20
1.18976
11
0.641422
21
1.19126
0
LINE
8
BLACK
6
CONTINUOUS
10
0.641422
20
1.19126
11
0.633801
21
1.19421
0
LINE
8
BLACK
6
CONTINUOUS
10
0.633801
20
1.19421
11
0.626852
21
1.19851
0
LINE
8
BLACK
6
CONTINUOUS
10
0.626852
20
1.19851
11
0.620812
21
1.20402
0
LINE
8
BLACK
6
CONTINUOUS
10
0.620812
20
1.20402
11
0.615886
21
1.21054
0
LINE
8
BLACK
6
CONTINUOUS
10
0.615886
20
1.21054
11
0.612243
21
1.21786
0
LINE
8
BLACK
6
CONTINUOUS
10
0.612243
20
1.21786
11
0.610006
21
1.22572
0
LINE
8
BLACK
6
CONTINUOUS
10
0.610006
20
1.22572
11
0.609252
21
1.23386
0
LINE
8
BLACK
6
CONTINUOUS
10
0.609252
20
1.23386
11
0.610006
21
1.242
0
LINE
8
BLACK
6
CONTINUOUS
10
0.610006
20
1.242
11
0.612243
21
1.24986
0
LINE
8
BLACK
6
CONTINUOUS
10
0.612243
20
1.24986
11
0.615886
21
1.25717
0
LINE
8
BLACK
6
CONTINUOUS
10
0.615886
20
1.25717
11
0.620812
21
1.2637
0
LINE
8
BLACK
6
CONTINUOUS
10
0.620812
20
1.2637
11
0.626852
21
1.2692
0
LINE
8
BLACK
6
CONTINUOUS
10
0.626852
20
1.2692
11
0.633801
21
1.27351
0
LINE
8
BLACK
6
CONTINUOUS
10
0.633801
20
1.27351
11
0.641422
21
1.27646
0
LINE
8
BLACK
6
CONTINUOUS
10
0.641422
20
1.27646
11
0.649457
21
1.27796
0
LINE
8
BLACK
6
CONTINUOUS
10
0.649457
20
1.27796
11
0.65763
21
1.27796
0
LINE
8
BLACK
6
CONTINUOUS
10
0.65763
20
1.27796
11
0.665664
21
1.27646
0
LINE
8
BLACK
6
CONTINUOUS
10
0.865664
20
1.27646
11
0.873286
21
1.27351
0
LINE
8
BLACK
6
CONTINUOUS
10
0.873286
20
1.27351
11
0.880235
21
1.2692
0
LINE
8
BLACK
6
CONTINUOUS
10
0.880235
20
1.2692
11
0.886275
21
1.2637
0
LINE
8
BLACK
6
CONTINUOUS
10
0.886275
20
1.2637
11
0.891201
21
1.25717
0
LINE
8
BLACK
6
CONTINUOUS
10
0.891201
20
1.25717
11
0.894844
21
1.24986
0
LINE
8
BLACK
6
CONTINUOUS
10
0.894844
20
1.24986
11
0.897081
21
1.242
0
LINE
8
BLACK
6
CONTINUOUS
10
0.897081
20
1.242
11
0.897835
21
1.23386
0
LINE
8
BLACK
6
CONTINUOUS
10
0.897835
20
1.23386
11
0.897081
21
1.22572
0
LINE
8
BLACK
6
CONTINUOUS
10
0.897081
20
1.22572
11
0.894844
21
1.21786
0
LINE
8
BLACK
6
CONTINUOUS
10
0.894844
20
1.21786
11
0.891201
21
1.21054
0
LINE
8
BLACK
6
CONTINUOUS
10
0.891201
20
1.21054
11
0.886275
21
1.20402
0
LINE
8
BLACK
6
CONTINUOUS
10
0.886275
20
1.20402
11
0.880235
21
1.19851
0
LINE
8
BLACK
6
CONTINUOUS
10
0.880235
20
1.19851
11
0.873286
21
1.19421
0
LINE
8
BLACK
6
CONTINUOUS
10
0.873286
20
1.19421
11
0.865664
21
1.19126
0
LINE
8
BLACK
6
CONTINUOUS
10
0.865664
20
1.19126
11
0.85763
21
1.18976
0
LINE
8
BLACK
6
CONTINUOUS
10
0.85763
20
1.18976
11
0.849457
21
1.18976
0
LINE
8
BLACK
6
CONTINUOUS
10
0.849457
20
1.18976
11
0.841422
21
1.19126
0
LINE
8
BLACK
6
CONTINUOUS
10
0.841422
20
1.19126
11
0.833801
21
1.19421
0
LINE
8
BLACK
6
CONTINUOUS
10
0.833801
20
1.19421
11
0.826852
21
1.19851
0
LINE
8
BLACK
6
CONTINUOUS
10
0.826852
20
1.19851
11
0.820812
21
1.20402
0
LINE
8
BLACK
6
CONTINUOUS
10
0.820812
20
1.20402
11
0.815886
21
1.21054
0
LINE
8
BLACK
6
CONTINUOUS
10
0.815886
20
1.21054
11
0.812243
21
1.21786
0
LINE
8
BLACK
6
CONTINUOUS
10
0.812243
20
1.21786
11
0.810006
21
1.22572
0
LINE
8
BLACK
6
CONTINUOUS
10
0.810006
20
1.22572
11
0.809252
21
1.23386
0
LINE
8
BLACK
6
CONTINUOUS
10
0.809252
20
1.23386
11
0.810006
21
1.242
0
LINE
8
BLACK
6
CONTINUOUS
10
0.810006
20
1.242
11
0.812243
21
1.24986
0
LINE
8
BLACK
6
CONTINUOUS
10
0.812243
20
1.24986
11
0.815886
21
1.25717
0
LINE
8
BLACK
6
CONTINUOUS
10
0.815886
20
1.25717
11
0.820812
21
1.2637
0
LINE
8
BLACK
6
CONTINUOUS
10
0.820812
20
1.2637
11
0.826852
21
1.2692
0
LINE
8
BLACK
6
CONTINUOUS
10
0.826852
20
1.2692
11
0.833801
21
1.27351
0
LINE
8
BLACK
6
CONTINUOUS
10
0.833801
20
1.27351
11
0.841422
21
1.27646
0
LINE
8
BLACK
6
CONTINUOUS
10
0.841422
20
1.27646
11
0.849457
21
1.27796
0
LINE
8
BLACK
6
CONTINUOUS
10
0.849457
20
1.27796
11
0.85763
21
1.27796
0
LINE
8
BLACK
6
CONTINUOUS
10
0.85763
20
1.27796
11
0.865664
21
1.27646
0
LINE
8
BLACK
6
CONTINUOUS
10
3.32624
20
1.28315
11
3.32927
21
1.28112
0
LINE
8
BLACK
6
CONTINUOUS
10
3.32927
20
1.28112
11
3.3313
21
1.27809
0
LINE
8
BLACK
6
CONTINUOUS
10
3.3313
20
1.27809
11
3.33201
21
1.27451
0
LINE
8
BLACK
6
CONTINUOUS
10
3.33201
20
1.27451
11
3.33201
21
1.25581
0
LINE
8
BLACK
6
CONTINUOUS
10
3.33201
20
1.25581
11
3.3313
21
1.25223
0
LINE
8
BLACK
6
CONTINUOUS
10
3.3313
20
1.25223
11
3.32927
21
1.2492
0
LINE
8
BLACK
6
CONTINUOUS
10
3.32927
20
1.2492
11
3.32624
21
1.24717
0
LINE
8
BLACK
6
CONTINUOUS
10
3.32624
20
1.24717
11
3.32266
21
1.24646
0
LINE
8
BLACK
6
CONTINUOUS
10
3.32266
20
1.24646
11
3.30002
21
1.24646
0
LINE
8
BLACK
6
CONTINUOUS
10
3.30002
20
1.24646
11
3.29644
21
1.24717
0
LINE
8
BLACK
6
CONTINUOUS
10
3.29644
20
1.24717
11
3.29341
21
1.2492
0
LINE
8
BLACK
6
CONTINUOUS
10
3.29341
20
1.2492
11
3.29138
21
1.25223
0
LINE
8
BLACK
6
CONTINUOUS
10
3.29138
20
1.25223
11
3.29067
21
1.25581
0
LINE
8
BLACK
6
CONTINUOUS
10
3.29067
20
1.25581
11
3.29067
21
1.27451
0
LINE
8
BLACK
6
CONTINUOUS
10
3.29067
20
1.27451
11
3.29138
21
1.27809
0
LINE
8
BLACK
6
CONTINUOUS
10
3.29138
20
1.27809
11
3.29341
21
1.28112
0
LINE
8
BLACK
6
CONTINUOUS
10
3.29341
20
1.28112
11
3.29644
21
1.28315
0
LINE
8
BLACK
6
CONTINUOUS
10
3.29644
20
1.28315
11
3.30002
21
1.28386
0
LINE
8
BLACK
6
CONTINUOUS
10
3.30002
20
1.28386
11
3.32266
21
1.28386
0
LINE
8
BLACK
6
CONTINUOUS
10
3.32266
20
1.28386
11
3.32624
21
1.28315
0
LINE
8
BLACK
6
CONTINUOUS
10
3.39513
20
1.28315
11
3.39817
21
1.28112
0
LINE
8
BLACK
6
CONTINUOUS
10
3.39817
20
1.28112
11
3.40019
21
1.27809
0
LINE
8
BLACK
6
CONTINUOUS
10
3.40019
20
1.27809
11
3.40091
21
1.27451
0
LINE
8
BLACK
6
CONTINUOUS
10
3.40091
20
1.27451
11
3.40091
21
1.25581
0
LINE
8
BLACK
6
CONTINUOUS
10
3.40091
20
1.25581
11
3.40019
21
1.25223
0
LINE
8
BLACK
6
CONTINUOUS
10
3.40019
20
1.25223
11
3.39817
21
1.2492
0
LINE
8
BLACK
6
CONTINUOUS
10
3.39817
20
1.2492
11
3.39513
21
1.24717
0
LINE
8
BLACK
6
CONTINUOUS
10
3.39513
20
1.24717
11
3.39156
21
1.24646
0
LINE
8
BLACK
6
CONTINUOUS
10
3.39156
20
1.24646
11
3.36892
21
1.24646
0
LINE
8
BLACK
6
CONTINUOUS
10
3.36892
20
1.24646
11
3.36534
21
1.24717
0
LINE
8
BLACK
6
CONTINUOUS
10
3.36534
20
1.24717
11
3.36231
21
1.2492
0
LINE
8
BLACK
6
CONTINUOUS
10
3.36231
20
1.2492
11
3.36028
21
1.25223
0
LINE
8
BLACK
6
CONTINUOUS
10
3.36028
20
1.25223
11
3.35957
21
1.25581
0
LINE
8
BLACK
6
CONTINUOUS
10
3.35957
20
1.25581
11
3.35957
21
1.27451
0
LINE
8
BLACK
6
CONTINUOUS
10
3.35957
20
1.27451
11
3.36028
21
1.27809
0
LINE
8
BLACK
6
CONTINUOUS
10
3.36028
20
1.27809
11
3.36231
21
1.28112
0
LINE
8
BLACK
6
CONTINUOUS
10
3.36231
20
1.28112
11
3.36534
21
1.28315
0
LINE
8
BLACK
6
CONTINUOUS
10
3.36534
20
1.28315
11
3.36892
21
1.28386
0
LINE
8
BLACK
6
CONTINUOUS
10
3.36892
20
1.28386
11
3.39156
21
1.28386
0
LINE
8
BLACK
6
CONTINUOUS
10
3.39156
20
1.28386
11
3.39513
21
1.28315
0
LINE
8
BLACK
6
CONTINUOUS
10
0.761416
20
1.37344
11
0.768986
21
1.37114
0
LINE
8
BLACK
6
CONTINUOUS
10
0.768986
20
1.37114
11
0.775963
21
1.36741
0
LINE
8
BLACK
6
CONTINUOUS
10
0.775963
20
1.36741
11
0.782078
21
1.36239
0
LINE
8
BLACK
6
CONTINUOUS
10
0.782078
20
1.36239
11
0.787097
21
1.35628
0
LINE
8
BLACK
6
CONTINUOUS
10
0.787097
20
1.35628
11
0.790826
21
1.3493
0
LINE
8
BLACK
6
CONTINUOUS
10
0.790826
20
1.3493
11
0.793122
21
1.34173
0
LINE
8
BLACK
6
CONTINUOUS
10
0.793122
20
1.34173
11
0.793898
21
1.33386
0
LINE
8
BLACK
6
CONTINUOUS
10
0.793898
20
1.33386
11
0.793122
21
1.32599
0
LINE
8
BLACK
6
CONTINUOUS
10
0.793122
20
1.32599
11
0.790826
21
1.31842
0
LINE
8
BLACK
6
CONTINUOUS
10
0.790826
20
1.31842
11
0.787097
21
1.31144
0
LINE
8
BLACK
6
CONTINUOUS
10
0.787097
20
1.31144
11
0.782078
21
1.30532
0
LINE
8
BLACK
6
CONTINUOUS
10
0.782078
20
1.30532
11
0.775963
21
1.3003
0
LINE
8
BLACK
6
CONTINUOUS
10
0.775963
20
1.3003
11
0.768986
21
1.29658
0
LINE
8
BLACK
6
CONTINUOUS
10
0.768986
20
1.29658
11
0.761416
21
1.29428
0
LINE
8
BLACK
6
CONTINUOUS
10
0.761416
20
1.29428
11
0.753543
21
1.2935
0
LINE
8
BLACK
6
CONTINUOUS
10
0.753543
20
1.2935
11
0.745671
21
1.29428
0
LINE
8
BLACK
6
CONTINUOUS
10
0.745671
20
1.29428
11
0.7381
21
1.29658
0
LINE
8
BLACK
6
CONTINUOUS
10
0.7381
20
1.29658
11
0.731124
21
1.3003
0
LINE
8
BLACK
6
CONTINUOUS
10
0.731124
20
1.3003
11
0.725009
21
1.30532
0
LINE
8
BLACK
6
CONTINUOUS
10
0.725009
20
1.30532
11
0.71999
21
1.31144
0
LINE
8
BLACK
6
CONTINUOUS
10
0.71999
20
1.31144
11
0.716261
21
1.31842
0
LINE
8
BLACK
6
CONTINUOUS
10
0.716261
20
1.31842
11
0.713964
21
1.32599
0
LINE
8
BLACK
6
CONTINUOUS
10
0.713964
20
1.32599
11
0.713189
21
1.33386
0
LINE
8
BLACK
6
CONTINUOUS
10
0.713189
20
1.33386
11
0.713964
21
1.34173
0
LINE
8
BLACK
6
CONTINUOUS
10
0.713964
20
1.34173
11
0.716261
21
1.3493
0
LINE
8
BLACK
6
CONTINUOUS
10
0.716261
20
1.3493
11
0.71999
21
1.35628
0
LINE
8
BLACK
6
CONTINUOUS
10
0.71999
20
1.35628
11
0.725009
21
1.36239
0
LINE
8
BLACK
6
CONTINUOUS
10
0.725009
20
1.36239
11
0.731124
21
1.36741
0
LINE
8
BLACK
6
CONTINUOUS
10
0.731124
20
1.36741
11
0.7381
21
1.37114
0
LINE
8
BLACK
6
CONTINUOUS
10
0.7381
20
1.37114
11
0.745671
21
1.37344
0
LINE
8
BLACK
6
CONTINUOUS
10
0.745671
20
1.37344
11
0.753543
21
1.37421
0
LINE
8
BLACK
6
CONTINUOUS
10
0.753543
20
1.37421
11
0.761416
21
1.37344
0
LINE
8
BLACK
6
CONTINUOUS
10
3.3228
20
1.33955
11
3.2878
21
1.33955
0
LINE
8
BLACK
6
CONTINUOUS
10
3.2878
20
1.33955
11
3.2878
21
1.39455
0
LINE
8
BLACK
6
CONTINUOUS
10
3.2878
20
1.39455
11
3.3228
21
1.39455
0
LINE
8
BLACK
6
CONTINUOUS
10
3.3228
20
1.39455
11
3.3228
21
1.33955
0
LINE
8
BLACK
6
CONTINUOUS
10
3.3978
20
1.33955
11
3.3628
21
1.33955
0
LINE
8
BLACK
6
CONTINUOUS
10
3.3628
20
1.33955
11
3.3628
21
1.39455
0
LINE
8
BLACK
6
CONTINUOUS
10
3.3628
20
1.39455
11
3.3978
21
1.39455
0
LINE
8
BLACK
6
CONTINUOUS
10
3.3978
20
1.39455
11
3.3978
21
1.33955
0
LINE
8
BLACK
6
CONTINUOUS
10
2.28061
20
1.43318
11
2.28695
21
1.43097
0
LINE
8
BLACK
6
CONTINUOUS
10
2.28695
20
1.43097
11
2.29264
21
1.42739
0
LINE
8
BLACK
6
CONTINUOUS
10
2.29264
20
1.42739
11
2.29739
21
1.42264
0
LINE
8
BLACK
6
CONTINUOUS
10
2.29739
20
1.42264
11
2.30097
21
1.41695
0
LINE
8
BLACK
6
CONTINUOUS
10
2.30097
20
1.41695
11
2.30318
21
1.41061
0
LINE
8
BLACK
6
CONTINUOUS
10
2.30318
20
1.41061
11
2.30394
21
1.40394
0
LINE
8
BLACK
6
CONTINUOUS
10
2.30394
20
1.40394
11
2.30318
21
1.39726
0
LINE
8
BLACK
6
CONTINUOUS
10
2.30318
20
1.39726
11
2.30097
21
1.39092
0
LINE
8
BLACK
6
CONTINUOUS
10
2.30097
20
1.39092
11
2.29739
21
1.38523
0
LINE
8
BLACK
6
CONTINUOUS
10
2.29739
20
1.38523
11
2.29264
21
1.38048
0
LINE
8
BLACK
6
CONTINUOUS
10
2.29264
20
1.38048
11
2.28695
21
1.37691
0
LINE
8
BLACK
6
CONTINUOUS
10
2.28695
20
1.37691
11
2.28061
21
1.37469
0
LINE
8
BLACK
6
CONTINUOUS
10
2.28061
20
1.37469
11
2.27394
21
1.37394
0
LINE
8
BLACK
6
CONTINUOUS
10
2.27394
20
1.37394
11
2.26726
21
1.37469
0
LINE
8
BLACK
6
CONTINUOUS
10
2.26726
20
1.37469
11
2.26092
21
1.37691
0
LINE
8
BLACK
6
CONTINUOUS
10
2.26092
20
1.37691
11
2.25523
21
1.38048
0
LINE
8
BLACK
6
CONTINUOUS
10
2.25523
20
1.38048
11
2.25048
21
1.38523
0
LINE
8
BLACK
6
CONTINUOUS
10
2.25048
20
1.38523
11
2.24691
21
1.39092
0
LINE
8
BLACK
6
CONTINUOUS
10
2.24691
20
1.39092
11
2.24469
21
1.39726
0
LINE
8
BLACK
6
CONTINUOUS
10
2.24469
20
1.39726
11
2.24394
21
1.40394
0
LINE
8
BLACK
6
CONTINUOUS
10
2.24394
20
1.40394
11
2.24469
21
1.41061
0
LINE
8
BLACK
6
CONTINUOUS
10
2.24469
20
1.41061
11
2.24691
21
1.41695
0
LINE
8
BLACK
6
CONTINUOUS
10
2.24691
20
1.41695
11
2.25048
21
1.42264
0
LINE
8
BLACK
6
CONTINUOUS
10
2.25048
20
1.42264
11
2.25523
21
1.42739
0
LINE
8
BLACK
6
CONTINUOUS
10
2.25523
20
1.42739
11
2.26092
21
1.43097
0
LINE
8
BLACK
6
CONTINUOUS
10
2.26092
20
1.43097
11
2.26726
21
1.43318
0
LINE
8
BLACK
6
CONTINUOUS
10
2.26726
20
1.43318
11
2.27394
21
1.43394
0
LINE
8
BLACK
6
CONTINUOUS
10
2.27394
20
1.43394
11
2.28061
21
1.43318
0
LINE
8
BLACK
6
CONTINUOUS
10
0.665664
20
1.47646
11
0.673286
21
1.47351
0
LINE
8
BLACK
6
CONTINUOUS
10
0.673286
20
1.47351
11
0.680235
21
1.4692
0
LINE
8
BLACK
6
CONTINUOUS
10
0.680235
20
1.4692
11
0.686275
21
1.4637
0
LINE
8
BLACK
6
CONTINUOUS
10
0.686275
20
1.4637
11
0.691201
21
1.45717
0
LINE
8
BLACK
6
CONTINUOUS
10
0.691201
20
1.45717
11
0.694844
21
1.44986
0
LINE
8
BLACK
6
CONTINUOUS
10
0.694844
20
1.44986
11
0.697081
21
1.442
0
LINE
8
BLACK
6
CONTINUOUS
10
0.697081
20
1.442
11
0.697835
21
1.43386
0
LINE
8
BLACK
6
CONTINUOUS
10
0.697835
20
1.43386
11
0.697081
21
1.42572
0
LINE
8
BLACK
6
CONTINUOUS
10
0.697081
20
1.42572
11
0.694844
21
1.41786
0
LINE
8
BLACK
6
CONTINUOUS
10
0.694844
20
1.41786
11
0.691201
21
1.41054
0
LINE
8
BLACK
6
CONTINUOUS
10
0.691201
20
1.41054
11
0.686275
21
1.40402
0
LINE
8
BLACK
6
CONTINUOUS
10
0.686275
20
1.40402
11
0.680235
21
1.39851
0
LINE
8
BLACK
6
CONTINUOUS
10
0.680235
20
1.39851
11
0.673286
21
1.39421
0
LINE
8
BLACK
6
CONTINUOUS
10
0.673286
20
1.39421
11
0.665664
21
1.39126
0
LINE
8
BLACK
6
CONTINUOUS
10
0.665664
20
1.39126
11
0.65763
21
1.38976
0
LINE
8
BLACK
6
CONTINUOUS
10
0.65763
20
1.38976
11
0.649457
21
1.38976
0
LINE
8
BLACK
6
CONTINUOUS
10
0.649457
20
1.38976
11
0.641422
21
1.39126
0
LINE
8
BLACK
6
CONTINUOUS
10
0.641422
20
1.39126
11
0.633801
21
1.39421
0
LINE
8
BLACK
6
CONTINUOUS
10
0.633801
20
1.39421
11
0.626852
21
1.39851
0
LINE
8
BLACK
6
CONTINUOUS
10
0.626852
20
1.39851
11
0.620812
21
1.40402
0
LINE
8
BLACK
6
CONTINUOUS
10
0.620812
20
1.40402
11
0.615886
21
1.41054
0
LINE
8
BLACK
6
CONTINUOUS
10
0.615886
20
1.41054
11
0.612243
21
1.41786
0
LINE
8
BLACK
6
CONTINUOUS
10
0.612243
20
1.41786
11
0.610006
21
1.42572
0
LINE
8
BLACK
6
CONTINUOUS
10
0.610006
20
1.42572
11
0.609252
21
1.43386
0
LINE
8
BLACK
6
CONTINUOUS
10
0.609252
20
1.43386
11
0.610006
21
1.442
0
LINE
8
BLACK
6
CONTINUOUS
10
0.610006
20
1.442
11
0.612243
21
1.44986
0
LINE
8
BLACK
6
CONTINUOUS
10
0.612243
20
1.44986
11
0.615886
21
1.45717
0
LINE
8
BLACK
6
CONTINUOUS
10
0.615886
20
1.45717
11
0.620812
21
1.4637
0
LINE
8
BLACK
6
CONTINUOUS
10
0.620812
20
1.4637
11
0.626852
21
1.4692
0
LINE
8
BLACK
6
CONTINUOUS
10
0.626852
20
1.4692
11
0.633801
21
1.47351
0
LINE
8
BLACK
6
CONTINUOUS
10
0.633801
20
1.47351
11
0.641422
21
1.47646
0
LINE
8
BLACK
6
CONTINUOUS
10
0.641422
20
1.47646
11
0.649457
21
1.47796
0
LINE
8
BLACK
6
CONTINUOUS
10
0.649457
20
1.47796
11
0.65763
21
1.47796
0
LINE
8
BLACK
6
CONTINUOUS
10
0.65763
20
1.47796
11
0.665664
21
1.47646
0
LINE
8
BLACK
6
CONTINUOUS
10
0.865664
20
1.47646
11
0.873286
21
1.47351
0
LINE
8
BLACK
6
CONTINUOUS
10
0.873286
20
1.47351
11
0.880235
21
1.4692
0
LINE
8
BLACK
6
CONTINUOUS
10
0.880235
20
1.4692
11
0.886275
21
1.4637
0
LINE
8
BLACK
6
CONTINUOUS
10
0.886275
20
1.4637
11
0.891201
21
1.45717
0
LINE
8
BLACK
6
CONTINUOUS
10
0.891201
20
1.45717
11
0.894844
21
1.44986
0
LINE
8
BLACK
6
CONTINUOUS
10
0.894844
20
1.44986
11
0.897081
21
1.442
0
LINE
8
BLACK
6
CONTINUOUS
10
0.897081
20
1.442
11
0.897835
21
1.43386
0
LINE
8
BLACK
6
CONTINUOUS
10
0.897835
20
1.43386
11
0.897081
21
1.42572
0
LINE
8
BLACK
6
CONTINUOUS
10
0.897081
20
1.42572
11
0.894844
21
1.41786
0
LINE
8
BLACK
6
CONTINUOUS
10
0.894844
20
1.41786
11
0.891201
21
1.41054
0
LINE
8
BLACK
6
CONTINUOUS
10
0.891201
20
1.41054
11
0.886275
21
1.40402
0
LINE
8
BLACK
6
CONTINUOUS
10
0.886275
20
1.40402
11
0.880235
21
1.39851
0
LINE
8
BLACK
6
CONTINUOUS
10
0.880235
20
1.39851
11
0.873286
21
1.39421
0
LINE
8
BLACK
6
CONTINUOUS
10
0.873286
20
1.39421
11
0.865664
21
1.39126
0
LINE
8
BLACK
6
CONTINUOUS
10
0.865664
20
1.39126
11
0.85763
21
1.38976
0
LINE
8
BLACK
6
CONTINUOUS
10
0.85763
20
1.38976
11
0.849457
21
1.38976
0
LINE
8
BLACK
6
CONTINUOUS
10
0.849457
20
1.38976
11
0.841422
21
1.39126
0
LINE
8
BLACK
6
CONTINUOUS
10
0.841422
20
1.39126
11
0.833801
21
1.39421
0
LINE
8
BLACK
6
CONTINUOUS
10
0.833801
20
1.39421
11
0.826852
21
1.39851
0
LINE
8
BLACK
6
CONTINUOUS
10
0.826852
20
1.39851
11
0.820812
21
1.40402
0
LINE
8
BLACK
6
CONTINUOUS
10
0.820812
20
1.40402
11
0.815886
21
1.41054
0
LINE
8
BLACK
6
CONTINUOUS
10
0.815886
20
1.41054
11
0.812243
21
1.41786
0
LINE
8
BLACK
6
CONTINUOUS
10
0.812243
20
1.41786
11
0.810006
21
1.42572
0
LINE
8
BLACK
6
CONTINUOUS
10
0.810006
20
1.42572
11
0.809252
21
1.43386
0
LINE
8
BLACK
6
CONTINUOUS
10
0.809252
20
1.43386
11
0.810006
21
1.442
0
LINE
8
BLACK
6
CONTINUOUS
10
0.810006
20
1.442
11
0.812243
21
1.44986
0
LINE
8
BLACK
6
CONTINUOUS
10
0.812243
20
1.44986
11
0.815886
21
1.45717
0
LINE
8
BLACK
6
CONTINUOUS
10
0.815886
20
1.45717
11
0.820812
21
1.4637
0
LINE
8
BLACK
6
CONTINUOUS
10
0.820812
20
1.4637
11
0.826852
21
1.4692
0
LINE
8
BLACK
6
CONTINUOUS
10
0.826852
20
1.4692
11
0.833801
21
1.47351
0
LINE
8
BLACK
6
CONTINUOUS
10
0.833801
20
1.47351
11
0.841422
21
1.47646
0
LINE
8
BLACK
6
CONTINUOUS
10
0.841422
20
1.47646
11
0.849457
21
1.47796
0
LINE
8
BLACK
6
CONTINUOUS
10
0.849457
20
1.47796
11
0.85763
21
1.47796
0
LINE
8
BLACK
6
CONTINUOUS
10
0.85763
20
1.47796
11
0.865664
21
1.47646
0
LINE
8
BLACK
6
CONTINUOUS
10
3.3198
20
1.49679
11
3.3226
21
1.49492
0
LINE
8
BLACK
6
CONTINUOUS
10
3.3226
20
1.49492
11
3.32446
21
1.49212
0
LINE
8
BLACK
6
CONTINUOUS
10
3.32446
20
1.49212
11
3.32512
21
1.48883
0
LINE
8
BLACK
6
CONTINUOUS
10
3.32512
20
1.48883
11
3.32512
21
1.45881
0
LINE
8
BLACK
6
CONTINUOUS
10
3.32512
20
1.45881
11
3.32446
21
1.45551
0
LINE
8
BLACK
6
CONTINUOUS
10
3.32446
20
1.45551
11
3.3226
21
1.45272
0
LINE
8
BLACK
6
CONTINUOUS
10
3.3226
20
1.45272
11
3.3198
21
1.45085
0
LINE
8
BLACK
6
CONTINUOUS
10
3.3198
20
1.45085
11
3.31651
21
1.4502
0
LINE
8
BLACK
6
CONTINUOUS
10
3.31651
20
1.4502
11
3.29928
21
1.4502
0
LINE
8
BLACK
6
CONTINUOUS
10
3.29928
20
1.4502
11
3.29599
21
1.45085
0
LINE
8
BLACK
6
CONTINUOUS
10
3.29599
20
1.45085
11
3.29319
21
1.45272
0
LINE
8
BLACK
6
CONTINUOUS
10
3.29319
20
1.45272
11
3.29132
21
1.45551
0
LINE
8
BLACK
6
CONTINUOUS
10
3.29132
20
1.45551
11
3.29067
21
1.45881
0
LINE
8
BLACK
6
CONTINUOUS
10
3.29067
20
1.45881
11
3.29067
21
1.48883
0
LINE
8
BLACK
6
CONTINUOUS
10
3.29067
20
1.48883
11
3.29132
21
1.49212
0
LINE
8
BLACK
6
CONTINUOUS
10
3.29132
20
1.49212
11
3.29319
21
1.49492
0
LINE
8
BLACK
6
CONTINUOUS
10
3.29319
20
1.49492
11
3.29599
21
1.49679
0
LINE
8
BLACK
6
CONTINUOUS
10
3.29599
20
1.49679
11
3.29928
21
1.49744
0
LINE
8
BLACK
6
CONTINUOUS
10
3.29928
20
1.49744
11
3.31651
21
1.49744
0
LINE
8
BLACK
6
CONTINUOUS
10
3.31651
20
1.49744
11
3.3198
21
1.49679
0
LINE
8
BLACK
6
CONTINUOUS
10
3.40346
20
1.49679
11
3.40626
21
1.49492
0
LINE
8
BLACK
6
CONTINUOUS
10
3.40626
20
1.49492
11
3.40812
21
1.49212
0
LINE
8
BLACK
6
CONTINUOUS
10
3.40812
20
1.49212
11
3.40878
21
1.48883
0
LINE
8
BLACK
6
CONTINUOUS
10
3.40878
20
1.48883
11
3.40878
21
1.45881
0
LINE
8
BLACK
6
CONTINUOUS
10
3.40878
20
1.45881
11
3.40812
21
1.45551
0
LINE
8
BLACK
6
CONTINUOUS
10
3.40812
20
1.45551
11
3.40626
21
1.45272
0
LINE
8
BLACK
6
CONTINUOUS
10
3.40626
20
1.45272
11
3.40346
21
1.45085
0
LINE
8
BLACK
6
CONTINUOUS
10
3.40346
20
1.45085
11
3.40017
21
1.4502
0
LINE
8
BLACK
6
CONTINUOUS
10
3.40017
20
1.4502
11
3.38294
21
1.4502
0
LINE
8
BLACK
6
CONTINUOUS
10
3.38294
20
1.4502
11
3.37965
21
1.45085
0
LINE
8
BLACK
6
CONTINUOUS
10
3.37965
20
1.45085
11
3.37685
21
1.45272
0
LINE
8
BLACK
6
CONTINUOUS
10
3.37685
20
1.45272
11
3.37499
21
1.45551
0
LINE
8
BLACK
6
CONTINUOUS
10
3.37499
20
1.45551
11
3.37433
21
1.45881
0
LINE
8
BLACK
6
CONTINUOUS
10
3.37433
20
1.45881
11
3.37433
21
1.48883
0
LINE
8
BLACK
6
CONTINUOUS
10
3.37433
20
1.48883
11
3.37499
21
1.49212
0
LINE
8
BLACK
6
CONTINUOUS
10
3.37499
20
1.49212
11
3.37685
21
1.49492
0
LINE
8
BLACK
6
CONTINUOUS
10
3.37685
20
1.49492
11
3.37965
21
1.49679
0
LINE
8
BLACK
6
CONTINUOUS
10
3.37965
20
1.49679
11
3.38294
21
1.49744
0
LINE
8
BLACK
6
CONTINUOUS
10
3.38294
20
1.49744
11
3.40017
21
1.49744
0
LINE
8
BLACK
6
CONTINUOUS
10
3.40017
20
1.49744
11
3.40346
21
1.49679
0
LINE
8
BLACK
6
CONTINUOUS
10
0.42051
20
1.71632
11
0.433874
21
1.71315
0
LINE
8
BLACK
6
CONTINUOUS
10
0.433874
20
1.71315
11
0.446781
21
1.70845
0
LINE
8
BLACK
6
CONTINUOUS
10
0.446781
20
1.70845
11
0.459055
21
1.70229
0
LINE
8
BLACK
6
CONTINUOUS
10
0.459055
20
1.70229
11
0.470531
21
1.69474
0
LINE
8
BLACK
6
CONTINUOUS
10
0.470531
20
1.69474
11
0.481052
21
1.68591
0
LINE
8
BLACK
6
CONTINUOUS
10
0.481052
20
1.68591
11
0.490478
21
1.67592
0
LINE
8
BLACK
6
CONTINUOUS
10
0.490478
20
1.67592
11
0.49868
21
1.6649
0
LINE
8
BLACK
6
CONTINUOUS
10
0.49868
20
1.6649
11
0.505547
21
1.65301
0
LINE
8
BLACK
6
CONTINUOUS
10
0.505547
20
1.65301
11
0.510987
21
1.6404
0
LINE
8
BLACK
6
CONTINUOUS
10
0.510987
20
1.6404
11
0.514927
21
1.62724
0
LINE
8
BLACK
6
CONTINUOUS
10
0.514927
20
1.62724
11
0.517312
21
1.61371
0
LINE
8
BLACK
6
CONTINUOUS
10
0.517312
20
1.61371
11
0.51811
21
1.6
0
LINE
8
BLACK
6
CONTINUOUS
10
0.51811
20
1.6
11
0.517312
21
1.58629
0
LINE
8
BLACK
6
CONTINUOUS
10
0.517312
20
1.58629
11
0.514927
21
1.57276
0
LINE
8
BLACK
6
CONTINUOUS
10
0.514927
20
1.57276
11
0.510987
21
1.5596
0
LINE
8
BLACK
6
CONTINUOUS
10
0.510987
20
1.5596
11
0.505547
21
1.54699
0
LINE
8
BLACK
6
CONTINUOUS
10
0.505547
20
1.54699
11
0.49868
21
1.5351
0
LINE
8
BLACK
6
CONTINUOUS
10
0.49868
20
1.5351
11
0.490478
21
1.52408
0
LINE
8
BLACK
6
CONTINUOUS
10
0.490478
20
1.52408
11
0.481052
21
1.51409
0
LINE
8
BLACK
6
CONTINUOUS
10
0.481052
20
1.51409
11
0.470531
21
1.50526
0
LINE
8
BLACK
6
CONTINUOUS
10
0.470531
20
1.50526
11
0.459055
21
1.49771
0
LINE
8
BLACK
6
CONTINUOUS
10
0.459055
20
1.49771
11
0.446781
21
1.49155
0
LINE
8
BLACK
6
CONTINUOUS
10
0.446781
20
1.49155
11
0.433874
21
1.48685
0
LINE
8
BLACK
6
CONTINUOUS
10
0.433874
20
1.48685
11
0.42051
21
1.48368
0
LINE
8
BLACK
6
CONTINUOUS
10
0.42051
20
1.48368
11
0.406867
21
1.48209
0
LINE
8
BLACK
6
CONTINUOUS
10
0.406867
20
1.48209
11
0.393133
21
1.48209
0
LINE
8
BLACK
6
CONTINUOUS
10
0.393133
20
1.48209
11
0.37949
21
1.48368
0
LINE
8
BLACK
6
CONTINUOUS
10
0.37949
20
1.48368
11
0.366126
21
1.48685
0
LINE
8
BLACK
6
CONTINUOUS
10
0.366126
20
1.48685
11
0.353219
21
1.49155
0
LINE
8
BLACK
6
CONTINUOUS
10
0.353219
20
1.49155
11
0.340945
21
1.49771
0
LINE
8
BLACK
6
CONTINUOUS
10
0.340945
20
1.49771
11
0.329469
21
1.50526
0
LINE
8
BLACK
6
CONTINUOUS
10
0.329469
20
1.50526
11
0.318948
21
1.51409
0
LINE
8
BLACK
6
CONTINUOUS
10
0.318948
20
1.51409
11
0.309522
21
1.52408
0
LINE
8
BLACK
6
CONTINUOUS
10
0.309522
20
1.52408
11
0.30132
21
1.5351
0
LINE
8
BLACK
6
CONTINUOUS
10
0.30132
20
1.5351
11
0.294453
21
1.54699
0
LINE
8
BLACK
6
CONTINUOUS
10
0.294453
20
1.54699
11
0.289013
21
1.5596
0
LINE
8
BLACK
6
CONTINUOUS
10
0.289013
20
1.5596
11
0.285073
21
1.57276
0
LINE
8
BLACK
6
CONTINUOUS
10
0.285073
20
1.57276
11
0.282688
21
1.58629
0
LINE
8
BLACK
6
CONTINUOUS
10
0.282688
20
1.58629
11
0.28189
21
1.6
0
LINE
8
BLACK
6
CONTINUOUS
10
0.28189
20
1.6
11
0.282688
21
1.61371
0
LINE
8
BLACK
6
CONTINUOUS
10
0.282688
20
1.61371
11
0.285073
21
1.62724
0
LINE
8
BLACK
6
CONTINUOUS
10
0.285073
20
1.62724
11
0.289013
21
1.6404
0
LINE
8
BLACK
6
CONTINUOUS
10
0.289013
20
1.6404
11
0.294453
21
1.65301
0
LINE
8
BLACK
6
CONTINUOUS
10
0.294453
20
1.65301
11
0.30132
21
1.6649
0
LINE
8
BLACK
6
CONTINUOUS
10
0.30132
20
1.6649
11
0.309522
21
1.67592
0
LINE
8
BLACK
6
CONTINUOUS
10
0.309522
20
1.67592
11
0.318948
21
1.68591
0
LINE
8
BLACK
6
CONTINUOUS
10
0.318948
20
1.68591
11
0.329469
21
1.69474
0
LINE
8
BLACK
6
CONTINUOUS
10
0.329469
20
1.69474
11
0.340945
21
1.70229
0
LINE
8
BLACK
6
CONTINUOUS
10
0.340945
20
1.70229
11
0.353219
21
1.70845
0
LINE
8
BLACK
6
CONTINUOUS
10
0.353219
20
1.70845
11
0.366126
21
1.71315
0
LINE
8
BLACK
6
CONTINUOUS
10
0.366126
20
1.71315
11
0.37949
21
1.71632
0
LINE
8
BLACK
6
CONTINUOUS
10
0.37949
20
1.71632
11
0.393133
21
1.71791
0
LINE
8
BLACK
6
CONTINUOUS
10
0.393133
20
1.71791
11
0.406867
21
1.71791
0
LINE
8
BLACK
6
CONTINUOUS
10
0.406867
20
1.71791
11
0.42051
21
1.71632
0
LINE
8
BLACK
6
CONTINUOUS
10
1.62051
20
1.71632
11
1.63387
21
1.71315
0
LINE
8
BLACK
6
CONTINUOUS
10
1.63387
20
1.71315
11
1.64678
21
1.70845
0
LINE
8
BLACK
6
CONTINUOUS
10
1.64678
20
1.70845
11
1.65906
21
1.70229
0
LINE
8
BLACK
6
CONTINUOUS
10
1.65906
20
1.70229
11
1.67053
21
1.69474
0
LINE
8
BLACK
6
CONTINUOUS
10
1.67053
20
1.69474
11
1.68105
21
1.68591
0
LINE
8
BLACK
6
CONTINUOUS
10
1.68105
20
1.68591
11
1.69048
21
1.67592
0
LINE
8
BLACK
6
CONTINUOUS
10
1.69048
20
1.67592
11
1.69868
21
1.6649
0
LINE
8
BLACK
6
CONTINUOUS
10
1.69868
20
1.6649
11
1.70555
21
1.65301
0
LINE
8
BLACK
6
CONTINUOUS
10
1.70555
20
1.65301
11
1.71099
21
1.6404
0
LINE
8
BLACK
6
CONTINUOUS
10
1.71099
20
1.6404
11
1.71493
21
1.62724
0
LINE
8
BLACK
6
CONTINUOUS
10
1.71493
20
1.62724
11
1.71731
21
1.61371
0
LINE
8
BLACK
6
CONTINUOUS
10
1.71731
20
1.61371
11
1.71811
21
1.6
0
LINE
8
BLACK
6
CONTINUOUS
10
1.71811
20
1.6
11
1.71731
21
1.58629
0
LINE
8
BLACK
6
CONTINUOUS
10
1.71731
20
1.58629
11
1.71493
21
1.57276
0
LINE
8
BLACK
6
CONTINUOUS
10
1.71493
20
1.57276
11
1.71099
21
1.5596
0
LINE
8
BLACK
6
CONTINUOUS
10
1.71099
20
1.5596
11
1.70555
21
1.54699
0
LINE
8
BLACK
6
CONTINUOUS
10
1.70555
20
1.54699
11
1.69868
21
1.5351
0
LINE
8
BLACK
6
CONTINUOUS
10
1.69868
20
1.5351
11
1.69048
21
1.52408
0
LINE
8
BLACK
6
CONTINUOUS
10
1.69048
20
1.52408
11
1.68105
21
1.51409
0
LINE
8
BLACK
6
CONTINUOUS
10
1.68105
20
1.51409
11
1.67053
21
1.50526
0
LINE
8
BLACK
6
CONTINUOUS
10
1.67053
20
1.50526
11
1.65906
21
1.49771
0
LINE
8
BLACK
6
CONTINUOUS
10
1.65906
20
1.49771
11
1.64678
21
1.49155
0
LINE
8
BLACK
6
CONTINUOUS
10
1.64678
20
1.49155
11
1.63387
21
1.48685
0
LINE
8
BLACK
6
CONTINUOUS
10
1.63387
20
1.48685
11
1.62051
21
1.48368
0
LINE
8
BLACK
6
CONTINUOUS
10
1.62051
20
1.48368
11
1.60687
21
1.48209
0
LINE
8
BLACK
6
CONTINUOUS
10
1.60687
20
1.48209
11
1.59313
21
1.48209
0
LINE
8
BLACK
6
CONTINUOUS
10
1.59313
20
1.48209
11
1.57949
21
1.48368
0
LINE
8
BLACK
6
CONTINUOUS
10
1.57949
20
1.48368
11
1.56613
21
1.48685
0
LINE
8
BLACK
6
CONTINUOUS
10
1.56613
20
1.48685
11
1.55322
21
1.49155
0
LINE
8
BLACK
6
CONTINUOUS
10
1.55322
20
1.49155
11
1.54094
21
1.49771
0
LINE
8
BLACK
6
CONTINUOUS
10
1.54094
20
1.49771
11
1.52947
21
1.50526
0
LINE
8
BLACK
6
CONTINUOUS
10
1.52947
20
1.50526
11
1.51895
21
1.51409
0
LINE
8
BLACK
6
CONTINUOUS
10
1.51895
20
1.51409
11
1.50952
21
1.52408
0
LINE
8
BLACK
6
CONTINUOUS
10
1.50952
20
1.52408
11
1.50132
21
1.5351
0
LINE
8
BLACK
6
CONTINUOUS
10
1.50132
20
1.5351
11
1.49445
21
1.54699
0
LINE
8
BLACK
6
CONTINUOUS
10
1.49445
20
1.54699
11
1.48901
21
1.5596
0
LINE
8
BLACK
6
CONTINUOUS
10
1.48901
20
1.5596
11
1.48507
21
1.57276
0
LINE
8
BLACK
6
CONTINUOUS
10
1.48507
20
1.57276
11
1.48269
21
1.58629
0
LINE
8
BLACK
6
CONTINUOUS
10
1.48269
20
1.58629
11
1.48189
21
1.6
0
LINE
8
BLACK
6
CONTINUOUS
10
1.48189
20
1.6
11
1.48269
21
1.61371
0
LINE
8
BLACK
6
CONTINUOUS
10
1.48269
20
1.61371
11
1.48507
21
1.62724
0
LINE
8
BLACK
6
CONTINUOUS
10
1.48507
20
1.62724
11
1.48901
21
1.6404
0
LINE
8
BLACK
6
CONTINUOUS
10
1.48901
20
1.6404
11
1.49445
21
1.65301
0
LINE
8
BLACK
6
CONTINUOUS
10
1.49445
20
1.65301
11
1.50132
21
1.6649
0
LINE
8
BLACK
6
CONTINUOUS
10
1.50132
20
1.6649
11
1.50952
21
1.67592
0
LINE
8
BLACK
6
CONTINUOUS
10
1.50952
20
1.67592
11
1.51895
21
1.68591
0
LINE
8
BLACK
6
CONTINUOUS
10
1.51895
20
1.68591
11
1.52947
21
1.69474
0
LINE
8
BLACK
6
CONTINUOUS
10
1.52947
20
1.69474
11
1.54094
21
1.70229
0
LINE
8
BLACK
6
CONTINUOUS
10
1.54094
20
1.70229
11
1.55322
21
1.70845
0
LINE
8
BLACK
6
CONTINUOUS
10
1.55322
20
1.70845
11
1.56613
21
1.71315
0
LINE
8
BLACK
6
CONTINUOUS
10
1.56613
20
1.71315
11
1.57949
21
1.71632
0
LINE
8
BLACK
6
CONTINUOUS
10
1.57949
20
1.71632
11
1.59313
21
1.71791
0
LINE
8
BLACK
6
CONTINUOUS
10
1.59313
20
1.71791
11
1.60687
21
1.71791
0
LINE
8
BLACK
6
CONTINUOUS
10
1.60687
20
1.71791
11
1.62051
21
1.71632
0
LINE
8
BLACK
6
CONTINUOUS
10
3.32987
20
1.61283
11
3.33306
21
1.6107
0
LINE
8
BLACK
6
CONTINUOUS
10
3.33306
20
1.6107
11
3.3352
21
1.60751
0
LINE
8
BLACK
6
CONTINUOUS
10
3.3352
20
1.60751
11
3.33594
21
1.60374
0
LINE
8
BLACK
6
CONTINUOUS
10
3.33594
20
1.60374
11
3.33594
21
1.56831
0
LINE
8
BLACK
6
CONTINUOUS
10
3.33594
20
1.56831
11
3.3352
21
1.56454
0
LINE
8
BLACK
6
CONTINUOUS
10
3.3352
20
1.56454
11
3.33306
21
1.56135
0
LINE
8
BLACK
6
CONTINUOUS
10
3.33306
20
1.56135
11
3.32987
21
1.55921
0
LINE
8
BLACK
6
CONTINUOUS
10
3.32987
20
1.55921
11
3.3261
21
1.55846
0
LINE
8
BLACK
6
CONTINUOUS
10
3.3261
20
1.55846
11
3.30051
21
1.55846
0
LINE
8
BLACK
6
CONTINUOUS
10
3.30051
20
1.55846
11
3.29675
21
1.55921
0
LINE
8
BLACK
6
CONTINUOUS
10
3.29675
20
1.55921
11
3.29355
21
1.56135
0
LINE
8
BLACK
6
CONTINUOUS
10
3.29355
20
1.56135
11
3.29142
21
1.56454
0
LINE
8
BLACK
6
CONTINUOUS
10
3.29142
20
1.56454
11
3.29067
21
1.56831
0
LINE
8
BLACK
6
CONTINUOUS
10
3.29067
20
1.56831
11
3.29067
21
1.60374
0
LINE
8
BLACK
6
CONTINUOUS
10
3.29067
20
1.60374
11
3.29142
21
1.60751
0
LINE
8
BLACK
6
CONTINUOUS
10
3.29142
20
1.60751
11
3.29355
21
1.6107
0
LINE
8
BLACK
6
CONTINUOUS
10
3.29355
20
1.6107
11
3.29675
21
1.61283
0
LINE
8
BLACK
6
CONTINUOUS
10
3.29675
20
1.61283
11
3.30051
21
1.61358
0
LINE
8
BLACK
6
CONTINUOUS
10
3.30051
20
1.61358
11
3.3261
21
1.61358
0
LINE
8
BLACK
6
CONTINUOUS
10
3.3261
20
1.61358
11
3.32987
21
1.61283
0
LINE
8
BLACK
6
CONTINUOUS
10
3.41058
20
1.61283
11
3.41377
21
1.6107
0
LINE
8
BLACK
6
CONTINUOUS
10
3.41377
20
1.6107
11
3.4159
21
1.60751
0
LINE
8
BLACK
6
CONTINUOUS
10
3.4159
20
1.60751
11
3.41665
21
1.60374
0
LINE
8
BLACK
6
CONTINUOUS
10
3.41665
20
1.60374
11
3.41665
21
1.56831
0
LINE
8
BLACK
6
CONTINUOUS
10
3.41665
20
1.56831
11
3.4159
21
1.56454
0
LINE
8
BLACK
6
CONTINUOUS
10
3.4159
20
1.56454
11
3.41377
21
1.56135
0
LINE
8
BLACK
6
CONTINUOUS
10
3.41377
20
1.56135
11
3.41058
21
1.55921
0
LINE
8
BLACK
6
CONTINUOUS
10
3.41058
20
1.55921
11
3.40681
21
1.55846
0
LINE
8
BLACK
6
CONTINUOUS
10
3.40681
20
1.55846
11
3.38122
21
1.55846
0
LINE
8
BLACK
6
CONTINUOUS
10
3.38122
20
1.55846
11
3.37745
21
1.55921
0
LINE
8
BLACK
6
CONTINUOUS
10
3.37745
20
1.55921
11
3.37426
21
1.56135
0
LINE
8
BLACK
6
CONTINUOUS
10
3.37426
20
1.56135
11
3.37213
21
1.56454
0
LINE
8
BLACK
6
CONTINUOUS
10
3.37213
20
1.56454
11
3.37138
21
1.56831
0
LINE
8
BLACK
6
CONTINUOUS
10
3.37138
20
1.56831
11
3.37138
21
1.60374
0
LINE
8
BLACK
6
CONTINUOUS
10
3.37138
20
1.60374
11
3.37213
21
1.60751
0
LINE
8
BLACK
6
CONTINUOUS
10
3.37213
20
1.60751
11
3.37426
21
1.6107
0
LINE
8
BLACK
6
CONTINUOUS
10
3.37426
20
1.6107
11
3.37745
21
1.61283
0
LINE
8
BLACK
6
CONTINUOUS
10
3.37745
20
1.61283
11
3.38122
21
1.61358
0
LINE
8
BLACK
6
CONTINUOUS
10
3.38122
20
1.61358
11
3.40681
21
1.61358
0
LINE
8
BLACK
6
CONTINUOUS
10
3.40681
20
1.61358
11
3.41058
21
1.61283
0
LINE
8
BLACK
6
CONTINUOUS
10
2.28061
20
1.63004
11
2.28695
21
1.62782
0
LINE
8
BLACK
6
CONTINUOUS
10
2.28695
20
1.62782
11
2.29264
21
1.62424
0
LINE
8
BLACK
6
CONTINUOUS
10
2.29264
20
1.62424
11
2.29739
21
1.61949
0
LINE
8
BLACK
6
CONTINUOUS
10
2.29739
20
1.61949
11
2.30097
21
1.6138
0
LINE
8
BLACK
6
CONTINUOUS
10
2.30097
20
1.6138
11
2.30318
21
1.60746
0
LINE
8
BLACK
6
CONTINUOUS
10
2.30318
20
1.60746
11
2.30394
21
1.60079
0
LINE
8
BLACK
6
CONTINUOUS
10
2.30394
20
1.60079
11
2.30318
21
1.59411
0
LINE
8
BLACK
6
CONTINUOUS
10
2.30318
20
1.59411
11
2.30097
21
1.58777
0
LINE
8
BLACK
6
CONTINUOUS
10
2.30097
20
1.58777
11
2.29739
21
1.58208
0
LINE
8
BLACK
6
CONTINUOUS
10
2.29739
20
1.58208
11
2.29264
21
1.57733
0
LINE
8
BLACK
6
CONTINUOUS
10
2.29264
20
1.57733
11
2.28695
21
1.57376
0
LINE
8
BLACK
6
CONTINUOUS
10
2.28695
20
1.57376
11
2.28061
21
1.57154
0
LINE
8
BLACK
6
CONTINUOUS
10
2.28061
20
1.57154
11
2.27394
21
1.57079
0
LINE
8
BLACK
6
CONTINUOUS
10
2.27394
20
1.57079
11
2.26726
21
1.57154
0
LINE
8
BLACK
6
CONTINUOUS
10
2.26726
20
1.57154
11
2.26092
21
1.57376
0
LINE
8
BLACK
6
CONTINUOUS
10
2.26092
20
1.57376
11
2.25523
21
1.57733
0
LINE
8
BLACK
6
CONTINUOUS
10
2.25523
20
1.57733
11
2.25048
21
1.58208
0
LINE
8
BLACK
6
CONTINUOUS
10
2.25048
20
1.58208
11
2.24691
21
1.58777
0
LINE
8
BLACK
6
CONTINUOUS
10
2.24691
20
1.58777
11
2.24469
21
1.59411
0
LINE
8
BLACK
6
CONTINUOUS
10
2.24469
20
1.59411
11
2.24394
21
1.60079
0
LINE
8
BLACK
6
CONTINUOUS
10
2.24394
20
1.60079
11
2.24469
21
1.60746
0
LINE
8
BLACK
6
CONTINUOUS
10
2.24469
20
1.60746
11
2.24691
21
1.6138
0
LINE
8
BLACK
6
CONTINUOUS
10
2.24691
20
1.6138
11
2.25048
21
1.61949
0
LINE
8
BLACK
6
CONTINUOUS
10
2.25048
20
1.61949
11
2.25523
21
1.62424
0
LINE
8
BLACK
6
CONTINUOUS
10
2.25523
20
1.62424
11
2.26092
21
1.62782
0
LINE
8
BLACK
6
CONTINUOUS
10
2.26092
20
1.62782
11
2.26726
21
1.63004
0
LINE
8
BLACK
6
CONTINUOUS
10
2.26726
20
1.63004
11
2.27394
21
1.63079
0
LINE
8
BLACK
6
CONTINUOUS
10
2.27394
20
1.63079
11
2.28061
21
1.63004
0
LINE
8
BLACK
6
CONTINUOUS
10
3.31232
20
1.68937
11
3.29067
21
1.68937
0
LINE
8
BLACK
6
CONTINUOUS
10
3.29067
20
1.68937
11
3.29067
21
1.69921
0
LINE
8
BLACK
6
CONTINUOUS
10
3.29067
20
1.69921
11
3.31232
21
1.69921
0
LINE
8
BLACK
6
CONTINUOUS
10
3.31232
20
1.69921
11
3.31232
21
1.68937
0
LINE
8
BLACK
6
CONTINUOUS
10
3.40484
20
1.68937
11
3.38319
21
1.68937
0
LINE
8
BLACK
6
CONTINUOUS
10
3.38319
20
1.68937
11
3.38319
21
1.69921
0
LINE
8
BLACK
6
CONTINUOUS
10
3.38319
20
1.69921
11
3.40484
21
1.69921
0
LINE
8
BLACK
6
CONTINUOUS
10
3.40484
20
1.69921
11
3.40484
21
1.68937
0
LINE
8
BLACK
6
CONTINUOUS
10
3.36744
20
1.69035
11
3.32807
21
1.69035
0
LINE
8
BLACK
6
CONTINUOUS
10
3.32807
20
1.69035
11
3.32807
21
1.74547
0
LINE
8
BLACK
6
CONTINUOUS
10
3.32807
20
1.74547
11
3.33988
21
1.75728
0
LINE
8
BLACK
6
CONTINUOUS
10
3.33988
20
1.75728
11
3.36744
21
1.75728
0
LINE
8
BLACK
6
CONTINUOUS
10
3.36744
20
1.75728
11
3.36744
21
1.69035
0
LINE
8
BLACK
6
CONTINUOUS
10
3.31232
20
1.70906
11
3.29067
21
1.70906
0
LINE
8
BLACK
6
CONTINUOUS
10
3.29067
20
1.70906
11
3.29067
21
1.7189
0
LINE
8
BLACK
6
CONTINUOUS
10
3.29067
20
1.7189
11
3.31232
21
1.7189
0
LINE
8
BLACK
6
CONTINUOUS
10
3.31232
20
1.7189
11
3.31232
21
1.70906
0
LINE
8
BLACK
6
CONTINUOUS
10
3.40484
20
1.70906
11
3.38319
21
1.70906
0
LINE
8
BLACK
6
CONTINUOUS
10
3.38319
20
1.70906
11
3.38319
21
1.7189
0
LINE
8
BLACK
6
CONTINUOUS
10
3.38319
20
1.7189
11
3.40484
21
1.7189
0
LINE
8
BLACK
6
CONTINUOUS
10
3.40484
20
1.7189
11
3.40484
21
1.70906
0
LINE
8
BLACK
6
CONTINUOUS
10
3.31232
20
1.72874
11
3.29067
21
1.72874
0
LINE
8
BLACK
6
CONTINUOUS
10
3.29067
20
1.72874
11
3.29067
21
1.73858
0
LINE
8
BLACK
6
CONTINUOUS
10
3.29067
20
1.73858
11
3.31232
21
1.73858
0
LINE
8
BLACK
6
CONTINUOUS
10
3.31232
20
1.73858
11
3.31232
21
1.72874
0
LINE
8
BLACK
6
CONTINUOUS
10
3.40484
20
1.72874
11
3.38319
21
1.72874
0
LINE
8
BLACK
6
CONTINUOUS
10
3.38319
20
1.72874
11
3.38319
21
1.73858
0
LINE
8
BLACK
6
CONTINUOUS
10
3.38319
20
1.73858
11
3.40484
21
1.73858
0
LINE
8
BLACK
6
CONTINUOUS
10
3.40484
20
1.73858
11
3.40484
21
1.72874
0
LINE
8
BLACK
6
CONTINUOUS
10
3.31232
20
1.74843
11
3.29067
21
1.74843
0
LINE
8
BLACK
6
CONTINUOUS
10
3.29067
20
1.74843
11
3.29067
21
1.75827
0
LINE
8
BLACK
6
CONTINUOUS
10
3.29067
20
1.75827
11
3.31232
21
1.75827
0
LINE
8
BLACK
6
CONTINUOUS
10
3.31232
20
1.75827
11
3.31232
21
1.74843
0
LINE
8
BLACK
6
CONTINUOUS
10
3.40484
20
1.74843
11
3.38319
21
1.74843
0
LINE
8
BLACK
6
CONTINUOUS
10
3.38319
20
1.74843
11
3.38319
21
1.75827
0
LINE
8
BLACK
6
CONTINUOUS
10
3.38319
20
1.75827
11
3.40484
21
1.75827
0
LINE
8
BLACK
6
CONTINUOUS
10
3.40484
20
1.75827
11
3.40484
21
1.74843
  0
ENDSEC
  0
EOF
