  0
SECTION
  2
HEADER
  9
$ANGBASE
  50
0.0
  9
$ANGDIR
  70
1
  9
$MEASUREMENT
  70
0
  0
ENDSEC
  0
SECTION
  2
TABLES
  0
TABLE
  2
LTYPE
  70
4
  0
LTYPE
  5
40F
  2
CONTINUOUS
  70
0
  3
Solid line
  72
65
  73
0
  40
0.0
  0
LTYPE
  5
410
  2
DASHDOT
 70
0
  3
Dash Dot ____ _ ____ _
 72
65
 73
4
 40
2.0
 49
1.25
 49
-0.25
 49
0.25
 49
-0.25
  0
LTYPE
  5
411
  2
DASHED
 70
0
  3
Dashed __ __ __ __ __
 72
65
 73
2
 40
0.75
 49
0.5
 49
-0.25
  0
LTYPE
  5
43B
  2
DOTTED
 70
0
  3
Dotted .  .  .  .
 72
65
 73
2
 40
0.2
 49
0.0
 49
-0.2
  0
ENDTAB
  0
TABLE
  2
STYLE
  70
4
  0
STYLE
  2
KICAD
  70
0
  40
0
  41
1
  42
1
  50
0
  71
0
  3
isocp.shx
  0
STYLE
  2
KICADB
  70
0
  40
0
  41
1
  42
1
  50
0
  71
0
  3
isocp.shx
  0
STYLE
  2
KICADI
  70
0
  40
0
  41
1
  42
1
  50
15
  71
0
  3
isocp.shx
  0
STYLE
  2
KICADBI
  70
0
  40
0
  41
1
  42
1
  50
15
  71
0
  3
isocp.shx
  0
ENDTAB
  0
TABLE
  2
LAYER
  70
1
  0
LAYER
  2
BLACK
  70
0
  62
7
  6
CONTINUOUS
  0
ENDTAB
  0
ENDSEC
  0
SECTION
  2
ENTITIES
0
LINE
8
BLACK
6
CONTINUOUS
10
0.414063
20
0.52481
11
0.427949
21
0.522451
0
LINE
8
BLACK
6
CONTINUOUS
10
0.427949
20
0.522451
11
0.441483
21
0.518552
0
LINE
8
BLACK
6
CONTINUOUS
10
0.441483
20
0.518552
11
0.454496
21
0.513162
0
LINE
8
BLACK
6
CONTINUOUS
10
0.454496
20
0.513162
11
0.466823
21
0.506349
0
LINE
8
BLACK
6
CONTINUOUS
10
0.466823
20
0.506349
11
0.47831
21
0.498198
0
LINE
8
BLACK
6
CONTINUOUS
10
0.47831
20
0.498198
11
0.488813
21
0.488813
0
LINE
8
BLACK
6
CONTINUOUS
10
0.488813
20
0.488813
11
0.498198
21
0.47831
0
LINE
8
BLACK
6
CONTINUOUS
10
0.498198
20
0.47831
11
0.506349
21
0.466823
0
LINE
8
BLACK
6
CONTINUOUS
10
0.506349
20
0.466823
11
0.513162
21
0.454496
0
LINE
8
BLACK
6
CONTINUOUS
10
0.513162
20
0.454496
11
0.518552
21
0.441483
0
LINE
8
BLACK
6
CONTINUOUS
10
0.518552
20
0.441483
11
0.522451
21
0.427949
0
LINE
8
BLACK
6
CONTINUOUS
10
0.522451
20
0.427949
11
0.52481
21
0.414063
0
LINE
8
BLACK
6
CONTINUOUS
10
0.52481
20
0.414063
11
0.5256
21
0.4
0
LINE
8
BLACK
6
CONTINUOUS
10
0.5256
20
0.4
11
0.52481
21
0.385937
0
LINE
8
BLACK
6
CONTINUOUS
10
0.52481
20
0.385937
11
0.522451
21
0.372051
0
LINE
8
BLACK
6
CONTINUOUS
10
0.522451
20
0.372051
11
0.518552
21
0.358517
0
LINE
8
BLACK
6
CONTINUOUS
10
0.518552
20
0.358517
11
0.513162
21
0.345504
0
LINE
8
BLACK
6
CONTINUOUS
10
0.513162
20
0.345504
11
0.506349
21
0.333177
0
LINE
8
BLACK
6
CONTINUOUS
10
0.506349
20
0.333177
11
0.498198
21
0.32169
0
LINE
8
BLACK
6
CONTINUOUS
10
0.498198
20
0.32169
11
0.488813
21
0.311187
0
LINE
8
BLACK
6
CONTINUOUS
10
0.488813
20
0.311187
11
0.47831
21
0.301802
0
LINE
8
BLACK
6
CONTINUOUS
10
0.47831
20
0.301802
11
0.466823
21
0.293651
0
LINE
8
BLACK
6
CONTINUOUS
10
0.466823
20
0.293651
11
0.454496
21
0.286838
0
LINE
8
BLACK
6
CONTINUOUS
10
0.454496
20
0.286838
11
0.441483
21
0.281448
0
LINE
8
BLACK
6
CONTINUOUS
10
0.441483
20
0.281448
11
0.427949
21
0.277549
0
LINE
8
BLACK
6
CONTINUOUS
10
0.427949
20
0.277549
11
0.414063
21
0.27519
0
LINE
8
BLACK
6
CONTINUOUS
10
0.414063
20
0.27519
11
0.4
21
0.2744
0
LINE
8
BLACK
6
CONTINUOUS
10
0.4
20
0.2744
11
0.385937
21
0.27519
0
LINE
8
BLACK
6
CONTINUOUS
10
0.385937
20
0.27519
11
0.372051
21
0.277549
0
LINE
8
BLACK
6
CONTINUOUS
10
0.372051
20
0.277549
11
0.358517
21
0.281448
0
LINE
8
BLACK
6
CONTINUOUS
10
0.358517
20
0.281448
11
0.345504
21
0.286838
0
LINE
8
BLACK
6
CONTINUOUS
10
0.345504
20
0.286838
11
0.333177
21
0.293651
0
LINE
8
BLACK
6
CONTINUOUS
10
0.333177
20
0.293651
11
0.32169
21
0.301802
0
LINE
8
BLACK
6
CONTINUOUS
10
0.32169
20
0.301802
11
0.311187
21
0.311187
0
LINE
8
BLACK
6
CONTINUOUS
10
0.311187
20
0.311187
11
0.301802
21
0.32169
0
LINE
8
BLACK
6
CONTINUOUS
10
0.301802
20
0.32169
11
0.293651
21
0.333177
0
LINE
8
BLACK
6
CONTINUOUS
10
0.293651
20
0.333177
11
0.286838
21
0.345504
0
LINE
8
BLACK
6
CONTINUOUS
10
0.286838
20
0.345504
11
0.281448
21
0.358517
0
LINE
8
BLACK
6
CONTINUOUS
10
0.281448
20
0.358517
11
0.277549
21
0.372051
0
LINE
8
BLACK
6
CONTINUOUS
10
0.277549
20
0.372051
11
0.27519
21
0.385937
0
LINE
8
BLACK
6
CONTINUOUS
10
0.27519
20
0.385937
11
0.2744
21
0.4
0
LINE
8
BLACK
6
CONTINUOUS
10
0.2744
20
0.4
11
0.27519
21
0.414063
0
LINE
8
BLACK
6
CONTINUOUS
10
0.27519
20
0.414063
11
0.277549
21
0.427949
0
LINE
8
BLACK
6
CONTINUOUS
10
0.277549
20
0.427949
11
0.281448
21
0.441483
0
LINE
8
BLACK
6
CONTINUOUS
10
0.281448
20
0.441483
11
0.286838
21
0.454496
0
LINE
8
BLACK
6
CONTINUOUS
10
0.286838
20
0.454496
11
0.293651
21
0.466823
0
LINE
8
BLACK
6
CONTINUOUS
10
0.293651
20
0.466823
11
0.301802
21
0.47831
0
LINE
8
BLACK
6
CONTINUOUS
10
0.301802
20
0.47831
11
0.311187
21
0.488813
0
LINE
8
BLACK
6
CONTINUOUS
10
0.311187
20
0.488813
11
0.32169
21
0.498198
0
LINE
8
BLACK
6
CONTINUOUS
10
0.32169
20
0.498198
11
0.333177
21
0.506349
0
LINE
8
BLACK
6
CONTINUOUS
10
0.333177
20
0.506349
11
0.345504
21
0.513162
0
LINE
8
BLACK
6
CONTINUOUS
10
0.345504
20
0.513162
11
0.358517
21
0.518552
0
LINE
8
BLACK
6
CONTINUOUS
10
0.358517
20
0.518552
11
0.372051
21
0.522451
0
LINE
8
BLACK
6
CONTINUOUS
10
0.372051
20
0.522451
11
0.385937
21
0.52481
0
LINE
8
BLACK
6
CONTINUOUS
10
0.385937
20
0.52481
11
0.4
21
0.5256
0
LINE
8
BLACK
6
CONTINUOUS
10
0.4
20
0.5256
11
0.414063
21
0.52481
0
LINE
8
BLACK
6
CONTINUOUS
10
0.289962
20
0.387138
11
0.292199
21
0.374451
0
LINE
8
BLACK
6
CONTINUOUS
10
0.292199
20
0.374451
11
0.295894
21
0.362108
0
LINE
8
BLACK
6
CONTINUOUS
10
0.295894
20
0.362108
11
0.300997
21
0.350279
0
LINE
8
BLACK
6
CONTINUOUS
10
0.300997
20
0.350279
11
0.307438
21
0.339121
0
LINE
8
BLACK
6
CONTINUOUS
10
0.307438
20
0.339121
11
0.315132
21
0.328787
0
LINE
8
BLACK
6
CONTINUOUS
10
0.315132
20
0.328787
11
0.323973
21
0.319416
0
LINE
8
BLACK
6
CONTINUOUS
10
0.323973
20
0.319416
11
0.333842
21
0.311135
0
LINE
8
BLACK
6
CONTINUOUS
10
0.333842
20
0.311135
11
0.344606
21
0.304055
0
LINE
8
BLACK
6
CONTINUOUS
10
0.344606
20
0.304055
11
0.356119
21
0.298273
0
LINE
8
BLACK
6
CONTINUOUS
10
0.356119
20
0.298273
11
0.368226
21
0.293867
0
LINE
8
BLACK
6
CONTINUOUS
10
0.368226
20
0.293867
11
0.380762
21
0.290896
0
LINE
8
BLACK
6
CONTINUOUS
10
0.380762
20
0.290896
11
0.393558
21
0.2894
0
LINE
8
BLACK
6
CONTINUOUS
10
0.393558
20
0.2894
11
0.406442
21
0.2894
0
LINE
8
BLACK
6
CONTINUOUS
10
0.406442
20
0.2894
11
0.419238
21
0.290896
0
LINE
8
BLACK
6
CONTINUOUS
10
0.419238
20
0.290896
11
0.431774
21
0.293867
0
LINE
8
BLACK
6
CONTINUOUS
10
0.431774
20
0.293867
11
0.443881
21
0.298273
0
LINE
8
BLACK
6
CONTINUOUS
10
0.443881
20
0.298273
11
0.455394
21
0.304055
0
LINE
8
BLACK
6
CONTINUOUS
10
0.455394
20
0.304055
11
0.466158
21
0.311135
0
LINE
8
BLACK
6
CONTINUOUS
10
0.466158
20
0.311135
11
0.476027
21
0.319416
0
LINE
8
BLACK
6
CONTINUOUS
10
0.476027
20
0.319416
11
0.484868
21
0.328787
0
LINE
8
BLACK
6
CONTINUOUS
10
0.484868
20
0.328787
11
0.492562
21
0.339121
0
LINE
8
BLACK
6
CONTINUOUS
10
0.492562
20
0.339121
11
0.499003
21
0.350279
0
LINE
8
BLACK
6
CONTINUOUS
10
0.499003
20
0.350279
11
0.504106
21
0.362108
0
LINE
8
BLACK
6
CONTINUOUS
10
0.504106
20
0.362108
11
0.507801
21
0.374451
0
LINE
8
BLACK
6
CONTINUOUS
10
0.507801
20
0.374451
11
0.510038
21
0.387138
0
LINE
8
BLACK
6
CONTINUOUS
10
0.510038
20
0.387138
11
0.510787
21
0.4
0
LINE
8
BLACK
6
CONTINUOUS
10
0.510787
20
0.4
11
0.510038
21
0.412862
0
LINE
8
BLACK
6
CONTINUOUS
10
0.510038
20
0.412862
11
0.507801
21
0.425549
0
LINE
8
BLACK
6
CONTINUOUS
10
0.507801
20
0.425549
11
0.504106
21
0.437892
0
LINE
8
BLACK
6
CONTINUOUS
10
0.504106
20
0.437892
11
0.499003
21
0.449721
0
LINE
8
BLACK
6
CONTINUOUS
10
0.499003
20
0.449721
11
0.492562
21
0.460879
0
LINE
8
BLACK
6
CONTINUOUS
10
0.492562
20
0.460879
11
0.484868
21
0.471213
0
LINE
8
BLACK
6
CONTINUOUS
10
0.484868
20
0.471213
11
0.476027
21
0.480584
0
LINE
8
BLACK
6
CONTINUOUS
10
0.476027
20
0.480584
11
0.466158
21
0.488865
0
LINE
8
BLACK
6
CONTINUOUS
10
0.466158
20
0.488865
11
0.455394
21
0.495945
0
LINE
8
BLACK
6
CONTINUOUS
10
0.455394
20
0.495945
11
0.443881
21
0.501727
0
LINE
8
BLACK
6
CONTINUOUS
10
0.443881
20
0.501727
11
0.431774
21
0.506133
0
LINE
8
BLACK
6
CONTINUOUS
10
0.431774
20
0.506133
11
0.419238
21
0.509104
0
LINE
8
BLACK
6
CONTINUOUS
10
0.419238
20
0.509104
11
0.406442
21
0.5106
0
LINE
8
BLACK
6
CONTINUOUS
10
0.406442
20
0.5106
11
0.393558
21
0.5106
0
LINE
8
BLACK
6
CONTINUOUS
10
0.393558
20
0.5106
11
0.380762
21
0.509104
0
LINE
8
BLACK
6
CONTINUOUS
10
0.380762
20
0.509104
11
0.368226
21
0.506133
0
LINE
8
BLACK
6
CONTINUOUS
10
0.368226
20
0.506133
11
0.356119
21
0.501727
0
LINE
8
BLACK
6
CONTINUOUS
10
0.356119
20
0.501727
11
0.344606
21
0.495945
0
LINE
8
BLACK
6
CONTINUOUS
10
0.344606
20
0.495945
11
0.333842
21
0.488865
0
LINE
8
BLACK
6
CONTINUOUS
10
0.333842
20
0.488865
11
0.323973
21
0.480584
0
LINE
8
BLACK
6
CONTINUOUS
10
0.323973
20
0.480584
11
0.315132
21
0.471213
0
LINE
8
BLACK
6
CONTINUOUS
10
0.315132
20
0.471213
11
0.307438
21
0.460879
0
LINE
8
BLACK
6
CONTINUOUS
10
0.307438
20
0.460879
11
0.300997
21
0.449721
0
LINE
8
BLACK
6
CONTINUOUS
10
0.300997
20
0.449721
11
0.295894
21
0.437892
0
LINE
8
BLACK
6
CONTINUOUS
10
0.295894
20
0.437892
11
0.292199
21
0.425549
0
LINE
8
BLACK
6
CONTINUOUS
10
0.292199
20
0.425549
11
0.289962
21
0.412862
0
LINE
8
BLACK
6
CONTINUOUS
10
0.289962
20
0.412862
11
0.289213
21
0.4
0
LINE
8
BLACK
6
CONTINUOUS
10
0.289213
20
0.4
11
0.289962
21
0.387138
0
LINE
8
BLACK
6
CONTINUOUS
10
2.41406
20
0.52481
11
2.42795
21
0.522451
0
LINE
8
BLACK
6
CONTINUOUS
10
2.42795
20
0.522451
11
2.44148
21
0.518552
0
LINE
8
BLACK
6
CONTINUOUS
10
2.44148
20
0.518552
11
2.4545
21
0.513162
0
LINE
8
BLACK
6
CONTINUOUS
10
2.4545
20
0.513162
11
2.46682
21
0.506349
0
LINE
8
BLACK
6
CONTINUOUS
10
2.46682
20
0.506349
11
2.47831
21
0.498198
0
LINE
8
BLACK
6
CONTINUOUS
10
2.47831
20
0.498198
11
2.48881
21
0.488813
0
LINE
8
BLACK
6
CONTINUOUS
10
2.48881
20
0.488813
11
2.4982
21
0.47831
0
LINE
8
BLACK
6
CONTINUOUS
10
2.4982
20
0.47831
11
2.50635
21
0.466823
0
LINE
8
BLACK
6
CONTINUOUS
10
2.50635
20
0.466823
11
2.51316
21
0.454496
0
LINE
8
BLACK
6
CONTINUOUS
10
2.51316
20
0.454496
11
2.51855
21
0.441483
0
LINE
8
BLACK
6
CONTINUOUS
10
2.51855
20
0.441483
11
2.52245
21
0.427949
0
LINE
8
BLACK
6
CONTINUOUS
10
2.52245
20
0.427949
11
2.52481
21
0.414063
0
LINE
8
BLACK
6
CONTINUOUS
10
2.52481
20
0.414063
11
2.5256
21
0.4
0
LINE
8
BLACK
6
CONTINUOUS
10
2.5256
20
0.4
11
2.52481
21
0.385937
0
LINE
8
BLACK
6
CONTINUOUS
10
2.52481
20
0.385937
11
2.52245
21
0.372051
0
LINE
8
BLACK
6
CONTINUOUS
10
2.52245
20
0.372051
11
2.51855
21
0.358517
0
LINE
8
BLACK
6
CONTINUOUS
10
2.51855
20
0.358517
11
2.51316
21
0.345504
0
LINE
8
BLACK
6
CONTINUOUS
10
2.51316
20
0.345504
11
2.50635
21
0.333177
0
LINE
8
BLACK
6
CONTINUOUS
10
2.50635
20
0.333177
11
2.4982
21
0.32169
0
LINE
8
BLACK
6
CONTINUOUS
10
2.4982
20
0.32169
11
2.48881
21
0.311187
0
LINE
8
BLACK
6
CONTINUOUS
10
2.48881
20
0.311187
11
2.47831
21
0.301802
0
LINE
8
BLACK
6
CONTINUOUS
10
2.47831
20
0.301802
11
2.46682
21
0.293651
0
LINE
8
BLACK
6
CONTINUOUS
10
2.46682
20
0.293651
11
2.4545
21
0.286838
0
LINE
8
BLACK
6
CONTINUOUS
10
2.4545
20
0.286838
11
2.44148
21
0.281448
0
LINE
8
BLACK
6
CONTINUOUS
10
2.44148
20
0.281448
11
2.42795
21
0.277549
0
LINE
8
BLACK
6
CONTINUOUS
10
2.42795
20
0.277549
11
2.41406
21
0.27519
0
LINE
8
BLACK
6
CONTINUOUS
10
2.41406
20
0.27519
11
2.4
21
0.2744
0
LINE
8
BLACK
6
CONTINUOUS
10
2.4
20
0.2744
11
2.38594
21
0.27519
0
LINE
8
BLACK
6
CONTINUOUS
10
2.38594
20
0.27519
11
2.37205
21
0.277549
0
LINE
8
BLACK
6
CONTINUOUS
10
2.37205
20
0.277549
11
2.35852
21
0.281448
0
LINE
8
BLACK
6
CONTINUOUS
10
2.35852
20
0.281448
11
2.3455
21
0.286838
0
LINE
8
BLACK
6
CONTINUOUS
10
2.3455
20
0.286838
11
2.33318
21
0.293651
0
LINE
8
BLACK
6
CONTINUOUS
10
2.33318
20
0.293651
11
2.32169
21
0.301802
0
LINE
8
BLACK
6
CONTINUOUS
10
2.32169
20
0.301802
11
2.31119
21
0.311187
0
LINE
8
BLACK
6
CONTINUOUS
10
2.31119
20
0.311187
11
2.3018
21
0.32169
0
LINE
8
BLACK
6
CONTINUOUS
10
2.3018
20
0.32169
11
2.29365
21
0.333177
0
LINE
8
BLACK
6
CONTINUOUS
10
2.29365
20
0.333177
11
2.28684
21
0.345504
0
LINE
8
BLACK
6
CONTINUOUS
10
2.28684
20
0.345504
11
2.28145
21
0.358517
0
LINE
8
BLACK
6
CONTINUOUS
10
2.28145
20
0.358517
11
2.27755
21
0.372051
0
LINE
8
BLACK
6
CONTINUOUS
10
2.27755
20
0.372051
11
2.27519
21
0.385937
0
LINE
8
BLACK
6
CONTINUOUS
10
2.27519
20
0.385937
11
2.2744
21
0.4
0
LINE
8
BLACK
6
CONTINUOUS
10
2.2744
20
0.4
11
2.27519
21
0.414063
0
LINE
8
BLACK
6
CONTINUOUS
10
2.27519
20
0.414063
11
2.27755
21
0.427949
0
LINE
8
BLACK
6
CONTINUOUS
10
2.27755
20
0.427949
11
2.28145
21
0.441483
0
LINE
8
BLACK
6
CONTINUOUS
10
2.28145
20
0.441483
11
2.28684
21
0.454496
0
LINE
8
BLACK
6
CONTINUOUS
10
2.28684
20
0.454496
11
2.29365
21
0.466823
0
LINE
8
BLACK
6
CONTINUOUS
10
2.29365
20
0.466823
11
2.3018
21
0.47831
0
LINE
8
BLACK
6
CONTINUOUS
10
2.3018
20
0.47831
11
2.31119
21
0.488813
0
LINE
8
BLACK
6
CONTINUOUS
10
2.31119
20
0.488813
11
2.32169
21
0.498198
0
LINE
8
BLACK
6
CONTINUOUS
10
2.32169
20
0.498198
11
2.33318
21
0.506349
0
LINE
8
BLACK
6
CONTINUOUS
10
2.33318
20
0.506349
11
2.3455
21
0.513162
0
LINE
8
BLACK
6
CONTINUOUS
10
2.3455
20
0.513162
11
2.35852
21
0.518552
0
LINE
8
BLACK
6
CONTINUOUS
10
2.35852
20
0.518552
11
2.37205
21
0.522451
0
LINE
8
BLACK
6
CONTINUOUS
10
2.37205
20
0.522451
11
2.38594
21
0.52481
0
LINE
8
BLACK
6
CONTINUOUS
10
2.38594
20
0.52481
11
2.4
21
0.5256
0
LINE
8
BLACK
6
CONTINUOUS
10
2.4
20
0.5256
11
2.41406
21
0.52481
0
LINE
8
BLACK
6
CONTINUOUS
10
2.28996
20
0.387138
11
2.2922
21
0.374451
0
LINE
8
BLACK
6
CONTINUOUS
10
2.2922
20
0.374451
11
2.29589
21
0.362108
0
LINE
8
BLACK
6
CONTINUOUS
10
2.29589
20
0.362108
11
2.301
21
0.350279
0
LINE
8
BLACK
6
CONTINUOUS
10
2.301
20
0.350279
11
2.30744
21
0.339121
0
LINE
8
BLACK
6
CONTINUOUS
10
2.30744
20
0.339121
11
2.31513
21
0.328787
0
LINE
8
BLACK
6
CONTINUOUS
10
2.31513
20
0.328787
11
2.32397
21
0.319416
0
LINE
8
BLACK
6
CONTINUOUS
10
2.32397
20
0.319416
11
2.33384
21
0.311135
0
LINE
8
BLACK
6
CONTINUOUS
10
2.33384
20
0.311135
11
2.34461
21
0.304055
0
LINE
8
BLACK
6
CONTINUOUS
10
2.34461
20
0.304055
11
2.35612
21
0.298273
0
LINE
8
BLACK
6
CONTINUOUS
10
2.35612
20
0.298273
11
2.36823
21
0.293867
0
LINE
8
BLACK
6
CONTINUOUS
10
2.36823
20
0.293867
11
2.38076
21
0.290896
0
LINE
8
BLACK
6
CONTINUOUS
10
2.38076
20
0.290896
11
2.39356
21
0.2894
0
LINE
8
BLACK
6
CONTINUOUS
10
2.39356
20
0.2894
11
2.40644
21
0.2894
0
LINE
8
BLACK
6
CONTINUOUS
10
2.40644
20
0.2894
11
2.41924
21
0.290896
0
LINE
8
BLACK
6
CONTINUOUS
10
2.41924
20
0.290896
11
2.43177
21
0.293867
0
LINE
8
BLACK
6
CONTINUOUS
10
2.43177
20
0.293867
11
2.44388
21
0.298273
0
LINE
8
BLACK
6
CONTINUOUS
10
2.44388
20
0.298273
11
2.45539
21
0.304055
0
LINE
8
BLACK
6
CONTINUOUS
10
2.45539
20
0.304055
11
2.46616
21
0.311135
0
LINE
8
BLACK
6
CONTINUOUS
10
2.46616
20
0.311135
11
2.47603
21
0.319416
0
LINE
8
BLACK
6
CONTINUOUS
10
2.47603
20
0.319416
11
2.48487
21
0.328787
0
LINE
8
BLACK
6
CONTINUOUS
10
2.48487
20
0.328787
11
2.49256
21
0.339121
0
LINE
8
BLACK
6
CONTINUOUS
10
2.49256
20
0.339121
11
2.499
21
0.350279
0
LINE
8
BLACK
6
CONTINUOUS
10
2.499
20
0.350279
11
2.50411
21
0.362108
0
LINE
8
BLACK
6
CONTINUOUS
10
2.50411
20
0.362108
11
2.5078
21
0.374451
0
LINE
8
BLACK
6
CONTINUOUS
10
2.5078
20
0.374451
11
2.51004
21
0.387138
0
LINE
8
BLACK
6
CONTINUOUS
10
2.51004
20
0.387138
11
2.51079
21
0.4
0
LINE
8
BLACK
6
CONTINUOUS
10
2.51079
20
0.4
11
2.51004
21
0.412862
0
LINE
8
BLACK
6
CONTINUOUS
10
2.51004
20
0.412862
11
2.5078
21
0.425549
0
LINE
8
BLACK
6
CONTINUOUS
10
2.5078
20
0.425549
11
2.50411
21
0.437892
0
LINE
8
BLACK
6
CONTINUOUS
10
2.50411
20
0.437892
11
2.499
21
0.449721
0
LINE
8
BLACK
6
CONTINUOUS
10
2.499
20
0.449721
11
2.49256
21
0.460879
0
LINE
8
BLACK
6
CONTINUOUS
10
2.49256
20
0.460879
11
2.48487
21
0.471213
0
LINE
8
BLACK
6
CONTINUOUS
10
2.48487
20
0.471213
11
2.47603
21
0.480584
0
LINE
8
BLACK
6
CONTINUOUS
10
2.47603
20
0.480584
11
2.46616
21
0.488865
0
LINE
8
BLACK
6
CONTINUOUS
10
2.46616
20
0.488865
11
2.45539
21
0.495945
0
LINE
8
BLACK
6
CONTINUOUS
10
2.45539
20
0.495945
11
2.44388
21
0.501727
0
LINE
8
BLACK
6
CONTINUOUS
10
2.44388
20
0.501727
11
2.43177
21
0.506133
0
LINE
8
BLACK
6
CONTINUOUS
10
2.43177
20
0.506133
11
2.41924
21
0.509104
0
LINE
8
BLACK
6
CONTINUOUS
10
2.41924
20
0.509104
11
2.40644
21
0.5106
0
LINE
8
BLACK
6
CONTINUOUS
10
2.40644
20
0.5106
11
2.39356
21
0.5106
0
LINE
8
BLACK
6
CONTINUOUS
10
2.39356
20
0.5106
11
2.38076
21
0.509104
0
LINE
8
BLACK
6
CONTINUOUS
10
2.38076
20
0.509104
11
2.36823
21
0.506133
0
LINE
8
BLACK
6
CONTINUOUS
10
2.36823
20
0.506133
11
2.35612
21
0.501727
0
LINE
8
BLACK
6
CONTINUOUS
10
2.35612
20
0.501727
11
2.34461
21
0.495945
0
LINE
8
BLACK
6
CONTINUOUS
10
2.34461
20
0.495945
11
2.33384
21
0.488865
0
LINE
8
BLACK
6
CONTINUOUS
10
2.33384
20
0.488865
11
2.32397
21
0.480584
0
LINE
8
BLACK
6
CONTINUOUS
10
2.32397
20
0.480584
11
2.31513
21
0.471213
0
LINE
8
BLACK
6
CONTINUOUS
10
2.31513
20
0.471213
11
2.30744
21
0.460879
0
LINE
8
BLACK
6
CONTINUOUS
10
2.30744
20
0.460879
11
2.301
21
0.449721
0
LINE
8
BLACK
6
CONTINUOUS
10
2.301
20
0.449721
11
2.29589
21
0.437892
0
LINE
8
BLACK
6
CONTINUOUS
10
2.29589
20
0.437892
11
2.2922
21
0.425549
0
LINE
8
BLACK
6
CONTINUOUS
10
2.2922
20
0.425549
11
2.28996
21
0.412862
0
LINE
8
BLACK
6
CONTINUOUS
10
2.28996
20
0.412862
11
2.28921
21
0.4
0
LINE
8
BLACK
6
CONTINUOUS
10
2.28921
20
0.4
11
2.28996
21
0.387138
0
LINE
8
BLACK
6
CONTINUOUS
10
1.37582
20
0.601436
11
1.3764
21
0.600044
0
LINE
8
BLACK
6
CONTINUOUS
10
1.3764
20
0.600044
11
1.3764
21
0.572175
0
LINE
8
BLACK
6
CONTINUOUS
10
1.3764
20
0.572175
11
1.41866
21
0.599694
0
LINE
8
BLACK
6
CONTINUOUS
10
1.41866
20
0.599694
11
1.41921
21
0.599797
0
LINE
8
BLACK
6
CONTINUOUS
10
1.41921
20
0.599797
11
1.41973
21
0.600013
0
LINE
8
BLACK
6
CONTINUOUS
10
1.41973
20
0.600013
11
1.41993
21
0.599931
0
LINE
8
BLACK
6
CONTINUOUS
10
1.41993
20
0.599931
11
1.42014
21
0.59997
0
LINE
8
BLACK
6
CONTINUOUS
10
1.42014
20
0.59997
11
1.4206
21
0.599652
0
LINE
8
BLACK
6
CONTINUOUS
10
1.4206
20
0.599652
11
1.42112
21
0.599436
0
LINE
8
BLACK
6
CONTINUOUS
10
1.42112
20
0.599436
11
1.42121
21
0.599239
0
LINE
8
BLACK
6
CONTINUOUS
10
1.42121
20
0.599239
11
1.42138
21
0.599118
0
LINE
8
BLACK
6
CONTINUOUS
10
1.42138
20
0.599118
11
1.42148
21
0.598565
0
LINE
8
BLACK
6
CONTINUOUS
10
1.42148
20
0.598565
11
1.4217
21
0.598044
0
LINE
8
BLACK
6
CONTINUOUS
10
1.4217
20
0.598044
11
1.4217
21
0.570513
0
LINE
8
BLACK
6
CONTINUOUS
10
1.4217
20
0.570513
11
1.45903
21
0.570513
0
LINE
8
BLACK
6
CONTINUOUS
10
1.45903
20
0.570513
11
1.46042
21
0.569936
0
LINE
8
BLACK
6
CONTINUOUS
10
1.46042
20
0.569936
11
1.461
21
0.568544
0
LINE
8
BLACK
6
CONTINUOUS
10
1.461
20
0.568544
11
1.46042
21
0.567152
0
LINE
8
BLACK
6
CONTINUOUS
10
1.46042
20
0.567152
11
1.45903
21
0.566576
0
LINE
8
BLACK
6
CONTINUOUS
10
1.45903
20
0.566576
11
1.4217
21
0.566576
0
LINE
8
BLACK
6
CONTINUOUS
10
1.4217
20
0.566576
11
1.4217
21
0.537044
0
LINE
8
BLACK
6
CONTINUOUS
10
1.4217
20
0.537044
11
1.42147
21
0.536498
0
LINE
8
BLACK
6
CONTINUOUS
10
1.42147
20
0.536498
11
1.42135
21
0.53592
0
LINE
8
BLACK
6
CONTINUOUS
10
1.42135
20
0.53592
11
1.42119
21
0.535821
0
LINE
8
BLACK
6
CONTINUOUS
10
1.42119
20
0.535821
11
1.42112
21
0.535652
0
LINE
8
BLACK
6
CONTINUOUS
10
1.42112
20
0.535652
11
1.42058
21
0.535426
0
LINE
8
BLACK
6
CONTINUOUS
10
1.42058
20
0.535426
11
1.42008
21
0.535107
0
LINE
8
BLACK
6
CONTINUOUS
10
1.42008
20
0.535107
11
1.4199
21
0.535146
0
LINE
8
BLACK
6
CONTINUOUS
10
1.4199
20
0.535146
11
1.41973
21
0.535076
0
LINE
8
BLACK
6
CONTINUOUS
10
1.41973
20
0.535076
11
1.41919
21
0.535302
0
LINE
8
BLACK
6
CONTINUOUS
10
1.41919
20
0.535302
11
1.41861
21
0.535428
0
LINE
8
BLACK
6
CONTINUOUS
10
1.41861
20
0.535428
11
1.3764
21
0.564778
0
LINE
8
BLACK
6
CONTINUOUS
10
1.3764
20
0.564778
11
1.3764
21
0.537044
0
LINE
8
BLACK
6
CONTINUOUS
10
1.3764
20
0.537044
11
1.37582
21
0.535652
0
LINE
8
BLACK
6
CONTINUOUS
10
1.37582
20
0.535652
11
1.37443
21
0.535076
0
LINE
8
BLACK
6
CONTINUOUS
10
1.37443
20
0.535076
11
1.37304
21
0.535652
0
LINE
8
BLACK
6
CONTINUOUS
10
1.37304
20
0.535652
11
1.37246
21
0.537044
0
LINE
8
BLACK
6
CONTINUOUS
10
1.37246
20
0.537044
11
1.37246
21
0.566576
0
LINE
8
BLACK
6
CONTINUOUS
10
1.37246
20
0.566576
11
1.33893
21
0.566576
0
LINE
8
BLACK
6
CONTINUOUS
10
1.33893
20
0.566576
11
1.33754
21
0.567152
0
LINE
8
BLACK
6
CONTINUOUS
10
1.33754
20
0.567152
11
1.33696
21
0.568544
0
LINE
8
BLACK
6
CONTINUOUS
10
1.33696
20
0.568544
11
1.33754
21
0.569936
0
LINE
8
BLACK
6
CONTINUOUS
10
1.33754
20
0.569936
11
1.33893
21
0.570513
0
LINE
8
BLACK
6
CONTINUOUS
10
1.33893
20
0.570513
11
1.37246
21
0.570513
0
LINE
8
BLACK
6
CONTINUOUS
10
1.37246
20
0.570513
11
1.37246
21
0.600044
0
LINE
8
BLACK
6
CONTINUOUS
10
1.37246
20
0.600044
11
1.37304
21
0.601436
0
LINE
8
BLACK
6
CONTINUOUS
10
1.37304
20
0.601436
11
1.37443
21
0.602013
0
LINE
8
BLACK
6
CONTINUOUS
10
1.37443
20
0.602013
11
1.37582
21
0.601436
0
LINE
8
BLACK
6
CONTINUOUS
10
1.37796
20
0.568491
11
1.41776
21
0.540811
0
LINE
8
BLACK
6
CONTINUOUS
10
1.41776
20
0.540811
11
1.41776
21
0.594413
0
LINE
8
BLACK
6
CONTINUOUS
10
1.41776
20
0.594413
11
1.37796
21
0.568491
0
LINE
8
BLACK
6
CONTINUOUS
10
1.24195
20
0.641866
11
1.24264
21
0.639968
0
LINE
8
BLACK
6
CONTINUOUS
10
1.24264
20
0.639968
11
1.24264
21
0.624599
0
LINE
8
BLACK
6
CONTINUOUS
10
1.24264
20
0.624599
11
1.2601
21
0.642056
0
LINE
8
BLACK
6
CONTINUOUS
10
1.2601
20
0.642056
11
1.26094
21
0.642644
0
LINE
8
BLACK
6
CONTINUOUS
10
1.26094
20
0.642644
11
1.26295
21
0.64282
0
LINE
8
BLACK
6
CONTINUOUS
10
1.26295
20
0.64282
11
1.2646
21
0.641661
0
LINE
8
BLACK
6
CONTINUOUS
10
1.2646
20
0.641661
11
1.26513
21
0.63971
0
LINE
8
BLACK
6
CONTINUOUS
10
1.26513
20
0.63971
11
1.26427
21
0.63788
0
LINE
8
BLACK
6
CONTINUOUS
10
1.26427
20
0.63788
11
1.24921
21
0.622818
0
LINE
8
BLACK
6
CONTINUOUS
10
1.24921
20
0.622818
11
1.26455
21
0.602369
0
LINE
8
BLACK
6
CONTINUOUS
10
1.26455
20
0.602369
11
1.26501
21
0.601455
0
LINE
8
BLACK
6
CONTINUOUS
10
1.26501
20
0.601455
11
1.2649
21
0.599438
0
LINE
8
BLACK
6
CONTINUOUS
10
1.2649
20
0.599438
11
1.26352
21
0.597964
0
LINE
8
BLACK
6
CONTINUOUS
10
1.26352
20
0.597964
11
1.26152
21
0.597722
0
LINE
8
BLACK
6
CONTINUOUS
10
1.26152
20
0.597722
11
1.25982
21
0.598826
0
LINE
8
BLACK
6
CONTINUOUS
10
1.25982
20
0.598826
11
1.24499
21
0.6186
0
LINE
8
BLACK
6
CONTINUOUS
10
1.24499
20
0.6186
11
1.24264
21
0.616248
0
LINE
8
BLACK
6
CONTINUOUS
10
1.24264
20
0.616248
11
1.24264
21
0.600598
0
LINE
8
BLACK
6
CONTINUOUS
10
1.24264
20
0.600598
11
1.24246
21
0.599588
0
LINE
8
BLACK
6
CONTINUOUS
10
1.24246
20
0.599588
11
1.24117
21
0.598041
0
LINE
8
BLACK
6
CONTINUOUS
10
1.24117
20
0.598041
11
1.23918
21
0.59769
0
LINE
8
BLACK
6
CONTINUOUS
10
1.23918
20
0.59769
11
1.23743
21
0.5987
0
LINE
8
BLACK
6
CONTINUOUS
10
1.23743
20
0.5987
11
1.23674
21
0.600598
0
LINE
8
BLACK
6
CONTINUOUS
10
1.23674
20
0.600598
11
1.23674
21
0.639968
0
LINE
8
BLACK
6
CONTINUOUS
10
1.23674
20
0.639968
11
1.23691
21
0.640978
0
LINE
8
BLACK
6
CONTINUOUS
10
1.23691
20
0.640978
11
1.23821
21
0.642525
0
LINE
8
BLACK
6
CONTINUOUS
10
1.23821
20
0.642525
11
1.2402
21
0.642876
0
LINE
8
BLACK
6
CONTINUOUS
10
1.2402
20
0.642876
11
1.24195
21
0.641866
0
LINE
8
BLACK
6
CONTINUOUS
10
1.38118
20
0.792767
11
1.38125
21
0.792769
0
LINE
8
BLACK
6
CONTINUOUS
10
1.38125
20
0.792769
11
1.38687
21
0.790894
0
LINE
8
BLACK
6
CONTINUOUS
10
1.38687
20
0.790894
11
1.38777
21
0.790406
0
LINE
8
BLACK
6
CONTINUOUS
10
1.38777
20
0.790406
11
1.38787
21
0.790256
0
LINE
8
BLACK
6
CONTINUOUS
10
1.38787
20
0.790256
11
1.38803
21
0.790181
0
LINE
8
BLACK
6
CONTINUOUS
10
1.38803
20
0.790181
11
1.39178
21
0.786431
0
LINE
8
BLACK
6
CONTINUOUS
10
1.39178
20
0.786431
11
1.39228
21
0.785708
0
LINE
8
BLACK
6
CONTINUOUS
10
1.39228
20
0.785708
11
1.39233
21
0.785664
0
LINE
8
BLACK
6
CONTINUOUS
10
1.39233
20
0.785664
11
1.3942
21
0.781914
0
LINE
8
BLACK
6
CONTINUOUS
10
1.3942
20
0.781914
11
1.39435
21
0.781426
0
LINE
8
BLACK
6
CONTINUOUS
10
1.39435
20
0.781426
11
1.39443
21
0.78131
0
LINE
8
BLACK
6
CONTINUOUS
10
1.39443
20
0.78131
11
1.3963
21
0.773811
0
LINE
8
BLACK
6
CONTINUOUS
10
1.3963
20
0.773811
11
1.39634
21
0.773223
0
LINE
8
BLACK
6
CONTINUOUS
10
1.39634
20
0.773223
11
1.39639
21
0.773095
0
LINE
8
BLACK
6
CONTINUOUS
10
1.39639
20
0.773095
11
1.39639
21
0.767471
0
LINE
8
BLACK
6
CONTINUOUS
10
1.39639
20
0.767471
11
1.39629
21
0.76689
0
LINE
8
BLACK
6
CONTINUOUS
10
1.39629
20
0.76689
11
1.3963
21
0.766754
0
LINE
8
BLACK
6
CONTINUOUS
10
1.3963
20
0.766754
11
1.39443
21
0.759255
0
LINE
8
BLACK
6
CONTINUOUS
10
1.39443
20
0.759255
11
1.39422
21
0.75879
0
LINE
8
BLACK
6
CONTINUOUS
10
1.39422
20
0.75879
11
1.3942
21
0.758651
0
LINE
8
BLACK
6
CONTINUOUS
10
1.3942
20
0.758651
11
1.39233
21
0.754901
0
LINE
8
BLACK
6
CONTINUOUS
10
1.39233
20
0.754901
11
1.3918
21
0.754193
0
LINE
8
BLACK
6
CONTINUOUS
10
1.3918
20
0.754193
11
1.39178
21
0.754134
0
LINE
8
BLACK
6
CONTINUOUS
10
1.39178
20
0.754134
11
1.38803
21
0.750385
0
LINE
8
BLACK
6
CONTINUOUS
10
1.38803
20
0.750385
11
1.38719
21
0.749796
0
LINE
8
BLACK
6
CONTINUOUS
10
1.38719
20
0.749796
11
1.38701
21
0.749781
0
LINE
8
BLACK
6
CONTINUOUS
10
1.38701
20
0.749781
11
1.38687
21
0.749671
0
LINE
8
BLACK
6
CONTINUOUS
10
1.38687
20
0.749671
11
1.38125
21
0.747796
0
LINE
8
BLACK
6
CONTINUOUS
10
1.38125
20
0.747796
11
1.38038
21
0.747667
0
LINE
8
BLACK
6
CONTINUOUS
10
1.38038
20
0.747667
11
1.38031
21
0.747645
0
LINE
8
BLACK
6
CONTINUOUS
10
1.38031
20
0.747645
11
1.37094
21
0.747645
0
LINE
8
BLACK
6
CONTINUOUS
10
1.37094
20
0.747645
11
1.37056
21
0.747713
0
LINE
8
BLACK
6
CONTINUOUS
10
1.37056
20
0.747713
11
1.37043
21
0.74769
0
LINE
8
BLACK
6
CONTINUOUS
10
1.37043
20
0.74769
11
1.37031
21
0.747755
0
LINE
8
BLACK
6
CONTINUOUS
10
1.37031
20
0.747755
11
1.36993
21
0.747823
0
LINE
8
BLACK
6
CONTINUOUS
10
1.36993
20
0.747823
11
1.36934
21
0.748316
0
LINE
8
BLACK
6
CONTINUOUS
10
1.36934
20
0.748316
11
1.36868
21
0.7487
0
LINE
8
BLACK
6
CONTINUOUS
10
1.36868
20
0.7487
11
1.36859
21
0.74895
0
LINE
8
BLACK
6
CONTINUOUS
10
1.36859
20
0.74895
11
1.36838
21
0.749121
0
LINE
8
BLACK
6
CONTINUOUS
10
1.36838
20
0.749121
11
1.36825
21
0.749877
0
LINE
8
BLACK
6
CONTINUOUS
10
1.36825
20
0.749877
11
1.36799
21
0.750598
0
LINE
8
BLACK
6
CONTINUOUS
10
1.36799
20
0.750598
11
1.36799
21
0.789968
0
LINE
8
BLACK
6
CONTINUOUS
10
1.36799
20
0.789968
11
1.36806
21
0.790351
0
LINE
8
BLACK
6
CONTINUOUS
10
1.36806
20
0.790351
11
1.36803
21
0.790481
0
LINE
8
BLACK
6
CONTINUOUS
10
1.36803
20
0.790481
11
1.3681
21
0.790594
0
LINE
8
BLACK
6
CONTINUOUS
10
1.3681
20
0.790594
11
1.36817
21
0.790978
0
LINE
8
BLACK
6
CONTINUOUS
10
1.36817
20
0.790978
11
1.36866
21
0.791565
0
LINE
8
BLACK
6
CONTINUOUS
10
1.36866
20
0.791565
11
1.36904
21
0.79223
0
LINE
8
BLACK
6
CONTINUOUS
10
1.36904
20
0.79223
11
1.36929
21
0.792321
0
LINE
8
BLACK
6
CONTINUOUS
10
1.36929
20
0.792321
11
1.36946
21
0.792525
0
LINE
8
BLACK
6
CONTINUOUS
10
1.36946
20
0.792525
11
1.37022
21
0.792658
0
LINE
8
BLACK
6
CONTINUOUS
10
1.37022
20
0.792658
11
1.37094
21
0.792921
0
LINE
8
BLACK
6
CONTINUOUS
10
1.37094
20
0.792921
11
1.38031
21
0.792921
0
LINE
8
BLACK
6
CONTINUOUS
10
1.38031
20
0.792921
11
1.38118
21
0.792767
0
LINE
8
BLACK
6
CONTINUOUS
10
1.37389
20
0.75355
11
1.37984
21
0.75355
0
LINE
8
BLACK
6
CONTINUOUS
10
1.37984
20
0.75355
11
1.38434
21
0.755053
0
LINE
8
BLACK
6
CONTINUOUS
10
1.38434
20
0.755053
11
1.38726
21
0.757971
0
LINE
8
BLACK
6
CONTINUOUS
10
1.38726
20
0.757971
11
1.38878
21
0.761002
0
LINE
8
BLACK
6
CONTINUOUS
10
1.38878
20
0.761002
11
1.39049
21
0.767834
0
LINE
8
BLACK
6
CONTINUOUS
10
1.39049
20
0.767834
11
1.39049
21
0.772731
0
LINE
8
BLACK
6
CONTINUOUS
10
1.39049
20
0.772731
11
1.38878
21
0.779563
0
LINE
8
BLACK
6
CONTINUOUS
10
1.38878
20
0.779563
11
1.38726
21
0.782594
0
LINE
8
BLACK
6
CONTINUOUS
10
1.38726
20
0.782594
11
1.38434
21
0.785512
0
LINE
8
BLACK
6
CONTINUOUS
10
1.38434
20
0.785512
11
1.37984
21
0.787015
0
LINE
8
BLACK
6
CONTINUOUS
10
1.37984
20
0.787015
11
1.37389
21
0.787015
0
LINE
8
BLACK
6
CONTINUOUS
10
1.37389
20
0.787015
11
1.37389
21
0.75355
0
LINE
8
BLACK
6
CONTINUOUS
10
1.42444
20
0.792742
11
1.42458
21
0.792629
0
LINE
8
BLACK
6
CONTINUOUS
10
1.42458
20
0.792629
11
1.42476
21
0.792609
0
LINE
8
BLACK
6
CONTINUOUS
10
1.42476
20
0.792609
11
1.4285
21
0.790734
0
LINE
8
BLACK
6
CONTINUOUS
10
1.4285
20
0.790734
11
1.42921
21
0.790208
0
LINE
8
BLACK
6
CONTINUOUS
10
1.42921
20
0.790208
11
1.42927
21
0.790181
0
LINE
8
BLACK
6
CONTINUOUS
10
1.42927
20
0.790181
11
1.43115
21
0.788306
0
LINE
8
BLACK
6
CONTINUOUS
10
1.43115
20
0.788306
11
1.43165
21
0.787583
0
LINE
8
BLACK
6
CONTINUOUS
10
1.43165
20
0.787583
11
1.4317
21
0.787539
0
LINE
8
BLACK
6
CONTINUOUS
10
1.4317
20
0.787539
11
1.43357
21
0.783789
0
LINE
8
BLACK
6
CONTINUOUS
10
1.43357
20
0.783789
11
1.43387
21
0.782806
0
LINE
8
BLACK
6
CONTINUOUS
10
1.43387
20
0.782806
11
1.43383
21
0.782635
0
LINE
8
BLACK
6
CONTINUOUS
10
1.43383
20
0.782635
11
1.43389
21
0.782469
0
LINE
8
BLACK
6
CONTINUOUS
10
1.43389
20
0.782469
11
1.43389
21
0.778719
0
LINE
8
BLACK
6
CONTINUOUS
10
1.43389
20
0.778719
11
1.43373
21
0.77785
0
LINE
8
BLACK
6
CONTINUOUS
10
1.43373
20
0.77785
11
1.43373
21
0.777785
0
LINE
8
BLACK
6
CONTINUOUS
10
1.43373
20
0.777785
11
1.43186
21
0.772161
0
LINE
8
BLACK
6
CONTINUOUS
10
1.43186
20
0.772161
11
1.43137
21
0.771259
0
LINE
8
BLACK
6
CONTINUOUS
10
1.43137
20
0.771259
11
1.43122
21
0.771167
0
LINE
8
BLACK
6
CONTINUOUS
10
1.43122
20
0.771167
11
1.43115
21
0.771007
0
LINE
8
BLACK
6
CONTINUOUS
10
1.43115
20
0.771007
11
1.41369
21
0.75355
0
LINE
8
BLACK
6
CONTINUOUS
10
1.41369
20
0.75355
11
1.43093
21
0.75355
0
LINE
8
BLACK
6
CONTINUOUS
10
1.43093
20
0.75355
11
1.43194
21
0.753372
0
LINE
8
BLACK
6
CONTINUOUS
10
1.43194
20
0.753372
11
1.43349
21
0.752074
0
LINE
8
BLACK
6
CONTINUOUS
10
1.43349
20
0.752074
11
1.43384
21
0.750085
0
LINE
8
BLACK
6
CONTINUOUS
10
1.43384
20
0.750085
11
1.43283
21
0.748336
0
LINE
8
BLACK
6
CONTINUOUS
10
1.43283
20
0.748336
11
1.43093
21
0.747645
0
LINE
8
BLACK
6
CONTINUOUS
10
1.43093
20
0.747645
11
1.40656
21
0.747645
0
LINE
8
BLACK
6
CONTINUOUS
10
1.40656
20
0.747645
11
1.40593
21
0.747757
0
LINE
8
BLACK
6
CONTINUOUS
10
1.40593
20
0.747757
11
1.4058
21
0.747746
0
LINE
8
BLACK
6
CONTINUOUS
10
1.4058
20
0.747746
11
1.40573
21
0.747791
0
LINE
8
BLACK
6
CONTINUOUS
10
1.40573
20
0.747791
11
1.40555
21
0.747823
0
LINE
8
BLACK
6
CONTINUOUS
10
1.40555
20
0.747823
11
1.40487
21
0.748394
0
LINE
8
BLACK
6
CONTINUOUS
10
1.40487
20
0.748394
11
1.40414
21
0.748904
0
LINE
8
BLACK
6
CONTINUOUS
10
1.40414
20
0.748904
11
1.40411
21
0.749035
0
LINE
8
BLACK
6
CONTINUOUS
10
1.40411
20
0.749035
11
1.404
21
0.749121
0
LINE
8
BLACK
6
CONTINUOUS
10
1.404
20
0.749121
11
1.40385
21
0.749997
0
LINE
8
BLACK
6
CONTINUOUS
10
1.40385
20
0.749997
11
1.40362
21
0.750855
0
LINE
8
BLACK
6
CONTINUOUS
10
1.40362
20
0.750855
11
1.40368
21
0.750977
0
LINE
8
BLACK
6
CONTINUOUS
10
1.40368
20
0.750977
11
1.40365
21
0.75111
0
LINE
8
BLACK
6
CONTINUOUS
10
1.40365
20
0.75111
11
1.4041
21
0.75188
0
LINE
8
BLACK
6
CONTINUOUS
10
1.4041
20
0.75188
11
1.40447
21
0.752686
0
LINE
8
BLACK
6
CONTINUOUS
10
1.40447
20
0.752686
11
1.42648
21
0.77469
0
LINE
8
BLACK
6
CONTINUOUS
10
1.42648
20
0.77469
11
1.42798
21
0.779198
0
LINE
8
BLACK
6
CONTINUOUS
10
1.42798
20
0.779198
11
1.42798
21
0.781772
0
LINE
8
BLACK
6
CONTINUOUS
10
1.42798
20
0.781772
11
1.42663
21
0.784469
0
LINE
8
BLACK
6
CONTINUOUS
10
1.42663
20
0.784469
11
1.42544
21
0.785666
0
LINE
8
BLACK
6
CONTINUOUS
10
1.42544
20
0.785666
11
1.42274
21
0.787015
0
LINE
8
BLACK
6
CONTINUOUS
10
1.42274
20
0.787015
11
1.41476
21
0.787015
0
LINE
8
BLACK
6
CONTINUOUS
10
1.41476
20
0.787015
11
1.41206
21
0.785666
0
LINE
8
BLACK
6
CONTINUOUS
10
1.41206
20
0.785666
11
1.41052
21
0.78413
0
LINE
8
BLACK
6
CONTINUOUS
10
1.41052
20
0.78413
11
1.40968
21
0.783542
0
LINE
8
BLACK
6
CONTINUOUS
10
1.40968
20
0.783542
11
1.40767
21
0.783366
0
LINE
8
BLACK
6
CONTINUOUS
10
1.40767
20
0.783366
11
1.40602
21
0.784525
0
LINE
8
BLACK
6
CONTINUOUS
10
1.40602
20
0.784525
11
1.40549
21
0.786476
0
LINE
8
BLACK
6
CONTINUOUS
10
1.40549
20
0.786476
11
1.40635
21
0.788306
0
LINE
8
BLACK
6
CONTINUOUS
10
1.40635
20
0.788306
11
1.40822
21
0.790181
0
LINE
8
BLACK
6
CONTINUOUS
10
1.40822
20
0.790181
11
1.40895
21
0.790687
0
LINE
8
BLACK
6
CONTINUOUS
10
1.40895
20
0.790687
11
1.40899
21
0.790734
0
LINE
8
BLACK
6
CONTINUOUS
10
1.40899
20
0.790734
11
1.41274
21
0.792609
0
LINE
8
BLACK
6
CONTINUOUS
10
1.41274
20
0.792609
11
1.41372
21
0.792901
0
LINE
8
BLACK
6
CONTINUOUS
10
1.41372
20
0.792901
11
1.41389
21
0.79286
0
LINE
8
BLACK
6
CONTINUOUS
10
1.41389
20
0.79286
11
1.41406
21
0.792921
0
LINE
8
BLACK
6
CONTINUOUS
10
1.41406
20
0.792921
11
1.42343
21
0.792921
0
LINE
8
BLACK
6
CONTINUOUS
10
1.42343
20
0.792921
11
1.42444
21
0.792742
0
LINE
8
BLACK
6
CONTINUOUS
10
1.67953
20
1.53346
11
1.68092
21
1.53289
0
LINE
8
BLACK
6
CONTINUOUS
10
1.68092
20
1.53289
11
1.6815
21
1.5315
0
LINE
8
BLACK
6
CONTINUOUS
10
1.6815
20
1.5315
11
1.6815
21
0.468504
0
LINE
8
BLACK
6
CONTINUOUS
10
1.6815
20
0.468504
11
1.68092
21
0.467112
0
LINE
8
BLACK
6
CONTINUOUS
10
1.68092
20
0.467112
11
1.67953
21
0.466535
0
LINE
8
BLACK
6
CONTINUOUS
10
1.67953
20
0.466535
11
1.12047
21
0.466535
0
LINE
8
BLACK
6
CONTINUOUS
10
1.12047
20
0.466535
11
1.11908
21
0.467112
0
LINE
8
BLACK
6
CONTINUOUS
10
1.11908
20
0.467112
11
1.1185
21
0.468504
0
LINE
8
BLACK
6
CONTINUOUS
10
1.1185
20
0.468504
11
1.1185
21
1.5315
0
LINE
8
BLACK
6
CONTINUOUS
10
1.1185
20
1.5315
11
1.11908
21
1.53289
0
LINE
8
BLACK
6
CONTINUOUS
10
1.11908
20
1.53289
11
1.12047
21
1.53346
0
LINE
8
BLACK
6
CONTINUOUS
10
1.12047
20
1.53346
11
1.67953
21
1.53346
0
LINE
8
BLACK
6
CONTINUOUS
10
1.12244
20
1.52953
11
1.12244
21
0.470472
0
LINE
8
BLACK
6
CONTINUOUS
10
1.12244
20
0.470472
11
1.67756
21
0.470472
0
LINE
8
BLACK
6
CONTINUOUS
10
1.67756
20
0.470472
11
1.67756
21
1.52953
0
LINE
8
BLACK
6
CONTINUOUS
10
1.67756
20
1.52953
11
1.12244
21
1.52953
0
LINE
8
BLACK
6
CONTINUOUS
10
2.40038
20
0.792885
11
2.40051
21
0.792908
0
LINE
8
BLACK
6
CONTINUOUS
10
2.40051
20
0.792908
11
2.40063
21
0.792842
0
LINE
8
BLACK
6
CONTINUOUS
10
2.40063
20
0.792842
11
2.40101
21
0.792775
0
LINE
8
BLACK
6
CONTINUOUS
10
2.40101
20
0.792775
11
2.4016
21
0.792282
0
LINE
8
BLACK
6
CONTINUOUS
10
2.4016
20
0.792282
11
2.40226
21
0.791898
0
LINE
8
BLACK
6
CONTINUOUS
10
2.40226
20
0.791898
11
2.40235
21
0.791648
0
LINE
8
BLACK
6
CONTINUOUS
10
2.40235
20
0.791648
11
2.40256
21
0.791476
0
LINE
8
BLACK
6
CONTINUOUS
10
2.40256
20
0.791476
11
2.40269
21
0.790721
0
LINE
8
BLACK
6
CONTINUOUS
10
2.40269
20
0.790721
11
2.40295
21
0.79
0
LINE
8
BLACK
6
CONTINUOUS
10
2.40295
20
0.79
11
2.40295
21
0.69
0
LINE
8
BLACK
6
CONTINUOUS
10
2.40295
20
0.69
11
2.40289
21
0.689616
0
LINE
8
BLACK
6
CONTINUOUS
10
2.40289
20
0.689616
11
2.40291
21
0.689487
0
LINE
8
BLACK
6
CONTINUOUS
10
2.40291
20
0.689487
11
2.40284
21
0.689374
0
LINE
8
BLACK
6
CONTINUOUS
10
2.40284
20
0.689374
11
2.40277
21
0.68899
0
LINE
8
BLACK
6
CONTINUOUS
10
2.40277
20
0.68899
11
2.40228
21
0.688402
0
LINE
8
BLACK
6
CONTINUOUS
10
2.40228
20
0.688402
11
2.4019
21
0.687738
0
LINE
8
BLACK
6
CONTINUOUS
10
2.4019
20
0.687738
11
2.40165
21
0.687647
0
LINE
8
BLACK
6
CONTINUOUS
10
2.40165
20
0.687647
11
2.40148
21
0.687443
0
LINE
8
BLACK
6
CONTINUOUS
10
2.40148
20
0.687443
11
2.40072
21
0.68731
0
LINE
8
BLACK
6
CONTINUOUS
10
2.40072
20
0.68731
11
2.4
21
0.687047
0
LINE
8
BLACK
6
CONTINUOUS
10
2.4
20
0.687047
11
2.2
21
0.687047
0
LINE
8
BLACK
6
CONTINUOUS
10
2.2
20
0.687047
11
2.19962
21
0.687115
0
LINE
8
BLACK
6
CONTINUOUS
10
2.19962
20
0.687115
11
2.19949
21
0.687092
0
LINE
8
BLACK
6
CONTINUOUS
10
2.19949
20
0.687092
11
2.19937
21
0.687158
0
LINE
8
BLACK
6
CONTINUOUS
10
2.19937
20
0.687158
11
2.19899
21
0.687225
0
LINE
8
BLACK
6
CONTINUOUS
10
2.19899
20
0.687225
11
2.1984
21
0.687718
0
LINE
8
BLACK
6
CONTINUOUS
10
2.1984
20
0.687718
11
2.19774
21
0.688102
0
LINE
8
BLACK
6
CONTINUOUS
10
2.19774
20
0.688102
11
2.19765
21
0.688352
0
LINE
8
BLACK
6
CONTINUOUS
10
2.19765
20
0.688352
11
2.19744
21
0.688524
0
LINE
8
BLACK
6
CONTINUOUS
10
2.19744
20
0.688524
11
2.19731
21
0.689279
0
LINE
8
BLACK
6
CONTINUOUS
10
2.19731
20
0.689279
11
2.19705
21
0.69
0
LINE
8
BLACK
6
CONTINUOUS
10
2.19705
20
0.69
11
2.19705
21
0.79
0
LINE
8
BLACK
6
CONTINUOUS
10
2.19705
20
0.79
11
2.19711
21
0.790384
0
LINE
8
BLACK
6
CONTINUOUS
10
2.19711
20
0.790384
11
2.19709
21
0.790513
0
LINE
8
BLACK
6
CONTINUOUS
10
2.19709
20
0.790513
11
2.19716
21
0.790626
0
LINE
8
BLACK
6
CONTINUOUS
10
2.19716
20
0.790626
11
2.19723
21
0.79101
0
LINE
8
BLACK
6
CONTINUOUS
10
2.19723
20
0.79101
11
2.19772
21
0.791598
0
LINE
8
BLACK
6
CONTINUOUS
10
2.19772
20
0.791598
11
2.1981
21
0.792262
0
LINE
8
BLACK
6
CONTINUOUS
10
2.1981
20
0.792262
11
2.19835
21
0.792353
0
LINE
8
BLACK
6
CONTINUOUS
10
2.19835
20
0.792353
11
2.19852
21
0.792557
0
LINE
8
BLACK
6
CONTINUOUS
10
2.19852
20
0.792557
11
2.19928
21
0.79269
0
LINE
8
BLACK
6
CONTINUOUS
10
2.19928
20
0.79269
11
2.2
21
0.792953
0
LINE
8
BLACK
6
CONTINUOUS
10
2.2
20
0.792953
11
2.4
21
0.792953
0
LINE
8
BLACK
6
CONTINUOUS
10
2.4
20
0.792953
11
2.40038
21
0.792885
0
LINE
8
BLACK
6
CONTINUOUS
10
2.20295
20
0.787047
11
2.20295
21
0.692953
0
LINE
8
BLACK
6
CONTINUOUS
10
2.20295
20
0.692953
11
2.39705
21
0.692953
0
LINE
8
BLACK
6
CONTINUOUS
10
2.39705
20
0.692953
11
2.39705
21
0.787047
0
LINE
8
BLACK
6
CONTINUOUS
10
2.39705
20
0.787047
11
2.20295
21
0.787047
0
LINE
8
BLACK
6
CONTINUOUS
10
2.33914
20
1.25336
11
2.33983
21
1.25146
0
LINE
8
BLACK
6
CONTINUOUS
10
2.33983
20
1.25146
11
2.33983
21
1.22334
0
LINE
8
BLACK
6
CONTINUOUS
10
2.33983
20
1.22334
11
2.33968
21
1.22247
0
LINE
8
BLACK
6
CONTINUOUS
10
2.33968
20
1.22247
11
2.33968
21
1.22241
0
LINE
8
BLACK
6
CONTINUOUS
10
2.33968
20
1.22241
11
2.3378
21
1.21678
0
LINE
8
BLACK
6
CONTINUOUS
10
2.3378
20
1.21678
11
2.33731
21
1.21588
0
LINE
8
BLACK
6
CONTINUOUS
10
2.33731
20
1.21588
11
2.33716
21
1.21579
0
LINE
8
BLACK
6
CONTINUOUS
10
2.33716
20
1.21579
11
2.33709
21
1.21563
0
LINE
8
BLACK
6
CONTINUOUS
10
2.33709
20
1.21563
11
2.33334
21
1.21188
0
LINE
8
BLACK
6
CONTINUOUS
10
2.33334
20
1.21188
11
2.3325
21
1.21129
0
LINE
8
BLACK
6
CONTINUOUS
10
2.3325
20
1.21129
11
2.33232
21
1.21128
0
LINE
8
BLACK
6
CONTINUOUS
10
2.33232
20
1.21128
11
2.33219
21
1.21117
0
LINE
8
BLACK
6
CONTINUOUS
10
2.33219
20
1.21117
11
2.32656
21
1.20929
0
LINE
8
BLACK
6
CONTINUOUS
10
2.32656
20
1.20929
11
2.32569
21
1.20916
0
LINE
8
BLACK
6
CONTINUOUS
10
2.32569
20
1.20916
11
2.32563
21
1.20914
0
LINE
8
BLACK
6
CONTINUOUS
10
2.32563
20
1.20914
11
2.32188
21
1.20914
0
LINE
8
BLACK
6
CONTINUOUS
10
2.32188
20
1.20914
11
2.32087
21
1.20932
0
LINE
8
BLACK
6
CONTINUOUS
10
2.32087
20
1.20932
11
2.31932
21
1.21062
0
LINE
8
BLACK
6
CONTINUOUS
10
2.31932
20
1.21062
11
2.31897
21
1.21261
0
LINE
8
BLACK
6
CONTINUOUS
10
2.31897
20
1.21261
11
2.31998
21
1.21436
0
LINE
8
BLACK
6
CONTINUOUS
10
2.31998
20
1.21436
11
2.32188
21
1.21505
0
LINE
8
BLACK
6
CONTINUOUS
10
2.32188
20
1.21505
11
2.32515
21
1.21505
0
LINE
8
BLACK
6
CONTINUOUS
10
2.32515
20
1.21505
11
2.32966
21
1.21655
0
LINE
8
BLACK
6
CONTINUOUS
10
2.32966
20
1.21655
11
2.33242
21
1.21931
0
LINE
8
BLACK
6
CONTINUOUS
10
2.33242
20
1.21931
11
2.33392
21
1.22382
0
LINE
8
BLACK
6
CONTINUOUS
10
2.33392
20
1.22382
11
2.33392
21
1.25146
0
LINE
8
BLACK
6
CONTINUOUS
10
2.33392
20
1.25146
11
2.3341
21
1.25247
0
LINE
8
BLACK
6
CONTINUOUS
10
2.3341
20
1.25247
11
2.3354
21
1.25402
0
LINE
8
BLACK
6
CONTINUOUS
10
2.3354
20
1.25402
11
2.33739
21
1.25437
0
LINE
8
BLACK
6
CONTINUOUS
10
2.33739
20
1.25437
11
2.33914
21
1.25336
0
LINE
8
BLACK
6
CONTINUOUS
10
2.36534
20
1.25434
11
2.36551
21
1.25437
0
LINE
8
BLACK
6
CONTINUOUS
10
2.36551
20
1.25437
11
2.36625
21
1.25394
0
LINE
8
BLACK
6
CONTINUOUS
10
2.36625
20
1.25394
11
2.36704
21
1.2536
0
LINE
8
BLACK
6
CONTINUOUS
10
2.36704
20
1.2536
11
2.36711
21
1.25345
0
LINE
8
BLACK
6
CONTINUOUS
10
2.36711
20
1.25345
11
2.36726
21
1.25336
0
LINE
8
BLACK
6
CONTINUOUS
10
2.36726
20
1.25336
11
2.36755
21
1.25256
0
LINE
8
BLACK
6
CONTINUOUS
10
2.36755
20
1.25256
11
2.36793
21
1.25179
0
LINE
8
BLACK
6
CONTINUOUS
10
2.36793
20
1.25179
11
2.36789
21
1.25162
0
LINE
8
BLACK
6
CONTINUOUS
10
2.36789
20
1.25162
11
2.36795
21
1.25146
0
LINE
8
BLACK
6
CONTINUOUS
10
2.36795
20
1.25146
11
2.36795
21
1.21505
0
LINE
8
BLACK
6
CONTINUOUS
10
2.36795
20
1.21505
11
2.37625
21
1.21505
0
LINE
8
BLACK
6
CONTINUOUS
10
2.37625
20
1.21505
11
2.37726
21
1.21487
0
LINE
8
BLACK
6
CONTINUOUS
10
2.37726
20
1.21487
11
2.3788
21
1.21357
0
LINE
8
BLACK
6
CONTINUOUS
10
2.3788
20
1.21357
11
2.37915
21
1.21158
0
LINE
8
BLACK
6
CONTINUOUS
10
2.37915
20
1.21158
11
2.37814
21
1.20983
0
LINE
8
BLACK
6
CONTINUOUS
10
2.37814
20
1.20983
11
2.37625
21
1.20914
0
LINE
8
BLACK
6
CONTINUOUS
10
2.37625
20
1.20914
11
2.35375
21
1.20914
0
LINE
8
BLACK
6
CONTINUOUS
10
2.35375
20
1.20914
11
2.35274
21
1.20932
0
LINE
8
BLACK
6
CONTINUOUS
10
2.35274
20
1.20932
11
2.35119
21
1.21062
0
LINE
8
BLACK
6
CONTINUOUS
10
2.35119
20
1.21062
11
2.35084
21
1.21261
0
LINE
8
BLACK
6
CONTINUOUS
10
2.35084
20
1.21261
11
2.35185
21
1.21436
0
LINE
8
BLACK
6
CONTINUOUS
10
2.35185
20
1.21436
11
2.35375
21
1.21505
0
LINE
8
BLACK
6
CONTINUOUS
10
2.35375
20
1.21505
11
2.36205
21
1.21505
0
LINE
8
BLACK
6
CONTINUOUS
10
2.36205
20
1.21505
11
2.36205
21
1.24246
0
LINE
8
BLACK
6
CONTINUOUS
10
2.36205
20
1.24246
11
2.35959
21
1.24
0
LINE
8
BLACK
6
CONTINUOUS
10
2.35959
20
1.24
11
2.35886
21
1.2395
0
LINE
8
BLACK
6
CONTINUOUS
10
2.35886
20
1.2395
11
2.35882
21
1.23945
0
LINE
8
BLACK
6
CONTINUOUS
10
2.35882
20
1.23945
11
2.35507
21
1.23757
0
LINE
8
BLACK
6
CONTINUOUS
10
2.35507
20
1.23757
11
2.35409
21
1.23728
0
LINE
8
BLACK
6
CONTINUOUS
10
2.35409
20
1.23728
11
2.35212
21
1.23775
0
LINE
8
BLACK
6
CONTINUOUS
10
2.35212
20
1.23775
11
2.35092
21
1.23937
0
LINE
8
BLACK
6
CONTINUOUS
10
2.35092
20
1.23937
11
2.35104
21
1.24139
0
LINE
8
BLACK
6
CONTINUOUS
10
2.35104
20
1.24139
11
2.35243
21
1.24286
0
LINE
8
BLACK
6
CONTINUOUS
10
2.35243
20
1.24286
11
2.35575
21
1.24452
0
LINE
8
BLACK
6
CONTINUOUS
10
2.35575
20
1.24452
11
2.35895
21
1.24772
0
LINE
8
BLACK
6
CONTINUOUS
10
2.35895
20
1.24772
11
2.36254
21
1.2531
0
LINE
8
BLACK
6
CONTINUOUS
10
2.36254
20
1.2531
11
2.36325
21
1.25384
0
LINE
8
BLACK
6
CONTINUOUS
10
2.36325
20
1.25384
11
2.36341
21
1.25389
0
LINE
8
BLACK
6
CONTINUOUS
10
2.36341
20
1.25389
11
2.36352
21
1.25402
0
LINE
8
BLACK
6
CONTINUOUS
10
2.36352
20
1.25402
11
2.36437
21
1.25417
0
LINE
8
BLACK
6
CONTINUOUS
10
2.36437
20
1.25417
11
2.36519
21
1.25441
0
LINE
8
BLACK
6
CONTINUOUS
10
2.36519
20
1.25441
11
2.36534
21
1.25434
0
LINE
8
BLACK
6
CONTINUOUS
10
2.475
20
1.35697
11
2.47639
21
1.35639
0
LINE
8
BLACK
6
CONTINUOUS
10
2.47639
20
1.35639
11
2.47697
21
1.355
0
LINE
8
BLACK
6
CONTINUOUS
10
2.47697
20
1.355
11
2.47697
21
1.105
0
LINE
8
BLACK
6
CONTINUOUS
10
2.47697
20
1.105
11
2.47639
21
1.10361
0
LINE
8
BLACK
6
CONTINUOUS
10
2.47639
20
1.10361
11
2.475
21
1.10303
0
LINE
8
BLACK
6
CONTINUOUS
10
2.475
20
1.10303
11
2.35
21
1.10303
0
LINE
8
BLACK
6
CONTINUOUS
10
2.35
20
1.10303
11
2.225
21
1.10303
0
LINE
8
BLACK
6
CONTINUOUS
10
2.225
20
1.10303
11
2.22361
21
1.10361
0
LINE
8
BLACK
6
CONTINUOUS
10
2.22361
20
1.10361
11
2.22303
21
1.105
0
LINE
8
BLACK
6
CONTINUOUS
10
2.22303
20
1.105
11
2.22303
21
1.355
0
LINE
8
BLACK
6
CONTINUOUS
10
2.22303
20
1.355
11
2.22361
21
1.35639
0
LINE
8
BLACK
6
CONTINUOUS
10
2.22361
20
1.35639
11
2.225
21
1.35697
0
LINE
8
BLACK
6
CONTINUOUS
10
2.225
20
1.35697
11
2.475
21
1.35697
0
LINE
8
BLACK
6
CONTINUOUS
10
2.22697
20
1.10697
11
2.31913
21
1.10697
0
LINE
8
BLACK
6
CONTINUOUS
10
2.31913
20
1.10697
11
2.30806
21
1.11016
0
LINE
8
BLACK
6
CONTINUOUS
10
2.30806
20
1.11016
11
2.29491
21
1.11561
0
LINE
8
BLACK
6
CONTINUOUS
10
2.29491
20
1.11561
11
2.28245
21
1.12249
0
LINE
8
BLACK
6
CONTINUOUS
10
2.28245
20
1.12249
11
2.27084
21
1.13073
0
LINE
8
BLACK
6
CONTINUOUS
10
2.27084
20
1.13073
11
2.26022
21
1.14022
0
LINE
8
BLACK
6
CONTINUOUS
10
2.26022
20
1.14022
11
2.25073
21
1.15084
0
LINE
8
BLACK
6
CONTINUOUS
10
2.25073
20
1.15084
11
2.24249
21
1.16245
0
LINE
8
BLACK
6
CONTINUOUS
10
2.24249
20
1.16245
11
2.23561
21
1.17491
0
LINE
8
BLACK
6
CONTINUOUS
10
2.23561
20
1.17491
11
2.23016
21
1.18806
0
LINE
8
BLACK
6
CONTINUOUS
10
2.23016
20
1.18806
11
2.22697
21
1.19913
0
LINE
8
BLACK
6
CONTINUOUS
10
2.22697
20
1.19913
11
2.22697
21
1.10697
0
LINE
8
BLACK
6
CONTINUOUS
10
2.34655
20
1.35303
11
2.3362
21
1.35245
0
LINE
8
BLACK
6
CONTINUOUS
10
2.3362
20
1.35245
11
2.32258
21
1.35014
0
LINE
8
BLACK
6
CONTINUOUS
10
2.32258
20
1.35014
11
2.3093
21
1.34631
0
LINE
8
BLACK
6
CONTINUOUS
10
2.3093
20
1.34631
11
2.29653
21
1.34102
0
LINE
8
BLACK
6
CONTINUOUS
10
2.29653
20
1.34102
11
2.28444
21
1.33434
0
LINE
8
BLACK
6
CONTINUOUS
10
2.28444
20
1.33434
11
2.27317
21
1.32634
0
LINE
8
BLACK
6
CONTINUOUS
10
2.27317
20
1.32634
11
2.26287
21
1.31713
0
LINE
8
BLACK
6
CONTINUOUS
10
2.26287
20
1.31713
11
2.25366
21
1.30683
0
LINE
8
BLACK
6
CONTINUOUS
10
2.25366
20
1.30683
11
2.24566
21
1.29556
0
LINE
8
BLACK
6
CONTINUOUS
10
2.24566
20
1.29556
11
2.23898
21
1.28347
0
LINE
8
BLACK
6
CONTINUOUS
10
2.23898
20
1.28347
11
2.23369
21
1.2707
0
LINE
8
BLACK
6
CONTINUOUS
10
2.23369
20
1.2707
11
2.22986
21
1.25742
0
LINE
8
BLACK
6
CONTINUOUS
10
2.22986
20
1.25742
11
2.22755
21
1.2438
0
LINE
8
BLACK
6
CONTINUOUS
10
2.22755
20
1.2438
11
2.22697
21
1.23345
0
LINE
8
BLACK
6
CONTINUOUS
10
2.22697
20
1.23345
11
2.22697
21
1.22655
0
LINE
8
BLACK
6
CONTINUOUS
10
2.22697
20
1.22655
11
2.22755
21
1.2162
0
LINE
8
BLACK
6
CONTINUOUS
10
2.22755
20
1.2162
11
2.22986
21
1.20258
0
LINE
8
BLACK
6
CONTINUOUS
10
2.22986
20
1.20258
11
2.23369
21
1.1893
0
LINE
8
BLACK
6
CONTINUOUS
10
2.23369
20
1.1893
11
2.23898
21
1.17653
0
LINE
8
BLACK
6
CONTINUOUS
10
2.23898
20
1.17653
11
2.24566
21
1.16444
0
LINE
8
BLACK
6
CONTINUOUS
10
2.24566
20
1.16444
11
2.25366
21
1.15317
0
LINE
8
BLACK
6
CONTINUOUS
10
2.25366
20
1.15317
11
2.26287
21
1.14287
0
LINE
8
BLACK
6
CONTINUOUS
10
2.26287
20
1.14287
11
2.27317
21
1.13366
0
LINE
8
BLACK
6
CONTINUOUS
10
2.27317
20
1.13366
11
2.28444
21
1.12566
0
LINE
8
BLACK
6
CONTINUOUS
10
2.28444
20
1.12566
11
2.29653
21
1.11898
0
LINE
8
BLACK
6
CONTINUOUS
10
2.29653
20
1.11898
11
2.3093
21
1.11369
0
LINE
8
BLACK
6
CONTINUOUS
10
2.3093
20
1.11369
11
2.32258
21
1.10986
0
LINE
8
BLACK
6
CONTINUOUS
10
2.32258
20
1.10986
11
2.3362
21
1.10755
0
LINE
8
BLACK
6
CONTINUOUS
10
2.3362
20
1.10755
11
2.34655
21
1.10697
0
LINE
8
BLACK
6
CONTINUOUS
10
2.34655
20
1.10697
11
2.35345
21
1.10697
0
LINE
8
BLACK
6
CONTINUOUS
10
2.35345
20
1.10697
11
2.3638
21
1.10755
0
LINE
8
BLACK
6
CONTINUOUS
10
2.3638
20
1.10755
11
2.37742
21
1.10986
0
LINE
8
BLACK
6
CONTINUOUS
10
2.37742
20
1.10986
11
2.3907
21
1.11369
0
LINE
8
BLACK
6
CONTINUOUS
10
2.3907
20
1.11369
11
2.40347
21
1.11898
0
LINE
8
BLACK
6
CONTINUOUS
10
2.40347
20
1.11898
11
2.41556
21
1.12566
0
LINE
8
BLACK
6
CONTINUOUS
10
2.41556
20
1.12566
11
2.42683
21
1.13366
0
LINE
8
BLACK
6
CONTINUOUS
10
2.42683
20
1.13366
11
2.43713
21
1.14287
0
LINE
8
BLACK
6
CONTINUOUS
10
2.43713
20
1.14287
11
2.44634
21
1.15317
0
LINE
8
BLACK
6
CONTINUOUS
10
2.44634
20
1.15317
11
2.45434
21
1.16444
0
LINE
8
BLACK
6
CONTINUOUS
10
2.45434
20
1.16444
11
2.46102
21
1.17653
0
LINE
8
BLACK
6
CONTINUOUS
10
2.46102
20
1.17653
11
2.46631
21
1.1893
0
LINE
8
BLACK
6
CONTINUOUS
10
2.46631
20
1.1893
11
2.47014
21
1.20258
0
LINE
8
BLACK
6
CONTINUOUS
10
2.47014
20
1.20258
11
2.47245
21
1.2162
0
LINE
8
BLACK
6
CONTINUOUS
10
2.47245
20
1.2162
11
2.47303
21
1.22655
0
LINE
8
BLACK
6
CONTINUOUS
10
2.47303
20
1.22655
11
2.47303
21
1.23345
0
LINE
8
BLACK
6
CONTINUOUS
10
2.47303
20
1.23345
11
2.47245
21
1.2438
0
LINE
8
BLACK
6
CONTINUOUS
10
2.47245
20
1.2438
11
2.47014
21
1.25742
0
LINE
8
BLACK
6
CONTINUOUS
10
2.47014
20
1.25742
11
2.46631
21
1.2707
0
LINE
8
BLACK
6
CONTINUOUS
10
2.46631
20
1.2707
11
2.46102
21
1.28347
0
LINE
8
BLACK
6
CONTINUOUS
10
2.46102
20
1.28347
11
2.45434
21
1.29556
0
LINE
8
BLACK
6
CONTINUOUS
10
2.45434
20
1.29556
11
2.44634
21
1.30683
0
LINE
8
BLACK
6
CONTINUOUS
10
2.44634
20
1.30683
11
2.43713
21
1.31713
0
LINE
8
BLACK
6
CONTINUOUS
10
2.43713
20
1.31713
11
2.42683
21
1.32634
0
LINE
8
BLACK
6
CONTINUOUS
10
2.42683
20
1.32634
11
2.41556
21
1.33434
0
LINE
8
BLACK
6
CONTINUOUS
10
2.41556
20
1.33434
11
2.40347
21
1.34102
0
LINE
8
BLACK
6
CONTINUOUS
10
2.40347
20
1.34102
11
2.3907
21
1.34631
0
LINE
8
BLACK
6
CONTINUOUS
10
2.3907
20
1.34631
11
2.37742
21
1.35014
0
LINE
8
BLACK
6
CONTINUOUS
10
2.37742
20
1.35014
11
2.3638
21
1.35245
0
LINE
8
BLACK
6
CONTINUOUS
10
2.3638
20
1.35245
11
2.35345
21
1.35303
0
LINE
8
BLACK
6
CONTINUOUS
10
2.35345
20
1.35303
11
2.34655
21
1.35303
0
LINE
8
BLACK
6
CONTINUOUS
10
2.46984
20
1.18806
11
2.46439
21
1.17491
0
LINE
8
BLACK
6
CONTINUOUS
10
2.46439
20
1.17491
11
2.45751
21
1.16245
0
LINE
8
BLACK
6
CONTINUOUS
10
2.45751
20
1.16245
11
2.44927
21
1.15084
0
LINE
8
BLACK
6
CONTINUOUS
10
2.44927
20
1.15084
11
2.43978
21
1.14022
0
LINE
8
BLACK
6
CONTINUOUS
10
2.43978
20
1.14022
11
2.42916
21
1.13073
0
LINE
8
BLACK
6
CONTINUOUS
10
2.42916
20
1.13073
11
2.41755
21
1.12249
0
LINE
8
BLACK
6
CONTINUOUS
10
2.41755
20
1.12249
11
2.40509
21
1.11561
0
LINE
8
BLACK
6
CONTINUOUS
10
2.40509
20
1.11561
11
2.39194
21
1.11016
0
LINE
8
BLACK
6
CONTINUOUS
10
2.39194
20
1.11016
11
2.38087
21
1.10697
0
LINE
8
BLACK
6
CONTINUOUS
10
2.38087
20
1.10697
11
2.47303
21
1.10697
0
LINE
8
BLACK
6
CONTINUOUS
10
2.47303
20
1.10697
11
2.47303
21
1.19913
0
LINE
8
BLACK
6
CONTINUOUS
10
2.47303
20
1.19913
11
2.46984
21
1.18806
0
LINE
8
BLACK
6
CONTINUOUS
10
2.22697
20
1.35303
11
2.22697
21
1.26087
0
LINE
8
BLACK
6
CONTINUOUS
10
2.22697
20
1.26087
11
2.23016
21
1.27194
0
LINE
8
BLACK
6
CONTINUOUS
10
2.23016
20
1.27194
11
2.23561
21
1.28509
0
LINE
8
BLACK
6
CONTINUOUS
10
2.23561
20
1.28509
11
2.24249
21
1.29755
0
LINE
8
BLACK
6
CONTINUOUS
10
2.24249
20
1.29755
11
2.25073
21
1.30916
0
LINE
8
BLACK
6
CONTINUOUS
10
2.25073
20
1.30916
11
2.26022
21
1.31978
0
LINE
8
BLACK
6
CONTINUOUS
10
2.26022
20
1.31978
11
2.27084
21
1.32927
0
LINE
8
BLACK
6
CONTINUOUS
10
2.27084
20
1.32927
11
2.28245
21
1.33751
0
LINE
8
BLACK
6
CONTINUOUS
10
2.28245
20
1.33751
11
2.29491
21
1.34439
0
LINE
8
BLACK
6
CONTINUOUS
10
2.29491
20
1.34439
11
2.30806
21
1.34984
0
LINE
8
BLACK
6
CONTINUOUS
10
2.30806
20
1.34984
11
2.31913
21
1.35303
0
LINE
8
BLACK
6
CONTINUOUS
10
2.31913
20
1.35303
11
2.22697
21
1.35303
0
LINE
8
BLACK
6
CONTINUOUS
10
2.38087
20
1.35303
11
2.39194
21
1.34984
0
LINE
8
BLACK
6
CONTINUOUS
10
2.39194
20
1.34984
11
2.40509
21
1.34439
0
LINE
8
BLACK
6
CONTINUOUS
10
2.40509
20
1.34439
11
2.41755
21
1.33751
0
LINE
8
BLACK
6
CONTINUOUS
10
2.41755
20
1.33751
11
2.42916
21
1.32927
0
LINE
8
BLACK
6
CONTINUOUS
10
2.42916
20
1.32927
11
2.43978
21
1.31978
0
LINE
8
BLACK
6
CONTINUOUS
10
2.43978
20
1.31978
11
2.44927
21
1.30916
0
LINE
8
BLACK
6
CONTINUOUS
10
2.44927
20
1.30916
11
2.45751
21
1.29755
0
LINE
8
BLACK
6
CONTINUOUS
10
2.45751
20
1.29755
11
2.46439
21
1.28509
0
LINE
8
BLACK
6
CONTINUOUS
10
2.46439
20
1.28509
11
2.46984
21
1.27194
0
LINE
8
BLACK
6
CONTINUOUS
10
2.46984
20
1.27194
11
2.47303
21
1.26087
0
LINE
8
BLACK
6
CONTINUOUS
10
2.47303
20
1.26087
11
2.47303
21
1.35303
0
LINE
8
BLACK
6
CONTINUOUS
10
2.47303
20
1.35303
11
2.38087
21
1.35303
0
LINE
8
BLACK
6
CONTINUOUS
10
2.33039
20
1.40797
11
2.33193
21
1.40667
0
LINE
8
BLACK
6
CONTINUOUS
10
2.33193
20
1.40667
11
2.33229
21
1.40468
0
LINE
8
BLACK
6
CONTINUOUS
10
2.33229
20
1.40468
11
2.33128
21
1.40293
0
LINE
8
BLACK
6
CONTINUOUS
10
2.33128
20
1.40293
11
2.32938
21
1.40224
0
LINE
8
BLACK
6
CONTINUOUS
10
2.32938
20
1.40224
11
2.29938
21
1.40224
0
LINE
8
BLACK
6
CONTINUOUS
10
2.29938
20
1.40224
11
2.29837
21
1.40242
0
LINE
8
BLACK
6
CONTINUOUS
10
2.29837
20
1.40242
11
2.29682
21
1.40372
0
LINE
8
BLACK
6
CONTINUOUS
10
2.29682
20
1.40372
11
2.29647
21
1.40571
0
LINE
8
BLACK
6
CONTINUOUS
10
2.29647
20
1.40571
11
2.29748
21
1.40746
0
LINE
8
BLACK
6
CONTINUOUS
10
2.29748
20
1.40746
11
2.29938
21
1.40815
0
LINE
8
BLACK
6
CONTINUOUS
10
2.29938
20
1.40815
11
2.32938
21
1.40815
0
LINE
8
BLACK
6
CONTINUOUS
10
2.32938
20
1.40815
11
2.33039
21
1.40797
0
LINE
8
BLACK
6
CONTINUOUS
10
2.17839
20
1.45111
11
2.17846
21
1.45112
0
LINE
8
BLACK
6
CONTINUOUS
10
2.17846
20
1.45112
11
2.18408
21
1.44924
0
LINE
8
BLACK
6
CONTINUOUS
10
2.18408
20
1.44924
11
2.18498
21
1.44875
0
LINE
8
BLACK
6
CONTINUOUS
10
2.18498
20
1.44875
11
2.18507
21
1.4486
0
LINE
8
BLACK
6
CONTINUOUS
10
2.18507
20
1.4486
11
2.18523
21
1.44853
0
LINE
8
BLACK
6
CONTINUOUS
10
2.18523
20
1.44853
11
2.18711
21
1.44665
0
LINE
8
BLACK
6
CONTINUOUS
10
2.18711
20
1.44665
11
2.1877
21
1.44581
0
LINE
8
BLACK
6
CONTINUOUS
10
2.1877
20
1.44581
11
2.18787
21
1.4438
0
LINE
8
BLACK
6
CONTINUOUS
10
2.18787
20
1.4438
11
2.18671
21
1.44215
0
LINE
8
BLACK
6
CONTINUOUS
10
2.18671
20
1.44215
11
2.18476
21
1.44162
0
LINE
8
BLACK
6
CONTINUOUS
10
2.18476
20
1.44162
11
2.18293
21
1.44248
0
LINE
8
BLACK
6
CONTINUOUS
10
2.18293
20
1.44248
11
2.18155
21
1.44386
0
LINE
8
BLACK
6
CONTINUOUS
10
2.18155
20
1.44386
11
2.17704
21
1.44536
0
LINE
8
BLACK
6
CONTINUOUS
10
2.17704
20
1.44536
11
2.17425
21
1.44536
0
LINE
8
BLACK
6
CONTINUOUS
10
2.17425
20
1.44536
11
2.16974
21
1.44386
0
LINE
8
BLACK
6
CONTINUOUS
10
2.16974
20
1.44386
11
2.16682
21
1.44094
0
LINE
8
BLACK
6
CONTINUOUS
10
2.16682
20
1.44094
11
2.16531
21
1.43791
0
LINE
8
BLACK
6
CONTINUOUS
10
2.16531
20
1.43791
11
2.1636
21
1.43108
0
LINE
8
BLACK
6
CONTINUOUS
10
2.1636
20
1.43108
11
2.1636
21
1.42618
0
LINE
8
BLACK
6
CONTINUOUS
10
2.1636
20
1.42618
11
2.16531
21
1.41935
0
LINE
8
BLACK
6
CONTINUOUS
10
2.16531
20
1.41935
11
2.16682
21
1.41632
0
LINE
8
BLACK
6
CONTINUOUS
10
2.16682
20
1.41632
11
2.16974
21
1.4134
0
LINE
8
BLACK
6
CONTINUOUS
10
2.16974
20
1.4134
11
2.17425
21
1.4119
0
LINE
8
BLACK
6
CONTINUOUS
10
2.17425
20
1.4119
11
2.17704
21
1.4119
0
LINE
8
BLACK
6
CONTINUOUS
10
2.17704
20
1.4119
11
2.18155
21
1.4134
0
LINE
8
BLACK
6
CONTINUOUS
10
2.18155
20
1.4134
11
2.18293
21
1.41478
0
LINE
8
BLACK
6
CONTINUOUS
10
2.18293
20
1.41478
11
2.18377
21
1.41537
0
LINE
8
BLACK
6
CONTINUOUS
10
2.18377
20
1.41537
11
2.18578
21
1.41555
0
LINE
8
BLACK
6
CONTINUOUS
10
2.18578
20
1.41555
11
2.18744
21
1.41439
0
LINE
8
BLACK
6
CONTINUOUS
10
2.18744
20
1.41439
11
2.18796
21
1.41244
0
LINE
8
BLACK
6
CONTINUOUS
10
2.18796
20
1.41244
11
2.18711
21
1.41061
0
LINE
8
BLACK
6
CONTINUOUS
10
2.18711
20
1.41061
11
2.18523
21
1.40873
0
LINE
8
BLACK
6
CONTINUOUS
10
2.18523
20
1.40873
11
2.18439
21
1.40814
0
LINE
8
BLACK
6
CONTINUOUS
10
2.18439
20
1.40814
11
2.18422
21
1.40813
0
LINE
8
BLACK
6
CONTINUOUS
10
2.18422
20
1.40813
11
2.18408
21
1.40802
0
LINE
8
BLACK
6
CONTINUOUS
10
2.18408
20
1.40802
11
2.17846
21
1.40614
0
LINE
8
BLACK
6
CONTINUOUS
10
2.17846
20
1.40614
11
2.17758
21
1.40601
0
LINE
8
BLACK
6
CONTINUOUS
10
2.17758
20
1.40601
11
2.17752
21
1.40599
0
LINE
8
BLACK
6
CONTINUOUS
10
2.17752
20
1.40599
11
2.17377
21
1.40599
0
LINE
8
BLACK
6
CONTINUOUS
10
2.17377
20
1.40599
11
2.1729
21
1.40614
0
LINE
8
BLACK
6
CONTINUOUS
10
2.1729
20
1.40614
11
2.17284
21
1.40614
0
LINE
8
BLACK
6
CONTINUOUS
10
2.17284
20
1.40614
11
2.16721
21
1.40802
0
LINE
8
BLACK
6
CONTINUOUS
10
2.16721
20
1.40802
11
2.16631
21
1.40851
0
LINE
8
BLACK
6
CONTINUOUS
10
2.16631
20
1.40851
11
2.16622
21
1.40866
0
LINE
8
BLACK
6
CONTINUOUS
10
2.16622
20
1.40866
11
2.16606
21
1.40873
0
LINE
8
BLACK
6
CONTINUOUS
10
2.16606
20
1.40873
11
2.16231
21
1.41248
0
LINE
8
BLACK
6
CONTINUOUS
10
2.16231
20
1.41248
11
2.1618
21
1.4132
0
LINE
8
BLACK
6
CONTINUOUS
10
2.1618
20
1.4132
11
2.16176
21
1.41325
0
LINE
8
BLACK
6
CONTINUOUS
10
2.16176
20
1.41325
11
2.15988
21
1.417
0
LINE
8
BLACK
6
CONTINUOUS
10
2.15988
20
1.417
11
2.15974
21
1.41749
0
LINE
8
BLACK
6
CONTINUOUS
10
2.15974
20
1.41749
11
2.15966
21
1.4176
0
LINE
8
BLACK
6
CONTINUOUS
10
2.15966
20
1.4176
11
2.15778
21
1.4251
0
LINE
8
BLACK
6
CONTINUOUS
10
2.15778
20
1.4251
11
2.15774
21
1.42569
0
LINE
8
BLACK
6
CONTINUOUS
10
2.15774
20
1.42569
11
2.1577
21
1.42582
0
LINE
8
BLACK
6
CONTINUOUS
10
2.1577
20
1.42582
11
2.1577
21
1.43144
0
LINE
8
BLACK
6
CONTINUOUS
10
2.1577
20
1.43144
11
2.1578
21
1.43202
0
LINE
8
BLACK
6
CONTINUOUS
10
2.1578
20
1.43202
11
2.15778
21
1.43216
0
LINE
8
BLACK
6
CONTINUOUS
10
2.15778
20
1.43216
11
2.15966
21
1.43966
0
LINE
8
BLACK
6
CONTINUOUS
10
2.15966
20
1.43966
11
2.15987
21
1.44012
0
LINE
8
BLACK
6
CONTINUOUS
10
2.15987
20
1.44012
11
2.15988
21
1.44026
0
LINE
8
BLACK
6
CONTINUOUS
10
2.15988
20
1.44026
11
2.16176
21
1.44401
0
LINE
8
BLACK
6
CONTINUOUS
10
2.16176
20
1.44401
11
2.16228
21
1.44472
0
LINE
8
BLACK
6
CONTINUOUS
10
2.16228
20
1.44472
11
2.16231
21
1.44478
0
LINE
8
BLACK
6
CONTINUOUS
10
2.16231
20
1.44478
11
2.16606
21
1.44853
0
LINE
8
BLACK
6
CONTINUOUS
10
2.16606
20
1.44853
11
2.1669
21
1.44912
0
LINE
8
BLACK
6
CONTINUOUS
10
2.1669
20
1.44912
11
2.16708
21
1.44913
0
LINE
8
BLACK
6
CONTINUOUS
10
2.16708
20
1.44913
11
2.16721
21
1.44924
0
LINE
8
BLACK
6
CONTINUOUS
10
2.16721
20
1.44924
11
2.17284
21
1.45112
0
LINE
8
BLACK
6
CONTINUOUS
10
2.17284
20
1.45112
11
2.17371
21
1.45124
0
LINE
8
BLACK
6
CONTINUOUS
10
2.17371
20
1.45124
11
2.17377
21
1.45127
0
LINE
8
BLACK
6
CONTINUOUS
10
2.17377
20
1.45127
11
2.17752
21
1.45127
0
LINE
8
BLACK
6
CONTINUOUS
10
2.17752
20
1.45127
11
2.17839
21
1.45111
0
LINE
8
BLACK
6
CONTINUOUS
10
2.21415
20
1.43797
11
2.21429
21
1.43785
0
LINE
8
BLACK
6
CONTINUOUS
10
2.21429
20
1.43785
11
2.21446
21
1.43783
0
LINE
8
BLACK
6
CONTINUOUS
10
2.21446
20
1.43783
11
2.21821
21
1.43596
0
LINE
8
BLACK
6
CONTINUOUS
10
2.21821
20
1.43596
11
2.21892
21
1.43543
0
LINE
8
BLACK
6
CONTINUOUS
10
2.21892
20
1.43543
11
2.21898
21
1.4354
0
LINE
8
BLACK
6
CONTINUOUS
10
2.21898
20
1.4354
11
2.22085
21
1.43353
0
LINE
8
BLACK
6
CONTINUOUS
10
2.22085
20
1.43353
11
2.22136
21
1.43281
0
LINE
8
BLACK
6
CONTINUOUS
10
2.22136
20
1.43281
11
2.22141
21
1.43276
0
LINE
8
BLACK
6
CONTINUOUS
10
2.22141
20
1.43276
11
2.22328
21
1.42901
0
LINE
8
BLACK
6
CONTINUOUS
10
2.22328
20
1.42901
11
2.22357
21
1.42803
0
LINE
8
BLACK
6
CONTINUOUS
10
2.22357
20
1.42803
11
2.22353
21
1.42786
0
LINE
8
BLACK
6
CONTINUOUS
10
2.22353
20
1.42786
11
2.22359
21
1.42769
0
LINE
8
BLACK
6
CONTINUOUS
10
2.22359
20
1.42769
11
2.22359
21
1.41644
0
LINE
8
BLACK
6
CONTINUOUS
10
2.22359
20
1.41644
11
2.22342
21
1.41543
0
LINE
8
BLACK
6
CONTINUOUS
10
2.22342
20
1.41543
11
2.2233
21
1.4153
0
LINE
8
BLACK
6
CONTINUOUS
10
2.2233
20
1.4153
11
2.22328
21
1.41512
0
LINE
8
BLACK
6
CONTINUOUS
10
2.22328
20
1.41512
11
2.22141
21
1.41137
0
LINE
8
BLACK
6
CONTINUOUS
10
2.22141
20
1.41137
11
2.22088
21
1.41066
0
LINE
8
BLACK
6
CONTINUOUS
10
2.22088
20
1.41066
11
2.22085
21
1.41061
0
LINE
8
BLACK
6
CONTINUOUS
10
2.22085
20
1.41061
11
2.21898
21
1.40873
0
LINE
8
BLACK
6
CONTINUOUS
10
2.21898
20
1.40873
11
2.21826
21
1.40822
0
LINE
8
BLACK
6
CONTINUOUS
10
2.21826
20
1.40822
11
2.21821
21
1.40818
0
LINE
8
BLACK
6
CONTINUOUS
10
2.21821
20
1.40818
11
2.21446
21
1.4063
0
LINE
8
BLACK
6
CONTINUOUS
10
2.21446
20
1.4063
11
2.21348
21
1.40601
0
LINE
8
BLACK
6
CONTINUOUS
10
2.21348
20
1.40601
11
2.21331
21
1.40605
0
LINE
8
BLACK
6
CONTINUOUS
10
2.21331
20
1.40605
11
2.21314
21
1.40599
0
LINE
8
BLACK
6
CONTINUOUS
10
2.21314
20
1.40599
11
2.20752
21
1.40599
0
LINE
8
BLACK
6
CONTINUOUS
10
2.20752
20
1.40599
11
2.20651
21
1.40617
0
LINE
8
BLACK
6
CONTINUOUS
10
2.20651
20
1.40617
11
2.20637
21
1.40628
0
LINE
8
BLACK
6
CONTINUOUS
10
2.20637
20
1.40628
11
2.2062
21
1.4063
0
LINE
8
BLACK
6
CONTINUOUS
10
2.2062
20
1.4063
11
2.20245
21
1.40818
0
LINE
8
BLACK
6
CONTINUOUS
10
2.20245
20
1.40818
11
2.20174
21
1.4087
0
LINE
8
BLACK
6
CONTINUOUS
10
2.20174
20
1.4087
11
2.20168
21
1.40873
0
LINE
8
BLACK
6
CONTINUOUS
10
2.20168
20
1.40873
11
2.19981
21
1.41061
0
LINE
8
BLACK
6
CONTINUOUS
10
2.19981
20
1.41061
11
2.1993
21
1.41133
0
LINE
8
BLACK
6
CONTINUOUS
10
2.1993
20
1.41133
11
2.19925
21
1.41137
0
LINE
8
BLACK
6
CONTINUOUS
10
2.19925
20
1.41137
11
2.19738
21
1.41512
0
LINE
8
BLACK
6
CONTINUOUS
10
2.19738
20
1.41512
11
2.19709
21
1.41611
0
LINE
8
BLACK
6
CONTINUOUS
10
2.19709
20
1.41611
11
2.19713
21
1.41628
0
LINE
8
BLACK
6
CONTINUOUS
10
2.19713
20
1.41628
11
2.19707
21
1.41644
0
LINE
8
BLACK
6
CONTINUOUS
10
2.19707
20
1.41644
11
2.19707
21
1.42769
0
LINE
8
BLACK
6
CONTINUOUS
10
2.19707
20
1.42769
11
2.19724
21
1.4287
0
LINE
8
BLACK
6
CONTINUOUS
10
2.19724
20
1.4287
11
2.19736
21
1.42884
0
LINE
8
BLACK
6
CONTINUOUS
10
2.19736
20
1.42884
11
2.19738
21
1.42901
0
LINE
8
BLACK
6
CONTINUOUS
10
2.19738
20
1.42901
11
2.19925
21
1.43276
0
LINE
8
BLACK
6
CONTINUOUS
10
2.19925
20
1.43276
11
2.19978
21
1.43347
0
LINE
8
BLACK
6
CONTINUOUS
10
2.19978
20
1.43347
11
2.19981
21
1.43353
0
LINE
8
BLACK
6
CONTINUOUS
10
2.19981
20
1.43353
11
2.20168
21
1.4354
0
LINE
8
BLACK
6
CONTINUOUS
10
2.20168
20
1.4354
11
2.2024
21
1.43591
0
LINE
8
BLACK
6
CONTINUOUS
10
2.2024
20
1.43591
11
2.20245
21
1.43596
0
LINE
8
BLACK
6
CONTINUOUS
10
2.20245
20
1.43596
11
2.2062
21
1.43783
0
LINE
8
BLACK
6
CONTINUOUS
10
2.2062
20
1.43783
11
2.20718
21
1.43812
0
LINE
8
BLACK
6
CONTINUOUS
10
2.20718
20
1.43812
11
2.20735
21
1.43808
0
LINE
8
BLACK
6
CONTINUOUS
10
2.20735
20
1.43808
11
2.20752
21
1.43814
0
LINE
8
BLACK
6
CONTINUOUS
10
2.20752
20
1.43814
11
2.21314
21
1.43814
0
LINE
8
BLACK
6
CONTINUOUS
10
2.21314
20
1.43814
11
2.21415
21
1.43797
0
LINE
8
BLACK
6
CONTINUOUS
10
2.20552
20
1.43089
11
2.20432
21
1.42969
0
LINE
8
BLACK
6
CONTINUOUS
10
2.20432
20
1.42969
11
2.20297
21
1.42699
0
LINE
8
BLACK
6
CONTINUOUS
10
2.20297
20
1.42699
11
2.20297
21
1.41714
0
LINE
8
BLACK
6
CONTINUOUS
10
2.20297
20
1.41714
11
2.20432
21
1.41444
0
LINE
8
BLACK
6
CONTINUOUS
10
2.20432
20
1.41444
11
2.20552
21
1.41325
0
LINE
8
BLACK
6
CONTINUOUS
10
2.20552
20
1.41325
11
2.20821
21
1.4119
0
LINE
8
BLACK
6
CONTINUOUS
10
2.20821
20
1.4119
11
2.21245
21
1.4119
0
LINE
8
BLACK
6
CONTINUOUS
10
2.21245
20
1.4119
11
2.21514
21
1.41325
0
LINE
8
BLACK
6
CONTINUOUS
10
2.21514
20
1.41325
11
2.21634
21
1.41444
0
LINE
8
BLACK
6
CONTINUOUS
10
2.21634
20
1.41444
11
2.21769
21
1.41714
0
LINE
8
BLACK
6
CONTINUOUS
10
2.21769
20
1.41714
11
2.21769
21
1.42699
0
LINE
8
BLACK
6
CONTINUOUS
10
2.21769
20
1.42699
11
2.21634
21
1.42969
0
LINE
8
BLACK
6
CONTINUOUS
10
2.21634
20
1.42969
11
2.21514
21
1.43089
0
LINE
8
BLACK
6
CONTINUOUS
10
2.21514
20
1.43089
11
2.21245
21
1.43224
0
LINE
8
BLACK
6
CONTINUOUS
10
2.21245
20
1.43224
11
2.20821
21
1.43224
0
LINE
8
BLACK
6
CONTINUOUS
10
2.20821
20
1.43224
11
2.20552
21
1.43089
0
LINE
8
BLACK
6
CONTINUOUS
10
2.35462
20
1.45111
11
2.35468
21
1.45112
0
LINE
8
BLACK
6
CONTINUOUS
10
2.35468
20
1.45112
11
2.36031
21
1.44924
0
LINE
8
BLACK
6
CONTINUOUS
10
2.36031
20
1.44924
11
2.36121
21
1.44875
0
LINE
8
BLACK
6
CONTINUOUS
10
2.36121
20
1.44875
11
2.3613
21
1.4486
0
LINE
8
BLACK
6
CONTINUOUS
10
2.3613
20
1.4486
11
2.36146
21
1.44853
0
LINE
8
BLACK
6
CONTINUOUS
10
2.36146
20
1.44853
11
2.36334
21
1.44665
0
LINE
8
BLACK
6
CONTINUOUS
10
2.36334
20
1.44665
11
2.36392
21
1.44581
0
LINE
8
BLACK
6
CONTINUOUS
10
2.36392
20
1.44581
11
2.3641
21
1.4438
0
LINE
8
BLACK
6
CONTINUOUS
10
2.3641
20
1.4438
11
2.36294
21
1.44215
0
LINE
8
BLACK
6
CONTINUOUS
10
2.36294
20
1.44215
11
2.36099
21
1.44162
0
LINE
8
BLACK
6
CONTINUOUS
10
2.36099
20
1.44162
11
2.35916
21
1.44248
0
LINE
8
BLACK
6
CONTINUOUS
10
2.35916
20
1.44248
11
2.35778
21
1.44386
0
LINE
8
BLACK
6
CONTINUOUS
10
2.35778
20
1.44386
11
2.35327
21
1.44536
0
LINE
8
BLACK
6
CONTINUOUS
10
2.35327
20
1.44536
11
2.35048
21
1.44536
0
LINE
8
BLACK
6
CONTINUOUS
10
2.35048
20
1.44536
11
2.34597
21
1.44386
0
LINE
8
BLACK
6
CONTINUOUS
10
2.34597
20
1.44386
11
2.34305
21
1.44094
0
LINE
8
BLACK
6
CONTINUOUS
10
2.34305
20
1.44094
11
2.34154
21
1.43791
0
LINE
8
BLACK
6
CONTINUOUS
10
2.34154
20
1.43791
11
2.33983
21
1.43108
0
LINE
8
BLACK
6
CONTINUOUS
10
2.33983
20
1.43108
11
2.33983
21
1.42618
0
LINE
8
BLACK
6
CONTINUOUS
10
2.33983
20
1.42618
11
2.34154
21
1.41935
0
LINE
8
BLACK
6
CONTINUOUS
10
2.34154
20
1.41935
11
2.34305
21
1.41632
0
LINE
8
BLACK
6
CONTINUOUS
10
2.34305
20
1.41632
11
2.34597
21
1.4134
0
LINE
8
BLACK
6
CONTINUOUS
10
2.34597
20
1.4134
11
2.35048
21
1.4119
0
LINE
8
BLACK
6
CONTINUOUS
10
2.35048
20
1.4119
11
2.35327
21
1.4119
0
LINE
8
BLACK
6
CONTINUOUS
10
2.35327
20
1.4119
11
2.35778
21
1.4134
0
LINE
8
BLACK
6
CONTINUOUS
10
2.35778
20
1.4134
11
2.35916
21
1.41478
0
LINE
8
BLACK
6
CONTINUOUS
10
2.35916
20
1.41478
11
2.36
21
1.41537
0
LINE
8
BLACK
6
CONTINUOUS
10
2.36
20
1.41537
11
2.36201
21
1.41555
0
LINE
8
BLACK
6
CONTINUOUS
10
2.36201
20
1.41555
11
2.36367
21
1.41439
0
LINE
8
BLACK
6
CONTINUOUS
10
2.36367
20
1.41439
11
2.36419
21
1.41244
0
LINE
8
BLACK
6
CONTINUOUS
10
2.36419
20
1.41244
11
2.36334
21
1.41061
0
LINE
8
BLACK
6
CONTINUOUS
10
2.36334
20
1.41061
11
2.36146
21
1.40873
0
LINE
8
BLACK
6
CONTINUOUS
10
2.36146
20
1.40873
11
2.36062
21
1.40814
0
LINE
8
BLACK
6
CONTINUOUS
10
2.36062
20
1.40814
11
2.36045
21
1.40813
0
LINE
8
BLACK
6
CONTINUOUS
10
2.36045
20
1.40813
11
2.36031
21
1.40802
0
LINE
8
BLACK
6
CONTINUOUS
10
2.36031
20
1.40802
11
2.35468
21
1.40614
0
LINE
8
BLACK
6
CONTINUOUS
10
2.35468
20
1.40614
11
2.35381
21
1.40601
0
LINE
8
BLACK
6
CONTINUOUS
10
2.35381
20
1.40601
11
2.35375
21
1.40599
0
LINE
8
BLACK
6
CONTINUOUS
10
2.35375
20
1.40599
11
2.35
21
1.40599
0
LINE
8
BLACK
6
CONTINUOUS
10
2.35
20
1.40599
11
2.34913
21
1.40614
0
LINE
8
BLACK
6
CONTINUOUS
10
2.34913
20
1.40614
11
2.34907
21
1.40614
0
LINE
8
BLACK
6
CONTINUOUS
10
2.34907
20
1.40614
11
2.34344
21
1.40802
0
LINE
8
BLACK
6
CONTINUOUS
10
2.34344
20
1.40802
11
2.34254
21
1.40851
0
LINE
8
BLACK
6
CONTINUOUS
10
2.34254
20
1.40851
11
2.34245
21
1.40866
0
LINE
8
BLACK
6
CONTINUOUS
10
2.34245
20
1.40866
11
2.34229
21
1.40873
0
LINE
8
BLACK
6
CONTINUOUS
10
2.34229
20
1.40873
11
2.33854
21
1.41248
0
LINE
8
BLACK
6
CONTINUOUS
10
2.33854
20
1.41248
11
2.33803
21
1.4132
0
LINE
8
BLACK
6
CONTINUOUS
10
2.33803
20
1.4132
11
2.33799
21
1.41325
0
LINE
8
BLACK
6
CONTINUOUS
10
2.33799
20
1.41325
11
2.33611
21
1.417
0
LINE
8
BLACK
6
CONTINUOUS
10
2.33611
20
1.417
11
2.33597
21
1.41749
0
LINE
8
BLACK
6
CONTINUOUS
10
2.33597
20
1.41749
11
2.33589
21
1.4176
0
LINE
8
BLACK
6
CONTINUOUS
10
2.33589
20
1.4176
11
2.33401
21
1.4251
0
LINE
8
BLACK
6
CONTINUOUS
10
2.33401
20
1.4251
11
2.33397
21
1.42569
0
LINE
8
BLACK
6
CONTINUOUS
10
2.33397
20
1.42569
11
2.33392
21
1.42582
0
LINE
8
BLACK
6
CONTINUOUS
10
2.33392
20
1.42582
11
2.33392
21
1.43144
0
LINE
8
BLACK
6
CONTINUOUS
10
2.33392
20
1.43144
11
2.33403
21
1.43202
0
LINE
8
BLACK
6
CONTINUOUS
10
2.33403
20
1.43202
11
2.33401
21
1.43216
0
LINE
8
BLACK
6
CONTINUOUS
10
2.33401
20
1.43216
11
2.33589
21
1.43966
0
LINE
8
BLACK
6
CONTINUOUS
10
2.33589
20
1.43966
11
2.33609
21
1.44012
0
LINE
8
BLACK
6
CONTINUOUS
10
2.33609
20
1.44012
11
2.33611
21
1.44026
0
LINE
8
BLACK
6
CONTINUOUS
10
2.33611
20
1.44026
11
2.33799
21
1.44401
0
LINE
8
BLACK
6
CONTINUOUS
10
2.33799
20
1.44401
11
2.33851
21
1.44472
0
LINE
8
BLACK
6
CONTINUOUS
10
2.33851
20
1.44472
11
2.33854
21
1.44478
0
LINE
8
BLACK
6
CONTINUOUS
10
2.33854
20
1.44478
11
2.34229
21
1.44853
0
LINE
8
BLACK
6
CONTINUOUS
10
2.34229
20
1.44853
11
2.34313
21
1.44912
0
LINE
8
BLACK
6
CONTINUOUS
10
2.34313
20
1.44912
11
2.3433
21
1.44913
0
LINE
8
BLACK
6
CONTINUOUS
10
2.3433
20
1.44913
11
2.34344
21
1.44924
0
LINE
8
BLACK
6
CONTINUOUS
10
2.34344
20
1.44924
11
2.34907
21
1.45112
0
LINE
8
BLACK
6
CONTINUOUS
10
2.34907
20
1.45112
11
2.34994
21
1.45124
0
LINE
8
BLACK
6
CONTINUOUS
10
2.34994
20
1.45124
11
2.35
21
1.45127
0
LINE
8
BLACK
6
CONTINUOUS
10
2.35
20
1.45127
11
2.35375
21
1.45127
0
LINE
8
BLACK
6
CONTINUOUS
10
2.35375
20
1.45127
11
2.35462
21
1.45111
0
LINE
8
BLACK
6
CONTINUOUS
10
2.39038
20
1.43797
11
2.39052
21
1.43785
0
LINE
8
BLACK
6
CONTINUOUS
10
2.39052
20
1.43785
11
2.39069
21
1.43783
0
LINE
8
BLACK
6
CONTINUOUS
10
2.39069
20
1.43783
11
2.39444
21
1.43596
0
LINE
8
BLACK
6
CONTINUOUS
10
2.39444
20
1.43596
11
2.39515
21
1.43543
0
LINE
8
BLACK
6
CONTINUOUS
10
2.39515
20
1.43543
11
2.39521
21
1.4354
0
LINE
8
BLACK
6
CONTINUOUS
10
2.39521
20
1.4354
11
2.39708
21
1.43353
0
LINE
8
BLACK
6
CONTINUOUS
10
2.39708
20
1.43353
11
2.39759
21
1.43281
0
LINE
8
BLACK
6
CONTINUOUS
10
2.39759
20
1.43281
11
2.39764
21
1.43276
0
LINE
8
BLACK
6
CONTINUOUS
10
2.39764
20
1.43276
11
2.39951
21
1.42901
0
LINE
8
BLACK
6
CONTINUOUS
10
2.39951
20
1.42901
11
2.3998
21
1.42803
0
LINE
8
BLACK
6
CONTINUOUS
10
2.3998
20
1.42803
11
2.39976
21
1.42786
0
LINE
8
BLACK
6
CONTINUOUS
10
2.39976
20
1.42786
11
2.39982
21
1.42769
0
LINE
8
BLACK
6
CONTINUOUS
10
2.39982
20
1.42769
11
2.39982
21
1.41644
0
LINE
8
BLACK
6
CONTINUOUS
10
2.39982
20
1.41644
11
2.39964
21
1.41543
0
LINE
8
BLACK
6
CONTINUOUS
10
2.39964
20
1.41543
11
2.39953
21
1.4153
0
LINE
8
BLACK
6
CONTINUOUS
10
2.39953
20
1.4153
11
2.39951
21
1.41512
0
LINE
8
BLACK
6
CONTINUOUS
10
2.39951
20
1.41512
11
2.39764
21
1.41137
0
LINE
8
BLACK
6
CONTINUOUS
10
2.39764
20
1.41137
11
2.39711
21
1.41066
0
LINE
8
BLACK
6
CONTINUOUS
10
2.39711
20
1.41066
11
2.39708
21
1.41061
0
LINE
8
BLACK
6
CONTINUOUS
10
2.39708
20
1.41061
11
2.39521
21
1.40873
0
LINE
8
BLACK
6
CONTINUOUS
10
2.39521
20
1.40873
11
2.39448
21
1.40822
0
LINE
8
BLACK
6
CONTINUOUS
10
2.39448
20
1.40822
11
2.39444
21
1.40818
0
LINE
8
BLACK
6
CONTINUOUS
10
2.39444
20
1.40818
11
2.39069
21
1.4063
0
LINE
8
BLACK
6
CONTINUOUS
10
2.39069
20
1.4063
11
2.38971
21
1.40601
0
LINE
8
BLACK
6
CONTINUOUS
10
2.38971
20
1.40601
11
2.38954
21
1.40605
0
LINE
8
BLACK
6
CONTINUOUS
10
2.38954
20
1.40605
11
2.38937
21
1.40599
0
LINE
8
BLACK
6
CONTINUOUS
10
2.38937
20
1.40599
11
2.38375
21
1.40599
0
LINE
8
BLACK
6
CONTINUOUS
10
2.38375
20
1.40599
11
2.38274
21
1.40617
0
LINE
8
BLACK
6
CONTINUOUS
10
2.38274
20
1.40617
11
2.3826
21
1.40628
0
LINE
8
BLACK
6
CONTINUOUS
10
2.3826
20
1.40628
11
2.38243
21
1.4063
0
LINE
8
BLACK
6
CONTINUOUS
10
2.38243
20
1.4063
11
2.37868
21
1.40818
0
LINE
8
BLACK
6
CONTINUOUS
10
2.37868
20
1.40818
11
2.37797
21
1.4087
0
LINE
8
BLACK
6
CONTINUOUS
10
2.37797
20
1.4087
11
2.37791
21
1.40873
0
LINE
8
BLACK
6
CONTINUOUS
10
2.37791
20
1.40873
11
2.37603
21
1.41061
0
LINE
8
BLACK
6
CONTINUOUS
10
2.37603
20
1.41061
11
2.37553
21
1.41133
0
LINE
8
BLACK
6
CONTINUOUS
10
2.37553
20
1.41133
11
2.37548
21
1.41137
0
LINE
8
BLACK
6
CONTINUOUS
10
2.37548
20
1.41137
11
2.37361
21
1.41512
0
LINE
8
BLACK
6
CONTINUOUS
10
2.37361
20
1.41512
11
2.37331
21
1.41611
0
LINE
8
BLACK
6
CONTINUOUS
10
2.37331
20
1.41611
11
2.37335
21
1.41628
0
LINE
8
BLACK
6
CONTINUOUS
10
2.37335
20
1.41628
11
2.37329
21
1.41644
0
LINE
8
BLACK
6
CONTINUOUS
10
2.37329
20
1.41644
11
2.37329
21
1.42769
0
LINE
8
BLACK
6
CONTINUOUS
10
2.37329
20
1.42769
11
2.37347
21
1.4287
0
LINE
8
BLACK
6
CONTINUOUS
10
2.37347
20
1.4287
11
2.37359
21
1.42884
0
LINE
8
BLACK
6
CONTINUOUS
10
2.37359
20
1.42884
11
2.37361
21
1.42901
0
LINE
8
BLACK
6
CONTINUOUS
10
2.37361
20
1.42901
11
2.37548
21
1.43276
0
LINE
8
BLACK
6
CONTINUOUS
10
2.37548
20
1.43276
11
2.37601
21
1.43347
0
LINE
8
BLACK
6
CONTINUOUS
10
2.37601
20
1.43347
11
2.37603
21
1.43353
0
LINE
8
BLACK
6
CONTINUOUS
10
2.37603
20
1.43353
11
2.37791
21
1.4354
0
LINE
8
BLACK
6
CONTINUOUS
10
2.37791
20
1.4354
11
2.37863
21
1.43591
0
LINE
8
BLACK
6
CONTINUOUS
10
2.37863
20
1.43591
11
2.37868
21
1.43596
0
LINE
8
BLACK
6
CONTINUOUS
10
2.37868
20
1.43596
11
2.38243
21
1.43783
0
LINE
8
BLACK
6
CONTINUOUS
10
2.38243
20
1.43783
11
2.38341
21
1.43812
0
LINE
8
BLACK
6
CONTINUOUS
10
2.38341
20
1.43812
11
2.38358
21
1.43808
0
LINE
8
BLACK
6
CONTINUOUS
10
2.38358
20
1.43808
11
2.38375
21
1.43814
0
LINE
8
BLACK
6
CONTINUOUS
10
2.38375
20
1.43814
11
2.38937
21
1.43814
0
LINE
8
BLACK
6
CONTINUOUS
10
2.38937
20
1.43814
11
2.39038
21
1.43797
0
LINE
8
BLACK
6
CONTINUOUS
10
2.38175
20
1.43089
11
2.38055
21
1.42969
0
LINE
8
BLACK
6
CONTINUOUS
10
2.38055
20
1.42969
11
2.3792
21
1.42699
0
LINE
8
BLACK
6
CONTINUOUS
10
2.3792
20
1.42699
11
2.3792
21
1.41714
0
LINE
8
BLACK
6
CONTINUOUS
10
2.3792
20
1.41714
11
2.38055
21
1.41444
0
LINE
8
BLACK
6
CONTINUOUS
10
2.38055
20
1.41444
11
2.38175
21
1.41325
0
LINE
8
BLACK
6
CONTINUOUS
10
2.38175
20
1.41325
11
2.38444
21
1.4119
0
LINE
8
BLACK
6
CONTINUOUS
10
2.38444
20
1.4119
11
2.38867
21
1.4119
0
LINE
8
BLACK
6
CONTINUOUS
10
2.38867
20
1.4119
11
2.39137
21
1.41325
0
LINE
8
BLACK
6
CONTINUOUS
10
2.39137
20
1.41325
11
2.39257
21
1.41444
0
LINE
8
BLACK
6
CONTINUOUS
10
2.39257
20
1.41444
11
2.39392
21
1.41714
0
LINE
8
BLACK
6
CONTINUOUS
10
2.39392
20
1.41714
11
2.39392
21
1.42699
0
LINE
8
BLACK
6
CONTINUOUS
10
2.39392
20
1.42699
11
2.39257
21
1.42969
0
LINE
8
BLACK
6
CONTINUOUS
10
2.39257
20
1.42969
11
2.39137
21
1.43089
0
LINE
8
BLACK
6
CONTINUOUS
10
2.39137
20
1.43089
11
2.38867
21
1.43224
0
LINE
8
BLACK
6
CONTINUOUS
10
2.38867
20
1.43224
11
2.38444
21
1.43224
0
LINE
8
BLACK
6
CONTINUOUS
10
2.38444
20
1.43224
11
2.38175
21
1.43089
0
LINE
8
BLACK
6
CONTINUOUS
10
2.426
20
1.43797
11
2.42614
21
1.43785
0
LINE
8
BLACK
6
CONTINUOUS
10
2.42614
20
1.43785
11
2.42631
21
1.43783
0
LINE
8
BLACK
6
CONTINUOUS
10
2.42631
20
1.43783
11
2.43006
21
1.43596
0
LINE
8
BLACK
6
CONTINUOUS
10
2.43006
20
1.43596
11
2.43088
21
1.43535
0
LINE
8
BLACK
6
CONTINUOUS
10
2.43088
20
1.43535
11
2.43106
21
1.43494
0
LINE
8
BLACK
6
CONTINUOUS
10
2.43106
20
1.43494
11
2.43138
21
1.43464
0
LINE
8
BLACK
6
CONTINUOUS
10
2.43138
20
1.43464
11
2.43326
21
1.43089
0
LINE
8
BLACK
6
CONTINUOUS
10
2.43326
20
1.43089
11
2.43355
21
1.4299
0
LINE
8
BLACK
6
CONTINUOUS
10
2.43355
20
1.4299
11
2.43351
21
1.42973
0
LINE
8
BLACK
6
CONTINUOUS
10
2.43351
20
1.42973
11
2.43357
21
1.42957
0
LINE
8
BLACK
6
CONTINUOUS
10
2.43357
20
1.42957
11
2.43357
21
1.40894
0
LINE
8
BLACK
6
CONTINUOUS
10
2.43357
20
1.40894
11
2.43339
21
1.40793
0
LINE
8
BLACK
6
CONTINUOUS
10
2.43339
20
1.40793
11
2.43209
21
1.40639
0
LINE
8
BLACK
6
CONTINUOUS
10
2.43209
20
1.40639
11
2.4301
21
1.40604
0
LINE
8
BLACK
6
CONTINUOUS
10
2.4301
20
1.40604
11
2.42897
21
1.40669
0
LINE
8
BLACK
6
CONTINUOUS
10
2.42897
20
1.40669
11
2.42819
21
1.4063
0
LINE
8
BLACK
6
CONTINUOUS
10
2.42819
20
1.4063
11
2.4272
21
1.40601
0
LINE
8
BLACK
6
CONTINUOUS
10
2.4272
20
1.40601
11
2.42703
21
1.40605
0
LINE
8
BLACK
6
CONTINUOUS
10
2.42703
20
1.40605
11
2.42687
21
1.40599
0
LINE
8
BLACK
6
CONTINUOUS
10
2.42687
20
1.40599
11
2.41749
21
1.40599
0
LINE
8
BLACK
6
CONTINUOUS
10
2.41749
20
1.40599
11
2.41648
21
1.40617
0
LINE
8
BLACK
6
CONTINUOUS
10
2.41648
20
1.40617
11
2.41635
21
1.40628
0
LINE
8
BLACK
6
CONTINUOUS
10
2.41635
20
1.40628
11
2.41617
21
1.4063
0
LINE
8
BLACK
6
CONTINUOUS
10
2.41617
20
1.4063
11
2.41242
21
1.40818
0
LINE
8
BLACK
6
CONTINUOUS
10
2.41242
20
1.40818
11
2.4116
21
1.40879
0
LINE
8
BLACK
6
CONTINUOUS
10
2.4116
20
1.40879
11
2.41142
21
1.40919
0
LINE
8
BLACK
6
CONTINUOUS
10
2.41142
20
1.40919
11
2.4111
21
1.4095
0
LINE
8
BLACK
6
CONTINUOUS
10
2.4111
20
1.4095
11
2.40923
21
1.41325
0
LINE
8
BLACK
6
CONTINUOUS
10
2.40923
20
1.41325
11
2.40893
21
1.41423
0
LINE
8
BLACK
6
CONTINUOUS
10
2.40893
20
1.41423
11
2.40897
21
1.4144
0
LINE
8
BLACK
6
CONTINUOUS
10
2.40897
20
1.4144
11
2.40891
21
1.41457
0
LINE
8
BLACK
6
CONTINUOUS
10
2.40891
20
1.41457
11
2.40891
21
1.41832
0
LINE
8
BLACK
6
CONTINUOUS
10
2.40891
20
1.41832
11
2.40909
21
1.41933
0
LINE
8
BLACK
6
CONTINUOUS
10
2.40909
20
1.41933
11
2.40921
21
1.41946
0
LINE
8
BLACK
6
CONTINUOUS
10
2.40921
20
1.41946
11
2.40923
21
1.41964
0
LINE
8
BLACK
6
CONTINUOUS
10
2.40923
20
1.41964
11
2.4111
21
1.42339
0
LINE
8
BLACK
6
CONTINUOUS
10
2.4111
20
1.42339
11
2.41171
21
1.42421
0
LINE
8
BLACK
6
CONTINUOUS
10
2.41171
20
1.42421
11
2.41212
21
1.42439
0
LINE
8
BLACK
6
CONTINUOUS
10
2.41212
20
1.42439
11
2.41242
21
1.42471
0
LINE
8
BLACK
6
CONTINUOUS
10
2.41242
20
1.42471
11
2.41617
21
1.42658
0
LINE
8
BLACK
6
CONTINUOUS
10
2.41617
20
1.42658
11
2.41715
21
1.42688
0
LINE
8
BLACK
6
CONTINUOUS
10
2.41715
20
1.42688
11
2.41733
21
1.42683
0
LINE
8
BLACK
6
CONTINUOUS
10
2.41733
20
1.42683
11
2.41749
21
1.4269
0
LINE
8
BLACK
6
CONTINUOUS
10
2.41749
20
1.4269
11
2.42617
21
1.4269
0
LINE
8
BLACK
6
CONTINUOUS
10
2.42617
20
1.4269
11
2.42766
21
1.42764
0
LINE
8
BLACK
6
CONTINUOUS
10
2.42766
20
1.42764
11
2.42766
21
1.42887
0
LINE
8
BLACK
6
CONTINUOUS
10
2.42766
20
1.42887
11
2.42654
21
1.43112
0
LINE
8
BLACK
6
CONTINUOUS
10
2.42654
20
1.43112
11
2.42429
21
1.43224
0
LINE
8
BLACK
6
CONTINUOUS
10
2.42429
20
1.43224
11
2.41819
21
1.43224
0
LINE
8
BLACK
6
CONTINUOUS
10
2.41819
20
1.43224
11
2.41506
21
1.43068
0
LINE
8
BLACK
6
CONTINUOUS
10
2.41506
20
1.43068
11
2.41408
21
1.43038
0
LINE
8
BLACK
6
CONTINUOUS
10
2.41408
20
1.43038
11
2.41212
21
1.43085
0
LINE
8
BLACK
6
CONTINUOUS
10
2.41212
20
1.43085
11
2.41091
21
1.43247
0
LINE
8
BLACK
6
CONTINUOUS
10
2.41091
20
1.43247
11
2.41103
21
1.43449
0
LINE
8
BLACK
6
CONTINUOUS
10
2.41103
20
1.43449
11
2.41242
21
1.43596
0
LINE
8
BLACK
6
CONTINUOUS
10
2.41242
20
1.43596
11
2.41617
21
1.43783
0
LINE
8
BLACK
6
CONTINUOUS
10
2.41617
20
1.43783
11
2.41715
21
1.43812
0
LINE
8
BLACK
6
CONTINUOUS
10
2.41715
20
1.43812
11
2.41733
21
1.43808
0
LINE
8
BLACK
6
CONTINUOUS
10
2.41733
20
1.43808
11
2.41749
21
1.43814
0
LINE
8
BLACK
6
CONTINUOUS
10
2.41749
20
1.43814
11
2.42499
21
1.43814
0
LINE
8
BLACK
6
CONTINUOUS
10
2.42499
20
1.43814
11
2.426
21
1.43797
0
LINE
8
BLACK
6
CONTINUOUS
10
2.4272
20
1.42101
11
2.42703
21
1.42105
0
LINE
8
BLACK
6
CONTINUOUS
10
2.42703
20
1.42105
11
2.42687
21
1.42099
0
LINE
8
BLACK
6
CONTINUOUS
10
2.42687
20
1.42099
11
2.41819
21
1.42099
0
LINE
8
BLACK
6
CONTINUOUS
10
2.41819
20
1.42099
11
2.41594
21
1.41987
0
LINE
8
BLACK
6
CONTINUOUS
10
2.41594
20
1.41987
11
2.41482
21
1.41762
0
LINE
8
BLACK
6
CONTINUOUS
10
2.41482
20
1.41762
11
2.41482
21
1.41527
0
LINE
8
BLACK
6
CONTINUOUS
10
2.41482
20
1.41527
11
2.41594
21
1.41302
0
LINE
8
BLACK
6
CONTINUOUS
10
2.41594
20
1.41302
11
2.41819
21
1.4119
0
LINE
8
BLACK
6
CONTINUOUS
10
2.41819
20
1.4119
11
2.42617
21
1.4119
0
LINE
8
BLACK
6
CONTINUOUS
10
2.42617
20
1.4119
11
2.42766
21
1.41264
0
LINE
8
BLACK
6
CONTINUOUS
10
2.42766
20
1.41264
11
2.42766
21
1.42115
0
LINE
8
BLACK
6
CONTINUOUS
10
2.42766
20
1.42115
11
2.4272
21
1.42101
0
LINE
8
BLACK
6
CONTINUOUS
10
2.51224
20
1.43797
11
2.51238
21
1.43785
0
LINE
8
BLACK
6
CONTINUOUS
10
2.51238
20
1.43785
11
2.51255
21
1.43783
0
LINE
8
BLACK
6
CONTINUOUS
10
2.51255
20
1.43783
11
2.5163
21
1.43596
0
LINE
8
BLACK
6
CONTINUOUS
10
2.5163
20
1.43596
11
2.51712
21
1.43535
0
LINE
8
BLACK
6
CONTINUOUS
10
2.51712
20
1.43535
11
2.5173
21
1.43494
0
LINE
8
BLACK
6
CONTINUOUS
10
2.5173
20
1.43494
11
2.51762
21
1.43464
0
LINE
8
BLACK
6
CONTINUOUS
10
2.51762
20
1.43464
11
2.5195
21
1.43089
0
LINE
8
BLACK
6
CONTINUOUS
10
2.5195
20
1.43089
11
2.51979
21
1.4299
0
LINE
8
BLACK
6
CONTINUOUS
10
2.51979
20
1.4299
11
2.51975
21
1.42973
0
LINE
8
BLACK
6
CONTINUOUS
10
2.51975
20
1.42973
11
2.51981
21
1.42957
0
LINE
8
BLACK
6
CONTINUOUS
10
2.51981
20
1.42957
11
2.51981
21
1.40894
0
LINE
8
BLACK
6
CONTINUOUS
10
2.51981
20
1.40894
11
2.51963
21
1.40793
0
LINE
8
BLACK
6
CONTINUOUS
10
2.51963
20
1.40793
11
2.51833
21
1.40639
0
LINE
8
BLACK
6
CONTINUOUS
10
2.51833
20
1.40639
11
2.51634
21
1.40604
0
LINE
8
BLACK
6
CONTINUOUS
10
2.51634
20
1.40604
11
2.5152
21
1.40669
0
LINE
8
BLACK
6
CONTINUOUS
10
2.5152
20
1.40669
11
2.51443
21
1.4063
0
LINE
8
BLACK
6
CONTINUOUS
10
2.51443
20
1.4063
11
2.51344
21
1.40601
0
LINE
8
BLACK
6
CONTINUOUS
10
2.51344
20
1.40601
11
2.51327
21
1.40605
0
LINE
8
BLACK
6
CONTINUOUS
10
2.51327
20
1.40605
11
2.5131
21
1.40599
0
LINE
8
BLACK
6
CONTINUOUS
10
2.5131
20
1.40599
11
2.50373
21
1.40599
0
LINE
8
BLACK
6
CONTINUOUS
10
2.50373
20
1.40599
11
2.50272
21
1.40617
0
LINE
8
BLACK
6
CONTINUOUS
10
2.50272
20
1.40617
11
2.50259
21
1.40628
0
LINE
8
BLACK
6
CONTINUOUS
10
2.50259
20
1.40628
11
2.50241
21
1.4063
0
LINE
8
BLACK
6
CONTINUOUS
10
2.50241
20
1.4063
11
2.49866
21
1.40818
0
LINE
8
BLACK
6
CONTINUOUS
10
2.49866
20
1.40818
11
2.49784
21
1.40879
0
LINE
8
BLACK
6
CONTINUOUS
10
2.49784
20
1.40879
11
2.49766
21
1.40919
0
LINE
8
BLACK
6
CONTINUOUS
10
2.49766
20
1.40919
11
2.49734
21
1.4095
0
LINE
8
BLACK
6
CONTINUOUS
10
2.49734
20
1.4095
11
2.49547
21
1.41325
0
LINE
8
BLACK
6
CONTINUOUS
10
2.49547
20
1.41325
11
2.49517
21
1.41423
0
LINE
8
BLACK
6
CONTINUOUS
10
2.49517
20
1.41423
11
2.49521
21
1.4144
0
LINE
8
BLACK
6
CONTINUOUS
10
2.49521
20
1.4144
11
2.49515
21
1.41457
0
LINE
8
BLACK
6
CONTINUOUS
10
2.49515
20
1.41457
11
2.49515
21
1.41832
0
LINE
8
BLACK
6
CONTINUOUS
10
2.49515
20
1.41832
11
2.49533
21
1.41933
0
LINE
8
BLACK
6
CONTINUOUS
10
2.49533
20
1.41933
11
2.49545
21
1.41946
0
LINE
8
BLACK
6
CONTINUOUS
10
2.49545
20
1.41946
11
2.49547
21
1.41964
0
LINE
8
BLACK
6
CONTINUOUS
10
2.49547
20
1.41964
11
2.49734
21
1.42339
0
LINE
8
BLACK
6
CONTINUOUS
10
2.49734
20
1.42339
11
2.49795
21
1.42421
0
LINE
8
BLACK
6
CONTINUOUS
10
2.49795
20
1.42421
11
2.49836
21
1.42439
0
LINE
8
BLACK
6
CONTINUOUS
10
2.49836
20
1.42439
11
2.49866
21
1.42471
0
LINE
8
BLACK
6
CONTINUOUS
10
2.49866
20
1.42471
11
2.50241
21
1.42658
0
LINE
8
BLACK
6
CONTINUOUS
10
2.50241
20
1.42658
11
2.50339
21
1.42688
0
LINE
8
BLACK
6
CONTINUOUS
10
2.50339
20
1.42688
11
2.50356
21
1.42683
0
LINE
8
BLACK
6
CONTINUOUS
10
2.50356
20
1.42683
11
2.50373
21
1.4269
0
LINE
8
BLACK
6
CONTINUOUS
10
2.50373
20
1.4269
11
2.51241
21
1.4269
0
LINE
8
BLACK
6
CONTINUOUS
10
2.51241
20
1.4269
11
2.5139
21
1.42764
0
LINE
8
BLACK
6
CONTINUOUS
10
2.5139
20
1.42764
11
2.5139
21
1.42887
0
LINE
8
BLACK
6
CONTINUOUS
10
2.5139
20
1.42887
11
2.51278
21
1.43112
0
LINE
8
BLACK
6
CONTINUOUS
10
2.51278
20
1.43112
11
2.51053
21
1.43224
0
LINE
8
BLACK
6
CONTINUOUS
10
2.51053
20
1.43224
11
2.50443
21
1.43224
0
LINE
8
BLACK
6
CONTINUOUS
10
2.50443
20
1.43224
11
2.5013
21
1.43068
0
LINE
8
BLACK
6
CONTINUOUS
10
2.5013
20
1.43068
11
2.50032
21
1.43038
0
LINE
8
BLACK
6
CONTINUOUS
10
2.50032
20
1.43038
11
2.49835
21
1.43085
0
LINE
8
BLACK
6
CONTINUOUS
10
2.49835
20
1.43085
11
2.49715
21
1.43247
0
LINE
8
BLACK
6
CONTINUOUS
10
2.49715
20
1.43247
11
2.49727
21
1.43449
0
LINE
8
BLACK
6
CONTINUOUS
10
2.49727
20
1.43449
11
2.49866
21
1.43596
0
LINE
8
BLACK
6
CONTINUOUS
10
2.49866
20
1.43596
11
2.50241
21
1.43783
0
LINE
8
BLACK
6
CONTINUOUS
10
2.50241
20
1.43783
11
2.50339
21
1.43812
0
LINE
8
BLACK
6
CONTINUOUS
10
2.50339
20
1.43812
11
2.50356
21
1.43808
0
LINE
8
BLACK
6
CONTINUOUS
10
2.50356
20
1.43808
11
2.50373
21
1.43814
0
LINE
8
BLACK
6
CONTINUOUS
10
2.50373
20
1.43814
11
2.51123
21
1.43814
0
LINE
8
BLACK
6
CONTINUOUS
10
2.51123
20
1.43814
11
2.51224
21
1.43797
0
LINE
8
BLACK
6
CONTINUOUS
10
2.51344
20
1.42101
11
2.51327
21
1.42105
0
LINE
8
BLACK
6
CONTINUOUS
10
2.51327
20
1.42105
11
2.5131
21
1.42099
0
LINE
8
BLACK
6
CONTINUOUS
10
2.5131
20
1.42099
11
2.50443
21
1.42099
0
LINE
8
BLACK
6
CONTINUOUS
10
2.50443
20
1.42099
11
2.50218
21
1.41987
0
LINE
8
BLACK
6
CONTINUOUS
10
2.50218
20
1.41987
11
2.50106
21
1.41762
0
LINE
8
BLACK
6
CONTINUOUS
10
2.50106
20
1.41762
11
2.50106
21
1.41527
0
LINE
8
BLACK
6
CONTINUOUS
10
2.50106
20
1.41527
11
2.50218
21
1.41302
0
LINE
8
BLACK
6
CONTINUOUS
10
2.50218
20
1.41302
11
2.50443
21
1.4119
0
LINE
8
BLACK
6
CONTINUOUS
10
2.50443
20
1.4119
11
2.51241
21
1.4119
0
LINE
8
BLACK
6
CONTINUOUS
10
2.51241
20
1.4119
11
2.5139
21
1.41264
0
LINE
8
BLACK
6
CONTINUOUS
10
2.5139
20
1.41264
11
2.5139
21
1.42115
0
LINE
8
BLACK
6
CONTINUOUS
10
2.5139
20
1.42115
11
2.51344
21
1.42101
0
LINE
8
BLACK
6
CONTINUOUS
10
2.46844
20
1.43716
11
2.46919
21
1.43529
0
LINE
8
BLACK
6
CONTINUOUS
10
2.46919
20
1.43529
11
2.46856
21
1.43337
0
LINE
8
BLACK
6
CONTINUOUS
10
2.46856
20
1.43337
11
2.45968
21
1.42207
0
LINE
8
BLACK
6
CONTINUOUS
10
2.45968
20
1.42207
11
2.46856
21
1.41077
0
LINE
8
BLACK
6
CONTINUOUS
10
2.46856
20
1.41077
11
2.46904
21
1.40986
0
LINE
8
BLACK
6
CONTINUOUS
10
2.46904
20
1.40986
11
2.46898
21
1.40785
0
LINE
8
BLACK
6
CONTINUOUS
10
2.46898
20
1.40785
11
2.46763
21
1.40634
0
LINE
8
BLACK
6
CONTINUOUS
10
2.46763
20
1.40634
11
2.46563
21
1.40605
0
LINE
8
BLACK
6
CONTINUOUS
10
2.46563
20
1.40605
11
2.46391
21
1.40712
0
LINE
8
BLACK
6
CONTINUOUS
10
2.46391
20
1.40712
11
2.45592
21
1.41729
0
LINE
8
BLACK
6
CONTINUOUS
10
2.45592
20
1.41729
11
2.44793
21
1.40712
0
LINE
8
BLACK
6
CONTINUOUS
10
2.44793
20
1.40712
11
2.44717
21
1.40644
0
LINE
8
BLACK
6
CONTINUOUS
10
2.44717
20
1.40644
11
2.44519
21
1.40602
0
LINE
8
BLACK
6
CONTINUOUS
10
2.44519
20
1.40602
11
2.44341
21
1.40697
0
LINE
8
BLACK
6
CONTINUOUS
10
2.44341
20
1.40697
11
2.44266
21
1.40885
0
LINE
8
BLACK
6
CONTINUOUS
10
2.44266
20
1.40885
11
2.44329
21
1.41077
0
LINE
8
BLACK
6
CONTINUOUS
10
2.44329
20
1.41077
11
2.45217
21
1.42207
0
LINE
8
BLACK
6
CONTINUOUS
10
2.45217
20
1.42207
11
2.44329
21
1.43337
0
LINE
8
BLACK
6
CONTINUOUS
10
2.44329
20
1.43337
11
2.44281
21
1.43427
0
LINE
8
BLACK
6
CONTINUOUS
10
2.44281
20
1.43427
11
2.44287
21
1.43629
0
LINE
8
BLACK
6
CONTINUOUS
10
2.44287
20
1.43629
11
2.44422
21
1.43779
0
LINE
8
BLACK
6
CONTINUOUS
10
2.44422
20
1.43779
11
2.44622
21
1.43808
0
LINE
8
BLACK
6
CONTINUOUS
10
2.44622
20
1.43808
11
2.44793
21
1.43702
0
LINE
8
BLACK
6
CONTINUOUS
10
2.44793
20
1.43702
11
2.45592
21
1.42685
0
LINE
8
BLACK
6
CONTINUOUS
10
2.45592
20
1.42685
11
2.46391
21
1.43702
0
LINE
8
BLACK
6
CONTINUOUS
10
2.46391
20
1.43702
11
2.46468
21
1.4377
0
LINE
8
BLACK
6
CONTINUOUS
10
2.46468
20
1.4377
11
2.46665
21
1.43811
0
LINE
8
BLACK
6
CONTINUOUS
10
2.46665
20
1.43811
11
2.46844
21
1.43716
0
LINE
8
BLACK
6
CONTINUOUS
10
2.24977
20
1.43797
11
2.24991
21
1.43785
0
LINE
8
BLACK
6
CONTINUOUS
10
2.24991
20
1.43785
11
2.25008
21
1.43783
0
LINE
8
BLACK
6
CONTINUOUS
10
2.25008
20
1.43783
11
2.25383
21
1.43596
0
LINE
8
BLACK
6
CONTINUOUS
10
2.25383
20
1.43596
11
2.25466
21
1.43535
0
LINE
8
BLACK
6
CONTINUOUS
10
2.25466
20
1.43535
11
2.25483
21
1.43494
0
LINE
8
BLACK
6
CONTINUOUS
10
2.25483
20
1.43494
11
2.25515
21
1.43464
0
LINE
8
BLACK
6
CONTINUOUS
10
2.25515
20
1.43464
11
2.25703
21
1.43089
0
LINE
8
BLACK
6
CONTINUOUS
10
2.25703
20
1.43089
11
2.25732
21
1.4299
0
LINE
8
BLACK
6
CONTINUOUS
10
2.25732
20
1.4299
11
2.25728
21
1.42973
0
LINE
8
BLACK
6
CONTINUOUS
10
2.25728
20
1.42973
11
2.25734
21
1.42957
0
LINE
8
BLACK
6
CONTINUOUS
10
2.25734
20
1.42957
11
2.25734
21
1.40894
0
LINE
8
BLACK
6
CONTINUOUS
10
2.25734
20
1.40894
11
2.25716
21
1.40793
0
LINE
8
BLACK
6
CONTINUOUS
10
2.25716
20
1.40793
11
2.25586
21
1.40639
0
LINE
8
BLACK
6
CONTINUOUS
10
2.25586
20
1.40639
11
2.25387
21
1.40604
0
LINE
8
BLACK
6
CONTINUOUS
10
2.25387
20
1.40604
11
2.25212
21
1.40705
0
LINE
8
BLACK
6
CONTINUOUS
10
2.25212
20
1.40705
11
2.25143
21
1.40894
0
LINE
8
BLACK
6
CONTINUOUS
10
2.25143
20
1.40894
11
2.25143
21
1.42887
0
LINE
8
BLACK
6
CONTINUOUS
10
2.25143
20
1.42887
11
2.25031
21
1.43112
0
LINE
8
BLACK
6
CONTINUOUS
10
2.25031
20
1.43112
11
2.24807
21
1.43224
0
LINE
8
BLACK
6
CONTINUOUS
10
2.24807
20
1.43224
11
2.24384
21
1.43224
0
LINE
8
BLACK
6
CONTINUOUS
10
2.24384
20
1.43224
11
2.24114
21
1.43089
0
LINE
8
BLACK
6
CONTINUOUS
10
2.24114
20
1.43089
11
2.24047
21
1.43022
0
LINE
8
BLACK
6
CONTINUOUS
10
2.24047
20
1.43022
11
2.24047
21
1.40894
0
LINE
8
BLACK
6
CONTINUOUS
10
2.24047
20
1.40894
11
2.24029
21
1.40793
0
LINE
8
BLACK
6
CONTINUOUS
10
2.24029
20
1.40793
11
2.23899
21
1.40639
0
LINE
8
BLACK
6
CONTINUOUS
10
2.23899
20
1.40639
11
2.237
21
1.40604
0
LINE
8
BLACK
6
CONTINUOUS
10
2.237
20
1.40604
11
2.23525
21
1.40705
0
LINE
8
BLACK
6
CONTINUOUS
10
2.23525
20
1.40705
11
2.23456
21
1.40894
0
LINE
8
BLACK
6
CONTINUOUS
10
2.23456
20
1.40894
11
2.23456
21
1.43519
0
LINE
8
BLACK
6
CONTINUOUS
10
2.23456
20
1.43519
11
2.23474
21
1.4362
0
LINE
8
BLACK
6
CONTINUOUS
10
2.23474
20
1.4362
11
2.23604
21
1.43775
0
LINE
8
BLACK
6
CONTINUOUS
10
2.23604
20
1.43775
11
2.23803
21
1.4381
0
LINE
8
BLACK
6
CONTINUOUS
10
2.23803
20
1.4381
11
2.23978
21
1.43709
0
LINE
8
BLACK
6
CONTINUOUS
10
2.23978
20
1.43709
11
2.23986
21
1.43685
0
LINE
8
BLACK
6
CONTINUOUS
10
2.23986
20
1.43685
11
2.24182
21
1.43783
0
LINE
8
BLACK
6
CONTINUOUS
10
2.24182
20
1.43783
11
2.2428
21
1.43812
0
LINE
8
BLACK
6
CONTINUOUS
10
2.2428
20
1.43812
11
2.24297
21
1.43808
0
LINE
8
BLACK
6
CONTINUOUS
10
2.24297
20
1.43808
11
2.24314
21
1.43814
0
LINE
8
BLACK
6
CONTINUOUS
10
2.24314
20
1.43814
11
2.24876
21
1.43814
0
LINE
8
BLACK
6
CONTINUOUS
10
2.24876
20
1.43814
11
2.24977
21
1.43797
0
LINE
8
BLACK
6
CONTINUOUS
10
2.28539
20
1.43797
11
2.28553
21
1.43785
0
LINE
8
BLACK
6
CONTINUOUS
10
2.28553
20
1.43785
11
2.2857
21
1.43783
0
LINE
8
BLACK
6
CONTINUOUS
10
2.2857
20
1.43783
11
2.28945
21
1.43596
0
LINE
8
BLACK
6
CONTINUOUS
10
2.28945
20
1.43596
11
2.29028
21
1.43535
0
LINE
8
BLACK
6
CONTINUOUS
10
2.29028
20
1.43535
11
2.29045
21
1.43494
0
LINE
8
BLACK
6
CONTINUOUS
10
2.29045
20
1.43494
11
2.29077
21
1.43464
0
LINE
8
BLACK
6
CONTINUOUS
10
2.29077
20
1.43464
11
2.29265
21
1.43089
0
LINE
8
BLACK
6
CONTINUOUS
10
2.29265
20
1.43089
11
2.29294
21
1.4299
0
LINE
8
BLACK
6
CONTINUOUS
10
2.29294
20
1.4299
11
2.2929
21
1.42973
0
LINE
8
BLACK
6
CONTINUOUS
10
2.2929
20
1.42973
11
2.29296
21
1.42957
0
LINE
8
BLACK
6
CONTINUOUS
10
2.29296
20
1.42957
11
2.29296
21
1.40894
0
LINE
8
BLACK
6
CONTINUOUS
10
2.29296
20
1.40894
11
2.29278
21
1.40793
0
LINE
8
BLACK
6
CONTINUOUS
10
2.29278
20
1.40793
11
2.29148
21
1.40639
0
LINE
8
BLACK
6
CONTINUOUS
10
2.29148
20
1.40639
11
2.28949
21
1.40604
0
LINE
8
BLACK
6
CONTINUOUS
10
2.28949
20
1.40604
11
2.28775
21
1.40705
0
LINE
8
BLACK
6
CONTINUOUS
10
2.28775
20
1.40705
11
2.28705
21
1.40894
0
LINE
8
BLACK
6
CONTINUOUS
10
2.28705
20
1.40894
11
2.28705
21
1.42887
0
LINE
8
BLACK
6
CONTINUOUS
10
2.28705
20
1.42887
11
2.28593
21
1.43112
0
LINE
8
BLACK
6
CONTINUOUS
10
2.28593
20
1.43112
11
2.28369
21
1.43224
0
LINE
8
BLACK
6
CONTINUOUS
10
2.28369
20
1.43224
11
2.27946
21
1.43224
0
LINE
8
BLACK
6
CONTINUOUS
10
2.27946
20
1.43224
11
2.27676
21
1.43089
0
LINE
8
BLACK
6
CONTINUOUS
10
2.27676
20
1.43089
11
2.27609
21
1.43022
0
LINE
8
BLACK
6
CONTINUOUS
10
2.27609
20
1.43022
11
2.27609
21
1.40894
0
LINE
8
BLACK
6
CONTINUOUS
10
2.27609
20
1.40894
11
2.27591
21
1.40793
0
LINE
8
BLACK
6
CONTINUOUS
10
2.27591
20
1.40793
11
2.27461
21
1.40639
0
LINE
8
BLACK
6
CONTINUOUS
10
2.27461
20
1.40639
11
2.27262
21
1.40604
0
LINE
8
BLACK
6
CONTINUOUS
10
2.27262
20
1.40604
11
2.27087
21
1.40705
0
LINE
8
BLACK
6
CONTINUOUS
10
2.27087
20
1.40705
11
2.27018
21
1.40894
0
LINE
8
BLACK
6
CONTINUOUS
10
2.27018
20
1.40894
11
2.27018
21
1.43519
0
LINE
8
BLACK
6
CONTINUOUS
10
2.27018
20
1.43519
11
2.27036
21
1.4362
0
LINE
8
BLACK
6
CONTINUOUS
10
2.27036
20
1.4362
11
2.27166
21
1.43775
0
LINE
8
BLACK
6
CONTINUOUS
10
2.27166
20
1.43775
11
2.27365
21
1.4381
0
LINE
8
BLACK
6
CONTINUOUS
10
2.27365
20
1.4381
11
2.2754
21
1.43709
0
LINE
8
BLACK
6
CONTINUOUS
10
2.2754
20
1.43709
11
2.27548
21
1.43685
0
LINE
8
BLACK
6
CONTINUOUS
10
2.27548
20
1.43685
11
2.27744
21
1.43783
0
LINE
8
BLACK
6
CONTINUOUS
10
2.27744
20
1.43783
11
2.27842
21
1.43812
0
LINE
8
BLACK
6
CONTINUOUS
10
2.27842
20
1.43812
11
2.27859
21
1.43808
0
LINE
8
BLACK
6
CONTINUOUS
10
2.27859
20
1.43808
11
2.27876
21
1.43814
0
LINE
8
BLACK
6
CONTINUOUS
10
2.27876
20
1.43814
11
2.28438
21
1.43814
0
LINE
8
BLACK
6
CONTINUOUS
10
2.28438
20
1.43814
11
2.28539
21
1.43797
0
LINE
8
BLACK
6
CONTINUOUS
10
2.4835
20
1.43709
11
2.48419
21
1.43519
0
LINE
8
BLACK
6
CONTINUOUS
10
2.48419
20
1.43519
11
2.48419
21
1.40894
0
LINE
8
BLACK
6
CONTINUOUS
10
2.48419
20
1.40894
11
2.48401
21
1.40793
0
LINE
8
BLACK
6
CONTINUOUS
10
2.48401
20
1.40793
11
2.48271
21
1.40639
0
LINE
8
BLACK
6
CONTINUOUS
10
2.48271
20
1.40639
11
2.48072
21
1.40604
0
LINE
8
BLACK
6
CONTINUOUS
10
2.48072
20
1.40604
11
2.47897
21
1.40705
0
LINE
8
BLACK
6
CONTINUOUS
10
2.47897
20
1.40705
11
2.47828
21
1.40894
0
LINE
8
BLACK
6
CONTINUOUS
10
2.47828
20
1.40894
11
2.47828
21
1.43519
0
LINE
8
BLACK
6
CONTINUOUS
10
2.47828
20
1.43519
11
2.47846
21
1.4362
0
LINE
8
BLACK
6
CONTINUOUS
10
2.47846
20
1.4362
11
2.47976
21
1.43775
0
LINE
8
BLACK
6
CONTINUOUS
10
2.47976
20
1.43775
11
2.48175
21
1.4381
0
LINE
8
BLACK
6
CONTINUOUS
10
2.48175
20
1.4381
11
2.4835
21
1.43709
0
LINE
8
BLACK
6
CONTINUOUS
10
2.53786
20
1.45021
11
2.53855
21
1.44831
0
LINE
8
BLACK
6
CONTINUOUS
10
2.53855
20
1.44831
11
2.53855
21
1.41527
0
LINE
8
BLACK
6
CONTINUOUS
10
2.53855
20
1.41527
11
2.53968
21
1.41302
0
LINE
8
BLACK
6
CONTINUOUS
10
2.53968
20
1.41302
11
2.54255
21
1.41159
0
LINE
8
BLACK
6
CONTINUOUS
10
2.54255
20
1.41159
11
2.54337
21
1.41097
0
LINE
8
BLACK
6
CONTINUOUS
10
2.54337
20
1.41097
11
2.54417
21
1.40912
0
LINE
8
BLACK
6
CONTINUOUS
10
2.54417
20
1.40912
11
2.5436
21
1.40719
0
LINE
8
BLACK
6
CONTINUOUS
10
2.5436
20
1.40719
11
2.54191
21
1.40607
0
LINE
8
BLACK
6
CONTINUOUS
10
2.54191
20
1.40607
11
2.53991
21
1.4063
0
LINE
8
BLACK
6
CONTINUOUS
10
2.53991
20
1.4063
11
2.53616
21
1.40818
0
LINE
8
BLACK
6
CONTINUOUS
10
2.53616
20
1.40818
11
2.53533
21
1.40879
0
LINE
8
BLACK
6
CONTINUOUS
10
2.53533
20
1.40879
11
2.53516
21
1.40919
0
LINE
8
BLACK
6
CONTINUOUS
10
2.53516
20
1.40919
11
2.53484
21
1.4095
0
LINE
8
BLACK
6
CONTINUOUS
10
2.53484
20
1.4095
11
2.53296
21
1.41325
0
LINE
8
BLACK
6
CONTINUOUS
10
2.53296
20
1.41325
11
2.53267
21
1.41423
0
LINE
8
BLACK
6
CONTINUOUS
10
2.53267
20
1.41423
11
2.53271
21
1.4144
0
LINE
8
BLACK
6
CONTINUOUS
10
2.53271
20
1.4144
11
2.53265
21
1.41457
0
LINE
8
BLACK
6
CONTINUOUS
10
2.53265
20
1.41457
11
2.53265
21
1.44831
0
LINE
8
BLACK
6
CONTINUOUS
10
2.53265
20
1.44831
11
2.53283
21
1.44932
0
LINE
8
BLACK
6
CONTINUOUS
10
2.53283
20
1.44932
11
2.53413
21
1.45087
0
LINE
8
BLACK
6
CONTINUOUS
10
2.53413
20
1.45087
11
2.53611
21
1.45122
0
LINE
8
BLACK
6
CONTINUOUS
10
2.53611
20
1.45122
11
2.53786
21
1.45021
0
LINE
8
BLACK
6
CONTINUOUS
10
2.48161
20
1.4512
11
2.48175
21
1.45122
0
LINE
8
BLACK
6
CONTINUOUS
10
2.48175
20
1.45122
11
2.48186
21
1.45115
0
LINE
8
BLACK
6
CONTINUOUS
10
2.48186
20
1.45115
11
2.482
21
1.45117
0
LINE
8
BLACK
6
CONTINUOUS
10
2.482
20
1.45117
11
2.48263
21
1.45073
0
LINE
8
BLACK
6
CONTINUOUS
10
2.48263
20
1.45073
11
2.48332
21
1.4504
0
LINE
8
BLACK
6
CONTINUOUS
10
2.48332
20
1.4504
11
2.4852
21
1.44853
0
LINE
8
BLACK
6
CONTINUOUS
10
2.4852
20
1.44853
11
2.48542
21
1.44821
0
LINE
8
BLACK
6
CONTINUOUS
10
2.48542
20
1.44821
11
2.48553
21
1.44813
0
LINE
8
BLACK
6
CONTINUOUS
10
2.48553
20
1.44813
11
2.48556
21
1.44801
0
LINE
8
BLACK
6
CONTINUOUS
10
2.48556
20
1.44801
11
2.48578
21
1.44769
0
LINE
8
BLACK
6
CONTINUOUS
10
2.48578
20
1.44769
11
2.48585
21
1.44692
0
LINE
8
BLACK
6
CONTINUOUS
10
2.48585
20
1.44692
11
2.48605
21
1.44618
0
LINE
8
BLACK
6
CONTINUOUS
10
2.48605
20
1.44618
11
2.48594
21
1.44594
0
LINE
8
BLACK
6
CONTINUOUS
10
2.48594
20
1.44594
11
2.48596
21
1.44568
0
LINE
8
BLACK
6
CONTINUOUS
10
2.48596
20
1.44568
11
2.48552
21
1.44505
0
LINE
8
BLACK
6
CONTINUOUS
10
2.48552
20
1.44505
11
2.4852
21
1.44435
0
LINE
8
BLACK
6
CONTINUOUS
10
2.4852
20
1.44435
11
2.48332
21
1.44248
0
LINE
8
BLACK
6
CONTINUOUS
10
2.48332
20
1.44248
11
2.483
21
1.44225
0
LINE
8
BLACK
6
CONTINUOUS
10
2.483
20
1.44225
11
2.48293
21
1.44215
0
LINE
8
BLACK
6
CONTINUOUS
10
2.48293
20
1.44215
11
2.4828
21
1.44211
0
LINE
8
BLACK
6
CONTINUOUS
10
2.4828
20
1.44211
11
2.48279
21
1.44211
0
LINE
8
BLACK
6
CONTINUOUS
10
2.48279
20
1.44211
11
2.48271
21
1.44201
0
LINE
8
BLACK
6
CONTINUOUS
10
2.48271
20
1.44201
11
2.48263
21
1.44199
0
LINE
8
BLACK
6
CONTINUOUS
10
2.48263
20
1.44199
11
2.48248
21
1.44189
0
LINE
8
BLACK
6
CONTINUOUS
10
2.48248
20
1.44189
11
2.48172
21
1.44182
0
LINE
8
BLACK
6
CONTINUOUS
10
2.48172
20
1.44182
11
2.48098
21
1.44162
0
LINE
8
BLACK
6
CONTINUOUS
10
2.48098
20
1.44162
11
2.48085
21
1.44168
0
LINE
8
BLACK
6
CONTINUOUS
10
2.48085
20
1.44168
11
2.48072
21
1.44166
0
LINE
8
BLACK
6
CONTINUOUS
10
2.48072
20
1.44166
11
2.4806
21
1.44172
0
LINE
8
BLACK
6
CONTINUOUS
10
2.4806
20
1.44172
11
2.48047
21
1.44171
0
LINE
8
BLACK
6
CONTINUOUS
10
2.48047
20
1.44171
11
2.47984
21
1.44215
0
LINE
8
BLACK
6
CONTINUOUS
10
2.47984
20
1.44215
11
2.47915
21
1.44248
0
LINE
8
BLACK
6
CONTINUOUS
10
2.47915
20
1.44248
11
2.47727
21
1.44435
0
LINE
8
BLACK
6
CONTINUOUS
10
2.47727
20
1.44435
11
2.47705
21
1.44467
0
LINE
8
BLACK
6
CONTINUOUS
10
2.47705
20
1.44467
11
2.47694
21
1.44475
0
LINE
8
BLACK
6
CONTINUOUS
10
2.47694
20
1.44475
11
2.47691
21
1.44487
0
LINE
8
BLACK
6
CONTINUOUS
10
2.47691
20
1.44487
11
2.47668
21
1.44519
0
LINE
8
BLACK
6
CONTINUOUS
10
2.47668
20
1.44519
11
2.47662
21
1.44596
0
LINE
8
BLACK
6
CONTINUOUS
10
2.47662
20
1.44596
11
2.47642
21
1.4467
0
LINE
8
BLACK
6
CONTINUOUS
10
2.47642
20
1.4467
11
2.47653
21
1.44694
0
LINE
8
BLACK
6
CONTINUOUS
10
2.47653
20
1.44694
11
2.47651
21
1.4472
0
LINE
8
BLACK
6
CONTINUOUS
10
2.47651
20
1.4472
11
2.47695
21
1.44783
0
LINE
8
BLACK
6
CONTINUOUS
10
2.47695
20
1.44783
11
2.47727
21
1.44853
0
LINE
8
BLACK
6
CONTINUOUS
10
2.47727
20
1.44853
11
2.47915
21
1.4504
0
LINE
8
BLACK
6
CONTINUOUS
10
2.47915
20
1.4504
11
2.47946
21
1.45063
0
LINE
8
BLACK
6
CONTINUOUS
10
2.47946
20
1.45063
11
2.47954
21
1.45073
0
LINE
8
BLACK
6
CONTINUOUS
10
2.47954
20
1.45073
11
2.47967
21
1.45077
0
LINE
8
BLACK
6
CONTINUOUS
10
2.47967
20
1.45077
11
2.47967
21
1.45077
0
LINE
8
BLACK
6
CONTINUOUS
10
2.47967
20
1.45077
11
2.47976
21
1.45087
0
LINE
8
BLACK
6
CONTINUOUS
10
2.47976
20
1.45087
11
2.47984
21
1.45089
0
LINE
8
BLACK
6
CONTINUOUS
10
2.47984
20
1.45089
11
2.47999
21
1.45099
0
LINE
8
BLACK
6
CONTINUOUS
10
2.47999
20
1.45099
11
2.48075
21
1.45106
0
LINE
8
BLACK
6
CONTINUOUS
10
2.48075
20
1.45106
11
2.48149
21
1.45126
0
LINE
8
BLACK
6
CONTINUOUS
10
2.48149
20
1.45126
11
2.48161
21
1.4512
0
LINE
8
BLACK
6
CONTINUOUS
10
0.414063
20
1.72481
11
0.427949
21
1.72245
0
LINE
8
BLACK
6
CONTINUOUS
10
0.427949
20
1.72245
11
0.441483
21
1.71855
0
LINE
8
BLACK
6
CONTINUOUS
10
0.441483
20
1.71855
11
0.454496
21
1.71316
0
LINE
8
BLACK
6
CONTINUOUS
10
0.454496
20
1.71316
11
0.466823
21
1.70635
0
LINE
8
BLACK
6
CONTINUOUS
10
0.466823
20
1.70635
11
0.47831
21
1.6982
0
LINE
8
BLACK
6
CONTINUOUS
10
0.47831
20
1.6982
11
0.488813
21
1.68881
0
LINE
8
BLACK
6
CONTINUOUS
10
0.488813
20
1.68881
11
0.498198
21
1.67831
0
LINE
8
BLACK
6
CONTINUOUS
10
0.498198
20
1.67831
11
0.506349
21
1.66682
0
LINE
8
BLACK
6
CONTINUOUS
10
0.506349
20
1.66682
11
0.513162
21
1.6545
0
LINE
8
BLACK
6
CONTINUOUS
10
0.513162
20
1.6545
11
0.518552
21
1.64148
0
LINE
8
BLACK
6
CONTINUOUS
10
0.518552
20
1.64148
11
0.522451
21
1.62795
0
LINE
8
BLACK
6
CONTINUOUS
10
0.522451
20
1.62795
11
0.52481
21
1.61406
0
LINE
8
BLACK
6
CONTINUOUS
10
0.52481
20
1.61406
11
0.5256
21
1.6
0
LINE
8
BLACK
6
CONTINUOUS
10
0.5256
20
1.6
11
0.52481
21
1.58594
0
LINE
8
BLACK
6
CONTINUOUS
10
0.52481
20
1.58594
11
0.522451
21
1.57205
0
LINE
8
BLACK
6
CONTINUOUS
10
0.522451
20
1.57205
11
0.518552
21
1.55852
0
LINE
8
BLACK
6
CONTINUOUS
10
0.518552
20
1.55852
11
0.513162
21
1.5455
0
LINE
8
BLACK
6
CONTINUOUS
10
0.513162
20
1.5455
11
0.506349
21
1.53318
0
LINE
8
BLACK
6
CONTINUOUS
10
0.506349
20
1.53318
11
0.498198
21
1.52169
0
LINE
8
BLACK
6
CONTINUOUS
10
0.498198
20
1.52169
11
0.488813
21
1.51119
0
LINE
8
BLACK
6
CONTINUOUS
10
0.488813
20
1.51119
11
0.47831
21
1.5018
0
LINE
8
BLACK
6
CONTINUOUS
10
0.47831
20
1.5018
11
0.466823
21
1.49365
0
LINE
8
BLACK
6
CONTINUOUS
10
0.466823
20
1.49365
11
0.454496
21
1.48684
0
LINE
8
BLACK
6
CONTINUOUS
10
0.454496
20
1.48684
11
0.441483
21
1.48145
0
LINE
8
BLACK
6
CONTINUOUS
10
0.441483
20
1.48145
11
0.427949
21
1.47755
0
LINE
8
BLACK
6
CONTINUOUS
10
0.427949
20
1.47755
11
0.414063
21
1.47519
0
LINE
8
BLACK
6
CONTINUOUS
10
0.414063
20
1.47519
11
0.4
21
1.4744
0
LINE
8
BLACK
6
CONTINUOUS
10
0.4
20
1.4744
11
0.385937
21
1.47519
0
LINE
8
BLACK
6
CONTINUOUS
10
0.385937
20
1.47519
11
0.372051
21
1.47755
0
LINE
8
BLACK
6
CONTINUOUS
10
0.372051
20
1.47755
11
0.358517
21
1.48145
0
LINE
8
BLACK
6
CONTINUOUS
10
0.358517
20
1.48145
11
0.345504
21
1.48684
0
LINE
8
BLACK
6
CONTINUOUS
10
0.345504
20
1.48684
11
0.333177
21
1.49365
0
LINE
8
BLACK
6
CONTINUOUS
10
0.333177
20
1.49365
11
0.32169
21
1.5018
0
LINE
8
BLACK
6
CONTINUOUS
10
0.32169
20
1.5018
11
0.311187
21
1.51119
0
LINE
8
BLACK
6
CONTINUOUS
10
0.311187
20
1.51119
11
0.301802
21
1.52169
0
LINE
8
BLACK
6
CONTINUOUS
10
0.301802
20
1.52169
11
0.293651
21
1.53318
0
LINE
8
BLACK
6
CONTINUOUS
10
0.293651
20
1.53318
11
0.286838
21
1.5455
0
LINE
8
BLACK
6
CONTINUOUS
10
0.286838
20
1.5455
11
0.281448
21
1.55852
0
LINE
8
BLACK
6
CONTINUOUS
10
0.281448
20
1.55852
11
0.277549
21
1.57205
0
LINE
8
BLACK
6
CONTINUOUS
10
0.277549
20
1.57205
11
0.27519
21
1.58594
0
LINE
8
BLACK
6
CONTINUOUS
10
0.27519
20
1.58594
11
0.2744
21
1.6
0
LINE
8
BLACK
6
CONTINUOUS
10
0.2744
20
1.6
11
0.27519
21
1.61406
0
LINE
8
BLACK
6
CONTINUOUS
10
0.27519
20
1.61406
11
0.277549
21
1.62795
0
LINE
8
BLACK
6
CONTINUOUS
10
0.277549
20
1.62795
11
0.281448
21
1.64148
0
LINE
8
BLACK
6
CONTINUOUS
10
0.281448
20
1.64148
11
0.286838
21
1.6545
0
LINE
8
BLACK
6
CONTINUOUS
10
0.286838
20
1.6545
11
0.293651
21
1.66682
0
LINE
8
BLACK
6
CONTINUOUS
10
0.293651
20
1.66682
11
0.301802
21
1.67831
0
LINE
8
BLACK
6
CONTINUOUS
10
0.301802
20
1.67831
11
0.311187
21
1.68881
0
LINE
8
BLACK
6
CONTINUOUS
10
0.311187
20
1.68881
11
0.32169
21
1.6982
0
LINE
8
BLACK
6
CONTINUOUS
10
0.32169
20
1.6982
11
0.333177
21
1.70635
0
LINE
8
BLACK
6
CONTINUOUS
10
0.333177
20
1.70635
11
0.345504
21
1.71316
0
LINE
8
BLACK
6
CONTINUOUS
10
0.345504
20
1.71316
11
0.358517
21
1.71855
0
LINE
8
BLACK
6
CONTINUOUS
10
0.358517
20
1.71855
11
0.372051
21
1.72245
0
LINE
8
BLACK
6
CONTINUOUS
10
0.372051
20
1.72245
11
0.385937
21
1.72481
0
LINE
8
BLACK
6
CONTINUOUS
10
0.385937
20
1.72481
11
0.4
21
1.7256
0
LINE
8
BLACK
6
CONTINUOUS
10
0.4
20
1.7256
11
0.414063
21
1.72481
0
LINE
8
BLACK
6
CONTINUOUS
10
0.289962
20
1.58714
11
0.292199
21
1.57445
0
LINE
8
BLACK
6
CONTINUOUS
10
0.292199
20
1.57445
11
0.295894
21
1.56211
0
LINE
8
BLACK
6
CONTINUOUS
10
0.295894
20
1.56211
11
0.300997
21
1.55028
0
LINE
8
BLACK
6
CONTINUOUS
10
0.300997
20
1.55028
11
0.307438
21
1.53912
0
LINE
8
BLACK
6
CONTINUOUS
10
0.307438
20
1.53912
11
0.315132
21
1.52879
0
LINE
8
BLACK
6
CONTINUOUS
10
0.315132
20
1.52879
11
0.323973
21
1.51942
0
LINE
8
BLACK
6
CONTINUOUS
10
0.323973
20
1.51942
11
0.333842
21
1.51113
0
LINE
8
BLACK
6
CONTINUOUS
10
0.333842
20
1.51113
11
0.344606
21
1.50406
0
LINE
8
BLACK
6
CONTINUOUS
10
0.344606
20
1.50406
11
0.356119
21
1.49827
0
LINE
8
BLACK
6
CONTINUOUS
10
0.356119
20
1.49827
11
0.368226
21
1.49387
0
LINE
8
BLACK
6
CONTINUOUS
10
0.368226
20
1.49387
11
0.380762
21
1.4909
0
LINE
8
BLACK
6
CONTINUOUS
10
0.380762
20
1.4909
11
0.393558
21
1.4894
0
LINE
8
BLACK
6
CONTINUOUS
10
0.393558
20
1.4894
11
0.406442
21
1.4894
0
LINE
8
BLACK
6
CONTINUOUS
10
0.406442
20
1.4894
11
0.419238
21
1.4909
0
LINE
8
BLACK
6
CONTINUOUS
10
0.419238
20
1.4909
11
0.431774
21
1.49387
0
LINE
8
BLACK
6
CONTINUOUS
10
0.431774
20
1.49387
11
0.443881
21
1.49827
0
LINE
8
BLACK
6
CONTINUOUS
10
0.443881
20
1.49827
11
0.455394
21
1.50406
0
LINE
8
BLACK
6
CONTINUOUS
10
0.455394
20
1.50406
11
0.466158
21
1.51113
0
LINE
8
BLACK
6
CONTINUOUS
10
0.466158
20
1.51113
11
0.476027
21
1.51942
0
LINE
8
BLACK
6
CONTINUOUS
10
0.476027
20
1.51942
11
0.484868
21
1.52879
0
LINE
8
BLACK
6
CONTINUOUS
10
0.484868
20
1.52879
11
0.492562
21
1.53912
0
LINE
8
BLACK
6
CONTINUOUS
10
0.492562
20
1.53912
11
0.499003
21
1.55028
0
LINE
8
BLACK
6
CONTINUOUS
10
0.499003
20
1.55028
11
0.504106
21
1.56211
0
LINE
8
BLACK
6
CONTINUOUS
10
0.504106
20
1.56211
11
0.507801
21
1.57445
0
LINE
8
BLACK
6
CONTINUOUS
10
0.507801
20
1.57445
11
0.510038
21
1.58714
0
LINE
8
BLACK
6
CONTINUOUS
10
0.510038
20
1.58714
11
0.510787
21
1.6
0
LINE
8
BLACK
6
CONTINUOUS
10
0.510787
20
1.6
11
0.510038
21
1.61286
0
LINE
8
BLACK
6
CONTINUOUS
10
0.510038
20
1.61286
11
0.507801
21
1.62555
0
LINE
8
BLACK
6
CONTINUOUS
10
0.507801
20
1.62555
11
0.504106
21
1.63789
0
LINE
8
BLACK
6
CONTINUOUS
10
0.504106
20
1.63789
11
0.499003
21
1.64972
0
LINE
8
BLACK
6
CONTINUOUS
10
0.499003
20
1.64972
11
0.492562
21
1.66088
0
LINE
8
BLACK
6
CONTINUOUS
10
0.492562
20
1.66088
11
0.484868
21
1.67121
0
LINE
8
BLACK
6
CONTINUOUS
10
0.484868
20
1.67121
11
0.476027
21
1.68058
0
LINE
8
BLACK
6
CONTINUOUS
10
0.476027
20
1.68058
11
0.466158
21
1.68887
0
LINE
8
BLACK
6
CONTINUOUS
10
0.466158
20
1.68887
11
0.455394
21
1.69594
0
LINE
8
BLACK
6
CONTINUOUS
10
0.455394
20
1.69594
11
0.443881
21
1.70173
0
LINE
8
BLACK
6
CONTINUOUS
10
0.443881
20
1.70173
11
0.431774
21
1.70613
0
LINE
8
BLACK
6
CONTINUOUS
10
0.431774
20
1.70613
11
0.419238
21
1.7091
0
LINE
8
BLACK
6
CONTINUOUS
10
0.419238
20
1.7091
11
0.406442
21
1.7106
0
LINE
8
BLACK
6
CONTINUOUS
10
0.406442
20
1.7106
11
0.393558
21
1.7106
0
LINE
8
BLACK
6
CONTINUOUS
10
0.393558
20
1.7106
11
0.380762
21
1.7091
0
LINE
8
BLACK
6
CONTINUOUS
10
0.380762
20
1.7091
11
0.368226
21
1.70613
0
LINE
8
BLACK
6
CONTINUOUS
10
0.368226
20
1.70613
11
0.356119
21
1.70173
0
LINE
8
BLACK
6
CONTINUOUS
10
0.356119
20
1.70173
11
0.344606
21
1.69594
0
LINE
8
BLACK
6
CONTINUOUS
10
0.344606
20
1.69594
11
0.333842
21
1.68887
0
LINE
8
BLACK
6
CONTINUOUS
10
0.333842
20
1.68887
11
0.323973
21
1.68058
0
LINE
8
BLACK
6
CONTINUOUS
10
0.323973
20
1.68058
11
0.315132
21
1.67121
0
LINE
8
BLACK
6
CONTINUOUS
10
0.315132
20
1.67121
11
0.307438
21
1.66088
0
LINE
8
BLACK
6
CONTINUOUS
10
0.307438
20
1.66088
11
0.300997
21
1.64972
0
LINE
8
BLACK
6
CONTINUOUS
10
0.300997
20
1.64972
11
0.295894
21
1.63789
0
LINE
8
BLACK
6
CONTINUOUS
10
0.295894
20
1.63789
11
0.292199
21
1.62555
0
LINE
8
BLACK
6
CONTINUOUS
10
0.292199
20
1.62555
11
0.289962
21
1.61286
0
LINE
8
BLACK
6
CONTINUOUS
10
0.289962
20
1.61286
11
0.289213
21
1.6
0
LINE
8
BLACK
6
CONTINUOUS
10
0.289213
20
1.6
11
0.289962
21
1.58714
0
LINE
8
BLACK
6
CONTINUOUS
10
2.41406
20
1.72481
11
2.42795
21
1.72245
0
LINE
8
BLACK
6
CONTINUOUS
10
2.42795
20
1.72245
11
2.44148
21
1.71855
0
LINE
8
BLACK
6
CONTINUOUS
10
2.44148
20
1.71855
11
2.4545
21
1.71316
0
LINE
8
BLACK
6
CONTINUOUS
10
2.4545
20
1.71316
11
2.46682
21
1.70635
0
LINE
8
BLACK
6
CONTINUOUS
10
2.46682
20
1.70635
11
2.47831
21
1.6982
0
LINE
8
BLACK
6
CONTINUOUS
10
2.47831
20
1.6982
11
2.48881
21
1.68881
0
LINE
8
BLACK
6
CONTINUOUS
10
2.48881
20
1.68881
11
2.4982
21
1.67831
0
LINE
8
BLACK
6
CONTINUOUS
10
2.4982
20
1.67831
11
2.50635
21
1.66682
0
LINE
8
BLACK
6
CONTINUOUS
10
2.50635
20
1.66682
11
2.51316
21
1.6545
0
LINE
8
BLACK
6
CONTINUOUS
10
2.51316
20
1.6545
11
2.51855
21
1.64148
0
LINE
8
BLACK
6
CONTINUOUS
10
2.51855
20
1.64148
11
2.52245
21
1.62795
0
LINE
8
BLACK
6
CONTINUOUS
10
2.52245
20
1.62795
11
2.52481
21
1.61406
0
LINE
8
BLACK
6
CONTINUOUS
10
2.52481
20
1.61406
11
2.5256
21
1.6
0
LINE
8
BLACK
6
CONTINUOUS
10
2.5256
20
1.6
11
2.52481
21
1.58594
0
LINE
8
BLACK
6
CONTINUOUS
10
2.52481
20
1.58594
11
2.52245
21
1.57205
0
LINE
8
BLACK
6
CONTINUOUS
10
2.52245
20
1.57205
11
2.51855
21
1.55852
0
LINE
8
BLACK
6
CONTINUOUS
10
2.51855
20
1.55852
11
2.51316
21
1.5455
0
LINE
8
BLACK
6
CONTINUOUS
10
2.51316
20
1.5455
11
2.50635
21
1.53318
0
LINE
8
BLACK
6
CONTINUOUS
10
2.50635
20
1.53318
11
2.4982
21
1.52169
0
LINE
8
BLACK
6
CONTINUOUS
10
2.4982
20
1.52169
11
2.48881
21
1.51119
0
LINE
8
BLACK
6
CONTINUOUS
10
2.48881
20
1.51119
11
2.47831
21
1.5018
0
LINE
8
BLACK
6
CONTINUOUS
10
2.47831
20
1.5018
11
2.46682
21
1.49365
0
LINE
8
BLACK
6
CONTINUOUS
10
2.46682
20
1.49365
11
2.4545
21
1.48684
0
LINE
8
BLACK
6
CONTINUOUS
10
2.4545
20
1.48684
11
2.44148
21
1.48145
0
LINE
8
BLACK
6
CONTINUOUS
10
2.44148
20
1.48145
11
2.42795
21
1.47755
0
LINE
8
BLACK
6
CONTINUOUS
10
2.42795
20
1.47755
11
2.41406
21
1.47519
0
LINE
8
BLACK
6
CONTINUOUS
10
2.41406
20
1.47519
11
2.4
21
1.4744
0
LINE
8
BLACK
6
CONTINUOUS
10
2.4
20
1.4744
11
2.38594
21
1.47519
0
LINE
8
BLACK
6
CONTINUOUS
10
2.38594
20
1.47519
11
2.37205
21
1.47755
0
LINE
8
BLACK
6
CONTINUOUS
10
2.37205
20
1.47755
11
2.35852
21
1.48145
0
LINE
8
BLACK
6
CONTINUOUS
10
2.35852
20
1.48145
11
2.3455
21
1.48684
0
LINE
8
BLACK
6
CONTINUOUS
10
2.3455
20
1.48684
11
2.33318
21
1.49365
0
LINE
8
BLACK
6
CONTINUOUS
10
2.33318
20
1.49365
11
2.32169
21
1.5018
0
LINE
8
BLACK
6
CONTINUOUS
10
2.32169
20
1.5018
11
2.31119
21
1.51119
0
LINE
8
BLACK
6
CONTINUOUS
10
2.31119
20
1.51119
11
2.3018
21
1.52169
0
LINE
8
BLACK
6
CONTINUOUS
10
2.3018
20
1.52169
11
2.29365
21
1.53318
0
LINE
8
BLACK
6
CONTINUOUS
10
2.29365
20
1.53318
11
2.28684
21
1.5455
0
LINE
8
BLACK
6
CONTINUOUS
10
2.28684
20
1.5455
11
2.28145
21
1.55852
0
LINE
8
BLACK
6
CONTINUOUS
10
2.28145
20
1.55852
11
2.27755
21
1.57205
0
LINE
8
BLACK
6
CONTINUOUS
10
2.27755
20
1.57205
11
2.27519
21
1.58594
0
LINE
8
BLACK
6
CONTINUOUS
10
2.27519
20
1.58594
11
2.2744
21
1.6
0
LINE
8
BLACK
6
CONTINUOUS
10
2.2744
20
1.6
11
2.27519
21
1.61406
0
LINE
8
BLACK
6
CONTINUOUS
10
2.27519
20
1.61406
11
2.27755
21
1.62795
0
LINE
8
BLACK
6
CONTINUOUS
10
2.27755
20
1.62795
11
2.28145
21
1.64148
0
LINE
8
BLACK
6
CONTINUOUS
10
2.28145
20
1.64148
11
2.28684
21
1.6545
0
LINE
8
BLACK
6
CONTINUOUS
10
2.28684
20
1.6545
11
2.29365
21
1.66682
0
LINE
8
BLACK
6
CONTINUOUS
10
2.29365
20
1.66682
11
2.3018
21
1.67831
0
LINE
8
BLACK
6
CONTINUOUS
10
2.3018
20
1.67831
11
2.31119
21
1.68881
0
LINE
8
BLACK
6
CONTINUOUS
10
2.31119
20
1.68881
11
2.32169
21
1.6982
0
LINE
8
BLACK
6
CONTINUOUS
10
2.32169
20
1.6982
11
2.33318
21
1.70635
0
LINE
8
BLACK
6
CONTINUOUS
10
2.33318
20
1.70635
11
2.3455
21
1.71316
0
LINE
8
BLACK
6
CONTINUOUS
10
2.3455
20
1.71316
11
2.35852
21
1.71855
0
LINE
8
BLACK
6
CONTINUOUS
10
2.35852
20
1.71855
11
2.37205
21
1.72245
0
LINE
8
BLACK
6
CONTINUOUS
10
2.37205
20
1.72245
11
2.38594
21
1.72481
0
LINE
8
BLACK
6
CONTINUOUS
10
2.38594
20
1.72481
11
2.4
21
1.7256
0
LINE
8
BLACK
6
CONTINUOUS
10
2.4
20
1.7256
11
2.41406
21
1.72481
0
LINE
8
BLACK
6
CONTINUOUS
10
2.28996
20
1.58714
11
2.2922
21
1.57445
0
LINE
8
BLACK
6
CONTINUOUS
10
2.2922
20
1.57445
11
2.29589
21
1.56211
0
LINE
8
BLACK
6
CONTINUOUS
10
2.29589
20
1.56211
11
2.301
21
1.55028
0
LINE
8
BLACK
6
CONTINUOUS
10
2.301
20
1.55028
11
2.30744
21
1.53912
0
LINE
8
BLACK
6
CONTINUOUS
10
2.30744
20
1.53912
11
2.31513
21
1.52879
0
LINE
8
BLACK
6
CONTINUOUS
10
2.31513
20
1.52879
11
2.32397
21
1.51942
0
LINE
8
BLACK
6
CONTINUOUS
10
2.32397
20
1.51942
11
2.33384
21
1.51113
0
LINE
8
BLACK
6
CONTINUOUS
10
2.33384
20
1.51113
11
2.34461
21
1.50406
0
LINE
8
BLACK
6
CONTINUOUS
10
2.34461
20
1.50406
11
2.35612
21
1.49827
0
LINE
8
BLACK
6
CONTINUOUS
10
2.35612
20
1.49827
11
2.36823
21
1.49387
0
LINE
8
BLACK
6
CONTINUOUS
10
2.36823
20
1.49387
11
2.38076
21
1.4909
0
LINE
8
BLACK
6
CONTINUOUS
10
2.38076
20
1.4909
11
2.39356
21
1.4894
0
LINE
8
BLACK
6
CONTINUOUS
10
2.39356
20
1.4894
11
2.40644
21
1.4894
0
LINE
8
BLACK
6
CONTINUOUS
10
2.40644
20
1.4894
11
2.41924
21
1.4909
0
LINE
8
BLACK
6
CONTINUOUS
10
2.41924
20
1.4909
11
2.43177
21
1.49387
0
LINE
8
BLACK
6
CONTINUOUS
10
2.43177
20
1.49387
11
2.44388
21
1.49827
0
LINE
8
BLACK
6
CONTINUOUS
10
2.44388
20
1.49827
11
2.45539
21
1.50406
0
LINE
8
BLACK
6
CONTINUOUS
10
2.45539
20
1.50406
11
2.46616
21
1.51113
0
LINE
8
BLACK
6
CONTINUOUS
10
2.46616
20
1.51113
11
2.47603
21
1.51942
0
LINE
8
BLACK
6
CONTINUOUS
10
2.47603
20
1.51942
11
2.48487
21
1.52879
0
LINE
8
BLACK
6
CONTINUOUS
10
2.48487
20
1.52879
11
2.49256
21
1.53912
0
LINE
8
BLACK
6
CONTINUOUS
10
2.49256
20
1.53912
11
2.499
21
1.55028
0
LINE
8
BLACK
6
CONTINUOUS
10
2.499
20
1.55028
11
2.50411
21
1.56211
0
LINE
8
BLACK
6
CONTINUOUS
10
2.50411
20
1.56211
11
2.5078
21
1.57445
0
LINE
8
BLACK
6
CONTINUOUS
10
2.5078
20
1.57445
11
2.51004
21
1.58714
0
LINE
8
BLACK
6
CONTINUOUS
10
2.51004
20
1.58714
11
2.51079
21
1.6
0
LINE
8
BLACK
6
CONTINUOUS
10
2.51079
20
1.6
11
2.51004
21
1.61286
0
LINE
8
BLACK
6
CONTINUOUS
10
2.51004
20
1.61286
11
2.5078
21
1.62555
0
LINE
8
BLACK
6
CONTINUOUS
10
2.5078
20
1.62555
11
2.50411
21
1.63789
0
LINE
8
BLACK
6
CONTINUOUS
10
2.50411
20
1.63789
11
2.499
21
1.64972
0
LINE
8
BLACK
6
CONTINUOUS
10
2.499
20
1.64972
11
2.49256
21
1.66088
0
LINE
8
BLACK
6
CONTINUOUS
10
2.49256
20
1.66088
11
2.48487
21
1.67121
0
LINE
8
BLACK
6
CONTINUOUS
10
2.48487
20
1.67121
11
2.47603
21
1.68058
0
LINE
8
BLACK
6
CONTINUOUS
10
2.47603
20
1.68058
11
2.46616
21
1.68887
0
LINE
8
BLACK
6
CONTINUOUS
10
2.46616
20
1.68887
11
2.45539
21
1.69594
0
LINE
8
BLACK
6
CONTINUOUS
10
2.45539
20
1.69594
11
2.44388
21
1.70173
0
LINE
8
BLACK
6
CONTINUOUS
10
2.44388
20
1.70173
11
2.43177
21
1.70613
0
LINE
8
BLACK
6
CONTINUOUS
10
2.43177
20
1.70613
11
2.41924
21
1.7091
0
LINE
8
BLACK
6
CONTINUOUS
10
2.41924
20
1.7091
11
2.40644
21
1.7106
0
LINE
8
BLACK
6
CONTINUOUS
10
2.40644
20
1.7106
11
2.39356
21
1.7106
0
LINE
8
BLACK
6
CONTINUOUS
10
2.39356
20
1.7106
11
2.38076
21
1.7091
0
LINE
8
BLACK
6
CONTINUOUS
10
2.38076
20
1.7091
11
2.36823
21
1.70613
0
LINE
8
BLACK
6
CONTINUOUS
10
2.36823
20
1.70613
11
2.35612
21
1.70173
0
LINE
8
BLACK
6
CONTINUOUS
10
2.35612
20
1.70173
11
2.34461
21
1.69594
0
LINE
8
BLACK
6
CONTINUOUS
10
2.34461
20
1.69594
11
2.33384
21
1.68887
0
LINE
8
BLACK
6
CONTINUOUS
10
2.33384
20
1.68887
11
2.32397
21
1.68058
0
LINE
8
BLACK
6
CONTINUOUS
10
2.32397
20
1.68058
11
2.31513
21
1.67121
0
LINE
8
BLACK
6
CONTINUOUS
10
2.31513
20
1.67121
11
2.30744
21
1.66088
0
LINE
8
BLACK
6
CONTINUOUS
10
2.30744
20
1.66088
11
2.301
21
1.64972
0
LINE
8
BLACK
6
CONTINUOUS
10
2.301
20
1.64972
11
2.29589
21
1.63789
0
LINE
8
BLACK
6
CONTINUOUS
10
2.29589
20
1.63789
11
2.2922
21
1.62555
0
LINE
8
BLACK
6
CONTINUOUS
10
2.2922
20
1.62555
11
2.28996
21
1.61286
0
LINE
8
BLACK
6
CONTINUOUS
10
2.28996
20
1.61286
11
2.28921
21
1.6
0
LINE
8
BLACK
6
CONTINUOUS
10
2.28921
20
1.6
11
2.28996
21
1.58714
  0
ENDSEC
  0
EOF
