  0
SECTION
  2
HEADER
  9
$ANGBASE
  50
0.0
  9
$ANGDIR
  70
1
  9
$MEASUREMENT
  70
0
  0
ENDSEC
  0
SECTION
  2
TABLES
  0
TABLE
  2
LTYPE
  70
4
  0
LTYPE
  5
40F
  2
CONTINUOUS
  70
0
  3
Solid line
  72
65
  73
0
  40
0.0
  0
LTYPE
  5
410
  2
DASHDOT
 70
0
  3
Dash Dot ____ _ ____ _
 72
65
 73
4
 40
2.0
 49
1.25
 49
-0.25
 49
0.25
 49
-0.25
  0
LTYPE
  5
411
  2
DASHED
 70
0
  3
Dashed __ __ __ __ __
 72
65
 73
2
 40
0.75
 49
0.5
 49
-0.25
  0
LTYPE
  5
43B
  2
DOTTED
 70
0
  3
Dotted .  .  .  .
 72
65
 73
2
 40
0.2
 49
0.0
 49
-0.2
  0
ENDTAB
  0
TABLE
  2
STYLE
  70
4
  0
STYLE
  2
KICAD
  70
0
  40
0
  41
1
  42
1
  50
0
  71
0
  3
isocp.shx
  0
STYLE
  2
KICADB
  70
0
  40
0
  41
1
  42
1
  50
0
  71
0
  3
isocp.shx
  0
STYLE
  2
KICADI
  70
0
  40
0
  41
1
  42
1
  50
15
  71
0
  3
isocp.shx
  0
STYLE
  2
KICADBI
  70
0
  40
0
  41
1
  42
1
  50
15
  71
0
  3
isocp.shx
  0
ENDTAB
  0
TABLE
  2
LAYER
  70
1
  0
LAYER
  2
BLACK
  70
0
  62
7
  6
CONTINUOUS
  0
ENDTAB
  0
ENDSEC
  0
SECTION
  2
ENTITIES
0
LINE
8
BLACK
6
CONTINUOUS
10
0.42051
20
0.516316
11
0.433874
21
0.513148
0
LINE
8
BLACK
6
CONTINUOUS
10
0.433874
20
0.513148
11
0.446781
21
0.508451
0
LINE
8
BLACK
6
CONTINUOUS
10
0.446781
20
0.508451
11
0.459055
21
0.502286
0
LINE
8
BLACK
6
CONTINUOUS
10
0.459055
20
0.502286
11
0.470531
21
0.494739
0
LINE
8
BLACK
6
CONTINUOUS
10
0.470531
20
0.494739
11
0.481052
21
0.48591
0
LINE
8
BLACK
6
CONTINUOUS
10
0.481052
20
0.48591
11
0.490478
21
0.47592
0
LINE
8
BLACK
6
CONTINUOUS
10
0.490478
20
0.47592
11
0.49868
21
0.464903
0
LINE
8
BLACK
6
CONTINUOUS
10
0.49868
20
0.464903
11
0.505547
21
0.453008
0
LINE
8
BLACK
6
CONTINUOUS
10
0.505547
20
0.453008
11
0.510987
21
0.440396
0
LINE
8
BLACK
6
CONTINUOUS
10
0.510987
20
0.440396
11
0.514927
21
0.427238
0
LINE
8
BLACK
6
CONTINUOUS
10
0.514927
20
0.427238
11
0.517312
21
0.413712
0
LINE
8
BLACK
6
CONTINUOUS
10
0.517312
20
0.413712
11
0.51811
21
0.4
0
LINE
8
BLACK
6
CONTINUOUS
10
0.51811
20
0.4
11
0.517312
21
0.386288
0
LINE
8
BLACK
6
CONTINUOUS
10
0.517312
20
0.386288
11
0.514927
21
0.372762
0
LINE
8
BLACK
6
CONTINUOUS
10
0.514927
20
0.372762
11
0.510987
21
0.359604
0
LINE
8
BLACK
6
CONTINUOUS
10
0.510987
20
0.359604
11
0.505547
21
0.346992
0
LINE
8
BLACK
6
CONTINUOUS
10
0.505547
20
0.346992
11
0.49868
21
0.335097
0
LINE
8
BLACK
6
CONTINUOUS
10
0.49868
20
0.335097
11
0.490478
21
0.32408
0
LINE
8
BLACK
6
CONTINUOUS
10
0.490478
20
0.32408
11
0.481052
21
0.31409
0
LINE
8
BLACK
6
CONTINUOUS
10
0.481052
20
0.31409
11
0.470531
21
0.305261
0
LINE
8
BLACK
6
CONTINUOUS
10
0.470531
20
0.305261
11
0.459055
21
0.297714
0
LINE
8
BLACK
6
CONTINUOUS
10
0.459055
20
0.297714
11
0.446781
21
0.291549
0
LINE
8
BLACK
6
CONTINUOUS
10
0.446781
20
0.291549
11
0.433874
21
0.286852
0
LINE
8
BLACK
6
CONTINUOUS
10
0.433874
20
0.286852
11
0.42051
21
0.283684
0
LINE
8
BLACK
6
CONTINUOUS
10
0.42051
20
0.283684
11
0.406867
21
0.28209
0
LINE
8
BLACK
6
CONTINUOUS
10
0.406867
20
0.28209
11
0.393133
21
0.28209
0
LINE
8
BLACK
6
CONTINUOUS
10
0.393133
20
0.28209
11
0.37949
21
0.283684
0
LINE
8
BLACK
6
CONTINUOUS
10
0.37949
20
0.283684
11
0.366126
21
0.286852
0
LINE
8
BLACK
6
CONTINUOUS
10
0.366126
20
0.286852
11
0.353219
21
0.291549
0
LINE
8
BLACK
6
CONTINUOUS
10
0.353219
20
0.291549
11
0.340945
21
0.297714
0
LINE
8
BLACK
6
CONTINUOUS
10
0.340945
20
0.297714
11
0.329469
21
0.305261
0
LINE
8
BLACK
6
CONTINUOUS
10
0.329469
20
0.305261
11
0.318948
21
0.31409
0
LINE
8
BLACK
6
CONTINUOUS
10
0.318948
20
0.31409
11
0.309522
21
0.32408
0
LINE
8
BLACK
6
CONTINUOUS
10
0.309522
20
0.32408
11
0.30132
21
0.335097
0
LINE
8
BLACK
6
CONTINUOUS
10
0.30132
20
0.335097
11
0.294453
21
0.346992
0
LINE
8
BLACK
6
CONTINUOUS
10
0.294453
20
0.346992
11
0.289013
21
0.359604
0
LINE
8
BLACK
6
CONTINUOUS
10
0.289013
20
0.359604
11
0.285073
21
0.372762
0
LINE
8
BLACK
6
CONTINUOUS
10
0.285073
20
0.372762
11
0.282688
21
0.386288
0
LINE
8
BLACK
6
CONTINUOUS
10
0.282688
20
0.386288
11
0.28189
21
0.4
0
LINE
8
BLACK
6
CONTINUOUS
10
0.28189
20
0.4
11
0.282688
21
0.413712
0
LINE
8
BLACK
6
CONTINUOUS
10
0.282688
20
0.413712
11
0.285073
21
0.427238
0
LINE
8
BLACK
6
CONTINUOUS
10
0.285073
20
0.427238
11
0.289013
21
0.440396
0
LINE
8
BLACK
6
CONTINUOUS
10
0.289013
20
0.440396
11
0.294453
21
0.453008
0
LINE
8
BLACK
6
CONTINUOUS
10
0.294453
20
0.453008
11
0.30132
21
0.464903
0
LINE
8
BLACK
6
CONTINUOUS
10
0.30132
20
0.464903
11
0.309522
21
0.47592
0
LINE
8
BLACK
6
CONTINUOUS
10
0.309522
20
0.47592
11
0.318948
21
0.48591
0
LINE
8
BLACK
6
CONTINUOUS
10
0.318948
20
0.48591
11
0.329469
21
0.494739
0
LINE
8
BLACK
6
CONTINUOUS
10
0.329469
20
0.494739
11
0.340945
21
0.502286
0
LINE
8
BLACK
6
CONTINUOUS
10
0.340945
20
0.502286
11
0.353219
21
0.508451
0
LINE
8
BLACK
6
CONTINUOUS
10
0.353219
20
0.508451
11
0.366126
21
0.513148
0
LINE
8
BLACK
6
CONTINUOUS
10
0.366126
20
0.513148
11
0.37949
21
0.516316
0
LINE
8
BLACK
6
CONTINUOUS
10
0.37949
20
0.516316
11
0.393133
21
0.51791
0
LINE
8
BLACK
6
CONTINUOUS
10
0.393133
20
0.51791
11
0.406867
21
0.51791
0
LINE
8
BLACK
6
CONTINUOUS
10
0.406867
20
0.51791
11
0.42051
21
0.516316
0
LINE
8
BLACK
6
CONTINUOUS
10
1.62051
20
0.516316
11
1.63387
21
0.513148
0
LINE
8
BLACK
6
CONTINUOUS
10
1.63387
20
0.513148
11
1.64678
21
0.508451
0
LINE
8
BLACK
6
CONTINUOUS
10
1.64678
20
0.508451
11
1.65906
21
0.502286
0
LINE
8
BLACK
6
CONTINUOUS
10
1.65906
20
0.502286
11
1.67053
21
0.494739
0
LINE
8
BLACK
6
CONTINUOUS
10
1.67053
20
0.494739
11
1.68105
21
0.48591
0
LINE
8
BLACK
6
CONTINUOUS
10
1.68105
20
0.48591
11
1.69048
21
0.47592
0
LINE
8
BLACK
6
CONTINUOUS
10
1.69048
20
0.47592
11
1.69868
21
0.464903
0
LINE
8
BLACK
6
CONTINUOUS
10
1.69868
20
0.464903
11
1.70555
21
0.453008
0
LINE
8
BLACK
6
CONTINUOUS
10
1.70555
20
0.453008
11
1.71099
21
0.440396
0
LINE
8
BLACK
6
CONTINUOUS
10
1.71099
20
0.440396
11
1.71493
21
0.427238
0
LINE
8
BLACK
6
CONTINUOUS
10
1.71493
20
0.427238
11
1.71731
21
0.413712
0
LINE
8
BLACK
6
CONTINUOUS
10
1.71731
20
0.413712
11
1.71811
21
0.4
0
LINE
8
BLACK
6
CONTINUOUS
10
1.71811
20
0.4
11
1.71731
21
0.386288
0
LINE
8
BLACK
6
CONTINUOUS
10
1.71731
20
0.386288
11
1.71493
21
0.372762
0
LINE
8
BLACK
6
CONTINUOUS
10
1.71493
20
0.372762
11
1.71099
21
0.359604
0
LINE
8
BLACK
6
CONTINUOUS
10
1.71099
20
0.359604
11
1.70555
21
0.346992
0
LINE
8
BLACK
6
CONTINUOUS
10
1.70555
20
0.346992
11
1.69868
21
0.335097
0
LINE
8
BLACK
6
CONTINUOUS
10
1.69868
20
0.335097
11
1.69048
21
0.32408
0
LINE
8
BLACK
6
CONTINUOUS
10
1.69048
20
0.32408
11
1.68105
21
0.31409
0
LINE
8
BLACK
6
CONTINUOUS
10
1.68105
20
0.31409
11
1.67053
21
0.305261
0
LINE
8
BLACK
6
CONTINUOUS
10
1.67053
20
0.305261
11
1.65906
21
0.297714
0
LINE
8
BLACK
6
CONTINUOUS
10
1.65906
20
0.297714
11
1.64678
21
0.291549
0
LINE
8
BLACK
6
CONTINUOUS
10
1.64678
20
0.291549
11
1.63387
21
0.286852
0
LINE
8
BLACK
6
CONTINUOUS
10
1.63387
20
0.286852
11
1.62051
21
0.283684
0
LINE
8
BLACK
6
CONTINUOUS
10
1.62051
20
0.283684
11
1.60687
21
0.28209
0
LINE
8
BLACK
6
CONTINUOUS
10
1.60687
20
0.28209
11
1.59313
21
0.28209
0
LINE
8
BLACK
6
CONTINUOUS
10
1.59313
20
0.28209
11
1.57949
21
0.283684
0
LINE
8
BLACK
6
CONTINUOUS
10
1.57949
20
0.283684
11
1.56613
21
0.286852
0
LINE
8
BLACK
6
CONTINUOUS
10
1.56613
20
0.286852
11
1.55322
21
0.291549
0
LINE
8
BLACK
6
CONTINUOUS
10
1.55322
20
0.291549
11
1.54094
21
0.297714
0
LINE
8
BLACK
6
CONTINUOUS
10
1.54094
20
0.297714
11
1.52947
21
0.305261
0
LINE
8
BLACK
6
CONTINUOUS
10
1.52947
20
0.305261
11
1.51895
21
0.31409
0
LINE
8
BLACK
6
CONTINUOUS
10
1.51895
20
0.31409
11
1.50952
21
0.32408
0
LINE
8
BLACK
6
CONTINUOUS
10
1.50952
20
0.32408
11
1.50132
21
0.335097
0
LINE
8
BLACK
6
CONTINUOUS
10
1.50132
20
0.335097
11
1.49445
21
0.346992
0
LINE
8
BLACK
6
CONTINUOUS
10
1.49445
20
0.346992
11
1.48901
21
0.359604
0
LINE
8
BLACK
6
CONTINUOUS
10
1.48901
20
0.359604
11
1.48507
21
0.372762
0
LINE
8
BLACK
6
CONTINUOUS
10
1.48507
20
0.372762
11
1.48269
21
0.386288
0
LINE
8
BLACK
6
CONTINUOUS
10
1.48269
20
0.386288
11
1.48189
21
0.4
0
LINE
8
BLACK
6
CONTINUOUS
10
1.48189
20
0.4
11
1.48269
21
0.413712
0
LINE
8
BLACK
6
CONTINUOUS
10
1.48269
20
0.413712
11
1.48507
21
0.427238
0
LINE
8
BLACK
6
CONTINUOUS
10
1.48507
20
0.427238
11
1.48901
21
0.440396
0
LINE
8
BLACK
6
CONTINUOUS
10
1.48901
20
0.440396
11
1.49445
21
0.453008
0
LINE
8
BLACK
6
CONTINUOUS
10
1.49445
20
0.453008
11
1.50132
21
0.464903
0
LINE
8
BLACK
6
CONTINUOUS
10
1.50132
20
0.464903
11
1.50952
21
0.47592
0
LINE
8
BLACK
6
CONTINUOUS
10
1.50952
20
0.47592
11
1.51895
21
0.48591
0
LINE
8
BLACK
6
CONTINUOUS
10
1.51895
20
0.48591
11
1.52947
21
0.494739
0
LINE
8
BLACK
6
CONTINUOUS
10
1.52947
20
0.494739
11
1.54094
21
0.502286
0
LINE
8
BLACK
6
CONTINUOUS
10
1.54094
20
0.502286
11
1.55322
21
0.508451
0
LINE
8
BLACK
6
CONTINUOUS
10
1.55322
20
0.508451
11
1.56613
21
0.513148
0
LINE
8
BLACK
6
CONTINUOUS
10
1.56613
20
0.513148
11
1.57949
21
0.516316
0
LINE
8
BLACK
6
CONTINUOUS
10
1.57949
20
0.516316
11
1.59313
21
0.51791
0
LINE
8
BLACK
6
CONTINUOUS
10
1.59313
20
0.51791
11
1.60687
21
0.51791
0
LINE
8
BLACK
6
CONTINUOUS
10
1.60687
20
0.51791
11
1.62051
21
0.516316
0
LINE
8
BLACK
6
CONTINUOUS
10
3.29114
20
0.494213
11
3.23114
21
0.494213
0
LINE
8
BLACK
6
CONTINUOUS
10
3.23114
20
0.494213
11
3.23114
21
0.554213
0
LINE
8
BLACK
6
CONTINUOUS
10
3.23114
20
0.554213
11
3.29114
21
0.554213
0
LINE
8
BLACK
6
CONTINUOUS
10
3.29114
20
0.554213
11
3.29114
21
0.494213
0
LINE
8
BLACK
6
CONTINUOUS
10
3.39114
20
0.494213
11
3.33114
21
0.494213
0
LINE
8
BLACK
6
CONTINUOUS
10
3.33114
20
0.494213
11
3.33114
21
0.554213
0
LINE
8
BLACK
6
CONTINUOUS
10
3.33114
20
0.554213
11
3.39114
21
0.554213
0
LINE
8
BLACK
6
CONTINUOUS
10
3.39114
20
0.554213
11
3.39114
21
0.494213
0
LINE
8
BLACK
6
CONTINUOUS
10
3.04587
20
0.698543
11
2.98587
21
0.698543
0
LINE
8
BLACK
6
CONTINUOUS
10
2.98587
20
0.698543
11
2.98587
21
0.758543
0
LINE
8
BLACK
6
CONTINUOUS
10
2.98587
20
0.758543
11
3.04587
21
0.758543
0
LINE
8
BLACK
6
CONTINUOUS
10
3.04587
20
0.758543
11
3.04587
21
0.698543
0
LINE
8
BLACK
6
CONTINUOUS
10
3.14587
20
0.698543
11
3.08587
21
0.698543
0
LINE
8
BLACK
6
CONTINUOUS
10
3.08587
20
0.698543
11
3.08587
21
0.758543
0
LINE
8
BLACK
6
CONTINUOUS
10
3.08587
20
0.758543
11
3.14587
21
0.758543
0
LINE
8
BLACK
6
CONTINUOUS
10
3.14587
20
0.758543
11
3.14587
21
0.698543
0
LINE
8
BLACK
6
CONTINUOUS
10
3.04587
20
0.798543
11
2.98587
21
0.798543
0
LINE
8
BLACK
6
CONTINUOUS
10
2.98587
20
0.798543
11
2.98587
21
0.858543
0
LINE
8
BLACK
6
CONTINUOUS
10
2.98587
20
0.858543
11
3.04587
21
0.858543
0
LINE
8
BLACK
6
CONTINUOUS
10
3.04587
20
0.858543
11
3.04587
21
0.798543
0
LINE
8
BLACK
6
CONTINUOUS
10
3.14587
20
0.798543
11
3.08587
21
0.798543
0
LINE
8
BLACK
6
CONTINUOUS
10
3.08587
20
0.798543
11
3.08587
21
0.858543
0
LINE
8
BLACK
6
CONTINUOUS
10
3.08587
20
0.858543
11
3.14587
21
0.858543
0
LINE
8
BLACK
6
CONTINUOUS
10
3.14587
20
0.858543
11
3.14587
21
0.798543
0
LINE
8
BLACK
6
CONTINUOUS
10
3.04587
20
0.898543
11
2.98587
21
0.898543
0
LINE
8
BLACK
6
CONTINUOUS
10
2.98587
20
0.898543
11
2.98587
21
0.958543
0
LINE
8
BLACK
6
CONTINUOUS
10
2.98587
20
0.958543
11
3.04587
21
0.958543
0
LINE
8
BLACK
6
CONTINUOUS
10
3.04587
20
0.958543
11
3.04587
21
0.898543
0
LINE
8
BLACK
6
CONTINUOUS
10
3.14587
20
0.898543
11
3.08587
21
0.898543
0
LINE
8
BLACK
6
CONTINUOUS
10
3.08587
20
0.898543
11
3.08587
21
0.958543
0
LINE
8
BLACK
6
CONTINUOUS
10
3.08587
20
0.958543
11
3.14587
21
0.958543
0
LINE
8
BLACK
6
CONTINUOUS
10
3.14587
20
0.958543
11
3.14587
21
0.898543
0
LINE
8
BLACK
6
CONTINUOUS
10
3.04587
20
0.998543
11
2.98587
21
0.998543
0
LINE
8
BLACK
6
CONTINUOUS
10
2.98587
20
0.998543
11
2.98587
21
1.05854
0
LINE
8
BLACK
6
CONTINUOUS
10
2.98587
20
1.05854
11
3.04587
21
1.05854
0
LINE
8
BLACK
6
CONTINUOUS
10
3.04587
20
1.05854
11
3.04587
21
0.998543
0
LINE
8
BLACK
6
CONTINUOUS
10
3.14587
20
0.998543
11
3.08587
21
0.998543
0
LINE
8
BLACK
6
CONTINUOUS
10
3.08587
20
0.998543
11
3.08587
21
1.05854
0
LINE
8
BLACK
6
CONTINUOUS
10
3.08587
20
1.05854
11
3.14587
21
1.05854
0
LINE
8
BLACK
6
CONTINUOUS
10
3.14587
20
1.05854
11
3.14587
21
0.998543
0
LINE
8
BLACK
6
CONTINUOUS
10
3.04587
20
1.09854
11
2.98587
21
1.09854
0
LINE
8
BLACK
6
CONTINUOUS
10
2.98587
20
1.09854
11
2.98587
21
1.15854
0
LINE
8
BLACK
6
CONTINUOUS
10
2.98587
20
1.15854
11
3.04587
21
1.15854
0
LINE
8
BLACK
6
CONTINUOUS
10
3.04587
20
1.15854
11
3.04587
21
1.09854
0
LINE
8
BLACK
6
CONTINUOUS
10
3.14587
20
1.09854
11
3.08587
21
1.09854
0
LINE
8
BLACK
6
CONTINUOUS
10
3.08587
20
1.09854
11
3.08587
21
1.15854
0
LINE
8
BLACK
6
CONTINUOUS
10
3.08587
20
1.15854
11
3.14587
21
1.15854
0
LINE
8
BLACK
6
CONTINUOUS
10
3.14587
20
1.15854
11
3.14587
21
1.09854
0
LINE
8
BLACK
6
CONTINUOUS
10
-0.0702492
20
1.16165
11
-0.067056
21
1.15952
0
LINE
8
BLACK
6
CONTINUOUS
10
-0.067056
20
1.15952
11
-0.0649224
21
1.15633
0
LINE
8
BLACK
6
CONTINUOUS
10
-0.0649224
20
1.15633
11
-0.0641732
21
1.15256
0
LINE
8
BLACK
6
CONTINUOUS
10
-0.0641732
20
1.15256
11
-0.0641732
21
1.11516
0
LINE
8
BLACK
6
CONTINUOUS
10
-0.0641732
20
1.11516
11
-0.0649224
21
1.11139
0
LINE
8
BLACK
6
CONTINUOUS
10
-0.0649224
20
1.11139
11
-0.067056
21
1.1082
0
LINE
8
BLACK
6
CONTINUOUS
10
-0.067056
20
1.1082
11
-0.0702492
21
1.10606
0
LINE
8
BLACK
6
CONTINUOUS
10
-0.0702492
20
1.10606
11
-0.0740157
21
1.10531
0
LINE
8
BLACK
6
CONTINUOUS
10
-0.0740157
20
1.10531
11
-0.0937008
21
1.10531
0
LINE
8
BLACK
6
CONTINUOUS
10
-0.0937008
20
1.10531
11
-0.0974674
21
1.10606
0
LINE
8
BLACK
6
CONTINUOUS
10
-0.0974674
20
1.10606
11
-0.100661
21
1.1082
0
LINE
8
BLACK
6
CONTINUOUS
10
-0.100661
20
1.1082
11
-0.102794
21
1.11139
0
LINE
8
BLACK
6
CONTINUOUS
10
-0.102794
20
1.11139
11
-0.103543
21
1.11516
0
LINE
8
BLACK
6
CONTINUOUS
10
-0.103543
20
1.11516
11
-0.103543
21
1.15256
0
LINE
8
BLACK
6
CONTINUOUS
10
-0.103543
20
1.15256
11
-0.102794
21
1.15633
0
LINE
8
BLACK
6
CONTINUOUS
10
-0.102794
20
1.15633
11
-0.100661
21
1.15952
0
LINE
8
BLACK
6
CONTINUOUS
10
-0.100661
20
1.15952
11
-0.0974674
21
1.16165
0
LINE
8
BLACK
6
CONTINUOUS
10
-0.0974674
20
1.16165
11
-0.0937008
21
1.1624
0
LINE
8
BLACK
6
CONTINUOUS
10
-0.0937008
20
1.1624
11
-0.0740157
21
1.1624
0
LINE
8
BLACK
6
CONTINUOUS
10
-0.0740157
20
1.1624
11
-0.0702492
21
1.16165
0
LINE
8
BLACK
6
CONTINUOUS
10
0.00455398
20
1.16165
11
0.00774713
21
1.15952
0
LINE
8
BLACK
6
CONTINUOUS
10
0.00774713
20
1.15952
11
0.00988071
21
1.15633
0
LINE
8
BLACK
6
CONTINUOUS
10
0.00988071
20
1.15633
11
0.0106299
21
1.15256
0
LINE
8
BLACK
6
CONTINUOUS
10
0.0106299
20
1.15256
11
0.0106299
21
1.11516
0
LINE
8
BLACK
6
CONTINUOUS
10
0.0106299
20
1.11516
11
0.00988071
21
1.11139
0
LINE
8
BLACK
6
CONTINUOUS
10
0.00988071
20
1.11139
11
0.00774713
21
1.1082
0
LINE
8
BLACK
6
CONTINUOUS
10
0.00774713
20
1.1082
11
0.00455398
21
1.10606
0
LINE
8
BLACK
6
CONTINUOUS
10
0.00455398
20
1.10606
11
0.000787402
21
1.10531
0
LINE
8
BLACK
6
CONTINUOUS
10
0.000787402
20
1.10531
11
-0.0188976
21
1.10531
0
LINE
8
BLACK
6
CONTINUOUS
10
-0.0188976
20
1.10531
11
-0.0226642
21
1.10606
0
LINE
8
BLACK
6
CONTINUOUS
10
-0.0226642
20
1.10606
11
-0.0258574
21
1.1082
0
LINE
8
BLACK
6
CONTINUOUS
10
-0.0258574
20
1.1082
11
-0.0279909
21
1.11139
0
LINE
8
BLACK
6
CONTINUOUS
10
-0.0279909
20
1.11139
11
-0.0287402
21
1.11516
0
LINE
8
BLACK
6
CONTINUOUS
10
-0.0287402
20
1.11516
11
-0.0287402
21
1.15256
0
LINE
8
BLACK
6
CONTINUOUS
10
-0.0287402
20
1.15256
11
-0.0279909
21
1.15633
0
LINE
8
BLACK
6
CONTINUOUS
10
-0.0279909
20
1.15633
11
-0.0258574
21
1.15952
0
LINE
8
BLACK
6
CONTINUOUS
10
-0.0258574
20
1.15952
11
-0.0226642
21
1.16165
0
LINE
8
BLACK
6
CONTINUOUS
10
-0.0226642
20
1.16165
11
-0.0188976
21
1.1624
0
LINE
8
BLACK
6
CONTINUOUS
10
-0.0188976
20
1.1624
11
0.000787402
21
1.1624
0
LINE
8
BLACK
6
CONTINUOUS
10
0.000787402
20
1.1624
11
0.00455398
21
1.16165
0
LINE
8
BLACK
6
CONTINUOUS
10
0.665664
20
1.27646
11
0.673286
21
1.27351
0
LINE
8
BLACK
6
CONTINUOUS
10
0.673286
20
1.27351
11
0.680235
21
1.2692
0
LINE
8
BLACK
6
CONTINUOUS
10
0.680235
20
1.2692
11
0.686275
21
1.2637
0
LINE
8
BLACK
6
CONTINUOUS
10
0.686275
20
1.2637
11
0.691201
21
1.25717
0
LINE
8
BLACK
6
CONTINUOUS
10
0.691201
20
1.25717
11
0.694844
21
1.24986
0
LINE
8
BLACK
6
CONTINUOUS
10
0.694844
20
1.24986
11
0.697081
21
1.242
0
LINE
8
BLACK
6
CONTINUOUS
10
0.697081
20
1.242
11
0.697835
21
1.23386
0
LINE
8
BLACK
6
CONTINUOUS
10
0.697835
20
1.23386
11
0.697081
21
1.22572
0
LINE
8
BLACK
6
CONTINUOUS
10
0.697081
20
1.22572
11
0.694844
21
1.21786
0
LINE
8
BLACK
6
CONTINUOUS
10
0.694844
20
1.21786
11
0.691201
21
1.21054
0
LINE
8
BLACK
6
CONTINUOUS
10
0.691201
20
1.21054
11
0.686275
21
1.20402
0
LINE
8
BLACK
6
CONTINUOUS
10
0.686275
20
1.20402
11
0.680235
21
1.19851
0
LINE
8
BLACK
6
CONTINUOUS
10
0.680235
20
1.19851
11
0.673286
21
1.19421
0
LINE
8
BLACK
6
CONTINUOUS
10
0.673286
20
1.19421
11
0.665664
21
1.19126
0
LINE
8
BLACK
6
CONTINUOUS
10
0.665664
20
1.19126
11
0.65763
21
1.18976
0
LINE
8
BLACK
6
CONTINUOUS
10
0.65763
20
1.18976
11
0.649457
21
1.18976
0
LINE
8
BLACK
6
CONTINUOUS
10
0.649457
20
1.18976
11
0.641422
21
1.19126
0
LINE
8
BLACK
6
CONTINUOUS
10
0.641422
20
1.19126
11
0.633801
21
1.19421
0
LINE
8
BLACK
6
CONTINUOUS
10
0.633801
20
1.19421
11
0.626852
21
1.19851
0
LINE
8
BLACK
6
CONTINUOUS
10
0.626852
20
1.19851
11
0.620812
21
1.20402
0
LINE
8
BLACK
6
CONTINUOUS
10
0.620812
20
1.20402
11
0.615886
21
1.21054
0
LINE
8
BLACK
6
CONTINUOUS
10
0.615886
20
1.21054
11
0.612243
21
1.21786
0
LINE
8
BLACK
6
CONTINUOUS
10
0.612243
20
1.21786
11
0.610006
21
1.22572
0
LINE
8
BLACK
6
CONTINUOUS
10
0.610006
20
1.22572
11
0.609252
21
1.23386
0
LINE
8
BLACK
6
CONTINUOUS
10
0.609252
20
1.23386
11
0.610006
21
1.242
0
LINE
8
BLACK
6
CONTINUOUS
10
0.610006
20
1.242
11
0.612243
21
1.24986
0
LINE
8
BLACK
6
CONTINUOUS
10
0.612243
20
1.24986
11
0.615886
21
1.25717
0
LINE
8
BLACK
6
CONTINUOUS
10
0.615886
20
1.25717
11
0.620812
21
1.2637
0
LINE
8
BLACK
6
CONTINUOUS
10
0.620812
20
1.2637
11
0.626852
21
1.2692
0
LINE
8
BLACK
6
CONTINUOUS
10
0.626852
20
1.2692
11
0.633801
21
1.27351
0
LINE
8
BLACK
6
CONTINUOUS
10
0.633801
20
1.27351
11
0.641422
21
1.27646
0
LINE
8
BLACK
6
CONTINUOUS
10
0.641422
20
1.27646
11
0.649457
21
1.27796
0
LINE
8
BLACK
6
CONTINUOUS
10
0.649457
20
1.27796
11
0.65763
21
1.27796
0
LINE
8
BLACK
6
CONTINUOUS
10
0.65763
20
1.27796
11
0.665664
21
1.27646
0
LINE
8
BLACK
6
CONTINUOUS
10
0.865664
20
1.27646
11
0.873286
21
1.27351
0
LINE
8
BLACK
6
CONTINUOUS
10
0.873286
20
1.27351
11
0.880235
21
1.2692
0
LINE
8
BLACK
6
CONTINUOUS
10
0.880235
20
1.2692
11
0.886275
21
1.2637
0
LINE
8
BLACK
6
CONTINUOUS
10
0.886275
20
1.2637
11
0.891201
21
1.25717
0
LINE
8
BLACK
6
CONTINUOUS
10
0.891201
20
1.25717
11
0.894844
21
1.24986
0
LINE
8
BLACK
6
CONTINUOUS
10
0.894844
20
1.24986
11
0.897081
21
1.242
0
LINE
8
BLACK
6
CONTINUOUS
10
0.897081
20
1.242
11
0.897835
21
1.23386
0
LINE
8
BLACK
6
CONTINUOUS
10
0.897835
20
1.23386
11
0.897081
21
1.22572
0
LINE
8
BLACK
6
CONTINUOUS
10
0.897081
20
1.22572
11
0.894844
21
1.21786
0
LINE
8
BLACK
6
CONTINUOUS
10
0.894844
20
1.21786
11
0.891201
21
1.21054
0
LINE
8
BLACK
6
CONTINUOUS
10
0.891201
20
1.21054
11
0.886275
21
1.20402
0
LINE
8
BLACK
6
CONTINUOUS
10
0.886275
20
1.20402
11
0.880235
21
1.19851
0
LINE
8
BLACK
6
CONTINUOUS
10
0.880235
20
1.19851
11
0.873286
21
1.19421
0
LINE
8
BLACK
6
CONTINUOUS
10
0.873286
20
1.19421
11
0.865664
21
1.19126
0
LINE
8
BLACK
6
CONTINUOUS
10
0.865664
20
1.19126
11
0.85763
21
1.18976
0
LINE
8
BLACK
6
CONTINUOUS
10
0.85763
20
1.18976
11
0.849457
21
1.18976
0
LINE
8
BLACK
6
CONTINUOUS
10
0.849457
20
1.18976
11
0.841422
21
1.19126
0
LINE
8
BLACK
6
CONTINUOUS
10
0.841422
20
1.19126
11
0.833801
21
1.19421
0
LINE
8
BLACK
6
CONTINUOUS
10
0.833801
20
1.19421
11
0.826852
21
1.19851
0
LINE
8
BLACK
6
CONTINUOUS
10
0.826852
20
1.19851
11
0.820812
21
1.20402
0
LINE
8
BLACK
6
CONTINUOUS
10
0.820812
20
1.20402
11
0.815886
21
1.21054
0
LINE
8
BLACK
6
CONTINUOUS
10
0.815886
20
1.21054
11
0.812243
21
1.21786
0
LINE
8
BLACK
6
CONTINUOUS
10
0.812243
20
1.21786
11
0.810006
21
1.22572
0
LINE
8
BLACK
6
CONTINUOUS
10
0.810006
20
1.22572
11
0.809252
21
1.23386
0
LINE
8
BLACK
6
CONTINUOUS
10
0.809252
20
1.23386
11
0.810006
21
1.242
0
LINE
8
BLACK
6
CONTINUOUS
10
0.810006
20
1.242
11
0.812243
21
1.24986
0
LINE
8
BLACK
6
CONTINUOUS
10
0.812243
20
1.24986
11
0.815886
21
1.25717
0
LINE
8
BLACK
6
CONTINUOUS
10
0.815886
20
1.25717
11
0.820812
21
1.2637
0
LINE
8
BLACK
6
CONTINUOUS
10
0.820812
20
1.2637
11
0.826852
21
1.2692
0
LINE
8
BLACK
6
CONTINUOUS
10
0.826852
20
1.2692
11
0.833801
21
1.27351
0
LINE
8
BLACK
6
CONTINUOUS
10
0.833801
20
1.27351
11
0.841422
21
1.27646
0
LINE
8
BLACK
6
CONTINUOUS
10
0.841422
20
1.27646
11
0.849457
21
1.27796
0
LINE
8
BLACK
6
CONTINUOUS
10
0.849457
20
1.27796
11
0.85763
21
1.27796
0
LINE
8
BLACK
6
CONTINUOUS
10
0.85763
20
1.27796
11
0.865664
21
1.27646
0
LINE
8
BLACK
6
CONTINUOUS
10
0.761416
20
1.37344
11
0.768986
21
1.37114
0
LINE
8
BLACK
6
CONTINUOUS
10
0.768986
20
1.37114
11
0.775963
21
1.36741
0
LINE
8
BLACK
6
CONTINUOUS
10
0.775963
20
1.36741
11
0.782078
21
1.36239
0
LINE
8
BLACK
6
CONTINUOUS
10
0.782078
20
1.36239
11
0.787097
21
1.35628
0
LINE
8
BLACK
6
CONTINUOUS
10
0.787097
20
1.35628
11
0.790826
21
1.3493
0
LINE
8
BLACK
6
CONTINUOUS
10
0.790826
20
1.3493
11
0.793122
21
1.34173
0
LINE
8
BLACK
6
CONTINUOUS
10
0.793122
20
1.34173
11
0.793898
21
1.33386
0
LINE
8
BLACK
6
CONTINUOUS
10
0.793898
20
1.33386
11
0.793122
21
1.32599
0
LINE
8
BLACK
6
CONTINUOUS
10
0.793122
20
1.32599
11
0.790826
21
1.31842
0
LINE
8
BLACK
6
CONTINUOUS
10
0.790826
20
1.31842
11
0.787097
21
1.31144
0
LINE
8
BLACK
6
CONTINUOUS
10
0.787097
20
1.31144
11
0.782078
21
1.30532
0
LINE
8
BLACK
6
CONTINUOUS
10
0.782078
20
1.30532
11
0.775963
21
1.3003
0
LINE
8
BLACK
6
CONTINUOUS
10
0.775963
20
1.3003
11
0.768986
21
1.29658
0
LINE
8
BLACK
6
CONTINUOUS
10
0.768986
20
1.29658
11
0.761416
21
1.29428
0
LINE
8
BLACK
6
CONTINUOUS
10
0.761416
20
1.29428
11
0.753543
21
1.2935
0
LINE
8
BLACK
6
CONTINUOUS
10
0.753543
20
1.2935
11
0.745671
21
1.29428
0
LINE
8
BLACK
6
CONTINUOUS
10
0.745671
20
1.29428
11
0.7381
21
1.29658
0
LINE
8
BLACK
6
CONTINUOUS
10
0.7381
20
1.29658
11
0.731124
21
1.3003
0
LINE
8
BLACK
6
CONTINUOUS
10
0.731124
20
1.3003
11
0.725009
21
1.30532
0
LINE
8
BLACK
6
CONTINUOUS
10
0.725009
20
1.30532
11
0.71999
21
1.31144
0
LINE
8
BLACK
6
CONTINUOUS
10
0.71999
20
1.31144
11
0.716261
21
1.31842
0
LINE
8
BLACK
6
CONTINUOUS
10
0.716261
20
1.31842
11
0.713964
21
1.32599
0
LINE
8
BLACK
6
CONTINUOUS
10
0.713964
20
1.32599
11
0.713189
21
1.33386
0
LINE
8
BLACK
6
CONTINUOUS
10
0.713189
20
1.33386
11
0.713964
21
1.34173
0
LINE
8
BLACK
6
CONTINUOUS
10
0.713964
20
1.34173
11
0.716261
21
1.3493
0
LINE
8
BLACK
6
CONTINUOUS
10
0.716261
20
1.3493
11
0.71999
21
1.35628
0
LINE
8
BLACK
6
CONTINUOUS
10
0.71999
20
1.35628
11
0.725009
21
1.36239
0
LINE
8
BLACK
6
CONTINUOUS
10
0.725009
20
1.36239
11
0.731124
21
1.36741
0
LINE
8
BLACK
6
CONTINUOUS
10
0.731124
20
1.36741
11
0.7381
21
1.37114
0
LINE
8
BLACK
6
CONTINUOUS
10
0.7381
20
1.37114
11
0.745671
21
1.37344
0
LINE
8
BLACK
6
CONTINUOUS
10
0.745671
20
1.37344
11
0.753543
21
1.37421
0
LINE
8
BLACK
6
CONTINUOUS
10
0.753543
20
1.37421
11
0.761416
21
1.37344
0
LINE
8
BLACK
6
CONTINUOUS
10
0.324016
20
1.34283
11
0.225591
21
1.34283
0
LINE
8
BLACK
6
CONTINUOUS
10
0.225591
20
1.34283
11
0.225591
21
1.4137
0
LINE
8
BLACK
6
CONTINUOUS
10
0.225591
20
1.4137
11
0.324016
21
1.4137
0
LINE
8
BLACK
6
CONTINUOUS
10
0.324016
20
1.4137
11
0.324016
21
1.34283
0
LINE
8
BLACK
6
CONTINUOUS
10
0.481496
20
1.34283
11
0.383071
21
1.34283
0
LINE
8
BLACK
6
CONTINUOUS
10
0.383071
20
1.34283
11
0.383071
21
1.4137
0
LINE
8
BLACK
6
CONTINUOUS
10
0.383071
20
1.4137
11
0.481496
21
1.4137
0
LINE
8
BLACK
6
CONTINUOUS
10
0.481496
20
1.4137
11
0.481496
21
1.34283
0
LINE
8
BLACK
6
CONTINUOUS
10
2.28061
20
1.43318
11
2.28695
21
1.43097
0
LINE
8
BLACK
6
CONTINUOUS
10
2.28695
20
1.43097
11
2.29264
21
1.42739
0
LINE
8
BLACK
6
CONTINUOUS
10
2.29264
20
1.42739
11
2.29739
21
1.42264
0
LINE
8
BLACK
6
CONTINUOUS
10
2.29739
20
1.42264
11
2.30097
21
1.41695
0
LINE
8
BLACK
6
CONTINUOUS
10
2.30097
20
1.41695
11
2.30318
21
1.41061
0
LINE
8
BLACK
6
CONTINUOUS
10
2.30318
20
1.41061
11
2.30394
21
1.40394
0
LINE
8
BLACK
6
CONTINUOUS
10
2.30394
20
1.40394
11
2.30318
21
1.39726
0
LINE
8
BLACK
6
CONTINUOUS
10
2.30318
20
1.39726
11
2.30097
21
1.39092
0
LINE
8
BLACK
6
CONTINUOUS
10
2.30097
20
1.39092
11
2.29739
21
1.38523
0
LINE
8
BLACK
6
CONTINUOUS
10
2.29739
20
1.38523
11
2.29264
21
1.38048
0
LINE
8
BLACK
6
CONTINUOUS
10
2.29264
20
1.38048
11
2.28695
21
1.37691
0
LINE
8
BLACK
6
CONTINUOUS
10
2.28695
20
1.37691
11
2.28061
21
1.37469
0
LINE
8
BLACK
6
CONTINUOUS
10
2.28061
20
1.37469
11
2.27394
21
1.37394
0
LINE
8
BLACK
6
CONTINUOUS
10
2.27394
20
1.37394
11
2.26726
21
1.37469
0
LINE
8
BLACK
6
CONTINUOUS
10
2.26726
20
1.37469
11
2.26092
21
1.37691
0
LINE
8
BLACK
6
CONTINUOUS
10
2.26092
20
1.37691
11
2.25523
21
1.38048
0
LINE
8
BLACK
6
CONTINUOUS
10
2.25523
20
1.38048
11
2.25048
21
1.38523
0
LINE
8
BLACK
6
CONTINUOUS
10
2.25048
20
1.38523
11
2.24691
21
1.39092
0
LINE
8
BLACK
6
CONTINUOUS
10
2.24691
20
1.39092
11
2.24469
21
1.39726
0
LINE
8
BLACK
6
CONTINUOUS
10
2.24469
20
1.39726
11
2.24394
21
1.40394
0
LINE
8
BLACK
6
CONTINUOUS
10
2.24394
20
1.40394
11
2.24469
21
1.41061
0
LINE
8
BLACK
6
CONTINUOUS
10
2.24469
20
1.41061
11
2.24691
21
1.41695
0
LINE
8
BLACK
6
CONTINUOUS
10
2.24691
20
1.41695
11
2.25048
21
1.42264
0
LINE
8
BLACK
6
CONTINUOUS
10
2.25048
20
1.42264
11
2.25523
21
1.42739
0
LINE
8
BLACK
6
CONTINUOUS
10
2.25523
20
1.42739
11
2.26092
21
1.43097
0
LINE
8
BLACK
6
CONTINUOUS
10
2.26092
20
1.43097
11
2.26726
21
1.43318
0
LINE
8
BLACK
6
CONTINUOUS
10
2.26726
20
1.43318
11
2.27394
21
1.43394
0
LINE
8
BLACK
6
CONTINUOUS
10
2.27394
20
1.43394
11
2.28061
21
1.43318
0
LINE
8
BLACK
6
CONTINUOUS
10
0.665664
20
1.47646
11
0.673286
21
1.47351
0
LINE
8
BLACK
6
CONTINUOUS
10
0.673286
20
1.47351
11
0.680235
21
1.4692
0
LINE
8
BLACK
6
CONTINUOUS
10
0.680235
20
1.4692
11
0.686275
21
1.4637
0
LINE
8
BLACK
6
CONTINUOUS
10
0.686275
20
1.4637
11
0.691201
21
1.45717
0
LINE
8
BLACK
6
CONTINUOUS
10
0.691201
20
1.45717
11
0.694844
21
1.44986
0
LINE
8
BLACK
6
CONTINUOUS
10
0.694844
20
1.44986
11
0.697081
21
1.442
0
LINE
8
BLACK
6
CONTINUOUS
10
0.697081
20
1.442
11
0.697835
21
1.43386
0
LINE
8
BLACK
6
CONTINUOUS
10
0.697835
20
1.43386
11
0.697081
21
1.42572
0
LINE
8
BLACK
6
CONTINUOUS
10
0.697081
20
1.42572
11
0.694844
21
1.41786
0
LINE
8
BLACK
6
CONTINUOUS
10
0.694844
20
1.41786
11
0.691201
21
1.41054
0
LINE
8
BLACK
6
CONTINUOUS
10
0.691201
20
1.41054
11
0.686275
21
1.40402
0
LINE
8
BLACK
6
CONTINUOUS
10
0.686275
20
1.40402
11
0.680235
21
1.39851
0
LINE
8
BLACK
6
CONTINUOUS
10
0.680235
20
1.39851
11
0.673286
21
1.39421
0
LINE
8
BLACK
6
CONTINUOUS
10
0.673286
20
1.39421
11
0.665664
21
1.39126
0
LINE
8
BLACK
6
CONTINUOUS
10
0.665664
20
1.39126
11
0.65763
21
1.38976
0
LINE
8
BLACK
6
CONTINUOUS
10
0.65763
20
1.38976
11
0.649457
21
1.38976
0
LINE
8
BLACK
6
CONTINUOUS
10
0.649457
20
1.38976
11
0.641422
21
1.39126
0
LINE
8
BLACK
6
CONTINUOUS
10
0.641422
20
1.39126
11
0.633801
21
1.39421
0
LINE
8
BLACK
6
CONTINUOUS
10
0.633801
20
1.39421
11
0.626852
21
1.39851
0
LINE
8
BLACK
6
CONTINUOUS
10
0.626852
20
1.39851
11
0.620812
21
1.40402
0
LINE
8
BLACK
6
CONTINUOUS
10
0.620812
20
1.40402
11
0.615886
21
1.41054
0
LINE
8
BLACK
6
CONTINUOUS
10
0.615886
20
1.41054
11
0.612243
21
1.41786
0
LINE
8
BLACK
6
CONTINUOUS
10
0.612243
20
1.41786
11
0.610006
21
1.42572
0
LINE
8
BLACK
6
CONTINUOUS
10
0.610006
20
1.42572
11
0.609252
21
1.43386
0
LINE
8
BLACK
6
CONTINUOUS
10
0.609252
20
1.43386
11
0.610006
21
1.442
0
LINE
8
BLACK
6
CONTINUOUS
10
0.610006
20
1.442
11
0.612243
21
1.44986
0
LINE
8
BLACK
6
CONTINUOUS
10
0.612243
20
1.44986
11
0.615886
21
1.45717
0
LINE
8
BLACK
6
CONTINUOUS
10
0.615886
20
1.45717
11
0.620812
21
1.4637
0
LINE
8
BLACK
6
CONTINUOUS
10
0.620812
20
1.4637
11
0.626852
21
1.4692
0
LINE
8
BLACK
6
CONTINUOUS
10
0.626852
20
1.4692
11
0.633801
21
1.47351
0
LINE
8
BLACK
6
CONTINUOUS
10
0.633801
20
1.47351
11
0.641422
21
1.47646
0
LINE
8
BLACK
6
CONTINUOUS
10
0.641422
20
1.47646
11
0.649457
21
1.47796
0
LINE
8
BLACK
6
CONTINUOUS
10
0.649457
20
1.47796
11
0.65763
21
1.47796
0
LINE
8
BLACK
6
CONTINUOUS
10
0.65763
20
1.47796
11
0.665664
21
1.47646
0
LINE
8
BLACK
6
CONTINUOUS
10
0.865664
20
1.47646
11
0.873286
21
1.47351
0
LINE
8
BLACK
6
CONTINUOUS
10
0.873286
20
1.47351
11
0.880235
21
1.4692
0
LINE
8
BLACK
6
CONTINUOUS
10
0.880235
20
1.4692
11
0.886275
21
1.4637
0
LINE
8
BLACK
6
CONTINUOUS
10
0.886275
20
1.4637
11
0.891201
21
1.45717
0
LINE
8
BLACK
6
CONTINUOUS
10
0.891201
20
1.45717
11
0.894844
21
1.44986
0
LINE
8
BLACK
6
CONTINUOUS
10
0.894844
20
1.44986
11
0.897081
21
1.442
0
LINE
8
BLACK
6
CONTINUOUS
10
0.897081
20
1.442
11
0.897835
21
1.43386
0
LINE
8
BLACK
6
CONTINUOUS
10
0.897835
20
1.43386
11
0.897081
21
1.42572
0
LINE
8
BLACK
6
CONTINUOUS
10
0.897081
20
1.42572
11
0.894844
21
1.41786
0
LINE
8
BLACK
6
CONTINUOUS
10
0.894844
20
1.41786
11
0.891201
21
1.41054
0
LINE
8
BLACK
6
CONTINUOUS
10
0.891201
20
1.41054
11
0.886275
21
1.40402
0
LINE
8
BLACK
6
CONTINUOUS
10
0.886275
20
1.40402
11
0.880235
21
1.39851
0
LINE
8
BLACK
6
CONTINUOUS
10
0.880235
20
1.39851
11
0.873286
21
1.39421
0
LINE
8
BLACK
6
CONTINUOUS
10
0.873286
20
1.39421
11
0.865664
21
1.39126
0
LINE
8
BLACK
6
CONTINUOUS
10
0.865664
20
1.39126
11
0.85763
21
1.38976
0
LINE
8
BLACK
6
CONTINUOUS
10
0.85763
20
1.38976
11
0.849457
21
1.38976
0
LINE
8
BLACK
6
CONTINUOUS
10
0.849457
20
1.38976
11
0.841422
21
1.39126
0
LINE
8
BLACK
6
CONTINUOUS
10
0.841422
20
1.39126
11
0.833801
21
1.39421
0
LINE
8
BLACK
6
CONTINUOUS
10
0.833801
20
1.39421
11
0.826852
21
1.39851
0
LINE
8
BLACK
6
CONTINUOUS
10
0.826852
20
1.39851
11
0.820812
21
1.40402
0
LINE
8
BLACK
6
CONTINUOUS
10
0.820812
20
1.40402
11
0.815886
21
1.41054
0
LINE
8
BLACK
6
CONTINUOUS
10
0.815886
20
1.41054
11
0.812243
21
1.41786
0
LINE
8
BLACK
6
CONTINUOUS
10
0.812243
20
1.41786
11
0.810006
21
1.42572
0
LINE
8
BLACK
6
CONTINUOUS
10
0.810006
20
1.42572
11
0.809252
21
1.43386
0
LINE
8
BLACK
6
CONTINUOUS
10
0.809252
20
1.43386
11
0.810006
21
1.442
0
LINE
8
BLACK
6
CONTINUOUS
10
0.810006
20
1.442
11
0.812243
21
1.44986
0
LINE
8
BLACK
6
CONTINUOUS
10
0.812243
20
1.44986
11
0.815886
21
1.45717
0
LINE
8
BLACK
6
CONTINUOUS
10
0.815886
20
1.45717
11
0.820812
21
1.4637
0
LINE
8
BLACK
6
CONTINUOUS
10
0.820812
20
1.4637
11
0.826852
21
1.4692
0
LINE
8
BLACK
6
CONTINUOUS
10
0.826852
20
1.4692
11
0.833801
21
1.47351
0
LINE
8
BLACK
6
CONTINUOUS
10
0.833801
20
1.47351
11
0.841422
21
1.47646
0
LINE
8
BLACK
6
CONTINUOUS
10
0.841422
20
1.47646
11
0.849457
21
1.47796
0
LINE
8
BLACK
6
CONTINUOUS
10
0.849457
20
1.47796
11
0.85763
21
1.47796
0
LINE
8
BLACK
6
CONTINUOUS
10
0.85763
20
1.47796
11
0.865664
21
1.47646
0
LINE
8
BLACK
6
CONTINUOUS
10
0.42051
20
1.71632
11
0.433874
21
1.71315
0
LINE
8
BLACK
6
CONTINUOUS
10
0.433874
20
1.71315
11
0.446781
21
1.70845
0
LINE
8
BLACK
6
CONTINUOUS
10
0.446781
20
1.70845
11
0.459055
21
1.70229
0
LINE
8
BLACK
6
CONTINUOUS
10
0.459055
20
1.70229
11
0.470531
21
1.69474
0
LINE
8
BLACK
6
CONTINUOUS
10
0.470531
20
1.69474
11
0.481052
21
1.68591
0
LINE
8
BLACK
6
CONTINUOUS
10
0.481052
20
1.68591
11
0.490478
21
1.67592
0
LINE
8
BLACK
6
CONTINUOUS
10
0.490478
20
1.67592
11
0.49868
21
1.6649
0
LINE
8
BLACK
6
CONTINUOUS
10
0.49868
20
1.6649
11
0.505547
21
1.65301
0
LINE
8
BLACK
6
CONTINUOUS
10
0.505547
20
1.65301
11
0.510987
21
1.6404
0
LINE
8
BLACK
6
CONTINUOUS
10
0.510987
20
1.6404
11
0.514927
21
1.62724
0
LINE
8
BLACK
6
CONTINUOUS
10
0.514927
20
1.62724
11
0.517312
21
1.61371
0
LINE
8
BLACK
6
CONTINUOUS
10
0.517312
20
1.61371
11
0.51811
21
1.6
0
LINE
8
BLACK
6
CONTINUOUS
10
0.51811
20
1.6
11
0.517312
21
1.58629
0
LINE
8
BLACK
6
CONTINUOUS
10
0.517312
20
1.58629
11
0.514927
21
1.57276
0
LINE
8
BLACK
6
CONTINUOUS
10
0.514927
20
1.57276
11
0.510987
21
1.5596
0
LINE
8
BLACK
6
CONTINUOUS
10
0.510987
20
1.5596
11
0.505547
21
1.54699
0
LINE
8
BLACK
6
CONTINUOUS
10
0.505547
20
1.54699
11
0.49868
21
1.5351
0
LINE
8
BLACK
6
CONTINUOUS
10
0.49868
20
1.5351
11
0.490478
21
1.52408
0
LINE
8
BLACK
6
CONTINUOUS
10
0.490478
20
1.52408
11
0.481052
21
1.51409
0
LINE
8
BLACK
6
CONTINUOUS
10
0.481052
20
1.51409
11
0.470531
21
1.50526
0
LINE
8
BLACK
6
CONTINUOUS
10
0.470531
20
1.50526
11
0.459055
21
1.49771
0
LINE
8
BLACK
6
CONTINUOUS
10
0.459055
20
1.49771
11
0.446781
21
1.49155
0
LINE
8
BLACK
6
CONTINUOUS
10
0.446781
20
1.49155
11
0.433874
21
1.48685
0
LINE
8
BLACK
6
CONTINUOUS
10
0.433874
20
1.48685
11
0.42051
21
1.48368
0
LINE
8
BLACK
6
CONTINUOUS
10
0.42051
20
1.48368
11
0.406867
21
1.48209
0
LINE
8
BLACK
6
CONTINUOUS
10
0.406867
20
1.48209
11
0.393133
21
1.48209
0
LINE
8
BLACK
6
CONTINUOUS
10
0.393133
20
1.48209
11
0.37949
21
1.48368
0
LINE
8
BLACK
6
CONTINUOUS
10
0.37949
20
1.48368
11
0.366126
21
1.48685
0
LINE
8
BLACK
6
CONTINUOUS
10
0.366126
20
1.48685
11
0.353219
21
1.49155
0
LINE
8
BLACK
6
CONTINUOUS
10
0.353219
20
1.49155
11
0.340945
21
1.49771
0
LINE
8
BLACK
6
CONTINUOUS
10
0.340945
20
1.49771
11
0.329469
21
1.50526
0
LINE
8
BLACK
6
CONTINUOUS
10
0.329469
20
1.50526
11
0.318948
21
1.51409
0
LINE
8
BLACK
6
CONTINUOUS
10
0.318948
20
1.51409
11
0.309522
21
1.52408
0
LINE
8
BLACK
6
CONTINUOUS
10
0.309522
20
1.52408
11
0.30132
21
1.5351
0
LINE
8
BLACK
6
CONTINUOUS
10
0.30132
20
1.5351
11
0.294453
21
1.54699
0
LINE
8
BLACK
6
CONTINUOUS
10
0.294453
20
1.54699
11
0.289013
21
1.5596
0
LINE
8
BLACK
6
CONTINUOUS
10
0.289013
20
1.5596
11
0.285073
21
1.57276
0
LINE
8
BLACK
6
CONTINUOUS
10
0.285073
20
1.57276
11
0.282688
21
1.58629
0
LINE
8
BLACK
6
CONTINUOUS
10
0.282688
20
1.58629
11
0.28189
21
1.6
0
LINE
8
BLACK
6
CONTINUOUS
10
0.28189
20
1.6
11
0.282688
21
1.61371
0
LINE
8
BLACK
6
CONTINUOUS
10
0.282688
20
1.61371
11
0.285073
21
1.62724
0
LINE
8
BLACK
6
CONTINUOUS
10
0.285073
20
1.62724
11
0.289013
21
1.6404
0
LINE
8
BLACK
6
CONTINUOUS
10
0.289013
20
1.6404
11
0.294453
21
1.65301
0
LINE
8
BLACK
6
CONTINUOUS
10
0.294453
20
1.65301
11
0.30132
21
1.6649
0
LINE
8
BLACK
6
CONTINUOUS
10
0.30132
20
1.6649
11
0.309522
21
1.67592
0
LINE
8
BLACK
6
CONTINUOUS
10
0.309522
20
1.67592
11
0.318948
21
1.68591
0
LINE
8
BLACK
6
CONTINUOUS
10
0.318948
20
1.68591
11
0.329469
21
1.69474
0
LINE
8
BLACK
6
CONTINUOUS
10
0.329469
20
1.69474
11
0.340945
21
1.70229
0
LINE
8
BLACK
6
CONTINUOUS
10
0.340945
20
1.70229
11
0.353219
21
1.70845
0
LINE
8
BLACK
6
CONTINUOUS
10
0.353219
20
1.70845
11
0.366126
21
1.71315
0
LINE
8
BLACK
6
CONTINUOUS
10
0.366126
20
1.71315
11
0.37949
21
1.71632
0
LINE
8
BLACK
6
CONTINUOUS
10
0.37949
20
1.71632
11
0.393133
21
1.71791
0
LINE
8
BLACK
6
CONTINUOUS
10
0.393133
20
1.71791
11
0.406867
21
1.71791
0
LINE
8
BLACK
6
CONTINUOUS
10
0.406867
20
1.71791
11
0.42051
21
1.71632
0
LINE
8
BLACK
6
CONTINUOUS
10
1.62051
20
1.71632
11
1.63387
21
1.71315
0
LINE
8
BLACK
6
CONTINUOUS
10
1.63387
20
1.71315
11
1.64678
21
1.70845
0
LINE
8
BLACK
6
CONTINUOUS
10
1.64678
20
1.70845
11
1.65906
21
1.70229
0
LINE
8
BLACK
6
CONTINUOUS
10
1.65906
20
1.70229
11
1.67053
21
1.69474
0
LINE
8
BLACK
6
CONTINUOUS
10
1.67053
20
1.69474
11
1.68105
21
1.68591
0
LINE
8
BLACK
6
CONTINUOUS
10
1.68105
20
1.68591
11
1.69048
21
1.67592
0
LINE
8
BLACK
6
CONTINUOUS
10
1.69048
20
1.67592
11
1.69868
21
1.6649
0
LINE
8
BLACK
6
CONTINUOUS
10
1.69868
20
1.6649
11
1.70555
21
1.65301
0
LINE
8
BLACK
6
CONTINUOUS
10
1.70555
20
1.65301
11
1.71099
21
1.6404
0
LINE
8
BLACK
6
CONTINUOUS
10
1.71099
20
1.6404
11
1.71493
21
1.62724
0
LINE
8
BLACK
6
CONTINUOUS
10
1.71493
20
1.62724
11
1.71731
21
1.61371
0
LINE
8
BLACK
6
CONTINUOUS
10
1.71731
20
1.61371
11
1.71811
21
1.6
0
LINE
8
BLACK
6
CONTINUOUS
10
1.71811
20
1.6
11
1.71731
21
1.58629
0
LINE
8
BLACK
6
CONTINUOUS
10
1.71731
20
1.58629
11
1.71493
21
1.57276
0
LINE
8
BLACK
6
CONTINUOUS
10
1.71493
20
1.57276
11
1.71099
21
1.5596
0
LINE
8
BLACK
6
CONTINUOUS
10
1.71099
20
1.5596
11
1.70555
21
1.54699
0
LINE
8
BLACK
6
CONTINUOUS
10
1.70555
20
1.54699
11
1.69868
21
1.5351
0
LINE
8
BLACK
6
CONTINUOUS
10
1.69868
20
1.5351
11
1.69048
21
1.52408
0
LINE
8
BLACK
6
CONTINUOUS
10
1.69048
20
1.52408
11
1.68105
21
1.51409
0
LINE
8
BLACK
6
CONTINUOUS
10
1.68105
20
1.51409
11
1.67053
21
1.50526
0
LINE
8
BLACK
6
CONTINUOUS
10
1.67053
20
1.50526
11
1.65906
21
1.49771
0
LINE
8
BLACK
6
CONTINUOUS
10
1.65906
20
1.49771
11
1.64678
21
1.49155
0
LINE
8
BLACK
6
CONTINUOUS
10
1.64678
20
1.49155
11
1.63387
21
1.48685
0
LINE
8
BLACK
6
CONTINUOUS
10
1.63387
20
1.48685
11
1.62051
21
1.48368
0
LINE
8
BLACK
6
CONTINUOUS
10
1.62051
20
1.48368
11
1.60687
21
1.48209
0
LINE
8
BLACK
6
CONTINUOUS
10
1.60687
20
1.48209
11
1.59313
21
1.48209
0
LINE
8
BLACK
6
CONTINUOUS
10
1.59313
20
1.48209
11
1.57949
21
1.48368
0
LINE
8
BLACK
6
CONTINUOUS
10
1.57949
20
1.48368
11
1.56613
21
1.48685
0
LINE
8
BLACK
6
CONTINUOUS
10
1.56613
20
1.48685
11
1.55322
21
1.49155
0
LINE
8
BLACK
6
CONTINUOUS
10
1.55322
20
1.49155
11
1.54094
21
1.49771
0
LINE
8
BLACK
6
CONTINUOUS
10
1.54094
20
1.49771
11
1.52947
21
1.50526
0
LINE
8
BLACK
6
CONTINUOUS
10
1.52947
20
1.50526
11
1.51895
21
1.51409
0
LINE
8
BLACK
6
CONTINUOUS
10
1.51895
20
1.51409
11
1.50952
21
1.52408
0
LINE
8
BLACK
6
CONTINUOUS
10
1.50952
20
1.52408
11
1.50132
21
1.5351
0
LINE
8
BLACK
6
CONTINUOUS
10
1.50132
20
1.5351
11
1.49445
21
1.54699
0
LINE
8
BLACK
6
CONTINUOUS
10
1.49445
20
1.54699
11
1.48901
21
1.5596
0
LINE
8
BLACK
6
CONTINUOUS
10
1.48901
20
1.5596
11
1.48507
21
1.57276
0
LINE
8
BLACK
6
CONTINUOUS
10
1.48507
20
1.57276
11
1.48269
21
1.58629
0
LINE
8
BLACK
6
CONTINUOUS
10
1.48269
20
1.58629
11
1.48189
21
1.6
0
LINE
8
BLACK
6
CONTINUOUS
10
1.48189
20
1.6
11
1.48269
21
1.61371
0
LINE
8
BLACK
6
CONTINUOUS
10
1.48269
20
1.61371
11
1.48507
21
1.62724
0
LINE
8
BLACK
6
CONTINUOUS
10
1.48507
20
1.62724
11
1.48901
21
1.6404
0
LINE
8
BLACK
6
CONTINUOUS
10
1.48901
20
1.6404
11
1.49445
21
1.65301
0
LINE
8
BLACK
6
CONTINUOUS
10
1.49445
20
1.65301
11
1.50132
21
1.6649
0
LINE
8
BLACK
6
CONTINUOUS
10
1.50132
20
1.6649
11
1.50952
21
1.67592
0
LINE
8
BLACK
6
CONTINUOUS
10
1.50952
20
1.67592
11
1.51895
21
1.68591
0
LINE
8
BLACK
6
CONTINUOUS
10
1.51895
20
1.68591
11
1.52947
21
1.69474
0
LINE
8
BLACK
6
CONTINUOUS
10
1.52947
20
1.69474
11
1.54094
21
1.70229
0
LINE
8
BLACK
6
CONTINUOUS
10
1.54094
20
1.70229
11
1.55322
21
1.70845
0
LINE
8
BLACK
6
CONTINUOUS
10
1.55322
20
1.70845
11
1.56613
21
1.71315
0
LINE
8
BLACK
6
CONTINUOUS
10
1.56613
20
1.71315
11
1.57949
21
1.71632
0
LINE
8
BLACK
6
CONTINUOUS
10
1.57949
20
1.71632
11
1.59313
21
1.71791
0
LINE
8
BLACK
6
CONTINUOUS
10
1.59313
20
1.71791
11
1.60687
21
1.71791
0
LINE
8
BLACK
6
CONTINUOUS
10
1.60687
20
1.71791
11
1.62051
21
1.71632
0
LINE
8
BLACK
6
CONTINUOUS
10
2.28061
20
1.63004
11
2.28695
21
1.62782
0
LINE
8
BLACK
6
CONTINUOUS
10
2.28695
20
1.62782
11
2.29264
21
1.62424
0
LINE
8
BLACK
6
CONTINUOUS
10
2.29264
20
1.62424
11
2.29739
21
1.61949
0
LINE
8
BLACK
6
CONTINUOUS
10
2.29739
20
1.61949
11
2.30097
21
1.6138
0
LINE
8
BLACK
6
CONTINUOUS
10
2.30097
20
1.6138
11
2.30318
21
1.60746
0
LINE
8
BLACK
6
CONTINUOUS
10
2.30318
20
1.60746
11
2.30394
21
1.60079
0
LINE
8
BLACK
6
CONTINUOUS
10
2.30394
20
1.60079
11
2.30318
21
1.59411
0
LINE
8
BLACK
6
CONTINUOUS
10
2.30318
20
1.59411
11
2.30097
21
1.58777
0
LINE
8
BLACK
6
CONTINUOUS
10
2.30097
20
1.58777
11
2.29739
21
1.58208
0
LINE
8
BLACK
6
CONTINUOUS
10
2.29739
20
1.58208
11
2.29264
21
1.57733
0
LINE
8
BLACK
6
CONTINUOUS
10
2.29264
20
1.57733
11
2.28695
21
1.57376
0
LINE
8
BLACK
6
CONTINUOUS
10
2.28695
20
1.57376
11
2.28061
21
1.57154
0
LINE
8
BLACK
6
CONTINUOUS
10
2.28061
20
1.57154
11
2.27394
21
1.57079
0
LINE
8
BLACK
6
CONTINUOUS
10
2.27394
20
1.57079
11
2.26726
21
1.57154
0
LINE
8
BLACK
6
CONTINUOUS
10
2.26726
20
1.57154
11
2.26092
21
1.57376
0
LINE
8
BLACK
6
CONTINUOUS
10
2.26092
20
1.57376
11
2.25523
21
1.57733
0
LINE
8
BLACK
6
CONTINUOUS
10
2.25523
20
1.57733
11
2.25048
21
1.58208
0
LINE
8
BLACK
6
CONTINUOUS
10
2.25048
20
1.58208
11
2.24691
21
1.58777
0
LINE
8
BLACK
6
CONTINUOUS
10
2.24691
20
1.58777
11
2.24469
21
1.59411
0
LINE
8
BLACK
6
CONTINUOUS
10
2.24469
20
1.59411
11
2.24394
21
1.60079
0
LINE
8
BLACK
6
CONTINUOUS
10
2.24394
20
1.60079
11
2.24469
21
1.60746
0
LINE
8
BLACK
6
CONTINUOUS
10
2.24469
20
1.60746
11
2.24691
21
1.6138
0
LINE
8
BLACK
6
CONTINUOUS
10
2.24691
20
1.6138
11
2.25048
21
1.61949
0
LINE
8
BLACK
6
CONTINUOUS
10
2.25048
20
1.61949
11
2.25523
21
1.62424
0
LINE
8
BLACK
6
CONTINUOUS
10
2.25523
20
1.62424
11
2.26092
21
1.62782
0
LINE
8
BLACK
6
CONTINUOUS
10
2.26092
20
1.62782
11
2.26726
21
1.63004
0
LINE
8
BLACK
6
CONTINUOUS
10
2.26726
20
1.63004
11
2.27394
21
1.63079
0
LINE
8
BLACK
6
CONTINUOUS
10
2.27394
20
1.63079
11
2.28061
21
1.63004
0
LINE
8
BLACK
6
CONTINUOUS
10
-0.0702492
20
1.77937
11
-0.067056
21
1.77724
0
LINE
8
BLACK
6
CONTINUOUS
10
-0.067056
20
1.77724
11
-0.0649224
21
1.77404
0
LINE
8
BLACK
6
CONTINUOUS
10
-0.0649224
20
1.77404
11
-0.0641732
21
1.77028
0
LINE
8
BLACK
6
CONTINUOUS
10
-0.0641732
20
1.77028
11
-0.0641732
21
1.73287
0
LINE
8
BLACK
6
CONTINUOUS
10
-0.0641732
20
1.73287
11
-0.0649224
21
1.72911
0
LINE
8
BLACK
6
CONTINUOUS
10
-0.0649224
20
1.72911
11
-0.067056
21
1.72591
0
LINE
8
BLACK
6
CONTINUOUS
10
-0.067056
20
1.72591
11
-0.0702492
21
1.72378
0
LINE
8
BLACK
6
CONTINUOUS
10
-0.0702492
20
1.72378
11
-0.0740157
21
1.72303
0
LINE
8
BLACK
6
CONTINUOUS
10
-0.0740157
20
1.72303
11
-0.0937008
21
1.72303
0
LINE
8
BLACK
6
CONTINUOUS
10
-0.0937008
20
1.72303
11
-0.0974674
21
1.72378
0
LINE
8
BLACK
6
CONTINUOUS
10
-0.0974674
20
1.72378
11
-0.100661
21
1.72591
0
LINE
8
BLACK
6
CONTINUOUS
10
-0.100661
20
1.72591
11
-0.102794
21
1.72911
0
LINE
8
BLACK
6
CONTINUOUS
10
-0.102794
20
1.72911
11
-0.103543
21
1.73287
0
LINE
8
BLACK
6
CONTINUOUS
10
-0.103543
20
1.73287
11
-0.103543
21
1.77028
0
LINE
8
BLACK
6
CONTINUOUS
10
-0.103543
20
1.77028
11
-0.102794
21
1.77404
0
LINE
8
BLACK
6
CONTINUOUS
10
-0.102794
20
1.77404
11
-0.100661
21
1.77724
0
LINE
8
BLACK
6
CONTINUOUS
10
-0.100661
20
1.77724
11
-0.0974674
21
1.77937
0
LINE
8
BLACK
6
CONTINUOUS
10
-0.0974674
20
1.77937
11
-0.0937008
21
1.78012
0
LINE
8
BLACK
6
CONTINUOUS
10
-0.0937008
20
1.78012
11
-0.0740157
21
1.78012
0
LINE
8
BLACK
6
CONTINUOUS
10
-0.0740157
20
1.78012
11
-0.0702492
21
1.77937
0
LINE
8
BLACK
6
CONTINUOUS
10
0.00455398
20
1.77937
11
0.00774713
21
1.77724
0
LINE
8
BLACK
6
CONTINUOUS
10
0.00774713
20
1.77724
11
0.00988071
21
1.77404
0
LINE
8
BLACK
6
CONTINUOUS
10
0.00988071
20
1.77404
11
0.0106299
21
1.77028
0
LINE
8
BLACK
6
CONTINUOUS
10
0.0106299
20
1.77028
11
0.0106299
21
1.73287
0
LINE
8
BLACK
6
CONTINUOUS
10
0.0106299
20
1.73287
11
0.00988071
21
1.72911
0
LINE
8
BLACK
6
CONTINUOUS
10
0.00988071
20
1.72911
11
0.00774713
21
1.72591
0
LINE
8
BLACK
6
CONTINUOUS
10
0.00774713
20
1.72591
11
0.00455398
21
1.72378
0
LINE
8
BLACK
6
CONTINUOUS
10
0.00455398
20
1.72378
11
0.000787402
21
1.72303
0
LINE
8
BLACK
6
CONTINUOUS
10
0.000787402
20
1.72303
11
-0.0188976
21
1.72303
0
LINE
8
BLACK
6
CONTINUOUS
10
-0.0188976
20
1.72303
11
-0.0226642
21
1.72378
0
LINE
8
BLACK
6
CONTINUOUS
10
-0.0226642
20
1.72378
11
-0.0258574
21
1.72591
0
LINE
8
BLACK
6
CONTINUOUS
10
-0.0258574
20
1.72591
11
-0.0279909
21
1.72911
0
LINE
8
BLACK
6
CONTINUOUS
10
-0.0279909
20
1.72911
11
-0.0287402
21
1.73287
0
LINE
8
BLACK
6
CONTINUOUS
10
-0.0287402
20
1.73287
11
-0.0287402
21
1.77028
0
LINE
8
BLACK
6
CONTINUOUS
10
-0.0287402
20
1.77028
11
-0.0279909
21
1.77404
0
LINE
8
BLACK
6
CONTINUOUS
10
-0.0279909
20
1.77404
11
-0.0258574
21
1.77724
0
LINE
8
BLACK
6
CONTINUOUS
10
-0.0258574
20
1.77724
11
-0.0226642
21
1.77937
0
LINE
8
BLACK
6
CONTINUOUS
10
-0.0226642
20
1.77937
11
-0.0188976
21
1.78012
0
LINE
8
BLACK
6
CONTINUOUS
10
-0.0188976
20
1.78012
11
0.000787402
21
1.78012
0
LINE
8
BLACK
6
CONTINUOUS
10
0.000787402
20
1.78012
11
0.00455398
21
1.77937
  0
ENDSEC
  0
EOF
