  0
SECTION
  2
HEADER
  9
$ANGBASE
  50
0.0
  9
$ANGDIR
  70
1
  9
$MEASUREMENT
  70
0
  0
ENDSEC
  0
SECTION
  2
TABLES
  0
TABLE
  2
LTYPE
  70
4
  0
LTYPE
  5
40F
  2
CONTINUOUS
  70
0
  3
Solid line
  72
65
  73
0
  40
0.0
  0
LTYPE
  5
410
  2
DASHDOT
 70
0
  3
Dash Dot ____ _ ____ _
 72
65
 73
4
 40
2.0
 49
1.25
 49
-0.25
 49
0.25
 49
-0.25
  0
LTYPE
  5
411
  2
DASHED
 70
0
  3
Dashed __ __ __ __ __
 72
65
 73
2
 40
0.75
 49
0.5
 49
-0.25
  0
LTYPE
  5
43B
  2
DOTTED
 70
0
  3
Dotted .  .  .  .
 72
65
 73
2
 40
0.2
 49
0.0
 49
-0.2
  0
ENDTAB
  0
TABLE
  2
STYLE
  70
4
  0
STYLE
  2
KICAD
  70
0
  40
0
  41
1
  42
1
  50
0
  71
0
  3
isocp.shx
  0
STYLE
  2
KICADB
  70
0
  40
0
  41
1
  42
1
  50
0
  71
0
  3
isocp.shx
  0
STYLE
  2
KICADI
  70
0
  40
0
  41
1
  42
1
  50
15
  71
0
  3
isocp.shx
  0
STYLE
  2
KICADBI
  70
0
  40
0
  41
1
  42
1
  50
15
  71
0
  3
isocp.shx
  0
ENDTAB
  0
TABLE
  2
LAYER
  70
1
  0
LAYER
  2
BLACK
  70
0
  62
7
  6
CONTINUOUS
  0
ENDTAB
  0
ENDSEC
  0
SECTION
  2
ENTITIES
0
LINE
8
BLACK
6
CONTINUOUS
10
1.30825
20
0.596177
11
1.31459
21
0.593958
0
LINE
8
BLACK
6
CONTINUOUS
10
1.31459
20
0.593958
11
1.32028
21
0.590384
0
LINE
8
BLACK
6
CONTINUOUS
10
1.32028
20
0.590384
11
1.32503
21
0.585634
0
LINE
8
BLACK
6
CONTINUOUS
10
1.32503
20
0.585634
11
1.3286
21
0.579946
0
LINE
8
BLACK
6
CONTINUOUS
10
1.3286
20
0.579946
11
1.33082
21
0.573605
0
LINE
8
BLACK
6
CONTINUOUS
10
1.33082
20
0.573605
11
1.33157
21
0.566929
0
LINE
8
BLACK
6
CONTINUOUS
10
1.33157
20
0.566929
11
1.33082
21
0.560254
0
LINE
8
BLACK
6
CONTINUOUS
10
1.33082
20
0.560254
11
1.3286
21
0.553913
0
LINE
8
BLACK
6
CONTINUOUS
10
1.3286
20
0.553913
11
1.32503
21
0.548224
0
LINE
8
BLACK
6
CONTINUOUS
10
1.32503
20
0.548224
11
1.32028
21
0.543474
0
LINE
8
BLACK
6
CONTINUOUS
10
1.32028
20
0.543474
11
1.31459
21
0.5399
0
LINE
8
BLACK
6
CONTINUOUS
10
1.31459
20
0.5399
11
1.30825
21
0.537681
0
LINE
8
BLACK
6
CONTINUOUS
10
1.30825
20
0.537681
11
1.30157
21
0.536929
0
LINE
8
BLACK
6
CONTINUOUS
10
1.30157
20
0.536929
11
1.2949
21
0.537681
0
LINE
8
BLACK
6
CONTINUOUS
10
1.2949
20
0.537681
11
1.28856
21
0.5399
0
LINE
8
BLACK
6
CONTINUOUS
10
1.28856
20
0.5399
11
1.28287
21
0.543474
0
LINE
8
BLACK
6
CONTINUOUS
10
1.28287
20
0.543474
11
1.27812
21
0.548224
0
LINE
8
BLACK
6
CONTINUOUS
10
1.27812
20
0.548224
11
1.27455
21
0.553913
0
LINE
8
BLACK
6
CONTINUOUS
10
1.27455
20
0.553913
11
1.27233
21
0.560254
0
LINE
8
BLACK
6
CONTINUOUS
10
1.27233
20
0.560254
11
1.27157
21
0.566929
0
LINE
8
BLACK
6
CONTINUOUS
10
1.27157
20
0.566929
11
1.27233
21
0.573605
0
LINE
8
BLACK
6
CONTINUOUS
10
1.27233
20
0.573605
11
1.27455
21
0.579946
0
LINE
8
BLACK
6
CONTINUOUS
10
1.27455
20
0.579946
11
1.27812
21
0.585634
0
LINE
8
BLACK
6
CONTINUOUS
10
1.27812
20
0.585634
11
1.28287
21
0.590384
0
LINE
8
BLACK
6
CONTINUOUS
10
1.28287
20
0.590384
11
1.28856
21
0.593958
0
LINE
8
BLACK
6
CONTINUOUS
10
1.28856
20
0.593958
11
1.2949
21
0.596177
0
LINE
8
BLACK
6
CONTINUOUS
10
1.2949
20
0.596177
11
1.30157
21
0.596929
0
LINE
8
BLACK
6
CONTINUOUS
10
1.30157
20
0.596929
11
1.30825
21
0.596177
0
LINE
8
BLACK
6
CONTINUOUS
10
1.5051
20
0.596177
11
1.51144
21
0.593958
0
LINE
8
BLACK
6
CONTINUOUS
10
1.51144
20
0.593958
11
1.51713
21
0.590384
0
LINE
8
BLACK
6
CONTINUOUS
10
1.51713
20
0.590384
11
1.52188
21
0.585634
0
LINE
8
BLACK
6
CONTINUOUS
10
1.52188
20
0.585634
11
1.52545
21
0.579946
0
LINE
8
BLACK
6
CONTINUOUS
10
1.52545
20
0.579946
11
1.52767
21
0.573605
0
LINE
8
BLACK
6
CONTINUOUS
10
1.52767
20
0.573605
11
1.52843
21
0.566929
0
LINE
8
BLACK
6
CONTINUOUS
10
1.52843
20
0.566929
11
1.52767
21
0.560254
0
LINE
8
BLACK
6
CONTINUOUS
10
1.52767
20
0.560254
11
1.52545
21
0.553913
0
LINE
8
BLACK
6
CONTINUOUS
10
1.52545
20
0.553913
11
1.52188
21
0.548224
0
LINE
8
BLACK
6
CONTINUOUS
10
1.52188
20
0.548224
11
1.51713
21
0.543474
0
LINE
8
BLACK
6
CONTINUOUS
10
1.51713
20
0.543474
11
1.51144
21
0.5399
0
LINE
8
BLACK
6
CONTINUOUS
10
1.51144
20
0.5399
11
1.5051
21
0.537681
0
LINE
8
BLACK
6
CONTINUOUS
10
1.5051
20
0.537681
11
1.49843
21
0.536929
0
LINE
8
BLACK
6
CONTINUOUS
10
1.49843
20
0.536929
11
1.49175
21
0.537681
0
LINE
8
BLACK
6
CONTINUOUS
10
1.49175
20
0.537681
11
1.48541
21
0.5399
0
LINE
8
BLACK
6
CONTINUOUS
10
1.48541
20
0.5399
11
1.47972
21
0.543474
0
LINE
8
BLACK
6
CONTINUOUS
10
1.47972
20
0.543474
11
1.47497
21
0.548224
0
LINE
8
BLACK
6
CONTINUOUS
10
1.47497
20
0.548224
11
1.4714
21
0.553913
0
LINE
8
BLACK
6
CONTINUOUS
10
1.4714
20
0.553913
11
1.46918
21
0.560254
0
LINE
8
BLACK
6
CONTINUOUS
10
1.46918
20
0.560254
11
1.46843
21
0.566929
0
LINE
8
BLACK
6
CONTINUOUS
10
1.46843
20
0.566929
11
1.46918
21
0.573605
0
LINE
8
BLACK
6
CONTINUOUS
10
1.46918
20
0.573605
11
1.4714
21
0.579946
0
LINE
8
BLACK
6
CONTINUOUS
10
1.4714
20
0.579946
11
1.47497
21
0.585634
0
LINE
8
BLACK
6
CONTINUOUS
10
1.47497
20
0.585634
11
1.47972
21
0.590384
0
LINE
8
BLACK
6
CONTINUOUS
10
1.47972
20
0.590384
11
1.48541
21
0.593958
0
LINE
8
BLACK
6
CONTINUOUS
10
1.48541
20
0.593958
11
1.49175
21
0.596177
0
LINE
8
BLACK
6
CONTINUOUS
10
1.49175
20
0.596177
11
1.49843
21
0.596929
0
LINE
8
BLACK
6
CONTINUOUS
10
1.49843
20
0.596929
11
1.5051
21
0.596177
0
LINE
8
BLACK
6
CONTINUOUS
10
2.28
20
0.71
11
2.22
21
0.71
0
LINE
8
BLACK
6
CONTINUOUS
10
2.22
20
0.71
11
2.22
21
0.77
0
LINE
8
BLACK
6
CONTINUOUS
10
2.22
20
0.77
11
2.28
21
0.77
0
LINE
8
BLACK
6
CONTINUOUS
10
2.28
20
0.77
11
2.28
21
0.71
0
LINE
8
BLACK
6
CONTINUOUS
10
2.38
20
0.71
11
2.32
21
0.71
0
LINE
8
BLACK
6
CONTINUOUS
10
2.32
20
0.71
11
2.32
21
0.77
0
LINE
8
BLACK
6
CONTINUOUS
10
2.32
20
0.77
11
2.38
21
0.77
0
LINE
8
BLACK
6
CONTINUOUS
10
2.38
20
0.77
11
2.38
21
0.71
0
LINE
8
BLACK
6
CONTINUOUS
10
1.82487
20
0.994977
11
1.82926
21
0.99274
0
LINE
8
BLACK
6
CONTINUOUS
10
1.82926
20
0.99274
11
1.83274
21
0.989256
0
LINE
8
BLACK
6
CONTINUOUS
10
1.83274
20
0.989256
11
1.83498
21
0.984866
0
LINE
8
BLACK
6
CONTINUOUS
10
1.83498
20
0.984866
11
1.83575
21
0.98
0
LINE
8
BLACK
6
CONTINUOUS
10
1.83575
20
0.98
11
1.83498
21
0.975134
0
LINE
8
BLACK
6
CONTINUOUS
10
1.83498
20
0.975134
11
1.83274
21
0.970744
0
LINE
8
BLACK
6
CONTINUOUS
10
1.83274
20
0.970744
11
1.82926
21
0.96726
0
LINE
8
BLACK
6
CONTINUOUS
10
1.82926
20
0.96726
11
1.82487
21
0.965023
0
LINE
8
BLACK
6
CONTINUOUS
10
1.82487
20
0.965023
11
1.82
21
0.964252
0
LINE
8
BLACK
6
CONTINUOUS
10
1.82
20
0.964252
11
1.81513
21
0.965023
0
LINE
8
BLACK
6
CONTINUOUS
10
1.81513
20
0.965023
11
1.81278
21
0.96622
0
LINE
8
BLACK
6
CONTINUOUS
10
1.81278
20
0.96622
11
1.72571
21
0.96622
0
LINE
8
BLACK
6
CONTINUOUS
10
1.72571
20
0.96622
11
1.64974
21
0.890256
0
LINE
8
BLACK
6
CONTINUOUS
10
1.64974
20
0.890256
11
1.64866
21
0.889336
0
LINE
8
BLACK
6
CONTINUOUS
10
1.64866
20
0.889336
11
1.64846
21
0.889126
0
LINE
8
BLACK
6
CONTINUOUS
10
1.64846
20
0.889126
11
1.64831
21
0.889044
0
LINE
8
BLACK
6
CONTINUOUS
10
1.64831
20
0.889044
11
1.64801
21
0.888786
0
LINE
8
BLACK
6
CONTINUOUS
10
1.64801
20
0.888786
11
1.64622
21
0.887913
0
LINE
8
BLACK
6
CONTINUOUS
10
1.64622
20
0.887913
11
1.64447
21
0.886967
0
LINE
8
BLACK
6
CONTINUOUS
10
1.64447
20
0.886967
11
1.64419
21
0.88692
0
LINE
8
BLACK
6
CONTINUOUS
10
1.64419
20
0.88692
11
1.64393
21
0.886793
0
LINE
8
BLACK
6
CONTINUOUS
10
1.64393
20
0.886793
11
1.64196
21
0.886548
0
LINE
8
BLACK
6
CONTINUOUS
10
1.64196
20
0.886548
11
1.64
21
0.88622
0
LINE
8
BLACK
6
CONTINUOUS
10
1.64
20
0.88622
11
1.45722
21
0.88622
0
LINE
8
BLACK
6
CONTINUOUS
10
1.45722
20
0.88622
11
1.45487
21
0.885023
0
LINE
8
BLACK
6
CONTINUOUS
10
1.45487
20
0.885023
11
1.45
21
0.884252
0
LINE
8
BLACK
6
CONTINUOUS
10
1.45
20
0.884252
11
1.44513
21
0.885023
0
LINE
8
BLACK
6
CONTINUOUS
10
1.44513
20
0.885023
11
1.44278
21
0.88622
0
LINE
8
BLACK
6
CONTINUOUS
10
1.44278
20
0.88622
11
1.32722
21
0.88622
0
LINE
8
BLACK
6
CONTINUOUS
10
1.32722
20
0.88622
11
1.32487
21
0.885023
0
LINE
8
BLACK
6
CONTINUOUS
10
1.32487
20
0.885023
11
1.32
21
0.884252
0
LINE
8
BLACK
6
CONTINUOUS
10
1.32
20
0.884252
11
1.31513
21
0.885023
0
LINE
8
BLACK
6
CONTINUOUS
10
1.31513
20
0.885023
11
1.31278
21
0.88622
0
LINE
8
BLACK
6
CONTINUOUS
10
1.31278
20
0.88622
11
1.00722
21
0.88622
0
LINE
8
BLACK
6
CONTINUOUS
10
1.00722
20
0.88622
11
1.00487
21
0.885023
0
LINE
8
BLACK
6
CONTINUOUS
10
1.00487
20
0.885023
11
1
21
0.884252
0
LINE
8
BLACK
6
CONTINUOUS
10
1
20
0.884252
11
0.995134
21
0.885023
0
LINE
8
BLACK
6
CONTINUOUS
10
0.995134
20
0.885023
11
0.990744
21
0.88726
0
LINE
8
BLACK
6
CONTINUOUS
10
0.990744
20
0.88726
11
0.98726
21
0.890744
0
LINE
8
BLACK
6
CONTINUOUS
10
0.98726
20
0.890744
11
0.985023
21
0.895134
0
LINE
8
BLACK
6
CONTINUOUS
10
0.985023
20
0.895134
11
0.984252
21
0.9
0
LINE
8
BLACK
6
CONTINUOUS
10
0.984252
20
0.9
11
0.985023
21
0.904866
0
LINE
8
BLACK
6
CONTINUOUS
10
0.985023
20
0.904866
11
0.98726
21
0.909256
0
LINE
8
BLACK
6
CONTINUOUS
10
0.98726
20
0.909256
11
0.990744
21
0.91274
0
LINE
8
BLACK
6
CONTINUOUS
10
0.990744
20
0.91274
11
0.995134
21
0.914977
0
LINE
8
BLACK
6
CONTINUOUS
10
0.995134
20
0.914977
11
1
21
0.915748
0
LINE
8
BLACK
6
CONTINUOUS
10
1
20
0.915748
11
1.00487
21
0.914977
0
LINE
8
BLACK
6
CONTINUOUS
10
1.00487
20
0.914977
11
1.00722
21
0.91378
0
LINE
8
BLACK
6
CONTINUOUS
10
1.00722
20
0.91378
11
1.31278
21
0.91378
0
LINE
8
BLACK
6
CONTINUOUS
10
1.31278
20
0.91378
11
1.31513
21
0.914977
0
LINE
8
BLACK
6
CONTINUOUS
10
1.31513
20
0.914977
11
1.32
21
0.915748
0
LINE
8
BLACK
6
CONTINUOUS
10
1.32
20
0.915748
11
1.32487
21
0.914977
0
LINE
8
BLACK
6
CONTINUOUS
10
1.32487
20
0.914977
11
1.32722
21
0.91378
0
LINE
8
BLACK
6
CONTINUOUS
10
1.32722
20
0.91378
11
1.44278
21
0.91378
0
LINE
8
BLACK
6
CONTINUOUS
10
1.44278
20
0.91378
11
1.44513
21
0.914977
0
LINE
8
BLACK
6
CONTINUOUS
10
1.44513
20
0.914977
11
1.45
21
0.915748
0
LINE
8
BLACK
6
CONTINUOUS
10
1.45
20
0.915748
11
1.45487
21
0.914977
0
LINE
8
BLACK
6
CONTINUOUS
10
1.45487
20
0.914977
11
1.45722
21
0.91378
0
LINE
8
BLACK
6
CONTINUOUS
10
1.45722
20
0.91378
11
1.63429
21
0.91378
0
LINE
8
BLACK
6
CONTINUOUS
10
1.63429
20
0.91378
11
1.71026
21
0.989744
0
LINE
8
BLACK
6
CONTINUOUS
10
1.71026
20
0.989744
11
1.71134
21
0.990664
0
LINE
8
BLACK
6
CONTINUOUS
10
1.71134
20
0.990664
11
1.71154
21
0.990874
0
LINE
8
BLACK
6
CONTINUOUS
10
1.71154
20
0.990874
11
1.71169
21
0.990956
0
LINE
8
BLACK
6
CONTINUOUS
10
1.71169
20
0.990956
11
1.71199
21
0.991214
0
LINE
8
BLACK
6
CONTINUOUS
10
1.71199
20
0.991214
11
1.71378
21
0.992087
0
LINE
8
BLACK
6
CONTINUOUS
10
1.71378
20
0.992087
11
1.71553
21
0.993033
0
LINE
8
BLACK
6
CONTINUOUS
10
1.71553
20
0.993033
11
1.71581
21
0.99308
0
LINE
8
BLACK
6
CONTINUOUS
10
1.71581
20
0.99308
11
1.71607
21
0.993207
0
LINE
8
BLACK
6
CONTINUOUS
10
1.71607
20
0.993207
11
1.71804
21
0.993453
0
LINE
8
BLACK
6
CONTINUOUS
10
1.71804
20
0.993453
11
1.72
21
0.99378
0
LINE
8
BLACK
6
CONTINUOUS
10
1.72
20
0.99378
11
1.81278
21
0.99378
0
LINE
8
BLACK
6
CONTINUOUS
10
1.81278
20
0.99378
11
1.81513
21
0.994977
0
LINE
8
BLACK
6
CONTINUOUS
10
1.81513
20
0.994977
11
1.82
21
0.995748
0
LINE
8
BLACK
6
CONTINUOUS
10
1.82
20
0.995748
11
1.82487
21
0.994977
0
LINE
8
BLACK
6
CONTINUOUS
10
0.34
20
1.025
11
0.28
21
1.025
0
LINE
8
BLACK
6
CONTINUOUS
10
0.28
20
1.025
11
0.28
21
1.085
0
LINE
8
BLACK
6
CONTINUOUS
10
0.28
20
1.085
11
0.34
21
1.085
0
LINE
8
BLACK
6
CONTINUOUS
10
0.34
20
1.085
11
0.34
21
1.025
0
LINE
8
BLACK
6
CONTINUOUS
10
0.44
20
1.025
11
0.38
21
1.025
0
LINE
8
BLACK
6
CONTINUOUS
10
0.38
20
1.025
11
0.38
21
1.085
0
LINE
8
BLACK
6
CONTINUOUS
10
0.38
20
1.085
11
0.44
21
1.085
0
LINE
8
BLACK
6
CONTINUOUS
10
0.44
20
1.085
11
0.44
21
1.025
0
LINE
8
BLACK
6
CONTINUOUS
10
0.34
20
1.125
11
0.28
21
1.125
0
LINE
8
BLACK
6
CONTINUOUS
10
0.28
20
1.125
11
0.28
21
1.185
0
LINE
8
BLACK
6
CONTINUOUS
10
0.28
20
1.185
11
0.34
21
1.185
0
LINE
8
BLACK
6
CONTINUOUS
10
0.34
20
1.185
11
0.34
21
1.125
0
LINE
8
BLACK
6
CONTINUOUS
10
0.44
20
1.1631
11
0.441674
21
1.16054
0
LINE
8
BLACK
6
CONTINUOUS
10
0.441674
20
1.16054
11
0.442788
21
1.15614
0
LINE
8
BLACK
6
CONTINUOUS
10
0.442788
20
1.15614
11
0.442413
21
1.15162
0
LINE
8
BLACK
6
CONTINUOUS
10
0.442413
20
1.15162
11
0.440591
21
1.14746
0
LINE
8
BLACK
6
CONTINUOUS
10
0.440591
20
1.14746
11
0.44
21
1.14682
0
LINE
8
BLACK
6
CONTINUOUS
10
0.44
20
1.14682
11
0.44
21
1.125
0
LINE
8
BLACK
6
CONTINUOUS
10
0.44
20
1.125
11
0.38
21
1.125
0
LINE
8
BLACK
6
CONTINUOUS
10
0.38
20
1.125
11
0.38
21
1.185
0
LINE
8
BLACK
6
CONTINUOUS
10
0.38
20
1.185
11
0.44
21
1.185
0
LINE
8
BLACK
6
CONTINUOUS
10
0.44
20
1.185
11
0.44
21
1.1631
0
LINE
8
BLACK
6
CONTINUOUS
10
0.34
20
1.225
11
0.28
21
1.225
0
LINE
8
BLACK
6
CONTINUOUS
10
0.28
20
1.225
11
0.28
21
1.285
0
LINE
8
BLACK
6
CONTINUOUS
10
0.28
20
1.285
11
0.34
21
1.285
0
LINE
8
BLACK
6
CONTINUOUS
10
0.34
20
1.285
11
0.34
21
1.225
0
LINE
8
BLACK
6
CONTINUOUS
10
0.44
20
1.225
11
0.38
21
1.225
0
LINE
8
BLACK
6
CONTINUOUS
10
0.38
20
1.225
11
0.38
21
1.285
0
LINE
8
BLACK
6
CONTINUOUS
10
0.38
20
1.285
11
0.44
21
1.285
0
LINE
8
BLACK
6
CONTINUOUS
10
0.44
20
1.285
11
0.44
21
1.225
0
LINE
8
BLACK
6
CONTINUOUS
10
2.35787
20
1.26958
11
2.36544
21
1.26728
0
LINE
8
BLACK
6
CONTINUOUS
10
2.36544
20
1.26728
11
2.37242
21
1.26355
0
LINE
8
BLACK
6
CONTINUOUS
10
2.37242
20
1.26355
11
2.37853
21
1.25853
0
LINE
8
BLACK
6
CONTINUOUS
10
2.37853
20
1.25853
11
2.38355
21
1.25242
0
LINE
8
BLACK
6
CONTINUOUS
10
2.38355
20
1.25242
11
2.38728
21
1.24544
0
LINE
8
BLACK
6
CONTINUOUS
10
2.38728
20
1.24544
11
2.38958
21
1.23787
0
LINE
8
BLACK
6
CONTINUOUS
10
2.38958
20
1.23787
11
2.39035
21
1.23
0
LINE
8
BLACK
6
CONTINUOUS
10
2.39035
20
1.23
11
2.38958
21
1.22213
0
LINE
8
BLACK
6
CONTINUOUS
10
2.38958
20
1.22213
11
2.38728
21
1.21456
0
LINE
8
BLACK
6
CONTINUOUS
10
2.38728
20
1.21456
11
2.38355
21
1.20758
0
LINE
8
BLACK
6
CONTINUOUS
10
2.38355
20
1.20758
11
2.37853
21
1.20147
0
LINE
8
BLACK
6
CONTINUOUS
10
2.37853
20
1.20147
11
2.37242
21
1.19645
0
LINE
8
BLACK
6
CONTINUOUS
10
2.37242
20
1.19645
11
2.36544
21
1.19272
0
LINE
8
BLACK
6
CONTINUOUS
10
2.36544
20
1.19272
11
2.35787
21
1.19042
0
LINE
8
BLACK
6
CONTINUOUS
10
2.35787
20
1.19042
11
2.35
21
1.18965
0
LINE
8
BLACK
6
CONTINUOUS
10
2.35
20
1.18965
11
2.34213
21
1.19042
0
LINE
8
BLACK
6
CONTINUOUS
10
2.34213
20
1.19042
11
2.33456
21
1.19272
0
LINE
8
BLACK
6
CONTINUOUS
10
2.33456
20
1.19272
11
2.32758
21
1.19645
0
LINE
8
BLACK
6
CONTINUOUS
10
2.32758
20
1.19645
11
2.32147
21
1.20147
0
LINE
8
BLACK
6
CONTINUOUS
10
2.32147
20
1.20147
11
2.31645
21
1.20758
0
LINE
8
BLACK
6
CONTINUOUS
10
2.31645
20
1.20758
11
2.31272
21
1.21456
0
LINE
8
BLACK
6
CONTINUOUS
10
2.31272
20
1.21456
11
2.31042
21
1.22213
0
LINE
8
BLACK
6
CONTINUOUS
10
2.31042
20
1.22213
11
2.30965
21
1.23
0
LINE
8
BLACK
6
CONTINUOUS
10
2.30965
20
1.23
11
2.31042
21
1.23787
0
LINE
8
BLACK
6
CONTINUOUS
10
2.31042
20
1.23787
11
2.31272
21
1.24544
0
LINE
8
BLACK
6
CONTINUOUS
10
2.31272
20
1.24544
11
2.31645
21
1.25242
0
LINE
8
BLACK
6
CONTINUOUS
10
2.31645
20
1.25242
11
2.32147
21
1.25853
0
LINE
8
BLACK
6
CONTINUOUS
10
2.32147
20
1.25853
11
2.32758
21
1.26355
0
LINE
8
BLACK
6
CONTINUOUS
10
2.32758
20
1.26355
11
2.33456
21
1.26728
0
LINE
8
BLACK
6
CONTINUOUS
10
2.33456
20
1.26728
11
2.34213
21
1.26958
0
LINE
8
BLACK
6
CONTINUOUS
10
2.34213
20
1.26958
11
2.35
21
1.27035
0
LINE
8
BLACK
6
CONTINUOUS
10
2.35
20
1.27035
11
2.35787
21
1.26958
0
LINE
8
BLACK
6
CONTINUOUS
10
1.08487
20
1.34498
11
1.08926
21
1.34274
0
LINE
8
BLACK
6
CONTINUOUS
10
1.08926
20
1.34274
11
1.09274
21
1.33926
0
LINE
8
BLACK
6
CONTINUOUS
10
1.09274
20
1.33926
11
1.09498
21
1.33487
0
LINE
8
BLACK
6
CONTINUOUS
10
1.09498
20
1.33487
11
1.09575
21
1.33
0
LINE
8
BLACK
6
CONTINUOUS
10
1.09575
20
1.33
11
1.09498
21
1.32513
0
LINE
8
BLACK
6
CONTINUOUS
10
1.09498
20
1.32513
11
1.09274
21
1.32074
0
LINE
8
BLACK
6
CONTINUOUS
10
1.09274
20
1.32074
11
1.08926
21
1.31726
0
LINE
8
BLACK
6
CONTINUOUS
10
1.08926
20
1.31726
11
1.08487
21
1.31502
0
LINE
8
BLACK
6
CONTINUOUS
10
1.08487
20
1.31502
11
1.08
21
1.31425
0
LINE
8
BLACK
6
CONTINUOUS
10
1.08
20
1.31425
11
1.07513
21
1.31502
0
LINE
8
BLACK
6
CONTINUOUS
10
1.07513
20
1.31502
11
1.07278
21
1.31622
0
LINE
8
BLACK
6
CONTINUOUS
10
1.07278
20
1.31622
11
0.947217
21
1.31622
0
LINE
8
BLACK
6
CONTINUOUS
10
0.947217
20
1.31622
11
0.944866
21
1.31502
0
LINE
8
BLACK
6
CONTINUOUS
10
0.944866
20
1.31502
11
0.94
21
1.31425
0
LINE
8
BLACK
6
CONTINUOUS
10
0.94
20
1.31425
11
0.935134
21
1.31502
0
LINE
8
BLACK
6
CONTINUOUS
10
0.935134
20
1.31502
11
0.930744
21
1.31726
0
LINE
8
BLACK
6
CONTINUOUS
10
0.930744
20
1.31726
11
0.92726
21
1.32074
0
LINE
8
BLACK
6
CONTINUOUS
10
0.92726
20
1.32074
11
0.925023
21
1.32513
0
LINE
8
BLACK
6
CONTINUOUS
10
0.925023
20
1.32513
11
0.924252
21
1.33
0
LINE
8
BLACK
6
CONTINUOUS
10
0.924252
20
1.33
11
0.925023
21
1.33487
0
LINE
8
BLACK
6
CONTINUOUS
10
0.925023
20
1.33487
11
0.92726
21
1.33926
0
LINE
8
BLACK
6
CONTINUOUS
10
0.92726
20
1.33926
11
0.930744
21
1.34274
0
LINE
8
BLACK
6
CONTINUOUS
10
0.930744
20
1.34274
11
0.935134
21
1.34498
0
LINE
8
BLACK
6
CONTINUOUS
10
0.935134
20
1.34498
11
0.94
21
1.34575
0
LINE
8
BLACK
6
CONTINUOUS
10
0.94
20
1.34575
11
0.944866
21
1.34498
0
LINE
8
BLACK
6
CONTINUOUS
10
0.944866
20
1.34498
11
0.947217
21
1.34378
0
LINE
8
BLACK
6
CONTINUOUS
10
0.947217
20
1.34378
11
1.07278
21
1.34378
0
LINE
8
BLACK
6
CONTINUOUS
10
1.07278
20
1.34378
11
1.07513
21
1.34498
0
LINE
8
BLACK
6
CONTINUOUS
10
1.07513
20
1.34498
11
1.08
21
1.34575
0
LINE
8
BLACK
6
CONTINUOUS
10
1.08
20
1.34575
11
1.08487
21
1.34498
0
LINE
8
BLACK
6
CONTINUOUS
10
1.28487
20
1.54498
11
1.28926
21
1.54274
0
LINE
8
BLACK
6
CONTINUOUS
10
1.28926
20
1.54274
11
1.29274
21
1.53926
0
LINE
8
BLACK
6
CONTINUOUS
10
1.29274
20
1.53926
11
1.29498
21
1.53487
0
LINE
8
BLACK
6
CONTINUOUS
10
1.29498
20
1.53487
11
1.29575
21
1.53
0
LINE
8
BLACK
6
CONTINUOUS
10
1.29575
20
1.53
11
1.29498
21
1.52513
0
LINE
8
BLACK
6
CONTINUOUS
10
1.29498
20
1.52513
11
1.29274
21
1.52074
0
LINE
8
BLACK
6
CONTINUOUS
10
1.29274
20
1.52074
11
1.28926
21
1.51726
0
LINE
8
BLACK
6
CONTINUOUS
10
1.28926
20
1.51726
11
1.28886
21
1.51706
0
LINE
8
BLACK
6
CONTINUOUS
10
1.28886
20
1.51706
11
1.28886
21
1.46294
0
LINE
8
BLACK
6
CONTINUOUS
10
1.28886
20
1.46294
11
1.28926
21
1.46274
0
LINE
8
BLACK
6
CONTINUOUS
10
1.28926
20
1.46274
11
1.29274
21
1.45926
0
LINE
8
BLACK
6
CONTINUOUS
10
1.29274
20
1.45926
11
1.29498
21
1.45487
0
LINE
8
BLACK
6
CONTINUOUS
10
1.29498
20
1.45487
11
1.29575
21
1.45
0
LINE
8
BLACK
6
CONTINUOUS
10
1.29575
20
1.45
11
1.29498
21
1.44513
0
LINE
8
BLACK
6
CONTINUOUS
10
1.29498
20
1.44513
11
1.29274
21
1.44074
0
LINE
8
BLACK
6
CONTINUOUS
10
1.29274
20
1.44074
11
1.28926
21
1.43726
0
LINE
8
BLACK
6
CONTINUOUS
10
1.28926
20
1.43726
11
1.28487
21
1.43502
0
LINE
8
BLACK
6
CONTINUOUS
10
1.28487
20
1.43502
11
1.28
21
1.43425
0
LINE
8
BLACK
6
CONTINUOUS
10
1.28
20
1.43425
11
1.27513
21
1.43502
0
LINE
8
BLACK
6
CONTINUOUS
10
1.27513
20
1.43502
11
1.27074
21
1.43726
0
LINE
8
BLACK
6
CONTINUOUS
10
1.27074
20
1.43726
11
1.26726
21
1.44074
0
LINE
8
BLACK
6
CONTINUOUS
10
1.26726
20
1.44074
11
1.26502
21
1.44513
0
LINE
8
BLACK
6
CONTINUOUS
10
1.26502
20
1.44513
11
1.26425
21
1.45
0
LINE
8
BLACK
6
CONTINUOUS
10
1.26425
20
1.45
11
1.26502
21
1.45487
0
LINE
8
BLACK
6
CONTINUOUS
10
1.26502
20
1.45487
11
1.26726
21
1.45926
0
LINE
8
BLACK
6
CONTINUOUS
10
1.26726
20
1.45926
11
1.27074
21
1.46274
0
LINE
8
BLACK
6
CONTINUOUS
10
1.27074
20
1.46274
11
1.27114
21
1.46294
0
LINE
8
BLACK
6
CONTINUOUS
10
1.27114
20
1.46294
11
1.27114
21
1.51706
0
LINE
8
BLACK
6
CONTINUOUS
10
1.27114
20
1.51706
11
1.27074
21
1.51726
0
LINE
8
BLACK
6
CONTINUOUS
10
1.27074
20
1.51726
11
1.26726
21
1.52074
0
LINE
8
BLACK
6
CONTINUOUS
10
1.26726
20
1.52074
11
1.26502
21
1.52513
0
LINE
8
BLACK
6
CONTINUOUS
10
1.26502
20
1.52513
11
1.26425
21
1.53
0
LINE
8
BLACK
6
CONTINUOUS
10
1.26425
20
1.53
11
1.26502
21
1.53487
0
LINE
8
BLACK
6
CONTINUOUS
10
1.26502
20
1.53487
11
1.26726
21
1.53926
0
LINE
8
BLACK
6
CONTINUOUS
10
1.26726
20
1.53926
11
1.27074
21
1.54274
0
LINE
8
BLACK
6
CONTINUOUS
10
1.27074
20
1.54274
11
1.27513
21
1.54498
0
LINE
8
BLACK
6
CONTINUOUS
10
1.27513
20
1.54498
11
1.28
21
1.54575
0
LINE
8
BLACK
6
CONTINUOUS
10
1.28
20
1.54575
11
1.28487
21
1.54498
0
LINE
8
BLACK
6
CONTINUOUS
10
2.58734
20
1.78881
11
2.58915
21
1.78673
0
LINE
8
BLACK
6
CONTINUOUS
10
2.58915
20
1.78673
11
2.58959
21
1.7847
0
LINE
8
BLACK
6
CONTINUOUS
10
2.58959
20
1.7847
11
2.58959
21
0.215295
0
LINE
8
BLACK
6
CONTINUOUS
10
2.58959
20
0.215295
11
2.58881
21
0.212656
0
LINE
8
BLACK
6
CONTINUOUS
10
2.58881
20
0.212656
11
2.58673
21
0.210855
0
LINE
8
BLACK
6
CONTINUOUS
10
2.58673
20
0.210855
11
2.5847
21
0.210413
0
LINE
8
BLACK
6
CONTINUOUS
10
2.5847
20
0.210413
11
0.215295
21
0.210413
0
LINE
8
BLACK
6
CONTINUOUS
10
0.215295
20
0.210413
11
0.212656
21
0.211188
0
LINE
8
BLACK
6
CONTINUOUS
10
0.212656
20
0.211188
11
0.210855
21
0.213267
0
LINE
8
BLACK
6
CONTINUOUS
10
0.210855
20
0.213267
11
0.210413
21
0.215295
0
LINE
8
BLACK
6
CONTINUOUS
10
0.210413
20
0.215295
11
0.210413
21
0.566929
0
LINE
8
BLACK
6
CONTINUOUS
10
0.210413
20
0.566929
11
0.210413
21
0.708084
0
LINE
8
BLACK
6
CONTINUOUS
10
0.210413
20
0.708084
11
0.210413
21
0.9
0
LINE
8
BLACK
6
CONTINUOUS
10
0.210413
20
0.9
11
0.210413
21
1.02308
0
LINE
8
BLACK
6
CONTINUOUS
10
0.210413
20
1.02308
11
0.210413
21
1.45
0
LINE
8
BLACK
6
CONTINUOUS
10
0.210413
20
1.45
11
0.210413
21
1.7847
0
LINE
8
BLACK
6
CONTINUOUS
10
0.210413
20
1.7847
11
0.211188
21
1.78734
0
LINE
8
BLACK
6
CONTINUOUS
10
0.211188
20
1.78734
11
0.213267
21
1.78915
0
LINE
8
BLACK
6
CONTINUOUS
10
0.213267
20
1.78915
11
0.215295
21
1.78959
0
LINE
8
BLACK
6
CONTINUOUS
10
0.215295
20
1.78959
11
2.5847
21
1.78959
0
LINE
8
BLACK
6
CONTINUOUS
10
2.5847
20
1.78959
11
2.58734
21
1.78881
0
LINE
8
BLACK
6
CONTINUOUS
10
1.23277
20
0.556558
11
1.23277
21
0.556558
0
LINE
8
BLACK
6
CONTINUOUS
10
1.23277
20
0.556558
11
1.23508
21
0.546419
0
LINE
8
BLACK
6
CONTINUOUS
10
1.23508
20
0.546419
11
1.23508
21
0.546419
0
LINE
8
BLACK
6
CONTINUOUS
10
1.23508
20
0.546419
11
1.23888
21
0.536738
0
LINE
8
BLACK
6
CONTINUOUS
10
1.23888
20
0.536738
11
1.24408
21
0.527731
0
LINE
8
BLACK
6
CONTINUOUS
10
1.24408
20
0.527731
11
1.24932
21
0.521163
0
LINE
8
BLACK
6
CONTINUOUS
10
1.24932
20
0.521163
11
1.25057
21
0.5196
0
LINE
8
BLACK
6
CONTINUOUS
10
1.25057
20
0.5196
11
1.25776
21
0.512922
0
LINE
8
BLACK
6
CONTINUOUS
10
1.25776
20
0.512922
11
1.25819
21
0.512526
0
LINE
8
BLACK
6
CONTINUOUS
10
1.25819
20
0.512526
11
1.26678
21
0.506667
0
LINE
8
BLACK
6
CONTINUOUS
10
1.26678
20
0.506667
11
1.26678
21
0.506667
0
LINE
8
BLACK
6
CONTINUOUS
10
1.26678
20
0.506667
11
1.26678
21
0.506667
0
LINE
8
BLACK
6
CONTINUOUS
10
1.26678
20
0.506667
11
1.26678
21
0.506667
0
LINE
8
BLACK
6
CONTINUOUS
10
1.26678
20
0.506667
11
1.27176
21
0.504271
0
LINE
8
BLACK
6
CONTINUOUS
10
1.27176
20
0.504271
11
1.27615
21
0.502155
0
LINE
8
BLACK
6
CONTINUOUS
10
1.27615
20
0.502155
11
1.27615
21
0.502155
0
LINE
8
BLACK
6
CONTINUOUS
10
1.27615
20
0.502155
11
1.27615
21
0.502155
0
LINE
8
BLACK
6
CONTINUOUS
10
1.27615
20
0.502155
11
1.28609
21
0.499089
0
LINE
8
BLACK
6
CONTINUOUS
10
1.28609
20
0.499089
11
1.28609
21
0.499089
0
LINE
8
BLACK
6
CONTINUOUS
10
1.28609
20
0.499089
11
1.28609
21
0.499089
0
LINE
8
BLACK
6
CONTINUOUS
10
1.28609
20
0.499089
11
1.29637
21
0.497539
0
LINE
8
BLACK
6
CONTINUOUS
10
1.29637
20
0.497539
11
1.29637
21
0.497539
0
LINE
8
BLACK
6
CONTINUOUS
10
1.29637
20
0.497539
11
1.29637
21
0.497539
0
LINE
8
BLACK
6
CONTINUOUS
10
1.29637
20
0.497539
11
1.29637
21
0.497539
0
LINE
8
BLACK
6
CONTINUOUS
10
1.29637
20
0.497539
11
1.30677
21
0.497539
0
LINE
8
BLACK
6
CONTINUOUS
10
1.30677
20
0.497539
11
1.30677
21
0.497539
0
LINE
8
BLACK
6
CONTINUOUS
10
1.30677
20
0.497539
11
1.30678
21
0.497539
0
LINE
8
BLACK
6
CONTINUOUS
10
1.30678
20
0.497539
11
1.31706
21
0.499089
0
LINE
8
BLACK
6
CONTINUOUS
10
1.31706
20
0.499089
11
1.31706
21
0.499089
0
LINE
8
BLACK
6
CONTINUOUS
10
1.31706
20
0.499089
11
1.31706
21
0.499089
0
LINE
8
BLACK
6
CONTINUOUS
10
1.31706
20
0.499089
11
1.327
21
0.502155
0
LINE
8
BLACK
6
CONTINUOUS
10
1.327
20
0.502155
11
1.33637
21
0.506667
0
LINE
8
BLACK
6
CONTINUOUS
10
1.33637
20
0.506667
11
1.34496
21
0.512526
0
LINE
8
BLACK
6
CONTINUOUS
10
1.34496
20
0.512526
11
1.35258
21
0.5196
0
LINE
8
BLACK
6
CONTINUOUS
10
1.35258
20
0.5196
11
1.35907
21
0.527731
0
LINE
8
BLACK
6
CONTINUOUS
10
1.35907
20
0.527731
11
1.36427
21
0.536738
0
LINE
8
BLACK
6
CONTINUOUS
10
1.36427
20
0.536738
11
1.36807
21
0.546419
0
LINE
8
BLACK
6
CONTINUOUS
10
1.36807
20
0.546419
11
1.37038
21
0.556558
0
LINE
8
BLACK
6
CONTINUOUS
10
1.37038
20
0.556558
11
1.37116
21
0.566929
0
LINE
8
BLACK
6
CONTINUOUS
10
1.37116
20
0.566929
11
1.37116
21
0.566929
0
LINE
8
BLACK
6
CONTINUOUS
10
1.37116
20
0.566929
11
1.37038
21
0.5773
0
LINE
8
BLACK
6
CONTINUOUS
10
1.37038
20
0.5773
11
1.36807
21
0.587439
0
LINE
8
BLACK
6
CONTINUOUS
10
1.36807
20
0.587439
11
1.36427
21
0.597121
0
LINE
8
BLACK
6
CONTINUOUS
10
1.36427
20
0.597121
11
1.35907
21
0.606127
0
LINE
8
BLACK
6
CONTINUOUS
10
1.35907
20
0.606127
11
1.35258
21
0.614259
0
LINE
8
BLACK
6
CONTINUOUS
10
1.35258
20
0.614259
11
1.35258
21
0.614259
0
LINE
8
BLACK
6
CONTINUOUS
10
1.35258
20
0.614259
11
1.35258
21
0.614259
0
LINE
8
BLACK
6
CONTINUOUS
10
1.35258
20
0.614259
11
1.34496
21
0.621332
0
LINE
8
BLACK
6
CONTINUOUS
10
1.34496
20
0.621332
11
1.34496
21
0.621332
0
LINE
8
BLACK
6
CONTINUOUS
10
1.34496
20
0.621332
11
1.33637
21
0.627191
0
LINE
8
BLACK
6
CONTINUOUS
10
1.33637
20
0.627191
11
1.33637
21
0.627191
0
LINE
8
BLACK
6
CONTINUOUS
10
1.33637
20
0.627191
11
1.33637
21
0.627191
0
LINE
8
BLACK
6
CONTINUOUS
10
1.33637
20
0.627191
11
1.33637
21
0.627191
0
LINE
8
BLACK
6
CONTINUOUS
10
1.33637
20
0.627191
11
1.327
21
0.631703
0
LINE
8
BLACK
6
CONTINUOUS
10
1.327
20
0.631703
11
1.327
21
0.631703
0
LINE
8
BLACK
6
CONTINUOUS
10
1.327
20
0.631703
11
1.31706
21
0.634769
0
LINE
8
BLACK
6
CONTINUOUS
10
1.31706
20
0.634769
11
1.31706
21
0.634769
0
LINE
8
BLACK
6
CONTINUOUS
10
1.31706
20
0.634769
11
1.30678
21
0.636319
0
LINE
8
BLACK
6
CONTINUOUS
10
1.30678
20
0.636319
11
1.30677
21
0.636319
0
LINE
8
BLACK
6
CONTINUOUS
10
1.30677
20
0.636319
11
1.29637
21
0.636319
0
LINE
8
BLACK
6
CONTINUOUS
10
1.29637
20
0.636319
11
1.29637
21
0.636319
0
LINE
8
BLACK
6
CONTINUOUS
10
1.29637
20
0.636319
11
1.28609
21
0.634769
0
LINE
8
BLACK
6
CONTINUOUS
10
1.28609
20
0.634769
11
1.28609
21
0.634769
0
LINE
8
BLACK
6
CONTINUOUS
10
1.28609
20
0.634769
11
1.27615
21
0.631703
0
LINE
8
BLACK
6
CONTINUOUS
10
1.27615
20
0.631703
11
1.26678
21
0.627191
0
LINE
8
BLACK
6
CONTINUOUS
10
1.26678
20
0.627191
11
1.26678
21
0.627191
0
LINE
8
BLACK
6
CONTINUOUS
10
1.26678
20
0.627191
11
1.25819
21
0.621332
0
LINE
8
BLACK
6
CONTINUOUS
10
1.25819
20
0.621332
11
1.25057
21
0.614259
0
LINE
8
BLACK
6
CONTINUOUS
10
1.25057
20
0.614259
11
1.24408
21
0.606127
0
LINE
8
BLACK
6
CONTINUOUS
10
1.24408
20
0.606127
11
1.23888
21
0.597121
0
LINE
8
BLACK
6
CONTINUOUS
10
1.23888
20
0.597121
11
1.23888
21
0.597121
0
LINE
8
BLACK
6
CONTINUOUS
10
1.23888
20
0.597121
11
1.23508
21
0.58744
0
LINE
8
BLACK
6
CONTINUOUS
10
1.23508
20
0.58744
11
1.23508
21
0.587439
0
LINE
8
BLACK
6
CONTINUOUS
10
1.23508
20
0.587439
11
1.23277
21
0.5773
0
LINE
8
BLACK
6
CONTINUOUS
10
1.23277
20
0.5773
11
1.23277
21
0.5773
0
LINE
8
BLACK
6
CONTINUOUS
10
1.23277
20
0.5773
11
1.23199
21
0.566929
0
LINE
8
BLACK
6
CONTINUOUS
10
1.23199
20
0.566929
11
1.23199
21
0.566929
0
LINE
8
BLACK
6
CONTINUOUS
10
1.23199
20
0.566929
11
1.23277
21
0.556558
0
LINE
8
BLACK
6
CONTINUOUS
10
1.42962
20
0.556558
11
1.42962
21
0.556558
0
LINE
8
BLACK
6
CONTINUOUS
10
1.42962
20
0.556558
11
1.43193
21
0.546419
0
LINE
8
BLACK
6
CONTINUOUS
10
1.43193
20
0.546419
11
1.43193
21
0.546419
0
LINE
8
BLACK
6
CONTINUOUS
10
1.43193
20
0.546419
11
1.43573
21
0.536738
0
LINE
8
BLACK
6
CONTINUOUS
10
1.43573
20
0.536738
11
1.44093
21
0.527731
0
LINE
8
BLACK
6
CONTINUOUS
10
1.44093
20
0.527731
11
1.44617
21
0.521163
0
LINE
8
BLACK
6
CONTINUOUS
10
1.44617
20
0.521163
11
1.44742
21
0.5196
0
LINE
8
BLACK
6
CONTINUOUS
10
1.44742
20
0.5196
11
1.45461
21
0.512922
0
LINE
8
BLACK
6
CONTINUOUS
10
1.45461
20
0.512922
11
1.45504
21
0.512526
0
LINE
8
BLACK
6
CONTINUOUS
10
1.45504
20
0.512526
11
1.46363
21
0.506667
0
LINE
8
BLACK
6
CONTINUOUS
10
1.46363
20
0.506667
11
1.46363
21
0.506667
0
LINE
8
BLACK
6
CONTINUOUS
10
1.46363
20
0.506667
11
1.46363
21
0.506667
0
LINE
8
BLACK
6
CONTINUOUS
10
1.46363
20
0.506667
11
1.46363
21
0.506667
0
LINE
8
BLACK
6
CONTINUOUS
10
1.46363
20
0.506667
11
1.46861
21
0.504271
0
LINE
8
BLACK
6
CONTINUOUS
10
1.46861
20
0.504271
11
1.473
21
0.502155
0
LINE
8
BLACK
6
CONTINUOUS
10
1.473
20
0.502155
11
1.473
21
0.502155
0
LINE
8
BLACK
6
CONTINUOUS
10
1.473
20
0.502155
11
1.473
21
0.502155
0
LINE
8
BLACK
6
CONTINUOUS
10
1.473
20
0.502155
11
1.48294
21
0.499089
0
LINE
8
BLACK
6
CONTINUOUS
10
1.48294
20
0.499089
11
1.48294
21
0.499089
0
LINE
8
BLACK
6
CONTINUOUS
10
1.48294
20
0.499089
11
1.48294
21
0.499089
0
LINE
8
BLACK
6
CONTINUOUS
10
1.48294
20
0.499089
11
1.49322
21
0.497539
0
LINE
8
BLACK
6
CONTINUOUS
10
1.49322
20
0.497539
11
1.49323
21
0.497539
0
LINE
8
BLACK
6
CONTINUOUS
10
1.49323
20
0.497539
11
1.49323
21
0.497539
0
LINE
8
BLACK
6
CONTINUOUS
10
1.49323
20
0.497539
11
1.49323
21
0.497539
0
LINE
8
BLACK
6
CONTINUOUS
10
1.49323
20
0.497539
11
1.50363
21
0.497539
0
LINE
8
BLACK
6
CONTINUOUS
10
1.50363
20
0.497539
11
1.50363
21
0.497539
0
LINE
8
BLACK
6
CONTINUOUS
10
1.50363
20
0.497539
11
1.50363
21
0.497539
0
LINE
8
BLACK
6
CONTINUOUS
10
1.50363
20
0.497539
11
1.51391
21
0.499089
0
LINE
8
BLACK
6
CONTINUOUS
10
1.51391
20
0.499089
11
1.51391
21
0.499089
0
LINE
8
BLACK
6
CONTINUOUS
10
1.51391
20
0.499089
11
1.51391
21
0.499089
0
LINE
8
BLACK
6
CONTINUOUS
10
1.51391
20
0.499089
11
1.52385
21
0.502155
0
LINE
8
BLACK
6
CONTINUOUS
10
1.52385
20
0.502155
11
1.53322
21
0.506667
0
LINE
8
BLACK
6
CONTINUOUS
10
1.53322
20
0.506667
11
1.54181
21
0.512526
0
LINE
8
BLACK
6
CONTINUOUS
10
1.54181
20
0.512526
11
1.54943
21
0.5196
0
LINE
8
BLACK
6
CONTINUOUS
10
1.54943
20
0.5196
11
1.55592
21
0.527731
0
LINE
8
BLACK
6
CONTINUOUS
10
1.55592
20
0.527731
11
1.56112
21
0.536738
0
LINE
8
BLACK
6
CONTINUOUS
10
1.56112
20
0.536738
11
1.56492
21
0.546419
0
LINE
8
BLACK
6
CONTINUOUS
10
1.56492
20
0.546419
11
1.56723
21
0.556558
0
LINE
8
BLACK
6
CONTINUOUS
10
1.56723
20
0.556558
11
1.56801
21
0.566929
0
LINE
8
BLACK
6
CONTINUOUS
10
1.56801
20
0.566929
11
1.56723
21
0.5773
0
LINE
8
BLACK
6
CONTINUOUS
10
1.56723
20
0.5773
11
1.56492
21
0.587439
0
LINE
8
BLACK
6
CONTINUOUS
10
1.56492
20
0.587439
11
1.56112
21
0.597121
0
LINE
8
BLACK
6
CONTINUOUS
10
1.56112
20
0.597121
11
1.55592
21
0.606127
0
LINE
8
BLACK
6
CONTINUOUS
10
1.55592
20
0.606127
11
1.54943
21
0.614259
0
LINE
8
BLACK
6
CONTINUOUS
10
1.54943
20
0.614259
11
1.54943
21
0.614259
0
LINE
8
BLACK
6
CONTINUOUS
10
1.54943
20
0.614259
11
1.54943
21
0.614259
0
LINE
8
BLACK
6
CONTINUOUS
10
1.54943
20
0.614259
11
1.54181
21
0.621332
0
LINE
8
BLACK
6
CONTINUOUS
10
1.54181
20
0.621332
11
1.54181
21
0.621332
0
LINE
8
BLACK
6
CONTINUOUS
10
1.54181
20
0.621332
11
1.53322
21
0.627191
0
LINE
8
BLACK
6
CONTINUOUS
10
1.53322
20
0.627191
11
1.53322
21
0.627191
0
LINE
8
BLACK
6
CONTINUOUS
10
1.53322
20
0.627191
11
1.53322
21
0.627191
0
LINE
8
BLACK
6
CONTINUOUS
10
1.53322
20
0.627191
11
1.53322
21
0.627191
0
LINE
8
BLACK
6
CONTINUOUS
10
1.53322
20
0.627191
11
1.52385
21
0.631703
0
LINE
8
BLACK
6
CONTINUOUS
10
1.52385
20
0.631703
11
1.52385
21
0.631703
0
LINE
8
BLACK
6
CONTINUOUS
10
1.52385
20
0.631703
11
1.51391
21
0.634769
0
LINE
8
BLACK
6
CONTINUOUS
10
1.51391
20
0.634769
11
1.51391
21
0.634769
0
LINE
8
BLACK
6
CONTINUOUS
10
1.51391
20
0.634769
11
1.50363
21
0.636319
0
LINE
8
BLACK
6
CONTINUOUS
10
1.50363
20
0.636319
11
1.50363
21
0.636319
0
LINE
8
BLACK
6
CONTINUOUS
10
1.50363
20
0.636319
11
1.49323
21
0.636319
0
LINE
8
BLACK
6
CONTINUOUS
10
1.49323
20
0.636319
11
1.49322
21
0.636319
0
LINE
8
BLACK
6
CONTINUOUS
10
1.49322
20
0.636319
11
1.48294
21
0.634769
0
LINE
8
BLACK
6
CONTINUOUS
10
1.48294
20
0.634769
11
1.48294
21
0.634769
0
LINE
8
BLACK
6
CONTINUOUS
10
1.48294
20
0.634769
11
1.473
21
0.631703
0
LINE
8
BLACK
6
CONTINUOUS
10
1.473
20
0.631703
11
1.46363
21
0.627191
0
LINE
8
BLACK
6
CONTINUOUS
10
1.46363
20
0.627191
11
1.46363
21
0.627191
0
LINE
8
BLACK
6
CONTINUOUS
10
1.46363
20
0.627191
11
1.45504
21
0.621332
0
LINE
8
BLACK
6
CONTINUOUS
10
1.45504
20
0.621332
11
1.44742
21
0.614259
0
LINE
8
BLACK
6
CONTINUOUS
10
1.44742
20
0.614259
11
1.44093
21
0.606127
0
LINE
8
BLACK
6
CONTINUOUS
10
1.44093
20
0.606127
11
1.43573
21
0.597121
0
LINE
8
BLACK
6
CONTINUOUS
10
1.43573
20
0.597121
11
1.43573
21
0.597121
0
LINE
8
BLACK
6
CONTINUOUS
10
1.43573
20
0.597121
11
1.43193
21
0.58744
0
LINE
8
BLACK
6
CONTINUOUS
10
1.43193
20
0.58744
11
1.43193
21
0.587439
0
LINE
8
BLACK
6
CONTINUOUS
10
1.43193
20
0.587439
11
1.42962
21
0.5773
0
LINE
8
BLACK
6
CONTINUOUS
10
1.42962
20
0.5773
11
1.42962
21
0.5773
0
LINE
8
BLACK
6
CONTINUOUS
10
1.42962
20
0.5773
11
1.42884
21
0.566929
0
LINE
8
BLACK
6
CONTINUOUS
10
1.42884
20
0.566929
11
1.42884
21
0.566929
0
LINE
8
BLACK
6
CONTINUOUS
10
1.42884
20
0.566929
11
1.42962
21
0.556558
0
LINE
8
BLACK
6
CONTINUOUS
10
2.20024
20
0.705701
11
2.20024
21
0.705701
0
LINE
8
BLACK
6
CONTINUOUS
10
2.20024
20
0.705701
11
2.20225
21
0.700307
0
LINE
8
BLACK
6
CONTINUOUS
10
2.20225
20
0.700307
11
2.20225
21
0.700307
0
LINE
8
BLACK
6
CONTINUOUS
10
2.20225
20
0.700307
11
2.2057
21
0.695698
0
LINE
8
BLACK
6
CONTINUOUS
10
2.2057
20
0.695698
11
2.21031
21
0.692248
0
LINE
8
BLACK
6
CONTINUOUS
10
2.21031
20
0.692248
11
2.2157
21
0.690237
0
LINE
8
BLACK
6
CONTINUOUS
10
2.2157
20
0.690237
11
2.21677
21
0.690121
0
LINE
8
BLACK
6
CONTINUOUS
10
2.21677
20
0.690121
11
2.21808
21
0.68998
0
LINE
8
BLACK
6
CONTINUOUS
10
2.21808
20
0.68998
11
2.21809
21
0.68998
0
LINE
8
BLACK
6
CONTINUOUS
10
2.21809
20
0.68998
11
2.28191
21
0.68998
0
LINE
8
BLACK
6
CONTINUOUS
10
2.28191
20
0.68998
11
2.28192
21
0.68998
0
LINE
8
BLACK
6
CONTINUOUS
10
2.28192
20
0.68998
11
2.28298
21
0.690095
0
LINE
8
BLACK
6
CONTINUOUS
10
2.28298
20
0.690095
11
2.2843
21
0.690237
0
LINE
8
BLACK
6
CONTINUOUS
10
2.2843
20
0.690237
11
2.28969
21
0.692248
0
LINE
8
BLACK
6
CONTINUOUS
10
2.28969
20
0.692248
11
2.2943
21
0.695698
0
LINE
8
BLACK
6
CONTINUOUS
10
2.2943
20
0.695698
11
2.29609
21
0.69809
0
LINE
8
BLACK
6
CONTINUOUS
10
2.29609
20
0.69809
11
2.29829
21
0.699738
0
LINE
8
BLACK
6
CONTINUOUS
10
2.29829
20
0.699738
11
2.30104
21
0.699935
0
LINE
8
BLACK
6
CONTINUOUS
10
2.30104
20
0.699935
11
2.30345
21
0.698616
0
LINE
8
BLACK
6
CONTINUOUS
10
2.30345
20
0.698616
11
2.30391
21
0.69809
0
LINE
8
BLACK
6
CONTINUOUS
10
2.30391
20
0.69809
11
2.3057
21
0.695698
0
LINE
8
BLACK
6
CONTINUOUS
10
2.3057
20
0.695698
11
2.31031
21
0.692248
0
LINE
8
BLACK
6
CONTINUOUS
10
2.31031
20
0.692248
11
2.3157
21
0.690237
0
LINE
8
BLACK
6
CONTINUOUS
10
2.3157
20
0.690237
11
2.31677
21
0.690121
0
LINE
8
BLACK
6
CONTINUOUS
10
2.31677
20
0.690121
11
2.31808
21
0.68998
0
LINE
8
BLACK
6
CONTINUOUS
10
2.31808
20
0.68998
11
2.31809
21
0.68998
0
LINE
8
BLACK
6
CONTINUOUS
10
2.31809
20
0.68998
11
2.38191
21
0.68998
0
LINE
8
BLACK
6
CONTINUOUS
10
2.38191
20
0.68998
11
2.38192
21
0.68998
0
LINE
8
BLACK
6
CONTINUOUS
10
2.38192
20
0.68998
11
2.38298
21
0.690095
0
LINE
8
BLACK
6
CONTINUOUS
10
2.38298
20
0.690095
11
2.3843
21
0.690237
0
LINE
8
BLACK
6
CONTINUOUS
10
2.3843
20
0.690237
11
2.38969
21
0.692248
0
LINE
8
BLACK
6
CONTINUOUS
10
2.38969
20
0.692248
11
2.3943
21
0.695698
0
LINE
8
BLACK
6
CONTINUOUS
10
2.3943
20
0.695698
11
2.39775
21
0.700307
0
LINE
8
BLACK
6
CONTINUOUS
10
2.39775
20
0.700307
11
2.39976
21
0.705701
0
LINE
8
BLACK
6
CONTINUOUS
10
2.39976
20
0.705701
11
2.39991
21
0.70702
0
LINE
8
BLACK
6
CONTINUOUS
10
2.39991
20
0.70702
11
2.40002
21
0.708084
0
LINE
8
BLACK
6
CONTINUOUS
10
2.40002
20
0.708084
11
2.40002
21
0.708085
0
LINE
8
BLACK
6
CONTINUOUS
10
2.40002
20
0.708085
11
2.40002
21
0.771915
0
LINE
8
BLACK
6
CONTINUOUS
10
2.40002
20
0.771915
11
2.40002
21
0.771916
0
LINE
8
BLACK
6
CONTINUOUS
10
2.40002
20
0.771916
11
2.39989
21
0.773139
0
LINE
8
BLACK
6
CONTINUOUS
10
2.39989
20
0.773139
11
2.39976
21
0.774299
0
LINE
8
BLACK
6
CONTINUOUS
10
2.39976
20
0.774299
11
2.39775
21
0.779693
0
LINE
8
BLACK
6
CONTINUOUS
10
2.39775
20
0.779693
11
2.3943
21
0.784302
0
LINE
8
BLACK
6
CONTINUOUS
10
2.3943
20
0.784302
11
2.38969
21
0.787752
0
LINE
8
BLACK
6
CONTINUOUS
10
2.38969
20
0.787752
11
2.38969
21
0.787752
0
LINE
8
BLACK
6
CONTINUOUS
10
2.38969
20
0.787752
11
2.3843
21
0.789763
0
LINE
8
BLACK
6
CONTINUOUS
10
2.3843
20
0.789763
11
2.38192
21
0.79002
0
LINE
8
BLACK
6
CONTINUOUS
10
2.38192
20
0.79002
11
2.38191
21
0.79002
0
LINE
8
BLACK
6
CONTINUOUS
10
2.38191
20
0.79002
11
2.31809
21
0.79002
0
LINE
8
BLACK
6
CONTINUOUS
10
2.31809
20
0.79002
11
2.31808
21
0.79002
0
LINE
8
BLACK
6
CONTINUOUS
10
2.31808
20
0.79002
11
2.3157
21
0.789763
0
LINE
8
BLACK
6
CONTINUOUS
10
2.3157
20
0.789763
11
2.3157
21
0.789763
0
LINE
8
BLACK
6
CONTINUOUS
10
2.3157
20
0.789763
11
2.31031
21
0.787752
0
LINE
8
BLACK
6
CONTINUOUS
10
2.31031
20
0.787752
11
2.3057
21
0.784302
0
LINE
8
BLACK
6
CONTINUOUS
10
2.3057
20
0.784302
11
2.30391
21
0.78191
0
LINE
8
BLACK
6
CONTINUOUS
10
2.30391
20
0.78191
11
2.30171
21
0.780262
0
LINE
8
BLACK
6
CONTINUOUS
10
2.30171
20
0.780262
11
2.29896
21
0.780065
0
LINE
8
BLACK
6
CONTINUOUS
10
2.29896
20
0.780065
11
2.29655
21
0.781384
0
LINE
8
BLACK
6
CONTINUOUS
10
2.29655
20
0.781384
11
2.29609
21
0.78191
0
LINE
8
BLACK
6
CONTINUOUS
10
2.29609
20
0.78191
11
2.2943
21
0.784302
0
LINE
8
BLACK
6
CONTINUOUS
10
2.2943
20
0.784302
11
2.2943
21
0.784302
0
LINE
8
BLACK
6
CONTINUOUS
10
2.2943
20
0.784302
11
2.2943
21
0.784302
0
LINE
8
BLACK
6
CONTINUOUS
10
2.2943
20
0.784302
11
2.28969
21
0.787752
0
LINE
8
BLACK
6
CONTINUOUS
10
2.28969
20
0.787752
11
2.28969
21
0.787752
0
LINE
8
BLACK
6
CONTINUOUS
10
2.28969
20
0.787752
11
2.2843
21
0.789763
0
LINE
8
BLACK
6
CONTINUOUS
10
2.2843
20
0.789763
11
2.28192
21
0.79002
0
LINE
8
BLACK
6
CONTINUOUS
10
2.28192
20
0.79002
11
2.28191
21
0.79002
0
LINE
8
BLACK
6
CONTINUOUS
10
2.28191
20
0.79002
11
2.21809
21
0.79002
0
LINE
8
BLACK
6
CONTINUOUS
10
2.21809
20
0.79002
11
2.21808
21
0.79002
0
LINE
8
BLACK
6
CONTINUOUS
10
2.21808
20
0.79002
11
2.2157
21
0.789763
0
LINE
8
BLACK
6
CONTINUOUS
10
2.2157
20
0.789763
11
2.2157
21
0.789763
0
LINE
8
BLACK
6
CONTINUOUS
10
2.2157
20
0.789763
11
2.21031
21
0.787752
0
LINE
8
BLACK
6
CONTINUOUS
10
2.21031
20
0.787752
11
2.2057
21
0.784302
0
LINE
8
BLACK
6
CONTINUOUS
10
2.2057
20
0.784302
11
2.20225
21
0.779693
0
LINE
8
BLACK
6
CONTINUOUS
10
2.20225
20
0.779693
11
2.20024
21
0.774299
0
LINE
8
BLACK
6
CONTINUOUS
10
2.20024
20
0.774299
11
2.20024
21
0.774299
0
LINE
8
BLACK
6
CONTINUOUS
10
2.20024
20
0.774299
11
2.19998
21
0.771916
0
LINE
8
BLACK
6
CONTINUOUS
10
2.19998
20
0.771916
11
2.19998
21
0.708084
0
LINE
8
BLACK
6
CONTINUOUS
10
2.19998
20
0.708084
11
2.20024
21
0.705701
0
LINE
8
BLACK
6
CONTINUOUS
10
0.964821
20
0.892523
11
0.964821
21
0.892522
0
LINE
8
BLACK
6
CONTINUOUS
10
0.964821
20
0.892522
11
0.967144
21
0.885372
0
LINE
8
BLACK
6
CONTINUOUS
10
0.967144
20
0.885372
11
0.967145
21
0.885372
0
LINE
8
BLACK
6
CONTINUOUS
10
0.967145
20
0.885372
11
0.970904
21
0.87886
0
LINE
8
BLACK
6
CONTINUOUS
10
0.970904
20
0.87886
11
0.975935
21
0.873273
0
LINE
8
BLACK
6
CONTINUOUS
10
0.975935
20
0.873273
11
0.982018
21
0.868854
0
LINE
8
BLACK
6
CONTINUOUS
10
0.982018
20
0.868854
11
0.988886
21
0.865796
0
LINE
8
BLACK
6
CONTINUOUS
10
0.988886
20
0.865796
11
0.996241
21
0.864232
0
LINE
8
BLACK
6
CONTINUOUS
10
0.996241
20
0.864232
11
1.00376
21
0.864232
0
LINE
8
BLACK
6
CONTINUOUS
10
1.00376
20
0.864232
11
1.01111
21
0.865796
0
LINE
8
BLACK
6
CONTINUOUS
10
1.01111
20
0.865796
11
1.01111
21
0.865796
0
LINE
8
BLACK
6
CONTINUOUS
10
1.01111
20
0.865796
11
1.01136
21
0.865875
0
LINE
8
BLACK
6
CONTINUOUS
10
1.01136
20
0.865875
11
1.01137
21
0.865841
0
LINE
8
BLACK
6
CONTINUOUS
10
1.01137
20
0.865841
11
1.01306
21
0.866201
0
LINE
8
BLACK
6
CONTINUOUS
10
1.01306
20
0.866201
11
1.30694
21
0.866201
0
LINE
8
BLACK
6
CONTINUOUS
10
1.30694
20
0.866201
11
1.30863
21
0.865841
0
LINE
8
BLACK
6
CONTINUOUS
10
1.30863
20
0.865841
11
1.30864
21
0.865875
0
LINE
8
BLACK
6
CONTINUOUS
10
1.30864
20
0.865875
11
1.30889
21
0.865796
0
LINE
8
BLACK
6
CONTINUOUS
10
1.30889
20
0.865796
11
1.30889
21
0.865796
0
LINE
8
BLACK
6
CONTINUOUS
10
1.30889
20
0.865796
11
1.31624
21
0.864232
0
LINE
8
BLACK
6
CONTINUOUS
10
1.31624
20
0.864232
11
1.32376
21
0.864232
0
LINE
8
BLACK
6
CONTINUOUS
10
1.32376
20
0.864232
11
1.33111
21
0.865796
0
LINE
8
BLACK
6
CONTINUOUS
10
1.33111
20
0.865796
11
1.33111
21
0.865796
0
LINE
8
BLACK
6
CONTINUOUS
10
1.33111
20
0.865796
11
1.33136
21
0.865875
0
LINE
8
BLACK
6
CONTINUOUS
10
1.33136
20
0.865875
11
1.33137
21
0.865841
0
LINE
8
BLACK
6
CONTINUOUS
10
1.33137
20
0.865841
11
1.33306
21
0.866201
0
LINE
8
BLACK
6
CONTINUOUS
10
1.33306
20
0.866201
11
1.43694
21
0.866201
0
LINE
8
BLACK
6
CONTINUOUS
10
1.43694
20
0.866201
11
1.43863
21
0.865841
0
LINE
8
BLACK
6
CONTINUOUS
10
1.43863
20
0.865841
11
1.43864
21
0.865875
0
LINE
8
BLACK
6
CONTINUOUS
10
1.43864
20
0.865875
11
1.43889
21
0.865796
0
LINE
8
BLACK
6
CONTINUOUS
10
1.43889
20
0.865796
11
1.43889
21
0.865796
0
LINE
8
BLACK
6
CONTINUOUS
10
1.43889
20
0.865796
11
1.44624
21
0.864232
0
LINE
8
BLACK
6
CONTINUOUS
10
1.44624
20
0.864232
11
1.45376
21
0.864232
0
LINE
8
BLACK
6
CONTINUOUS
10
1.45376
20
0.864232
11
1.46111
21
0.865796
0
LINE
8
BLACK
6
CONTINUOUS
10
1.46111
20
0.865796
11
1.46111
21
0.865796
0
LINE
8
BLACK
6
CONTINUOUS
10
1.46111
20
0.865796
11
1.46136
21
0.865875
0
LINE
8
BLACK
6
CONTINUOUS
10
1.46136
20
0.865875
11
1.46137
21
0.865841
0
LINE
8
BLACK
6
CONTINUOUS
10
1.46137
20
0.865841
11
1.46306
21
0.866201
0
LINE
8
BLACK
6
CONTINUOUS
10
1.46306
20
0.866201
11
1.63853
21
0.866201
0
LINE
8
BLACK
6
CONTINUOUS
10
1.63853
20
0.866201
11
1.63873
21
0.866193
0
LINE
8
BLACK
6
CONTINUOUS
10
1.63873
20
0.866193
11
1.63961
21
0.866121
0
LINE
8
BLACK
6
CONTINUOUS
10
1.63961
20
0.866121
11
1.64092
21
0.866014
0
LINE
8
BLACK
6
CONTINUOUS
10
1.64092
20
0.866014
11
1.64411
21
0.866448
0
LINE
8
BLACK
6
CONTINUOUS
10
1.64411
20
0.866448
11
1.64731
21
0.866796
0
LINE
8
BLACK
6
CONTINUOUS
10
1.64731
20
0.866796
11
1.64731
21
0.866796
0
LINE
8
BLACK
6
CONTINUOUS
10
1.64731
20
0.866796
11
1.64733
21
0.8668
0
LINE
8
BLACK
6
CONTINUOUS
10
1.64733
20
0.8668
11
1.64819
21
0.867002
0
LINE
8
BLACK
6
CONTINUOUS
10
1.64819
20
0.867002
11
1.6482
21
0.867006
0
LINE
8
BLACK
6
CONTINUOUS
10
1.6482
20
0.867006
11
1.64821
21
0.867006
0
LINE
8
BLACK
6
CONTINUOUS
10
1.64821
20
0.867006
11
1.65123
21
0.868116
0
LINE
8
BLACK
6
CONTINUOUS
10
1.65123
20
0.868116
11
1.65428
21
0.869144
0
LINE
8
BLACK
6
CONTINUOUS
10
1.65428
20
0.869144
11
1.65428
21
0.869144
0
LINE
8
BLACK
6
CONTINUOUS
10
1.65428
20
0.869144
11
1.65429
21
0.86915
0
LINE
8
BLACK
6
CONTINUOUS
10
1.65429
20
0.86915
11
1.65509
21
0.869535
0
LINE
8
BLACK
6
CONTINUOUS
10
1.65509
20
0.869535
11
1.65511
21
0.869542
0
LINE
8
BLACK
6
CONTINUOUS
10
1.65511
20
0.869542
11
1.65511
21
0.869542
0
LINE
8
BLACK
6
CONTINUOUS
10
1.65511
20
0.869542
11
1.65782
21
0.871275
0
LINE
8
BLACK
6
CONTINUOUS
10
1.65782
20
0.871275
11
1.66057
21
0.872934
0
LINE
8
BLACK
6
CONTINUOUS
10
1.66057
20
0.872934
11
1.66058
21
0.872934
0
LINE
8
BLACK
6
CONTINUOUS
10
1.66058
20
0.872934
11
1.66059
21
0.872944
0
LINE
8
BLACK
6
CONTINUOUS
10
1.66059
20
0.872944
11
1.66129
21
0.873493
0
LINE
8
BLACK
6
CONTINUOUS
10
1.66129
20
0.873493
11
1.6613
21
0.873501
0
LINE
8
BLACK
6
CONTINUOUS
10
1.6613
20
0.873501
11
1.6613
21
0.873501
0
LINE
8
BLACK
6
CONTINUOUS
10
1.6613
20
0.873501
11
1.6613
21
0.873501
0
LINE
8
BLACK
6
CONTINUOUS
10
1.6613
20
0.873501
11
1.66358
21
0.875778
0
LINE
8
BLACK
6
CONTINUOUS
10
1.66358
20
0.875778
11
1.66591
21
0.87799
0
LINE
8
BLACK
6
CONTINUOUS
10
1.66591
20
0.87799
11
1.66591
21
0.87799
0
LINE
8
BLACK
6
CONTINUOUS
10
1.66591
20
0.87799
11
1.66591
21
0.87799
0
LINE
8
BLACK
6
CONTINUOUS
10
1.66591
20
0.87799
11
1.66592
21
0.878
0
LINE
8
BLACK
6
CONTINUOUS
10
1.66592
20
0.878
11
1.6665
21
0.878701
0
LINE
8
BLACK
6
CONTINUOUS
10
1.6665
20
0.878701
11
1.73257
21
0.944771
0
LINE
8
BLACK
6
CONTINUOUS
10
1.73257
20
0.944771
11
1.73498
21
0.946089
0
LINE
8
BLACK
6
CONTINUOUS
10
1.73498
20
0.946089
11
1.73602
21
0.946201
0
LINE
8
BLACK
6
CONTINUOUS
10
1.73602
20
0.946201
11
1.80694
21
0.946201
0
LINE
8
BLACK
6
CONTINUOUS
10
1.80694
20
0.946201
11
1.80863
21
0.945841
0
LINE
8
BLACK
6
CONTINUOUS
10
1.80863
20
0.945841
11
1.80864
21
0.945875
0
LINE
8
BLACK
6
CONTINUOUS
10
1.80864
20
0.945875
11
1.80889
21
0.945796
0
LINE
8
BLACK
6
CONTINUOUS
10
1.80889
20
0.945796
11
1.80889
21
0.945796
0
LINE
8
BLACK
6
CONTINUOUS
10
1.80889
20
0.945796
11
1.81624
21
0.944232
0
LINE
8
BLACK
6
CONTINUOUS
10
1.81624
20
0.944232
11
1.82376
21
0.944232
0
LINE
8
BLACK
6
CONTINUOUS
10
1.82376
20
0.944232
11
1.83111
21
0.945796
0
LINE
8
BLACK
6
CONTINUOUS
10
1.83111
20
0.945796
11
1.83798
21
0.948854
0
LINE
8
BLACK
6
CONTINUOUS
10
1.83798
20
0.948854
11
1.84407
21
0.953273
0
LINE
8
BLACK
6
CONTINUOUS
10
1.84407
20
0.953273
11
1.8491
21
0.95886
0
LINE
8
BLACK
6
CONTINUOUS
10
1.8491
20
0.95886
11
1.85286
21
0.965372
0
LINE
8
BLACK
6
CONTINUOUS
10
1.85286
20
0.965372
11
1.85518
21
0.972523
0
LINE
8
BLACK
6
CONTINUOUS
10
1.85518
20
0.972523
11
1.85596
21
0.98
0
LINE
8
BLACK
6
CONTINUOUS
10
1.85596
20
0.98
11
1.85518
21
0.987477
0
LINE
8
BLACK
6
CONTINUOUS
10
1.85518
20
0.987477
11
1.85286
21
0.994628
0
LINE
8
BLACK
6
CONTINUOUS
10
1.85286
20
0.994628
11
1.8491
21
1.00114
0
LINE
8
BLACK
6
CONTINUOUS
10
1.8491
20
1.00114
11
1.84407
21
1.00673
0
LINE
8
BLACK
6
CONTINUOUS
10
1.84407
20
1.00673
11
1.83798
21
1.01115
0
LINE
8
BLACK
6
CONTINUOUS
10
1.83798
20
1.01115
11
1.83111
21
1.0142
0
LINE
8
BLACK
6
CONTINUOUS
10
1.83111
20
1.0142
11
1.83111
21
1.0142
0
LINE
8
BLACK
6
CONTINUOUS
10
1.83111
20
1.0142
11
1.82376
21
1.01577
0
LINE
8
BLACK
6
CONTINUOUS
10
1.82376
20
1.01577
11
1.81624
21
1.01577
0
LINE
8
BLACK
6
CONTINUOUS
10
1.81624
20
1.01577
11
1.80889
21
1.0142
0
LINE
8
BLACK
6
CONTINUOUS
10
1.80889
20
1.0142
11
1.80864
21
1.01413
0
LINE
8
BLACK
6
CONTINUOUS
10
1.80864
20
1.01413
11
1.80863
21
1.01416
0
LINE
8
BLACK
6
CONTINUOUS
10
1.80863
20
1.01416
11
1.80694
21
1.0138
0
LINE
8
BLACK
6
CONTINUOUS
10
1.80694
20
1.0138
11
1.72147
21
1.0138
0
LINE
8
BLACK
6
CONTINUOUS
10
1.72147
20
1.0138
11
1.72127
21
1.01381
0
LINE
8
BLACK
6
CONTINUOUS
10
1.72127
20
1.01381
11
1.71908
21
1.01399
0
LINE
8
BLACK
6
CONTINUOUS
10
1.71908
20
1.01399
11
1.71589
21
1.01355
0
LINE
8
BLACK
6
CONTINUOUS
10
1.71589
20
1.01355
11
1.71269
21
1.0132
0
LINE
8
BLACK
6
CONTINUOUS
10
1.71269
20
1.0132
11
1.71268
21
1.0132
0
LINE
8
BLACK
6
CONTINUOUS
10
1.71268
20
1.0132
11
1.7118
21
1.013
0
LINE
8
BLACK
6
CONTINUOUS
10
1.7118
20
1.013
11
1.71179
21
1.01299
0
LINE
8
BLACK
6
CONTINUOUS
10
1.71179
20
1.01299
11
1.70877
21
1.01188
0
LINE
8
BLACK
6
CONTINUOUS
10
1.70877
20
1.01188
11
1.70572
21
1.01086
0
LINE
8
BLACK
6
CONTINUOUS
10
1.70572
20
1.01086
11
1.70572
21
1.01085
0
LINE
8
BLACK
6
CONTINUOUS
10
1.70572
20
1.01085
11
1.7049
21
1.01046
0
LINE
8
BLACK
6
CONTINUOUS
10
1.7049
20
1.01046
11
1.70489
21
1.01046
0
LINE
8
BLACK
6
CONTINUOUS
10
1.70489
20
1.01046
11
1.70218
21
1.00873
0
LINE
8
BLACK
6
CONTINUOUS
10
1.70218
20
1.00873
11
1.69942
21
1.00707
0
LINE
8
BLACK
6
CONTINUOUS
10
1.69942
20
1.00707
11
1.69942
21
1.00706
0
LINE
8
BLACK
6
CONTINUOUS
10
1.69942
20
1.00706
11
1.6987
21
1.0065
0
LINE
8
BLACK
6
CONTINUOUS
10
1.6987
20
1.0065
11
1.6987
21
1.0065
0
LINE
8
BLACK
6
CONTINUOUS
10
1.6987
20
1.0065
11
1.69642
21
1.00422
0
LINE
8
BLACK
6
CONTINUOUS
10
1.69642
20
1.00422
11
1.69409
21
1.00201
0
LINE
8
BLACK
6
CONTINUOUS
10
1.69409
20
1.00201
11
1.69408
21
1.002
0
LINE
8
BLACK
6
CONTINUOUS
10
1.69408
20
1.002
11
1.6935
21
1.0013
0
LINE
8
BLACK
6
CONTINUOUS
10
1.6935
20
1.0013
11
1.62743
21
0.935229
0
LINE
8
BLACK
6
CONTINUOUS
10
1.62743
20
0.935229
11
1.62502
21
0.933911
0
LINE
8
BLACK
6
CONTINUOUS
10
1.62502
20
0.933911
11
1.62398
21
0.933799
0
LINE
8
BLACK
6
CONTINUOUS
10
1.62398
20
0.933799
11
1.46306
21
0.933799
0
LINE
8
BLACK
6
CONTINUOUS
10
1.46306
20
0.933799
11
1.46137
21
0.934159
0
LINE
8
BLACK
6
CONTINUOUS
10
1.46137
20
0.934159
11
1.46136
21
0.934125
0
LINE
8
BLACK
6
CONTINUOUS
10
1.46136
20
0.934125
11
1.46111
21
0.934205
0
LINE
8
BLACK
6
CONTINUOUS
10
1.46111
20
0.934205
11
1.45376
21
0.935768
0
LINE
8
BLACK
6
CONTINUOUS
10
1.45376
20
0.935768
11
1.44624
21
0.935768
0
LINE
8
BLACK
6
CONTINUOUS
10
1.44624
20
0.935768
11
1.43889
21
0.934205
0
LINE
8
BLACK
6
CONTINUOUS
10
1.43889
20
0.934205
11
1.43864
21
0.934125
0
LINE
8
BLACK
6
CONTINUOUS
10
1.43864
20
0.934125
11
1.43863
21
0.934159
0
LINE
8
BLACK
6
CONTINUOUS
10
1.43863
20
0.934159
11
1.43694
21
0.933799
0
LINE
8
BLACK
6
CONTINUOUS
10
1.43694
20
0.933799
11
1.33306
21
0.933799
0
LINE
8
BLACK
6
CONTINUOUS
10
1.33306
20
0.933799
11
1.33137
21
0.934159
0
LINE
8
BLACK
6
CONTINUOUS
10
1.33137
20
0.934159
11
1.33136
21
0.934125
0
LINE
8
BLACK
6
CONTINUOUS
10
1.33136
20
0.934125
11
1.33111
21
0.934205
0
LINE
8
BLACK
6
CONTINUOUS
10
1.33111
20
0.934205
11
1.32376
21
0.935768
0
LINE
8
BLACK
6
CONTINUOUS
10
1.32376
20
0.935768
11
1.31624
21
0.935768
0
LINE
8
BLACK
6
CONTINUOUS
10
1.31624
20
0.935768
11
1.30889
21
0.934205
0
LINE
8
BLACK
6
CONTINUOUS
10
1.30889
20
0.934205
11
1.30864
21
0.934125
0
LINE
8
BLACK
6
CONTINUOUS
10
1.30864
20
0.934125
11
1.30863
21
0.934159
0
LINE
8
BLACK
6
CONTINUOUS
10
1.30863
20
0.934159
11
1.30694
21
0.933799
0
LINE
8
BLACK
6
CONTINUOUS
10
1.30694
20
0.933799
11
1.01306
21
0.933799
0
LINE
8
BLACK
6
CONTINUOUS
10
1.01306
20
0.933799
11
1.01137
21
0.934159
0
LINE
8
BLACK
6
CONTINUOUS
10
1.01137
20
0.934159
11
1.01136
21
0.934125
0
LINE
8
BLACK
6
CONTINUOUS
10
1.01136
20
0.934125
11
1.01111
21
0.934205
0
LINE
8
BLACK
6
CONTINUOUS
10
1.01111
20
0.934205
11
1.00376
21
0.935768
0
LINE
8
BLACK
6
CONTINUOUS
10
1.00376
20
0.935768
11
0.996241
21
0.935768
0
LINE
8
BLACK
6
CONTINUOUS
10
0.996241
20
0.935768
11
0.988886
21
0.934205
0
LINE
8
BLACK
6
CONTINUOUS
10
0.988886
20
0.934205
11
0.982018
21
0.931146
0
LINE
8
BLACK
6
CONTINUOUS
10
0.982018
20
0.931146
11
0.975935
21
0.926727
0
LINE
8
BLACK
6
CONTINUOUS
10
0.975935
20
0.926727
11
0.970904
21
0.921139
0
LINE
8
BLACK
6
CONTINUOUS
10
0.970904
20
0.921139
11
0.967145
21
0.914628
0
LINE
8
BLACK
6
CONTINUOUS
10
0.967145
20
0.914628
11
0.967144
21
0.914628
0
LINE
8
BLACK
6
CONTINUOUS
10
0.967144
20
0.914628
11
0.964843
21
0.907545
0
LINE
8
BLACK
6
CONTINUOUS
10
0.964843
20
0.907545
11
0.964821
21
0.907477
0
LINE
8
BLACK
6
CONTINUOUS
10
0.964821
20
0.907477
11
0.964035
21
0.9
0
LINE
8
BLACK
6
CONTINUOUS
10
0.964035
20
0.9
11
0.964821
21
0.892523
0
LINE
8
BLACK
6
CONTINUOUS
10
0.260315
20
0.945157
11
0.260315
21
0.923116
0
LINE
8
BLACK
6
CONTINUOUS
10
0.260315
20
0.923116
11
0.260567
21
0.920773
0
LINE
8
BLACK
6
CONTINUOUS
10
0.260567
20
0.920773
11
0.260567
21
0.920772
0
LINE
8
BLACK
6
CONTINUOUS
10
0.260567
20
0.920772
11
0.262545
21
0.915469
0
LINE
8
BLACK
6
CONTINUOUS
10
0.262545
20
0.915469
11
0.262545
21
0.915469
0
LINE
8
BLACK
6
CONTINUOUS
10
0.262545
20
0.915469
11
0.265937
21
0.910938
0
LINE
8
BLACK
6
CONTINUOUS
10
0.265937
20
0.910938
11
0.265937
21
0.910937
0
LINE
8
BLACK
6
CONTINUOUS
10
0.265937
20
0.910937
11
0.270469
21
0.907545
0
LINE
8
BLACK
6
CONTINUOUS
10
0.270469
20
0.907545
11
0.270469
21
0.907545
0
LINE
8
BLACK
6
CONTINUOUS
10
0.270469
20
0.907545
11
0.275772
21
0.905567
0
LINE
8
BLACK
6
CONTINUOUS
10
0.275772
20
0.905567
11
0.275773
21
0.905567
0
LINE
8
BLACK
6
CONTINUOUS
10
0.275773
20
0.905567
11
0.278116
21
0.905315
0
LINE
8
BLACK
6
CONTINUOUS
10
0.278116
20
0.905315
11
0.278117
21
0.905315
0
LINE
8
BLACK
6
CONTINUOUS
10
0.278117
20
0.905315
11
0.300157
21
0.905315
0
LINE
8
BLACK
6
CONTINUOUS
10
0.300157
20
0.905315
11
0.300157
21
0.925
0
LINE
8
BLACK
6
CONTINUOUS
10
0.300157
20
0.925
11
0.28
21
0.925
0
LINE
8
BLACK
6
CONTINUOUS
10
0.28
20
0.925
11
0.28
21
0.945157
0
LINE
8
BLACK
6
CONTINUOUS
10
0.28
20
0.945157
11
0.260315
21
0.945157
0
LINE
8
BLACK
6
CONTINUOUS
10
0.34
20
0.945157
11
0.34
21
0.925
0
LINE
8
BLACK
6
CONTINUOUS
10
0.34
20
0.925
11
0.319843
21
0.925
0
LINE
8
BLACK
6
CONTINUOUS
10
0.319843
20
0.925
11
0.319843
21
0.905315
0
LINE
8
BLACK
6
CONTINUOUS
10
0.319843
20
0.905315
11
0.341883
21
0.905315
0
LINE
8
BLACK
6
CONTINUOUS
10
0.341883
20
0.905315
11
0.341884
21
0.905315
0
LINE
8
BLACK
6
CONTINUOUS
10
0.341884
20
0.905315
11
0.344227
21
0.905567
0
LINE
8
BLACK
6
CONTINUOUS
10
0.344227
20
0.905567
11
0.344228
21
0.905567
0
LINE
8
BLACK
6
CONTINUOUS
10
0.344228
20
0.905567
11
0.349531
21
0.907545
0
LINE
8
BLACK
6
CONTINUOUS
10
0.349531
20
0.907545
11
0.349531
21
0.907545
0
LINE
8
BLACK
6
CONTINUOUS
10
0.349531
20
0.907545
11
0.354062
21
0.910937
0
LINE
8
BLACK
6
CONTINUOUS
10
0.354062
20
0.910937
11
0.356092
21
0.913648
0
LINE
8
BLACK
6
CONTINUOUS
10
0.356092
20
0.913648
11
0.358294
21
0.915297
0
LINE
8
BLACK
6
CONTINUOUS
10
0.358294
20
0.915297
11
0.361038
21
0.915493
0
LINE
8
BLACK
6
CONTINUOUS
10
0.361038
20
0.915493
11
0.363452
21
0.914175
0
LINE
8
BLACK
6
CONTINUOUS
10
0.363452
20
0.914175
11
0.363908
21
0.913648
0
LINE
8
BLACK
6
CONTINUOUS
10
0.363908
20
0.913648
11
0.365938
21
0.910937
0
LINE
8
BLACK
6
CONTINUOUS
10
0.365938
20
0.910937
11
0.370469
21
0.907545
0
LINE
8
BLACK
6
CONTINUOUS
10
0.370469
20
0.907545
11
0.370469
21
0.907545
0
LINE
8
BLACK
6
CONTINUOUS
10
0.370469
20
0.907545
11
0.375772
21
0.905567
0
LINE
8
BLACK
6
CONTINUOUS
10
0.375772
20
0.905567
11
0.375773
21
0.905567
0
LINE
8
BLACK
6
CONTINUOUS
10
0.375773
20
0.905567
11
0.378116
21
0.905315
0
LINE
8
BLACK
6
CONTINUOUS
10
0.378116
20
0.905315
11
0.378117
21
0.905315
0
LINE
8
BLACK
6
CONTINUOUS
10
0.378117
20
0.905315
11
0.400157
21
0.905315
0
LINE
8
BLACK
6
CONTINUOUS
10
0.400157
20
0.905315
11
0.400157
21
0.925
0
LINE
8
BLACK
6
CONTINUOUS
10
0.400157
20
0.925
11
0.38
21
0.925
0
LINE
8
BLACK
6
CONTINUOUS
10
0.38
20
0.925
11
0.38
21
0.945157
0
LINE
8
BLACK
6
CONTINUOUS
10
0.38
20
0.945157
11
0.34
21
0.945157
0
LINE
8
BLACK
6
CONTINUOUS
10
0.44
20
0.925
11
0.419843
21
0.925
0
LINE
8
BLACK
6
CONTINUOUS
10
0.419843
20
0.925
11
0.419842
21
0.905315
0
LINE
8
BLACK
6
CONTINUOUS
10
0.419842
20
0.905315
11
0.441883
21
0.905315
0
LINE
8
BLACK
6
CONTINUOUS
10
0.441883
20
0.905315
11
0.441884
21
0.905315
0
LINE
8
BLACK
6
CONTINUOUS
10
0.441884
20
0.905315
11
0.444227
21
0.905567
0
LINE
8
BLACK
6
CONTINUOUS
10
0.444227
20
0.905567
11
0.444228
21
0.905567
0
LINE
8
BLACK
6
CONTINUOUS
10
0.444228
20
0.905567
11
0.449531
21
0.907545
0
LINE
8
BLACK
6
CONTINUOUS
10
0.449531
20
0.907545
11
0.449531
21
0.907545
0
LINE
8
BLACK
6
CONTINUOUS
10
0.449531
20
0.907545
11
0.454062
21
0.910937
0
LINE
8
BLACK
6
CONTINUOUS
10
0.454062
20
0.910937
11
0.454063
21
0.910938
0
LINE
8
BLACK
6
CONTINUOUS
10
0.454063
20
0.910938
11
0.457455
21
0.915469
0
LINE
8
BLACK
6
CONTINUOUS
10
0.457455
20
0.915469
11
0.457455
21
0.915469
0
LINE
8
BLACK
6
CONTINUOUS
10
0.457455
20
0.915469
11
0.459433
21
0.920772
0
LINE
8
BLACK
6
CONTINUOUS
10
0.459433
20
0.920772
11
0.459433
21
0.920773
0
LINE
8
BLACK
6
CONTINUOUS
10
0.459433
20
0.920773
11
0.459685
21
0.923116
0
LINE
8
BLACK
6
CONTINUOUS
10
0.459685
20
0.923116
11
0.459685
21
0.923117
0
LINE
8
BLACK
6
CONTINUOUS
10
0.459685
20
0.923117
11
0.459685
21
0.945157
0
LINE
8
BLACK
6
CONTINUOUS
10
0.459685
20
0.945157
11
0.44
21
0.945157
0
LINE
8
BLACK
6
CONTINUOUS
10
0.44
20
0.945157
11
0.44
21
0.925
0
LINE
8
BLACK
6
CONTINUOUS
10
0.260237
20
1.0207
11
0.260237
21
1.0207
0
LINE
8
BLACK
6
CONTINUOUS
10
0.260237
20
1.0207
11
0.262248
21
1.01531
0
LINE
8
BLACK
6
CONTINUOUS
10
0.262248
20
1.01531
11
0.262248
21
1.01531
0
LINE
8
BLACK
6
CONTINUOUS
10
0.262248
20
1.01531
11
0.265698
21
1.0107
0
LINE
8
BLACK
6
CONTINUOUS
10
0.265698
20
1.0107
11
0.268369
21
1.0087
0
LINE
8
BLACK
6
CONTINUOUS
10
0.268369
20
1.0087
11
0.270018
21
1.0065
0
LINE
8
BLACK
6
CONTINUOUS
10
0.270018
20
1.0065
11
0.270214
21
1.00375
0
LINE
8
BLACK
6
CONTINUOUS
10
0.270214
20
1.00375
11
0.268895
21
1.00134
0
LINE
8
BLACK
6
CONTINUOUS
10
0.268895
20
1.00134
11
0.268369
21
1.00088
0
LINE
8
BLACK
6
CONTINUOUS
10
0.268369
20
1.00088
11
0.265937
21
0.999063
0
LINE
8
BLACK
6
CONTINUOUS
10
0.265937
20
0.999063
11
0.262545
21
0.994531
0
LINE
8
BLACK
6
CONTINUOUS
10
0.262545
20
0.994531
11
0.262545
21
0.994531
0
LINE
8
BLACK
6
CONTINUOUS
10
0.262545
20
0.994531
11
0.260567
21
0.989228
0
LINE
8
BLACK
6
CONTINUOUS
10
0.260567
20
0.989228
11
0.260567
21
0.989227
0
LINE
8
BLACK
6
CONTINUOUS
10
0.260567
20
0.989227
11
0.260315
21
0.986884
0
LINE
8
BLACK
6
CONTINUOUS
10
0.260315
20
0.986884
11
0.260315
21
0.964843
0
LINE
8
BLACK
6
CONTINUOUS
10
0.260315
20
0.964843
11
0.28
21
0.964843
0
LINE
8
BLACK
6
CONTINUOUS
10
0.28
20
0.964843
11
0.28
21
0.985
0
LINE
8
BLACK
6
CONTINUOUS
10
0.28
20
0.985
11
0.34
21
0.985
0
LINE
8
BLACK
6
CONTINUOUS
10
0.34
20
0.985
11
0.34
21
0.964843
0
LINE
8
BLACK
6
CONTINUOUS
10
0.34
20
0.964843
11
0.38
21
0.964843
0
LINE
8
BLACK
6
CONTINUOUS
10
0.38
20
0.964843
11
0.38
21
0.985
0
LINE
8
BLACK
6
CONTINUOUS
10
0.38
20
0.985
11
0.44
21
0.985
0
LINE
8
BLACK
6
CONTINUOUS
10
0.44
20
0.985
11
0.44
21
0.964843
0
LINE
8
BLACK
6
CONTINUOUS
10
0.44
20
0.964843
11
0.459685
21
0.964843
0
LINE
8
BLACK
6
CONTINUOUS
10
0.459685
20
0.964843
11
0.459685
21
0.986883
0
LINE
8
BLACK
6
CONTINUOUS
10
0.459685
20
0.986883
11
0.459685
21
0.986884
0
LINE
8
BLACK
6
CONTINUOUS
10
0.459685
20
0.986884
11
0.459433
21
0.989227
0
LINE
8
BLACK
6
CONTINUOUS
10
0.459433
20
0.989227
11
0.459433
21
0.989228
0
LINE
8
BLACK
6
CONTINUOUS
10
0.459433
20
0.989228
11
0.457455
21
0.994531
0
LINE
8
BLACK
6
CONTINUOUS
10
0.457455
20
0.994531
11
0.457455
21
0.994531
0
LINE
8
BLACK
6
CONTINUOUS
10
0.457455
20
0.994531
11
0.454063
21
0.999062
0
LINE
8
BLACK
6
CONTINUOUS
10
0.454063
20
0.999062
11
0.451631
21
1.00088
0
LINE
8
BLACK
6
CONTINUOUS
10
0.451631
20
1.00088
11
0.449982
21
1.00309
0
LINE
8
BLACK
6
CONTINUOUS
10
0.449982
20
1.00309
11
0.449786
21
1.00583
0
LINE
8
BLACK
6
CONTINUOUS
10
0.449786
20
1.00583
11
0.451105
21
1.00824
0
LINE
8
BLACK
6
CONTINUOUS
10
0.451105
20
1.00824
11
0.45163
21
1.0087
0
LINE
8
BLACK
6
CONTINUOUS
10
0.45163
20
1.0087
11
0.454302
21
1.0107
0
LINE
8
BLACK
6
CONTINUOUS
10
0.454302
20
1.0107
11
0.457752
21
1.01531
0
LINE
8
BLACK
6
CONTINUOUS
10
0.457752
20
1.01531
11
0.459763
21
1.0207
0
LINE
8
BLACK
6
CONTINUOUS
10
0.459763
20
1.0207
11
0.459905
21
1.02202
0
LINE
8
BLACK
6
CONTINUOUS
10
0.459905
20
1.02202
11
0.46002
21
1.02308
0
LINE
8
BLACK
6
CONTINUOUS
10
0.46002
20
1.02308
11
0.46002
21
1.02309
0
LINE
8
BLACK
6
CONTINUOUS
10
0.46002
20
1.02309
11
0.46002
21
1.08691
0
LINE
8
BLACK
6
CONTINUOUS
10
0.46002
20
1.08691
11
0.46002
21
1.08692
0
LINE
8
BLACK
6
CONTINUOUS
10
0.46002
20
1.08692
11
0.459888
21
1.08814
0
LINE
8
BLACK
6
CONTINUOUS
10
0.459888
20
1.08814
11
0.459763
21
1.0893
0
LINE
8
BLACK
6
CONTINUOUS
10
0.459763
20
1.0893
11
0.457752
21
1.09469
0
LINE
8
BLACK
6
CONTINUOUS
10
0.457752
20
1.09469
11
0.454302
21
1.0993
0
LINE
8
BLACK
6
CONTINUOUS
10
0.454302
20
1.0993
11
0.454301
21
1.0993
0
LINE
8
BLACK
6
CONTINUOUS
10
0.454301
20
1.0993
11
0.45191
21
1.10109
0
LINE
8
BLACK
6
CONTINUOUS
10
0.45191
20
1.10109
11
0.450262
21
1.10329
0
LINE
8
BLACK
6
CONTINUOUS
10
0.450262
20
1.10329
11
0.450065
21
1.10604
0
LINE
8
BLACK
6
CONTINUOUS
10
0.450065
20
1.10604
11
0.451384
21
1.10845
0
LINE
8
BLACK
6
CONTINUOUS
10
0.451384
20
1.10845
11
0.45191
21
1.10891
0
LINE
8
BLACK
6
CONTINUOUS
10
0.45191
20
1.10891
11
0.454302
21
1.1107
0
LINE
8
BLACK
6
CONTINUOUS
10
0.454302
20
1.1107
11
0.457752
21
1.11531
0
LINE
8
BLACK
6
CONTINUOUS
10
0.457752
20
1.11531
11
0.459763
21
1.1207
0
LINE
8
BLACK
6
CONTINUOUS
10
0.459763
20
1.1207
11
0.459905
21
1.12202
0
LINE
8
BLACK
6
CONTINUOUS
10
0.459905
20
1.12202
11
0.46002
21
1.12308
0
LINE
8
BLACK
6
CONTINUOUS
10
0.46002
20
1.12308
11
0.46002
21
1.12309
0
LINE
8
BLACK
6
CONTINUOUS
10
0.46002
20
1.12309
11
0.46002
21
1.13
0
LINE
8
BLACK
6
CONTINUOUS
10
0.46002
20
1.13
11
0.46002
21
1.14046
0
LINE
8
BLACK
6
CONTINUOUS
10
0.46002
20
1.14046
11
0.460366
21
1.14227
0
LINE
8
BLACK
6
CONTINUOUS
10
0.460366
20
1.14227
11
0.461814
21
1.1459
0
LINE
8
BLACK
6
CONTINUOUS
10
0.461814
20
1.1459
11
0.462263
21
1.14864
0
LINE
8
BLACK
6
CONTINUOUS
10
0.462263
20
1.14864
11
0.463004
21
1.15316
0
LINE
8
BLACK
6
CONTINUOUS
10
0.463004
20
1.15316
11
0.462606
21
1.1605
0
LINE
8
BLACK
6
CONTINUOUS
10
0.462606
20
1.1605
11
0.462606
21
1.1605
0
LINE
8
BLACK
6
CONTINUOUS
10
0.462606
20
1.1605
11
0.460639
21
1.16758
0
LINE
8
BLACK
6
CONTINUOUS
10
0.460639
20
1.16758
11
0.460639
21
1.16758
0
LINE
8
BLACK
6
CONTINUOUS
10
0.460639
20
1.16758
11
0.460588
21
1.16768
0
LINE
8
BLACK
6
CONTINUOUS
10
0.460588
20
1.16768
11
0.460567
21
1.16776
0
LINE
8
BLACK
6
CONTINUOUS
10
0.460567
20
1.16776
11
0.460541
21
1.16783
0
LINE
8
BLACK
6
CONTINUOUS
10
0.460541
20
1.16783
11
0.46055
21
1.16783
0
LINE
8
BLACK
6
CONTINUOUS
10
0.46055
20
1.16783
11
0.46002
21
1.16997
0
LINE
8
BLACK
6
CONTINUOUS
10
0.46002
20
1.16997
11
0.46002
21
1.18691
0
LINE
8
BLACK
6
CONTINUOUS
10
0.46002
20
1.18691
11
0.46002
21
1.18692
0
LINE
8
BLACK
6
CONTINUOUS
10
0.46002
20
1.18692
11
0.459888
21
1.18814
0
LINE
8
BLACK
6
CONTINUOUS
10
0.459888
20
1.18814
11
0.459763
21
1.1893
0
LINE
8
BLACK
6
CONTINUOUS
10
0.459763
20
1.1893
11
0.457752
21
1.19469
0
LINE
8
BLACK
6
CONTINUOUS
10
0.457752
20
1.19469
11
0.454302
21
1.1993
0
LINE
8
BLACK
6
CONTINUOUS
10
0.454302
20
1.1993
11
0.454301
21
1.1993
0
LINE
8
BLACK
6
CONTINUOUS
10
0.454301
20
1.1993
11
0.45191
21
1.20109
0
LINE
8
BLACK
6
CONTINUOUS
10
0.45191
20
1.20109
11
0.450262
21
1.20329
0
LINE
8
BLACK
6
CONTINUOUS
10
0.450262
20
1.20329
11
0.450065
21
1.20604
0
LINE
8
BLACK
6
CONTINUOUS
10
0.450065
20
1.20604
11
0.451384
21
1.20845
0
LINE
8
BLACK
6
CONTINUOUS
10
0.451384
20
1.20845
11
0.45191
21
1.20891
0
LINE
8
BLACK
6
CONTINUOUS
10
0.45191
20
1.20891
11
0.454302
21
1.2107
0
LINE
8
BLACK
6
CONTINUOUS
10
0.454302
20
1.2107
11
0.457752
21
1.21531
0
LINE
8
BLACK
6
CONTINUOUS
10
0.457752
20
1.21531
11
0.459763
21
1.2207
0
LINE
8
BLACK
6
CONTINUOUS
10
0.459763
20
1.2207
11
0.459905
21
1.22202
0
LINE
8
BLACK
6
CONTINUOUS
10
0.459905
20
1.22202
11
0.46002
21
1.22308
0
LINE
8
BLACK
6
CONTINUOUS
10
0.46002
20
1.22308
11
0.46002
21
1.22309
0
LINE
8
BLACK
6
CONTINUOUS
10
0.46002
20
1.22309
11
0.46002
21
1.23
0
LINE
8
BLACK
6
CONTINUOUS
10
0.46002
20
1.23
11
0.46002
21
1.28691
0
LINE
8
BLACK
6
CONTINUOUS
10
0.46002
20
1.28691
11
0.46002
21
1.28692
0
LINE
8
BLACK
6
CONTINUOUS
10
0.46002
20
1.28692
11
0.459888
21
1.28814
0
LINE
8
BLACK
6
CONTINUOUS
10
0.459888
20
1.28814
11
0.459763
21
1.2893
0
LINE
8
BLACK
6
CONTINUOUS
10
0.459763
20
1.2893
11
0.459571
21
1.28982
0
LINE
8
BLACK
6
CONTINUOUS
10
0.459571
20
1.28982
11
0.458652
21
1.29228
0
LINE
8
BLACK
6
CONTINUOUS
10
0.458652
20
1.29228
11
0.457752
21
1.29469
0
LINE
8
BLACK
6
CONTINUOUS
10
0.457752
20
1.29469
11
0.454302
21
1.2993
0
LINE
8
BLACK
6
CONTINUOUS
10
0.454302
20
1.2993
11
0.451631
21
1.3013
0
LINE
8
BLACK
6
CONTINUOUS
10
0.451631
20
1.3013
11
0.449982
21
1.3035
0
LINE
8
BLACK
6
CONTINUOUS
10
0.449982
20
1.3035
11
0.449786
21
1.30625
0
LINE
8
BLACK
6
CONTINUOUS
10
0.449786
20
1.30625
11
0.451105
21
1.30866
0
LINE
8
BLACK
6
CONTINUOUS
10
0.451105
20
1.30866
11
0.451631
21
1.30912
0
LINE
8
BLACK
6
CONTINUOUS
10
0.451631
20
1.30912
11
0.454063
21
1.31094
0
LINE
8
BLACK
6
CONTINUOUS
10
0.454063
20
1.31094
11
0.454063
21
1.31094
0
LINE
8
BLACK
6
CONTINUOUS
10
0.454063
20
1.31094
11
0.457455
21
1.31547
0
LINE
8
BLACK
6
CONTINUOUS
10
0.457455
20
1.31547
11
0.457455
21
1.31547
0
LINE
8
BLACK
6
CONTINUOUS
10
0.457455
20
1.31547
11
0.459433
21
1.32077
0
LINE
8
BLACK
6
CONTINUOUS
10
0.459433
20
1.32077
11
0.459433
21
1.32077
0
LINE
8
BLACK
6
CONTINUOUS
10
0.459433
20
1.32077
11
0.459685
21
1.32312
0
LINE
8
BLACK
6
CONTINUOUS
10
0.459685
20
1.32312
11
0.459685
21
1.32312
0
LINE
8
BLACK
6
CONTINUOUS
10
0.459685
20
1.32312
11
0.459685
21
1.33
0
LINE
8
BLACK
6
CONTINUOUS
10
0.459685
20
1.33
11
0.459685
21
1.34516
0
LINE
8
BLACK
6
CONTINUOUS
10
0.459685
20
1.34516
11
0.44
21
1.34516
0
LINE
8
BLACK
6
CONTINUOUS
10
0.44
20
1.34516
11
0.44
21
1.325
0
LINE
8
BLACK
6
CONTINUOUS
10
0.44
20
1.325
11
0.38
21
1.325
0
LINE
8
BLACK
6
CONTINUOUS
10
0.38
20
1.325
11
0.38
21
1.34516
0
LINE
8
BLACK
6
CONTINUOUS
10
0.38
20
1.34516
11
0.34
21
1.34516
0
LINE
8
BLACK
6
CONTINUOUS
10
0.34
20
1.34516
11
0.34
21
1.325
0
LINE
8
BLACK
6
CONTINUOUS
10
0.34
20
1.325
11
0.28
21
1.325
0
LINE
8
BLACK
6
CONTINUOUS
10
0.28
20
1.325
11
0.28
21
1.34516
0
LINE
8
BLACK
6
CONTINUOUS
10
0.28
20
1.34516
11
0.260315
21
1.34516
0
LINE
8
BLACK
6
CONTINUOUS
10
0.260315
20
1.34516
11
0.260315
21
1.32312
0
LINE
8
BLACK
6
CONTINUOUS
10
0.260315
20
1.32312
11
0.260567
21
1.32077
0
LINE
8
BLACK
6
CONTINUOUS
10
0.260567
20
1.32077
11
0.260567
21
1.32077
0
LINE
8
BLACK
6
CONTINUOUS
10
0.260567
20
1.32077
11
0.262545
21
1.31547
0
LINE
8
BLACK
6
CONTINUOUS
10
0.262545
20
1.31547
11
0.262545
21
1.31547
0
LINE
8
BLACK
6
CONTINUOUS
10
0.262545
20
1.31547
11
0.265937
21
1.31094
0
LINE
8
BLACK
6
CONTINUOUS
10
0.265937
20
1.31094
11
0.268369
21
1.30912
0
LINE
8
BLACK
6
CONTINUOUS
10
0.268369
20
1.30912
11
0.270018
21
1.30692
0
LINE
8
BLACK
6
CONTINUOUS
10
0.270018
20
1.30692
11
0.270214
21
1.30417
0
LINE
8
BLACK
6
CONTINUOUS
10
0.270214
20
1.30417
11
0.268895
21
1.30176
0
LINE
8
BLACK
6
CONTINUOUS
10
0.268895
20
1.30176
11
0.268369
21
1.3013
0
LINE
8
BLACK
6
CONTINUOUS
10
0.268369
20
1.3013
11
0.265698
21
1.2993
0
LINE
8
BLACK
6
CONTINUOUS
10
0.265698
20
1.2993
11
0.265698
21
1.2993
0
LINE
8
BLACK
6
CONTINUOUS
10
0.265698
20
1.2993
11
0.265698
21
1.2993
0
LINE
8
BLACK
6
CONTINUOUS
10
0.265698
20
1.2993
11
0.265363
21
1.29885
0
LINE
8
BLACK
6
CONTINUOUS
10
0.265363
20
1.29885
11
0.262248
21
1.29469
0
LINE
8
BLACK
6
CONTINUOUS
10
0.262248
20
1.29469
11
0.260237
21
1.2893
0
LINE
8
BLACK
6
CONTINUOUS
10
0.260237
20
1.2893
11
0.260237
21
1.2893
0
LINE
8
BLACK
6
CONTINUOUS
10
0.260237
20
1.2893
11
0.25998
21
1.28692
0
LINE
8
BLACK
6
CONTINUOUS
10
0.25998
20
1.28692
11
0.25998
21
1.22308
0
LINE
8
BLACK
6
CONTINUOUS
10
0.25998
20
1.22308
11
0.260237
21
1.2207
0
LINE
8
BLACK
6
CONTINUOUS
10
0.260237
20
1.2207
11
0.260237
21
1.2207
0
LINE
8
BLACK
6
CONTINUOUS
10
0.260237
20
1.2207
11
0.262248
21
1.21531
0
LINE
8
BLACK
6
CONTINUOUS
10
0.262248
20
1.21531
11
0.262248
21
1.21531
0
LINE
8
BLACK
6
CONTINUOUS
10
0.262248
20
1.21531
11
0.265698
21
1.2107
0
LINE
8
BLACK
6
CONTINUOUS
10
0.265698
20
1.2107
11
0.265698
21
1.2107
0
LINE
8
BLACK
6
CONTINUOUS
10
0.265698
20
1.2107
11
0.265698
21
1.2107
0
LINE
8
BLACK
6
CONTINUOUS
10
0.265698
20
1.2107
11
0.26809
21
1.20891
0
LINE
8
BLACK
6
CONTINUOUS
10
0.26809
20
1.20891
11
0.269738
21
1.20671
0
LINE
8
BLACK
6
CONTINUOUS
10
0.269738
20
1.20671
11
0.269935
21
1.20396
0
LINE
8
BLACK
6
CONTINUOUS
10
0.269935
20
1.20396
11
0.268616
21
1.20155
0
LINE
8
BLACK
6
CONTINUOUS
10
0.268616
20
1.20155
11
0.26809
21
1.20109
0
LINE
8
BLACK
6
CONTINUOUS
10
0.26809
20
1.20109
11
0.265698
21
1.1993
0
LINE
8
BLACK
6
CONTINUOUS
10
0.265698
20
1.1993
11
0.262248
21
1.19469
0
LINE
8
BLACK
6
CONTINUOUS
10
0.262248
20
1.19469
11
0.260237
21
1.1893
0
LINE
8
BLACK
6
CONTINUOUS
10
0.260237
20
1.1893
11
0.260237
21
1.1893
0
LINE
8
BLACK
6
CONTINUOUS
10
0.260237
20
1.1893
11
0.25998
21
1.18692
0
LINE
8
BLACK
6
CONTINUOUS
10
0.25998
20
1.18692
11
0.25998
21
1.12308
0
LINE
8
BLACK
6
CONTINUOUS
10
0.25998
20
1.12308
11
0.260237
21
1.1207
0
LINE
8
BLACK
6
CONTINUOUS
10
0.260237
20
1.1207
11
0.260237
21
1.1207
0
LINE
8
BLACK
6
CONTINUOUS
10
0.260237
20
1.1207
11
0.261415
21
1.11754
0
LINE
8
BLACK
6
CONTINUOUS
10
0.261415
20
1.11754
11
0.262248
21
1.11531
0
LINE
8
BLACK
6
CONTINUOUS
10
0.262248
20
1.11531
11
0.265698
21
1.1107
0
LINE
8
BLACK
6
CONTINUOUS
10
0.265698
20
1.1107
11
0.265698
21
1.1107
0
LINE
8
BLACK
6
CONTINUOUS
10
0.265698
20
1.1107
11
0.265698
21
1.1107
0
LINE
8
BLACK
6
CONTINUOUS
10
0.265698
20
1.1107
11
0.26809
21
1.10891
0
LINE
8
BLACK
6
CONTINUOUS
10
0.26809
20
1.10891
11
0.269738
21
1.10671
0
LINE
8
BLACK
6
CONTINUOUS
10
0.269738
20
1.10671
11
0.269935
21
1.10396
0
LINE
8
BLACK
6
CONTINUOUS
10
0.269935
20
1.10396
11
0.268616
21
1.10155
0
LINE
8
BLACK
6
CONTINUOUS
10
0.268616
20
1.10155
11
0.26809
21
1.10109
0
LINE
8
BLACK
6
CONTINUOUS
10
0.26809
20
1.10109
11
0.265698
21
1.0993
0
LINE
8
BLACK
6
CONTINUOUS
10
0.265698
20
1.0993
11
0.262248
21
1.09469
0
LINE
8
BLACK
6
CONTINUOUS
10
0.262248
20
1.09469
11
0.260237
21
1.0893
0
LINE
8
BLACK
6
CONTINUOUS
10
0.260237
20
1.0893
11
0.260237
21
1.0893
0
LINE
8
BLACK
6
CONTINUOUS
10
0.260237
20
1.0893
11
0.25998
21
1.08692
0
LINE
8
BLACK
6
CONTINUOUS
10
0.25998
20
1.08692
11
0.25998
21
1.02308
0
LINE
8
BLACK
6
CONTINUOUS
10
0.25998
20
1.02308
11
0.260237
21
1.0207
0
LINE
8
BLACK
6
CONTINUOUS
10
2.21213
20
1.07821
11
2.21213
21
1.07821
0
LINE
8
BLACK
6
CONTINUOUS
10
2.21213
20
1.07821
11
2.21228
21
1.07808
0
LINE
8
BLACK
6
CONTINUOUS
10
2.21228
20
1.07808
11
2.21228
21
1.07808
0
LINE
8
BLACK
6
CONTINUOUS
10
2.21228
20
1.07808
11
2.22087
21
1.07282
0
LINE
8
BLACK
6
CONTINUOUS
10
2.22087
20
1.07282
11
2.22087
21
1.07282
0
LINE
8
BLACK
6
CONTINUOUS
10
2.22087
20
1.07282
11
2.23017
21
1.06897
0
LINE
8
BLACK
6
CONTINUOUS
10
2.23017
20
1.06897
11
2.23996
21
1.06662
0
LINE
8
BLACK
6
CONTINUOUS
10
2.23996
20
1.06662
11
2.23996
21
1.06662
0
LINE
8
BLACK
6
CONTINUOUS
10
2.23996
20
1.06662
11
2.25
21
1.06583
0
LINE
8
BLACK
6
CONTINUOUS
10
2.25
20
1.06583
11
2.26004
21
1.06662
0
LINE
8
BLACK
6
CONTINUOUS
10
2.26004
20
1.06662
11
2.26983
21
1.06897
0
LINE
8
BLACK
6
CONTINUOUS
10
2.26983
20
1.06897
11
2.27913
21
1.07282
0
LINE
8
BLACK
6
CONTINUOUS
10
2.27913
20
1.07282
11
2.27913
21
1.07282
0
LINE
8
BLACK
6
CONTINUOUS
10
2.27913
20
1.07282
11
2.28772
21
1.07808
0
LINE
8
BLACK
6
CONTINUOUS
10
2.28772
20
1.07808
11
2.28787
21
1.07821
0
LINE
8
BLACK
6
CONTINUOUS
10
2.28787
20
1.07821
11
2.27344
21
1.09264
0
LINE
8
BLACK
6
CONTINUOUS
10
2.27344
20
1.09264
11
2.26974
21
1.09035
0
LINE
8
BLACK
6
CONTINUOUS
10
2.26974
20
1.09035
11
2.26212
21
1.0874
0
LINE
8
BLACK
6
CONTINUOUS
10
2.26212
20
1.0874
11
2.25409
21
1.0859
0
LINE
8
BLACK
6
CONTINUOUS
10
2.25409
20
1.0859
11
2.24591
21
1.0859
0
LINE
8
BLACK
6
CONTINUOUS
10
2.24591
20
1.0859
11
2.23788
21
1.0874
0
LINE
8
BLACK
6
CONTINUOUS
10
2.23788
20
1.0874
11
2.23026
21
1.09035
0
LINE
8
BLACK
6
CONTINUOUS
10
2.23026
20
1.09035
11
2.22656
21
1.09264
0
LINE
8
BLACK
6
CONTINUOUS
10
2.22656
20
1.09264
11
2.21213
21
1.07821
0
LINE
8
BLACK
6
CONTINUOUS
10
2.41213
20
1.07821
11
2.41213
21
1.07821
0
LINE
8
BLACK
6
CONTINUOUS
10
2.41213
20
1.07821
11
2.41228
21
1.07808
0
LINE
8
BLACK
6
CONTINUOUS
10
2.41228
20
1.07808
11
2.41228
21
1.07808
0
LINE
8
BLACK
6
CONTINUOUS
10
2.41228
20
1.07808
11
2.42087
21
1.07282
0
LINE
8
BLACK
6
CONTINUOUS
10
2.42087
20
1.07282
11
2.42087
21
1.07282
0
LINE
8
BLACK
6
CONTINUOUS
10
2.42087
20
1.07282
11
2.43017
21
1.06897
0
LINE
8
BLACK
6
CONTINUOUS
10
2.43017
20
1.06897
11
2.43996
21
1.06662
0
LINE
8
BLACK
6
CONTINUOUS
10
2.43996
20
1.06662
11
2.43996
21
1.06662
0
LINE
8
BLACK
6
CONTINUOUS
10
2.43996
20
1.06662
11
2.45
21
1.06583
0
LINE
8
BLACK
6
CONTINUOUS
10
2.45
20
1.06583
11
2.46004
21
1.06662
0
LINE
8
BLACK
6
CONTINUOUS
10
2.46004
20
1.06662
11
2.46983
21
1.06897
0
LINE
8
BLACK
6
CONTINUOUS
10
2.46983
20
1.06897
11
2.47913
21
1.07282
0
LINE
8
BLACK
6
CONTINUOUS
10
2.47913
20
1.07282
11
2.47913
21
1.07282
0
LINE
8
BLACK
6
CONTINUOUS
10
2.47913
20
1.07282
11
2.48772
21
1.07808
0
LINE
8
BLACK
6
CONTINUOUS
10
2.48772
20
1.07808
11
2.48787
21
1.07821
0
LINE
8
BLACK
6
CONTINUOUS
10
2.48787
20
1.07821
11
2.47344
21
1.09264
0
LINE
8
BLACK
6
CONTINUOUS
10
2.47344
20
1.09264
11
2.46974
21
1.09035
0
LINE
8
BLACK
6
CONTINUOUS
10
2.46974
20
1.09035
11
2.46212
21
1.0874
0
LINE
8
BLACK
6
CONTINUOUS
10
2.46212
20
1.0874
11
2.45409
21
1.0859
0
LINE
8
BLACK
6
CONTINUOUS
10
2.45409
20
1.0859
11
2.44591
21
1.0859
0
LINE
8
BLACK
6
CONTINUOUS
10
2.44591
20
1.0859
11
2.43788
21
1.0874
0
LINE
8
BLACK
6
CONTINUOUS
10
2.43788
20
1.0874
11
2.43026
21
1.09035
0
LINE
8
BLACK
6
CONTINUOUS
10
2.43026
20
1.09035
11
2.42656
21
1.09264
0
LINE
8
BLACK
6
CONTINUOUS
10
2.42656
20
1.09264
11
2.41213
21
1.07821
0
LINE
8
BLACK
6
CONTINUOUS
10
2.28748
20
1.15356
11
2.28766
21
1.15332
0
LINE
8
BLACK
6
CONTINUOUS
10
2.28766
20
1.15332
11
2.2913
21
1.146
0
LINE
8
BLACK
6
CONTINUOUS
10
2.2913
20
1.146
11
2.29354
21
1.13814
0
LINE
8
BLACK
6
CONTINUOUS
10
2.29354
20
1.13814
11
2.29429
21
1.13
0
LINE
8
BLACK
6
CONTINUOUS
10
2.29429
20
1.13
11
2.29354
21
1.12186
0
LINE
8
BLACK
6
CONTINUOUS
10
2.29354
20
1.12186
11
2.2913
21
1.114
0
LINE
8
BLACK
6
CONTINUOUS
10
2.2913
20
1.114
11
2.28766
21
1.10668
0
LINE
8
BLACK
6
CONTINUOUS
10
2.28766
20
1.10668
11
2.28748
21
1.10644
0
LINE
8
BLACK
6
CONTINUOUS
10
2.28748
20
1.10644
11
2.30179
21
1.09213
0
LINE
8
BLACK
6
CONTINUOUS
10
2.30179
20
1.09213
11
2.30192
21
1.09228
0
LINE
8
BLACK
6
CONTINUOUS
10
2.30192
20
1.09228
11
2.30718
21
1.10087
0
LINE
8
BLACK
6
CONTINUOUS
10
2.30718
20
1.10087
11
2.30718
21
1.10087
0
LINE
8
BLACK
6
CONTINUOUS
10
2.30718
20
1.10087
11
2.31103
21
1.11017
0
LINE
8
BLACK
6
CONTINUOUS
10
2.31103
20
1.11017
11
2.31338
21
1.11996
0
LINE
8
BLACK
6
CONTINUOUS
10
2.31338
20
1.11996
11
2.31417
21
1.13
0
LINE
8
BLACK
6
CONTINUOUS
10
2.31417
20
1.13
11
2.31338
21
1.14004
0
LINE
8
BLACK
6
CONTINUOUS
10
2.31338
20
1.14004
11
2.31103
21
1.14983
0
LINE
8
BLACK
6
CONTINUOUS
10
2.31103
20
1.14983
11
2.30718
21
1.15913
0
LINE
8
BLACK
6
CONTINUOUS
10
2.30718
20
1.15913
11
2.30718
21
1.15913
0
LINE
8
BLACK
6
CONTINUOUS
10
2.30718
20
1.15913
11
2.30192
21
1.16772
0
LINE
8
BLACK
6
CONTINUOUS
10
2.30192
20
1.16772
11
2.30192
21
1.16772
0
LINE
8
BLACK
6
CONTINUOUS
10
2.30192
20
1.16772
11
2.30179
21
1.16787
0
LINE
8
BLACK
6
CONTINUOUS
10
2.30179
20
1.16787
11
2.30179
21
1.16787
0
LINE
8
BLACK
6
CONTINUOUS
10
2.30179
20
1.16787
11
2.28748
21
1.15356
0
LINE
8
BLACK
6
CONTINUOUS
10
2.48748
20
1.15356
11
2.48766
21
1.15332
0
LINE
8
BLACK
6
CONTINUOUS
10
2.48766
20
1.15332
11
2.4913
21
1.146
0
LINE
8
BLACK
6
CONTINUOUS
10
2.4913
20
1.146
11
2.49354
21
1.13814
0
LINE
8
BLACK
6
CONTINUOUS
10
2.49354
20
1.13814
11
2.49429
21
1.13
0
LINE
8
BLACK
6
CONTINUOUS
10
2.49429
20
1.13
11
2.49354
21
1.12186
0
LINE
8
BLACK
6
CONTINUOUS
10
2.49354
20
1.12186
11
2.4913
21
1.114
0
LINE
8
BLACK
6
CONTINUOUS
10
2.4913
20
1.114
11
2.48766
21
1.10668
0
LINE
8
BLACK
6
CONTINUOUS
10
2.48766
20
1.10668
11
2.48748
21
1.10644
0
LINE
8
BLACK
6
CONTINUOUS
10
2.48748
20
1.10644
11
2.50179
21
1.09213
0
LINE
8
BLACK
6
CONTINUOUS
10
2.50179
20
1.09213
11
2.50192
21
1.09228
0
LINE
8
BLACK
6
CONTINUOUS
10
2.50192
20
1.09228
11
2.50718
21
1.10087
0
LINE
8
BLACK
6
CONTINUOUS
10
2.50718
20
1.10087
11
2.50718
21
1.10087
0
LINE
8
BLACK
6
CONTINUOUS
10
2.50718
20
1.10087
11
2.51103
21
1.11017
0
LINE
8
BLACK
6
CONTINUOUS
10
2.51103
20
1.11017
11
2.51338
21
1.11996
0
LINE
8
BLACK
6
CONTINUOUS
10
2.51338
20
1.11996
11
2.51417
21
1.13
0
LINE
8
BLACK
6
CONTINUOUS
10
2.51417
20
1.13
11
2.51338
21
1.14004
0
LINE
8
BLACK
6
CONTINUOUS
10
2.51338
20
1.14004
11
2.51103
21
1.14983
0
LINE
8
BLACK
6
CONTINUOUS
10
2.51103
20
1.14983
11
2.50718
21
1.15913
0
LINE
8
BLACK
6
CONTINUOUS
10
2.50718
20
1.15913
11
2.50718
21
1.15913
0
LINE
8
BLACK
6
CONTINUOUS
10
2.50718
20
1.15913
11
2.50192
21
1.16772
0
LINE
8
BLACK
6
CONTINUOUS
10
2.50192
20
1.16772
11
2.50192
21
1.16772
0
LINE
8
BLACK
6
CONTINUOUS
10
2.50192
20
1.16772
11
2.50179
21
1.16787
0
LINE
8
BLACK
6
CONTINUOUS
10
2.50179
20
1.16787
11
2.50179
21
1.16787
0
LINE
8
BLACK
6
CONTINUOUS
10
2.50179
20
1.16787
11
2.48748
21
1.15356
0
LINE
8
BLACK
6
CONTINUOUS
10
2.23996
20
1.19338
11
2.23017
21
1.19103
0
LINE
8
BLACK
6
CONTINUOUS
10
2.23017
20
1.19103
11
2.22087
21
1.18718
0
LINE
8
BLACK
6
CONTINUOUS
10
2.22087
20
1.18718
11
2.22087
21
1.18718
0
LINE
8
BLACK
6
CONTINUOUS
10
2.22087
20
1.18718
11
2.21228
21
1.18192
0
LINE
8
BLACK
6
CONTINUOUS
10
2.21228
20
1.18192
11
2.21213
21
1.18179
0
LINE
8
BLACK
6
CONTINUOUS
10
2.21213
20
1.18179
11
2.22656
21
1.16736
0
LINE
8
BLACK
6
CONTINUOUS
10
2.22656
20
1.16736
11
2.23026
21
1.16965
0
LINE
8
BLACK
6
CONTINUOUS
10
2.23026
20
1.16965
11
2.23788
21
1.1726
0
LINE
8
BLACK
6
CONTINUOUS
10
2.23788
20
1.1726
11
2.24591
21
1.1741
0
LINE
8
BLACK
6
CONTINUOUS
10
2.24591
20
1.1741
11
2.25409
21
1.1741
0
LINE
8
BLACK
6
CONTINUOUS
10
2.25409
20
1.1741
11
2.26212
21
1.1726
0
LINE
8
BLACK
6
CONTINUOUS
10
2.26212
20
1.1726
11
2.26974
21
1.16965
0
LINE
8
BLACK
6
CONTINUOUS
10
2.26974
20
1.16965
11
2.27344
21
1.16736
0
LINE
8
BLACK
6
CONTINUOUS
10
2.27344
20
1.16736
11
2.28787
21
1.18179
0
LINE
8
BLACK
6
CONTINUOUS
10
2.28787
20
1.18179
11
2.28787
21
1.18179
0
LINE
8
BLACK
6
CONTINUOUS
10
2.28787
20
1.18179
11
2.28772
21
1.18192
0
LINE
8
BLACK
6
CONTINUOUS
10
2.28772
20
1.18192
11
2.28772
21
1.18192
0
LINE
8
BLACK
6
CONTINUOUS
10
2.28772
20
1.18192
11
2.27913
21
1.18718
0
LINE
8
BLACK
6
CONTINUOUS
10
2.27913
20
1.18718
11
2.27913
21
1.18718
0
LINE
8
BLACK
6
CONTINUOUS
10
2.27913
20
1.18718
11
2.26983
21
1.19103
0
LINE
8
BLACK
6
CONTINUOUS
10
2.26983
20
1.19103
11
2.26004
21
1.19338
0
LINE
8
BLACK
6
CONTINUOUS
10
2.26004
20
1.19338
11
2.26004
21
1.19338
0
LINE
8
BLACK
6
CONTINUOUS
10
2.26004
20
1.19338
11
2.25
21
1.19417
0
LINE
8
BLACK
6
CONTINUOUS
10
2.25
20
1.19417
11
2.23996
21
1.19338
0
LINE
8
BLACK
6
CONTINUOUS
10
2.43996
20
1.19338
11
2.43017
21
1.19103
0
LINE
8
BLACK
6
CONTINUOUS
10
2.43017
20
1.19103
11
2.42087
21
1.18718
0
LINE
8
BLACK
6
CONTINUOUS
10
2.42087
20
1.18718
11
2.42087
21
1.18718
0
LINE
8
BLACK
6
CONTINUOUS
10
2.42087
20
1.18718
11
2.41228
21
1.18192
0
LINE
8
BLACK
6
CONTINUOUS
10
2.41228
20
1.18192
11
2.41213
21
1.18179
0
LINE
8
BLACK
6
CONTINUOUS
10
2.41213
20
1.18179
11
2.42656
21
1.16736
0
LINE
8
BLACK
6
CONTINUOUS
10
2.42656
20
1.16736
11
2.43026
21
1.16965
0
LINE
8
BLACK
6
CONTINUOUS
10
2.43026
20
1.16965
11
2.43788
21
1.1726
0
LINE
8
BLACK
6
CONTINUOUS
10
2.43788
20
1.1726
11
2.44591
21
1.1741
0
LINE
8
BLACK
6
CONTINUOUS
10
2.44591
20
1.1741
11
2.45409
21
1.1741
0
LINE
8
BLACK
6
CONTINUOUS
10
2.45409
20
1.1741
11
2.46212
21
1.1726
0
LINE
8
BLACK
6
CONTINUOUS
10
2.46212
20
1.1726
11
2.46974
21
1.16965
0
LINE
8
BLACK
6
CONTINUOUS
10
2.46974
20
1.16965
11
2.47344
21
1.16736
0
LINE
8
BLACK
6
CONTINUOUS
10
2.47344
20
1.16736
11
2.48787
21
1.18179
0
LINE
8
BLACK
6
CONTINUOUS
10
2.48787
20
1.18179
11
2.48787
21
1.18179
0
LINE
8
BLACK
6
CONTINUOUS
10
2.48787
20
1.18179
11
2.48772
21
1.18192
0
LINE
8
BLACK
6
CONTINUOUS
10
2.48772
20
1.18192
11
2.48772
21
1.18192
0
LINE
8
BLACK
6
CONTINUOUS
10
2.48772
20
1.18192
11
2.47913
21
1.18718
0
LINE
8
BLACK
6
CONTINUOUS
10
2.47913
20
1.18718
11
2.47913
21
1.18718
0
LINE
8
BLACK
6
CONTINUOUS
10
2.47913
20
1.18718
11
2.46983
21
1.19103
0
LINE
8
BLACK
6
CONTINUOUS
10
2.46983
20
1.19103
11
2.46004
21
1.19338
0
LINE
8
BLACK
6
CONTINUOUS
10
2.46004
20
1.19338
11
2.46004
21
1.19338
0
LINE
8
BLACK
6
CONTINUOUS
10
2.46004
20
1.19338
11
2.45
21
1.19417
0
LINE
8
BLACK
6
CONTINUOUS
10
2.45
20
1.19417
11
2.43996
21
1.19338
0
LINE
8
BLACK
6
CONTINUOUS
10
2.29018
20
1.22053
11
2.2924
21
1.21129
0
LINE
8
BLACK
6
CONTINUOUS
10
2.2924
20
1.21129
11
2.29604
21
1.20251
0
LINE
8
BLACK
6
CONTINUOUS
10
2.29604
20
1.20251
11
2.30101
21
1.1944
0
LINE
8
BLACK
6
CONTINUOUS
10
2.30101
20
1.1944
11
2.30101
21
1.1944
0
LINE
8
BLACK
6
CONTINUOUS
10
2.30101
20
1.1944
11
2.30101
21
1.1944
0
LINE
8
BLACK
6
CONTINUOUS
10
2.30101
20
1.1944
11
2.30101
21
1.1944
0
LINE
8
BLACK
6
CONTINUOUS
10
2.30101
20
1.1944
11
2.30718
21
1.18718
0
LINE
8
BLACK
6
CONTINUOUS
10
2.30718
20
1.18718
11
2.3144
21
1.18101
0
LINE
8
BLACK
6
CONTINUOUS
10
2.3144
20
1.18101
11
2.3144
21
1.18101
0
LINE
8
BLACK
6
CONTINUOUS
10
2.3144
20
1.18101
11
2.3144
21
1.18101
0
LINE
8
BLACK
6
CONTINUOUS
10
2.3144
20
1.18101
11
2.3144
21
1.18101
0
LINE
8
BLACK
6
CONTINUOUS
10
2.3144
20
1.18101
11
2.32251
21
1.17604
0
LINE
8
BLACK
6
CONTINUOUS
10
2.32251
20
1.17604
11
2.33129
21
1.1724
0
LINE
8
BLACK
6
CONTINUOUS
10
2.33129
20
1.1724
11
2.3336
21
1.17185
0
LINE
8
BLACK
6
CONTINUOUS
10
2.3336
20
1.17185
11
2.34053
21
1.17018
0
LINE
8
BLACK
6
CONTINUOUS
10
2.34053
20
1.17018
11
2.35
21
1.16944
0
LINE
8
BLACK
6
CONTINUOUS
10
2.35
20
1.16944
11
2.35947
21
1.17018
0
LINE
8
BLACK
6
CONTINUOUS
10
2.35947
20
1.17018
11
2.36871
21
1.1724
0
LINE
8
BLACK
6
CONTINUOUS
10
2.36871
20
1.1724
11
2.37749
21
1.17604
0
LINE
8
BLACK
6
CONTINUOUS
10
2.37749
20
1.17604
11
2.3856
21
1.18101
0
LINE
8
BLACK
6
CONTINUOUS
10
2.3856
20
1.18101
11
2.39282
21
1.18718
0
LINE
8
BLACK
6
CONTINUOUS
10
2.39282
20
1.18718
11
2.39899
21
1.1944
0
LINE
8
BLACK
6
CONTINUOUS
10
2.39899
20
1.1944
11
2.40396
21
1.20251
0
LINE
8
BLACK
6
CONTINUOUS
10
2.40396
20
1.20251
11
2.4076
21
1.21129
0
LINE
8
BLACK
6
CONTINUOUS
10
2.4076
20
1.21129
11
2.40982
21
1.22053
0
LINE
8
BLACK
6
CONTINUOUS
10
2.40982
20
1.22053
11
2.41056
21
1.23
0
LINE
8
BLACK
6
CONTINUOUS
10
2.41056
20
1.23
11
2.40982
21
1.23947
0
LINE
8
BLACK
6
CONTINUOUS
10
2.40982
20
1.23947
11
2.4076
21
1.24871
0
LINE
8
BLACK
6
CONTINUOUS
10
2.4076
20
1.24871
11
2.40396
21
1.25749
0
LINE
8
BLACK
6
CONTINUOUS
10
2.40396
20
1.25749
11
2.40396
21
1.25749
0
LINE
8
BLACK
6
CONTINUOUS
10
2.40396
20
1.25749
11
2.39899
21
1.2656
0
LINE
8
BLACK
6
CONTINUOUS
10
2.39899
20
1.2656
11
2.39899
21
1.2656
0
LINE
8
BLACK
6
CONTINUOUS
10
2.39899
20
1.2656
11
2.39899
21
1.2656
0
LINE
8
BLACK
6
CONTINUOUS
10
2.39899
20
1.2656
11
2.39899
21
1.2656
0
LINE
8
BLACK
6
CONTINUOUS
10
2.39899
20
1.2656
11
2.39282
21
1.27282
0
LINE
8
BLACK
6
CONTINUOUS
10
2.39282
20
1.27282
11
2.3856
21
1.27899
0
LINE
8
BLACK
6
CONTINUOUS
10
2.3856
20
1.27899
11
2.3856
21
1.27899
0
LINE
8
BLACK
6
CONTINUOUS
10
2.3856
20
1.27899
11
2.3856
21
1.27899
0
LINE
8
BLACK
6
CONTINUOUS
10
2.3856
20
1.27899
11
2.3856
21
1.27899
0
LINE
8
BLACK
6
CONTINUOUS
10
2.3856
20
1.27899
11
2.37749
21
1.28396
0
LINE
8
BLACK
6
CONTINUOUS
10
2.37749
20
1.28396
11
2.36871
21
1.2876
0
LINE
8
BLACK
6
CONTINUOUS
10
2.36871
20
1.2876
11
2.35947
21
1.28982
0
LINE
8
BLACK
6
CONTINUOUS
10
2.35947
20
1.28982
11
2.35947
21
1.28982
0
LINE
8
BLACK
6
CONTINUOUS
10
2.35947
20
1.28982
11
2.35088
21
1.29049
0
LINE
8
BLACK
6
CONTINUOUS
10
2.35088
20
1.29049
11
2.35
21
1.29056
0
LINE
8
BLACK
6
CONTINUOUS
10
2.35
20
1.29056
11
2.35
21
1.29056
0
LINE
8
BLACK
6
CONTINUOUS
10
2.35
20
1.29056
11
2.34053
21
1.28982
0
LINE
8
BLACK
6
CONTINUOUS
10
2.34053
20
1.28982
11
2.33129
21
1.2876
0
LINE
8
BLACK
6
CONTINUOUS
10
2.33129
20
1.2876
11
2.32251
21
1.28396
0
LINE
8
BLACK
6
CONTINUOUS
10
2.32251
20
1.28396
11
2.3144
21
1.27899
0
LINE
8
BLACK
6
CONTINUOUS
10
2.3144
20
1.27899
11
2.3144
21
1.27899
0
LINE
8
BLACK
6
CONTINUOUS
10
2.3144
20
1.27899
11
2.30718
21
1.27282
0
LINE
8
BLACK
6
CONTINUOUS
10
2.30718
20
1.27282
11
2.30101
21
1.2656
0
LINE
8
BLACK
6
CONTINUOUS
10
2.30101
20
1.2656
11
2.30101
21
1.2656
0
LINE
8
BLACK
6
CONTINUOUS
10
2.30101
20
1.2656
11
2.29604
21
1.25749
0
LINE
8
BLACK
6
CONTINUOUS
10
2.29604
20
1.25749
11
2.2924
21
1.24871
0
LINE
8
BLACK
6
CONTINUOUS
10
2.2924
20
1.24871
11
2.29018
21
1.23947
0
LINE
8
BLACK
6
CONTINUOUS
10
2.29018
20
1.23947
11
2.28944
21
1.23
0
LINE
8
BLACK
6
CONTINUOUS
10
2.28944
20
1.23
11
2.29018
21
1.22053
0
LINE
8
BLACK
6
CONTINUOUS
10
2.21213
20
1.27821
11
2.21213
21
1.27821
0
LINE
8
BLACK
6
CONTINUOUS
10
2.21213
20
1.27821
11
2.21228
21
1.27808
0
LINE
8
BLACK
6
CONTINUOUS
10
2.21228
20
1.27808
11
2.21228
21
1.27808
0
LINE
8
BLACK
6
CONTINUOUS
10
2.21228
20
1.27808
11
2.22087
21
1.27282
0
LINE
8
BLACK
6
CONTINUOUS
10
2.22087
20
1.27282
11
2.22087
21
1.27282
0
LINE
8
BLACK
6
CONTINUOUS
10
2.22087
20
1.27282
11
2.23017
21
1.26897
0
LINE
8
BLACK
6
CONTINUOUS
10
2.23017
20
1.26897
11
2.23996
21
1.26662
0
LINE
8
BLACK
6
CONTINUOUS
10
2.23996
20
1.26662
11
2.23996
21
1.26662
0
LINE
8
BLACK
6
CONTINUOUS
10
2.23996
20
1.26662
11
2.25
21
1.26583
0
LINE
8
BLACK
6
CONTINUOUS
10
2.25
20
1.26583
11
2.26004
21
1.26662
0
LINE
8
BLACK
6
CONTINUOUS
10
2.26004
20
1.26662
11
2.26983
21
1.26897
0
LINE
8
BLACK
6
CONTINUOUS
10
2.26983
20
1.26897
11
2.27913
21
1.27282
0
LINE
8
BLACK
6
CONTINUOUS
10
2.27913
20
1.27282
11
2.27913
21
1.27282
0
LINE
8
BLACK
6
CONTINUOUS
10
2.27913
20
1.27282
11
2.28772
21
1.27808
0
LINE
8
BLACK
6
CONTINUOUS
10
2.28772
20
1.27808
11
2.28787
21
1.27821
0
LINE
8
BLACK
6
CONTINUOUS
10
2.28787
20
1.27821
11
2.27344
21
1.29264
0
LINE
8
BLACK
6
CONTINUOUS
10
2.27344
20
1.29264
11
2.26974
21
1.29035
0
LINE
8
BLACK
6
CONTINUOUS
10
2.26974
20
1.29035
11
2.26212
21
1.2874
0
LINE
8
BLACK
6
CONTINUOUS
10
2.26212
20
1.2874
11
2.25409
21
1.2859
0
LINE
8
BLACK
6
CONTINUOUS
10
2.25409
20
1.2859
11
2.24591
21
1.2859
0
LINE
8
BLACK
6
CONTINUOUS
10
2.24591
20
1.2859
11
2.23788
21
1.2874
0
LINE
8
BLACK
6
CONTINUOUS
10
2.23788
20
1.2874
11
2.23026
21
1.29035
0
LINE
8
BLACK
6
CONTINUOUS
10
2.23026
20
1.29035
11
2.22656
21
1.29264
0
LINE
8
BLACK
6
CONTINUOUS
10
2.22656
20
1.29264
11
2.21213
21
1.27821
0
LINE
8
BLACK
6
CONTINUOUS
10
2.41213
20
1.27821
11
2.41213
21
1.27821
0
LINE
8
BLACK
6
CONTINUOUS
10
2.41213
20
1.27821
11
2.41228
21
1.27808
0
LINE
8
BLACK
6
CONTINUOUS
10
2.41228
20
1.27808
11
2.41228
21
1.27808
0
LINE
8
BLACK
6
CONTINUOUS
10
2.41228
20
1.27808
11
2.42087
21
1.27282
0
LINE
8
BLACK
6
CONTINUOUS
10
2.42087
20
1.27282
11
2.42087
21
1.27282
0
LINE
8
BLACK
6
CONTINUOUS
10
2.42087
20
1.27282
11
2.43017
21
1.26897
0
LINE
8
BLACK
6
CONTINUOUS
10
2.43017
20
1.26897
11
2.43996
21
1.26662
0
LINE
8
BLACK
6
CONTINUOUS
10
2.43996
20
1.26662
11
2.43996
21
1.26662
0
LINE
8
BLACK
6
CONTINUOUS
10
2.43996
20
1.26662
11
2.45
21
1.26583
0
LINE
8
BLACK
6
CONTINUOUS
10
2.45
20
1.26583
11
2.46004
21
1.26662
0
LINE
8
BLACK
6
CONTINUOUS
10
2.46004
20
1.26662
11
2.46983
21
1.26897
0
LINE
8
BLACK
6
CONTINUOUS
10
2.46983
20
1.26897
11
2.47913
21
1.27282
0
LINE
8
BLACK
6
CONTINUOUS
10
2.47913
20
1.27282
11
2.47913
21
1.27282
0
LINE
8
BLACK
6
CONTINUOUS
10
2.47913
20
1.27282
11
2.48772
21
1.27808
0
LINE
8
BLACK
6
CONTINUOUS
10
2.48772
20
1.27808
11
2.48787
21
1.27821
0
LINE
8
BLACK
6
CONTINUOUS
10
2.48787
20
1.27821
11
2.47344
21
1.29264
0
LINE
8
BLACK
6
CONTINUOUS
10
2.47344
20
1.29264
11
2.46974
21
1.29035
0
LINE
8
BLACK
6
CONTINUOUS
10
2.46974
20
1.29035
11
2.46212
21
1.2874
0
LINE
8
BLACK
6
CONTINUOUS
10
2.46212
20
1.2874
11
2.45409
21
1.2859
0
LINE
8
BLACK
6
CONTINUOUS
10
2.45409
20
1.2859
11
2.44591
21
1.2859
0
LINE
8
BLACK
6
CONTINUOUS
10
2.44591
20
1.2859
11
2.43788
21
1.2874
0
LINE
8
BLACK
6
CONTINUOUS
10
2.43788
20
1.2874
11
2.43026
21
1.29035
0
LINE
8
BLACK
6
CONTINUOUS
10
2.43026
20
1.29035
11
2.42656
21
1.29264
0
LINE
8
BLACK
6
CONTINUOUS
10
2.42656
20
1.29264
11
2.41213
21
1.27821
0
LINE
8
BLACK
6
CONTINUOUS
10
2.28748
20
1.35356
11
2.28766
21
1.35332
0
LINE
8
BLACK
6
CONTINUOUS
10
2.28766
20
1.35332
11
2.2913
21
1.346
0
LINE
8
BLACK
6
CONTINUOUS
10
2.2913
20
1.346
11
2.29354
21
1.33814
0
LINE
8
BLACK
6
CONTINUOUS
10
2.29354
20
1.33814
11
2.29429
21
1.33
0
LINE
8
BLACK
6
CONTINUOUS
10
2.29429
20
1.33
11
2.29354
21
1.32186
0
LINE
8
BLACK
6
CONTINUOUS
10
2.29354
20
1.32186
11
2.2913
21
1.314
0
LINE
8
BLACK
6
CONTINUOUS
10
2.2913
20
1.314
11
2.28766
21
1.30668
0
LINE
8
BLACK
6
CONTINUOUS
10
2.28766
20
1.30668
11
2.28748
21
1.30644
0
LINE
8
BLACK
6
CONTINUOUS
10
2.28748
20
1.30644
11
2.30179
21
1.29213
0
LINE
8
BLACK
6
CONTINUOUS
10
2.30179
20
1.29213
11
2.30192
21
1.29228
0
LINE
8
BLACK
6
CONTINUOUS
10
2.30192
20
1.29228
11
2.30718
21
1.30087
0
LINE
8
BLACK
6
CONTINUOUS
10
2.30718
20
1.30087
11
2.30718
21
1.30087
0
LINE
8
BLACK
6
CONTINUOUS
10
2.30718
20
1.30087
11
2.31103
21
1.31017
0
LINE
8
BLACK
6
CONTINUOUS
10
2.31103
20
1.31017
11
2.31338
21
1.31996
0
LINE
8
BLACK
6
CONTINUOUS
10
2.31338
20
1.31996
11
2.31417
21
1.33
0
LINE
8
BLACK
6
CONTINUOUS
10
2.31417
20
1.33
11
2.31338
21
1.34004
0
LINE
8
BLACK
6
CONTINUOUS
10
2.31338
20
1.34004
11
2.31103
21
1.34983
0
LINE
8
BLACK
6
CONTINUOUS
10
2.31103
20
1.34983
11
2.30718
21
1.35913
0
LINE
8
BLACK
6
CONTINUOUS
10
2.30718
20
1.35913
11
2.30718
21
1.35913
0
LINE
8
BLACK
6
CONTINUOUS
10
2.30718
20
1.35913
11
2.30192
21
1.36772
0
LINE
8
BLACK
6
CONTINUOUS
10
2.30192
20
1.36772
11
2.30192
21
1.36772
0
LINE
8
BLACK
6
CONTINUOUS
10
2.30192
20
1.36772
11
2.30179
21
1.36787
0
LINE
8
BLACK
6
CONTINUOUS
10
2.30179
20
1.36787
11
2.30179
21
1.36787
0
LINE
8
BLACK
6
CONTINUOUS
10
2.30179
20
1.36787
11
2.28748
21
1.35356
0
LINE
8
BLACK
6
CONTINUOUS
10
2.48748
20
1.35356
11
2.48766
21
1.35332
0
LINE
8
BLACK
6
CONTINUOUS
10
2.48766
20
1.35332
11
2.4913
21
1.346
0
LINE
8
BLACK
6
CONTINUOUS
10
2.4913
20
1.346
11
2.49354
21
1.33814
0
LINE
8
BLACK
6
CONTINUOUS
10
2.49354
20
1.33814
11
2.49429
21
1.33
0
LINE
8
BLACK
6
CONTINUOUS
10
2.49429
20
1.33
11
2.49354
21
1.32186
0
LINE
8
BLACK
6
CONTINUOUS
10
2.49354
20
1.32186
11
2.4913
21
1.314
0
LINE
8
BLACK
6
CONTINUOUS
10
2.4913
20
1.314
11
2.48766
21
1.30668
0
LINE
8
BLACK
6
CONTINUOUS
10
2.48766
20
1.30668
11
2.48748
21
1.30644
0
LINE
8
BLACK
6
CONTINUOUS
10
2.48748
20
1.30644
11
2.50179
21
1.29213
0
LINE
8
BLACK
6
CONTINUOUS
10
2.50179
20
1.29213
11
2.50192
21
1.29228
0
LINE
8
BLACK
6
CONTINUOUS
10
2.50192
20
1.29228
11
2.50718
21
1.30087
0
LINE
8
BLACK
6
CONTINUOUS
10
2.50718
20
1.30087
11
2.50718
21
1.30087
0
LINE
8
BLACK
6
CONTINUOUS
10
2.50718
20
1.30087
11
2.51103
21
1.31017
0
LINE
8
BLACK
6
CONTINUOUS
10
2.51103
20
1.31017
11
2.51338
21
1.31996
0
LINE
8
BLACK
6
CONTINUOUS
10
2.51338
20
1.31996
11
2.51417
21
1.33
0
LINE
8
BLACK
6
CONTINUOUS
10
2.51417
20
1.33
11
2.51338
21
1.34004
0
LINE
8
BLACK
6
CONTINUOUS
10
2.51338
20
1.34004
11
2.51103
21
1.34983
0
LINE
8
BLACK
6
CONTINUOUS
10
2.51103
20
1.34983
11
2.50718
21
1.35913
0
LINE
8
BLACK
6
CONTINUOUS
10
2.50718
20
1.35913
11
2.50718
21
1.35913
0
LINE
8
BLACK
6
CONTINUOUS
10
2.50718
20
1.35913
11
2.50192
21
1.36772
0
LINE
8
BLACK
6
CONTINUOUS
10
2.50192
20
1.36772
11
2.50192
21
1.36772
0
LINE
8
BLACK
6
CONTINUOUS
10
2.50192
20
1.36772
11
2.50179
21
1.36787
0
LINE
8
BLACK
6
CONTINUOUS
10
2.50179
20
1.36787
11
2.50179
21
1.36787
0
LINE
8
BLACK
6
CONTINUOUS
10
2.50179
20
1.36787
11
2.48748
21
1.35356
0
LINE
8
BLACK
6
CONTINUOUS
10
0.904821
20
1.32252
11
0.904821
21
1.32252
0
LINE
8
BLACK
6
CONTINUOUS
10
0.904821
20
1.32252
11
0.907144
21
1.31537
0
LINE
8
BLACK
6
CONTINUOUS
10
0.907144
20
1.31537
11
0.907145
21
1.31537
0
LINE
8
BLACK
6
CONTINUOUS
10
0.907145
20
1.31537
11
0.910904
21
1.30886
0
LINE
8
BLACK
6
CONTINUOUS
10
0.910904
20
1.30886
11
0.915935
21
1.30327
0
LINE
8
BLACK
6
CONTINUOUS
10
0.915935
20
1.30327
11
0.922018
21
1.29885
0
LINE
8
BLACK
6
CONTINUOUS
10
0.922018
20
1.29885
11
0.928886
21
1.2958
0
LINE
8
BLACK
6
CONTINUOUS
10
0.928886
20
1.2958
11
0.936241
21
1.29423
0
LINE
8
BLACK
6
CONTINUOUS
10
0.936241
20
1.29423
11
0.943759
21
1.29423
0
LINE
8
BLACK
6
CONTINUOUS
10
0.943759
20
1.29423
11
0.951114
21
1.2958
0
LINE
8
BLACK
6
CONTINUOUS
10
0.951114
20
1.2958
11
0.951114
21
1.2958
0
LINE
8
BLACK
6
CONTINUOUS
10
0.951114
20
1.2958
11
0.951357
21
1.29587
0
LINE
8
BLACK
6
CONTINUOUS
10
0.951357
20
1.29587
11
0.951368
21
1.29584
0
LINE
8
BLACK
6
CONTINUOUS
10
0.951368
20
1.29584
11
0.953062
21
1.2962
0
LINE
8
BLACK
6
CONTINUOUS
10
0.953062
20
1.2962
11
1.06694
21
1.2962
0
LINE
8
BLACK
6
CONTINUOUS
10
1.06694
20
1.2962
11
1.06863
21
1.29584
0
LINE
8
BLACK
6
CONTINUOUS
10
1.06863
20
1.29584
11
1.06864
21
1.29587
0
LINE
8
BLACK
6
CONTINUOUS
10
1.06864
20
1.29587
11
1.06889
21
1.2958
0
LINE
8
BLACK
6
CONTINUOUS
10
1.06889
20
1.2958
11
1.06889
21
1.2958
0
LINE
8
BLACK
6
CONTINUOUS
10
1.06889
20
1.2958
11
1.07624
21
1.29423
0
LINE
8
BLACK
6
CONTINUOUS
10
1.07624
20
1.29423
11
1.08376
21
1.29423
0
LINE
8
BLACK
6
CONTINUOUS
10
1.08376
20
1.29423
11
1.09111
21
1.2958
0
LINE
8
BLACK
6
CONTINUOUS
10
1.09111
20
1.2958
11
1.09798
21
1.29885
0
LINE
8
BLACK
6
CONTINUOUS
10
1.09798
20
1.29885
11
1.10407
21
1.30327
0
LINE
8
BLACK
6
CONTINUOUS
10
1.10407
20
1.30327
11
1.1091
21
1.30886
0
LINE
8
BLACK
6
CONTINUOUS
10
1.1091
20
1.30886
11
1.11286
21
1.31537
0
LINE
8
BLACK
6
CONTINUOUS
10
1.11286
20
1.31537
11
1.11518
21
1.32252
0
LINE
8
BLACK
6
CONTINUOUS
10
1.11518
20
1.32252
11
1.11596
21
1.33
0
LINE
8
BLACK
6
CONTINUOUS
10
1.11596
20
1.33
11
1.11518
21
1.33748
0
LINE
8
BLACK
6
CONTINUOUS
10
1.11518
20
1.33748
11
1.11286
21
1.34463
0
LINE
8
BLACK
6
CONTINUOUS
10
1.11286
20
1.34463
11
1.1091
21
1.35114
0
LINE
8
BLACK
6
CONTINUOUS
10
1.1091
20
1.35114
11
1.10407
21
1.35673
0
LINE
8
BLACK
6
CONTINUOUS
10
1.10407
20
1.35673
11
1.09798
21
1.36115
0
LINE
8
BLACK
6
CONTINUOUS
10
1.09798
20
1.36115
11
1.09111
21
1.3642
0
LINE
8
BLACK
6
CONTINUOUS
10
1.09111
20
1.3642
11
1.09111
21
1.3642
0
LINE
8
BLACK
6
CONTINUOUS
10
1.09111
20
1.3642
11
1.08376
21
1.36577
0
LINE
8
BLACK
6
CONTINUOUS
10
1.08376
20
1.36577
11
1.07624
21
1.36577
0
LINE
8
BLACK
6
CONTINUOUS
10
1.07624
20
1.36577
11
1.06889
21
1.3642
0
LINE
8
BLACK
6
CONTINUOUS
10
1.06889
20
1.3642
11
1.06864
21
1.36413
0
LINE
8
BLACK
6
CONTINUOUS
10
1.06864
20
1.36413
11
1.06863
21
1.36416
0
LINE
8
BLACK
6
CONTINUOUS
10
1.06863
20
1.36416
11
1.06694
21
1.3638
0
LINE
8
BLACK
6
CONTINUOUS
10
1.06694
20
1.3638
11
0.953062
21
1.3638
0
LINE
8
BLACK
6
CONTINUOUS
10
0.953062
20
1.3638
11
0.951368
21
1.36416
0
LINE
8
BLACK
6
CONTINUOUS
10
0.951368
20
1.36416
11
0.951357
21
1.36413
0
LINE
8
BLACK
6
CONTINUOUS
10
0.951357
20
1.36413
11
0.951114
21
1.3642
0
LINE
8
BLACK
6
CONTINUOUS
10
0.951114
20
1.3642
11
0.943759
21
1.36577
0
LINE
8
BLACK
6
CONTINUOUS
10
0.943759
20
1.36577
11
0.936241
21
1.36577
0
LINE
8
BLACK
6
CONTINUOUS
10
0.936241
20
1.36577
11
0.928886
21
1.3642
0
LINE
8
BLACK
6
CONTINUOUS
10
0.928886
20
1.3642
11
0.928886
21
1.3642
0
LINE
8
BLACK
6
CONTINUOUS
10
0.928886
20
1.3642
11
0.928886
21
1.3642
0
LINE
8
BLACK
6
CONTINUOUS
10
0.928886
20
1.3642
11
0.922735
21
1.36147
0
LINE
8
BLACK
6
CONTINUOUS
10
0.922735
20
1.36147
11
0.922018
21
1.36115
0
LINE
8
BLACK
6
CONTINUOUS
10
0.922018
20
1.36115
11
0.915935
21
1.35673
0
LINE
8
BLACK
6
CONTINUOUS
10
0.915935
20
1.35673
11
0.910904
21
1.35114
0
LINE
8
BLACK
6
CONTINUOUS
10
0.910904
20
1.35114
11
0.907145
21
1.34463
0
LINE
8
BLACK
6
CONTINUOUS
10
0.907145
20
1.34463
11
0.907144
21
1.34463
0
LINE
8
BLACK
6
CONTINUOUS
10
0.907144
20
1.34463
11
0.90502
21
1.33809
0
LINE
8
BLACK
6
CONTINUOUS
10
0.90502
20
1.33809
11
0.904821
21
1.33748
0
LINE
8
BLACK
6
CONTINUOUS
10
0.904821
20
1.33748
11
0.904035
21
1.33
0
LINE
8
BLACK
6
CONTINUOUS
10
0.904035
20
1.33
11
0.904821
21
1.32252
0
LINE
8
BLACK
6
CONTINUOUS
10
0.419843
20
1.385
11
0.44
21
1.385
0
LINE
8
BLACK
6
CONTINUOUS
10
0.44
20
1.385
11
0.44
21
1.36484
0
LINE
8
BLACK
6
CONTINUOUS
10
0.44
20
1.36484
11
0.459685
21
1.36484
0
LINE
8
BLACK
6
CONTINUOUS
10
0.459685
20
1.36484
11
0.459685
21
1.38688
0
LINE
8
BLACK
6
CONTINUOUS
10
0.459685
20
1.38688
11
0.459685
21
1.38688
0
LINE
8
BLACK
6
CONTINUOUS
10
0.459685
20
1.38688
11
0.459433
21
1.38923
0
LINE
8
BLACK
6
CONTINUOUS
10
0.459433
20
1.38923
11
0.459433
21
1.38923
0
LINE
8
BLACK
6
CONTINUOUS
10
0.459433
20
1.38923
11
0.457455
21
1.39453
0
LINE
8
BLACK
6
CONTINUOUS
10
0.457455
20
1.39453
11
0.457455
21
1.39453
0
LINE
8
BLACK
6
CONTINUOUS
10
0.457455
20
1.39453
11
0.454063
21
1.39906
0
LINE
8
BLACK
6
CONTINUOUS
10
0.454063
20
1.39906
11
0.454062
21
1.39906
0
LINE
8
BLACK
6
CONTINUOUS
10
0.454062
20
1.39906
11
0.449531
21
1.40245
0
LINE
8
BLACK
6
CONTINUOUS
10
0.449531
20
1.40245
11
0.449531
21
1.40245
0
LINE
8
BLACK
6
CONTINUOUS
10
0.449531
20
1.40245
11
0.444228
21
1.40443
0
LINE
8
BLACK
6
CONTINUOUS
10
0.444228
20
1.40443
11
0.444227
21
1.40443
0
LINE
8
BLACK
6
CONTINUOUS
10
0.444227
20
1.40443
11
0.441884
21
1.40469
0
LINE
8
BLACK
6
CONTINUOUS
10
0.441884
20
1.40469
11
0.419843
21
1.40469
0
LINE
8
BLACK
6
CONTINUOUS
10
0.419843
20
1.40469
11
0.419843
21
1.385
0
LINE
8
BLACK
6
CONTINUOUS
10
0.319843
20
1.385
11
0.34
21
1.385
0
LINE
8
BLACK
6
CONTINUOUS
10
0.34
20
1.385
11
0.34
21
1.36484
0
LINE
8
BLACK
6
CONTINUOUS
10
0.34
20
1.36484
11
0.38
21
1.36484
0
LINE
8
BLACK
6
CONTINUOUS
10
0.38
20
1.36484
11
0.38
21
1.385
0
LINE
8
BLACK
6
CONTINUOUS
10
0.38
20
1.385
11
0.400157
21
1.385
0
LINE
8
BLACK
6
CONTINUOUS
10
0.400157
20
1.385
11
0.400157
21
1.40469
0
LINE
8
BLACK
6
CONTINUOUS
10
0.400157
20
1.40469
11
0.378116
21
1.40469
0
LINE
8
BLACK
6
CONTINUOUS
10
0.378116
20
1.40469
11
0.375773
21
1.40443
0
LINE
8
BLACK
6
CONTINUOUS
10
0.375773
20
1.40443
11
0.375772
21
1.40443
0
LINE
8
BLACK
6
CONTINUOUS
10
0.375772
20
1.40443
11
0.370469
21
1.40245
0
LINE
8
BLACK
6
CONTINUOUS
10
0.370469
20
1.40245
11
0.370469
21
1.40245
0
LINE
8
BLACK
6
CONTINUOUS
10
0.370469
20
1.40245
11
0.365937
21
1.39906
0
LINE
8
BLACK
6
CONTINUOUS
10
0.365937
20
1.39906
11
0.363908
21
1.39635
0
LINE
8
BLACK
6
CONTINUOUS
10
0.363908
20
1.39635
11
0.361706
21
1.3947
0
LINE
8
BLACK
6
CONTINUOUS
10
0.361706
20
1.3947
11
0.358962
21
1.39451
0
LINE
8
BLACK
6
CONTINUOUS
10
0.358962
20
1.39451
11
0.356548
21
1.39583
0
LINE
8
BLACK
6
CONTINUOUS
10
0.356548
20
1.39583
11
0.356092
21
1.39635
0
LINE
8
BLACK
6
CONTINUOUS
10
0.356092
20
1.39635
11
0.354062
21
1.39906
0
LINE
8
BLACK
6
CONTINUOUS
10
0.354062
20
1.39906
11
0.349531
21
1.40245
0
LINE
8
BLACK
6
CONTINUOUS
10
0.349531
20
1.40245
11
0.349531
21
1.40245
0
LINE
8
BLACK
6
CONTINUOUS
10
0.349531
20
1.40245
11
0.344228
21
1.40443
0
LINE
8
BLACK
6
CONTINUOUS
10
0.344228
20
1.40443
11
0.344227
21
1.40443
0
LINE
8
BLACK
6
CONTINUOUS
10
0.344227
20
1.40443
11
0.341884
21
1.40469
0
LINE
8
BLACK
6
CONTINUOUS
10
0.341884
20
1.40469
11
0.319843
21
1.40469
0
LINE
8
BLACK
6
CONTINUOUS
10
0.319843
20
1.40469
11
0.319843
21
1.385
0
LINE
8
BLACK
6
CONTINUOUS
10
0.275773
20
1.40443
11
0.275772
21
1.40443
0
LINE
8
BLACK
6
CONTINUOUS
10
0.275772
20
1.40443
11
0.270469
21
1.40245
0
LINE
8
BLACK
6
CONTINUOUS
10
0.270469
20
1.40245
11
0.270469
21
1.40245
0
LINE
8
BLACK
6
CONTINUOUS
10
0.270469
20
1.40245
11
0.265937
21
1.39906
0
LINE
8
BLACK
6
CONTINUOUS
10
0.265937
20
1.39906
11
0.265937
21
1.39906
0
LINE
8
BLACK
6
CONTINUOUS
10
0.265937
20
1.39906
11
0.262545
21
1.39453
0
LINE
8
BLACK
6
CONTINUOUS
10
0.262545
20
1.39453
11
0.262545
21
1.39453
0
LINE
8
BLACK
6
CONTINUOUS
10
0.262545
20
1.39453
11
0.260567
21
1.38923
0
LINE
8
BLACK
6
CONTINUOUS
10
0.260567
20
1.38923
11
0.260567
21
1.38923
0
LINE
8
BLACK
6
CONTINUOUS
10
0.260567
20
1.38923
11
0.260315
21
1.38688
0
LINE
8
BLACK
6
CONTINUOUS
10
0.260315
20
1.38688
11
0.260315
21
1.36484
0
LINE
8
BLACK
6
CONTINUOUS
10
0.260315
20
1.36484
11
0.28
21
1.36484
0
LINE
8
BLACK
6
CONTINUOUS
10
0.28
20
1.36484
11
0.28
21
1.385
0
LINE
8
BLACK
6
CONTINUOUS
10
0.28
20
1.385
11
0.300157
21
1.385
0
LINE
8
BLACK
6
CONTINUOUS
10
0.300157
20
1.385
11
0.300157
21
1.40469
0
LINE
8
BLACK
6
CONTINUOUS
10
0.300157
20
1.40469
11
0.278116
21
1.40469
0
LINE
8
BLACK
6
CONTINUOUS
10
0.278116
20
1.40469
11
0.275773
21
1.40443
0
LINE
8
BLACK
6
CONTINUOUS
10
2.23996
20
1.39338
11
2.23017
21
1.39103
0
LINE
8
BLACK
6
CONTINUOUS
10
2.23017
20
1.39103
11
2.22087
21
1.38718
0
LINE
8
BLACK
6
CONTINUOUS
10
2.22087
20
1.38718
11
2.22087
21
1.38718
0
LINE
8
BLACK
6
CONTINUOUS
10
2.22087
20
1.38718
11
2.21228
21
1.38192
0
LINE
8
BLACK
6
CONTINUOUS
10
2.21228
20
1.38192
11
2.21213
21
1.38179
0
LINE
8
BLACK
6
CONTINUOUS
10
2.21213
20
1.38179
11
2.22656
21
1.36736
0
LINE
8
BLACK
6
CONTINUOUS
10
2.22656
20
1.36736
11
2.23026
21
1.36965
0
LINE
8
BLACK
6
CONTINUOUS
10
2.23026
20
1.36965
11
2.23788
21
1.3726
0
LINE
8
BLACK
6
CONTINUOUS
10
2.23788
20
1.3726
11
2.24591
21
1.3741
0
LINE
8
BLACK
6
CONTINUOUS
10
2.24591
20
1.3741
11
2.25409
21
1.3741
0
LINE
8
BLACK
6
CONTINUOUS
10
2.25409
20
1.3741
11
2.26212
21
1.3726
0
LINE
8
BLACK
6
CONTINUOUS
10
2.26212
20
1.3726
11
2.26974
21
1.36965
0
LINE
8
BLACK
6
CONTINUOUS
10
2.26974
20
1.36965
11
2.27344
21
1.36736
0
LINE
8
BLACK
6
CONTINUOUS
10
2.27344
20
1.36736
11
2.28787
21
1.38179
0
LINE
8
BLACK
6
CONTINUOUS
10
2.28787
20
1.38179
11
2.28787
21
1.38179
0
LINE
8
BLACK
6
CONTINUOUS
10
2.28787
20
1.38179
11
2.28772
21
1.38192
0
LINE
8
BLACK
6
CONTINUOUS
10
2.28772
20
1.38192
11
2.28772
21
1.38192
0
LINE
8
BLACK
6
CONTINUOUS
10
2.28772
20
1.38192
11
2.27913
21
1.38718
0
LINE
8
BLACK
6
CONTINUOUS
10
2.27913
20
1.38718
11
2.27913
21
1.38718
0
LINE
8
BLACK
6
CONTINUOUS
10
2.27913
20
1.38718
11
2.26983
21
1.39103
0
LINE
8
BLACK
6
CONTINUOUS
10
2.26983
20
1.39103
11
2.26004
21
1.39338
0
LINE
8
BLACK
6
CONTINUOUS
10
2.26004
20
1.39338
11
2.26004
21
1.39338
0
LINE
8
BLACK
6
CONTINUOUS
10
2.26004
20
1.39338
11
2.25
21
1.39417
0
LINE
8
BLACK
6
CONTINUOUS
10
2.25
20
1.39417
11
2.23996
21
1.39338
0
LINE
8
BLACK
6
CONTINUOUS
10
2.43996
20
1.39338
11
2.43017
21
1.39103
0
LINE
8
BLACK
6
CONTINUOUS
10
2.43017
20
1.39103
11
2.42087
21
1.38718
0
LINE
8
BLACK
6
CONTINUOUS
10
2.42087
20
1.38718
11
2.42087
21
1.38718
0
LINE
8
BLACK
6
CONTINUOUS
10
2.42087
20
1.38718
11
2.41228
21
1.38192
0
LINE
8
BLACK
6
CONTINUOUS
10
2.41228
20
1.38192
11
2.41213
21
1.38179
0
LINE
8
BLACK
6
CONTINUOUS
10
2.41213
20
1.38179
11
2.42656
21
1.36736
0
LINE
8
BLACK
6
CONTINUOUS
10
2.42656
20
1.36736
11
2.43026
21
1.36965
0
LINE
8
BLACK
6
CONTINUOUS
10
2.43026
20
1.36965
11
2.43788
21
1.3726
0
LINE
8
BLACK
6
CONTINUOUS
10
2.43788
20
1.3726
11
2.44591
21
1.3741
0
LINE
8
BLACK
6
CONTINUOUS
10
2.44591
20
1.3741
11
2.45409
21
1.3741
0
LINE
8
BLACK
6
CONTINUOUS
10
2.45409
20
1.3741
11
2.46212
21
1.3726
0
LINE
8
BLACK
6
CONTINUOUS
10
2.46212
20
1.3726
11
2.46974
21
1.36965
0
LINE
8
BLACK
6
CONTINUOUS
10
2.46974
20
1.36965
11
2.47344
21
1.36736
0
LINE
8
BLACK
6
CONTINUOUS
10
2.47344
20
1.36736
11
2.48787
21
1.38179
0
LINE
8
BLACK
6
CONTINUOUS
10
2.48787
20
1.38179
11
2.48787
21
1.38179
0
LINE
8
BLACK
6
CONTINUOUS
10
2.48787
20
1.38179
11
2.48772
21
1.38192
0
LINE
8
BLACK
6
CONTINUOUS
10
2.48772
20
1.38192
11
2.48772
21
1.38192
0
LINE
8
BLACK
6
CONTINUOUS
10
2.48772
20
1.38192
11
2.47913
21
1.38718
0
LINE
8
BLACK
6
CONTINUOUS
10
2.47913
20
1.38718
11
2.47913
21
1.38718
0
LINE
8
BLACK
6
CONTINUOUS
10
2.47913
20
1.38718
11
2.46983
21
1.39103
0
LINE
8
BLACK
6
CONTINUOUS
10
2.46983
20
1.39103
11
2.46004
21
1.39338
0
LINE
8
BLACK
6
CONTINUOUS
10
2.46004
20
1.39338
11
2.46004
21
1.39338
0
LINE
8
BLACK
6
CONTINUOUS
10
2.46004
20
1.39338
11
2.45
21
1.39417
0
LINE
8
BLACK
6
CONTINUOUS
10
2.45
20
1.39417
11
2.43996
21
1.39338
0
LINE
8
BLACK
6
CONTINUOUS
10
1.26889
20
1.5642
11
1.26202
21
1.56115
0
LINE
8
BLACK
6
CONTINUOUS
10
1.26202
20
1.56115
11
1.25593
21
1.55673
0
LINE
8
BLACK
6
CONTINUOUS
10
1.25593
20
1.55673
11
1.2509
21
1.55114
0
LINE
8
BLACK
6
CONTINUOUS
10
1.2509
20
1.55114
11
1.24714
21
1.54463
0
LINE
8
BLACK
6
CONTINUOUS
10
1.24714
20
1.54463
11
1.24714
21
1.54463
0
LINE
8
BLACK
6
CONTINUOUS
10
1.24714
20
1.54463
11
1.24482
21
1.53748
0
LINE
8
BLACK
6
CONTINUOUS
10
1.24482
20
1.53748
11
1.24482
21
1.53748
0
LINE
8
BLACK
6
CONTINUOUS
10
1.24482
20
1.53748
11
1.24404
21
1.53
0
LINE
8
BLACK
6
CONTINUOUS
10
1.24404
20
1.53
11
1.24482
21
1.52252
0
LINE
8
BLACK
6
CONTINUOUS
10
1.24482
20
1.52252
11
1.24482
21
1.52252
0
LINE
8
BLACK
6
CONTINUOUS
10
1.24482
20
1.52252
11
1.24714
21
1.51537
0
LINE
8
BLACK
6
CONTINUOUS
10
1.24714
20
1.51537
11
1.24714
21
1.51537
0
LINE
8
BLACK
6
CONTINUOUS
10
1.24714
20
1.51537
11
1.25047
21
1.50962
0
LINE
8
BLACK
6
CONTINUOUS
10
1.25047
20
1.50962
11
1.25112
21
1.50717
0
LINE
8
BLACK
6
CONTINUOUS
10
1.25112
20
1.50717
11
1.25112
21
1.47283
0
LINE
8
BLACK
6
CONTINUOUS
10
1.25112
20
1.47283
11
1.25047
21
1.47038
0
LINE
8
BLACK
6
CONTINUOUS
10
1.25047
20
1.47038
11
1.24714
21
1.46463
0
LINE
8
BLACK
6
CONTINUOUS
10
1.24714
20
1.46463
11
1.24714
21
1.46463
0
LINE
8
BLACK
6
CONTINUOUS
10
1.24714
20
1.46463
11
1.24482
21
1.45748
0
LINE
8
BLACK
6
CONTINUOUS
10
1.24482
20
1.45748
11
1.24482
21
1.45748
0
LINE
8
BLACK
6
CONTINUOUS
10
1.24482
20
1.45748
11
1.24404
21
1.45
0
LINE
8
BLACK
6
CONTINUOUS
10
1.24404
20
1.45
11
1.24482
21
1.44252
0
LINE
8
BLACK
6
CONTINUOUS
10
1.24482
20
1.44252
11
1.24482
21
1.44252
0
LINE
8
BLACK
6
CONTINUOUS
10
1.24482
20
1.44252
11
1.24714
21
1.43537
0
LINE
8
BLACK
6
CONTINUOUS
10
1.24714
20
1.43537
11
1.24714
21
1.43537
0
LINE
8
BLACK
6
CONTINUOUS
10
1.24714
20
1.43537
11
1.2509
21
1.42886
0
LINE
8
BLACK
6
CONTINUOUS
10
1.2509
20
1.42886
11
1.25593
21
1.42327
0
LINE
8
BLACK
6
CONTINUOUS
10
1.25593
20
1.42327
11
1.26202
21
1.41885
0
LINE
8
BLACK
6
CONTINUOUS
10
1.26202
20
1.41885
11
1.26889
21
1.4158
0
LINE
8
BLACK
6
CONTINUOUS
10
1.26889
20
1.4158
11
1.27624
21
1.41423
0
LINE
8
BLACK
6
CONTINUOUS
10
1.27624
20
1.41423
11
1.28376
21
1.41423
0
LINE
8
BLACK
6
CONTINUOUS
10
1.28376
20
1.41423
11
1.29111
21
1.4158
0
LINE
8
BLACK
6
CONTINUOUS
10
1.29111
20
1.4158
11
1.29798
21
1.41885
0
LINE
8
BLACK
6
CONTINUOUS
10
1.29798
20
1.41885
11
1.30407
21
1.42327
0
LINE
8
BLACK
6
CONTINUOUS
10
1.30407
20
1.42327
11
1.3091
21
1.42886
0
LINE
8
BLACK
6
CONTINUOUS
10
1.3091
20
1.42886
11
1.31286
21
1.43537
0
LINE
8
BLACK
6
CONTINUOUS
10
1.31286
20
1.43537
11
1.31518
21
1.44252
0
LINE
8
BLACK
6
CONTINUOUS
10
1.31518
20
1.44252
11
1.31596
21
1.45
0
LINE
8
BLACK
6
CONTINUOUS
10
1.31596
20
1.45
11
1.31518
21
1.45748
0
LINE
8
BLACK
6
CONTINUOUS
10
1.31518
20
1.45748
11
1.31286
21
1.46463
0
LINE
8
BLACK
6
CONTINUOUS
10
1.31286
20
1.46463
11
1.31142
21
1.46712
0
LINE
8
BLACK
6
CONTINUOUS
10
1.31142
20
1.46712
11
1.30953
21
1.47038
0
LINE
8
BLACK
6
CONTINUOUS
10
1.30953
20
1.47038
11
1.30888
21
1.47283
0
LINE
8
BLACK
6
CONTINUOUS
10
1.30888
20
1.47283
11
1.30888
21
1.50717
0
LINE
8
BLACK
6
CONTINUOUS
10
1.30888
20
1.50717
11
1.30953
21
1.50962
0
LINE
8
BLACK
6
CONTINUOUS
10
1.30953
20
1.50962
11
1.31286
21
1.51537
0
LINE
8
BLACK
6
CONTINUOUS
10
1.31286
20
1.51537
11
1.31518
21
1.52252
0
LINE
8
BLACK
6
CONTINUOUS
10
1.31518
20
1.52252
11
1.31596
21
1.53
0
LINE
8
BLACK
6
CONTINUOUS
10
1.31596
20
1.53
11
1.31518
21
1.53748
0
LINE
8
BLACK
6
CONTINUOUS
10
1.31518
20
1.53748
11
1.31286
21
1.54463
0
LINE
8
BLACK
6
CONTINUOUS
10
1.31286
20
1.54463
11
1.3091
21
1.55114
0
LINE
8
BLACK
6
CONTINUOUS
10
1.3091
20
1.55114
11
1.30407
21
1.55673
0
LINE
8
BLACK
6
CONTINUOUS
10
1.30407
20
1.55673
11
1.29798
21
1.56115
0
LINE
8
BLACK
6
CONTINUOUS
10
1.29798
20
1.56115
11
1.29111
21
1.5642
0
LINE
8
BLACK
6
CONTINUOUS
10
1.29111
20
1.5642
11
1.29111
21
1.5642
0
LINE
8
BLACK
6
CONTINUOUS
10
1.29111
20
1.5642
11
1.28376
21
1.56577
0
LINE
8
BLACK
6
CONTINUOUS
10
1.28376
20
1.56577
11
1.27624
21
1.56577
0
LINE
8
BLACK
6
CONTINUOUS
10
1.27624
20
1.56577
11
1.26889
21
1.5642
0
LINE
8
BLACK
6
CONTINUOUS
10
2.18662
20
1.11996
11
2.18897
21
1.11017
0
LINE
8
BLACK
6
CONTINUOUS
10
2.18897
20
1.11017
11
2.19282
21
1.10087
0
LINE
8
BLACK
6
CONTINUOUS
10
2.19282
20
1.10087
11
2.19282
21
1.10087
0
LINE
8
BLACK
6
CONTINUOUS
10
2.19282
20
1.10087
11
2.19808
21
1.09228
0
LINE
8
BLACK
6
CONTINUOUS
10
2.19808
20
1.09228
11
2.19808
21
1.09228
0
LINE
8
BLACK
6
CONTINUOUS
10
2.19808
20
1.09228
11
2.19821
21
1.09213
0
LINE
8
BLACK
6
CONTINUOUS
10
2.19821
20
1.09213
11
2.19821
21
1.09213
0
LINE
8
BLACK
6
CONTINUOUS
10
2.19821
20
1.09213
11
2.21252
21
1.10644
0
LINE
8
BLACK
6
CONTINUOUS
10
2.21252
20
1.10644
11
2.21234
21
1.10668
0
LINE
8
BLACK
6
CONTINUOUS
10
2.21234
20
1.10668
11
2.2087
21
1.114
0
LINE
8
BLACK
6
CONTINUOUS
10
2.2087
20
1.114
11
2.20646
21
1.12186
0
LINE
8
BLACK
6
CONTINUOUS
10
2.20646
20
1.12186
11
2.20571
21
1.13
0
LINE
8
BLACK
6
CONTINUOUS
10
2.20571
20
1.13
11
2.20646
21
1.13814
0
LINE
8
BLACK
6
CONTINUOUS
10
2.20646
20
1.13814
11
2.2087
21
1.146
0
LINE
8
BLACK
6
CONTINUOUS
10
2.2087
20
1.146
11
2.21234
21
1.15332
0
LINE
8
BLACK
6
CONTINUOUS
10
2.21234
20
1.15332
11
2.21252
21
1.15356
0
LINE
8
BLACK
6
CONTINUOUS
10
2.21252
20
1.15356
11
2.19821
21
1.16787
0
LINE
8
BLACK
6
CONTINUOUS
10
2.19821
20
1.16787
11
2.19808
21
1.16772
0
LINE
8
BLACK
6
CONTINUOUS
10
2.19808
20
1.16772
11
2.19282
21
1.15913
0
LINE
8
BLACK
6
CONTINUOUS
10
2.19282
20
1.15913
11
2.19282
21
1.15913
0
LINE
8
BLACK
6
CONTINUOUS
10
2.19282
20
1.15913
11
2.18897
21
1.14983
0
LINE
8
BLACK
6
CONTINUOUS
10
2.18897
20
1.14983
11
2.18662
21
1.14004
0
LINE
8
BLACK
6
CONTINUOUS
10
2.18662
20
1.14004
11
2.18583
21
1.13
0
LINE
8
BLACK
6
CONTINUOUS
10
2.18583
20
1.13
11
2.18662
21
1.11996
0
LINE
8
BLACK
6
CONTINUOUS
10
2.38662
20
1.11996
11
2.38897
21
1.11017
0
LINE
8
BLACK
6
CONTINUOUS
10
2.38897
20
1.11017
11
2.39282
21
1.10087
0
LINE
8
BLACK
6
CONTINUOUS
10
2.39282
20
1.10087
11
2.39282
21
1.10087
0
LINE
8
BLACK
6
CONTINUOUS
10
2.39282
20
1.10087
11
2.39808
21
1.09228
0
LINE
8
BLACK
6
CONTINUOUS
10
2.39808
20
1.09228
11
2.39808
21
1.09228
0
LINE
8
BLACK
6
CONTINUOUS
10
2.39808
20
1.09228
11
2.39821
21
1.09213
0
LINE
8
BLACK
6
CONTINUOUS
10
2.39821
20
1.09213
11
2.39821
21
1.09213
0
LINE
8
BLACK
6
CONTINUOUS
10
2.39821
20
1.09213
11
2.41252
21
1.10644
0
LINE
8
BLACK
6
CONTINUOUS
10
2.41252
20
1.10644
11
2.41234
21
1.10668
0
LINE
8
BLACK
6
CONTINUOUS
10
2.41234
20
1.10668
11
2.4087
21
1.114
0
LINE
8
BLACK
6
CONTINUOUS
10
2.4087
20
1.114
11
2.40646
21
1.12186
0
LINE
8
BLACK
6
CONTINUOUS
10
2.40646
20
1.12186
11
2.40571
21
1.13
0
LINE
8
BLACK
6
CONTINUOUS
10
2.40571
20
1.13
11
2.40646
21
1.13814
0
LINE
8
BLACK
6
CONTINUOUS
10
2.40646
20
1.13814
11
2.4087
21
1.146
0
LINE
8
BLACK
6
CONTINUOUS
10
2.4087
20
1.146
11
2.41234
21
1.15332
0
LINE
8
BLACK
6
CONTINUOUS
10
2.41234
20
1.15332
11
2.41252
21
1.15356
0
LINE
8
BLACK
6
CONTINUOUS
10
2.41252
20
1.15356
11
2.39821
21
1.16787
0
LINE
8
BLACK
6
CONTINUOUS
10
2.39821
20
1.16787
11
2.39808
21
1.16772
0
LINE
8
BLACK
6
CONTINUOUS
10
2.39808
20
1.16772
11
2.39282
21
1.15913
0
LINE
8
BLACK
6
CONTINUOUS
10
2.39282
20
1.15913
11
2.39282
21
1.15913
0
LINE
8
BLACK
6
CONTINUOUS
10
2.39282
20
1.15913
11
2.38897
21
1.14983
0
LINE
8
BLACK
6
CONTINUOUS
10
2.38897
20
1.14983
11
2.38662
21
1.14004
0
LINE
8
BLACK
6
CONTINUOUS
10
2.38662
20
1.14004
11
2.38583
21
1.13
0
LINE
8
BLACK
6
CONTINUOUS
10
2.38583
20
1.13
11
2.38662
21
1.11996
0
LINE
8
BLACK
6
CONTINUOUS
10
2.18662
20
1.31996
11
2.18897
21
1.31017
0
LINE
8
BLACK
6
CONTINUOUS
10
2.18897
20
1.31017
11
2.19282
21
1.30087
0
LINE
8
BLACK
6
CONTINUOUS
10
2.19282
20
1.30087
11
2.19282
21
1.30087
0
LINE
8
BLACK
6
CONTINUOUS
10
2.19282
20
1.30087
11
2.19808
21
1.29228
0
LINE
8
BLACK
6
CONTINUOUS
10
2.19808
20
1.29228
11
2.19808
21
1.29228
0
LINE
8
BLACK
6
CONTINUOUS
10
2.19808
20
1.29228
11
2.19821
21
1.29213
0
LINE
8
BLACK
6
CONTINUOUS
10
2.19821
20
1.29213
11
2.19821
21
1.29213
0
LINE
8
BLACK
6
CONTINUOUS
10
2.19821
20
1.29213
11
2.21252
21
1.30644
0
LINE
8
BLACK
6
CONTINUOUS
10
2.21252
20
1.30644
11
2.21234
21
1.30668
0
LINE
8
BLACK
6
CONTINUOUS
10
2.21234
20
1.30668
11
2.2087
21
1.314
0
LINE
8
BLACK
6
CONTINUOUS
10
2.2087
20
1.314
11
2.20646
21
1.32186
0
LINE
8
BLACK
6
CONTINUOUS
10
2.20646
20
1.32186
11
2.20571
21
1.33
0
LINE
8
BLACK
6
CONTINUOUS
10
2.20571
20
1.33
11
2.20646
21
1.33814
0
LINE
8
BLACK
6
CONTINUOUS
10
2.20646
20
1.33814
11
2.2087
21
1.346
0
LINE
8
BLACK
6
CONTINUOUS
10
2.2087
20
1.346
11
2.21234
21
1.35332
0
LINE
8
BLACK
6
CONTINUOUS
10
2.21234
20
1.35332
11
2.21252
21
1.35356
0
LINE
8
BLACK
6
CONTINUOUS
10
2.21252
20
1.35356
11
2.19821
21
1.36787
0
LINE
8
BLACK
6
CONTINUOUS
10
2.19821
20
1.36787
11
2.19808
21
1.36772
0
LINE
8
BLACK
6
CONTINUOUS
10
2.19808
20
1.36772
11
2.19282
21
1.35913
0
LINE
8
BLACK
6
CONTINUOUS
10
2.19282
20
1.35913
11
2.19282
21
1.35913
0
LINE
8
BLACK
6
CONTINUOUS
10
2.19282
20
1.35913
11
2.18897
21
1.34983
0
LINE
8
BLACK
6
CONTINUOUS
10
2.18897
20
1.34983
11
2.18662
21
1.34004
0
LINE
8
BLACK
6
CONTINUOUS
10
2.18662
20
1.34004
11
2.18583
21
1.33
0
LINE
8
BLACK
6
CONTINUOUS
10
2.18583
20
1.33
11
2.18662
21
1.31996
0
LINE
8
BLACK
6
CONTINUOUS
10
2.38662
20
1.31996
11
2.38897
21
1.31017
0
LINE
8
BLACK
6
CONTINUOUS
10
2.38897
20
1.31017
11
2.39282
21
1.30087
0
LINE
8
BLACK
6
CONTINUOUS
10
2.39282
20
1.30087
11
2.39282
21
1.30087
0
LINE
8
BLACK
6
CONTINUOUS
10
2.39282
20
1.30087
11
2.39808
21
1.29228
0
LINE
8
BLACK
6
CONTINUOUS
10
2.39808
20
1.29228
11
2.39808
21
1.29228
0
LINE
8
BLACK
6
CONTINUOUS
10
2.39808
20
1.29228
11
2.39821
21
1.29213
0
LINE
8
BLACK
6
CONTINUOUS
10
2.39821
20
1.29213
11
2.39821
21
1.29213
0
LINE
8
BLACK
6
CONTINUOUS
10
2.39821
20
1.29213
11
2.41252
21
1.30644
0
LINE
8
BLACK
6
CONTINUOUS
10
2.41252
20
1.30644
11
2.41234
21
1.30668
0
LINE
8
BLACK
6
CONTINUOUS
10
2.41234
20
1.30668
11
2.4087
21
1.314
0
LINE
8
BLACK
6
CONTINUOUS
10
2.4087
20
1.314
11
2.40646
21
1.32186
0
LINE
8
BLACK
6
CONTINUOUS
10
2.40646
20
1.32186
11
2.40571
21
1.33
0
LINE
8
BLACK
6
CONTINUOUS
10
2.40571
20
1.33
11
2.40646
21
1.33814
0
LINE
8
BLACK
6
CONTINUOUS
10
2.40646
20
1.33814
11
2.4087
21
1.346
0
LINE
8
BLACK
6
CONTINUOUS
10
2.4087
20
1.346
11
2.41234
21
1.35332
0
LINE
8
BLACK
6
CONTINUOUS
10
2.41234
20
1.35332
11
2.41252
21
1.35356
0
LINE
8
BLACK
6
CONTINUOUS
10
2.41252
20
1.35356
11
2.39821
21
1.36787
0
LINE
8
BLACK
6
CONTINUOUS
10
2.39821
20
1.36787
11
2.39808
21
1.36772
0
LINE
8
BLACK
6
CONTINUOUS
10
2.39808
20
1.36772
11
2.39282
21
1.35913
0
LINE
8
BLACK
6
CONTINUOUS
10
2.39282
20
1.35913
11
2.39282
21
1.35913
0
LINE
8
BLACK
6
CONTINUOUS
10
2.39282
20
1.35913
11
2.38897
21
1.34983
0
LINE
8
BLACK
6
CONTINUOUS
10
2.38897
20
1.34983
11
2.38662
21
1.34004
0
LINE
8
BLACK
6
CONTINUOUS
10
2.38662
20
1.34004
11
2.38583
21
1.33
0
LINE
8
BLACK
6
CONTINUOUS
10
2.38583
20
1.33
11
2.38662
21
1.31996
0
CIRCLE
8
BLACK
10
0.31
20
1.355
40
0.00688976
0
CIRCLE
8
BLACK
10
0.41
20
1.355
40
0.00688976
0
CIRCLE
8
BLACK
10
0.31
20
1.255
40
0.00688976
0
CIRCLE
8
BLACK
10
0.41
20
1.255
40
0.00688976
0
CIRCLE
8
BLACK
10
0.31
20
1.155
40
0.00688976
0
CIRCLE
8
BLACK
10
0.41
20
1.155
40
0.00688976
0
CIRCLE
8
BLACK
10
0.31
20
1.055
40
0.00688976
0
CIRCLE
8
BLACK
10
0.41
20
1.055
40
0.00688976
0
CIRCLE
8
BLACK
10
0.31
20
0.955
40
0.00688976
0
CIRCLE
8
BLACK
10
0.41
20
0.955
40
0.00688976
0
CIRCLE
8
BLACK
10
2.4
20
1.6
40
0.00688976
0
CIRCLE
8
BLACK
10
2.25
20
0.74
40
0.00688976
0
CIRCLE
8
BLACK
10
2.35
20
0.74
40
0.00688976
0
CIRCLE
8
BLACK
10
2.4
20
0.4
40
0.00688976
0
CIRCLE
8
BLACK
10
2.35
20
1.23
40
0.00688976
0
CIRCLE
8
BLACK
10
2.45
20
1.13
40
0.00688976
0
CIRCLE
8
BLACK
10
2.45
20
1.33
40
0.00688976
0
CIRCLE
8
BLACK
10
2.25
20
1.13
40
0.00688976
0
CIRCLE
8
BLACK
10
2.25
20
1.33
40
0.00688976
0
CIRCLE
8
BLACK
10
0.4
20
0.4
40
0.00688976
0
CIRCLE
8
BLACK
10
0.4
20
1.6
40
0.00688976
0
CIRCLE
8
BLACK
10
1.30157
20
0.566929
40
0.00688976
0
CIRCLE
8
BLACK
10
1.49843
20
0.566929
40
0.00688976
0
CIRCLE
8
BLACK
10
1.3
20
1.72528
40
0.00787402
0
CIRCLE
8
BLACK
10
2.17
20
0.96
40
0.00787402
0
CIRCLE
8
BLACK
10
2.17
20
1.45
40
0.00787402
0
CIRCLE
8
BLACK
10
1.23
20
1.72528
40
0.00787402
0
CIRCLE
8
BLACK
10
0.45087
20
1.4549
40
0.00787402
0
CIRCLE
8
BLACK
10
1.45
20
1.42
40
0.00787402
0
CIRCLE
8
BLACK
10
0.71
20
1.38
40
0.00787402
0
CIRCLE
8
BLACK
10
0.7
20
1.56
40
0.00787402
0
CIRCLE
8
BLACK
10
1.37
20
1.51
40
0.00787402
0
CIRCLE
8
BLACK
10
1.4
20
0.33
40
0.00787402
0
CIRCLE
8
BLACK
10
1.28
20
1.53
40
0.00787402
0
CIRCLE
8
BLACK
10
1.28
20
1.45
40
0.00787402
0
CIRCLE
8
BLACK
10
1.45
20
0.9
40
0.00787402
0
CIRCLE
8
BLACK
10
1
20
0.9
40
0.00787402
0
CIRCLE
8
BLACK
10
0.94
20
1.33
40
0.00787402
0
CIRCLE
8
BLACK
10
1.82
20
0.98
40
0.00787402
0
CIRCLE
8
BLACK
10
1.08
20
1.33
40
0.00787402
0
CIRCLE
8
BLACK
10
1.32
20
0.9
40
0.00787402
  0
ENDSEC
  0
EOF
