  0
SECTION
  2
HEADER
  9
$ANGBASE
  50
0.0
  9
$ANGDIR
  70
1
  9
$MEASUREMENT
  70
0
  0
ENDSEC
  0
SECTION
  2
TABLES
  0
TABLE
  2
LTYPE
  70
4
  0
LTYPE
  5
40F
  2
CONTINUOUS
  70
0
  3
Solid line
  72
65
  73
0
  40
0.0
  0
LTYPE
  5
410
  2
DASHDOT
 70
0
  3
Dash Dot ____ _ ____ _
 72
65
 73
4
 40
2.0
 49
1.25
 49
-0.25
 49
0.25
 49
-0.25
  0
LTYPE
  5
411
  2
DASHED
 70
0
  3
Dashed __ __ __ __ __
 72
65
 73
2
 40
0.75
 49
0.5
 49
-0.25
  0
LTYPE
  5
43B
  2
DOTTED
 70
0
  3
Dotted .  .  .  .
 72
65
 73
2
 40
0.2
 49
0.0
 49
-0.2
  0
ENDTAB
  0
TABLE
  2
STYLE
  70
4
  0
STYLE
  2
KICAD
  70
0
  40
0
  41
1
  42
1
  50
0
  71
0
  3
isocp.shx
  0
STYLE
  2
KICADB
  70
0
  40
0
  41
1
  42
1
  50
0
  71
0
  3
isocp.shx
  0
STYLE
  2
KICADI
  70
0
  40
0
  41
1
  42
1
  50
15
  71
0
  3
isocp.shx
  0
STYLE
  2
KICADBI
  70
0
  40
0
  41
1
  42
1
  50
15
  71
0
  3
isocp.shx
  0
ENDTAB
  0
TABLE
  2
LAYER
  70
1
  0
LAYER
  2
BLACK
  70
0
  62
7
  6
CONTINUOUS
  0
ENDTAB
  0
ENDSEC
  0
SECTION
  2
ENTITIES
0
LINE
8
BLACK
6
CONTINUOUS
10
3.09776
20
0.517717
11
3.09845
21
0.517428
0
LINE
8
BLACK
6
CONTINUOUS
10
3.09845
20
0.517428
11
3.09874
21
0.516732
0
LINE
8
BLACK
6
CONTINUOUS
10
3.09874
20
0.516732
11
3.09874
21
0.439567
0
LINE
8
BLACK
6
CONTINUOUS
10
3.09874
20
0.439567
11
3.09845
21
0.438871
0
LINE
8
BLACK
6
CONTINUOUS
10
3.09845
20
0.438871
11
3.09776
21
0.438583
0
LINE
8
BLACK
6
CONTINUOUS
10
3.09776
20
0.438583
11
2.9639
21
0.438583
0
LINE
8
BLACK
6
CONTINUOUS
10
2.9639
20
0.438583
11
2.9632
21
0.438871
0
LINE
8
BLACK
6
CONTINUOUS
10
2.9632
20
0.438871
11
2.96291
21
0.439567
0
LINE
8
BLACK
6
CONTINUOUS
10
2.96291
20
0.439567
11
2.96291
21
0.516732
0
LINE
8
BLACK
6
CONTINUOUS
10
2.96291
20
0.516732
11
2.9632
21
0.517428
0
LINE
8
BLACK
6
CONTINUOUS
10
2.9632
20
0.517428
11
2.9639
21
0.517717
0
LINE
8
BLACK
6
CONTINUOUS
10
2.9639
20
0.517717
11
3.09776
21
0.517717
0
LINE
8
BLACK
6
CONTINUOUS
10
2.96488
20
0.515748
11
2.96488
21
0.440551
0
LINE
8
BLACK
6
CONTINUOUS
10
2.96488
20
0.440551
11
3.09677
21
0.440551
0
LINE
8
BLACK
6
CONTINUOUS
10
3.09677
20
0.440551
11
3.09677
21
0.515748
0
LINE
8
BLACK
6
CONTINUOUS
10
3.09677
20
0.515748
11
2.96488
21
0.515748
0
LINE
8
BLACK
6
CONTINUOUS
10
2.33594
20
0.588583
11
2.33664
21
0.588294
0
LINE
8
BLACK
6
CONTINUOUS
10
2.33664
20
0.588294
11
2.33693
21
0.587598
0
LINE
8
BLACK
6
CONTINUOUS
10
2.33693
20
0.587598
11
2.33693
21
0.45374
0
LINE
8
BLACK
6
CONTINUOUS
10
2.33693
20
0.45374
11
2.33664
21
0.453044
0
LINE
8
BLACK
6
CONTINUOUS
10
2.33664
20
0.453044
11
2.33594
21
0.452756
0
LINE
8
BLACK
6
CONTINUOUS
10
2.33594
20
0.452756
11
2.17453
21
0.452756
0
LINE
8
BLACK
6
CONTINUOUS
10
2.17453
20
0.452756
11
2.17383
21
0.453044
0
LINE
8
BLACK
6
CONTINUOUS
10
2.17383
20
0.453044
11
2.17354
21
0.45374
0
LINE
8
BLACK
6
CONTINUOUS
10
2.17354
20
0.45374
11
2.17354
21
0.587598
0
LINE
8
BLACK
6
CONTINUOUS
10
2.17354
20
0.587598
11
2.17383
21
0.588294
0
LINE
8
BLACK
6
CONTINUOUS
10
2.17383
20
0.588294
11
2.17453
21
0.588583
0
LINE
8
BLACK
6
CONTINUOUS
10
2.17453
20
0.588583
11
2.33594
21
0.588583
0
LINE
8
BLACK
6
CONTINUOUS
10
2.17551
20
0.586614
11
2.17551
21
0.454724
0
LINE
8
BLACK
6
CONTINUOUS
10
2.17551
20
0.454724
11
2.33496
21
0.454724
0
LINE
8
BLACK
6
CONTINUOUS
10
2.33496
20
0.454724
11
2.33496
21
0.586614
0
LINE
8
BLACK
6
CONTINUOUS
10
2.33496
20
0.586614
11
2.17551
21
0.586614
0
LINE
8
BLACK
6
CONTINUOUS
10
2.77295
20
0.588583
11
2.77365
21
0.588294
0
LINE
8
BLACK
6
CONTINUOUS
10
2.77365
20
0.588294
11
2.77394
21
0.587598
0
LINE
8
BLACK
6
CONTINUOUS
10
2.77394
20
0.587598
11
2.77394
21
0.489173
0
LINE
8
BLACK
6
CONTINUOUS
10
2.77394
20
0.489173
11
2.77365
21
0.488477
0
LINE
8
BLACK
6
CONTINUOUS
10
2.77365
20
0.488477
11
2.77295
21
0.488189
0
LINE
8
BLACK
6
CONTINUOUS
10
2.77295
20
0.488189
11
2.59185
21
0.488189
0
LINE
8
BLACK
6
CONTINUOUS
10
2.59185
20
0.488189
11
2.59115
21
0.488477
0
LINE
8
BLACK
6
CONTINUOUS
10
2.59115
20
0.488477
11
2.59087
21
0.489173
0
LINE
8
BLACK
6
CONTINUOUS
10
2.59087
20
0.489173
11
2.59087
21
0.587598
0
LINE
8
BLACK
6
CONTINUOUS
10
2.59087
20
0.587598
11
2.59115
21
0.588294
0
LINE
8
BLACK
6
CONTINUOUS
10
2.59115
20
0.588294
11
2.59185
21
0.588583
0
LINE
8
BLACK
6
CONTINUOUS
10
2.59185
20
0.588583
11
2.77295
21
0.588583
0
LINE
8
BLACK
6
CONTINUOUS
10
2.59283
20
0.586614
11
2.59283
21
0.490157
0
LINE
8
BLACK
6
CONTINUOUS
10
2.59283
20
0.490157
11
2.77197
21
0.490157
0
LINE
8
BLACK
6
CONTINUOUS
10
2.77197
20
0.490157
11
2.77197
21
0.586614
0
LINE
8
BLACK
6
CONTINUOUS
10
2.77197
20
0.586614
11
2.59283
21
0.586614
0
LINE
8
BLACK
6
CONTINUOUS
10
3.09776
20
0.63622
11
3.09845
21
0.635932
0
LINE
8
BLACK
6
CONTINUOUS
10
3.09845
20
0.635932
11
3.09874
21
0.635236
0
LINE
8
BLACK
6
CONTINUOUS
10
3.09874
20
0.635236
11
3.09874
21
0.558071
0
LINE
8
BLACK
6
CONTINUOUS
10
3.09874
20
0.558071
11
3.09845
21
0.557375
0
LINE
8
BLACK
6
CONTINUOUS
10
3.09845
20
0.557375
11
3.09776
21
0.557087
0
LINE
8
BLACK
6
CONTINUOUS
10
3.09776
20
0.557087
11
2.9639
21
0.557087
0
LINE
8
BLACK
6
CONTINUOUS
10
2.9639
20
0.557087
11
2.9632
21
0.557375
0
LINE
8
BLACK
6
CONTINUOUS
10
2.9632
20
0.557375
11
2.96291
21
0.558071
0
LINE
8
BLACK
6
CONTINUOUS
10
2.96291
20
0.558071
11
2.96291
21
0.635236
0
LINE
8
BLACK
6
CONTINUOUS
10
2.96291
20
0.635236
11
2.9632
21
0.635932
0
LINE
8
BLACK
6
CONTINUOUS
10
2.9632
20
0.635932
11
2.9639
21
0.63622
0
LINE
8
BLACK
6
CONTINUOUS
10
2.9639
20
0.63622
11
3.09776
21
0.63622
0
LINE
8
BLACK
6
CONTINUOUS
10
2.96488
20
0.634252
11
2.96488
21
0.559055
0
LINE
8
BLACK
6
CONTINUOUS
10
2.96488
20
0.559055
11
3.09677
21
0.559055
0
LINE
8
BLACK
6
CONTINUOUS
10
3.09677
20
0.559055
11
3.09677
21
0.634252
0
LINE
8
BLACK
6
CONTINUOUS
10
3.09677
20
0.634252
11
2.96488
21
0.634252
0
LINE
8
BLACK
6
CONTINUOUS
10
3.36035
20
0.752362
11
3.36105
21
0.752074
0
LINE
8
BLACK
6
CONTINUOUS
10
3.36105
20
0.752074
11
3.36134
21
0.751378
0
LINE
8
BLACK
6
CONTINUOUS
10
3.36134
20
0.751378
11
3.36134
21
0.61752
0
LINE
8
BLACK
6
CONTINUOUS
10
3.36134
20
0.61752
11
3.36105
21
0.616824
0
LINE
8
BLACK
6
CONTINUOUS
10
3.36105
20
0.616824
11
3.36035
21
0.616535
0
LINE
8
BLACK
6
CONTINUOUS
10
3.36035
20
0.616535
11
3.20917
21
0.616535
0
LINE
8
BLACK
6
CONTINUOUS
10
3.20917
20
0.616535
11
3.20848
21
0.616824
0
LINE
8
BLACK
6
CONTINUOUS
10
3.20848
20
0.616824
11
3.20819
21
0.61752
0
LINE
8
BLACK
6
CONTINUOUS
10
3.20819
20
0.61752
11
3.20819
21
0.751378
0
LINE
8
BLACK
6
CONTINUOUS
10
3.20819
20
0.751378
11
3.20848
21
0.752074
0
LINE
8
BLACK
6
CONTINUOUS
10
3.20848
20
0.752074
11
3.20917
21
0.752362
0
LINE
8
BLACK
6
CONTINUOUS
10
3.20917
20
0.752362
11
3.36035
21
0.752362
0
LINE
8
BLACK
6
CONTINUOUS
10
3.21016
20
0.750394
11
3.21016
21
0.618504
0
LINE
8
BLACK
6
CONTINUOUS
10
3.21016
20
0.618504
11
3.35937
21
0.618504
0
LINE
8
BLACK
6
CONTINUOUS
10
3.35937
20
0.618504
11
3.35937
21
0.750394
0
LINE
8
BLACK
6
CONTINUOUS
10
3.35937
20
0.750394
11
3.21016
21
0.750394
0
LINE
8
BLACK
6
CONTINUOUS
10
2.29106
20
0.687402
11
2.29176
21
0.687113
0
LINE
8
BLACK
6
CONTINUOUS
10
2.29176
20
0.687113
11
2.29205
21
0.686417
0
LINE
8
BLACK
6
CONTINUOUS
10
2.29205
20
0.686417
11
2.29205
21
0.628937
0
LINE
8
BLACK
6
CONTINUOUS
10
2.29205
20
0.628937
11
2.29176
21
0.628241
0
LINE
8
BLACK
6
CONTINUOUS
10
2.29176
20
0.628241
11
2.29106
21
0.627953
0
LINE
8
BLACK
6
CONTINUOUS
10
2.29106
20
0.627953
11
2.17453
21
0.627953
0
LINE
8
BLACK
6
CONTINUOUS
10
2.17453
20
0.627953
11
2.17383
21
0.628241
0
LINE
8
BLACK
6
CONTINUOUS
10
2.17383
20
0.628241
11
2.17354
21
0.628937
0
LINE
8
BLACK
6
CONTINUOUS
10
2.17354
20
0.628937
11
2.17354
21
0.628937
0
LINE
8
BLACK
6
CONTINUOUS
10
2.17354
20
0.628937
11
2.17354
21
0.686417
0
LINE
8
BLACK
6
CONTINUOUS
10
2.17354
20
0.686417
11
2.17383
21
0.687113
0
LINE
8
BLACK
6
CONTINUOUS
10
2.17383
20
0.687113
11
2.17453
21
0.687402
0
LINE
8
BLACK
6
CONTINUOUS
10
2.17453
20
0.687402
11
2.29106
21
0.687402
0
LINE
8
BLACK
6
CONTINUOUS
10
2.17551
20
0.685433
11
2.17551
21
0.629921
0
LINE
8
BLACK
6
CONTINUOUS
10
2.17551
20
0.629921
11
2.29008
21
0.629921
0
LINE
8
BLACK
6
CONTINUOUS
10
2.29008
20
0.629921
11
2.29008
21
0.685433
0
LINE
8
BLACK
6
CONTINUOUS
10
2.29008
20
0.685433
11
2.17551
21
0.685433
0
LINE
8
BLACK
6
CONTINUOUS
10
2.44894
20
0.687402
11
2.44963
21
0.687113
0
LINE
8
BLACK
6
CONTINUOUS
10
2.44963
20
0.687113
11
2.44992
21
0.686417
0
LINE
8
BLACK
6
CONTINUOUS
10
2.44992
20
0.686417
11
2.44992
21
0.628937
0
LINE
8
BLACK
6
CONTINUOUS
10
2.44992
20
0.628937
11
2.44963
21
0.628241
0
LINE
8
BLACK
6
CONTINUOUS
10
2.44963
20
0.628241
11
2.44894
21
0.627953
0
LINE
8
BLACK
6
CONTINUOUS
10
2.44894
20
0.627953
11
2.3324
21
0.627953
0
LINE
8
BLACK
6
CONTINUOUS
10
2.3324
20
0.627953
11
2.33171
21
0.628241
0
LINE
8
BLACK
6
CONTINUOUS
10
2.33171
20
0.628241
11
2.33142
21
0.628937
0
LINE
8
BLACK
6
CONTINUOUS
10
2.33142
20
0.628937
11
2.33142
21
0.686417
0
LINE
8
BLACK
6
CONTINUOUS
10
2.33142
20
0.686417
11
2.33171
21
0.687113
0
LINE
8
BLACK
6
CONTINUOUS
10
2.33171
20
0.687113
11
2.3324
21
0.687402
0
LINE
8
BLACK
6
CONTINUOUS
10
2.3324
20
0.687402
11
2.44894
21
0.687402
0
LINE
8
BLACK
6
CONTINUOUS
10
2.33339
20
0.685433
11
2.33339
21
0.629921
0
LINE
8
BLACK
6
CONTINUOUS
10
2.33339
20
0.629921
11
2.44795
21
0.629921
0
LINE
8
BLACK
6
CONTINUOUS
10
2.44795
20
0.629921
11
2.44795
21
0.685433
0
LINE
8
BLACK
6
CONTINUOUS
10
2.44795
20
0.685433
11
2.33339
21
0.685433
0
LINE
8
BLACK
6
CONTINUOUS
10
2.60681
20
0.687402
11
2.60751
21
0.687113
0
LINE
8
BLACK
6
CONTINUOUS
10
2.60751
20
0.687113
11
2.6078
21
0.686417
0
LINE
8
BLACK
6
CONTINUOUS
10
2.6078
20
0.686417
11
2.6078
21
0.628937
0
LINE
8
BLACK
6
CONTINUOUS
10
2.6078
20
0.628937
11
2.60751
21
0.628241
0
LINE
8
BLACK
6
CONTINUOUS
10
2.60751
20
0.628241
11
2.60681
21
0.627953
0
LINE
8
BLACK
6
CONTINUOUS
10
2.60681
20
0.627953
11
2.49028
21
0.627953
0
LINE
8
BLACK
6
CONTINUOUS
10
2.49028
20
0.627953
11
2.48958
21
0.628241
0
LINE
8
BLACK
6
CONTINUOUS
10
2.48958
20
0.628241
11
2.48929
21
0.628937
0
LINE
8
BLACK
6
CONTINUOUS
10
2.48929
20
0.628937
11
2.48929
21
0.628937
0
LINE
8
BLACK
6
CONTINUOUS
10
2.48929
20
0.628937
11
2.48929
21
0.686417
0
LINE
8
BLACK
6
CONTINUOUS
10
2.48929
20
0.686417
11
2.48958
21
0.687113
0
LINE
8
BLACK
6
CONTINUOUS
10
2.48958
20
0.687113
11
2.49028
21
0.687402
0
LINE
8
BLACK
6
CONTINUOUS
10
2.49028
20
0.687402
11
2.60681
21
0.687402
0
LINE
8
BLACK
6
CONTINUOUS
10
2.49126
20
0.685433
11
2.49126
21
0.629921
0
LINE
8
BLACK
6
CONTINUOUS
10
2.49126
20
0.629921
11
2.60583
21
0.629921
0
LINE
8
BLACK
6
CONTINUOUS
10
2.60583
20
0.629921
11
2.60583
21
0.685433
0
LINE
8
BLACK
6
CONTINUOUS
10
2.60583
20
0.685433
11
2.49126
21
0.685433
0
LINE
8
BLACK
6
CONTINUOUS
10
2.76469
20
0.687402
11
2.76538
21
0.687113
0
LINE
8
BLACK
6
CONTINUOUS
10
2.76538
20
0.687113
11
2.76567
21
0.686417
0
LINE
8
BLACK
6
CONTINUOUS
10
2.76567
20
0.686417
11
2.76567
21
0.628937
0
LINE
8
BLACK
6
CONTINUOUS
10
2.76567
20
0.628937
11
2.76538
21
0.628241
0
LINE
8
BLACK
6
CONTINUOUS
10
2.76538
20
0.628241
11
2.76469
21
0.627953
0
LINE
8
BLACK
6
CONTINUOUS
10
2.76469
20
0.627953
11
2.64815
21
0.627953
0
LINE
8
BLACK
6
CONTINUOUS
10
2.64815
20
0.627953
11
2.64745
21
0.628241
0
LINE
8
BLACK
6
CONTINUOUS
10
2.64745
20
0.628241
11
2.64717
21
0.628937
0
LINE
8
BLACK
6
CONTINUOUS
10
2.64717
20
0.628937
11
2.64717
21
0.686417
0
LINE
8
BLACK
6
CONTINUOUS
10
2.64717
20
0.686417
11
2.64745
21
0.687113
0
LINE
8
BLACK
6
CONTINUOUS
10
2.64745
20
0.687113
11
2.64815
21
0.687402
0
LINE
8
BLACK
6
CONTINUOUS
10
2.64815
20
0.687402
11
2.76469
21
0.687402
0
LINE
8
BLACK
6
CONTINUOUS
10
2.64913
20
0.685433
11
2.64913
21
0.629921
0
LINE
8
BLACK
6
CONTINUOUS
10
2.64913
20
0.629921
11
2.7637
21
0.629921
0
LINE
8
BLACK
6
CONTINUOUS
10
2.7637
20
0.629921
11
2.7637
21
0.685433
0
LINE
8
BLACK
6
CONTINUOUS
10
2.7637
20
0.685433
11
2.64913
21
0.685433
0
LINE
8
BLACK
6
CONTINUOUS
10
2.92256
20
0.687402
11
2.92326
21
0.687113
0
LINE
8
BLACK
6
CONTINUOUS
10
2.92326
20
0.687113
11
2.92354
21
0.686417
0
LINE
8
BLACK
6
CONTINUOUS
10
2.92354
20
0.686417
11
2.92354
21
0.628937
0
LINE
8
BLACK
6
CONTINUOUS
10
2.92354
20
0.628937
11
2.92326
21
0.628241
0
LINE
8
BLACK
6
CONTINUOUS
10
2.92326
20
0.628241
11
2.92256
21
0.627953
0
LINE
8
BLACK
6
CONTINUOUS
10
2.92256
20
0.627953
11
2.80602
21
0.627953
0
LINE
8
BLACK
6
CONTINUOUS
10
2.80602
20
0.627953
11
2.80533
21
0.628241
0
LINE
8
BLACK
6
CONTINUOUS
10
2.80533
20
0.628241
11
2.80504
21
0.628937
0
LINE
8
BLACK
6
CONTINUOUS
10
2.80504
20
0.628937
11
2.80504
21
0.628937
0
LINE
8
BLACK
6
CONTINUOUS
10
2.80504
20
0.628937
11
2.80504
21
0.686417
0
LINE
8
BLACK
6
CONTINUOUS
10
2.80504
20
0.686417
11
2.80533
21
0.687113
0
LINE
8
BLACK
6
CONTINUOUS
10
2.80533
20
0.687113
11
2.80602
21
0.687402
0
LINE
8
BLACK
6
CONTINUOUS
10
2.80602
20
0.687402
11
2.92256
21
0.687402
0
LINE
8
BLACK
6
CONTINUOUS
10
2.80701
20
0.685433
11
2.80701
21
0.629921
0
LINE
8
BLACK
6
CONTINUOUS
10
2.80701
20
0.629921
11
2.92157
21
0.629921
0
LINE
8
BLACK
6
CONTINUOUS
10
2.92157
20
0.629921
11
2.92157
21
0.685433
0
LINE
8
BLACK
6
CONTINUOUS
10
2.92157
20
0.685433
11
2.80701
21
0.685433
0
LINE
8
BLACK
6
CONTINUOUS
10
3.45962
20
0.787033
11
3.46807
21
0.784768
0
LINE
8
BLACK
6
CONTINUOUS
10
3.46807
20
0.784768
11
3.476
21
0.78107
0
LINE
8
BLACK
6
CONTINUOUS
10
3.476
20
0.78107
11
3.48317
21
0.776051
0
LINE
8
BLACK
6
CONTINUOUS
10
3.48317
20
0.776051
11
3.48936
21
0.769864
0
LINE
8
BLACK
6
CONTINUOUS
10
3.48936
20
0.769864
11
3.49438
21
0.762697
0
LINE
8
BLACK
6
CONTINUOUS
10
3.49438
20
0.762697
11
3.49808
21
0.754767
0
LINE
8
BLACK
6
CONTINUOUS
10
3.49808
20
0.754767
11
3.50034
21
0.746315
0
LINE
8
BLACK
6
CONTINUOUS
10
3.50034
20
0.746315
11
3.5011
21
0.737598
0
LINE
8
BLACK
6
CONTINUOUS
10
3.5011
20
0.737598
11
3.50034
21
0.728882
0
LINE
8
BLACK
6
CONTINUOUS
10
3.50034
20
0.728882
11
3.49808
21
0.72043
0
LINE
8
BLACK
6
CONTINUOUS
10
3.49808
20
0.72043
11
3.49438
21
0.7125
0
LINE
8
BLACK
6
CONTINUOUS
10
3.49438
20
0.7125
11
3.48936
21
0.705333
0
LINE
8
BLACK
6
CONTINUOUS
10
3.48936
20
0.705333
11
3.48317
21
0.699145
0
LINE
8
BLACK
6
CONTINUOUS
10
3.48317
20
0.699145
11
3.476
21
0.694127
0
LINE
8
BLACK
6
CONTINUOUS
10
3.476
20
0.694127
11
3.46807
21
0.690429
0
LINE
8
BLACK
6
CONTINUOUS
10
3.46807
20
0.690429
11
3.45962
21
0.688164
0
LINE
8
BLACK
6
CONTINUOUS
10
3.45962
20
0.688164
11
3.45091
21
0.687402
0
LINE
8
BLACK
6
CONTINUOUS
10
3.45091
20
0.687402
11
3.44219
21
0.688164
0
LINE
8
BLACK
6
CONTINUOUS
10
3.44219
20
0.688164
11
3.43374
21
0.690429
0
LINE
8
BLACK
6
CONTINUOUS
10
3.43374
20
0.690429
11
3.42581
21
0.694127
0
LINE
8
BLACK
6
CONTINUOUS
10
3.42581
20
0.694127
11
3.41864
21
0.699145
0
LINE
8
BLACK
6
CONTINUOUS
10
3.41864
20
0.699145
11
3.41245
21
0.705333
0
LINE
8
BLACK
6
CONTINUOUS
10
3.41245
20
0.705333
11
3.40743
21
0.7125
0
LINE
8
BLACK
6
CONTINUOUS
10
3.40743
20
0.7125
11
3.40374
21
0.72043
0
LINE
8
BLACK
6
CONTINUOUS
10
3.40374
20
0.72043
11
3.40147
21
0.728882
0
LINE
8
BLACK
6
CONTINUOUS
10
3.40147
20
0.728882
11
3.40071
21
0.737598
0
LINE
8
BLACK
6
CONTINUOUS
10
3.40071
20
0.737598
11
3.40147
21
0.746315
0
LINE
8
BLACK
6
CONTINUOUS
10
3.40147
20
0.746315
11
3.40374
21
0.754767
0
LINE
8
BLACK
6
CONTINUOUS
10
3.40374
20
0.754767
11
3.40743
21
0.762697
0
LINE
8
BLACK
6
CONTINUOUS
10
3.40743
20
0.762697
11
3.41245
21
0.769864
0
LINE
8
BLACK
6
CONTINUOUS
10
3.41245
20
0.769864
11
3.41864
21
0.776051
0
LINE
8
BLACK
6
CONTINUOUS
10
3.41864
20
0.776051
11
3.42581
21
0.78107
0
LINE
8
BLACK
6
CONTINUOUS
10
3.42581
20
0.78107
11
3.43374
21
0.784768
0
LINE
8
BLACK
6
CONTINUOUS
10
3.43374
20
0.784768
11
3.44219
21
0.787033
0
LINE
8
BLACK
6
CONTINUOUS
10
3.44219
20
0.787033
11
3.45091
21
0.787795
0
LINE
8
BLACK
6
CONTINUOUS
10
3.45091
20
0.787795
11
3.45962
21
0.787033
0
LINE
8
BLACK
6
CONTINUOUS
10
3.40323
20
0.729192
11
3.40541
21
0.72104
0
LINE
8
BLACK
6
CONTINUOUS
10
3.40541
20
0.72104
11
3.40898
21
0.713392
0
LINE
8
BLACK
6
CONTINUOUS
10
3.40898
20
0.713392
11
3.41382
21
0.706479
0
LINE
8
BLACK
6
CONTINUOUS
10
3.41382
20
0.706479
11
3.41979
21
0.700512
0
LINE
8
BLACK
6
CONTINUOUS
10
3.41979
20
0.700512
11
3.4267
21
0.695672
0
LINE
8
BLACK
6
CONTINUOUS
10
3.4267
20
0.695672
11
3.43435
21
0.692106
0
LINE
8
BLACK
6
CONTINUOUS
10
3.43435
20
0.692106
11
3.4425
21
0.689921
0
LINE
8
BLACK
6
CONTINUOUS
10
3.4425
20
0.689921
11
3.45091
21
0.689186
0
LINE
8
BLACK
6
CONTINUOUS
10
3.45091
20
0.689186
11
3.45931
21
0.689921
0
LINE
8
BLACK
6
CONTINUOUS
10
3.45931
20
0.689921
11
3.46746
21
0.692106
0
LINE
8
BLACK
6
CONTINUOUS
10
3.46746
20
0.692106
11
3.47511
21
0.695672
0
LINE
8
BLACK
6
CONTINUOUS
10
3.47511
20
0.695672
11
3.48202
21
0.700512
0
LINE
8
BLACK
6
CONTINUOUS
10
3.48202
20
0.700512
11
3.48799
21
0.706479
0
LINE
8
BLACK
6
CONTINUOUS
10
3.48799
20
0.706479
11
3.49283
21
0.713392
0
LINE
8
BLACK
6
CONTINUOUS
10
3.49283
20
0.713392
11
3.4964
21
0.72104
0
LINE
8
BLACK
6
CONTINUOUS
10
3.4964
20
0.72104
11
3.49858
21
0.729192
0
LINE
8
BLACK
6
CONTINUOUS
10
3.49858
20
0.729192
11
3.49932
21
0.737598
0
LINE
8
BLACK
6
CONTINUOUS
10
3.49932
20
0.737598
11
3.49858
21
0.746005
0
LINE
8
BLACK
6
CONTINUOUS
10
3.49858
20
0.746005
11
3.4964
21
0.754156
0
LINE
8
BLACK
6
CONTINUOUS
10
3.4964
20
0.754156
11
3.49283
21
0.761805
0
LINE
8
BLACK
6
CONTINUOUS
10
3.49283
20
0.761805
11
3.48799
21
0.768717
0
LINE
8
BLACK
6
CONTINUOUS
10
3.48799
20
0.768717
11
3.48202
21
0.774685
0
LINE
8
BLACK
6
CONTINUOUS
10
3.48202
20
0.774685
11
3.47511
21
0.779525
0
LINE
8
BLACK
6
CONTINUOUS
10
3.47511
20
0.779525
11
3.46746
21
0.783091
0
LINE
8
BLACK
6
CONTINUOUS
10
3.46746
20
0.783091
11
3.45931
21
0.785275
0
LINE
8
BLACK
6
CONTINUOUS
10
3.45931
20
0.785275
11
3.45091
21
0.786011
0
LINE
8
BLACK
6
CONTINUOUS
10
3.45091
20
0.786011
11
3.4425
21
0.785275
0
LINE
8
BLACK
6
CONTINUOUS
10
3.4425
20
0.785275
11
3.43435
21
0.783091
0
LINE
8
BLACK
6
CONTINUOUS
10
3.43435
20
0.783091
11
3.4267
21
0.779525
0
LINE
8
BLACK
6
CONTINUOUS
10
3.4267
20
0.779525
11
3.41979
21
0.774685
0
LINE
8
BLACK
6
CONTINUOUS
10
3.41979
20
0.774685
11
3.41382
21
0.768717
0
LINE
8
BLACK
6
CONTINUOUS
10
3.41382
20
0.768717
11
3.40898
21
0.761805
0
LINE
8
BLACK
6
CONTINUOUS
10
3.40898
20
0.761805
11
3.40541
21
0.754156
0
LINE
8
BLACK
6
CONTINUOUS
10
3.40541
20
0.754156
11
3.40323
21
0.746005
0
LINE
8
BLACK
6
CONTINUOUS
10
3.40323
20
0.746005
11
3.40249
21
0.737598
0
LINE
8
BLACK
6
CONTINUOUS
10
3.40249
20
0.737598
11
3.40323
21
0.729192
0
LINE
8
BLACK
6
CONTINUOUS
10
2.29106
20
0.78622
11
2.29176
21
0.785932
0
LINE
8
BLACK
6
CONTINUOUS
10
2.29176
20
0.785932
11
2.29205
21
0.785236
0
LINE
8
BLACK
6
CONTINUOUS
10
2.29205
20
0.785236
11
2.29205
21
0.727756
0
LINE
8
BLACK
6
CONTINUOUS
10
2.29205
20
0.727756
11
2.29176
21
0.72706
0
LINE
8
BLACK
6
CONTINUOUS
10
2.29176
20
0.72706
11
2.29106
21
0.726772
0
LINE
8
BLACK
6
CONTINUOUS
10
2.29106
20
0.726772
11
2.17453
21
0.726772
0
LINE
8
BLACK
6
CONTINUOUS
10
2.17453
20
0.726772
11
2.17383
21
0.72706
0
LINE
8
BLACK
6
CONTINUOUS
10
2.17383
20
0.72706
11
2.17354
21
0.727756
0
LINE
8
BLACK
6
CONTINUOUS
10
2.17354
20
0.727756
11
2.17354
21
0.785236
0
LINE
8
BLACK
6
CONTINUOUS
10
2.17354
20
0.785236
11
2.17383
21
0.785932
0
LINE
8
BLACK
6
CONTINUOUS
10
2.17383
20
0.785932
11
2.17453
21
0.78622
0
LINE
8
BLACK
6
CONTINUOUS
10
2.17453
20
0.78622
11
2.29106
21
0.78622
0
LINE
8
BLACK
6
CONTINUOUS
10
2.17551
20
0.784252
11
2.17551
21
0.72874
0
LINE
8
BLACK
6
CONTINUOUS
10
2.17551
20
0.72874
11
2.29008
21
0.72874
0
LINE
8
BLACK
6
CONTINUOUS
10
2.29008
20
0.72874
11
2.29008
21
0.784252
0
LINE
8
BLACK
6
CONTINUOUS
10
2.29008
20
0.784252
11
2.17551
21
0.784252
0
LINE
8
BLACK
6
CONTINUOUS
10
2.44894
20
0.78622
11
2.44963
21
0.785932
0
LINE
8
BLACK
6
CONTINUOUS
10
2.44963
20
0.785932
11
2.44992
21
0.785236
0
LINE
8
BLACK
6
CONTINUOUS
10
2.44992
20
0.785236
11
2.44992
21
0.727756
0
LINE
8
BLACK
6
CONTINUOUS
10
2.44992
20
0.727756
11
2.44963
21
0.72706
0
LINE
8
BLACK
6
CONTINUOUS
10
2.44963
20
0.72706
11
2.44894
21
0.726772
0
LINE
8
BLACK
6
CONTINUOUS
10
2.44894
20
0.726772
11
2.3324
21
0.726772
0
LINE
8
BLACK
6
CONTINUOUS
10
2.3324
20
0.726772
11
2.33171
21
0.72706
0
LINE
8
BLACK
6
CONTINUOUS
10
2.33171
20
0.72706
11
2.33142
21
0.727756
0
LINE
8
BLACK
6
CONTINUOUS
10
2.33142
20
0.727756
11
2.33142
21
0.727756
0
LINE
8
BLACK
6
CONTINUOUS
10
2.33142
20
0.727756
11
2.33142
21
0.785236
0
LINE
8
BLACK
6
CONTINUOUS
10
2.33142
20
0.785236
11
2.33171
21
0.785932
0
LINE
8
BLACK
6
CONTINUOUS
10
2.33171
20
0.785932
11
2.3324
21
0.78622
0
LINE
8
BLACK
6
CONTINUOUS
10
2.3324
20
0.78622
11
2.44894
21
0.78622
0
LINE
8
BLACK
6
CONTINUOUS
10
2.33339
20
0.784252
11
2.33339
21
0.72874
0
LINE
8
BLACK
6
CONTINUOUS
10
2.33339
20
0.72874
11
2.44795
21
0.72874
0
LINE
8
BLACK
6
CONTINUOUS
10
2.44795
20
0.72874
11
2.44795
21
0.784252
0
LINE
8
BLACK
6
CONTINUOUS
10
2.44795
20
0.784252
11
2.33339
21
0.784252
0
LINE
8
BLACK
6
CONTINUOUS
10
2.60681
20
0.78622
11
2.60751
21
0.785932
0
LINE
8
BLACK
6
CONTINUOUS
10
2.60751
20
0.785932
11
2.6078
21
0.785236
0
LINE
8
BLACK
6
CONTINUOUS
10
2.6078
20
0.785236
11
2.6078
21
0.727756
0
LINE
8
BLACK
6
CONTINUOUS
10
2.6078
20
0.727756
11
2.60751
21
0.72706
0
LINE
8
BLACK
6
CONTINUOUS
10
2.60751
20
0.72706
11
2.60681
21
0.726772
0
LINE
8
BLACK
6
CONTINUOUS
10
2.60681
20
0.726772
11
2.49028
21
0.726772
0
LINE
8
BLACK
6
CONTINUOUS
10
2.49028
20
0.726772
11
2.48958
21
0.72706
0
LINE
8
BLACK
6
CONTINUOUS
10
2.48958
20
0.72706
11
2.48929
21
0.727756
0
LINE
8
BLACK
6
CONTINUOUS
10
2.48929
20
0.727756
11
2.48929
21
0.785236
0
LINE
8
BLACK
6
CONTINUOUS
10
2.48929
20
0.785236
11
2.48958
21
0.785932
0
LINE
8
BLACK
6
CONTINUOUS
10
2.48958
20
0.785932
11
2.49028
21
0.78622
0
LINE
8
BLACK
6
CONTINUOUS
10
2.49028
20
0.78622
11
2.60681
21
0.78622
0
LINE
8
BLACK
6
CONTINUOUS
10
2.49126
20
0.784252
11
2.49126
21
0.72874
0
LINE
8
BLACK
6
CONTINUOUS
10
2.49126
20
0.72874
11
2.60583
21
0.72874
0
LINE
8
BLACK
6
CONTINUOUS
10
2.60583
20
0.72874
11
2.60583
21
0.784252
0
LINE
8
BLACK
6
CONTINUOUS
10
2.60583
20
0.784252
11
2.49126
21
0.784252
0
LINE
8
BLACK
6
CONTINUOUS
10
2.76469
20
0.78622
11
2.76538
21
0.785932
0
LINE
8
BLACK
6
CONTINUOUS
10
2.76538
20
0.785932
11
2.76567
21
0.785236
0
LINE
8
BLACK
6
CONTINUOUS
10
2.76567
20
0.785236
11
2.76567
21
0.727756
0
LINE
8
BLACK
6
CONTINUOUS
10
2.76567
20
0.727756
11
2.76538
21
0.72706
0
LINE
8
BLACK
6
CONTINUOUS
10
2.76538
20
0.72706
11
2.76469
21
0.726772
0
LINE
8
BLACK
6
CONTINUOUS
10
2.76469
20
0.726772
11
2.64815
21
0.726772
0
LINE
8
BLACK
6
CONTINUOUS
10
2.64815
20
0.726772
11
2.64745
21
0.72706
0
LINE
8
BLACK
6
CONTINUOUS
10
2.64745
20
0.72706
11
2.64717
21
0.727756
0
LINE
8
BLACK
6
CONTINUOUS
10
2.64717
20
0.727756
11
2.64717
21
0.727756
0
LINE
8
BLACK
6
CONTINUOUS
10
2.64717
20
0.727756
11
2.64717
21
0.785236
0
LINE
8
BLACK
6
CONTINUOUS
10
2.64717
20
0.785236
11
2.64745
21
0.785932
0
LINE
8
BLACK
6
CONTINUOUS
10
2.64745
20
0.785932
11
2.64815
21
0.78622
0
LINE
8
BLACK
6
CONTINUOUS
10
2.64815
20
0.78622
11
2.76469
21
0.78622
0
LINE
8
BLACK
6
CONTINUOUS
10
2.64913
20
0.784252
11
2.64913
21
0.72874
0
LINE
8
BLACK
6
CONTINUOUS
10
2.64913
20
0.72874
11
2.7637
21
0.72874
0
LINE
8
BLACK
6
CONTINUOUS
10
2.7637
20
0.72874
11
2.7637
21
0.784252
0
LINE
8
BLACK
6
CONTINUOUS
10
2.7637
20
0.784252
11
2.64913
21
0.784252
0
LINE
8
BLACK
6
CONTINUOUS
10
2.92256
20
0.78622
11
2.92326
21
0.785932
0
LINE
8
BLACK
6
CONTINUOUS
10
2.92326
20
0.785932
11
2.92354
21
0.785236
0
LINE
8
BLACK
6
CONTINUOUS
10
2.92354
20
0.785236
11
2.92354
21
0.727756
0
LINE
8
BLACK
6
CONTINUOUS
10
2.92354
20
0.727756
11
2.92326
21
0.72706
0
LINE
8
BLACK
6
CONTINUOUS
10
2.92326
20
0.72706
11
2.92256
21
0.726772
0
LINE
8
BLACK
6
CONTINUOUS
10
2.92256
20
0.726772
11
2.80602
21
0.726772
0
LINE
8
BLACK
6
CONTINUOUS
10
2.80602
20
0.726772
11
2.80533
21
0.72706
0
LINE
8
BLACK
6
CONTINUOUS
10
2.80533
20
0.72706
11
2.80504
21
0.727756
0
LINE
8
BLACK
6
CONTINUOUS
10
2.80504
20
0.727756
11
2.80504
21
0.785236
0
LINE
8
BLACK
6
CONTINUOUS
10
2.80504
20
0.785236
11
2.80533
21
0.785932
0
LINE
8
BLACK
6
CONTINUOUS
10
2.80533
20
0.785932
11
2.80602
21
0.78622
0
LINE
8
BLACK
6
CONTINUOUS
10
2.80602
20
0.78622
11
2.92256
21
0.78622
0
LINE
8
BLACK
6
CONTINUOUS
10
2.80701
20
0.784252
11
2.80701
21
0.72874
0
LINE
8
BLACK
6
CONTINUOUS
10
2.80701
20
0.72874
11
2.92157
21
0.72874
0
LINE
8
BLACK
6
CONTINUOUS
10
2.92157
20
0.72874
11
2.92157
21
0.784252
0
LINE
8
BLACK
6
CONTINUOUS
10
2.92157
20
0.784252
11
2.80701
21
0.784252
0
LINE
8
BLACK
6
CONTINUOUS
10
3.36035
20
0.927559
11
3.36105
21
0.927271
0
LINE
8
BLACK
6
CONTINUOUS
10
3.36105
20
0.927271
11
3.36134
21
0.926575
0
LINE
8
BLACK
6
CONTINUOUS
10
3.36134
20
0.926575
11
3.36134
21
0.792717
0
LINE
8
BLACK
6
CONTINUOUS
10
3.36134
20
0.792717
11
3.36105
21
0.792021
0
LINE
8
BLACK
6
CONTINUOUS
10
3.36105
20
0.792021
11
3.36035
21
0.791732
0
LINE
8
BLACK
6
CONTINUOUS
10
3.36035
20
0.791732
11
3.20917
21
0.791732
0
LINE
8
BLACK
6
CONTINUOUS
10
3.20917
20
0.791732
11
3.20848
21
0.792021
0
LINE
8
BLACK
6
CONTINUOUS
10
3.20848
20
0.792021
11
3.20819
21
0.792717
0
LINE
8
BLACK
6
CONTINUOUS
10
3.20819
20
0.792717
11
3.20819
21
0.792717
0
LINE
8
BLACK
6
CONTINUOUS
10
3.20819
20
0.792717
11
3.20819
21
0.926575
0
LINE
8
BLACK
6
CONTINUOUS
10
3.20819
20
0.926575
11
3.20848
21
0.927271
0
LINE
8
BLACK
6
CONTINUOUS
10
3.20848
20
0.927271
11
3.20917
21
0.927559
0
LINE
8
BLACK
6
CONTINUOUS
10
3.20917
20
0.927559
11
3.36035
21
0.927559
0
LINE
8
BLACK
6
CONTINUOUS
10
3.21016
20
0.925591
11
3.21016
21
0.793701
0
LINE
8
BLACK
6
CONTINUOUS
10
3.21016
20
0.793701
11
3.35937
21
0.793701
0
LINE
8
BLACK
6
CONTINUOUS
10
3.35937
20
0.793701
11
3.35937
21
0.925591
0
LINE
8
BLACK
6
CONTINUOUS
10
3.35937
20
0.925591
11
3.21016
21
0.925591
0
LINE
8
BLACK
6
CONTINUOUS
10
2.29106
20
0.885039
11
2.29176
21
0.884751
0
LINE
8
BLACK
6
CONTINUOUS
10
2.29176
20
0.884751
11
2.29205
21
0.884055
0
LINE
8
BLACK
6
CONTINUOUS
10
2.29205
20
0.884055
11
2.29205
21
0.826575
0
LINE
8
BLACK
6
CONTINUOUS
10
2.29205
20
0.826575
11
2.29176
21
0.825879
0
LINE
8
BLACK
6
CONTINUOUS
10
2.29176
20
0.825879
11
2.29106
21
0.825591
0
LINE
8
BLACK
6
CONTINUOUS
10
2.29106
20
0.825591
11
2.17453
21
0.825591
0
LINE
8
BLACK
6
CONTINUOUS
10
2.17453
20
0.825591
11
2.17383
21
0.825879
0
LINE
8
BLACK
6
CONTINUOUS
10
2.17383
20
0.825879
11
2.17354
21
0.826575
0
LINE
8
BLACK
6
CONTINUOUS
10
2.17354
20
0.826575
11
2.17354
21
0.826575
0
LINE
8
BLACK
6
CONTINUOUS
10
2.17354
20
0.826575
11
2.17354
21
0.884055
0
LINE
8
BLACK
6
CONTINUOUS
10
2.17354
20
0.884055
11
2.17383
21
0.884751
0
LINE
8
BLACK
6
CONTINUOUS
10
2.17383
20
0.884751
11
2.17453
21
0.885039
0
LINE
8
BLACK
6
CONTINUOUS
10
2.17453
20
0.885039
11
2.29106
21
0.885039
0
LINE
8
BLACK
6
CONTINUOUS
10
2.17551
20
0.883071
11
2.17551
21
0.827559
0
LINE
8
BLACK
6
CONTINUOUS
10
2.17551
20
0.827559
11
2.29008
21
0.827559
0
LINE
8
BLACK
6
CONTINUOUS
10
2.29008
20
0.827559
11
2.29008
21
0.883071
0
LINE
8
BLACK
6
CONTINUOUS
10
2.29008
20
0.883071
11
2.17551
21
0.883071
0
LINE
8
BLACK
6
CONTINUOUS
10
2.44894
20
0.885039
11
2.44963
21
0.884751
0
LINE
8
BLACK
6
CONTINUOUS
10
2.44963
20
0.884751
11
2.44992
21
0.884055
0
LINE
8
BLACK
6
CONTINUOUS
10
2.44992
20
0.884055
11
2.44992
21
0.826575
0
LINE
8
BLACK
6
CONTINUOUS
10
2.44992
20
0.826575
11
2.44963
21
0.825879
0
LINE
8
BLACK
6
CONTINUOUS
10
2.44963
20
0.825879
11
2.44894
21
0.825591
0
LINE
8
BLACK
6
CONTINUOUS
10
2.44894
20
0.825591
11
2.3324
21
0.825591
0
LINE
8
BLACK
6
CONTINUOUS
10
2.3324
20
0.825591
11
2.33171
21
0.825879
0
LINE
8
BLACK
6
CONTINUOUS
10
2.33171
20
0.825879
11
2.33142
21
0.826575
0
LINE
8
BLACK
6
CONTINUOUS
10
2.33142
20
0.826575
11
2.33142
21
0.884055
0
LINE
8
BLACK
6
CONTINUOUS
10
2.33142
20
0.884055
11
2.33171
21
0.884751
0
LINE
8
BLACK
6
CONTINUOUS
10
2.33171
20
0.884751
11
2.3324
21
0.885039
0
LINE
8
BLACK
6
CONTINUOUS
10
2.3324
20
0.885039
11
2.44894
21
0.885039
0
LINE
8
BLACK
6
CONTINUOUS
10
2.33339
20
0.883071
11
2.33339
21
0.827559
0
LINE
8
BLACK
6
CONTINUOUS
10
2.33339
20
0.827559
11
2.44795
21
0.827559
0
LINE
8
BLACK
6
CONTINUOUS
10
2.44795
20
0.827559
11
2.44795
21
0.883071
0
LINE
8
BLACK
6
CONTINUOUS
10
2.44795
20
0.883071
11
2.33339
21
0.883071
0
LINE
8
BLACK
6
CONTINUOUS
10
2.60681
20
0.885039
11
2.60751
21
0.884751
0
LINE
8
BLACK
6
CONTINUOUS
10
2.60751
20
0.884751
11
2.6078
21
0.884055
0
LINE
8
BLACK
6
CONTINUOUS
10
2.6078
20
0.884055
11
2.6078
21
0.826575
0
LINE
8
BLACK
6
CONTINUOUS
10
2.6078
20
0.826575
11
2.60751
21
0.825879
0
LINE
8
BLACK
6
CONTINUOUS
10
2.60751
20
0.825879
11
2.60681
21
0.825591
0
LINE
8
BLACK
6
CONTINUOUS
10
2.60681
20
0.825591
11
2.49028
21
0.825591
0
LINE
8
BLACK
6
CONTINUOUS
10
2.49028
20
0.825591
11
2.48958
21
0.825879
0
LINE
8
BLACK
6
CONTINUOUS
10
2.48958
20
0.825879
11
2.48929
21
0.826575
0
LINE
8
BLACK
6
CONTINUOUS
10
2.48929
20
0.826575
11
2.48929
21
0.826575
0
LINE
8
BLACK
6
CONTINUOUS
10
2.48929
20
0.826575
11
2.48929
21
0.884055
0
LINE
8
BLACK
6
CONTINUOUS
10
2.48929
20
0.884055
11
2.48958
21
0.884751
0
LINE
8
BLACK
6
CONTINUOUS
10
2.48958
20
0.884751
11
2.49028
21
0.885039
0
LINE
8
BLACK
6
CONTINUOUS
10
2.49028
20
0.885039
11
2.60681
21
0.885039
0
LINE
8
BLACK
6
CONTINUOUS
10
2.49126
20
0.883071
11
2.49126
21
0.827559
0
LINE
8
BLACK
6
CONTINUOUS
10
2.49126
20
0.827559
11
2.60583
21
0.827559
0
LINE
8
BLACK
6
CONTINUOUS
10
2.60583
20
0.827559
11
2.60583
21
0.883071
0
LINE
8
BLACK
6
CONTINUOUS
10
2.60583
20
0.883071
11
2.49126
21
0.883071
0
LINE
8
BLACK
6
CONTINUOUS
10
2.76469
20
0.885039
11
2.76538
21
0.884751
0
LINE
8
BLACK
6
CONTINUOUS
10
2.76538
20
0.884751
11
2.76567
21
0.884055
0
LINE
8
BLACK
6
CONTINUOUS
10
2.76567
20
0.884055
11
2.76567
21
0.826575
0
LINE
8
BLACK
6
CONTINUOUS
10
2.76567
20
0.826575
11
2.76538
21
0.825879
0
LINE
8
BLACK
6
CONTINUOUS
10
2.76538
20
0.825879
11
2.76469
21
0.825591
0
LINE
8
BLACK
6
CONTINUOUS
10
2.76469
20
0.825591
11
2.64815
21
0.825591
0
LINE
8
BLACK
6
CONTINUOUS
10
2.64815
20
0.825591
11
2.64745
21
0.825879
0
LINE
8
BLACK
6
CONTINUOUS
10
2.64745
20
0.825879
11
2.64717
21
0.826575
0
LINE
8
BLACK
6
CONTINUOUS
10
2.64717
20
0.826575
11
2.64717
21
0.884055
0
LINE
8
BLACK
6
CONTINUOUS
10
2.64717
20
0.884055
11
2.64745
21
0.884751
0
LINE
8
BLACK
6
CONTINUOUS
10
2.64745
20
0.884751
11
2.64815
21
0.885039
0
LINE
8
BLACK
6
CONTINUOUS
10
2.64815
20
0.885039
11
2.76469
21
0.885039
0
LINE
8
BLACK
6
CONTINUOUS
10
2.64913
20
0.883071
11
2.64913
21
0.827559
0
LINE
8
BLACK
6
CONTINUOUS
10
2.64913
20
0.827559
11
2.7637
21
0.827559
0
LINE
8
BLACK
6
CONTINUOUS
10
2.7637
20
0.827559
11
2.7637
21
0.883071
0
LINE
8
BLACK
6
CONTINUOUS
10
2.7637
20
0.883071
11
2.64913
21
0.883071
0
LINE
8
BLACK
6
CONTINUOUS
10
2.92256
20
0.885039
11
2.92326
21
0.884751
0
LINE
8
BLACK
6
CONTINUOUS
10
2.92326
20
0.884751
11
2.92354
21
0.884055
0
LINE
8
BLACK
6
CONTINUOUS
10
2.92354
20
0.884055
11
2.92354
21
0.826575
0
LINE
8
BLACK
6
CONTINUOUS
10
2.92354
20
0.826575
11
2.92326
21
0.825879
0
LINE
8
BLACK
6
CONTINUOUS
10
2.92326
20
0.825879
11
2.92256
21
0.825591
0
LINE
8
BLACK
6
CONTINUOUS
10
2.92256
20
0.825591
11
2.80602
21
0.825591
0
LINE
8
BLACK
6
CONTINUOUS
10
2.80602
20
0.825591
11
2.80533
21
0.825879
0
LINE
8
BLACK
6
CONTINUOUS
10
2.80533
20
0.825879
11
2.80504
21
0.826575
0
LINE
8
BLACK
6
CONTINUOUS
10
2.80504
20
0.826575
11
2.80504
21
0.826575
0
LINE
8
BLACK
6
CONTINUOUS
10
2.80504
20
0.826575
11
2.80504
21
0.884055
0
LINE
8
BLACK
6
CONTINUOUS
10
2.80504
20
0.884055
11
2.80533
21
0.884751
0
LINE
8
BLACK
6
CONTINUOUS
10
2.80533
20
0.884751
11
2.80602
21
0.885039
0
LINE
8
BLACK
6
CONTINUOUS
10
2.80602
20
0.885039
11
2.92256
21
0.885039
0
LINE
8
BLACK
6
CONTINUOUS
10
2.80701
20
0.883071
11
2.80701
21
0.827559
0
LINE
8
BLACK
6
CONTINUOUS
10
2.80701
20
0.827559
11
2.92157
21
0.827559
0
LINE
8
BLACK
6
CONTINUOUS
10
2.92157
20
0.827559
11
2.92157
21
0.883071
0
LINE
8
BLACK
6
CONTINUOUS
10
2.92157
20
0.883071
11
2.80701
21
0.883071
0
LINE
8
BLACK
6
CONTINUOUS
10
3.45962
20
0.926796
11
3.46807
21
0.924532
0
LINE
8
BLACK
6
CONTINUOUS
10
3.46807
20
0.924532
11
3.476
21
0.920834
0
LINE
8
BLACK
6
CONTINUOUS
10
3.476
20
0.920834
11
3.48317
21
0.915815
0
LINE
8
BLACK
6
CONTINUOUS
10
3.48317
20
0.915815
11
3.48936
21
0.909628
0
LINE
8
BLACK
6
CONTINUOUS
10
3.48936
20
0.909628
11
3.49438
21
0.902461
0
LINE
8
BLACK
6
CONTINUOUS
10
3.49438
20
0.902461
11
3.49808
21
0.894531
0
LINE
8
BLACK
6
CONTINUOUS
10
3.49808
20
0.894531
11
3.50034
21
0.886079
0
LINE
8
BLACK
6
CONTINUOUS
10
3.50034
20
0.886079
11
3.5011
21
0.877362
0
LINE
8
BLACK
6
CONTINUOUS
10
3.5011
20
0.877362
11
3.50034
21
0.868646
0
LINE
8
BLACK
6
CONTINUOUS
10
3.50034
20
0.868646
11
3.49808
21
0.860194
0
LINE
8
BLACK
6
CONTINUOUS
10
3.49808
20
0.860194
11
3.49438
21
0.852264
0
LINE
8
BLACK
6
CONTINUOUS
10
3.49438
20
0.852264
11
3.48936
21
0.845096
0
LINE
8
BLACK
6
CONTINUOUS
10
3.48936
20
0.845096
11
3.48317
21
0.838909
0
LINE
8
BLACK
6
CONTINUOUS
10
3.48317
20
0.838909
11
3.476
21
0.83389
0
LINE
8
BLACK
6
CONTINUOUS
10
3.476
20
0.83389
11
3.46807
21
0.830193
0
LINE
8
BLACK
6
CONTINUOUS
10
3.46807
20
0.830193
11
3.45962
21
0.827928
0
LINE
8
BLACK
6
CONTINUOUS
10
3.45962
20
0.827928
11
3.45091
21
0.827165
0
LINE
8
BLACK
6
CONTINUOUS
10
3.45091
20
0.827165
11
3.44219
21
0.827928
0
LINE
8
BLACK
6
CONTINUOUS
10
3.44219
20
0.827928
11
3.43374
21
0.830193
0
LINE
8
BLACK
6
CONTINUOUS
10
3.43374
20
0.830193
11
3.42581
21
0.83389
0
LINE
8
BLACK
6
CONTINUOUS
10
3.42581
20
0.83389
11
3.41864
21
0.838909
0
LINE
8
BLACK
6
CONTINUOUS
10
3.41864
20
0.838909
11
3.41245
21
0.845096
0
LINE
8
BLACK
6
CONTINUOUS
10
3.41245
20
0.845096
11
3.40743
21
0.852264
0
LINE
8
BLACK
6
CONTINUOUS
10
3.40743
20
0.852264
11
3.40374
21
0.860194
0
LINE
8
BLACK
6
CONTINUOUS
10
3.40374
20
0.860194
11
3.40147
21
0.868646
0
LINE
8
BLACK
6
CONTINUOUS
10
3.40147
20
0.868646
11
3.40071
21
0.877362
0
LINE
8
BLACK
6
CONTINUOUS
10
3.40071
20
0.877362
11
3.40147
21
0.886079
0
LINE
8
BLACK
6
CONTINUOUS
10
3.40147
20
0.886079
11
3.40374
21
0.894531
0
LINE
8
BLACK
6
CONTINUOUS
10
3.40374
20
0.894531
11
3.40743
21
0.902461
0
LINE
8
BLACK
6
CONTINUOUS
10
3.40743
20
0.902461
11
3.41245
21
0.909628
0
LINE
8
BLACK
6
CONTINUOUS
10
3.41245
20
0.909628
11
3.41864
21
0.915815
0
LINE
8
BLACK
6
CONTINUOUS
10
3.41864
20
0.915815
11
3.42581
21
0.920834
0
LINE
8
BLACK
6
CONTINUOUS
10
3.42581
20
0.920834
11
3.43374
21
0.924532
0
LINE
8
BLACK
6
CONTINUOUS
10
3.43374
20
0.924532
11
3.44219
21
0.926796
0
LINE
8
BLACK
6
CONTINUOUS
10
3.44219
20
0.926796
11
3.45091
21
0.927559
0
LINE
8
BLACK
6
CONTINUOUS
10
3.45091
20
0.927559
11
3.45962
21
0.926796
0
LINE
8
BLACK
6
CONTINUOUS
10
3.40323
20
0.868955
11
3.40541
21
0.860804
0
LINE
8
BLACK
6
CONTINUOUS
10
3.40541
20
0.860804
11
3.40898
21
0.853156
0
LINE
8
BLACK
6
CONTINUOUS
10
3.40898
20
0.853156
11
3.41382
21
0.846243
0
LINE
8
BLACK
6
CONTINUOUS
10
3.41382
20
0.846243
11
3.41979
21
0.840276
0
LINE
8
BLACK
6
CONTINUOUS
10
3.41979
20
0.840276
11
3.4267
21
0.835436
0
LINE
8
BLACK
6
CONTINUOUS
10
3.4267
20
0.835436
11
3.43435
21
0.831869
0
LINE
8
BLACK
6
CONTINUOUS
10
3.43435
20
0.831869
11
3.4425
21
0.829685
0
LINE
8
BLACK
6
CONTINUOUS
10
3.4425
20
0.829685
11
3.45091
21
0.82895
0
LINE
8
BLACK
6
CONTINUOUS
10
3.45091
20
0.82895
11
3.45931
21
0.829685
0
LINE
8
BLACK
6
CONTINUOUS
10
3.45931
20
0.829685
11
3.46746
21
0.831869
0
LINE
8
BLACK
6
CONTINUOUS
10
3.46746
20
0.831869
11
3.47511
21
0.835436
0
LINE
8
BLACK
6
CONTINUOUS
10
3.47511
20
0.835436
11
3.48202
21
0.840276
0
LINE
8
BLACK
6
CONTINUOUS
10
3.48202
20
0.840276
11
3.48799
21
0.846243
0
LINE
8
BLACK
6
CONTINUOUS
10
3.48799
20
0.846243
11
3.49283
21
0.853156
0
LINE
8
BLACK
6
CONTINUOUS
10
3.49283
20
0.853156
11
3.4964
21
0.860804
0
LINE
8
BLACK
6
CONTINUOUS
10
3.4964
20
0.860804
11
3.49858
21
0.868955
0
LINE
8
BLACK
6
CONTINUOUS
10
3.49858
20
0.868955
11
3.49932
21
0.877362
0
LINE
8
BLACK
6
CONTINUOUS
10
3.49932
20
0.877362
11
3.49858
21
0.885769
0
LINE
8
BLACK
6
CONTINUOUS
10
3.49858
20
0.885769
11
3.4964
21
0.89392
0
LINE
8
BLACK
6
CONTINUOUS
10
3.4964
20
0.89392
11
3.49283
21
0.901568
0
LINE
8
BLACK
6
CONTINUOUS
10
3.49283
20
0.901568
11
3.48799
21
0.908481
0
LINE
8
BLACK
6
CONTINUOUS
10
3.48799
20
0.908481
11
3.48202
21
0.914448
0
LINE
8
BLACK
6
CONTINUOUS
10
3.48202
20
0.914448
11
3.47511
21
0.919289
0
LINE
8
BLACK
6
CONTINUOUS
10
3.47511
20
0.919289
11
3.46746
21
0.922855
0
LINE
8
BLACK
6
CONTINUOUS
10
3.46746
20
0.922855
11
3.45931
21
0.925039
0
LINE
8
BLACK
6
CONTINUOUS
10
3.45931
20
0.925039
11
3.45091
21
0.925775
0
LINE
8
BLACK
6
CONTINUOUS
10
3.45091
20
0.925775
11
3.4425
21
0.925039
0
LINE
8
BLACK
6
CONTINUOUS
10
3.4425
20
0.925039
11
3.43435
21
0.922855
0
LINE
8
BLACK
6
CONTINUOUS
10
3.43435
20
0.922855
11
3.4267
21
0.919289
0
LINE
8
BLACK
6
CONTINUOUS
10
3.4267
20
0.919289
11
3.41979
21
0.914448
0
LINE
8
BLACK
6
CONTINUOUS
10
3.41979
20
0.914448
11
3.41382
21
0.908481
0
LINE
8
BLACK
6
CONTINUOUS
10
3.41382
20
0.908481
11
3.40898
21
0.901568
0
LINE
8
BLACK
6
CONTINUOUS
10
3.40898
20
0.901568
11
3.40541
21
0.89392
0
LINE
8
BLACK
6
CONTINUOUS
10
3.40541
20
0.89392
11
3.40323
21
0.885769
0
LINE
8
BLACK
6
CONTINUOUS
10
3.40323
20
0.885769
11
3.40249
21
0.877362
0
LINE
8
BLACK
6
CONTINUOUS
10
3.40249
20
0.877362
11
3.40323
21
0.868955
0
LINE
8
BLACK
6
CONTINUOUS
10
2.29106
20
0.983858
11
2.29176
21
0.98357
0
LINE
8
BLACK
6
CONTINUOUS
10
2.29176
20
0.98357
11
2.29205
21
0.982874
0
LINE
8
BLACK
6
CONTINUOUS
10
2.29205
20
0.982874
11
2.29205
21
0.925394
0
LINE
8
BLACK
6
CONTINUOUS
10
2.29205
20
0.925394
11
2.29176
21
0.924698
0
LINE
8
BLACK
6
CONTINUOUS
10
2.29176
20
0.924698
11
2.29106
21
0.924409
0
LINE
8
BLACK
6
CONTINUOUS
10
2.29106
20
0.924409
11
2.17453
21
0.924409
0
LINE
8
BLACK
6
CONTINUOUS
10
2.17453
20
0.924409
11
2.17383
21
0.924698
0
LINE
8
BLACK
6
CONTINUOUS
10
2.17383
20
0.924698
11
2.17354
21
0.925394
0
LINE
8
BLACK
6
CONTINUOUS
10
2.17354
20
0.925394
11
2.17354
21
0.982874
0
LINE
8
BLACK
6
CONTINUOUS
10
2.17354
20
0.982874
11
2.17383
21
0.98357
0
LINE
8
BLACK
6
CONTINUOUS
10
2.17383
20
0.98357
11
2.17453
21
0.983858
0
LINE
8
BLACK
6
CONTINUOUS
10
2.17453
20
0.983858
11
2.29106
21
0.983858
0
LINE
8
BLACK
6
CONTINUOUS
10
2.17551
20
0.98189
11
2.17551
21
0.926378
0
LINE
8
BLACK
6
CONTINUOUS
10
2.17551
20
0.926378
11
2.29008
21
0.926378
0
LINE
8
BLACK
6
CONTINUOUS
10
2.29008
20
0.926378
11
2.29008
21
0.98189
0
LINE
8
BLACK
6
CONTINUOUS
10
2.29008
20
0.98189
11
2.17551
21
0.98189
0
LINE
8
BLACK
6
CONTINUOUS
10
2.44894
20
0.983858
11
2.44963
21
0.98357
0
LINE
8
BLACK
6
CONTINUOUS
10
2.44963
20
0.98357
11
2.44992
21
0.982874
0
LINE
8
BLACK
6
CONTINUOUS
10
2.44992
20
0.982874
11
2.44992
21
0.925394
0
LINE
8
BLACK
6
CONTINUOUS
10
2.44992
20
0.925394
11
2.44963
21
0.924698
0
LINE
8
BLACK
6
CONTINUOUS
10
2.44963
20
0.924698
11
2.44894
21
0.924409
0
LINE
8
BLACK
6
CONTINUOUS
10
2.44894
20
0.924409
11
2.3324
21
0.924409
0
LINE
8
BLACK
6
CONTINUOUS
10
2.3324
20
0.924409
11
2.33171
21
0.924698
0
LINE
8
BLACK
6
CONTINUOUS
10
2.33171
20
0.924698
11
2.33142
21
0.925394
0
LINE
8
BLACK
6
CONTINUOUS
10
2.33142
20
0.925394
11
2.33142
21
0.925394
0
LINE
8
BLACK
6
CONTINUOUS
10
2.33142
20
0.925394
11
2.33142
21
0.982874
0
LINE
8
BLACK
6
CONTINUOUS
10
2.33142
20
0.982874
11
2.33171
21
0.98357
0
LINE
8
BLACK
6
CONTINUOUS
10
2.33171
20
0.98357
11
2.3324
21
0.983858
0
LINE
8
BLACK
6
CONTINUOUS
10
2.3324
20
0.983858
11
2.44894
21
0.983858
0
LINE
8
BLACK
6
CONTINUOUS
10
2.33339
20
0.98189
11
2.33339
21
0.926378
0
LINE
8
BLACK
6
CONTINUOUS
10
2.33339
20
0.926378
11
2.44795
21
0.926378
0
LINE
8
BLACK
6
CONTINUOUS
10
2.44795
20
0.926378
11
2.44795
21
0.98189
0
LINE
8
BLACK
6
CONTINUOUS
10
2.44795
20
0.98189
11
2.33339
21
0.98189
0
LINE
8
BLACK
6
CONTINUOUS
10
2.60681
20
0.983858
11
2.60751
21
0.98357
0
LINE
8
BLACK
6
CONTINUOUS
10
2.60751
20
0.98357
11
2.6078
21
0.982874
0
LINE
8
BLACK
6
CONTINUOUS
10
2.6078
20
0.982874
11
2.6078
21
0.925394
0
LINE
8
BLACK
6
CONTINUOUS
10
2.6078
20
0.925394
11
2.60751
21
0.924698
0
LINE
8
BLACK
6
CONTINUOUS
10
2.60751
20
0.924698
11
2.60681
21
0.924409
0
LINE
8
BLACK
6
CONTINUOUS
10
2.60681
20
0.924409
11
2.49028
21
0.924409
0
LINE
8
BLACK
6
CONTINUOUS
10
2.49028
20
0.924409
11
2.48958
21
0.924698
0
LINE
8
BLACK
6
CONTINUOUS
10
2.48958
20
0.924698
11
2.48929
21
0.925394
0
LINE
8
BLACK
6
CONTINUOUS
10
2.48929
20
0.925394
11
2.48929
21
0.982874
0
LINE
8
BLACK
6
CONTINUOUS
10
2.48929
20
0.982874
11
2.48958
21
0.98357
0
LINE
8
BLACK
6
CONTINUOUS
10
2.48958
20
0.98357
11
2.49028
21
0.983858
0
LINE
8
BLACK
6
CONTINUOUS
10
2.49028
20
0.983858
11
2.60681
21
0.983858
0
LINE
8
BLACK
6
CONTINUOUS
10
2.49126
20
0.98189
11
2.49126
21
0.926378
0
LINE
8
BLACK
6
CONTINUOUS
10
2.49126
20
0.926378
11
2.60583
21
0.926378
0
LINE
8
BLACK
6
CONTINUOUS
10
2.60583
20
0.926378
11
2.60583
21
0.98189
0
LINE
8
BLACK
6
CONTINUOUS
10
2.60583
20
0.98189
11
2.49126
21
0.98189
0
LINE
8
BLACK
6
CONTINUOUS
10
2.76469
20
0.983858
11
2.76538
21
0.98357
0
LINE
8
BLACK
6
CONTINUOUS
10
2.76538
20
0.98357
11
2.76567
21
0.982874
0
LINE
8
BLACK
6
CONTINUOUS
10
2.76567
20
0.982874
11
2.76567
21
0.925394
0
LINE
8
BLACK
6
CONTINUOUS
10
2.76567
20
0.925394
11
2.76538
21
0.924698
0
LINE
8
BLACK
6
CONTINUOUS
10
2.76538
20
0.924698
11
2.76469
21
0.924409
0
LINE
8
BLACK
6
CONTINUOUS
10
2.76469
20
0.924409
11
2.64815
21
0.924409
0
LINE
8
BLACK
6
CONTINUOUS
10
2.64815
20
0.924409
11
2.64745
21
0.924698
0
LINE
8
BLACK
6
CONTINUOUS
10
2.64745
20
0.924698
11
2.64717
21
0.925394
0
LINE
8
BLACK
6
CONTINUOUS
10
2.64717
20
0.925394
11
2.64717
21
0.925394
0
LINE
8
BLACK
6
CONTINUOUS
10
2.64717
20
0.925394
11
2.64717
21
0.982874
0
LINE
8
BLACK
6
CONTINUOUS
10
2.64717
20
0.982874
11
2.64745
21
0.98357
0
LINE
8
BLACK
6
CONTINUOUS
10
2.64745
20
0.98357
11
2.64815
21
0.983858
0
LINE
8
BLACK
6
CONTINUOUS
10
2.64815
20
0.983858
11
2.76469
21
0.983858
0
LINE
8
BLACK
6
CONTINUOUS
10
2.64913
20
0.98189
11
2.64913
21
0.926378
0
LINE
8
BLACK
6
CONTINUOUS
10
2.64913
20
0.926378
11
2.7637
21
0.926378
0
LINE
8
BLACK
6
CONTINUOUS
10
2.7637
20
0.926378
11
2.7637
21
0.98189
0
LINE
8
BLACK
6
CONTINUOUS
10
2.7637
20
0.98189
11
2.64913
21
0.98189
0
LINE
8
BLACK
6
CONTINUOUS
10
2.92256
20
0.983858
11
2.92326
21
0.98357
0
LINE
8
BLACK
6
CONTINUOUS
10
2.92326
20
0.98357
11
2.92354
21
0.982874
0
LINE
8
BLACK
6
CONTINUOUS
10
2.92354
20
0.982874
11
2.92354
21
0.925394
0
LINE
8
BLACK
6
CONTINUOUS
10
2.92354
20
0.925394
11
2.92326
21
0.924698
0
LINE
8
BLACK
6
CONTINUOUS
10
2.92326
20
0.924698
11
2.92256
21
0.924409
0
LINE
8
BLACK
6
CONTINUOUS
10
2.92256
20
0.924409
11
2.80602
21
0.924409
0
LINE
8
BLACK
6
CONTINUOUS
10
2.80602
20
0.924409
11
2.80533
21
0.924698
0
LINE
8
BLACK
6
CONTINUOUS
10
2.80533
20
0.924698
11
2.80504
21
0.925394
0
LINE
8
BLACK
6
CONTINUOUS
10
2.80504
20
0.925394
11
2.80504
21
0.982874
0
LINE
8
BLACK
6
CONTINUOUS
10
2.80504
20
0.982874
11
2.80533
21
0.98357
0
LINE
8
BLACK
6
CONTINUOUS
10
2.80533
20
0.98357
11
2.80602
21
0.983858
0
LINE
8
BLACK
6
CONTINUOUS
10
2.80602
20
0.983858
11
2.92256
21
0.983858
0
LINE
8
BLACK
6
CONTINUOUS
10
2.80701
20
0.98189
11
2.80701
21
0.926378
0
LINE
8
BLACK
6
CONTINUOUS
10
2.80701
20
0.926378
11
2.92157
21
0.926378
0
LINE
8
BLACK
6
CONTINUOUS
10
2.92157
20
0.926378
11
2.92157
21
0.98189
0
LINE
8
BLACK
6
CONTINUOUS
10
2.92157
20
0.98189
11
2.80701
21
0.98189
0
LINE
8
BLACK
6
CONTINUOUS
10
3.50051
20
1.1815
11
3.50121
21
1.18121
0
LINE
8
BLACK
6
CONTINUOUS
10
3.50121
20
1.18121
11
3.5015
21
1.18051
0
LINE
8
BLACK
6
CONTINUOUS
10
3.5015
20
1.18051
11
3.5015
21
0.967913
0
LINE
8
BLACK
6
CONTINUOUS
10
3.5015
20
0.967913
11
3.50121
21
0.967217
0
LINE
8
BLACK
6
CONTINUOUS
10
3.50121
20
0.967217
11
3.50051
21
0.966929
0
LINE
8
BLACK
6
CONTINUOUS
10
3.50051
20
0.966929
11
3.20917
21
0.966929
0
LINE
8
BLACK
6
CONTINUOUS
10
3.20917
20
0.966929
11
3.20848
21
0.967217
0
LINE
8
BLACK
6
CONTINUOUS
10
3.20848
20
0.967217
11
3.20819
21
0.967913
0
LINE
8
BLACK
6
CONTINUOUS
10
3.20819
20
0.967913
11
3.20819
21
0.967913
0
LINE
8
BLACK
6
CONTINUOUS
10
3.20819
20
0.967913
11
3.20819
21
1.18051
0
LINE
8
BLACK
6
CONTINUOUS
10
3.20819
20
1.18051
11
3.20848
21
1.18121
0
LINE
8
BLACK
6
CONTINUOUS
10
3.20848
20
1.18121
11
3.20917
21
1.1815
0
LINE
8
BLACK
6
CONTINUOUS
10
3.20917
20
1.1815
11
3.50051
21
1.1815
0
LINE
8
BLACK
6
CONTINUOUS
10
3.21016
20
1.17953
11
3.21016
21
0.968898
0
LINE
8
BLACK
6
CONTINUOUS
10
3.21016
20
0.968898
11
3.49953
21
0.968898
0
LINE
8
BLACK
6
CONTINUOUS
10
3.49953
20
0.968898
11
3.49953
21
1.17953
0
LINE
8
BLACK
6
CONTINUOUS
10
3.49953
20
1.17953
11
3.21016
21
1.17953
0
LINE
8
BLACK
6
CONTINUOUS
10
2.29106
20
1.08268
11
2.29176
21
1.08239
0
LINE
8
BLACK
6
CONTINUOUS
10
2.29176
20
1.08239
11
2.29205
21
1.08169
0
LINE
8
BLACK
6
CONTINUOUS
10
2.29205
20
1.08169
11
2.29205
21
1.02421
0
LINE
8
BLACK
6
CONTINUOUS
10
2.29205
20
1.02421
11
2.29176
21
1.02352
0
LINE
8
BLACK
6
CONTINUOUS
10
2.29176
20
1.02352
11
2.29106
21
1.02323
0
LINE
8
BLACK
6
CONTINUOUS
10
2.29106
20
1.02323
11
2.17453
21
1.02323
0
LINE
8
BLACK
6
CONTINUOUS
10
2.17453
20
1.02323
11
2.17383
21
1.02352
0
LINE
8
BLACK
6
CONTINUOUS
10
2.17383
20
1.02352
11
2.17354
21
1.02421
0
LINE
8
BLACK
6
CONTINUOUS
10
2.17354
20
1.02421
11
2.17354
21
1.02421
0
LINE
8
BLACK
6
CONTINUOUS
10
2.17354
20
1.02421
11
2.17354
21
1.08169
0
LINE
8
BLACK
6
CONTINUOUS
10
2.17354
20
1.08169
11
2.17383
21
1.08239
0
LINE
8
BLACK
6
CONTINUOUS
10
2.17383
20
1.08239
11
2.17453
21
1.08268
0
LINE
8
BLACK
6
CONTINUOUS
10
2.17453
20
1.08268
11
2.29106
21
1.08268
0
LINE
8
BLACK
6
CONTINUOUS
10
2.17551
20
1.08071
11
2.17551
21
1.0252
0
LINE
8
BLACK
6
CONTINUOUS
10
2.17551
20
1.0252
11
2.29008
21
1.0252
0
LINE
8
BLACK
6
CONTINUOUS
10
2.29008
20
1.0252
11
2.29008
21
1.08071
0
LINE
8
BLACK
6
CONTINUOUS
10
2.29008
20
1.08071
11
2.17551
21
1.08071
0
LINE
8
BLACK
6
CONTINUOUS
10
2.44894
20
1.08268
11
2.44963
21
1.08239
0
LINE
8
BLACK
6
CONTINUOUS
10
2.44963
20
1.08239
11
2.44992
21
1.08169
0
LINE
8
BLACK
6
CONTINUOUS
10
2.44992
20
1.08169
11
2.44992
21
1.02421
0
LINE
8
BLACK
6
CONTINUOUS
10
2.44992
20
1.02421
11
2.44963
21
1.02352
0
LINE
8
BLACK
6
CONTINUOUS
10
2.44963
20
1.02352
11
2.44894
21
1.02323
0
LINE
8
BLACK
6
CONTINUOUS
10
2.44894
20
1.02323
11
2.3324
21
1.02323
0
LINE
8
BLACK
6
CONTINUOUS
10
2.3324
20
1.02323
11
2.33171
21
1.02352
0
LINE
8
BLACK
6
CONTINUOUS
10
2.33171
20
1.02352
11
2.33142
21
1.02421
0
LINE
8
BLACK
6
CONTINUOUS
10
2.33142
20
1.02421
11
2.33142
21
1.08169
0
LINE
8
BLACK
6
CONTINUOUS
10
2.33142
20
1.08169
11
2.33171
21
1.08239
0
LINE
8
BLACK
6
CONTINUOUS
10
2.33171
20
1.08239
11
2.3324
21
1.08268
0
LINE
8
BLACK
6
CONTINUOUS
10
2.3324
20
1.08268
11
2.44894
21
1.08268
0
LINE
8
BLACK
6
CONTINUOUS
10
2.33339
20
1.08071
11
2.33339
21
1.0252
0
LINE
8
BLACK
6
CONTINUOUS
10
2.33339
20
1.0252
11
2.44795
21
1.0252
0
LINE
8
BLACK
6
CONTINUOUS
10
2.44795
20
1.0252
11
2.44795
21
1.08071
0
LINE
8
BLACK
6
CONTINUOUS
10
2.44795
20
1.08071
11
2.33339
21
1.08071
0
LINE
8
BLACK
6
CONTINUOUS
10
2.60681
20
1.08268
11
2.60751
21
1.08239
0
LINE
8
BLACK
6
CONTINUOUS
10
2.60751
20
1.08239
11
2.6078
21
1.08169
0
LINE
8
BLACK
6
CONTINUOUS
10
2.6078
20
1.08169
11
2.6078
21
1.02421
0
LINE
8
BLACK
6
CONTINUOUS
10
2.6078
20
1.02421
11
2.60751
21
1.02352
0
LINE
8
BLACK
6
CONTINUOUS
10
2.60751
20
1.02352
11
2.60681
21
1.02323
0
LINE
8
BLACK
6
CONTINUOUS
10
2.60681
20
1.02323
11
2.49028
21
1.02323
0
LINE
8
BLACK
6
CONTINUOUS
10
2.49028
20
1.02323
11
2.48958
21
1.02352
0
LINE
8
BLACK
6
CONTINUOUS
10
2.48958
20
1.02352
11
2.48929
21
1.02421
0
LINE
8
BLACK
6
CONTINUOUS
10
2.48929
20
1.02421
11
2.48929
21
1.02421
0
LINE
8
BLACK
6
CONTINUOUS
10
2.48929
20
1.02421
11
2.48929
21
1.08169
0
LINE
8
BLACK
6
CONTINUOUS
10
2.48929
20
1.08169
11
2.48958
21
1.08239
0
LINE
8
BLACK
6
CONTINUOUS
10
2.48958
20
1.08239
11
2.49028
21
1.08268
0
LINE
8
BLACK
6
CONTINUOUS
10
2.49028
20
1.08268
11
2.60681
21
1.08268
0
LINE
8
BLACK
6
CONTINUOUS
10
2.49126
20
1.08071
11
2.49126
21
1.0252
0
LINE
8
BLACK
6
CONTINUOUS
10
2.49126
20
1.0252
11
2.60583
21
1.0252
0
LINE
8
BLACK
6
CONTINUOUS
10
2.60583
20
1.0252
11
2.60583
21
1.08071
0
LINE
8
BLACK
6
CONTINUOUS
10
2.60583
20
1.08071
11
2.49126
21
1.08071
0
LINE
8
BLACK
6
CONTINUOUS
10
2.76469
20
1.08268
11
2.76538
21
1.08239
0
LINE
8
BLACK
6
CONTINUOUS
10
2.76538
20
1.08239
11
2.76567
21
1.08169
0
LINE
8
BLACK
6
CONTINUOUS
10
2.76567
20
1.08169
11
2.76567
21
1.02421
0
LINE
8
BLACK
6
CONTINUOUS
10
2.76567
20
1.02421
11
2.76538
21
1.02352
0
LINE
8
BLACK
6
CONTINUOUS
10
2.76538
20
1.02352
11
2.76469
21
1.02323
0
LINE
8
BLACK
6
CONTINUOUS
10
2.76469
20
1.02323
11
2.64815
21
1.02323
0
LINE
8
BLACK
6
CONTINUOUS
10
2.64815
20
1.02323
11
2.64745
21
1.02352
0
LINE
8
BLACK
6
CONTINUOUS
10
2.64745
20
1.02352
11
2.64717
21
1.02421
0
LINE
8
BLACK
6
CONTINUOUS
10
2.64717
20
1.02421
11
2.64717
21
1.08169
0
LINE
8
BLACK
6
CONTINUOUS
10
2.64717
20
1.08169
11
2.64745
21
1.08239
0
LINE
8
BLACK
6
CONTINUOUS
10
2.64745
20
1.08239
11
2.64815
21
1.08268
0
LINE
8
BLACK
6
CONTINUOUS
10
2.64815
20
1.08268
11
2.76469
21
1.08268
0
LINE
8
BLACK
6
CONTINUOUS
10
2.64913
20
1.08071
11
2.64913
21
1.0252
0
LINE
8
BLACK
6
CONTINUOUS
10
2.64913
20
1.0252
11
2.7637
21
1.0252
0
LINE
8
BLACK
6
CONTINUOUS
10
2.7637
20
1.0252
11
2.7637
21
1.08071
0
LINE
8
BLACK
6
CONTINUOUS
10
2.7637
20
1.08071
11
2.64913
21
1.08071
0
LINE
8
BLACK
6
CONTINUOUS
10
2.92256
20
1.08268
11
2.92326
21
1.08239
0
LINE
8
BLACK
6
CONTINUOUS
10
2.92326
20
1.08239
11
2.92354
21
1.08169
0
LINE
8
BLACK
6
CONTINUOUS
10
2.92354
20
1.08169
11
2.92354
21
1.02421
0
LINE
8
BLACK
6
CONTINUOUS
10
2.92354
20
1.02421
11
2.92326
21
1.02352
0
LINE
8
BLACK
6
CONTINUOUS
10
2.92326
20
1.02352
11
2.92256
21
1.02323
0
LINE
8
BLACK
6
CONTINUOUS
10
2.92256
20
1.02323
11
2.80602
21
1.02323
0
LINE
8
BLACK
6
CONTINUOUS
10
2.80602
20
1.02323
11
2.80533
21
1.02352
0
LINE
8
BLACK
6
CONTINUOUS
10
2.80533
20
1.02352
11
2.80504
21
1.02421
0
LINE
8
BLACK
6
CONTINUOUS
10
2.80504
20
1.02421
11
2.80504
21
1.02421
0
LINE
8
BLACK
6
CONTINUOUS
10
2.80504
20
1.02421
11
2.80504
21
1.08169
0
LINE
8
BLACK
6
CONTINUOUS
10
2.80504
20
1.08169
11
2.80533
21
1.08239
0
LINE
8
BLACK
6
CONTINUOUS
10
2.80533
20
1.08239
11
2.80602
21
1.08268
0
LINE
8
BLACK
6
CONTINUOUS
10
2.80602
20
1.08268
11
2.92256
21
1.08268
0
LINE
8
BLACK
6
CONTINUOUS
10
2.80701
20
1.08071
11
2.80701
21
1.0252
0
LINE
8
BLACK
6
CONTINUOUS
10
2.80701
20
1.0252
11
2.92157
21
1.0252
0
LINE
8
BLACK
6
CONTINUOUS
10
2.92157
20
1.0252
11
2.92157
21
1.08071
0
LINE
8
BLACK
6
CONTINUOUS
10
2.92157
20
1.08071
11
2.80701
21
1.08071
0
LINE
8
BLACK
6
CONTINUOUS
10
2.29106
20
1.1815
11
2.29176
21
1.18121
0
LINE
8
BLACK
6
CONTINUOUS
10
2.29176
20
1.18121
11
2.29205
21
1.18051
0
LINE
8
BLACK
6
CONTINUOUS
10
2.29205
20
1.18051
11
2.29205
21
1.12303
0
LINE
8
BLACK
6
CONTINUOUS
10
2.29205
20
1.12303
11
2.29176
21
1.12234
0
LINE
8
BLACK
6
CONTINUOUS
10
2.29176
20
1.12234
11
2.29106
21
1.12205
0
LINE
8
BLACK
6
CONTINUOUS
10
2.29106
20
1.12205
11
2.17453
21
1.12205
0
LINE
8
BLACK
6
CONTINUOUS
10
2.17453
20
1.12205
11
2.17383
21
1.12234
0
LINE
8
BLACK
6
CONTINUOUS
10
2.17383
20
1.12234
11
2.17354
21
1.12303
0
LINE
8
BLACK
6
CONTINUOUS
10
2.17354
20
1.12303
11
2.17354
21
1.18051
0
LINE
8
BLACK
6
CONTINUOUS
10
2.17354
20
1.18051
11
2.17383
21
1.18121
0
LINE
8
BLACK
6
CONTINUOUS
10
2.17383
20
1.18121
11
2.17453
21
1.1815
0
LINE
8
BLACK
6
CONTINUOUS
10
2.17453
20
1.1815
11
2.29106
21
1.1815
0
LINE
8
BLACK
6
CONTINUOUS
10
2.17551
20
1.17953
11
2.17551
21
1.12402
0
LINE
8
BLACK
6
CONTINUOUS
10
2.17551
20
1.12402
11
2.29008
21
1.12402
0
LINE
8
BLACK
6
CONTINUOUS
10
2.29008
20
1.12402
11
2.29008
21
1.17953
0
LINE
8
BLACK
6
CONTINUOUS
10
2.29008
20
1.17953
11
2.17551
21
1.17953
0
LINE
8
BLACK
6
CONTINUOUS
10
2.44894
20
1.1815
11
2.44963
21
1.18121
0
LINE
8
BLACK
6
CONTINUOUS
10
2.44963
20
1.18121
11
2.44992
21
1.18051
0
LINE
8
BLACK
6
CONTINUOUS
10
2.44992
20
1.18051
11
2.44992
21
1.12303
0
LINE
8
BLACK
6
CONTINUOUS
10
2.44992
20
1.12303
11
2.44963
21
1.12234
0
LINE
8
BLACK
6
CONTINUOUS
10
2.44963
20
1.12234
11
2.44894
21
1.12205
0
LINE
8
BLACK
6
CONTINUOUS
10
2.44894
20
1.12205
11
2.3324
21
1.12205
0
LINE
8
BLACK
6
CONTINUOUS
10
2.3324
20
1.12205
11
2.33171
21
1.12234
0
LINE
8
BLACK
6
CONTINUOUS
10
2.33171
20
1.12234
11
2.33142
21
1.12303
0
LINE
8
BLACK
6
CONTINUOUS
10
2.33142
20
1.12303
11
2.33142
21
1.12303
0
LINE
8
BLACK
6
CONTINUOUS
10
2.33142
20
1.12303
11
2.33142
21
1.18051
0
LINE
8
BLACK
6
CONTINUOUS
10
2.33142
20
1.18051
11
2.33171
21
1.18121
0
LINE
8
BLACK
6
CONTINUOUS
10
2.33171
20
1.18121
11
2.3324
21
1.1815
0
LINE
8
BLACK
6
CONTINUOUS
10
2.3324
20
1.1815
11
2.44894
21
1.1815
0
LINE
8
BLACK
6
CONTINUOUS
10
2.33339
20
1.17953
11
2.33339
21
1.12402
0
LINE
8
BLACK
6
CONTINUOUS
10
2.33339
20
1.12402
11
2.44795
21
1.12402
0
LINE
8
BLACK
6
CONTINUOUS
10
2.44795
20
1.12402
11
2.44795
21
1.17953
0
LINE
8
BLACK
6
CONTINUOUS
10
2.44795
20
1.17953
11
2.33339
21
1.17953
0
LINE
8
BLACK
6
CONTINUOUS
10
2.60681
20
1.1815
11
2.60751
21
1.18121
0
LINE
8
BLACK
6
CONTINUOUS
10
2.60751
20
1.18121
11
2.6078
21
1.18051
0
LINE
8
BLACK
6
CONTINUOUS
10
2.6078
20
1.18051
11
2.6078
21
1.12303
0
LINE
8
BLACK
6
CONTINUOUS
10
2.6078
20
1.12303
11
2.60751
21
1.12234
0
LINE
8
BLACK
6
CONTINUOUS
10
2.60751
20
1.12234
11
2.60681
21
1.12205
0
LINE
8
BLACK
6
CONTINUOUS
10
2.60681
20
1.12205
11
2.49028
21
1.12205
0
LINE
8
BLACK
6
CONTINUOUS
10
2.49028
20
1.12205
11
2.48958
21
1.12234
0
LINE
8
BLACK
6
CONTINUOUS
10
2.48958
20
1.12234
11
2.48929
21
1.12303
0
LINE
8
BLACK
6
CONTINUOUS
10
2.48929
20
1.12303
11
2.48929
21
1.18051
0
LINE
8
BLACK
6
CONTINUOUS
10
2.48929
20
1.18051
11
2.48958
21
1.18121
0
LINE
8
BLACK
6
CONTINUOUS
10
2.48958
20
1.18121
11
2.49028
21
1.1815
0
LINE
8
BLACK
6
CONTINUOUS
10
2.49028
20
1.1815
11
2.60681
21
1.1815
0
LINE
8
BLACK
6
CONTINUOUS
10
2.49126
20
1.17953
11
2.49126
21
1.12402
0
LINE
8
BLACK
6
CONTINUOUS
10
2.49126
20
1.12402
11
2.60583
21
1.12402
0
LINE
8
BLACK
6
CONTINUOUS
10
2.60583
20
1.12402
11
2.60583
21
1.17953
0
LINE
8
BLACK
6
CONTINUOUS
10
2.60583
20
1.17953
11
2.49126
21
1.17953
0
LINE
8
BLACK
6
CONTINUOUS
10
2.76469
20
1.1815
11
2.76538
21
1.18121
0
LINE
8
BLACK
6
CONTINUOUS
10
2.76538
20
1.18121
11
2.76567
21
1.18051
0
LINE
8
BLACK
6
CONTINUOUS
10
2.76567
20
1.18051
11
2.76567
21
1.12303
0
LINE
8
BLACK
6
CONTINUOUS
10
2.76567
20
1.12303
11
2.76538
21
1.12234
0
LINE
8
BLACK
6
CONTINUOUS
10
2.76538
20
1.12234
11
2.76469
21
1.12205
0
LINE
8
BLACK
6
CONTINUOUS
10
2.76469
20
1.12205
11
2.64815
21
1.12205
0
LINE
8
BLACK
6
CONTINUOUS
10
2.64815
20
1.12205
11
2.64745
21
1.12234
0
LINE
8
BLACK
6
CONTINUOUS
10
2.64745
20
1.12234
11
2.64717
21
1.12303
0
LINE
8
BLACK
6
CONTINUOUS
10
2.64717
20
1.12303
11
2.64717
21
1.12303
0
LINE
8
BLACK
6
CONTINUOUS
10
2.64717
20
1.12303
11
2.64717
21
1.18051
0
LINE
8
BLACK
6
CONTINUOUS
10
2.64717
20
1.18051
11
2.64745
21
1.18121
0
LINE
8
BLACK
6
CONTINUOUS
10
2.64745
20
1.18121
11
2.64815
21
1.1815
0
LINE
8
BLACK
6
CONTINUOUS
10
2.64815
20
1.1815
11
2.76469
21
1.1815
0
LINE
8
BLACK
6
CONTINUOUS
10
2.64913
20
1.17953
11
2.64913
21
1.12402
0
LINE
8
BLACK
6
CONTINUOUS
10
2.64913
20
1.12402
11
2.7637
21
1.12402
0
LINE
8
BLACK
6
CONTINUOUS
10
2.7637
20
1.12402
11
2.7637
21
1.17953
0
LINE
8
BLACK
6
CONTINUOUS
10
2.7637
20
1.17953
11
2.64913
21
1.17953
0
LINE
8
BLACK
6
CONTINUOUS
10
2.92256
20
1.1815
11
2.92326
21
1.18121
0
LINE
8
BLACK
6
CONTINUOUS
10
2.92326
20
1.18121
11
2.92354
21
1.18051
0
LINE
8
BLACK
6
CONTINUOUS
10
2.92354
20
1.18051
11
2.92354
21
1.12303
0
LINE
8
BLACK
6
CONTINUOUS
10
2.92354
20
1.12303
11
2.92326
21
1.12234
0
LINE
8
BLACK
6
CONTINUOUS
10
2.92326
20
1.12234
11
2.92256
21
1.12205
0
LINE
8
BLACK
6
CONTINUOUS
10
2.92256
20
1.12205
11
2.80602
21
1.12205
0
LINE
8
BLACK
6
CONTINUOUS
10
2.80602
20
1.12205
11
2.80533
21
1.12234
0
LINE
8
BLACK
6
CONTINUOUS
10
2.80533
20
1.12234
11
2.80504
21
1.12303
0
LINE
8
BLACK
6
CONTINUOUS
10
2.80504
20
1.12303
11
2.80504
21
1.18051
0
LINE
8
BLACK
6
CONTINUOUS
10
2.80504
20
1.18051
11
2.80533
21
1.18121
0
LINE
8
BLACK
6
CONTINUOUS
10
2.80533
20
1.18121
11
2.80602
21
1.1815
0
LINE
8
BLACK
6
CONTINUOUS
10
2.80602
20
1.1815
11
2.92256
21
1.1815
0
LINE
8
BLACK
6
CONTINUOUS
10
2.80701
20
1.17953
11
2.80701
21
1.12402
0
LINE
8
BLACK
6
CONTINUOUS
10
2.80701
20
1.12402
11
2.92157
21
1.12402
0
LINE
8
BLACK
6
CONTINUOUS
10
2.92157
20
1.12402
11
2.92157
21
1.17953
0
LINE
8
BLACK
6
CONTINUOUS
10
2.92157
20
1.17953
11
2.80701
21
1.17953
0
LINE
8
BLACK
6
CONTINUOUS
10
0.917717
20
1.49902
11
0.918413
21
1.49873
0
LINE
8
BLACK
6
CONTINUOUS
10
0.918413
20
1.49873
11
0.918701
21
1.49803
0
LINE
8
BLACK
6
CONTINUOUS
10
0.918701
20
1.49803
11
0.918701
21
1.16969
0
LINE
8
BLACK
6
CONTINUOUS
10
0.918701
20
1.16969
11
0.918413
21
1.16899
0
LINE
8
BLACK
6
CONTINUOUS
10
0.918413
20
1.16899
11
0.917717
21
1.1687
0
LINE
8
BLACK
6
CONTINUOUS
10
0.917717
20
1.1687
11
0.58937
21
1.1687
0
LINE
8
BLACK
6
CONTINUOUS
10
0.58937
20
1.1687
11
0.588674
21
1.16899
0
LINE
8
BLACK
6
CONTINUOUS
10
0.588674
20
1.16899
11
0.588386
21
1.16969
0
LINE
8
BLACK
6
CONTINUOUS
10
0.588386
20
1.16969
11
0.588386
21
1.16969
0
LINE
8
BLACK
6
CONTINUOUS
10
0.588386
20
1.16969
11
0.588386
21
1.49803
0
LINE
8
BLACK
6
CONTINUOUS
10
0.588386
20
1.49803
11
0.588674
21
1.49873
0
LINE
8
BLACK
6
CONTINUOUS
10
0.588674
20
1.49873
11
0.58937
21
1.49902
0
LINE
8
BLACK
6
CONTINUOUS
10
0.58937
20
1.49902
11
0.917717
21
1.49902
0
LINE
8
BLACK
6
CONTINUOUS
10
0.590354
20
1.49705
11
0.590354
21
1.17067
0
LINE
8
BLACK
6
CONTINUOUS
10
0.590354
20
1.17067
11
0.916732
21
1.17067
0
LINE
8
BLACK
6
CONTINUOUS
10
0.916732
20
1.17067
11
0.916732
21
1.49705
0
LINE
8
BLACK
6
CONTINUOUS
10
0.916732
20
1.49705
11
0.590354
21
1.49705
0
LINE
8
BLACK
6
CONTINUOUS
10
3.41075
20
1.29488
11
3.41144
21
1.29459
0
LINE
8
BLACK
6
CONTINUOUS
10
3.41144
20
1.29459
11
3.41173
21
1.2939
0
LINE
8
BLACK
6
CONTINUOUS
10
3.41173
20
1.2939
11
3.41173
21
1.23642
0
LINE
8
BLACK
6
CONTINUOUS
10
3.41173
20
1.23642
11
3.41144
21
1.23572
0
LINE
8
BLACK
6
CONTINUOUS
10
3.41144
20
1.23572
11
3.41075
21
1.23543
0
LINE
8
BLACK
6
CONTINUOUS
10
3.41075
20
1.23543
11
3.28083
21
1.23543
0
LINE
8
BLACK
6
CONTINUOUS
10
3.28083
20
1.23543
11
3.28013
21
1.23572
0
LINE
8
BLACK
6
CONTINUOUS
10
3.28013
20
1.23572
11
3.27984
21
1.23642
0
LINE
8
BLACK
6
CONTINUOUS
10
3.27984
20
1.23642
11
3.27984
21
1.2939
0
LINE
8
BLACK
6
CONTINUOUS
10
3.27984
20
1.2939
11
3.28013
21
1.29459
0
LINE
8
BLACK
6
CONTINUOUS
10
3.28013
20
1.29459
11
3.28083
21
1.29488
0
LINE
8
BLACK
6
CONTINUOUS
10
3.28083
20
1.29488
11
3.41075
21
1.29488
0
LINE
8
BLACK
6
CONTINUOUS
10
3.28181
20
1.29291
11
3.28181
21
1.2374
0
LINE
8
BLACK
6
CONTINUOUS
10
3.28181
20
1.2374
11
3.40976
21
1.2374
0
LINE
8
BLACK
6
CONTINUOUS
10
3.40976
20
1.2374
11
3.40976
21
1.29291
0
LINE
8
BLACK
6
CONTINUOUS
10
3.40976
20
1.29291
11
3.28181
21
1.29291
0
LINE
8
BLACK
6
CONTINUOUS
10
3.41862
20
1.50827
11
3.41932
21
1.50798
0
LINE
8
BLACK
6
CONTINUOUS
10
3.41932
20
1.50798
11
3.41961
21
1.50728
0
LINE
8
BLACK
6
CONTINUOUS
10
3.41961
20
1.50728
11
3.41961
21
1.44035
0
LINE
8
BLACK
6
CONTINUOUS
10
3.41961
20
1.44035
11
3.41932
21
1.43966
0
LINE
8
BLACK
6
CONTINUOUS
10
3.41932
20
1.43966
11
3.41862
21
1.43937
0
LINE
8
BLACK
6
CONTINUOUS
10
3.41862
20
1.43937
11
3.28083
21
1.43937
0
LINE
8
BLACK
6
CONTINUOUS
10
3.28083
20
1.43937
11
3.28013
21
1.43966
0
LINE
8
BLACK
6
CONTINUOUS
10
3.28013
20
1.43966
11
3.27984
21
1.44035
0
LINE
8
BLACK
6
CONTINUOUS
10
3.27984
20
1.44035
11
3.27984
21
1.50728
0
LINE
8
BLACK
6
CONTINUOUS
10
3.27984
20
1.50728
11
3.28013
21
1.50798
0
LINE
8
BLACK
6
CONTINUOUS
10
3.28013
20
1.50798
11
3.28083
21
1.50827
0
LINE
8
BLACK
6
CONTINUOUS
10
3.28083
20
1.50827
11
3.41862
21
1.50827
0
LINE
8
BLACK
6
CONTINUOUS
10
3.28181
20
1.5063
11
3.28181
21
1.44134
0
LINE
8
BLACK
6
CONTINUOUS
10
3.28181
20
1.44134
11
3.41764
21
1.44134
0
LINE
8
BLACK
6
CONTINUOUS
10
3.41764
20
1.44134
11
3.41764
21
1.5063
0
LINE
8
BLACK
6
CONTINUOUS
10
3.41764
20
1.5063
11
3.28181
21
1.5063
0
LINE
8
BLACK
6
CONTINUOUS
10
3.4265
20
1.62441
11
3.42719
21
1.62412
0
LINE
8
BLACK
6
CONTINUOUS
10
3.42719
20
1.62412
11
3.42748
21
1.62343
0
LINE
8
BLACK
6
CONTINUOUS
10
3.42748
20
1.62343
11
3.42748
21
1.54862
0
LINE
8
BLACK
6
CONTINUOUS
10
3.42748
20
1.54862
11
3.42719
21
1.54793
0
LINE
8
BLACK
6
CONTINUOUS
10
3.42719
20
1.54793
11
3.4265
21
1.54764
0
LINE
8
BLACK
6
CONTINUOUS
10
3.4265
20
1.54764
11
3.28083
21
1.54764
0
LINE
8
BLACK
6
CONTINUOUS
10
3.28083
20
1.54764
11
3.28013
21
1.54793
0
LINE
8
BLACK
6
CONTINUOUS
10
3.28013
20
1.54793
11
3.27984
21
1.54862
0
LINE
8
BLACK
6
CONTINUOUS
10
3.27984
20
1.54862
11
3.27984
21
1.62343
0
LINE
8
BLACK
6
CONTINUOUS
10
3.27984
20
1.62343
11
3.28013
21
1.62412
0
LINE
8
BLACK
6
CONTINUOUS
10
3.28013
20
1.62412
11
3.28083
21
1.62441
0
LINE
8
BLACK
6
CONTINUOUS
10
3.28083
20
1.62441
11
3.4265
21
1.62441
0
LINE
8
BLACK
6
CONTINUOUS
10
3.28181
20
1.62244
11
3.28181
21
1.54961
0
LINE
8
BLACK
6
CONTINUOUS
10
3.28181
20
1.54961
11
3.42551
21
1.54961
0
LINE
8
BLACK
6
CONTINUOUS
10
3.42551
20
1.54961
11
3.42551
21
1.62244
0
LINE
8
BLACK
6
CONTINUOUS
10
3.42551
20
1.62244
11
3.28181
21
1.62244
0
LINE
8
BLACK
6
CONTINUOUS
10
3.41469
20
1.78386
11
3.41538
21
1.78357
0
LINE
8
BLACK
6
CONTINUOUS
10
3.41538
20
1.78357
11
3.41567
21
1.78287
0
LINE
8
BLACK
6
CONTINUOUS
10
3.41567
20
1.78287
11
3.41567
21
1.66476
0
LINE
8
BLACK
6
CONTINUOUS
10
3.41567
20
1.66476
11
3.41538
21
1.66407
0
LINE
8
BLACK
6
CONTINUOUS
10
3.41538
20
1.66407
11
3.41469
21
1.66378
0
LINE
8
BLACK
6
CONTINUOUS
10
3.41469
20
1.66378
11
3.28083
21
1.66378
0
LINE
8
BLACK
6
CONTINUOUS
10
3.28083
20
1.66378
11
3.28013
21
1.66407
0
LINE
8
BLACK
6
CONTINUOUS
10
3.28013
20
1.66407
11
3.27984
21
1.66476
0
LINE
8
BLACK
6
CONTINUOUS
10
3.27984
20
1.66476
11
3.27984
21
1.66476
0
LINE
8
BLACK
6
CONTINUOUS
10
3.27984
20
1.66476
11
3.27984
21
1.78287
0
LINE
8
BLACK
6
CONTINUOUS
10
3.27984
20
1.78287
11
3.28013
21
1.78357
0
LINE
8
BLACK
6
CONTINUOUS
10
3.28013
20
1.78357
11
3.28083
21
1.78386
0
LINE
8
BLACK
6
CONTINUOUS
10
3.28083
20
1.78386
11
3.41469
21
1.78386
0
LINE
8
BLACK
6
CONTINUOUS
10
3.28181
20
1.78189
11
3.28181
21
1.66575
0
LINE
8
BLACK
6
CONTINUOUS
10
3.28181
20
1.66575
11
3.4137
21
1.66575
0
LINE
8
BLACK
6
CONTINUOUS
10
3.4137
20
1.66575
11
3.4137
21
1.78189
0
LINE
8
BLACK
6
CONTINUOUS
10
3.4137
20
1.78189
11
3.28181
21
1.78189
  0
ENDSEC
  0
EOF
