  0
SECTION
  2
HEADER
  9
$ANGBASE
  50
0.0
  9
$ANGDIR
  70
1
  9
$MEASUREMENT
  70
0
  0
ENDSEC
  0
SECTION
  2
TABLES
  0
TABLE
  2
LTYPE
  70
4
  0
LTYPE
  5
40F
  2
CONTINUOUS
  70
0
  3
Solid line
  72
65
  73
0
  40
0.0
  0
LTYPE
  5
410
  2
DASHDOT
 70
0
  3
Dash Dot ____ _ ____ _
 72
65
 73
4
 40
2.0
 49
1.25
 49
-0.25
 49
0.25
 49
-0.25
  0
LTYPE
  5
411
  2
DASHED
 70
0
  3
Dashed __ __ __ __ __
 72
65
 73
2
 40
0.75
 49
0.5
 49
-0.25
  0
LTYPE
  5
43B
  2
DOTTED
 70
0
  3
Dotted .  .  .  .
 72
65
 73
2
 40
0.2
 49
0.0
 49
-0.2
  0
ENDTAB
  0
TABLE
  2
STYLE
  70
4
  0
STYLE
  2
KICAD
  70
0
  40
0
  41
1
  42
1
  50
0
  71
0
  3
isocp.shx
  0
STYLE
  2
KICADB
  70
0
  40
0
  41
1
  42
1
  50
0
  71
0
  3
isocp.shx
  0
STYLE
  2
KICADI
  70
0
  40
0
  41
1
  42
1
  50
15
  71
0
  3
isocp.shx
  0
STYLE
  2
KICADBI
  70
0
  40
0
  41
1
  42
1
  50
15
  71
0
  3
isocp.shx
  0
ENDTAB
  0
TABLE
  2
LAYER
  70
1
  0
LAYER
  2
BLACK
  70
0
  62
7
  6
CONTINUOUS
  0
ENDTAB
  0
ENDSEC
  0
SECTION
  2
ENTITIES
0
LINE
8
BLACK
6
CONTINUOUS
10
2.06943
20
1.78943
11
2.07
21
1.78805
0
LINE
8
BLACK
6
CONTINUOUS
10
2.07
20
1.78805
11
2.07
21
0.211949
0
LINE
8
BLACK
6
CONTINUOUS
10
2.07
20
0.211949
11
2.06943
21
0.210571
0
LINE
8
BLACK
6
CONTINUOUS
10
2.06943
20
0.210571
11
2.06805
21
0.21
0
LINE
8
BLACK
6
CONTINUOUS
10
2.06805
20
0.21
11
0.731949
21
0.21
0
LINE
8
BLACK
6
CONTINUOUS
10
0.731949
20
0.21
11
0.730571
21
0.210571
0
LINE
8
BLACK
6
CONTINUOUS
10
0.730571
20
0.210571
11
0.73
21
0.211949
0
LINE
8
BLACK
6
CONTINUOUS
10
0.73
20
0.211949
11
0.73
21
1.78805
0
LINE
8
BLACK
6
CONTINUOUS
10
0.73
20
1.78805
11
0.730571
21
1.78943
0
LINE
8
BLACK
6
CONTINUOUS
10
0.730571
20
1.78943
11
0.731949
21
1.79
0
LINE
8
BLACK
6
CONTINUOUS
10
0.731949
20
1.79
11
2.06805
21
1.79
0
LINE
8
BLACK
6
CONTINUOUS
10
2.06805
20
1.79
11
2.06943
21
1.78943
0
LINE
8
BLACK
6
CONTINUOUS
10
0.414106
20
0.525192
11
0.428034
21
0.522826
0
LINE
8
BLACK
6
CONTINUOUS
10
0.428034
20
0.522826
11
0.44161
21
0.518914
0
LINE
8
BLACK
6
CONTINUOUS
10
0.44161
20
0.518914
11
0.454663
21
0.513508
0
LINE
8
BLACK
6
CONTINUOUS
10
0.454663
20
0.513508
11
0.467028
21
0.506674
0
LINE
8
BLACK
6
CONTINUOUS
10
0.467028
20
0.506674
11
0.47855
21
0.498498
0
LINE
8
BLACK
6
CONTINUOUS
10
0.47855
20
0.498498
11
0.489084
21
0.489084
0
LINE
8
BLACK
6
CONTINUOUS
10
0.489084
20
0.489084
11
0.498498
21
0.47855
0
LINE
8
BLACK
6
CONTINUOUS
10
0.498498
20
0.47855
11
0.506674
21
0.467028
0
LINE
8
BLACK
6
CONTINUOUS
10
0.506674
20
0.467028
11
0.513508
21
0.454663
0
LINE
8
BLACK
6
CONTINUOUS
10
0.513508
20
0.454663
11
0.518914
21
0.44161
0
LINE
8
BLACK
6
CONTINUOUS
10
0.518914
20
0.44161
11
0.522826
21
0.428034
0
LINE
8
BLACK
6
CONTINUOUS
10
0.522826
20
0.428034
11
0.525192
21
0.414106
0
LINE
8
BLACK
6
CONTINUOUS
10
0.525192
20
0.414106
11
0.525984
21
0.4
0
LINE
8
BLACK
6
CONTINUOUS
10
0.525984
20
0.4
11
0.525192
21
0.385894
0
LINE
8
BLACK
6
CONTINUOUS
10
0.525192
20
0.385894
11
0.522826
21
0.371966
0
LINE
8
BLACK
6
CONTINUOUS
10
0.522826
20
0.371966
11
0.518914
21
0.35839
0
LINE
8
BLACK
6
CONTINUOUS
10
0.518914
20
0.35839
11
0.513508
21
0.345337
0
LINE
8
BLACK
6
CONTINUOUS
10
0.513508
20
0.345337
11
0.506674
21
0.332972
0
LINE
8
BLACK
6
CONTINUOUS
10
0.506674
20
0.332972
11
0.498498
21
0.32145
0
LINE
8
BLACK
6
CONTINUOUS
10
0.498498
20
0.32145
11
0.489084
21
0.310916
0
LINE
8
BLACK
6
CONTINUOUS
10
0.489084
20
0.310916
11
0.47855
21
0.301502
0
LINE
8
BLACK
6
CONTINUOUS
10
0.47855
20
0.301502
11
0.467028
21
0.293326
0
LINE
8
BLACK
6
CONTINUOUS
10
0.467028
20
0.293326
11
0.454663
21
0.286492
0
LINE
8
BLACK
6
CONTINUOUS
10
0.454663
20
0.286492
11
0.44161
21
0.281086
0
LINE
8
BLACK
6
CONTINUOUS
10
0.44161
20
0.281086
11
0.428034
21
0.277174
0
LINE
8
BLACK
6
CONTINUOUS
10
0.428034
20
0.277174
11
0.414106
21
0.274808
0
LINE
8
BLACK
6
CONTINUOUS
10
0.414106
20
0.274808
11
0.4
21
0.274016
0
LINE
8
BLACK
6
CONTINUOUS
10
0.4
20
0.274016
11
0.385894
21
0.274808
0
LINE
8
BLACK
6
CONTINUOUS
10
0.385894
20
0.274808
11
0.371966
21
0.277174
0
LINE
8
BLACK
6
CONTINUOUS
10
0.371966
20
0.277174
11
0.35839
21
0.281086
0
LINE
8
BLACK
6
CONTINUOUS
10
0.35839
20
0.281086
11
0.345337
21
0.286492
0
LINE
8
BLACK
6
CONTINUOUS
10
0.345337
20
0.286492
11
0.332972
21
0.293326
0
LINE
8
BLACK
6
CONTINUOUS
10
0.332972
20
0.293326
11
0.32145
21
0.301502
0
LINE
8
BLACK
6
CONTINUOUS
10
0.32145
20
0.301502
11
0.310916
21
0.310916
0
LINE
8
BLACK
6
CONTINUOUS
10
0.310916
20
0.310916
11
0.301502
21
0.32145
0
LINE
8
BLACK
6
CONTINUOUS
10
0.301502
20
0.32145
11
0.293326
21
0.332972
0
LINE
8
BLACK
6
CONTINUOUS
10
0.293326
20
0.332972
11
0.286492
21
0.345337
0
LINE
8
BLACK
6
CONTINUOUS
10
0.286492
20
0.345337
11
0.281086
21
0.35839
0
LINE
8
BLACK
6
CONTINUOUS
10
0.281086
20
0.35839
11
0.277174
21
0.371966
0
LINE
8
BLACK
6
CONTINUOUS
10
0.277174
20
0.371966
11
0.274808
21
0.385894
0
LINE
8
BLACK
6
CONTINUOUS
10
0.274808
20
0.385894
11
0.274016
21
0.4
0
LINE
8
BLACK
6
CONTINUOUS
10
0.274016
20
0.4
11
0.274808
21
0.414106
0
LINE
8
BLACK
6
CONTINUOUS
10
0.274808
20
0.414106
11
0.277174
21
0.428034
0
LINE
8
BLACK
6
CONTINUOUS
10
0.277174
20
0.428034
11
0.281086
21
0.44161
0
LINE
8
BLACK
6
CONTINUOUS
10
0.281086
20
0.44161
11
0.286492
21
0.454663
0
LINE
8
BLACK
6
CONTINUOUS
10
0.286492
20
0.454663
11
0.293326
21
0.467028
0
LINE
8
BLACK
6
CONTINUOUS
10
0.293326
20
0.467028
11
0.301502
21
0.47855
0
LINE
8
BLACK
6
CONTINUOUS
10
0.301502
20
0.47855
11
0.310916
21
0.489084
0
LINE
8
BLACK
6
CONTINUOUS
10
0.310916
20
0.489084
11
0.32145
21
0.498498
0
LINE
8
BLACK
6
CONTINUOUS
10
0.32145
20
0.498498
11
0.332972
21
0.506674
0
LINE
8
BLACK
6
CONTINUOUS
10
0.332972
20
0.506674
11
0.345337
21
0.513508
0
LINE
8
BLACK
6
CONTINUOUS
10
0.345337
20
0.513508
11
0.35839
21
0.518914
0
LINE
8
BLACK
6
CONTINUOUS
10
0.35839
20
0.518914
11
0.371966
21
0.522826
0
LINE
8
BLACK
6
CONTINUOUS
10
0.371966
20
0.522826
11
0.385894
21
0.525192
0
LINE
8
BLACK
6
CONTINUOUS
10
0.385894
20
0.525192
11
0.4
21
0.525984
0
LINE
8
BLACK
6
CONTINUOUS
10
0.4
20
0.525984
11
0.414106
21
0.525192
0
LINE
8
BLACK
6
CONTINUOUS
10
2.41411
20
0.525192
11
2.42803
21
0.522826
0
LINE
8
BLACK
6
CONTINUOUS
10
2.42803
20
0.522826
11
2.44161
21
0.518914
0
LINE
8
BLACK
6
CONTINUOUS
10
2.44161
20
0.518914
11
2.45466
21
0.513508
0
LINE
8
BLACK
6
CONTINUOUS
10
2.45466
20
0.513508
11
2.46703
21
0.506674
0
LINE
8
BLACK
6
CONTINUOUS
10
2.46703
20
0.506674
11
2.47855
21
0.498498
0
LINE
8
BLACK
6
CONTINUOUS
10
2.47855
20
0.498498
11
2.48908
21
0.489084
0
LINE
8
BLACK
6
CONTINUOUS
10
2.48908
20
0.489084
11
2.4985
21
0.47855
0
LINE
8
BLACK
6
CONTINUOUS
10
2.4985
20
0.47855
11
2.50667
21
0.467028
0
LINE
8
BLACK
6
CONTINUOUS
10
2.50667
20
0.467028
11
2.51351
21
0.454663
0
LINE
8
BLACK
6
CONTINUOUS
10
2.51351
20
0.454663
11
2.51891
21
0.44161
0
LINE
8
BLACK
6
CONTINUOUS
10
2.51891
20
0.44161
11
2.52283
21
0.428034
0
LINE
8
BLACK
6
CONTINUOUS
10
2.52283
20
0.428034
11
2.52519
21
0.414106
0
LINE
8
BLACK
6
CONTINUOUS
10
2.52519
20
0.414106
11
2.52598
21
0.4
0
LINE
8
BLACK
6
CONTINUOUS
10
2.52598
20
0.4
11
2.52519
21
0.385894
0
LINE
8
BLACK
6
CONTINUOUS
10
2.52519
20
0.385894
11
2.52283
21
0.371966
0
LINE
8
BLACK
6
CONTINUOUS
10
2.52283
20
0.371966
11
2.51891
21
0.35839
0
LINE
8
BLACK
6
CONTINUOUS
10
2.51891
20
0.35839
11
2.51351
21
0.345337
0
LINE
8
BLACK
6
CONTINUOUS
10
2.51351
20
0.345337
11
2.50667
21
0.332972
0
LINE
8
BLACK
6
CONTINUOUS
10
2.50667
20
0.332972
11
2.4985
21
0.32145
0
LINE
8
BLACK
6
CONTINUOUS
10
2.4985
20
0.32145
11
2.48908
21
0.310916
0
LINE
8
BLACK
6
CONTINUOUS
10
2.48908
20
0.310916
11
2.47855
21
0.301502
0
LINE
8
BLACK
6
CONTINUOUS
10
2.47855
20
0.301502
11
2.46703
21
0.293326
0
LINE
8
BLACK
6
CONTINUOUS
10
2.46703
20
0.293326
11
2.45466
21
0.286492
0
LINE
8
BLACK
6
CONTINUOUS
10
2.45466
20
0.286492
11
2.44161
21
0.281086
0
LINE
8
BLACK
6
CONTINUOUS
10
2.44161
20
0.281086
11
2.42803
21
0.277174
0
LINE
8
BLACK
6
CONTINUOUS
10
2.42803
20
0.277174
11
2.41411
21
0.274808
0
LINE
8
BLACK
6
CONTINUOUS
10
2.41411
20
0.274808
11
2.4
21
0.274016
0
LINE
8
BLACK
6
CONTINUOUS
10
2.4
20
0.274016
11
2.38589
21
0.274808
0
LINE
8
BLACK
6
CONTINUOUS
10
2.38589
20
0.274808
11
2.37197
21
0.277174
0
LINE
8
BLACK
6
CONTINUOUS
10
2.37197
20
0.277174
11
2.35839
21
0.281086
0
LINE
8
BLACK
6
CONTINUOUS
10
2.35839
20
0.281086
11
2.34534
21
0.286492
0
LINE
8
BLACK
6
CONTINUOUS
10
2.34534
20
0.286492
11
2.33297
21
0.293326
0
LINE
8
BLACK
6
CONTINUOUS
10
2.33297
20
0.293326
11
2.32145
21
0.301502
0
LINE
8
BLACK
6
CONTINUOUS
10
2.32145
20
0.301502
11
2.31092
21
0.310916
0
LINE
8
BLACK
6
CONTINUOUS
10
2.31092
20
0.310916
11
2.3015
21
0.32145
0
LINE
8
BLACK
6
CONTINUOUS
10
2.3015
20
0.32145
11
2.29333
21
0.332972
0
LINE
8
BLACK
6
CONTINUOUS
10
2.29333
20
0.332972
11
2.28649
21
0.345337
0
LINE
8
BLACK
6
CONTINUOUS
10
2.28649
20
0.345337
11
2.28109
21
0.35839
0
LINE
8
BLACK
6
CONTINUOUS
10
2.28109
20
0.35839
11
2.27717
21
0.371966
0
LINE
8
BLACK
6
CONTINUOUS
10
2.27717
20
0.371966
11
2.27481
21
0.385894
0
LINE
8
BLACK
6
CONTINUOUS
10
2.27481
20
0.385894
11
2.27402
21
0.4
0
LINE
8
BLACK
6
CONTINUOUS
10
2.27402
20
0.4
11
2.27481
21
0.414106
0
LINE
8
BLACK
6
CONTINUOUS
10
2.27481
20
0.414106
11
2.27717
21
0.428034
0
LINE
8
BLACK
6
CONTINUOUS
10
2.27717
20
0.428034
11
2.28109
21
0.44161
0
LINE
8
BLACK
6
CONTINUOUS
10
2.28109
20
0.44161
11
2.28649
21
0.454663
0
LINE
8
BLACK
6
CONTINUOUS
10
2.28649
20
0.454663
11
2.29333
21
0.467028
0
LINE
8
BLACK
6
CONTINUOUS
10
2.29333
20
0.467028
11
2.3015
21
0.47855
0
LINE
8
BLACK
6
CONTINUOUS
10
2.3015
20
0.47855
11
2.31092
21
0.489084
0
LINE
8
BLACK
6
CONTINUOUS
10
2.31092
20
0.489084
11
2.32145
21
0.498498
0
LINE
8
BLACK
6
CONTINUOUS
10
2.32145
20
0.498498
11
2.33297
21
0.506674
0
LINE
8
BLACK
6
CONTINUOUS
10
2.33297
20
0.506674
11
2.34534
21
0.513508
0
LINE
8
BLACK
6
CONTINUOUS
10
2.34534
20
0.513508
11
2.35839
21
0.518914
0
LINE
8
BLACK
6
CONTINUOUS
10
2.35839
20
0.518914
11
2.37197
21
0.522826
0
LINE
8
BLACK
6
CONTINUOUS
10
2.37197
20
0.522826
11
2.38589
21
0.525192
0
LINE
8
BLACK
6
CONTINUOUS
10
2.38589
20
0.525192
11
2.4
21
0.525984
0
LINE
8
BLACK
6
CONTINUOUS
10
2.4
20
0.525984
11
2.41411
21
0.525192
0
LINE
8
BLACK
6
CONTINUOUS
10
2.28301
20
0.777275
11
2.28557
21
0.775568
0
LINE
8
BLACK
6
CONTINUOUS
10
2.28557
20
0.775568
11
2.28727
21
0.773013
0
LINE
8
BLACK
6
CONTINUOUS
10
2.28727
20
0.773013
11
2.28787
21
0.77
0
LINE
8
BLACK
6
CONTINUOUS
10
2.28787
20
0.77
11
2.28787
21
0.71
0
LINE
8
BLACK
6
CONTINUOUS
10
2.28787
20
0.71
11
2.28727
21
0.706987
0
LINE
8
BLACK
6
CONTINUOUS
10
2.28727
20
0.706987
11
2.28557
21
0.704432
0
LINE
8
BLACK
6
CONTINUOUS
10
2.28557
20
0.704432
11
2.28301
21
0.702725
0
LINE
8
BLACK
6
CONTINUOUS
10
2.28301
20
0.702725
11
2.28
21
0.702126
0
LINE
8
BLACK
6
CONTINUOUS
10
2.28
20
0.702126
11
2.22
21
0.702126
0
LINE
8
BLACK
6
CONTINUOUS
10
2.22
20
0.702126
11
2.21699
21
0.702725
0
LINE
8
BLACK
6
CONTINUOUS
10
2.21699
20
0.702725
11
2.21443
21
0.704432
0
LINE
8
BLACK
6
CONTINUOUS
10
2.21443
20
0.704432
11
2.21273
21
0.706987
0
LINE
8
BLACK
6
CONTINUOUS
10
2.21273
20
0.706987
11
2.21213
21
0.71
0
LINE
8
BLACK
6
CONTINUOUS
10
2.21213
20
0.71
11
2.21213
21
0.77
0
LINE
8
BLACK
6
CONTINUOUS
10
2.21213
20
0.77
11
2.21273
21
0.773013
0
LINE
8
BLACK
6
CONTINUOUS
10
2.21273
20
0.773013
11
2.21443
21
0.775568
0
LINE
8
BLACK
6
CONTINUOUS
10
2.21443
20
0.775568
11
2.21699
21
0.777275
0
LINE
8
BLACK
6
CONTINUOUS
10
2.21699
20
0.777275
11
2.22
21
0.777874
0
LINE
8
BLACK
6
CONTINUOUS
10
2.22
20
0.777874
11
2.28
21
0.777874
0
LINE
8
BLACK
6
CONTINUOUS
10
2.28
20
0.777874
11
2.28301
21
0.777275
0
LINE
8
BLACK
6
CONTINUOUS
10
2.38301
20
0.777275
11
2.38557
21
0.775568
0
LINE
8
BLACK
6
CONTINUOUS
10
2.38557
20
0.775568
11
2.38727
21
0.773013
0
LINE
8
BLACK
6
CONTINUOUS
10
2.38727
20
0.773013
11
2.38787
21
0.77
0
LINE
8
BLACK
6
CONTINUOUS
10
2.38787
20
0.77
11
2.38787
21
0.71
0
LINE
8
BLACK
6
CONTINUOUS
10
2.38787
20
0.71
11
2.38727
21
0.706987
0
LINE
8
BLACK
6
CONTINUOUS
10
2.38727
20
0.706987
11
2.38557
21
0.704432
0
LINE
8
BLACK
6
CONTINUOUS
10
2.38557
20
0.704432
11
2.38301
21
0.702725
0
LINE
8
BLACK
6
CONTINUOUS
10
2.38301
20
0.702725
11
2.38
21
0.702126
0
LINE
8
BLACK
6
CONTINUOUS
10
2.38
20
0.702126
11
2.32
21
0.702126
0
LINE
8
BLACK
6
CONTINUOUS
10
2.32
20
0.702126
11
2.31699
21
0.702725
0
LINE
8
BLACK
6
CONTINUOUS
10
2.31699
20
0.702725
11
2.31443
21
0.704432
0
LINE
8
BLACK
6
CONTINUOUS
10
2.31443
20
0.704432
11
2.31273
21
0.706987
0
LINE
8
BLACK
6
CONTINUOUS
10
2.31273
20
0.706987
11
2.31213
21
0.71
0
LINE
8
BLACK
6
CONTINUOUS
10
2.31213
20
0.71
11
2.31213
21
0.77
0
LINE
8
BLACK
6
CONTINUOUS
10
2.31213
20
0.77
11
2.31273
21
0.773013
0
LINE
8
BLACK
6
CONTINUOUS
10
2.31273
20
0.773013
11
2.31443
21
0.775568
0
LINE
8
BLACK
6
CONTINUOUS
10
2.31443
20
0.775568
11
2.31699
21
0.777275
0
LINE
8
BLACK
6
CONTINUOUS
10
2.31699
20
0.777275
11
2.32
21
0.777874
0
LINE
8
BLACK
6
CONTINUOUS
10
2.32
20
0.777874
11
2.38
21
0.777874
0
LINE
8
BLACK
6
CONTINUOUS
10
2.38
20
0.777874
11
2.38301
21
0.777275
0
LINE
8
BLACK
6
CONTINUOUS
10
0.343013
20
0.992275
11
0.345568
21
0.990568
0
LINE
8
BLACK
6
CONTINUOUS
10
0.345568
20
0.990568
11
0.347275
21
0.988013
0
LINE
8
BLACK
6
CONTINUOUS
10
0.347275
20
0.988013
11
0.347874
21
0.985
0
LINE
8
BLACK
6
CONTINUOUS
10
0.347874
20
0.985
11
0.347874
21
0.925
0
LINE
8
BLACK
6
CONTINUOUS
10
0.347874
20
0.925
11
0.347275
21
0.921987
0
LINE
8
BLACK
6
CONTINUOUS
10
0.347275
20
0.921987
11
0.345568
21
0.919432
0
LINE
8
BLACK
6
CONTINUOUS
10
0.345568
20
0.919432
11
0.343013
21
0.917725
0
LINE
8
BLACK
6
CONTINUOUS
10
0.343013
20
0.917725
11
0.34
21
0.917126
0
LINE
8
BLACK
6
CONTINUOUS
10
0.34
20
0.917126
11
0.28
21
0.917126
0
LINE
8
BLACK
6
CONTINUOUS
10
0.28
20
0.917126
11
0.276987
21
0.917725
0
LINE
8
BLACK
6
CONTINUOUS
10
0.276987
20
0.917725
11
0.274432
21
0.919432
0
LINE
8
BLACK
6
CONTINUOUS
10
0.274432
20
0.919432
11
0.272725
21
0.921987
0
LINE
8
BLACK
6
CONTINUOUS
10
0.272725
20
0.921987
11
0.272126
21
0.925
0
LINE
8
BLACK
6
CONTINUOUS
10
0.272126
20
0.925
11
0.272126
21
0.985
0
LINE
8
BLACK
6
CONTINUOUS
10
0.272126
20
0.985
11
0.272725
21
0.988013
0
LINE
8
BLACK
6
CONTINUOUS
10
0.272725
20
0.988013
11
0.274432
21
0.990568
0
LINE
8
BLACK
6
CONTINUOUS
10
0.274432
20
0.990568
11
0.276987
21
0.992275
0
LINE
8
BLACK
6
CONTINUOUS
10
0.276987
20
0.992275
11
0.28
21
0.992874
0
LINE
8
BLACK
6
CONTINUOUS
10
0.28
20
0.992874
11
0.34
21
0.992874
0
LINE
8
BLACK
6
CONTINUOUS
10
0.34
20
0.992874
11
0.343013
21
0.992275
0
LINE
8
BLACK
6
CONTINUOUS
10
0.443013
20
0.992275
11
0.445568
21
0.990568
0
LINE
8
BLACK
6
CONTINUOUS
10
0.445568
20
0.990568
11
0.447275
21
0.988013
0
LINE
8
BLACK
6
CONTINUOUS
10
0.447275
20
0.988013
11
0.447874
21
0.985
0
LINE
8
BLACK
6
CONTINUOUS
10
0.447874
20
0.985
11
0.447874
21
0.925
0
LINE
8
BLACK
6
CONTINUOUS
10
0.447874
20
0.925
11
0.447275
21
0.921987
0
LINE
8
BLACK
6
CONTINUOUS
10
0.447275
20
0.921987
11
0.445568
21
0.919432
0
LINE
8
BLACK
6
CONTINUOUS
10
0.445568
20
0.919432
11
0.443013
21
0.917725
0
LINE
8
BLACK
6
CONTINUOUS
10
0.443013
20
0.917725
11
0.44
21
0.917126
0
LINE
8
BLACK
6
CONTINUOUS
10
0.44
20
0.917126
11
0.38
21
0.917126
0
LINE
8
BLACK
6
CONTINUOUS
10
0.38
20
0.917126
11
0.376987
21
0.917725
0
LINE
8
BLACK
6
CONTINUOUS
10
0.376987
20
0.917725
11
0.374432
21
0.919432
0
LINE
8
BLACK
6
CONTINUOUS
10
0.374432
20
0.919432
11
0.372725
21
0.921987
0
LINE
8
BLACK
6
CONTINUOUS
10
0.372725
20
0.921987
11
0.372126
21
0.925
0
LINE
8
BLACK
6
CONTINUOUS
10
0.372126
20
0.925
11
0.372126
21
0.985
0
LINE
8
BLACK
6
CONTINUOUS
10
0.372126
20
0.985
11
0.372725
21
0.988013
0
LINE
8
BLACK
6
CONTINUOUS
10
0.372725
20
0.988013
11
0.374432
21
0.990568
0
LINE
8
BLACK
6
CONTINUOUS
10
0.374432
20
0.990568
11
0.376987
21
0.992275
0
LINE
8
BLACK
6
CONTINUOUS
10
0.376987
20
0.992275
11
0.38
21
0.992874
0
LINE
8
BLACK
6
CONTINUOUS
10
0.38
20
0.992874
11
0.44
21
0.992874
0
LINE
8
BLACK
6
CONTINUOUS
10
0.44
20
0.992874
11
0.443013
21
0.992275
0
LINE
8
BLACK
6
CONTINUOUS
10
0.343013
20
1.09227
11
0.345568
21
1.09057
0
LINE
8
BLACK
6
CONTINUOUS
10
0.345568
20
1.09057
11
0.347275
21
1.08801
0
LINE
8
BLACK
6
CONTINUOUS
10
0.347275
20
1.08801
11
0.347874
21
1.085
0
LINE
8
BLACK
6
CONTINUOUS
10
0.347874
20
1.085
11
0.347874
21
1.025
0
LINE
8
BLACK
6
CONTINUOUS
10
0.347874
20
1.025
11
0.347275
21
1.02199
0
LINE
8
BLACK
6
CONTINUOUS
10
0.347275
20
1.02199
11
0.345568
21
1.01943
0
LINE
8
BLACK
6
CONTINUOUS
10
0.345568
20
1.01943
11
0.343013
21
1.01773
0
LINE
8
BLACK
6
CONTINUOUS
10
0.343013
20
1.01773
11
0.34
21
1.01713
0
LINE
8
BLACK
6
CONTINUOUS
10
0.34
20
1.01713
11
0.28
21
1.01713
0
LINE
8
BLACK
6
CONTINUOUS
10
0.28
20
1.01713
11
0.276987
21
1.01773
0
LINE
8
BLACK
6
CONTINUOUS
10
0.276987
20
1.01773
11
0.274432
21
1.01943
0
LINE
8
BLACK
6
CONTINUOUS
10
0.274432
20
1.01943
11
0.272725
21
1.02199
0
LINE
8
BLACK
6
CONTINUOUS
10
0.272725
20
1.02199
11
0.272126
21
1.025
0
LINE
8
BLACK
6
CONTINUOUS
10
0.272126
20
1.025
11
0.272126
21
1.085
0
LINE
8
BLACK
6
CONTINUOUS
10
0.272126
20
1.085
11
0.272725
21
1.08801
0
LINE
8
BLACK
6
CONTINUOUS
10
0.272725
20
1.08801
11
0.274432
21
1.09057
0
LINE
8
BLACK
6
CONTINUOUS
10
0.274432
20
1.09057
11
0.276987
21
1.09227
0
LINE
8
BLACK
6
CONTINUOUS
10
0.276987
20
1.09227
11
0.28
21
1.09287
0
LINE
8
BLACK
6
CONTINUOUS
10
0.28
20
1.09287
11
0.34
21
1.09287
0
LINE
8
BLACK
6
CONTINUOUS
10
0.34
20
1.09287
11
0.343013
21
1.09227
0
LINE
8
BLACK
6
CONTINUOUS
10
0.443013
20
1.09227
11
0.445568
21
1.09057
0
LINE
8
BLACK
6
CONTINUOUS
10
0.445568
20
1.09057
11
0.447275
21
1.08801
0
LINE
8
BLACK
6
CONTINUOUS
10
0.447275
20
1.08801
11
0.447874
21
1.085
0
LINE
8
BLACK
6
CONTINUOUS
10
0.447874
20
1.085
11
0.447874
21
1.025
0
LINE
8
BLACK
6
CONTINUOUS
10
0.447874
20
1.025
11
0.447275
21
1.02199
0
LINE
8
BLACK
6
CONTINUOUS
10
0.447275
20
1.02199
11
0.445568
21
1.01943
0
LINE
8
BLACK
6
CONTINUOUS
10
0.445568
20
1.01943
11
0.443013
21
1.01773
0
LINE
8
BLACK
6
CONTINUOUS
10
0.443013
20
1.01773
11
0.44
21
1.01713
0
LINE
8
BLACK
6
CONTINUOUS
10
0.44
20
1.01713
11
0.38
21
1.01713
0
LINE
8
BLACK
6
CONTINUOUS
10
0.38
20
1.01713
11
0.376987
21
1.01773
0
LINE
8
BLACK
6
CONTINUOUS
10
0.376987
20
1.01773
11
0.374432
21
1.01943
0
LINE
8
BLACK
6
CONTINUOUS
10
0.374432
20
1.01943
11
0.372725
21
1.02199
0
LINE
8
BLACK
6
CONTINUOUS
10
0.372725
20
1.02199
11
0.372126
21
1.025
0
LINE
8
BLACK
6
CONTINUOUS
10
0.372126
20
1.025
11
0.372126
21
1.085
0
LINE
8
BLACK
6
CONTINUOUS
10
0.372126
20
1.085
11
0.372725
21
1.08801
0
LINE
8
BLACK
6
CONTINUOUS
10
0.372725
20
1.08801
11
0.374432
21
1.09057
0
LINE
8
BLACK
6
CONTINUOUS
10
0.374432
20
1.09057
11
0.376987
21
1.09227
0
LINE
8
BLACK
6
CONTINUOUS
10
0.376987
20
1.09227
11
0.38
21
1.09287
0
LINE
8
BLACK
6
CONTINUOUS
10
0.38
20
1.09287
11
0.44
21
1.09287
0
LINE
8
BLACK
6
CONTINUOUS
10
0.44
20
1.09287
11
0.443013
21
1.09227
0
LINE
8
BLACK
6
CONTINUOUS
10
2.25906
20
1.18137
11
2.26784
21
1.17902
0
LINE
8
BLACK
6
CONTINUOUS
10
2.26784
20
1.17902
11
2.27608
21
1.17518
0
LINE
8
BLACK
6
CONTINUOUS
10
2.27608
20
1.17518
11
2.28353
21
1.16996
0
LINE
8
BLACK
6
CONTINUOUS
10
2.28353
20
1.16996
11
2.28996
21
1.16353
0
LINE
8
BLACK
6
CONTINUOUS
10
2.28996
20
1.16353
11
2.29518
21
1.15608
0
LINE
8
BLACK
6
CONTINUOUS
10
2.29518
20
1.15608
11
2.29902
21
1.14784
0
LINE
8
BLACK
6
CONTINUOUS
10
2.29902
20
1.14784
11
2.30137
21
1.13906
0
LINE
8
BLACK
6
CONTINUOUS
10
2.30137
20
1.13906
11
2.30217
21
1.13
0
LINE
8
BLACK
6
CONTINUOUS
10
2.30217
20
1.13
11
2.30137
21
1.12094
0
LINE
8
BLACK
6
CONTINUOUS
10
2.30137
20
1.12094
11
2.29902
21
1.11216
0
LINE
8
BLACK
6
CONTINUOUS
10
2.29902
20
1.11216
11
2.29518
21
1.10392
0
LINE
8
BLACK
6
CONTINUOUS
10
2.29518
20
1.10392
11
2.28996
21
1.09647
0
LINE
8
BLACK
6
CONTINUOUS
10
2.28996
20
1.09647
11
2.28353
21
1.09004
0
LINE
8
BLACK
6
CONTINUOUS
10
2.28353
20
1.09004
11
2.27608
21
1.08482
0
LINE
8
BLACK
6
CONTINUOUS
10
2.27608
20
1.08482
11
2.26784
21
1.08098
0
LINE
8
BLACK
6
CONTINUOUS
10
2.26784
20
1.08098
11
2.25906
21
1.07863
0
LINE
8
BLACK
6
CONTINUOUS
10
2.25906
20
1.07863
11
2.25
21
1.07783
0
LINE
8
BLACK
6
CONTINUOUS
10
2.25
20
1.07783
11
2.24094
21
1.07863
0
LINE
8
BLACK
6
CONTINUOUS
10
2.24094
20
1.07863
11
2.23216
21
1.08098
0
LINE
8
BLACK
6
CONTINUOUS
10
2.23216
20
1.08098
11
2.22392
21
1.08482
0
LINE
8
BLACK
6
CONTINUOUS
10
2.22392
20
1.08482
11
2.21647
21
1.09004
0
LINE
8
BLACK
6
CONTINUOUS
10
2.21647
20
1.09004
11
2.21004
21
1.09647
0
LINE
8
BLACK
6
CONTINUOUS
10
2.21004
20
1.09647
11
2.20482
21
1.10392
0
LINE
8
BLACK
6
CONTINUOUS
10
2.20482
20
1.10392
11
2.20098
21
1.11216
0
LINE
8
BLACK
6
CONTINUOUS
10
2.20098
20
1.11216
11
2.19863
21
1.12094
0
LINE
8
BLACK
6
CONTINUOUS
10
2.19863
20
1.12094
11
2.19783
21
1.13
0
LINE
8
BLACK
6
CONTINUOUS
10
2.19783
20
1.13
11
2.19863
21
1.13906
0
LINE
8
BLACK
6
CONTINUOUS
10
2.19863
20
1.13906
11
2.20098
21
1.14784
0
LINE
8
BLACK
6
CONTINUOUS
10
2.20098
20
1.14784
11
2.20482
21
1.15608
0
LINE
8
BLACK
6
CONTINUOUS
10
2.20482
20
1.15608
11
2.21004
21
1.16353
0
LINE
8
BLACK
6
CONTINUOUS
10
2.21004
20
1.16353
11
2.21647
21
1.16996
0
LINE
8
BLACK
6
CONTINUOUS
10
2.21647
20
1.16996
11
2.22392
21
1.17518
0
LINE
8
BLACK
6
CONTINUOUS
10
2.22392
20
1.17518
11
2.23216
21
1.17902
0
LINE
8
BLACK
6
CONTINUOUS
10
2.23216
20
1.17902
11
2.24094
21
1.18137
0
LINE
8
BLACK
6
CONTINUOUS
10
2.24094
20
1.18137
11
2.25
21
1.18217
0
LINE
8
BLACK
6
CONTINUOUS
10
2.25
20
1.18217
11
2.25906
21
1.18137
0
LINE
8
BLACK
6
CONTINUOUS
10
2.45906
20
1.18137
11
2.46784
21
1.17902
0
LINE
8
BLACK
6
CONTINUOUS
10
2.46784
20
1.17902
11
2.47608
21
1.17518
0
LINE
8
BLACK
6
CONTINUOUS
10
2.47608
20
1.17518
11
2.48353
21
1.16996
0
LINE
8
BLACK
6
CONTINUOUS
10
2.48353
20
1.16996
11
2.48996
21
1.16353
0
LINE
8
BLACK
6
CONTINUOUS
10
2.48996
20
1.16353
11
2.49518
21
1.15608
0
LINE
8
BLACK
6
CONTINUOUS
10
2.49518
20
1.15608
11
2.49902
21
1.14784
0
LINE
8
BLACK
6
CONTINUOUS
10
2.49902
20
1.14784
11
2.50137
21
1.13906
0
LINE
8
BLACK
6
CONTINUOUS
10
2.50137
20
1.13906
11
2.50217
21
1.13
0
LINE
8
BLACK
6
CONTINUOUS
10
2.50217
20
1.13
11
2.50137
21
1.12094
0
LINE
8
BLACK
6
CONTINUOUS
10
2.50137
20
1.12094
11
2.49902
21
1.11216
0
LINE
8
BLACK
6
CONTINUOUS
10
2.49902
20
1.11216
11
2.49518
21
1.10392
0
LINE
8
BLACK
6
CONTINUOUS
10
2.49518
20
1.10392
11
2.48996
21
1.09647
0
LINE
8
BLACK
6
CONTINUOUS
10
2.48996
20
1.09647
11
2.48353
21
1.09004
0
LINE
8
BLACK
6
CONTINUOUS
10
2.48353
20
1.09004
11
2.47608
21
1.08482
0
LINE
8
BLACK
6
CONTINUOUS
10
2.47608
20
1.08482
11
2.46784
21
1.08098
0
LINE
8
BLACK
6
CONTINUOUS
10
2.46784
20
1.08098
11
2.45906
21
1.07863
0
LINE
8
BLACK
6
CONTINUOUS
10
2.45906
20
1.07863
11
2.45
21
1.07783
0
LINE
8
BLACK
6
CONTINUOUS
10
2.45
20
1.07783
11
2.44094
21
1.07863
0
LINE
8
BLACK
6
CONTINUOUS
10
2.44094
20
1.07863
11
2.43216
21
1.08098
0
LINE
8
BLACK
6
CONTINUOUS
10
2.43216
20
1.08098
11
2.42392
21
1.08482
0
LINE
8
BLACK
6
CONTINUOUS
10
2.42392
20
1.08482
11
2.41647
21
1.09004
0
LINE
8
BLACK
6
CONTINUOUS
10
2.41647
20
1.09004
11
2.41004
21
1.09647
0
LINE
8
BLACK
6
CONTINUOUS
10
2.41004
20
1.09647
11
2.40482
21
1.10392
0
LINE
8
BLACK
6
CONTINUOUS
10
2.40482
20
1.10392
11
2.40098
21
1.11216
0
LINE
8
BLACK
6
CONTINUOUS
10
2.40098
20
1.11216
11
2.39863
21
1.12094
0
LINE
8
BLACK
6
CONTINUOUS
10
2.39863
20
1.12094
11
2.39783
21
1.13
0
LINE
8
BLACK
6
CONTINUOUS
10
2.39783
20
1.13
11
2.39863
21
1.13906
0
LINE
8
BLACK
6
CONTINUOUS
10
2.39863
20
1.13906
11
2.40098
21
1.14784
0
LINE
8
BLACK
6
CONTINUOUS
10
2.40098
20
1.14784
11
2.40482
21
1.15608
0
LINE
8
BLACK
6
CONTINUOUS
10
2.40482
20
1.15608
11
2.41004
21
1.16353
0
LINE
8
BLACK
6
CONTINUOUS
10
2.41004
20
1.16353
11
2.41647
21
1.16996
0
LINE
8
BLACK
6
CONTINUOUS
10
2.41647
20
1.16996
11
2.42392
21
1.17518
0
LINE
8
BLACK
6
CONTINUOUS
10
2.42392
20
1.17518
11
2.43216
21
1.17902
0
LINE
8
BLACK
6
CONTINUOUS
10
2.43216
20
1.17902
11
2.44094
21
1.18137
0
LINE
8
BLACK
6
CONTINUOUS
10
2.44094
20
1.18137
11
2.45
21
1.18217
0
LINE
8
BLACK
6
CONTINUOUS
10
2.45
20
1.18217
11
2.45906
21
1.18137
0
LINE
8
BLACK
6
CONTINUOUS
10
0.343013
20
1.19227
11
0.345568
21
1.19057
0
LINE
8
BLACK
6
CONTINUOUS
10
0.345568
20
1.19057
11
0.347275
21
1.18801
0
LINE
8
BLACK
6
CONTINUOUS
10
0.347275
20
1.18801
11
0.347874
21
1.185
0
LINE
8
BLACK
6
CONTINUOUS
10
0.347874
20
1.185
11
0.347874
21
1.125
0
LINE
8
BLACK
6
CONTINUOUS
10
0.347874
20
1.125
11
0.347275
21
1.12199
0
LINE
8
BLACK
6
CONTINUOUS
10
0.347275
20
1.12199
11
0.345568
21
1.11943
0
LINE
8
BLACK
6
CONTINUOUS
10
0.345568
20
1.11943
11
0.343013
21
1.11773
0
LINE
8
BLACK
6
CONTINUOUS
10
0.343013
20
1.11773
11
0.34
21
1.11713
0
LINE
8
BLACK
6
CONTINUOUS
10
0.34
20
1.11713
11
0.28
21
1.11713
0
LINE
8
BLACK
6
CONTINUOUS
10
0.28
20
1.11713
11
0.276987
21
1.11773
0
LINE
8
BLACK
6
CONTINUOUS
10
0.276987
20
1.11773
11
0.274432
21
1.11943
0
LINE
8
BLACK
6
CONTINUOUS
10
0.274432
20
1.11943
11
0.272725
21
1.12199
0
LINE
8
BLACK
6
CONTINUOUS
10
0.272725
20
1.12199
11
0.272126
21
1.125
0
LINE
8
BLACK
6
CONTINUOUS
10
0.272126
20
1.125
11
0.272126
21
1.185
0
LINE
8
BLACK
6
CONTINUOUS
10
0.272126
20
1.185
11
0.272725
21
1.18801
0
LINE
8
BLACK
6
CONTINUOUS
10
0.272725
20
1.18801
11
0.274432
21
1.19057
0
LINE
8
BLACK
6
CONTINUOUS
10
0.274432
20
1.19057
11
0.276987
21
1.19227
0
LINE
8
BLACK
6
CONTINUOUS
10
0.276987
20
1.19227
11
0.28
21
1.19287
0
LINE
8
BLACK
6
CONTINUOUS
10
0.28
20
1.19287
11
0.34
21
1.19287
0
LINE
8
BLACK
6
CONTINUOUS
10
0.34
20
1.19287
11
0.343013
21
1.19227
0
LINE
8
BLACK
6
CONTINUOUS
10
0.443013
20
1.19227
11
0.445568
21
1.19057
0
LINE
8
BLACK
6
CONTINUOUS
10
0.445568
20
1.19057
11
0.447275
21
1.18801
0
LINE
8
BLACK
6
CONTINUOUS
10
0.447275
20
1.18801
11
0.447874
21
1.185
0
LINE
8
BLACK
6
CONTINUOUS
10
0.447874
20
1.185
11
0.447874
21
1.125
0
LINE
8
BLACK
6
CONTINUOUS
10
0.447874
20
1.125
11
0.447275
21
1.12199
0
LINE
8
BLACK
6
CONTINUOUS
10
0.447275
20
1.12199
11
0.445568
21
1.11943
0
LINE
8
BLACK
6
CONTINUOUS
10
0.445568
20
1.11943
11
0.443013
21
1.11773
0
LINE
8
BLACK
6
CONTINUOUS
10
0.443013
20
1.11773
11
0.44
21
1.11713
0
LINE
8
BLACK
6
CONTINUOUS
10
0.44
20
1.11713
11
0.38
21
1.11713
0
LINE
8
BLACK
6
CONTINUOUS
10
0.38
20
1.11713
11
0.376987
21
1.11773
0
LINE
8
BLACK
6
CONTINUOUS
10
0.376987
20
1.11773
11
0.374432
21
1.11943
0
LINE
8
BLACK
6
CONTINUOUS
10
0.374432
20
1.11943
11
0.372725
21
1.12199
0
LINE
8
BLACK
6
CONTINUOUS
10
0.372725
20
1.12199
11
0.372126
21
1.125
0
LINE
8
BLACK
6
CONTINUOUS
10
0.372126
20
1.125
11
0.372126
21
1.185
0
LINE
8
BLACK
6
CONTINUOUS
10
0.372126
20
1.185
11
0.372725
21
1.18801
0
LINE
8
BLACK
6
CONTINUOUS
10
0.372725
20
1.18801
11
0.374432
21
1.19057
0
LINE
8
BLACK
6
CONTINUOUS
10
0.374432
20
1.19057
11
0.376987
21
1.19227
0
LINE
8
BLACK
6
CONTINUOUS
10
0.376987
20
1.19227
11
0.38
21
1.19287
0
LINE
8
BLACK
6
CONTINUOUS
10
0.38
20
1.19287
11
0.44
21
1.19287
0
LINE
8
BLACK
6
CONTINUOUS
10
0.44
20
1.19287
11
0.443013
21
1.19227
0
LINE
8
BLACK
6
CONTINUOUS
10
2.35837
20
1.2775
11
2.3665
21
1.27532
0
LINE
8
BLACK
6
CONTINUOUS
10
2.3665
20
1.27532
11
2.37411
21
1.27177
0
LINE
8
BLACK
6
CONTINUOUS
10
2.37411
20
1.27177
11
2.381
21
1.26695
0
LINE
8
BLACK
6
CONTINUOUS
10
2.381
20
1.26695
11
2.38695
21
1.261
0
LINE
8
BLACK
6
CONTINUOUS
10
2.38695
20
1.261
11
2.39177
21
1.25411
0
LINE
8
BLACK
6
CONTINUOUS
10
2.39177
20
1.25411
11
2.39532
21
1.2465
0
LINE
8
BLACK
6
CONTINUOUS
10
2.39532
20
1.2465
11
2.3975
21
1.23837
0
LINE
8
BLACK
6
CONTINUOUS
10
2.3975
20
1.23837
11
2.39823
21
1.23
0
LINE
8
BLACK
6
CONTINUOUS
10
2.39823
20
1.23
11
2.3975
21
1.22163
0
LINE
8
BLACK
6
CONTINUOUS
10
2.3975
20
1.22163
11
2.39532
21
1.2135
0
LINE
8
BLACK
6
CONTINUOUS
10
2.39532
20
1.2135
11
2.39177
21
1.20589
0
LINE
8
BLACK
6
CONTINUOUS
10
2.39177
20
1.20589
11
2.38695
21
1.199
0
LINE
8
BLACK
6
CONTINUOUS
10
2.38695
20
1.199
11
2.381
21
1.19305
0
LINE
8
BLACK
6
CONTINUOUS
10
2.381
20
1.19305
11
2.37411
21
1.18823
0
LINE
8
BLACK
6
CONTINUOUS
10
2.37411
20
1.18823
11
2.3665
21
1.18468
0
LINE
8
BLACK
6
CONTINUOUS
10
2.3665
20
1.18468
11
2.35837
21
1.1825
0
LINE
8
BLACK
6
CONTINUOUS
10
2.35837
20
1.1825
11
2.35
21
1.18177
0
LINE
8
BLACK
6
CONTINUOUS
10
2.35
20
1.18177
11
2.34163
21
1.1825
0
LINE
8
BLACK
6
CONTINUOUS
10
2.34163
20
1.1825
11
2.3335
21
1.18468
0
LINE
8
BLACK
6
CONTINUOUS
10
2.3335
20
1.18468
11
2.32589
21
1.18823
0
LINE
8
BLACK
6
CONTINUOUS
10
2.32589
20
1.18823
11
2.319
21
1.19305
0
LINE
8
BLACK
6
CONTINUOUS
10
2.319
20
1.19305
11
2.31305
21
1.199
0
LINE
8
BLACK
6
CONTINUOUS
10
2.31305
20
1.199
11
2.30823
21
1.20589
0
LINE
8
BLACK
6
CONTINUOUS
10
2.30823
20
1.20589
11
2.30468
21
1.2135
0
LINE
8
BLACK
6
CONTINUOUS
10
2.30468
20
1.2135
11
2.3025
21
1.22163
0
LINE
8
BLACK
6
CONTINUOUS
10
2.3025
20
1.22163
11
2.30177
21
1.23
0
LINE
8
BLACK
6
CONTINUOUS
10
2.30177
20
1.23
11
2.3025
21
1.23837
0
LINE
8
BLACK
6
CONTINUOUS
10
2.3025
20
1.23837
11
2.30468
21
1.2465
0
LINE
8
BLACK
6
CONTINUOUS
10
2.30468
20
1.2465
11
2.30823
21
1.25411
0
LINE
8
BLACK
6
CONTINUOUS
10
2.30823
20
1.25411
11
2.31305
21
1.261
0
LINE
8
BLACK
6
CONTINUOUS
10
2.31305
20
1.261
11
2.319
21
1.26695
0
LINE
8
BLACK
6
CONTINUOUS
10
2.319
20
1.26695
11
2.32589
21
1.27177
0
LINE
8
BLACK
6
CONTINUOUS
10
2.32589
20
1.27177
11
2.3335
21
1.27532
0
LINE
8
BLACK
6
CONTINUOUS
10
2.3335
20
1.27532
11
2.34163
21
1.2775
0
LINE
8
BLACK
6
CONTINUOUS
10
2.34163
20
1.2775
11
2.35
21
1.27823
0
LINE
8
BLACK
6
CONTINUOUS
10
2.35
20
1.27823
11
2.35837
21
1.2775
0
LINE
8
BLACK
6
CONTINUOUS
10
0.343013
20
1.29227
11
0.345568
21
1.29057
0
LINE
8
BLACK
6
CONTINUOUS
10
0.345568
20
1.29057
11
0.347275
21
1.28801
0
LINE
8
BLACK
6
CONTINUOUS
10
0.347275
20
1.28801
11
0.347874
21
1.285
0
LINE
8
BLACK
6
CONTINUOUS
10
0.347874
20
1.285
11
0.347874
21
1.225
0
LINE
8
BLACK
6
CONTINUOUS
10
0.347874
20
1.225
11
0.347275
21
1.22199
0
LINE
8
BLACK
6
CONTINUOUS
10
0.347275
20
1.22199
11
0.345568
21
1.21943
0
LINE
8
BLACK
6
CONTINUOUS
10
0.345568
20
1.21943
11
0.343013
21
1.21773
0
LINE
8
BLACK
6
CONTINUOUS
10
0.343013
20
1.21773
11
0.34
21
1.21713
0
LINE
8
BLACK
6
CONTINUOUS
10
0.34
20
1.21713
11
0.28
21
1.21713
0
LINE
8
BLACK
6
CONTINUOUS
10
0.28
20
1.21713
11
0.276987
21
1.21773
0
LINE
8
BLACK
6
CONTINUOUS
10
0.276987
20
1.21773
11
0.274432
21
1.21943
0
LINE
8
BLACK
6
CONTINUOUS
10
0.274432
20
1.21943
11
0.272725
21
1.22199
0
LINE
8
BLACK
6
CONTINUOUS
10
0.272725
20
1.22199
11
0.272126
21
1.225
0
LINE
8
BLACK
6
CONTINUOUS
10
0.272126
20
1.225
11
0.272126
21
1.285
0
LINE
8
BLACK
6
CONTINUOUS
10
0.272126
20
1.285
11
0.272725
21
1.28801
0
LINE
8
BLACK
6
CONTINUOUS
10
0.272725
20
1.28801
11
0.274432
21
1.29057
0
LINE
8
BLACK
6
CONTINUOUS
10
0.274432
20
1.29057
11
0.276987
21
1.29227
0
LINE
8
BLACK
6
CONTINUOUS
10
0.276987
20
1.29227
11
0.28
21
1.29287
0
LINE
8
BLACK
6
CONTINUOUS
10
0.28
20
1.29287
11
0.34
21
1.29287
0
LINE
8
BLACK
6
CONTINUOUS
10
0.34
20
1.29287
11
0.343013
21
1.29227
0
LINE
8
BLACK
6
CONTINUOUS
10
0.443013
20
1.29227
11
0.445568
21
1.29057
0
LINE
8
BLACK
6
CONTINUOUS
10
0.445568
20
1.29057
11
0.447275
21
1.28801
0
LINE
8
BLACK
6
CONTINUOUS
10
0.447275
20
1.28801
11
0.447874
21
1.285
0
LINE
8
BLACK
6
CONTINUOUS
10
0.447874
20
1.285
11
0.447874
21
1.225
0
LINE
8
BLACK
6
CONTINUOUS
10
0.447874
20
1.225
11
0.447275
21
1.22199
0
LINE
8
BLACK
6
CONTINUOUS
10
0.447275
20
1.22199
11
0.445568
21
1.21943
0
LINE
8
BLACK
6
CONTINUOUS
10
0.445568
20
1.21943
11
0.443013
21
1.21773
0
LINE
8
BLACK
6
CONTINUOUS
10
0.443013
20
1.21773
11
0.44
21
1.21713
0
LINE
8
BLACK
6
CONTINUOUS
10
0.44
20
1.21713
11
0.38
21
1.21713
0
LINE
8
BLACK
6
CONTINUOUS
10
0.38
20
1.21713
11
0.376987
21
1.21773
0
LINE
8
BLACK
6
CONTINUOUS
10
0.376987
20
1.21773
11
0.374432
21
1.21943
0
LINE
8
BLACK
6
CONTINUOUS
10
0.374432
20
1.21943
11
0.372725
21
1.22199
0
LINE
8
BLACK
6
CONTINUOUS
10
0.372725
20
1.22199
11
0.372126
21
1.225
0
LINE
8
BLACK
6
CONTINUOUS
10
0.372126
20
1.225
11
0.372126
21
1.285
0
LINE
8
BLACK
6
CONTINUOUS
10
0.372126
20
1.285
11
0.372725
21
1.28801
0
LINE
8
BLACK
6
CONTINUOUS
10
0.372725
20
1.28801
11
0.374432
21
1.29057
0
LINE
8
BLACK
6
CONTINUOUS
10
0.374432
20
1.29057
11
0.376987
21
1.29227
0
LINE
8
BLACK
6
CONTINUOUS
10
0.376987
20
1.29227
11
0.38
21
1.29287
0
LINE
8
BLACK
6
CONTINUOUS
10
0.38
20
1.29287
11
0.44
21
1.29287
0
LINE
8
BLACK
6
CONTINUOUS
10
0.44
20
1.29287
11
0.443013
21
1.29227
0
LINE
8
BLACK
6
CONTINUOUS
10
2.25906
20
1.38137
11
2.26784
21
1.37902
0
LINE
8
BLACK
6
CONTINUOUS
10
2.26784
20
1.37902
11
2.27608
21
1.37518
0
LINE
8
BLACK
6
CONTINUOUS
10
2.27608
20
1.37518
11
2.28353
21
1.36996
0
LINE
8
BLACK
6
CONTINUOUS
10
2.28353
20
1.36996
11
2.28996
21
1.36353
0
LINE
8
BLACK
6
CONTINUOUS
10
2.28996
20
1.36353
11
2.29518
21
1.35608
0
LINE
8
BLACK
6
CONTINUOUS
10
2.29518
20
1.35608
11
2.29902
21
1.34784
0
LINE
8
BLACK
6
CONTINUOUS
10
2.29902
20
1.34784
11
2.30137
21
1.33906
0
LINE
8
BLACK
6
CONTINUOUS
10
2.30137
20
1.33906
11
2.30217
21
1.33
0
LINE
8
BLACK
6
CONTINUOUS
10
2.30217
20
1.33
11
2.30137
21
1.32094
0
LINE
8
BLACK
6
CONTINUOUS
10
2.30137
20
1.32094
11
2.29902
21
1.31216
0
LINE
8
BLACK
6
CONTINUOUS
10
2.29902
20
1.31216
11
2.29518
21
1.30392
0
LINE
8
BLACK
6
CONTINUOUS
10
2.29518
20
1.30392
11
2.28996
21
1.29647
0
LINE
8
BLACK
6
CONTINUOUS
10
2.28996
20
1.29647
11
2.28353
21
1.29004
0
LINE
8
BLACK
6
CONTINUOUS
10
2.28353
20
1.29004
11
2.27608
21
1.28482
0
LINE
8
BLACK
6
CONTINUOUS
10
2.27608
20
1.28482
11
2.26784
21
1.28098
0
LINE
8
BLACK
6
CONTINUOUS
10
2.26784
20
1.28098
11
2.25906
21
1.27863
0
LINE
8
BLACK
6
CONTINUOUS
10
2.25906
20
1.27863
11
2.25
21
1.27783
0
LINE
8
BLACK
6
CONTINUOUS
10
2.25
20
1.27783
11
2.24094
21
1.27863
0
LINE
8
BLACK
6
CONTINUOUS
10
2.24094
20
1.27863
11
2.23216
21
1.28098
0
LINE
8
BLACK
6
CONTINUOUS
10
2.23216
20
1.28098
11
2.22392
21
1.28482
0
LINE
8
BLACK
6
CONTINUOUS
10
2.22392
20
1.28482
11
2.21647
21
1.29004
0
LINE
8
BLACK
6
CONTINUOUS
10
2.21647
20
1.29004
11
2.21004
21
1.29647
0
LINE
8
BLACK
6
CONTINUOUS
10
2.21004
20
1.29647
11
2.20482
21
1.30392
0
LINE
8
BLACK
6
CONTINUOUS
10
2.20482
20
1.30392
11
2.20098
21
1.31216
0
LINE
8
BLACK
6
CONTINUOUS
10
2.20098
20
1.31216
11
2.19863
21
1.32094
0
LINE
8
BLACK
6
CONTINUOUS
10
2.19863
20
1.32094
11
2.19783
21
1.33
0
LINE
8
BLACK
6
CONTINUOUS
10
2.19783
20
1.33
11
2.19863
21
1.33906
0
LINE
8
BLACK
6
CONTINUOUS
10
2.19863
20
1.33906
11
2.20098
21
1.34784
0
LINE
8
BLACK
6
CONTINUOUS
10
2.20098
20
1.34784
11
2.20482
21
1.35608
0
LINE
8
BLACK
6
CONTINUOUS
10
2.20482
20
1.35608
11
2.21004
21
1.36353
0
LINE
8
BLACK
6
CONTINUOUS
10
2.21004
20
1.36353
11
2.21647
21
1.36996
0
LINE
8
BLACK
6
CONTINUOUS
10
2.21647
20
1.36996
11
2.22392
21
1.37518
0
LINE
8
BLACK
6
CONTINUOUS
10
2.22392
20
1.37518
11
2.23216
21
1.37902
0
LINE
8
BLACK
6
CONTINUOUS
10
2.23216
20
1.37902
11
2.24094
21
1.38137
0
LINE
8
BLACK
6
CONTINUOUS
10
2.24094
20
1.38137
11
2.25
21
1.38217
0
LINE
8
BLACK
6
CONTINUOUS
10
2.25
20
1.38217
11
2.25906
21
1.38137
0
LINE
8
BLACK
6
CONTINUOUS
10
2.45906
20
1.38137
11
2.46784
21
1.37902
0
LINE
8
BLACK
6
CONTINUOUS
10
2.46784
20
1.37902
11
2.47608
21
1.37518
0
LINE
8
BLACK
6
CONTINUOUS
10
2.47608
20
1.37518
11
2.48353
21
1.36996
0
LINE
8
BLACK
6
CONTINUOUS
10
2.48353
20
1.36996
11
2.48996
21
1.36353
0
LINE
8
BLACK
6
CONTINUOUS
10
2.48996
20
1.36353
11
2.49518
21
1.35608
0
LINE
8
BLACK
6
CONTINUOUS
10
2.49518
20
1.35608
11
2.49902
21
1.34784
0
LINE
8
BLACK
6
CONTINUOUS
10
2.49902
20
1.34784
11
2.50137
21
1.33906
0
LINE
8
BLACK
6
CONTINUOUS
10
2.50137
20
1.33906
11
2.50217
21
1.33
0
LINE
8
BLACK
6
CONTINUOUS
10
2.50217
20
1.33
11
2.50137
21
1.32094
0
LINE
8
BLACK
6
CONTINUOUS
10
2.50137
20
1.32094
11
2.49902
21
1.31216
0
LINE
8
BLACK
6
CONTINUOUS
10
2.49902
20
1.31216
11
2.49518
21
1.30392
0
LINE
8
BLACK
6
CONTINUOUS
10
2.49518
20
1.30392
11
2.48996
21
1.29647
0
LINE
8
BLACK
6
CONTINUOUS
10
2.48996
20
1.29647
11
2.48353
21
1.29004
0
LINE
8
BLACK
6
CONTINUOUS
10
2.48353
20
1.29004
11
2.47608
21
1.28482
0
LINE
8
BLACK
6
CONTINUOUS
10
2.47608
20
1.28482
11
2.46784
21
1.28098
0
LINE
8
BLACK
6
CONTINUOUS
10
2.46784
20
1.28098
11
2.45906
21
1.27863
0
LINE
8
BLACK
6
CONTINUOUS
10
2.45906
20
1.27863
11
2.45
21
1.27783
0
LINE
8
BLACK
6
CONTINUOUS
10
2.45
20
1.27783
11
2.44094
21
1.27863
0
LINE
8
BLACK
6
CONTINUOUS
10
2.44094
20
1.27863
11
2.43216
21
1.28098
0
LINE
8
BLACK
6
CONTINUOUS
10
2.43216
20
1.28098
11
2.42392
21
1.28482
0
LINE
8
BLACK
6
CONTINUOUS
10
2.42392
20
1.28482
11
2.41647
21
1.29004
0
LINE
8
BLACK
6
CONTINUOUS
10
2.41647
20
1.29004
11
2.41004
21
1.29647
0
LINE
8
BLACK
6
CONTINUOUS
10
2.41004
20
1.29647
11
2.40482
21
1.30392
0
LINE
8
BLACK
6
CONTINUOUS
10
2.40482
20
1.30392
11
2.40098
21
1.31216
0
LINE
8
BLACK
6
CONTINUOUS
10
2.40098
20
1.31216
11
2.39863
21
1.32094
0
LINE
8
BLACK
6
CONTINUOUS
10
2.39863
20
1.32094
11
2.39783
21
1.33
0
LINE
8
BLACK
6
CONTINUOUS
10
2.39783
20
1.33
11
2.39863
21
1.33906
0
LINE
8
BLACK
6
CONTINUOUS
10
2.39863
20
1.33906
11
2.40098
21
1.34784
0
LINE
8
BLACK
6
CONTINUOUS
10
2.40098
20
1.34784
11
2.40482
21
1.35608
0
LINE
8
BLACK
6
CONTINUOUS
10
2.40482
20
1.35608
11
2.41004
21
1.36353
0
LINE
8
BLACK
6
CONTINUOUS
10
2.41004
20
1.36353
11
2.41647
21
1.36996
0
LINE
8
BLACK
6
CONTINUOUS
10
2.41647
20
1.36996
11
2.42392
21
1.37518
0
LINE
8
BLACK
6
CONTINUOUS
10
2.42392
20
1.37518
11
2.43216
21
1.37902
0
LINE
8
BLACK
6
CONTINUOUS
10
2.43216
20
1.37902
11
2.44094
21
1.38137
0
LINE
8
BLACK
6
CONTINUOUS
10
2.44094
20
1.38137
11
2.45
21
1.38217
0
LINE
8
BLACK
6
CONTINUOUS
10
2.45
20
1.38217
11
2.45906
21
1.38137
0
LINE
8
BLACK
6
CONTINUOUS
10
0.343013
20
1.39227
11
0.345568
21
1.39057
0
LINE
8
BLACK
6
CONTINUOUS
10
0.345568
20
1.39057
11
0.347275
21
1.38801
0
LINE
8
BLACK
6
CONTINUOUS
10
0.347275
20
1.38801
11
0.347874
21
1.385
0
LINE
8
BLACK
6
CONTINUOUS
10
0.347874
20
1.385
11
0.347874
21
1.325
0
LINE
8
BLACK
6
CONTINUOUS
10
0.347874
20
1.325
11
0.347275
21
1.32199
0
LINE
8
BLACK
6
CONTINUOUS
10
0.347275
20
1.32199
11
0.345568
21
1.31943
0
LINE
8
BLACK
6
CONTINUOUS
10
0.345568
20
1.31943
11
0.343013
21
1.31773
0
LINE
8
BLACK
6
CONTINUOUS
10
0.343013
20
1.31773
11
0.34
21
1.31713
0
LINE
8
BLACK
6
CONTINUOUS
10
0.34
20
1.31713
11
0.28
21
1.31713
0
LINE
8
BLACK
6
CONTINUOUS
10
0.28
20
1.31713
11
0.276987
21
1.31773
0
LINE
8
BLACK
6
CONTINUOUS
10
0.276987
20
1.31773
11
0.274432
21
1.31943
0
LINE
8
BLACK
6
CONTINUOUS
10
0.274432
20
1.31943
11
0.272725
21
1.32199
0
LINE
8
BLACK
6
CONTINUOUS
10
0.272725
20
1.32199
11
0.272126
21
1.325
0
LINE
8
BLACK
6
CONTINUOUS
10
0.272126
20
1.325
11
0.272126
21
1.385
0
LINE
8
BLACK
6
CONTINUOUS
10
0.272126
20
1.385
11
0.272725
21
1.38801
0
LINE
8
BLACK
6
CONTINUOUS
10
0.272725
20
1.38801
11
0.274432
21
1.39057
0
LINE
8
BLACK
6
CONTINUOUS
10
0.274432
20
1.39057
11
0.276987
21
1.39227
0
LINE
8
BLACK
6
CONTINUOUS
10
0.276987
20
1.39227
11
0.28
21
1.39287
0
LINE
8
BLACK
6
CONTINUOUS
10
0.28
20
1.39287
11
0.34
21
1.39287
0
LINE
8
BLACK
6
CONTINUOUS
10
0.34
20
1.39287
11
0.343013
21
1.39227
0
LINE
8
BLACK
6
CONTINUOUS
10
0.443013
20
1.39227
11
0.445568
21
1.39057
0
LINE
8
BLACK
6
CONTINUOUS
10
0.445568
20
1.39057
11
0.447275
21
1.38801
0
LINE
8
BLACK
6
CONTINUOUS
10
0.447275
20
1.38801
11
0.447874
21
1.385
0
LINE
8
BLACK
6
CONTINUOUS
10
0.447874
20
1.385
11
0.447874
21
1.325
0
LINE
8
BLACK
6
CONTINUOUS
10
0.447874
20
1.325
11
0.447275
21
1.32199
0
LINE
8
BLACK
6
CONTINUOUS
10
0.447275
20
1.32199
11
0.445568
21
1.31943
0
LINE
8
BLACK
6
CONTINUOUS
10
0.445568
20
1.31943
11
0.443013
21
1.31773
0
LINE
8
BLACK
6
CONTINUOUS
10
0.443013
20
1.31773
11
0.44
21
1.31713
0
LINE
8
BLACK
6
CONTINUOUS
10
0.44
20
1.31713
11
0.38
21
1.31713
0
LINE
8
BLACK
6
CONTINUOUS
10
0.38
20
1.31713
11
0.376987
21
1.31773
0
LINE
8
BLACK
6
CONTINUOUS
10
0.376987
20
1.31773
11
0.374432
21
1.31943
0
LINE
8
BLACK
6
CONTINUOUS
10
0.374432
20
1.31943
11
0.372725
21
1.32199
0
LINE
8
BLACK
6
CONTINUOUS
10
0.372725
20
1.32199
11
0.372126
21
1.325
0
LINE
8
BLACK
6
CONTINUOUS
10
0.372126
20
1.325
11
0.372126
21
1.385
0
LINE
8
BLACK
6
CONTINUOUS
10
0.372126
20
1.385
11
0.372725
21
1.38801
0
LINE
8
BLACK
6
CONTINUOUS
10
0.372725
20
1.38801
11
0.374432
21
1.39057
0
LINE
8
BLACK
6
CONTINUOUS
10
0.374432
20
1.39057
11
0.376987
21
1.39227
0
LINE
8
BLACK
6
CONTINUOUS
10
0.376987
20
1.39227
11
0.38
21
1.39287
0
LINE
8
BLACK
6
CONTINUOUS
10
0.38
20
1.39287
11
0.44
21
1.39287
0
LINE
8
BLACK
6
CONTINUOUS
10
0.44
20
1.39287
11
0.443013
21
1.39227
0
LINE
8
BLACK
6
CONTINUOUS
10
0.414106
20
1.72519
11
0.428034
21
1.72283
0
LINE
8
BLACK
6
CONTINUOUS
10
0.428034
20
1.72283
11
0.44161
21
1.71891
0
LINE
8
BLACK
6
CONTINUOUS
10
0.44161
20
1.71891
11
0.454663
21
1.71351
0
LINE
8
BLACK
6
CONTINUOUS
10
0.454663
20
1.71351
11
0.467028
21
1.70667
0
LINE
8
BLACK
6
CONTINUOUS
10
0.467028
20
1.70667
11
0.47855
21
1.6985
0
LINE
8
BLACK
6
CONTINUOUS
10
0.47855
20
1.6985
11
0.489084
21
1.68908
0
LINE
8
BLACK
6
CONTINUOUS
10
0.489084
20
1.68908
11
0.498498
21
1.67855
0
LINE
8
BLACK
6
CONTINUOUS
10
0.498498
20
1.67855
11
0.506674
21
1.66703
0
LINE
8
BLACK
6
CONTINUOUS
10
0.506674
20
1.66703
11
0.513508
21
1.65466
0
LINE
8
BLACK
6
CONTINUOUS
10
0.513508
20
1.65466
11
0.518914
21
1.64161
0
LINE
8
BLACK
6
CONTINUOUS
10
0.518914
20
1.64161
11
0.522826
21
1.62803
0
LINE
8
BLACK
6
CONTINUOUS
10
0.522826
20
1.62803
11
0.525192
21
1.61411
0
LINE
8
BLACK
6
CONTINUOUS
10
0.525192
20
1.61411
11
0.525984
21
1.6
0
LINE
8
BLACK
6
CONTINUOUS
10
0.525984
20
1.6
11
0.525192
21
1.58589
0
LINE
8
BLACK
6
CONTINUOUS
10
0.525192
20
1.58589
11
0.522826
21
1.57197
0
LINE
8
BLACK
6
CONTINUOUS
10
0.522826
20
1.57197
11
0.518914
21
1.55839
0
LINE
8
BLACK
6
CONTINUOUS
10
0.518914
20
1.55839
11
0.513508
21
1.54534
0
LINE
8
BLACK
6
CONTINUOUS
10
0.513508
20
1.54534
11
0.506674
21
1.53297
0
LINE
8
BLACK
6
CONTINUOUS
10
0.506674
20
1.53297
11
0.498498
21
1.52145
0
LINE
8
BLACK
6
CONTINUOUS
10
0.498498
20
1.52145
11
0.489084
21
1.51092
0
LINE
8
BLACK
6
CONTINUOUS
10
0.489084
20
1.51092
11
0.47855
21
1.5015
0
LINE
8
BLACK
6
CONTINUOUS
10
0.47855
20
1.5015
11
0.467028
21
1.49333
0
LINE
8
BLACK
6
CONTINUOUS
10
0.467028
20
1.49333
11
0.454663
21
1.48649
0
LINE
8
BLACK
6
CONTINUOUS
10
0.454663
20
1.48649
11
0.44161
21
1.48109
0
LINE
8
BLACK
6
CONTINUOUS
10
0.44161
20
1.48109
11
0.428034
21
1.47717
0
LINE
8
BLACK
6
CONTINUOUS
10
0.428034
20
1.47717
11
0.414106
21
1.47481
0
LINE
8
BLACK
6
CONTINUOUS
10
0.414106
20
1.47481
11
0.4
21
1.47402
0
LINE
8
BLACK
6
CONTINUOUS
10
0.4
20
1.47402
11
0.385894
21
1.47481
0
LINE
8
BLACK
6
CONTINUOUS
10
0.385894
20
1.47481
11
0.371966
21
1.47717
0
LINE
8
BLACK
6
CONTINUOUS
10
0.371966
20
1.47717
11
0.35839
21
1.48109
0
LINE
8
BLACK
6
CONTINUOUS
10
0.35839
20
1.48109
11
0.345337
21
1.48649
0
LINE
8
BLACK
6
CONTINUOUS
10
0.345337
20
1.48649
11
0.332972
21
1.49333
0
LINE
8
BLACK
6
CONTINUOUS
10
0.332972
20
1.49333
11
0.32145
21
1.5015
0
LINE
8
BLACK
6
CONTINUOUS
10
0.32145
20
1.5015
11
0.310916
21
1.51092
0
LINE
8
BLACK
6
CONTINUOUS
10
0.310916
20
1.51092
11
0.301502
21
1.52145
0
LINE
8
BLACK
6
CONTINUOUS
10
0.301502
20
1.52145
11
0.293326
21
1.53297
0
LINE
8
BLACK
6
CONTINUOUS
10
0.293326
20
1.53297
11
0.286492
21
1.54534
0
LINE
8
BLACK
6
CONTINUOUS
10
0.286492
20
1.54534
11
0.281086
21
1.55839
0
LINE
8
BLACK
6
CONTINUOUS
10
0.281086
20
1.55839
11
0.277174
21
1.57197
0
LINE
8
BLACK
6
CONTINUOUS
10
0.277174
20
1.57197
11
0.274808
21
1.58589
0
LINE
8
BLACK
6
CONTINUOUS
10
0.274808
20
1.58589
11
0.274016
21
1.6
0
LINE
8
BLACK
6
CONTINUOUS
10
0.274016
20
1.6
11
0.274808
21
1.61411
0
LINE
8
BLACK
6
CONTINUOUS
10
0.274808
20
1.61411
11
0.277174
21
1.62803
0
LINE
8
BLACK
6
CONTINUOUS
10
0.277174
20
1.62803
11
0.281086
21
1.64161
0
LINE
8
BLACK
6
CONTINUOUS
10
0.281086
20
1.64161
11
0.286492
21
1.65466
0
LINE
8
BLACK
6
CONTINUOUS
10
0.286492
20
1.65466
11
0.293326
21
1.66703
0
LINE
8
BLACK
6
CONTINUOUS
10
0.293326
20
1.66703
11
0.301502
21
1.67855
0
LINE
8
BLACK
6
CONTINUOUS
10
0.301502
20
1.67855
11
0.310916
21
1.68908
0
LINE
8
BLACK
6
CONTINUOUS
10
0.310916
20
1.68908
11
0.32145
21
1.6985
0
LINE
8
BLACK
6
CONTINUOUS
10
0.32145
20
1.6985
11
0.332972
21
1.70667
0
LINE
8
BLACK
6
CONTINUOUS
10
0.332972
20
1.70667
11
0.345337
21
1.71351
0
LINE
8
BLACK
6
CONTINUOUS
10
0.345337
20
1.71351
11
0.35839
21
1.71891
0
LINE
8
BLACK
6
CONTINUOUS
10
0.35839
20
1.71891
11
0.371966
21
1.72283
0
LINE
8
BLACK
6
CONTINUOUS
10
0.371966
20
1.72283
11
0.385894
21
1.72519
0
LINE
8
BLACK
6
CONTINUOUS
10
0.385894
20
1.72519
11
0.4
21
1.72598
0
LINE
8
BLACK
6
CONTINUOUS
10
0.4
20
1.72598
11
0.414106
21
1.72519
0
LINE
8
BLACK
6
CONTINUOUS
10
2.41411
20
1.72519
11
2.42803
21
1.72283
0
LINE
8
BLACK
6
CONTINUOUS
10
2.42803
20
1.72283
11
2.44161
21
1.71891
0
LINE
8
BLACK
6
CONTINUOUS
10
2.44161
20
1.71891
11
2.45466
21
1.71351
0
LINE
8
BLACK
6
CONTINUOUS
10
2.45466
20
1.71351
11
2.46703
21
1.70667
0
LINE
8
BLACK
6
CONTINUOUS
10
2.46703
20
1.70667
11
2.47855
21
1.6985
0
LINE
8
BLACK
6
CONTINUOUS
10
2.47855
20
1.6985
11
2.48908
21
1.68908
0
LINE
8
BLACK
6
CONTINUOUS
10
2.48908
20
1.68908
11
2.4985
21
1.67855
0
LINE
8
BLACK
6
CONTINUOUS
10
2.4985
20
1.67855
11
2.50667
21
1.66703
0
LINE
8
BLACK
6
CONTINUOUS
10
2.50667
20
1.66703
11
2.51351
21
1.65466
0
LINE
8
BLACK
6
CONTINUOUS
10
2.51351
20
1.65466
11
2.51891
21
1.64161
0
LINE
8
BLACK
6
CONTINUOUS
10
2.51891
20
1.64161
11
2.52283
21
1.62803
0
LINE
8
BLACK
6
CONTINUOUS
10
2.52283
20
1.62803
11
2.52519
21
1.61411
0
LINE
8
BLACK
6
CONTINUOUS
10
2.52519
20
1.61411
11
2.52598
21
1.6
0
LINE
8
BLACK
6
CONTINUOUS
10
2.52598
20
1.6
11
2.52519
21
1.58589
0
LINE
8
BLACK
6
CONTINUOUS
10
2.52519
20
1.58589
11
2.52283
21
1.57197
0
LINE
8
BLACK
6
CONTINUOUS
10
2.52283
20
1.57197
11
2.51891
21
1.55839
0
LINE
8
BLACK
6
CONTINUOUS
10
2.51891
20
1.55839
11
2.51351
21
1.54534
0
LINE
8
BLACK
6
CONTINUOUS
10
2.51351
20
1.54534
11
2.50667
21
1.53297
0
LINE
8
BLACK
6
CONTINUOUS
10
2.50667
20
1.53297
11
2.4985
21
1.52145
0
LINE
8
BLACK
6
CONTINUOUS
10
2.4985
20
1.52145
11
2.48908
21
1.51092
0
LINE
8
BLACK
6
CONTINUOUS
10
2.48908
20
1.51092
11
2.47855
21
1.5015
0
LINE
8
BLACK
6
CONTINUOUS
10
2.47855
20
1.5015
11
2.46703
21
1.49333
0
LINE
8
BLACK
6
CONTINUOUS
10
2.46703
20
1.49333
11
2.45466
21
1.48649
0
LINE
8
BLACK
6
CONTINUOUS
10
2.45466
20
1.48649
11
2.44161
21
1.48109
0
LINE
8
BLACK
6
CONTINUOUS
10
2.44161
20
1.48109
11
2.42803
21
1.47717
0
LINE
8
BLACK
6
CONTINUOUS
10
2.42803
20
1.47717
11
2.41411
21
1.47481
0
LINE
8
BLACK
6
CONTINUOUS
10
2.41411
20
1.47481
11
2.4
21
1.47402
0
LINE
8
BLACK
6
CONTINUOUS
10
2.4
20
1.47402
11
2.38589
21
1.47481
0
LINE
8
BLACK
6
CONTINUOUS
10
2.38589
20
1.47481
11
2.37197
21
1.47717
0
LINE
8
BLACK
6
CONTINUOUS
10
2.37197
20
1.47717
11
2.35839
21
1.48109
0
LINE
8
BLACK
6
CONTINUOUS
10
2.35839
20
1.48109
11
2.34534
21
1.48649
0
LINE
8
BLACK
6
CONTINUOUS
10
2.34534
20
1.48649
11
2.33297
21
1.49333
0
LINE
8
BLACK
6
CONTINUOUS
10
2.33297
20
1.49333
11
2.32145
21
1.5015
0
LINE
8
BLACK
6
CONTINUOUS
10
2.32145
20
1.5015
11
2.31092
21
1.51092
0
LINE
8
BLACK
6
CONTINUOUS
10
2.31092
20
1.51092
11
2.3015
21
1.52145
0
LINE
8
BLACK
6
CONTINUOUS
10
2.3015
20
1.52145
11
2.29333
21
1.53297
0
LINE
8
BLACK
6
CONTINUOUS
10
2.29333
20
1.53297
11
2.28649
21
1.54534
0
LINE
8
BLACK
6
CONTINUOUS
10
2.28649
20
1.54534
11
2.28109
21
1.55839
0
LINE
8
BLACK
6
CONTINUOUS
10
2.28109
20
1.55839
11
2.27717
21
1.57197
0
LINE
8
BLACK
6
CONTINUOUS
10
2.27717
20
1.57197
11
2.27481
21
1.58589
0
LINE
8
BLACK
6
CONTINUOUS
10
2.27481
20
1.58589
11
2.27402
21
1.6
0
LINE
8
BLACK
6
CONTINUOUS
10
2.27402
20
1.6
11
2.27481
21
1.61411
0
LINE
8
BLACK
6
CONTINUOUS
10
2.27481
20
1.61411
11
2.27717
21
1.62803
0
LINE
8
BLACK
6
CONTINUOUS
10
2.27717
20
1.62803
11
2.28109
21
1.64161
0
LINE
8
BLACK
6
CONTINUOUS
10
2.28109
20
1.64161
11
2.28649
21
1.65466
0
LINE
8
BLACK
6
CONTINUOUS
10
2.28649
20
1.65466
11
2.29333
21
1.66703
0
LINE
8
BLACK
6
CONTINUOUS
10
2.29333
20
1.66703
11
2.3015
21
1.67855
0
LINE
8
BLACK
6
CONTINUOUS
10
2.3015
20
1.67855
11
2.31092
21
1.68908
0
LINE
8
BLACK
6
CONTINUOUS
10
2.31092
20
1.68908
11
2.32145
21
1.6985
0
LINE
8
BLACK
6
CONTINUOUS
10
2.32145
20
1.6985
11
2.33297
21
1.70667
0
LINE
8
BLACK
6
CONTINUOUS
10
2.33297
20
1.70667
11
2.34534
21
1.71351
0
LINE
8
BLACK
6
CONTINUOUS
10
2.34534
20
1.71351
11
2.35839
21
1.71891
0
LINE
8
BLACK
6
CONTINUOUS
10
2.35839
20
1.71891
11
2.37197
21
1.72283
0
LINE
8
BLACK
6
CONTINUOUS
10
2.37197
20
1.72283
11
2.38589
21
1.72519
0
LINE
8
BLACK
6
CONTINUOUS
10
2.38589
20
1.72519
11
2.4
21
1.72598
0
LINE
8
BLACK
6
CONTINUOUS
10
2.4
20
1.72598
11
2.41411
21
1.72519
  0
ENDSEC
  0
EOF
