  0
SECTION
  2
HEADER
  9
$ANGBASE
  50
0.0
  9
$ANGDIR
  70
1
  9
$MEASUREMENT
  70
0
  0
ENDSEC
  0
SECTION
  2
TABLES
  0
TABLE
  2
LTYPE
  70
4
  0
LTYPE
  5
40F
  2
CONTINUOUS
  70
0
  3
Solid line
  72
65
  73
0
  40
0.0
  0
LTYPE
  5
410
  2
DASHDOT
 70
0
  3
Dash Dot ____ _ ____ _
 72
65
 73
4
 40
2.0
 49
1.25
 49
-0.25
 49
0.25
 49
-0.25
  0
LTYPE
  5
411
  2
DASHED
 70
0
  3
Dashed __ __ __ __ __
 72
65
 73
2
 40
0.75
 49
0.5
 49
-0.25
  0
LTYPE
  5
43B
  2
DOTTED
 70
0
  3
Dotted .  .  .  .
 72
65
 73
2
 40
0.2
 49
0.0
 49
-0.2
  0
ENDTAB
  0
TABLE
  2
STYLE
  70
4
  0
STYLE
  2
KICAD
  70
0
  40
0
  41
1
  42
1
  50
0
  71
0
  3
isocp.shx
  0
STYLE
  2
KICADB
  70
0
  40
0
  41
1
  42
1
  50
0
  71
0
  3
isocp.shx
  0
STYLE
  2
KICADI
  70
0
  40
0
  41
1
  42
1
  50
15
  71
0
  3
isocp.shx
  0
STYLE
  2
KICADBI
  70
0
  40
0
  41
1
  42
1
  50
15
  71
0
  3
isocp.shx
  0
ENDTAB
  0
TABLE
  2
LAYER
  70
1
  0
LAYER
  2
BLACK
  70
0
  62
7
  6
CONTINUOUS
  0
ENDTAB
  0
ENDSEC
  0
SECTION
  2
ENTITIES
0
LINE
8
BLACK
6
CONTINUOUS
10
0.191325
20
1.79277
11
0.192872
21
1.79148
0
LINE
8
BLACK
6
CONTINUOUS
10
0.192872
20
1.79148
11
0.193223
21
1.78949
0
LINE
8
BLACK
6
CONTINUOUS
10
0.193223
20
1.78949
11
0.192213
21
1.78774
0
LINE
8
BLACK
6
CONTINUOUS
10
0.192213
20
1.78774
11
0.190315
21
1.78705
0
LINE
8
BLACK
6
CONTINUOUS
10
0.190315
20
1.78705
11
0.084866
21
1.78705
0
LINE
8
BLACK
6
CONTINUOUS
10
0.084866
20
1.78705
11
0.105707
21
1.74701
0
LINE
8
BLACK
6
CONTINUOUS
10
0.105707
20
1.74701
11
0.106015
21
1.74603
0
LINE
8
BLACK
6
CONTINUOUS
10
0.106015
20
1.74603
11
0.105578
21
1.74406
0
LINE
8
BLACK
6
CONTINUOUS
10
0.105578
20
1.74406
11
0.103975
21
1.74283
0
LINE
8
BLACK
6
CONTINUOUS
10
0.103975
20
1.74283
11
0.101957
21
1.74292
0
LINE
8
BLACK
6
CONTINUOUS
10
0.101957
20
1.74292
11
0.100468
21
1.74429
0
LINE
8
BLACK
6
CONTINUOUS
10
0.100468
20
1.74429
11
0.0829528
21
1.77793
0
LINE
8
BLACK
6
CONTINUOUS
10
0.0829528
20
1.77793
11
0.0829528
21
0.222067
0
LINE
8
BLACK
6
CONTINUOUS
10
0.0829528
20
0.222067
11
0.100468
21
0.255714
0
LINE
8
BLACK
6
CONTINUOUS
10
0.100468
20
0.255714
11
0.101093
21
0.256528
0
LINE
8
BLACK
6
CONTINUOUS
10
0.101093
20
0.256528
11
0.102959
21
0.2573
0
LINE
8
BLACK
6
CONTINUOUS
10
0.102959
20
0.2573
11
0.104885
21
0.256693
0
LINE
8
BLACK
6
CONTINUOUS
10
0.104885
20
0.256693
11
0.10597
21
0.25499
0
LINE
8
BLACK
6
CONTINUOUS
10
0.10597
20
0.25499
11
0.105707
21
0.252987
0
LINE
8
BLACK
6
CONTINUOUS
10
0.105707
20
0.252987
11
0.084866
21
0.212953
0
LINE
8
BLACK
6
CONTINUOUS
10
0.084866
20
0.212953
11
0.190315
21
0.212953
0
LINE
8
BLACK
6
CONTINUOUS
10
0.190315
20
0.212953
11
0.191325
21
0.212775
0
LINE
8
BLACK
6
CONTINUOUS
10
0.191325
20
0.212775
11
0.192872
21
0.211476
0
LINE
8
BLACK
6
CONTINUOUS
10
0.192872
20
0.211476
11
0.193223
21
0.209487
0
LINE
8
BLACK
6
CONTINUOUS
10
0.193223
20
0.209487
11
0.192213
21
0.207738
0
LINE
8
BLACK
6
CONTINUOUS
10
0.192213
20
0.207738
11
0.190315
21
0.207047
0
LINE
8
BLACK
6
CONTINUOUS
10
0.190315
20
0.207047
11
0.0569126
21
0.207047
0
LINE
8
BLACK
6
CONTINUOUS
10
0.0569126
20
0.207047
11
0.0559027
21
0.207225
0
LINE
8
BLACK
6
CONTINUOUS
10
0.0559027
20
0.207225
11
0.0543554
21
0.208524
0
LINE
8
BLACK
6
CONTINUOUS
10
0.0543554
20
0.208524
11
0.0540047
21
0.210513
0
LINE
8
BLACK
6
CONTINUOUS
10
0.0540047
20
0.210513
11
0.0550146
21
0.212262
0
LINE
8
BLACK
6
CONTINUOUS
10
0.0550146
20
0.212262
11
0.0569126
21
0.212953
0
LINE
8
BLACK
6
CONTINUOUS
10
0.0569126
20
0.212953
11
0.075134
21
0.212953
0
LINE
8
BLACK
6
CONTINUOUS
10
0.075134
20
0.212953
11
0.0542934
21
0.252987
0
LINE
8
BLACK
6
CONTINUOUS
10
0.0542934
20
0.252987
11
0.053985
21
0.253965
0
LINE
8
BLACK
6
CONTINUOUS
10
0.053985
20
0.253965
11
0.0544222
21
0.255937
0
LINE
8
BLACK
6
CONTINUOUS
10
0.0544222
20
0.255937
11
0.0560246
21
0.257167
0
LINE
8
BLACK
6
CONTINUOUS
10
0.0560246
20
0.257167
11
0.0580425
21
0.257079
0
LINE
8
BLACK
6
CONTINUOUS
10
0.0580425
20
0.257079
11
0.0595317
21
0.255714
0
LINE
8
BLACK
6
CONTINUOUS
10
0.0595317
20
0.255714
11
0.0770472
21
0.222067
0
LINE
8
BLACK
6
CONTINUOUS
10
0.0770472
20
0.222067
11
0.0770472
21
1.77793
0
LINE
8
BLACK
6
CONTINUOUS
10
0.0770472
20
1.77793
11
0.0595317
21
1.74429
0
LINE
8
BLACK
6
CONTINUOUS
10
0.0595317
20
1.74429
11
0.0589074
21
1.74347
0
LINE
8
BLACK
6
CONTINUOUS
10
0.0589074
20
1.74347
11
0.0570413
21
1.7427
0
LINE
8
BLACK
6
CONTINUOUS
10
0.0570413
20
1.7427
11
0.055115
21
1.74331
0
LINE
8
BLACK
6
CONTINUOUS
10
0.055115
20
1.74331
11
0.0540298
21
1.74501
0
LINE
8
BLACK
6
CONTINUOUS
10
0.0540298
20
1.74501
11
0.0542934
21
1.74701
0
LINE
8
BLACK
6
CONTINUOUS
10
0.0542934
20
1.74701
11
0.075134
21
1.78705
0
LINE
8
BLACK
6
CONTINUOUS
10
0.075134
20
1.78705
11
0.0569126
21
1.78705
0
LINE
8
BLACK
6
CONTINUOUS
10
0.0569126
20
1.78705
11
0.0559027
21
1.78723
0
LINE
8
BLACK
6
CONTINUOUS
10
0.0559027
20
1.78723
11
0.0543554
21
1.78852
0
LINE
8
BLACK
6
CONTINUOUS
10
0.0543554
20
1.78852
11
0.0540047
21
1.79051
0
LINE
8
BLACK
6
CONTINUOUS
10
0.0540047
20
1.79051
11
0.0550146
21
1.79226
0
LINE
8
BLACK
6
CONTINUOUS
10
0.0550146
20
1.79226
11
0.0569126
21
1.79295
0
LINE
8
BLACK
6
CONTINUOUS
10
0.0569126
20
1.79295
11
0.190315
21
1.79295
0
LINE
8
BLACK
6
CONTINUOUS
10
0.190315
20
1.79295
11
0.191325
21
1.79277
0
LINE
8
BLACK
6
CONTINUOUS
10
0.0548926
20
0.880038
11
0.0555834
21
0.87814
0
LINE
8
BLACK
6
CONTINUOUS
10
0.0555834
20
0.87814
11
0.0555834
21
0.855643
0
LINE
8
BLACK
6
CONTINUOUS
10
0.0555834
20
0.855643
11
0.0554054
21
0.854633
0
LINE
8
BLACK
6
CONTINUOUS
10
0.0554054
20
0.854633
11
0.054107
21
0.853086
0
LINE
8
BLACK
6
CONTINUOUS
10
0.054107
20
0.853086
11
0.0521179
21
0.852735
0
LINE
8
BLACK
6
CONTINUOUS
10
0.0521179
20
0.852735
11
0.0503687
21
0.853745
0
LINE
8
BLACK
6
CONTINUOUS
10
0.0503687
20
0.853745
11
0.0496779
21
0.855643
0
LINE
8
BLACK
6
CONTINUOUS
10
0.0496779
20
0.855643
11
0.0496779
21
0.863939
0
LINE
8
BLACK
6
CONTINUOUS
10
0.0496779
20
0.863939
11
0.0222639
21
0.863939
0
LINE
8
BLACK
6
CONTINUOUS
10
0.0222639
20
0.863939
11
0.0247223
21
0.861481
0
LINE
8
BLACK
6
CONTINUOUS
10
0.0247223
20
0.861481
11
0.0252287
21
0.860757
0
LINE
8
BLACK
6
CONTINUOUS
10
0.0252287
20
0.860757
11
0.0252754
21
0.860713
0
LINE
8
BLACK
6
CONTINUOUS
10
0.0252754
20
0.860713
11
0.0271502
21
0.856964
0
LINE
8
BLACK
6
CONTINUOUS
10
0.0271502
20
0.856964
11
0.0274426
21
0.855981
0
LINE
8
BLACK
6
CONTINUOUS
10
0.0274426
20
0.855981
11
0.0269733
21
0.854016
0
LINE
8
BLACK
6
CONTINUOUS
10
0.0269733
20
0.854016
11
0.025351
21
0.852813
0
LINE
8
BLACK
6
CONTINUOUS
10
0.025351
20
0.852813
11
0.0233348
21
0.852934
0
LINE
8
BLACK
6
CONTINUOUS
10
0.0233348
20
0.852934
11
0.0218681
21
0.854323
0
LINE
8
BLACK
6
CONTINUOUS
10
0.0218681
20
0.854323
11
0.0202077
21
0.857644
0
LINE
8
BLACK
6
CONTINUOUS
10
0.0202077
20
0.857644
11
0.0170037
21
0.860847
0
LINE
8
BLACK
6
CONTINUOUS
10
0.0170037
20
0.860847
11
0.0116227
21
0.864435
0
LINE
8
BLACK
6
CONTINUOUS
10
0.0116227
20
0.864435
11
0.0108812
21
0.865143
0
LINE
8
BLACK
6
CONTINUOUS
10
0.0108812
20
0.865143
11
0.0108335
21
0.865306
0
LINE
8
BLACK
6
CONTINUOUS
10
0.0108335
20
0.865306
11
0.0107034
21
0.865415
0
LINE
8
BLACK
6
CONTINUOUS
10
0.0107034
20
0.865415
11
0.0105546
21
0.866259
0
LINE
8
BLACK
6
CONTINUOUS
10
0.0105546
20
0.866259
11
0.0103139
21
0.867082
0
LINE
8
BLACK
6
CONTINUOUS
10
0.0103139
20
0.867082
11
0.0103821
21
0.867237
0
LINE
8
BLACK
6
CONTINUOUS
10
0.0103821
20
0.867237
11
0.0103527
21
0.867404
0
LINE
8
BLACK
6
CONTINUOUS
10
0.0103527
20
0.867404
11
0.0107811
21
0.868146
0
LINE
8
BLACK
6
CONTINUOUS
10
0.0107811
20
0.868146
11
0.0111255
21
0.868931
0
LINE
8
BLACK
6
CONTINUOUS
10
0.0111255
20
0.868931
11
0.0112777
21
0.869007
0
LINE
8
BLACK
6
CONTINUOUS
10
0.0112777
20
0.869007
11
0.0113626
21
0.869154
0
LINE
8
BLACK
6
CONTINUOUS
10
0.0113626
20
0.869154
11
0.0121678
21
0.869447
0
LINE
8
BLACK
6
CONTINUOUS
10
0.0121678
20
0.869447
11
0.0129361
21
0.869826
0
LINE
8
BLACK
6
CONTINUOUS
10
0.0129361
20
0.869826
11
0.013101
21
0.869786
0
LINE
8
BLACK
6
CONTINUOUS
10
0.013101
20
0.869786
11
0.0132606
21
0.869844
0
LINE
8
BLACK
6
CONTINUOUS
10
0.0132606
20
0.869844
11
0.0496779
21
0.869844
0
LINE
8
BLACK
6
CONTINUOUS
10
0.0496779
20
0.869844
11
0.0496779
21
0.87814
0
LINE
8
BLACK
6
CONTINUOUS
10
0.0496779
20
0.87814
11
0.049856
21
0.87915
0
LINE
8
BLACK
6
CONTINUOUS
10
0.049856
20
0.87915
11
0.0511543
21
0.880697
0
LINE
8
BLACK
6
CONTINUOUS
10
0.0511543
20
0.880697
11
0.0531434
21
0.881048
0
LINE
8
BLACK
6
CONTINUOUS
10
0.0531434
20
0.881048
11
0.0548926
21
0.880038
0
LINE
8
BLACK
6
CONTINUOUS
10
0.0461415
20
0.91841
11
0.0462767
21
0.918297
0
LINE
8
BLACK
6
CONTINUOUS
10
0.0462767
20
0.918297
11
0.0464521
21
0.918277
0
LINE
8
BLACK
6
CONTINUOUS
10
0.0464521
20
0.918277
11
0.0502016
21
0.916402
0
LINE
8
BLACK
6
CONTINUOUS
10
0.0502016
20
0.916402
11
0.0509106
21
0.915876
0
LINE
8
BLACK
6
CONTINUOUS
10
0.0509106
20
0.915876
11
0.050969
21
0.915849
0
LINE
8
BLACK
6
CONTINUOUS
10
0.050969
20
0.915849
11
0.0528438
21
0.913974
0
LINE
8
BLACK
6
CONTINUOUS
10
0.0528438
20
0.913974
11
0.0533502
21
0.913251
0
LINE
8
BLACK
6
CONTINUOUS
10
0.0533502
20
0.913251
11
0.0533969
21
0.913207
0
LINE
8
BLACK
6
CONTINUOUS
10
0.0533969
20
0.913207
11
0.0552717
21
0.909457
0
LINE
8
BLACK
6
CONTINUOUS
10
0.0552717
20
0.909457
11
0.0555641
21
0.908474
0
LINE
8
BLACK
6
CONTINUOUS
10
0.0555641
20
0.908474
11
0.055523
21
0.908302
0
LINE
8
BLACK
6
CONTINUOUS
10
0.055523
20
0.908302
11
0.0555834
21
0.908136
0
LINE
8
BLACK
6
CONTINUOUS
10
0.0555834
20
0.908136
11
0.0555834
21
0.898763
0
LINE
8
BLACK
6
CONTINUOUS
10
0.0555834
20
0.898763
11
0.0554054
21
0.897753
0
LINE
8
BLACK
6
CONTINUOUS
10
0.0554054
20
0.897753
11
0.0552919
21
0.897618
0
LINE
8
BLACK
6
CONTINUOUS
10
0.0552919
20
0.897618
11
0.0552717
21
0.897442
0
LINE
8
BLACK
6
CONTINUOUS
10
0.0552717
20
0.897442
11
0.0533969
21
0.893693
0
LINE
8
BLACK
6
CONTINUOUS
10
0.0533969
20
0.893693
11
0.0528709
21
0.892984
0
LINE
8
BLACK
6
CONTINUOUS
10
0.0528709
20
0.892984
11
0.0528438
21
0.892925
0
LINE
8
BLACK
6
CONTINUOUS
10
0.0528438
20
0.892925
11
0.050969
21
0.89105
0
LINE
8
BLACK
6
CONTINUOUS
10
0.050969
20
0.89105
11
0.0501289
21
0.890462
0
LINE
8
BLACK
6
CONTINUOUS
10
0.0501289
20
0.890462
11
0.0481169
21
0.890286
0
LINE
8
BLACK
6
CONTINUOUS
10
0.0481169
20
0.890286
11
0.0464623
21
0.891445
0
LINE
8
BLACK
6
CONTINUOUS
10
0.0464623
20
0.891445
11
0.0459396
21
0.893396
0
LINE
8
BLACK
6
CONTINUOUS
10
0.0459396
20
0.893396
11
0.0467932
21
0.895226
0
LINE
8
BLACK
6
CONTINUOUS
10
0.0467932
20
0.895226
11
0.0483292
21
0.896762
0
LINE
8
BLACK
6
CONTINUOUS
10
0.0483292
20
0.896762
11
0.0496779
21
0.89946
0
LINE
8
BLACK
6
CONTINUOUS
10
0.0496779
20
0.89946
11
0.0496779
21
0.907439
0
LINE
8
BLACK
6
CONTINUOUS
10
0.0496779
20
0.907439
11
0.0483292
21
0.910137
0
LINE
8
BLACK
6
CONTINUOUS
10
0.0483292
20
0.910137
11
0.047132
21
0.911334
0
LINE
8
BLACK
6
CONTINUOUS
10
0.047132
20
0.911334
11
0.0444345
21
0.912683
0
LINE
8
BLACK
6
CONTINUOUS
10
0.0444345
20
0.912683
11
0.0364548
21
0.912683
0
LINE
8
BLACK
6
CONTINUOUS
10
0.0364548
20
0.912683
11
0.0337573
21
0.911334
0
LINE
8
BLACK
6
CONTINUOUS
10
0.0337573
20
0.911334
11
0.0325602
21
0.910137
0
LINE
8
BLACK
6
CONTINUOUS
10
0.0325602
20
0.910137
11
0.0312115
21
0.907439
0
LINE
8
BLACK
6
CONTINUOUS
10
0.0312115
20
0.907439
11
0.0312115
21
0.89946
0
LINE
8
BLACK
6
CONTINUOUS
10
0.0312115
20
0.89946
11
0.0325602
21
0.896762
0
LINE
8
BLACK
6
CONTINUOUS
10
0.0325602
20
0.896762
11
0.0340961
21
0.895226
0
LINE
8
BLACK
6
CONTINUOUS
10
0.0340961
20
0.895226
11
0.0346843
21
0.894386
0
LINE
8
BLACK
6
CONTINUOUS
10
0.0346843
20
0.894386
11
0.034686
21
0.894367
0
LINE
8
BLACK
6
CONTINUOUS
10
0.034686
20
0.894367
11
0.0346996
21
0.894353
0
LINE
8
BLACK
6
CONTINUOUS
10
0.0346996
20
0.894353
11
0.0347739
21
0.893362
0
LINE
8
BLACK
6
CONTINUOUS
10
0.0347739
20
0.893362
11
0.0348604
21
0.892374
0
LINE
8
BLACK
6
CONTINUOUS
10
0.0348604
20
0.892374
11
0.0348492
21
0.892358
0
LINE
8
BLACK
6
CONTINUOUS
10
0.0348492
20
0.892358
11
0.0348507
21
0.892339
0
LINE
8
BLACK
6
CONTINUOUS
10
0.0348507
20
0.892339
11
0.0342707
21
0.891532
0
LINE
8
BLACK
6
CONTINUOUS
10
0.0342707
20
0.891532
11
0.0337019
21
0.89072
0
LINE
8
BLACK
6
CONTINUOUS
10
0.0337019
20
0.89072
11
0.033683
21
0.890715
0
LINE
8
BLACK
6
CONTINUOUS
10
0.033683
20
0.890715
11
0.0336717
21
0.890699
0
LINE
8
BLACK
6
CONTINUOUS
10
0.0336717
20
0.890699
11
0.0327095
21
0.890454
0
LINE
8
BLACK
6
CONTINUOUS
10
0.0327095
20
0.890454
11
0.0317509
21
0.890197
0
LINE
8
BLACK
6
CONTINUOUS
10
0.0317509
20
0.890197
11
0.0317333
21
0.890205
0
LINE
8
BLACK
6
CONTINUOUS
10
0.0317333
20
0.890205
11
0.0317144
21
0.8902
0
LINE
8
BLACK
6
CONTINUOUS
10
0.0317144
20
0.8902
11
0.0129668
21
0.892075
0
LINE
8
BLACK
6
CONTINUOUS
10
0.0129668
20
0.892075
11
0.0128164
21
0.892117
0
LINE
8
BLACK
6
CONTINUOUS
10
0.0128164
20
0.892117
11
0.0127478
21
0.892105
0
LINE
8
BLACK
6
CONTINUOUS
10
0.0127478
20
0.892105
11
0.0126418
21
0.892166
0
LINE
8
BLACK
6
CONTINUOUS
10
0.0126418
20
0.892166
11
0.0119796
21
0.892353
0
LINE
8
BLACK
6
CONTINUOUS
10
0.0119796
20
0.892353
11
0.0115417
21
0.892802
0
LINE
8
BLACK
6
CONTINUOUS
10
0.0115417
20
0.892802
11
0.0109987
21
0.893115
0
LINE
8
BLACK
6
CONTINUOUS
10
0.0109987
20
0.893115
11
0.0108575
21
0.893503
0
LINE
8
BLACK
6
CONTINUOUS
10
0.0108575
20
0.893503
11
0.0105692
21
0.893799
0
LINE
8
BLACK
6
CONTINUOUS
10
0.0105692
20
0.893799
11
0.0105223
21
0.894424
0
LINE
8
BLACK
6
CONTINUOUS
10
0.0105223
20
0.894424
11
0.0103078
21
0.895013
0
LINE
8
BLACK
6
CONTINUOUS
10
0.0103078
20
0.895013
11
0.0103078
21
0.913761
0
LINE
8
BLACK
6
CONTINUOUS
10
0.0103078
20
0.913761
11
0.0104859
21
0.914771
0
LINE
8
BLACK
6
CONTINUOUS
10
0.0104859
20
0.914771
11
0.0117842
21
0.916318
0
LINE
8
BLACK
6
CONTINUOUS
10
0.0117842
20
0.916318
11
0.0137733
21
0.916669
0
LINE
8
BLACK
6
CONTINUOUS
10
0.0137733
20
0.916669
11
0.0155225
21
0.915659
0
LINE
8
BLACK
6
CONTINUOUS
10
0.0155225
20
0.915659
11
0.0162133
21
0.913761
0
LINE
8
BLACK
6
CONTINUOUS
10
0.0162133
20
0.913761
11
0.0162133
21
0.897685
0
LINE
8
BLACK
6
CONTINUOUS
10
0.0162133
20
0.897685
11
0.0259846
21
0.896708
0
LINE
8
BLACK
6
CONTINUOUS
10
0.0259846
20
0.896708
11
0.0256177
21
0.897442
0
LINE
8
BLACK
6
CONTINUOUS
10
0.0256177
20
0.897442
11
0.0253253
21
0.898425
0
LINE
8
BLACK
6
CONTINUOUS
10
0.0253253
20
0.898425
11
0.0253663
21
0.898597
0
LINE
8
BLACK
6
CONTINUOUS
10
0.0253663
20
0.898597
11
0.0253059
21
0.898763
0
LINE
8
BLACK
6
CONTINUOUS
10
0.0253059
20
0.898763
11
0.0253059
21
0.908136
0
LINE
8
BLACK
6
CONTINUOUS
10
0.0253059
20
0.908136
11
0.025484
21
0.909146
0
LINE
8
BLACK
6
CONTINUOUS
10
0.025484
20
0.909146
11
0.0255975
21
0.909282
0
LINE
8
BLACK
6
CONTINUOUS
10
0.0255975
20
0.909282
11
0.0256177
21
0.909457
0
LINE
8
BLACK
6
CONTINUOUS
10
0.0256177
20
0.909457
11
0.0274924
21
0.913207
0
LINE
8
BLACK
6
CONTINUOUS
10
0.0274924
20
0.913207
11
0.0280183
21
0.913916
0
LINE
8
BLACK
6
CONTINUOUS
10
0.0280183
20
0.913916
11
0.0280456
21
0.913974
0
LINE
8
BLACK
6
CONTINUOUS
10
0.0280456
20
0.913974
11
0.0299203
21
0.915849
0
LINE
8
BLACK
6
CONTINUOUS
10
0.0299203
20
0.915849
11
0.0306434
21
0.916355
0
LINE
8
BLACK
6
CONTINUOUS
10
0.0306434
20
0.916355
11
0.0306877
21
0.916402
0
LINE
8
BLACK
6
CONTINUOUS
10
0.0306877
20
0.916402
11
0.0344372
21
0.918277
0
LINE
8
BLACK
6
CONTINUOUS
10
0.0344372
20
0.918277
11
0.0354202
21
0.918569
0
LINE
8
BLACK
6
CONTINUOUS
10
0.0354202
20
0.918569
11
0.0355919
21
0.918528
0
LINE
8
BLACK
6
CONTINUOUS
10
0.0355919
20
0.918528
11
0.0357578
21
0.918588
0
LINE
8
BLACK
6
CONTINUOUS
10
0.0357578
20
0.918588
11
0.0451316
21
0.918588
0
LINE
8
BLACK
6
CONTINUOUS
10
0.0451316
20
0.918588
11
0.0461415
21
0.91841
0
LINE
8
BLACK
6
CONTINUOUS
10
0.0236443
20
0.955906
11
0.0237796
21
0.955792
0
LINE
8
BLACK
6
CONTINUOUS
10
0.0237796
20
0.955792
11
0.0239549
21
0.955772
0
LINE
8
BLACK
6
CONTINUOUS
10
0.0239549
20
0.955772
11
0.0277044
21
0.953897
0
LINE
8
BLACK
6
CONTINUOUS
10
0.0277044
20
0.953897
11
0.0284135
21
0.953371
0
LINE
8
BLACK
6
CONTINUOUS
10
0.0284135
20
0.953371
11
0.0284719
21
0.953344
0
LINE
8
BLACK
6
CONTINUOUS
10
0.0284719
20
0.953344
11
0.0301335
21
0.951682
0
LINE
8
BLACK
6
CONTINUOUS
10
0.0301335
20
0.951682
11
0.0317951
21
0.953344
0
LINE
8
BLACK
6
CONTINUOUS
10
0.0317951
20
0.953344
11
0.0325181
21
0.95385
0
LINE
8
BLACK
6
CONTINUOUS
10
0.0325181
20
0.95385
11
0.0325625
21
0.953897
0
LINE
8
BLACK
6
CONTINUOUS
10
0.0325625
20
0.953897
11
0.036312
21
0.955772
0
LINE
8
BLACK
6
CONTINUOUS
10
0.036312
20
0.955772
11
0.0372949
21
0.956064
0
LINE
8
BLACK
6
CONTINUOUS
10
0.0372949
20
0.956064
11
0.0374666
21
0.956023
0
LINE
8
BLACK
6
CONTINUOUS
10
0.0374666
20
0.956023
11
0.0376325
21
0.956084
0
LINE
8
BLACK
6
CONTINUOUS
10
0.0376325
20
0.956084
11
0.0451316
21
0.956084
0
LINE
8
BLACK
6
CONTINUOUS
10
0.0451316
20
0.956084
11
0.0461415
21
0.955906
0
LINE
8
BLACK
6
CONTINUOUS
10
0.0461415
20
0.955906
11
0.0462767
21
0.955792
0
LINE
8
BLACK
6
CONTINUOUS
10
0.0462767
20
0.955792
11
0.0464521
21
0.955772
0
LINE
8
BLACK
6
CONTINUOUS
10
0.0464521
20
0.955772
11
0.0502016
21
0.953897
0
LINE
8
BLACK
6
CONTINUOUS
10
0.0502016
20
0.953897
11
0.0509106
21
0.953371
0
LINE
8
BLACK
6
CONTINUOUS
10
0.0509106
20
0.953371
11
0.050969
21
0.953344
0
LINE
8
BLACK
6
CONTINUOUS
10
0.050969
20
0.953344
11
0.0528438
21
0.951469
0
LINE
8
BLACK
6
CONTINUOUS
10
0.0528438
20
0.951469
11
0.0533502
21
0.950746
0
LINE
8
BLACK
6
CONTINUOUS
10
0.0533502
20
0.950746
11
0.0533969
21
0.950702
0
LINE
8
BLACK
6
CONTINUOUS
10
0.0533969
20
0.950702
11
0.0552717
21
0.946952
0
LINE
8
BLACK
6
CONTINUOUS
10
0.0552717
20
0.946952
11
0.0555641
21
0.945969
0
LINE
8
BLACK
6
CONTINUOUS
10
0.0555641
20
0.945969
11
0.055523
21
0.945798
0
LINE
8
BLACK
6
CONTINUOUS
10
0.055523
20
0.945798
11
0.0555834
21
0.945632
0
LINE
8
BLACK
6
CONTINUOUS
10
0.0555834
20
0.945632
11
0.0555834
21
0.938133
0
LINE
8
BLACK
6
CONTINUOUS
10
0.0555834
20
0.938133
11
0.0554054
21
0.937123
0
LINE
8
BLACK
6
CONTINUOUS
10
0.0554054
20
0.937123
11
0.0552919
21
0.936988
0
LINE
8
BLACK
6
CONTINUOUS
10
0.0552919
20
0.936988
11
0.0552717
21
0.936812
0
LINE
8
BLACK
6
CONTINUOUS
10
0.0552717
20
0.936812
11
0.0533969
21
0.933063
0
LINE
8
BLACK
6
CONTINUOUS
10
0.0533969
20
0.933063
11
0.0528709
21
0.932354
0
LINE
8
BLACK
6
CONTINUOUS
10
0.0528709
20
0.932354
11
0.0528438
21
0.932295
0
LINE
8
BLACK
6
CONTINUOUS
10
0.0528438
20
0.932295
11
0.050969
21
0.930421
0
LINE
8
BLACK
6
CONTINUOUS
10
0.050969
20
0.930421
11
0.0502459
21
0.929914
0
LINE
8
BLACK
6
CONTINUOUS
10
0.0502459
20
0.929914
11
0.0502016
21
0.929867
0
LINE
8
BLACK
6
CONTINUOUS
10
0.0502016
20
0.929867
11
0.0464521
21
0.927993
0
LINE
8
BLACK
6
CONTINUOUS
10
0.0464521
20
0.927993
11
0.0454691
21
0.9277
0
LINE
8
BLACK
6
CONTINUOUS
10
0.0454691
20
0.9277
11
0.0452974
21
0.927741
0
LINE
8
BLACK
6
CONTINUOUS
10
0.0452974
20
0.927741
11
0.0451316
21
0.927681
0
LINE
8
BLACK
6
CONTINUOUS
10
0.0451316
20
0.927681
11
0.0376325
21
0.927681
0
LINE
8
BLACK
6
CONTINUOUS
10
0.0376325
20
0.927681
11
0.0366226
21
0.927859
0
LINE
8
BLACK
6
CONTINUOUS
10
0.0366226
20
0.927859
11
0.0364873
21
0.927973
0
LINE
8
BLACK
6
CONTINUOUS
10
0.0364873
20
0.927973
11
0.036312
21
0.927993
0
LINE
8
BLACK
6
CONTINUOUS
10
0.036312
20
0.927993
11
0.0325625
21
0.929867
0
LINE
8
BLACK
6
CONTINUOUS
10
0.0325625
20
0.929867
11
0.0318534
21
0.930393
0
LINE
8
BLACK
6
CONTINUOUS
10
0.0318534
20
0.930393
11
0.0317951
21
0.930421
0
LINE
8
BLACK
6
CONTINUOUS
10
0.0317951
20
0.930421
11
0.0301335
21
0.932082
0
LINE
8
BLACK
6
CONTINUOUS
10
0.0301335
20
0.932082
11
0.0284719
21
0.930421
0
LINE
8
BLACK
6
CONTINUOUS
10
0.0284719
20
0.930421
11
0.0277487
21
0.929914
0
LINE
8
BLACK
6
CONTINUOUS
10
0.0277487
20
0.929914
11
0.0277044
21
0.929867
0
LINE
8
BLACK
6
CONTINUOUS
10
0.0277044
20
0.929867
11
0.0239549
21
0.927993
0
LINE
8
BLACK
6
CONTINUOUS
10
0.0239549
20
0.927993
11
0.022972
21
0.9277
0
LINE
8
BLACK
6
CONTINUOUS
10
0.022972
20
0.9277
11
0.0228003
21
0.927741
0
LINE
8
BLACK
6
CONTINUOUS
10
0.0228003
20
0.927741
11
0.0226344
21
0.927681
0
LINE
8
BLACK
6
CONTINUOUS
10
0.0226344
20
0.927681
11
0.0207596
21
0.927681
0
LINE
8
BLACK
6
CONTINUOUS
10
0.0207596
20
0.927681
11
0.0197497
21
0.927859
0
LINE
8
BLACK
6
CONTINUOUS
10
0.0197497
20
0.927859
11
0.0196144
21
0.927973
0
LINE
8
BLACK
6
CONTINUOUS
10
0.0196144
20
0.927973
11
0.0194391
21
0.927993
0
LINE
8
BLACK
6
CONTINUOUS
10
0.0194391
20
0.927993
11
0.0156896
21
0.929867
0
LINE
8
BLACK
6
CONTINUOUS
10
0.0156896
20
0.929867
11
0.0149805
21
0.930393
0
LINE
8
BLACK
6
CONTINUOUS
10
0.0149805
20
0.930393
11
0.0149222
21
0.930421
0
LINE
8
BLACK
6
CONTINUOUS
10
0.0149222
20
0.930421
11
0.0130474
21
0.932295
0
LINE
8
BLACK
6
CONTINUOUS
10
0.0130474
20
0.932295
11
0.0125411
21
0.933018
0
LINE
8
BLACK
6
CONTINUOUS
10
0.0125411
20
0.933018
11
0.0124943
21
0.933063
0
LINE
8
BLACK
6
CONTINUOUS
10
0.0124943
20
0.933063
11
0.0106196
21
0.936812
0
LINE
8
BLACK
6
CONTINUOUS
10
0.0106196
20
0.936812
11
0.0103272
21
0.937795
0
LINE
8
BLACK
6
CONTINUOUS
10
0.0103272
20
0.937795
11
0.0103682
21
0.937967
0
LINE
8
BLACK
6
CONTINUOUS
10
0.0103682
20
0.937967
11
0.0103078
21
0.938133
0
LINE
8
BLACK
6
CONTINUOUS
10
0.0103078
20
0.938133
11
0.0103078
21
0.945632
0
LINE
8
BLACK
6
CONTINUOUS
10
0.0103078
20
0.945632
11
0.0104859
21
0.946642
0
LINE
8
BLACK
6
CONTINUOUS
10
0.0104859
20
0.946642
11
0.0105994
21
0.946777
0
LINE
8
BLACK
6
CONTINUOUS
10
0.0105994
20
0.946777
11
0.0106196
21
0.946952
0
LINE
8
BLACK
6
CONTINUOUS
10
0.0106196
20
0.946952
11
0.0124943
21
0.950702
0
LINE
8
BLACK
6
CONTINUOUS
10
0.0124943
20
0.950702
11
0.0130202
21
0.951411
0
LINE
8
BLACK
6
CONTINUOUS
10
0.0130202
20
0.951411
11
0.0130474
21
0.951469
0
LINE
8
BLACK
6
CONTINUOUS
10
0.0130474
20
0.951469
11
0.0149222
21
0.953344
0
LINE
8
BLACK
6
CONTINUOUS
10
0.0149222
20
0.953344
11
0.0156453
21
0.95385
0
LINE
8
BLACK
6
CONTINUOUS
10
0.0156453
20
0.95385
11
0.0156896
21
0.953897
0
LINE
8
BLACK
6
CONTINUOUS
10
0.0156896
20
0.953897
11
0.0194391
21
0.955772
0
LINE
8
BLACK
6
CONTINUOUS
10
0.0194391
20
0.955772
11
0.020422
21
0.956064
0
LINE
8
BLACK
6
CONTINUOUS
10
0.020422
20
0.956064
11
0.0205937
21
0.956023
0
LINE
8
BLACK
6
CONTINUOUS
10
0.0205937
20
0.956023
11
0.0207596
21
0.956084
0
LINE
8
BLACK
6
CONTINUOUS
10
0.0207596
20
0.956084
11
0.0226344
21
0.956084
0
LINE
8
BLACK
6
CONTINUOUS
10
0.0226344
20
0.956084
11
0.0236443
21
0.955906
0
LINE
8
BLACK
6
CONTINUOUS
10
0.0187592
20
0.948829
11
0.0175621
21
0.947632
0
LINE
8
BLACK
6
CONTINUOUS
10
0.0175621
20
0.947632
11
0.0162133
21
0.944935
0
LINE
8
BLACK
6
CONTINUOUS
10
0.0162133
20
0.944935
11
0.0162133
21
0.93883
0
LINE
8
BLACK
6
CONTINUOUS
10
0.0162133
20
0.93883
11
0.0175621
21
0.936132
0
LINE
8
BLACK
6
CONTINUOUS
10
0.0175621
20
0.936132
11
0.0187592
21
0.934935
0
LINE
8
BLACK
6
CONTINUOUS
10
0.0187592
20
0.934935
11
0.0214567
21
0.933586
0
LINE
8
BLACK
6
CONTINUOUS
10
0.0214567
20
0.933586
11
0.0219374
21
0.933586
0
LINE
8
BLACK
6
CONTINUOUS
10
0.0219374
20
0.933586
11
0.0246348
21
0.934935
0
LINE
8
BLACK
6
CONTINUOUS
10
0.0246348
20
0.934935
11
0.025832
21
0.936132
0
LINE
8
BLACK
6
CONTINUOUS
10
0.025832
20
0.936132
11
0.0271807
21
0.93883
0
LINE
8
BLACK
6
CONTINUOUS
10
0.0271807
20
0.93883
11
0.0271807
21
0.944935
0
LINE
8
BLACK
6
CONTINUOUS
10
0.0271807
20
0.944935
11
0.025832
21
0.947632
0
LINE
8
BLACK
6
CONTINUOUS
10
0.025832
20
0.947632
11
0.0246348
21
0.948829
0
LINE
8
BLACK
6
CONTINUOUS
10
0.0246348
20
0.948829
11
0.0219374
21
0.950178
0
LINE
8
BLACK
6
CONTINUOUS
10
0.0219374
20
0.950178
11
0.0214567
21
0.950178
0
LINE
8
BLACK
6
CONTINUOUS
10
0.0214567
20
0.950178
11
0.0187592
21
0.948829
0
LINE
8
BLACK
6
CONTINUOUS
10
0.0356321
20
0.948829
11
0.034435
21
0.947632
0
LINE
8
BLACK
6
CONTINUOUS
10
0.034435
20
0.947632
11
0.0330862
21
0.944935
0
LINE
8
BLACK
6
CONTINUOUS
10
0.0330862
20
0.944935
11
0.0330862
21
0.93883
0
LINE
8
BLACK
6
CONTINUOUS
10
0.0330862
20
0.93883
11
0.034435
21
0.936132
0
LINE
8
BLACK
6
CONTINUOUS
10
0.034435
20
0.936132
11
0.0356321
21
0.934935
0
LINE
8
BLACK
6
CONTINUOUS
10
0.0356321
20
0.934935
11
0.0383296
21
0.933586
0
LINE
8
BLACK
6
CONTINUOUS
10
0.0383296
20
0.933586
11
0.0444345
21
0.933586
0
LINE
8
BLACK
6
CONTINUOUS
10
0.0444345
20
0.933586
11
0.047132
21
0.934935
0
LINE
8
BLACK
6
CONTINUOUS
10
0.047132
20
0.934935
11
0.0483292
21
0.936132
0
LINE
8
BLACK
6
CONTINUOUS
10
0.0483292
20
0.936132
11
0.0496779
21
0.93883
0
LINE
8
BLACK
6
CONTINUOUS
10
0.0496779
20
0.93883
11
0.0496779
21
0.944935
0
LINE
8
BLACK
6
CONTINUOUS
10
0.0496779
20
0.944935
11
0.0483292
21
0.947632
0
LINE
8
BLACK
6
CONTINUOUS
10
0.0483292
20
0.947632
11
0.047132
21
0.948829
0
LINE
8
BLACK
6
CONTINUOUS
10
0.047132
20
0.948829
11
0.0444345
21
0.950178
0
LINE
8
BLACK
6
CONTINUOUS
10
0.0444345
20
0.950178
11
0.0383296
21
0.950178
0
LINE
8
BLACK
6
CONTINUOUS
10
0.0383296
20
0.950178
11
0.0356321
21
0.948829
0
LINE
8
BLACK
6
CONTINUOUS
10
0.0382129
20
0.993477
11
0.0383487
21
0.993491
0
LINE
8
BLACK
6
CONTINUOUS
10
0.0383487
20
0.993491
11
0.0458477
21
0.991616
0
LINE
8
BLACK
6
CONTINUOUS
10
0.0458477
20
0.991616
11
0.0463131
21
0.991408
0
LINE
8
BLACK
6
CONTINUOUS
10
0.0463131
20
0.991408
11
0.0464521
21
0.991392
0
LINE
8
BLACK
6
CONTINUOUS
10
0.0464521
20
0.991392
11
0.0502016
21
0.989518
0
LINE
8
BLACK
6
CONTINUOUS
10
0.0502016
20
0.989518
11
0.0509106
21
0.988992
0
LINE
8
BLACK
6
CONTINUOUS
10
0.0509106
20
0.988992
11
0.050969
21
0.988965
0
LINE
8
BLACK
6
CONTINUOUS
10
0.050969
20
0.988965
11
0.0528438
21
0.98709
0
LINE
8
BLACK
6
CONTINUOUS
10
0.0528438
20
0.98709
11
0.0533502
21
0.986367
0
LINE
8
BLACK
6
CONTINUOUS
10
0.0533502
20
0.986367
11
0.0533969
21
0.986322
0
LINE
8
BLACK
6
CONTINUOUS
10
0.0533969
20
0.986322
11
0.0552717
21
0.982573
0
LINE
8
BLACK
6
CONTINUOUS
10
0.0552717
20
0.982573
11
0.0555641
21
0.98159
0
LINE
8
BLACK
6
CONTINUOUS
10
0.0555641
20
0.98159
11
0.055523
21
0.981418
0
LINE
8
BLACK
6
CONTINUOUS
10
0.055523
20
0.981418
11
0.0555834
21
0.981252
0
LINE
8
BLACK
6
CONTINUOUS
10
0.0555834
20
0.981252
11
0.0555834
21
0.977503
0
LINE
8
BLACK
6
CONTINUOUS
10
0.0555834
20
0.977503
11
0.0554054
21
0.976493
0
LINE
8
BLACK
6
CONTINUOUS
10
0.0554054
20
0.976493
11
0.0552919
21
0.976358
0
LINE
8
BLACK
6
CONTINUOUS
10
0.0552919
20
0.976358
11
0.0552717
21
0.976182
0
LINE
8
BLACK
6
CONTINUOUS
10
0.0552717
20
0.976182
11
0.0533969
21
0.972433
0
LINE
8
BLACK
6
CONTINUOUS
10
0.0533969
20
0.972433
11
0.0528709
21
0.971724
0
LINE
8
BLACK
6
CONTINUOUS
10
0.0528709
20
0.971724
11
0.0528438
21
0.971665
0
LINE
8
BLACK
6
CONTINUOUS
10
0.0528438
20
0.971665
11
0.050969
21
0.969791
0
LINE
8
BLACK
6
CONTINUOUS
10
0.050969
20
0.969791
11
0.0502459
21
0.969284
0
LINE
8
BLACK
6
CONTINUOUS
10
0.0502459
20
0.969284
11
0.0502016
21
0.969238
0
LINE
8
BLACK
6
CONTINUOUS
10
0.0502016
20
0.969238
11
0.0464521
21
0.967363
0
LINE
8
BLACK
6
CONTINUOUS
10
0.0464521
20
0.967363
11
0.0459636
21
0.967217
0
LINE
8
BLACK
6
CONTINUOUS
10
0.0459636
20
0.967217
11
0.0458477
21
0.967139
0
LINE
8
BLACK
6
CONTINUOUS
10
0.0458477
20
0.967139
11
0.0383487
21
0.965264
0
LINE
8
BLACK
6
CONTINUOUS
10
0.0383487
20
0.965264
11
0.0377607
21
0.965223
0
LINE
8
BLACK
6
CONTINUOUS
10
0.0377607
20
0.965223
11
0.0376325
21
0.965176
0
LINE
8
BLACK
6
CONTINUOUS
10
0.0376325
20
0.965176
11
0.0282587
21
0.965176
0
LINE
8
BLACK
6
CONTINUOUS
10
0.0282587
20
0.965176
11
0.0276783
21
0.965279
0
LINE
8
BLACK
6
CONTINUOUS
10
0.0276783
20
0.965279
11
0.0275426
21
0.965264
0
LINE
8
BLACK
6
CONTINUOUS
10
0.0275426
20
0.965264
11
0.0200435
21
0.967139
0
LINE
8
BLACK
6
CONTINUOUS
10
0.0200435
20
0.967139
11
0.019578
21
0.967347
0
LINE
8
BLACK
6
CONTINUOUS
10
0.019578
20
0.967347
11
0.0194391
21
0.967363
0
LINE
8
BLACK
6
CONTINUOUS
10
0.0194391
20
0.967363
11
0.0156896
21
0.969238
0
LINE
8
BLACK
6
CONTINUOUS
10
0.0156896
20
0.969238
11
0.0149805
21
0.969763
0
LINE
8
BLACK
6
CONTINUOUS
10
0.0149805
20
0.969763
11
0.0149222
21
0.969791
0
LINE
8
BLACK
6
CONTINUOUS
10
0.0149222
20
0.969791
11
0.0130474
21
0.971665
0
LINE
8
BLACK
6
CONTINUOUS
10
0.0130474
20
0.971665
11
0.0125411
21
0.972389
0
LINE
8
BLACK
6
CONTINUOUS
10
0.0125411
20
0.972389
11
0.0124943
21
0.972433
0
LINE
8
BLACK
6
CONTINUOUS
10
0.0124943
20
0.972433
11
0.0106196
21
0.976182
0
LINE
8
BLACK
6
CONTINUOUS
10
0.0106196
20
0.976182
11
0.0103272
21
0.977165
0
LINE
8
BLACK
6
CONTINUOUS
10
0.0103272
20
0.977165
11
0.0103682
21
0.977337
0
LINE
8
BLACK
6
CONTINUOUS
10
0.0103682
20
0.977337
11
0.0103078
21
0.977503
0
LINE
8
BLACK
6
CONTINUOUS
10
0.0103078
20
0.977503
11
0.0103078
21
0.981252
0
LINE
8
BLACK
6
CONTINUOUS
10
0.0103078
20
0.981252
11
0.0104859
21
0.982262
0
LINE
8
BLACK
6
CONTINUOUS
10
0.0104859
20
0.982262
11
0.0105994
21
0.982398
0
LINE
8
BLACK
6
CONTINUOUS
10
0.0105994
20
0.982398
11
0.0106196
21
0.982573
0
LINE
8
BLACK
6
CONTINUOUS
10
0.0106196
20
0.982573
11
0.0124943
21
0.986322
0
LINE
8
BLACK
6
CONTINUOUS
10
0.0124943
20
0.986322
11
0.0130202
21
0.987031
0
LINE
8
BLACK
6
CONTINUOUS
10
0.0130202
20
0.987031
11
0.0130474
21
0.98709
0
LINE
8
BLACK
6
CONTINUOUS
10
0.0130474
20
0.98709
11
0.0149222
21
0.988965
0
LINE
8
BLACK
6
CONTINUOUS
10
0.0149222
20
0.988965
11
0.0156453
21
0.989471
0
LINE
8
BLACK
6
CONTINUOUS
10
0.0156453
20
0.989471
11
0.0156896
21
0.989518
0
LINE
8
BLACK
6
CONTINUOUS
10
0.0156896
20
0.989518
11
0.0194391
21
0.991392
0
LINE
8
BLACK
6
CONTINUOUS
10
0.0194391
20
0.991392
11
0.0199276
21
0.991538
0
LINE
8
BLACK
6
CONTINUOUS
10
0.0199276
20
0.991538
11
0.0200435
21
0.991616
0
LINE
8
BLACK
6
CONTINUOUS
10
0.0200435
20
0.991616
11
0.0275426
21
0.993491
0
LINE
8
BLACK
6
CONTINUOUS
10
0.0275426
20
0.993491
11
0.0281304
21
0.993532
0
LINE
8
BLACK
6
CONTINUOUS
10
0.0281304
20
0.993532
11
0.0282587
21
0.993579
0
LINE
8
BLACK
6
CONTINUOUS
10
0.0282587
20
0.993579
11
0.0376325
21
0.993579
0
LINE
8
BLACK
6
CONTINUOUS
10
0.0376325
20
0.993579
11
0.0382129
21
0.993477
0
LINE
8
BLACK
6
CONTINUOUS
10
0.0217902
20
0.985965
11
0.0187592
21
0.98445
0
LINE
8
BLACK
6
CONTINUOUS
10
0.0187592
20
0.98445
11
0.0175621
21
0.983253
0
LINE
8
BLACK
6
CONTINUOUS
10
0.0175621
20
0.983253
11
0.0162133
21
0.980555
0
LINE
8
BLACK
6
CONTINUOUS
10
0.0162133
20
0.980555
11
0.0162133
21
0.9782
0
LINE
8
BLACK
6
CONTINUOUS
10
0.0162133
20
0.9782
11
0.0175621
21
0.975502
0
LINE
8
BLACK
6
CONTINUOUS
10
0.0175621
20
0.975502
11
0.0187592
21
0.974305
0
LINE
8
BLACK
6
CONTINUOUS
10
0.0187592
20
0.974305
11
0.0217902
21
0.97279
0
LINE
8
BLACK
6
CONTINUOUS
10
0.0217902
20
0.97279
11
0.0286222
21
0.971082
0
LINE
8
BLACK
6
CONTINUOUS
10
0.0286222
20
0.971082
11
0.037269
21
0.971082
0
LINE
8
BLACK
6
CONTINUOUS
10
0.037269
20
0.971082
11
0.044101
21
0.97279
0
LINE
8
BLACK
6
CONTINUOUS
10
0.044101
20
0.97279
11
0.047132
21
0.974305
0
LINE
8
BLACK
6
CONTINUOUS
10
0.047132
20
0.974305
11
0.0483292
21
0.975502
0
LINE
8
BLACK
6
CONTINUOUS
10
0.0483292
20
0.975502
11
0.0496779
21
0.9782
0
LINE
8
BLACK
6
CONTINUOUS
10
0.0496779
20
0.9782
11
0.0496779
21
0.980555
0
LINE
8
BLACK
6
CONTINUOUS
10
0.0496779
20
0.980555
11
0.0483292
21
0.983253
0
LINE
8
BLACK
6
CONTINUOUS
10
0.0483292
20
0.983253
11
0.047132
21
0.98445
0
LINE
8
BLACK
6
CONTINUOUS
10
0.047132
20
0.98445
11
0.044101
21
0.985965
0
LINE
8
BLACK
6
CONTINUOUS
10
0.044101
20
0.985965
11
0.037269
21
0.987673
0
LINE
8
BLACK
6
CONTINUOUS
10
0.037269
20
0.987673
11
0.0286222
21
0.987673
0
LINE
8
BLACK
6
CONTINUOUS
10
0.0286222
20
0.987673
11
0.0217902
21
0.985965
0
LINE
8
BLACK
6
CONTINUOUS
10
0.0536406
20
1.07402
11
0.0551878
21
1.07272
0
LINE
8
BLACK
6
CONTINUOUS
10
0.0551878
20
1.07272
11
0.0555386
21
1.07073
0
LINE
8
BLACK
6
CONTINUOUS
10
0.0555386
20
1.07073
11
0.0545287
21
1.06898
0
LINE
8
BLACK
6
CONTINUOUS
10
0.0545287
20
1.06898
11
0.0526307
21
1.06829
0
LINE
8
BLACK
6
CONTINUOUS
10
0.0526307
20
1.06829
11
0.0327053
21
1.06829
0
LINE
8
BLACK
6
CONTINUOUS
10
0.0327053
20
1.06829
11
0.0304595
21
1.06717
0
LINE
8
BLACK
6
CONTINUOUS
10
0.0304595
20
1.06717
11
0.0293367
21
1.06492
0
LINE
8
BLACK
6
CONTINUOUS
10
0.0293367
20
1.06492
11
0.0293367
21
1.06069
0
LINE
8
BLACK
6
CONTINUOUS
10
0.0293367
20
1.06069
11
0.0304595
21
1.05844
0
LINE
8
BLACK
6
CONTINUOUS
10
0.0304595
20
1.05844
11
0.0327053
21
1.05732
0
LINE
8
BLACK
6
CONTINUOUS
10
0.0327053
20
1.05732
11
0.0526307
21
1.05732
0
LINE
8
BLACK
6
CONTINUOUS
10
0.0526307
20
1.05732
11
0.0536406
21
1.05714
0
LINE
8
BLACK
6
CONTINUOUS
10
0.0536406
20
1.05714
11
0.0551878
21
1.05584
0
LINE
8
BLACK
6
CONTINUOUS
10
0.0551878
20
1.05584
11
0.0555386
21
1.05386
0
LINE
8
BLACK
6
CONTINUOUS
10
0.0555386
20
1.05386
11
0.0545287
21
1.05211
0
LINE
8
BLACK
6
CONTINUOUS
10
0.0545287
20
1.05211
11
0.0526307
21
1.05142
0
LINE
8
BLACK
6
CONTINUOUS
10
0.0526307
20
1.05142
11
0.0327053
21
1.05142
0
LINE
8
BLACK
6
CONTINUOUS
10
0.0327053
20
1.05142
11
0.0304595
21
1.05029
0
LINE
8
BLACK
6
CONTINUOUS
10
0.0304595
20
1.05029
11
0.0293367
21
1.04805
0
LINE
8
BLACK
6
CONTINUOUS
10
0.0293367
20
1.04805
11
0.0293367
21
1.04382
0
LINE
8
BLACK
6
CONTINUOUS
10
0.0293367
20
1.04382
11
0.0306854
21
1.04112
0
LINE
8
BLACK
6
CONTINUOUS
10
0.0306854
20
1.04112
11
0.0313565
21
1.04045
0
LINE
8
BLACK
6
CONTINUOUS
10
0.0313565
20
1.04045
11
0.0526307
21
1.04045
0
LINE
8
BLACK
6
CONTINUOUS
10
0.0526307
20
1.04045
11
0.0536406
21
1.04027
0
LINE
8
BLACK
6
CONTINUOUS
10
0.0536406
20
1.04027
11
0.0551878
21
1.03897
0
LINE
8
BLACK
6
CONTINUOUS
10
0.0551878
20
1.03897
11
0.0555386
21
1.03698
0
LINE
8
BLACK
6
CONTINUOUS
10
0.0555386
20
1.03698
11
0.0545287
21
1.03523
0
LINE
8
BLACK
6
CONTINUOUS
10
0.0545287
20
1.03523
11
0.0526307
21
1.03454
0
LINE
8
BLACK
6
CONTINUOUS
10
0.0526307
20
1.03454
11
0.0263839
21
1.03454
0
LINE
8
BLACK
6
CONTINUOUS
10
0.0263839
20
1.03454
11
0.025374
21
1.03472
0
LINE
8
BLACK
6
CONTINUOUS
10
0.025374
20
1.03472
11
0.0238268
21
1.03602
0
LINE
8
BLACK
6
CONTINUOUS
10
0.0238268
20
1.03602
11
0.023476
21
1.03801
0
LINE
8
BLACK
6
CONTINUOUS
10
0.023476
20
1.03801
11
0.0244859
21
1.03976
0
LINE
8
BLACK
6
CONTINUOUS
10
0.0244859
20
1.03976
11
0.024721
21
1.03984
0
LINE
8
BLACK
6
CONTINUOUS
10
0.024721
20
1.03984
11
0.0237429
21
1.0418
0
LINE
8
BLACK
6
CONTINUOUS
10
0.0237429
20
1.0418
11
0.0234506
21
1.04278
0
LINE
8
BLACK
6
CONTINUOUS
10
0.0234506
20
1.04278
11
0.0234915
21
1.04295
0
LINE
8
BLACK
6
CONTINUOUS
10
0.0234915
20
1.04295
11
0.0234312
21
1.04312
0
LINE
8
BLACK
6
CONTINUOUS
10
0.0234312
20
1.04312
11
0.0234312
21
1.04874
0
LINE
8
BLACK
6
CONTINUOUS
10
0.0234312
20
1.04874
11
0.0236093
21
1.04975
0
LINE
8
BLACK
6
CONTINUOUS
10
0.0236093
20
1.04975
11
0.0237227
21
1.04989
0
LINE
8
BLACK
6
CONTINUOUS
10
0.0237227
20
1.04989
11
0.0237429
21
1.05006
0
LINE
8
BLACK
6
CONTINUOUS
10
0.0237429
20
1.05006
11
0.0256177
21
1.05381
0
LINE
8
BLACK
6
CONTINUOUS
10
0.0256177
20
1.05381
11
0.0260404
21
1.05438
0
LINE
8
BLACK
6
CONTINUOUS
10
0.0260404
20
1.05438
11
0.0259387
21
1.05462
0
LINE
8
BLACK
6
CONTINUOUS
10
0.0259387
20
1.05462
11
0.0256177
21
1.05492
0
LINE
8
BLACK
6
CONTINUOUS
10
0.0256177
20
1.05492
11
0.0237429
21
1.05867
0
LINE
8
BLACK
6
CONTINUOUS
10
0.0237429
20
1.05867
11
0.0234506
21
1.05965
0
LINE
8
BLACK
6
CONTINUOUS
10
0.0234506
20
1.05965
11
0.0234915
21
1.05983
0
LINE
8
BLACK
6
CONTINUOUS
10
0.0234915
20
1.05983
11
0.0234312
21
1.05999
0
LINE
8
BLACK
6
CONTINUOUS
10
0.0234312
20
1.05999
11
0.0234312
21
1.06562
0
LINE
8
BLACK
6
CONTINUOUS
10
0.0234312
20
1.06562
11
0.0236093
21
1.06663
0
LINE
8
BLACK
6
CONTINUOUS
10
0.0236093
20
1.06663
11
0.0237227
21
1.06676
0
LINE
8
BLACK
6
CONTINUOUS
10
0.0237227
20
1.06676
11
0.0237429
21
1.06694
0
LINE
8
BLACK
6
CONTINUOUS
10
0.0237429
20
1.06694
11
0.0256177
21
1.07069
0
LINE
8
BLACK
6
CONTINUOUS
10
0.0256177
20
1.07069
11
0.0262286
21
1.07151
0
LINE
8
BLACK
6
CONTINUOUS
10
0.0262286
20
1.07151
11
0.0266343
21
1.07169
0
LINE
8
BLACK
6
CONTINUOUS
10
0.0266343
20
1.07169
11
0.0269382
21
1.07201
0
LINE
8
BLACK
6
CONTINUOUS
10
0.0269382
20
1.07201
11
0.0306877
21
1.07388
0
LINE
8
BLACK
6
CONTINUOUS
10
0.0306877
20
1.07388
11
0.0316706
21
1.07417
0
LINE
8
BLACK
6
CONTINUOUS
10
0.0316706
20
1.07417
11
0.0318423
21
1.07413
0
LINE
8
BLACK
6
CONTINUOUS
10
0.0318423
20
1.07413
11
0.0320082
21
1.07419
0
LINE
8
BLACK
6
CONTINUOUS
10
0.0320082
20
1.07419
11
0.0526307
21
1.07419
0
LINE
8
BLACK
6
CONTINUOUS
10
0.0526307
20
1.07419
11
0.0536406
21
1.07402
0
LINE
8
BLACK
6
CONTINUOUS
10
0.0156341
20
1.09469
11
0.0158996
21
1.09472
0
LINE
8
BLACK
6
CONTINUOUS
10
0.0158996
20
1.09472
11
0.016528
21
1.09428
0
LINE
8
BLACK
6
CONTINUOUS
10
0.016528
20
1.09428
11
0.0172233
21
1.09395
0
LINE
8
BLACK
6
CONTINUOUS
10
0.0172233
20
1.09395
11
0.019098
21
1.09208
0
LINE
8
BLACK
6
CONTINUOUS
10
0.019098
20
1.09208
11
0.0193214
21
1.09176
0
LINE
8
BLACK
6
CONTINUOUS
10
0.0193214
20
1.09176
11
0.0194289
21
1.09168
0
LINE
8
BLACK
6
CONTINUOUS
10
0.0194289
20
1.09168
11
0.0194628
21
1.09156
0
LINE
8
BLACK
6
CONTINUOUS
10
0.0194628
20
1.09156
11
0.0194677
21
1.09155
0
LINE
8
BLACK
6
CONTINUOUS
10
0.0194677
20
1.09155
11
0.0195673
21
1.09147
0
LINE
8
BLACK
6
CONTINUOUS
10
0.0195673
20
1.09147
11
0.0195811
21
1.09139
0
LINE
8
BLACK
6
CONTINUOUS
10
0.0195811
20
1.09139
11
0.0196862
21
1.09124
0
LINE
8
BLACK
6
CONTINUOUS
10
0.0196862
20
1.09124
11
0.0197531
21
1.09047
0
LINE
8
BLACK
6
CONTINUOUS
10
0.0197531
20
1.09047
11
0.0199516
21
1.08973
0
LINE
8
BLACK
6
CONTINUOUS
10
0.0199516
20
1.08973
11
0.0198946
21
1.08961
0
LINE
8
BLACK
6
CONTINUOUS
10
0.0198946
20
1.08961
11
0.019918
21
1.08948
0
LINE
8
BLACK
6
CONTINUOUS
10
0.019918
20
1.08948
11
0.0198505
21
1.08936
0
LINE
8
BLACK
6
CONTINUOUS
10
0.0198505
20
1.08936
11
0.0198622
21
1.08922
0
LINE
8
BLACK
6
CONTINUOUS
10
0.0198622
20
1.08922
11
0.0194222
21
1.0886
0
LINE
8
BLACK
6
CONTINUOUS
10
0.0194222
20
1.0886
11
0.019098
21
1.0879
0
LINE
8
BLACK
6
CONTINUOUS
10
0.019098
20
1.0879
11
0.0172233
21
1.08603
0
LINE
8
BLACK
6
CONTINUOUS
10
0.0172233
20
1.08603
11
0.0169042
21
1.0858
0
LINE
8
BLACK
6
CONTINUOUS
10
0.0169042
20
1.0858
11
0.016829
21
1.0857
0
LINE
8
BLACK
6
CONTINUOUS
10
0.016829
20
1.0857
11
0.0167022
21
1.08566
0
LINE
8
BLACK
6
CONTINUOUS
10
0.0167022
20
1.08566
11
0.0163832
21
1.08544
0
LINE
8
BLACK
6
CONTINUOUS
10
0.0163832
20
1.08544
11
0.0156189
21
1.08537
0
LINE
8
BLACK
6
CONTINUOUS
10
0.0156189
20
1.08537
11
0.014878
21
1.08517
0
LINE
8
BLACK
6
CONTINUOUS
10
0.014878
20
1.08517
11
0.0146366
21
1.08529
0
LINE
8
BLACK
6
CONTINUOUS
10
0.0146366
20
1.08529
11
0.0143711
21
1.08526
0
LINE
8
BLACK
6
CONTINUOUS
10
0.0143711
20
1.08526
11
0.0137426
21
1.0857
0
LINE
8
BLACK
6
CONTINUOUS
10
0.0137426
20
1.0857
11
0.0130474
21
1.08603
0
LINE
8
BLACK
6
CONTINUOUS
10
0.0130474
20
1.08603
11
0.0111727
21
1.0879
0
LINE
8
BLACK
6
CONTINUOUS
10
0.0111727
20
1.0879
11
0.0109493
21
1.08822
0
LINE
8
BLACK
6
CONTINUOUS
10
0.0109493
20
1.08822
11
0.0108418
21
1.0883
0
LINE
8
BLACK
6
CONTINUOUS
10
0.0108418
20
1.0883
11
0.0108078
21
1.08842
0
LINE
8
BLACK
6
CONTINUOUS
10
0.0108078
20
1.08842
11
0.010803
21
1.08843
0
LINE
8
BLACK
6
CONTINUOUS
10
0.010803
20
1.08843
11
0.0107034
21
1.08851
0
LINE
8
BLACK
6
CONTINUOUS
10
0.0107034
20
1.08851
11
0.0106896
21
1.08859
0
LINE
8
BLACK
6
CONTINUOUS
10
0.0106896
20
1.08859
11
0.0105845
21
1.08874
0
LINE
8
BLACK
6
CONTINUOUS
10
0.0105845
20
1.08874
11
0.0105176
21
1.08951
0
LINE
8
BLACK
6
CONTINUOUS
10
0.0105176
20
1.08951
11
0.0103191
21
1.09025
0
LINE
8
BLACK
6
CONTINUOUS
10
0.0103191
20
1.09025
11
0.0103761
21
1.09037
0
LINE
8
BLACK
6
CONTINUOUS
10
0.0103761
20
1.09037
11
0.0103527
21
1.0905
0
LINE
8
BLACK
6
CONTINUOUS
10
0.0103527
20
1.0905
11
0.0104202
21
1.09062
0
LINE
8
BLACK
6
CONTINUOUS
10
0.0104202
20
1.09062
11
0.0104084
21
1.09075
0
LINE
8
BLACK
6
CONTINUOUS
10
0.0104084
20
1.09075
11
0.0108485
21
1.09138
0
LINE
8
BLACK
6
CONTINUOUS
10
0.0108485
20
1.09138
11
0.0111727
21
1.09208
0
LINE
8
BLACK
6
CONTINUOUS
10
0.0111727
20
1.09208
11
0.0130474
21
1.09395
0
LINE
8
BLACK
6
CONTINUOUS
10
0.0130474
20
1.09395
11
0.0133665
21
1.09417
0
LINE
8
BLACK
6
CONTINUOUS
10
0.0133665
20
1.09417
11
0.0134417
21
1.09428
0
LINE
8
BLACK
6
CONTINUOUS
10
0.0134417
20
1.09428
11
0.0135685
21
1.09432
0
LINE
8
BLACK
6
CONTINUOUS
10
0.0135685
20
1.09432
11
0.0138875
21
1.09454
0
LINE
8
BLACK
6
CONTINUOUS
10
0.0138875
20
1.09454
11
0.0146517
21
1.09461
0
LINE
8
BLACK
6
CONTINUOUS
10
0.0146517
20
1.09461
11
0.0153927
21
1.09481
0
LINE
8
BLACK
6
CONTINUOUS
10
0.0153927
20
1.09481
11
0.0156341
21
1.09469
0
LINE
8
BLACK
6
CONTINUOUS
10
0.0536406
20
1.09276
11
0.0551878
21
1.09147
0
LINE
8
BLACK
6
CONTINUOUS
10
0.0551878
20
1.09147
11
0.0555386
21
1.08948
0
LINE
8
BLACK
6
CONTINUOUS
10
0.0555386
20
1.08948
11
0.0545287
21
1.08773
0
LINE
8
BLACK
6
CONTINUOUS
10
0.0545287
20
1.08773
11
0.0526307
21
1.08704
0
LINE
8
BLACK
6
CONTINUOUS
10
0.0526307
20
1.08704
11
0.0263839
21
1.08704
0
LINE
8
BLACK
6
CONTINUOUS
10
0.0263839
20
1.08704
11
0.025374
21
1.08721
0
LINE
8
BLACK
6
CONTINUOUS
10
0.025374
20
1.08721
11
0.0238268
21
1.08851
0
LINE
8
BLACK
6
CONTINUOUS
10
0.0238268
20
1.08851
11
0.023476
21
1.0905
0
LINE
8
BLACK
6
CONTINUOUS
10
0.023476
20
1.0905
11
0.0244859
21
1.09225
0
LINE
8
BLACK
6
CONTINUOUS
10
0.0244859
20
1.09225
11
0.0263839
21
1.09294
0
LINE
8
BLACK
6
CONTINUOUS
10
0.0263839
20
1.09294
11
0.0526307
21
1.09294
0
LINE
8
BLACK
6
CONTINUOUS
10
0.0526307
20
1.09294
11
0.0536406
21
1.09276
0
LINE
8
BLACK
6
CONTINUOUS
10
0.0543898
20
1.11673
11
0.0555026
21
1.11505
0
LINE
8
BLACK
6
CONTINUOUS
10
0.0555026
20
1.11505
11
0.0552717
21
1.11304
0
LINE
8
BLACK
6
CONTINUOUS
10
0.0552717
20
1.11304
11
0.0533969
21
1.10929
0
LINE
8
BLACK
6
CONTINUOUS
10
0.0533969
20
1.10929
11
0.052786
21
1.10847
0
LINE
8
BLACK
6
CONTINUOUS
10
0.052786
20
1.10847
11
0.0523803
21
1.10829
0
LINE
8
BLACK
6
CONTINUOUS
10
0.0523803
20
1.10829
11
0.0520764
21
1.10797
0
LINE
8
BLACK
6
CONTINUOUS
10
0.0520764
20
1.10797
11
0.0483269
21
1.1061
0
LINE
8
BLACK
6
CONTINUOUS
10
0.0483269
20
1.1061
11
0.0473439
21
1.1058
0
LINE
8
BLACK
6
CONTINUOUS
10
0.0473439
20
1.1058
11
0.0471722
21
1.10584
0
LINE
8
BLACK
6
CONTINUOUS
10
0.0471722
20
1.10584
11
0.0470063
21
1.10578
0
LINE
8
BLACK
6
CONTINUOUS
10
0.0470063
20
1.10578
11
0.0132606
21
1.10578
0
LINE
8
BLACK
6
CONTINUOUS
10
0.0132606
20
1.10578
11
0.0122507
21
1.10596
0
LINE
8
BLACK
6
CONTINUOUS
10
0.0122507
20
1.10596
11
0.0107034
21
1.10726
0
LINE
8
BLACK
6
CONTINUOUS
10
0.0107034
20
1.10726
11
0.0103527
21
1.10925
0
LINE
8
BLACK
6
CONTINUOUS
10
0.0103527
20
1.10925
11
0.0113626
21
1.111
0
LINE
8
BLACK
6
CONTINUOUS
10
0.0113626
20
1.111
11
0.0132606
21
1.11169
0
LINE
8
BLACK
6
CONTINUOUS
10
0.0132606
20
1.11169
11
0.0463093
21
1.11169
0
LINE
8
BLACK
6
CONTINUOUS
10
0.0463093
20
1.11169
11
0.048555
21
1.11281
0
LINE
8
BLACK
6
CONTINUOUS
10
0.048555
20
1.11281
11
0.0499896
21
1.11568
0
LINE
8
BLACK
6
CONTINUOUS
10
0.0499896
20
1.11568
11
0.0506006
21
1.1165
0
LINE
8
BLACK
6
CONTINUOUS
10
0.0506006
20
1.1165
11
0.0524537
21
1.11731
0
LINE
8
BLACK
6
CONTINUOUS
10
0.0524537
20
1.11731
11
0.0543898
21
1.11673
0
LINE
8
BLACK
6
CONTINUOUS
10
0.0480163
20
1.14713
11
0.0481515
21
1.14702
0
LINE
8
BLACK
6
CONTINUOUS
10
0.0481515
20
1.14702
11
0.0483269
21
1.147
0
LINE
8
BLACK
6
CONTINUOUS
10
0.0483269
20
1.147
11
0.0520764
21
1.14512
0
LINE
8
BLACK
6
CONTINUOUS
10
0.0520764
20
1.14512
11
0.0529001
21
1.14451
0
LINE
8
BLACK
6
CONTINUOUS
10
0.0529001
20
1.14451
11
0.0530759
21
1.14411
0
LINE
8
BLACK
6
CONTINUOUS
10
0.0530759
20
1.14411
11
0.0533969
21
1.1438
0
LINE
8
BLACK
6
CONTINUOUS
10
0.0533969
20
1.1438
11
0.0552717
21
1.14005
0
LINE
8
BLACK
6
CONTINUOUS
10
0.0552717
20
1.14005
11
0.0555641
21
1.13907
0
LINE
8
BLACK
6
CONTINUOUS
10
0.0555641
20
1.13907
11
0.055523
21
1.1389
0
LINE
8
BLACK
6
CONTINUOUS
10
0.055523
20
1.1389
11
0.0555834
21
1.13873
0
LINE
8
BLACK
6
CONTINUOUS
10
0.0555834
20
1.13873
11
0.0555834
21
1.13123
0
LINE
8
BLACK
6
CONTINUOUS
10
0.0555834
20
1.13123
11
0.0554054
21
1.13022
0
LINE
8
BLACK
6
CONTINUOUS
10
0.0554054
20
1.13022
11
0.0552919
21
1.13009
0
LINE
8
BLACK
6
CONTINUOUS
10
0.0552919
20
1.13009
11
0.0552717
21
1.12991
0
LINE
8
BLACK
6
CONTINUOUS
10
0.0552717
20
1.12991
11
0.0533969
21
1.12616
0
LINE
8
BLACK
6
CONTINUOUS
10
0.0533969
20
1.12616
11
0.052786
21
1.12534
0
LINE
8
BLACK
6
CONTINUOUS
10
0.052786
20
1.12534
11
0.0509328
21
1.12454
0
LINE
8
BLACK
6
CONTINUOUS
10
0.0509328
20
1.12454
11
0.0489968
21
1.12511
0
LINE
8
BLACK
6
CONTINUOUS
10
0.0489968
20
1.12511
11
0.047884
21
1.1268
0
LINE
8
BLACK
6
CONTINUOUS
10
0.047884
20
1.1268
11
0.0481149
21
1.1288
0
LINE
8
BLACK
6
CONTINUOUS
10
0.0481149
20
1.1288
11
0.0496779
21
1.13193
0
LINE
8
BLACK
6
CONTINUOUS
10
0.0496779
20
1.13193
11
0.0496779
21
1.13804
0
LINE
8
BLACK
6
CONTINUOUS
10
0.0496779
20
1.13804
11
0.048555
21
1.14028
0
LINE
8
BLACK
6
CONTINUOUS
10
0.048555
20
1.14028
11
0.0463093
21
1.1414
0
LINE
8
BLACK
6
CONTINUOUS
10
0.0463093
20
1.1414
11
0.0458286
21
1.1414
0
LINE
8
BLACK
6
CONTINUOUS
10
0.0458286
20
1.1414
11
0.0435829
21
1.14028
0
LINE
8
BLACK
6
CONTINUOUS
10
0.0435829
20
1.14028
11
0.04246
21
1.13804
0
LINE
8
BLACK
6
CONTINUOUS
10
0.04246
20
1.13804
11
0.04246
21
1.13311
0
LINE
8
BLACK
6
CONTINUOUS
10
0.04246
20
1.13311
11
0.042282
21
1.1321
0
LINE
8
BLACK
6
CONTINUOUS
10
0.042282
20
1.1321
11
0.0421685
21
1.13196
0
LINE
8
BLACK
6
CONTINUOUS
10
0.0421685
20
1.13196
11
0.0421483
21
1.13179
0
LINE
8
BLACK
6
CONTINUOUS
10
0.0421483
20
1.13179
11
0.0402735
21
1.12804
0
LINE
8
BLACK
6
CONTINUOUS
10
0.0402735
20
1.12804
11
0.0396626
21
1.12721
0
LINE
8
BLACK
6
CONTINUOUS
10
0.0396626
20
1.12721
11
0.0392569
21
1.12704
0
LINE
8
BLACK
6
CONTINUOUS
10
0.0392569
20
1.12704
11
0.038953
21
1.12672
0
LINE
8
BLACK
6
CONTINUOUS
10
0.038953
20
1.12672
11
0.0352035
21
1.12484
0
LINE
8
BLACK
6
CONTINUOUS
10
0.0352035
20
1.12484
11
0.0342206
21
1.12455
0
LINE
8
BLACK
6
CONTINUOUS
10
0.0342206
20
1.12455
11
0.0340489
21
1.12459
0
LINE
8
BLACK
6
CONTINUOUS
10
0.0340489
20
1.12459
11
0.033883
21
1.12453
0
LINE
8
BLACK
6
CONTINUOUS
10
0.033883
20
1.12453
11
0.0320082
21
1.12453
0
LINE
8
BLACK
6
CONTINUOUS
10
0.0320082
20
1.12453
11
0.0309983
21
1.12471
0
LINE
8
BLACK
6
CONTINUOUS
10
0.0309983
20
1.12471
11
0.030863
21
1.12482
0
LINE
8
BLACK
6
CONTINUOUS
10
0.030863
20
1.12482
11
0.0306877
21
1.12484
0
LINE
8
BLACK
6
CONTINUOUS
10
0.0306877
20
1.12484
11
0.0269382
21
1.12672
0
LINE
8
BLACK
6
CONTINUOUS
10
0.0269382
20
1.12672
11
0.0261145
21
1.12733
0
LINE
8
BLACK
6
CONTINUOUS
10
0.0261145
20
1.12733
11
0.0259387
21
1.12773
0
LINE
8
BLACK
6
CONTINUOUS
10
0.0259387
20
1.12773
11
0.0256177
21
1.12804
0
LINE
8
BLACK
6
CONTINUOUS
10
0.0256177
20
1.12804
11
0.0237429
21
1.13179
0
LINE
8
BLACK
6
CONTINUOUS
10
0.0237429
20
1.13179
11
0.0234506
21
1.13277
0
LINE
8
BLACK
6
CONTINUOUS
10
0.0234506
20
1.13277
11
0.0234915
21
1.13294
0
LINE
8
BLACK
6
CONTINUOUS
10
0.0234915
20
1.13294
11
0.0234312
21
1.13311
0
LINE
8
BLACK
6
CONTINUOUS
10
0.0234312
20
1.13311
11
0.0234312
21
1.13873
0
LINE
8
BLACK
6
CONTINUOUS
10
0.0234312
20
1.13873
11
0.0236093
21
1.13974
0
LINE
8
BLACK
6
CONTINUOUS
10
0.0236093
20
1.13974
11
0.0237227
21
1.13988
0
LINE
8
BLACK
6
CONTINUOUS
10
0.0237227
20
1.13988
11
0.0237429
21
1.14005
0
LINE
8
BLACK
6
CONTINUOUS
10
0.0237429
20
1.14005
11
0.0256177
21
1.1438
0
LINE
8
BLACK
6
CONTINUOUS
10
0.0256177
20
1.1438
11
0.0262286
21
1.14463
0
LINE
8
BLACK
6
CONTINUOUS
10
0.0262286
20
1.14463
11
0.0280818
21
1.14543
0
LINE
8
BLACK
6
CONTINUOUS
10
0.0280818
20
1.14543
11
0.0300178
21
1.14485
0
LINE
8
BLACK
6
CONTINUOUS
10
0.0300178
20
1.14485
11
0.0311306
21
1.14317
0
LINE
8
BLACK
6
CONTINUOUS
10
0.0311306
20
1.14317
11
0.0308997
21
1.14116
0
LINE
8
BLACK
6
CONTINUOUS
10
0.0308997
20
1.14116
11
0.0293367
21
1.13804
0
LINE
8
BLACK
6
CONTINUOUS
10
0.0293367
20
1.13804
11
0.0293367
21
1.13381
0
LINE
8
BLACK
6
CONTINUOUS
10
0.0293367
20
1.13381
11
0.0304595
21
1.13156
0
LINE
8
BLACK
6
CONTINUOUS
10
0.0304595
20
1.13156
11
0.0327053
21
1.13044
0
LINE
8
BLACK
6
CONTINUOUS
10
0.0327053
20
1.13044
11
0.0331859
21
1.13044
0
LINE
8
BLACK
6
CONTINUOUS
10
0.0331859
20
1.13044
11
0.0354317
21
1.13156
0
LINE
8
BLACK
6
CONTINUOUS
10
0.0354317
20
1.13156
11
0.0365545
21
1.13381
0
LINE
8
BLACK
6
CONTINUOUS
10
0.0365545
20
1.13381
11
0.0365545
21
1.13873
0
LINE
8
BLACK
6
CONTINUOUS
10
0.0365545
20
1.13873
11
0.0367326
21
1.13974
0
LINE
8
BLACK
6
CONTINUOUS
10
0.0367326
20
1.13974
11
0.0368461
21
1.13988
0
LINE
8
BLACK
6
CONTINUOUS
10
0.0368461
20
1.13988
11
0.0368663
21
1.14005
0
LINE
8
BLACK
6
CONTINUOUS
10
0.0368663
20
1.14005
11
0.038741
21
1.1438
0
LINE
8
BLACK
6
CONTINUOUS
10
0.038741
20
1.1438
11
0.0393519
21
1.14463
0
LINE
8
BLACK
6
CONTINUOUS
10
0.0393519
20
1.14463
11
0.0397576
21
1.1448
0
LINE
8
BLACK
6
CONTINUOUS
10
0.0397576
20
1.1448
11
0.0400615
21
1.14512
0
LINE
8
BLACK
6
CONTINUOUS
10
0.0400615
20
1.14512
11
0.0438111
21
1.147
0
LINE
8
BLACK
6
CONTINUOUS
10
0.0438111
20
1.147
11
0.044794
21
1.14729
0
LINE
8
BLACK
6
CONTINUOUS
10
0.044794
20
1.14729
11
0.0449657
21
1.14725
0
LINE
8
BLACK
6
CONTINUOUS
10
0.0449657
20
1.14725
11
0.0451316
21
1.14731
0
LINE
8
BLACK
6
CONTINUOUS
10
0.0451316
20
1.14731
11
0.0470063
21
1.14731
0
LINE
8
BLACK
6
CONTINUOUS
10
0.0470063
20
1.14731
11
0.0480163
21
1.14713
0
LINE
8
BLACK
6
CONTINUOUS
10
0.255937
20
2.09558
11
0.257167
21
2.09398
0
LINE
8
BLACK
6
CONTINUOUS
10
0.257167
20
2.09398
11
0.257079
21
2.09196
0
LINE
8
BLACK
6
CONTINUOUS
10
0.257079
20
2.09196
11
0.255714
21
2.09047
0
LINE
8
BLACK
6
CONTINUOUS
10
0.255714
20
2.09047
11
0.222067
21
2.07295
0
LINE
8
BLACK
6
CONTINUOUS
10
0.222067
20
2.07295
11
2.57793
21
2.07295
0
LINE
8
BLACK
6
CONTINUOUS
10
2.57793
20
2.07295
11
2.54429
21
2.09047
0
LINE
8
BLACK
6
CONTINUOUS
10
2.54429
20
2.09047
11
2.54347
21
2.09109
0
LINE
8
BLACK
6
CONTINUOUS
10
2.54347
20
2.09109
11
2.5427
21
2.09296
0
LINE
8
BLACK
6
CONTINUOUS
10
2.5427
20
2.09296
11
2.54331
21
2.09489
0
LINE
8
BLACK
6
CONTINUOUS
10
2.54331
20
2.09489
11
2.54501
21
2.09597
0
LINE
8
BLACK
6
CONTINUOUS
10
2.54501
20
2.09597
11
2.54701
21
2.09571
0
LINE
8
BLACK
6
CONTINUOUS
10
2.54701
20
2.09571
11
2.58705
21
2.07487
0
LINE
8
BLACK
6
CONTINUOUS
10
2.58705
20
2.07487
11
2.58705
21
2.09309
0
LINE
8
BLACK
6
CONTINUOUS
10
2.58705
20
2.09309
11
2.58723
21
2.0941
0
LINE
8
BLACK
6
CONTINUOUS
10
2.58723
20
2.0941
11
2.58852
21
2.09564
0
LINE
8
BLACK
6
CONTINUOUS
10
2.58852
20
2.09564
11
2.59051
21
2.096
0
LINE
8
BLACK
6
CONTINUOUS
10
2.59051
20
2.096
11
2.59226
21
2.09499
0
LINE
8
BLACK
6
CONTINUOUS
10
2.59226
20
2.09499
11
2.59295
21
2.09309
0
LINE
8
BLACK
6
CONTINUOUS
10
2.59295
20
2.09309
11
2.59295
21
1.80969
0
LINE
8
BLACK
6
CONTINUOUS
10
2.59295
20
1.80969
11
2.59277
21
1.80868
0
LINE
8
BLACK
6
CONTINUOUS
10
2.59277
20
1.80868
11
2.59148
21
1.80713
0
LINE
8
BLACK
6
CONTINUOUS
10
2.59148
20
1.80713
11
2.58949
21
1.80678
0
LINE
8
BLACK
6
CONTINUOUS
10
2.58949
20
1.80678
11
2.58774
21
1.80779
0
LINE
8
BLACK
6
CONTINUOUS
10
2.58774
20
1.80779
11
2.58705
21
1.80969
0
LINE
8
BLACK
6
CONTINUOUS
10
2.58705
20
1.80969
11
2.58705
21
2.06513
0
LINE
8
BLACK
6
CONTINUOUS
10
2.58705
20
2.06513
11
2.54701
21
2.04429
0
LINE
8
BLACK
6
CONTINUOUS
10
2.54701
20
2.04429
11
2.54603
21
2.04399
0
LINE
8
BLACK
6
CONTINUOUS
10
2.54603
20
2.04399
11
2.54406
21
2.04442
0
LINE
8
BLACK
6
CONTINUOUS
10
2.54406
20
2.04442
11
2.54283
21
2.04602
0
LINE
8
BLACK
6
CONTINUOUS
10
2.54283
20
2.04602
11
2.54292
21
2.04804
0
LINE
8
BLACK
6
CONTINUOUS
10
2.54292
20
2.04804
11
2.54429
21
2.04953
0
LINE
8
BLACK
6
CONTINUOUS
10
2.54429
20
2.04953
11
2.57793
21
2.06705
0
LINE
8
BLACK
6
CONTINUOUS
10
2.57793
20
2.06705
11
0.222067
21
2.06705
0
LINE
8
BLACK
6
CONTINUOUS
10
0.222067
20
2.06705
11
0.255714
21
2.04953
0
LINE
8
BLACK
6
CONTINUOUS
10
0.255714
20
2.04953
11
0.256528
21
2.04891
0
LINE
8
BLACK
6
CONTINUOUS
10
0.256528
20
2.04891
11
0.2573
21
2.04704
0
LINE
8
BLACK
6
CONTINUOUS
10
0.2573
20
2.04704
11
0.256693
21
2.04512
0
LINE
8
BLACK
6
CONTINUOUS
10
0.256693
20
2.04512
11
0.25499
21
2.04403
0
LINE
8
BLACK
6
CONTINUOUS
10
0.25499
20
2.04403
11
0.252987
21
2.04429
0
LINE
8
BLACK
6
CONTINUOUS
10
0.252987
20
2.04429
11
0.212953
21
2.06513
0
LINE
8
BLACK
6
CONTINUOUS
10
0.212953
20
2.06513
11
0.212953
21
1.80969
0
LINE
8
BLACK
6
CONTINUOUS
10
0.212953
20
1.80969
11
0.212775
21
1.80868
0
LINE
8
BLACK
6
CONTINUOUS
10
0.212775
20
1.80868
11
0.211476
21
1.80713
0
LINE
8
BLACK
6
CONTINUOUS
10
0.211476
20
1.80713
11
0.209487
21
1.80678
0
LINE
8
BLACK
6
CONTINUOUS
10
0.209487
20
1.80678
11
0.207738
21
1.80779
0
LINE
8
BLACK
6
CONTINUOUS
10
0.207738
20
1.80779
11
0.207047
21
1.80969
0
LINE
8
BLACK
6
CONTINUOUS
10
0.207047
20
1.80969
11
0.207047
21
2.09309
0
LINE
8
BLACK
6
CONTINUOUS
10
0.207047
20
2.09309
11
0.207225
21
2.0941
0
LINE
8
BLACK
6
CONTINUOUS
10
0.207225
20
2.0941
11
0.208524
21
2.09564
0
LINE
8
BLACK
6
CONTINUOUS
10
0.208524
20
2.09564
11
0.210513
21
2.096
0
LINE
8
BLACK
6
CONTINUOUS
10
0.210513
20
2.096
11
0.212262
21
2.09499
0
LINE
8
BLACK
6
CONTINUOUS
10
0.212262
20
2.09499
11
0.212953
21
2.09309
0
LINE
8
BLACK
6
CONTINUOUS
10
0.212953
20
2.09309
11
0.212953
21
2.07487
0
LINE
8
BLACK
6
CONTINUOUS
10
0.212953
20
2.07487
11
0.252987
21
2.09571
0
LINE
8
BLACK
6
CONTINUOUS
10
0.252987
20
2.09571
11
0.253965
21
2.09601
0
LINE
8
BLACK
6
CONTINUOUS
10
0.253965
20
2.09601
11
0.255937
21
2.09558
0
LINE
8
BLACK
6
CONTINUOUS
10
1.27165
20
2.13951
11
1.27179
21
2.1394
0
LINE
8
BLACK
6
CONTINUOUS
10
1.27179
20
2.1394
11
1.27196
21
2.13938
0
LINE
8
BLACK
6
CONTINUOUS
10
1.27196
20
2.13938
11
1.27571
21
2.13751
0
LINE
8
BLACK
6
CONTINUOUS
10
1.27571
20
2.13751
11
1.27642
21
2.13698
0
LINE
8
BLACK
6
CONTINUOUS
10
1.27642
20
2.13698
11
1.27648
21
2.13695
0
LINE
8
BLACK
6
CONTINUOUS
10
1.27648
20
2.13695
11
1.27835
21
2.13508
0
LINE
8
BLACK
6
CONTINUOUS
10
1.27835
20
2.13508
11
1.27886
21
2.13435
0
LINE
8
BLACK
6
CONTINUOUS
10
1.27886
20
2.13435
11
1.27891
21
2.13431
0
LINE
8
BLACK
6
CONTINUOUS
10
1.27891
20
2.13431
11
1.28078
21
2.13056
0
LINE
8
BLACK
6
CONTINUOUS
10
1.28078
20
2.13056
11
1.28107
21
2.12958
0
LINE
8
BLACK
6
CONTINUOUS
10
1.28107
20
2.12958
11
1.28103
21
2.12941
0
LINE
8
BLACK
6
CONTINUOUS
10
1.28103
20
2.12941
11
1.28109
21
2.12924
0
LINE
8
BLACK
6
CONTINUOUS
10
1.28109
20
2.12924
11
1.28109
21
2.12549
0
LINE
8
BLACK
6
CONTINUOUS
10
1.28109
20
2.12549
11
1.28094
21
2.12462
0
LINE
8
BLACK
6
CONTINUOUS
10
1.28094
20
2.12462
11
1.28094
21
2.12456
0
LINE
8
BLACK
6
CONTINUOUS
10
1.28094
20
2.12456
11
1.27907
21
2.11893
0
LINE
8
BLACK
6
CONTINUOUS
10
1.27907
20
2.11893
11
1.27858
21
2.11803
0
LINE
8
BLACK
6
CONTINUOUS
10
1.27858
20
2.11803
11
1.27843
21
2.11794
0
LINE
8
BLACK
6
CONTINUOUS
10
1.27843
20
2.11794
11
1.27835
21
2.11778
0
LINE
8
BLACK
6
CONTINUOUS
10
1.27835
20
2.11778
11
1.2609
21
2.10032
0
LINE
8
BLACK
6
CONTINUOUS
10
1.2609
20
2.10032
11
1.27814
21
2.10032
0
LINE
8
BLACK
6
CONTINUOUS
10
1.27814
20
2.10032
11
1.27915
21
2.10014
0
LINE
8
BLACK
6
CONTINUOUS
10
1.27915
20
2.10014
11
1.2807
21
2.09885
0
LINE
8
BLACK
6
CONTINUOUS
10
1.2807
20
2.09885
11
1.28105
21
2.09686
0
LINE
8
BLACK
6
CONTINUOUS
10
1.28105
20
2.09686
11
1.28004
21
2.09511
0
LINE
8
BLACK
6
CONTINUOUS
10
1.28004
20
2.09511
11
1.27814
21
2.09442
0
LINE
8
BLACK
6
CONTINUOUS
10
1.27814
20
2.09442
11
1.25377
21
2.09442
0
LINE
8
BLACK
6
CONTINUOUS
10
1.25377
20
2.09442
11
1.25313
21
2.09453
0
LINE
8
BLACK
6
CONTINUOUS
10
1.25313
20
2.09453
11
1.253
21
2.09452
0
LINE
8
BLACK
6
CONTINUOUS
10
1.253
20
2.09452
11
1.25294
21
2.09456
0
LINE
8
BLACK
6
CONTINUOUS
10
1.25294
20
2.09456
11
1.25276
21
2.09459
0
LINE
8
BLACK
6
CONTINUOUS
10
1.25276
20
2.09459
11
1.25208
21
2.09517
0
LINE
8
BLACK
6
CONTINUOUS
10
1.25208
20
2.09517
11
1.25135
21
2.09568
0
LINE
8
BLACK
6
CONTINUOUS
10
1.25135
20
2.09568
11
1.25131
21
2.09581
0
LINE
8
BLACK
6
CONTINUOUS
10
1.25131
20
2.09581
11
1.25121
21
2.09589
0
LINE
8
BLACK
6
CONTINUOUS
10
1.25121
20
2.09589
11
1.25106
21
2.09677
0
LINE
8
BLACK
6
CONTINUOUS
10
1.25106
20
2.09677
11
1.25083
21
2.09763
0
LINE
8
BLACK
6
CONTINUOUS
10
1.25083
20
2.09763
11
1.25088
21
2.09775
0
LINE
8
BLACK
6
CONTINUOUS
10
1.25088
20
2.09775
11
1.25086
21
2.09788
0
LINE
8
BLACK
6
CONTINUOUS
10
1.25086
20
2.09788
11
1.2513
21
2.09865
0
LINE
8
BLACK
6
CONTINUOUS
10
1.2513
20
2.09865
11
1.25168
21
2.09946
0
LINE
8
BLACK
6
CONTINUOUS
10
1.25168
20
2.09946
11
1.27368
21
2.12146
0
LINE
8
BLACK
6
CONTINUOUS
10
1.27368
20
2.12146
11
1.27519
21
2.12597
0
LINE
8
BLACK
6
CONTINUOUS
10
1.27519
20
2.12597
11
1.27519
21
2.12854
0
LINE
8
BLACK
6
CONTINUOUS
10
1.27519
20
2.12854
11
1.27384
21
2.13124
0
LINE
8
BLACK
6
CONTINUOUS
10
1.27384
20
2.13124
11
1.27264
21
2.13244
0
LINE
8
BLACK
6
CONTINUOUS
10
1.27264
20
2.13244
11
1.26994
21
2.13379
0
LINE
8
BLACK
6
CONTINUOUS
10
1.26994
20
2.13379
11
1.26196
21
2.13379
0
LINE
8
BLACK
6
CONTINUOUS
10
1.26196
20
2.13379
11
1.25927
21
2.13244
0
LINE
8
BLACK
6
CONTINUOUS
10
1.25927
20
2.13244
11
1.25773
21
2.1309
0
LINE
8
BLACK
6
CONTINUOUS
10
1.25773
20
2.1309
11
1.25689
21
2.13031
0
LINE
8
BLACK
6
CONTINUOUS
10
1.25689
20
2.13031
11
1.25488
21
2.13014
0
LINE
8
BLACK
6
CONTINUOUS
10
1.25488
20
2.13014
11
1.25322
21
2.1313
0
LINE
8
BLACK
6
CONTINUOUS
10
1.25322
20
2.1313
11
1.2527
21
2.13325
0
LINE
8
BLACK
6
CONTINUOUS
10
1.2527
20
2.13325
11
1.25356
21
2.13508
0
LINE
8
BLACK
6
CONTINUOUS
10
1.25356
20
2.13508
11
1.25543
21
2.13695
0
LINE
8
BLACK
6
CONTINUOUS
10
1.25543
20
2.13695
11
1.25615
21
2.13746
0
LINE
8
BLACK
6
CONTINUOUS
10
1.25615
20
2.13746
11
1.2562
21
2.13751
0
LINE
8
BLACK
6
CONTINUOUS
10
1.2562
20
2.13751
11
1.25995
21
2.13938
0
LINE
8
BLACK
6
CONTINUOUS
10
1.25995
20
2.13938
11
1.26093
21
2.13967
0
LINE
8
BLACK
6
CONTINUOUS
10
1.26093
20
2.13967
11
1.2611
21
2.13963
0
LINE
8
BLACK
6
CONTINUOUS
10
1.2611
20
2.13963
11
1.26127
21
2.13969
0
LINE
8
BLACK
6
CONTINUOUS
10
1.26127
20
2.13969
11
1.27064
21
2.13969
0
LINE
8
BLACK
6
CONTINUOUS
10
1.27064
20
2.13969
11
1.27165
21
2.13951
0
LINE
8
BLACK
6
CONTINUOUS
10
1.31607
20
2.13962
11
1.31621
21
2.13964
0
LINE
8
BLACK
6
CONTINUOUS
10
1.31621
20
2.13964
11
1.31631
21
2.13957
0
LINE
8
BLACK
6
CONTINUOUS
10
1.31631
20
2.13957
11
1.31665
21
2.13951
0
LINE
8
BLACK
6
CONTINUOUS
10
1.31665
20
2.13951
11
1.31726
21
2.139
0
LINE
8
BLACK
6
CONTINUOUS
10
1.31726
20
2.139
11
1.31794
21
2.13859
0
LINE
8
BLACK
6
CONTINUOUS
10
1.31794
20
2.13859
11
1.31801
21
2.13837
0
LINE
8
BLACK
6
CONTINUOUS
10
1.31801
20
2.13837
11
1.31819
21
2.13822
0
LINE
8
BLACK
6
CONTINUOUS
10
1.31819
20
2.13822
11
1.31833
21
2.13743
0
LINE
8
BLACK
6
CONTINUOUS
10
1.31833
20
2.13743
11
1.31859
21
2.13668
0
LINE
8
BLACK
6
CONTINUOUS
10
1.31859
20
2.13668
11
1.3185
21
2.13646
0
LINE
8
BLACK
6
CONTINUOUS
10
1.3185
20
2.13646
11
1.31854
21
2.13623
0
LINE
8
BLACK
6
CONTINUOUS
10
1.31854
20
2.13623
11
1.31815
21
2.13554
0
LINE
8
BLACK
6
CONTINUOUS
10
1.31815
20
2.13554
11
1.31786
21
2.13479
0
LINE
8
BLACK
6
CONTINUOUS
10
1.31786
20
2.13479
11
1.3089
21
2.12456
0
LINE
8
BLACK
6
CONTINUOUS
10
1.3089
20
2.12456
11
1.30915
21
2.12452
0
LINE
8
BLACK
6
CONTINUOUS
10
1.30915
20
2.12452
11
1.30928
21
2.1244
0
LINE
8
BLACK
6
CONTINUOUS
10
1.30928
20
2.1244
11
1.30946
21
2.12438
0
LINE
8
BLACK
6
CONTINUOUS
10
1.30946
20
2.12438
11
1.31321
21
2.12251
0
LINE
8
BLACK
6
CONTINUOUS
10
1.31321
20
2.12251
11
1.31392
21
2.12198
0
LINE
8
BLACK
6
CONTINUOUS
10
1.31392
20
2.12198
11
1.31397
21
2.12195
0
LINE
8
BLACK
6
CONTINUOUS
10
1.31397
20
2.12195
11
1.31585
21
2.12008
0
LINE
8
BLACK
6
CONTINUOUS
10
1.31585
20
2.12008
11
1.31635
21
2.11936
0
LINE
8
BLACK
6
CONTINUOUS
10
1.31635
20
2.11936
11
1.3164
21
2.11931
0
LINE
8
BLACK
6
CONTINUOUS
10
1.3164
20
2.11931
11
1.31828
21
2.11556
0
LINE
8
BLACK
6
CONTINUOUS
10
1.31828
20
2.11556
11
1.31857
21
2.11458
0
LINE
8
BLACK
6
CONTINUOUS
10
1.31857
20
2.11458
11
1.31853
21
2.11441
0
LINE
8
BLACK
6
CONTINUOUS
10
1.31853
20
2.11441
11
1.31859
21
2.11424
0
LINE
8
BLACK
6
CONTINUOUS
10
1.31859
20
2.11424
11
1.31859
21
2.10487
0
LINE
8
BLACK
6
CONTINUOUS
10
1.31859
20
2.10487
11
1.31841
21
2.10386
0
LINE
8
BLACK
6
CONTINUOUS
10
1.31841
20
2.10386
11
1.3183
21
2.10372
0
LINE
8
BLACK
6
CONTINUOUS
10
1.3183
20
2.10372
11
1.31828
21
2.10355
0
LINE
8
BLACK
6
CONTINUOUS
10
1.31828
20
2.10355
11
1.3164
21
2.0998
0
LINE
8
BLACK
6
CONTINUOUS
10
1.3164
20
2.0998
11
1.31588
21
2.09909
0
LINE
8
BLACK
6
CONTINUOUS
10
1.31588
20
2.09909
11
1.31585
21
2.09903
0
LINE
8
BLACK
6
CONTINUOUS
10
1.31585
20
2.09903
11
1.31397
21
2.09716
0
LINE
8
BLACK
6
CONTINUOUS
10
1.31397
20
2.09716
11
1.31325
21
2.09665
0
LINE
8
BLACK
6
CONTINUOUS
10
1.31325
20
2.09665
11
1.31321
21
2.0966
0
LINE
8
BLACK
6
CONTINUOUS
10
1.31321
20
2.0966
11
1.30946
21
2.09473
0
LINE
8
BLACK
6
CONTINUOUS
10
1.30946
20
2.09473
11
1.30847
21
2.09444
0
LINE
8
BLACK
6
CONTINUOUS
10
1.30847
20
2.09444
11
1.3083
21
2.09448
0
LINE
8
BLACK
6
CONTINUOUS
10
1.3083
20
2.09448
11
1.30814
21
2.09442
0
LINE
8
BLACK
6
CONTINUOUS
10
1.30814
20
2.09442
11
1.29689
21
2.09442
0
LINE
8
BLACK
6
CONTINUOUS
10
1.29689
20
2.09442
11
1.29588
21
2.09459
0
LINE
8
BLACK
6
CONTINUOUS
10
1.29588
20
2.09459
11
1.29574
21
2.09471
0
LINE
8
BLACK
6
CONTINUOUS
10
1.29574
20
2.09471
11
1.29557
21
2.09473
0
LINE
8
BLACK
6
CONTINUOUS
10
1.29557
20
2.09473
11
1.29182
21
2.0966
0
LINE
8
BLACK
6
CONTINUOUS
10
1.29182
20
2.0966
11
1.29111
21
2.09713
0
LINE
8
BLACK
6
CONTINUOUS
10
1.29111
20
2.09713
11
1.29105
21
2.09716
0
LINE
8
BLACK
6
CONTINUOUS
10
1.29105
20
2.09716
11
1.28918
21
2.09903
0
LINE
8
BLACK
6
CONTINUOUS
10
1.28918
20
2.09903
11
1.28859
21
2.09987
0
LINE
8
BLACK
6
CONTINUOUS
10
1.28859
20
2.09987
11
1.28841
21
2.10188
0
LINE
8
BLACK
6
CONTINUOUS
10
1.28841
20
2.10188
11
1.28957
21
2.10354
0
LINE
8
BLACK
6
CONTINUOUS
10
1.28957
20
2.10354
11
1.29152
21
2.10406
0
LINE
8
BLACK
6
CONTINUOUS
10
1.29152
20
2.10406
11
1.29335
21
2.10321
0
LINE
8
BLACK
6
CONTINUOUS
10
1.29335
20
2.10321
11
1.29489
21
2.10167
0
LINE
8
BLACK
6
CONTINUOUS
10
1.29489
20
2.10167
11
1.29758
21
2.10032
0
LINE
8
BLACK
6
CONTINUOUS
10
1.29758
20
2.10032
11
1.30744
21
2.10032
0
LINE
8
BLACK
6
CONTINUOUS
10
1.30744
20
2.10032
11
1.31014
21
2.10167
0
LINE
8
BLACK
6
CONTINUOUS
10
1.31014
20
2.10167
11
1.31133
21
2.10287
0
LINE
8
BLACK
6
CONTINUOUS
10
1.31133
20
2.10287
11
1.31268
21
2.10557
0
LINE
8
BLACK
6
CONTINUOUS
10
1.31268
20
2.10557
11
1.31268
21
2.11355
0
LINE
8
BLACK
6
CONTINUOUS
10
1.31268
20
2.11355
11
1.31133
21
2.11624
0
LINE
8
BLACK
6
CONTINUOUS
10
1.31133
20
2.11624
11
1.31014
21
2.11744
0
LINE
8
BLACK
6
CONTINUOUS
10
1.31014
20
2.11744
11
1.30744
21
2.11879
0
LINE
8
BLACK
6
CONTINUOUS
10
1.30744
20
2.11879
11
1.30251
21
2.11879
0
LINE
8
BLACK
6
CONTINUOUS
10
1.30251
20
2.11879
11
1.30207
21
2.11887
0
LINE
8
BLACK
6
CONTINUOUS
10
1.30207
20
2.11887
11
1.30194
21
2.11884
0
LINE
8
BLACK
6
CONTINUOUS
10
1.30194
20
2.11884
11
1.30183
21
2.11891
0
LINE
8
BLACK
6
CONTINUOUS
10
1.30183
20
2.11891
11
1.3015
21
2.11897
0
LINE
8
BLACK
6
CONTINUOUS
10
1.3015
20
2.11897
11
1.30089
21
2.11948
0
LINE
8
BLACK
6
CONTINUOUS
10
1.30089
20
2.11948
11
1.30021
21
2.11989
0
LINE
8
BLACK
6
CONTINUOUS
10
1.30021
20
2.11989
11
1.30014
21
2.12011
0
LINE
8
BLACK
6
CONTINUOUS
10
1.30014
20
2.12011
11
1.29995
21
2.12026
0
LINE
8
BLACK
6
CONTINUOUS
10
1.29995
20
2.12026
11
1.29982
21
2.12105
0
LINE
8
BLACK
6
CONTINUOUS
10
1.29982
20
2.12105
11
1.29956
21
2.1218
0
LINE
8
BLACK
6
CONTINUOUS
10
1.29956
20
2.1218
11
1.29965
21
2.12202
0
LINE
8
BLACK
6
CONTINUOUS
10
1.29965
20
2.12202
11
1.2996
21
2.12225
0
LINE
8
BLACK
6
CONTINUOUS
10
1.2996
20
2.12225
11
1.3
21
2.12294
0
LINE
8
BLACK
6
CONTINUOUS
10
1.3
20
2.12294
11
1.30029
21
2.12369
0
LINE
8
BLACK
6
CONTINUOUS
10
1.30029
20
2.12369
11
1.30913
21
2.13379
0
LINE
8
BLACK
6
CONTINUOUS
10
1.30913
20
2.13379
11
1.29126
21
2.13379
0
LINE
8
BLACK
6
CONTINUOUS
10
1.29126
20
2.13379
11
1.29025
21
2.13396
0
LINE
8
BLACK
6
CONTINUOUS
10
1.29025
20
2.13396
11
1.28871
21
2.13526
0
LINE
8
BLACK
6
CONTINUOUS
10
1.28871
20
2.13526
11
1.28836
21
2.13725
0
LINE
8
BLACK
6
CONTINUOUS
10
1.28836
20
2.13725
11
1.28937
21
2.139
0
LINE
8
BLACK
6
CONTINUOUS
10
1.28937
20
2.139
11
1.29126
21
2.13969
0
LINE
8
BLACK
6
CONTINUOUS
10
1.29126
20
2.13969
11
1.31564
21
2.13969
0
LINE
8
BLACK
6
CONTINUOUS
10
1.31564
20
2.13969
11
1.31607
21
2.13962
0
LINE
8
BLACK
6
CONTINUOUS
10
1.34664
20
2.13951
11
1.34678
21
2.1394
0
LINE
8
BLACK
6
CONTINUOUS
10
1.34678
20
2.1394
11
1.34695
21
2.13938
0
LINE
8
BLACK
6
CONTINUOUS
10
1.34695
20
2.13938
11
1.3507
21
2.13751
0
LINE
8
BLACK
6
CONTINUOUS
10
1.3507
20
2.13751
11
1.35141
21
2.13698
0
LINE
8
BLACK
6
CONTINUOUS
10
1.35141
20
2.13698
11
1.35147
21
2.13695
0
LINE
8
BLACK
6
CONTINUOUS
10
1.35147
20
2.13695
11
1.35334
21
2.13508
0
LINE
8
BLACK
6
CONTINUOUS
10
1.35334
20
2.13508
11
1.35385
21
2.13435
0
LINE
8
BLACK
6
CONTINUOUS
10
1.35385
20
2.13435
11
1.3539
21
2.13431
0
LINE
8
BLACK
6
CONTINUOUS
10
1.3539
20
2.13431
11
1.35577
21
2.13056
0
LINE
8
BLACK
6
CONTINUOUS
10
1.35577
20
2.13056
11
1.35606
21
2.12958
0
LINE
8
BLACK
6
CONTINUOUS
10
1.35606
20
2.12958
11
1.35602
21
2.12941
0
LINE
8
BLACK
6
CONTINUOUS
10
1.35602
20
2.12941
11
1.35608
21
2.12924
0
LINE
8
BLACK
6
CONTINUOUS
10
1.35608
20
2.12924
11
1.35608
21
2.12737
0
LINE
8
BLACK
6
CONTINUOUS
10
1.35608
20
2.12737
11
1.35591
21
2.12636
0
LINE
8
BLACK
6
CONTINUOUS
10
1.35591
20
2.12636
11
1.35579
21
2.12622
0
LINE
8
BLACK
6
CONTINUOUS
10
1.35579
20
2.12622
11
1.35577
21
2.12605
0
LINE
8
BLACK
6
CONTINUOUS
10
1.35577
20
2.12605
11
1.3539
21
2.1223
0
LINE
8
BLACK
6
CONTINUOUS
10
1.3539
20
2.1223
11
1.35337
21
2.12159
0
LINE
8
BLACK
6
CONTINUOUS
10
1.35337
20
2.12159
11
1.35334
21
2.12153
0
LINE
8
BLACK
6
CONTINUOUS
10
1.35334
20
2.12153
11
1.35168
21
2.11987
0
LINE
8
BLACK
6
CONTINUOUS
10
1.35168
20
2.11987
11
1.35334
21
2.1182
0
LINE
8
BLACK
6
CONTINUOUS
10
1.35334
20
2.1182
11
1.35385
21
2.11748
0
LINE
8
BLACK
6
CONTINUOUS
10
1.35385
20
2.11748
11
1.3539
21
2.11744
0
LINE
8
BLACK
6
CONTINUOUS
10
1.3539
20
2.11744
11
1.35577
21
2.11369
0
LINE
8
BLACK
6
CONTINUOUS
10
1.35577
20
2.11369
11
1.35606
21
2.11271
0
LINE
8
BLACK
6
CONTINUOUS
10
1.35606
20
2.11271
11
1.35602
21
2.11253
0
LINE
8
BLACK
6
CONTINUOUS
10
1.35602
20
2.11253
11
1.35608
21
2.11237
0
LINE
8
BLACK
6
CONTINUOUS
10
1.35608
20
2.11237
11
1.35608
21
2.10487
0
LINE
8
BLACK
6
CONTINUOUS
10
1.35608
20
2.10487
11
1.35591
21
2.10386
0
LINE
8
BLACK
6
CONTINUOUS
10
1.35591
20
2.10386
11
1.35579
21
2.10372
0
LINE
8
BLACK
6
CONTINUOUS
10
1.35579
20
2.10372
11
1.35577
21
2.10355
0
LINE
8
BLACK
6
CONTINUOUS
10
1.35577
20
2.10355
11
1.3539
21
2.0998
0
LINE
8
BLACK
6
CONTINUOUS
10
1.3539
20
2.0998
11
1.35337
21
2.09909
0
LINE
8
BLACK
6
CONTINUOUS
10
1.35337
20
2.09909
11
1.35334
21
2.09903
0
LINE
8
BLACK
6
CONTINUOUS
10
1.35334
20
2.09903
11
1.35147
21
2.09716
0
LINE
8
BLACK
6
CONTINUOUS
10
1.35147
20
2.09716
11
1.35075
21
2.09665
0
LINE
8
BLACK
6
CONTINUOUS
10
1.35075
20
2.09665
11
1.3507
21
2.0966
0
LINE
8
BLACK
6
CONTINUOUS
10
1.3507
20
2.0966
11
1.34695
21
2.09473
0
LINE
8
BLACK
6
CONTINUOUS
10
1.34695
20
2.09473
11
1.34597
21
2.09444
0
LINE
8
BLACK
6
CONTINUOUS
10
1.34597
20
2.09444
11
1.3458
21
2.09448
0
LINE
8
BLACK
6
CONTINUOUS
10
1.3458
20
2.09448
11
1.34563
21
2.09442
0
LINE
8
BLACK
6
CONTINUOUS
10
1.34563
20
2.09442
11
1.33813
21
2.09442
0
LINE
8
BLACK
6
CONTINUOUS
10
1.33813
20
2.09442
11
1.33712
21
2.09459
0
LINE
8
BLACK
6
CONTINUOUS
10
1.33712
20
2.09459
11
1.33699
21
2.09471
0
LINE
8
BLACK
6
CONTINUOUS
10
1.33699
20
2.09471
11
1.33681
21
2.09473
0
LINE
8
BLACK
6
CONTINUOUS
10
1.33681
20
2.09473
11
1.33306
21
2.0966
0
LINE
8
BLACK
6
CONTINUOUS
10
1.33306
20
2.0966
11
1.33235
21
2.09713
0
LINE
8
BLACK
6
CONTINUOUS
10
1.33235
20
2.09713
11
1.3323
21
2.09716
0
LINE
8
BLACK
6
CONTINUOUS
10
1.3323
20
2.09716
11
1.33042
21
2.09903
0
LINE
8
BLACK
6
CONTINUOUS
10
1.33042
20
2.09903
11
1.32991
21
2.09975
0
LINE
8
BLACK
6
CONTINUOUS
10
1.32991
20
2.09975
11
1.32987
21
2.0998
0
LINE
8
BLACK
6
CONTINUOUS
10
1.32987
20
2.0998
11
1.32799
21
2.10355
0
LINE
8
BLACK
6
CONTINUOUS
10
1.32799
20
2.10355
11
1.3277
21
2.10453
0
LINE
8
BLACK
6
CONTINUOUS
10
1.3277
20
2.10453
11
1.32774
21
2.1047
0
LINE
8
BLACK
6
CONTINUOUS
10
1.32774
20
2.1047
11
1.32768
21
2.10487
0
LINE
8
BLACK
6
CONTINUOUS
10
1.32768
20
2.10487
11
1.32768
21
2.11237
0
LINE
8
BLACK
6
CONTINUOUS
10
1.32768
20
2.11237
11
1.32786
21
2.11338
0
LINE
8
BLACK
6
CONTINUOUS
10
1.32786
20
2.11338
11
1.32797
21
2.11351
0
LINE
8
BLACK
6
CONTINUOUS
10
1.32797
20
2.11351
11
1.32799
21
2.11369
0
LINE
8
BLACK
6
CONTINUOUS
10
1.32799
20
2.11369
11
1.32987
21
2.11744
0
LINE
8
BLACK
6
CONTINUOUS
10
1.32987
20
2.11744
11
1.33039
21
2.11815
0
LINE
8
BLACK
6
CONTINUOUS
10
1.33039
20
2.11815
11
1.33042
21
2.1182
0
LINE
8
BLACK
6
CONTINUOUS
10
1.33042
20
2.1182
11
1.33208
21
2.11987
0
LINE
8
BLACK
6
CONTINUOUS
10
1.33208
20
2.11987
11
1.33042
21
2.12153
0
LINE
8
BLACK
6
CONTINUOUS
10
1.33042
20
2.12153
11
1.32991
21
2.12225
0
LINE
8
BLACK
6
CONTINUOUS
10
1.32991
20
2.12225
11
1.32987
21
2.1223
0
LINE
8
BLACK
6
CONTINUOUS
10
1.32987
20
2.1223
11
1.32799
21
2.12605
0
LINE
8
BLACK
6
CONTINUOUS
10
1.32799
20
2.12605
11
1.3277
21
2.12703
0
LINE
8
BLACK
6
CONTINUOUS
10
1.3277
20
2.12703
11
1.32774
21
2.1272
0
LINE
8
BLACK
6
CONTINUOUS
10
1.32774
20
2.1272
11
1.32768
21
2.12737
0
LINE
8
BLACK
6
CONTINUOUS
10
1.32768
20
2.12737
11
1.32768
21
2.12924
0
LINE
8
BLACK
6
CONTINUOUS
10
1.32768
20
2.12924
11
1.32786
21
2.13025
0
LINE
8
BLACK
6
CONTINUOUS
10
1.32786
20
2.13025
11
1.32797
21
2.13039
0
LINE
8
BLACK
6
CONTINUOUS
10
1.32797
20
2.13039
11
1.32799
21
2.13056
0
LINE
8
BLACK
6
CONTINUOUS
10
1.32799
20
2.13056
11
1.32987
21
2.13431
0
LINE
8
BLACK
6
CONTINUOUS
10
1.32987
20
2.13431
11
1.33039
21
2.13502
0
LINE
8
BLACK
6
CONTINUOUS
10
1.33039
20
2.13502
11
1.33042
21
2.13508
0
LINE
8
BLACK
6
CONTINUOUS
10
1.33042
20
2.13508
11
1.3323
21
2.13695
0
LINE
8
BLACK
6
CONTINUOUS
10
1.3323
20
2.13695
11
1.33302
21
2.13746
0
LINE
8
BLACK
6
CONTINUOUS
10
1.33302
20
2.13746
11
1.33306
21
2.13751
0
LINE
8
BLACK
6
CONTINUOUS
10
1.33306
20
2.13751
11
1.33681
21
2.13938
0
LINE
8
BLACK
6
CONTINUOUS
10
1.33681
20
2.13938
11
1.3378
21
2.13967
0
LINE
8
BLACK
6
CONTINUOUS
10
1.3378
20
2.13967
11
1.33797
21
2.13963
0
LINE
8
BLACK
6
CONTINUOUS
10
1.33797
20
2.13963
11
1.33813
21
2.13969
0
LINE
8
BLACK
6
CONTINUOUS
10
1.33813
20
2.13969
11
1.34563
21
2.13969
0
LINE
8
BLACK
6
CONTINUOUS
10
1.34563
20
2.13969
11
1.34664
21
2.13951
0
LINE
8
BLACK
6
CONTINUOUS
10
1.33613
20
2.11557
11
1.33494
21
2.11437
0
LINE
8
BLACK
6
CONTINUOUS
10
1.33494
20
2.11437
11
1.33359
21
2.11167
0
LINE
8
BLACK
6
CONTINUOUS
10
1.33359
20
2.11167
11
1.33359
21
2.10557
0
LINE
8
BLACK
6
CONTINUOUS
10
1.33359
20
2.10557
11
1.33494
21
2.10287
0
LINE
8
BLACK
6
CONTINUOUS
10
1.33494
20
2.10287
11
1.33613
21
2.10167
0
LINE
8
BLACK
6
CONTINUOUS
10
1.33613
20
2.10167
11
1.33883
21
2.10032
0
LINE
8
BLACK
6
CONTINUOUS
10
1.33883
20
2.10032
11
1.34493
21
2.10032
0
LINE
8
BLACK
6
CONTINUOUS
10
1.34493
20
2.10032
11
1.34763
21
2.10167
0
LINE
8
BLACK
6
CONTINUOUS
10
1.34763
20
2.10167
11
1.34883
21
2.10287
0
LINE
8
BLACK
6
CONTINUOUS
10
1.34883
20
2.10287
11
1.35018
21
2.10557
0
LINE
8
BLACK
6
CONTINUOUS
10
1.35018
20
2.10557
11
1.35018
21
2.11167
0
LINE
8
BLACK
6
CONTINUOUS
10
1.35018
20
2.11167
11
1.34883
21
2.11437
0
LINE
8
BLACK
6
CONTINUOUS
10
1.34883
20
2.11437
11
1.34763
21
2.11557
0
LINE
8
BLACK
6
CONTINUOUS
10
1.34763
20
2.11557
11
1.34493
21
2.11691
0
LINE
8
BLACK
6
CONTINUOUS
10
1.34493
20
2.11691
11
1.33883
21
2.11691
0
LINE
8
BLACK
6
CONTINUOUS
10
1.33883
20
2.11691
11
1.33613
21
2.11557
0
LINE
8
BLACK
6
CONTINUOUS
10
1.33613
20
2.13244
11
1.33494
21
2.13124
0
LINE
8
BLACK
6
CONTINUOUS
10
1.33494
20
2.13124
11
1.33359
21
2.12854
0
LINE
8
BLACK
6
CONTINUOUS
10
1.33359
20
2.12854
11
1.33359
21
2.12806
0
LINE
8
BLACK
6
CONTINUOUS
10
1.33359
20
2.12806
11
1.33494
21
2.12537
0
LINE
8
BLACK
6
CONTINUOUS
10
1.33494
20
2.12537
11
1.33613
21
2.12417
0
LINE
8
BLACK
6
CONTINUOUS
10
1.33613
20
2.12417
11
1.33883
21
2.12282
0
LINE
8
BLACK
6
CONTINUOUS
10
1.33883
20
2.12282
11
1.34493
21
2.12282
0
LINE
8
BLACK
6
CONTINUOUS
10
1.34493
20
2.12282
11
1.34763
21
2.12417
0
LINE
8
BLACK
6
CONTINUOUS
10
1.34763
20
2.12417
11
1.34883
21
2.12537
0
LINE
8
BLACK
6
CONTINUOUS
10
1.34883
20
2.12537
11
1.35018
21
2.12806
0
LINE
8
BLACK
6
CONTINUOUS
10
1.35018
20
2.12806
11
1.35018
21
2.12854
0
LINE
8
BLACK
6
CONTINUOUS
10
1.35018
20
2.12854
11
1.34883
21
2.13124
0
LINE
8
BLACK
6
CONTINUOUS
10
1.34883
20
2.13124
11
1.34763
21
2.13244
0
LINE
8
BLACK
6
CONTINUOUS
10
1.34763
20
2.13244
11
1.34493
21
2.13379
0
LINE
8
BLACK
6
CONTINUOUS
10
1.34493
20
2.13379
11
1.33883
21
2.13379
0
LINE
8
BLACK
6
CONTINUOUS
10
1.33883
20
2.13379
11
1.33613
21
2.13244
0
LINE
8
BLACK
6
CONTINUOUS
10
1.38226
20
2.13951
11
1.3824
21
2.1394
0
LINE
8
BLACK
6
CONTINUOUS
10
1.3824
20
2.1394
11
1.38257
21
2.13938
0
LINE
8
BLACK
6
CONTINUOUS
10
1.38257
20
2.13938
11
1.38632
21
2.13751
0
LINE
8
BLACK
6
CONTINUOUS
10
1.38632
20
2.13751
11
1.38703
21
2.13698
0
LINE
8
BLACK
6
CONTINUOUS
10
1.38703
20
2.13698
11
1.38709
21
2.13695
0
LINE
8
BLACK
6
CONTINUOUS
10
1.38709
20
2.13695
11
1.38896
21
2.13508
0
LINE
8
BLACK
6
CONTINUOUS
10
1.38896
20
2.13508
11
1.38947
21
2.13435
0
LINE
8
BLACK
6
CONTINUOUS
10
1.38947
20
2.13435
11
1.38952
21
2.13431
0
LINE
8
BLACK
6
CONTINUOUS
10
1.38952
20
2.13431
11
1.39139
21
2.13056
0
LINE
8
BLACK
6
CONTINUOUS
10
1.39139
20
2.13056
11
1.39154
21
2.13007
0
LINE
8
BLACK
6
CONTINUOUS
10
1.39154
20
2.13007
11
1.39162
21
2.12996
0
LINE
8
BLACK
6
CONTINUOUS
10
1.39162
20
2.12996
11
1.39349
21
2.12246
0
LINE
8
BLACK
6
CONTINUOUS
10
1.39349
20
2.12246
11
1.39353
21
2.12187
0
LINE
8
BLACK
6
CONTINUOUS
10
1.39353
20
2.12187
11
1.39358
21
2.12174
0
LINE
8
BLACK
6
CONTINUOUS
10
1.39358
20
2.12174
11
1.39358
21
2.11237
0
LINE
8
BLACK
6
CONTINUOUS
10
1.39358
20
2.11237
11
1.39348
21
2.11179
0
LINE
8
BLACK
6
CONTINUOUS
10
1.39348
20
2.11179
11
1.39349
21
2.11165
0
LINE
8
BLACK
6
CONTINUOUS
10
1.39349
20
2.11165
11
1.39162
21
2.10415
0
LINE
8
BLACK
6
CONTINUOUS
10
1.39162
20
2.10415
11
1.39141
21
2.10369
0
LINE
8
BLACK
6
CONTINUOUS
10
1.39141
20
2.10369
11
1.39139
21
2.10355
0
LINE
8
BLACK
6
CONTINUOUS
10
1.39139
20
2.10355
11
1.38952
21
2.0998
0
LINE
8
BLACK
6
CONTINUOUS
10
1.38952
20
2.0998
11
1.38899
21
2.09909
0
LINE
8
BLACK
6
CONTINUOUS
10
1.38899
20
2.09909
11
1.38896
21
2.09903
0
LINE
8
BLACK
6
CONTINUOUS
10
1.38896
20
2.09903
11
1.38709
21
2.09716
0
LINE
8
BLACK
6
CONTINUOUS
10
1.38709
20
2.09716
11
1.38637
21
2.09665
0
LINE
8
BLACK
6
CONTINUOUS
10
1.38637
20
2.09665
11
1.38632
21
2.0966
0
LINE
8
BLACK
6
CONTINUOUS
10
1.38632
20
2.0966
11
1.38257
21
2.09473
0
LINE
8
BLACK
6
CONTINUOUS
10
1.38257
20
2.09473
11
1.38159
21
2.09444
0
LINE
8
BLACK
6
CONTINUOUS
10
1.38159
20
2.09444
11
1.38142
21
2.09448
0
LINE
8
BLACK
6
CONTINUOUS
10
1.38142
20
2.09448
11
1.38125
21
2.09442
0
LINE
8
BLACK
6
CONTINUOUS
10
1.38125
20
2.09442
11
1.3775
21
2.09442
0
LINE
8
BLACK
6
CONTINUOUS
10
1.3775
20
2.09442
11
1.37649
21
2.09459
0
LINE
8
BLACK
6
CONTINUOUS
10
1.37649
20
2.09459
11
1.37636
21
2.09471
0
LINE
8
BLACK
6
CONTINUOUS
10
1.37636
20
2.09471
11
1.37618
21
2.09473
0
LINE
8
BLACK
6
CONTINUOUS
10
1.37618
20
2.09473
11
1.37243
21
2.0966
0
LINE
8
BLACK
6
CONTINUOUS
10
1.37243
20
2.0966
11
1.37172
21
2.09713
0
LINE
8
BLACK
6
CONTINUOUS
10
1.37172
20
2.09713
11
1.37167
21
2.09716
0
LINE
8
BLACK
6
CONTINUOUS
10
1.37167
20
2.09716
11
1.36979
21
2.09903
0
LINE
8
BLACK
6
CONTINUOUS
10
1.36979
20
2.09903
11
1.36928
21
2.09975
0
LINE
8
BLACK
6
CONTINUOUS
10
1.36928
20
2.09975
11
1.36924
21
2.0998
0
LINE
8
BLACK
6
CONTINUOUS
10
1.36924
20
2.0998
11
1.36736
21
2.10355
0
LINE
8
BLACK
6
CONTINUOUS
10
1.36736
20
2.10355
11
1.36722
21
2.10404
0
LINE
8
BLACK
6
CONTINUOUS
10
1.36722
20
2.10404
11
1.36714
21
2.10415
0
LINE
8
BLACK
6
CONTINUOUS
10
1.36714
20
2.10415
11
1.36526
21
2.11165
0
LINE
8
BLACK
6
CONTINUOUS
10
1.36526
20
2.11165
11
1.36522
21
2.11224
0
LINE
8
BLACK
6
CONTINUOUS
10
1.36522
20
2.11224
11
1.36518
21
2.11237
0
LINE
8
BLACK
6
CONTINUOUS
10
1.36518
20
2.11237
11
1.36518
21
2.12174
0
LINE
8
BLACK
6
CONTINUOUS
10
1.36518
20
2.12174
11
1.36528
21
2.12232
0
LINE
8
BLACK
6
CONTINUOUS
10
1.36528
20
2.12232
11
1.36526
21
2.12246
0
LINE
8
BLACK
6
CONTINUOUS
10
1.36526
20
2.12246
11
1.36714
21
2.12996
0
LINE
8
BLACK
6
CONTINUOUS
10
1.36714
20
2.12996
11
1.36735
21
2.13042
0
LINE
8
BLACK
6
CONTINUOUS
10
1.36735
20
2.13042
11
1.36736
21
2.13056
0
LINE
8
BLACK
6
CONTINUOUS
10
1.36736
20
2.13056
11
1.36924
21
2.13431
0
LINE
8
BLACK
6
CONTINUOUS
10
1.36924
20
2.13431
11
1.36976
21
2.13502
0
LINE
8
BLACK
6
CONTINUOUS
10
1.36976
20
2.13502
11
1.36979
21
2.13508
0
LINE
8
BLACK
6
CONTINUOUS
10
1.36979
20
2.13508
11
1.37167
21
2.13695
0
LINE
8
BLACK
6
CONTINUOUS
10
1.37167
20
2.13695
11
1.37239
21
2.13746
0
LINE
8
BLACK
6
CONTINUOUS
10
1.37239
20
2.13746
11
1.37243
21
2.13751
0
LINE
8
BLACK
6
CONTINUOUS
10
1.37243
20
2.13751
11
1.37618
21
2.13938
0
LINE
8
BLACK
6
CONTINUOUS
10
1.37618
20
2.13938
11
1.37717
21
2.13967
0
LINE
8
BLACK
6
CONTINUOUS
10
1.37717
20
2.13967
11
1.37734
21
2.13963
0
LINE
8
BLACK
6
CONTINUOUS
10
1.37734
20
2.13963
11
1.3775
21
2.13969
0
LINE
8
BLACK
6
CONTINUOUS
10
1.3775
20
2.13969
11
1.38125
21
2.13969
0
LINE
8
BLACK
6
CONTINUOUS
10
1.38125
20
2.13969
11
1.38226
21
2.13951
0
LINE
8
BLACK
6
CONTINUOUS
10
1.3755
20
2.13244
11
1.37431
21
2.13124
0
LINE
8
BLACK
6
CONTINUOUS
10
1.37431
20
2.13124
11
1.37279
21
2.12821
0
LINE
8
BLACK
6
CONTINUOUS
10
1.37279
20
2.12821
11
1.37108
21
2.12138
0
LINE
8
BLACK
6
CONTINUOUS
10
1.37108
20
2.12138
11
1.37108
21
2.11273
0
LINE
8
BLACK
6
CONTINUOUS
10
1.37108
20
2.11273
11
1.37279
21
2.1059
0
LINE
8
BLACK
6
CONTINUOUS
10
1.37279
20
2.1059
11
1.37431
21
2.10287
0
LINE
8
BLACK
6
CONTINUOUS
10
1.37431
20
2.10287
11
1.3755
21
2.10167
0
LINE
8
BLACK
6
CONTINUOUS
10
1.3755
20
2.10167
11
1.3782
21
2.10032
0
LINE
8
BLACK
6
CONTINUOUS
10
1.3782
20
2.10032
11
1.38056
21
2.10032
0
LINE
8
BLACK
6
CONTINUOUS
10
1.38056
20
2.10032
11
1.38325
21
2.10167
0
LINE
8
BLACK
6
CONTINUOUS
10
1.38325
20
2.10167
11
1.38445
21
2.10287
0
LINE
8
BLACK
6
CONTINUOUS
10
1.38445
20
2.10287
11
1.38597
21
2.1059
0
LINE
8
BLACK
6
CONTINUOUS
10
1.38597
20
2.1059
11
1.38767
21
2.11273
0
LINE
8
BLACK
6
CONTINUOUS
10
1.38767
20
2.11273
11
1.38767
21
2.12138
0
LINE
8
BLACK
6
CONTINUOUS
10
1.38767
20
2.12138
11
1.38597
21
2.12821
0
LINE
8
BLACK
6
CONTINUOUS
10
1.38597
20
2.12821
11
1.38445
21
2.13124
0
LINE
8
BLACK
6
CONTINUOUS
10
1.38445
20
2.13124
11
1.38325
21
2.13244
0
LINE
8
BLACK
6
CONTINUOUS
10
1.38325
20
2.13244
11
1.38056
21
2.13379
0
LINE
8
BLACK
6
CONTINUOUS
10
1.38056
20
2.13379
11
1.3782
21
2.13379
0
LINE
8
BLACK
6
CONTINUOUS
10
1.3782
20
2.13379
11
1.3755
21
2.13244
0
LINE
8
BLACK
6
CONTINUOUS
10
1.53974
20
2.12639
11
1.53988
21
2.12628
0
LINE
8
BLACK
6
CONTINUOUS
10
1.53988
20
2.12628
11
1.54005
21
2.12626
0
LINE
8
BLACK
6
CONTINUOUS
10
1.54005
20
2.12626
11
1.5438
21
2.12438
0
LINE
8
BLACK
6
CONTINUOUS
10
1.5438
20
2.12438
11
1.54463
21
2.12377
0
LINE
8
BLACK
6
CONTINUOUS
10
1.54463
20
2.12377
11
1.54543
21
2.12192
0
LINE
8
BLACK
6
CONTINUOUS
10
1.54543
20
2.12192
11
1.54485
21
2.11998
0
LINE
8
BLACK
6
CONTINUOUS
10
1.54485
20
2.11998
11
1.54317
21
2.11887
0
LINE
8
BLACK
6
CONTINUOUS
10
1.54317
20
2.11887
11
1.54116
21
2.1191
0
LINE
8
BLACK
6
CONTINUOUS
10
1.54116
20
2.1191
11
1.53804
21
2.12066
0
LINE
8
BLACK
6
CONTINUOUS
10
1.53804
20
2.12066
11
1.53381
21
2.12066
0
LINE
8
BLACK
6
CONTINUOUS
10
1.53381
20
2.12066
11
1.53156
21
2.11954
0
LINE
8
BLACK
6
CONTINUOUS
10
1.53156
20
2.11954
11
1.53044
21
2.11729
0
LINE
8
BLACK
6
CONTINUOUS
10
1.53044
20
2.11729
11
1.53044
21
2.11681
0
LINE
8
BLACK
6
CONTINUOUS
10
1.53044
20
2.11681
11
1.53156
21
2.11457
0
LINE
8
BLACK
6
CONTINUOUS
10
1.53156
20
2.11457
11
1.53381
21
2.11345
0
LINE
8
BLACK
6
CONTINUOUS
10
1.53381
20
2.11345
11
1.53873
21
2.11345
0
LINE
8
BLACK
6
CONTINUOUS
10
1.53873
20
2.11345
11
1.53974
21
2.11327
0
LINE
8
BLACK
6
CONTINUOUS
10
1.53974
20
2.11327
11
1.53988
21
2.11315
0
LINE
8
BLACK
6
CONTINUOUS
10
1.53988
20
2.11315
11
1.54005
21
2.11313
0
LINE
8
BLACK
6
CONTINUOUS
10
1.54005
20
2.11313
11
1.5438
21
2.11126
0
LINE
8
BLACK
6
CONTINUOUS
10
1.5438
20
2.11126
11
1.54463
21
2.11065
0
LINE
8
BLACK
6
CONTINUOUS
10
1.54463
20
2.11065
11
1.5448
21
2.11024
0
LINE
8
BLACK
6
CONTINUOUS
10
1.5448
20
2.11024
11
1.54512
21
2.10994
0
LINE
8
BLACK
6
CONTINUOUS
10
1.54512
20
2.10994
11
1.547
21
2.10619
0
LINE
8
BLACK
6
CONTINUOUS
10
1.547
20
2.10619
11
1.54729
21
2.10521
0
LINE
8
BLACK
6
CONTINUOUS
10
1.54729
20
2.10521
11
1.54725
21
2.10503
0
LINE
8
BLACK
6
CONTINUOUS
10
1.54725
20
2.10503
11
1.54731
21
2.10487
0
LINE
8
BLACK
6
CONTINUOUS
10
1.54731
20
2.10487
11
1.54731
21
2.10299
0
LINE
8
BLACK
6
CONTINUOUS
10
1.54731
20
2.10299
11
1.54713
21
2.10198
0
LINE
8
BLACK
6
CONTINUOUS
10
1.54713
20
2.10198
11
1.54702
21
2.10185
0
LINE
8
BLACK
6
CONTINUOUS
10
1.54702
20
2.10185
11
1.547
21
2.10167
0
LINE
8
BLACK
6
CONTINUOUS
10
1.547
20
2.10167
11
1.54512
21
2.09792
0
LINE
8
BLACK
6
CONTINUOUS
10
1.54512
20
2.09792
11
1.54451
21
2.0971
0
LINE
8
BLACK
6
CONTINUOUS
10
1.54451
20
2.0971
11
1.54411
21
2.09692
0
LINE
8
BLACK
6
CONTINUOUS
10
1.54411
20
2.09692
11
1.5438
21
2.0966
0
LINE
8
BLACK
6
CONTINUOUS
10
1.5438
20
2.0966
11
1.54005
21
2.09473
0
LINE
8
BLACK
6
CONTINUOUS
10
1.54005
20
2.09473
11
1.53907
21
2.09444
0
LINE
8
BLACK
6
CONTINUOUS
10
1.53907
20
2.09444
11
1.5389
21
2.09448
0
LINE
8
BLACK
6
CONTINUOUS
10
1.5389
20
2.09448
11
1.53873
21
2.09442
0
LINE
8
BLACK
6
CONTINUOUS
10
1.53873
20
2.09442
11
1.53123
21
2.09442
0
LINE
8
BLACK
6
CONTINUOUS
10
1.53123
20
2.09442
11
1.53022
21
2.09459
0
LINE
8
BLACK
6
CONTINUOUS
10
1.53022
20
2.09459
11
1.53009
21
2.09471
0
LINE
8
BLACK
6
CONTINUOUS
10
1.53009
20
2.09471
11
1.52991
21
2.09473
0
LINE
8
BLACK
6
CONTINUOUS
10
1.52991
20
2.09473
11
1.52616
21
2.0966
0
LINE
8
BLACK
6
CONTINUOUS
10
1.52616
20
2.0966
11
1.52534
21
2.09721
0
LINE
8
BLACK
6
CONTINUOUS
10
1.52534
20
2.09721
11
1.52454
21
2.09907
0
LINE
8
BLACK
6
CONTINUOUS
10
1.52454
20
2.09907
11
1.52511
21
2.101
0
LINE
8
BLACK
6
CONTINUOUS
10
1.52511
20
2.101
11
1.5268
21
2.10212
0
LINE
8
BLACK
6
CONTINUOUS
10
1.5268
20
2.10212
11
1.5288
21
2.10189
0
LINE
8
BLACK
6
CONTINUOUS
10
1.5288
20
2.10189
11
1.53193
21
2.10032
0
LINE
8
BLACK
6
CONTINUOUS
10
1.53193
20
2.10032
11
1.53804
21
2.10032
0
LINE
8
BLACK
6
CONTINUOUS
10
1.53804
20
2.10032
11
1.54028
21
2.10144
0
LINE
8
BLACK
6
CONTINUOUS
10
1.54028
20
2.10144
11
1.5414
21
2.10369
0
LINE
8
BLACK
6
CONTINUOUS
10
1.5414
20
2.10369
11
1.5414
21
2.10417
0
LINE
8
BLACK
6
CONTINUOUS
10
1.5414
20
2.10417
11
1.54028
21
2.10642
0
LINE
8
BLACK
6
CONTINUOUS
10
1.54028
20
2.10642
11
1.53804
21
2.10754
0
LINE
8
BLACK
6
CONTINUOUS
10
1.53804
20
2.10754
11
1.53311
21
2.10754
0
LINE
8
BLACK
6
CONTINUOUS
10
1.53311
20
2.10754
11
1.5321
21
2.10772
0
LINE
8
BLACK
6
CONTINUOUS
10
1.5321
20
2.10772
11
1.53196
21
2.10783
0
LINE
8
BLACK
6
CONTINUOUS
10
1.53196
20
2.10783
11
1.53179
21
2.10785
0
LINE
8
BLACK
6
CONTINUOUS
10
1.53179
20
2.10785
11
1.52804
21
2.10973
0
LINE
8
BLACK
6
CONTINUOUS
10
1.52804
20
2.10973
11
1.52721
21
2.11034
0
LINE
8
BLACK
6
CONTINUOUS
10
1.52721
20
2.11034
11
1.52704
21
2.11074
0
LINE
8
BLACK
6
CONTINUOUS
10
1.52704
20
2.11074
11
1.52672
21
2.11105
0
LINE
8
BLACK
6
CONTINUOUS
10
1.52672
20
2.11105
11
1.52484
21
2.1148
0
LINE
8
BLACK
6
CONTINUOUS
10
1.52484
20
2.1148
11
1.52455
21
2.11578
0
LINE
8
BLACK
6
CONTINUOUS
10
1.52455
20
2.11578
11
1.52459
21
2.11595
0
LINE
8
BLACK
6
CONTINUOUS
10
1.52459
20
2.11595
11
1.52453
21
2.11612
0
LINE
8
BLACK
6
CONTINUOUS
10
1.52453
20
2.11612
11
1.52453
21
2.11799
0
LINE
8
BLACK
6
CONTINUOUS
10
1.52453
20
2.11799
11
1.52471
21
2.119
0
LINE
8
BLACK
6
CONTINUOUS
10
1.52471
20
2.119
11
1.52482
21
2.11914
0
LINE
8
BLACK
6
CONTINUOUS
10
1.52482
20
2.11914
11
1.52484
21
2.11931
0
LINE
8
BLACK
6
CONTINUOUS
10
1.52484
20
2.11931
11
1.52672
21
2.12306
0
LINE
8
BLACK
6
CONTINUOUS
10
1.52672
20
2.12306
11
1.52733
21
2.12389
0
LINE
8
BLACK
6
CONTINUOUS
10
1.52733
20
2.12389
11
1.52773
21
2.12406
0
LINE
8
BLACK
6
CONTINUOUS
10
1.52773
20
2.12406
11
1.52804
21
2.12438
0
LINE
8
BLACK
6
CONTINUOUS
10
1.52804
20
2.12438
11
1.53179
21
2.12626
0
LINE
8
BLACK
6
CONTINUOUS
10
1.53179
20
2.12626
11
1.53277
21
2.12655
0
LINE
8
BLACK
6
CONTINUOUS
10
1.53277
20
2.12655
11
1.53294
21
2.12651
0
LINE
8
BLACK
6
CONTINUOUS
10
1.53294
20
2.12651
11
1.53311
21
2.12657
0
LINE
8
BLACK
6
CONTINUOUS
10
1.53311
20
2.12657
11
1.53873
21
2.12657
0
LINE
8
BLACK
6
CONTINUOUS
10
1.53873
20
2.12657
11
1.53974
21
2.12639
0
LINE
8
BLACK
6
CONTINUOUS
10
1.44975
20
2.12639
11
1.44989
21
2.12628
0
LINE
8
BLACK
6
CONTINUOUS
10
1.44989
20
2.12628
11
1.45006
21
2.12626
0
LINE
8
BLACK
6
CONTINUOUS
10
1.45006
20
2.12626
11
1.45381
21
2.12438
0
LINE
8
BLACK
6
CONTINUOUS
10
1.45381
20
2.12438
11
1.45438
21
2.12396
0
LINE
8
BLACK
6
CONTINUOUS
10
1.45438
20
2.12396
11
1.45462
21
2.12406
0
LINE
8
BLACK
6
CONTINUOUS
10
1.45462
20
2.12406
11
1.45492
21
2.12438
0
LINE
8
BLACK
6
CONTINUOUS
10
1.45492
20
2.12438
11
1.45867
21
2.12626
0
LINE
8
BLACK
6
CONTINUOUS
10
1.45867
20
2.12626
11
1.45965
21
2.12655
0
LINE
8
BLACK
6
CONTINUOUS
10
1.45965
20
2.12655
11
1.45983
21
2.12651
0
LINE
8
BLACK
6
CONTINUOUS
10
1.45983
20
2.12651
11
1.45999
21
2.12657
0
LINE
8
BLACK
6
CONTINUOUS
10
1.45999
20
2.12657
11
1.46562
21
2.12657
0
LINE
8
BLACK
6
CONTINUOUS
10
1.46562
20
2.12657
11
1.46663
21
2.12639
0
LINE
8
BLACK
6
CONTINUOUS
10
1.46663
20
2.12639
11
1.46676
21
2.12628
0
LINE
8
BLACK
6
CONTINUOUS
10
1.46676
20
2.12628
11
1.46694
21
2.12626
0
LINE
8
BLACK
6
CONTINUOUS
10
1.46694
20
2.12626
11
1.47069
21
2.12438
0
LINE
8
BLACK
6
CONTINUOUS
10
1.47069
20
2.12438
11
1.47151
21
2.12377
0
LINE
8
BLACK
6
CONTINUOUS
10
1.47151
20
2.12377
11
1.47169
21
2.12337
0
LINE
8
BLACK
6
CONTINUOUS
10
1.47169
20
2.12337
11
1.47201
21
2.12306
0
LINE
8
BLACK
6
CONTINUOUS
10
1.47201
20
2.12306
11
1.47388
21
2.11931
0
LINE
8
BLACK
6
CONTINUOUS
10
1.47388
20
2.11931
11
1.47417
21
2.11833
0
LINE
8
BLACK
6
CONTINUOUS
10
1.47417
20
2.11833
11
1.47413
21
2.11816
0
LINE
8
BLACK
6
CONTINUOUS
10
1.47413
20
2.11816
11
1.47419
21
2.11799
0
LINE
8
BLACK
6
CONTINUOUS
10
1.47419
20
2.11799
11
1.47419
21
2.09737
0
LINE
8
BLACK
6
CONTINUOUS
10
1.47419
20
2.09737
11
1.47402
21
2.09636
0
LINE
8
BLACK
6
CONTINUOUS
10
1.47402
20
2.09636
11
1.47272
21
2.09481
0
LINE
8
BLACK
6
CONTINUOUS
10
1.47272
20
2.09481
11
1.47073
21
2.09446
0
LINE
8
BLACK
6
CONTINUOUS
10
1.47073
20
2.09446
11
1.46898
21
2.09547
0
LINE
8
BLACK
6
CONTINUOUS
10
1.46898
20
2.09547
11
1.46829
21
2.09737
0
LINE
8
BLACK
6
CONTINUOUS
10
1.46829
20
2.09737
11
1.46829
21
2.11729
0
LINE
8
BLACK
6
CONTINUOUS
10
1.46829
20
2.11729
11
1.46717
21
2.11954
0
LINE
8
BLACK
6
CONTINUOUS
10
1.46717
20
2.11954
11
1.46492
21
2.12066
0
LINE
8
BLACK
6
CONTINUOUS
10
1.46492
20
2.12066
11
1.46069
21
2.12066
0
LINE
8
BLACK
6
CONTINUOUS
10
1.46069
20
2.12066
11
1.45844
21
2.11954
0
LINE
8
BLACK
6
CONTINUOUS
10
1.45844
20
2.11954
11
1.45732
21
2.11729
0
LINE
8
BLACK
6
CONTINUOUS
10
1.45732
20
2.11729
11
1.45732
21
2.09737
0
LINE
8
BLACK
6
CONTINUOUS
10
1.45732
20
2.09737
11
1.45714
21
2.09636
0
LINE
8
BLACK
6
CONTINUOUS
10
1.45714
20
2.09636
11
1.45584
21
2.09481
0
LINE
8
BLACK
6
CONTINUOUS
10
1.45584
20
2.09481
11
1.45386
21
2.09446
0
LINE
8
BLACK
6
CONTINUOUS
10
1.45386
20
2.09446
11
1.45211
21
2.09547
0
LINE
8
BLACK
6
CONTINUOUS
10
1.45211
20
2.09547
11
1.45142
21
2.09737
0
LINE
8
BLACK
6
CONTINUOUS
10
1.45142
20
2.09737
11
1.45142
21
2.11729
0
LINE
8
BLACK
6
CONTINUOUS
10
1.45142
20
2.11729
11
1.45029
21
2.11954
0
LINE
8
BLACK
6
CONTINUOUS
10
1.45029
20
2.11954
11
1.44805
21
2.12066
0
LINE
8
BLACK
6
CONTINUOUS
10
1.44805
20
2.12066
11
1.44382
21
2.12066
0
LINE
8
BLACK
6
CONTINUOUS
10
1.44382
20
2.12066
11
1.44112
21
2.11931
0
LINE
8
BLACK
6
CONTINUOUS
10
1.44112
20
2.11931
11
1.44045
21
2.11864
0
LINE
8
BLACK
6
CONTINUOUS
10
1.44045
20
2.11864
11
1.44045
21
2.09737
0
LINE
8
BLACK
6
CONTINUOUS
10
1.44045
20
2.09737
11
1.44027
21
2.09636
0
LINE
8
BLACK
6
CONTINUOUS
10
1.44027
20
2.09636
11
1.43897
21
2.09481
0
LINE
8
BLACK
6
CONTINUOUS
10
1.43897
20
2.09481
11
1.43698
21
2.09446
0
LINE
8
BLACK
6
CONTINUOUS
10
1.43698
20
2.09446
11
1.43523
21
2.09547
0
LINE
8
BLACK
6
CONTINUOUS
10
1.43523
20
2.09547
11
1.43454
21
2.09737
0
LINE
8
BLACK
6
CONTINUOUS
10
1.43454
20
2.09737
11
1.43454
21
2.12362
0
LINE
8
BLACK
6
CONTINUOUS
10
1.43454
20
2.12362
11
1.43472
21
2.12463
0
LINE
8
BLACK
6
CONTINUOUS
10
1.43472
20
2.12463
11
1.43602
21
2.12617
0
LINE
8
BLACK
6
CONTINUOUS
10
1.43602
20
2.12617
11
1.43801
21
2.12652
0
LINE
8
BLACK
6
CONTINUOUS
10
1.43801
20
2.12652
11
1.43976
21
2.12551
0
LINE
8
BLACK
6
CONTINUOUS
10
1.43976
20
2.12551
11
1.43984
21
2.12528
0
LINE
8
BLACK
6
CONTINUOUS
10
1.43984
20
2.12528
11
1.4418
21
2.12626
0
LINE
8
BLACK
6
CONTINUOUS
10
1.4418
20
2.12626
11
1.44278
21
2.12655
0
LINE
8
BLACK
6
CONTINUOUS
10
1.44278
20
2.12655
11
1.44295
21
2.12651
0
LINE
8
BLACK
6
CONTINUOUS
10
1.44295
20
2.12651
11
1.44312
21
2.12657
0
LINE
8
BLACK
6
CONTINUOUS
10
1.44312
20
2.12657
11
1.44874
21
2.12657
0
LINE
8
BLACK
6
CONTINUOUS
10
1.44874
20
2.12657
11
1.44975
21
2.12639
0
LINE
8
BLACK
6
CONTINUOUS
10
1.49225
20
2.12551
11
1.49294
21
2.12362
0
LINE
8
BLACK
6
CONTINUOUS
10
1.49294
20
2.12362
11
1.49294
21
2.09737
0
LINE
8
BLACK
6
CONTINUOUS
10
1.49294
20
2.09737
11
1.49276
21
2.09636
0
LINE
8
BLACK
6
CONTINUOUS
10
1.49276
20
2.09636
11
1.49147
21
2.09481
0
LINE
8
BLACK
6
CONTINUOUS
10
1.49147
20
2.09481
11
1.48948
21
2.09446
0
LINE
8
BLACK
6
CONTINUOUS
10
1.48948
20
2.09446
11
1.48773
21
2.09547
0
LINE
8
BLACK
6
CONTINUOUS
10
1.48773
20
2.09547
11
1.48704
21
2.09737
0
LINE
8
BLACK
6
CONTINUOUS
10
1.48704
20
2.09737
11
1.48704
21
2.12362
0
LINE
8
BLACK
6
CONTINUOUS
10
1.48704
20
2.12362
11
1.48721
21
2.12463
0
LINE
8
BLACK
6
CONTINUOUS
10
1.48721
20
2.12463
11
1.48851
21
2.12617
0
LINE
8
BLACK
6
CONTINUOUS
10
1.48851
20
2.12617
11
1.4905
21
2.12652
0
LINE
8
BLACK
6
CONTINUOUS
10
1.4905
20
2.12652
11
1.49225
21
2.12551
0
LINE
8
BLACK
6
CONTINUOUS
10
1.511
20
2.13864
11
1.51169
21
2.13674
0
LINE
8
BLACK
6
CONTINUOUS
10
1.51169
20
2.13674
11
1.51169
21
2.10369
0
LINE
8
BLACK
6
CONTINUOUS
10
1.51169
20
2.10369
11
1.51281
21
2.10144
0
LINE
8
BLACK
6
CONTINUOUS
10
1.51281
20
2.10144
11
1.51568
21
2.10001
0
LINE
8
BLACK
6
CONTINUOUS
10
1.51568
20
2.10001
11
1.5165
21
2.0994
0
LINE
8
BLACK
6
CONTINUOUS
10
1.5165
20
2.0994
11
1.51731
21
2.09755
0
LINE
8
BLACK
6
CONTINUOUS
10
1.51731
20
2.09755
11
1.51673
21
2.09561
0
LINE
8
BLACK
6
CONTINUOUS
10
1.51673
20
2.09561
11
1.51505
21
2.0945
0
LINE
8
BLACK
6
CONTINUOUS
10
1.51505
20
2.0945
11
1.51304
21
2.09473
0
LINE
8
BLACK
6
CONTINUOUS
10
1.51304
20
2.09473
11
1.50929
21
2.0966
0
LINE
8
BLACK
6
CONTINUOUS
10
1.50929
20
2.0966
11
1.50847
21
2.09721
0
LINE
8
BLACK
6
CONTINUOUS
10
1.50847
20
2.09721
11
1.50829
21
2.09762
0
LINE
8
BLACK
6
CONTINUOUS
10
1.50829
20
2.09762
11
1.50797
21
2.09792
0
LINE
8
BLACK
6
CONTINUOUS
10
1.50797
20
2.09792
11
1.5061
21
2.10167
0
LINE
8
BLACK
6
CONTINUOUS
10
1.5061
20
2.10167
11
1.5058
21
2.10266
0
LINE
8
BLACK
6
CONTINUOUS
10
1.5058
20
2.10266
11
1.50584
21
2.10283
0
LINE
8
BLACK
6
CONTINUOUS
10
1.50584
20
2.10283
11
1.50578
21
2.10299
0
LINE
8
BLACK
6
CONTINUOUS
10
1.50578
20
2.10299
11
1.50578
21
2.13674
0
LINE
8
BLACK
6
CONTINUOUS
10
1.50578
20
2.13674
11
1.50596
21
2.13775
0
LINE
8
BLACK
6
CONTINUOUS
10
1.50596
20
2.13775
11
1.50726
21
2.1393
0
LINE
8
BLACK
6
CONTINUOUS
10
1.50726
20
2.1393
11
1.50925
21
2.13965
0
LINE
8
BLACK
6
CONTINUOUS
10
1.50925
20
2.13965
11
1.511
21
2.13864
0
LINE
8
BLACK
6
CONTINUOUS
10
1.49037
20
2.13962
11
1.4905
21
2.13965
0
LINE
8
BLACK
6
CONTINUOUS
10
1.4905
20
2.13965
11
1.49062
21
2.13958
0
LINE
8
BLACK
6
CONTINUOUS
10
1.49062
20
2.13958
11
1.49075
21
2.13959
0
LINE
8
BLACK
6
CONTINUOUS
10
1.49075
20
2.13959
11
1.49138
21
2.13915
0
LINE
8
BLACK
6
CONTINUOUS
10
1.49138
20
2.13915
11
1.49208
21
2.13883
0
LINE
8
BLACK
6
CONTINUOUS
10
1.49208
20
2.13883
11
1.49395
21
2.13695
0
LINE
8
BLACK
6
CONTINUOUS
10
1.49395
20
2.13695
11
1.49417
21
2.13663
0
LINE
8
BLACK
6
CONTINUOUS
10
1.49417
20
2.13663
11
1.49428
21
2.13656
0
LINE
8
BLACK
6
CONTINUOUS
10
1.49428
20
2.13656
11
1.49432
21
2.13643
0
LINE
8
BLACK
6
CONTINUOUS
10
1.49432
20
2.13643
11
1.49454
21
2.13611
0
LINE
8
BLACK
6
CONTINUOUS
10
1.49454
20
2.13611
11
1.49461
21
2.13535
0
LINE
8
BLACK
6
CONTINUOUS
10
1.49461
20
2.13535
11
1.4948
21
2.13461
0
LINE
8
BLACK
6
CONTINUOUS
10
1.4948
20
2.13461
11
1.49469
21
2.13437
0
LINE
8
BLACK
6
CONTINUOUS
10
1.49469
20
2.13437
11
1.49472
21
2.1341
0
LINE
8
BLACK
6
CONTINUOUS
10
1.49472
20
2.1341
11
1.49428
21
2.13347
0
LINE
8
BLACK
6
CONTINUOUS
10
1.49428
20
2.13347
11
1.49395
21
2.13278
0
LINE
8
BLACK
6
CONTINUOUS
10
1.49395
20
2.13278
11
1.49208
21
2.1309
0
LINE
8
BLACK
6
CONTINUOUS
10
1.49208
20
2.1309
11
1.49176
21
2.13068
0
LINE
8
BLACK
6
CONTINUOUS
10
1.49176
20
2.13068
11
1.49168
21
2.13057
0
LINE
8
BLACK
6
CONTINUOUS
10
1.49168
20
2.13057
11
1.49156
21
2.13054
0
LINE
8
BLACK
6
CONTINUOUS
10
1.49156
20
2.13054
11
1.49155
21
2.13053
0
LINE
8
BLACK
6
CONTINUOUS
10
1.49155
20
2.13053
11
1.49147
21
2.13043
0
LINE
8
BLACK
6
CONTINUOUS
10
1.49147
20
2.13043
11
1.49139
21
2.13042
0
LINE
8
BLACK
6
CONTINUOUS
10
1.49139
20
2.13042
11
1.49124
21
2.13031
0
LINE
8
BLACK
6
CONTINUOUS
10
1.49124
20
2.13031
11
1.49047
21
2.13025
0
LINE
8
BLACK
6
CONTINUOUS
10
1.49047
20
2.13025
11
1.48973
21
2.13005
0
LINE
8
BLACK
6
CONTINUOUS
10
1.48973
20
2.13005
11
1.48961
21
2.13011
0
LINE
8
BLACK
6
CONTINUOUS
10
1.48961
20
2.13011
11
1.48948
21
2.13008
0
LINE
8
BLACK
6
CONTINUOUS
10
1.48948
20
2.13008
11
1.48936
21
2.13015
0
LINE
8
BLACK
6
CONTINUOUS
10
1.48936
20
2.13015
11
1.48922
21
2.13014
0
LINE
8
BLACK
6
CONTINUOUS
10
1.48922
20
2.13014
11
1.4886
21
2.13058
0
LINE
8
BLACK
6
CONTINUOUS
10
1.4886
20
2.13058
11
1.4879
21
2.1309
0
LINE
8
BLACK
6
CONTINUOUS
10
1.4879
20
2.1309
11
1.48603
21
2.13278
0
LINE
8
BLACK
6
CONTINUOUS
10
1.48603
20
2.13278
11
1.4858
21
2.1331
0
LINE
8
BLACK
6
CONTINUOUS
10
1.4858
20
2.1331
11
1.4857
21
2.13317
0
LINE
8
BLACK
6
CONTINUOUS
10
1.4857
20
2.13317
11
1.48566
21
2.1333
0
LINE
8
BLACK
6
CONTINUOUS
10
1.48566
20
2.1333
11
1.48544
21
2.13362
0
LINE
8
BLACK
6
CONTINUOUS
10
1.48544
20
2.13362
11
1.48537
21
2.13438
0
LINE
8
BLACK
6
CONTINUOUS
10
1.48537
20
2.13438
11
1.48517
21
2.13512
0
LINE
8
BLACK
6
CONTINUOUS
10
1.48517
20
2.13512
11
1.48529
21
2.13536
0
LINE
8
BLACK
6
CONTINUOUS
10
1.48529
20
2.13536
11
1.48526
21
2.13563
0
LINE
8
BLACK
6
CONTINUOUS
10
1.48526
20
2.13563
11
1.4857
21
2.13626
0
LINE
8
BLACK
6
CONTINUOUS
10
1.4857
20
2.13626
11
1.48603
21
2.13695
0
LINE
8
BLACK
6
CONTINUOUS
10
1.48603
20
2.13695
11
1.4879
21
2.13883
0
LINE
8
BLACK
6
CONTINUOUS
10
1.4879
20
2.13883
11
1.48822
21
2.13905
0
LINE
8
BLACK
6
CONTINUOUS
10
1.48822
20
2.13905
11
1.4883
21
2.13916
0
LINE
8
BLACK
6
CONTINUOUS
10
1.4883
20
2.13916
11
1.48842
21
2.13919
0
LINE
8
BLACK
6
CONTINUOUS
10
1.48842
20
2.13919
11
1.48843
21
2.1392
0
LINE
8
BLACK
6
CONTINUOUS
10
1.48843
20
2.1392
11
1.48851
21
2.1393
0
LINE
8
BLACK
6
CONTINUOUS
10
1.48851
20
2.1393
11
1.48859
21
2.13931
0
LINE
8
BLACK
6
CONTINUOUS
10
1.48859
20
2.13931
11
1.48874
21
2.13942
0
LINE
8
BLACK
6
CONTINUOUS
10
1.48874
20
2.13942
11
1.48951
21
2.13948
0
LINE
8
BLACK
6
CONTINUOUS
10
1.48951
20
2.13948
11
1.49025
21
2.13968
0
LINE
8
BLACK
6
CONTINUOUS
10
1.49025
20
2.13968
11
1.49037
21
2.13962
  0
ENDSEC
  0
EOF
