  0
SECTION
  2
HEADER
  9
$ANGBASE
  50
0.0
  9
$ANGDIR
  70
1
  9
$MEASUREMENT
  70
0
  0
ENDSEC
  0
SECTION
  2
TABLES
  0
TABLE
  2
LTYPE
  70
4
  0
LTYPE
  5
40F
  2
CONTINUOUS
  70
0
  3
Solid line
  72
65
  73
0
  40
0.0
  0
LTYPE
  5
410
  2
DASHDOT
 70
0
  3
Dash Dot ____ _ ____ _
 72
65
 73
4
 40
2.0
 49
1.25
 49
-0.25
 49
0.25
 49
-0.25
  0
LTYPE
  5
411
  2
DASHED
 70
0
  3
Dashed __ __ __ __ __
 72
65
 73
2
 40
0.75
 49
0.5
 49
-0.25
  0
LTYPE
  5
43B
  2
DOTTED
 70
0
  3
Dotted .  .  .  .
 72
65
 73
2
 40
0.2
 49
0.0
 49
-0.2
  0
ENDTAB
  0
TABLE
  2
STYLE
  70
4
  0
STYLE
  2
KICAD
  70
0
  40
0
  41
1
  42
1
  50
0
  71
0
  3
isocp.shx
  0
STYLE
  2
KICADB
  70
0
  40
0
  41
1
  42
1
  50
0
  71
0
  3
isocp.shx
  0
STYLE
  2
KICADI
  70
0
  40
0
  41
1
  42
1
  50
15
  71
0
  3
isocp.shx
  0
STYLE
  2
KICADBI
  70
0
  40
0
  41
1
  42
1
  50
15
  71
0
  3
isocp.shx
  0
ENDTAB
  0
TABLE
  2
LAYER
  70
1
  0
LAYER
  2
BLACK
  70
0
  62
7
  6
CONTINUOUS
  0
ENDTAB
  0
ENDSEC
  0
SECTION
  2
ENTITIES
0
LINE
8
BLACK
6
CONTINUOUS
10
0.466929
20
0.439567
11
0.467625
21
0.439279
0
LINE
8
BLACK
6
CONTINUOUS
10
0.467625
20
0.439279
11
0.467913
21
0.438583
0
LINE
8
BLACK
6
CONTINUOUS
10
0.467913
20
0.438583
11
0.467913
21
0.361417
0
LINE
8
BLACK
6
CONTINUOUS
10
0.467913
20
0.361417
11
0.467625
21
0.360721
0
LINE
8
BLACK
6
CONTINUOUS
10
0.467625
20
0.360721
11
0.466929
21
0.360433
0
LINE
8
BLACK
6
CONTINUOUS
10
0.466929
20
0.360433
11
0.333071
21
0.360433
0
LINE
8
BLACK
6
CONTINUOUS
10
0.333071
20
0.360433
11
0.332375
21
0.360721
0
LINE
8
BLACK
6
CONTINUOUS
10
0.332375
20
0.360721
11
0.332087
21
0.361417
0
LINE
8
BLACK
6
CONTINUOUS
10
0.332087
20
0.361417
11
0.332087
21
0.438583
0
LINE
8
BLACK
6
CONTINUOUS
10
0.332087
20
0.438583
11
0.332375
21
0.439279
0
LINE
8
BLACK
6
CONTINUOUS
10
0.332375
20
0.439279
11
0.333071
21
0.439567
0
LINE
8
BLACK
6
CONTINUOUS
10
0.333071
20
0.439567
11
0.466929
21
0.439567
0
LINE
8
BLACK
6
CONTINUOUS
10
0.334055
20
0.437598
11
0.334055
21
0.362402
0
LINE
8
BLACK
6
CONTINUOUS
10
0.334055
20
0.362402
11
0.465945
21
0.362402
0
LINE
8
BLACK
6
CONTINUOUS
10
0.465945
20
0.362402
11
0.465945
21
0.437598
0
LINE
8
BLACK
6
CONTINUOUS
10
0.465945
20
0.437598
11
0.334055
21
0.437598
0
LINE
8
BLACK
6
CONTINUOUS
10
0.937795
20
0.714286
11
0.938491
21
0.713998
0
LINE
8
BLACK
6
CONTINUOUS
10
0.938491
20
0.713998
11
0.93878
21
0.713302
0
LINE
8
BLACK
6
CONTINUOUS
10
0.93878
20
0.713302
11
0.93878
21
0.575506
0
LINE
8
BLACK
6
CONTINUOUS
10
0.93878
20
0.575506
11
0.938491
21
0.57481
0
LINE
8
BLACK
6
CONTINUOUS
10
0.938491
20
0.57481
11
0.937795
21
0.574522
0
LINE
8
BLACK
6
CONTINUOUS
10
0.937795
20
0.574522
11
0.662205
21
0.574522
0
LINE
8
BLACK
6
CONTINUOUS
10
0.662205
20
0.574522
11
0.661509
21
0.57481
0
LINE
8
BLACK
6
CONTINUOUS
10
0.661509
20
0.57481
11
0.66122
21
0.575506
0
LINE
8
BLACK
6
CONTINUOUS
10
0.66122
20
0.575506
11
0.66122
21
0.575506
0
LINE
8
BLACK
6
CONTINUOUS
10
0.66122
20
0.575506
11
0.66122
21
0.713302
0
LINE
8
BLACK
6
CONTINUOUS
10
0.66122
20
0.713302
11
0.661509
21
0.713998
0
LINE
8
BLACK
6
CONTINUOUS
10
0.661509
20
0.713998
11
0.662205
21
0.714286
0
LINE
8
BLACK
6
CONTINUOUS
10
0.662205
20
0.714286
11
0.937795
21
0.714286
0
LINE
8
BLACK
6
CONTINUOUS
10
0.663189
20
0.712317
11
0.663189
21
0.576491
0
LINE
8
BLACK
6
CONTINUOUS
10
0.663189
20
0.576491
11
0.936811
21
0.576491
0
LINE
8
BLACK
6
CONTINUOUS
10
0.936811
20
0.576491
11
0.936811
21
0.712317
0
LINE
8
BLACK
6
CONTINUOUS
10
0.936811
20
0.712317
11
0.663189
21
0.712317
0
LINE
8
BLACK
6
CONTINUOUS
10
0.466929
20
1.05728
11
0.467625
21
1.057
0
LINE
8
BLACK
6
CONTINUOUS
10
0.467625
20
1.057
11
0.467913
21
1.0563
0
LINE
8
BLACK
6
CONTINUOUS
10
0.467913
20
1.0563
11
0.467913
21
0.979134
0
LINE
8
BLACK
6
CONTINUOUS
10
0.467913
20
0.979134
11
0.467625
21
0.978438
0
LINE
8
BLACK
6
CONTINUOUS
10
0.467625
20
0.978438
11
0.466929
21
0.97815
0
LINE
8
BLACK
6
CONTINUOUS
10
0.466929
20
0.97815
11
0.333071
21
0.97815
0
LINE
8
BLACK
6
CONTINUOUS
10
0.333071
20
0.97815
11
0.332375
21
0.978438
0
LINE
8
BLACK
6
CONTINUOUS
10
0.332375
20
0.978438
11
0.332087
21
0.979134
0
LINE
8
BLACK
6
CONTINUOUS
10
0.332087
20
0.979134
11
0.332087
21
1.0563
0
LINE
8
BLACK
6
CONTINUOUS
10
0.332087
20
1.0563
11
0.332375
21
1.057
0
LINE
8
BLACK
6
CONTINUOUS
10
0.332375
20
1.057
11
0.333071
21
1.05728
0
LINE
8
BLACK
6
CONTINUOUS
10
0.333071
20
1.05728
11
0.466929
21
1.05728
0
LINE
8
BLACK
6
CONTINUOUS
10
0.334055
20
1.05531
11
0.334055
21
0.980118
0
LINE
8
BLACK
6
CONTINUOUS
10
0.334055
20
0.980118
11
0.465945
21
0.980118
0
LINE
8
BLACK
6
CONTINUOUS
10
0.465945
20
0.980118
11
0.465945
21
1.05531
0
LINE
8
BLACK
6
CONTINUOUS
10
0.465945
20
1.05531
11
0.334055
21
1.05531
  0
ENDSEC
  0
EOF
