  0
SECTION
  2
HEADER
  9
$ANGBASE
  50
0.0
  9
$ANGDIR
  70
1
  9
$MEASUREMENT
  70
0
  0
ENDSEC
  0
SECTION
  2
TABLES
  0
TABLE
  2
LTYPE
  70
4
  0
LTYPE
  5
40F
  2
CONTINUOUS
  70
0
  3
Solid line
  72
65
  73
0
  40
0.0
  0
LTYPE
  5
410
  2
DASHDOT
 70
0
  3
Dash Dot ____ _ ____ _
 72
65
 73
4
 40
2.0
 49
1.25
 49
-0.25
 49
0.25
 49
-0.25
  0
LTYPE
  5
411
  2
DASHED
 70
0
  3
Dashed __ __ __ __ __
 72
65
 73
2
 40
0.75
 49
0.5
 49
-0.25
  0
LTYPE
  5
43B
  2
DOTTED
 70
0
  3
Dotted .  .  .  .
 72
65
 73
2
 40
0.2
 49
0.0
 49
-0.2
  0
ENDTAB
  0
TABLE
  2
STYLE
  70
4
  0
STYLE
  2
KICAD
  70
0
  40
0
  41
1
  42
1
  50
0
  71
0
  3
isocp.shx
  0
STYLE
  2
KICADB
  70
0
  40
0
  41
1
  42
1
  50
0
  71
0
  3
isocp.shx
  0
STYLE
  2
KICADI
  70
0
  40
0
  41
1
  42
1
  50
15
  71
0
  3
isocp.shx
  0
STYLE
  2
KICADBI
  70
0
  40
0
  41
1
  42
1
  50
15
  71
0
  3
isocp.shx
  0
ENDTAB
  0
TABLE
  2
LAYER
  70
1
  0
LAYER
  2
BLACK
  70
0
  62
7
  6
CONTINUOUS
  0
ENDTAB
  0
ENDSEC
  0
SECTION
  2
ENTITIES
0
LINE
8
BLACK
6
CONTINUOUS
10
0.113898
20
0.16378
11
0.114594
21
0.163491
0
LINE
8
BLACK
6
CONTINUOUS
10
0.114594
20
0.163491
11
0.114882
21
0.162795
0
LINE
8
BLACK
6
CONTINUOUS
10
0.114882
20
0.162795
11
0.114882
21
-0.112795
0
LINE
8
BLACK
6
CONTINUOUS
10
0.114882
20
-0.112795
11
0.114594
21
-0.113491
0
LINE
8
BLACK
6
CONTINUOUS
10
0.114594
20
-0.113491
11
0.113898
21
-0.11378
0
LINE
8
BLACK
6
CONTINUOUS
10
0.113898
20
-0.11378
11
-0.0238976
21
-0.11378
0
LINE
8
BLACK
6
CONTINUOUS
10
-0.0238976
20
-0.11378
11
-0.0245936
21
-0.113491
0
LINE
8
BLACK
6
CONTINUOUS
10
-0.0245936
20
-0.113491
11
-0.0248819
21
-0.112795
0
LINE
8
BLACK
6
CONTINUOUS
10
-0.0248819
20
-0.112795
11
-0.0248819
21
0.162795
0
LINE
8
BLACK
6
CONTINUOUS
10
-0.0248819
20
0.162795
11
-0.0245936
21
0.163491
0
LINE
8
BLACK
6
CONTINUOUS
10
-0.0245936
20
0.163491
11
-0.0238976
21
0.16378
0
LINE
8
BLACK
6
CONTINUOUS
10
-0.0238976
20
0.16378
11
0.113898
21
0.16378
0
LINE
8
BLACK
6
CONTINUOUS
10
-0.0229134
20
0.161811
11
-0.0229134
21
-0.111811
0
LINE
8
BLACK
6
CONTINUOUS
10
-0.0229134
20
-0.111811
11
0.112913
21
-0.111811
0
LINE
8
BLACK
6
CONTINUOUS
10
0.112913
20
-0.111811
11
0.112913
21
0.161811
0
LINE
8
BLACK
6
CONTINUOUS
10
0.112913
20
0.161811
11
-0.0229134
21
0.161811
0
LINE
8
BLACK
6
CONTINUOUS
10
0.643717
20
0.344434
11
0.652168
21
0.34217
0
LINE
8
BLACK
6
CONTINUOUS
10
0.652168
20
0.34217
11
0.660098
21
0.338472
0
LINE
8
BLACK
6
CONTINUOUS
10
0.660098
20
0.338472
11
0.667266
21
0.333453
0
LINE
8
BLACK
6
CONTINUOUS
10
0.667266
20
0.333453
11
0.673453
21
0.327266
0
LINE
8
BLACK
6
CONTINUOUS
10
0.673453
20
0.327266
11
0.678472
21
0.320098
0
LINE
8
BLACK
6
CONTINUOUS
10
0.678472
20
0.320098
11
0.68217
21
0.312168
0
LINE
8
BLACK
6
CONTINUOUS
10
0.68217
20
0.312168
11
0.684434
21
0.303717
0
LINE
8
BLACK
6
CONTINUOUS
10
0.684434
20
0.303717
11
0.685197
21
0.295
0
LINE
8
BLACK
6
CONTINUOUS
10
0.685197
20
0.295
11
0.684434
21
0.286283
0
LINE
8
BLACK
6
CONTINUOUS
10
0.684434
20
0.286283
11
0.68217
21
0.277832
0
LINE
8
BLACK
6
CONTINUOUS
10
0.68217
20
0.277832
11
0.678472
21
0.269902
0
LINE
8
BLACK
6
CONTINUOUS
10
0.678472
20
0.269902
11
0.673453
21
0.262734
0
LINE
8
BLACK
6
CONTINUOUS
10
0.673453
20
0.262734
11
0.667266
21
0.256547
0
LINE
8
BLACK
6
CONTINUOUS
10
0.667266
20
0.256547
11
0.660098
21
0.251528
0
LINE
8
BLACK
6
CONTINUOUS
10
0.660098
20
0.251528
11
0.652168
21
0.24783
0
LINE
8
BLACK
6
CONTINUOUS
10
0.652168
20
0.24783
11
0.643717
21
0.245566
0
LINE
8
BLACK
6
CONTINUOUS
10
0.643717
20
0.245566
11
0.635
21
0.244803
0
LINE
8
BLACK
6
CONTINUOUS
10
0.635
20
0.244803
11
0.626283
21
0.245566
0
LINE
8
BLACK
6
CONTINUOUS
10
0.626283
20
0.245566
11
0.617832
21
0.24783
0
LINE
8
BLACK
6
CONTINUOUS
10
0.617832
20
0.24783
11
0.609902
21
0.251528
0
LINE
8
BLACK
6
CONTINUOUS
10
0.609902
20
0.251528
11
0.602734
21
0.256547
0
LINE
8
BLACK
6
CONTINUOUS
10
0.602734
20
0.256547
11
0.596547
21
0.262734
0
LINE
8
BLACK
6
CONTINUOUS
10
0.596547
20
0.262734
11
0.591528
21
0.269902
0
LINE
8
BLACK
6
CONTINUOUS
10
0.591528
20
0.269902
11
0.58783
21
0.277832
0
LINE
8
BLACK
6
CONTINUOUS
10
0.58783
20
0.277832
11
0.585566
21
0.286283
0
LINE
8
BLACK
6
CONTINUOUS
10
0.585566
20
0.286283
11
0.584803
21
0.295
0
LINE
8
BLACK
6
CONTINUOUS
10
0.584803
20
0.295
11
0.585566
21
0.303717
0
LINE
8
BLACK
6
CONTINUOUS
10
0.585566
20
0.303717
11
0.58783
21
0.312168
0
LINE
8
BLACK
6
CONTINUOUS
10
0.58783
20
0.312168
11
0.591528
21
0.320098
0
LINE
8
BLACK
6
CONTINUOUS
10
0.591528
20
0.320098
11
0.596547
21
0.327266
0
LINE
8
BLACK
6
CONTINUOUS
10
0.596547
20
0.327266
11
0.602734
21
0.333453
0
LINE
8
BLACK
6
CONTINUOUS
10
0.602734
20
0.333453
11
0.609902
21
0.338472
0
LINE
8
BLACK
6
CONTINUOUS
10
0.609902
20
0.338472
11
0.617832
21
0.34217
0
LINE
8
BLACK
6
CONTINUOUS
10
0.617832
20
0.34217
11
0.626283
21
0.344434
0
LINE
8
BLACK
6
CONTINUOUS
10
0.626283
20
0.344434
11
0.635
21
0.345197
0
LINE
8
BLACK
6
CONTINUOUS
10
0.635
20
0.345197
11
0.643717
21
0.344434
0
LINE
8
BLACK
6
CONTINUOUS
10
0.587323
20
0.286593
11
0.589507
21
0.278442
0
LINE
8
BLACK
6
CONTINUOUS
10
0.589507
20
0.278442
11
0.593074
21
0.270794
0
LINE
8
BLACK
6
CONTINUOUS
10
0.593074
20
0.270794
11
0.597914
21
0.263881
0
LINE
8
BLACK
6
CONTINUOUS
10
0.597914
20
0.263881
11
0.603881
21
0.257914
0
LINE
8
BLACK
6
CONTINUOUS
10
0.603881
20
0.257914
11
0.610794
21
0.253074
0
LINE
8
BLACK
6
CONTINUOUS
10
0.610794
20
0.253074
11
0.618442
21
0.249507
0
LINE
8
BLACK
6
CONTINUOUS
10
0.618442
20
0.249507
11
0.626593
21
0.247323
0
LINE
8
BLACK
6
CONTINUOUS
10
0.626593
20
0.247323
11
0.635
21
0.246587
0
LINE
8
BLACK
6
CONTINUOUS
10
0.635
20
0.246587
11
0.643407
21
0.247323
0
LINE
8
BLACK
6
CONTINUOUS
10
0.643407
20
0.247323
11
0.651558
21
0.249507
0
LINE
8
BLACK
6
CONTINUOUS
10
0.651558
20
0.249507
11
0.659206
21
0.253074
0
LINE
8
BLACK
6
CONTINUOUS
10
0.659206
20
0.253074
11
0.666119
21
0.257914
0
LINE
8
BLACK
6
CONTINUOUS
10
0.666119
20
0.257914
11
0.672086
21
0.263881
0
LINE
8
BLACK
6
CONTINUOUS
10
0.672086
20
0.263881
11
0.676926
21
0.270794
0
LINE
8
BLACK
6
CONTINUOUS
10
0.676926
20
0.270794
11
0.680493
21
0.278442
0
LINE
8
BLACK
6
CONTINUOUS
10
0.680493
20
0.278442
11
0.682677
21
0.286593
0
LINE
8
BLACK
6
CONTINUOUS
10
0.682677
20
0.286593
11
0.683413
21
0.295
0
LINE
8
BLACK
6
CONTINUOUS
10
0.683413
20
0.295
11
0.682677
21
0.303407
0
LINE
8
BLACK
6
CONTINUOUS
10
0.682677
20
0.303407
11
0.680493
21
0.311558
0
LINE
8
BLACK
6
CONTINUOUS
10
0.680493
20
0.311558
11
0.676926
21
0.319206
0
LINE
8
BLACK
6
CONTINUOUS
10
0.676926
20
0.319206
11
0.672086
21
0.326119
0
LINE
8
BLACK
6
CONTINUOUS
10
0.672086
20
0.326119
11
0.666119
21
0.332086
0
LINE
8
BLACK
6
CONTINUOUS
10
0.666119
20
0.332086
11
0.659206
21
0.336926
0
LINE
8
BLACK
6
CONTINUOUS
10
0.659206
20
0.336926
11
0.651558
21
0.340493
0
LINE
8
BLACK
6
CONTINUOUS
10
0.651558
20
0.340493
11
0.643407
21
0.342677
0
LINE
8
BLACK
6
CONTINUOUS
10
0.643407
20
0.342677
11
0.635
21
0.343413
0
LINE
8
BLACK
6
CONTINUOUS
10
0.635
20
0.343413
11
0.626593
21
0.342677
0
LINE
8
BLACK
6
CONTINUOUS
10
0.626593
20
0.342677
11
0.618442
21
0.340493
0
LINE
8
BLACK
6
CONTINUOUS
10
0.618442
20
0.340493
11
0.610794
21
0.336926
0
LINE
8
BLACK
6
CONTINUOUS
10
0.610794
20
0.336926
11
0.603881
21
0.332086
0
LINE
8
BLACK
6
CONTINUOUS
10
0.603881
20
0.332086
11
0.597914
21
0.326119
0
LINE
8
BLACK
6
CONTINUOUS
10
0.597914
20
0.326119
11
0.593074
21
0.319206
0
LINE
8
BLACK
6
CONTINUOUS
10
0.593074
20
0.319206
11
0.589507
21
0.311558
0
LINE
8
BLACK
6
CONTINUOUS
10
0.589507
20
0.311558
11
0.587323
21
0.303407
0
LINE
8
BLACK
6
CONTINUOUS
10
0.587323
20
0.303407
11
0.586587
21
0.295
0
LINE
8
BLACK
6
CONTINUOUS
10
0.586587
20
0.295
11
0.587323
21
0.286593
0
LINE
8
BLACK
6
CONTINUOUS
10
-0.0680709
20
0.384567
11
-0.0673749
21
0.384279
0
LINE
8
BLACK
6
CONTINUOUS
10
-0.0673749
20
0.384279
11
-0.0670866
21
0.383583
0
LINE
8
BLACK
6
CONTINUOUS
10
-0.0670866
20
0.383583
11
-0.0670866
21
0.306417
0
LINE
8
BLACK
6
CONTINUOUS
10
-0.0670866
20
0.306417
11
-0.0673749
21
0.305721
0
LINE
8
BLACK
6
CONTINUOUS
10
-0.0673749
20
0.305721
11
-0.0680709
21
0.305433
0
LINE
8
BLACK
6
CONTINUOUS
10
-0.0680709
20
0.305433
11
-0.201929
21
0.305433
0
LINE
8
BLACK
6
CONTINUOUS
10
-0.201929
20
0.305433
11
-0.202625
21
0.305721
0
LINE
8
BLACK
6
CONTINUOUS
10
-0.202625
20
0.305721
11
-0.202913
21
0.306417
0
LINE
8
BLACK
6
CONTINUOUS
10
-0.202913
20
0.306417
11
-0.202913
21
0.383583
0
LINE
8
BLACK
6
CONTINUOUS
10
-0.202913
20
0.383583
11
-0.202625
21
0.384279
0
LINE
8
BLACK
6
CONTINUOUS
10
-0.202625
20
0.384279
11
-0.201929
21
0.384567
0
LINE
8
BLACK
6
CONTINUOUS
10
-0.201929
20
0.384567
11
-0.0680709
21
0.384567
0
LINE
8
BLACK
6
CONTINUOUS
10
-0.200945
20
0.382598
11
-0.200945
21
0.307402
0
LINE
8
BLACK
6
CONTINUOUS
10
-0.200945
20
0.307402
11
-0.0690551
21
0.307402
0
LINE
8
BLACK
6
CONTINUOUS
10
-0.0690551
20
0.307402
11
-0.0690551
21
0.382598
0
LINE
8
BLACK
6
CONTINUOUS
10
-0.0690551
20
0.382598
11
-0.200945
21
0.382598
0
LINE
8
BLACK
6
CONTINUOUS
10
1.01559
20
0.572913
11
1.01629
21
0.572625
0
LINE
8
BLACK
6
CONTINUOUS
10
1.01629
20
0.572625
11
1.01657
21
0.571929
0
LINE
8
BLACK
6
CONTINUOUS
10
1.01657
20
0.571929
11
1.01657
21
0.438071
0
LINE
8
BLACK
6
CONTINUOUS
10
1.01657
20
0.438071
11
1.01629
21
0.437375
0
LINE
8
BLACK
6
CONTINUOUS
10
1.01629
20
0.437375
11
1.01559
21
0.437087
0
LINE
8
BLACK
6
CONTINUOUS
10
1.01559
20
0.437087
11
0.864409
21
0.437087
0
LINE
8
BLACK
6
CONTINUOUS
10
0.864409
20
0.437087
11
0.863713
21
0.437375
0
LINE
8
BLACK
6
CONTINUOUS
10
0.863713
20
0.437375
11
0.863425
21
0.438071
0
LINE
8
BLACK
6
CONTINUOUS
10
0.863425
20
0.438071
11
0.863425
21
0.571929
0
LINE
8
BLACK
6
CONTINUOUS
10
0.863425
20
0.571929
11
0.863713
21
0.572625
0
LINE
8
BLACK
6
CONTINUOUS
10
0.863713
20
0.572625
11
0.864409
21
0.572913
0
LINE
8
BLACK
6
CONTINUOUS
10
0.864409
20
0.572913
11
1.01559
21
0.572913
0
LINE
8
BLACK
6
CONTINUOUS
10
0.865394
20
0.570945
11
0.865394
21
0.439055
0
LINE
8
BLACK
6
CONTINUOUS
10
0.865394
20
0.439055
11
1.01461
21
0.439055
0
LINE
8
BLACK
6
CONTINUOUS
10
1.01461
20
0.439055
11
1.01461
21
0.570945
0
LINE
8
BLACK
6
CONTINUOUS
10
1.01461
20
0.570945
11
0.865394
21
0.570945
0
LINE
8
BLACK
6
CONTINUOUS
10
0.993268
20
0.639724
11
0.993964
21
0.639436
0
LINE
8
BLACK
6
CONTINUOUS
10
0.993964
20
0.639436
11
0.994252
21
0.63874
0
LINE
8
BLACK
6
CONTINUOUS
10
0.994252
20
0.63874
11
0.994252
21
0.58126
0
LINE
8
BLACK
6
CONTINUOUS
10
0.994252
20
0.58126
11
0.993964
21
0.580564
0
LINE
8
BLACK
6
CONTINUOUS
10
0.993964
20
0.580564
11
0.993268
21
0.580276
0
LINE
8
BLACK
6
CONTINUOUS
10
0.993268
20
0.580276
11
0.876732
21
0.580276
0
LINE
8
BLACK
6
CONTINUOUS
10
0.876732
20
0.580276
11
0.876036
21
0.580564
0
LINE
8
BLACK
6
CONTINUOUS
10
0.876036
20
0.580564
11
0.875748
21
0.58126
0
LINE
8
BLACK
6
CONTINUOUS
10
0.875748
20
0.58126
11
0.875748
21
0.63874
0
LINE
8
BLACK
6
CONTINUOUS
10
0.875748
20
0.63874
11
0.876036
21
0.639436
0
LINE
8
BLACK
6
CONTINUOUS
10
0.876036
20
0.639436
11
0.876732
21
0.639724
0
LINE
8
BLACK
6
CONTINUOUS
10
0.876732
20
0.639724
11
0.993268
21
0.639724
0
LINE
8
BLACK
6
CONTINUOUS
10
0.877717
20
0.637756
11
0.877717
21
0.582244
0
LINE
8
BLACK
6
CONTINUOUS
10
0.877717
20
0.582244
11
0.992283
21
0.582244
0
LINE
8
BLACK
6
CONTINUOUS
10
0.992283
20
0.582244
11
0.992283
21
0.637756
0
LINE
8
BLACK
6
CONTINUOUS
10
0.992283
20
0.637756
11
0.877717
21
0.637756
0
LINE
8
BLACK
6
CONTINUOUS
10
1.69874
20
0.719252
11
1.69944
21
0.718964
0
LINE
8
BLACK
6
CONTINUOUS
10
1.69944
20
0.718964
11
1.69972
21
0.718268
0
LINE
8
BLACK
6
CONTINUOUS
10
1.69972
20
0.718268
11
1.69972
21
0.601732
0
LINE
8
BLACK
6
CONTINUOUS
10
1.69972
20
0.601732
11
1.69944
21
0.601036
0
LINE
8
BLACK
6
CONTINUOUS
10
1.69944
20
0.601036
11
1.69874
21
0.600748
0
LINE
8
BLACK
6
CONTINUOUS
10
1.69874
20
0.600748
11
1.64126
21
0.600748
0
LINE
8
BLACK
6
CONTINUOUS
10
1.64126
20
0.600748
11
1.64056
21
0.601036
0
LINE
8
BLACK
6
CONTINUOUS
10
1.64056
20
0.601036
11
1.64028
21
0.601732
0
LINE
8
BLACK
6
CONTINUOUS
10
1.64028
20
0.601732
11
1.64028
21
0.718268
0
LINE
8
BLACK
6
CONTINUOUS
10
1.64028
20
0.718268
11
1.64056
21
0.718964
0
LINE
8
BLACK
6
CONTINUOUS
10
1.64056
20
0.718964
11
1.64126
21
0.719252
0
LINE
8
BLACK
6
CONTINUOUS
10
1.64126
20
0.719252
11
1.69874
21
0.719252
0
LINE
8
BLACK
6
CONTINUOUS
10
1.64224
20
0.717283
11
1.64224
21
0.602717
0
LINE
8
BLACK
6
CONTINUOUS
10
1.64224
20
0.602717
11
1.69776
21
0.602717
0
LINE
8
BLACK
6
CONTINUOUS
10
1.69776
20
0.602717
11
1.69776
21
0.717283
0
LINE
8
BLACK
6
CONTINUOUS
10
1.69776
20
0.717283
11
1.64224
21
0.717283
0
LINE
8
BLACK
6
CONTINUOUS
10
1.91055
20
0.688504
11
1.91125
21
0.688216
0
LINE
8
BLACK
6
CONTINUOUS
10
1.91125
20
0.688216
11
1.91154
21
0.68752
0
LINE
8
BLACK
6
CONTINUOUS
10
1.91154
20
0.68752
11
1.91154
21
0.604843
0
LINE
8
BLACK
6
CONTINUOUS
10
1.91154
20
0.604843
11
1.91125
21
0.604147
0
LINE
8
BLACK
6
CONTINUOUS
10
1.91125
20
0.604147
11
1.91055
21
0.603858
0
LINE
8
BLACK
6
CONTINUOUS
10
1.91055
20
0.603858
11
1.72945
21
0.603858
0
LINE
8
BLACK
6
CONTINUOUS
10
1.72945
20
0.603858
11
1.72875
21
0.604147
0
LINE
8
BLACK
6
CONTINUOUS
10
1.72875
20
0.604147
11
1.72846
21
0.604843
0
LINE
8
BLACK
6
CONTINUOUS
10
1.72846
20
0.604843
11
1.72846
21
0.68752
0
LINE
8
BLACK
6
CONTINUOUS
10
1.72846
20
0.68752
11
1.72875
21
0.688216
0
LINE
8
BLACK
6
CONTINUOUS
10
1.72875
20
0.688216
11
1.72945
21
0.688504
0
LINE
8
BLACK
6
CONTINUOUS
10
1.72945
20
0.688504
11
1.91055
21
0.688504
0
LINE
8
BLACK
6
CONTINUOUS
10
1.73043
20
0.686535
11
1.73043
21
0.605827
0
LINE
8
BLACK
6
CONTINUOUS
10
1.73043
20
0.605827
11
1.90957
21
0.605827
0
LINE
8
BLACK
6
CONTINUOUS
10
1.90957
20
0.605827
11
1.90957
21
0.686535
0
LINE
8
BLACK
6
CONTINUOUS
10
1.90957
20
0.686535
11
1.73043
21
0.686535
0
LINE
8
BLACK
6
CONTINUOUS
10
1.60559
20
0.807913
11
1.60629
21
0.807625
0
LINE
8
BLACK
6
CONTINUOUS
10
1.60629
20
0.807625
11
1.60657
21
0.806929
0
LINE
8
BLACK
6
CONTINUOUS
10
1.60657
20
0.806929
11
1.60657
21
0.673071
0
LINE
8
BLACK
6
CONTINUOUS
10
1.60657
20
0.673071
11
1.60629
21
0.672375
0
LINE
8
BLACK
6
CONTINUOUS
10
1.60629
20
0.672375
11
1.60559
21
0.672087
0
LINE
8
BLACK
6
CONTINUOUS
10
1.60559
20
0.672087
11
1.45441
21
0.672087
0
LINE
8
BLACK
6
CONTINUOUS
10
1.45441
20
0.672087
11
1.45371
21
0.672375
0
LINE
8
BLACK
6
CONTINUOUS
10
1.45371
20
0.672375
11
1.45343
21
0.673071
0
LINE
8
BLACK
6
CONTINUOUS
10
1.45343
20
0.673071
11
1.45343
21
0.806929
0
LINE
8
BLACK
6
CONTINUOUS
10
1.45343
20
0.806929
11
1.45371
21
0.807625
0
LINE
8
BLACK
6
CONTINUOUS
10
1.45371
20
0.807625
11
1.45441
21
0.807913
0
LINE
8
BLACK
6
CONTINUOUS
10
1.45441
20
0.807913
11
1.60559
21
0.807913
0
LINE
8
BLACK
6
CONTINUOUS
10
1.45539
20
0.805945
11
1.45539
21
0.674055
0
LINE
8
BLACK
6
CONTINUOUS
10
1.45539
20
0.674055
11
1.60461
21
0.674055
0
LINE
8
BLACK
6
CONTINUOUS
10
1.60461
20
0.674055
11
1.60461
21
0.805945
0
LINE
8
BLACK
6
CONTINUOUS
10
1.60461
20
0.805945
11
1.45539
21
0.805945
0
LINE
8
BLACK
6
CONTINUOUS
10
1.43555
20
0.808976
11
1.43625
21
0.808688
0
LINE
8
BLACK
6
CONTINUOUS
10
1.43625
20
0.808688
11
1.43654
21
0.807992
0
LINE
8
BLACK
6
CONTINUOUS
10
1.43654
20
0.807992
11
1.43654
21
0.682008
0
LINE
8
BLACK
6
CONTINUOUS
10
1.43654
20
0.682008
11
1.43625
21
0.681312
0
LINE
8
BLACK
6
CONTINUOUS
10
1.43625
20
0.681312
11
1.43555
21
0.681024
0
LINE
8
BLACK
6
CONTINUOUS
10
1.43555
20
0.681024
11
1.25445
21
0.681024
0
LINE
8
BLACK
6
CONTINUOUS
10
1.25445
20
0.681024
11
1.25375
21
0.681312
0
LINE
8
BLACK
6
CONTINUOUS
10
1.25375
20
0.681312
11
1.25346
21
0.682008
0
LINE
8
BLACK
6
CONTINUOUS
10
1.25346
20
0.682008
11
1.25346
21
0.807992
0
LINE
8
BLACK
6
CONTINUOUS
10
1.25346
20
0.807992
11
1.25375
21
0.808688
0
LINE
8
BLACK
6
CONTINUOUS
10
1.25375
20
0.808688
11
1.25445
21
0.808976
0
LINE
8
BLACK
6
CONTINUOUS
10
1.25445
20
0.808976
11
1.43555
21
0.808976
0
LINE
8
BLACK
6
CONTINUOUS
10
1.25543
20
0.807008
11
1.25543
21
0.682992
0
LINE
8
BLACK
6
CONTINUOUS
10
1.25543
20
0.682992
11
1.43457
21
0.682992
0
LINE
8
BLACK
6
CONTINUOUS
10
1.43457
20
0.682992
11
1.43457
21
0.807008
0
LINE
8
BLACK
6
CONTINUOUS
10
1.43457
20
0.807008
11
1.25543
21
0.807008
0
LINE
8
BLACK
6
CONTINUOUS
10
1.88693
20
0.784567
11
1.88763
21
0.784279
0
LINE
8
BLACK
6
CONTINUOUS
10
1.88763
20
0.784279
11
1.88791
21
0.783583
0
LINE
8
BLACK
6
CONTINUOUS
10
1.88791
20
0.783583
11
1.88791
21
0.706417
0
LINE
8
BLACK
6
CONTINUOUS
10
1.88791
20
0.706417
11
1.88763
21
0.705721
0
LINE
8
BLACK
6
CONTINUOUS
10
1.88763
20
0.705721
11
1.88693
21
0.705433
0
LINE
8
BLACK
6
CONTINUOUS
10
1.88693
20
0.705433
11
1.75307
21
0.705433
0
LINE
8
BLACK
6
CONTINUOUS
10
1.75307
20
0.705433
11
1.75237
21
0.705721
0
LINE
8
BLACK
6
CONTINUOUS
10
1.75237
20
0.705721
11
1.75209
21
0.706417
0
LINE
8
BLACK
6
CONTINUOUS
10
1.75209
20
0.706417
11
1.75209
21
0.783583
0
LINE
8
BLACK
6
CONTINUOUS
10
1.75209
20
0.783583
11
1.75237
21
0.784279
0
LINE
8
BLACK
6
CONTINUOUS
10
1.75237
20
0.784279
11
1.75307
21
0.784567
0
LINE
8
BLACK
6
CONTINUOUS
10
1.75307
20
0.784567
11
1.88693
21
0.784567
0
LINE
8
BLACK
6
CONTINUOUS
10
1.75406
20
0.782598
11
1.75406
21
0.707402
0
LINE
8
BLACK
6
CONTINUOUS
10
1.75406
20
0.707402
11
1.88594
21
0.707402
0
LINE
8
BLACK
6
CONTINUOUS
10
1.88594
20
0.707402
11
1.88594
21
0.782598
0
LINE
8
BLACK
6
CONTINUOUS
10
1.88594
20
0.782598
11
1.75406
21
0.782598
0
LINE
8
BLACK
6
CONTINUOUS
10
1.74327
20
0.809724
11
1.74396
21
0.809436
0
LINE
8
BLACK
6
CONTINUOUS
10
1.74396
20
0.809436
11
1.74425
21
0.80874
0
LINE
8
BLACK
6
CONTINUOUS
10
1.74425
20
0.80874
11
1.74425
21
0.75126
0
LINE
8
BLACK
6
CONTINUOUS
10
1.74425
20
0.75126
11
1.74396
21
0.750564
0
LINE
8
BLACK
6
CONTINUOUS
10
1.74396
20
0.750564
11
1.74327
21
0.750276
0
LINE
8
BLACK
6
CONTINUOUS
10
1.74327
20
0.750276
11
1.62673
21
0.750276
0
LINE
8
BLACK
6
CONTINUOUS
10
1.62673
20
0.750276
11
1.62604
21
0.750564
0
LINE
8
BLACK
6
CONTINUOUS
10
1.62604
20
0.750564
11
1.62575
21
0.75126
0
LINE
8
BLACK
6
CONTINUOUS
10
1.62575
20
0.75126
11
1.62575
21
0.80874
0
LINE
8
BLACK
6
CONTINUOUS
10
1.62575
20
0.80874
11
1.62604
21
0.809436
0
LINE
8
BLACK
6
CONTINUOUS
10
1.62604
20
0.809436
11
1.62673
21
0.809724
0
LINE
8
BLACK
6
CONTINUOUS
10
1.62673
20
0.809724
11
1.74327
21
0.809724
0
LINE
8
BLACK
6
CONTINUOUS
10
1.62772
20
0.807756
11
1.62772
21
0.752244
0
LINE
8
BLACK
6
CONTINUOUS
10
1.62772
20
0.752244
11
1.74228
21
0.752244
0
LINE
8
BLACK
6
CONTINUOUS
10
1.74228
20
0.752244
11
1.74228
21
0.807756
0
LINE
8
BLACK
6
CONTINUOUS
10
1.74228
20
0.807756
11
1.62772
21
0.807756
0
LINE
8
BLACK
6
CONTINUOUS
10
1.61055
20
0.963976
11
1.61125
21
0.963688
0
LINE
8
BLACK
6
CONTINUOUS
10
1.61125
20
0.963688
11
1.61154
21
0.962992
0
LINE
8
BLACK
6
CONTINUOUS
10
1.61154
20
0.962992
11
1.61154
21
0.837008
0
LINE
8
BLACK
6
CONTINUOUS
10
1.61154
20
0.837008
11
1.61125
21
0.836312
0
LINE
8
BLACK
6
CONTINUOUS
10
1.61125
20
0.836312
11
1.61055
21
0.836024
0
LINE
8
BLACK
6
CONTINUOUS
10
1.61055
20
0.836024
11
1.42945
21
0.836024
0
LINE
8
BLACK
6
CONTINUOUS
10
1.42945
20
0.836024
11
1.42875
21
0.836312
0
LINE
8
BLACK
6
CONTINUOUS
10
1.42875
20
0.836312
11
1.42846
21
0.837008
0
LINE
8
BLACK
6
CONTINUOUS
10
1.42846
20
0.837008
11
1.42846
21
0.962992
0
LINE
8
BLACK
6
CONTINUOUS
10
1.42846
20
0.962992
11
1.42875
21
0.963688
0
LINE
8
BLACK
6
CONTINUOUS
10
1.42875
20
0.963688
11
1.42945
21
0.963976
0
LINE
8
BLACK
6
CONTINUOUS
10
1.42945
20
0.963976
11
1.61055
21
0.963976
0
LINE
8
BLACK
6
CONTINUOUS
10
1.43043
20
0.962008
11
1.43043
21
0.837992
0
LINE
8
BLACK
6
CONTINUOUS
10
1.43043
20
0.837992
11
1.60957
21
0.837992
0
LINE
8
BLACK
6
CONTINUOUS
10
1.60957
20
0.837992
11
1.60957
21
0.962008
0
LINE
8
BLACK
6
CONTINUOUS
10
1.60957
20
0.962008
11
1.43043
21
0.962008
0
LINE
8
BLACK
6
CONTINUOUS
10
1.28327
20
0.964724
11
1.28396
21
0.964436
0
LINE
8
BLACK
6
CONTINUOUS
10
1.28396
20
0.964436
11
1.28425
21
0.96374
0
LINE
8
BLACK
6
CONTINUOUS
10
1.28425
20
0.96374
11
1.28425
21
0.90626
0
LINE
8
BLACK
6
CONTINUOUS
10
1.28425
20
0.90626
11
1.28396
21
0.905564
0
LINE
8
BLACK
6
CONTINUOUS
10
1.28396
20
0.905564
11
1.28327
21
0.905276
0
LINE
8
BLACK
6
CONTINUOUS
10
1.28327
20
0.905276
11
1.16673
21
0.905276
0
LINE
8
BLACK
6
CONTINUOUS
10
1.16673
20
0.905276
11
1.16604
21
0.905564
0
LINE
8
BLACK
6
CONTINUOUS
10
1.16604
20
0.905564
11
1.16575
21
0.90626
0
LINE
8
BLACK
6
CONTINUOUS
10
1.16575
20
0.90626
11
1.16575
21
0.96374
0
LINE
8
BLACK
6
CONTINUOUS
10
1.16575
20
0.96374
11
1.16604
21
0.964436
0
LINE
8
BLACK
6
CONTINUOUS
10
1.16604
20
0.964436
11
1.16673
21
0.964724
0
LINE
8
BLACK
6
CONTINUOUS
10
1.16673
20
0.964724
11
1.28327
21
0.964724
0
LINE
8
BLACK
6
CONTINUOUS
10
1.16772
20
0.962756
11
1.16772
21
0.907244
0
LINE
8
BLACK
6
CONTINUOUS
10
1.16772
20
0.907244
11
1.28228
21
0.907244
0
LINE
8
BLACK
6
CONTINUOUS
10
1.28228
20
0.907244
11
1.28228
21
0.962756
0
LINE
8
BLACK
6
CONTINUOUS
10
1.28228
20
0.962756
11
1.16772
21
0.962756
0
LINE
8
BLACK
6
CONTINUOUS
10
1.41327
20
0.964724
11
1.41396
21
0.964436
0
LINE
8
BLACK
6
CONTINUOUS
10
1.41396
20
0.964436
11
1.41425
21
0.96374
0
LINE
8
BLACK
6
CONTINUOUS
10
1.41425
20
0.96374
11
1.41425
21
0.90626
0
LINE
8
BLACK
6
CONTINUOUS
10
1.41425
20
0.90626
11
1.41396
21
0.905564
0
LINE
8
BLACK
6
CONTINUOUS
10
1.41396
20
0.905564
11
1.41327
21
0.905276
0
LINE
8
BLACK
6
CONTINUOUS
10
1.41327
20
0.905276
11
1.29673
21
0.905276
0
LINE
8
BLACK
6
CONTINUOUS
10
1.29673
20
0.905276
11
1.29604
21
0.905564
0
LINE
8
BLACK
6
CONTINUOUS
10
1.29604
20
0.905564
11
1.29575
21
0.90626
0
LINE
8
BLACK
6
CONTINUOUS
10
1.29575
20
0.90626
11
1.29575
21
0.90626
0
LINE
8
BLACK
6
CONTINUOUS
10
1.29575
20
0.90626
11
1.29575
21
0.96374
0
LINE
8
BLACK
6
CONTINUOUS
10
1.29575
20
0.96374
11
1.29604
21
0.964436
0
LINE
8
BLACK
6
CONTINUOUS
10
1.29604
20
0.964436
11
1.29673
21
0.964724
0
LINE
8
BLACK
6
CONTINUOUS
10
1.29673
20
0.964724
11
1.41327
21
0.964724
0
LINE
8
BLACK
6
CONTINUOUS
10
1.29772
20
0.962756
11
1.29772
21
0.907244
0
LINE
8
BLACK
6
CONTINUOUS
10
1.29772
20
0.907244
11
1.41228
21
0.907244
0
LINE
8
BLACK
6
CONTINUOUS
10
1.41228
20
0.907244
11
1.41228
21
0.962756
0
LINE
8
BLACK
6
CONTINUOUS
10
1.41228
20
0.962756
11
1.29772
21
0.962756
0
LINE
8
BLACK
6
CONTINUOUS
10
1.50067
20
1.19228
11
1.50137
21
1.192
0
LINE
8
BLACK
6
CONTINUOUS
10
1.50137
20
1.192
11
1.50165
21
1.1913
0
LINE
8
BLACK
6
CONTINUOUS
10
1.50165
20
1.1913
11
1.50165
21
0.978701
0
LINE
8
BLACK
6
CONTINUOUS
10
1.50165
20
0.978701
11
1.50137
21
0.978005
0
LINE
8
BLACK
6
CONTINUOUS
10
1.50137
20
0.978005
11
1.50067
21
0.977717
0
LINE
8
BLACK
6
CONTINUOUS
10
1.50067
20
0.977717
11
1.20933
21
0.977717
0
LINE
8
BLACK
6
CONTINUOUS
10
1.20933
20
0.977717
11
1.20863
21
0.978005
0
LINE
8
BLACK
6
CONTINUOUS
10
1.20863
20
0.978005
11
1.20835
21
0.978701
0
LINE
8
BLACK
6
CONTINUOUS
10
1.20835
20
0.978701
11
1.20835
21
1.1913
0
LINE
8
BLACK
6
CONTINUOUS
10
1.20835
20
1.1913
11
1.20863
21
1.192
0
LINE
8
BLACK
6
CONTINUOUS
10
1.20863
20
1.192
11
1.20933
21
1.19228
0
LINE
8
BLACK
6
CONTINUOUS
10
1.20933
20
1.19228
11
1.50067
21
1.19228
0
LINE
8
BLACK
6
CONTINUOUS
10
1.21031
20
1.19031
11
1.21031
21
0.979685
0
LINE
8
BLACK
6
CONTINUOUS
10
1.21031
20
0.979685
11
1.49969
21
0.979685
0
LINE
8
BLACK
6
CONTINUOUS
10
1.49969
20
0.979685
11
1.49969
21
1.19031
0
LINE
8
BLACK
6
CONTINUOUS
10
1.49969
20
1.19031
11
1.21031
21
1.19031
0
LINE
8
BLACK
6
CONTINUOUS
10
1.1924
20
1.15213
11
1.1931
21
1.15184
0
LINE
8
BLACK
6
CONTINUOUS
10
1.1931
20
1.15184
11
1.19339
21
1.15114
0
LINE
8
BLACK
6
CONTINUOUS
10
1.19339
20
1.15114
11
1.19339
21
1.01886
0
LINE
8
BLACK
6
CONTINUOUS
10
1.19339
20
1.01886
11
1.1931
21
1.01816
0
LINE
8
BLACK
6
CONTINUOUS
10
1.1931
20
1.01816
11
1.1924
21
1.01787
0
LINE
8
BLACK
6
CONTINUOUS
10
1.1924
20
1.01787
11
1.1176
21
1.01787
0
LINE
8
BLACK
6
CONTINUOUS
10
1.1176
20
1.01787
11
1.1169
21
1.01816
0
LINE
8
BLACK
6
CONTINUOUS
10
1.1169
20
1.01816
11
1.11661
21
1.01886
0
LINE
8
BLACK
6
CONTINUOUS
10
1.11661
20
1.01886
11
1.11661
21
1.02575
0
LINE
8
BLACK
6
CONTINUOUS
10
1.11661
20
1.02575
11
1.06626
21
1.02575
0
LINE
8
BLACK
6
CONTINUOUS
10
1.06626
20
1.02575
11
1.06556
21
1.02604
0
LINE
8
BLACK
6
CONTINUOUS
10
1.06556
20
1.02604
11
1.06528
21
1.02673
0
LINE
8
BLACK
6
CONTINUOUS
10
1.06528
20
1.02673
11
1.06528
21
1.14327
0
LINE
8
BLACK
6
CONTINUOUS
10
1.06528
20
1.14327
11
1.06556
21
1.14396
0
LINE
8
BLACK
6
CONTINUOUS
10
1.06556
20
1.14396
11
1.06626
21
1.14425
0
LINE
8
BLACK
6
CONTINUOUS
10
1.06626
20
1.14425
11
1.11661
21
1.14425
0
LINE
8
BLACK
6
CONTINUOUS
10
1.11661
20
1.14425
11
1.11661
21
1.15114
0
LINE
8
BLACK
6
CONTINUOUS
10
1.11661
20
1.15114
11
1.1169
21
1.15184
0
LINE
8
BLACK
6
CONTINUOUS
10
1.1169
20
1.15184
11
1.1176
21
1.15213
0
LINE
8
BLACK
6
CONTINUOUS
10
1.1176
20
1.15213
11
1.1924
21
1.15213
0
LINE
8
BLACK
6
CONTINUOUS
10
1.11858
20
1.15016
11
1.11858
21
1.14425
0
LINE
8
BLACK
6
CONTINUOUS
10
1.11858
20
1.14425
11
1.12374
21
1.14425
0
LINE
8
BLACK
6
CONTINUOUS
10
1.12374
20
1.14425
11
1.12444
21
1.14396
0
LINE
8
BLACK
6
CONTINUOUS
10
1.12444
20
1.14396
11
1.12472
21
1.14327
0
LINE
8
BLACK
6
CONTINUOUS
10
1.12472
20
1.14327
11
1.12472
21
1.02673
0
LINE
8
BLACK
6
CONTINUOUS
10
1.12472
20
1.02673
11
1.12444
21
1.02604
0
LINE
8
BLACK
6
CONTINUOUS
10
1.12444
20
1.02604
11
1.12374
21
1.02575
0
LINE
8
BLACK
6
CONTINUOUS
10
1.12374
20
1.02575
11
1.11858
21
1.02575
0
LINE
8
BLACK
6
CONTINUOUS
10
1.11858
20
1.02575
11
1.11858
21
1.01984
0
LINE
8
BLACK
6
CONTINUOUS
10
1.11858
20
1.01984
11
1.19142
21
1.01984
0
LINE
8
BLACK
6
CONTINUOUS
10
1.19142
20
1.01984
11
1.19142
21
1.15016
0
LINE
8
BLACK
6
CONTINUOUS
10
1.19142
20
1.15016
11
1.11858
21
1.15016
0
LINE
8
BLACK
6
CONTINUOUS
10
1.06724
20
1.14228
11
1.06724
21
1.02772
0
LINE
8
BLACK
6
CONTINUOUS
10
1.06724
20
1.02772
11
1.11661
21
1.02772
0
LINE
8
BLACK
6
CONTINUOUS
10
1.11661
20
1.02772
11
1.11661
21
1.14228
0
LINE
8
BLACK
6
CONTINUOUS
10
1.11661
20
1.14228
11
1.06724
21
1.14228
0
LINE
8
BLACK
6
CONTINUOUS
10
1.11858
20
1.14228
11
1.11858
21
1.02772
0
LINE
8
BLACK
6
CONTINUOUS
10
1.11858
20
1.02772
11
1.12276
21
1.02772
0
LINE
8
BLACK
6
CONTINUOUS
10
1.12276
20
1.02772
11
1.12276
21
1.14228
0
LINE
8
BLACK
6
CONTINUOUS
10
1.12276
20
1.14228
11
1.11858
21
1.14228
0
LINE
8
BLACK
6
CONTINUOUS
10
1.6824
20
1.19213
11
1.6831
21
1.19184
0
LINE
8
BLACK
6
CONTINUOUS
10
1.6831
20
1.19184
11
1.68339
21
1.19114
0
LINE
8
BLACK
6
CONTINUOUS
10
1.68339
20
1.19114
11
1.68339
21
1.05886
0
LINE
8
BLACK
6
CONTINUOUS
10
1.68339
20
1.05886
11
1.6831
21
1.05816
0
LINE
8
BLACK
6
CONTINUOUS
10
1.6831
20
1.05816
11
1.6824
21
1.05787
0
LINE
8
BLACK
6
CONTINUOUS
10
1.6824
20
1.05787
11
1.6076
21
1.05787
0
LINE
8
BLACK
6
CONTINUOUS
10
1.6076
20
1.05787
11
1.6069
21
1.05816
0
LINE
8
BLACK
6
CONTINUOUS
10
1.6069
20
1.05816
11
1.60661
21
1.05886
0
LINE
8
BLACK
6
CONTINUOUS
10
1.60661
20
1.05886
11
1.60661
21
1.19114
0
LINE
8
BLACK
6
CONTINUOUS
10
1.60661
20
1.19114
11
1.6069
21
1.19184
0
LINE
8
BLACK
6
CONTINUOUS
10
1.6069
20
1.19184
11
1.6076
21
1.19213
0
LINE
8
BLACK
6
CONTINUOUS
10
1.6076
20
1.19213
11
1.6824
21
1.19213
0
LINE
8
BLACK
6
CONTINUOUS
10
1.60858
20
1.19016
11
1.60858
21
1.05984
0
LINE
8
BLACK
6
CONTINUOUS
10
1.60858
20
1.05984
11
1.68142
21
1.05984
0
LINE
8
BLACK
6
CONTINUOUS
10
1.68142
20
1.05984
11
1.68142
21
1.19016
0
LINE
8
BLACK
6
CONTINUOUS
10
1.68142
20
1.19016
11
1.60858
21
1.19016
0
LINE
8
BLACK
6
CONTINUOUS
10
1.59858
20
1.19791
11
1.59928
21
1.19763
0
LINE
8
BLACK
6
CONTINUOUS
10
1.59928
20
1.19763
11
1.59957
21
1.19693
0
LINE
8
BLACK
6
CONTINUOUS
10
1.59957
20
1.19693
11
1.59957
21
1.06307
0
LINE
8
BLACK
6
CONTINUOUS
10
1.59957
20
1.06307
11
1.59928
21
1.06237
0
LINE
8
BLACK
6
CONTINUOUS
10
1.59928
20
1.06237
11
1.59858
21
1.06209
0
LINE
8
BLACK
6
CONTINUOUS
10
1.59858
20
1.06209
11
1.52142
21
1.06209
0
LINE
8
BLACK
6
CONTINUOUS
10
1.52142
20
1.06209
11
1.52072
21
1.06237
0
LINE
8
BLACK
6
CONTINUOUS
10
1.52072
20
1.06237
11
1.52043
21
1.06307
0
LINE
8
BLACK
6
CONTINUOUS
10
1.52043
20
1.06307
11
1.52043
21
1.19693
0
LINE
8
BLACK
6
CONTINUOUS
10
1.52043
20
1.19693
11
1.52072
21
1.19763
0
LINE
8
BLACK
6
CONTINUOUS
10
1.52072
20
1.19763
11
1.52142
21
1.19791
0
LINE
8
BLACK
6
CONTINUOUS
10
1.52142
20
1.19791
11
1.59858
21
1.19791
0
LINE
8
BLACK
6
CONTINUOUS
10
1.5224
20
1.19594
11
1.5224
21
1.06406
0
LINE
8
BLACK
6
CONTINUOUS
10
1.5224
20
1.06406
11
1.5976
21
1.06406
0
LINE
8
BLACK
6
CONTINUOUS
10
1.5976
20
1.06406
11
1.5976
21
1.19594
0
LINE
8
BLACK
6
CONTINUOUS
10
1.5976
20
1.19594
11
1.5224
21
1.19594
0
LINE
8
BLACK
6
CONTINUOUS
10
1.26693
20
1.28457
11
1.26763
21
1.28428
0
LINE
8
BLACK
6
CONTINUOUS
10
1.26763
20
1.28428
11
1.26791
21
1.28358
0
LINE
8
BLACK
6
CONTINUOUS
10
1.26791
20
1.28358
11
1.26791
21
1.20642
0
LINE
8
BLACK
6
CONTINUOUS
10
1.26791
20
1.20642
11
1.26763
21
1.20572
0
LINE
8
BLACK
6
CONTINUOUS
10
1.26763
20
1.20572
11
1.26693
21
1.20543
0
LINE
8
BLACK
6
CONTINUOUS
10
1.26693
20
1.20543
11
1.13307
21
1.20543
0
LINE
8
BLACK
6
CONTINUOUS
10
1.13307
20
1.20543
11
1.13237
21
1.20572
0
LINE
8
BLACK
6
CONTINUOUS
10
1.13237
20
1.20572
11
1.13209
21
1.20642
0
LINE
8
BLACK
6
CONTINUOUS
10
1.13209
20
1.20642
11
1.13209
21
1.28358
0
LINE
8
BLACK
6
CONTINUOUS
10
1.13209
20
1.28358
11
1.13237
21
1.28428
0
LINE
8
BLACK
6
CONTINUOUS
10
1.13237
20
1.28428
11
1.13307
21
1.28457
0
LINE
8
BLACK
6
CONTINUOUS
10
1.13307
20
1.28457
11
1.26693
21
1.28457
0
LINE
8
BLACK
6
CONTINUOUS
10
1.13406
20
1.2826
11
1.13406
21
1.2074
0
LINE
8
BLACK
6
CONTINUOUS
10
1.13406
20
1.2074
11
1.26594
21
1.2074
0
LINE
8
BLACK
6
CONTINUOUS
10
1.26594
20
1.2074
11
1.26594
21
1.2826
0
LINE
8
BLACK
6
CONTINUOUS
10
1.26594
20
1.2826
11
1.13406
21
1.2826
0
LINE
8
BLACK
6
CONTINUOUS
10
1.43193
20
1.28457
11
1.43263
21
1.28428
0
LINE
8
BLACK
6
CONTINUOUS
10
1.43263
20
1.28428
11
1.43291
21
1.28358
0
LINE
8
BLACK
6
CONTINUOUS
10
1.43291
20
1.28358
11
1.43291
21
1.20642
0
LINE
8
BLACK
6
CONTINUOUS
10
1.43291
20
1.20642
11
1.43263
21
1.20572
0
LINE
8
BLACK
6
CONTINUOUS
10
1.43263
20
1.20572
11
1.43193
21
1.20543
0
LINE
8
BLACK
6
CONTINUOUS
10
1.43193
20
1.20543
11
1.29807
21
1.20543
0
LINE
8
BLACK
6
CONTINUOUS
10
1.29807
20
1.20543
11
1.29737
21
1.20572
0
LINE
8
BLACK
6
CONTINUOUS
10
1.29737
20
1.20572
11
1.29709
21
1.20642
0
LINE
8
BLACK
6
CONTINUOUS
10
1.29709
20
1.20642
11
1.29709
21
1.28358
0
LINE
8
BLACK
6
CONTINUOUS
10
1.29709
20
1.28358
11
1.29737
21
1.28428
0
LINE
8
BLACK
6
CONTINUOUS
10
1.29737
20
1.28428
11
1.29807
21
1.28457
0
LINE
8
BLACK
6
CONTINUOUS
10
1.29807
20
1.28457
11
1.43193
21
1.28457
0
LINE
8
BLACK
6
CONTINUOUS
10
1.29906
20
1.2826
11
1.29906
21
1.2074
0
LINE
8
BLACK
6
CONTINUOUS
10
1.29906
20
1.2074
11
1.43094
21
1.2074
0
LINE
8
BLACK
6
CONTINUOUS
10
1.43094
20
1.2074
11
1.43094
21
1.2826
0
LINE
8
BLACK
6
CONTINUOUS
10
1.43094
20
1.2826
11
1.29906
21
1.2826
0
LINE
8
BLACK
6
CONTINUOUS
10
1.12134
20
1.44154
11
1.12203
21
1.44125
0
LINE
8
BLACK
6
CONTINUOUS
10
1.12203
20
1.44125
11
1.12232
21
1.44055
0
LINE
8
BLACK
6
CONTINUOUS
10
1.12232
20
1.44055
11
1.12232
21
1.25945
0
LINE
8
BLACK
6
CONTINUOUS
10
1.12232
20
1.25945
11
1.12203
21
1.25875
0
LINE
8
BLACK
6
CONTINUOUS
10
1.12203
20
1.25875
11
1.12134
21
1.25846
0
LINE
8
BLACK
6
CONTINUOUS
10
1.12134
20
1.25846
11
1.03866
21
1.25846
0
LINE
8
BLACK
6
CONTINUOUS
10
1.03866
20
1.25846
11
1.03797
21
1.25875
0
LINE
8
BLACK
6
CONTINUOUS
10
1.03797
20
1.25875
11
1.03768
21
1.25945
0
LINE
8
BLACK
6
CONTINUOUS
10
1.03768
20
1.25945
11
1.03768
21
1.44055
0
LINE
8
BLACK
6
CONTINUOUS
10
1.03768
20
1.44055
11
1.03797
21
1.44125
0
LINE
8
BLACK
6
CONTINUOUS
10
1.03797
20
1.44125
11
1.03866
21
1.44154
0
LINE
8
BLACK
6
CONTINUOUS
10
1.03866
20
1.44154
11
1.12134
21
1.44154
0
LINE
8
BLACK
6
CONTINUOUS
10
1.03965
20
1.43957
11
1.03965
21
1.26043
0
LINE
8
BLACK
6
CONTINUOUS
10
1.03965
20
1.26043
11
1.12035
21
1.26043
0
LINE
8
BLACK
6
CONTINUOUS
10
1.12035
20
1.26043
11
1.12035
21
1.43957
0
LINE
8
BLACK
6
CONTINUOUS
10
1.12035
20
1.43957
11
1.03965
21
1.43957
0
LINE
8
BLACK
6
CONTINUOUS
10
0.968268
20
1.31972
11
0.968964
21
1.31944
0
LINE
8
BLACK
6
CONTINUOUS
10
0.968964
20
1.31944
11
0.969252
21
1.31874
0
LINE
8
BLACK
6
CONTINUOUS
10
0.969252
20
1.31874
11
0.969252
21
1.26126
0
LINE
8
BLACK
6
CONTINUOUS
10
0.969252
20
1.26126
11
0.968964
21
1.26056
0
LINE
8
BLACK
6
CONTINUOUS
10
0.968964
20
1.26056
11
0.968268
21
1.26028
0
LINE
8
BLACK
6
CONTINUOUS
10
0.968268
20
1.26028
11
0.851732
21
1.26028
0
LINE
8
BLACK
6
CONTINUOUS
10
0.851732
20
1.26028
11
0.851036
21
1.26056
0
LINE
8
BLACK
6
CONTINUOUS
10
0.851036
20
1.26056
11
0.850748
21
1.26126
0
LINE
8
BLACK
6
CONTINUOUS
10
0.850748
20
1.26126
11
0.850748
21
1.31874
0
LINE
8
BLACK
6
CONTINUOUS
10
0.850748
20
1.31874
11
0.851036
21
1.31944
0
LINE
8
BLACK
6
CONTINUOUS
10
0.851036
20
1.31944
11
0.851732
21
1.31972
0
LINE
8
BLACK
6
CONTINUOUS
10
0.851732
20
1.31972
11
0.968268
21
1.31972
0
LINE
8
BLACK
6
CONTINUOUS
10
0.852717
20
1.31776
11
0.852717
21
1.26224
0
LINE
8
BLACK
6
CONTINUOUS
10
0.852717
20
1.26224
11
0.967283
21
1.26224
0
LINE
8
BLACK
6
CONTINUOUS
10
0.967283
20
1.26224
11
0.967283
21
1.31776
0
LINE
8
BLACK
6
CONTINUOUS
10
0.967283
20
1.31776
11
0.852717
21
1.31776
0
LINE
8
BLACK
6
CONTINUOUS
10
1.45299
20
1.49154
11
1.45369
21
1.49125
0
LINE
8
BLACK
6
CONTINUOUS
10
1.45369
20
1.49125
11
1.45398
21
1.49055
0
LINE
8
BLACK
6
CONTINUOUS
10
1.45398
20
1.49055
11
1.45398
21
1.30945
0
LINE
8
BLACK
6
CONTINUOUS
10
1.45398
20
1.30945
11
1.45369
21
1.30875
0
LINE
8
BLACK
6
CONTINUOUS
10
1.45369
20
1.30875
11
1.45299
21
1.30846
0
LINE
8
BLACK
6
CONTINUOUS
10
1.45299
20
1.30846
11
1.32701
21
1.30846
0
LINE
8
BLACK
6
CONTINUOUS
10
1.32701
20
1.30846
11
1.32631
21
1.30875
0
LINE
8
BLACK
6
CONTINUOUS
10
1.32631
20
1.30875
11
1.32602
21
1.30945
0
LINE
8
BLACK
6
CONTINUOUS
10
1.32602
20
1.30945
11
1.32602
21
1.49055
0
LINE
8
BLACK
6
CONTINUOUS
10
1.32602
20
1.49055
11
1.32631
21
1.49125
0
LINE
8
BLACK
6
CONTINUOUS
10
1.32631
20
1.49125
11
1.32701
21
1.49154
0
LINE
8
BLACK
6
CONTINUOUS
10
1.32701
20
1.49154
11
1.45299
21
1.49154
0
LINE
8
BLACK
6
CONTINUOUS
10
1.32799
20
1.48957
11
1.32799
21
1.31043
0
LINE
8
BLACK
6
CONTINUOUS
10
1.32799
20
1.31043
11
1.45201
21
1.31043
0
LINE
8
BLACK
6
CONTINUOUS
10
1.45201
20
1.31043
11
1.45201
21
1.48957
0
LINE
8
BLACK
6
CONTINUOUS
10
1.45201
20
1.48957
11
1.32799
21
1.48957
0
LINE
8
BLACK
6
CONTINUOUS
10
1.03134
20
1.55154
11
1.03203
21
1.55125
0
LINE
8
BLACK
6
CONTINUOUS
10
1.03203
20
1.55125
11
1.03232
21
1.55055
0
LINE
8
BLACK
6
CONTINUOUS
10
1.03232
20
1.55055
11
1.03232
21
1.54972
0
LINE
8
BLACK
6
CONTINUOUS
10
1.03232
20
1.54972
11
1.14827
21
1.54972
0
LINE
8
BLACK
6
CONTINUOUS
10
1.14827
20
1.54972
11
1.14896
21
1.54944
0
LINE
8
BLACK
6
CONTINUOUS
10
1.14896
20
1.54944
11
1.14925
21
1.54874
0
LINE
8
BLACK
6
CONTINUOUS
10
1.14925
20
1.54874
11
1.14925
21
1.49126
0
LINE
8
BLACK
6
CONTINUOUS
10
1.14925
20
1.49126
11
1.14896
21
1.49056
0
LINE
8
BLACK
6
CONTINUOUS
10
1.14896
20
1.49056
11
1.14827
21
1.49028
0
LINE
8
BLACK
6
CONTINUOUS
10
1.14827
20
1.49028
11
1.03232
21
1.49028
0
LINE
8
BLACK
6
CONTINUOUS
10
1.03232
20
1.49028
11
1.03232
21
1.36945
0
LINE
8
BLACK
6
CONTINUOUS
10
1.03232
20
1.36945
11
1.03203
21
1.36875
0
LINE
8
BLACK
6
CONTINUOUS
10
1.03203
20
1.36875
11
1.03134
21
1.36846
0
LINE
8
BLACK
6
CONTINUOUS
10
1.03134
20
1.36846
11
0.948661
21
1.36846
0
LINE
8
BLACK
6
CONTINUOUS
10
0.948661
20
1.36846
11
0.947965
21
1.36875
0
LINE
8
BLACK
6
CONTINUOUS
10
0.947965
20
1.36875
11
0.947677
21
1.36945
0
LINE
8
BLACK
6
CONTINUOUS
10
0.947677
20
1.36945
11
0.947677
21
1.55055
0
LINE
8
BLACK
6
CONTINUOUS
10
0.947677
20
1.55055
11
0.947965
21
1.55125
0
LINE
8
BLACK
6
CONTINUOUS
10
0.947965
20
1.55125
11
0.948661
21
1.55154
0
LINE
8
BLACK
6
CONTINUOUS
10
0.948661
20
1.55154
11
1.03134
21
1.55154
0
LINE
8
BLACK
6
CONTINUOUS
10
0.949646
20
1.54957
11
0.949646
21
1.37043
0
LINE
8
BLACK
6
CONTINUOUS
10
0.949646
20
1.37043
11
1.03035
21
1.37043
0
LINE
8
BLACK
6
CONTINUOUS
10
1.03035
20
1.37043
11
1.03035
21
1.54957
0
LINE
8
BLACK
6
CONTINUOUS
10
1.03035
20
1.54957
11
0.949646
21
1.54957
0
LINE
8
BLACK
6
CONTINUOUS
10
1.03272
20
1.54776
11
1.03272
21
1.49224
0
LINE
8
BLACK
6
CONTINUOUS
10
1.03272
20
1.49224
11
1.14728
21
1.49224
0
LINE
8
BLACK
6
CONTINUOUS
10
1.14728
20
1.49224
11
1.14728
21
1.54776
0
LINE
8
BLACK
6
CONTINUOUS
10
1.14728
20
1.54776
11
1.03272
21
1.54776
0
LINE
8
BLACK
6
CONTINUOUS
10
1.23634
20
1.55154
11
1.23703
21
1.55125
0
LINE
8
BLACK
6
CONTINUOUS
10
1.23703
20
1.55125
11
1.23732
21
1.55055
0
LINE
8
BLACK
6
CONTINUOUS
10
1.23732
20
1.55055
11
1.23732
21
1.36945
0
LINE
8
BLACK
6
CONTINUOUS
10
1.23732
20
1.36945
11
1.23703
21
1.36875
0
LINE
8
BLACK
6
CONTINUOUS
10
1.23703
20
1.36875
11
1.23634
21
1.36846
0
LINE
8
BLACK
6
CONTINUOUS
10
1.23634
20
1.36846
11
1.15366
21
1.36846
0
LINE
8
BLACK
6
CONTINUOUS
10
1.15366
20
1.36846
11
1.15297
21
1.36875
0
LINE
8
BLACK
6
CONTINUOUS
10
1.15297
20
1.36875
11
1.15268
21
1.36945
0
LINE
8
BLACK
6
CONTINUOUS
10
1.15268
20
1.36945
11
1.15268
21
1.55055
0
LINE
8
BLACK
6
CONTINUOUS
10
1.15268
20
1.55055
11
1.15297
21
1.55125
0
LINE
8
BLACK
6
CONTINUOUS
10
1.15297
20
1.55125
11
1.15366
21
1.55154
0
LINE
8
BLACK
6
CONTINUOUS
10
1.15366
20
1.55154
11
1.23634
21
1.55154
0
LINE
8
BLACK
6
CONTINUOUS
10
1.15465
20
1.54957
11
1.15465
21
1.37043
0
LINE
8
BLACK
6
CONTINUOUS
10
1.15465
20
1.37043
11
1.23535
21
1.37043
0
LINE
8
BLACK
6
CONTINUOUS
10
1.23535
20
1.37043
11
1.23535
21
1.54957
0
LINE
8
BLACK
6
CONTINUOUS
10
1.23535
20
1.54957
11
1.15465
21
1.54957
0
LINE
8
BLACK
6
CONTINUOUS
10
1.31858
20
1.55291
11
1.31928
21
1.55263
0
LINE
8
BLACK
6
CONTINUOUS
10
1.31928
20
1.55263
11
1.31957
21
1.55193
0
LINE
8
BLACK
6
CONTINUOUS
10
1.31957
20
1.55193
11
1.31957
21
1.41807
0
LINE
8
BLACK
6
CONTINUOUS
10
1.31957
20
1.41807
11
1.31928
21
1.41737
0
LINE
8
BLACK
6
CONTINUOUS
10
1.31928
20
1.41737
11
1.31858
21
1.41709
0
LINE
8
BLACK
6
CONTINUOUS
10
1.31858
20
1.41709
11
1.24142
21
1.41709
0
LINE
8
BLACK
6
CONTINUOUS
10
1.24142
20
1.41709
11
1.24072
21
1.41737
0
LINE
8
BLACK
6
CONTINUOUS
10
1.24072
20
1.41737
11
1.24043
21
1.41807
0
LINE
8
BLACK
6
CONTINUOUS
10
1.24043
20
1.41807
11
1.24043
21
1.55193
0
LINE
8
BLACK
6
CONTINUOUS
10
1.24043
20
1.55193
11
1.24072
21
1.55263
0
LINE
8
BLACK
6
CONTINUOUS
10
1.24072
20
1.55263
11
1.24142
21
1.55291
0
LINE
8
BLACK
6
CONTINUOUS
10
1.24142
20
1.55291
11
1.31858
21
1.55291
0
LINE
8
BLACK
6
CONTINUOUS
10
1.2424
20
1.55094
11
1.2424
21
1.41906
0
LINE
8
BLACK
6
CONTINUOUS
10
1.2424
20
1.41906
11
1.3176
21
1.41906
0
LINE
8
BLACK
6
CONTINUOUS
10
1.3176
20
1.41906
11
1.3176
21
1.55094
0
LINE
8
BLACK
6
CONTINUOUS
10
1.3176
20
1.55094
11
1.2424
21
1.55094
0
LINE
8
BLACK
6
CONTINUOUS
10
0.938268
20
1.54972
11
0.938964
21
1.54944
0
LINE
8
BLACK
6
CONTINUOUS
10
0.938964
20
1.54944
11
0.939252
21
1.54874
0
LINE
8
BLACK
6
CONTINUOUS
10
0.939252
20
1.54874
11
0.939252
21
1.49126
0
LINE
8
BLACK
6
CONTINUOUS
10
0.939252
20
1.49126
11
0.938964
21
1.49056
0
LINE
8
BLACK
6
CONTINUOUS
10
0.938964
20
1.49056
11
0.938268
21
1.49028
0
LINE
8
BLACK
6
CONTINUOUS
10
0.938268
20
1.49028
11
0.821732
21
1.49028
0
LINE
8
BLACK
6
CONTINUOUS
10
0.821732
20
1.49028
11
0.821036
21
1.49056
0
LINE
8
BLACK
6
CONTINUOUS
10
0.821036
20
1.49056
11
0.820748
21
1.49126
0
LINE
8
BLACK
6
CONTINUOUS
10
0.820748
20
1.49126
11
0.820748
21
1.54874
0
LINE
8
BLACK
6
CONTINUOUS
10
0.820748
20
1.54874
11
0.821036
21
1.54944
0
LINE
8
BLACK
6
CONTINUOUS
10
0.821036
20
1.54944
11
0.821732
21
1.54972
0
LINE
8
BLACK
6
CONTINUOUS
10
0.821732
20
1.54972
11
0.938268
21
1.54972
0
LINE
8
BLACK
6
CONTINUOUS
10
0.822717
20
1.54776
11
0.822717
21
1.49224
0
LINE
8
BLACK
6
CONTINUOUS
10
0.822717
20
1.49224
11
0.937283
21
1.49224
0
LINE
8
BLACK
6
CONTINUOUS
10
0.937283
20
1.49224
11
0.937283
21
1.54776
0
LINE
8
BLACK
6
CONTINUOUS
10
0.937283
20
1.54776
11
0.822717
21
1.54776
0
LINE
8
BLACK
6
CONTINUOUS
10
1.43827
20
1.55972
11
1.43896
21
1.55944
0
LINE
8
BLACK
6
CONTINUOUS
10
1.43896
20
1.55944
11
1.43925
21
1.55874
0
LINE
8
BLACK
6
CONTINUOUS
10
1.43925
20
1.55874
11
1.43925
21
1.50126
0
LINE
8
BLACK
6
CONTINUOUS
10
1.43925
20
1.50126
11
1.43896
21
1.50056
0
LINE
8
BLACK
6
CONTINUOUS
10
1.43896
20
1.50056
11
1.43827
21
1.50028
0
LINE
8
BLACK
6
CONTINUOUS
10
1.43827
20
1.50028
11
1.32173
21
1.50028
0
LINE
8
BLACK
6
CONTINUOUS
10
1.32173
20
1.50028
11
1.32104
21
1.50056
0
LINE
8
BLACK
6
CONTINUOUS
10
1.32104
20
1.50056
11
1.32075
21
1.50126
0
LINE
8
BLACK
6
CONTINUOUS
10
1.32075
20
1.50126
11
1.32075
21
1.50126
0
LINE
8
BLACK
6
CONTINUOUS
10
1.32075
20
1.50126
11
1.32075
21
1.55874
0
LINE
8
BLACK
6
CONTINUOUS
10
1.32075
20
1.55874
11
1.32104
21
1.55944
0
LINE
8
BLACK
6
CONTINUOUS
10
1.32104
20
1.55944
11
1.32173
21
1.55972
0
LINE
8
BLACK
6
CONTINUOUS
10
1.32173
20
1.55972
11
1.43827
21
1.55972
0
LINE
8
BLACK
6
CONTINUOUS
10
1.32272
20
1.55776
11
1.32272
21
1.50224
0
LINE
8
BLACK
6
CONTINUOUS
10
1.32272
20
1.50224
11
1.43728
21
1.50224
0
LINE
8
BLACK
6
CONTINUOUS
10
1.43728
20
1.50224
11
1.43728
21
1.55776
0
LINE
8
BLACK
6
CONTINUOUS
10
1.43728
20
1.55776
11
1.32272
21
1.55776
0
LINE
8
BLACK
6
CONTINUOUS
10
1.56327
20
1.55972
11
1.56396
21
1.55944
0
LINE
8
BLACK
6
CONTINUOUS
10
1.56396
20
1.55944
11
1.56425
21
1.55874
0
LINE
8
BLACK
6
CONTINUOUS
10
1.56425
20
1.55874
11
1.56425
21
1.50126
0
LINE
8
BLACK
6
CONTINUOUS
10
1.56425
20
1.50126
11
1.56396
21
1.50056
0
LINE
8
BLACK
6
CONTINUOUS
10
1.56396
20
1.50056
11
1.56327
21
1.50028
0
LINE
8
BLACK
6
CONTINUOUS
10
1.56327
20
1.50028
11
1.44673
21
1.50028
0
LINE
8
BLACK
6
CONTINUOUS
10
1.44673
20
1.50028
11
1.44604
21
1.50056
0
LINE
8
BLACK
6
CONTINUOUS
10
1.44604
20
1.50056
11
1.44575
21
1.50126
0
LINE
8
BLACK
6
CONTINUOUS
10
1.44575
20
1.50126
11
1.44575
21
1.55874
0
LINE
8
BLACK
6
CONTINUOUS
10
1.44575
20
1.55874
11
1.44604
21
1.55944
0
LINE
8
BLACK
6
CONTINUOUS
10
1.44604
20
1.55944
11
1.44673
21
1.55972
0
LINE
8
BLACK
6
CONTINUOUS
10
1.44673
20
1.55972
11
1.56327
21
1.55972
0
LINE
8
BLACK
6
CONTINUOUS
10
1.44772
20
1.55776
11
1.44772
21
1.50224
0
LINE
8
BLACK
6
CONTINUOUS
10
1.44772
20
1.50224
11
1.56228
21
1.50224
0
LINE
8
BLACK
6
CONTINUOUS
10
1.56228
20
1.50224
11
1.56228
21
1.55776
0
LINE
8
BLACK
6
CONTINUOUS
10
1.56228
20
1.55776
11
1.44772
21
1.55776
0
LINE
8
BLACK
6
CONTINUOUS
10
1.99646
20
1.59744
11
1.99715
21
1.59715
0
LINE
8
BLACK
6
CONTINUOUS
10
1.99715
20
1.59715
11
1.99744
21
1.59646
0
LINE
8
BLACK
6
CONTINUOUS
10
1.99744
20
1.59646
11
1.99744
21
0.403543
0
LINE
8
BLACK
6
CONTINUOUS
10
1.99744
20
0.403543
11
1.99715
21
0.402847
0
LINE
8
BLACK
6
CONTINUOUS
10
1.99715
20
0.402847
11
1.99646
21
0.402559
0
LINE
8
BLACK
6
CONTINUOUS
10
1.99646
20
0.402559
11
0.803543
21
0.402559
0
LINE
8
BLACK
6
CONTINUOUS
10
0.803543
20
0.402559
11
0.802847
21
0.402847
0
LINE
8
BLACK
6
CONTINUOUS
10
0.802847
20
0.402847
11
0.802559
21
0.403543
0
LINE
8
BLACK
6
CONTINUOUS
10
0.802559
20
0.403543
11
0.802559
21
1.59646
0
LINE
8
BLACK
6
CONTINUOUS
10
0.802559
20
1.59646
11
0.802847
21
1.59715
0
LINE
8
BLACK
6
CONTINUOUS
10
0.802847
20
1.59715
11
0.803543
21
1.59744
0
LINE
8
BLACK
6
CONTINUOUS
10
0.803543
20
1.59744
11
1.99646
21
1.59744
0
LINE
8
BLACK
6
CONTINUOUS
10
0.804528
20
1.59547
11
0.804528
21
0.404528
0
LINE
8
BLACK
6
CONTINUOUS
10
0.804528
20
0.404528
11
1.99547
21
0.404528
0
LINE
8
BLACK
6
CONTINUOUS
10
1.99547
20
0.404528
11
1.99547
21
1.59547
0
LINE
8
BLACK
6
CONTINUOUS
10
1.99547
20
1.59547
11
0.804528
21
1.59547
0
LINE
8
BLACK
6
CONTINUOUS
10
2.05551
20
1.6565
11
2.05621
21
1.65621
0
LINE
8
BLACK
6
CONTINUOUS
10
2.05621
20
1.65621
11
2.0565
21
1.65551
0
LINE
8
BLACK
6
CONTINUOUS
10
2.0565
20
1.65551
11
2.0565
21
0.344488
0
LINE
8
BLACK
6
CONTINUOUS
10
2.0565
20
0.344488
11
2.05621
21
0.343792
0
LINE
8
BLACK
6
CONTINUOUS
10
2.05621
20
0.343792
11
2.05551
21
0.343504
0
LINE
8
BLACK
6
CONTINUOUS
10
2.05551
20
0.343504
11
0.744488
21
0.343504
0
LINE
8
BLACK
6
CONTINUOUS
10
0.744488
20
0.343504
11
0.743792
21
0.343792
0
LINE
8
BLACK
6
CONTINUOUS
10
0.743792
20
0.343792
11
0.743504
21
0.344488
0
LINE
8
BLACK
6
CONTINUOUS
10
0.743504
20
0.344488
11
0.743504
21
1.65551
0
LINE
8
BLACK
6
CONTINUOUS
10
0.743504
20
1.65551
11
0.743792
21
1.65621
0
LINE
8
BLACK
6
CONTINUOUS
10
0.743792
20
1.65621
11
0.744488
21
1.6565
0
LINE
8
BLACK
6
CONTINUOUS
10
0.744488
20
1.6565
11
2.05551
21
1.6565
0
LINE
8
BLACK
6
CONTINUOUS
10
0.745472
20
1.65453
11
0.745472
21
0.345472
0
LINE
8
BLACK
6
CONTINUOUS
10
0.745472
20
0.345472
11
2.05453
21
0.345472
0
LINE
8
BLACK
6
CONTINUOUS
10
2.05453
20
0.345472
11
2.05453
21
1.65453
0
LINE
8
BLACK
6
CONTINUOUS
10
2.05453
20
1.65453
11
0.745472
21
1.65453
0
LINE
8
BLACK
6
CONTINUOUS
10
0.0269291
20
0.739567
11
0.0276251
21
0.739279
0
LINE
8
BLACK
6
CONTINUOUS
10
0.0276251
20
0.739279
11
0.0279134
21
0.738583
0
LINE
8
BLACK
6
CONTINUOUS
10
0.0279134
20
0.738583
11
0.0279134
21
0.661417
0
LINE
8
BLACK
6
CONTINUOUS
10
0.0279134
20
0.661417
11
0.0276251
21
0.660721
0
LINE
8
BLACK
6
CONTINUOUS
10
0.0276251
20
0.660721
11
0.0269291
21
0.660433
0
LINE
8
BLACK
6
CONTINUOUS
10
0.0269291
20
0.660433
11
-0.106929
21
0.660433
0
LINE
8
BLACK
6
CONTINUOUS
10
-0.106929
20
0.660433
11
-0.107625
21
0.660721
0
LINE
8
BLACK
6
CONTINUOUS
10
-0.107625
20
0.660721
11
-0.107913
21
0.661417
0
LINE
8
BLACK
6
CONTINUOUS
10
-0.107913
20
0.661417
11
-0.107913
21
0.738583
0
LINE
8
BLACK
6
CONTINUOUS
10
-0.107913
20
0.738583
11
-0.107625
21
0.739279
0
LINE
8
BLACK
6
CONTINUOUS
10
-0.107625
20
0.739279
11
-0.106929
21
0.739567
0
LINE
8
BLACK
6
CONTINUOUS
10
-0.106929
20
0.739567
11
0.0269291
21
0.739567
0
LINE
8
BLACK
6
CONTINUOUS
10
-0.105945
20
0.737598
11
-0.105945
21
0.662402
0
LINE
8
BLACK
6
CONTINUOUS
10
-0.105945
20
0.662402
11
0.0259449
21
0.662402
0
LINE
8
BLACK
6
CONTINUOUS
10
0.0259449
20
0.662402
11
0.0259449
21
0.737598
0
LINE
8
BLACK
6
CONTINUOUS
10
0.0259449
20
0.737598
11
-0.105945
21
0.737598
0
LINE
8
BLACK
6
CONTINUOUS
10
2.23693
20
0.834567
11
2.23763
21
0.834279
0
LINE
8
BLACK
6
CONTINUOUS
10
2.23763
20
0.834279
11
2.23791
21
0.833583
0
LINE
8
BLACK
6
CONTINUOUS
10
2.23791
20
0.833583
11
2.23791
21
0.756417
0
LINE
8
BLACK
6
CONTINUOUS
10
2.23791
20
0.756417
11
2.23763
21
0.755721
0
LINE
8
BLACK
6
CONTINUOUS
10
2.23763
20
0.755721
11
2.23693
21
0.755433
0
LINE
8
BLACK
6
CONTINUOUS
10
2.23693
20
0.755433
11
2.10307
21
0.755433
0
LINE
8
BLACK
6
CONTINUOUS
10
2.10307
20
0.755433
11
2.10237
21
0.755721
0
LINE
8
BLACK
6
CONTINUOUS
10
2.10237
20
0.755721
11
2.10209
21
0.756417
0
LINE
8
BLACK
6
CONTINUOUS
10
2.10209
20
0.756417
11
2.10209
21
0.833583
0
LINE
8
BLACK
6
CONTINUOUS
10
2.10209
20
0.833583
11
2.10237
21
0.834279
0
LINE
8
BLACK
6
CONTINUOUS
10
2.10237
20
0.834279
11
2.10307
21
0.834567
0
LINE
8
BLACK
6
CONTINUOUS
10
2.10307
20
0.834567
11
2.23693
21
0.834567
0
LINE
8
BLACK
6
CONTINUOUS
10
2.10406
20
0.832598
11
2.10406
21
0.757402
0
LINE
8
BLACK
6
CONTINUOUS
10
2.10406
20
0.757402
11
2.23594
21
0.757402
0
LINE
8
BLACK
6
CONTINUOUS
10
2.23594
20
0.757402
11
2.23594
21
0.832598
0
LINE
8
BLACK
6
CONTINUOUS
10
2.23594
20
0.832598
11
2.10406
21
0.832598
0
LINE
8
BLACK
6
CONTINUOUS
10
0.00692913
20
0.940039
11
0.00762512
21
0.939751
0
LINE
8
BLACK
6
CONTINUOUS
10
0.00762512
20
0.939751
11
0.00791339
21
0.939055
0
LINE
8
BLACK
6
CONTINUOUS
10
0.00791339
20
0.939055
11
0.00791339
21
0.820945
0
LINE
8
BLACK
6
CONTINUOUS
10
0.00791339
20
0.820945
11
0.00762512
21
0.820249
0
LINE
8
BLACK
6
CONTINUOUS
10
0.00762512
20
0.820249
11
0.00692913
21
0.819961
0
LINE
8
BLACK
6
CONTINUOUS
10
0.00692913
20
0.819961
11
-0.126929
21
0.819961
0
LINE
8
BLACK
6
CONTINUOUS
10
-0.126929
20
0.819961
11
-0.127625
21
0.820249
0
LINE
8
BLACK
6
CONTINUOUS
10
-0.127625
20
0.820249
11
-0.127913
21
0.820945
0
LINE
8
BLACK
6
CONTINUOUS
10
-0.127913
20
0.820945
11
-0.127913
21
0.939055
0
LINE
8
BLACK
6
CONTINUOUS
10
-0.127913
20
0.939055
11
-0.127625
21
0.939751
0
LINE
8
BLACK
6
CONTINUOUS
10
-0.127625
20
0.939751
11
-0.126929
21
0.940039
0
LINE
8
BLACK
6
CONTINUOUS
10
-0.126929
20
0.940039
11
0.00692913
21
0.940039
0
LINE
8
BLACK
6
CONTINUOUS
10
-0.125945
20
0.938071
11
-0.125945
21
0.821929
0
LINE
8
BLACK
6
CONTINUOUS
10
-0.125945
20
0.821929
11
0.00594488
21
0.821929
0
LINE
8
BLACK
6
CONTINUOUS
10
0.00594488
20
0.821929
11
0.00594488
21
0.938071
0
LINE
8
BLACK
6
CONTINUOUS
10
0.00594488
20
0.938071
11
-0.125945
21
0.938071
0
LINE
8
BLACK
6
CONTINUOUS
10
-0.265039
20
0.884724
11
-0.264343
21
0.884436
0
LINE
8
BLACK
6
CONTINUOUS
10
-0.264343
20
0.884436
11
-0.264055
21
0.88374
0
LINE
8
BLACK
6
CONTINUOUS
10
-0.264055
20
0.88374
11
-0.264055
21
0.82626
0
LINE
8
BLACK
6
CONTINUOUS
10
-0.264055
20
0.82626
11
-0.264343
21
0.825564
0
LINE
8
BLACK
6
CONTINUOUS
10
-0.264343
20
0.825564
11
-0.265039
21
0.825276
0
LINE
8
BLACK
6
CONTINUOUS
10
-0.265039
20
0.825276
11
-0.394961
21
0.825276
0
LINE
8
BLACK
6
CONTINUOUS
10
-0.394961
20
0.825276
11
-0.395657
21
0.825564
0
LINE
8
BLACK
6
CONTINUOUS
10
-0.395657
20
0.825564
11
-0.395945
21
0.82626
0
LINE
8
BLACK
6
CONTINUOUS
10
-0.395945
20
0.82626
11
-0.395945
21
0.88374
0
LINE
8
BLACK
6
CONTINUOUS
10
-0.395945
20
0.88374
11
-0.395657
21
0.884436
0
LINE
8
BLACK
6
CONTINUOUS
10
-0.395657
20
0.884436
11
-0.394961
21
0.884724
0
LINE
8
BLACK
6
CONTINUOUS
10
-0.394961
20
0.884724
11
-0.265039
21
0.884724
0
LINE
8
BLACK
6
CONTINUOUS
10
-0.393976
20
0.882756
11
-0.393976
21
0.827244
0
LINE
8
BLACK
6
CONTINUOUS
10
-0.393976
20
0.827244
11
-0.266024
21
0.827244
0
LINE
8
BLACK
6
CONTINUOUS
10
-0.266024
20
0.827244
11
-0.266024
21
0.882756
0
LINE
8
BLACK
6
CONTINUOUS
10
-0.266024
20
0.882756
11
-0.393976
21
0.882756
0
LINE
8
BLACK
6
CONTINUOUS
10
2.36846
20
1.00488
11
2.36916
21
1.00459
0
LINE
8
BLACK
6
CONTINUOUS
10
2.36916
20
1.00459
11
2.36945
21
1.0039
0
LINE
8
BLACK
6
CONTINUOUS
10
2.36945
20
1.0039
11
2.36945
21
0.866102
0
LINE
8
BLACK
6
CONTINUOUS
10
2.36945
20
0.866102
11
2.36916
21
0.865406
0
LINE
8
BLACK
6
CONTINUOUS
10
2.36916
20
0.865406
11
2.36846
21
0.865118
0
LINE
8
BLACK
6
CONTINUOUS
10
2.36846
20
0.865118
11
2.30154
21
0.865118
0
LINE
8
BLACK
6
CONTINUOUS
10
2.30154
20
0.865118
11
2.30084
21
0.865406
0
LINE
8
BLACK
6
CONTINUOUS
10
2.30084
20
0.865406
11
2.30055
21
0.866102
0
LINE
8
BLACK
6
CONTINUOUS
10
2.30055
20
0.866102
11
2.30055
21
0.866102
0
LINE
8
BLACK
6
CONTINUOUS
10
2.30055
20
0.866102
11
2.30055
21
1.0039
0
LINE
8
BLACK
6
CONTINUOUS
10
2.30055
20
1.0039
11
2.30084
21
1.00459
0
LINE
8
BLACK
6
CONTINUOUS
10
2.30084
20
1.00459
11
2.30154
21
1.00488
0
LINE
8
BLACK
6
CONTINUOUS
10
2.30154
20
1.00488
11
2.36846
21
1.00488
0
LINE
8
BLACK
6
CONTINUOUS
10
2.30252
20
1.00291
11
2.30252
21
0.867087
0
LINE
8
BLACK
6
CONTINUOUS
10
2.30252
20
0.867087
11
2.36748
21
0.867087
0
LINE
8
BLACK
6
CONTINUOUS
10
2.36748
20
0.867087
11
2.36748
21
1.00291
0
LINE
8
BLACK
6
CONTINUOUS
10
2.36748
20
1.00291
11
2.30252
21
1.00291
0
LINE
8
BLACK
6
CONTINUOUS
10
0.130551
20
1.1102
11
0.131247
21
1.10991
0
LINE
8
BLACK
6
CONTINUOUS
10
0.131247
20
1.10991
11
0.131535
21
1.10921
0
LINE
8
BLACK
6
CONTINUOUS
10
0.131535
20
1.10921
11
0.131535
21
1.01079
0
LINE
8
BLACK
6
CONTINUOUS
10
0.131535
20
1.01079
11
0.131247
21
1.01009
0
LINE
8
BLACK
6
CONTINUOUS
10
0.131247
20
1.01009
11
0.130551
21
1.0098
0
LINE
8
BLACK
6
CONTINUOUS
10
0.130551
20
1.0098
11
-0.0505512
21
1.0098
0
LINE
8
BLACK
6
CONTINUOUS
10
-0.0505512
20
1.0098
11
-0.0512472
21
1.01009
0
LINE
8
BLACK
6
CONTINUOUS
10
-0.0512472
20
1.01009
11
-0.0515354
21
1.01079
0
LINE
8
BLACK
6
CONTINUOUS
10
-0.0515354
20
1.01079
11
-0.0515354
21
1.10921
0
LINE
8
BLACK
6
CONTINUOUS
10
-0.0515354
20
1.10921
11
-0.0512472
21
1.10991
0
LINE
8
BLACK
6
CONTINUOUS
10
-0.0512472
20
1.10991
11
-0.0505512
21
1.1102
0
LINE
8
BLACK
6
CONTINUOUS
10
-0.0505512
20
1.1102
11
0.130551
21
1.1102
0
LINE
8
BLACK
6
CONTINUOUS
10
-0.0495669
20
1.10823
11
-0.0495669
21
1.01177
0
LINE
8
BLACK
6
CONTINUOUS
10
-0.0495669
20
1.01177
11
0.129567
21
1.01177
0
LINE
8
BLACK
6
CONTINUOUS
10
0.129567
20
1.01177
11
0.129567
21
1.10823
0
LINE
8
BLACK
6
CONTINUOUS
10
0.129567
20
1.10823
11
-0.0495669
21
1.10823
0
LINE
8
BLACK
6
CONTINUOUS
10
2.40114
20
1.09839
11
2.40184
21
1.0981
0
LINE
8
BLACK
6
CONTINUOUS
10
2.40184
20
1.0981
11
2.40213
21
1.0974
0
LINE
8
BLACK
6
CONTINUOUS
10
2.40213
20
1.0974
11
2.40213
21
1.0226
0
LINE
8
BLACK
6
CONTINUOUS
10
2.40213
20
1.0226
11
2.40184
21
1.0219
0
LINE
8
BLACK
6
CONTINUOUS
10
2.40184
20
1.0219
11
2.40114
21
1.02161
0
LINE
8
BLACK
6
CONTINUOUS
10
2.40114
20
1.02161
11
2.26886
21
1.02161
0
LINE
8
BLACK
6
CONTINUOUS
10
2.26886
20
1.02161
11
2.26816
21
1.0219
0
LINE
8
BLACK
6
CONTINUOUS
10
2.26816
20
1.0219
11
2.26787
21
1.0226
0
LINE
8
BLACK
6
CONTINUOUS
10
2.26787
20
1.0226
11
2.26787
21
1.0974
0
LINE
8
BLACK
6
CONTINUOUS
10
2.26787
20
1.0974
11
2.26816
21
1.0981
0
LINE
8
BLACK
6
CONTINUOUS
10
2.26816
20
1.0981
11
2.26886
21
1.09839
0
LINE
8
BLACK
6
CONTINUOUS
10
2.26886
20
1.09839
11
2.40114
21
1.09839
0
LINE
8
BLACK
6
CONTINUOUS
10
2.26984
20
1.09642
11
2.26984
21
1.02358
0
LINE
8
BLACK
6
CONTINUOUS
10
2.26984
20
1.02358
11
2.40016
21
1.02358
0
LINE
8
BLACK
6
CONTINUOUS
10
2.40016
20
1.02358
11
2.40016
21
1.09642
0
LINE
8
BLACK
6
CONTINUOUS
10
2.40016
20
1.09642
11
2.26984
21
1.09642
0
LINE
8
BLACK
6
CONTINUOUS
10
-0.22311
20
1.61681
11
-0.222414
21
1.61652
0
LINE
8
BLACK
6
CONTINUOUS
10
-0.222414
20
1.61652
11
-0.222126
21
1.61583
0
LINE
8
BLACK
6
CONTINUOUS
10
-0.222126
20
1.61583
11
-0.222126
21
1.48197
0
LINE
8
BLACK
6
CONTINUOUS
10
-0.222126
20
1.48197
11
-0.222414
21
1.48127
0
LINE
8
BLACK
6
CONTINUOUS
10
-0.222414
20
1.48127
11
-0.22311
21
1.48098
0
LINE
8
BLACK
6
CONTINUOUS
10
-0.22311
20
1.48098
11
-0.384528
21
1.48098
0
LINE
8
BLACK
6
CONTINUOUS
10
-0.384528
20
1.48098
11
-0.385224
21
1.48127
0
LINE
8
BLACK
6
CONTINUOUS
10
-0.385224
20
1.48127
11
-0.385512
21
1.48197
0
LINE
8
BLACK
6
CONTINUOUS
10
-0.385512
20
1.48197
11
-0.385512
21
1.61583
0
LINE
8
BLACK
6
CONTINUOUS
10
-0.385512
20
1.61583
11
-0.385224
21
1.61652
0
LINE
8
BLACK
6
CONTINUOUS
10
-0.385224
20
1.61652
11
-0.384528
21
1.61681
0
LINE
8
BLACK
6
CONTINUOUS
10
-0.384528
20
1.61681
11
-0.22311
21
1.61681
0
LINE
8
BLACK
6
CONTINUOUS
10
-0.383543
20
1.61484
11
-0.383543
21
1.48295
0
LINE
8
BLACK
6
CONTINUOUS
10
-0.383543
20
1.48295
11
-0.224094
21
1.48295
0
LINE
8
BLACK
6
CONTINUOUS
10
-0.224094
20
1.48295
11
-0.224094
21
1.61484
0
LINE
8
BLACK
6
CONTINUOUS
10
-0.224094
20
1.61484
11
-0.383543
21
1.61484
0
LINE
8
BLACK
6
CONTINUOUS
10
-0.0271654
20
1.62839
11
-0.0264694
21
1.6281
0
LINE
8
BLACK
6
CONTINUOUS
10
-0.0264694
20
1.6281
11
-0.0261811
21
1.6274
0
LINE
8
BLACK
6
CONTINUOUS
10
-0.0261811
20
1.6274
11
-0.0261811
21
1.5526
0
LINE
8
BLACK
6
CONTINUOUS
10
-0.0261811
20
1.5526
11
-0.0264694
21
1.5519
0
LINE
8
BLACK
6
CONTINUOUS
10
-0.0264694
20
1.5519
11
-0.0271654
21
1.55161
0
LINE
8
BLACK
6
CONTINUOUS
10
-0.0271654
20
1.55161
11
-0.172835
21
1.55161
0
LINE
8
BLACK
6
CONTINUOUS
10
-0.172835
20
1.55161
11
-0.173531
21
1.5519
0
LINE
8
BLACK
6
CONTINUOUS
10
-0.173531
20
1.5519
11
-0.173819
21
1.5526
0
LINE
8
BLACK
6
CONTINUOUS
10
-0.173819
20
1.5526
11
-0.173819
21
1.5526
0
LINE
8
BLACK
6
CONTINUOUS
10
-0.173819
20
1.5526
11
-0.173819
21
1.6274
0
LINE
8
BLACK
6
CONTINUOUS
10
-0.173819
20
1.6274
11
-0.173531
21
1.6281
0
LINE
8
BLACK
6
CONTINUOUS
10
-0.173531
20
1.6281
11
-0.172835
21
1.62839
0
LINE
8
BLACK
6
CONTINUOUS
10
-0.172835
20
1.62839
11
-0.0271654
21
1.62839
0
LINE
8
BLACK
6
CONTINUOUS
10
-0.17185
20
1.62642
11
-0.17185
21
1.55358
0
LINE
8
BLACK
6
CONTINUOUS
10
-0.17185
20
1.55358
11
-0.0281496
21
1.55358
0
LINE
8
BLACK
6
CONTINUOUS
10
-0.0281496
20
1.55358
11
-0.0281496
21
1.62642
0
LINE
8
BLACK
6
CONTINUOUS
10
-0.0281496
20
1.62642
11
-0.17185
21
1.62642
0
LINE
8
BLACK
6
CONTINUOUS
10
-0.506575
20
1.72823
11
-0.505879
21
1.72794
0
LINE
8
BLACK
6
CONTINUOUS
10
-0.505879
20
1.72794
11
-0.505591
21
1.72724
0
LINE
8
BLACK
6
CONTINUOUS
10
-0.505591
20
1.72724
11
-0.505591
21
1.64457
0
LINE
8
BLACK
6
CONTINUOUS
10
-0.505591
20
1.64457
11
-0.505879
21
1.64387
0
LINE
8
BLACK
6
CONTINUOUS
10
-0.505879
20
1.64387
11
-0.506575
21
1.64358
0
LINE
8
BLACK
6
CONTINUOUS
10
-0.506575
20
1.64358
11
-0.687677
21
1.64358
0
LINE
8
BLACK
6
CONTINUOUS
10
-0.687677
20
1.64358
11
-0.688373
21
1.64387
0
LINE
8
BLACK
6
CONTINUOUS
10
-0.688373
20
1.64387
11
-0.688661
21
1.64457
0
LINE
8
BLACK
6
CONTINUOUS
10
-0.688661
20
1.64457
11
-0.688661
21
1.72724
0
LINE
8
BLACK
6
CONTINUOUS
10
-0.688661
20
1.72724
11
-0.688373
21
1.72794
0
LINE
8
BLACK
6
CONTINUOUS
10
-0.688373
20
1.72794
11
-0.687677
21
1.72823
0
LINE
8
BLACK
6
CONTINUOUS
10
-0.687677
20
1.72823
11
-0.506575
21
1.72823
0
LINE
8
BLACK
6
CONTINUOUS
10
-0.686693
20
1.72626
11
-0.686693
21
1.64555
0
LINE
8
BLACK
6
CONTINUOUS
10
-0.686693
20
1.64555
11
-0.507559
21
1.64555
0
LINE
8
BLACK
6
CONTINUOUS
10
-0.507559
20
1.64555
11
-0.507559
21
1.72626
0
LINE
8
BLACK
6
CONTINUOUS
10
-0.507559
20
1.72626
11
-0.686693
21
1.72626
0
LINE
8
BLACK
6
CONTINUOUS
10
2.17872
20
1.75443
11
2.18717
21
1.75217
0
LINE
8
BLACK
6
CONTINUOUS
10
2.18717
20
1.75217
11
2.1951
21
1.74847
0
LINE
8
BLACK
6
CONTINUOUS
10
2.1951
20
1.74847
11
2.20227
21
1.74345
0
LINE
8
BLACK
6
CONTINUOUS
10
2.20227
20
1.74345
11
2.20845
21
1.73727
0
LINE
8
BLACK
6
CONTINUOUS
10
2.20845
20
1.73727
11
2.21347
21
1.7301
0
LINE
8
BLACK
6
CONTINUOUS
10
2.21347
20
1.7301
11
2.21717
21
1.72217
0
LINE
8
BLACK
6
CONTINUOUS
10
2.21717
20
1.72217
11
2.21943
21
1.71372
0
LINE
8
BLACK
6
CONTINUOUS
10
2.21943
20
1.71372
11
2.2202
21
1.705
0
LINE
8
BLACK
6
CONTINUOUS
10
2.2202
20
1.705
11
2.21943
21
1.69628
0
LINE
8
BLACK
6
CONTINUOUS
10
2.21943
20
1.69628
11
2.21717
21
1.68783
0
LINE
8
BLACK
6
CONTINUOUS
10
2.21717
20
1.68783
11
2.21347
21
1.6799
0
LINE
8
BLACK
6
CONTINUOUS
10
2.21347
20
1.6799
11
2.20845
21
1.67273
0
LINE
8
BLACK
6
CONTINUOUS
10
2.20845
20
1.67273
11
2.20227
21
1.66655
0
LINE
8
BLACK
6
CONTINUOUS
10
2.20227
20
1.66655
11
2.1951
21
1.66153
0
LINE
8
BLACK
6
CONTINUOUS
10
2.1951
20
1.66153
11
2.18717
21
1.65783
0
LINE
8
BLACK
6
CONTINUOUS
10
2.18717
20
1.65783
11
2.17872
21
1.65557
0
LINE
8
BLACK
6
CONTINUOUS
10
2.17872
20
1.65557
11
2.17
21
1.6548
0
LINE
8
BLACK
6
CONTINUOUS
10
2.17
20
1.6548
11
2.16128
21
1.65557
0
LINE
8
BLACK
6
CONTINUOUS
10
2.16128
20
1.65557
11
2.15283
21
1.65783
0
LINE
8
BLACK
6
CONTINUOUS
10
2.15283
20
1.65783
11
2.1449
21
1.66153
0
LINE
8
BLACK
6
CONTINUOUS
10
2.1449
20
1.66153
11
2.13773
21
1.66655
0
LINE
8
BLACK
6
CONTINUOUS
10
2.13773
20
1.66655
11
2.13155
21
1.67273
0
LINE
8
BLACK
6
CONTINUOUS
10
2.13155
20
1.67273
11
2.12653
21
1.6799
0
LINE
8
BLACK
6
CONTINUOUS
10
2.12653
20
1.6799
11
2.12283
21
1.68783
0
LINE
8
BLACK
6
CONTINUOUS
10
2.12283
20
1.68783
11
2.12057
21
1.69628
0
LINE
8
BLACK
6
CONTINUOUS
10
2.12057
20
1.69628
11
2.1198
21
1.705
0
LINE
8
BLACK
6
CONTINUOUS
10
2.1198
20
1.705
11
2.12057
21
1.71372
0
LINE
8
BLACK
6
CONTINUOUS
10
2.12057
20
1.71372
11
2.12283
21
1.72217
0
LINE
8
BLACK
6
CONTINUOUS
10
2.12283
20
1.72217
11
2.12653
21
1.7301
0
LINE
8
BLACK
6
CONTINUOUS
10
2.12653
20
1.7301
11
2.13155
21
1.73727
0
LINE
8
BLACK
6
CONTINUOUS
10
2.13155
20
1.73727
11
2.13773
21
1.74345
0
LINE
8
BLACK
6
CONTINUOUS
10
2.13773
20
1.74345
11
2.1449
21
1.74847
0
LINE
8
BLACK
6
CONTINUOUS
10
2.1449
20
1.74847
11
2.15283
21
1.75217
0
LINE
8
BLACK
6
CONTINUOUS
10
2.15283
20
1.75217
11
2.16128
21
1.75443
0
LINE
8
BLACK
6
CONTINUOUS
10
2.16128
20
1.75443
11
2.17
21
1.7552
0
LINE
8
BLACK
6
CONTINUOUS
10
2.17
20
1.7552
11
2.17872
21
1.75443
0
LINE
8
BLACK
6
CONTINUOUS
10
2.12232
20
1.69659
11
2.12451
21
1.68844
0
LINE
8
BLACK
6
CONTINUOUS
10
2.12451
20
1.68844
11
2.12807
21
1.68079
0
LINE
8
BLACK
6
CONTINUOUS
10
2.12807
20
1.68079
11
2.13291
21
1.67388
0
LINE
8
BLACK
6
CONTINUOUS
10
2.13291
20
1.67388
11
2.13888
21
1.66791
0
LINE
8
BLACK
6
CONTINUOUS
10
2.13888
20
1.66791
11
2.14579
21
1.66307
0
LINE
8
BLACK
6
CONTINUOUS
10
2.14579
20
1.66307
11
2.15344
21
1.65951
0
LINE
8
BLACK
6
CONTINUOUS
10
2.15344
20
1.65951
11
2.16159
21
1.65732
0
LINE
8
BLACK
6
CONTINUOUS
10
2.16159
20
1.65732
11
2.17
21
1.65659
0
LINE
8
BLACK
6
CONTINUOUS
10
2.17
20
1.65659
11
2.17841
21
1.65732
0
LINE
8
BLACK
6
CONTINUOUS
10
2.17841
20
1.65732
11
2.18656
21
1.65951
0
LINE
8
BLACK
6
CONTINUOUS
10
2.18656
20
1.65951
11
2.19421
21
1.66307
0
LINE
8
BLACK
6
CONTINUOUS
10
2.19421
20
1.66307
11
2.20112
21
1.66791
0
LINE
8
BLACK
6
CONTINUOUS
10
2.20112
20
1.66791
11
2.20709
21
1.67388
0
LINE
8
BLACK
6
CONTINUOUS
10
2.20709
20
1.67388
11
2.21193
21
1.68079
0
LINE
8
BLACK
6
CONTINUOUS
10
2.21193
20
1.68079
11
2.21549
21
1.68844
0
LINE
8
BLACK
6
CONTINUOUS
10
2.21549
20
1.68844
11
2.21768
21
1.69659
0
LINE
8
BLACK
6
CONTINUOUS
10
2.21768
20
1.69659
11
2.21841
21
1.705
0
LINE
8
BLACK
6
CONTINUOUS
10
2.21841
20
1.705
11
2.21768
21
1.71341
0
LINE
8
BLACK
6
CONTINUOUS
10
2.21768
20
1.71341
11
2.21549
21
1.72156
0
LINE
8
BLACK
6
CONTINUOUS
10
2.21549
20
1.72156
11
2.21193
21
1.72921
0
LINE
8
BLACK
6
CONTINUOUS
10
2.21193
20
1.72921
11
2.20709
21
1.73612
0
LINE
8
BLACK
6
CONTINUOUS
10
2.20709
20
1.73612
11
2.20112
21
1.74209
0
LINE
8
BLACK
6
CONTINUOUS
10
2.20112
20
1.74209
11
2.19421
21
1.74693
0
LINE
8
BLACK
6
CONTINUOUS
10
2.19421
20
1.74693
11
2.18656
21
1.75049
0
LINE
8
BLACK
6
CONTINUOUS
10
2.18656
20
1.75049
11
2.17841
21
1.75268
0
LINE
8
BLACK
6
CONTINUOUS
10
2.17841
20
1.75268
11
2.17
21
1.75341
0
LINE
8
BLACK
6
CONTINUOUS
10
2.17
20
1.75341
11
2.16159
21
1.75268
0
LINE
8
BLACK
6
CONTINUOUS
10
2.16159
20
1.75268
11
2.15344
21
1.75049
0
LINE
8
BLACK
6
CONTINUOUS
10
2.15344
20
1.75049
11
2.14579
21
1.74693
0
LINE
8
BLACK
6
CONTINUOUS
10
2.14579
20
1.74693
11
2.13888
21
1.74209
0
LINE
8
BLACK
6
CONTINUOUS
10
2.13888
20
1.74209
11
2.13291
21
1.73612
0
LINE
8
BLACK
6
CONTINUOUS
10
2.13291
20
1.73612
11
2.12807
21
1.72921
0
LINE
8
BLACK
6
CONTINUOUS
10
2.12807
20
1.72921
11
2.12451
21
1.72156
0
LINE
8
BLACK
6
CONTINUOUS
10
2.12451
20
1.72156
11
2.12232
21
1.71341
0
LINE
8
BLACK
6
CONTINUOUS
10
2.12232
20
1.71341
11
2.12159
21
1.705
0
LINE
8
BLACK
6
CONTINUOUS
10
2.12159
20
1.705
11
2.12232
21
1.69659
0
LINE
8
BLACK
6
CONTINUOUS
10
0.420472
20
1.79114
11
0.421168
21
1.79085
0
LINE
8
BLACK
6
CONTINUOUS
10
0.421168
20
1.79085
11
0.421457
21
1.79016
0
LINE
8
BLACK
6
CONTINUOUS
10
0.421457
20
1.79016
11
0.421457
21
1.71299
0
LINE
8
BLACK
6
CONTINUOUS
10
0.421457
20
1.71299
11
0.421168
21
1.7123
0
LINE
8
BLACK
6
CONTINUOUS
10
0.421168
20
1.7123
11
0.420472
21
1.71201
0
LINE
8
BLACK
6
CONTINUOUS
10
0.420472
20
1.71201
11
0.286614
21
1.71201
0
LINE
8
BLACK
6
CONTINUOUS
10
0.286614
20
1.71201
11
0.285918
21
1.7123
0
LINE
8
BLACK
6
CONTINUOUS
10
0.285918
20
1.7123
11
0.28563
21
1.71299
0
LINE
8
BLACK
6
CONTINUOUS
10
0.28563
20
1.71299
11
0.28563
21
1.79016
0
LINE
8
BLACK
6
CONTINUOUS
10
0.28563
20
1.79016
11
0.285918
21
1.79085
0
LINE
8
BLACK
6
CONTINUOUS
10
0.285918
20
1.79085
11
0.286614
21
1.79114
0
LINE
8
BLACK
6
CONTINUOUS
10
0.286614
20
1.79114
11
0.420472
21
1.79114
0
LINE
8
BLACK
6
CONTINUOUS
10
0.287598
20
1.78917
11
0.287598
21
1.71398
0
LINE
8
BLACK
6
CONTINUOUS
10
0.287598
20
1.71398
11
0.419488
21
1.71398
0
LINE
8
BLACK
6
CONTINUOUS
10
0.419488
20
1.71398
11
0.419488
21
1.78917
0
LINE
8
BLACK
6
CONTINUOUS
10
0.419488
20
1.78917
11
0.287598
21
1.78917
0
LINE
8
BLACK
6
CONTINUOUS
10
-0.538858
20
1.81445
11
-0.538162
21
1.81416
0
LINE
8
BLACK
6
CONTINUOUS
10
-0.538162
20
1.81416
11
-0.537874
21
1.81346
0
LINE
8
BLACK
6
CONTINUOUS
10
-0.537874
20
1.81346
11
-0.537874
21
1.75598
0
LINE
8
BLACK
6
CONTINUOUS
10
-0.537874
20
1.75598
11
-0.538162
21
1.75529
0
LINE
8
BLACK
6
CONTINUOUS
10
-0.538162
20
1.75529
11
-0.538858
21
1.755
0
LINE
8
BLACK
6
CONTINUOUS
10
-0.538858
20
1.755
11
-0.655394
21
1.755
0
LINE
8
BLACK
6
CONTINUOUS
10
-0.655394
20
1.755
11
-0.65609
21
1.75529
0
LINE
8
BLACK
6
CONTINUOUS
10
-0.65609
20
1.75529
11
-0.656378
21
1.75598
0
LINE
8
BLACK
6
CONTINUOUS
10
-0.656378
20
1.75598
11
-0.656378
21
1.81346
0
LINE
8
BLACK
6
CONTINUOUS
10
-0.656378
20
1.81346
11
-0.65609
21
1.81416
0
LINE
8
BLACK
6
CONTINUOUS
10
-0.65609
20
1.81416
11
-0.655394
21
1.81445
0
LINE
8
BLACK
6
CONTINUOUS
10
-0.655394
20
1.81445
11
-0.538858
21
1.81445
0
LINE
8
BLACK
6
CONTINUOUS
10
-0.654409
20
1.81248
11
-0.654409
21
1.75697
0
LINE
8
BLACK
6
CONTINUOUS
10
-0.654409
20
1.75697
11
-0.539843
21
1.75697
0
LINE
8
BLACK
6
CONTINUOUS
10
-0.539843
20
1.75697
11
-0.539843
21
1.81248
0
LINE
8
BLACK
6
CONTINUOUS
10
-0.539843
20
1.81248
11
-0.654409
21
1.81248
0
LINE
8
BLACK
6
CONTINUOUS
10
-0.538858
20
1.91327
11
-0.538162
21
1.91298
0
LINE
8
BLACK
6
CONTINUOUS
10
-0.538162
20
1.91298
11
-0.537874
21
1.91228
0
LINE
8
BLACK
6
CONTINUOUS
10
-0.537874
20
1.91228
11
-0.537874
21
1.8548
0
LINE
8
BLACK
6
CONTINUOUS
10
-0.537874
20
1.8548
11
-0.538162
21
1.85411
0
LINE
8
BLACK
6
CONTINUOUS
10
-0.538162
20
1.85411
11
-0.538858
21
1.85382
0
LINE
8
BLACK
6
CONTINUOUS
10
-0.538858
20
1.85382
11
-0.655394
21
1.85382
0
LINE
8
BLACK
6
CONTINUOUS
10
-0.655394
20
1.85382
11
-0.65609
21
1.85411
0
LINE
8
BLACK
6
CONTINUOUS
10
-0.65609
20
1.85411
11
-0.656378
21
1.8548
0
LINE
8
BLACK
6
CONTINUOUS
10
-0.656378
20
1.8548
11
-0.656378
21
1.91228
0
LINE
8
BLACK
6
CONTINUOUS
10
-0.656378
20
1.91228
11
-0.65609
21
1.91298
0
LINE
8
BLACK
6
CONTINUOUS
10
-0.65609
20
1.91298
11
-0.655394
21
1.91327
0
LINE
8
BLACK
6
CONTINUOUS
10
-0.655394
20
1.91327
11
-0.538858
21
1.91327
0
LINE
8
BLACK
6
CONTINUOUS
10
-0.654409
20
1.9113
11
-0.654409
21
1.85579
0
LINE
8
BLACK
6
CONTINUOUS
10
-0.654409
20
1.85579
11
-0.539843
21
1.85579
0
LINE
8
BLACK
6
CONTINUOUS
10
-0.539843
20
1.85579
11
-0.539843
21
1.9113
0
LINE
8
BLACK
6
CONTINUOUS
10
-0.539843
20
1.9113
11
-0.654409
21
1.9113
0
LINE
8
BLACK
6
CONTINUOUS
10
-0.530197
20
2.02193
11
-0.529501
21
2.02164
0
LINE
8
BLACK
6
CONTINUOUS
10
-0.529501
20
2.02164
11
-0.529213
21
2.02094
0
LINE
8
BLACK
6
CONTINUOUS
10
-0.529213
20
2.02094
11
-0.529213
21
1.94378
0
LINE
8
BLACK
6
CONTINUOUS
10
-0.529213
20
1.94378
11
-0.529501
21
1.94308
0
LINE
8
BLACK
6
CONTINUOUS
10
-0.529501
20
1.94308
11
-0.530197
21
1.9428
0
LINE
8
BLACK
6
CONTINUOUS
10
-0.530197
20
1.9428
11
-0.664055
21
1.9428
0
LINE
8
BLACK
6
CONTINUOUS
10
-0.664055
20
1.9428
11
-0.664751
21
1.94308
0
LINE
8
BLACK
6
CONTINUOUS
10
-0.664751
20
1.94308
11
-0.665039
21
1.94378
0
LINE
8
BLACK
6
CONTINUOUS
10
-0.665039
20
1.94378
11
-0.665039
21
2.02094
0
LINE
8
BLACK
6
CONTINUOUS
10
-0.665039
20
2.02094
11
-0.664751
21
2.02164
0
LINE
8
BLACK
6
CONTINUOUS
10
-0.664751
20
2.02164
11
-0.664055
21
2.02193
0
LINE
8
BLACK
6
CONTINUOUS
10
-0.664055
20
2.02193
11
-0.530197
21
2.02193
0
LINE
8
BLACK
6
CONTINUOUS
10
-0.663071
20
2.01996
11
-0.663071
21
1.94476
0
LINE
8
BLACK
6
CONTINUOUS
10
-0.663071
20
1.94476
11
-0.531181
21
1.94476
0
LINE
8
BLACK
6
CONTINUOUS
10
-0.531181
20
1.94476
11
-0.531181
21
2.01996
0
LINE
8
BLACK
6
CONTINUOUS
10
-0.531181
20
2.01996
11
-0.663071
21
2.01996
0
LINE
8
BLACK
6
CONTINUOUS
10
-0.664449
20
2.22232
11
-0.663753
21
2.22203
0
LINE
8
BLACK
6
CONTINUOUS
10
-0.663753
20
2.22203
11
-0.663465
21
2.22134
0
LINE
8
BLACK
6
CONTINUOUS
10
-0.663465
20
2.22134
11
-0.663465
21
2.13866
0
LINE
8
BLACK
6
CONTINUOUS
10
-0.663465
20
2.13866
11
-0.663753
21
2.13797
0
LINE
8
BLACK
6
CONTINUOUS
10
-0.663753
20
2.13797
11
-0.664449
21
2.13768
0
LINE
8
BLACK
6
CONTINUOUS
10
-0.664449
20
2.13768
11
-0.845551
21
2.13768
0
LINE
8
BLACK
6
CONTINUOUS
10
-0.845551
20
2.13768
11
-0.846247
21
2.13797
0
LINE
8
BLACK
6
CONTINUOUS
10
-0.846247
20
2.13797
11
-0.846535
21
2.13866
0
LINE
8
BLACK
6
CONTINUOUS
10
-0.846535
20
2.13866
11
-0.846535
21
2.22134
0
LINE
8
BLACK
6
CONTINUOUS
10
-0.846535
20
2.22134
11
-0.846247
21
2.22203
0
LINE
8
BLACK
6
CONTINUOUS
10
-0.846247
20
2.22203
11
-0.845551
21
2.22232
0
LINE
8
BLACK
6
CONTINUOUS
10
-0.845551
20
2.22232
11
-0.664449
21
2.22232
0
LINE
8
BLACK
6
CONTINUOUS
10
-0.844567
20
2.22035
11
-0.844567
21
2.13965
0
LINE
8
BLACK
6
CONTINUOUS
10
-0.844567
20
2.13965
11
-0.665433
21
2.13965
0
LINE
8
BLACK
6
CONTINUOUS
10
-0.665433
20
2.13965
11
-0.665433
21
2.22035
0
LINE
8
BLACK
6
CONTINUOUS
10
-0.665433
20
2.22035
11
-0.844567
21
2.22035
  0
ENDSEC
  0
EOF
