  0
SECTION
  2
HEADER
  9
$ANGBASE
  50
0.0
  9
$ANGDIR
  70
1
  9
$MEASUREMENT
  70
0
  0
ENDSEC
  0
SECTION
  2
TABLES
  0
TABLE
  2
LTYPE
  70
4
  0
LTYPE
  5
40F
  2
CONTINUOUS
  70
0
  3
Solid line
  72
65
  73
0
  40
0.0
  0
LTYPE
  5
410
  2
DASHDOT
 70
0
  3
Dash Dot ____ _ ____ _
 72
65
 73
4
 40
2.0
 49
1.25
 49
-0.25
 49
0.25
 49
-0.25
  0
LTYPE
  5
411
  2
DASHED
 70
0
  3
Dashed __ __ __ __ __
 72
65
 73
2
 40
0.75
 49
0.5
 49
-0.25
  0
LTYPE
  5
43B
  2
DOTTED
 70
0
  3
Dotted .  .  .  .
 72
65
 73
2
 40
0.2
 49
0.0
 49
-0.2
  0
ENDTAB
  0
TABLE
  2
STYLE
  70
4
  0
STYLE
  2
KICAD
  70
0
  40
0
  41
1
  42
1
  50
0
  71
0
  3
isocp.shx
  0
STYLE
  2
KICADB
  70
0
  40
0
  41
1
  42
1
  50
0
  71
0
  3
isocp.shx
  0
STYLE
  2
KICADI
  70
0
  40
0
  41
1
  42
1
  50
15
  71
0
  3
isocp.shx
  0
STYLE
  2
KICADBI
  70
0
  40
0
  41
1
  42
1
  50
15
  71
0
  3
isocp.shx
  0
ENDTAB
  0
TABLE
  2
LAYER
  70
1
  0
LAYER
  2
BLACK
  70
0
  62
7
  6
CONTINUOUS
  0
ENDTAB
  0
ENDSEC
  0
SECTION
  2
ENTITIES
0
LINE
8
BLACK
6
CONTINUOUS
10
2.06943
20
1.78943
11
2.07
21
1.78805
0
LINE
8
BLACK
6
CONTINUOUS
10
2.07
20
1.78805
11
2.07
21
0.211949
0
LINE
8
BLACK
6
CONTINUOUS
10
2.07
20
0.211949
11
2.06943
21
0.210571
0
LINE
8
BLACK
6
CONTINUOUS
10
2.06943
20
0.210571
11
2.06805
21
0.21
0
LINE
8
BLACK
6
CONTINUOUS
10
2.06805
20
0.21
11
0.731949
21
0.21
0
LINE
8
BLACK
6
CONTINUOUS
10
0.731949
20
0.21
11
0.730571
21
0.210571
0
LINE
8
BLACK
6
CONTINUOUS
10
0.730571
20
0.210571
11
0.73
21
0.211949
0
LINE
8
BLACK
6
CONTINUOUS
10
0.73
20
0.211949
11
0.73
21
1.78805
0
LINE
8
BLACK
6
CONTINUOUS
10
0.73
20
1.78805
11
0.730571
21
1.78943
0
LINE
8
BLACK
6
CONTINUOUS
10
0.730571
20
1.78943
11
0.731949
21
1.79
0
LINE
8
BLACK
6
CONTINUOUS
10
0.731949
20
1.79
11
2.06805
21
1.79
0
LINE
8
BLACK
6
CONTINUOUS
10
2.06805
20
1.79
11
2.06943
21
1.78943
0
LINE
8
BLACK
6
CONTINUOUS
10
0.42051
20
0.516316
11
0.433874
21
0.513148
0
LINE
8
BLACK
6
CONTINUOUS
10
0.433874
20
0.513148
11
0.446781
21
0.508451
0
LINE
8
BLACK
6
CONTINUOUS
10
0.446781
20
0.508451
11
0.459055
21
0.502286
0
LINE
8
BLACK
6
CONTINUOUS
10
0.459055
20
0.502286
11
0.470531
21
0.494739
0
LINE
8
BLACK
6
CONTINUOUS
10
0.470531
20
0.494739
11
0.481052
21
0.48591
0
LINE
8
BLACK
6
CONTINUOUS
10
0.481052
20
0.48591
11
0.490478
21
0.47592
0
LINE
8
BLACK
6
CONTINUOUS
10
0.490478
20
0.47592
11
0.49868
21
0.464903
0
LINE
8
BLACK
6
CONTINUOUS
10
0.49868
20
0.464903
11
0.505547
21
0.453008
0
LINE
8
BLACK
6
CONTINUOUS
10
0.505547
20
0.453008
11
0.510987
21
0.440396
0
LINE
8
BLACK
6
CONTINUOUS
10
0.510987
20
0.440396
11
0.514927
21
0.427238
0
LINE
8
BLACK
6
CONTINUOUS
10
0.514927
20
0.427238
11
0.517312
21
0.413712
0
LINE
8
BLACK
6
CONTINUOUS
10
0.517312
20
0.413712
11
0.51811
21
0.4
0
LINE
8
BLACK
6
CONTINUOUS
10
0.51811
20
0.4
11
0.517312
21
0.386288
0
LINE
8
BLACK
6
CONTINUOUS
10
0.517312
20
0.386288
11
0.514927
21
0.372762
0
LINE
8
BLACK
6
CONTINUOUS
10
0.514927
20
0.372762
11
0.510987
21
0.359604
0
LINE
8
BLACK
6
CONTINUOUS
10
0.510987
20
0.359604
11
0.505547
21
0.346992
0
LINE
8
BLACK
6
CONTINUOUS
10
0.505547
20
0.346992
11
0.49868
21
0.335097
0
LINE
8
BLACK
6
CONTINUOUS
10
0.49868
20
0.335097
11
0.490478
21
0.32408
0
LINE
8
BLACK
6
CONTINUOUS
10
0.490478
20
0.32408
11
0.481052
21
0.31409
0
LINE
8
BLACK
6
CONTINUOUS
10
0.481052
20
0.31409
11
0.470531
21
0.305261
0
LINE
8
BLACK
6
CONTINUOUS
10
0.470531
20
0.305261
11
0.459055
21
0.297714
0
LINE
8
BLACK
6
CONTINUOUS
10
0.459055
20
0.297714
11
0.446781
21
0.291549
0
LINE
8
BLACK
6
CONTINUOUS
10
0.446781
20
0.291549
11
0.433874
21
0.286852
0
LINE
8
BLACK
6
CONTINUOUS
10
0.433874
20
0.286852
11
0.42051
21
0.283684
0
LINE
8
BLACK
6
CONTINUOUS
10
0.42051
20
0.283684
11
0.406867
21
0.28209
0
LINE
8
BLACK
6
CONTINUOUS
10
0.406867
20
0.28209
11
0.393133
21
0.28209
0
LINE
8
BLACK
6
CONTINUOUS
10
0.393133
20
0.28209
11
0.37949
21
0.283684
0
LINE
8
BLACK
6
CONTINUOUS
10
0.37949
20
0.283684
11
0.366126
21
0.286852
0
LINE
8
BLACK
6
CONTINUOUS
10
0.366126
20
0.286852
11
0.353219
21
0.291549
0
LINE
8
BLACK
6
CONTINUOUS
10
0.353219
20
0.291549
11
0.340945
21
0.297714
0
LINE
8
BLACK
6
CONTINUOUS
10
0.340945
20
0.297714
11
0.329469
21
0.305261
0
LINE
8
BLACK
6
CONTINUOUS
10
0.329469
20
0.305261
11
0.318948
21
0.31409
0
LINE
8
BLACK
6
CONTINUOUS
10
0.318948
20
0.31409
11
0.309522
21
0.32408
0
LINE
8
BLACK
6
CONTINUOUS
10
0.309522
20
0.32408
11
0.30132
21
0.335097
0
LINE
8
BLACK
6
CONTINUOUS
10
0.30132
20
0.335097
11
0.294453
21
0.346992
0
LINE
8
BLACK
6
CONTINUOUS
10
0.294453
20
0.346992
11
0.289013
21
0.359604
0
LINE
8
BLACK
6
CONTINUOUS
10
0.289013
20
0.359604
11
0.285073
21
0.372762
0
LINE
8
BLACK
6
CONTINUOUS
10
0.285073
20
0.372762
11
0.282688
21
0.386288
0
LINE
8
BLACK
6
CONTINUOUS
10
0.282688
20
0.386288
11
0.28189
21
0.4
0
LINE
8
BLACK
6
CONTINUOUS
10
0.28189
20
0.4
11
0.282688
21
0.413712
0
LINE
8
BLACK
6
CONTINUOUS
10
0.282688
20
0.413712
11
0.285073
21
0.427238
0
LINE
8
BLACK
6
CONTINUOUS
10
0.285073
20
0.427238
11
0.289013
21
0.440396
0
LINE
8
BLACK
6
CONTINUOUS
10
0.289013
20
0.440396
11
0.294453
21
0.453008
0
LINE
8
BLACK
6
CONTINUOUS
10
0.294453
20
0.453008
11
0.30132
21
0.464903
0
LINE
8
BLACK
6
CONTINUOUS
10
0.30132
20
0.464903
11
0.309522
21
0.47592
0
LINE
8
BLACK
6
CONTINUOUS
10
0.309522
20
0.47592
11
0.318948
21
0.48591
0
LINE
8
BLACK
6
CONTINUOUS
10
0.318948
20
0.48591
11
0.329469
21
0.494739
0
LINE
8
BLACK
6
CONTINUOUS
10
0.329469
20
0.494739
11
0.340945
21
0.502286
0
LINE
8
BLACK
6
CONTINUOUS
10
0.340945
20
0.502286
11
0.353219
21
0.508451
0
LINE
8
BLACK
6
CONTINUOUS
10
0.353219
20
0.508451
11
0.366126
21
0.513148
0
LINE
8
BLACK
6
CONTINUOUS
10
0.366126
20
0.513148
11
0.37949
21
0.516316
0
LINE
8
BLACK
6
CONTINUOUS
10
0.37949
20
0.516316
11
0.393133
21
0.51791
0
LINE
8
BLACK
6
CONTINUOUS
10
0.393133
20
0.51791
11
0.406867
21
0.51791
0
LINE
8
BLACK
6
CONTINUOUS
10
0.406867
20
0.51791
11
0.42051
21
0.516316
0
LINE
8
BLACK
6
CONTINUOUS
10
2.42051
20
0.516316
11
2.43387
21
0.513148
0
LINE
8
BLACK
6
CONTINUOUS
10
2.43387
20
0.513148
11
2.44678
21
0.508451
0
LINE
8
BLACK
6
CONTINUOUS
10
2.44678
20
0.508451
11
2.45906
21
0.502286
0
LINE
8
BLACK
6
CONTINUOUS
10
2.45906
20
0.502286
11
2.47053
21
0.494739
0
LINE
8
BLACK
6
CONTINUOUS
10
2.47053
20
0.494739
11
2.48105
21
0.48591
0
LINE
8
BLACK
6
CONTINUOUS
10
2.48105
20
0.48591
11
2.49048
21
0.47592
0
LINE
8
BLACK
6
CONTINUOUS
10
2.49048
20
0.47592
11
2.49868
21
0.464903
0
LINE
8
BLACK
6
CONTINUOUS
10
2.49868
20
0.464903
11
2.50555
21
0.453008
0
LINE
8
BLACK
6
CONTINUOUS
10
2.50555
20
0.453008
11
2.51099
21
0.440396
0
LINE
8
BLACK
6
CONTINUOUS
10
2.51099
20
0.440396
11
2.51493
21
0.427238
0
LINE
8
BLACK
6
CONTINUOUS
10
2.51493
20
0.427238
11
2.51731
21
0.413712
0
LINE
8
BLACK
6
CONTINUOUS
10
2.51731
20
0.413712
11
2.51811
21
0.4
0
LINE
8
BLACK
6
CONTINUOUS
10
2.51811
20
0.4
11
2.51731
21
0.386288
0
LINE
8
BLACK
6
CONTINUOUS
10
2.51731
20
0.386288
11
2.51493
21
0.372762
0
LINE
8
BLACK
6
CONTINUOUS
10
2.51493
20
0.372762
11
2.51099
21
0.359604
0
LINE
8
BLACK
6
CONTINUOUS
10
2.51099
20
0.359604
11
2.50555
21
0.346992
0
LINE
8
BLACK
6
CONTINUOUS
10
2.50555
20
0.346992
11
2.49868
21
0.335097
0
LINE
8
BLACK
6
CONTINUOUS
10
2.49868
20
0.335097
11
2.49048
21
0.32408
0
LINE
8
BLACK
6
CONTINUOUS
10
2.49048
20
0.32408
11
2.48105
21
0.31409
0
LINE
8
BLACK
6
CONTINUOUS
10
2.48105
20
0.31409
11
2.47053
21
0.305261
0
LINE
8
BLACK
6
CONTINUOUS
10
2.47053
20
0.305261
11
2.45906
21
0.297714
0
LINE
8
BLACK
6
CONTINUOUS
10
2.45906
20
0.297714
11
2.44678
21
0.291549
0
LINE
8
BLACK
6
CONTINUOUS
10
2.44678
20
0.291549
11
2.43387
21
0.286852
0
LINE
8
BLACK
6
CONTINUOUS
10
2.43387
20
0.286852
11
2.42051
21
0.283684
0
LINE
8
BLACK
6
CONTINUOUS
10
2.42051
20
0.283684
11
2.40687
21
0.28209
0
LINE
8
BLACK
6
CONTINUOUS
10
2.40687
20
0.28209
11
2.39313
21
0.28209
0
LINE
8
BLACK
6
CONTINUOUS
10
2.39313
20
0.28209
11
2.37949
21
0.283684
0
LINE
8
BLACK
6
CONTINUOUS
10
2.37949
20
0.283684
11
2.36613
21
0.286852
0
LINE
8
BLACK
6
CONTINUOUS
10
2.36613
20
0.286852
11
2.35322
21
0.291549
0
LINE
8
BLACK
6
CONTINUOUS
10
2.35322
20
0.291549
11
2.34094
21
0.297714
0
LINE
8
BLACK
6
CONTINUOUS
10
2.34094
20
0.297714
11
2.32947
21
0.305261
0
LINE
8
BLACK
6
CONTINUOUS
10
2.32947
20
0.305261
11
2.31895
21
0.31409
0
LINE
8
BLACK
6
CONTINUOUS
10
2.31895
20
0.31409
11
2.30952
21
0.32408
0
LINE
8
BLACK
6
CONTINUOUS
10
2.30952
20
0.32408
11
2.30132
21
0.335097
0
LINE
8
BLACK
6
CONTINUOUS
10
2.30132
20
0.335097
11
2.29445
21
0.346992
0
LINE
8
BLACK
6
CONTINUOUS
10
2.29445
20
0.346992
11
2.28901
21
0.359604
0
LINE
8
BLACK
6
CONTINUOUS
10
2.28901
20
0.359604
11
2.28507
21
0.372762
0
LINE
8
BLACK
6
CONTINUOUS
10
2.28507
20
0.372762
11
2.28269
21
0.386288
0
LINE
8
BLACK
6
CONTINUOUS
10
2.28269
20
0.386288
11
2.28189
21
0.4
0
LINE
8
BLACK
6
CONTINUOUS
10
2.28189
20
0.4
11
2.28269
21
0.413712
0
LINE
8
BLACK
6
CONTINUOUS
10
2.28269
20
0.413712
11
2.28507
21
0.427238
0
LINE
8
BLACK
6
CONTINUOUS
10
2.28507
20
0.427238
11
2.28901
21
0.440396
0
LINE
8
BLACK
6
CONTINUOUS
10
2.28901
20
0.440396
11
2.29445
21
0.453008
0
LINE
8
BLACK
6
CONTINUOUS
10
2.29445
20
0.453008
11
2.30132
21
0.464903
0
LINE
8
BLACK
6
CONTINUOUS
10
2.30132
20
0.464903
11
2.30952
21
0.47592
0
LINE
8
BLACK
6
CONTINUOUS
10
2.30952
20
0.47592
11
2.31895
21
0.48591
0
LINE
8
BLACK
6
CONTINUOUS
10
2.31895
20
0.48591
11
2.32947
21
0.494739
0
LINE
8
BLACK
6
CONTINUOUS
10
2.32947
20
0.494739
11
2.34094
21
0.502286
0
LINE
8
BLACK
6
CONTINUOUS
10
2.34094
20
0.502286
11
2.35322
21
0.508451
0
LINE
8
BLACK
6
CONTINUOUS
10
2.35322
20
0.508451
11
2.36613
21
0.513148
0
LINE
8
BLACK
6
CONTINUOUS
10
2.36613
20
0.513148
11
2.37949
21
0.516316
0
LINE
8
BLACK
6
CONTINUOUS
10
2.37949
20
0.516316
11
2.39313
21
0.51791
0
LINE
8
BLACK
6
CONTINUOUS
10
2.39313
20
0.51791
11
2.40687
21
0.51791
0
LINE
8
BLACK
6
CONTINUOUS
10
2.40687
20
0.51791
11
2.42051
21
0.516316
0
LINE
8
BLACK
6
CONTINUOUS
10
2.28
20
0.71
11
2.22
21
0.71
0
LINE
8
BLACK
6
CONTINUOUS
10
2.22
20
0.71
11
2.22
21
0.77
0
LINE
8
BLACK
6
CONTINUOUS
10
2.22
20
0.77
11
2.28
21
0.77
0
LINE
8
BLACK
6
CONTINUOUS
10
2.28
20
0.77
11
2.28
21
0.71
0
LINE
8
BLACK
6
CONTINUOUS
10
2.38
20
0.71
11
2.32
21
0.71
0
LINE
8
BLACK
6
CONTINUOUS
10
2.32
20
0.71
11
2.32
21
0.77
0
LINE
8
BLACK
6
CONTINUOUS
10
2.32
20
0.77
11
2.38
21
0.77
0
LINE
8
BLACK
6
CONTINUOUS
10
2.38
20
0.77
11
2.38
21
0.71
0
LINE
8
BLACK
6
CONTINUOUS
10
0.34
20
0.925
11
0.28
21
0.925
0
LINE
8
BLACK
6
CONTINUOUS
10
0.28
20
0.925
11
0.28
21
0.985
0
LINE
8
BLACK
6
CONTINUOUS
10
0.28
20
0.985
11
0.34
21
0.985
0
LINE
8
BLACK
6
CONTINUOUS
10
0.34
20
0.985
11
0.34
21
0.925
0
LINE
8
BLACK
6
CONTINUOUS
10
0.44
20
0.925
11
0.38
21
0.925
0
LINE
8
BLACK
6
CONTINUOUS
10
0.38
20
0.925
11
0.38
21
0.985
0
LINE
8
BLACK
6
CONTINUOUS
10
0.38
20
0.985
11
0.44
21
0.985
0
LINE
8
BLACK
6
CONTINUOUS
10
0.44
20
0.985
11
0.44
21
0.925
0
LINE
8
BLACK
6
CONTINUOUS
10
0.34
20
1.025
11
0.28
21
1.025
0
LINE
8
BLACK
6
CONTINUOUS
10
0.28
20
1.025
11
0.28
21
1.085
0
LINE
8
BLACK
6
CONTINUOUS
10
0.28
20
1.085
11
0.34
21
1.085
0
LINE
8
BLACK
6
CONTINUOUS
10
0.34
20
1.085
11
0.34
21
1.025
0
LINE
8
BLACK
6
CONTINUOUS
10
0.44
20
1.025
11
0.38
21
1.025
0
LINE
8
BLACK
6
CONTINUOUS
10
0.38
20
1.025
11
0.38
21
1.085
0
LINE
8
BLACK
6
CONTINUOUS
10
0.38
20
1.085
11
0.44
21
1.085
0
LINE
8
BLACK
6
CONTINUOUS
10
0.44
20
1.085
11
0.44
21
1.025
0
LINE
8
BLACK
6
CONTINUOUS
10
2.26212
20
1.1726
11
2.26974
21
1.16965
0
LINE
8
BLACK
6
CONTINUOUS
10
2.26974
20
1.16965
11
2.27669
21
1.16535
0
LINE
8
BLACK
6
CONTINUOUS
10
2.27669
20
1.16535
11
2.28273
21
1.15984
0
LINE
8
BLACK
6
CONTINUOUS
10
2.28273
20
1.15984
11
2.28766
21
1.15332
0
LINE
8
BLACK
6
CONTINUOUS
10
2.28766
20
1.15332
11
2.2913
21
1.146
0
LINE
8
BLACK
6
CONTINUOUS
10
2.2913
20
1.146
11
2.29354
21
1.13814
0
LINE
8
BLACK
6
CONTINUOUS
10
2.29354
20
1.13814
11
2.29429
21
1.13
0
LINE
8
BLACK
6
CONTINUOUS
10
2.29429
20
1.13
11
2.29354
21
1.12186
0
LINE
8
BLACK
6
CONTINUOUS
10
2.29354
20
1.12186
11
2.2913
21
1.114
0
LINE
8
BLACK
6
CONTINUOUS
10
2.2913
20
1.114
11
2.28766
21
1.10668
0
LINE
8
BLACK
6
CONTINUOUS
10
2.28766
20
1.10668
11
2.28273
21
1.10016
0
LINE
8
BLACK
6
CONTINUOUS
10
2.28273
20
1.10016
11
2.27669
21
1.09465
0
LINE
8
BLACK
6
CONTINUOUS
10
2.27669
20
1.09465
11
2.26974
21
1.09035
0
LINE
8
BLACK
6
CONTINUOUS
10
2.26974
20
1.09035
11
2.26212
21
1.0874
0
LINE
8
BLACK
6
CONTINUOUS
10
2.26212
20
1.0874
11
2.25409
21
1.0859
0
LINE
8
BLACK
6
CONTINUOUS
10
2.25409
20
1.0859
11
2.24591
21
1.0859
0
LINE
8
BLACK
6
CONTINUOUS
10
2.24591
20
1.0859
11
2.23788
21
1.0874
0
LINE
8
BLACK
6
CONTINUOUS
10
2.23788
20
1.0874
11
2.23026
21
1.09035
0
LINE
8
BLACK
6
CONTINUOUS
10
2.23026
20
1.09035
11
2.22331
21
1.09465
0
LINE
8
BLACK
6
CONTINUOUS
10
2.22331
20
1.09465
11
2.21727
21
1.10016
0
LINE
8
BLACK
6
CONTINUOUS
10
2.21727
20
1.10016
11
2.21234
21
1.10668
0
LINE
8
BLACK
6
CONTINUOUS
10
2.21234
20
1.10668
11
2.2087
21
1.114
0
LINE
8
BLACK
6
CONTINUOUS
10
2.2087
20
1.114
11
2.20646
21
1.12186
0
LINE
8
BLACK
6
CONTINUOUS
10
2.20646
20
1.12186
11
2.20571
21
1.13
0
LINE
8
BLACK
6
CONTINUOUS
10
2.20571
20
1.13
11
2.20646
21
1.13814
0
LINE
8
BLACK
6
CONTINUOUS
10
2.20646
20
1.13814
11
2.2087
21
1.146
0
LINE
8
BLACK
6
CONTINUOUS
10
2.2087
20
1.146
11
2.21234
21
1.15332
0
LINE
8
BLACK
6
CONTINUOUS
10
2.21234
20
1.15332
11
2.21727
21
1.15984
0
LINE
8
BLACK
6
CONTINUOUS
10
2.21727
20
1.15984
11
2.22331
21
1.16535
0
LINE
8
BLACK
6
CONTINUOUS
10
2.22331
20
1.16535
11
2.23026
21
1.16965
0
LINE
8
BLACK
6
CONTINUOUS
10
2.23026
20
1.16965
11
2.23788
21
1.1726
0
LINE
8
BLACK
6
CONTINUOUS
10
2.23788
20
1.1726
11
2.24591
21
1.1741
0
LINE
8
BLACK
6
CONTINUOUS
10
2.24591
20
1.1741
11
2.25409
21
1.1741
0
LINE
8
BLACK
6
CONTINUOUS
10
2.25409
20
1.1741
11
2.26212
21
1.1726
0
LINE
8
BLACK
6
CONTINUOUS
10
2.46212
20
1.1726
11
2.46974
21
1.16965
0
LINE
8
BLACK
6
CONTINUOUS
10
2.46974
20
1.16965
11
2.47669
21
1.16535
0
LINE
8
BLACK
6
CONTINUOUS
10
2.47669
20
1.16535
11
2.48273
21
1.15984
0
LINE
8
BLACK
6
CONTINUOUS
10
2.48273
20
1.15984
11
2.48766
21
1.15332
0
LINE
8
BLACK
6
CONTINUOUS
10
2.48766
20
1.15332
11
2.4913
21
1.146
0
LINE
8
BLACK
6
CONTINUOUS
10
2.4913
20
1.146
11
2.49354
21
1.13814
0
LINE
8
BLACK
6
CONTINUOUS
10
2.49354
20
1.13814
11
2.49429
21
1.13
0
LINE
8
BLACK
6
CONTINUOUS
10
2.49429
20
1.13
11
2.49354
21
1.12186
0
LINE
8
BLACK
6
CONTINUOUS
10
2.49354
20
1.12186
11
2.4913
21
1.114
0
LINE
8
BLACK
6
CONTINUOUS
10
2.4913
20
1.114
11
2.48766
21
1.10668
0
LINE
8
BLACK
6
CONTINUOUS
10
2.48766
20
1.10668
11
2.48273
21
1.10016
0
LINE
8
BLACK
6
CONTINUOUS
10
2.48273
20
1.10016
11
2.47669
21
1.09465
0
LINE
8
BLACK
6
CONTINUOUS
10
2.47669
20
1.09465
11
2.46974
21
1.09035
0
LINE
8
BLACK
6
CONTINUOUS
10
2.46974
20
1.09035
11
2.46212
21
1.0874
0
LINE
8
BLACK
6
CONTINUOUS
10
2.46212
20
1.0874
11
2.45409
21
1.0859
0
LINE
8
BLACK
6
CONTINUOUS
10
2.45409
20
1.0859
11
2.44591
21
1.0859
0
LINE
8
BLACK
6
CONTINUOUS
10
2.44591
20
1.0859
11
2.43788
21
1.0874
0
LINE
8
BLACK
6
CONTINUOUS
10
2.43788
20
1.0874
11
2.43026
21
1.09035
0
LINE
8
BLACK
6
CONTINUOUS
10
2.43026
20
1.09035
11
2.42331
21
1.09465
0
LINE
8
BLACK
6
CONTINUOUS
10
2.42331
20
1.09465
11
2.41727
21
1.10016
0
LINE
8
BLACK
6
CONTINUOUS
10
2.41727
20
1.10016
11
2.41234
21
1.10668
0
LINE
8
BLACK
6
CONTINUOUS
10
2.41234
20
1.10668
11
2.4087
21
1.114
0
LINE
8
BLACK
6
CONTINUOUS
10
2.4087
20
1.114
11
2.40646
21
1.12186
0
LINE
8
BLACK
6
CONTINUOUS
10
2.40646
20
1.12186
11
2.40571
21
1.13
0
LINE
8
BLACK
6
CONTINUOUS
10
2.40571
20
1.13
11
2.40646
21
1.13814
0
LINE
8
BLACK
6
CONTINUOUS
10
2.40646
20
1.13814
11
2.4087
21
1.146
0
LINE
8
BLACK
6
CONTINUOUS
10
2.4087
20
1.146
11
2.41234
21
1.15332
0
LINE
8
BLACK
6
CONTINUOUS
10
2.41234
20
1.15332
11
2.41727
21
1.15984
0
LINE
8
BLACK
6
CONTINUOUS
10
2.41727
20
1.15984
11
2.42331
21
1.16535
0
LINE
8
BLACK
6
CONTINUOUS
10
2.42331
20
1.16535
11
2.43026
21
1.16965
0
LINE
8
BLACK
6
CONTINUOUS
10
2.43026
20
1.16965
11
2.43788
21
1.1726
0
LINE
8
BLACK
6
CONTINUOUS
10
2.43788
20
1.1726
11
2.44591
21
1.1741
0
LINE
8
BLACK
6
CONTINUOUS
10
2.44591
20
1.1741
11
2.45409
21
1.1741
0
LINE
8
BLACK
6
CONTINUOUS
10
2.45409
20
1.1741
11
2.46212
21
1.1726
0
LINE
8
BLACK
6
CONTINUOUS
10
0.34
20
1.125
11
0.28
21
1.125
0
LINE
8
BLACK
6
CONTINUOUS
10
0.28
20
1.125
11
0.28
21
1.185
0
LINE
8
BLACK
6
CONTINUOUS
10
0.28
20
1.185
11
0.34
21
1.185
0
LINE
8
BLACK
6
CONTINUOUS
10
0.34
20
1.185
11
0.34
21
1.125
0
LINE
8
BLACK
6
CONTINUOUS
10
0.44
20
1.125
11
0.38
21
1.125
0
LINE
8
BLACK
6
CONTINUOUS
10
0.38
20
1.125
11
0.38
21
1.185
0
LINE
8
BLACK
6
CONTINUOUS
10
0.38
20
1.185
11
0.44
21
1.185
0
LINE
8
BLACK
6
CONTINUOUS
10
0.44
20
1.185
11
0.44
21
1.125
0
LINE
8
BLACK
6
CONTINUOUS
10
2.35787
20
1.26958
11
2.36544
21
1.26728
0
LINE
8
BLACK
6
CONTINUOUS
10
2.36544
20
1.26728
11
2.37242
21
1.26355
0
LINE
8
BLACK
6
CONTINUOUS
10
2.37242
20
1.26355
11
2.37853
21
1.25853
0
LINE
8
BLACK
6
CONTINUOUS
10
2.37853
20
1.25853
11
2.38355
21
1.25242
0
LINE
8
BLACK
6
CONTINUOUS
10
2.38355
20
1.25242
11
2.38728
21
1.24544
0
LINE
8
BLACK
6
CONTINUOUS
10
2.38728
20
1.24544
11
2.38958
21
1.23787
0
LINE
8
BLACK
6
CONTINUOUS
10
2.38958
20
1.23787
11
2.39035
21
1.23
0
LINE
8
BLACK
6
CONTINUOUS
10
2.39035
20
1.23
11
2.38958
21
1.22213
0
LINE
8
BLACK
6
CONTINUOUS
10
2.38958
20
1.22213
11
2.38728
21
1.21456
0
LINE
8
BLACK
6
CONTINUOUS
10
2.38728
20
1.21456
11
2.38355
21
1.20758
0
LINE
8
BLACK
6
CONTINUOUS
10
2.38355
20
1.20758
11
2.37853
21
1.20147
0
LINE
8
BLACK
6
CONTINUOUS
10
2.37853
20
1.20147
11
2.37242
21
1.19645
0
LINE
8
BLACK
6
CONTINUOUS
10
2.37242
20
1.19645
11
2.36544
21
1.19272
0
LINE
8
BLACK
6
CONTINUOUS
10
2.36544
20
1.19272
11
2.35787
21
1.19042
0
LINE
8
BLACK
6
CONTINUOUS
10
2.35787
20
1.19042
11
2.35
21
1.18965
0
LINE
8
BLACK
6
CONTINUOUS
10
2.35
20
1.18965
11
2.34213
21
1.19042
0
LINE
8
BLACK
6
CONTINUOUS
10
2.34213
20
1.19042
11
2.33456
21
1.19272
0
LINE
8
BLACK
6
CONTINUOUS
10
2.33456
20
1.19272
11
2.32758
21
1.19645
0
LINE
8
BLACK
6
CONTINUOUS
10
2.32758
20
1.19645
11
2.32147
21
1.20147
0
LINE
8
BLACK
6
CONTINUOUS
10
2.32147
20
1.20147
11
2.31645
21
1.20758
0
LINE
8
BLACK
6
CONTINUOUS
10
2.31645
20
1.20758
11
2.31272
21
1.21456
0
LINE
8
BLACK
6
CONTINUOUS
10
2.31272
20
1.21456
11
2.31042
21
1.22213
0
LINE
8
BLACK
6
CONTINUOUS
10
2.31042
20
1.22213
11
2.30965
21
1.23
0
LINE
8
BLACK
6
CONTINUOUS
10
2.30965
20
1.23
11
2.31042
21
1.23787
0
LINE
8
BLACK
6
CONTINUOUS
10
2.31042
20
1.23787
11
2.31272
21
1.24544
0
LINE
8
BLACK
6
CONTINUOUS
10
2.31272
20
1.24544
11
2.31645
21
1.25242
0
LINE
8
BLACK
6
CONTINUOUS
10
2.31645
20
1.25242
11
2.32147
21
1.25853
0
LINE
8
BLACK
6
CONTINUOUS
10
2.32147
20
1.25853
11
2.32758
21
1.26355
0
LINE
8
BLACK
6
CONTINUOUS
10
2.32758
20
1.26355
11
2.33456
21
1.26728
0
LINE
8
BLACK
6
CONTINUOUS
10
2.33456
20
1.26728
11
2.34213
21
1.26958
0
LINE
8
BLACK
6
CONTINUOUS
10
2.34213
20
1.26958
11
2.35
21
1.27035
0
LINE
8
BLACK
6
CONTINUOUS
10
2.35
20
1.27035
11
2.35787
21
1.26958
0
LINE
8
BLACK
6
CONTINUOUS
10
0.34
20
1.225
11
0.28
21
1.225
0
LINE
8
BLACK
6
CONTINUOUS
10
0.28
20
1.225
11
0.28
21
1.285
0
LINE
8
BLACK
6
CONTINUOUS
10
0.28
20
1.285
11
0.34
21
1.285
0
LINE
8
BLACK
6
CONTINUOUS
10
0.34
20
1.285
11
0.34
21
1.225
0
LINE
8
BLACK
6
CONTINUOUS
10
0.44
20
1.225
11
0.38
21
1.225
0
LINE
8
BLACK
6
CONTINUOUS
10
0.38
20
1.225
11
0.38
21
1.285
0
LINE
8
BLACK
6
CONTINUOUS
10
0.38
20
1.285
11
0.44
21
1.285
0
LINE
8
BLACK
6
CONTINUOUS
10
0.44
20
1.285
11
0.44
21
1.225
0
LINE
8
BLACK
6
CONTINUOUS
10
2.26212
20
1.3726
11
2.26974
21
1.36965
0
LINE
8
BLACK
6
CONTINUOUS
10
2.26974
20
1.36965
11
2.27669
21
1.36535
0
LINE
8
BLACK
6
CONTINUOUS
10
2.27669
20
1.36535
11
2.28273
21
1.35984
0
LINE
8
BLACK
6
CONTINUOUS
10
2.28273
20
1.35984
11
2.28766
21
1.35332
0
LINE
8
BLACK
6
CONTINUOUS
10
2.28766
20
1.35332
11
2.2913
21
1.346
0
LINE
8
BLACK
6
CONTINUOUS
10
2.2913
20
1.346
11
2.29354
21
1.33814
0
LINE
8
BLACK
6
CONTINUOUS
10
2.29354
20
1.33814
11
2.29429
21
1.33
0
LINE
8
BLACK
6
CONTINUOUS
10
2.29429
20
1.33
11
2.29354
21
1.32186
0
LINE
8
BLACK
6
CONTINUOUS
10
2.29354
20
1.32186
11
2.2913
21
1.314
0
LINE
8
BLACK
6
CONTINUOUS
10
2.2913
20
1.314
11
2.28766
21
1.30668
0
LINE
8
BLACK
6
CONTINUOUS
10
2.28766
20
1.30668
11
2.28273
21
1.30016
0
LINE
8
BLACK
6
CONTINUOUS
10
2.28273
20
1.30016
11
2.27669
21
1.29465
0
LINE
8
BLACK
6
CONTINUOUS
10
2.27669
20
1.29465
11
2.26974
21
1.29035
0
LINE
8
BLACK
6
CONTINUOUS
10
2.26974
20
1.29035
11
2.26212
21
1.2874
0
LINE
8
BLACK
6
CONTINUOUS
10
2.26212
20
1.2874
11
2.25409
21
1.2859
0
LINE
8
BLACK
6
CONTINUOUS
10
2.25409
20
1.2859
11
2.24591
21
1.2859
0
LINE
8
BLACK
6
CONTINUOUS
10
2.24591
20
1.2859
11
2.23788
21
1.2874
0
LINE
8
BLACK
6
CONTINUOUS
10
2.23788
20
1.2874
11
2.23026
21
1.29035
0
LINE
8
BLACK
6
CONTINUOUS
10
2.23026
20
1.29035
11
2.22331
21
1.29465
0
LINE
8
BLACK
6
CONTINUOUS
10
2.22331
20
1.29465
11
2.21727
21
1.30016
0
LINE
8
BLACK
6
CONTINUOUS
10
2.21727
20
1.30016
11
2.21234
21
1.30668
0
LINE
8
BLACK
6
CONTINUOUS
10
2.21234
20
1.30668
11
2.2087
21
1.314
0
LINE
8
BLACK
6
CONTINUOUS
10
2.2087
20
1.314
11
2.20646
21
1.32186
0
LINE
8
BLACK
6
CONTINUOUS
10
2.20646
20
1.32186
11
2.20571
21
1.33
0
LINE
8
BLACK
6
CONTINUOUS
10
2.20571
20
1.33
11
2.20646
21
1.33814
0
LINE
8
BLACK
6
CONTINUOUS
10
2.20646
20
1.33814
11
2.2087
21
1.346
0
LINE
8
BLACK
6
CONTINUOUS
10
2.2087
20
1.346
11
2.21234
21
1.35332
0
LINE
8
BLACK
6
CONTINUOUS
10
2.21234
20
1.35332
11
2.21727
21
1.35984
0
LINE
8
BLACK
6
CONTINUOUS
10
2.21727
20
1.35984
11
2.22331
21
1.36535
0
LINE
8
BLACK
6
CONTINUOUS
10
2.22331
20
1.36535
11
2.23026
21
1.36965
0
LINE
8
BLACK
6
CONTINUOUS
10
2.23026
20
1.36965
11
2.23788
21
1.3726
0
LINE
8
BLACK
6
CONTINUOUS
10
2.23788
20
1.3726
11
2.24591
21
1.3741
0
LINE
8
BLACK
6
CONTINUOUS
10
2.24591
20
1.3741
11
2.25409
21
1.3741
0
LINE
8
BLACK
6
CONTINUOUS
10
2.25409
20
1.3741
11
2.26212
21
1.3726
0
LINE
8
BLACK
6
CONTINUOUS
10
2.46212
20
1.3726
11
2.46974
21
1.36965
0
LINE
8
BLACK
6
CONTINUOUS
10
2.46974
20
1.36965
11
2.47669
21
1.36535
0
LINE
8
BLACK
6
CONTINUOUS
10
2.47669
20
1.36535
11
2.48273
21
1.35984
0
LINE
8
BLACK
6
CONTINUOUS
10
2.48273
20
1.35984
11
2.48766
21
1.35332
0
LINE
8
BLACK
6
CONTINUOUS
10
2.48766
20
1.35332
11
2.4913
21
1.346
0
LINE
8
BLACK
6
CONTINUOUS
10
2.4913
20
1.346
11
2.49354
21
1.33814
0
LINE
8
BLACK
6
CONTINUOUS
10
2.49354
20
1.33814
11
2.49429
21
1.33
0
LINE
8
BLACK
6
CONTINUOUS
10
2.49429
20
1.33
11
2.49354
21
1.32186
0
LINE
8
BLACK
6
CONTINUOUS
10
2.49354
20
1.32186
11
2.4913
21
1.314
0
LINE
8
BLACK
6
CONTINUOUS
10
2.4913
20
1.314
11
2.48766
21
1.30668
0
LINE
8
BLACK
6
CONTINUOUS
10
2.48766
20
1.30668
11
2.48273
21
1.30016
0
LINE
8
BLACK
6
CONTINUOUS
10
2.48273
20
1.30016
11
2.47669
21
1.29465
0
LINE
8
BLACK
6
CONTINUOUS
10
2.47669
20
1.29465
11
2.46974
21
1.29035
0
LINE
8
BLACK
6
CONTINUOUS
10
2.46974
20
1.29035
11
2.46212
21
1.2874
0
LINE
8
BLACK
6
CONTINUOUS
10
2.46212
20
1.2874
11
2.45409
21
1.2859
0
LINE
8
BLACK
6
CONTINUOUS
10
2.45409
20
1.2859
11
2.44591
21
1.2859
0
LINE
8
BLACK
6
CONTINUOUS
10
2.44591
20
1.2859
11
2.43788
21
1.2874
0
LINE
8
BLACK
6
CONTINUOUS
10
2.43788
20
1.2874
11
2.43026
21
1.29035
0
LINE
8
BLACK
6
CONTINUOUS
10
2.43026
20
1.29035
11
2.42331
21
1.29465
0
LINE
8
BLACK
6
CONTINUOUS
10
2.42331
20
1.29465
11
2.41727
21
1.30016
0
LINE
8
BLACK
6
CONTINUOUS
10
2.41727
20
1.30016
11
2.41234
21
1.30668
0
LINE
8
BLACK
6
CONTINUOUS
10
2.41234
20
1.30668
11
2.4087
21
1.314
0
LINE
8
BLACK
6
CONTINUOUS
10
2.4087
20
1.314
11
2.40646
21
1.32186
0
LINE
8
BLACK
6
CONTINUOUS
10
2.40646
20
1.32186
11
2.40571
21
1.33
0
LINE
8
BLACK
6
CONTINUOUS
10
2.40571
20
1.33
11
2.40646
21
1.33814
0
LINE
8
BLACK
6
CONTINUOUS
10
2.40646
20
1.33814
11
2.4087
21
1.346
0
LINE
8
BLACK
6
CONTINUOUS
10
2.4087
20
1.346
11
2.41234
21
1.35332
0
LINE
8
BLACK
6
CONTINUOUS
10
2.41234
20
1.35332
11
2.41727
21
1.35984
0
LINE
8
BLACK
6
CONTINUOUS
10
2.41727
20
1.35984
11
2.42331
21
1.36535
0
LINE
8
BLACK
6
CONTINUOUS
10
2.42331
20
1.36535
11
2.43026
21
1.36965
0
LINE
8
BLACK
6
CONTINUOUS
10
2.43026
20
1.36965
11
2.43788
21
1.3726
0
LINE
8
BLACK
6
CONTINUOUS
10
2.43788
20
1.3726
11
2.44591
21
1.3741
0
LINE
8
BLACK
6
CONTINUOUS
10
2.44591
20
1.3741
11
2.45409
21
1.3741
0
LINE
8
BLACK
6
CONTINUOUS
10
2.45409
20
1.3741
11
2.46212
21
1.3726
0
LINE
8
BLACK
6
CONTINUOUS
10
0.34
20
1.325
11
0.28
21
1.325
0
LINE
8
BLACK
6
CONTINUOUS
10
0.28
20
1.325
11
0.28
21
1.385
0
LINE
8
BLACK
6
CONTINUOUS
10
0.28
20
1.385
11
0.34
21
1.385
0
LINE
8
BLACK
6
CONTINUOUS
10
0.34
20
1.385
11
0.34
21
1.325
0
LINE
8
BLACK
6
CONTINUOUS
10
0.44
20
1.325
11
0.38
21
1.325
0
LINE
8
BLACK
6
CONTINUOUS
10
0.38
20
1.325
11
0.38
21
1.385
0
LINE
8
BLACK
6
CONTINUOUS
10
0.38
20
1.385
11
0.44
21
1.385
0
LINE
8
BLACK
6
CONTINUOUS
10
0.44
20
1.385
11
0.44
21
1.325
0
LINE
8
BLACK
6
CONTINUOUS
10
0.42051
20
1.71632
11
0.433874
21
1.71315
0
LINE
8
BLACK
6
CONTINUOUS
10
0.433874
20
1.71315
11
0.446781
21
1.70845
0
LINE
8
BLACK
6
CONTINUOUS
10
0.446781
20
1.70845
11
0.459055
21
1.70229
0
LINE
8
BLACK
6
CONTINUOUS
10
0.459055
20
1.70229
11
0.470531
21
1.69474
0
LINE
8
BLACK
6
CONTINUOUS
10
0.470531
20
1.69474
11
0.481052
21
1.68591
0
LINE
8
BLACK
6
CONTINUOUS
10
0.481052
20
1.68591
11
0.490478
21
1.67592
0
LINE
8
BLACK
6
CONTINUOUS
10
0.490478
20
1.67592
11
0.49868
21
1.6649
0
LINE
8
BLACK
6
CONTINUOUS
10
0.49868
20
1.6649
11
0.505547
21
1.65301
0
LINE
8
BLACK
6
CONTINUOUS
10
0.505547
20
1.65301
11
0.510987
21
1.6404
0
LINE
8
BLACK
6
CONTINUOUS
10
0.510987
20
1.6404
11
0.514927
21
1.62724
0
LINE
8
BLACK
6
CONTINUOUS
10
0.514927
20
1.62724
11
0.517312
21
1.61371
0
LINE
8
BLACK
6
CONTINUOUS
10
0.517312
20
1.61371
11
0.51811
21
1.6
0
LINE
8
BLACK
6
CONTINUOUS
10
0.51811
20
1.6
11
0.517312
21
1.58629
0
LINE
8
BLACK
6
CONTINUOUS
10
0.517312
20
1.58629
11
0.514927
21
1.57276
0
LINE
8
BLACK
6
CONTINUOUS
10
0.514927
20
1.57276
11
0.510987
21
1.5596
0
LINE
8
BLACK
6
CONTINUOUS
10
0.510987
20
1.5596
11
0.505547
21
1.54699
0
LINE
8
BLACK
6
CONTINUOUS
10
0.505547
20
1.54699
11
0.49868
21
1.5351
0
LINE
8
BLACK
6
CONTINUOUS
10
0.49868
20
1.5351
11
0.490478
21
1.52408
0
LINE
8
BLACK
6
CONTINUOUS
10
0.490478
20
1.52408
11
0.481052
21
1.51409
0
LINE
8
BLACK
6
CONTINUOUS
10
0.481052
20
1.51409
11
0.470531
21
1.50526
0
LINE
8
BLACK
6
CONTINUOUS
10
0.470531
20
1.50526
11
0.459055
21
1.49771
0
LINE
8
BLACK
6
CONTINUOUS
10
0.459055
20
1.49771
11
0.446781
21
1.49155
0
LINE
8
BLACK
6
CONTINUOUS
10
0.446781
20
1.49155
11
0.433874
21
1.48685
0
LINE
8
BLACK
6
CONTINUOUS
10
0.433874
20
1.48685
11
0.42051
21
1.48368
0
LINE
8
BLACK
6
CONTINUOUS
10
0.42051
20
1.48368
11
0.406867
21
1.48209
0
LINE
8
BLACK
6
CONTINUOUS
10
0.406867
20
1.48209
11
0.393133
21
1.48209
0
LINE
8
BLACK
6
CONTINUOUS
10
0.393133
20
1.48209
11
0.37949
21
1.48368
0
LINE
8
BLACK
6
CONTINUOUS
10
0.37949
20
1.48368
11
0.366126
21
1.48685
0
LINE
8
BLACK
6
CONTINUOUS
10
0.366126
20
1.48685
11
0.353219
21
1.49155
0
LINE
8
BLACK
6
CONTINUOUS
10
0.353219
20
1.49155
11
0.340945
21
1.49771
0
LINE
8
BLACK
6
CONTINUOUS
10
0.340945
20
1.49771
11
0.329469
21
1.50526
0
LINE
8
BLACK
6
CONTINUOUS
10
0.329469
20
1.50526
11
0.318948
21
1.51409
0
LINE
8
BLACK
6
CONTINUOUS
10
0.318948
20
1.51409
11
0.309522
21
1.52408
0
LINE
8
BLACK
6
CONTINUOUS
10
0.309522
20
1.52408
11
0.30132
21
1.5351
0
LINE
8
BLACK
6
CONTINUOUS
10
0.30132
20
1.5351
11
0.294453
21
1.54699
0
LINE
8
BLACK
6
CONTINUOUS
10
0.294453
20
1.54699
11
0.289013
21
1.5596
0
LINE
8
BLACK
6
CONTINUOUS
10
0.289013
20
1.5596
11
0.285073
21
1.57276
0
LINE
8
BLACK
6
CONTINUOUS
10
0.285073
20
1.57276
11
0.282688
21
1.58629
0
LINE
8
BLACK
6
CONTINUOUS
10
0.282688
20
1.58629
11
0.28189
21
1.6
0
LINE
8
BLACK
6
CONTINUOUS
10
0.28189
20
1.6
11
0.282688
21
1.61371
0
LINE
8
BLACK
6
CONTINUOUS
10
0.282688
20
1.61371
11
0.285073
21
1.62724
0
LINE
8
BLACK
6
CONTINUOUS
10
0.285073
20
1.62724
11
0.289013
21
1.6404
0
LINE
8
BLACK
6
CONTINUOUS
10
0.289013
20
1.6404
11
0.294453
21
1.65301
0
LINE
8
BLACK
6
CONTINUOUS
10
0.294453
20
1.65301
11
0.30132
21
1.6649
0
LINE
8
BLACK
6
CONTINUOUS
10
0.30132
20
1.6649
11
0.309522
21
1.67592
0
LINE
8
BLACK
6
CONTINUOUS
10
0.309522
20
1.67592
11
0.318948
21
1.68591
0
LINE
8
BLACK
6
CONTINUOUS
10
0.318948
20
1.68591
11
0.329469
21
1.69474
0
LINE
8
BLACK
6
CONTINUOUS
10
0.329469
20
1.69474
11
0.340945
21
1.70229
0
LINE
8
BLACK
6
CONTINUOUS
10
0.340945
20
1.70229
11
0.353219
21
1.70845
0
LINE
8
BLACK
6
CONTINUOUS
10
0.353219
20
1.70845
11
0.366126
21
1.71315
0
LINE
8
BLACK
6
CONTINUOUS
10
0.366126
20
1.71315
11
0.37949
21
1.71632
0
LINE
8
BLACK
6
CONTINUOUS
10
0.37949
20
1.71632
11
0.393133
21
1.71791
0
LINE
8
BLACK
6
CONTINUOUS
10
0.393133
20
1.71791
11
0.406867
21
1.71791
0
LINE
8
BLACK
6
CONTINUOUS
10
0.406867
20
1.71791
11
0.42051
21
1.71632
0
LINE
8
BLACK
6
CONTINUOUS
10
2.42051
20
1.71632
11
2.43387
21
1.71315
0
LINE
8
BLACK
6
CONTINUOUS
10
2.43387
20
1.71315
11
2.44678
21
1.70845
0
LINE
8
BLACK
6
CONTINUOUS
10
2.44678
20
1.70845
11
2.45906
21
1.70229
0
LINE
8
BLACK
6
CONTINUOUS
10
2.45906
20
1.70229
11
2.47053
21
1.69474
0
LINE
8
BLACK
6
CONTINUOUS
10
2.47053
20
1.69474
11
2.48105
21
1.68591
0
LINE
8
BLACK
6
CONTINUOUS
10
2.48105
20
1.68591
11
2.49048
21
1.67592
0
LINE
8
BLACK
6
CONTINUOUS
10
2.49048
20
1.67592
11
2.49868
21
1.6649
0
LINE
8
BLACK
6
CONTINUOUS
10
2.49868
20
1.6649
11
2.50555
21
1.65301
0
LINE
8
BLACK
6
CONTINUOUS
10
2.50555
20
1.65301
11
2.51099
21
1.6404
0
LINE
8
BLACK
6
CONTINUOUS
10
2.51099
20
1.6404
11
2.51493
21
1.62724
0
LINE
8
BLACK
6
CONTINUOUS
10
2.51493
20
1.62724
11
2.51731
21
1.61371
0
LINE
8
BLACK
6
CONTINUOUS
10
2.51731
20
1.61371
11
2.51811
21
1.6
0
LINE
8
BLACK
6
CONTINUOUS
10
2.51811
20
1.6
11
2.51731
21
1.58629
0
LINE
8
BLACK
6
CONTINUOUS
10
2.51731
20
1.58629
11
2.51493
21
1.57276
0
LINE
8
BLACK
6
CONTINUOUS
10
2.51493
20
1.57276
11
2.51099
21
1.5596
0
LINE
8
BLACK
6
CONTINUOUS
10
2.51099
20
1.5596
11
2.50555
21
1.54699
0
LINE
8
BLACK
6
CONTINUOUS
10
2.50555
20
1.54699
11
2.49868
21
1.5351
0
LINE
8
BLACK
6
CONTINUOUS
10
2.49868
20
1.5351
11
2.49048
21
1.52408
0
LINE
8
BLACK
6
CONTINUOUS
10
2.49048
20
1.52408
11
2.48105
21
1.51409
0
LINE
8
BLACK
6
CONTINUOUS
10
2.48105
20
1.51409
11
2.47053
21
1.50526
0
LINE
8
BLACK
6
CONTINUOUS
10
2.47053
20
1.50526
11
2.45906
21
1.49771
0
LINE
8
BLACK
6
CONTINUOUS
10
2.45906
20
1.49771
11
2.44678
21
1.49155
0
LINE
8
BLACK
6
CONTINUOUS
10
2.44678
20
1.49155
11
2.43387
21
1.48685
0
LINE
8
BLACK
6
CONTINUOUS
10
2.43387
20
1.48685
11
2.42051
21
1.48368
0
LINE
8
BLACK
6
CONTINUOUS
10
2.42051
20
1.48368
11
2.40687
21
1.48209
0
LINE
8
BLACK
6
CONTINUOUS
10
2.40687
20
1.48209
11
2.39313
21
1.48209
0
LINE
8
BLACK
6
CONTINUOUS
10
2.39313
20
1.48209
11
2.37949
21
1.48368
0
LINE
8
BLACK
6
CONTINUOUS
10
2.37949
20
1.48368
11
2.36613
21
1.48685
0
LINE
8
BLACK
6
CONTINUOUS
10
2.36613
20
1.48685
11
2.35322
21
1.49155
0
LINE
8
BLACK
6
CONTINUOUS
10
2.35322
20
1.49155
11
2.34094
21
1.49771
0
LINE
8
BLACK
6
CONTINUOUS
10
2.34094
20
1.49771
11
2.32947
21
1.50526
0
LINE
8
BLACK
6
CONTINUOUS
10
2.32947
20
1.50526
11
2.31895
21
1.51409
0
LINE
8
BLACK
6
CONTINUOUS
10
2.31895
20
1.51409
11
2.30952
21
1.52408
0
LINE
8
BLACK
6
CONTINUOUS
10
2.30952
20
1.52408
11
2.30132
21
1.5351
0
LINE
8
BLACK
6
CONTINUOUS
10
2.30132
20
1.5351
11
2.29445
21
1.54699
0
LINE
8
BLACK
6
CONTINUOUS
10
2.29445
20
1.54699
11
2.28901
21
1.5596
0
LINE
8
BLACK
6
CONTINUOUS
10
2.28901
20
1.5596
11
2.28507
21
1.57276
0
LINE
8
BLACK
6
CONTINUOUS
10
2.28507
20
1.57276
11
2.28269
21
1.58629
0
LINE
8
BLACK
6
CONTINUOUS
10
2.28269
20
1.58629
11
2.28189
21
1.6
0
LINE
8
BLACK
6
CONTINUOUS
10
2.28189
20
1.6
11
2.28269
21
1.61371
0
LINE
8
BLACK
6
CONTINUOUS
10
2.28269
20
1.61371
11
2.28507
21
1.62724
0
LINE
8
BLACK
6
CONTINUOUS
10
2.28507
20
1.62724
11
2.28901
21
1.6404
0
LINE
8
BLACK
6
CONTINUOUS
10
2.28901
20
1.6404
11
2.29445
21
1.65301
0
LINE
8
BLACK
6
CONTINUOUS
10
2.29445
20
1.65301
11
2.30132
21
1.6649
0
LINE
8
BLACK
6
CONTINUOUS
10
2.30132
20
1.6649
11
2.30952
21
1.67592
0
LINE
8
BLACK
6
CONTINUOUS
10
2.30952
20
1.67592
11
2.31895
21
1.68591
0
LINE
8
BLACK
6
CONTINUOUS
10
2.31895
20
1.68591
11
2.32947
21
1.69474
0
LINE
8
BLACK
6
CONTINUOUS
10
2.32947
20
1.69474
11
2.34094
21
1.70229
0
LINE
8
BLACK
6
CONTINUOUS
10
2.34094
20
1.70229
11
2.35322
21
1.70845
0
LINE
8
BLACK
6
CONTINUOUS
10
2.35322
20
1.70845
11
2.36613
21
1.71315
0
LINE
8
BLACK
6
CONTINUOUS
10
2.36613
20
1.71315
11
2.37949
21
1.71632
0
LINE
8
BLACK
6
CONTINUOUS
10
2.37949
20
1.71632
11
2.39313
21
1.71791
0
LINE
8
BLACK
6
CONTINUOUS
10
2.39313
20
1.71791
11
2.40687
21
1.71791
0
LINE
8
BLACK
6
CONTINUOUS
10
2.40687
20
1.71791
11
2.42051
21
1.71632
  0
ENDSEC
  0
EOF
