  0
SECTION
  2
HEADER
  9
$ANGBASE
  50
0.0
  9
$ANGDIR
  70
1
  9
$MEASUREMENT
  70
0
  0
ENDSEC
  0
SECTION
  2
TABLES
  0
TABLE
  2
LTYPE
  70
4
  0
LTYPE
  5
40F
  2
CONTINUOUS
  70
0
  3
Solid line
  72
65
  73
0
  40
0.0
  0
LTYPE
  5
410
  2
DASHDOT
 70
0
  3
Dash Dot ____ _ ____ _
 72
65
 73
4
 40
2.0
 49
1.25
 49
-0.25
 49
0.25
 49
-0.25
  0
LTYPE
  5
411
  2
DASHED
 70
0
  3
Dashed __ __ __ __ __
 72
65
 73
2
 40
0.75
 49
0.5
 49
-0.25
  0
LTYPE
  5
43B
  2
DOTTED
 70
0
  3
Dotted .  .  .  .
 72
65
 73
2
 40
0.2
 49
0.0
 49
-0.2
  0
ENDTAB
  0
TABLE
  2
STYLE
  70
4
  0
STYLE
  2
KICAD
  70
0
  40
0
  41
1
  42
1
  50
0
  71
0
  3
isocp.shx
  0
STYLE
  2
KICADB
  70
0
  40
0
  41
1
  42
1
  50
0
  71
0
  3
isocp.shx
  0
STYLE
  2
KICADI
  70
0
  40
0
  41
1
  42
1
  50
15
  71
0
  3
isocp.shx
  0
STYLE
  2
KICADBI
  70
0
  40
0
  41
1
  42
1
  50
15
  71
0
  3
isocp.shx
  0
ENDTAB
  0
TABLE
  2
LAYER
  70
1
  0
LAYER
  2
BLACK
  70
0
  62
7
  6
CONTINUOUS
  0
ENDTAB
  0
ENDSEC
  0
SECTION
  2
ENTITIES
0
LINE
8
BLACK
6
CONTINUOUS
10
-0.0345009
20
1.10659
11
-0.033809
21
1.10492
0
LINE
8
BLACK
6
CONTINUOUS
10
-0.033809
20
1.10492
11
-0.0345009
21
1.10325
0
LINE
8
BLACK
6
CONTINUOUS
10
-0.0345009
20
1.10325
11
-0.0361712
21
1.10256
0
LINE
8
BLACK
6
CONTINUOUS
10
-0.0361712
20
1.10256
11
-0.0567422
21
1.10256
0
LINE
8
BLACK
6
CONTINUOUS
10
-0.0567422
20
1.10256
11
-0.0584125
21
1.10325
0
LINE
8
BLACK
6
CONTINUOUS
10
-0.0584125
20
1.10325
11
-0.0591044
21
1.10492
0
LINE
8
BLACK
6
CONTINUOUS
10
-0.0591044
20
1.10492
11
-0.0584125
21
1.10659
0
LINE
8
BLACK
6
CONTINUOUS
10
-0.0584125
20
1.10659
11
-0.0567422
21
1.10728
0
LINE
8
BLACK
6
CONTINUOUS
10
-0.0567422
20
1.10728
11
-0.0361712
21
1.10728
0
LINE
8
BLACK
6
CONTINUOUS
10
-0.0361712
20
1.10728
11
-0.0345009
21
1.10659
0
LINE
8
BLACK
6
CONTINUOUS
10
-0.0345009
20
1.16447
11
-0.033809
21
1.1628
0
LINE
8
BLACK
6
CONTINUOUS
10
-0.033809
20
1.1628
11
-0.0345009
21
1.16112
0
LINE
8
BLACK
6
CONTINUOUS
10
-0.0345009
20
1.16112
11
-0.0361712
21
1.16043
0
LINE
8
BLACK
6
CONTINUOUS
10
-0.0361712
20
1.16043
11
-0.0567422
21
1.16043
0
LINE
8
BLACK
6
CONTINUOUS
10
-0.0567422
20
1.16043
11
-0.0584125
21
1.16112
0
LINE
8
BLACK
6
CONTINUOUS
10
-0.0584125
20
1.16112
11
-0.0591044
21
1.1628
0
LINE
8
BLACK
6
CONTINUOUS
10
-0.0591044
20
1.1628
11
-0.0584125
21
1.16447
0
LINE
8
BLACK
6
CONTINUOUS
10
-0.0584125
20
1.16447
11
-0.0567422
21
1.16516
0
LINE
8
BLACK
6
CONTINUOUS
10
-0.0567422
20
1.16516
11
-0.0361712
21
1.16516
0
LINE
8
BLACK
6
CONTINUOUS
10
-0.0361712
20
1.16516
11
-0.0345009
21
1.16447
0
LINE
8
BLACK
6
CONTINUOUS
10
-0.065482
20
1.22429
11
-0.0653126
21
1.2243
0
LINE
8
BLACK
6
CONTINUOUS
10
-0.0653126
20
1.2243
11
-0.064622
21
1.22379
0
LINE
8
BLACK
6
CONTINUOUS
10
-0.064622
20
1.22379
11
-0.0638798
21
1.22336
0
LINE
8
BLACK
6
CONTINUOUS
10
-0.0638798
20
1.22336
11
-0.0638218
21
1.2232
0
LINE
8
BLACK
6
CONTINUOUS
10
-0.0638218
20
1.2232
11
-0.0636849
21
1.2231
0
LINE
8
BLACK
6
CONTINUOUS
10
-0.0636849
20
1.2231
11
-0.0600976
21
1.21772
0
LINE
8
BLACK
6
CONTINUOUS
10
-0.0600976
20
1.21772
11
-0.0568936
21
1.21452
0
LINE
8
BLACK
6
CONTINUOUS
10
-0.0568936
20
1.21452
11
-0.0535727
21
1.21286
0
LINE
8
BLACK
6
CONTINUOUS
10
-0.0535727
20
1.21286
11
-0.052749
21
1.21225
0
LINE
8
BLACK
6
CONTINUOUS
10
-0.052749
20
1.21225
11
-0.0519457
21
1.21039
0
LINE
8
BLACK
6
CONTINUOUS
10
-0.0519457
20
1.21039
11
-0.0525216
21
1.20846
0
LINE
8
BLACK
6
CONTINUOUS
10
-0.0525216
20
1.20846
11
-0.0542072
21
1.20734
0
LINE
8
BLACK
6
CONTINUOUS
10
-0.0542072
20
1.20734
11
-0.0562137
21
1.20757
0
LINE
8
BLACK
6
CONTINUOUS
10
-0.0562137
20
1.20757
11
-0.0599632
21
1.20945
0
LINE
8
BLACK
6
CONTINUOUS
10
-0.0599632
20
1.20945
11
-0.0606723
21
1.20997
0
LINE
8
BLACK
6
CONTINUOUS
10
-0.0606723
20
1.20997
11
-0.0607306
21
1.21
0
LINE
8
BLACK
6
CONTINUOUS
10
-0.0607306
20
1.21
11
-0.063189
21
1.21246
0
LINE
8
BLACK
6
CONTINUOUS
10
-0.063189
20
1.21246
11
-0.063189
21
1.18505
0
LINE
8
BLACK
6
CONTINUOUS
10
-0.063189
20
1.18505
11
-0.0548932
21
1.18505
0
LINE
8
BLACK
6
CONTINUOUS
10
-0.0548932
20
1.18505
11
-0.0538833
21
1.18487
0
LINE
8
BLACK
6
CONTINUOUS
10
-0.0538833
20
1.18487
11
-0.052336
21
1.18357
0
LINE
8
BLACK
6
CONTINUOUS
10
-0.052336
20
1.18357
11
-0.0519853
21
1.18158
0
LINE
8
BLACK
6
CONTINUOUS
10
-0.0519853
20
1.18158
11
-0.0529952
21
1.17983
0
LINE
8
BLACK
6
CONTINUOUS
10
-0.0529952
20
1.17983
11
-0.0548932
21
1.17914
0
LINE
8
BLACK
6
CONTINUOUS
10
-0.0548932
20
1.17914
11
-0.0773904
21
1.17914
0
LINE
8
BLACK
6
CONTINUOUS
10
-0.0773904
20
1.17914
11
-0.0784003
21
1.17932
0
LINE
8
BLACK
6
CONTINUOUS
10
-0.0784003
20
1.17932
11
-0.0799475
21
1.18062
0
LINE
8
BLACK
6
CONTINUOUS
10
-0.0799475
20
1.18062
11
-0.0802983
21
1.18261
0
LINE
8
BLACK
6
CONTINUOUS
10
-0.0802983
20
1.18261
11
-0.0792883
21
1.18436
0
LINE
8
BLACK
6
CONTINUOUS
10
-0.0792883
20
1.18436
11
-0.0773904
21
1.18505
0
LINE
8
BLACK
6
CONTINUOUS
10
-0.0773904
20
1.18505
11
-0.0690945
21
1.18505
0
LINE
8
BLACK
6
CONTINUOUS
10
-0.0690945
20
1.18505
11
-0.0690945
21
1.22146
0
LINE
8
BLACK
6
CONTINUOUS
10
-0.0690945
20
1.22146
11
-0.0689165
21
1.22247
0
LINE
8
BLACK
6
CONTINUOUS
10
-0.0689165
20
1.22247
11
-0.0688074
21
1.2226
0
LINE
8
BLACK
6
CONTINUOUS
10
-0.0688074
20
1.2226
11
-0.0687887
21
1.22277
0
LINE
8
BLACK
6
CONTINUOUS
10
-0.0687887
20
1.22277
11
-0.0681691
21
1.22336
0
LINE
8
BLACK
6
CONTINUOUS
10
-0.0681691
20
1.22336
11
-0.0676181
21
1.22402
0
LINE
8
BLACK
6
CONTINUOUS
10
-0.0676181
20
1.22402
11
-0.0674509
21
1.22405
0
LINE
8
BLACK
6
CONTINUOUS
10
-0.0674509
20
1.22405
11
-0.0673281
21
1.22417
0
LINE
8
BLACK
6
CONTINUOUS
10
-0.0673281
20
1.22417
11
-0.066473
21
1.22422
0
LINE
8
BLACK
6
CONTINUOUS
10
-0.066473
20
1.22422
11
-0.065629
21
1.22437
0
LINE
8
BLACK
6
CONTINUOUS
10
-0.065629
20
1.22437
11
-0.065482
21
1.22429
0
LINE
8
BLACK
6
CONTINUOUS
10
-0.0277771
20
1.22426
11
-0.0277127
21
1.22427
0
LINE
8
BLACK
6
CONTINUOUS
10
-0.0277127
20
1.22427
11
-0.0220884
21
1.22239
0
LINE
8
BLACK
6
CONTINUOUS
10
-0.0220884
20
1.22239
11
-0.0211867
21
1.2219
0
LINE
8
BLACK
6
CONTINUOUS
10
-0.0211867
20
1.2219
11
-0.0210943
21
1.22175
0
LINE
8
BLACK
6
CONTINUOUS
10
-0.0210943
20
1.22175
11
-0.0209343
21
1.22168
0
LINE
8
BLACK
6
CONTINUOUS
10
-0.0209343
20
1.22168
11
-0.0171847
21
1.21793
0
LINE
8
BLACK
6
CONTINUOUS
10
-0.0171847
20
1.21793
11
-0.0166783
21
1.2172
0
LINE
8
BLACK
6
CONTINUOUS
10
-0.0166783
20
1.2172
11
-0.0166316
21
1.21716
0
LINE
8
BLACK
6
CONTINUOUS
10
-0.0166316
20
1.21716
11
-0.0147569
21
1.21341
0
LINE
8
BLACK
6
CONTINUOUS
10
-0.0147569
20
1.21341
11
-0.0146116
21
1.21292
0
LINE
8
BLACK
6
CONTINUOUS
10
-0.0146116
20
1.21292
11
-0.0145333
21
1.21281
0
LINE
8
BLACK
6
CONTINUOUS
10
-0.0145333
20
1.21281
11
-0.0126585
21
1.20531
0
LINE
8
BLACK
6
CONTINUOUS
10
-0.0126585
20
1.20531
11
-0.012617
21
1.20472
0
LINE
8
BLACK
6
CONTINUOUS
10
-0.012617
20
1.20472
11
-0.0125704
21
1.20459
0
LINE
8
BLACK
6
CONTINUOUS
10
-0.0125704
20
1.20459
11
-0.0125704
21
1.19897
0
LINE
8
BLACK
6
CONTINUOUS
10
-0.0125704
20
1.19897
11
-0.0126727
21
1.19839
0
LINE
8
BLACK
6
CONTINUOUS
10
-0.0126727
20
1.19839
11
-0.0126585
21
1.19825
0
LINE
8
BLACK
6
CONTINUOUS
10
-0.0126585
20
1.19825
11
-0.0145333
21
1.19075
0
LINE
8
BLACK
6
CONTINUOUS
10
-0.0145333
20
1.19075
11
-0.0147409
21
1.19029
0
LINE
8
BLACK
6
CONTINUOUS
10
-0.0147409
20
1.19029
11
-0.0147569
21
1.19015
0
LINE
8
BLACK
6
CONTINUOUS
10
-0.0147569
20
1.19015
11
-0.0166316
21
1.1864
0
LINE
8
BLACK
6
CONTINUOUS
10
-0.0166316
20
1.1864
11
-0.0171575
21
1.18569
0
LINE
8
BLACK
6
CONTINUOUS
10
-0.0171575
20
1.18569
11
-0.0171847
21
1.18563
0
LINE
8
BLACK
6
CONTINUOUS
10
-0.0171847
20
1.18563
11
-0.0209343
21
1.18188
0
LINE
8
BLACK
6
CONTINUOUS
10
-0.0209343
20
1.18188
11
-0.0217743
21
1.18129
0
LINE
8
BLACK
6
CONTINUOUS
10
-0.0217743
20
1.18129
11
-0.0219502
21
1.18128
0
LINE
8
BLACK
6
CONTINUOUS
10
-0.0219502
20
1.18128
11
-0.0220884
21
1.18117
0
LINE
8
BLACK
6
CONTINUOUS
10
-0.0220884
20
1.18117
11
-0.0277127
21
1.17929
0
LINE
8
BLACK
6
CONTINUOUS
10
-0.0277127
20
1.17929
11
-0.0285859
21
1.17916
0
LINE
8
BLACK
6
CONTINUOUS
10
-0.0285859
20
1.17916
11
-0.0286465
21
1.17914
0
LINE
8
BLACK
6
CONTINUOUS
10
-0.0286465
20
1.17914
11
-0.032396
21
1.17914
0
LINE
8
BLACK
6
CONTINUOUS
10
-0.032396
20
1.17914
11
-0.0332654
21
1.17929
0
LINE
8
BLACK
6
CONTINUOUS
10
-0.0332654
20
1.17929
11
-0.0333298
21
1.17929
0
LINE
8
BLACK
6
CONTINUOUS
10
-0.0333298
20
1.17929
11
-0.038954
21
1.18117
0
LINE
8
BLACK
6
CONTINUOUS
10
-0.038954
20
1.18117
11
-0.0398558
21
1.18166
0
LINE
8
BLACK
6
CONTINUOUS
10
-0.0398558
20
1.18166
11
-0.0399482
21
1.18181
0
LINE
8
BLACK
6
CONTINUOUS
10
-0.0399482
20
1.18181
11
-0.0401082
21
1.18188
0
LINE
8
BLACK
6
CONTINUOUS
10
-0.0401082
20
1.18188
11
-0.041983
21
1.18376
0
LINE
8
BLACK
6
CONTINUOUS
10
-0.041983
20
1.18376
11
-0.0425712
21
1.1846
0
LINE
8
BLACK
6
CONTINUOUS
10
-0.0425712
20
1.1846
11
-0.0427472
21
1.18661
0
LINE
8
BLACK
6
CONTINUOUS
10
-0.0427472
20
1.18661
11
-0.0415887
21
1.18826
0
LINE
8
BLACK
6
CONTINUOUS
10
-0.0415887
20
1.18826
11
-0.0396377
21
1.18878
0
LINE
8
BLACK
6
CONTINUOUS
10
-0.0396377
20
1.18878
11
-0.0378071
21
1.18793
0
LINE
8
BLACK
6
CONTINUOUS
10
-0.0378071
20
1.18793
11
-0.0364252
21
1.18655
0
LINE
8
BLACK
6
CONTINUOUS
10
-0.0364252
20
1.18655
11
-0.0319169
21
1.18505
0
LINE
8
BLACK
6
CONTINUOUS
10
-0.0319169
20
1.18505
11
-0.0291256
21
1.18505
0
LINE
8
BLACK
6
CONTINUOUS
10
-0.0291256
20
1.18505
11
-0.0246172
21
1.18655
0
LINE
8
BLACK
6
CONTINUOUS
10
-0.0246172
20
1.18655
11
-0.0216994
21
1.18947
0
LINE
8
BLACK
6
CONTINUOUS
10
-0.0216994
20
1.18947
11
-0.0201839
21
1.1925
0
LINE
8
BLACK
6
CONTINUOUS
10
-0.0201839
20
1.1925
11
-0.0184759
21
1.19933
0
LINE
8
BLACK
6
CONTINUOUS
10
-0.0184759
20
1.19933
11
-0.0184759
21
1.20423
0
LINE
8
BLACK
6
CONTINUOUS
10
-0.0184759
20
1.20423
11
-0.0201839
21
1.21106
0
LINE
8
BLACK
6
CONTINUOUS
10
-0.0201839
20
1.21106
11
-0.0216994
21
1.21409
0
LINE
8
BLACK
6
CONTINUOUS
10
-0.0216994
20
1.21409
11
-0.0246172
21
1.21701
0
LINE
8
BLACK
6
CONTINUOUS
10
-0.0246172
20
1.21701
11
-0.0291256
21
1.21851
0
LINE
8
BLACK
6
CONTINUOUS
10
-0.0291256
20
1.21851
11
-0.0319169
21
1.21851
0
LINE
8
BLACK
6
CONTINUOUS
10
-0.0319169
20
1.21851
11
-0.0364252
21
1.21701
0
LINE
8
BLACK
6
CONTINUOUS
10
-0.0364252
20
1.21701
11
-0.0378071
21
1.21563
0
LINE
8
BLACK
6
CONTINUOUS
10
-0.0378071
20
1.21563
11
-0.0386472
21
1.21504
0
LINE
8
BLACK
6
CONTINUOUS
10
-0.0386472
20
1.21504
11
-0.0406593
21
1.21486
0
LINE
8
BLACK
6
CONTINUOUS
10
-0.0406593
20
1.21486
11
-0.0423138
21
1.21602
0
LINE
8
BLACK
6
CONTINUOUS
10
-0.0423138
20
1.21602
11
-0.0428365
21
1.21797
0
LINE
8
BLACK
6
CONTINUOUS
10
-0.0428365
20
1.21797
11
-0.041983
21
1.2198
0
LINE
8
BLACK
6
CONTINUOUS
10
-0.041983
20
1.2198
11
-0.0401082
21
1.22168
0
LINE
8
BLACK
6
CONTINUOUS
10
-0.0401082
20
1.22168
11
-0.0392681
21
1.22227
0
LINE
8
BLACK
6
CONTINUOUS
10
-0.0392681
20
1.22227
11
-0.0390923
21
1.22228
0
LINE
8
BLACK
6
CONTINUOUS
10
-0.0390923
20
1.22228
11
-0.038954
21
1.22239
0
LINE
8
BLACK
6
CONTINUOUS
10
-0.038954
20
1.22239
11
-0.0333298
21
1.22427
0
LINE
8
BLACK
6
CONTINUOUS
10
-0.0333298
20
1.22427
11
-0.0324565
21
1.22439
0
LINE
8
BLACK
6
CONTINUOUS
10
-0.0324565
20
1.22439
11
-0.032396
21
1.22442
0
LINE
8
BLACK
6
CONTINUOUS
10
-0.032396
20
1.22442
11
-0.0286465
21
1.22442
0
LINE
8
BLACK
6
CONTINUOUS
10
-0.0286465
20
1.22442
11
-0.0277771
21
1.22426
0
LINE
8
BLACK
6
CONTINUOUS
10
0.487402
20
1.44559
11
0.489072
21
1.44489
0
LINE
8
BLACK
6
CONTINUOUS
10
0.489072
20
1.44489
11
0.489764
21
1.44322
0
LINE
8
BLACK
6
CONTINUOUS
10
0.489764
20
1.44322
11
0.489764
21
1.3133
0
LINE
8
BLACK
6
CONTINUOUS
10
0.489764
20
1.3133
11
0.489072
21
1.31163
0
LINE
8
BLACK
6
CONTINUOUS
10
0.489072
20
1.31163
11
0.487402
21
1.31094
0
LINE
8
BLACK
6
CONTINUOUS
10
0.487402
20
1.31094
11
0.274803
21
1.31094
0
LINE
8
BLACK
6
CONTINUOUS
10
0.274803
20
1.31094
11
0.273133
21
1.31163
0
LINE
8
BLACK
6
CONTINUOUS
10
0.273133
20
1.31163
11
0.272441
21
1.3133
0
LINE
8
BLACK
6
CONTINUOUS
10
0.272441
20
1.3133
11
0.273133
21
1.31497
0
LINE
8
BLACK
6
CONTINUOUS
10
0.273133
20
1.31497
11
0.274803
21
1.31566
0
LINE
8
BLACK
6
CONTINUOUS
10
0.274803
20
1.31566
11
0.485039
21
1.31566
0
LINE
8
BLACK
6
CONTINUOUS
10
0.485039
20
1.31566
11
0.485039
21
1.44086
0
LINE
8
BLACK
6
CONTINUOUS
10
0.485039
20
1.44086
11
0.274803
21
1.44086
0
LINE
8
BLACK
6
CONTINUOUS
10
0.274803
20
1.44086
11
0.273133
21
1.44155
0
LINE
8
BLACK
6
CONTINUOUS
10
0.273133
20
1.44155
11
0.272441
21
1.44322
0
LINE
8
BLACK
6
CONTINUOUS
10
0.272441
20
1.44322
11
0.273133
21
1.44489
0
LINE
8
BLACK
6
CONTINUOUS
10
0.273133
20
1.44489
11
0.274803
21
1.44559
0
LINE
8
BLACK
6
CONTINUOUS
10
0.274803
20
1.44559
11
0.487402
21
1.44559
0
LINE
8
BLACK
6
CONTINUOUS
10
0.334518
20
1.50097
11
0.334687
21
1.50099
0
LINE
8
BLACK
6
CONTINUOUS
10
0.334687
20
1.50099
11
0.335378
21
1.50048
0
LINE
8
BLACK
6
CONTINUOUS
10
0.335378
20
1.50048
11
0.33612
21
1.50005
0
LINE
8
BLACK
6
CONTINUOUS
10
0.33612
20
1.50005
11
0.336178
21
1.49989
0
LINE
8
BLACK
6
CONTINUOUS
10
0.336178
20
1.49989
11
0.336315
21
1.49979
0
LINE
8
BLACK
6
CONTINUOUS
10
0.336315
20
1.49979
11
0.339902
21
1.49441
0
LINE
8
BLACK
6
CONTINUOUS
10
0.339902
20
1.49441
11
0.343106
21
1.4912
0
LINE
8
BLACK
6
CONTINUOUS
10
0.343106
20
1.4912
11
0.346427
21
1.48954
0
LINE
8
BLACK
6
CONTINUOUS
10
0.346427
20
1.48954
11
0.347251
21
1.48893
0
LINE
8
BLACK
6
CONTINUOUS
10
0.347251
20
1.48893
11
0.348054
21
1.48708
0
LINE
8
BLACK
6
CONTINUOUS
10
0.348054
20
1.48708
11
0.347478
21
1.48514
0
LINE
8
BLACK
6
CONTINUOUS
10
0.347478
20
1.48514
11
0.345793
21
1.48403
0
LINE
8
BLACK
6
CONTINUOUS
10
0.345793
20
1.48403
11
0.343786
21
1.48426
0
LINE
8
BLACK
6
CONTINUOUS
10
0.343786
20
1.48426
11
0.340037
21
1.48614
0
LINE
8
BLACK
6
CONTINUOUS
10
0.340037
20
1.48614
11
0.339328
21
1.48666
0
LINE
8
BLACK
6
CONTINUOUS
10
0.339328
20
1.48666
11
0.339269
21
1.48669
0
LINE
8
BLACK
6
CONTINUOUS
10
0.339269
20
1.48669
11
0.336811
21
1.48915
0
LINE
8
BLACK
6
CONTINUOUS
10
0.336811
20
1.48915
11
0.336811
21
1.46173
0
LINE
8
BLACK
6
CONTINUOUS
10
0.336811
20
1.46173
11
0.345107
21
1.46173
0
LINE
8
BLACK
6
CONTINUOUS
10
0.345107
20
1.46173
11
0.346117
21
1.46156
0
LINE
8
BLACK
6
CONTINUOUS
10
0.346117
20
1.46156
11
0.347664
21
1.46026
0
LINE
8
BLACK
6
CONTINUOUS
10
0.347664
20
1.46026
11
0.348015
21
1.45827
0
LINE
8
BLACK
6
CONTINUOUS
10
0.348015
20
1.45827
11
0.347005
21
1.45652
0
LINE
8
BLACK
6
CONTINUOUS
10
0.347005
20
1.45652
11
0.345107
21
1.45583
0
LINE
8
BLACK
6
CONTINUOUS
10
0.345107
20
1.45583
11
0.32261
21
1.45583
0
LINE
8
BLACK
6
CONTINUOUS
10
0.32261
20
1.45583
11
0.3216
21
1.45601
0
LINE
8
BLACK
6
CONTINUOUS
10
0.3216
20
1.45601
11
0.320052
21
1.4573
0
LINE
8
BLACK
6
CONTINUOUS
10
0.320052
20
1.4573
11
0.319702
21
1.45929
0
LINE
8
BLACK
6
CONTINUOUS
10
0.319702
20
1.45929
11
0.320712
21
1.46104
0
LINE
8
BLACK
6
CONTINUOUS
10
0.320712
20
1.46104
11
0.32261
21
1.46173
0
LINE
8
BLACK
6
CONTINUOUS
10
0.32261
20
1.46173
11
0.330905
21
1.46173
0
LINE
8
BLACK
6
CONTINUOUS
10
0.330905
20
1.46173
11
0.330905
21
1.49815
0
LINE
8
BLACK
6
CONTINUOUS
10
0.330905
20
1.49815
11
0.331084
21
1.49916
0
LINE
8
BLACK
6
CONTINUOUS
10
0.331084
20
1.49916
11
0.331193
21
1.49929
0
LINE
8
BLACK
6
CONTINUOUS
10
0.331193
20
1.49929
11
0.331211
21
1.49946
0
LINE
8
BLACK
6
CONTINUOUS
10
0.331211
20
1.49946
11
0.331831
21
1.50005
0
LINE
8
BLACK
6
CONTINUOUS
10
0.331831
20
1.50005
11
0.332382
21
1.50071
0
LINE
8
BLACK
6
CONTINUOUS
10
0.332382
20
1.50071
11
0.332549
21
1.50074
0
LINE
8
BLACK
6
CONTINUOUS
10
0.332549
20
1.50074
11
0.332672
21
1.50086
0
LINE
8
BLACK
6
CONTINUOUS
10
0.332672
20
1.50086
11
0.333527
21
1.50091
0
LINE
8
BLACK
6
CONTINUOUS
10
0.333527
20
1.50091
11
0.334371
21
1.50106
0
LINE
8
BLACK
6
CONTINUOUS
10
0.334371
20
1.50106
11
0.334518
21
1.50097
0
LINE
8
BLACK
6
CONTINUOUS
10
0.382986
20
1.50104
11
0.383115
21
1.50106
0
LINE
8
BLACK
6
CONTINUOUS
10
0.383115
20
1.50106
11
0.383228
21
1.50099
0
LINE
8
BLACK
6
CONTINUOUS
10
0.383228
20
1.50099
11
0.383612
21
1.50093
0
LINE
8
BLACK
6
CONTINUOUS
10
0.383612
20
1.50093
11
0.3842
21
1.50043
0
LINE
8
BLACK
6
CONTINUOUS
10
0.3842
20
1.50043
11
0.384864
21
1.50005
0
LINE
8
BLACK
6
CONTINUOUS
10
0.384864
20
1.50005
11
0.384955
21
1.4998
0
LINE
8
BLACK
6
CONTINUOUS
10
0.384955
20
1.4998
11
0.385159
21
1.49963
0
LINE
8
BLACK
6
CONTINUOUS
10
0.385159
20
1.49963
11
0.385293
21
1.49887
0
LINE
8
BLACK
6
CONTINUOUS
10
0.385293
20
1.49887
11
0.385555
21
1.49815
0
LINE
8
BLACK
6
CONTINUOUS
10
0.385555
20
1.49815
11
0.385555
21
1.45878
0
LINE
8
BLACK
6
CONTINUOUS
10
0.385555
20
1.45878
11
0.385487
21
1.4584
0
LINE
8
BLACK
6
CONTINUOUS
10
0.385487
20
1.4584
11
0.38551
21
1.45827
0
LINE
8
BLACK
6
CONTINUOUS
10
0.38551
20
1.45827
11
0.385444
21
1.45815
0
LINE
8
BLACK
6
CONTINUOUS
10
0.385444
20
1.45815
11
0.385377
21
1.45777
0
LINE
8
BLACK
6
CONTINUOUS
10
0.385377
20
1.45777
11
0.384884
21
1.45718
0
LINE
8
BLACK
6
CONTINUOUS
10
0.384884
20
1.45718
11
0.3845
21
1.45652
0
LINE
8
BLACK
6
CONTINUOUS
10
0.3845
20
1.45652
11
0.38425
21
1.45643
0
LINE
8
BLACK
6
CONTINUOUS
10
0.38425
20
1.45643
11
0.384079
21
1.45622
0
LINE
8
BLACK
6
CONTINUOUS
10
0.384079
20
1.45622
11
0.383323
21
1.45609
0
LINE
8
BLACK
6
CONTINUOUS
10
0.383323
20
1.45609
11
0.382602
21
1.45583
0
LINE
8
BLACK
6
CONTINUOUS
10
0.382602
20
1.45583
11
0.373228
21
1.45583
0
LINE
8
BLACK
6
CONTINUOUS
10
0.373228
20
1.45583
11
0.372359
21
1.45598
0
LINE
8
BLACK
6
CONTINUOUS
10
0.372359
20
1.45598
11
0.372295
21
1.45598
0
LINE
8
BLACK
6
CONTINUOUS
10
0.372295
20
1.45598
11
0.36667
21
1.45785
0
LINE
8
BLACK
6
CONTINUOUS
10
0.36667
20
1.45785
11
0.365769
21
1.45834
0
LINE
8
BLACK
6
CONTINUOUS
10
0.365769
20
1.45834
11
0.365676
21
1.45849
0
LINE
8
BLACK
6
CONTINUOUS
10
0.365676
20
1.45849
11
0.365516
21
1.45857
0
LINE
8
BLACK
6
CONTINUOUS
10
0.365516
20
1.45857
11
0.361767
21
1.46232
0
LINE
8
BLACK
6
CONTINUOUS
10
0.361767
20
1.46232
11
0.36126
21
1.46304
0
LINE
8
BLACK
6
CONTINUOUS
10
0.36126
20
1.46304
11
0.361213
21
1.46308
0
LINE
8
BLACK
6
CONTINUOUS
10
0.361213
20
1.46308
11
0.359339
21
1.46683
0
LINE
8
BLACK
6
CONTINUOUS
10
0.359339
20
1.46683
11
0.359193
21
1.46732
0
LINE
8
BLACK
6
CONTINUOUS
10
0.359193
20
1.46732
11
0.359115
21
1.46744
0
LINE
8
BLACK
6
CONTINUOUS
10
0.359115
20
1.46744
11
0.35724
21
1.47494
0
LINE
8
BLACK
6
CONTINUOUS
10
0.35724
20
1.47494
11
0.357199
21
1.47553
0
LINE
8
BLACK
6
CONTINUOUS
10
0.357199
20
1.47553
11
0.357152
21
1.47565
0
LINE
8
BLACK
6
CONTINUOUS
10
0.357152
20
1.47565
11
0.357152
21
1.48128
0
LINE
8
BLACK
6
CONTINUOUS
10
0.357152
20
1.48128
11
0.357255
21
1.48186
0
LINE
8
BLACK
6
CONTINUOUS
10
0.357255
20
1.48186
11
0.35724
21
1.48199
0
LINE
8
BLACK
6
CONTINUOUS
10
0.35724
20
1.48199
11
0.359115
21
1.48949
0
LINE
8
BLACK
6
CONTINUOUS
10
0.359115
20
1.48949
11
0.359323
21
1.48996
0
LINE
8
BLACK
6
CONTINUOUS
10
0.359323
20
1.48996
11
0.359339
21
1.4901
0
LINE
8
BLACK
6
CONTINUOUS
10
0.359339
20
1.4901
11
0.361213
21
1.49385
0
LINE
8
BLACK
6
CONTINUOUS
10
0.361213
20
1.49385
11
0.361739
21
1.49456
0
LINE
8
BLACK
6
CONTINUOUS
10
0.361739
20
1.49456
11
0.361767
21
1.49461
0
LINE
8
BLACK
6
CONTINUOUS
10
0.361767
20
1.49461
11
0.365516
21
1.49836
0
LINE
8
BLACK
6
CONTINUOUS
10
0.365516
20
1.49836
11
0.366356
21
1.49895
0
LINE
8
BLACK
6
CONTINUOUS
10
0.366356
20
1.49895
11
0.366532
21
1.49897
0
LINE
8
BLACK
6
CONTINUOUS
10
0.366532
20
1.49897
11
0.36667
21
1.49908
0
LINE
8
BLACK
6
CONTINUOUS
10
0.36667
20
1.49908
11
0.372295
21
1.50095
0
LINE
8
BLACK
6
CONTINUOUS
10
0.372295
20
1.50095
11
0.373168
21
1.50108
0
LINE
8
BLACK
6
CONTINUOUS
10
0.373168
20
1.50108
11
0.373228
21
1.5011
0
LINE
8
BLACK
6
CONTINUOUS
10
0.373228
20
1.5011
11
0.382602
21
1.5011
0
LINE
8
BLACK
6
CONTINUOUS
10
0.382602
20
1.5011
11
0.382986
21
1.50104
0
LINE
8
BLACK
6
CONTINUOUS
10
0.369199
20
1.4937
11
0.366281
21
1.49078
0
LINE
8
BLACK
6
CONTINUOUS
10
0.366281
20
1.49078
11
0.364766
21
1.48775
0
LINE
8
BLACK
6
CONTINUOUS
10
0.364766
20
1.48775
11
0.363058
21
1.48091
0
LINE
8
BLACK
6
CONTINUOUS
10
0.363058
20
1.48091
11
0.363058
21
1.47602
0
LINE
8
BLACK
6
CONTINUOUS
10
0.363058
20
1.47602
11
0.364766
21
1.46919
0
LINE
8
BLACK
6
CONTINUOUS
10
0.364766
20
1.46919
11
0.366281
21
1.46615
0
LINE
8
BLACK
6
CONTINUOUS
10
0.366281
20
1.46615
11
0.369199
21
1.46324
0
LINE
8
BLACK
6
CONTINUOUS
10
0.369199
20
1.46324
11
0.373707
21
1.46173
0
LINE
8
BLACK
6
CONTINUOUS
10
0.373707
20
1.46173
11
0.379649
21
1.46173
0
LINE
8
BLACK
6
CONTINUOUS
10
0.379649
20
1.46173
11
0.379649
21
1.4952
0
LINE
8
BLACK
6
CONTINUOUS
10
0.379649
20
1.4952
11
0.373707
21
1.4952
0
LINE
8
BLACK
6
CONTINUOUS
10
0.373707
20
1.4952
11
0.369199
21
1.4937
0
LINE
8
BLACK
6
CONTINUOUS
10
-0.0345009
20
1.72431
11
-0.033809
21
1.72264
0
LINE
8
BLACK
6
CONTINUOUS
10
-0.033809
20
1.72264
11
-0.0345009
21
1.72097
0
LINE
8
BLACK
6
CONTINUOUS
10
-0.0345009
20
1.72097
11
-0.0361712
21
1.72028
0
LINE
8
BLACK
6
CONTINUOUS
10
-0.0361712
20
1.72028
11
-0.0567422
21
1.72028
0
LINE
8
BLACK
6
CONTINUOUS
10
-0.0567422
20
1.72028
11
-0.0584125
21
1.72097
0
LINE
8
BLACK
6
CONTINUOUS
10
-0.0584125
20
1.72097
11
-0.0591044
21
1.72264
0
LINE
8
BLACK
6
CONTINUOUS
10
-0.0591044
20
1.72264
11
-0.0584125
21
1.72431
0
LINE
8
BLACK
6
CONTINUOUS
10
-0.0584125
20
1.72431
11
-0.0567422
21
1.725
0
LINE
8
BLACK
6
CONTINUOUS
10
-0.0567422
20
1.725
11
-0.0361712
21
1.725
0
LINE
8
BLACK
6
CONTINUOUS
10
-0.0361712
20
1.725
11
-0.0345009
21
1.72431
0
LINE
8
BLACK
6
CONTINUOUS
10
-0.0345009
20
1.78218
11
-0.033809
21
1.78051
0
LINE
8
BLACK
6
CONTINUOUS
10
-0.033809
20
1.78051
11
-0.0345009
21
1.77884
0
LINE
8
BLACK
6
CONTINUOUS
10
-0.0345009
20
1.77884
11
-0.0361712
21
1.77815
0
LINE
8
BLACK
6
CONTINUOUS
10
-0.0361712
20
1.77815
11
-0.0567422
21
1.77815
0
LINE
8
BLACK
6
CONTINUOUS
10
-0.0567422
20
1.77815
11
-0.0584125
21
1.77884
0
LINE
8
BLACK
6
CONTINUOUS
10
-0.0584125
20
1.77884
11
-0.0591044
21
1.78051
0
LINE
8
BLACK
6
CONTINUOUS
10
-0.0591044
20
1.78051
11
-0.0584125
21
1.78218
0
LINE
8
BLACK
6
CONTINUOUS
10
-0.0584125
20
1.78218
11
-0.0567422
21
1.78287
0
LINE
8
BLACK
6
CONTINUOUS
10
-0.0567422
20
1.78287
11
-0.0361712
21
1.78287
0
LINE
8
BLACK
6
CONTINUOUS
10
-0.0361712
20
1.78287
11
-0.0345009
21
1.78218
0
LINE
8
BLACK
6
CONTINUOUS
10
-0.0595076
20
1.84196
11
-0.0593723
21
1.84184
0
LINE
8
BLACK
6
CONTINUOUS
10
-0.0593723
20
1.84184
11
-0.059197
21
1.84182
0
LINE
8
BLACK
6
CONTINUOUS
10
-0.059197
20
1.84182
11
-0.0554474
21
1.83995
0
LINE
8
BLACK
6
CONTINUOUS
10
-0.0554474
20
1.83995
11
-0.0547384
21
1.83942
0
LINE
8
BLACK
6
CONTINUOUS
10
-0.0547384
20
1.83942
11
-0.05468
21
1.83939
0
LINE
8
BLACK
6
CONTINUOUS
10
-0.05468
20
1.83939
11
-0.0528053
21
1.83752
0
LINE
8
BLACK
6
CONTINUOUS
10
-0.0528053
20
1.83752
11
-0.0522171
21
1.83668
0
LINE
8
BLACK
6
CONTINUOUS
10
-0.0522171
20
1.83668
11
-0.0520411
21
1.83467
0
LINE
8
BLACK
6
CONTINUOUS
10
-0.0520411
20
1.83467
11
-0.0531996
21
1.83301
0
LINE
8
BLACK
6
CONTINUOUS
10
-0.0531996
20
1.83301
11
-0.0551506
21
1.83249
0
LINE
8
BLACK
6
CONTINUOUS
10
-0.0551506
20
1.83249
11
-0.0569811
21
1.83334
0
LINE
8
BLACK
6
CONTINUOUS
10
-0.0569811
20
1.83334
11
-0.058517
21
1.83488
0
LINE
8
BLACK
6
CONTINUOUS
10
-0.058517
20
1.83488
11
-0.0612145
21
1.83623
0
LINE
8
BLACK
6
CONTINUOUS
10
-0.0612145
20
1.83623
11
-0.0691943
21
1.83623
0
LINE
8
BLACK
6
CONTINUOUS
10
-0.0691943
20
1.83623
11
-0.0718918
21
1.83488
0
LINE
8
BLACK
6
CONTINUOUS
10
-0.0718918
20
1.83488
11
-0.0730889
21
1.83368
0
LINE
8
BLACK
6
CONTINUOUS
10
-0.0730889
20
1.83368
11
-0.0744376
21
1.83098
0
LINE
8
BLACK
6
CONTINUOUS
10
-0.0744376
20
1.83098
11
-0.0744376
21
1.82841
0
LINE
8
BLACK
6
CONTINUOUS
10
-0.0744376
20
1.82841
11
-0.0729348
21
1.8239
0
LINE
8
BLACK
6
CONTINUOUS
10
-0.0729348
20
1.8239
11
-0.0509305
21
1.8019
0
LINE
8
BLACK
6
CONTINUOUS
10
-0.0509305
20
1.8019
11
-0.0505607
21
1.80137
0
LINE
8
BLACK
6
CONTINUOUS
10
-0.0505607
20
1.80137
11
-0.0504613
21
1.80129
0
LINE
8
BLACK
6
CONTINUOUS
10
-0.0504613
20
1.80129
11
-0.0504475
21
1.80121
0
LINE
8
BLACK
6
CONTINUOUS
10
-0.0504475
20
1.80121
11
-0.0503423
21
1.80106
0
LINE
8
BLACK
6
CONTINUOUS
10
-0.0503423
20
1.80106
11
-0.0502648
21
1.80017
0
LINE
8
BLACK
6
CONTINUOUS
10
-0.0502648
20
1.80017
11
-0.0501105
21
1.7993
0
LINE
8
BLACK
6
CONTINUOUS
10
-0.0501105
20
1.7993
11
-0.050178
21
1.79918
0
LINE
8
BLACK
6
CONTINUOUS
10
-0.050178
20
1.79918
11
-0.0501663
21
1.79905
0
LINE
8
BLACK
6
CONTINUOUS
10
-0.0501663
20
1.79905
11
-0.0506761
21
1.79832
0
LINE
8
BLACK
6
CONTINUOUS
10
-0.0506761
20
1.79832
11
-0.0511204
21
1.79755
0
LINE
8
BLACK
6
CONTINUOUS
10
-0.0511204
20
1.79755
11
-0.0512473
21
1.7975
0
LINE
8
BLACK
6
CONTINUOUS
10
-0.0512473
20
1.7975
11
-0.0513248
21
1.79739
0
LINE
8
BLACK
6
CONTINUOUS
10
-0.0513248
20
1.79739
11
-0.0521833
21
1.79716
0
LINE
8
BLACK
6
CONTINUOUS
10
-0.0521833
20
1.79716
11
-0.0530184
21
1.79686
0
LINE
8
BLACK
6
CONTINUOUS
10
-0.0530184
20
1.79686
11
-0.0773904
21
1.79686
0
LINE
8
BLACK
6
CONTINUOUS
10
-0.0773904
20
1.79686
11
-0.0784003
21
1.79704
0
LINE
8
BLACK
6
CONTINUOUS
10
-0.0784003
20
1.79704
11
-0.0799475
21
1.79833
0
LINE
8
BLACK
6
CONTINUOUS
10
-0.0799475
20
1.79833
11
-0.0802983
21
1.80032
0
LINE
8
BLACK
6
CONTINUOUS
10
-0.0802983
20
1.80032
11
-0.0792883
21
1.80207
0
LINE
8
BLACK
6
CONTINUOUS
10
-0.0792883
20
1.80207
11
-0.0773904
21
1.80276
0
LINE
8
BLACK
6
CONTINUOUS
10
-0.0773904
20
1.80276
11
-0.060147
21
1.80276
0
LINE
8
BLACK
6
CONTINUOUS
10
-0.060147
20
1.80276
11
-0.0776035
21
1.82022
0
LINE
8
BLACK
6
CONTINUOUS
10
-0.0776035
20
1.82022
11
-0.0781917
21
1.82106
0
LINE
8
BLACK
6
CONTINUOUS
10
-0.0781917
20
1.82106
11
-0.0782071
21
1.82124
0
LINE
8
BLACK
6
CONTINUOUS
10
-0.0782071
20
1.82124
11
-0.0783168
21
1.82137
0
LINE
8
BLACK
6
CONTINUOUS
10
-0.0783168
20
1.82137
11
-0.0801916
21
1.827
0
LINE
8
BLACK
6
CONTINUOUS
10
-0.0801916
20
1.827
11
-0.0803211
21
1.82787
0
LINE
8
BLACK
6
CONTINUOUS
10
-0.0803211
20
1.82787
11
-0.0803431
21
1.82793
0
LINE
8
BLACK
6
CONTINUOUS
10
-0.0803431
20
1.82793
11
-0.0803431
21
1.83168
0
LINE
8
BLACK
6
CONTINUOUS
10
-0.0803431
20
1.83168
11
-0.080165
21
1.83269
0
LINE
8
BLACK
6
CONTINUOUS
10
-0.080165
20
1.83269
11
-0.0800516
21
1.83283
0
LINE
8
BLACK
6
CONTINUOUS
10
-0.0800516
20
1.83283
11
-0.0800314
21
1.833
0
LINE
8
BLACK
6
CONTINUOUS
10
-0.0800314
20
1.833
11
-0.0781566
21
1.83675
0
LINE
8
BLACK
6
CONTINUOUS
10
-0.0781566
20
1.83675
11
-0.0776307
21
1.83746
0
LINE
8
BLACK
6
CONTINUOUS
10
-0.0776307
20
1.83746
11
-0.0776035
21
1.83752
0
LINE
8
BLACK
6
CONTINUOUS
10
-0.0776035
20
1.83752
11
-0.0757287
21
1.83939
0
LINE
8
BLACK
6
CONTINUOUS
10
-0.0757287
20
1.83939
11
-0.0750057
21
1.8399
0
LINE
8
BLACK
6
CONTINUOUS
10
-0.0750057
20
1.8399
11
-0.0749613
21
1.83995
0
LINE
8
BLACK
6
CONTINUOUS
10
-0.0749613
20
1.83995
11
-0.0712118
21
1.84182
0
LINE
8
BLACK
6
CONTINUOUS
10
-0.0712118
20
1.84182
11
-0.0702289
21
1.84211
0
LINE
8
BLACK
6
CONTINUOUS
10
-0.0702289
20
1.84211
11
-0.0700572
21
1.84207
0
LINE
8
BLACK
6
CONTINUOUS
10
-0.0700572
20
1.84207
11
-0.0698913
21
1.84213
0
LINE
8
BLACK
6
CONTINUOUS
10
-0.0698913
20
1.84213
11
-0.0605175
21
1.84213
0
LINE
8
BLACK
6
CONTINUOUS
10
-0.0605175
20
1.84213
11
-0.0595076
21
1.84196
0
LINE
8
BLACK
6
CONTINUOUS
10
-0.0277771
20
1.84198
11
-0.0277127
21
1.84198
0
LINE
8
BLACK
6
CONTINUOUS
10
-0.0277127
20
1.84198
11
-0.0220884
21
1.84011
0
LINE
8
BLACK
6
CONTINUOUS
10
-0.0220884
20
1.84011
11
-0.0211867
21
1.83962
0
LINE
8
BLACK
6
CONTINUOUS
10
-0.0211867
20
1.83962
11
-0.0210943
21
1.83947
0
LINE
8
BLACK
6
CONTINUOUS
10
-0.0210943
20
1.83947
11
-0.0209343
21
1.83939
0
LINE
8
BLACK
6
CONTINUOUS
10
-0.0209343
20
1.83939
11
-0.0171847
21
1.83564
0
LINE
8
BLACK
6
CONTINUOUS
10
-0.0171847
20
1.83564
11
-0.0166783
21
1.83492
0
LINE
8
BLACK
6
CONTINUOUS
10
-0.0166783
20
1.83492
11
-0.0166316
21
1.83488
0
LINE
8
BLACK
6
CONTINUOUS
10
-0.0166316
20
1.83488
11
-0.0147569
21
1.83113
0
LINE
8
BLACK
6
CONTINUOUS
10
-0.0147569
20
1.83113
11
-0.0146116
21
1.83064
0
LINE
8
BLACK
6
CONTINUOUS
10
-0.0146116
20
1.83064
11
-0.0145333
21
1.83052
0
LINE
8
BLACK
6
CONTINUOUS
10
-0.0145333
20
1.83052
11
-0.0126585
21
1.82302
0
LINE
8
BLACK
6
CONTINUOUS
10
-0.0126585
20
1.82302
11
-0.012617
21
1.82244
0
LINE
8
BLACK
6
CONTINUOUS
10
-0.012617
20
1.82244
11
-0.0125704
21
1.82231
0
LINE
8
BLACK
6
CONTINUOUS
10
-0.0125704
20
1.82231
11
-0.0125704
21
1.81668
0
LINE
8
BLACK
6
CONTINUOUS
10
-0.0125704
20
1.81668
11
-0.0126727
21
1.8161
0
LINE
8
BLACK
6
CONTINUOUS
10
-0.0126727
20
1.8161
11
-0.0126585
21
1.81597
0
LINE
8
BLACK
6
CONTINUOUS
10
-0.0126585
20
1.81597
11
-0.0145333
21
1.80847
0
LINE
8
BLACK
6
CONTINUOUS
10
-0.0145333
20
1.80847
11
-0.0147409
21
1.808
0
LINE
8
BLACK
6
CONTINUOUS
10
-0.0147409
20
1.808
11
-0.0147569
21
1.80786
0
LINE
8
BLACK
6
CONTINUOUS
10
-0.0147569
20
1.80786
11
-0.0166316
21
1.80411
0
LINE
8
BLACK
6
CONTINUOUS
10
-0.0166316
20
1.80411
11
-0.0171575
21
1.80341
0
LINE
8
BLACK
6
CONTINUOUS
10
-0.0171575
20
1.80341
11
-0.0171847
21
1.80335
0
LINE
8
BLACK
6
CONTINUOUS
10
-0.0171847
20
1.80335
11
-0.0209343
21
1.7996
0
LINE
8
BLACK
6
CONTINUOUS
10
-0.0209343
20
1.7996
11
-0.0217743
21
1.79901
0
LINE
8
BLACK
6
CONTINUOUS
10
-0.0217743
20
1.79901
11
-0.0219502
21
1.79899
0
LINE
8
BLACK
6
CONTINUOUS
10
-0.0219502
20
1.79899
11
-0.0220884
21
1.79888
0
LINE
8
BLACK
6
CONTINUOUS
10
-0.0220884
20
1.79888
11
-0.0277127
21
1.79701
0
LINE
8
BLACK
6
CONTINUOUS
10
-0.0277127
20
1.79701
11
-0.0285859
21
1.79688
0
LINE
8
BLACK
6
CONTINUOUS
10
-0.0285859
20
1.79688
11
-0.0286465
21
1.79686
0
LINE
8
BLACK
6
CONTINUOUS
10
-0.0286465
20
1.79686
11
-0.032396
21
1.79686
0
LINE
8
BLACK
6
CONTINUOUS
10
-0.032396
20
1.79686
11
-0.0332654
21
1.79701
0
LINE
8
BLACK
6
CONTINUOUS
10
-0.0332654
20
1.79701
11
-0.0333298
21
1.79701
0
LINE
8
BLACK
6
CONTINUOUS
10
-0.0333298
20
1.79701
11
-0.038954
21
1.79888
0
LINE
8
BLACK
6
CONTINUOUS
10
-0.038954
20
1.79888
11
-0.0398558
21
1.79937
0
LINE
8
BLACK
6
CONTINUOUS
10
-0.0398558
20
1.79937
11
-0.0399482
21
1.79952
0
LINE
8
BLACK
6
CONTINUOUS
10
-0.0399482
20
1.79952
11
-0.0401082
21
1.7996
0
LINE
8
BLACK
6
CONTINUOUS
10
-0.0401082
20
1.7996
11
-0.041983
21
1.80147
0
LINE
8
BLACK
6
CONTINUOUS
10
-0.041983
20
1.80147
11
-0.0425712
21
1.80231
0
LINE
8
BLACK
6
CONTINUOUS
10
-0.0425712
20
1.80231
11
-0.0427472
21
1.80432
0
LINE
8
BLACK
6
CONTINUOUS
10
-0.0427472
20
1.80432
11
-0.0415887
21
1.80598
0
LINE
8
BLACK
6
CONTINUOUS
10
-0.0415887
20
1.80598
11
-0.0396377
21
1.8065
0
LINE
8
BLACK
6
CONTINUOUS
10
-0.0396377
20
1.8065
11
-0.0378071
21
1.80565
0
LINE
8
BLACK
6
CONTINUOUS
10
-0.0378071
20
1.80565
11
-0.0364252
21
1.80427
0
LINE
8
BLACK
6
CONTINUOUS
10
-0.0364252
20
1.80427
11
-0.0319169
21
1.80276
0
LINE
8
BLACK
6
CONTINUOUS
10
-0.0319169
20
1.80276
11
-0.0291256
21
1.80276
0
LINE
8
BLACK
6
CONTINUOUS
10
-0.0291256
20
1.80276
11
-0.0246172
21
1.80427
0
LINE
8
BLACK
6
CONTINUOUS
10
-0.0246172
20
1.80427
11
-0.0216994
21
1.80718
0
LINE
8
BLACK
6
CONTINUOUS
10
-0.0216994
20
1.80718
11
-0.0201839
21
1.81021
0
LINE
8
BLACK
6
CONTINUOUS
10
-0.0201839
20
1.81021
11
-0.0184759
21
1.81705
0
LINE
8
BLACK
6
CONTINUOUS
10
-0.0184759
20
1.81705
11
-0.0184759
21
1.82194
0
LINE
8
BLACK
6
CONTINUOUS
10
-0.0184759
20
1.82194
11
-0.0201839
21
1.82878
0
LINE
8
BLACK
6
CONTINUOUS
10
-0.0201839
20
1.82878
11
-0.0216994
21
1.83181
0
LINE
8
BLACK
6
CONTINUOUS
10
-0.0216994
20
1.83181
11
-0.0246172
21
1.83472
0
LINE
8
BLACK
6
CONTINUOUS
10
-0.0246172
20
1.83472
11
-0.0291256
21
1.83623
0
LINE
8
BLACK
6
CONTINUOUS
10
-0.0291256
20
1.83623
11
-0.0319169
21
1.83623
0
LINE
8
BLACK
6
CONTINUOUS
10
-0.0319169
20
1.83623
11
-0.0364252
21
1.83472
0
LINE
8
BLACK
6
CONTINUOUS
10
-0.0364252
20
1.83472
11
-0.0378071
21
1.83334
0
LINE
8
BLACK
6
CONTINUOUS
10
-0.0378071
20
1.83334
11
-0.0386472
21
1.83275
0
LINE
8
BLACK
6
CONTINUOUS
10
-0.0386472
20
1.83275
11
-0.0406593
21
1.83258
0
LINE
8
BLACK
6
CONTINUOUS
10
-0.0406593
20
1.83258
11
-0.0423138
21
1.83374
0
LINE
8
BLACK
6
CONTINUOUS
10
-0.0423138
20
1.83374
11
-0.0428365
21
1.83569
0
LINE
8
BLACK
6
CONTINUOUS
10
-0.0428365
20
1.83569
11
-0.041983
21
1.83752
0
LINE
8
BLACK
6
CONTINUOUS
10
-0.041983
20
1.83752
11
-0.0401082
21
1.83939
0
LINE
8
BLACK
6
CONTINUOUS
10
-0.0401082
20
1.83939
11
-0.0392681
21
1.83998
0
LINE
8
BLACK
6
CONTINUOUS
10
-0.0392681
20
1.83998
11
-0.0390923
21
1.84
0
LINE
8
BLACK
6
CONTINUOUS
10
-0.0390923
20
1.84
11
-0.038954
21
1.84011
0
LINE
8
BLACK
6
CONTINUOUS
10
-0.038954
20
1.84011
11
-0.0333298
21
1.84198
0
LINE
8
BLACK
6
CONTINUOUS
10
-0.0333298
20
1.84198
11
-0.0324565
21
1.84211
0
LINE
8
BLACK
6
CONTINUOUS
10
-0.0324565
20
1.84211
11
-0.032396
21
1.84213
0
LINE
8
BLACK
6
CONTINUOUS
10
-0.032396
20
1.84213
11
-0.0286465
21
1.84213
0
LINE
8
BLACK
6
CONTINUOUS
10
-0.0286465
20
1.84213
11
-0.0277771
21
1.84198
0
CIRCLE
8
BLACK
10
3.01587
20
1.12854
40
0.00688976
0
CIRCLE
8
BLACK
10
3.11587
20
1.12854
40
0.00688976
0
CIRCLE
8
BLACK
10
3.01587
20
1.02854
40
0.00688976
0
CIRCLE
8
BLACK
10
3.11587
20
1.02854
40
0.00688976
0
CIRCLE
8
BLACK
10
3.01587
20
0.928543
40
0.00688976
0
CIRCLE
8
BLACK
10
3.11587
20
0.928543
40
0.00688976
0
CIRCLE
8
BLACK
10
3.01587
20
0.828543
40
0.00688976
0
CIRCLE
8
BLACK
10
3.11587
20
0.828543
40
0.00688976
0
CIRCLE
8
BLACK
10
3.01587
20
0.728543
40
0.00688976
0
CIRCLE
8
BLACK
10
3.11587
20
0.728543
40
0.00688976
0
CIRCLE
8
BLACK
10
1.6
20
1.6
40
0.00688976
0
CIRCLE
8
BLACK
10
3.26114
20
0.524213
40
0.00688976
0
CIRCLE
8
BLACK
10
3.36114
20
0.524213
40
0.00688976
0
CIRCLE
8
BLACK
10
1.6
20
0.4
40
0.00688976
0
CIRCLE
8
BLACK
10
0.753543
20
1.33386
40
0.00688976
0
CIRCLE
8
BLACK
10
0.853543
20
1.23386
40
0.00688976
0
CIRCLE
8
BLACK
10
0.853543
20
1.43386
40
0.00688976
0
CIRCLE
8
BLACK
10
0.653543
20
1.23386
40
0.00688976
0
CIRCLE
8
BLACK
10
0.653543
20
1.43386
40
0.00688976
0
CIRCLE
8
BLACK
10
0.4
20
0.4
40
0.00688976
0
CIRCLE
8
BLACK
10
0.4
20
1.6
40
0.00688976
0
CIRCLE
8
BLACK
10
2.27394
20
1.60079
40
0.00688976
0
CIRCLE
8
BLACK
10
2.27394
20
1.40394
40
0.00688976
  0
ENDSEC
  0
EOF
