  0
SECTION
  2
HEADER
  9
$ANGBASE
  50
0.0
  9
$ANGDIR
  70
1
  9
$MEASUREMENT
  70
0
  0
ENDSEC
  0
SECTION
  2
TABLES
  0
TABLE
  2
LTYPE
  70
4
  0
LTYPE
  5
40F
  2
CONTINUOUS
  70
0
  3
Solid line
  72
65
  73
0
  40
0.0
  0
LTYPE
  5
410
  2
DASHDOT
 70
0
  3
Dash Dot ____ _ ____ _
 72
65
 73
4
 40
2.0
 49
1.25
 49
-0.25
 49
0.25
 49
-0.25
  0
LTYPE
  5
411
  2
DASHED
 70
0
  3
Dashed __ __ __ __ __
 72
65
 73
2
 40
0.75
 49
0.5
 49
-0.25
  0
LTYPE
  5
43B
  2
DOTTED
 70
0
  3
Dotted .  .  .  .
 72
65
 73
2
 40
0.2
 49
0.0
 49
-0.2
  0
ENDTAB
  0
TABLE
  2
STYLE
  70
4
  0
STYLE
  2
KICAD
  70
0
  40
0
  41
1
  42
1
  50
0
  71
0
  3
isocp.shx
  0
STYLE
  2
KICADB
  70
0
  40
0
  41
1
  42
1
  50
0
  71
0
  3
isocp.shx
  0
STYLE
  2
KICADI
  70
0
  40
0
  41
1
  42
1
  50
15
  71
0
  3
isocp.shx
  0
STYLE
  2
KICADBI
  70
0
  40
0
  41
1
  42
1
  50
15
  71
0
  3
isocp.shx
  0
ENDTAB
  0
TABLE
  2
LAYER
  70
1
  0
LAYER
  2
BLACK
  70
0
  62
7
  6
CONTINUOUS
  0
ENDTAB
  0
ENDSEC
  0
SECTION
  2
ENTITIES
0
LINE
8
BLACK
6
CONTINUOUS
10
0.0804331
20
-0.102953
11
0.00956693
21
-0.102953
0
LINE
8
BLACK
6
CONTINUOUS
10
0.00956693
20
-0.102953
11
0.00956693
21
-0.00452756
0
LINE
8
BLACK
6
CONTINUOUS
10
0.00956693
20
-0.00452756
11
0.0804331
21
-0.00452756
0
LINE
8
BLACK
6
CONTINUOUS
10
0.0804331
20
-0.00452756
11
0.0804331
21
-0.102953
0
LINE
8
BLACK
6
CONTINUOUS
10
0.0804331
20
0.0545276
11
0.00956693
21
0.0545276
0
LINE
8
BLACK
6
CONTINUOUS
10
0.00956693
20
0.0545276
11
0.00956693
21
0.152953
0
LINE
8
BLACK
6
CONTINUOUS
10
0.00956693
20
0.152953
11
0.0804331
21
0.152953
0
LINE
8
BLACK
6
CONTINUOUS
10
0.0804331
20
0.152953
11
0.0804331
21
0.0545276
0
LINE
8
BLACK
6
CONTINUOUS
10
0.642681
20
0.333614
11
0.650066
21
0.331373
0
LINE
8
BLACK
6
CONTINUOUS
10
0.650066
20
0.331373
11
0.656873
21
0.327735
0
LINE
8
BLACK
6
CONTINUOUS
10
0.656873
20
0.327735
11
0.662839
21
0.322839
0
LINE
8
BLACK
6
CONTINUOUS
10
0.662839
20
0.322839
11
0.667735
21
0.316873
0
LINE
8
BLACK
6
CONTINUOUS
10
0.667735
20
0.316873
11
0.671373
21
0.310066
0
LINE
8
BLACK
6
CONTINUOUS
10
0.671373
20
0.310066
11
0.673614
21
0.302681
0
LINE
8
BLACK
6
CONTINUOUS
10
0.673614
20
0.302681
11
0.67437
21
0.295
0
LINE
8
BLACK
6
CONTINUOUS
10
0.67437
20
0.295
11
0.673614
21
0.287319
0
LINE
8
BLACK
6
CONTINUOUS
10
0.673614
20
0.287319
11
0.671373
21
0.279934
0
LINE
8
BLACK
6
CONTINUOUS
10
0.671373
20
0.279934
11
0.667735
21
0.273127
0
LINE
8
BLACK
6
CONTINUOUS
10
0.667735
20
0.273127
11
0.662839
21
0.267161
0
LINE
8
BLACK
6
CONTINUOUS
10
0.662839
20
0.267161
11
0.656873
21
0.262265
0
LINE
8
BLACK
6
CONTINUOUS
10
0.656873
20
0.262265
11
0.650066
21
0.258627
0
LINE
8
BLACK
6
CONTINUOUS
10
0.650066
20
0.258627
11
0.642681
21
0.256386
0
LINE
8
BLACK
6
CONTINUOUS
10
0.642681
20
0.256386
11
0.635
21
0.25563
0
LINE
8
BLACK
6
CONTINUOUS
10
0.635
20
0.25563
11
0.627319
21
0.256386
0
LINE
8
BLACK
6
CONTINUOUS
10
0.627319
20
0.256386
11
0.619934
21
0.258627
0
LINE
8
BLACK
6
CONTINUOUS
10
0.619934
20
0.258627
11
0.613127
21
0.262265
0
LINE
8
BLACK
6
CONTINUOUS
10
0.613127
20
0.262265
11
0.607161
21
0.267161
0
LINE
8
BLACK
6
CONTINUOUS
10
0.607161
20
0.267161
11
0.602265
21
0.273127
0
LINE
8
BLACK
6
CONTINUOUS
10
0.602265
20
0.273127
11
0.598627
21
0.279934
0
LINE
8
BLACK
6
CONTINUOUS
10
0.598627
20
0.279934
11
0.596386
21
0.287319
0
LINE
8
BLACK
6
CONTINUOUS
10
0.596386
20
0.287319
11
0.59563
21
0.295
0
LINE
8
BLACK
6
CONTINUOUS
10
0.59563
20
0.295
11
0.596386
21
0.302681
0
LINE
8
BLACK
6
CONTINUOUS
10
0.596386
20
0.302681
11
0.598627
21
0.310066
0
LINE
8
BLACK
6
CONTINUOUS
10
0.598627
20
0.310066
11
0.602265
21
0.316873
0
LINE
8
BLACK
6
CONTINUOUS
10
0.602265
20
0.316873
11
0.607161
21
0.322839
0
LINE
8
BLACK
6
CONTINUOUS
10
0.607161
20
0.322839
11
0.613127
21
0.327735
0
LINE
8
BLACK
6
CONTINUOUS
10
0.613127
20
0.327735
11
0.619934
21
0.331373
0
LINE
8
BLACK
6
CONTINUOUS
10
0.619934
20
0.331373
11
0.627319
21
0.333614
0
LINE
8
BLACK
6
CONTINUOUS
10
0.627319
20
0.333614
11
0.635
21
0.33437
0
LINE
8
BLACK
6
CONTINUOUS
10
0.635
20
0.33437
11
0.642681
21
0.333614
0
LINE
8
BLACK
6
CONTINUOUS
10
0.42051
20
0.516316
11
0.433874
21
0.513148
0
LINE
8
BLACK
6
CONTINUOUS
10
0.433874
20
0.513148
11
0.446781
21
0.508451
0
LINE
8
BLACK
6
CONTINUOUS
10
0.446781
20
0.508451
11
0.459055
21
0.502286
0
LINE
8
BLACK
6
CONTINUOUS
10
0.459055
20
0.502286
11
0.470531
21
0.494739
0
LINE
8
BLACK
6
CONTINUOUS
10
0.470531
20
0.494739
11
0.481052
21
0.48591
0
LINE
8
BLACK
6
CONTINUOUS
10
0.481052
20
0.48591
11
0.490478
21
0.47592
0
LINE
8
BLACK
6
CONTINUOUS
10
0.490478
20
0.47592
11
0.49868
21
0.464903
0
LINE
8
BLACK
6
CONTINUOUS
10
0.49868
20
0.464903
11
0.505547
21
0.453008
0
LINE
8
BLACK
6
CONTINUOUS
10
0.505547
20
0.453008
11
0.510987
21
0.440396
0
LINE
8
BLACK
6
CONTINUOUS
10
0.510987
20
0.440396
11
0.514927
21
0.427238
0
LINE
8
BLACK
6
CONTINUOUS
10
0.514927
20
0.427238
11
0.517312
21
0.413712
0
LINE
8
BLACK
6
CONTINUOUS
10
0.517312
20
0.413712
11
0.51811
21
0.4
0
LINE
8
BLACK
6
CONTINUOUS
10
0.51811
20
0.4
11
0.517312
21
0.386288
0
LINE
8
BLACK
6
CONTINUOUS
10
0.517312
20
0.386288
11
0.514927
21
0.372762
0
LINE
8
BLACK
6
CONTINUOUS
10
0.514927
20
0.372762
11
0.510987
21
0.359604
0
LINE
8
BLACK
6
CONTINUOUS
10
0.510987
20
0.359604
11
0.505547
21
0.346992
0
LINE
8
BLACK
6
CONTINUOUS
10
0.505547
20
0.346992
11
0.49868
21
0.335097
0
LINE
8
BLACK
6
CONTINUOUS
10
0.49868
20
0.335097
11
0.490478
21
0.32408
0
LINE
8
BLACK
6
CONTINUOUS
10
0.490478
20
0.32408
11
0.481052
21
0.31409
0
LINE
8
BLACK
6
CONTINUOUS
10
0.481052
20
0.31409
11
0.470531
21
0.305261
0
LINE
8
BLACK
6
CONTINUOUS
10
0.470531
20
0.305261
11
0.459055
21
0.297714
0
LINE
8
BLACK
6
CONTINUOUS
10
0.459055
20
0.297714
11
0.446781
21
0.291549
0
LINE
8
BLACK
6
CONTINUOUS
10
0.446781
20
0.291549
11
0.433874
21
0.286852
0
LINE
8
BLACK
6
CONTINUOUS
10
0.433874
20
0.286852
11
0.42051
21
0.283684
0
LINE
8
BLACK
6
CONTINUOUS
10
0.42051
20
0.283684
11
0.406867
21
0.28209
0
LINE
8
BLACK
6
CONTINUOUS
10
0.406867
20
0.28209
11
0.393133
21
0.28209
0
LINE
8
BLACK
6
CONTINUOUS
10
0.393133
20
0.28209
11
0.37949
21
0.283684
0
LINE
8
BLACK
6
CONTINUOUS
10
0.37949
20
0.283684
11
0.366126
21
0.286852
0
LINE
8
BLACK
6
CONTINUOUS
10
0.366126
20
0.286852
11
0.353219
21
0.291549
0
LINE
8
BLACK
6
CONTINUOUS
10
0.353219
20
0.291549
11
0.340945
21
0.297714
0
LINE
8
BLACK
6
CONTINUOUS
10
0.340945
20
0.297714
11
0.329469
21
0.305261
0
LINE
8
BLACK
6
CONTINUOUS
10
0.329469
20
0.305261
11
0.318948
21
0.31409
0
LINE
8
BLACK
6
CONTINUOUS
10
0.318948
20
0.31409
11
0.309522
21
0.32408
0
LINE
8
BLACK
6
CONTINUOUS
10
0.309522
20
0.32408
11
0.30132
21
0.335097
0
LINE
8
BLACK
6
CONTINUOUS
10
0.30132
20
0.335097
11
0.294453
21
0.346992
0
LINE
8
BLACK
6
CONTINUOUS
10
0.294453
20
0.346992
11
0.289013
21
0.359604
0
LINE
8
BLACK
6
CONTINUOUS
10
0.289013
20
0.359604
11
0.285073
21
0.372762
0
LINE
8
BLACK
6
CONTINUOUS
10
0.285073
20
0.372762
11
0.282688
21
0.386288
0
LINE
8
BLACK
6
CONTINUOUS
10
0.282688
20
0.386288
11
0.28189
21
0.4
0
LINE
8
BLACK
6
CONTINUOUS
10
0.28189
20
0.4
11
0.282688
21
0.413712
0
LINE
8
BLACK
6
CONTINUOUS
10
0.282688
20
0.413712
11
0.285073
21
0.427238
0
LINE
8
BLACK
6
CONTINUOUS
10
0.285073
20
0.427238
11
0.289013
21
0.440396
0
LINE
8
BLACK
6
CONTINUOUS
10
0.289013
20
0.440396
11
0.294453
21
0.453008
0
LINE
8
BLACK
6
CONTINUOUS
10
0.294453
20
0.453008
11
0.30132
21
0.464903
0
LINE
8
BLACK
6
CONTINUOUS
10
0.30132
20
0.464903
11
0.309522
21
0.47592
0
LINE
8
BLACK
6
CONTINUOUS
10
0.309522
20
0.47592
11
0.318948
21
0.48591
0
LINE
8
BLACK
6
CONTINUOUS
10
0.318948
20
0.48591
11
0.329469
21
0.494739
0
LINE
8
BLACK
6
CONTINUOUS
10
0.329469
20
0.494739
11
0.340945
21
0.502286
0
LINE
8
BLACK
6
CONTINUOUS
10
0.340945
20
0.502286
11
0.353219
21
0.508451
0
LINE
8
BLACK
6
CONTINUOUS
10
0.353219
20
0.508451
11
0.366126
21
0.513148
0
LINE
8
BLACK
6
CONTINUOUS
10
0.366126
20
0.513148
11
0.37949
21
0.516316
0
LINE
8
BLACK
6
CONTINUOUS
10
0.37949
20
0.516316
11
0.393133
21
0.51791
0
LINE
8
BLACK
6
CONTINUOUS
10
0.393133
20
0.51791
11
0.406867
21
0.51791
0
LINE
8
BLACK
6
CONTINUOUS
10
0.406867
20
0.51791
11
0.42051
21
0.516316
0
LINE
8
BLACK
6
CONTINUOUS
10
2.42051
20
0.516316
11
2.43387
21
0.513148
0
LINE
8
BLACK
6
CONTINUOUS
10
2.43387
20
0.513148
11
2.44678
21
0.508451
0
LINE
8
BLACK
6
CONTINUOUS
10
2.44678
20
0.508451
11
2.45906
21
0.502286
0
LINE
8
BLACK
6
CONTINUOUS
10
2.45906
20
0.502286
11
2.47053
21
0.494739
0
LINE
8
BLACK
6
CONTINUOUS
10
2.47053
20
0.494739
11
2.48105
21
0.48591
0
LINE
8
BLACK
6
CONTINUOUS
10
2.48105
20
0.48591
11
2.49048
21
0.47592
0
LINE
8
BLACK
6
CONTINUOUS
10
2.49048
20
0.47592
11
2.49868
21
0.464903
0
LINE
8
BLACK
6
CONTINUOUS
10
2.49868
20
0.464903
11
2.50555
21
0.453008
0
LINE
8
BLACK
6
CONTINUOUS
10
2.50555
20
0.453008
11
2.51099
21
0.440396
0
LINE
8
BLACK
6
CONTINUOUS
10
2.51099
20
0.440396
11
2.51493
21
0.427238
0
LINE
8
BLACK
6
CONTINUOUS
10
2.51493
20
0.427238
11
2.51731
21
0.413712
0
LINE
8
BLACK
6
CONTINUOUS
10
2.51731
20
0.413712
11
2.51811
21
0.4
0
LINE
8
BLACK
6
CONTINUOUS
10
2.51811
20
0.4
11
2.51731
21
0.386288
0
LINE
8
BLACK
6
CONTINUOUS
10
2.51731
20
0.386288
11
2.51493
21
0.372762
0
LINE
8
BLACK
6
CONTINUOUS
10
2.51493
20
0.372762
11
2.51099
21
0.359604
0
LINE
8
BLACK
6
CONTINUOUS
10
2.51099
20
0.359604
11
2.50555
21
0.346992
0
LINE
8
BLACK
6
CONTINUOUS
10
2.50555
20
0.346992
11
2.49868
21
0.335097
0
LINE
8
BLACK
6
CONTINUOUS
10
2.49868
20
0.335097
11
2.49048
21
0.32408
0
LINE
8
BLACK
6
CONTINUOUS
10
2.49048
20
0.32408
11
2.48105
21
0.31409
0
LINE
8
BLACK
6
CONTINUOUS
10
2.48105
20
0.31409
11
2.47053
21
0.305261
0
LINE
8
BLACK
6
CONTINUOUS
10
2.47053
20
0.305261
11
2.45906
21
0.297714
0
LINE
8
BLACK
6
CONTINUOUS
10
2.45906
20
0.297714
11
2.44678
21
0.291549
0
LINE
8
BLACK
6
CONTINUOUS
10
2.44678
20
0.291549
11
2.43387
21
0.286852
0
LINE
8
BLACK
6
CONTINUOUS
10
2.43387
20
0.286852
11
2.42051
21
0.283684
0
LINE
8
BLACK
6
CONTINUOUS
10
2.42051
20
0.283684
11
2.40687
21
0.28209
0
LINE
8
BLACK
6
CONTINUOUS
10
2.40687
20
0.28209
11
2.39313
21
0.28209
0
LINE
8
BLACK
6
CONTINUOUS
10
2.39313
20
0.28209
11
2.37949
21
0.283684
0
LINE
8
BLACK
6
CONTINUOUS
10
2.37949
20
0.283684
11
2.36613
21
0.286852
0
LINE
8
BLACK
6
CONTINUOUS
10
2.36613
20
0.286852
11
2.35322
21
0.291549
0
LINE
8
BLACK
6
CONTINUOUS
10
2.35322
20
0.291549
11
2.34094
21
0.297714
0
LINE
8
BLACK
6
CONTINUOUS
10
2.34094
20
0.297714
11
2.32947
21
0.305261
0
LINE
8
BLACK
6
CONTINUOUS
10
2.32947
20
0.305261
11
2.31895
21
0.31409
0
LINE
8
BLACK
6
CONTINUOUS
10
2.31895
20
0.31409
11
2.30952
21
0.32408
0
LINE
8
BLACK
6
CONTINUOUS
10
2.30952
20
0.32408
11
2.30132
21
0.335097
0
LINE
8
BLACK
6
CONTINUOUS
10
2.30132
20
0.335097
11
2.29445
21
0.346992
0
LINE
8
BLACK
6
CONTINUOUS
10
2.29445
20
0.346992
11
2.28901
21
0.359604
0
LINE
8
BLACK
6
CONTINUOUS
10
2.28901
20
0.359604
11
2.28507
21
0.372762
0
LINE
8
BLACK
6
CONTINUOUS
10
2.28507
20
0.372762
11
2.28269
21
0.386288
0
LINE
8
BLACK
6
CONTINUOUS
10
2.28269
20
0.386288
11
2.28189
21
0.4
0
LINE
8
BLACK
6
CONTINUOUS
10
2.28189
20
0.4
11
2.28269
21
0.413712
0
LINE
8
BLACK
6
CONTINUOUS
10
2.28269
20
0.413712
11
2.28507
21
0.427238
0
LINE
8
BLACK
6
CONTINUOUS
10
2.28507
20
0.427238
11
2.28901
21
0.440396
0
LINE
8
BLACK
6
CONTINUOUS
10
2.28901
20
0.440396
11
2.29445
21
0.453008
0
LINE
8
BLACK
6
CONTINUOUS
10
2.29445
20
0.453008
11
2.30132
21
0.464903
0
LINE
8
BLACK
6
CONTINUOUS
10
2.30132
20
0.464903
11
2.30952
21
0.47592
0
LINE
8
BLACK
6
CONTINUOUS
10
2.30952
20
0.47592
11
2.31895
21
0.48591
0
LINE
8
BLACK
6
CONTINUOUS
10
2.31895
20
0.48591
11
2.32947
21
0.494739
0
LINE
8
BLACK
6
CONTINUOUS
10
2.32947
20
0.494739
11
2.34094
21
0.502286
0
LINE
8
BLACK
6
CONTINUOUS
10
2.34094
20
0.502286
11
2.35322
21
0.508451
0
LINE
8
BLACK
6
CONTINUOUS
10
2.35322
20
0.508451
11
2.36613
21
0.513148
0
LINE
8
BLACK
6
CONTINUOUS
10
2.36613
20
0.513148
11
2.37949
21
0.516316
0
LINE
8
BLACK
6
CONTINUOUS
10
2.37949
20
0.516316
11
2.39313
21
0.51791
0
LINE
8
BLACK
6
CONTINUOUS
10
2.39313
20
0.51791
11
2.40687
21
0.51791
0
LINE
8
BLACK
6
CONTINUOUS
10
2.40687
20
0.51791
11
2.42051
21
0.516316
0
LINE
8
BLACK
6
CONTINUOUS
10
-0.158792
20
0.372794
11
-0.155599
21
0.370661
0
LINE
8
BLACK
6
CONTINUOUS
10
-0.155599
20
0.370661
11
-0.153466
21
0.367467
0
LINE
8
BLACK
6
CONTINUOUS
10
-0.153466
20
0.367467
11
-0.152717
21
0.363701
0
LINE
8
BLACK
6
CONTINUOUS
10
-0.152717
20
0.363701
11
-0.152717
21
0.326299
0
LINE
8
BLACK
6
CONTINUOUS
10
-0.152717
20
0.326299
11
-0.153466
21
0.322533
0
LINE
8
BLACK
6
CONTINUOUS
10
-0.153466
20
0.322533
11
-0.155599
21
0.319339
0
LINE
8
BLACK
6
CONTINUOUS
10
-0.155599
20
0.319339
11
-0.158792
21
0.317206
0
LINE
8
BLACK
6
CONTINUOUS
10
-0.158792
20
0.317206
11
-0.162559
21
0.316457
0
LINE
8
BLACK
6
CONTINUOUS
10
-0.162559
20
0.316457
11
-0.182244
21
0.316457
0
LINE
8
BLACK
6
CONTINUOUS
10
-0.182244
20
0.316457
11
-0.186011
21
0.317206
0
LINE
8
BLACK
6
CONTINUOUS
10
-0.186011
20
0.317206
11
-0.189204
21
0.319339
0
LINE
8
BLACK
6
CONTINUOUS
10
-0.189204
20
0.319339
11
-0.191337
21
0.322533
0
LINE
8
BLACK
6
CONTINUOUS
10
-0.191337
20
0.322533
11
-0.192087
21
0.326299
0
LINE
8
BLACK
6
CONTINUOUS
10
-0.192087
20
0.326299
11
-0.192087
21
0.363701
0
LINE
8
BLACK
6
CONTINUOUS
10
-0.192087
20
0.363701
11
-0.191337
21
0.367467
0
LINE
8
BLACK
6
CONTINUOUS
10
-0.191337
20
0.367467
11
-0.189204
21
0.370661
0
LINE
8
BLACK
6
CONTINUOUS
10
-0.189204
20
0.370661
11
-0.186011
21
0.372794
0
LINE
8
BLACK
6
CONTINUOUS
10
-0.186011
20
0.372794
11
-0.182244
21
0.373543
0
LINE
8
BLACK
6
CONTINUOUS
10
-0.182244
20
0.373543
11
-0.162559
21
0.373543
0
LINE
8
BLACK
6
CONTINUOUS
10
-0.162559
20
0.373543
11
-0.158792
21
0.372794
0
LINE
8
BLACK
6
CONTINUOUS
10
-0.0839893
20
0.372794
11
-0.0807962
21
0.370661
0
LINE
8
BLACK
6
CONTINUOUS
10
-0.0807962
20
0.370661
11
-0.0786626
21
0.367467
0
LINE
8
BLACK
6
CONTINUOUS
10
-0.0786626
20
0.367467
11
-0.0779134
21
0.363701
0
LINE
8
BLACK
6
CONTINUOUS
10
-0.0779134
20
0.363701
11
-0.0779134
21
0.326299
0
LINE
8
BLACK
6
CONTINUOUS
10
-0.0779134
20
0.326299
11
-0.0786626
21
0.322533
0
LINE
8
BLACK
6
CONTINUOUS
10
-0.0786626
20
0.322533
11
-0.0807962
21
0.319339
0
LINE
8
BLACK
6
CONTINUOUS
10
-0.0807962
20
0.319339
11
-0.0839893
21
0.317206
0
LINE
8
BLACK
6
CONTINUOUS
10
-0.0839893
20
0.317206
11
-0.0877559
21
0.316457
0
LINE
8
BLACK
6
CONTINUOUS
10
-0.0877559
20
0.316457
11
-0.107441
21
0.316457
0
LINE
8
BLACK
6
CONTINUOUS
10
-0.107441
20
0.316457
11
-0.111208
21
0.317206
0
LINE
8
BLACK
6
CONTINUOUS
10
-0.111208
20
0.317206
11
-0.114401
21
0.319339
0
LINE
8
BLACK
6
CONTINUOUS
10
-0.114401
20
0.319339
11
-0.116534
21
0.322533
0
LINE
8
BLACK
6
CONTINUOUS
10
-0.116534
20
0.322533
11
-0.117283
21
0.326299
0
LINE
8
BLACK
6
CONTINUOUS
10
-0.117283
20
0.326299
11
-0.117283
21
0.363701
0
LINE
8
BLACK
6
CONTINUOUS
10
-0.117283
20
0.363701
11
-0.116534
21
0.367467
0
LINE
8
BLACK
6
CONTINUOUS
10
-0.116534
20
0.367467
11
-0.114401
21
0.370661
0
LINE
8
BLACK
6
CONTINUOUS
10
-0.114401
20
0.370661
11
-0.111208
21
0.372794
0
LINE
8
BLACK
6
CONTINUOUS
10
-0.111208
20
0.372794
11
-0.107441
21
0.373543
0
LINE
8
BLACK
6
CONTINUOUS
10
-0.107441
20
0.373543
11
-0.0877559
21
0.373543
0
LINE
8
BLACK
6
CONTINUOUS
10
-0.0877559
20
0.373543
11
-0.0839893
21
0.372794
0
LINE
8
BLACK
6
CONTINUOUS
10
0.884252
20
0.393701
11
0.884252
21
0.354331
0
LINE
8
BLACK
6
CONTINUOUS
10
0.884252
20
0.354331
11
0.793701
21
0.354331
0
LINE
8
BLACK
6
CONTINUOUS
10
0.793701
20
0.354331
11
0.754331
21
0.354331
0
LINE
8
BLACK
6
CONTINUOUS
10
0.754331
20
0.354331
11
0.754331
21
0.393701
0
LINE
8
BLACK
6
CONTINUOUS
10
0.754331
20
0.393701
11
0.754331
21
0.484252
0
LINE
8
BLACK
6
CONTINUOUS
10
0.754331
20
0.484252
11
0.793701
21
0.484252
0
LINE
8
BLACK
6
CONTINUOUS
10
0.793701
20
0.484252
11
0.793701
21
0.393701
0
LINE
8
BLACK
6
CONTINUOUS
10
0.793701
20
0.393701
11
0.884252
21
0.393701
0
LINE
8
BLACK
6
CONTINUOUS
10
1.12047
20
0.354331
11
0.970866
21
0.354331
0
LINE
8
BLACK
6
CONTINUOUS
10
0.970866
20
0.354331
11
0.970866
21
0.393701
0
LINE
8
BLACK
6
CONTINUOUS
10
0.970866
20
0.393701
11
1.12047
21
0.393701
0
LINE
8
BLACK
6
CONTINUOUS
10
1.12047
20
0.393701
11
1.12047
21
0.354331
0
LINE
8
BLACK
6
CONTINUOUS
10
1.35669
20
0.354331
11
1.20709
21
0.354331
0
LINE
8
BLACK
6
CONTINUOUS
10
1.20709
20
0.354331
11
1.20709
21
0.393701
0
LINE
8
BLACK
6
CONTINUOUS
10
1.20709
20
0.393701
11
1.35669
21
0.393701
0
LINE
8
BLACK
6
CONTINUOUS
10
1.35669
20
0.393701
11
1.35669
21
0.354331
0
LINE
8
BLACK
6
CONTINUOUS
10
1.59291
20
0.354331
11
1.44331
21
0.354331
0
LINE
8
BLACK
6
CONTINUOUS
10
1.44331
20
0.354331
11
1.44331
21
0.393701
0
LINE
8
BLACK
6
CONTINUOUS
10
1.44331
20
0.393701
11
1.59291
21
0.393701
0
LINE
8
BLACK
6
CONTINUOUS
10
1.59291
20
0.393701
11
1.59291
21
0.354331
0
LINE
8
BLACK
6
CONTINUOUS
10
1.82913
20
0.354331
11
1.67953
21
0.354331
0
LINE
8
BLACK
6
CONTINUOUS
10
1.67953
20
0.354331
11
1.67953
21
0.393701
0
LINE
8
BLACK
6
CONTINUOUS
10
1.67953
20
0.393701
11
1.82913
21
0.393701
0
LINE
8
BLACK
6
CONTINUOUS
10
1.82913
20
0.393701
11
1.82913
21
0.354331
0
LINE
8
BLACK
6
CONTINUOUS
10
2.0063
20
0.393701
11
2.0063
21
0.484252
0
LINE
8
BLACK
6
CONTINUOUS
10
2.0063
20
0.484252
11
2.04567
21
0.484252
0
LINE
8
BLACK
6
CONTINUOUS
10
2.04567
20
0.484252
11
2.04567
21
0.393701
0
LINE
8
BLACK
6
CONTINUOUS
10
2.04567
20
0.393701
11
2.04567
21
0.354331
0
LINE
8
BLACK
6
CONTINUOUS
10
2.04567
20
0.354331
11
2.0063
21
0.354331
0
LINE
8
BLACK
6
CONTINUOUS
10
2.0063
20
0.354331
11
1.91575
21
0.354331
0
LINE
8
BLACK
6
CONTINUOUS
10
1.91575
20
0.354331
11
1.91575
21
0.393701
0
LINE
8
BLACK
6
CONTINUOUS
10
1.91575
20
0.393701
11
2.0063
21
0.393701
0
LINE
8
BLACK
6
CONTINUOUS
10
1.0023
20
0.47896
11
1.00422
21
0.47768
0
LINE
8
BLACK
6
CONTINUOUS
10
1.00422
20
0.47768
11
1.0055
21
0.475764
0
LINE
8
BLACK
6
CONTINUOUS
10
1.0055
20
0.475764
11
1.00594
21
0.473504
0
LINE
8
BLACK
6
CONTINUOUS
10
1.00594
20
0.473504
11
1.00594
21
0.461693
0
LINE
8
BLACK
6
CONTINUOUS
10
1.00594
20
0.461693
11
1.0055
21
0.459433
0
LINE
8
BLACK
6
CONTINUOUS
10
1.0055
20
0.459433
11
1.00422
21
0.457517
0
LINE
8
BLACK
6
CONTINUOUS
10
1.00422
20
0.457517
11
1.0023
21
0.456237
0
LINE
8
BLACK
6
CONTINUOUS
10
1.0023
20
0.456237
11
1.00004
21
0.455787
0
LINE
8
BLACK
6
CONTINUOUS
10
1.00004
20
0.455787
11
0.95378
21
0.455787
0
LINE
8
BLACK
6
CONTINUOUS
10
0.95378
20
0.455787
11
0.95152
21
0.456237
0
LINE
8
BLACK
6
CONTINUOUS
10
0.95152
20
0.456237
11
0.949604
21
0.457517
0
LINE
8
BLACK
6
CONTINUOUS
10
0.949604
20
0.457517
11
0.948324
21
0.459433
0
LINE
8
BLACK
6
CONTINUOUS
10
0.948324
20
0.459433
11
0.947874
21
0.461693
0
LINE
8
BLACK
6
CONTINUOUS
10
0.947874
20
0.461693
11
0.947874
21
0.473504
0
LINE
8
BLACK
6
CONTINUOUS
10
0.947874
20
0.473504
11
0.948324
21
0.475764
0
LINE
8
BLACK
6
CONTINUOUS
10
0.948324
20
0.475764
11
0.949604
21
0.47768
0
LINE
8
BLACK
6
CONTINUOUS
10
0.949604
20
0.47768
11
0.95152
21
0.47896
0
LINE
8
BLACK
6
CONTINUOUS
10
0.95152
20
0.47896
11
0.95378
21
0.479409
0
LINE
8
BLACK
6
CONTINUOUS
10
0.95378
20
0.479409
11
1.00004
21
0.479409
0
LINE
8
BLACK
6
CONTINUOUS
10
1.00004
20
0.479409
11
1.0023
21
0.47896
0
LINE
8
BLACK
6
CONTINUOUS
10
0.92848
20
0.516361
11
0.930396
21
0.515081
0
LINE
8
BLACK
6
CONTINUOUS
10
0.930396
20
0.515081
11
0.931676
21
0.513165
0
LINE
8
BLACK
6
CONTINUOUS
10
0.931676
20
0.513165
11
0.932126
21
0.510906
0
LINE
8
BLACK
6
CONTINUOUS
10
0.932126
20
0.510906
11
0.932126
21
0.499094
0
LINE
8
BLACK
6
CONTINUOUS
10
0.932126
20
0.499094
11
0.931676
21
0.496835
0
LINE
8
BLACK
6
CONTINUOUS
10
0.931676
20
0.496835
11
0.930396
21
0.494919
0
LINE
8
BLACK
6
CONTINUOUS
10
0.930396
20
0.494919
11
0.92848
21
0.493639
0
LINE
8
BLACK
6
CONTINUOUS
10
0.92848
20
0.493639
11
0.92622
21
0.493189
0
LINE
8
BLACK
6
CONTINUOUS
10
0.92622
20
0.493189
11
0.879961
21
0.493189
0
LINE
8
BLACK
6
CONTINUOUS
10
0.879961
20
0.493189
11
0.877701
21
0.493639
0
LINE
8
BLACK
6
CONTINUOUS
10
0.877701
20
0.493639
11
0.875785
21
0.494919
0
LINE
8
BLACK
6
CONTINUOUS
10
0.875785
20
0.494919
11
0.874505
21
0.496835
0
LINE
8
BLACK
6
CONTINUOUS
10
0.874505
20
0.496835
11
0.874055
21
0.499094
0
LINE
8
BLACK
6
CONTINUOUS
10
0.874055
20
0.499094
11
0.874055
21
0.510906
0
LINE
8
BLACK
6
CONTINUOUS
10
0.874055
20
0.510906
11
0.874505
21
0.513165
0
LINE
8
BLACK
6
CONTINUOUS
10
0.874505
20
0.513165
11
0.875785
21
0.515081
0
LINE
8
BLACK
6
CONTINUOUS
10
0.875785
20
0.515081
11
0.877701
21
0.516361
0
LINE
8
BLACK
6
CONTINUOUS
10
0.877701
20
0.516361
11
0.879961
21
0.516811
0
LINE
8
BLACK
6
CONTINUOUS
10
0.879961
20
0.516811
11
0.92622
21
0.516811
0
LINE
8
BLACK
6
CONTINUOUS
10
0.92622
20
0.516811
11
0.92848
21
0.516361
0
LINE
8
BLACK
6
CONTINUOUS
10
1.0023
20
0.553763
11
1.00422
21
0.552483
0
LINE
8
BLACK
6
CONTINUOUS
10
1.00422
20
0.552483
11
1.0055
21
0.550567
0
LINE
8
BLACK
6
CONTINUOUS
10
1.0055
20
0.550567
11
1.00594
21
0.548307
0
LINE
8
BLACK
6
CONTINUOUS
10
1.00594
20
0.548307
11
1.00594
21
0.536496
0
LINE
8
BLACK
6
CONTINUOUS
10
1.00594
20
0.536496
11
1.0055
21
0.534236
0
LINE
8
BLACK
6
CONTINUOUS
10
1.0055
20
0.534236
11
1.00422
21
0.53232
0
LINE
8
BLACK
6
CONTINUOUS
10
1.00422
20
0.53232
11
1.0023
21
0.53104
0
LINE
8
BLACK
6
CONTINUOUS
10
1.0023
20
0.53104
11
1.00004
21
0.530591
0
LINE
8
BLACK
6
CONTINUOUS
10
1.00004
20
0.530591
11
0.95378
21
0.530591
0
LINE
8
BLACK
6
CONTINUOUS
10
0.95378
20
0.530591
11
0.95152
21
0.53104
0
LINE
8
BLACK
6
CONTINUOUS
10
0.95152
20
0.53104
11
0.949604
21
0.53232
0
LINE
8
BLACK
6
CONTINUOUS
10
0.949604
20
0.53232
11
0.948324
21
0.534236
0
LINE
8
BLACK
6
CONTINUOUS
10
0.948324
20
0.534236
11
0.947874
21
0.536496
0
LINE
8
BLACK
6
CONTINUOUS
10
0.947874
20
0.536496
11
0.947874
21
0.548307
0
LINE
8
BLACK
6
CONTINUOUS
10
0.947874
20
0.548307
11
0.948324
21
0.550567
0
LINE
8
BLACK
6
CONTINUOUS
10
0.948324
20
0.550567
11
0.949604
21
0.552483
0
LINE
8
BLACK
6
CONTINUOUS
10
0.949604
20
0.552483
11
0.95152
21
0.553763
0
LINE
8
BLACK
6
CONTINUOUS
10
0.95152
20
0.553763
11
0.95378
21
0.554213
0
LINE
8
BLACK
6
CONTINUOUS
10
0.95378
20
0.554213
11
1.00004
21
0.554213
0
LINE
8
BLACK
6
CONTINUOUS
10
1.00004
20
0.554213
11
1.0023
21
0.553763
0
LINE
8
BLACK
6
CONTINUOUS
10
1.30825
20
0.596177
11
1.31459
21
0.593958
0
LINE
8
BLACK
6
CONTINUOUS
10
1.31459
20
0.593958
11
1.32028
21
0.590384
0
LINE
8
BLACK
6
CONTINUOUS
10
1.32028
20
0.590384
11
1.32503
21
0.585634
0
LINE
8
BLACK
6
CONTINUOUS
10
1.32503
20
0.585634
11
1.3286
21
0.579946
0
LINE
8
BLACK
6
CONTINUOUS
10
1.3286
20
0.579946
11
1.33082
21
0.573605
0
LINE
8
BLACK
6
CONTINUOUS
10
1.33082
20
0.573605
11
1.33157
21
0.566929
0
LINE
8
BLACK
6
CONTINUOUS
10
1.33157
20
0.566929
11
1.33082
21
0.560254
0
LINE
8
BLACK
6
CONTINUOUS
10
1.33082
20
0.560254
11
1.3286
21
0.553913
0
LINE
8
BLACK
6
CONTINUOUS
10
1.3286
20
0.553913
11
1.32503
21
0.548224
0
LINE
8
BLACK
6
CONTINUOUS
10
1.32503
20
0.548224
11
1.32028
21
0.543474
0
LINE
8
BLACK
6
CONTINUOUS
10
1.32028
20
0.543474
11
1.31459
21
0.5399
0
LINE
8
BLACK
6
CONTINUOUS
10
1.31459
20
0.5399
11
1.30825
21
0.537681
0
LINE
8
BLACK
6
CONTINUOUS
10
1.30825
20
0.537681
11
1.30157
21
0.536929
0
LINE
8
BLACK
6
CONTINUOUS
10
1.30157
20
0.536929
11
1.2949
21
0.537681
0
LINE
8
BLACK
6
CONTINUOUS
10
1.2949
20
0.537681
11
1.28856
21
0.5399
0
LINE
8
BLACK
6
CONTINUOUS
10
1.28856
20
0.5399
11
1.28287
21
0.543474
0
LINE
8
BLACK
6
CONTINUOUS
10
1.28287
20
0.543474
11
1.27812
21
0.548224
0
LINE
8
BLACK
6
CONTINUOUS
10
1.27812
20
0.548224
11
1.27455
21
0.553913
0
LINE
8
BLACK
6
CONTINUOUS
10
1.27455
20
0.553913
11
1.27233
21
0.560254
0
LINE
8
BLACK
6
CONTINUOUS
10
1.27233
20
0.560254
11
1.27157
21
0.566929
0
LINE
8
BLACK
6
CONTINUOUS
10
1.27157
20
0.566929
11
1.27233
21
0.573605
0
LINE
8
BLACK
6
CONTINUOUS
10
1.27233
20
0.573605
11
1.27455
21
0.579946
0
LINE
8
BLACK
6
CONTINUOUS
10
1.27455
20
0.579946
11
1.27812
21
0.585634
0
LINE
8
BLACK
6
CONTINUOUS
10
1.27812
20
0.585634
11
1.28287
21
0.590384
0
LINE
8
BLACK
6
CONTINUOUS
10
1.28287
20
0.590384
11
1.28856
21
0.593958
0
LINE
8
BLACK
6
CONTINUOUS
10
1.28856
20
0.593958
11
1.2949
21
0.596177
0
LINE
8
BLACK
6
CONTINUOUS
10
1.2949
20
0.596177
11
1.30157
21
0.596929
0
LINE
8
BLACK
6
CONTINUOUS
10
1.30157
20
0.596929
11
1.30825
21
0.596177
0
LINE
8
BLACK
6
CONTINUOUS
10
1.5051
20
0.596177
11
1.51144
21
0.593958
0
LINE
8
BLACK
6
CONTINUOUS
10
1.51144
20
0.593958
11
1.51713
21
0.590384
0
LINE
8
BLACK
6
CONTINUOUS
10
1.51713
20
0.590384
11
1.52188
21
0.585634
0
LINE
8
BLACK
6
CONTINUOUS
10
1.52188
20
0.585634
11
1.52545
21
0.579946
0
LINE
8
BLACK
6
CONTINUOUS
10
1.52545
20
0.579946
11
1.52767
21
0.573605
0
LINE
8
BLACK
6
CONTINUOUS
10
1.52767
20
0.573605
11
1.52843
21
0.566929
0
LINE
8
BLACK
6
CONTINUOUS
10
1.52843
20
0.566929
11
1.52767
21
0.560254
0
LINE
8
BLACK
6
CONTINUOUS
10
1.52767
20
0.560254
11
1.52545
21
0.553913
0
LINE
8
BLACK
6
CONTINUOUS
10
1.52545
20
0.553913
11
1.52188
21
0.548224
0
LINE
8
BLACK
6
CONTINUOUS
10
1.52188
20
0.548224
11
1.51713
21
0.543474
0
LINE
8
BLACK
6
CONTINUOUS
10
1.51713
20
0.543474
11
1.51144
21
0.5399
0
LINE
8
BLACK
6
CONTINUOUS
10
1.51144
20
0.5399
11
1.5051
21
0.537681
0
LINE
8
BLACK
6
CONTINUOUS
10
1.5051
20
0.537681
11
1.49843
21
0.536929
0
LINE
8
BLACK
6
CONTINUOUS
10
1.49843
20
0.536929
11
1.49175
21
0.537681
0
LINE
8
BLACK
6
CONTINUOUS
10
1.49175
20
0.537681
11
1.48541
21
0.5399
0
LINE
8
BLACK
6
CONTINUOUS
10
1.48541
20
0.5399
11
1.47972
21
0.543474
0
LINE
8
BLACK
6
CONTINUOUS
10
1.47972
20
0.543474
11
1.47497
21
0.548224
0
LINE
8
BLACK
6
CONTINUOUS
10
1.47497
20
0.548224
11
1.4714
21
0.553913
0
LINE
8
BLACK
6
CONTINUOUS
10
1.4714
20
0.553913
11
1.46918
21
0.560254
0
LINE
8
BLACK
6
CONTINUOUS
10
1.46918
20
0.560254
11
1.46843
21
0.566929
0
LINE
8
BLACK
6
CONTINUOUS
10
1.46843
20
0.566929
11
1.46918
21
0.573605
0
LINE
8
BLACK
6
CONTINUOUS
10
1.46918
20
0.573605
11
1.4714
21
0.579946
0
LINE
8
BLACK
6
CONTINUOUS
10
1.4714
20
0.579946
11
1.47497
21
0.585634
0
LINE
8
BLACK
6
CONTINUOUS
10
1.47497
20
0.585634
11
1.47972
21
0.590384
0
LINE
8
BLACK
6
CONTINUOUS
10
1.47972
20
0.590384
11
1.48541
21
0.593958
0
LINE
8
BLACK
6
CONTINUOUS
10
1.48541
20
0.593958
11
1.49175
21
0.596177
0
LINE
8
BLACK
6
CONTINUOUS
10
1.49175
20
0.596177
11
1.49843
21
0.596929
0
LINE
8
BLACK
6
CONTINUOUS
10
1.49843
20
0.596929
11
1.5051
21
0.596177
0
LINE
8
BLACK
6
CONTINUOUS
10
0.793701
20
0.570866
11
0.754331
21
0.570866
0
LINE
8
BLACK
6
CONTINUOUS
10
0.754331
20
0.570866
11
0.754331
21
0.720472
0
LINE
8
BLACK
6
CONTINUOUS
10
0.754331
20
0.720472
11
0.793701
21
0.720472
0
LINE
8
BLACK
6
CONTINUOUS
10
0.793701
20
0.720472
11
0.793701
21
0.570866
0
LINE
8
BLACK
6
CONTINUOUS
10
2.04567
20
0.570866
11
2.0063
21
0.570866
0
LINE
8
BLACK
6
CONTINUOUS
10
2.0063
20
0.570866
11
2.0063
21
0.720472
0
LINE
8
BLACK
6
CONTINUOUS
10
2.0063
20
0.720472
11
2.04567
21
0.720472
0
LINE
8
BLACK
6
CONTINUOUS
10
2.04567
20
0.720472
11
2.04567
21
0.570866
0
LINE
8
BLACK
6
CONTINUOUS
10
0.916736
20
0.628026
11
0.91961
21
0.626106
0
LINE
8
BLACK
6
CONTINUOUS
10
0.91961
20
0.626106
11
0.92153
21
0.623232
0
LINE
8
BLACK
6
CONTINUOUS
10
0.92153
20
0.623232
11
0.922205
21
0.619843
0
LINE
8
BLACK
6
CONTINUOUS
10
0.922205
20
0.619843
11
0.922205
21
0.600157
0
LINE
8
BLACK
6
CONTINUOUS
10
0.922205
20
0.600157
11
0.92153
21
0.596768
0
LINE
8
BLACK
6
CONTINUOUS
10
0.92153
20
0.596768
11
0.91961
21
0.593894
0
LINE
8
BLACK
6
CONTINUOUS
10
0.91961
20
0.593894
11
0.916736
21
0.591974
0
LINE
8
BLACK
6
CONTINUOUS
10
0.916736
20
0.591974
11
0.913346
21
0.591299
0
LINE
8
BLACK
6
CONTINUOUS
10
0.913346
20
0.591299
11
0.89563
21
0.591299
0
LINE
8
BLACK
6
CONTINUOUS
10
0.89563
20
0.591299
11
0.89224
21
0.591974
0
LINE
8
BLACK
6
CONTINUOUS
10
0.89224
20
0.591974
11
0.889366
21
0.593894
0
LINE
8
BLACK
6
CONTINUOUS
10
0.889366
20
0.593894
11
0.887446
21
0.596768
0
LINE
8
BLACK
6
CONTINUOUS
10
0.887446
20
0.596768
11
0.886772
21
0.600157
0
LINE
8
BLACK
6
CONTINUOUS
10
0.886772
20
0.600157
11
0.886772
21
0.619843
0
LINE
8
BLACK
6
CONTINUOUS
10
0.886772
20
0.619843
11
0.887446
21
0.623232
0
LINE
8
BLACK
6
CONTINUOUS
10
0.887446
20
0.623232
11
0.889366
21
0.626106
0
LINE
8
BLACK
6
CONTINUOUS
10
0.889366
20
0.626106
11
0.89224
21
0.628026
0
LINE
8
BLACK
6
CONTINUOUS
10
0.89224
20
0.628026
11
0.89563
21
0.628701
0
LINE
8
BLACK
6
CONTINUOUS
10
0.89563
20
0.628701
11
0.913346
21
0.628701
0
LINE
8
BLACK
6
CONTINUOUS
10
0.913346
20
0.628701
11
0.916736
21
0.628026
0
LINE
8
BLACK
6
CONTINUOUS
10
0.97776
20
0.628026
11
0.980634
21
0.626106
0
LINE
8
BLACK
6
CONTINUOUS
10
0.980634
20
0.626106
11
0.982554
21
0.623232
0
LINE
8
BLACK
6
CONTINUOUS
10
0.982554
20
0.623232
11
0.983228
21
0.619843
0
LINE
8
BLACK
6
CONTINUOUS
10
0.983228
20
0.619843
11
0.983228
21
0.600157
0
LINE
8
BLACK
6
CONTINUOUS
10
0.983228
20
0.600157
11
0.982554
21
0.596768
0
LINE
8
BLACK
6
CONTINUOUS
10
0.982554
20
0.596768
11
0.980634
21
0.593894
0
LINE
8
BLACK
6
CONTINUOUS
10
0.980634
20
0.593894
11
0.97776
21
0.591974
0
LINE
8
BLACK
6
CONTINUOUS
10
0.97776
20
0.591974
11
0.97437
21
0.591299
0
LINE
8
BLACK
6
CONTINUOUS
10
0.97437
20
0.591299
11
0.956654
21
0.591299
0
LINE
8
BLACK
6
CONTINUOUS
10
0.956654
20
0.591299
11
0.953264
21
0.591974
0
LINE
8
BLACK
6
CONTINUOUS
10
0.953264
20
0.591974
11
0.95039
21
0.593894
0
LINE
8
BLACK
6
CONTINUOUS
10
0.95039
20
0.593894
11
0.94847
21
0.596768
0
LINE
8
BLACK
6
CONTINUOUS
10
0.94847
20
0.596768
11
0.947795
21
0.600157
0
LINE
8
BLACK
6
CONTINUOUS
10
0.947795
20
0.600157
11
0.947795
21
0.619843
0
LINE
8
BLACK
6
CONTINUOUS
10
0.947795
20
0.619843
11
0.94847
21
0.623232
0
LINE
8
BLACK
6
CONTINUOUS
10
0.94847
20
0.623232
11
0.95039
21
0.626106
0
LINE
8
BLACK
6
CONTINUOUS
10
0.95039
20
0.626106
11
0.953264
21
0.628026
0
LINE
8
BLACK
6
CONTINUOUS
10
0.953264
20
0.628026
11
0.956654
21
0.628701
0
LINE
8
BLACK
6
CONTINUOUS
10
0.956654
20
0.628701
11
0.97437
21
0.628701
0
LINE
8
BLACK
6
CONTINUOUS
10
0.97437
20
0.628701
11
0.97776
21
0.628026
0
LINE
8
BLACK
6
CONTINUOUS
10
0.335
20
0.61
11
0.275
21
0.61
0
LINE
8
BLACK
6
CONTINUOUS
10
0.275
20
0.61
11
0.275
21
0.67
0
LINE
8
BLACK
6
CONTINUOUS
10
0.275
20
0.67
11
0.335
21
0.67
0
LINE
8
BLACK
6
CONTINUOUS
10
0.335
20
0.67
11
0.335
21
0.61
0
LINE
8
BLACK
6
CONTINUOUS
10
0.435
20
0.61
11
0.375
21
0.61
0
LINE
8
BLACK
6
CONTINUOUS
10
0.375
20
0.61
11
0.375
21
0.67
0
LINE
8
BLACK
6
CONTINUOUS
10
0.375
20
0.67
11
0.435
21
0.67
0
LINE
8
BLACK
6
CONTINUOUS
10
0.435
20
0.67
11
0.435
21
0.61
0
LINE
8
BLACK
6
CONTINUOUS
10
1.68384
20
0.642668
11
1.68639
21
0.640961
0
LINE
8
BLACK
6
CONTINUOUS
10
1.68639
20
0.640961
11
1.6881
21
0.638407
0
LINE
8
BLACK
6
CONTINUOUS
10
1.6881
20
0.638407
11
1.6887
21
0.635394
0
LINE
8
BLACK
6
CONTINUOUS
10
1.6887
20
0.635394
11
1.6887
21
0.619646
0
LINE
8
BLACK
6
CONTINUOUS
10
1.6887
20
0.619646
11
1.6881
21
0.616632
0
LINE
8
BLACK
6
CONTINUOUS
10
1.6881
20
0.616632
11
1.68639
21
0.614078
0
LINE
8
BLACK
6
CONTINUOUS
10
1.68639
20
0.614078
11
1.68384
21
0.612371
0
LINE
8
BLACK
6
CONTINUOUS
10
1.68384
20
0.612371
11
1.68083
21
0.611772
0
LINE
8
BLACK
6
CONTINUOUS
10
1.68083
20
0.611772
11
1.65917
21
0.611772
0
LINE
8
BLACK
6
CONTINUOUS
10
1.65917
20
0.611772
11
1.65616
21
0.612371
0
LINE
8
BLACK
6
CONTINUOUS
10
1.65616
20
0.612371
11
1.65361
21
0.614078
0
LINE
8
BLACK
6
CONTINUOUS
10
1.65361
20
0.614078
11
1.6519
21
0.616632
0
LINE
8
BLACK
6
CONTINUOUS
10
1.6519
20
0.616632
11
1.6513
21
0.619646
0
LINE
8
BLACK
6
CONTINUOUS
10
1.6513
20
0.619646
11
1.6513
21
0.635394
0
LINE
8
BLACK
6
CONTINUOUS
10
1.6513
20
0.635394
11
1.6519
21
0.638407
0
LINE
8
BLACK
6
CONTINUOUS
10
1.6519
20
0.638407
11
1.65361
21
0.640961
0
LINE
8
BLACK
6
CONTINUOUS
10
1.65361
20
0.640961
11
1.65616
21
0.642668
0
LINE
8
BLACK
6
CONTINUOUS
10
1.65616
20
0.642668
11
1.65917
21
0.643268
0
LINE
8
BLACK
6
CONTINUOUS
10
1.65917
20
0.643268
11
1.68083
21
0.643268
0
LINE
8
BLACK
6
CONTINUOUS
10
1.68083
20
0.643268
11
1.68384
21
0.642668
0
LINE
8
BLACK
6
CONTINUOUS
10
1.78833
20
0.672007
11
1.79153
21
0.669873
0
LINE
8
BLACK
6
CONTINUOUS
10
1.79153
20
0.669873
11
1.79366
21
0.66668
0
LINE
8
BLACK
6
CONTINUOUS
10
1.79366
20
0.66668
11
1.79441
21
0.662913
0
LINE
8
BLACK
6
CONTINUOUS
10
1.79441
20
0.662913
11
1.79441
21
0.629449
0
LINE
8
BLACK
6
CONTINUOUS
10
1.79441
20
0.629449
11
1.79366
21
0.625682
0
LINE
8
BLACK
6
CONTINUOUS
10
1.79366
20
0.625682
11
1.79153
21
0.622489
0
LINE
8
BLACK
6
CONTINUOUS
10
1.79153
20
0.622489
11
1.78833
21
0.620356
0
LINE
8
BLACK
6
CONTINUOUS
10
1.78833
20
0.620356
11
1.78457
21
0.619606
0
LINE
8
BLACK
6
CONTINUOUS
10
1.78457
20
0.619606
11
1.74913
21
0.619606
0
LINE
8
BLACK
6
CONTINUOUS
10
1.74913
20
0.619606
11
1.74537
21
0.620356
0
LINE
8
BLACK
6
CONTINUOUS
10
1.74537
20
0.620356
11
1.74217
21
0.622489
0
LINE
8
BLACK
6
CONTINUOUS
10
1.74217
20
0.622489
11
1.74004
21
0.625682
0
LINE
8
BLACK
6
CONTINUOUS
10
1.74004
20
0.625682
11
1.73929
21
0.629449
0
LINE
8
BLACK
6
CONTINUOUS
10
1.73929
20
0.629449
11
1.73929
21
0.662913
0
LINE
8
BLACK
6
CONTINUOUS
10
1.73929
20
0.662913
11
1.74004
21
0.66668
0
LINE
8
BLACK
6
CONTINUOUS
10
1.74004
20
0.66668
11
1.74217
21
0.669873
0
LINE
8
BLACK
6
CONTINUOUS
10
1.74217
20
0.669873
11
1.74537
21
0.672007
0
LINE
8
BLACK
6
CONTINUOUS
10
1.74537
20
0.672007
11
1.74913
21
0.672756
0
LINE
8
BLACK
6
CONTINUOUS
10
1.74913
20
0.672756
11
1.78457
21
0.672756
0
LINE
8
BLACK
6
CONTINUOUS
10
1.78457
20
0.672756
11
1.78833
21
0.672007
0
LINE
8
BLACK
6
CONTINUOUS
10
1.89463
20
0.672007
11
1.89783
21
0.669873
0
LINE
8
BLACK
6
CONTINUOUS
10
1.89783
20
0.669873
11
1.89996
21
0.66668
0
LINE
8
BLACK
6
CONTINUOUS
10
1.89996
20
0.66668
11
1.90071
21
0.662913
0
LINE
8
BLACK
6
CONTINUOUS
10
1.90071
20
0.662913
11
1.90071
21
0.629449
0
LINE
8
BLACK
6
CONTINUOUS
10
1.90071
20
0.629449
11
1.89996
21
0.625682
0
LINE
8
BLACK
6
CONTINUOUS
10
1.89996
20
0.625682
11
1.89783
21
0.622489
0
LINE
8
BLACK
6
CONTINUOUS
10
1.89783
20
0.622489
11
1.89463
21
0.620356
0
LINE
8
BLACK
6
CONTINUOUS
10
1.89463
20
0.620356
11
1.89087
21
0.619606
0
LINE
8
BLACK
6
CONTINUOUS
10
1.89087
20
0.619606
11
1.85543
21
0.619606
0
LINE
8
BLACK
6
CONTINUOUS
10
1.85543
20
0.619606
11
1.85167
21
0.620356
0
LINE
8
BLACK
6
CONTINUOUS
10
1.85167
20
0.620356
11
1.84847
21
0.622489
0
LINE
8
BLACK
6
CONTINUOUS
10
1.84847
20
0.622489
11
1.84634
21
0.625682
0
LINE
8
BLACK
6
CONTINUOUS
10
1.84634
20
0.625682
11
1.84559
21
0.629449
0
LINE
8
BLACK
6
CONTINUOUS
10
1.84559
20
0.629449
11
1.84559
21
0.662913
0
LINE
8
BLACK
6
CONTINUOUS
10
1.84559
20
0.662913
11
1.84634
21
0.66668
0
LINE
8
BLACK
6
CONTINUOUS
10
1.84634
20
0.66668
11
1.84847
21
0.669873
0
LINE
8
BLACK
6
CONTINUOUS
10
1.84847
20
0.669873
11
1.85167
21
0.672007
0
LINE
8
BLACK
6
CONTINUOUS
10
1.85167
20
0.672007
11
1.85543
21
0.672756
0
LINE
8
BLACK
6
CONTINUOUS
10
1.85543
20
0.672756
11
1.89087
21
0.672756
0
LINE
8
BLACK
6
CONTINUOUS
10
1.89087
20
0.672756
11
1.89463
21
0.672007
0
LINE
8
BLACK
6
CONTINUOUS
10
2.24712
20
0.737601
11
2.25474
21
0.734648
0
LINE
8
BLACK
6
CONTINUOUS
10
2.25474
20
0.734648
11
2.26169
21
0.730345
0
LINE
8
BLACK
6
CONTINUOUS
10
2.26169
20
0.730345
11
2.26773
21
0.724839
0
LINE
8
BLACK
6
CONTINUOUS
10
2.26773
20
0.724839
11
2.27266
21
0.718316
0
LINE
8
BLACK
6
CONTINUOUS
10
2.27266
20
0.718316
11
2.2763
21
0.711
0
LINE
8
BLACK
6
CONTINUOUS
10
2.2763
20
0.711
11
2.27854
21
0.703139
0
LINE
8
BLACK
6
CONTINUOUS
10
2.27854
20
0.703139
11
2.27929
21
0.695
0
LINE
8
BLACK
6
CONTINUOUS
10
2.27929
20
0.695
11
2.27854
21
0.686861
0
LINE
8
BLACK
6
CONTINUOUS
10
2.27854
20
0.686861
11
2.2763
21
0.679
0
LINE
8
BLACK
6
CONTINUOUS
10
2.2763
20
0.679
11
2.27266
21
0.671684
0
LINE
8
BLACK
6
CONTINUOUS
10
2.27266
20
0.671684
11
2.26773
21
0.665161
0
LINE
8
BLACK
6
CONTINUOUS
10
2.26773
20
0.665161
11
2.26169
21
0.659655
0
LINE
8
BLACK
6
CONTINUOUS
10
2.26169
20
0.659655
11
2.25474
21
0.655352
0
LINE
8
BLACK
6
CONTINUOUS
10
2.25474
20
0.655352
11
2.24712
21
0.652399
0
LINE
8
BLACK
6
CONTINUOUS
10
2.24712
20
0.652399
11
2.23909
21
0.650898
0
LINE
8
BLACK
6
CONTINUOUS
10
2.23909
20
0.650898
11
2.23091
21
0.650898
0
LINE
8
BLACK
6
CONTINUOUS
10
2.23091
20
0.650898
11
2.22288
21
0.652399
0
LINE
8
BLACK
6
CONTINUOUS
10
2.22288
20
0.652399
11
2.21526
21
0.655352
0
LINE
8
BLACK
6
CONTINUOUS
10
2.21526
20
0.655352
11
2.20831
21
0.659655
0
LINE
8
BLACK
6
CONTINUOUS
10
2.20831
20
0.659655
11
2.20227
21
0.665161
0
LINE
8
BLACK
6
CONTINUOUS
10
2.20227
20
0.665161
11
2.19734
21
0.671684
0
LINE
8
BLACK
6
CONTINUOUS
10
2.19734
20
0.671684
11
2.1937
21
0.679
0
LINE
8
BLACK
6
CONTINUOUS
10
2.1937
20
0.679
11
2.19146
21
0.686861
0
LINE
8
BLACK
6
CONTINUOUS
10
2.19146
20
0.686861
11
2.19071
21
0.695
0
LINE
8
BLACK
6
CONTINUOUS
10
2.19071
20
0.695
11
2.19146
21
0.703139
0
LINE
8
BLACK
6
CONTINUOUS
10
2.19146
20
0.703139
11
2.1937
21
0.711
0
LINE
8
BLACK
6
CONTINUOUS
10
2.1937
20
0.711
11
2.19734
21
0.718316
0
LINE
8
BLACK
6
CONTINUOUS
10
2.19734
20
0.718316
11
2.20227
21
0.724839
0
LINE
8
BLACK
6
CONTINUOUS
10
2.20227
20
0.724839
11
2.20831
21
0.730345
0
LINE
8
BLACK
6
CONTINUOUS
10
2.20831
20
0.730345
11
2.21526
21
0.734648
0
LINE
8
BLACK
6
CONTINUOUS
10
2.21526
20
0.734648
11
2.22288
21
0.737601
0
LINE
8
BLACK
6
CONTINUOUS
10
2.22288
20
0.737601
11
2.23091
21
0.739102
0
LINE
8
BLACK
6
CONTINUOUS
10
2.23091
20
0.739102
11
2.23909
21
0.739102
0
LINE
8
BLACK
6
CONTINUOUS
10
2.23909
20
0.739102
11
2.24712
21
0.737601
0
LINE
8
BLACK
6
CONTINUOUS
10
2.44712
20
0.737601
11
2.45474
21
0.734648
0
LINE
8
BLACK
6
CONTINUOUS
10
2.45474
20
0.734648
11
2.46169
21
0.730345
0
LINE
8
BLACK
6
CONTINUOUS
10
2.46169
20
0.730345
11
2.46773
21
0.724839
0
LINE
8
BLACK
6
CONTINUOUS
10
2.46773
20
0.724839
11
2.47266
21
0.718316
0
LINE
8
BLACK
6
CONTINUOUS
10
2.47266
20
0.718316
11
2.4763
21
0.711
0
LINE
8
BLACK
6
CONTINUOUS
10
2.4763
20
0.711
11
2.47854
21
0.703139
0
LINE
8
BLACK
6
CONTINUOUS
10
2.47854
20
0.703139
11
2.47929
21
0.695
0
LINE
8
BLACK
6
CONTINUOUS
10
2.47929
20
0.695
11
2.47854
21
0.686861
0
LINE
8
BLACK
6
CONTINUOUS
10
2.47854
20
0.686861
11
2.4763
21
0.679
0
LINE
8
BLACK
6
CONTINUOUS
10
2.4763
20
0.679
11
2.47266
21
0.671684
0
LINE
8
BLACK
6
CONTINUOUS
10
2.47266
20
0.671684
11
2.46773
21
0.665161
0
LINE
8
BLACK
6
CONTINUOUS
10
2.46773
20
0.665161
11
2.46169
21
0.659655
0
LINE
8
BLACK
6
CONTINUOUS
10
2.46169
20
0.659655
11
2.45474
21
0.655352
0
LINE
8
BLACK
6
CONTINUOUS
10
2.45474
20
0.655352
11
2.44712
21
0.652399
0
LINE
8
BLACK
6
CONTINUOUS
10
2.44712
20
0.652399
11
2.43909
21
0.650898
0
LINE
8
BLACK
6
CONTINUOUS
10
2.43909
20
0.650898
11
2.43091
21
0.650898
0
LINE
8
BLACK
6
CONTINUOUS
10
2.43091
20
0.650898
11
2.42288
21
0.652399
0
LINE
8
BLACK
6
CONTINUOUS
10
2.42288
20
0.652399
11
2.41526
21
0.655352
0
LINE
8
BLACK
6
CONTINUOUS
10
2.41526
20
0.655352
11
2.40831
21
0.659655
0
LINE
8
BLACK
6
CONTINUOUS
10
2.40831
20
0.659655
11
2.40227
21
0.665161
0
LINE
8
BLACK
6
CONTINUOUS
10
2.40227
20
0.665161
11
2.39734
21
0.671684
0
LINE
8
BLACK
6
CONTINUOUS
10
2.39734
20
0.671684
11
2.3937
21
0.679
0
LINE
8
BLACK
6
CONTINUOUS
10
2.3937
20
0.679
11
2.39146
21
0.686861
0
LINE
8
BLACK
6
CONTINUOUS
10
2.39146
20
0.686861
11
2.39071
21
0.695
0
LINE
8
BLACK
6
CONTINUOUS
10
2.39071
20
0.695
11
2.39146
21
0.703139
0
LINE
8
BLACK
6
CONTINUOUS
10
2.39146
20
0.703139
11
2.3937
21
0.711
0
LINE
8
BLACK
6
CONTINUOUS
10
2.3937
20
0.711
11
2.39734
21
0.718316
0
LINE
8
BLACK
6
CONTINUOUS
10
2.39734
20
0.718316
11
2.40227
21
0.724839
0
LINE
8
BLACK
6
CONTINUOUS
10
2.40227
20
0.724839
11
2.40831
21
0.730345
0
LINE
8
BLACK
6
CONTINUOUS
10
2.40831
20
0.730345
11
2.41526
21
0.734648
0
LINE
8
BLACK
6
CONTINUOUS
10
2.41526
20
0.734648
11
2.42288
21
0.737601
0
LINE
8
BLACK
6
CONTINUOUS
10
2.42288
20
0.737601
11
2.43091
21
0.739102
0
LINE
8
BLACK
6
CONTINUOUS
10
2.43091
20
0.739102
11
2.43909
21
0.739102
0
LINE
8
BLACK
6
CONTINUOUS
10
2.43909
20
0.739102
11
2.44712
21
0.737601
0
LINE
8
BLACK
6
CONTINUOUS
10
-0.0637925
20
0.727794
11
-0.0605993
21
0.725661
0
LINE
8
BLACK
6
CONTINUOUS
10
-0.0605993
20
0.725661
11
-0.0584657
21
0.722467
0
LINE
8
BLACK
6
CONTINUOUS
10
-0.0584657
20
0.722467
11
-0.0577165
21
0.718701
0
LINE
8
BLACK
6
CONTINUOUS
10
-0.0577165
20
0.718701
11
-0.0577165
21
0.681299
0
LINE
8
BLACK
6
CONTINUOUS
10
-0.0577165
20
0.681299
11
-0.0584657
21
0.677533
0
LINE
8
BLACK
6
CONTINUOUS
10
-0.0584657
20
0.677533
11
-0.0605993
21
0.674339
0
LINE
8
BLACK
6
CONTINUOUS
10
-0.0605993
20
0.674339
11
-0.0637925
21
0.672206
0
LINE
8
BLACK
6
CONTINUOUS
10
-0.0637925
20
0.672206
11
-0.0675591
21
0.671457
0
LINE
8
BLACK
6
CONTINUOUS
10
-0.0675591
20
0.671457
11
-0.0872441
21
0.671457
0
LINE
8
BLACK
6
CONTINUOUS
10
-0.0872441
20
0.671457
11
-0.0910107
21
0.672206
0
LINE
8
BLACK
6
CONTINUOUS
10
-0.0910107
20
0.672206
11
-0.0942038
21
0.674339
0
LINE
8
BLACK
6
CONTINUOUS
10
-0.0942038
20
0.674339
11
-0.0963374
21
0.677533
0
LINE
8
BLACK
6
CONTINUOUS
10
-0.0963374
20
0.677533
11
-0.0970866
21
0.681299
0
LINE
8
BLACK
6
CONTINUOUS
10
-0.0970866
20
0.681299
11
-0.0970866
21
0.718701
0
LINE
8
BLACK
6
CONTINUOUS
10
-0.0970866
20
0.718701
11
-0.0963374
21
0.722467
0
LINE
8
BLACK
6
CONTINUOUS
10
-0.0963374
20
0.722467
11
-0.0942038
21
0.725661
0
LINE
8
BLACK
6
CONTINUOUS
10
-0.0942038
20
0.725661
11
-0.0910107
21
0.727794
0
LINE
8
BLACK
6
CONTINUOUS
10
-0.0910107
20
0.727794
11
-0.0872441
21
0.728543
0
LINE
8
BLACK
6
CONTINUOUS
10
-0.0872441
20
0.728543
11
-0.0675591
21
0.728543
0
LINE
8
BLACK
6
CONTINUOUS
10
-0.0675591
20
0.728543
11
-0.0637925
21
0.727794
0
LINE
8
BLACK
6
CONTINUOUS
10
0.0110107
20
0.727794
11
0.0142038
21
0.725661
0
LINE
8
BLACK
6
CONTINUOUS
10
0.0142038
20
0.725661
11
0.0163374
21
0.722467
0
LINE
8
BLACK
6
CONTINUOUS
10
0.0163374
20
0.722467
11
0.0170866
21
0.718701
0
LINE
8
BLACK
6
CONTINUOUS
10
0.0170866
20
0.718701
11
0.0170866
21
0.681299
0
LINE
8
BLACK
6
CONTINUOUS
10
0.0170866
20
0.681299
11
0.0163374
21
0.677533
0
LINE
8
BLACK
6
CONTINUOUS
10
0.0163374
20
0.677533
11
0.0142038
21
0.674339
0
LINE
8
BLACK
6
CONTINUOUS
10
0.0142038
20
0.674339
11
0.0110107
21
0.672206
0
LINE
8
BLACK
6
CONTINUOUS
10
0.0110107
20
0.672206
11
0.00724409
21
0.671457
0
LINE
8
BLACK
6
CONTINUOUS
10
0.00724409
20
0.671457
11
-0.0124409
21
0.671457
0
LINE
8
BLACK
6
CONTINUOUS
10
-0.0124409
20
0.671457
11
-0.0162075
21
0.672206
0
LINE
8
BLACK
6
CONTINUOUS
10
-0.0162075
20
0.672206
11
-0.0194007
21
0.674339
0
LINE
8
BLACK
6
CONTINUOUS
10
-0.0194007
20
0.674339
11
-0.0215343
21
0.677533
0
LINE
8
BLACK
6
CONTINUOUS
10
-0.0215343
20
0.677533
11
-0.0222835
21
0.681299
0
LINE
8
BLACK
6
CONTINUOUS
10
-0.0222835
20
0.681299
11
-0.0222835
21
0.718701
0
LINE
8
BLACK
6
CONTINUOUS
10
-0.0222835
20
0.718701
11
-0.0215343
21
0.722467
0
LINE
8
BLACK
6
CONTINUOUS
10
-0.0215343
20
0.722467
11
-0.0194007
21
0.725661
0
LINE
8
BLACK
6
CONTINUOUS
10
-0.0194007
20
0.725661
11
-0.0162075
21
0.727794
0
LINE
8
BLACK
6
CONTINUOUS
10
-0.0162075
20
0.727794
11
-0.0124409
21
0.728543
0
LINE
8
BLACK
6
CONTINUOUS
10
-0.0124409
20
0.728543
11
0.00724409
21
0.728543
0
LINE
8
BLACK
6
CONTINUOUS
10
0.00724409
20
0.728543
11
0.0110107
21
0.727794
0
LINE
8
BLACK
6
CONTINUOUS
10
1.68384
20
0.707629
11
1.68639
21
0.705922
0
LINE
8
BLACK
6
CONTINUOUS
10
1.68639
20
0.705922
11
1.6881
21
0.703368
0
LINE
8
BLACK
6
CONTINUOUS
10
1.6881
20
0.703368
11
1.6887
21
0.700354
0
LINE
8
BLACK
6
CONTINUOUS
10
1.6887
20
0.700354
11
1.6887
21
0.684606
0
LINE
8
BLACK
6
CONTINUOUS
10
1.6887
20
0.684606
11
1.6881
21
0.681593
0
LINE
8
BLACK
6
CONTINUOUS
10
1.6881
20
0.681593
11
1.68639
21
0.679039
0
LINE
8
BLACK
6
CONTINUOUS
10
1.68639
20
0.679039
11
1.68384
21
0.677332
0
LINE
8
BLACK
6
CONTINUOUS
10
1.68384
20
0.677332
11
1.68083
21
0.676732
0
LINE
8
BLACK
6
CONTINUOUS
10
1.68083
20
0.676732
11
1.65917
21
0.676732
0
LINE
8
BLACK
6
CONTINUOUS
10
1.65917
20
0.676732
11
1.65616
21
0.677332
0
LINE
8
BLACK
6
CONTINUOUS
10
1.65616
20
0.677332
11
1.65361
21
0.679039
0
LINE
8
BLACK
6
CONTINUOUS
10
1.65361
20
0.679039
11
1.6519
21
0.681593
0
LINE
8
BLACK
6
CONTINUOUS
10
1.6519
20
0.681593
11
1.6513
21
0.684606
0
LINE
8
BLACK
6
CONTINUOUS
10
1.6513
20
0.684606
11
1.6513
21
0.700354
0
LINE
8
BLACK
6
CONTINUOUS
10
1.6513
20
0.700354
11
1.6519
21
0.703368
0
LINE
8
BLACK
6
CONTINUOUS
10
1.6519
20
0.703368
11
1.65361
21
0.705922
0
LINE
8
BLACK
6
CONTINUOUS
10
1.65361
20
0.705922
11
1.65616
21
0.707629
0
LINE
8
BLACK
6
CONTINUOUS
10
1.65616
20
0.707629
11
1.65917
21
0.708228
0
LINE
8
BLACK
6
CONTINUOUS
10
1.65917
20
0.708228
11
1.68083
21
0.708228
0
LINE
8
BLACK
6
CONTINUOUS
10
1.68083
20
0.708228
11
1.68384
21
0.707629
0
LINE
8
BLACK
6
CONTINUOUS
10
1.5923
20
0.71396
11
1.59422
21
0.71268
0
LINE
8
BLACK
6
CONTINUOUS
10
1.59422
20
0.71268
11
1.5955
21
0.710764
0
LINE
8
BLACK
6
CONTINUOUS
10
1.5955
20
0.710764
11
1.59594
21
0.708504
0
LINE
8
BLACK
6
CONTINUOUS
10
1.59594
20
0.708504
11
1.59594
21
0.696693
0
LINE
8
BLACK
6
CONTINUOUS
10
1.59594
20
0.696693
11
1.5955
21
0.694433
0
LINE
8
BLACK
6
CONTINUOUS
10
1.5955
20
0.694433
11
1.59422
21
0.692517
0
LINE
8
BLACK
6
CONTINUOUS
10
1.59422
20
0.692517
11
1.5923
21
0.691237
0
LINE
8
BLACK
6
CONTINUOUS
10
1.5923
20
0.691237
11
1.59004
21
0.690787
0
LINE
8
BLACK
6
CONTINUOUS
10
1.59004
20
0.690787
11
1.54378
21
0.690787
0
LINE
8
BLACK
6
CONTINUOUS
10
1.54378
20
0.690787
11
1.54152
21
0.691237
0
LINE
8
BLACK
6
CONTINUOUS
10
1.54152
20
0.691237
11
1.5396
21
0.692517
0
LINE
8
BLACK
6
CONTINUOUS
10
1.5396
20
0.692517
11
1.53832
21
0.694433
0
LINE
8
BLACK
6
CONTINUOUS
10
1.53832
20
0.694433
11
1.53787
21
0.696693
0
LINE
8
BLACK
6
CONTINUOUS
10
1.53787
20
0.696693
11
1.53787
21
0.708504
0
LINE
8
BLACK
6
CONTINUOUS
10
1.53787
20
0.708504
11
1.53832
21
0.710764
0
LINE
8
BLACK
6
CONTINUOUS
10
1.53832
20
0.710764
11
1.5396
21
0.71268
0
LINE
8
BLACK
6
CONTINUOUS
10
1.5396
20
0.71268
11
1.54152
21
0.71396
0
LINE
8
BLACK
6
CONTINUOUS
10
1.54152
20
0.71396
11
1.54378
21
0.714409
0
LINE
8
BLACK
6
CONTINUOUS
10
1.54378
20
0.714409
11
1.59004
21
0.714409
0
LINE
8
BLACK
6
CONTINUOUS
10
1.59004
20
0.714409
11
1.5923
21
0.71396
0
LINE
8
BLACK
6
CONTINUOUS
10
1.30349
20
0.7974
11
1.30668
21
0.795267
0
LINE
8
BLACK
6
CONTINUOUS
10
1.30668
20
0.795267
11
1.30882
21
0.792074
0
LINE
8
BLACK
6
CONTINUOUS
10
1.30882
20
0.792074
11
1.30957
21
0.788307
0
LINE
8
BLACK
6
CONTINUOUS
10
1.30957
20
0.788307
11
1.30957
21
0.701693
0
LINE
8
BLACK
6
CONTINUOUS
10
1.30957
20
0.701693
11
1.30882
21
0.697926
0
LINE
8
BLACK
6
CONTINUOUS
10
1.30882
20
0.697926
11
1.30668
21
0.694733
0
LINE
8
BLACK
6
CONTINUOUS
10
1.30668
20
0.694733
11
1.30349
21
0.6926
0
LINE
8
BLACK
6
CONTINUOUS
10
1.30349
20
0.6926
11
1.29972
21
0.69185
0
LINE
8
BLACK
6
CONTINUOUS
10
1.29972
20
0.69185
11
1.27413
21
0.69185
0
LINE
8
BLACK
6
CONTINUOUS
10
1.27413
20
0.69185
11
1.27037
21
0.6926
0
LINE
8
BLACK
6
CONTINUOUS
10
1.27037
20
0.6926
11
1.26717
21
0.694733
0
LINE
8
BLACK
6
CONTINUOUS
10
1.26717
20
0.694733
11
1.26504
21
0.697926
0
LINE
8
BLACK
6
CONTINUOUS
10
1.26504
20
0.697926
11
1.26429
21
0.701693
0
LINE
8
BLACK
6
CONTINUOUS
10
1.26429
20
0.701693
11
1.26429
21
0.788307
0
LINE
8
BLACK
6
CONTINUOUS
10
1.26429
20
0.788307
11
1.26504
21
0.792074
0
LINE
8
BLACK
6
CONTINUOUS
10
1.26504
20
0.792074
11
1.26717
21
0.795267
0
LINE
8
BLACK
6
CONTINUOUS
10
1.26717
20
0.795267
11
1.27037
21
0.7974
0
LINE
8
BLACK
6
CONTINUOUS
10
1.27037
20
0.7974
11
1.27413
21
0.79815
0
LINE
8
BLACK
6
CONTINUOUS
10
1.27413
20
0.79815
11
1.29972
21
0.79815
0
LINE
8
BLACK
6
CONTINUOUS
10
1.29972
20
0.79815
11
1.30349
21
0.7974
0
LINE
8
BLACK
6
CONTINUOUS
10
1.41963
20
0.7974
11
1.42283
21
0.795267
0
LINE
8
BLACK
6
CONTINUOUS
10
1.42283
20
0.795267
11
1.42496
21
0.792074
0
LINE
8
BLACK
6
CONTINUOUS
10
1.42496
20
0.792074
11
1.42571
21
0.788307
0
LINE
8
BLACK
6
CONTINUOUS
10
1.42571
20
0.788307
11
1.42571
21
0.701693
0
LINE
8
BLACK
6
CONTINUOUS
10
1.42571
20
0.701693
11
1.42496
21
0.697926
0
LINE
8
BLACK
6
CONTINUOUS
10
1.42496
20
0.697926
11
1.42283
21
0.694733
0
LINE
8
BLACK
6
CONTINUOUS
10
1.42283
20
0.694733
11
1.41963
21
0.6926
0
LINE
8
BLACK
6
CONTINUOUS
10
1.41963
20
0.6926
11
1.41587
21
0.69185
0
LINE
8
BLACK
6
CONTINUOUS
10
1.41587
20
0.69185
11
1.39028
21
0.69185
0
LINE
8
BLACK
6
CONTINUOUS
10
1.39028
20
0.69185
11
1.38651
21
0.6926
0
LINE
8
BLACK
6
CONTINUOUS
10
1.38651
20
0.6926
11
1.38332
21
0.694733
0
LINE
8
BLACK
6
CONTINUOUS
10
1.38332
20
0.694733
11
1.38118
21
0.697926
0
LINE
8
BLACK
6
CONTINUOUS
10
1.38118
20
0.697926
11
1.38043
21
0.701693
0
LINE
8
BLACK
6
CONTINUOUS
10
1.38043
20
0.701693
11
1.38043
21
0.788307
0
LINE
8
BLACK
6
CONTINUOUS
10
1.38043
20
0.788307
11
1.38118
21
0.792074
0
LINE
8
BLACK
6
CONTINUOUS
10
1.38118
20
0.792074
11
1.38332
21
0.795267
0
LINE
8
BLACK
6
CONTINUOUS
10
1.38332
20
0.795267
11
1.38651
21
0.7974
0
LINE
8
BLACK
6
CONTINUOUS
10
1.38651
20
0.7974
11
1.39028
21
0.79815
0
LINE
8
BLACK
6
CONTINUOUS
10
1.39028
20
0.79815
11
1.41587
21
0.79815
0
LINE
8
BLACK
6
CONTINUOUS
10
1.41587
20
0.79815
11
1.41963
21
0.7974
0
LINE
8
BLACK
6
CONTINUOUS
10
0.335
20
0.71
11
0.275
21
0.71
0
LINE
8
BLACK
6
CONTINUOUS
10
0.275
20
0.71
11
0.275
21
0.77
0
LINE
8
BLACK
6
CONTINUOUS
10
0.275
20
0.77
11
0.335
21
0.77
0
LINE
8
BLACK
6
CONTINUOUS
10
0.335
20
0.77
11
0.335
21
0.71
0
LINE
8
BLACK
6
CONTINUOUS
10
0.435
20
0.71
11
0.375
21
0.71
0
LINE
8
BLACK
6
CONTINUOUS
10
0.375
20
0.71
11
0.375
21
0.77
0
LINE
8
BLACK
6
CONTINUOUS
10
0.375
20
0.77
11
0.435
21
0.77
0
LINE
8
BLACK
6
CONTINUOUS
10
0.435
20
0.77
11
0.435
21
0.71
0
LINE
8
BLACK
6
CONTINUOUS
10
1.79621
20
0.772794
11
1.7994
21
0.770661
0
LINE
8
BLACK
6
CONTINUOUS
10
1.7994
20
0.770661
11
1.80153
21
0.767467
0
LINE
8
BLACK
6
CONTINUOUS
10
1.80153
20
0.767467
11
1.80228
21
0.763701
0
LINE
8
BLACK
6
CONTINUOUS
10
1.80228
20
0.763701
11
1.80228
21
0.726299
0
LINE
8
BLACK
6
CONTINUOUS
10
1.80228
20
0.726299
11
1.80153
21
0.722533
0
LINE
8
BLACK
6
CONTINUOUS
10
1.80153
20
0.722533
11
1.7994
21
0.719339
0
LINE
8
BLACK
6
CONTINUOUS
10
1.7994
20
0.719339
11
1.79621
21
0.717206
0
LINE
8
BLACK
6
CONTINUOUS
10
1.79621
20
0.717206
11
1.79244
21
0.716457
0
LINE
8
BLACK
6
CONTINUOUS
10
1.79244
20
0.716457
11
1.77276
21
0.716457
0
LINE
8
BLACK
6
CONTINUOUS
10
1.77276
20
0.716457
11
1.76899
21
0.717206
0
LINE
8
BLACK
6
CONTINUOUS
10
1.76899
20
0.717206
11
1.7658
21
0.719339
0
LINE
8
BLACK
6
CONTINUOUS
10
1.7658
20
0.719339
11
1.76366
21
0.722533
0
LINE
8
BLACK
6
CONTINUOUS
10
1.76366
20
0.722533
11
1.76291
21
0.726299
0
LINE
8
BLACK
6
CONTINUOUS
10
1.76291
20
0.726299
11
1.76291
21
0.763701
0
LINE
8
BLACK
6
CONTINUOUS
10
1.76291
20
0.763701
11
1.76366
21
0.767467
0
LINE
8
BLACK
6
CONTINUOUS
10
1.76366
20
0.767467
11
1.7658
21
0.770661
0
LINE
8
BLACK
6
CONTINUOUS
10
1.7658
20
0.770661
11
1.76899
21
0.772794
0
LINE
8
BLACK
6
CONTINUOUS
10
1.76899
20
0.772794
11
1.77276
21
0.773543
0
LINE
8
BLACK
6
CONTINUOUS
10
1.77276
20
0.773543
11
1.79244
21
0.773543
0
LINE
8
BLACK
6
CONTINUOUS
10
1.79244
20
0.773543
11
1.79621
21
0.772794
0
LINE
8
BLACK
6
CONTINUOUS
10
1.87101
20
0.772794
11
1.8742
21
0.770661
0
LINE
8
BLACK
6
CONTINUOUS
10
1.8742
20
0.770661
11
1.87634
21
0.767467
0
LINE
8
BLACK
6
CONTINUOUS
10
1.87634
20
0.767467
11
1.87709
21
0.763701
0
LINE
8
BLACK
6
CONTINUOUS
10
1.87709
20
0.763701
11
1.87709
21
0.726299
0
LINE
8
BLACK
6
CONTINUOUS
10
1.87709
20
0.726299
11
1.87634
21
0.722533
0
LINE
8
BLACK
6
CONTINUOUS
10
1.87634
20
0.722533
11
1.8742
21
0.719339
0
LINE
8
BLACK
6
CONTINUOUS
10
1.8742
20
0.719339
11
1.87101
21
0.717206
0
LINE
8
BLACK
6
CONTINUOUS
10
1.87101
20
0.717206
11
1.86724
21
0.716457
0
LINE
8
BLACK
6
CONTINUOUS
10
1.86724
20
0.716457
11
1.84756
21
0.716457
0
LINE
8
BLACK
6
CONTINUOUS
10
1.84756
20
0.716457
11
1.84379
21
0.717206
0
LINE
8
BLACK
6
CONTINUOUS
10
1.84379
20
0.717206
11
1.8406
21
0.719339
0
LINE
8
BLACK
6
CONTINUOUS
10
1.8406
20
0.719339
11
1.83847
21
0.722533
0
LINE
8
BLACK
6
CONTINUOUS
10
1.83847
20
0.722533
11
1.83772
21
0.726299
0
LINE
8
BLACK
6
CONTINUOUS
10
1.83772
20
0.726299
11
1.83772
21
0.763701
0
LINE
8
BLACK
6
CONTINUOUS
10
1.83772
20
0.763701
11
1.83847
21
0.767467
0
LINE
8
BLACK
6
CONTINUOUS
10
1.83847
20
0.767467
11
1.8406
21
0.770661
0
LINE
8
BLACK
6
CONTINUOUS
10
1.8406
20
0.770661
11
1.84379
21
0.772794
0
LINE
8
BLACK
6
CONTINUOUS
10
1.84379
20
0.772794
11
1.84756
21
0.773543
0
LINE
8
BLACK
6
CONTINUOUS
10
1.84756
20
0.773543
11
1.86724
21
0.773543
0
LINE
8
BLACK
6
CONTINUOUS
10
1.86724
20
0.773543
11
1.87101
21
0.772794
0
LINE
8
BLACK
6
CONTINUOUS
10
1.51848
20
0.751361
11
1.5204
21
0.750081
0
LINE
8
BLACK
6
CONTINUOUS
10
1.5204
20
0.750081
11
1.52168
21
0.748165
0
LINE
8
BLACK
6
CONTINUOUS
10
1.52168
20
0.748165
11
1.52213
21
0.745906
0
LINE
8
BLACK
6
CONTINUOUS
10
1.52213
20
0.745906
11
1.52213
21
0.734094
0
LINE
8
BLACK
6
CONTINUOUS
10
1.52213
20
0.734094
11
1.52168
21
0.731835
0
LINE
8
BLACK
6
CONTINUOUS
10
1.52168
20
0.731835
11
1.5204
21
0.729919
0
LINE
8
BLACK
6
CONTINUOUS
10
1.5204
20
0.729919
11
1.51848
21
0.728639
0
LINE
8
BLACK
6
CONTINUOUS
10
1.51848
20
0.728639
11
1.51622
21
0.728189
0
LINE
8
BLACK
6
CONTINUOUS
10
1.51622
20
0.728189
11
1.46996
21
0.728189
0
LINE
8
BLACK
6
CONTINUOUS
10
1.46996
20
0.728189
11
1.4677
21
0.728639
0
LINE
8
BLACK
6
CONTINUOUS
10
1.4677
20
0.728639
11
1.46578
21
0.729919
0
LINE
8
BLACK
6
CONTINUOUS
10
1.46578
20
0.729919
11
1.4645
21
0.731835
0
LINE
8
BLACK
6
CONTINUOUS
10
1.4645
20
0.731835
11
1.46406
21
0.734094
0
LINE
8
BLACK
6
CONTINUOUS
10
1.46406
20
0.734094
11
1.46406
21
0.745906
0
LINE
8
BLACK
6
CONTINUOUS
10
1.46406
20
0.745906
11
1.4645
21
0.748165
0
LINE
8
BLACK
6
CONTINUOUS
10
1.4645
20
0.748165
11
1.46578
21
0.750081
0
LINE
8
BLACK
6
CONTINUOUS
10
1.46578
20
0.750081
11
1.4677
21
0.751361
0
LINE
8
BLACK
6
CONTINUOUS
10
1.4677
20
0.751361
11
1.46996
21
0.751811
0
LINE
8
BLACK
6
CONTINUOUS
10
1.46996
20
0.751811
11
1.51622
21
0.751811
0
LINE
8
BLACK
6
CONTINUOUS
10
1.51622
20
0.751811
11
1.51848
21
0.751361
0
LINE
8
BLACK
6
CONTINUOUS
10
2.34287
20
0.834579
11
2.35044
21
0.832283
0
LINE
8
BLACK
6
CONTINUOUS
10
2.35044
20
0.832283
11
2.35742
21
0.828553
0
LINE
8
BLACK
6
CONTINUOUS
10
2.35742
20
0.828553
11
2.36353
21
0.823535
0
LINE
8
BLACK
6
CONTINUOUS
10
2.36353
20
0.823535
11
2.36855
21
0.81742
0
LINE
8
BLACK
6
CONTINUOUS
10
2.36855
20
0.81742
11
2.37228
21
0.810443
0
LINE
8
BLACK
6
CONTINUOUS
10
2.37228
20
0.810443
11
2.37458
21
0.802873
0
LINE
8
BLACK
6
CONTINUOUS
10
2.37458
20
0.802873
11
2.37535
21
0.795
0
LINE
8
BLACK
6
CONTINUOUS
10
2.37535
20
0.795
11
2.37458
21
0.787127
0
LINE
8
BLACK
6
CONTINUOUS
10
2.37458
20
0.787127
11
2.37228
21
0.779557
0
LINE
8
BLACK
6
CONTINUOUS
10
2.37228
20
0.779557
11
2.36855
21
0.77258
0
LINE
8
BLACK
6
CONTINUOUS
10
2.36855
20
0.77258
11
2.36353
21
0.766465
0
LINE
8
BLACK
6
CONTINUOUS
10
2.36353
20
0.766465
11
2.35742
21
0.761447
0
LINE
8
BLACK
6
CONTINUOUS
10
2.35742
20
0.761447
11
2.35044
21
0.757717
0
LINE
8
BLACK
6
CONTINUOUS
10
2.35044
20
0.757717
11
2.34287
21
0.755421
0
LINE
8
BLACK
6
CONTINUOUS
10
2.34287
20
0.755421
11
2.335
21
0.754646
0
LINE
8
BLACK
6
CONTINUOUS
10
2.335
20
0.754646
11
2.32713
21
0.755421
0
LINE
8
BLACK
6
CONTINUOUS
10
2.32713
20
0.755421
11
2.31956
21
0.757717
0
LINE
8
BLACK
6
CONTINUOUS
10
2.31956
20
0.757717
11
2.31258
21
0.761447
0
LINE
8
BLACK
6
CONTINUOUS
10
2.31258
20
0.761447
11
2.30647
21
0.766465
0
LINE
8
BLACK
6
CONTINUOUS
10
2.30647
20
0.766465
11
2.30145
21
0.77258
0
LINE
8
BLACK
6
CONTINUOUS
10
2.30145
20
0.77258
11
2.29772
21
0.779557
0
LINE
8
BLACK
6
CONTINUOUS
10
2.29772
20
0.779557
11
2.29542
21
0.787127
0
LINE
8
BLACK
6
CONTINUOUS
10
2.29542
20
0.787127
11
2.29465
21
0.795
0
LINE
8
BLACK
6
CONTINUOUS
10
2.29465
20
0.795
11
2.29542
21
0.802873
0
LINE
8
BLACK
6
CONTINUOUS
10
2.29542
20
0.802873
11
2.29772
21
0.810443
0
LINE
8
BLACK
6
CONTINUOUS
10
2.29772
20
0.810443
11
2.30145
21
0.81742
0
LINE
8
BLACK
6
CONTINUOUS
10
2.30145
20
0.81742
11
2.30647
21
0.823535
0
LINE
8
BLACK
6
CONTINUOUS
10
2.30647
20
0.823535
11
2.31258
21
0.828553
0
LINE
8
BLACK
6
CONTINUOUS
10
2.31258
20
0.828553
11
2.31956
21
0.832283
0
LINE
8
BLACK
6
CONTINUOUS
10
2.31956
20
0.832283
11
2.32713
21
0.834579
0
LINE
8
BLACK
6
CONTINUOUS
10
2.32713
20
0.834579
11
2.335
21
0.835354
0
LINE
8
BLACK
6
CONTINUOUS
10
2.335
20
0.835354
11
2.34287
21
0.834579
0
LINE
8
BLACK
6
CONTINUOUS
10
1.66341
20
0.798101
11
1.66596
21
0.796395
0
LINE
8
BLACK
6
CONTINUOUS
10
1.66596
20
0.796395
11
1.66767
21
0.79384
0
LINE
8
BLACK
6
CONTINUOUS
10
1.66767
20
0.79384
11
1.66827
21
0.790827
0
LINE
8
BLACK
6
CONTINUOUS
10
1.66827
20
0.790827
11
1.66827
21
0.769173
0
LINE
8
BLACK
6
CONTINUOUS
10
1.66827
20
0.769173
11
1.66767
21
0.76616
0
LINE
8
BLACK
6
CONTINUOUS
10
1.66767
20
0.76616
11
1.66596
21
0.763605
0
LINE
8
BLACK
6
CONTINUOUS
10
1.66596
20
0.763605
11
1.66341
21
0.761899
0
LINE
8
BLACK
6
CONTINUOUS
10
1.66341
20
0.761899
11
1.66039
21
0.761299
0
LINE
8
BLACK
6
CONTINUOUS
10
1.66039
20
0.761299
11
1.64465
21
0.761299
0
LINE
8
BLACK
6
CONTINUOUS
10
1.64465
20
0.761299
11
1.64163
21
0.761899
0
LINE
8
BLACK
6
CONTINUOUS
10
1.64163
20
0.761899
11
1.63908
21
0.763605
0
LINE
8
BLACK
6
CONTINUOUS
10
1.63908
20
0.763605
11
1.63737
21
0.76616
0
LINE
8
BLACK
6
CONTINUOUS
10
1.63737
20
0.76616
11
1.63677
21
0.769173
0
LINE
8
BLACK
6
CONTINUOUS
10
1.63677
20
0.769173
11
1.63677
21
0.790827
0
LINE
8
BLACK
6
CONTINUOUS
10
1.63677
20
0.790827
11
1.63737
21
0.79384
0
LINE
8
BLACK
6
CONTINUOUS
10
1.63737
20
0.79384
11
1.63908
21
0.796395
0
LINE
8
BLACK
6
CONTINUOUS
10
1.63908
20
0.796395
11
1.64163
21
0.798101
0
LINE
8
BLACK
6
CONTINUOUS
10
1.64163
20
0.798101
11
1.64465
21
0.798701
0
LINE
8
BLACK
6
CONTINUOUS
10
1.64465
20
0.798701
11
1.66039
21
0.798701
0
LINE
8
BLACK
6
CONTINUOUS
10
1.66039
20
0.798701
11
1.66341
21
0.798101
0
LINE
8
BLACK
6
CONTINUOUS
10
1.72837
20
0.798101
11
1.73092
21
0.796395
0
LINE
8
BLACK
6
CONTINUOUS
10
1.73092
20
0.796395
11
1.73263
21
0.79384
0
LINE
8
BLACK
6
CONTINUOUS
10
1.73263
20
0.79384
11
1.73323
21
0.790827
0
LINE
8
BLACK
6
CONTINUOUS
10
1.73323
20
0.790827
11
1.73323
21
0.769173
0
LINE
8
BLACK
6
CONTINUOUS
10
1.73323
20
0.769173
11
1.73263
21
0.76616
0
LINE
8
BLACK
6
CONTINUOUS
10
1.73263
20
0.76616
11
1.73092
21
0.763605
0
LINE
8
BLACK
6
CONTINUOUS
10
1.73092
20
0.763605
11
1.72837
21
0.761899
0
LINE
8
BLACK
6
CONTINUOUS
10
1.72837
20
0.761899
11
1.72535
21
0.761299
0
LINE
8
BLACK
6
CONTINUOUS
10
1.72535
20
0.761299
11
1.70961
21
0.761299
0
LINE
8
BLACK
6
CONTINUOUS
10
1.70961
20
0.761299
11
1.70659
21
0.761899
0
LINE
8
BLACK
6
CONTINUOUS
10
1.70659
20
0.761899
11
1.70404
21
0.763605
0
LINE
8
BLACK
6
CONTINUOUS
10
1.70404
20
0.763605
11
1.70233
21
0.76616
0
LINE
8
BLACK
6
CONTINUOUS
10
1.70233
20
0.76616
11
1.70173
21
0.769173
0
LINE
8
BLACK
6
CONTINUOUS
10
1.70173
20
0.769173
11
1.70173
21
0.790827
0
LINE
8
BLACK
6
CONTINUOUS
10
1.70173
20
0.790827
11
1.70233
21
0.79384
0
LINE
8
BLACK
6
CONTINUOUS
10
1.70233
20
0.79384
11
1.70404
21
0.796395
0
LINE
8
BLACK
6
CONTINUOUS
10
1.70404
20
0.796395
11
1.70659
21
0.798101
0
LINE
8
BLACK
6
CONTINUOUS
10
1.70659
20
0.798101
11
1.70961
21
0.798701
0
LINE
8
BLACK
6
CONTINUOUS
10
1.70961
20
0.798701
11
1.72535
21
0.798701
0
LINE
8
BLACK
6
CONTINUOUS
10
1.72535
20
0.798701
11
1.72837
21
0.798101
0
LINE
8
BLACK
6
CONTINUOUS
10
1.5923
20
0.788763
11
1.59422
21
0.787483
0
LINE
8
BLACK
6
CONTINUOUS
10
1.59422
20
0.787483
11
1.5955
21
0.785567
0
LINE
8
BLACK
6
CONTINUOUS
10
1.5955
20
0.785567
11
1.59594
21
0.783307
0
LINE
8
BLACK
6
CONTINUOUS
10
1.59594
20
0.783307
11
1.59594
21
0.771496
0
LINE
8
BLACK
6
CONTINUOUS
10
1.59594
20
0.771496
11
1.5955
21
0.769236
0
LINE
8
BLACK
6
CONTINUOUS
10
1.5955
20
0.769236
11
1.59422
21
0.76732
0
LINE
8
BLACK
6
CONTINUOUS
10
1.59422
20
0.76732
11
1.5923
21
0.76604
0
LINE
8
BLACK
6
CONTINUOUS
10
1.5923
20
0.76604
11
1.59004
21
0.765591
0
LINE
8
BLACK
6
CONTINUOUS
10
1.59004
20
0.765591
11
1.54378
21
0.765591
0
LINE
8
BLACK
6
CONTINUOUS
10
1.54378
20
0.765591
11
1.54152
21
0.76604
0
LINE
8
BLACK
6
CONTINUOUS
10
1.54152
20
0.76604
11
1.5396
21
0.76732
0
LINE
8
BLACK
6
CONTINUOUS
10
1.5396
20
0.76732
11
1.53832
21
0.769236
0
LINE
8
BLACK
6
CONTINUOUS
10
1.53832
20
0.769236
11
1.53787
21
0.771496
0
LINE
8
BLACK
6
CONTINUOUS
10
1.53787
20
0.771496
11
1.53787
21
0.783307
0
LINE
8
BLACK
6
CONTINUOUS
10
1.53787
20
0.783307
11
1.53832
21
0.785567
0
LINE
8
BLACK
6
CONTINUOUS
10
1.53832
20
0.785567
11
1.5396
21
0.787483
0
LINE
8
BLACK
6
CONTINUOUS
10
1.5396
20
0.787483
11
1.54152
21
0.788763
0
LINE
8
BLACK
6
CONTINUOUS
10
1.54152
20
0.788763
11
1.54378
21
0.789213
0
LINE
8
BLACK
6
CONTINUOUS
10
1.54378
20
0.789213
11
1.59004
21
0.789213
0
LINE
8
BLACK
6
CONTINUOUS
10
1.59004
20
0.789213
11
1.5923
21
0.788763
0
LINE
8
BLACK
6
CONTINUOUS
10
2.14621
20
0.822794
11
2.1494
21
0.820661
0
LINE
8
BLACK
6
CONTINUOUS
10
2.1494
20
0.820661
11
2.15153
21
0.817467
0
LINE
8
BLACK
6
CONTINUOUS
10
2.15153
20
0.817467
11
2.15228
21
0.813701
0
LINE
8
BLACK
6
CONTINUOUS
10
2.15228
20
0.813701
11
2.15228
21
0.776299
0
LINE
8
BLACK
6
CONTINUOUS
10
2.15228
20
0.776299
11
2.15153
21
0.772533
0
LINE
8
BLACK
6
CONTINUOUS
10
2.15153
20
0.772533
11
2.1494
21
0.769339
0
LINE
8
BLACK
6
CONTINUOUS
10
2.1494
20
0.769339
11
2.14621
21
0.767206
0
LINE
8
BLACK
6
CONTINUOUS
10
2.14621
20
0.767206
11
2.14244
21
0.766457
0
LINE
8
BLACK
6
CONTINUOUS
10
2.14244
20
0.766457
11
2.12276
21
0.766457
0
LINE
8
BLACK
6
CONTINUOUS
10
2.12276
20
0.766457
11
2.11899
21
0.767206
0
LINE
8
BLACK
6
CONTINUOUS
10
2.11899
20
0.767206
11
2.1158
21
0.769339
0
LINE
8
BLACK
6
CONTINUOUS
10
2.1158
20
0.769339
11
2.11366
21
0.772533
0
LINE
8
BLACK
6
CONTINUOUS
10
2.11366
20
0.772533
11
2.11291
21
0.776299
0
LINE
8
BLACK
6
CONTINUOUS
10
2.11291
20
0.776299
11
2.11291
21
0.813701
0
LINE
8
BLACK
6
CONTINUOUS
10
2.11291
20
0.813701
11
2.11366
21
0.817467
0
LINE
8
BLACK
6
CONTINUOUS
10
2.11366
20
0.817467
11
2.1158
21
0.820661
0
LINE
8
BLACK
6
CONTINUOUS
10
2.1158
20
0.820661
11
2.11899
21
0.822794
0
LINE
8
BLACK
6
CONTINUOUS
10
2.11899
20
0.822794
11
2.12276
21
0.823543
0
LINE
8
BLACK
6
CONTINUOUS
10
2.12276
20
0.823543
11
2.14244
21
0.823543
0
LINE
8
BLACK
6
CONTINUOUS
10
2.14244
20
0.823543
11
2.14621
21
0.822794
0
LINE
8
BLACK
6
CONTINUOUS
10
2.22101
20
0.822794
11
2.2242
21
0.820661
0
LINE
8
BLACK
6
CONTINUOUS
10
2.2242
20
0.820661
11
2.22634
21
0.817467
0
LINE
8
BLACK
6
CONTINUOUS
10
2.22634
20
0.817467
11
2.22709
21
0.813701
0
LINE
8
BLACK
6
CONTINUOUS
10
2.22709
20
0.813701
11
2.22709
21
0.776299
0
LINE
8
BLACK
6
CONTINUOUS
10
2.22709
20
0.776299
11
2.22634
21
0.772533
0
LINE
8
BLACK
6
CONTINUOUS
10
2.22634
20
0.772533
11
2.2242
21
0.769339
0
LINE
8
BLACK
6
CONTINUOUS
10
2.2242
20
0.769339
11
2.22101
21
0.767206
0
LINE
8
BLACK
6
CONTINUOUS
10
2.22101
20
0.767206
11
2.21724
21
0.766457
0
LINE
8
BLACK
6
CONTINUOUS
10
2.21724
20
0.766457
11
2.19756
21
0.766457
0
LINE
8
BLACK
6
CONTINUOUS
10
2.19756
20
0.766457
11
2.19379
21
0.767206
0
LINE
8
BLACK
6
CONTINUOUS
10
2.19379
20
0.767206
11
2.1906
21
0.769339
0
LINE
8
BLACK
6
CONTINUOUS
10
2.1906
20
0.769339
11
2.18847
21
0.772533
0
LINE
8
BLACK
6
CONTINUOUS
10
2.18847
20
0.772533
11
2.18772
21
0.776299
0
LINE
8
BLACK
6
CONTINUOUS
10
2.18772
20
0.776299
11
2.18772
21
0.813701
0
LINE
8
BLACK
6
CONTINUOUS
10
2.18772
20
0.813701
11
2.18847
21
0.817467
0
LINE
8
BLACK
6
CONTINUOUS
10
2.18847
20
0.817467
11
2.1906
21
0.820661
0
LINE
8
BLACK
6
CONTINUOUS
10
2.1906
20
0.820661
11
2.19379
21
0.822794
0
LINE
8
BLACK
6
CONTINUOUS
10
2.19379
20
0.822794
11
2.19756
21
0.823543
0
LINE
8
BLACK
6
CONTINUOUS
10
2.19756
20
0.823543
11
2.21724
21
0.823543
0
LINE
8
BLACK
6
CONTINUOUS
10
2.21724
20
0.823543
11
2.22101
21
0.822794
0
LINE
8
BLACK
6
CONTINUOUS
10
0.793701
20
0.807087
11
0.754331
21
0.807087
0
LINE
8
BLACK
6
CONTINUOUS
10
0.754331
20
0.807087
11
0.754331
21
0.956693
0
LINE
8
BLACK
6
CONTINUOUS
10
0.754331
20
0.956693
11
0.793701
21
0.956693
0
LINE
8
BLACK
6
CONTINUOUS
10
0.793701
20
0.956693
11
0.793701
21
0.807087
0
LINE
8
BLACK
6
CONTINUOUS
10
2.04567
20
0.807087
11
2.0063
21
0.807087
0
LINE
8
BLACK
6
CONTINUOUS
10
2.0063
20
0.807087
11
2.0063
21
0.956693
0
LINE
8
BLACK
6
CONTINUOUS
10
2.0063
20
0.956693
11
2.04567
21
0.956693
0
LINE
8
BLACK
6
CONTINUOUS
10
2.04567
20
0.956693
11
2.04567
21
0.807087
0
LINE
8
BLACK
6
CONTINUOUS
10
0.335
20
0.81
11
0.275
21
0.81
0
LINE
8
BLACK
6
CONTINUOUS
10
0.275
20
0.81
11
0.275
21
0.87
0
LINE
8
BLACK
6
CONTINUOUS
10
0.275
20
0.87
11
0.335
21
0.87
0
LINE
8
BLACK
6
CONTINUOUS
10
0.335
20
0.87
11
0.335
21
0.81
0
LINE
8
BLACK
6
CONTINUOUS
10
0.435
20
0.81
11
0.375
21
0.81
0
LINE
8
BLACK
6
CONTINUOUS
10
0.375
20
0.81
11
0.375
21
0.87
0
LINE
8
BLACK
6
CONTINUOUS
10
0.375
20
0.87
11
0.435
21
0.87
0
LINE
8
BLACK
6
CONTINUOUS
10
0.435
20
0.87
11
0.435
21
0.81
0
LINE
8
BLACK
6
CONTINUOUS
10
-0.349552
20
0.872989
11
-0.346518
21
0.870962
0
LINE
8
BLACK
6
CONTINUOUS
10
-0.346518
20
0.870962
11
-0.344491
21
0.867929
0
LINE
8
BLACK
6
CONTINUOUS
10
-0.344491
20
0.867929
11
-0.34378
21
0.86435
0
LINE
8
BLACK
6
CONTINUOUS
10
-0.34378
20
0.86435
11
-0.34378
21
0.84565
0
LINE
8
BLACK
6
CONTINUOUS
10
-0.34378
20
0.84565
11
-0.344491
21
0.842071
0
LINE
8
BLACK
6
CONTINUOUS
10
-0.344491
20
0.842071
11
-0.346518
21
0.839038
0
LINE
8
BLACK
6
CONTINUOUS
10
-0.346518
20
0.839038
11
-0.349552
21
0.837011
0
LINE
8
BLACK
6
CONTINUOUS
10
-0.349552
20
0.837011
11
-0.35313
21
0.836299
0
LINE
8
BLACK
6
CONTINUOUS
10
-0.35313
20
0.836299
11
-0.375768
21
0.836299
0
LINE
8
BLACK
6
CONTINUOUS
10
-0.375768
20
0.836299
11
-0.379346
21
0.837011
0
LINE
8
BLACK
6
CONTINUOUS
10
-0.379346
20
0.837011
11
-0.382379
21
0.839038
0
LINE
8
BLACK
6
CONTINUOUS
10
-0.382379
20
0.839038
11
-0.384406
21
0.842071
0
LINE
8
BLACK
6
CONTINUOUS
10
-0.384406
20
0.842071
11
-0.385118
21
0.84565
0
LINE
8
BLACK
6
CONTINUOUS
10
-0.385118
20
0.84565
11
-0.385118
21
0.86435
0
LINE
8
BLACK
6
CONTINUOUS
10
-0.385118
20
0.86435
11
-0.384406
21
0.867929
0
LINE
8
BLACK
6
CONTINUOUS
10
-0.384406
20
0.867929
11
-0.382379
21
0.870962
0
LINE
8
BLACK
6
CONTINUOUS
10
-0.382379
20
0.870962
11
-0.379346
21
0.872989
0
LINE
8
BLACK
6
CONTINUOUS
10
-0.379346
20
0.872989
11
-0.375768
21
0.873701
0
LINE
8
BLACK
6
CONTINUOUS
10
-0.375768
20
0.873701
11
-0.35313
21
0.873701
0
LINE
8
BLACK
6
CONTINUOUS
10
-0.35313
20
0.873701
11
-0.349552
21
0.872989
0
LINE
8
BLACK
6
CONTINUOUS
10
-0.280654
20
0.872989
11
-0.277621
21
0.870962
0
LINE
8
BLACK
6
CONTINUOUS
10
-0.277621
20
0.870962
11
-0.275594
21
0.867929
0
LINE
8
BLACK
6
CONTINUOUS
10
-0.275594
20
0.867929
11
-0.274882
21
0.86435
0
LINE
8
BLACK
6
CONTINUOUS
10
-0.274882
20
0.86435
11
-0.274882
21
0.84565
0
LINE
8
BLACK
6
CONTINUOUS
10
-0.274882
20
0.84565
11
-0.275594
21
0.842071
0
LINE
8
BLACK
6
CONTINUOUS
10
-0.275594
20
0.842071
11
-0.277621
21
0.839038
0
LINE
8
BLACK
6
CONTINUOUS
10
-0.277621
20
0.839038
11
-0.280654
21
0.837011
0
LINE
8
BLACK
6
CONTINUOUS
10
-0.280654
20
0.837011
11
-0.284232
21
0.836299
0
LINE
8
BLACK
6
CONTINUOUS
10
-0.284232
20
0.836299
11
-0.30687
21
0.836299
0
LINE
8
BLACK
6
CONTINUOUS
10
-0.30687
20
0.836299
11
-0.310448
21
0.837011
0
LINE
8
BLACK
6
CONTINUOUS
10
-0.310448
20
0.837011
11
-0.313482
21
0.839038
0
LINE
8
BLACK
6
CONTINUOUS
10
-0.313482
20
0.839038
11
-0.315509
21
0.842071
0
LINE
8
BLACK
6
CONTINUOUS
10
-0.315509
20
0.842071
11
-0.31622
21
0.84565
0
LINE
8
BLACK
6
CONTINUOUS
10
-0.31622
20
0.84565
11
-0.31622
21
0.86435
0
LINE
8
BLACK
6
CONTINUOUS
10
-0.31622
20
0.86435
11
-0.315509
21
0.867929
0
LINE
8
BLACK
6
CONTINUOUS
10
-0.315509
20
0.867929
11
-0.313482
21
0.870962
0
LINE
8
BLACK
6
CONTINUOUS
10
-0.313482
20
0.870962
11
-0.310448
21
0.872989
0
LINE
8
BLACK
6
CONTINUOUS
10
-0.310448
20
0.872989
11
-0.30687
21
0.873701
0
LINE
8
BLACK
6
CONTINUOUS
10
-0.30687
20
0.873701
11
-0.284232
21
0.873701
0
LINE
8
BLACK
6
CONTINUOUS
10
-0.284232
20
0.873701
11
-0.280654
21
0.872989
0
LINE
8
BLACK
6
CONTINUOUS
10
-0.0954331
20
0.845551
11
-0.117087
21
0.845551
0
LINE
8
BLACK
6
CONTINUOUS
10
-0.117087
20
0.845551
11
-0.117087
21
0.855394
0
LINE
8
BLACK
6
CONTINUOUS
10
-0.117087
20
0.855394
11
-0.0954331
21
0.855394
0
LINE
8
BLACK
6
CONTINUOUS
10
-0.0954331
20
0.855394
11
-0.0954331
21
0.845551
0
LINE
8
BLACK
6
CONTINUOUS
10
-0.00291339
20
0.845551
11
-0.0245669
21
0.845551
0
LINE
8
BLACK
6
CONTINUOUS
10
-0.0245669
20
0.845551
11
-0.0245669
21
0.855394
0
LINE
8
BLACK
6
CONTINUOUS
10
-0.0245669
20
0.855394
11
-0.00291339
21
0.855394
0
LINE
8
BLACK
6
CONTINUOUS
10
-0.00291339
20
0.855394
11
-0.00291339
21
0.845551
0
LINE
8
BLACK
6
CONTINUOUS
10
-0.040315
20
0.901654
11
-0.040315
21
0.846535
0
LINE
8
BLACK
6
CONTINUOUS
10
-0.040315
20
0.846535
11
-0.079685
21
0.846535
0
LINE
8
BLACK
6
CONTINUOUS
10
-0.079685
20
0.846535
11
-0.079685
21
0.913465
0
LINE
8
BLACK
6
CONTINUOUS
10
-0.079685
20
0.913465
11
-0.052126
21
0.913465
0
LINE
8
BLACK
6
CONTINUOUS
10
-0.052126
20
0.913465
11
-0.040315
21
0.901654
0
LINE
8
BLACK
6
CONTINUOUS
10
1.47849
20
0.9524
11
1.48168
21
0.950267
0
LINE
8
BLACK
6
CONTINUOUS
10
1.48168
20
0.950267
11
1.48382
21
0.947074
0
LINE
8
BLACK
6
CONTINUOUS
10
1.48382
20
0.947074
11
1.48457
21
0.943307
0
LINE
8
BLACK
6
CONTINUOUS
10
1.48457
20
0.943307
11
1.48457
21
0.856693
0
LINE
8
BLACK
6
CONTINUOUS
10
1.48457
20
0.856693
11
1.48382
21
0.852926
0
LINE
8
BLACK
6
CONTINUOUS
10
1.48382
20
0.852926
11
1.48168
21
0.849733
0
LINE
8
BLACK
6
CONTINUOUS
10
1.48168
20
0.849733
11
1.47849
21
0.8476
0
LINE
8
BLACK
6
CONTINUOUS
10
1.47849
20
0.8476
11
1.47472
21
0.84685
0
LINE
8
BLACK
6
CONTINUOUS
10
1.47472
20
0.84685
11
1.44913
21
0.84685
0
LINE
8
BLACK
6
CONTINUOUS
10
1.44913
20
0.84685
11
1.44537
21
0.8476
0
LINE
8
BLACK
6
CONTINUOUS
10
1.44537
20
0.8476
11
1.44217
21
0.849733
0
LINE
8
BLACK
6
CONTINUOUS
10
1.44217
20
0.849733
11
1.44004
21
0.852926
0
LINE
8
BLACK
6
CONTINUOUS
10
1.44004
20
0.852926
11
1.43929
21
0.856693
0
LINE
8
BLACK
6
CONTINUOUS
10
1.43929
20
0.856693
11
1.43929
21
0.943307
0
LINE
8
BLACK
6
CONTINUOUS
10
1.43929
20
0.943307
11
1.44004
21
0.947074
0
LINE
8
BLACK
6
CONTINUOUS
10
1.44004
20
0.947074
11
1.44217
21
0.950267
0
LINE
8
BLACK
6
CONTINUOUS
10
1.44217
20
0.950267
11
1.44537
21
0.9524
0
LINE
8
BLACK
6
CONTINUOUS
10
1.44537
20
0.9524
11
1.44913
21
0.95315
0
LINE
8
BLACK
6
CONTINUOUS
10
1.44913
20
0.95315
11
1.47472
21
0.95315
0
LINE
8
BLACK
6
CONTINUOUS
10
1.47472
20
0.95315
11
1.47849
21
0.9524
0
LINE
8
BLACK
6
CONTINUOUS
10
1.59463
20
0.9524
11
1.59783
21
0.950267
0
LINE
8
BLACK
6
CONTINUOUS
10
1.59783
20
0.950267
11
1.59996
21
0.947074
0
LINE
8
BLACK
6
CONTINUOUS
10
1.59996
20
0.947074
11
1.60071
21
0.943307
0
LINE
8
BLACK
6
CONTINUOUS
10
1.60071
20
0.943307
11
1.60071
21
0.856693
0
LINE
8
BLACK
6
CONTINUOUS
10
1.60071
20
0.856693
11
1.59996
21
0.852926
0
LINE
8
BLACK
6
CONTINUOUS
10
1.59996
20
0.852926
11
1.59783
21
0.849733
0
LINE
8
BLACK
6
CONTINUOUS
10
1.59783
20
0.849733
11
1.59463
21
0.8476
0
LINE
8
BLACK
6
CONTINUOUS
10
1.59463
20
0.8476
11
1.59087
21
0.84685
0
LINE
8
BLACK
6
CONTINUOUS
10
1.59087
20
0.84685
11
1.56528
21
0.84685
0
LINE
8
BLACK
6
CONTINUOUS
10
1.56528
20
0.84685
11
1.56151
21
0.8476
0
LINE
8
BLACK
6
CONTINUOUS
10
1.56151
20
0.8476
11
1.55832
21
0.849733
0
LINE
8
BLACK
6
CONTINUOUS
10
1.55832
20
0.849733
11
1.55618
21
0.852926
0
LINE
8
BLACK
6
CONTINUOUS
10
1.55618
20
0.852926
11
1.55543
21
0.856693
0
LINE
8
BLACK
6
CONTINUOUS
10
1.55543
20
0.856693
11
1.55543
21
0.943307
0
LINE
8
BLACK
6
CONTINUOUS
10
1.55543
20
0.943307
11
1.55618
21
0.947074
0
LINE
8
BLACK
6
CONTINUOUS
10
1.55618
20
0.947074
11
1.55832
21
0.950267
0
LINE
8
BLACK
6
CONTINUOUS
10
1.55832
20
0.950267
11
1.56151
21
0.9524
0
LINE
8
BLACK
6
CONTINUOUS
10
1.56151
20
0.9524
11
1.56528
21
0.95315
0
LINE
8
BLACK
6
CONTINUOUS
10
1.56528
20
0.95315
11
1.59087
21
0.95315
0
LINE
8
BLACK
6
CONTINUOUS
10
1.59087
20
0.95315
11
1.59463
21
0.9524
0
LINE
8
BLACK
6
CONTINUOUS
10
2.24712
20
0.937601
11
2.25474
21
0.934648
0
LINE
8
BLACK
6
CONTINUOUS
10
2.25474
20
0.934648
11
2.26169
21
0.930345
0
LINE
8
BLACK
6
CONTINUOUS
10
2.26169
20
0.930345
11
2.26773
21
0.924839
0
LINE
8
BLACK
6
CONTINUOUS
10
2.26773
20
0.924839
11
2.27266
21
0.918316
0
LINE
8
BLACK
6
CONTINUOUS
10
2.27266
20
0.918316
11
2.2763
21
0.911
0
LINE
8
BLACK
6
CONTINUOUS
10
2.2763
20
0.911
11
2.27854
21
0.903139
0
LINE
8
BLACK
6
CONTINUOUS
10
2.27854
20
0.903139
11
2.27929
21
0.895
0
LINE
8
BLACK
6
CONTINUOUS
10
2.27929
20
0.895
11
2.27854
21
0.886861
0
LINE
8
BLACK
6
CONTINUOUS
10
2.27854
20
0.886861
11
2.2763
21
0.879
0
LINE
8
BLACK
6
CONTINUOUS
10
2.2763
20
0.879
11
2.27266
21
0.871684
0
LINE
8
BLACK
6
CONTINUOUS
10
2.27266
20
0.871684
11
2.26773
21
0.865161
0
LINE
8
BLACK
6
CONTINUOUS
10
2.26773
20
0.865161
11
2.26169
21
0.859655
0
LINE
8
BLACK
6
CONTINUOUS
10
2.26169
20
0.859655
11
2.25474
21
0.855352
0
LINE
8
BLACK
6
CONTINUOUS
10
2.25474
20
0.855352
11
2.24712
21
0.852399
0
LINE
8
BLACK
6
CONTINUOUS
10
2.24712
20
0.852399
11
2.23909
21
0.850898
0
LINE
8
BLACK
6
CONTINUOUS
10
2.23909
20
0.850898
11
2.23091
21
0.850898
0
LINE
8
BLACK
6
CONTINUOUS
10
2.23091
20
0.850898
11
2.22288
21
0.852399
0
LINE
8
BLACK
6
CONTINUOUS
10
2.22288
20
0.852399
11
2.21526
21
0.855352
0
LINE
8
BLACK
6
CONTINUOUS
10
2.21526
20
0.855352
11
2.20831
21
0.859655
0
LINE
8
BLACK
6
CONTINUOUS
10
2.20831
20
0.859655
11
2.20227
21
0.865161
0
LINE
8
BLACK
6
CONTINUOUS
10
2.20227
20
0.865161
11
2.19734
21
0.871684
0
LINE
8
BLACK
6
CONTINUOUS
10
2.19734
20
0.871684
11
2.1937
21
0.879
0
LINE
8
BLACK
6
CONTINUOUS
10
2.1937
20
0.879
11
2.19146
21
0.886861
0
LINE
8
BLACK
6
CONTINUOUS
10
2.19146
20
0.886861
11
2.19071
21
0.895
0
LINE
8
BLACK
6
CONTINUOUS
10
2.19071
20
0.895
11
2.19146
21
0.903139
0
LINE
8
BLACK
6
CONTINUOUS
10
2.19146
20
0.903139
11
2.1937
21
0.911
0
LINE
8
BLACK
6
CONTINUOUS
10
2.1937
20
0.911
11
2.19734
21
0.918316
0
LINE
8
BLACK
6
CONTINUOUS
10
2.19734
20
0.918316
11
2.20227
21
0.924839
0
LINE
8
BLACK
6
CONTINUOUS
10
2.20227
20
0.924839
11
2.20831
21
0.930345
0
LINE
8
BLACK
6
CONTINUOUS
10
2.20831
20
0.930345
11
2.21526
21
0.934648
0
LINE
8
BLACK
6
CONTINUOUS
10
2.21526
20
0.934648
11
2.22288
21
0.937601
0
LINE
8
BLACK
6
CONTINUOUS
10
2.22288
20
0.937601
11
2.23091
21
0.939102
0
LINE
8
BLACK
6
CONTINUOUS
10
2.23091
20
0.939102
11
2.23909
21
0.939102
0
LINE
8
BLACK
6
CONTINUOUS
10
2.23909
20
0.939102
11
2.24712
21
0.937601
0
LINE
8
BLACK
6
CONTINUOUS
10
2.44712
20
0.937601
11
2.45474
21
0.934648
0
LINE
8
BLACK
6
CONTINUOUS
10
2.45474
20
0.934648
11
2.46169
21
0.930345
0
LINE
8
BLACK
6
CONTINUOUS
10
2.46169
20
0.930345
11
2.46773
21
0.924839
0
LINE
8
BLACK
6
CONTINUOUS
10
2.46773
20
0.924839
11
2.47266
21
0.918316
0
LINE
8
BLACK
6
CONTINUOUS
10
2.47266
20
0.918316
11
2.4763
21
0.911
0
LINE
8
BLACK
6
CONTINUOUS
10
2.4763
20
0.911
11
2.47854
21
0.903139
0
LINE
8
BLACK
6
CONTINUOUS
10
2.47854
20
0.903139
11
2.47929
21
0.895
0
LINE
8
BLACK
6
CONTINUOUS
10
2.47929
20
0.895
11
2.47854
21
0.886861
0
LINE
8
BLACK
6
CONTINUOUS
10
2.47854
20
0.886861
11
2.4763
21
0.879
0
LINE
8
BLACK
6
CONTINUOUS
10
2.4763
20
0.879
11
2.47266
21
0.871684
0
LINE
8
BLACK
6
CONTINUOUS
10
2.47266
20
0.871684
11
2.46773
21
0.865161
0
LINE
8
BLACK
6
CONTINUOUS
10
2.46773
20
0.865161
11
2.46169
21
0.859655
0
LINE
8
BLACK
6
CONTINUOUS
10
2.46169
20
0.859655
11
2.45474
21
0.855352
0
LINE
8
BLACK
6
CONTINUOUS
10
2.45474
20
0.855352
11
2.44712
21
0.852399
0
LINE
8
BLACK
6
CONTINUOUS
10
2.44712
20
0.852399
11
2.43909
21
0.850898
0
LINE
8
BLACK
6
CONTINUOUS
10
2.43909
20
0.850898
11
2.43091
21
0.850898
0
LINE
8
BLACK
6
CONTINUOUS
10
2.43091
20
0.850898
11
2.42288
21
0.852399
0
LINE
8
BLACK
6
CONTINUOUS
10
2.42288
20
0.852399
11
2.41526
21
0.855352
0
LINE
8
BLACK
6
CONTINUOUS
10
2.41526
20
0.855352
11
2.40831
21
0.859655
0
LINE
8
BLACK
6
CONTINUOUS
10
2.40831
20
0.859655
11
2.40227
21
0.865161
0
LINE
8
BLACK
6
CONTINUOUS
10
2.40227
20
0.865161
11
2.39734
21
0.871684
0
LINE
8
BLACK
6
CONTINUOUS
10
2.39734
20
0.871684
11
2.3937
21
0.879
0
LINE
8
BLACK
6
CONTINUOUS
10
2.3937
20
0.879
11
2.39146
21
0.886861
0
LINE
8
BLACK
6
CONTINUOUS
10
2.39146
20
0.886861
11
2.39071
21
0.895
0
LINE
8
BLACK
6
CONTINUOUS
10
2.39071
20
0.895
11
2.39146
21
0.903139
0
LINE
8
BLACK
6
CONTINUOUS
10
2.39146
20
0.903139
11
2.3937
21
0.911
0
LINE
8
BLACK
6
CONTINUOUS
10
2.3937
20
0.911
11
2.39734
21
0.918316
0
LINE
8
BLACK
6
CONTINUOUS
10
2.39734
20
0.918316
11
2.40227
21
0.924839
0
LINE
8
BLACK
6
CONTINUOUS
10
2.40227
20
0.924839
11
2.40831
21
0.930345
0
LINE
8
BLACK
6
CONTINUOUS
10
2.40831
20
0.930345
11
2.41526
21
0.934648
0
LINE
8
BLACK
6
CONTINUOUS
10
2.41526
20
0.934648
11
2.42288
21
0.937601
0
LINE
8
BLACK
6
CONTINUOUS
10
2.42288
20
0.937601
11
2.43091
21
0.939102
0
LINE
8
BLACK
6
CONTINUOUS
10
2.43091
20
0.939102
11
2.43909
21
0.939102
0
LINE
8
BLACK
6
CONTINUOUS
10
2.43909
20
0.939102
11
2.44712
21
0.937601
0
LINE
8
BLACK
6
CONTINUOUS
10
-0.0954331
20
0.865236
11
-0.117087
21
0.865236
0
LINE
8
BLACK
6
CONTINUOUS
10
-0.117087
20
0.865236
11
-0.117087
21
0.875079
0
LINE
8
BLACK
6
CONTINUOUS
10
-0.117087
20
0.875079
11
-0.0954331
21
0.875079
0
LINE
8
BLACK
6
CONTINUOUS
10
-0.0954331
20
0.875079
11
-0.0954331
21
0.865236
0
LINE
8
BLACK
6
CONTINUOUS
10
-0.00291339
20
0.865236
11
-0.0245669
21
0.865236
0
LINE
8
BLACK
6
CONTINUOUS
10
-0.0245669
20
0.865236
11
-0.0245669
21
0.875079
0
LINE
8
BLACK
6
CONTINUOUS
10
-0.0245669
20
0.875079
11
-0.00291339
21
0.875079
0
LINE
8
BLACK
6
CONTINUOUS
10
-0.00291339
20
0.875079
11
-0.00291339
21
0.865236
0
LINE
8
BLACK
6
CONTINUOUS
10
2.35331
20
0.909738
11
2.3561
21
0.907871
0
LINE
8
BLACK
6
CONTINUOUS
10
2.3561
20
0.907871
11
2.35797
21
0.905077
0
LINE
8
BLACK
6
CONTINUOUS
10
2.35797
20
0.905077
11
2.35862
21
0.901781
0
LINE
8
BLACK
6
CONTINUOUS
10
2.35862
20
0.901781
11
2.35862
21
0.884557
0
LINE
8
BLACK
6
CONTINUOUS
10
2.35862
20
0.884557
11
2.35797
21
0.881261
0
LINE
8
BLACK
6
CONTINUOUS
10
2.35797
20
0.881261
11
2.3561
21
0.878467
0
LINE
8
BLACK
6
CONTINUOUS
10
2.3561
20
0.878467
11
2.35331
21
0.8766
0
LINE
8
BLACK
6
CONTINUOUS
10
2.35331
20
0.8766
11
2.35001
21
0.875945
0
LINE
8
BLACK
6
CONTINUOUS
10
2.35001
20
0.875945
11
2.31999
21
0.875945
0
LINE
8
BLACK
6
CONTINUOUS
10
2.31999
20
0.875945
11
2.31669
21
0.8766
0
LINE
8
BLACK
6
CONTINUOUS
10
2.31669
20
0.8766
11
2.3139
21
0.878467
0
LINE
8
BLACK
6
CONTINUOUS
10
2.3139
20
0.878467
11
2.31203
21
0.881261
0
LINE
8
BLACK
6
CONTINUOUS
10
2.31203
20
0.881261
11
2.31138
21
0.884557
0
LINE
8
BLACK
6
CONTINUOUS
10
2.31138
20
0.884557
11
2.31138
21
0.901781
0
LINE
8
BLACK
6
CONTINUOUS
10
2.31138
20
0.901781
11
2.31203
21
0.905077
0
LINE
8
BLACK
6
CONTINUOUS
10
2.31203
20
0.905077
11
2.3139
21
0.907871
0
LINE
8
BLACK
6
CONTINUOUS
10
2.3139
20
0.907871
11
2.31669
21
0.909738
0
LINE
8
BLACK
6
CONTINUOUS
10
2.31669
20
0.909738
11
2.31999
21
0.910394
0
LINE
8
BLACK
6
CONTINUOUS
10
2.31999
20
0.910394
11
2.35001
21
0.910394
0
LINE
8
BLACK
6
CONTINUOUS
10
2.35001
20
0.910394
11
2.35331
21
0.909738
0
LINE
8
BLACK
6
CONTINUOUS
10
-0.0954331
20
0.884921
11
-0.117087
21
0.884921
0
LINE
8
BLACK
6
CONTINUOUS
10
-0.117087
20
0.884921
11
-0.117087
21
0.894764
0
LINE
8
BLACK
6
CONTINUOUS
10
-0.117087
20
0.894764
11
-0.0954331
21
0.894764
0
LINE
8
BLACK
6
CONTINUOUS
10
-0.0954331
20
0.894764
11
-0.0954331
21
0.884921
0
LINE
8
BLACK
6
CONTINUOUS
10
-0.00291339
20
0.884921
11
-0.0245669
21
0.884921
0
LINE
8
BLACK
6
CONTINUOUS
10
-0.0245669
20
0.884921
11
-0.0245669
21
0.894764
0
LINE
8
BLACK
6
CONTINUOUS
10
-0.0245669
20
0.894764
11
-0.00291339
21
0.894764
0
LINE
8
BLACK
6
CONTINUOUS
10
-0.00291339
20
0.894764
11
-0.00291339
21
0.884921
0
LINE
8
BLACK
6
CONTINUOUS
10
-0.0954331
20
0.904606
11
-0.117087
21
0.904606
0
LINE
8
BLACK
6
CONTINUOUS
10
-0.117087
20
0.904606
11
-0.117087
21
0.914449
0
LINE
8
BLACK
6
CONTINUOUS
10
-0.117087
20
0.914449
11
-0.0954331
21
0.914449
0
LINE
8
BLACK
6
CONTINUOUS
10
-0.0954331
20
0.914449
11
-0.0954331
21
0.904606
0
LINE
8
BLACK
6
CONTINUOUS
10
-0.00291339
20
0.904606
11
-0.0245669
21
0.904606
0
LINE
8
BLACK
6
CONTINUOUS
10
-0.0245669
20
0.904606
11
-0.0245669
21
0.914449
0
LINE
8
BLACK
6
CONTINUOUS
10
-0.0245669
20
0.914449
11
-0.00291339
21
0.914449
0
LINE
8
BLACK
6
CONTINUOUS
10
-0.00291339
20
0.914449
11
-0.00291339
21
0.904606
0
LINE
8
BLACK
6
CONTINUOUS
10
0.335
20
0.91
11
0.275
21
0.91
0
LINE
8
BLACK
6
CONTINUOUS
10
0.275
20
0.91
11
0.275
21
0.97
0
LINE
8
BLACK
6
CONTINUOUS
10
0.275
20
0.97
11
0.335
21
0.97
0
LINE
8
BLACK
6
CONTINUOUS
10
0.335
20
0.97
11
0.335
21
0.91
0
LINE
8
BLACK
6
CONTINUOUS
10
0.435
20
0.91
11
0.375
21
0.91
0
LINE
8
BLACK
6
CONTINUOUS
10
0.375
20
0.91
11
0.375
21
0.97
0
LINE
8
BLACK
6
CONTINUOUS
10
0.375
20
0.97
11
0.435
21
0.97
0
LINE
8
BLACK
6
CONTINUOUS
10
0.435
20
0.97
11
0.435
21
0.91
0
LINE
8
BLACK
6
CONTINUOUS
10
1.20341
20
0.953101
11
1.20596
21
0.951395
0
LINE
8
BLACK
6
CONTINUOUS
10
1.20596
20
0.951395
11
1.20767
21
0.94884
0
LINE
8
BLACK
6
CONTINUOUS
10
1.20767
20
0.94884
11
1.20827
21
0.945827
0
LINE
8
BLACK
6
CONTINUOUS
10
1.20827
20
0.945827
11
1.20827
21
0.924173
0
LINE
8
BLACK
6
CONTINUOUS
10
1.20827
20
0.924173
11
1.20767
21
0.92116
0
LINE
8
BLACK
6
CONTINUOUS
10
1.20767
20
0.92116
11
1.20596
21
0.918605
0
LINE
8
BLACK
6
CONTINUOUS
10
1.20596
20
0.918605
11
1.20341
21
0.916899
0
LINE
8
BLACK
6
CONTINUOUS
10
1.20341
20
0.916899
11
1.20039
21
0.916299
0
LINE
8
BLACK
6
CONTINUOUS
10
1.20039
20
0.916299
11
1.18465
21
0.916299
0
LINE
8
BLACK
6
CONTINUOUS
10
1.18465
20
0.916299
11
1.18163
21
0.916899
0
LINE
8
BLACK
6
CONTINUOUS
10
1.18163
20
0.916899
11
1.17908
21
0.918605
0
LINE
8
BLACK
6
CONTINUOUS
10
1.17908
20
0.918605
11
1.17737
21
0.92116
0
LINE
8
BLACK
6
CONTINUOUS
10
1.17737
20
0.92116
11
1.17677
21
0.924173
0
LINE
8
BLACK
6
CONTINUOUS
10
1.17677
20
0.924173
11
1.17677
21
0.945827
0
LINE
8
BLACK
6
CONTINUOUS
10
1.17677
20
0.945827
11
1.17737
21
0.94884
0
LINE
8
BLACK
6
CONTINUOUS
10
1.17737
20
0.94884
11
1.17908
21
0.951395
0
LINE
8
BLACK
6
CONTINUOUS
10
1.17908
20
0.951395
11
1.18163
21
0.953101
0
LINE
8
BLACK
6
CONTINUOUS
10
1.18163
20
0.953101
11
1.18465
21
0.953701
0
LINE
8
BLACK
6
CONTINUOUS
10
1.18465
20
0.953701
11
1.20039
21
0.953701
0
LINE
8
BLACK
6
CONTINUOUS
10
1.20039
20
0.953701
11
1.20341
21
0.953101
0
LINE
8
BLACK
6
CONTINUOUS
10
1.26837
20
0.953101
11
1.27092
21
0.951395
0
LINE
8
BLACK
6
CONTINUOUS
10
1.27092
20
0.951395
11
1.27263
21
0.94884
0
LINE
8
BLACK
6
CONTINUOUS
10
1.27263
20
0.94884
11
1.27323
21
0.945827
0
LINE
8
BLACK
6
CONTINUOUS
10
1.27323
20
0.945827
11
1.27323
21
0.924173
0
LINE
8
BLACK
6
CONTINUOUS
10
1.27323
20
0.924173
11
1.27263
21
0.92116
0
LINE
8
BLACK
6
CONTINUOUS
10
1.27263
20
0.92116
11
1.27092
21
0.918605
0
LINE
8
BLACK
6
CONTINUOUS
10
1.27092
20
0.918605
11
1.26837
21
0.916899
0
LINE
8
BLACK
6
CONTINUOUS
10
1.26837
20
0.916899
11
1.26535
21
0.916299
0
LINE
8
BLACK
6
CONTINUOUS
10
1.26535
20
0.916299
11
1.24961
21
0.916299
0
LINE
8
BLACK
6
CONTINUOUS
10
1.24961
20
0.916299
11
1.24659
21
0.916899
0
LINE
8
BLACK
6
CONTINUOUS
10
1.24659
20
0.916899
11
1.24404
21
0.918605
0
LINE
8
BLACK
6
CONTINUOUS
10
1.24404
20
0.918605
11
1.24233
21
0.92116
0
LINE
8
BLACK
6
CONTINUOUS
10
1.24233
20
0.92116
11
1.24173
21
0.924173
0
LINE
8
BLACK
6
CONTINUOUS
10
1.24173
20
0.924173
11
1.24173
21
0.945827
0
LINE
8
BLACK
6
CONTINUOUS
10
1.24173
20
0.945827
11
1.24233
21
0.94884
0
LINE
8
BLACK
6
CONTINUOUS
10
1.24233
20
0.94884
11
1.24404
21
0.951395
0
LINE
8
BLACK
6
CONTINUOUS
10
1.24404
20
0.951395
11
1.24659
21
0.953101
0
LINE
8
BLACK
6
CONTINUOUS
10
1.24659
20
0.953101
11
1.24961
21
0.953701
0
LINE
8
BLACK
6
CONTINUOUS
10
1.24961
20
0.953701
11
1.26535
21
0.953701
0
LINE
8
BLACK
6
CONTINUOUS
10
1.26535
20
0.953701
11
1.26837
21
0.953101
0
LINE
8
BLACK
6
CONTINUOUS
10
1.33341
20
0.953101
11
1.33596
21
0.951395
0
LINE
8
BLACK
6
CONTINUOUS
10
1.33596
20
0.951395
11
1.33767
21
0.94884
0
LINE
8
BLACK
6
CONTINUOUS
10
1.33767
20
0.94884
11
1.33827
21
0.945827
0
LINE
8
BLACK
6
CONTINUOUS
10
1.33827
20
0.945827
11
1.33827
21
0.924173
0
LINE
8
BLACK
6
CONTINUOUS
10
1.33827
20
0.924173
11
1.33767
21
0.92116
0
LINE
8
BLACK
6
CONTINUOUS
10
1.33767
20
0.92116
11
1.33596
21
0.918605
0
LINE
8
BLACK
6
CONTINUOUS
10
1.33596
20
0.918605
11
1.33341
21
0.916899
0
LINE
8
BLACK
6
CONTINUOUS
10
1.33341
20
0.916899
11
1.33039
21
0.916299
0
LINE
8
BLACK
6
CONTINUOUS
10
1.33039
20
0.916299
11
1.31465
21
0.916299
0
LINE
8
BLACK
6
CONTINUOUS
10
1.31465
20
0.916299
11
1.31163
21
0.916899
0
LINE
8
BLACK
6
CONTINUOUS
10
1.31163
20
0.916899
11
1.30908
21
0.918605
0
LINE
8
BLACK
6
CONTINUOUS
10
1.30908
20
0.918605
11
1.30737
21
0.92116
0
LINE
8
BLACK
6
CONTINUOUS
10
1.30737
20
0.92116
11
1.30677
21
0.924173
0
LINE
8
BLACK
6
CONTINUOUS
10
1.30677
20
0.924173
11
1.30677
21
0.945827
0
LINE
8
BLACK
6
CONTINUOUS
10
1.30677
20
0.945827
11
1.30737
21
0.94884
0
LINE
8
BLACK
6
CONTINUOUS
10
1.30737
20
0.94884
11
1.30908
21
0.951395
0
LINE
8
BLACK
6
CONTINUOUS
10
1.30908
20
0.951395
11
1.31163
21
0.953101
0
LINE
8
BLACK
6
CONTINUOUS
10
1.31163
20
0.953101
11
1.31465
21
0.953701
0
LINE
8
BLACK
6
CONTINUOUS
10
1.31465
20
0.953701
11
1.33039
21
0.953701
0
LINE
8
BLACK
6
CONTINUOUS
10
1.33039
20
0.953701
11
1.33341
21
0.953101
0
LINE
8
BLACK
6
CONTINUOUS
10
1.39837
20
0.953101
11
1.40092
21
0.951395
0
LINE
8
BLACK
6
CONTINUOUS
10
1.40092
20
0.951395
11
1.40263
21
0.94884
0
LINE
8
BLACK
6
CONTINUOUS
10
1.40263
20
0.94884
11
1.40323
21
0.945827
0
LINE
8
BLACK
6
CONTINUOUS
10
1.40323
20
0.945827
11
1.40323
21
0.924173
0
LINE
8
BLACK
6
CONTINUOUS
10
1.40323
20
0.924173
11
1.40263
21
0.92116
0
LINE
8
BLACK
6
CONTINUOUS
10
1.40263
20
0.92116
11
1.40092
21
0.918605
0
LINE
8
BLACK
6
CONTINUOUS
10
1.40092
20
0.918605
11
1.39837
21
0.916899
0
LINE
8
BLACK
6
CONTINUOUS
10
1.39837
20
0.916899
11
1.39535
21
0.916299
0
LINE
8
BLACK
6
CONTINUOUS
10
1.39535
20
0.916299
11
1.37961
21
0.916299
0
LINE
8
BLACK
6
CONTINUOUS
10
1.37961
20
0.916299
11
1.37659
21
0.916899
0
LINE
8
BLACK
6
CONTINUOUS
10
1.37659
20
0.916899
11
1.37404
21
0.918605
0
LINE
8
BLACK
6
CONTINUOUS
10
1.37404
20
0.918605
11
1.37233
21
0.92116
0
LINE
8
BLACK
6
CONTINUOUS
10
1.37233
20
0.92116
11
1.37173
21
0.924173
0
LINE
8
BLACK
6
CONTINUOUS
10
1.37173
20
0.924173
11
1.37173
21
0.945827
0
LINE
8
BLACK
6
CONTINUOUS
10
1.37173
20
0.945827
11
1.37233
21
0.94884
0
LINE
8
BLACK
6
CONTINUOUS
10
1.37233
20
0.94884
11
1.37404
21
0.951395
0
LINE
8
BLACK
6
CONTINUOUS
10
1.37404
20
0.951395
11
1.37659
21
0.953101
0
LINE
8
BLACK
6
CONTINUOUS
10
1.37659
20
0.953101
11
1.37961
21
0.953701
0
LINE
8
BLACK
6
CONTINUOUS
10
1.37961
20
0.953701
11
1.39535
21
0.953701
0
LINE
8
BLACK
6
CONTINUOUS
10
1.39535
20
0.953701
11
1.39837
21
0.953101
0
LINE
8
BLACK
6
CONTINUOUS
10
2.35331
20
0.9934
11
2.3561
21
0.991533
0
LINE
8
BLACK
6
CONTINUOUS
10
2.3561
20
0.991533
11
2.35797
21
0.988739
0
LINE
8
BLACK
6
CONTINUOUS
10
2.35797
20
0.988739
11
2.35862
21
0.985443
0
LINE
8
BLACK
6
CONTINUOUS
10
2.35862
20
0.985443
11
2.35862
21
0.968219
0
LINE
8
BLACK
6
CONTINUOUS
10
2.35862
20
0.968219
11
2.35797
21
0.964923
0
LINE
8
BLACK
6
CONTINUOUS
10
2.35797
20
0.964923
11
2.3561
21
0.962129
0
LINE
8
BLACK
6
CONTINUOUS
10
2.3561
20
0.962129
11
2.35331
21
0.960262
0
LINE
8
BLACK
6
CONTINUOUS
10
2.35331
20
0.960262
11
2.35001
21
0.959606
0
LINE
8
BLACK
6
CONTINUOUS
10
2.35001
20
0.959606
11
2.31999
21
0.959606
0
LINE
8
BLACK
6
CONTINUOUS
10
2.31999
20
0.959606
11
2.31669
21
0.960262
0
LINE
8
BLACK
6
CONTINUOUS
10
2.31669
20
0.960262
11
2.3139
21
0.962129
0
LINE
8
BLACK
6
CONTINUOUS
10
2.3139
20
0.962129
11
2.31203
21
0.964923
0
LINE
8
BLACK
6
CONTINUOUS
10
2.31203
20
0.964923
11
2.31138
21
0.968219
0
LINE
8
BLACK
6
CONTINUOUS
10
2.31138
20
0.968219
11
2.31138
21
0.985443
0
LINE
8
BLACK
6
CONTINUOUS
10
2.31138
20
0.985443
11
2.31203
21
0.988739
0
LINE
8
BLACK
6
CONTINUOUS
10
2.31203
20
0.988739
11
2.3139
21
0.991533
0
LINE
8
BLACK
6
CONTINUOUS
10
2.3139
20
0.991533
11
2.31669
21
0.9934
0
LINE
8
BLACK
6
CONTINUOUS
10
2.31669
20
0.9934
11
2.31999
21
0.994055
0
LINE
8
BLACK
6
CONTINUOUS
10
2.31999
20
0.994055
11
2.35001
21
0.994055
0
LINE
8
BLACK
6
CONTINUOUS
10
2.35001
20
0.994055
11
2.35331
21
0.9934
0
LINE
8
BLACK
6
CONTINUOUS
10
1.2923
20
1.02136
11
1.29422
21
1.02008
0
LINE
8
BLACK
6
CONTINUOUS
10
1.29422
20
1.02008
11
1.2955
21
1.01817
0
LINE
8
BLACK
6
CONTINUOUS
10
1.2955
20
1.01817
11
1.29594
21
1.01591
0
LINE
8
BLACK
6
CONTINUOUS
10
1.29594
20
1.01591
11
1.29594
21
1.00409
0
LINE
8
BLACK
6
CONTINUOUS
10
1.29594
20
1.00409
11
1.2955
21
1.00183
0
LINE
8
BLACK
6
CONTINUOUS
10
1.2955
20
1.00183
11
1.29422
21
0.999919
0
LINE
8
BLACK
6
CONTINUOUS
10
1.29422
20
0.999919
11
1.2923
21
0.998639
0
LINE
8
BLACK
6
CONTINUOUS
10
1.2923
20
0.998639
11
1.29004
21
0.998189
0
LINE
8
BLACK
6
CONTINUOUS
10
1.29004
20
0.998189
11
1.22508
21
0.998189
0
LINE
8
BLACK
6
CONTINUOUS
10
1.22508
20
0.998189
11
1.22282
21
0.998639
0
LINE
8
BLACK
6
CONTINUOUS
10
1.22282
20
0.998639
11
1.2209
21
0.999919
0
LINE
8
BLACK
6
CONTINUOUS
10
1.2209
20
0.999919
11
1.21962
21
1.00183
0
LINE
8
BLACK
6
CONTINUOUS
10
1.21962
20
1.00183
11
1.21917
21
1.00409
0
LINE
8
BLACK
6
CONTINUOUS
10
1.21917
20
1.00409
11
1.21917
21
1.01591
0
LINE
8
BLACK
6
CONTINUOUS
10
1.21917
20
1.01591
11
1.21962
21
1.01817
0
LINE
8
BLACK
6
CONTINUOUS
10
1.21962
20
1.01817
11
1.2209
21
1.02008
0
LINE
8
BLACK
6
CONTINUOUS
10
1.2209
20
1.02008
11
1.22282
21
1.02136
0
LINE
8
BLACK
6
CONTINUOUS
10
1.22282
20
1.02136
11
1.22508
21
1.02181
0
LINE
8
BLACK
6
CONTINUOUS
10
1.22508
20
1.02181
11
1.29004
21
1.02181
0
LINE
8
BLACK
6
CONTINUOUS
10
1.29004
20
1.02181
11
1.2923
21
1.02136
0
LINE
8
BLACK
6
CONTINUOUS
10
1.48718
20
1.02136
11
1.4891
21
1.02008
0
LINE
8
BLACK
6
CONTINUOUS
10
1.4891
20
1.02008
11
1.49038
21
1.01817
0
LINE
8
BLACK
6
CONTINUOUS
10
1.49038
20
1.01817
11
1.49083
21
1.01591
0
LINE
8
BLACK
6
CONTINUOUS
10
1.49083
20
1.01591
11
1.49083
21
1.00409
0
LINE
8
BLACK
6
CONTINUOUS
10
1.49083
20
1.00409
11
1.49038
21
1.00183
0
LINE
8
BLACK
6
CONTINUOUS
10
1.49038
20
1.00183
11
1.4891
21
0.999919
0
LINE
8
BLACK
6
CONTINUOUS
10
1.4891
20
0.999919
11
1.48718
21
0.998639
0
LINE
8
BLACK
6
CONTINUOUS
10
1.48718
20
0.998639
11
1.48492
21
0.998189
0
LINE
8
BLACK
6
CONTINUOUS
10
1.48492
20
0.998189
11
1.41996
21
0.998189
0
LINE
8
BLACK
6
CONTINUOUS
10
1.41996
20
0.998189
11
1.4177
21
0.998639
0
LINE
8
BLACK
6
CONTINUOUS
10
1.4177
20
0.998639
11
1.41578
21
0.999919
0
LINE
8
BLACK
6
CONTINUOUS
10
1.41578
20
0.999919
11
1.4145
21
1.00183
0
LINE
8
BLACK
6
CONTINUOUS
10
1.4145
20
1.00183
11
1.41406
21
1.00409
0
LINE
8
BLACK
6
CONTINUOUS
10
1.41406
20
1.00409
11
1.41406
21
1.01591
0
LINE
8
BLACK
6
CONTINUOUS
10
1.41406
20
1.01591
11
1.4145
21
1.01817
0
LINE
8
BLACK
6
CONTINUOUS
10
1.4145
20
1.01817
11
1.41578
21
1.02008
0
LINE
8
BLACK
6
CONTINUOUS
10
1.41578
20
1.02008
11
1.4177
21
1.02136
0
LINE
8
BLACK
6
CONTINUOUS
10
1.4177
20
1.02136
11
1.41996
21
1.02181
0
LINE
8
BLACK
6
CONTINUOUS
10
1.41996
20
1.02181
11
1.48492
21
1.02181
0
LINE
8
BLACK
6
CONTINUOUS
10
1.48492
20
1.02181
11
1.48718
21
1.02136
0
LINE
8
BLACK
6
CONTINUOUS
10
0.335
20
1.01
11
0.275
21
1.01
0
LINE
8
BLACK
6
CONTINUOUS
10
0.275
20
1.01
11
0.275
21
1.07
0
LINE
8
BLACK
6
CONTINUOUS
10
0.275
20
1.07
11
0.335
21
1.07
0
LINE
8
BLACK
6
CONTINUOUS
10
0.335
20
1.07
11
0.335
21
1.01
0
LINE
8
BLACK
6
CONTINUOUS
10
0.435
20
1.01
11
0.375
21
1.01
0
LINE
8
BLACK
6
CONTINUOUS
10
0.375
20
1.01
11
0.375
21
1.07
0
LINE
8
BLACK
6
CONTINUOUS
10
0.375
20
1.07
11
0.435
21
1.07
0
LINE
8
BLACK
6
CONTINUOUS
10
0.435
20
1.07
11
0.435
21
1.01
0
LINE
8
BLACK
6
CONTINUOUS
10
1.17648
20
1.0685
11
1.17968
21
1.06637
0
LINE
8
BLACK
6
CONTINUOUS
10
1.17968
20
1.06637
11
1.18181
21
1.06318
0
LINE
8
BLACK
6
CONTINUOUS
10
1.18181
20
1.06318
11
1.18256
21
1.05941
0
LINE
8
BLACK
6
CONTINUOUS
10
1.18256
20
1.05941
11
1.18256
21
1.03874
0
LINE
8
BLACK
6
CONTINUOUS
10
1.18256
20
1.03874
11
1.18181
21
1.03497
0
LINE
8
BLACK
6
CONTINUOUS
10
1.18181
20
1.03497
11
1.17968
21
1.03178
0
LINE
8
BLACK
6
CONTINUOUS
10
1.17968
20
1.03178
11
1.17648
21
1.02965
0
LINE
8
BLACK
6
CONTINUOUS
10
1.17648
20
1.02965
11
1.17272
21
1.0289
0
LINE
8
BLACK
6
CONTINUOUS
10
1.17272
20
1.0289
11
1.13728
21
1.0289
0
LINE
8
BLACK
6
CONTINUOUS
10
1.13728
20
1.0289
11
1.13352
21
1.02965
0
LINE
8
BLACK
6
CONTINUOUS
10
1.13352
20
1.02965
11
1.13032
21
1.03178
0
LINE
8
BLACK
6
CONTINUOUS
10
1.13032
20
1.03178
11
1.12819
21
1.03497
0
LINE
8
BLACK
6
CONTINUOUS
10
1.12819
20
1.03497
11
1.12744
21
1.03874
0
LINE
8
BLACK
6
CONTINUOUS
10
1.12744
20
1.03874
11
1.12744
21
1.05941
0
LINE
8
BLACK
6
CONTINUOUS
10
1.12744
20
1.05941
11
1.12819
21
1.06318
0
LINE
8
BLACK
6
CONTINUOUS
10
1.12819
20
1.06318
11
1.13032
21
1.06637
0
LINE
8
BLACK
6
CONTINUOUS
10
1.13032
20
1.06637
11
1.13352
21
1.0685
0
LINE
8
BLACK
6
CONTINUOUS
10
1.13352
20
1.0685
11
1.13728
21
1.06925
0
LINE
8
BLACK
6
CONTINUOUS
10
1.13728
20
1.06925
11
1.17272
21
1.06925
0
LINE
8
BLACK
6
CONTINUOUS
10
1.17272
20
1.06925
11
1.17648
21
1.0685
0
LINE
8
BLACK
6
CONTINUOUS
10
0.0104724
20
1.03047
11
-0.0111811
21
1.03047
0
LINE
8
BLACK
6
CONTINUOUS
10
-0.0111811
20
1.03047
11
-0.0111811
21
1.03067
0
LINE
8
BLACK
6
CONTINUOUS
10
-0.0111811
20
1.03067
11
-0.0139826
21
1.03067
0
LINE
8
BLACK
6
CONTINUOUS
10
-0.0139826
20
1.03067
11
-0.0193586
21
1.03225
0
LINE
8
BLACK
6
CONTINUOUS
10
-0.0193586
20
1.03225
11
-0.024072
21
1.03528
0
LINE
8
BLACK
6
CONTINUOUS
10
-0.024072
20
1.03528
11
-0.0277412
21
1.03951
0
LINE
8
BLACK
6
CONTINUOUS
10
-0.0277412
20
1.03951
11
-0.0300687
21
1.04461
0
LINE
8
BLACK
6
CONTINUOUS
10
-0.0300687
20
1.04461
11
-0.0308661
21
1.05016
0
LINE
8
BLACK
6
CONTINUOUS
10
-0.0308661
20
1.05016
11
-0.0308661
21
1.06984
0
LINE
8
BLACK
6
CONTINUOUS
10
-0.0308661
20
1.06984
11
-0.0300687
21
1.07539
0
LINE
8
BLACK
6
CONTINUOUS
10
-0.0300687
20
1.07539
11
-0.0277412
21
1.08049
0
LINE
8
BLACK
6
CONTINUOUS
10
-0.0277412
20
1.08049
11
-0.024072
21
1.08472
0
LINE
8
BLACK
6
CONTINUOUS
10
-0.024072
20
1.08472
11
-0.0193586
21
1.08775
0
LINE
8
BLACK
6
CONTINUOUS
10
-0.0193586
20
1.08775
11
-0.0139826
21
1.08933
0
LINE
8
BLACK
6
CONTINUOUS
10
-0.0139826
20
1.08933
11
-0.0111811
21
1.08933
0
LINE
8
BLACK
6
CONTINUOUS
10
-0.0111811
20
1.08933
11
-0.0111811
21
1.08953
0
LINE
8
BLACK
6
CONTINUOUS
10
-0.0111811
20
1.08953
11
0.0104724
21
1.08953
0
LINE
8
BLACK
6
CONTINUOUS
10
0.0104724
20
1.08953
11
0.0104724
21
1.03047
0
LINE
8
BLACK
6
CONTINUOUS
10
0.059685
20
1.03047
11
0.020315
21
1.03047
0
LINE
8
BLACK
6
CONTINUOUS
10
0.020315
20
1.03047
11
0.020315
21
1.08953
0
LINE
8
BLACK
6
CONTINUOUS
10
0.020315
20
1.08953
11
0.059685
21
1.08953
0
LINE
8
BLACK
6
CONTINUOUS
10
0.059685
20
1.08953
11
0.059685
21
1.03047
0
LINE
8
BLACK
6
CONTINUOUS
10
0.0911811
20
1.08933
11
0.0939826
21
1.08933
0
LINE
8
BLACK
6
CONTINUOUS
10
0.0939826
20
1.08933
11
0.0993586
21
1.08775
0
LINE
8
BLACK
6
CONTINUOUS
10
0.0993586
20
1.08775
11
0.104072
21
1.08472
0
LINE
8
BLACK
6
CONTINUOUS
10
0.104072
20
1.08472
11
0.107741
21
1.08049
0
LINE
8
BLACK
6
CONTINUOUS
10
0.107741
20
1.08049
11
0.110069
21
1.07539
0
LINE
8
BLACK
6
CONTINUOUS
10
0.110069
20
1.07539
11
0.110866
21
1.06984
0
LINE
8
BLACK
6
CONTINUOUS
10
0.110866
20
1.06984
11
0.110866
21
1.05016
0
LINE
8
BLACK
6
CONTINUOUS
10
0.110866
20
1.05016
11
0.110069
21
1.04461
0
LINE
8
BLACK
6
CONTINUOUS
10
0.110069
20
1.04461
11
0.107741
21
1.03951
0
LINE
8
BLACK
6
CONTINUOUS
10
0.107741
20
1.03951
11
0.104072
21
1.03528
0
LINE
8
BLACK
6
CONTINUOUS
10
0.104072
20
1.03528
11
0.0993586
21
1.03225
0
LINE
8
BLACK
6
CONTINUOUS
10
0.0993586
20
1.03225
11
0.0939826
21
1.03067
0
LINE
8
BLACK
6
CONTINUOUS
10
0.0939826
20
1.03067
11
0.0911811
21
1.03067
0
LINE
8
BLACK
6
CONTINUOUS
10
0.0911811
20
1.03067
11
0.0911811
21
1.03047
0
LINE
8
BLACK
6
CONTINUOUS
10
0.0911811
20
1.03047
11
0.0695276
21
1.03047
0
LINE
8
BLACK
6
CONTINUOUS
10
0.0695276
20
1.03047
11
0.0695276
21
1.08953
0
LINE
8
BLACK
6
CONTINUOUS
10
0.0695276
20
1.08953
11
0.0911811
21
1.08953
0
LINE
8
BLACK
6
CONTINUOUS
10
0.0911811
20
1.08953
11
0.0911811
21
1.08933
0
LINE
8
BLACK
6
CONTINUOUS
10
2.31318
20
1.08681
11
2.31637
21
1.08468
0
LINE
8
BLACK
6
CONTINUOUS
10
2.31637
20
1.08468
11
2.3185
21
1.08148
0
LINE
8
BLACK
6
CONTINUOUS
10
2.3185
20
1.08148
11
2.31925
21
1.07772
0
LINE
8
BLACK
6
CONTINUOUS
10
2.31925
20
1.07772
11
2.31925
21
1.04228
0
LINE
8
BLACK
6
CONTINUOUS
10
2.31925
20
1.04228
11
2.3185
21
1.03852
0
LINE
8
BLACK
6
CONTINUOUS
10
2.3185
20
1.03852
11
2.31637
21
1.03532
0
LINE
8
BLACK
6
CONTINUOUS
10
2.31637
20
1.03532
11
2.31318
21
1.03319
0
LINE
8
BLACK
6
CONTINUOUS
10
2.31318
20
1.03319
11
2.30941
21
1.03244
0
LINE
8
BLACK
6
CONTINUOUS
10
2.30941
20
1.03244
11
2.28874
21
1.03244
0
LINE
8
BLACK
6
CONTINUOUS
10
2.28874
20
1.03244
11
2.28497
21
1.03319
0
LINE
8
BLACK
6
CONTINUOUS
10
2.28497
20
1.03319
11
2.28178
21
1.03532
0
LINE
8
BLACK
6
CONTINUOUS
10
2.28178
20
1.03532
11
2.27965
21
1.03852
0
LINE
8
BLACK
6
CONTINUOUS
10
2.27965
20
1.03852
11
2.2789
21
1.04228
0
LINE
8
BLACK
6
CONTINUOUS
10
2.2789
20
1.04228
11
2.2789
21
1.07772
0
LINE
8
BLACK
6
CONTINUOUS
10
2.2789
20
1.07772
11
2.27965
21
1.08148
0
LINE
8
BLACK
6
CONTINUOUS
10
2.27965
20
1.08148
11
2.28178
21
1.08468
0
LINE
8
BLACK
6
CONTINUOUS
10
2.28178
20
1.08468
11
2.28497
21
1.08681
0
LINE
8
BLACK
6
CONTINUOUS
10
2.28497
20
1.08681
11
2.28874
21
1.08756
0
LINE
8
BLACK
6
CONTINUOUS
10
2.28874
20
1.08756
11
2.30941
21
1.08756
0
LINE
8
BLACK
6
CONTINUOUS
10
2.30941
20
1.08756
11
2.31318
21
1.08681
0
LINE
8
BLACK
6
CONTINUOUS
10
2.38503
20
1.08681
11
2.38822
21
1.08468
0
LINE
8
BLACK
6
CONTINUOUS
10
2.38822
20
1.08468
11
2.39035
21
1.08148
0
LINE
8
BLACK
6
CONTINUOUS
10
2.39035
20
1.08148
11
2.3911
21
1.07772
0
LINE
8
BLACK
6
CONTINUOUS
10
2.3911
20
1.07772
11
2.3911
21
1.04228
0
LINE
8
BLACK
6
CONTINUOUS
10
2.3911
20
1.04228
11
2.39035
21
1.03852
0
LINE
8
BLACK
6
CONTINUOUS
10
2.39035
20
1.03852
11
2.38822
21
1.03532
0
LINE
8
BLACK
6
CONTINUOUS
10
2.38822
20
1.03532
11
2.38503
21
1.03319
0
LINE
8
BLACK
6
CONTINUOUS
10
2.38503
20
1.03319
11
2.38126
21
1.03244
0
LINE
8
BLACK
6
CONTINUOUS
10
2.38126
20
1.03244
11
2.36059
21
1.03244
0
LINE
8
BLACK
6
CONTINUOUS
10
2.36059
20
1.03244
11
2.35682
21
1.03319
0
LINE
8
BLACK
6
CONTINUOUS
10
2.35682
20
1.03319
11
2.35363
21
1.03532
0
LINE
8
BLACK
6
CONTINUOUS
10
2.35363
20
1.03532
11
2.3515
21
1.03852
0
LINE
8
BLACK
6
CONTINUOUS
10
2.3515
20
1.03852
11
2.35075
21
1.04228
0
LINE
8
BLACK
6
CONTINUOUS
10
2.35075
20
1.04228
11
2.35075
21
1.07772
0
LINE
8
BLACK
6
CONTINUOUS
10
2.35075
20
1.07772
11
2.3515
21
1.08148
0
LINE
8
BLACK
6
CONTINUOUS
10
2.3515
20
1.08148
11
2.35363
21
1.08468
0
LINE
8
BLACK
6
CONTINUOUS
10
2.35363
20
1.08468
11
2.35682
21
1.08681
0
LINE
8
BLACK
6
CONTINUOUS
10
2.35682
20
1.08681
11
2.36059
21
1.08756
0
LINE
8
BLACK
6
CONTINUOUS
10
2.36059
20
1.08756
11
2.38126
21
1.08756
0
LINE
8
BLACK
6
CONTINUOUS
10
2.38126
20
1.08756
11
2.38503
21
1.08681
0
LINE
8
BLACK
6
CONTINUOUS
10
1.10823
20
1.07153
11
1.11111
21
1.06961
0
LINE
8
BLACK
6
CONTINUOUS
10
1.11111
20
1.06961
11
1.11303
21
1.06674
0
LINE
8
BLACK
6
CONTINUOUS
10
1.11303
20
1.06674
11
1.1137
21
1.06335
0
LINE
8
BLACK
6
CONTINUOUS
10
1.1137
20
1.06335
11
1.1137
21
1.04563
0
LINE
8
BLACK
6
CONTINUOUS
10
1.1137
20
1.04563
11
1.11303
21
1.04224
0
LINE
8
BLACK
6
CONTINUOUS
10
1.11303
20
1.04224
11
1.11111
21
1.03937
0
LINE
8
BLACK
6
CONTINUOUS
10
1.11111
20
1.03937
11
1.10823
21
1.03745
0
LINE
8
BLACK
6
CONTINUOUS
10
1.10823
20
1.03745
11
1.10484
21
1.03677
0
LINE
8
BLACK
6
CONTINUOUS
10
1.10484
20
1.03677
11
1.08516
21
1.03677
0
LINE
8
BLACK
6
CONTINUOUS
10
1.08516
20
1.03677
11
1.08177
21
1.03745
0
LINE
8
BLACK
6
CONTINUOUS
10
1.08177
20
1.03745
11
1.07889
21
1.03937
0
LINE
8
BLACK
6
CONTINUOUS
10
1.07889
20
1.03937
11
1.07697
21
1.04224
0
LINE
8
BLACK
6
CONTINUOUS
10
1.07697
20
1.04224
11
1.0763
21
1.04563
0
LINE
8
BLACK
6
CONTINUOUS
10
1.0763
20
1.04563
11
1.0763
21
1.06335
0
LINE
8
BLACK
6
CONTINUOUS
10
1.0763
20
1.06335
11
1.07697
21
1.06674
0
LINE
8
BLACK
6
CONTINUOUS
10
1.07697
20
1.06674
11
1.07889
21
1.06961
0
LINE
8
BLACK
6
CONTINUOUS
10
1.07889
20
1.06961
11
1.08177
21
1.07153
0
LINE
8
BLACK
6
CONTINUOUS
10
1.08177
20
1.07153
11
1.08516
21
1.0722
0
LINE
8
BLACK
6
CONTINUOUS
10
1.08516
20
1.0722
11
1.10484
21
1.0722
0
LINE
8
BLACK
6
CONTINUOUS
10
1.10484
20
1.0722
11
1.10823
21
1.07153
0
LINE
8
BLACK
6
CONTINUOUS
10
0.793701
20
1.04331
11
0.754331
21
1.04331
0
LINE
8
BLACK
6
CONTINUOUS
10
0.754331
20
1.04331
11
0.754331
21
1.19291
0
LINE
8
BLACK
6
CONTINUOUS
10
0.754331
20
1.19291
11
0.793701
21
1.19291
0
LINE
8
BLACK
6
CONTINUOUS
10
0.793701
20
1.19291
11
0.793701
21
1.04331
0
LINE
8
BLACK
6
CONTINUOUS
10
2.04567
20
1.04331
11
2.0063
21
1.04331
0
LINE
8
BLACK
6
CONTINUOUS
10
2.0063
20
1.04331
11
2.0063
21
1.19291
0
LINE
8
BLACK
6
CONTINUOUS
10
2.0063
20
1.19291
11
2.04567
21
1.19291
0
LINE
8
BLACK
6
CONTINUOUS
10
2.04567
20
1.19291
11
2.04567
21
1.04331
0
LINE
8
BLACK
6
CONTINUOUS
10
1.2923
20
1.07136
11
1.29422
21
1.07008
0
LINE
8
BLACK
6
CONTINUOUS
10
1.29422
20
1.07008
11
1.2955
21
1.06817
0
LINE
8
BLACK
6
CONTINUOUS
10
1.2955
20
1.06817
11
1.29594
21
1.06591
0
LINE
8
BLACK
6
CONTINUOUS
10
1.29594
20
1.06591
11
1.29594
21
1.05409
0
LINE
8
BLACK
6
CONTINUOUS
10
1.29594
20
1.05409
11
1.2955
21
1.05183
0
LINE
8
BLACK
6
CONTINUOUS
10
1.2955
20
1.05183
11
1.29422
21
1.04992
0
LINE
8
BLACK
6
CONTINUOUS
10
1.29422
20
1.04992
11
1.2923
21
1.04864
0
LINE
8
BLACK
6
CONTINUOUS
10
1.2923
20
1.04864
11
1.29004
21
1.04819
0
LINE
8
BLACK
6
CONTINUOUS
10
1.29004
20
1.04819
11
1.22508
21
1.04819
0
LINE
8
BLACK
6
CONTINUOUS
10
1.22508
20
1.04819
11
1.22282
21
1.04864
0
LINE
8
BLACK
6
CONTINUOUS
10
1.22282
20
1.04864
11
1.2209
21
1.04992
0
LINE
8
BLACK
6
CONTINUOUS
10
1.2209
20
1.04992
11
1.21962
21
1.05183
0
LINE
8
BLACK
6
CONTINUOUS
10
1.21962
20
1.05183
11
1.21917
21
1.05409
0
LINE
8
BLACK
6
CONTINUOUS
10
1.21917
20
1.05409
11
1.21917
21
1.06591
0
LINE
8
BLACK
6
CONTINUOUS
10
1.21917
20
1.06591
11
1.21962
21
1.06817
0
LINE
8
BLACK
6
CONTINUOUS
10
1.21962
20
1.06817
11
1.2209
21
1.07008
0
LINE
8
BLACK
6
CONTINUOUS
10
1.2209
20
1.07008
11
1.22282
21
1.07136
0
LINE
8
BLACK
6
CONTINUOUS
10
1.22282
20
1.07136
11
1.22508
21
1.07181
0
LINE
8
BLACK
6
CONTINUOUS
10
1.22508
20
1.07181
11
1.29004
21
1.07181
0
LINE
8
BLACK
6
CONTINUOUS
10
1.29004
20
1.07181
11
1.2923
21
1.07136
0
LINE
8
BLACK
6
CONTINUOUS
10
1.48718
20
1.07136
11
1.4891
21
1.07008
0
LINE
8
BLACK
6
CONTINUOUS
10
1.4891
20
1.07008
11
1.49038
21
1.06817
0
LINE
8
BLACK
6
CONTINUOUS
10
1.49038
20
1.06817
11
1.49083
21
1.06591
0
LINE
8
BLACK
6
CONTINUOUS
10
1.49083
20
1.06591
11
1.49083
21
1.05409
0
LINE
8
BLACK
6
CONTINUOUS
10
1.49083
20
1.05409
11
1.49038
21
1.05183
0
LINE
8
BLACK
6
CONTINUOUS
10
1.49038
20
1.05183
11
1.4891
21
1.04992
0
LINE
8
BLACK
6
CONTINUOUS
10
1.4891
20
1.04992
11
1.48718
21
1.04864
0
LINE
8
BLACK
6
CONTINUOUS
10
1.48718
20
1.04864
11
1.48492
21
1.04819
0
LINE
8
BLACK
6
CONTINUOUS
10
1.48492
20
1.04819
11
1.41996
21
1.04819
0
LINE
8
BLACK
6
CONTINUOUS
10
1.41996
20
1.04819
11
1.4177
21
1.04864
0
LINE
8
BLACK
6
CONTINUOUS
10
1.4177
20
1.04864
11
1.41578
21
1.04992
0
LINE
8
BLACK
6
CONTINUOUS
10
1.41578
20
1.04992
11
1.4145
21
1.05183
0
LINE
8
BLACK
6
CONTINUOUS
10
1.4145
20
1.05183
11
1.41406
21
1.05409
0
LINE
8
BLACK
6
CONTINUOUS
10
1.41406
20
1.05409
11
1.41406
21
1.06591
0
LINE
8
BLACK
6
CONTINUOUS
10
1.41406
20
1.06591
11
1.4145
21
1.06817
0
LINE
8
BLACK
6
CONTINUOUS
10
1.4145
20
1.06817
11
1.41578
21
1.07008
0
LINE
8
BLACK
6
CONTINUOUS
10
1.41578
20
1.07008
11
1.4177
21
1.07136
0
LINE
8
BLACK
6
CONTINUOUS
10
1.4177
20
1.07136
11
1.41996
21
1.07181
0
LINE
8
BLACK
6
CONTINUOUS
10
1.41996
20
1.07181
11
1.48492
21
1.07181
0
LINE
8
BLACK
6
CONTINUOUS
10
1.48492
20
1.07181
11
1.48718
21
1.07136
0
LINE
8
BLACK
6
CONTINUOUS
10
1.66648
20
1.1085
11
1.66968
21
1.10637
0
LINE
8
BLACK
6
CONTINUOUS
10
1.66968
20
1.10637
11
1.67181
21
1.10318
0
LINE
8
BLACK
6
CONTINUOUS
10
1.67181
20
1.10318
11
1.67256
21
1.09941
0
LINE
8
BLACK
6
CONTINUOUS
10
1.67256
20
1.09941
11
1.67256
21
1.07874
0
LINE
8
BLACK
6
CONTINUOUS
10
1.67256
20
1.07874
11
1.67181
21
1.07497
0
LINE
8
BLACK
6
CONTINUOUS
10
1.67181
20
1.07497
11
1.66968
21
1.07178
0
LINE
8
BLACK
6
CONTINUOUS
10
1.66968
20
1.07178
11
1.66648
21
1.06965
0
LINE
8
BLACK
6
CONTINUOUS
10
1.66648
20
1.06965
11
1.66272
21
1.0689
0
LINE
8
BLACK
6
CONTINUOUS
10
1.66272
20
1.0689
11
1.62728
21
1.0689
0
LINE
8
BLACK
6
CONTINUOUS
10
1.62728
20
1.0689
11
1.62352
21
1.06965
0
LINE
8
BLACK
6
CONTINUOUS
10
1.62352
20
1.06965
11
1.62032
21
1.07178
0
LINE
8
BLACK
6
CONTINUOUS
10
1.62032
20
1.07178
11
1.61819
21
1.07497
0
LINE
8
BLACK
6
CONTINUOUS
10
1.61819
20
1.07497
11
1.61744
21
1.07874
0
LINE
8
BLACK
6
CONTINUOUS
10
1.61744
20
1.07874
11
1.61744
21
1.09941
0
LINE
8
BLACK
6
CONTINUOUS
10
1.61744
20
1.09941
11
1.61819
21
1.10318
0
LINE
8
BLACK
6
CONTINUOUS
10
1.61819
20
1.10318
11
1.62032
21
1.10637
0
LINE
8
BLACK
6
CONTINUOUS
10
1.62032
20
1.10637
11
1.62352
21
1.1085
0
LINE
8
BLACK
6
CONTINUOUS
10
1.62352
20
1.1085
11
1.62728
21
1.10925
0
LINE
8
BLACK
6
CONTINUOUS
10
1.62728
20
1.10925
11
1.66272
21
1.10925
0
LINE
8
BLACK
6
CONTINUOUS
10
1.66272
20
1.10925
11
1.66648
21
1.1085
0
LINE
8
BLACK
6
CONTINUOUS
10
1.58247
20
1.11153
11
1.58566
21
1.1094
0
LINE
8
BLACK
6
CONTINUOUS
10
1.58566
20
1.1094
11
1.58779
21
1.10621
0
LINE
8
BLACK
6
CONTINUOUS
10
1.58779
20
1.10621
11
1.58854
21
1.10244
0
LINE
8
BLACK
6
CONTINUOUS
10
1.58854
20
1.10244
11
1.58854
21
1.08276
0
LINE
8
BLACK
6
CONTINUOUS
10
1.58854
20
1.08276
11
1.58779
21
1.07899
0
LINE
8
BLACK
6
CONTINUOUS
10
1.58779
20
1.07899
11
1.58566
21
1.0758
0
LINE
8
BLACK
6
CONTINUOUS
10
1.58566
20
1.0758
11
1.58247
21
1.07366
0
LINE
8
BLACK
6
CONTINUOUS
10
1.58247
20
1.07366
11
1.5787
21
1.07291
0
LINE
8
BLACK
6
CONTINUOUS
10
1.5787
20
1.07291
11
1.5413
21
1.07291
0
LINE
8
BLACK
6
CONTINUOUS
10
1.5413
20
1.07291
11
1.53753
21
1.07366
0
LINE
8
BLACK
6
CONTINUOUS
10
1.53753
20
1.07366
11
1.53434
21
1.0758
0
LINE
8
BLACK
6
CONTINUOUS
10
1.53434
20
1.0758
11
1.53221
21
1.07899
0
LINE
8
BLACK
6
CONTINUOUS
10
1.53221
20
1.07899
11
1.53146
21
1.08276
0
LINE
8
BLACK
6
CONTINUOUS
10
1.53146
20
1.08276
11
1.53146
21
1.10244
0
LINE
8
BLACK
6
CONTINUOUS
10
1.53146
20
1.10244
11
1.53221
21
1.10621
0
LINE
8
BLACK
6
CONTINUOUS
10
1.53221
20
1.10621
11
1.53434
21
1.1094
0
LINE
8
BLACK
6
CONTINUOUS
10
1.53434
20
1.1094
11
1.53753
21
1.11153
0
LINE
8
BLACK
6
CONTINUOUS
10
1.53753
20
1.11153
11
1.5413
21
1.11228
0
LINE
8
BLACK
6
CONTINUOUS
10
1.5413
20
1.11228
11
1.5787
21
1.11228
0
LINE
8
BLACK
6
CONTINUOUS
10
1.5787
20
1.11228
11
1.58247
21
1.11153
0
LINE
8
BLACK
6
CONTINUOUS
10
1.10823
20
1.13255
11
1.11111
21
1.13063
0
LINE
8
BLACK
6
CONTINUOUS
10
1.11111
20
1.13063
11
1.11303
21
1.12776
0
LINE
8
BLACK
6
CONTINUOUS
10
1.11303
20
1.12776
11
1.1137
21
1.12437
0
LINE
8
BLACK
6
CONTINUOUS
10
1.1137
20
1.12437
11
1.1137
21
1.10665
0
LINE
8
BLACK
6
CONTINUOUS
10
1.1137
20
1.10665
11
1.11303
21
1.10326
0
LINE
8
BLACK
6
CONTINUOUS
10
1.11303
20
1.10326
11
1.11111
21
1.10039
0
LINE
8
BLACK
6
CONTINUOUS
10
1.11111
20
1.10039
11
1.10823
21
1.09847
0
LINE
8
BLACK
6
CONTINUOUS
10
1.10823
20
1.09847
11
1.10484
21
1.0978
0
LINE
8
BLACK
6
CONTINUOUS
10
1.10484
20
1.0978
11
1.08516
21
1.0978
0
LINE
8
BLACK
6
CONTINUOUS
10
1.08516
20
1.0978
11
1.08177
21
1.09847
0
LINE
8
BLACK
6
CONTINUOUS
10
1.08177
20
1.09847
11
1.07889
21
1.10039
0
LINE
8
BLACK
6
CONTINUOUS
10
1.07889
20
1.10039
11
1.07697
21
1.10326
0
LINE
8
BLACK
6
CONTINUOUS
10
1.07697
20
1.10326
11
1.0763
21
1.10665
0
LINE
8
BLACK
6
CONTINUOUS
10
1.0763
20
1.10665
11
1.0763
21
1.12437
0
LINE
8
BLACK
6
CONTINUOUS
10
1.0763
20
1.12437
11
1.07697
21
1.12776
0
LINE
8
BLACK
6
CONTINUOUS
10
1.07697
20
1.12776
11
1.07889
21
1.13063
0
LINE
8
BLACK
6
CONTINUOUS
10
1.07889
20
1.13063
11
1.08177
21
1.13255
0
LINE
8
BLACK
6
CONTINUOUS
10
1.08177
20
1.13255
11
1.08516
21
1.13323
0
LINE
8
BLACK
6
CONTINUOUS
10
1.08516
20
1.13323
11
1.10484
21
1.13323
0
LINE
8
BLACK
6
CONTINUOUS
10
1.10484
20
1.13323
11
1.10823
21
1.13255
0
LINE
8
BLACK
6
CONTINUOUS
10
1.2923
20
1.12136
11
1.29422
21
1.12008
0
LINE
8
BLACK
6
CONTINUOUS
10
1.29422
20
1.12008
11
1.2955
21
1.11817
0
LINE
8
BLACK
6
CONTINUOUS
10
1.2955
20
1.11817
11
1.29594
21
1.11591
0
LINE
8
BLACK
6
CONTINUOUS
10
1.29594
20
1.11591
11
1.29594
21
1.10409
0
LINE
8
BLACK
6
CONTINUOUS
10
1.29594
20
1.10409
11
1.2955
21
1.10183
0
LINE
8
BLACK
6
CONTINUOUS
10
1.2955
20
1.10183
11
1.29422
21
1.09992
0
LINE
8
BLACK
6
CONTINUOUS
10
1.29422
20
1.09992
11
1.2923
21
1.09864
0
LINE
8
BLACK
6
CONTINUOUS
10
1.2923
20
1.09864
11
1.29004
21
1.09819
0
LINE
8
BLACK
6
CONTINUOUS
10
1.29004
20
1.09819
11
1.22508
21
1.09819
0
LINE
8
BLACK
6
CONTINUOUS
10
1.22508
20
1.09819
11
1.22282
21
1.09864
0
LINE
8
BLACK
6
CONTINUOUS
10
1.22282
20
1.09864
11
1.2209
21
1.09992
0
LINE
8
BLACK
6
CONTINUOUS
10
1.2209
20
1.09992
11
1.21962
21
1.10183
0
LINE
8
BLACK
6
CONTINUOUS
10
1.21962
20
1.10183
11
1.21917
21
1.10409
0
LINE
8
BLACK
6
CONTINUOUS
10
1.21917
20
1.10409
11
1.21917
21
1.11591
0
LINE
8
BLACK
6
CONTINUOUS
10
1.21917
20
1.11591
11
1.21962
21
1.11817
0
LINE
8
BLACK
6
CONTINUOUS
10
1.21962
20
1.11817
11
1.2209
21
1.12008
0
LINE
8
BLACK
6
CONTINUOUS
10
1.2209
20
1.12008
11
1.22282
21
1.12136
0
LINE
8
BLACK
6
CONTINUOUS
10
1.22282
20
1.12136
11
1.22508
21
1.12181
0
LINE
8
BLACK
6
CONTINUOUS
10
1.22508
20
1.12181
11
1.29004
21
1.12181
0
LINE
8
BLACK
6
CONTINUOUS
10
1.29004
20
1.12181
11
1.2923
21
1.12136
0
LINE
8
BLACK
6
CONTINUOUS
10
1.48718
20
1.12136
11
1.4891
21
1.12008
0
LINE
8
BLACK
6
CONTINUOUS
10
1.4891
20
1.12008
11
1.49038
21
1.11817
0
LINE
8
BLACK
6
CONTINUOUS
10
1.49038
20
1.11817
11
1.49083
21
1.11591
0
LINE
8
BLACK
6
CONTINUOUS
10
1.49083
20
1.11591
11
1.49083
21
1.10409
0
LINE
8
BLACK
6
CONTINUOUS
10
1.49083
20
1.10409
11
1.49038
21
1.10183
0
LINE
8
BLACK
6
CONTINUOUS
10
1.49038
20
1.10183
11
1.4891
21
1.09992
0
LINE
8
BLACK
6
CONTINUOUS
10
1.4891
20
1.09992
11
1.48718
21
1.09864
0
LINE
8
BLACK
6
CONTINUOUS
10
1.48718
20
1.09864
11
1.48492
21
1.09819
0
LINE
8
BLACK
6
CONTINUOUS
10
1.48492
20
1.09819
11
1.41996
21
1.09819
0
LINE
8
BLACK
6
CONTINUOUS
10
1.41996
20
1.09819
11
1.4177
21
1.09864
0
LINE
8
BLACK
6
CONTINUOUS
10
1.4177
20
1.09864
11
1.41578
21
1.09992
0
LINE
8
BLACK
6
CONTINUOUS
10
1.41578
20
1.09992
11
1.4145
21
1.10183
0
LINE
8
BLACK
6
CONTINUOUS
10
1.4145
20
1.10183
11
1.41406
21
1.10409
0
LINE
8
BLACK
6
CONTINUOUS
10
1.41406
20
1.10409
11
1.41406
21
1.11591
0
LINE
8
BLACK
6
CONTINUOUS
10
1.41406
20
1.11591
11
1.4145
21
1.11817
0
LINE
8
BLACK
6
CONTINUOUS
10
1.4145
20
1.11817
11
1.41578
21
1.12008
0
LINE
8
BLACK
6
CONTINUOUS
10
1.41578
20
1.12008
11
1.4177
21
1.12136
0
LINE
8
BLACK
6
CONTINUOUS
10
1.4177
20
1.12136
11
1.41996
21
1.12181
0
LINE
8
BLACK
6
CONTINUOUS
10
1.41996
20
1.12181
11
1.48492
21
1.12181
0
LINE
8
BLACK
6
CONTINUOUS
10
1.48492
20
1.12181
11
1.48718
21
1.12136
0
LINE
8
BLACK
6
CONTINUOUS
10
1.17648
20
1.14035
11
1.17968
21
1.13822
0
LINE
8
BLACK
6
CONTINUOUS
10
1.17968
20
1.13822
11
1.18181
21
1.13503
0
LINE
8
BLACK
6
CONTINUOUS
10
1.18181
20
1.13503
11
1.18256
21
1.13126
0
LINE
8
BLACK
6
CONTINUOUS
10
1.18256
20
1.13126
11
1.18256
21
1.11059
0
LINE
8
BLACK
6
CONTINUOUS
10
1.18256
20
1.11059
11
1.18181
21
1.10682
0
LINE
8
BLACK
6
CONTINUOUS
10
1.18181
20
1.10682
11
1.17968
21
1.10363
0
LINE
8
BLACK
6
CONTINUOUS
10
1.17968
20
1.10363
11
1.17648
21
1.1015
0
LINE
8
BLACK
6
CONTINUOUS
10
1.17648
20
1.1015
11
1.17272
21
1.10075
0
LINE
8
BLACK
6
CONTINUOUS
10
1.17272
20
1.10075
11
1.13728
21
1.10075
0
LINE
8
BLACK
6
CONTINUOUS
10
1.13728
20
1.10075
11
1.13352
21
1.1015
0
LINE
8
BLACK
6
CONTINUOUS
10
1.13352
20
1.1015
11
1.13032
21
1.10363
0
LINE
8
BLACK
6
CONTINUOUS
10
1.13032
20
1.10363
11
1.12819
21
1.10682
0
LINE
8
BLACK
6
CONTINUOUS
10
1.12819
20
1.10682
11
1.12744
21
1.11059
0
LINE
8
BLACK
6
CONTINUOUS
10
1.12744
20
1.11059
11
1.12744
21
1.13126
0
LINE
8
BLACK
6
CONTINUOUS
10
1.12744
20
1.13126
11
1.12819
21
1.13503
0
LINE
8
BLACK
6
CONTINUOUS
10
1.12819
20
1.13503
11
1.13032
21
1.13822
0
LINE
8
BLACK
6
CONTINUOUS
10
1.13032
20
1.13822
11
1.13352
21
1.14035
0
LINE
8
BLACK
6
CONTINUOUS
10
1.13352
20
1.14035
11
1.13728
21
1.1411
0
LINE
8
BLACK
6
CONTINUOUS
10
1.13728
20
1.1411
11
1.17272
21
1.1411
0
LINE
8
BLACK
6
CONTINUOUS
10
1.17272
20
1.1411
11
1.17648
21
1.14035
0
LINE
8
BLACK
6
CONTINUOUS
10
1.66648
20
1.18035
11
1.66968
21
1.17822
0
LINE
8
BLACK
6
CONTINUOUS
10
1.66968
20
1.17822
11
1.67181
21
1.17503
0
LINE
8
BLACK
6
CONTINUOUS
10
1.67181
20
1.17503
11
1.67256
21
1.17126
0
LINE
8
BLACK
6
CONTINUOUS
10
1.67256
20
1.17126
11
1.67256
21
1.15059
0
LINE
8
BLACK
6
CONTINUOUS
10
1.67256
20
1.15059
11
1.67181
21
1.14682
0
LINE
8
BLACK
6
CONTINUOUS
10
1.67181
20
1.14682
11
1.66968
21
1.14363
0
LINE
8
BLACK
6
CONTINUOUS
10
1.66968
20
1.14363
11
1.66648
21
1.1415
0
LINE
8
BLACK
6
CONTINUOUS
10
1.66648
20
1.1415
11
1.66272
21
1.14075
0
LINE
8
BLACK
6
CONTINUOUS
10
1.66272
20
1.14075
11
1.62728
21
1.14075
0
LINE
8
BLACK
6
CONTINUOUS
10
1.62728
20
1.14075
11
1.62352
21
1.1415
0
LINE
8
BLACK
6
CONTINUOUS
10
1.62352
20
1.1415
11
1.62032
21
1.14363
0
LINE
8
BLACK
6
CONTINUOUS
10
1.62032
20
1.14363
11
1.61819
21
1.14682
0
LINE
8
BLACK
6
CONTINUOUS
10
1.61819
20
1.14682
11
1.61744
21
1.15059
0
LINE
8
BLACK
6
CONTINUOUS
10
1.61744
20
1.15059
11
1.61744
21
1.17126
0
LINE
8
BLACK
6
CONTINUOUS
10
1.61744
20
1.17126
11
1.61819
21
1.17503
0
LINE
8
BLACK
6
CONTINUOUS
10
1.61819
20
1.17503
11
1.62032
21
1.17822
0
LINE
8
BLACK
6
CONTINUOUS
10
1.62032
20
1.17822
11
1.62352
21
1.18035
0
LINE
8
BLACK
6
CONTINUOUS
10
1.62352
20
1.18035
11
1.62728
21
1.1811
0
LINE
8
BLACK
6
CONTINUOUS
10
1.62728
20
1.1811
11
1.66272
21
1.1811
0
LINE
8
BLACK
6
CONTINUOUS
10
1.66272
20
1.1811
11
1.66648
21
1.18035
0
LINE
8
BLACK
6
CONTINUOUS
10
2.285
20
1.145
11
2.225
21
1.145
0
LINE
8
BLACK
6
CONTINUOUS
10
2.225
20
1.145
11
2.225
21
1.205
0
LINE
8
BLACK
6
CONTINUOUS
10
2.225
20
1.205
11
2.285
21
1.205
0
LINE
8
BLACK
6
CONTINUOUS
10
2.285
20
1.205
11
2.285
21
1.145
0
LINE
8
BLACK
6
CONTINUOUS
10
2.385
20
1.145
11
2.325
21
1.145
0
LINE
8
BLACK
6
CONTINUOUS
10
2.325
20
1.145
11
2.325
21
1.205
0
LINE
8
BLACK
6
CONTINUOUS
10
2.325
20
1.205
11
2.385
21
1.205
0
LINE
8
BLACK
6
CONTINUOUS
10
2.385
20
1.205
11
2.385
21
1.145
0
LINE
8
BLACK
6
CONTINUOUS
10
1.58247
20
1.18634
11
1.58566
21
1.1842
0
LINE
8
BLACK
6
CONTINUOUS
10
1.58566
20
1.1842
11
1.58779
21
1.18101
0
LINE
8
BLACK
6
CONTINUOUS
10
1.58779
20
1.18101
11
1.58854
21
1.17724
0
LINE
8
BLACK
6
CONTINUOUS
10
1.58854
20
1.17724
11
1.58854
21
1.15756
0
LINE
8
BLACK
6
CONTINUOUS
10
1.58854
20
1.15756
11
1.58779
21
1.15379
0
LINE
8
BLACK
6
CONTINUOUS
10
1.58779
20
1.15379
11
1.58566
21
1.1506
0
LINE
8
BLACK
6
CONTINUOUS
10
1.58566
20
1.1506
11
1.58247
21
1.14847
0
LINE
8
BLACK
6
CONTINUOUS
10
1.58247
20
1.14847
11
1.5787
21
1.14772
0
LINE
8
BLACK
6
CONTINUOUS
10
1.5787
20
1.14772
11
1.5413
21
1.14772
0
LINE
8
BLACK
6
CONTINUOUS
10
1.5413
20
1.14772
11
1.53753
21
1.14847
0
LINE
8
BLACK
6
CONTINUOUS
10
1.53753
20
1.14847
11
1.53434
21
1.1506
0
LINE
8
BLACK
6
CONTINUOUS
10
1.53434
20
1.1506
11
1.53221
21
1.15379
0
LINE
8
BLACK
6
CONTINUOUS
10
1.53221
20
1.15379
11
1.53146
21
1.15756
0
LINE
8
BLACK
6
CONTINUOUS
10
1.53146
20
1.15756
11
1.53146
21
1.17724
0
LINE
8
BLACK
6
CONTINUOUS
10
1.53146
20
1.17724
11
1.53221
21
1.18101
0
LINE
8
BLACK
6
CONTINUOUS
10
1.53221
20
1.18101
11
1.53434
21
1.1842
0
LINE
8
BLACK
6
CONTINUOUS
10
1.53434
20
1.1842
11
1.53753
21
1.18634
0
LINE
8
BLACK
6
CONTINUOUS
10
1.53753
20
1.18634
11
1.5413
21
1.18709
0
LINE
8
BLACK
6
CONTINUOUS
10
1.5413
20
1.18709
11
1.5787
21
1.18709
0
LINE
8
BLACK
6
CONTINUOUS
10
1.5787
20
1.18709
11
1.58247
21
1.18634
0
LINE
8
BLACK
6
CONTINUOUS
10
1.2923
20
1.17136
11
1.29422
21
1.17008
0
LINE
8
BLACK
6
CONTINUOUS
10
1.29422
20
1.17008
11
1.2955
21
1.16817
0
LINE
8
BLACK
6
CONTINUOUS
10
1.2955
20
1.16817
11
1.29594
21
1.16591
0
LINE
8
BLACK
6
CONTINUOUS
10
1.29594
20
1.16591
11
1.29594
21
1.15409
0
LINE
8
BLACK
6
CONTINUOUS
10
1.29594
20
1.15409
11
1.2955
21
1.15183
0
LINE
8
BLACK
6
CONTINUOUS
10
1.2955
20
1.15183
11
1.29422
21
1.14992
0
LINE
8
BLACK
6
CONTINUOUS
10
1.29422
20
1.14992
11
1.2923
21
1.14864
0
LINE
8
BLACK
6
CONTINUOUS
10
1.2923
20
1.14864
11
1.29004
21
1.14819
0
LINE
8
BLACK
6
CONTINUOUS
10
1.29004
20
1.14819
11
1.22508
21
1.14819
0
LINE
8
BLACK
6
CONTINUOUS
10
1.22508
20
1.14819
11
1.22282
21
1.14864
0
LINE
8
BLACK
6
CONTINUOUS
10
1.22282
20
1.14864
11
1.2209
21
1.14992
0
LINE
8
BLACK
6
CONTINUOUS
10
1.2209
20
1.14992
11
1.21962
21
1.15183
0
LINE
8
BLACK
6
CONTINUOUS
10
1.21962
20
1.15183
11
1.21917
21
1.15409
0
LINE
8
BLACK
6
CONTINUOUS
10
1.21917
20
1.15409
11
1.21917
21
1.16591
0
LINE
8
BLACK
6
CONTINUOUS
10
1.21917
20
1.16591
11
1.21962
21
1.16817
0
LINE
8
BLACK
6
CONTINUOUS
10
1.21962
20
1.16817
11
1.2209
21
1.17008
0
LINE
8
BLACK
6
CONTINUOUS
10
1.2209
20
1.17008
11
1.22282
21
1.17136
0
LINE
8
BLACK
6
CONTINUOUS
10
1.22282
20
1.17136
11
1.22508
21
1.17181
0
LINE
8
BLACK
6
CONTINUOUS
10
1.22508
20
1.17181
11
1.29004
21
1.17181
0
LINE
8
BLACK
6
CONTINUOUS
10
1.29004
20
1.17181
11
1.2923
21
1.17136
0
LINE
8
BLACK
6
CONTINUOUS
10
1.48718
20
1.17136
11
1.4891
21
1.17008
0
LINE
8
BLACK
6
CONTINUOUS
10
1.4891
20
1.17008
11
1.49038
21
1.16817
0
LINE
8
BLACK
6
CONTINUOUS
10
1.49038
20
1.16817
11
1.49083
21
1.16591
0
LINE
8
BLACK
6
CONTINUOUS
10
1.49083
20
1.16591
11
1.49083
21
1.15409
0
LINE
8
BLACK
6
CONTINUOUS
10
1.49083
20
1.15409
11
1.49038
21
1.15183
0
LINE
8
BLACK
6
CONTINUOUS
10
1.49038
20
1.15183
11
1.4891
21
1.14992
0
LINE
8
BLACK
6
CONTINUOUS
10
1.4891
20
1.14992
11
1.48718
21
1.14864
0
LINE
8
BLACK
6
CONTINUOUS
10
1.48718
20
1.14864
11
1.48492
21
1.14819
0
LINE
8
BLACK
6
CONTINUOUS
10
1.48492
20
1.14819
11
1.41996
21
1.14819
0
LINE
8
BLACK
6
CONTINUOUS
10
1.41996
20
1.14819
11
1.4177
21
1.14864
0
LINE
8
BLACK
6
CONTINUOUS
10
1.4177
20
1.14864
11
1.41578
21
1.14992
0
LINE
8
BLACK
6
CONTINUOUS
10
1.41578
20
1.14992
11
1.4145
21
1.15183
0
LINE
8
BLACK
6
CONTINUOUS
10
1.4145
20
1.15183
11
1.41406
21
1.15409
0
LINE
8
BLACK
6
CONTINUOUS
10
1.41406
20
1.15409
11
1.41406
21
1.16591
0
LINE
8
BLACK
6
CONTINUOUS
10
1.41406
20
1.16591
11
1.4145
21
1.16817
0
LINE
8
BLACK
6
CONTINUOUS
10
1.4145
20
1.16817
11
1.41578
21
1.17008
0
LINE
8
BLACK
6
CONTINUOUS
10
1.41578
20
1.17008
11
1.4177
21
1.17136
0
LINE
8
BLACK
6
CONTINUOUS
10
1.4177
20
1.17136
11
1.41996
21
1.17181
0
LINE
8
BLACK
6
CONTINUOUS
10
1.41996
20
1.17181
11
1.48492
21
1.17181
0
LINE
8
BLACK
6
CONTINUOUS
10
1.48492
20
1.17181
11
1.48718
21
1.17136
0
LINE
8
BLACK
6
CONTINUOUS
10
1.17621
20
1.27279
11
1.1794
21
1.27066
0
LINE
8
BLACK
6
CONTINUOUS
10
1.1794
20
1.27066
11
1.18153
21
1.26747
0
LINE
8
BLACK
6
CONTINUOUS
10
1.18153
20
1.26747
11
1.18228
21
1.2637
0
LINE
8
BLACK
6
CONTINUOUS
10
1.18228
20
1.2637
11
1.18228
21
1.2263
0
LINE
8
BLACK
6
CONTINUOUS
10
1.18228
20
1.2263
11
1.18153
21
1.22253
0
LINE
8
BLACK
6
CONTINUOUS
10
1.18153
20
1.22253
11
1.1794
21
1.21934
0
LINE
8
BLACK
6
CONTINUOUS
10
1.1794
20
1.21934
11
1.17621
21
1.21721
0
LINE
8
BLACK
6
CONTINUOUS
10
1.17621
20
1.21721
11
1.17244
21
1.21646
0
LINE
8
BLACK
6
CONTINUOUS
10
1.17244
20
1.21646
11
1.15276
21
1.21646
0
LINE
8
BLACK
6
CONTINUOUS
10
1.15276
20
1.21646
11
1.14899
21
1.21721
0
LINE
8
BLACK
6
CONTINUOUS
10
1.14899
20
1.21721
11
1.1458
21
1.21934
0
LINE
8
BLACK
6
CONTINUOUS
10
1.1458
20
1.21934
11
1.14366
21
1.22253
0
LINE
8
BLACK
6
CONTINUOUS
10
1.14366
20
1.22253
11
1.14291
21
1.2263
0
LINE
8
BLACK
6
CONTINUOUS
10
1.14291
20
1.2263
11
1.14291
21
1.2637
0
LINE
8
BLACK
6
CONTINUOUS
10
1.14291
20
1.2637
11
1.14366
21
1.26747
0
LINE
8
BLACK
6
CONTINUOUS
10
1.14366
20
1.26747
11
1.1458
21
1.27066
0
LINE
8
BLACK
6
CONTINUOUS
10
1.1458
20
1.27066
11
1.14899
21
1.27279
0
LINE
8
BLACK
6
CONTINUOUS
10
1.14899
20
1.27279
11
1.15276
21
1.27354
0
LINE
8
BLACK
6
CONTINUOUS
10
1.15276
20
1.27354
11
1.17244
21
1.27354
0
LINE
8
BLACK
6
CONTINUOUS
10
1.17244
20
1.27354
11
1.17621
21
1.27279
0
LINE
8
BLACK
6
CONTINUOUS
10
1.25101
20
1.27279
11
1.2542
21
1.27066
0
LINE
8
BLACK
6
CONTINUOUS
10
1.2542
20
1.27066
11
1.25634
21
1.26747
0
LINE
8
BLACK
6
CONTINUOUS
10
1.25634
20
1.26747
11
1.25709
21
1.2637
0
LINE
8
BLACK
6
CONTINUOUS
10
1.25709
20
1.2637
11
1.25709
21
1.2263
0
LINE
8
BLACK
6
CONTINUOUS
10
1.25709
20
1.2263
11
1.25634
21
1.22253
0
LINE
8
BLACK
6
CONTINUOUS
10
1.25634
20
1.22253
11
1.2542
21
1.21934
0
LINE
8
BLACK
6
CONTINUOUS
10
1.2542
20
1.21934
11
1.25101
21
1.21721
0
LINE
8
BLACK
6
CONTINUOUS
10
1.25101
20
1.21721
11
1.24724
21
1.21646
0
LINE
8
BLACK
6
CONTINUOUS
10
1.24724
20
1.21646
11
1.22756
21
1.21646
0
LINE
8
BLACK
6
CONTINUOUS
10
1.22756
20
1.21646
11
1.22379
21
1.21721
0
LINE
8
BLACK
6
CONTINUOUS
10
1.22379
20
1.21721
11
1.2206
21
1.21934
0
LINE
8
BLACK
6
CONTINUOUS
10
1.2206
20
1.21934
11
1.21847
21
1.22253
0
LINE
8
BLACK
6
CONTINUOUS
10
1.21847
20
1.22253
11
1.21772
21
1.2263
0
LINE
8
BLACK
6
CONTINUOUS
10
1.21772
20
1.2263
11
1.21772
21
1.2637
0
LINE
8
BLACK
6
CONTINUOUS
10
1.21772
20
1.2637
11
1.21847
21
1.26747
0
LINE
8
BLACK
6
CONTINUOUS
10
1.21847
20
1.26747
11
1.2206
21
1.27066
0
LINE
8
BLACK
6
CONTINUOUS
10
1.2206
20
1.27066
11
1.22379
21
1.27279
0
LINE
8
BLACK
6
CONTINUOUS
10
1.22379
20
1.27279
11
1.22756
21
1.27354
0
LINE
8
BLACK
6
CONTINUOUS
10
1.22756
20
1.27354
11
1.24724
21
1.27354
0
LINE
8
BLACK
6
CONTINUOUS
10
1.24724
20
1.27354
11
1.25101
21
1.27279
0
LINE
8
BLACK
6
CONTINUOUS
10
1.34121
20
1.27279
11
1.3444
21
1.27066
0
LINE
8
BLACK
6
CONTINUOUS
10
1.3444
20
1.27066
11
1.34653
21
1.26747
0
LINE
8
BLACK
6
CONTINUOUS
10
1.34653
20
1.26747
11
1.34728
21
1.2637
0
LINE
8
BLACK
6
CONTINUOUS
10
1.34728
20
1.2637
11
1.34728
21
1.2263
0
LINE
8
BLACK
6
CONTINUOUS
10
1.34728
20
1.2263
11
1.34653
21
1.22253
0
LINE
8
BLACK
6
CONTINUOUS
10
1.34653
20
1.22253
11
1.3444
21
1.21934
0
LINE
8
BLACK
6
CONTINUOUS
10
1.3444
20
1.21934
11
1.34121
21
1.21721
0
LINE
8
BLACK
6
CONTINUOUS
10
1.34121
20
1.21721
11
1.33744
21
1.21646
0
LINE
8
BLACK
6
CONTINUOUS
10
1.33744
20
1.21646
11
1.31776
21
1.21646
0
LINE
8
BLACK
6
CONTINUOUS
10
1.31776
20
1.21646
11
1.31399
21
1.21721
0
LINE
8
BLACK
6
CONTINUOUS
10
1.31399
20
1.21721
11
1.3108
21
1.21934
0
LINE
8
BLACK
6
CONTINUOUS
10
1.3108
20
1.21934
11
1.30866
21
1.22253
0
LINE
8
BLACK
6
CONTINUOUS
10
1.30866
20
1.22253
11
1.30791
21
1.2263
0
LINE
8
BLACK
6
CONTINUOUS
10
1.30791
20
1.2263
11
1.30791
21
1.2637
0
LINE
8
BLACK
6
CONTINUOUS
10
1.30791
20
1.2637
11
1.30866
21
1.26747
0
LINE
8
BLACK
6
CONTINUOUS
10
1.30866
20
1.26747
11
1.3108
21
1.27066
0
LINE
8
BLACK
6
CONTINUOUS
10
1.3108
20
1.27066
11
1.31399
21
1.27279
0
LINE
8
BLACK
6
CONTINUOUS
10
1.31399
20
1.27279
11
1.31776
21
1.27354
0
LINE
8
BLACK
6
CONTINUOUS
10
1.31776
20
1.27354
11
1.33744
21
1.27354
0
LINE
8
BLACK
6
CONTINUOUS
10
1.33744
20
1.27354
11
1.34121
21
1.27279
0
LINE
8
BLACK
6
CONTINUOUS
10
1.41601
20
1.27279
11
1.4192
21
1.27066
0
LINE
8
BLACK
6
CONTINUOUS
10
1.4192
20
1.27066
11
1.42134
21
1.26747
0
LINE
8
BLACK
6
CONTINUOUS
10
1.42134
20
1.26747
11
1.42209
21
1.2637
0
LINE
8
BLACK
6
CONTINUOUS
10
1.42209
20
1.2637
11
1.42209
21
1.2263
0
LINE
8
BLACK
6
CONTINUOUS
10
1.42209
20
1.2263
11
1.42134
21
1.22253
0
LINE
8
BLACK
6
CONTINUOUS
10
1.42134
20
1.22253
11
1.4192
21
1.21934
0
LINE
8
BLACK
6
CONTINUOUS
10
1.4192
20
1.21934
11
1.41601
21
1.21721
0
LINE
8
BLACK
6
CONTINUOUS
10
1.41601
20
1.21721
11
1.41224
21
1.21646
0
LINE
8
BLACK
6
CONTINUOUS
10
1.41224
20
1.21646
11
1.39256
21
1.21646
0
LINE
8
BLACK
6
CONTINUOUS
10
1.39256
20
1.21646
11
1.38879
21
1.21721
0
LINE
8
BLACK
6
CONTINUOUS
10
1.38879
20
1.21721
11
1.3856
21
1.21934
0
LINE
8
BLACK
6
CONTINUOUS
10
1.3856
20
1.21934
11
1.38347
21
1.22253
0
LINE
8
BLACK
6
CONTINUOUS
10
1.38347
20
1.22253
11
1.38272
21
1.2263
0
LINE
8
BLACK
6
CONTINUOUS
10
1.38272
20
1.2263
11
1.38272
21
1.2637
0
LINE
8
BLACK
6
CONTINUOUS
10
1.38272
20
1.2637
11
1.38347
21
1.26747
0
LINE
8
BLACK
6
CONTINUOUS
10
1.38347
20
1.26747
11
1.3856
21
1.27066
0
LINE
8
BLACK
6
CONTINUOUS
10
1.3856
20
1.27066
11
1.38879
21
1.27279
0
LINE
8
BLACK
6
CONTINUOUS
10
1.38879
20
1.27279
11
1.39256
21
1.27354
0
LINE
8
BLACK
6
CONTINUOUS
10
1.39256
20
1.27354
11
1.41224
21
1.27354
0
LINE
8
BLACK
6
CONTINUOUS
10
1.41224
20
1.27354
11
1.41601
21
1.27279
0
LINE
8
BLACK
6
CONTINUOUS
10
1.1005
20
1.32366
11
1.10369
21
1.32153
0
LINE
8
BLACK
6
CONTINUOUS
10
1.10369
20
1.32153
11
1.10583
21
1.31833
0
LINE
8
BLACK
6
CONTINUOUS
10
1.10583
20
1.31833
11
1.10657
21
1.31457
0
LINE
8
BLACK
6
CONTINUOUS
10
1.10657
20
1.31457
11
1.10657
21
1.27913
0
LINE
8
BLACK
6
CONTINUOUS
10
1.10657
20
1.27913
11
1.10583
21
1.27537
0
LINE
8
BLACK
6
CONTINUOUS
10
1.10583
20
1.27537
11
1.10369
21
1.27217
0
LINE
8
BLACK
6
CONTINUOUS
10
1.10369
20
1.27217
11
1.1005
21
1.27004
0
LINE
8
BLACK
6
CONTINUOUS
10
1.1005
20
1.27004
11
1.09673
21
1.26929
0
LINE
8
BLACK
6
CONTINUOUS
10
1.09673
20
1.26929
11
1.06327
21
1.26929
0
LINE
8
BLACK
6
CONTINUOUS
10
1.06327
20
1.26929
11
1.0595
21
1.27004
0
LINE
8
BLACK
6
CONTINUOUS
10
1.0595
20
1.27004
11
1.05631
21
1.27217
0
LINE
8
BLACK
6
CONTINUOUS
10
1.05631
20
1.27217
11
1.05417
21
1.27537
0
LINE
8
BLACK
6
CONTINUOUS
10
1.05417
20
1.27537
11
1.05343
21
1.27913
0
LINE
8
BLACK
6
CONTINUOUS
10
1.05343
20
1.27913
11
1.05343
21
1.31457
0
LINE
8
BLACK
6
CONTINUOUS
10
1.05343
20
1.31457
11
1.05417
21
1.31833
0
LINE
8
BLACK
6
CONTINUOUS
10
1.05417
20
1.31833
11
1.05631
21
1.32153
0
LINE
8
BLACK
6
CONTINUOUS
10
1.05631
20
1.32153
11
1.0595
21
1.32366
0
LINE
8
BLACK
6
CONTINUOUS
10
1.0595
20
1.32366
11
1.06327
21
1.32441
0
LINE
8
BLACK
6
CONTINUOUS
10
1.06327
20
1.32441
11
1.09673
21
1.32441
0
LINE
8
BLACK
6
CONTINUOUS
10
1.09673
20
1.32441
11
1.1005
21
1.32366
0
LINE
8
BLACK
6
CONTINUOUS
10
0.888407
20
1.3081
11
0.890961
21
1.30639
0
LINE
8
BLACK
6
CONTINUOUS
10
0.890961
20
1.30639
11
0.892668
21
1.30384
0
LINE
8
BLACK
6
CONTINUOUS
10
0.892668
20
1.30384
11
0.893268
21
1.30083
0
LINE
8
BLACK
6
CONTINUOUS
10
0.893268
20
1.30083
11
0.893268
21
1.27917
0
LINE
8
BLACK
6
CONTINUOUS
10
0.893268
20
1.27917
11
0.892668
21
1.27616
0
LINE
8
BLACK
6
CONTINUOUS
10
0.892668
20
1.27616
11
0.890961
21
1.27361
0
LINE
8
BLACK
6
CONTINUOUS
10
0.890961
20
1.27361
11
0.888407
21
1.2719
0
LINE
8
BLACK
6
CONTINUOUS
10
0.888407
20
1.2719
11
0.885394
21
1.2713
0
LINE
8
BLACK
6
CONTINUOUS
10
0.885394
20
1.2713
11
0.869646
21
1.2713
0
LINE
8
BLACK
6
CONTINUOUS
10
0.869646
20
1.2713
11
0.866632
21
1.2719
0
LINE
8
BLACK
6
CONTINUOUS
10
0.866632
20
1.2719
11
0.864078
21
1.27361
0
LINE
8
BLACK
6
CONTINUOUS
10
0.864078
20
1.27361
11
0.862371
21
1.27616
0
LINE
8
BLACK
6
CONTINUOUS
10
0.862371
20
1.27616
11
0.861772
21
1.27917
0
LINE
8
BLACK
6
CONTINUOUS
10
0.861772
20
1.27917
11
0.861772
21
1.30083
0
LINE
8
BLACK
6
CONTINUOUS
10
0.861772
20
1.30083
11
0.862371
21
1.30384
0
LINE
8
BLACK
6
CONTINUOUS
10
0.862371
20
1.30384
11
0.864078
21
1.30639
0
LINE
8
BLACK
6
CONTINUOUS
10
0.864078
20
1.30639
11
0.866632
21
1.3081
0
LINE
8
BLACK
6
CONTINUOUS
10
0.866632
20
1.3081
11
0.869646
21
1.3087
0
LINE
8
BLACK
6
CONTINUOUS
10
0.869646
20
1.3087
11
0.885394
21
1.3087
0
LINE
8
BLACK
6
CONTINUOUS
10
0.885394
20
1.3087
11
0.888407
21
1.3081
0
LINE
8
BLACK
6
CONTINUOUS
10
0.953368
20
1.3081
11
0.955922
21
1.30639
0
LINE
8
BLACK
6
CONTINUOUS
10
0.955922
20
1.30639
11
0.957629
21
1.30384
0
LINE
8
BLACK
6
CONTINUOUS
10
0.957629
20
1.30384
11
0.958228
21
1.30083
0
LINE
8
BLACK
6
CONTINUOUS
10
0.958228
20
1.30083
11
0.958228
21
1.27917
0
LINE
8
BLACK
6
CONTINUOUS
10
0.958228
20
1.27917
11
0.957629
21
1.27616
0
LINE
8
BLACK
6
CONTINUOUS
10
0.957629
20
1.27616
11
0.955922
21
1.27361
0
LINE
8
BLACK
6
CONTINUOUS
10
0.955922
20
1.27361
11
0.953368
21
1.2719
0
LINE
8
BLACK
6
CONTINUOUS
10
0.953368
20
1.2719
11
0.950354
21
1.2713
0
LINE
8
BLACK
6
CONTINUOUS
10
0.950354
20
1.2713
11
0.934606
21
1.2713
0
LINE
8
BLACK
6
CONTINUOUS
10
0.934606
20
1.2713
11
0.931593
21
1.2719
0
LINE
8
BLACK
6
CONTINUOUS
10
0.931593
20
1.2719
11
0.929039
21
1.27361
0
LINE
8
BLACK
6
CONTINUOUS
10
0.929039
20
1.27361
11
0.927332
21
1.27616
0
LINE
8
BLACK
6
CONTINUOUS
10
0.927332
20
1.27616
11
0.926732
21
1.27917
0
LINE
8
BLACK
6
CONTINUOUS
10
0.926732
20
1.27917
11
0.926732
21
1.30083
0
LINE
8
BLACK
6
CONTINUOUS
10
0.926732
20
1.30083
11
0.927332
21
1.30384
0
LINE
8
BLACK
6
CONTINUOUS
10
0.927332
20
1.30384
11
0.929039
21
1.30639
0
LINE
8
BLACK
6
CONTINUOUS
10
0.929039
20
1.30639
11
0.931593
21
1.3081
0
LINE
8
BLACK
6
CONTINUOUS
10
0.931593
20
1.3081
11
0.934606
21
1.3087
0
LINE
8
BLACK
6
CONTINUOUS
10
0.934606
20
1.3087
11
0.950354
21
1.3087
0
LINE
8
BLACK
6
CONTINUOUS
10
0.950354
20
1.3087
11
0.953368
21
1.3081
0
LINE
8
BLACK
6
CONTINUOUS
10
0.793701
20
1.27953
11
0.754331
21
1.27953
0
LINE
8
BLACK
6
CONTINUOUS
10
0.754331
20
1.27953
11
0.754331
21
1.42913
0
LINE
8
BLACK
6
CONTINUOUS
10
0.754331
20
1.42913
11
0.793701
21
1.42913
0
LINE
8
BLACK
6
CONTINUOUS
10
0.793701
20
1.42913
11
0.793701
21
1.27953
0
LINE
8
BLACK
6
CONTINUOUS
10
2.04567
20
1.27953
11
2.0063
21
1.27953
0
LINE
8
BLACK
6
CONTINUOUS
10
2.0063
20
1.27953
11
2.0063
21
1.42913
0
LINE
8
BLACK
6
CONTINUOUS
10
2.0063
20
1.42913
11
2.04567
21
1.42913
0
LINE
8
BLACK
6
CONTINUOUS
10
2.04567
20
1.42913
11
2.04567
21
1.27953
0
LINE
8
BLACK
6
CONTINUOUS
10
0.62378
20
1.30094
11
0.59622
21
1.30094
0
LINE
8
BLACK
6
CONTINUOUS
10
0.59622
20
1.30094
11
0.59622
21
1.41906
0
LINE
8
BLACK
6
CONTINUOUS
10
0.59622
20
1.41906
11
0.62378
21
1.41906
0
LINE
8
BLACK
6
CONTINUOUS
10
0.62378
20
1.41906
11
0.62378
21
1.30094
0
LINE
8
BLACK
6
CONTINUOUS
10
1.43707
20
1.36382
11
1.44027
21
1.36168
0
LINE
8
BLACK
6
CONTINUOUS
10
1.44027
20
1.36168
11
1.4424
21
1.35849
0
LINE
8
BLACK
6
CONTINUOUS
10
1.4424
20
1.35849
11
1.44315
21
1.35472
0
LINE
8
BLACK
6
CONTINUOUS
10
1.44315
20
1.35472
11
1.44315
21
1.32913
0
LINE
8
BLACK
6
CONTINUOUS
10
1.44315
20
1.32913
11
1.4424
21
1.32537
0
LINE
8
BLACK
6
CONTINUOUS
10
1.4424
20
1.32537
11
1.44027
21
1.32217
0
LINE
8
BLACK
6
CONTINUOUS
10
1.44027
20
1.32217
11
1.43707
21
1.32004
0
LINE
8
BLACK
6
CONTINUOUS
10
1.43707
20
1.32004
11
1.43331
21
1.31929
0
LINE
8
BLACK
6
CONTINUOUS
10
1.43331
20
1.31929
11
1.34669
21
1.31929
0
LINE
8
BLACK
6
CONTINUOUS
10
1.34669
20
1.31929
11
1.34293
21
1.32004
0
LINE
8
BLACK
6
CONTINUOUS
10
1.34293
20
1.32004
11
1.33973
21
1.32217
0
LINE
8
BLACK
6
CONTINUOUS
10
1.33973
20
1.32217
11
1.3376
21
1.32537
0
LINE
8
BLACK
6
CONTINUOUS
10
1.3376
20
1.32537
11
1.33685
21
1.32913
0
LINE
8
BLACK
6
CONTINUOUS
10
1.33685
20
1.32913
11
1.33685
21
1.35472
0
LINE
8
BLACK
6
CONTINUOUS
10
1.33685
20
1.35472
11
1.3376
21
1.35849
0
LINE
8
BLACK
6
CONTINUOUS
10
1.3376
20
1.35849
11
1.33973
21
1.36168
0
LINE
8
BLACK
6
CONTINUOUS
10
1.33973
20
1.36168
11
1.34293
21
1.36382
0
LINE
8
BLACK
6
CONTINUOUS
10
1.34293
20
1.36382
11
1.34669
21
1.36457
0
LINE
8
BLACK
6
CONTINUOUS
10
1.34669
20
1.36457
11
1.43331
21
1.36457
0
LINE
8
BLACK
6
CONTINUOUS
10
1.43331
20
1.36457
11
1.43707
21
1.36382
0
LINE
8
BLACK
6
CONTINUOUS
10
0.582441
20
1.33047
11
0.53126
21
1.33047
0
LINE
8
BLACK
6
CONTINUOUS
10
0.53126
20
1.33047
11
0.53126
21
1.38953
0
LINE
8
BLACK
6
CONTINUOUS
10
0.53126
20
1.38953
11
0.582441
21
1.38953
0
LINE
8
BLACK
6
CONTINUOUS
10
0.582441
20
1.38953
11
0.582441
21
1.33047
0
LINE
8
BLACK
6
CONTINUOUS
10
0.68874
20
1.33047
11
0.637559
21
1.33047
0
LINE
8
BLACK
6
CONTINUOUS
10
0.637559
20
1.33047
11
0.637559
21
1.38953
0
LINE
8
BLACK
6
CONTINUOUS
10
0.637559
20
1.38953
11
0.68874
21
1.38953
0
LINE
8
BLACK
6
CONTINUOUS
10
0.68874
20
1.38953
11
0.68874
21
1.33047
0
LINE
8
BLACK
6
CONTINUOUS
10
1.1005
20
1.42996
11
1.10369
21
1.42783
0
LINE
8
BLACK
6
CONTINUOUS
10
1.10369
20
1.42783
11
1.10583
21
1.42463
0
LINE
8
BLACK
6
CONTINUOUS
10
1.10583
20
1.42463
11
1.10657
21
1.42087
0
LINE
8
BLACK
6
CONTINUOUS
10
1.10657
20
1.42087
11
1.10657
21
1.38543
0
LINE
8
BLACK
6
CONTINUOUS
10
1.10657
20
1.38543
11
1.10583
21
1.38167
0
LINE
8
BLACK
6
CONTINUOUS
10
1.10583
20
1.38167
11
1.10369
21
1.37847
0
LINE
8
BLACK
6
CONTINUOUS
10
1.10369
20
1.37847
11
1.1005
21
1.37634
0
LINE
8
BLACK
6
CONTINUOUS
10
1.1005
20
1.37634
11
1.09673
21
1.37559
0
LINE
8
BLACK
6
CONTINUOUS
10
1.09673
20
1.37559
11
1.06327
21
1.37559
0
LINE
8
BLACK
6
CONTINUOUS
10
1.06327
20
1.37559
11
1.0595
21
1.37634
0
LINE
8
BLACK
6
CONTINUOUS
10
1.0595
20
1.37634
11
1.05631
21
1.37847
0
LINE
8
BLACK
6
CONTINUOUS
10
1.05631
20
1.37847
11
1.05417
21
1.38167
0
LINE
8
BLACK
6
CONTINUOUS
10
1.05417
20
1.38167
11
1.05343
21
1.38543
0
LINE
8
BLACK
6
CONTINUOUS
10
1.05343
20
1.38543
11
1.05343
21
1.42087
0
LINE
8
BLACK
6
CONTINUOUS
10
1.05343
20
1.42087
11
1.05417
21
1.42463
0
LINE
8
BLACK
6
CONTINUOUS
10
1.05417
20
1.42463
11
1.05631
21
1.42783
0
LINE
8
BLACK
6
CONTINUOUS
10
1.05631
20
1.42783
11
1.0595
21
1.42996
0
LINE
8
BLACK
6
CONTINUOUS
10
1.0595
20
1.42996
11
1.06327
21
1.43071
0
LINE
8
BLACK
6
CONTINUOUS
10
1.06327
20
1.43071
11
1.09673
21
1.43071
0
LINE
8
BLACK
6
CONTINUOUS
10
1.09673
20
1.43071
11
1.1005
21
1.42996
0
LINE
8
BLACK
6
CONTINUOUS
10
1.0105
20
1.43366
11
1.01369
21
1.43153
0
LINE
8
BLACK
6
CONTINUOUS
10
1.01369
20
1.43153
11
1.01583
21
1.42833
0
LINE
8
BLACK
6
CONTINUOUS
10
1.01583
20
1.42833
11
1.01657
21
1.42457
0
LINE
8
BLACK
6
CONTINUOUS
10
1.01657
20
1.42457
11
1.01657
21
1.38913
0
LINE
8
BLACK
6
CONTINUOUS
10
1.01657
20
1.38913
11
1.01583
21
1.38537
0
LINE
8
BLACK
6
CONTINUOUS
10
1.01583
20
1.38537
11
1.01369
21
1.38217
0
LINE
8
BLACK
6
CONTINUOUS
10
1.01369
20
1.38217
11
1.0105
21
1.38004
0
LINE
8
BLACK
6
CONTINUOUS
10
1.0105
20
1.38004
11
1.00673
21
1.37929
0
LINE
8
BLACK
6
CONTINUOUS
10
1.00673
20
1.37929
11
0.973268
21
1.37929
0
LINE
8
BLACK
6
CONTINUOUS
10
0.973268
20
1.37929
11
0.969501
21
1.38004
0
LINE
8
BLACK
6
CONTINUOUS
10
0.969501
20
1.38004
11
0.966308
21
1.38217
0
LINE
8
BLACK
6
CONTINUOUS
10
0.966308
20
1.38217
11
0.964174
21
1.38537
0
LINE
8
BLACK
6
CONTINUOUS
10
0.964174
20
1.38537
11
0.963425
21
1.38913
0
LINE
8
BLACK
6
CONTINUOUS
10
0.963425
20
1.38913
11
0.963425
21
1.42457
0
LINE
8
BLACK
6
CONTINUOUS
10
0.963425
20
1.42457
11
0.964174
21
1.42833
0
LINE
8
BLACK
6
CONTINUOUS
10
0.964174
20
1.42833
11
0.966308
21
1.43153
0
LINE
8
BLACK
6
CONTINUOUS
10
0.966308
20
1.43153
11
0.969501
21
1.43366
0
LINE
8
BLACK
6
CONTINUOUS
10
0.969501
20
1.43366
11
0.973268
21
1.43441
0
LINE
8
BLACK
6
CONTINUOUS
10
0.973268
20
1.43441
11
1.00673
21
1.43441
0
LINE
8
BLACK
6
CONTINUOUS
10
1.00673
20
1.43441
11
1.0105
21
1.43366
0
LINE
8
BLACK
6
CONTINUOUS
10
1.2155
20
1.43366
11
1.21869
21
1.43153
0
LINE
8
BLACK
6
CONTINUOUS
10
1.21869
20
1.43153
11
1.22083
21
1.42833
0
LINE
8
BLACK
6
CONTINUOUS
10
1.22083
20
1.42833
11
1.22157
21
1.42457
0
LINE
8
BLACK
6
CONTINUOUS
10
1.22157
20
1.42457
11
1.22157
21
1.38913
0
LINE
8
BLACK
6
CONTINUOUS
10
1.22157
20
1.38913
11
1.22083
21
1.38537
0
LINE
8
BLACK
6
CONTINUOUS
10
1.22083
20
1.38537
11
1.21869
21
1.38217
0
LINE
8
BLACK
6
CONTINUOUS
10
1.21869
20
1.38217
11
1.2155
21
1.38004
0
LINE
8
BLACK
6
CONTINUOUS
10
1.2155
20
1.38004
11
1.21173
21
1.37929
0
LINE
8
BLACK
6
CONTINUOUS
10
1.21173
20
1.37929
11
1.17827
21
1.37929
0
LINE
8
BLACK
6
CONTINUOUS
10
1.17827
20
1.37929
11
1.1745
21
1.38004
0
LINE
8
BLACK
6
CONTINUOUS
10
1.1745
20
1.38004
11
1.17131
21
1.38217
0
LINE
8
BLACK
6
CONTINUOUS
10
1.17131
20
1.38217
11
1.16917
21
1.38537
0
LINE
8
BLACK
6
CONTINUOUS
10
1.16917
20
1.38537
11
1.16843
21
1.38913
0
LINE
8
BLACK
6
CONTINUOUS
10
1.16843
20
1.38913
11
1.16843
21
1.42457
0
LINE
8
BLACK
6
CONTINUOUS
10
1.16843
20
1.42457
11
1.16917
21
1.42833
0
LINE
8
BLACK
6
CONTINUOUS
10
1.16917
20
1.42833
11
1.17131
21
1.43153
0
LINE
8
BLACK
6
CONTINUOUS
10
1.17131
20
1.43153
11
1.1745
21
1.43366
0
LINE
8
BLACK
6
CONTINUOUS
10
1.1745
20
1.43366
11
1.17827
21
1.43441
0
LINE
8
BLACK
6
CONTINUOUS
10
1.17827
20
1.43441
11
1.21173
21
1.43441
0
LINE
8
BLACK
6
CONTINUOUS
10
1.21173
20
1.43441
11
1.2155
21
1.43366
0
LINE
8
BLACK
6
CONTINUOUS
10
1.30247
20
1.46653
11
1.30566
21
1.4644
0
LINE
8
BLACK
6
CONTINUOUS
10
1.30566
20
1.4644
11
1.30779
21
1.46121
0
LINE
8
BLACK
6
CONTINUOUS
10
1.30779
20
1.46121
11
1.30854
21
1.45744
0
LINE
8
BLACK
6
CONTINUOUS
10
1.30854
20
1.45744
11
1.30854
21
1.43776
0
LINE
8
BLACK
6
CONTINUOUS
10
1.30854
20
1.43776
11
1.30779
21
1.43399
0
LINE
8
BLACK
6
CONTINUOUS
10
1.30779
20
1.43399
11
1.30566
21
1.4308
0
LINE
8
BLACK
6
CONTINUOUS
10
1.30566
20
1.4308
11
1.30247
21
1.42866
0
LINE
8
BLACK
6
CONTINUOUS
10
1.30247
20
1.42866
11
1.2987
21
1.42791
0
LINE
8
BLACK
6
CONTINUOUS
10
1.2987
20
1.42791
11
1.2613
21
1.42791
0
LINE
8
BLACK
6
CONTINUOUS
10
1.2613
20
1.42791
11
1.25753
21
1.42866
0
LINE
8
BLACK
6
CONTINUOUS
10
1.25753
20
1.42866
11
1.25434
21
1.4308
0
LINE
8
BLACK
6
CONTINUOUS
10
1.25434
20
1.4308
11
1.25221
21
1.43399
0
LINE
8
BLACK
6
CONTINUOUS
10
1.25221
20
1.43399
11
1.25146
21
1.43776
0
LINE
8
BLACK
6
CONTINUOUS
10
1.25146
20
1.43776
11
1.25146
21
1.45744
0
LINE
8
BLACK
6
CONTINUOUS
10
1.25146
20
1.45744
11
1.25221
21
1.46121
0
LINE
8
BLACK
6
CONTINUOUS
10
1.25221
20
1.46121
11
1.25434
21
1.4644
0
LINE
8
BLACK
6
CONTINUOUS
10
1.25434
20
1.4644
11
1.25753
21
1.46653
0
LINE
8
BLACK
6
CONTINUOUS
10
1.25753
20
1.46653
11
1.2613
21
1.46728
0
LINE
8
BLACK
6
CONTINUOUS
10
1.2613
20
1.46728
11
1.2987
21
1.46728
0
LINE
8
BLACK
6
CONTINUOUS
10
1.2987
20
1.46728
11
1.30247
21
1.46653
0
LINE
8
BLACK
6
CONTINUOUS
10
1.43707
20
1.47996
11
1.44027
21
1.47783
0
LINE
8
BLACK
6
CONTINUOUS
10
1.44027
20
1.47783
11
1.4424
21
1.47463
0
LINE
8
BLACK
6
CONTINUOUS
10
1.4424
20
1.47463
11
1.44315
21
1.47087
0
LINE
8
BLACK
6
CONTINUOUS
10
1.44315
20
1.47087
11
1.44315
21
1.44528
0
LINE
8
BLACK
6
CONTINUOUS
10
1.44315
20
1.44528
11
1.4424
21
1.44151
0
LINE
8
BLACK
6
CONTINUOUS
10
1.4424
20
1.44151
11
1.44027
21
1.43832
0
LINE
8
BLACK
6
CONTINUOUS
10
1.44027
20
1.43832
11
1.43707
21
1.43618
0
LINE
8
BLACK
6
CONTINUOUS
10
1.43707
20
1.43618
11
1.43331
21
1.43543
0
LINE
8
BLACK
6
CONTINUOUS
10
1.43331
20
1.43543
11
1.34669
21
1.43543
0
LINE
8
BLACK
6
CONTINUOUS
10
1.34669
20
1.43543
11
1.34293
21
1.43618
0
LINE
8
BLACK
6
CONTINUOUS
10
1.34293
20
1.43618
11
1.33973
21
1.43832
0
LINE
8
BLACK
6
CONTINUOUS
10
1.33973
20
1.43832
11
1.3376
21
1.44151
0
LINE
8
BLACK
6
CONTINUOUS
10
1.3376
20
1.44151
11
1.33685
21
1.44528
0
LINE
8
BLACK
6
CONTINUOUS
10
1.33685
20
1.44528
11
1.33685
21
1.47087
0
LINE
8
BLACK
6
CONTINUOUS
10
1.33685
20
1.47087
11
1.3376
21
1.47463
0
LINE
8
BLACK
6
CONTINUOUS
10
1.3376
20
1.47463
11
1.33973
21
1.47783
0
LINE
8
BLACK
6
CONTINUOUS
10
1.33973
20
1.47783
11
1.34293
21
1.47996
0
LINE
8
BLACK
6
CONTINUOUS
10
1.34293
20
1.47996
11
1.34669
21
1.48071
0
LINE
8
BLACK
6
CONTINUOUS
10
1.34669
20
1.48071
11
1.43331
21
1.48071
0
LINE
8
BLACK
6
CONTINUOUS
10
1.43331
20
1.48071
11
1.43707
21
1.47996
0
LINE
8
BLACK
6
CONTINUOUS
10
0.42051
20
1.71632
11
0.433874
21
1.71315
0
LINE
8
BLACK
6
CONTINUOUS
10
0.433874
20
1.71315
11
0.446781
21
1.70845
0
LINE
8
BLACK
6
CONTINUOUS
10
0.446781
20
1.70845
11
0.459055
21
1.70229
0
LINE
8
BLACK
6
CONTINUOUS
10
0.459055
20
1.70229
11
0.470531
21
1.69474
0
LINE
8
BLACK
6
CONTINUOUS
10
0.470531
20
1.69474
11
0.481052
21
1.68591
0
LINE
8
BLACK
6
CONTINUOUS
10
0.481052
20
1.68591
11
0.490478
21
1.67592
0
LINE
8
BLACK
6
CONTINUOUS
10
0.490478
20
1.67592
11
0.49868
21
1.6649
0
LINE
8
BLACK
6
CONTINUOUS
10
0.49868
20
1.6649
11
0.505547
21
1.65301
0
LINE
8
BLACK
6
CONTINUOUS
10
0.505547
20
1.65301
11
0.510987
21
1.6404
0
LINE
8
BLACK
6
CONTINUOUS
10
0.510987
20
1.6404
11
0.514927
21
1.62724
0
LINE
8
BLACK
6
CONTINUOUS
10
0.514927
20
1.62724
11
0.517312
21
1.61371
0
LINE
8
BLACK
6
CONTINUOUS
10
0.517312
20
1.61371
11
0.51811
21
1.6
0
LINE
8
BLACK
6
CONTINUOUS
10
0.51811
20
1.6
11
0.517312
21
1.58629
0
LINE
8
BLACK
6
CONTINUOUS
10
0.517312
20
1.58629
11
0.514927
21
1.57276
0
LINE
8
BLACK
6
CONTINUOUS
10
0.514927
20
1.57276
11
0.510987
21
1.5596
0
LINE
8
BLACK
6
CONTINUOUS
10
0.510987
20
1.5596
11
0.505547
21
1.54699
0
LINE
8
BLACK
6
CONTINUOUS
10
0.505547
20
1.54699
11
0.49868
21
1.5351
0
LINE
8
BLACK
6
CONTINUOUS
10
0.49868
20
1.5351
11
0.490478
21
1.52408
0
LINE
8
BLACK
6
CONTINUOUS
10
0.490478
20
1.52408
11
0.481052
21
1.51409
0
LINE
8
BLACK
6
CONTINUOUS
10
0.481052
20
1.51409
11
0.470531
21
1.50526
0
LINE
8
BLACK
6
CONTINUOUS
10
0.470531
20
1.50526
11
0.459055
21
1.49771
0
LINE
8
BLACK
6
CONTINUOUS
10
0.459055
20
1.49771
11
0.446781
21
1.49155
0
LINE
8
BLACK
6
CONTINUOUS
10
0.446781
20
1.49155
11
0.433874
21
1.48685
0
LINE
8
BLACK
6
CONTINUOUS
10
0.433874
20
1.48685
11
0.42051
21
1.48368
0
LINE
8
BLACK
6
CONTINUOUS
10
0.42051
20
1.48368
11
0.406867
21
1.48209
0
LINE
8
BLACK
6
CONTINUOUS
10
0.406867
20
1.48209
11
0.393133
21
1.48209
0
LINE
8
BLACK
6
CONTINUOUS
10
0.393133
20
1.48209
11
0.37949
21
1.48368
0
LINE
8
BLACK
6
CONTINUOUS
10
0.37949
20
1.48368
11
0.366126
21
1.48685
0
LINE
8
BLACK
6
CONTINUOUS
10
0.366126
20
1.48685
11
0.353219
21
1.49155
0
LINE
8
BLACK
6
CONTINUOUS
10
0.353219
20
1.49155
11
0.340945
21
1.49771
0
LINE
8
BLACK
6
CONTINUOUS
10
0.340945
20
1.49771
11
0.329469
21
1.50526
0
LINE
8
BLACK
6
CONTINUOUS
10
0.329469
20
1.50526
11
0.318948
21
1.51409
0
LINE
8
BLACK
6
CONTINUOUS
10
0.318948
20
1.51409
11
0.309522
21
1.52408
0
LINE
8
BLACK
6
CONTINUOUS
10
0.309522
20
1.52408
11
0.30132
21
1.5351
0
LINE
8
BLACK
6
CONTINUOUS
10
0.30132
20
1.5351
11
0.294453
21
1.54699
0
LINE
8
BLACK
6
CONTINUOUS
10
0.294453
20
1.54699
11
0.289013
21
1.5596
0
LINE
8
BLACK
6
CONTINUOUS
10
0.289013
20
1.5596
11
0.285073
21
1.57276
0
LINE
8
BLACK
6
CONTINUOUS
10
0.285073
20
1.57276
11
0.282688
21
1.58629
0
LINE
8
BLACK
6
CONTINUOUS
10
0.282688
20
1.58629
11
0.28189
21
1.6
0
LINE
8
BLACK
6
CONTINUOUS
10
0.28189
20
1.6
11
0.282688
21
1.61371
0
LINE
8
BLACK
6
CONTINUOUS
10
0.282688
20
1.61371
11
0.285073
21
1.62724
0
LINE
8
BLACK
6
CONTINUOUS
10
0.285073
20
1.62724
11
0.289013
21
1.6404
0
LINE
8
BLACK
6
CONTINUOUS
10
0.289013
20
1.6404
11
0.294453
21
1.65301
0
LINE
8
BLACK
6
CONTINUOUS
10
0.294453
20
1.65301
11
0.30132
21
1.6649
0
LINE
8
BLACK
6
CONTINUOUS
10
0.30132
20
1.6649
11
0.309522
21
1.67592
0
LINE
8
BLACK
6
CONTINUOUS
10
0.309522
20
1.67592
11
0.318948
21
1.68591
0
LINE
8
BLACK
6
CONTINUOUS
10
0.318948
20
1.68591
11
0.329469
21
1.69474
0
LINE
8
BLACK
6
CONTINUOUS
10
0.329469
20
1.69474
11
0.340945
21
1.70229
0
LINE
8
BLACK
6
CONTINUOUS
10
0.340945
20
1.70229
11
0.353219
21
1.70845
0
LINE
8
BLACK
6
CONTINUOUS
10
0.353219
20
1.70845
11
0.366126
21
1.71315
0
LINE
8
BLACK
6
CONTINUOUS
10
0.366126
20
1.71315
11
0.37949
21
1.71632
0
LINE
8
BLACK
6
CONTINUOUS
10
0.37949
20
1.71632
11
0.393133
21
1.71791
0
LINE
8
BLACK
6
CONTINUOUS
10
0.393133
20
1.71791
11
0.406867
21
1.71791
0
LINE
8
BLACK
6
CONTINUOUS
10
0.406867
20
1.71791
11
0.42051
21
1.71632
0
LINE
8
BLACK
6
CONTINUOUS
10
2.42051
20
1.71632
11
2.43387
21
1.71315
0
LINE
8
BLACK
6
CONTINUOUS
10
2.43387
20
1.71315
11
2.44678
21
1.70845
0
LINE
8
BLACK
6
CONTINUOUS
10
2.44678
20
1.70845
11
2.45906
21
1.70229
0
LINE
8
BLACK
6
CONTINUOUS
10
2.45906
20
1.70229
11
2.47053
21
1.69474
0
LINE
8
BLACK
6
CONTINUOUS
10
2.47053
20
1.69474
11
2.48105
21
1.68591
0
LINE
8
BLACK
6
CONTINUOUS
10
2.48105
20
1.68591
11
2.49048
21
1.67592
0
LINE
8
BLACK
6
CONTINUOUS
10
2.49048
20
1.67592
11
2.49868
21
1.6649
0
LINE
8
BLACK
6
CONTINUOUS
10
2.49868
20
1.6649
11
2.50555
21
1.65301
0
LINE
8
BLACK
6
CONTINUOUS
10
2.50555
20
1.65301
11
2.51099
21
1.6404
0
LINE
8
BLACK
6
CONTINUOUS
10
2.51099
20
1.6404
11
2.51493
21
1.62724
0
LINE
8
BLACK
6
CONTINUOUS
10
2.51493
20
1.62724
11
2.51731
21
1.61371
0
LINE
8
BLACK
6
CONTINUOUS
10
2.51731
20
1.61371
11
2.51811
21
1.6
0
LINE
8
BLACK
6
CONTINUOUS
10
2.51811
20
1.6
11
2.51731
21
1.58629
0
LINE
8
BLACK
6
CONTINUOUS
10
2.51731
20
1.58629
11
2.51493
21
1.57276
0
LINE
8
BLACK
6
CONTINUOUS
10
2.51493
20
1.57276
11
2.51099
21
1.5596
0
LINE
8
BLACK
6
CONTINUOUS
10
2.51099
20
1.5596
11
2.50555
21
1.54699
0
LINE
8
BLACK
6
CONTINUOUS
10
2.50555
20
1.54699
11
2.49868
21
1.5351
0
LINE
8
BLACK
6
CONTINUOUS
10
2.49868
20
1.5351
11
2.49048
21
1.52408
0
LINE
8
BLACK
6
CONTINUOUS
10
2.49048
20
1.52408
11
2.48105
21
1.51409
0
LINE
8
BLACK
6
CONTINUOUS
10
2.48105
20
1.51409
11
2.47053
21
1.50526
0
LINE
8
BLACK
6
CONTINUOUS
10
2.47053
20
1.50526
11
2.45906
21
1.49771
0
LINE
8
BLACK
6
CONTINUOUS
10
2.45906
20
1.49771
11
2.44678
21
1.49155
0
LINE
8
BLACK
6
CONTINUOUS
10
2.44678
20
1.49155
11
2.43387
21
1.48685
0
LINE
8
BLACK
6
CONTINUOUS
10
2.43387
20
1.48685
11
2.42051
21
1.48368
0
LINE
8
BLACK
6
CONTINUOUS
10
2.42051
20
1.48368
11
2.40687
21
1.48209
0
LINE
8
BLACK
6
CONTINUOUS
10
2.40687
20
1.48209
11
2.39313
21
1.48209
0
LINE
8
BLACK
6
CONTINUOUS
10
2.39313
20
1.48209
11
2.37949
21
1.48368
0
LINE
8
BLACK
6
CONTINUOUS
10
2.37949
20
1.48368
11
2.36613
21
1.48685
0
LINE
8
BLACK
6
CONTINUOUS
10
2.36613
20
1.48685
11
2.35322
21
1.49155
0
LINE
8
BLACK
6
CONTINUOUS
10
2.35322
20
1.49155
11
2.34094
21
1.49771
0
LINE
8
BLACK
6
CONTINUOUS
10
2.34094
20
1.49771
11
2.32947
21
1.50526
0
LINE
8
BLACK
6
CONTINUOUS
10
2.32947
20
1.50526
11
2.31895
21
1.51409
0
LINE
8
BLACK
6
CONTINUOUS
10
2.31895
20
1.51409
11
2.30952
21
1.52408
0
LINE
8
BLACK
6
CONTINUOUS
10
2.30952
20
1.52408
11
2.30132
21
1.5351
0
LINE
8
BLACK
6
CONTINUOUS
10
2.30132
20
1.5351
11
2.29445
21
1.54699
0
LINE
8
BLACK
6
CONTINUOUS
10
2.29445
20
1.54699
11
2.28901
21
1.5596
0
LINE
8
BLACK
6
CONTINUOUS
10
2.28901
20
1.5596
11
2.28507
21
1.57276
0
LINE
8
BLACK
6
CONTINUOUS
10
2.28507
20
1.57276
11
2.28269
21
1.58629
0
LINE
8
BLACK
6
CONTINUOUS
10
2.28269
20
1.58629
11
2.28189
21
1.6
0
LINE
8
BLACK
6
CONTINUOUS
10
2.28189
20
1.6
11
2.28269
21
1.61371
0
LINE
8
BLACK
6
CONTINUOUS
10
2.28269
20
1.61371
11
2.28507
21
1.62724
0
LINE
8
BLACK
6
CONTINUOUS
10
2.28507
20
1.62724
11
2.28901
21
1.6404
0
LINE
8
BLACK
6
CONTINUOUS
10
2.28901
20
1.6404
11
2.29445
21
1.65301
0
LINE
8
BLACK
6
CONTINUOUS
10
2.29445
20
1.65301
11
2.30132
21
1.6649
0
LINE
8
BLACK
6
CONTINUOUS
10
2.30132
20
1.6649
11
2.30952
21
1.67592
0
LINE
8
BLACK
6
CONTINUOUS
10
2.30952
20
1.67592
11
2.31895
21
1.68591
0
LINE
8
BLACK
6
CONTINUOUS
10
2.31895
20
1.68591
11
2.32947
21
1.69474
0
LINE
8
BLACK
6
CONTINUOUS
10
2.32947
20
1.69474
11
2.34094
21
1.70229
0
LINE
8
BLACK
6
CONTINUOUS
10
2.34094
20
1.70229
11
2.35322
21
1.70845
0
LINE
8
BLACK
6
CONTINUOUS
10
2.35322
20
1.70845
11
2.36613
21
1.71315
0
LINE
8
BLACK
6
CONTINUOUS
10
2.36613
20
1.71315
11
2.37949
21
1.71632
0
LINE
8
BLACK
6
CONTINUOUS
10
2.37949
20
1.71632
11
2.39313
21
1.71791
0
LINE
8
BLACK
6
CONTINUOUS
10
2.39313
20
1.71791
11
2.40687
21
1.71791
0
LINE
8
BLACK
6
CONTINUOUS
10
2.40687
20
1.71791
11
2.42051
21
1.71632
0
LINE
8
BLACK
6
CONTINUOUS
10
1.0105
20
1.53996
11
1.01369
21
1.53783
0
LINE
8
BLACK
6
CONTINUOUS
10
1.01369
20
1.53783
11
1.01583
21
1.53463
0
LINE
8
BLACK
6
CONTINUOUS
10
1.01583
20
1.53463
11
1.01657
21
1.53087
0
LINE
8
BLACK
6
CONTINUOUS
10
1.01657
20
1.53087
11
1.01657
21
1.49543
0
LINE
8
BLACK
6
CONTINUOUS
10
1.01657
20
1.49543
11
1.01583
21
1.49167
0
LINE
8
BLACK
6
CONTINUOUS
10
1.01583
20
1.49167
11
1.01369
21
1.48847
0
LINE
8
BLACK
6
CONTINUOUS
10
1.01369
20
1.48847
11
1.0105
21
1.48634
0
LINE
8
BLACK
6
CONTINUOUS
10
1.0105
20
1.48634
11
1.00673
21
1.48559
0
LINE
8
BLACK
6
CONTINUOUS
10
1.00673
20
1.48559
11
0.973268
21
1.48559
0
LINE
8
BLACK
6
CONTINUOUS
10
0.973268
20
1.48559
11
0.969501
21
1.48634
0
LINE
8
BLACK
6
CONTINUOUS
10
0.969501
20
1.48634
11
0.966308
21
1.48847
0
LINE
8
BLACK
6
CONTINUOUS
10
0.966308
20
1.48847
11
0.964174
21
1.49167
0
LINE
8
BLACK
6
CONTINUOUS
10
0.964174
20
1.49167
11
0.963425
21
1.49543
0
LINE
8
BLACK
6
CONTINUOUS
10
0.963425
20
1.49543
11
0.963425
21
1.53087
0
LINE
8
BLACK
6
CONTINUOUS
10
0.963425
20
1.53087
11
0.964174
21
1.53463
0
LINE
8
BLACK
6
CONTINUOUS
10
0.964174
20
1.53463
11
0.966308
21
1.53783
0
LINE
8
BLACK
6
CONTINUOUS
10
0.966308
20
1.53783
11
0.969501
21
1.53996
0
LINE
8
BLACK
6
CONTINUOUS
10
0.969501
20
1.53996
11
0.973268
21
1.54071
0
LINE
8
BLACK
6
CONTINUOUS
10
0.973268
20
1.54071
11
1.00673
21
1.54071
0
LINE
8
BLACK
6
CONTINUOUS
10
1.00673
20
1.54071
11
1.0105
21
1.53996
0
LINE
8
BLACK
6
CONTINUOUS
10
1.2155
20
1.53996
11
1.21869
21
1.53783
0
LINE
8
BLACK
6
CONTINUOUS
10
1.21869
20
1.53783
11
1.22083
21
1.53463
0
LINE
8
BLACK
6
CONTINUOUS
10
1.22083
20
1.53463
11
1.22157
21
1.53087
0
LINE
8
BLACK
6
CONTINUOUS
10
1.22157
20
1.53087
11
1.22157
21
1.49543
0
LINE
8
BLACK
6
CONTINUOUS
10
1.22157
20
1.49543
11
1.22083
21
1.49167
0
LINE
8
BLACK
6
CONTINUOUS
10
1.22083
20
1.49167
11
1.21869
21
1.48847
0
LINE
8
BLACK
6
CONTINUOUS
10
1.21869
20
1.48847
11
1.2155
21
1.48634
0
LINE
8
BLACK
6
CONTINUOUS
10
1.2155
20
1.48634
11
1.21173
21
1.48559
0
LINE
8
BLACK
6
CONTINUOUS
10
1.21173
20
1.48559
11
1.17827
21
1.48559
0
LINE
8
BLACK
6
CONTINUOUS
10
1.17827
20
1.48559
11
1.1745
21
1.48634
0
LINE
8
BLACK
6
CONTINUOUS
10
1.1745
20
1.48634
11
1.17131
21
1.48847
0
LINE
8
BLACK
6
CONTINUOUS
10
1.17131
20
1.48847
11
1.16917
21
1.49167
0
LINE
8
BLACK
6
CONTINUOUS
10
1.16917
20
1.49167
11
1.16843
21
1.49543
0
LINE
8
BLACK
6
CONTINUOUS
10
1.16843
20
1.49543
11
1.16843
21
1.53087
0
LINE
8
BLACK
6
CONTINUOUS
10
1.16843
20
1.53087
11
1.16917
21
1.53463
0
LINE
8
BLACK
6
CONTINUOUS
10
1.16917
20
1.53463
11
1.17131
21
1.53783
0
LINE
8
BLACK
6
CONTINUOUS
10
1.17131
20
1.53783
11
1.1745
21
1.53996
0
LINE
8
BLACK
6
CONTINUOUS
10
1.1745
20
1.53996
11
1.17827
21
1.54071
0
LINE
8
BLACK
6
CONTINUOUS
10
1.17827
20
1.54071
11
1.21173
21
1.54071
0
LINE
8
BLACK
6
CONTINUOUS
10
1.21173
20
1.54071
11
1.2155
21
1.53996
0
LINE
8
BLACK
6
CONTINUOUS
10
-0.326165
20
1.52286
11
-0.324249
21
1.52158
0
LINE
8
BLACK
6
CONTINUOUS
10
-0.324249
20
1.52158
11
-0.322969
21
1.51966
0
LINE
8
BLACK
6
CONTINUOUS
10
-0.322969
20
1.51966
11
-0.32252
21
1.5174
0
LINE
8
BLACK
6
CONTINUOUS
10
-0.32252
20
1.5174
11
-0.32252
21
1.50559
0
LINE
8
BLACK
6
CONTINUOUS
10
-0.32252
20
1.50559
11
-0.322969
21
1.50333
0
LINE
8
BLACK
6
CONTINUOUS
10
-0.322969
20
1.50333
11
-0.324249
21
1.50141
0
LINE
8
BLACK
6
CONTINUOUS
10
-0.324249
20
1.50141
11
-0.326165
21
1.50013
0
LINE
8
BLACK
6
CONTINUOUS
10
-0.326165
20
1.50013
11
-0.328425
21
1.49969
0
LINE
8
BLACK
6
CONTINUOUS
10
-0.328425
20
1.49969
11
-0.36878
21
1.49969
0
LINE
8
BLACK
6
CONTINUOUS
10
-0.36878
20
1.49969
11
-0.371039
21
1.50013
0
LINE
8
BLACK
6
CONTINUOUS
10
-0.371039
20
1.50013
11
-0.372955
21
1.50141
0
LINE
8
BLACK
6
CONTINUOUS
10
-0.372955
20
1.50141
11
-0.374236
21
1.50333
0
LINE
8
BLACK
6
CONTINUOUS
10
-0.374236
20
1.50333
11
-0.374685
21
1.50559
0
LINE
8
BLACK
6
CONTINUOUS
10
-0.374685
20
1.50559
11
-0.374685
21
1.5174
0
LINE
8
BLACK
6
CONTINUOUS
10
-0.374685
20
1.5174
11
-0.374236
21
1.51966
0
LINE
8
BLACK
6
CONTINUOUS
10
-0.374236
20
1.51966
11
-0.372955
21
1.52158
0
LINE
8
BLACK
6
CONTINUOUS
10
-0.372955
20
1.52158
11
-0.371039
21
1.52286
0
LINE
8
BLACK
6
CONTINUOUS
10
-0.371039
20
1.52286
11
-0.36878
21
1.52331
0
LINE
8
BLACK
6
CONTINUOUS
10
-0.36878
20
1.52331
11
-0.328425
21
1.52331
0
LINE
8
BLACK
6
CONTINUOUS
10
-0.328425
20
1.52331
11
-0.326165
21
1.52286
0
LINE
8
BLACK
6
CONTINUOUS
10
-0.236598
20
1.52286
11
-0.234682
21
1.52158
0
LINE
8
BLACK
6
CONTINUOUS
10
-0.234682
20
1.52158
11
-0.233402
21
1.51966
0
LINE
8
BLACK
6
CONTINUOUS
10
-0.233402
20
1.51966
11
-0.232953
21
1.5174
0
LINE
8
BLACK
6
CONTINUOUS
10
-0.232953
20
1.5174
11
-0.232953
21
1.50559
0
LINE
8
BLACK
6
CONTINUOUS
10
-0.232953
20
1.50559
11
-0.233402
21
1.50333
0
LINE
8
BLACK
6
CONTINUOUS
10
-0.233402
20
1.50333
11
-0.234682
21
1.50141
0
LINE
8
BLACK
6
CONTINUOUS
10
-0.234682
20
1.50141
11
-0.236598
21
1.50013
0
LINE
8
BLACK
6
CONTINUOUS
10
-0.236598
20
1.50013
11
-0.238858
21
1.49969
0
LINE
8
BLACK
6
CONTINUOUS
10
-0.238858
20
1.49969
11
-0.279213
21
1.49969
0
LINE
8
BLACK
6
CONTINUOUS
10
-0.279213
20
1.49969
11
-0.281473
21
1.50013
0
LINE
8
BLACK
6
CONTINUOUS
10
-0.281473
20
1.50013
11
-0.283388
21
1.50141
0
LINE
8
BLACK
6
CONTINUOUS
10
-0.283388
20
1.50141
11
-0.284669
21
1.50333
0
LINE
8
BLACK
6
CONTINUOUS
10
-0.284669
20
1.50333
11
-0.285118
21
1.50559
0
LINE
8
BLACK
6
CONTINUOUS
10
-0.285118
20
1.50559
11
-0.285118
21
1.5174
0
LINE
8
BLACK
6
CONTINUOUS
10
-0.285118
20
1.5174
11
-0.284669
21
1.51966
0
LINE
8
BLACK
6
CONTINUOUS
10
-0.284669
20
1.51966
11
-0.283388
21
1.52158
0
LINE
8
BLACK
6
CONTINUOUS
10
-0.283388
20
1.52158
11
-0.281473
21
1.52286
0
LINE
8
BLACK
6
CONTINUOUS
10
-0.281473
20
1.52286
11
-0.279213
21
1.52331
0
LINE
8
BLACK
6
CONTINUOUS
10
-0.279213
20
1.52331
11
-0.238858
21
1.52331
0
LINE
8
BLACK
6
CONTINUOUS
10
-0.238858
20
1.52331
11
-0.236598
21
1.52286
0
LINE
8
BLACK
6
CONTINUOUS
10
0.858407
20
1.5381
11
0.860961
21
1.53639
0
LINE
8
BLACK
6
CONTINUOUS
10
0.860961
20
1.53639
11
0.862668
21
1.53384
0
LINE
8
BLACK
6
CONTINUOUS
10
0.862668
20
1.53384
11
0.863268
21
1.53083
0
LINE
8
BLACK
6
CONTINUOUS
10
0.863268
20
1.53083
11
0.863268
21
1.50917
0
LINE
8
BLACK
6
CONTINUOUS
10
0.863268
20
1.50917
11
0.862668
21
1.50616
0
LINE
8
BLACK
6
CONTINUOUS
10
0.862668
20
1.50616
11
0.860961
21
1.50361
0
LINE
8
BLACK
6
CONTINUOUS
10
0.860961
20
1.50361
11
0.858407
21
1.5019
0
LINE
8
BLACK
6
CONTINUOUS
10
0.858407
20
1.5019
11
0.855394
21
1.5013
0
LINE
8
BLACK
6
CONTINUOUS
10
0.855394
20
1.5013
11
0.839646
21
1.5013
0
LINE
8
BLACK
6
CONTINUOUS
10
0.839646
20
1.5013
11
0.836632
21
1.5019
0
LINE
8
BLACK
6
CONTINUOUS
10
0.836632
20
1.5019
11
0.834078
21
1.50361
0
LINE
8
BLACK
6
CONTINUOUS
10
0.834078
20
1.50361
11
0.832371
21
1.50616
0
LINE
8
BLACK
6
CONTINUOUS
10
0.832371
20
1.50616
11
0.831772
21
1.50917
0
LINE
8
BLACK
6
CONTINUOUS
10
0.831772
20
1.50917
11
0.831772
21
1.53083
0
LINE
8
BLACK
6
CONTINUOUS
10
0.831772
20
1.53083
11
0.832371
21
1.53384
0
LINE
8
BLACK
6
CONTINUOUS
10
0.832371
20
1.53384
11
0.834078
21
1.53639
0
LINE
8
BLACK
6
CONTINUOUS
10
0.834078
20
1.53639
11
0.836632
21
1.5381
0
LINE
8
BLACK
6
CONTINUOUS
10
0.836632
20
1.5381
11
0.839646
21
1.5387
0
LINE
8
BLACK
6
CONTINUOUS
10
0.839646
20
1.5387
11
0.855394
21
1.5387
0
LINE
8
BLACK
6
CONTINUOUS
10
0.855394
20
1.5387
11
0.858407
21
1.5381
0
LINE
8
BLACK
6
CONTINUOUS
10
0.923368
20
1.5381
11
0.925922
21
1.53639
0
LINE
8
BLACK
6
CONTINUOUS
10
0.925922
20
1.53639
11
0.927629
21
1.53384
0
LINE
8
BLACK
6
CONTINUOUS
10
0.927629
20
1.53384
11
0.928228
21
1.53083
0
LINE
8
BLACK
6
CONTINUOUS
10
0.928228
20
1.53083
11
0.928228
21
1.50917
0
LINE
8
BLACK
6
CONTINUOUS
10
0.928228
20
1.50917
11
0.927629
21
1.50616
0
LINE
8
BLACK
6
CONTINUOUS
10
0.927629
20
1.50616
11
0.925922
21
1.50361
0
LINE
8
BLACK
6
CONTINUOUS
10
0.925922
20
1.50361
11
0.923368
21
1.5019
0
LINE
8
BLACK
6
CONTINUOUS
10
0.923368
20
1.5019
11
0.920354
21
1.5013
0
LINE
8
BLACK
6
CONTINUOUS
10
0.920354
20
1.5013
11
0.904606
21
1.5013
0
LINE
8
BLACK
6
CONTINUOUS
10
0.904606
20
1.5013
11
0.901593
21
1.5019
0
LINE
8
BLACK
6
CONTINUOUS
10
0.901593
20
1.5019
11
0.899039
21
1.50361
0
LINE
8
BLACK
6
CONTINUOUS
10
0.899039
20
1.50361
11
0.897332
21
1.50616
0
LINE
8
BLACK
6
CONTINUOUS
10
0.897332
20
1.50616
11
0.896732
21
1.50917
0
LINE
8
BLACK
6
CONTINUOUS
10
0.896732
20
1.50917
11
0.896732
21
1.53083
0
LINE
8
BLACK
6
CONTINUOUS
10
0.896732
20
1.53083
11
0.897332
21
1.53384
0
LINE
8
BLACK
6
CONTINUOUS
10
0.897332
20
1.53384
11
0.899039
21
1.53639
0
LINE
8
BLACK
6
CONTINUOUS
10
0.899039
20
1.53639
11
0.901593
21
1.5381
0
LINE
8
BLACK
6
CONTINUOUS
10
0.901593
20
1.5381
11
0.904606
21
1.5387
0
LINE
8
BLACK
6
CONTINUOUS
10
0.904606
20
1.5387
11
0.920354
21
1.5387
0
LINE
8
BLACK
6
CONTINUOUS
10
0.920354
20
1.5387
11
0.923368
21
1.5381
0
LINE
8
BLACK
6
CONTINUOUS
10
1.06841
20
1.5381
11
1.07096
21
1.53639
0
LINE
8
BLACK
6
CONTINUOUS
10
1.07096
20
1.53639
11
1.07267
21
1.53384
0
LINE
8
BLACK
6
CONTINUOUS
10
1.07267
20
1.53384
11
1.07327
21
1.53083
0
LINE
8
BLACK
6
CONTINUOUS
10
1.07327
20
1.53083
11
1.07327
21
1.50917
0
LINE
8
BLACK
6
CONTINUOUS
10
1.07327
20
1.50917
11
1.07267
21
1.50616
0
LINE
8
BLACK
6
CONTINUOUS
10
1.07267
20
1.50616
11
1.07096
21
1.50361
0
LINE
8
BLACK
6
CONTINUOUS
10
1.07096
20
1.50361
11
1.06841
21
1.5019
0
LINE
8
BLACK
6
CONTINUOUS
10
1.06841
20
1.5019
11
1.06539
21
1.5013
0
LINE
8
BLACK
6
CONTINUOUS
10
1.06539
20
1.5013
11
1.04965
21
1.5013
0
LINE
8
BLACK
6
CONTINUOUS
10
1.04965
20
1.5013
11
1.04663
21
1.5019
0
LINE
8
BLACK
6
CONTINUOUS
10
1.04663
20
1.5019
11
1.04408
21
1.50361
0
LINE
8
BLACK
6
CONTINUOUS
10
1.04408
20
1.50361
11
1.04237
21
1.50616
0
LINE
8
BLACK
6
CONTINUOUS
10
1.04237
20
1.50616
11
1.04177
21
1.50917
0
LINE
8
BLACK
6
CONTINUOUS
10
1.04177
20
1.50917
11
1.04177
21
1.53083
0
LINE
8
BLACK
6
CONTINUOUS
10
1.04177
20
1.53083
11
1.04237
21
1.53384
0
LINE
8
BLACK
6
CONTINUOUS
10
1.04237
20
1.53384
11
1.04408
21
1.53639
0
LINE
8
BLACK
6
CONTINUOUS
10
1.04408
20
1.53639
11
1.04663
21
1.5381
0
LINE
8
BLACK
6
CONTINUOUS
10
1.04663
20
1.5381
11
1.04965
21
1.5387
0
LINE
8
BLACK
6
CONTINUOUS
10
1.04965
20
1.5387
11
1.06539
21
1.5387
0
LINE
8
BLACK
6
CONTINUOUS
10
1.06539
20
1.5387
11
1.06841
21
1.5381
0
LINE
8
BLACK
6
CONTINUOUS
10
1.13337
20
1.5381
11
1.13592
21
1.53639
0
LINE
8
BLACK
6
CONTINUOUS
10
1.13592
20
1.53639
11
1.13763
21
1.53384
0
LINE
8
BLACK
6
CONTINUOUS
10
1.13763
20
1.53384
11
1.13823
21
1.53083
0
LINE
8
BLACK
6
CONTINUOUS
10
1.13823
20
1.53083
11
1.13823
21
1.50917
0
LINE
8
BLACK
6
CONTINUOUS
10
1.13823
20
1.50917
11
1.13763
21
1.50616
0
LINE
8
BLACK
6
CONTINUOUS
10
1.13763
20
1.50616
11
1.13592
21
1.50361
0
LINE
8
BLACK
6
CONTINUOUS
10
1.13592
20
1.50361
11
1.13337
21
1.5019
0
LINE
8
BLACK
6
CONTINUOUS
10
1.13337
20
1.5019
11
1.13035
21
1.5013
0
LINE
8
BLACK
6
CONTINUOUS
10
1.13035
20
1.5013
11
1.11461
21
1.5013
0
LINE
8
BLACK
6
CONTINUOUS
10
1.11461
20
1.5013
11
1.11159
21
1.5019
0
LINE
8
BLACK
6
CONTINUOUS
10
1.11159
20
1.5019
11
1.10904
21
1.50361
0
LINE
8
BLACK
6
CONTINUOUS
10
1.10904
20
1.50361
11
1.10733
21
1.50616
0
LINE
8
BLACK
6
CONTINUOUS
10
1.10733
20
1.50616
11
1.10673
21
1.50917
0
LINE
8
BLACK
6
CONTINUOUS
10
1.10673
20
1.50917
11
1.10673
21
1.53083
0
LINE
8
BLACK
6
CONTINUOUS
10
1.10673
20
1.53083
11
1.10733
21
1.53384
0
LINE
8
BLACK
6
CONTINUOUS
10
1.10733
20
1.53384
11
1.10904
21
1.53639
0
LINE
8
BLACK
6
CONTINUOUS
10
1.10904
20
1.53639
11
1.11159
21
1.5381
0
LINE
8
BLACK
6
CONTINUOUS
10
1.11159
20
1.5381
11
1.11461
21
1.5387
0
LINE
8
BLACK
6
CONTINUOUS
10
1.11461
20
1.5387
11
1.13035
21
1.5387
0
LINE
8
BLACK
6
CONTINUOUS
10
1.13035
20
1.5387
11
1.13337
21
1.5381
0
LINE
8
BLACK
6
CONTINUOUS
10
1.30247
20
1.54134
11
1.30566
21
1.5392
0
LINE
8
BLACK
6
CONTINUOUS
10
1.30566
20
1.5392
11
1.30779
21
1.53601
0
LINE
8
BLACK
6
CONTINUOUS
10
1.30779
20
1.53601
11
1.30854
21
1.53224
0
LINE
8
BLACK
6
CONTINUOUS
10
1.30854
20
1.53224
11
1.30854
21
1.51256
0
LINE
8
BLACK
6
CONTINUOUS
10
1.30854
20
1.51256
11
1.30779
21
1.50879
0
LINE
8
BLACK
6
CONTINUOUS
10
1.30779
20
1.50879
11
1.30566
21
1.5056
0
LINE
8
BLACK
6
CONTINUOUS
10
1.30566
20
1.5056
11
1.30247
21
1.50347
0
LINE
8
BLACK
6
CONTINUOUS
10
1.30247
20
1.50347
11
1.2987
21
1.50272
0
LINE
8
BLACK
6
CONTINUOUS
10
1.2987
20
1.50272
11
1.2613
21
1.50272
0
LINE
8
BLACK
6
CONTINUOUS
10
1.2613
20
1.50272
11
1.25753
21
1.50347
0
LINE
8
BLACK
6
CONTINUOUS
10
1.25753
20
1.50347
11
1.25434
21
1.5056
0
LINE
8
BLACK
6
CONTINUOUS
10
1.25434
20
1.5056
11
1.25221
21
1.50879
0
LINE
8
BLACK
6
CONTINUOUS
10
1.25221
20
1.50879
11
1.25146
21
1.51256
0
LINE
8
BLACK
6
CONTINUOUS
10
1.25146
20
1.51256
11
1.25146
21
1.53224
0
LINE
8
BLACK
6
CONTINUOUS
10
1.25146
20
1.53224
11
1.25221
21
1.53601
0
LINE
8
BLACK
6
CONTINUOUS
10
1.25221
20
1.53601
11
1.25434
21
1.5392
0
LINE
8
BLACK
6
CONTINUOUS
10
1.25434
20
1.5392
11
1.25753
21
1.54134
0
LINE
8
BLACK
6
CONTINUOUS
10
1.25753
20
1.54134
11
1.2613
21
1.54209
0
LINE
8
BLACK
6
CONTINUOUS
10
1.2613
20
1.54209
11
1.2987
21
1.54209
0
LINE
8
BLACK
6
CONTINUOUS
10
1.2987
20
1.54209
11
1.30247
21
1.54134
0
LINE
8
BLACK
6
CONTINUOUS
10
1.35841
20
1.5481
11
1.36096
21
1.54639
0
LINE
8
BLACK
6
CONTINUOUS
10
1.36096
20
1.54639
11
1.36267
21
1.54384
0
LINE
8
BLACK
6
CONTINUOUS
10
1.36267
20
1.54384
11
1.36327
21
1.54083
0
LINE
8
BLACK
6
CONTINUOUS
10
1.36327
20
1.54083
11
1.36327
21
1.51917
0
LINE
8
BLACK
6
CONTINUOUS
10
1.36327
20
1.51917
11
1.36267
21
1.51616
0
LINE
8
BLACK
6
CONTINUOUS
10
1.36267
20
1.51616
11
1.36096
21
1.51361
0
LINE
8
BLACK
6
CONTINUOUS
10
1.36096
20
1.51361
11
1.35841
21
1.5119
0
LINE
8
BLACK
6
CONTINUOUS
10
1.35841
20
1.5119
11
1.35539
21
1.5113
0
LINE
8
BLACK
6
CONTINUOUS
10
1.35539
20
1.5113
11
1.33965
21
1.5113
0
LINE
8
BLACK
6
CONTINUOUS
10
1.33965
20
1.5113
11
1.33663
21
1.5119
0
LINE
8
BLACK
6
CONTINUOUS
10
1.33663
20
1.5119
11
1.33408
21
1.51361
0
LINE
8
BLACK
6
CONTINUOUS
10
1.33408
20
1.51361
11
1.33237
21
1.51616
0
LINE
8
BLACK
6
CONTINUOUS
10
1.33237
20
1.51616
11
1.33177
21
1.51917
0
LINE
8
BLACK
6
CONTINUOUS
10
1.33177
20
1.51917
11
1.33177
21
1.54083
0
LINE
8
BLACK
6
CONTINUOUS
10
1.33177
20
1.54083
11
1.33237
21
1.54384
0
LINE
8
BLACK
6
CONTINUOUS
10
1.33237
20
1.54384
11
1.33408
21
1.54639
0
LINE
8
BLACK
6
CONTINUOUS
10
1.33408
20
1.54639
11
1.33663
21
1.5481
0
LINE
8
BLACK
6
CONTINUOUS
10
1.33663
20
1.5481
11
1.33965
21
1.5487
0
LINE
8
BLACK
6
CONTINUOUS
10
1.33965
20
1.5487
11
1.35539
21
1.5487
0
LINE
8
BLACK
6
CONTINUOUS
10
1.35539
20
1.5487
11
1.35841
21
1.5481
0
LINE
8
BLACK
6
CONTINUOUS
10
1.42337
20
1.5481
11
1.42592
21
1.54639
0
LINE
8
BLACK
6
CONTINUOUS
10
1.42592
20
1.54639
11
1.42763
21
1.54384
0
LINE
8
BLACK
6
CONTINUOUS
10
1.42763
20
1.54384
11
1.42823
21
1.54083
0
LINE
8
BLACK
6
CONTINUOUS
10
1.42823
20
1.54083
11
1.42823
21
1.51917
0
LINE
8
BLACK
6
CONTINUOUS
10
1.42823
20
1.51917
11
1.42763
21
1.51616
0
LINE
8
BLACK
6
CONTINUOUS
10
1.42763
20
1.51616
11
1.42592
21
1.51361
0
LINE
8
BLACK
6
CONTINUOUS
10
1.42592
20
1.51361
11
1.42337
21
1.5119
0
LINE
8
BLACK
6
CONTINUOUS
10
1.42337
20
1.5119
11
1.42035
21
1.5113
0
LINE
8
BLACK
6
CONTINUOUS
10
1.42035
20
1.5113
11
1.40461
21
1.5113
0
LINE
8
BLACK
6
CONTINUOUS
10
1.40461
20
1.5113
11
1.40159
21
1.5119
0
LINE
8
BLACK
6
CONTINUOUS
10
1.40159
20
1.5119
11
1.39904
21
1.51361
0
LINE
8
BLACK
6
CONTINUOUS
10
1.39904
20
1.51361
11
1.39733
21
1.51616
0
LINE
8
BLACK
6
CONTINUOUS
10
1.39733
20
1.51616
11
1.39673
21
1.51917
0
LINE
8
BLACK
6
CONTINUOUS
10
1.39673
20
1.51917
11
1.39673
21
1.54083
0
LINE
8
BLACK
6
CONTINUOUS
10
1.39673
20
1.54083
11
1.39733
21
1.54384
0
LINE
8
BLACK
6
CONTINUOUS
10
1.39733
20
1.54384
11
1.39904
21
1.54639
0
LINE
8
BLACK
6
CONTINUOUS
10
1.39904
20
1.54639
11
1.40159
21
1.5481
0
LINE
8
BLACK
6
CONTINUOUS
10
1.40159
20
1.5481
11
1.40461
21
1.5487
0
LINE
8
BLACK
6
CONTINUOUS
10
1.40461
20
1.5487
11
1.42035
21
1.5487
0
LINE
8
BLACK
6
CONTINUOUS
10
1.42035
20
1.5487
11
1.42337
21
1.5481
0
LINE
8
BLACK
6
CONTINUOUS
10
1.48341
20
1.5481
11
1.48596
21
1.54639
0
LINE
8
BLACK
6
CONTINUOUS
10
1.48596
20
1.54639
11
1.48767
21
1.54384
0
LINE
8
BLACK
6
CONTINUOUS
10
1.48767
20
1.54384
11
1.48827
21
1.54083
0
LINE
8
BLACK
6
CONTINUOUS
10
1.48827
20
1.54083
11
1.48827
21
1.51917
0
LINE
8
BLACK
6
CONTINUOUS
10
1.48827
20
1.51917
11
1.48767
21
1.51616
0
LINE
8
BLACK
6
CONTINUOUS
10
1.48767
20
1.51616
11
1.48596
21
1.51361
0
LINE
8
BLACK
6
CONTINUOUS
10
1.48596
20
1.51361
11
1.48341
21
1.5119
0
LINE
8
BLACK
6
CONTINUOUS
10
1.48341
20
1.5119
11
1.48039
21
1.5113
0
LINE
8
BLACK
6
CONTINUOUS
10
1.48039
20
1.5113
11
1.46465
21
1.5113
0
LINE
8
BLACK
6
CONTINUOUS
10
1.46465
20
1.5113
11
1.46163
21
1.5119
0
LINE
8
BLACK
6
CONTINUOUS
10
1.46163
20
1.5119
11
1.45908
21
1.51361
0
LINE
8
BLACK
6
CONTINUOUS
10
1.45908
20
1.51361
11
1.45737
21
1.51616
0
LINE
8
BLACK
6
CONTINUOUS
10
1.45737
20
1.51616
11
1.45677
21
1.51917
0
LINE
8
BLACK
6
CONTINUOUS
10
1.45677
20
1.51917
11
1.45677
21
1.54083
0
LINE
8
BLACK
6
CONTINUOUS
10
1.45677
20
1.54083
11
1.45737
21
1.54384
0
LINE
8
BLACK
6
CONTINUOUS
10
1.45737
20
1.54384
11
1.45908
21
1.54639
0
LINE
8
BLACK
6
CONTINUOUS
10
1.45908
20
1.54639
11
1.46163
21
1.5481
0
LINE
8
BLACK
6
CONTINUOUS
10
1.46163
20
1.5481
11
1.46465
21
1.5487
0
LINE
8
BLACK
6
CONTINUOUS
10
1.46465
20
1.5487
11
1.48039
21
1.5487
0
LINE
8
BLACK
6
CONTINUOUS
10
1.48039
20
1.5487
11
1.48341
21
1.5481
0
LINE
8
BLACK
6
CONTINUOUS
10
1.54837
20
1.5481
11
1.55092
21
1.54639
0
LINE
8
BLACK
6
CONTINUOUS
10
1.55092
20
1.54639
11
1.55263
21
1.54384
0
LINE
8
BLACK
6
CONTINUOUS
10
1.55263
20
1.54384
11
1.55323
21
1.54083
0
LINE
8
BLACK
6
CONTINUOUS
10
1.55323
20
1.54083
11
1.55323
21
1.51917
0
LINE
8
BLACK
6
CONTINUOUS
10
1.55323
20
1.51917
11
1.55263
21
1.51616
0
LINE
8
BLACK
6
CONTINUOUS
10
1.55263
20
1.51616
11
1.55092
21
1.51361
0
LINE
8
BLACK
6
CONTINUOUS
10
1.55092
20
1.51361
11
1.54837
21
1.5119
0
LINE
8
BLACK
6
CONTINUOUS
10
1.54837
20
1.5119
11
1.54535
21
1.5113
0
LINE
8
BLACK
6
CONTINUOUS
10
1.54535
20
1.5113
11
1.52961
21
1.5113
0
LINE
8
BLACK
6
CONTINUOUS
10
1.52961
20
1.5113
11
1.52659
21
1.5119
0
LINE
8
BLACK
6
CONTINUOUS
10
1.52659
20
1.5119
11
1.52404
21
1.51361
0
LINE
8
BLACK
6
CONTINUOUS
10
1.52404
20
1.51361
11
1.52233
21
1.51616
0
LINE
8
BLACK
6
CONTINUOUS
10
1.52233
20
1.51616
11
1.52173
21
1.51917
0
LINE
8
BLACK
6
CONTINUOUS
10
1.52173
20
1.51917
11
1.52173
21
1.54083
0
LINE
8
BLACK
6
CONTINUOUS
10
1.52173
20
1.54083
11
1.52233
21
1.54384
0
LINE
8
BLACK
6
CONTINUOUS
10
1.52233
20
1.54384
11
1.52404
21
1.54639
0
LINE
8
BLACK
6
CONTINUOUS
10
1.52404
20
1.54639
11
1.52659
21
1.5481
0
LINE
8
BLACK
6
CONTINUOUS
10
1.52659
20
1.5481
11
1.52961
21
1.5487
0
LINE
8
BLACK
6
CONTINUOUS
10
1.52961
20
1.5487
11
1.54535
21
1.5487
0
LINE
8
BLACK
6
CONTINUOUS
10
1.54535
20
1.5487
11
1.54837
21
1.5481
0
LINE
8
BLACK
6
CONTINUOUS
10
0.793701
20
1.51575
11
0.754331
21
1.51575
0
LINE
8
BLACK
6
CONTINUOUS
10
0.754331
20
1.51575
11
0.754331
21
1.6063
0
LINE
8
BLACK
6
CONTINUOUS
10
0.754331
20
1.6063
11
0.754331
21
1.64567
0
LINE
8
BLACK
6
CONTINUOUS
10
0.754331
20
1.64567
11
0.793701
21
1.64567
0
LINE
8
BLACK
6
CONTINUOUS
10
0.793701
20
1.64567
11
0.884252
21
1.64567
0
LINE
8
BLACK
6
CONTINUOUS
10
0.884252
20
1.64567
11
0.884252
21
1.6063
0
LINE
8
BLACK
6
CONTINUOUS
10
0.884252
20
1.6063
11
0.793701
21
1.6063
0
LINE
8
BLACK
6
CONTINUOUS
10
0.793701
20
1.6063
11
0.793701
21
1.51575
0
LINE
8
BLACK
6
CONTINUOUS
10
2.04567
20
1.51575
11
2.0063
21
1.51575
0
LINE
8
BLACK
6
CONTINUOUS
10
2.0063
20
1.51575
11
2.0063
21
1.6063
0
LINE
8
BLACK
6
CONTINUOUS
10
2.0063
20
1.6063
11
1.91575
21
1.6063
0
LINE
8
BLACK
6
CONTINUOUS
10
1.91575
20
1.6063
11
1.91575
21
1.64567
0
LINE
8
BLACK
6
CONTINUOUS
10
1.91575
20
1.64567
11
2.0063
21
1.64567
0
LINE
8
BLACK
6
CONTINUOUS
10
2.0063
20
1.64567
11
2.04567
21
1.64567
0
LINE
8
BLACK
6
CONTINUOUS
10
2.04567
20
1.64567
11
2.04567
21
1.6063
0
LINE
8
BLACK
6
CONTINUOUS
10
2.04567
20
1.6063
11
2.04567
21
1.51575
0
LINE
8
BLACK
6
CONTINUOUS
10
-0.236598
20
1.56026
11
-0.234682
21
1.55898
0
LINE
8
BLACK
6
CONTINUOUS
10
-0.234682
20
1.55898
11
-0.233402
21
1.55706
0
LINE
8
BLACK
6
CONTINUOUS
10
-0.233402
20
1.55706
11
-0.232953
21
1.5548
0
LINE
8
BLACK
6
CONTINUOUS
10
-0.232953
20
1.5548
11
-0.232953
21
1.54299
0
LINE
8
BLACK
6
CONTINUOUS
10
-0.232953
20
1.54299
11
-0.233402
21
1.54073
0
LINE
8
BLACK
6
CONTINUOUS
10
-0.233402
20
1.54073
11
-0.234682
21
1.53882
0
LINE
8
BLACK
6
CONTINUOUS
10
-0.234682
20
1.53882
11
-0.236598
21
1.53754
0
LINE
8
BLACK
6
CONTINUOUS
10
-0.236598
20
1.53754
11
-0.238858
21
1.53709
0
LINE
8
BLACK
6
CONTINUOUS
10
-0.238858
20
1.53709
11
-0.279213
21
1.53709
0
LINE
8
BLACK
6
CONTINUOUS
10
-0.279213
20
1.53709
11
-0.281473
21
1.53754
0
LINE
8
BLACK
6
CONTINUOUS
10
-0.281473
20
1.53754
11
-0.283388
21
1.53882
0
LINE
8
BLACK
6
CONTINUOUS
10
-0.283388
20
1.53882
11
-0.284669
21
1.54073
0
LINE
8
BLACK
6
CONTINUOUS
10
-0.284669
20
1.54073
11
-0.285118
21
1.54299
0
LINE
8
BLACK
6
CONTINUOUS
10
-0.285118
20
1.54299
11
-0.285118
21
1.5548
0
LINE
8
BLACK
6
CONTINUOUS
10
-0.285118
20
1.5548
11
-0.284669
21
1.55706
0
LINE
8
BLACK
6
CONTINUOUS
10
-0.284669
20
1.55706
11
-0.283388
21
1.55898
0
LINE
8
BLACK
6
CONTINUOUS
10
-0.283388
20
1.55898
11
-0.281473
21
1.56026
0
LINE
8
BLACK
6
CONTINUOUS
10
-0.281473
20
1.56026
11
-0.279213
21
1.56071
0
LINE
8
BLACK
6
CONTINUOUS
10
-0.279213
20
1.56071
11
-0.238858
21
1.56071
0
LINE
8
BLACK
6
CONTINUOUS
10
-0.238858
20
1.56071
11
-0.236598
21
1.56026
0
LINE
8
BLACK
6
CONTINUOUS
10
-0.123792
20
1.61681
11
-0.120599
21
1.61468
0
LINE
8
BLACK
6
CONTINUOUS
10
-0.120599
20
1.61468
11
-0.118466
21
1.61148
0
LINE
8
BLACK
6
CONTINUOUS
10
-0.118466
20
1.61148
11
-0.117717
21
1.60772
0
LINE
8
BLACK
6
CONTINUOUS
10
-0.117717
20
1.60772
11
-0.117717
21
1.57228
0
LINE
8
BLACK
6
CONTINUOUS
10
-0.117717
20
1.57228
11
-0.118466
21
1.56852
0
LINE
8
BLACK
6
CONTINUOUS
10
-0.118466
20
1.56852
11
-0.120599
21
1.56532
0
LINE
8
BLACK
6
CONTINUOUS
10
-0.120599
20
1.56532
11
-0.123792
21
1.56319
0
LINE
8
BLACK
6
CONTINUOUS
10
-0.123792
20
1.56319
11
-0.127559
21
1.56244
0
LINE
8
BLACK
6
CONTINUOUS
10
-0.127559
20
1.56244
11
-0.15315
21
1.56244
0
LINE
8
BLACK
6
CONTINUOUS
10
-0.15315
20
1.56244
11
-0.156916
21
1.56319
0
LINE
8
BLACK
6
CONTINUOUS
10
-0.156916
20
1.56319
11
-0.160109
21
1.56532
0
LINE
8
BLACK
6
CONTINUOUS
10
-0.160109
20
1.56532
11
-0.162243
21
1.56852
0
LINE
8
BLACK
6
CONTINUOUS
10
-0.162243
20
1.56852
11
-0.162992
21
1.57228
0
LINE
8
BLACK
6
CONTINUOUS
10
-0.162992
20
1.57228
11
-0.162992
21
1.60772
0
LINE
8
BLACK
6
CONTINUOUS
10
-0.162992
20
1.60772
11
-0.162243
21
1.61148
0
LINE
8
BLACK
6
CONTINUOUS
10
-0.162243
20
1.61148
11
-0.160109
21
1.61468
0
LINE
8
BLACK
6
CONTINUOUS
10
-0.160109
20
1.61468
11
-0.156916
21
1.61681
0
LINE
8
BLACK
6
CONTINUOUS
10
-0.156916
20
1.61681
11
-0.15315
21
1.61756
0
LINE
8
BLACK
6
CONTINUOUS
10
-0.15315
20
1.61756
11
-0.127559
21
1.61756
0
LINE
8
BLACK
6
CONTINUOUS
10
-0.127559
20
1.61756
11
-0.123792
21
1.61681
0
LINE
8
BLACK
6
CONTINUOUS
10
-0.0430838
20
1.61681
11
-0.0398907
21
1.61468
0
LINE
8
BLACK
6
CONTINUOUS
10
-0.0398907
20
1.61468
11
-0.0377571
21
1.61148
0
LINE
8
BLACK
6
CONTINUOUS
10
-0.0377571
20
1.61148
11
-0.0370079
21
1.60772
0
LINE
8
BLACK
6
CONTINUOUS
10
-0.0370079
20
1.60772
11
-0.0370079
21
1.57228
0
LINE
8
BLACK
6
CONTINUOUS
10
-0.0370079
20
1.57228
11
-0.0377571
21
1.56852
0
LINE
8
BLACK
6
CONTINUOUS
10
-0.0377571
20
1.56852
11
-0.0398907
21
1.56532
0
LINE
8
BLACK
6
CONTINUOUS
10
-0.0398907
20
1.56532
11
-0.0430838
21
1.56319
0
LINE
8
BLACK
6
CONTINUOUS
10
-0.0430838
20
1.56319
11
-0.0468504
21
1.56244
0
LINE
8
BLACK
6
CONTINUOUS
10
-0.0468504
20
1.56244
11
-0.0724409
21
1.56244
0
LINE
8
BLACK
6
CONTINUOUS
10
-0.0724409
20
1.56244
11
-0.0762075
21
1.56319
0
LINE
8
BLACK
6
CONTINUOUS
10
-0.0762075
20
1.56319
11
-0.0794007
21
1.56532
0
LINE
8
BLACK
6
CONTINUOUS
10
-0.0794007
20
1.56532
11
-0.0815343
21
1.56852
0
LINE
8
BLACK
6
CONTINUOUS
10
-0.0815343
20
1.56852
11
-0.0822835
21
1.57228
0
LINE
8
BLACK
6
CONTINUOUS
10
-0.0822835
20
1.57228
11
-0.0822835
21
1.60772
0
LINE
8
BLACK
6
CONTINUOUS
10
-0.0822835
20
1.60772
11
-0.0815343
21
1.61148
0
LINE
8
BLACK
6
CONTINUOUS
10
-0.0815343
20
1.61148
11
-0.0794007
21
1.61468
0
LINE
8
BLACK
6
CONTINUOUS
10
-0.0794007
20
1.61468
11
-0.0762075
21
1.61681
0
LINE
8
BLACK
6
CONTINUOUS
10
-0.0762075
20
1.61681
11
-0.0724409
21
1.61756
0
LINE
8
BLACK
6
CONTINUOUS
10
-0.0724409
20
1.61756
11
-0.0468504
21
1.61756
0
LINE
8
BLACK
6
CONTINUOUS
10
-0.0468504
20
1.61756
11
-0.0430838
21
1.61681
0
LINE
8
BLACK
6
CONTINUOUS
10
-0.326165
20
1.59766
11
-0.324249
21
1.59638
0
LINE
8
BLACK
6
CONTINUOUS
10
-0.324249
20
1.59638
11
-0.322969
21
1.59446
0
LINE
8
BLACK
6
CONTINUOUS
10
-0.322969
20
1.59446
11
-0.32252
21
1.5922
0
LINE
8
BLACK
6
CONTINUOUS
10
-0.32252
20
1.5922
11
-0.32252
21
1.58039
0
LINE
8
BLACK
6
CONTINUOUS
10
-0.32252
20
1.58039
11
-0.322969
21
1.57813
0
LINE
8
BLACK
6
CONTINUOUS
10
-0.322969
20
1.57813
11
-0.324249
21
1.57622
0
LINE
8
BLACK
6
CONTINUOUS
10
-0.324249
20
1.57622
11
-0.326165
21
1.57494
0
LINE
8
BLACK
6
CONTINUOUS
10
-0.326165
20
1.57494
11
-0.328425
21
1.57449
0
LINE
8
BLACK
6
CONTINUOUS
10
-0.328425
20
1.57449
11
-0.36878
21
1.57449
0
LINE
8
BLACK
6
CONTINUOUS
10
-0.36878
20
1.57449
11
-0.371039
21
1.57494
0
LINE
8
BLACK
6
CONTINUOUS
10
-0.371039
20
1.57494
11
-0.372955
21
1.57622
0
LINE
8
BLACK
6
CONTINUOUS
10
-0.372955
20
1.57622
11
-0.374236
21
1.57813
0
LINE
8
BLACK
6
CONTINUOUS
10
-0.374236
20
1.57813
11
-0.374685
21
1.58039
0
LINE
8
BLACK
6
CONTINUOUS
10
-0.374685
20
1.58039
11
-0.374685
21
1.5922
0
LINE
8
BLACK
6
CONTINUOUS
10
-0.374685
20
1.5922
11
-0.374236
21
1.59446
0
LINE
8
BLACK
6
CONTINUOUS
10
-0.374236
20
1.59446
11
-0.372955
21
1.59638
0
LINE
8
BLACK
6
CONTINUOUS
10
-0.372955
20
1.59638
11
-0.371039
21
1.59766
0
LINE
8
BLACK
6
CONTINUOUS
10
-0.371039
20
1.59766
11
-0.36878
21
1.59811
0
LINE
8
BLACK
6
CONTINUOUS
10
-0.36878
20
1.59811
11
-0.328425
21
1.59811
0
LINE
8
BLACK
6
CONTINUOUS
10
-0.328425
20
1.59811
11
-0.326165
21
1.59766
0
LINE
8
BLACK
6
CONTINUOUS
10
-0.236598
20
1.59766
11
-0.234682
21
1.59638
0
LINE
8
BLACK
6
CONTINUOUS
10
-0.234682
20
1.59638
11
-0.233402
21
1.59446
0
LINE
8
BLACK
6
CONTINUOUS
10
-0.233402
20
1.59446
11
-0.232953
21
1.5922
0
LINE
8
BLACK
6
CONTINUOUS
10
-0.232953
20
1.5922
11
-0.232953
21
1.58039
0
LINE
8
BLACK
6
CONTINUOUS
10
-0.232953
20
1.58039
11
-0.233402
21
1.57813
0
LINE
8
BLACK
6
CONTINUOUS
10
-0.233402
20
1.57813
11
-0.234682
21
1.57622
0
LINE
8
BLACK
6
CONTINUOUS
10
-0.234682
20
1.57622
11
-0.236598
21
1.57494
0
LINE
8
BLACK
6
CONTINUOUS
10
-0.236598
20
1.57494
11
-0.238858
21
1.57449
0
LINE
8
BLACK
6
CONTINUOUS
10
-0.238858
20
1.57449
11
-0.279213
21
1.57449
0
LINE
8
BLACK
6
CONTINUOUS
10
-0.279213
20
1.57449
11
-0.281473
21
1.57494
0
LINE
8
BLACK
6
CONTINUOUS
10
-0.281473
20
1.57494
11
-0.283388
21
1.57622
0
LINE
8
BLACK
6
CONTINUOUS
10
-0.283388
20
1.57622
11
-0.284669
21
1.57813
0
LINE
8
BLACK
6
CONTINUOUS
10
-0.284669
20
1.57813
11
-0.285118
21
1.58039
0
LINE
8
BLACK
6
CONTINUOUS
10
-0.285118
20
1.58039
11
-0.285118
21
1.5922
0
LINE
8
BLACK
6
CONTINUOUS
10
-0.285118
20
1.5922
11
-0.284669
21
1.59446
0
LINE
8
BLACK
6
CONTINUOUS
10
-0.284669
20
1.59446
11
-0.283388
21
1.59638
0
LINE
8
BLACK
6
CONTINUOUS
10
-0.283388
20
1.59638
11
-0.281473
21
1.59766
0
LINE
8
BLACK
6
CONTINUOUS
10
-0.281473
20
1.59766
11
-0.279213
21
1.59811
0
LINE
8
BLACK
6
CONTINUOUS
10
-0.279213
20
1.59811
11
-0.238858
21
1.59811
0
LINE
8
BLACK
6
CONTINUOUS
10
-0.238858
20
1.59811
11
-0.236598
21
1.59766
0
LINE
8
BLACK
6
CONTINUOUS
10
1.12047
20
1.6063
11
0.970866
21
1.6063
0
LINE
8
BLACK
6
CONTINUOUS
10
0.970866
20
1.6063
11
0.970866
21
1.64567
0
LINE
8
BLACK
6
CONTINUOUS
10
0.970866
20
1.64567
11
1.12047
21
1.64567
0
LINE
8
BLACK
6
CONTINUOUS
10
1.12047
20
1.64567
11
1.12047
21
1.6063
0
LINE
8
BLACK
6
CONTINUOUS
10
1.35669
20
1.6063
11
1.20709
21
1.6063
0
LINE
8
BLACK
6
CONTINUOUS
10
1.20709
20
1.6063
11
1.20709
21
1.64567
0
LINE
8
BLACK
6
CONTINUOUS
10
1.20709
20
1.64567
11
1.35669
21
1.64567
0
LINE
8
BLACK
6
CONTINUOUS
10
1.35669
20
1.64567
11
1.35669
21
1.6063
0
LINE
8
BLACK
6
CONTINUOUS
10
1.59291
20
1.6063
11
1.44331
21
1.6063
0
LINE
8
BLACK
6
CONTINUOUS
10
1.44331
20
1.6063
11
1.44331
21
1.64567
0
LINE
8
BLACK
6
CONTINUOUS
10
1.44331
20
1.64567
11
1.59291
21
1.64567
0
LINE
8
BLACK
6
CONTINUOUS
10
1.59291
20
1.64567
11
1.59291
21
1.6063
0
LINE
8
BLACK
6
CONTINUOUS
10
1.82913
20
1.6063
11
1.67953
21
1.6063
0
LINE
8
BLACK
6
CONTINUOUS
10
1.67953
20
1.6063
11
1.67953
21
1.64567
0
LINE
8
BLACK
6
CONTINUOUS
10
1.67953
20
1.64567
11
1.82913
21
1.64567
0
LINE
8
BLACK
6
CONTINUOUS
10
1.82913
20
1.64567
11
1.82913
21
1.6063
0
LINE
8
BLACK
6
CONTINUOUS
10
-0.628792
20
1.71173
11
-0.625599
21
1.7096
0
LINE
8
BLACK
6
CONTINUOUS
10
-0.625599
20
1.7096
11
-0.623466
21
1.7064
0
LINE
8
BLACK
6
CONTINUOUS
10
-0.623466
20
1.7064
11
-0.622717
21
1.70264
0
LINE
8
BLACK
6
CONTINUOUS
10
-0.622717
20
1.70264
11
-0.622717
21
1.66917
0
LINE
8
BLACK
6
CONTINUOUS
10
-0.622717
20
1.66917
11
-0.623466
21
1.66541
0
LINE
8
BLACK
6
CONTINUOUS
10
-0.623466
20
1.66541
11
-0.625599
21
1.66221
0
LINE
8
BLACK
6
CONTINUOUS
10
-0.625599
20
1.66221
11
-0.628792
21
1.66008
0
LINE
8
BLACK
6
CONTINUOUS
10
-0.628792
20
1.66008
11
-0.632559
21
1.65933
0
LINE
8
BLACK
6
CONTINUOUS
10
-0.632559
20
1.65933
11
-0.667992
21
1.65933
0
LINE
8
BLACK
6
CONTINUOUS
10
-0.667992
20
1.65933
11
-0.671759
21
1.66008
0
LINE
8
BLACK
6
CONTINUOUS
10
-0.671759
20
1.66008
11
-0.674952
21
1.66221
0
LINE
8
BLACK
6
CONTINUOUS
10
-0.674952
20
1.66221
11
-0.677085
21
1.66541
0
LINE
8
BLACK
6
CONTINUOUS
10
-0.677085
20
1.66541
11
-0.677835
21
1.66917
0
LINE
8
BLACK
6
CONTINUOUS
10
-0.677835
20
1.66917
11
-0.677835
21
1.70264
0
LINE
8
BLACK
6
CONTINUOUS
10
-0.677835
20
1.70264
11
-0.677085
21
1.7064
0
LINE
8
BLACK
6
CONTINUOUS
10
-0.677085
20
1.7064
11
-0.674952
21
1.7096
0
LINE
8
BLACK
6
CONTINUOUS
10
-0.674952
20
1.7096
11
-0.671759
21
1.71173
0
LINE
8
BLACK
6
CONTINUOUS
10
-0.671759
20
1.71173
11
-0.667992
21
1.71248
0
LINE
8
BLACK
6
CONTINUOUS
10
-0.667992
20
1.71248
11
-0.632559
21
1.71248
0
LINE
8
BLACK
6
CONTINUOUS
10
-0.632559
20
1.71248
11
-0.628792
21
1.71173
0
LINE
8
BLACK
6
CONTINUOUS
10
-0.522493
20
1.71173
11
-0.5193
21
1.7096
0
LINE
8
BLACK
6
CONTINUOUS
10
-0.5193
20
1.7096
11
-0.517167
21
1.7064
0
LINE
8
BLACK
6
CONTINUOUS
10
-0.517167
20
1.7064
11
-0.516417
21
1.70264
0
LINE
8
BLACK
6
CONTINUOUS
10
-0.516417
20
1.70264
11
-0.516417
21
1.66917
0
LINE
8
BLACK
6
CONTINUOUS
10
-0.516417
20
1.66917
11
-0.517167
21
1.66541
0
LINE
8
BLACK
6
CONTINUOUS
10
-0.517167
20
1.66541
11
-0.5193
21
1.66221
0
LINE
8
BLACK
6
CONTINUOUS
10
-0.5193
20
1.66221
11
-0.522493
21
1.66008
0
LINE
8
BLACK
6
CONTINUOUS
10
-0.522493
20
1.66008
11
-0.52626
21
1.65933
0
LINE
8
BLACK
6
CONTINUOUS
10
-0.52626
20
1.65933
11
-0.561693
21
1.65933
0
LINE
8
BLACK
6
CONTINUOUS
10
-0.561693
20
1.65933
11
-0.565459
21
1.66008
0
LINE
8
BLACK
6
CONTINUOUS
10
-0.565459
20
1.66008
11
-0.568653
21
1.66221
0
LINE
8
BLACK
6
CONTINUOUS
10
-0.568653
20
1.66221
11
-0.570786
21
1.66541
0
LINE
8
BLACK
6
CONTINUOUS
10
-0.570786
20
1.66541
11
-0.571535
21
1.66917
0
LINE
8
BLACK
6
CONTINUOUS
10
-0.571535
20
1.66917
11
-0.571535
21
1.70264
0
LINE
8
BLACK
6
CONTINUOUS
10
-0.571535
20
1.70264
11
-0.570786
21
1.7064
0
LINE
8
BLACK
6
CONTINUOUS
10
-0.570786
20
1.7064
11
-0.568653
21
1.7096
0
LINE
8
BLACK
6
CONTINUOUS
10
-0.568653
20
1.7096
11
-0.565459
21
1.71173
0
LINE
8
BLACK
6
CONTINUOUS
10
-0.565459
20
1.71173
11
-0.561693
21
1.71248
0
LINE
8
BLACK
6
CONTINUOUS
10
-0.561693
20
1.71248
11
-0.52626
21
1.71248
0
LINE
8
BLACK
6
CONTINUOUS
10
-0.52626
20
1.71248
11
-0.522493
21
1.71173
0
LINE
8
BLACK
6
CONTINUOUS
10
2.17768
20
1.74361
11
2.18507
21
1.74137
0
LINE
8
BLACK
6
CONTINUOUS
10
2.18507
20
1.74137
11
2.19187
21
1.73774
0
LINE
8
BLACK
6
CONTINUOUS
10
2.19187
20
1.73774
11
2.19784
21
1.73284
0
LINE
8
BLACK
6
CONTINUOUS
10
2.19784
20
1.73284
11
2.20274
21
1.72687
0
LINE
8
BLACK
6
CONTINUOUS
10
2.20274
20
1.72687
11
2.20637
21
1.72007
0
LINE
8
BLACK
6
CONTINUOUS
10
2.20637
20
1.72007
11
2.20861
21
1.71268
0
LINE
8
BLACK
6
CONTINUOUS
10
2.20861
20
1.71268
11
2.20937
21
1.705
0
LINE
8
BLACK
6
CONTINUOUS
10
2.20937
20
1.705
11
2.20861
21
1.69732
0
LINE
8
BLACK
6
CONTINUOUS
10
2.20861
20
1.69732
11
2.20637
21
1.68993
0
LINE
8
BLACK
6
CONTINUOUS
10
2.20637
20
1.68993
11
2.20274
21
1.68313
0
LINE
8
BLACK
6
CONTINUOUS
10
2.20274
20
1.68313
11
2.19784
21
1.67716
0
LINE
8
BLACK
6
CONTINUOUS
10
2.19784
20
1.67716
11
2.19187
21
1.67226
0
LINE
8
BLACK
6
CONTINUOUS
10
2.19187
20
1.67226
11
2.18507
21
1.66863
0
LINE
8
BLACK
6
CONTINUOUS
10
2.18507
20
1.66863
11
2.17768
21
1.66639
0
LINE
8
BLACK
6
CONTINUOUS
10
2.17768
20
1.66639
11
2.17
21
1.66563
0
LINE
8
BLACK
6
CONTINUOUS
10
2.17
20
1.66563
11
2.16232
21
1.66639
0
LINE
8
BLACK
6
CONTINUOUS
10
2.16232
20
1.66639
11
2.15493
21
1.66863
0
LINE
8
BLACK
6
CONTINUOUS
10
2.15493
20
1.66863
11
2.14813
21
1.67226
0
LINE
8
BLACK
6
CONTINUOUS
10
2.14813
20
1.67226
11
2.14216
21
1.67716
0
LINE
8
BLACK
6
CONTINUOUS
10
2.14216
20
1.67716
11
2.13726
21
1.68313
0
LINE
8
BLACK
6
CONTINUOUS
10
2.13726
20
1.68313
11
2.13363
21
1.68993
0
LINE
8
BLACK
6
CONTINUOUS
10
2.13363
20
1.68993
11
2.13139
21
1.69732
0
LINE
8
BLACK
6
CONTINUOUS
10
2.13139
20
1.69732
11
2.13063
21
1.705
0
LINE
8
BLACK
6
CONTINUOUS
10
2.13063
20
1.705
11
2.13139
21
1.71268
0
LINE
8
BLACK
6
CONTINUOUS
10
2.13139
20
1.71268
11
2.13363
21
1.72007
0
LINE
8
BLACK
6
CONTINUOUS
10
2.13363
20
1.72007
11
2.13726
21
1.72687
0
LINE
8
BLACK
6
CONTINUOUS
10
2.13726
20
1.72687
11
2.14216
21
1.73284
0
LINE
8
BLACK
6
CONTINUOUS
10
2.14216
20
1.73284
11
2.14813
21
1.73774
0
LINE
8
BLACK
6
CONTINUOUS
10
2.14813
20
1.73774
11
2.15493
21
1.74137
0
LINE
8
BLACK
6
CONTINUOUS
10
2.15493
20
1.74137
11
2.16232
21
1.74361
0
LINE
8
BLACK
6
CONTINUOUS
10
2.16232
20
1.74361
11
2.17
21
1.74437
0
LINE
8
BLACK
6
CONTINUOUS
10
2.17
20
1.74437
11
2.17768
21
1.74361
0
LINE
8
BLACK
6
CONTINUOUS
10
0.329751
20
1.77937
11
0.332944
21
1.77724
0
LINE
8
BLACK
6
CONTINUOUS
10
0.332944
20
1.77724
11
0.335078
21
1.77404
0
LINE
8
BLACK
6
CONTINUOUS
10
0.335078
20
1.77404
11
0.335827
21
1.77028
0
LINE
8
BLACK
6
CONTINUOUS
10
0.335827
20
1.77028
11
0.335827
21
1.73287
0
LINE
8
BLACK
6
CONTINUOUS
10
0.335827
20
1.73287
11
0.335078
21
1.72911
0
LINE
8
BLACK
6
CONTINUOUS
10
0.335078
20
1.72911
11
0.332944
21
1.72591
0
LINE
8
BLACK
6
CONTINUOUS
10
0.332944
20
1.72591
11
0.329751
21
1.72378
0
LINE
8
BLACK
6
CONTINUOUS
10
0.329751
20
1.72378
11
0.325984
21
1.72303
0
LINE
8
BLACK
6
CONTINUOUS
10
0.325984
20
1.72303
11
0.306299
21
1.72303
0
LINE
8
BLACK
6
CONTINUOUS
10
0.306299
20
1.72303
11
0.302533
21
1.72378
0
LINE
8
BLACK
6
CONTINUOUS
10
0.302533
20
1.72378
11
0.299339
21
1.72591
0
LINE
8
BLACK
6
CONTINUOUS
10
0.299339
20
1.72591
11
0.297206
21
1.72911
0
LINE
8
BLACK
6
CONTINUOUS
10
0.297206
20
1.72911
11
0.296457
21
1.73287
0
LINE
8
BLACK
6
CONTINUOUS
10
0.296457
20
1.73287
11
0.296457
21
1.77028
0
LINE
8
BLACK
6
CONTINUOUS
10
0.296457
20
1.77028
11
0.297206
21
1.77404
0
LINE
8
BLACK
6
CONTINUOUS
10
0.297206
20
1.77404
11
0.299339
21
1.77724
0
LINE
8
BLACK
6
CONTINUOUS
10
0.299339
20
1.77724
11
0.302533
21
1.77937
0
LINE
8
BLACK
6
CONTINUOUS
10
0.302533
20
1.77937
11
0.306299
21
1.78012
0
LINE
8
BLACK
6
CONTINUOUS
10
0.306299
20
1.78012
11
0.325984
21
1.78012
0
LINE
8
BLACK
6
CONTINUOUS
10
0.325984
20
1.78012
11
0.329751
21
1.77937
0
LINE
8
BLACK
6
CONTINUOUS
10
0.404554
20
1.77937
11
0.407747
21
1.77724
0
LINE
8
BLACK
6
CONTINUOUS
10
0.407747
20
1.77724
11
0.409881
21
1.77404
0
LINE
8
BLACK
6
CONTINUOUS
10
0.409881
20
1.77404
11
0.41063
21
1.77028
0
LINE
8
BLACK
6
CONTINUOUS
10
0.41063
20
1.77028
11
0.41063
21
1.73287
0
LINE
8
BLACK
6
CONTINUOUS
10
0.41063
20
1.73287
11
0.409881
21
1.72911
0
LINE
8
BLACK
6
CONTINUOUS
10
0.409881
20
1.72911
11
0.407747
21
1.72591
0
LINE
8
BLACK
6
CONTINUOUS
10
0.407747
20
1.72591
11
0.404554
21
1.72378
0
LINE
8
BLACK
6
CONTINUOUS
10
0.404554
20
1.72378
11
0.400787
21
1.72303
0
LINE
8
BLACK
6
CONTINUOUS
10
0.400787
20
1.72303
11
0.381102
21
1.72303
0
LINE
8
BLACK
6
CONTINUOUS
10
0.381102
20
1.72303
11
0.377336
21
1.72378
0
LINE
8
BLACK
6
CONTINUOUS
10
0.377336
20
1.72378
11
0.374143
21
1.72591
0
LINE
8
BLACK
6
CONTINUOUS
10
0.374143
20
1.72591
11
0.372009
21
1.72911
0
LINE
8
BLACK
6
CONTINUOUS
10
0.372009
20
1.72911
11
0.37126
21
1.73287
0
LINE
8
BLACK
6
CONTINUOUS
10
0.37126
20
1.73287
11
0.37126
21
1.77028
0
LINE
8
BLACK
6
CONTINUOUS
10
0.37126
20
1.77028
11
0.372009
21
1.77404
0
LINE
8
BLACK
6
CONTINUOUS
10
0.372009
20
1.77404
11
0.374143
21
1.77724
0
LINE
8
BLACK
6
CONTINUOUS
10
0.374143
20
1.77724
11
0.377336
21
1.77937
0
LINE
8
BLACK
6
CONTINUOUS
10
0.377336
20
1.77937
11
0.381102
21
1.78012
0
LINE
8
BLACK
6
CONTINUOUS
10
0.381102
20
1.78012
11
0.400787
21
1.78012
0
LINE
8
BLACK
6
CONTINUOUS
10
0.400787
20
1.78012
11
0.404554
21
1.77937
0
LINE
8
BLACK
6
CONTINUOUS
10
-0.61539
20
1.80275
11
-0.612516
21
1.80083
0
LINE
8
BLACK
6
CONTINUOUS
10
-0.612516
20
1.80083
11
-0.610596
21
1.79796
0
LINE
8
BLACK
6
CONTINUOUS
10
-0.610596
20
1.79796
11
-0.609921
21
1.79457
0
LINE
8
BLACK
6
CONTINUOUS
10
-0.609921
20
1.79457
11
-0.609921
21
1.77488
0
LINE
8
BLACK
6
CONTINUOUS
10
-0.609921
20
1.77488
11
-0.610596
21
1.77149
0
LINE
8
BLACK
6
CONTINUOUS
10
-0.610596
20
1.77149
11
-0.612516
21
1.76862
0
LINE
8
BLACK
6
CONTINUOUS
10
-0.612516
20
1.76862
11
-0.61539
21
1.7667
0
LINE
8
BLACK
6
CONTINUOUS
10
-0.61539
20
1.7667
11
-0.61878
21
1.76602
0
LINE
8
BLACK
6
CONTINUOUS
10
-0.61878
20
1.76602
11
-0.636496
21
1.76602
0
LINE
8
BLACK
6
CONTINUOUS
10
-0.636496
20
1.76602
11
-0.639886
21
1.7667
0
LINE
8
BLACK
6
CONTINUOUS
10
-0.639886
20
1.7667
11
-0.64276
21
1.76862
0
LINE
8
BLACK
6
CONTINUOUS
10
-0.64276
20
1.76862
11
-0.64468
21
1.77149
0
LINE
8
BLACK
6
CONTINUOUS
10
-0.64468
20
1.77149
11
-0.645354
21
1.77488
0
LINE
8
BLACK
6
CONTINUOUS
10
-0.645354
20
1.77488
11
-0.645354
21
1.79457
0
LINE
8
BLACK
6
CONTINUOUS
10
-0.645354
20
1.79457
11
-0.64468
21
1.79796
0
LINE
8
BLACK
6
CONTINUOUS
10
-0.64468
20
1.79796
11
-0.64276
21
1.80083
0
LINE
8
BLACK
6
CONTINUOUS
10
-0.64276
20
1.80083
11
-0.639886
21
1.80275
0
LINE
8
BLACK
6
CONTINUOUS
10
-0.639886
20
1.80275
11
-0.636496
21
1.80343
0
LINE
8
BLACK
6
CONTINUOUS
10
-0.636496
20
1.80343
11
-0.61878
21
1.80343
0
LINE
8
BLACK
6
CONTINUOUS
10
-0.61878
20
1.80343
11
-0.61539
21
1.80275
0
LINE
8
BLACK
6
CONTINUOUS
10
-0.554366
20
1.80275
11
-0.551492
21
1.80083
0
LINE
8
BLACK
6
CONTINUOUS
10
-0.551492
20
1.80083
11
-0.549572
21
1.79796
0
LINE
8
BLACK
6
CONTINUOUS
10
-0.549572
20
1.79796
11
-0.548898
21
1.79457
0
LINE
8
BLACK
6
CONTINUOUS
10
-0.548898
20
1.79457
11
-0.548898
21
1.77488
0
LINE
8
BLACK
6
CONTINUOUS
10
-0.548898
20
1.77488
11
-0.549572
21
1.77149
0
LINE
8
BLACK
6
CONTINUOUS
10
-0.549572
20
1.77149
11
-0.551492
21
1.76862
0
LINE
8
BLACK
6
CONTINUOUS
10
-0.551492
20
1.76862
11
-0.554366
21
1.7667
0
LINE
8
BLACK
6
CONTINUOUS
10
-0.554366
20
1.7667
11
-0.557756
21
1.76602
0
LINE
8
BLACK
6
CONTINUOUS
10
-0.557756
20
1.76602
11
-0.575472
21
1.76602
0
LINE
8
BLACK
6
CONTINUOUS
10
-0.575472
20
1.76602
11
-0.578862
21
1.7667
0
LINE
8
BLACK
6
CONTINUOUS
10
-0.578862
20
1.7667
11
-0.581736
21
1.76862
0
LINE
8
BLACK
6
CONTINUOUS
10
-0.581736
20
1.76862
11
-0.583656
21
1.77149
0
LINE
8
BLACK
6
CONTINUOUS
10
-0.583656
20
1.77149
11
-0.584331
21
1.77488
0
LINE
8
BLACK
6
CONTINUOUS
10
-0.584331
20
1.77488
11
-0.584331
21
1.79457
0
LINE
8
BLACK
6
CONTINUOUS
10
-0.584331
20
1.79457
11
-0.583656
21
1.79796
0
LINE
8
BLACK
6
CONTINUOUS
10
-0.583656
20
1.79796
11
-0.581736
21
1.80083
0
LINE
8
BLACK
6
CONTINUOUS
10
-0.581736
20
1.80083
11
-0.578862
21
1.80275
0
LINE
8
BLACK
6
CONTINUOUS
10
-0.578862
20
1.80275
11
-0.575472
21
1.80343
0
LINE
8
BLACK
6
CONTINUOUS
10
-0.575472
20
1.80343
11
-0.557756
21
1.80343
0
LINE
8
BLACK
6
CONTINUOUS
10
-0.557756
20
1.80343
11
-0.554366
21
1.80275
0
LINE
8
BLACK
6
CONTINUOUS
10
-0.61539
20
1.90157
11
-0.612516
21
1.89965
0
LINE
8
BLACK
6
CONTINUOUS
10
-0.612516
20
1.89965
11
-0.610596
21
1.89678
0
LINE
8
BLACK
6
CONTINUOUS
10
-0.610596
20
1.89678
11
-0.609921
21
1.89339
0
LINE
8
BLACK
6
CONTINUOUS
10
-0.609921
20
1.89339
11
-0.609921
21
1.8737
0
LINE
8
BLACK
6
CONTINUOUS
10
-0.609921
20
1.8737
11
-0.610596
21
1.87031
0
LINE
8
BLACK
6
CONTINUOUS
10
-0.610596
20
1.87031
11
-0.612516
21
1.86744
0
LINE
8
BLACK
6
CONTINUOUS
10
-0.612516
20
1.86744
11
-0.61539
21
1.86552
0
LINE
8
BLACK
6
CONTINUOUS
10
-0.61539
20
1.86552
11
-0.61878
21
1.86484
0
LINE
8
BLACK
6
CONTINUOUS
10
-0.61878
20
1.86484
11
-0.636496
21
1.86484
0
LINE
8
BLACK
6
CONTINUOUS
10
-0.636496
20
1.86484
11
-0.639886
21
1.86552
0
LINE
8
BLACK
6
CONTINUOUS
10
-0.639886
20
1.86552
11
-0.64276
21
1.86744
0
LINE
8
BLACK
6
CONTINUOUS
10
-0.64276
20
1.86744
11
-0.64468
21
1.87031
0
LINE
8
BLACK
6
CONTINUOUS
10
-0.64468
20
1.87031
11
-0.645354
21
1.8737
0
LINE
8
BLACK
6
CONTINUOUS
10
-0.645354
20
1.8737
11
-0.645354
21
1.89339
0
LINE
8
BLACK
6
CONTINUOUS
10
-0.645354
20
1.89339
11
-0.64468
21
1.89678
0
LINE
8
BLACK
6
CONTINUOUS
10
-0.64468
20
1.89678
11
-0.64276
21
1.89965
0
LINE
8
BLACK
6
CONTINUOUS
10
-0.64276
20
1.89965
11
-0.639886
21
1.90157
0
LINE
8
BLACK
6
CONTINUOUS
10
-0.639886
20
1.90157
11
-0.636496
21
1.90224
0
LINE
8
BLACK
6
CONTINUOUS
10
-0.636496
20
1.90224
11
-0.61878
21
1.90224
0
LINE
8
BLACK
6
CONTINUOUS
10
-0.61878
20
1.90224
11
-0.61539
21
1.90157
0
LINE
8
BLACK
6
CONTINUOUS
10
-0.554366
20
1.90157
11
-0.551492
21
1.89965
0
LINE
8
BLACK
6
CONTINUOUS
10
-0.551492
20
1.89965
11
-0.549572
21
1.89678
0
LINE
8
BLACK
6
CONTINUOUS
10
-0.549572
20
1.89678
11
-0.548898
21
1.89339
0
LINE
8
BLACK
6
CONTINUOUS
10
-0.548898
20
1.89339
11
-0.548898
21
1.8737
0
LINE
8
BLACK
6
CONTINUOUS
10
-0.548898
20
1.8737
11
-0.549572
21
1.87031
0
LINE
8
BLACK
6
CONTINUOUS
10
-0.549572
20
1.87031
11
-0.551492
21
1.86744
0
LINE
8
BLACK
6
CONTINUOUS
10
-0.551492
20
1.86744
11
-0.554366
21
1.86552
0
LINE
8
BLACK
6
CONTINUOUS
10
-0.554366
20
1.86552
11
-0.557756
21
1.86484
0
LINE
8
BLACK
6
CONTINUOUS
10
-0.557756
20
1.86484
11
-0.575472
21
1.86484
0
LINE
8
BLACK
6
CONTINUOUS
10
-0.575472
20
1.86484
11
-0.578862
21
1.86552
0
LINE
8
BLACK
6
CONTINUOUS
10
-0.578862
20
1.86552
11
-0.581736
21
1.86744
0
LINE
8
BLACK
6
CONTINUOUS
10
-0.581736
20
1.86744
11
-0.583656
21
1.87031
0
LINE
8
BLACK
6
CONTINUOUS
10
-0.583656
20
1.87031
11
-0.584331
21
1.8737
0
LINE
8
BLACK
6
CONTINUOUS
10
-0.584331
20
1.8737
11
-0.584331
21
1.89339
0
LINE
8
BLACK
6
CONTINUOUS
10
-0.584331
20
1.89339
11
-0.583656
21
1.89678
0
LINE
8
BLACK
6
CONTINUOUS
10
-0.583656
20
1.89678
11
-0.581736
21
1.89965
0
LINE
8
BLACK
6
CONTINUOUS
10
-0.581736
20
1.89965
11
-0.578862
21
1.90157
0
LINE
8
BLACK
6
CONTINUOUS
10
-0.578862
20
1.90157
11
-0.575472
21
1.90224
0
LINE
8
BLACK
6
CONTINUOUS
10
-0.575472
20
1.90224
11
-0.557756
21
1.90224
0
LINE
8
BLACK
6
CONTINUOUS
10
-0.557756
20
1.90224
11
-0.554366
21
1.90157
0
LINE
8
BLACK
6
CONTINUOUS
10
-0.620918
20
2.01016
11
-0.617725
21
2.00802
0
LINE
8
BLACK
6
CONTINUOUS
10
-0.617725
20
2.00802
11
-0.615592
21
2.00483
0
LINE
8
BLACK
6
CONTINUOUS
10
-0.615592
20
2.00483
11
-0.614843
21
2.00106
0
LINE
8
BLACK
6
CONTINUOUS
10
-0.614843
20
2.00106
11
-0.614843
21
1.96366
0
LINE
8
BLACK
6
CONTINUOUS
10
-0.614843
20
1.96366
11
-0.615592
21
1.95989
0
LINE
8
BLACK
6
CONTINUOUS
10
-0.615592
20
1.95989
11
-0.617725
21
1.9567
0
LINE
8
BLACK
6
CONTINUOUS
10
-0.617725
20
1.9567
11
-0.620918
21
1.95457
0
LINE
8
BLACK
6
CONTINUOUS
10
-0.620918
20
1.95457
11
-0.624685
21
1.95382
0
LINE
8
BLACK
6
CONTINUOUS
10
-0.624685
20
1.95382
11
-0.64437
21
1.95382
0
LINE
8
BLACK
6
CONTINUOUS
10
-0.64437
20
1.95382
11
-0.648137
21
1.95457
0
LINE
8
BLACK
6
CONTINUOUS
10
-0.648137
20
1.95457
11
-0.65133
21
1.9567
0
LINE
8
BLACK
6
CONTINUOUS
10
-0.65133
20
1.9567
11
-0.653463
21
1.95989
0
LINE
8
BLACK
6
CONTINUOUS
10
-0.653463
20
1.95989
11
-0.654213
21
1.96366
0
LINE
8
BLACK
6
CONTINUOUS
10
-0.654213
20
1.96366
11
-0.654213
21
2.00106
0
LINE
8
BLACK
6
CONTINUOUS
10
-0.654213
20
2.00106
11
-0.653463
21
2.00483
0
LINE
8
BLACK
6
CONTINUOUS
10
-0.653463
20
2.00483
11
-0.65133
21
2.00802
0
LINE
8
BLACK
6
CONTINUOUS
10
-0.65133
20
2.00802
11
-0.648137
21
2.01016
0
LINE
8
BLACK
6
CONTINUOUS
10
-0.648137
20
2.01016
11
-0.64437
21
2.01091
0
LINE
8
BLACK
6
CONTINUOUS
10
-0.64437
20
2.01091
11
-0.624685
21
2.01091
0
LINE
8
BLACK
6
CONTINUOUS
10
-0.624685
20
2.01091
11
-0.620918
21
2.01016
0
LINE
8
BLACK
6
CONTINUOUS
10
-0.546115
20
2.01016
11
-0.542922
21
2.00802
0
LINE
8
BLACK
6
CONTINUOUS
10
-0.542922
20
2.00802
11
-0.540789
21
2.00483
0
LINE
8
BLACK
6
CONTINUOUS
10
-0.540789
20
2.00483
11
-0.540039
21
2.00106
0
LINE
8
BLACK
6
CONTINUOUS
10
-0.540039
20
2.00106
11
-0.540039
21
1.96366
0
LINE
8
BLACK
6
CONTINUOUS
10
-0.540039
20
1.96366
11
-0.540789
21
1.95989
0
LINE
8
BLACK
6
CONTINUOUS
10
-0.540789
20
1.95989
11
-0.542922
21
1.9567
0
LINE
8
BLACK
6
CONTINUOUS
10
-0.542922
20
1.9567
11
-0.546115
21
1.95457
0
LINE
8
BLACK
6
CONTINUOUS
10
-0.546115
20
1.95457
11
-0.549882
21
1.95382
0
LINE
8
BLACK
6
CONTINUOUS
10
-0.549882
20
1.95382
11
-0.569567
21
1.95382
0
LINE
8
BLACK
6
CONTINUOUS
10
-0.569567
20
1.95382
11
-0.573334
21
1.95457
0
LINE
8
BLACK
6
CONTINUOUS
10
-0.573334
20
1.95457
11
-0.576527
21
1.9567
0
LINE
8
BLACK
6
CONTINUOUS
10
-0.576527
20
1.9567
11
-0.57866
21
1.95989
0
LINE
8
BLACK
6
CONTINUOUS
10
-0.57866
20
1.95989
11
-0.579409
21
1.96366
0
LINE
8
BLACK
6
CONTINUOUS
10
-0.579409
20
1.96366
11
-0.579409
21
2.00106
0
LINE
8
BLACK
6
CONTINUOUS
10
-0.579409
20
2.00106
11
-0.57866
21
2.00483
0
LINE
8
BLACK
6
CONTINUOUS
10
-0.57866
20
2.00483
11
-0.576527
21
2.00802
0
LINE
8
BLACK
6
CONTINUOUS
10
-0.576527
20
2.00802
11
-0.573334
21
2.01016
0
LINE
8
BLACK
6
CONTINUOUS
10
-0.573334
20
2.01016
11
-0.569567
21
2.01091
0
LINE
8
BLACK
6
CONTINUOUS
10
-0.569567
20
2.01091
11
-0.549882
21
2.01091
0
LINE
8
BLACK
6
CONTINUOUS
10
-0.549882
20
2.01091
11
-0.546115
21
2.01016
0
LINE
8
BLACK
6
CONTINUOUS
10
-0.786666
20
2.20583
11
-0.783473
21
2.20369
0
LINE
8
BLACK
6
CONTINUOUS
10
-0.783473
20
2.20369
11
-0.78134
21
2.2005
0
LINE
8
BLACK
6
CONTINUOUS
10
-0.78134
20
2.2005
11
-0.780591
21
2.19673
0
LINE
8
BLACK
6
CONTINUOUS
10
-0.780591
20
2.19673
11
-0.780591
21
2.16327
0
LINE
8
BLACK
6
CONTINUOUS
10
-0.780591
20
2.16327
11
-0.78134
21
2.1595
0
LINE
8
BLACK
6
CONTINUOUS
10
-0.78134
20
2.1595
11
-0.783473
21
2.15631
0
LINE
8
BLACK
6
CONTINUOUS
10
-0.783473
20
2.15631
11
-0.786666
21
2.15417
0
LINE
8
BLACK
6
CONTINUOUS
10
-0.786666
20
2.15417
11
-0.790433
21
2.15343
0
LINE
8
BLACK
6
CONTINUOUS
10
-0.790433
20
2.15343
11
-0.825866
21
2.15343
0
LINE
8
BLACK
6
CONTINUOUS
10
-0.825866
20
2.15343
11
-0.829633
21
2.15417
0
LINE
8
BLACK
6
CONTINUOUS
10
-0.829633
20
2.15417
11
-0.832826
21
2.15631
0
LINE
8
BLACK
6
CONTINUOUS
10
-0.832826
20
2.15631
11
-0.834959
21
2.1595
0
LINE
8
BLACK
6
CONTINUOUS
10
-0.834959
20
2.1595
11
-0.835709
21
2.16327
0
LINE
8
BLACK
6
CONTINUOUS
10
-0.835709
20
2.16327
11
-0.835709
21
2.19673
0
LINE
8
BLACK
6
CONTINUOUS
10
-0.835709
20
2.19673
11
-0.834959
21
2.2005
0
LINE
8
BLACK
6
CONTINUOUS
10
-0.834959
20
2.2005
11
-0.832826
21
2.20369
0
LINE
8
BLACK
6
CONTINUOUS
10
-0.832826
20
2.20369
11
-0.829633
21
2.20583
0
LINE
8
BLACK
6
CONTINUOUS
10
-0.829633
20
2.20583
11
-0.825866
21
2.20657
0
LINE
8
BLACK
6
CONTINUOUS
10
-0.825866
20
2.20657
11
-0.790433
21
2.20657
0
LINE
8
BLACK
6
CONTINUOUS
10
-0.790433
20
2.20657
11
-0.786666
21
2.20583
0
LINE
8
BLACK
6
CONTINUOUS
10
-0.680367
20
2.20583
11
-0.677174
21
2.20369
0
LINE
8
BLACK
6
CONTINUOUS
10
-0.677174
20
2.20369
11
-0.675041
21
2.2005
0
LINE
8
BLACK
6
CONTINUOUS
10
-0.675041
20
2.2005
11
-0.674291
21
2.19673
0
LINE
8
BLACK
6
CONTINUOUS
10
-0.674291
20
2.19673
11
-0.674291
21
2.16327
0
LINE
8
BLACK
6
CONTINUOUS
10
-0.674291
20
2.16327
11
-0.675041
21
2.1595
0
LINE
8
BLACK
6
CONTINUOUS
10
-0.675041
20
2.1595
11
-0.677174
21
2.15631
0
LINE
8
BLACK
6
CONTINUOUS
10
-0.677174
20
2.15631
11
-0.680367
21
2.15417
0
LINE
8
BLACK
6
CONTINUOUS
10
-0.680367
20
2.15417
11
-0.684134
21
2.15343
0
LINE
8
BLACK
6
CONTINUOUS
10
-0.684134
20
2.15343
11
-0.719567
21
2.15343
0
LINE
8
BLACK
6
CONTINUOUS
10
-0.719567
20
2.15343
11
-0.723334
21
2.15417
0
LINE
8
BLACK
6
CONTINUOUS
10
-0.723334
20
2.15417
11
-0.726527
21
2.15631
0
LINE
8
BLACK
6
CONTINUOUS
10
-0.726527
20
2.15631
11
-0.72866
21
2.1595
0
LINE
8
BLACK
6
CONTINUOUS
10
-0.72866
20
2.1595
11
-0.729409
21
2.16327
0
LINE
8
BLACK
6
CONTINUOUS
10
-0.729409
20
2.16327
11
-0.729409
21
2.19673
0
LINE
8
BLACK
6
CONTINUOUS
10
-0.729409
20
2.19673
11
-0.72866
21
2.2005
0
LINE
8
BLACK
6
CONTINUOUS
10
-0.72866
20
2.2005
11
-0.726527
21
2.20369
0
LINE
8
BLACK
6
CONTINUOUS
10
-0.726527
20
2.20369
11
-0.723334
21
2.20583
0
LINE
8
BLACK
6
CONTINUOUS
10
-0.723334
20
2.20583
11
-0.719567
21
2.20657
0
LINE
8
BLACK
6
CONTINUOUS
10
-0.719567
20
2.20657
11
-0.684134
21
2.20657
0
LINE
8
BLACK
6
CONTINUOUS
10
-0.684134
20
2.20657
11
-0.680367
21
2.20583
  0
ENDSEC
  0
EOF
