  0
SECTION
  2
HEADER
  9
$ANGBASE
  50
0.0
  9
$ANGDIR
  70
1
  9
$MEASUREMENT
  70
0
  0
ENDSEC
  0
SECTION
  2
TABLES
  0
TABLE
  2
LTYPE
  70
4
  0
LTYPE
  5
40F
  2
CONTINUOUS
  70
0
  3
Solid line
  72
65
  73
0
  40
0.0
  0
LTYPE
  5
410
  2
DASHDOT
 70
0
  3
Dash Dot ____ _ ____ _
 72
65
 73
4
 40
2.0
 49
1.25
 49
-0.25
 49
0.25
 49
-0.25
  0
LTYPE
  5
411
  2
DASHED
 70
0
  3
Dashed __ __ __ __ __
 72
65
 73
2
 40
0.75
 49
0.5
 49
-0.25
  0
LTYPE
  5
43B
  2
DOTTED
 70
0
  3
Dotted .  .  .  .
 72
65
 73
2
 40
0.2
 49
0.0
 49
-0.2
  0
ENDTAB
  0
TABLE
  2
STYLE
  70
4
  0
STYLE
  2
KICAD
  70
0
  40
0
  41
1
  42
1
  50
0
  71
0
  3
isocp.shx
  0
STYLE
  2
KICADB
  70
0
  40
0
  41
1
  42
1
  50
0
  71
0
  3
isocp.shx
  0
STYLE
  2
KICADI
  70
0
  40
0
  41
1
  42
1
  50
15
  71
0
  3
isocp.shx
  0
STYLE
  2
KICADBI
  70
0
  40
0
  41
1
  42
1
  50
15
  71
0
  3
isocp.shx
  0
ENDTAB
  0
TABLE
  2
LAYER
  70
1
  0
LAYER
  2
BLACK
  70
0
  62
7
  6
CONTINUOUS
  0
ENDTAB
  0
ENDSEC
  0
SECTION
  2
ENTITIES
0
LINE
8
BLACK
6
CONTINUOUS
10
1.30038
20
0.752885
11
1.30051
21
0.752908
0
LINE
8
BLACK
6
CONTINUOUS
10
1.30051
20
0.752908
11
1.30063
21
0.752842
0
LINE
8
BLACK
6
CONTINUOUS
10
1.30063
20
0.752842
11
1.30101
21
0.752775
0
LINE
8
BLACK
6
CONTINUOUS
10
1.30101
20
0.752775
11
1.3016
21
0.752282
0
LINE
8
BLACK
6
CONTINUOUS
10
1.3016
20
0.752282
11
1.30226
21
0.751898
0
LINE
8
BLACK
6
CONTINUOUS
10
1.30226
20
0.751898
11
1.30235
21
0.751648
0
LINE
8
BLACK
6
CONTINUOUS
10
1.30235
20
0.751648
11
1.30256
21
0.751476
0
LINE
8
BLACK
6
CONTINUOUS
10
1.30256
20
0.751476
11
1.30269
21
0.750721
0
LINE
8
BLACK
6
CONTINUOUS
10
1.30269
20
0.750721
11
1.30295
21
0.75
0
LINE
8
BLACK
6
CONTINUOUS
10
1.30295
20
0.75
11
1.30295
21
0.45
0
LINE
8
BLACK
6
CONTINUOUS
10
1.30295
20
0.45
11
1.30289
21
0.449616
0
LINE
8
BLACK
6
CONTINUOUS
10
1.30289
20
0.449616
11
1.30291
21
0.449487
0
LINE
8
BLACK
6
CONTINUOUS
10
1.30291
20
0.449487
11
1.30284
21
0.449374
0
LINE
8
BLACK
6
CONTINUOUS
10
1.30284
20
0.449374
11
1.30277
21
0.44899
0
LINE
8
BLACK
6
CONTINUOUS
10
1.30277
20
0.44899
11
1.30228
21
0.448402
0
LINE
8
BLACK
6
CONTINUOUS
10
1.30228
20
0.448402
11
1.3019
21
0.447738
0
LINE
8
BLACK
6
CONTINUOUS
10
1.3019
20
0.447738
11
1.30165
21
0.447647
0
LINE
8
BLACK
6
CONTINUOUS
10
1.30165
20
0.447647
11
1.30148
21
0.447443
0
LINE
8
BLACK
6
CONTINUOUS
10
1.30148
20
0.447443
11
1.30072
21
0.44731
0
LINE
8
BLACK
6
CONTINUOUS
10
1.30072
20
0.44731
11
1.3
21
0.447047
0
LINE
8
BLACK
6
CONTINUOUS
10
1.3
20
0.447047
11
1.1
21
0.447047
0
LINE
8
BLACK
6
CONTINUOUS
10
1.1
20
0.447047
11
1.09962
21
0.447115
0
LINE
8
BLACK
6
CONTINUOUS
10
1.09962
20
0.447115
11
1.09949
21
0.447092
0
LINE
8
BLACK
6
CONTINUOUS
10
1.09949
20
0.447092
11
1.09937
21
0.447158
0
LINE
8
BLACK
6
CONTINUOUS
10
1.09937
20
0.447158
11
1.09899
21
0.447225
0
LINE
8
BLACK
6
CONTINUOUS
10
1.09899
20
0.447225
11
1.0984
21
0.447718
0
LINE
8
BLACK
6
CONTINUOUS
10
1.0984
20
0.447718
11
1.09774
21
0.448102
0
LINE
8
BLACK
6
CONTINUOUS
10
1.09774
20
0.448102
11
1.09765
21
0.448352
0
LINE
8
BLACK
6
CONTINUOUS
10
1.09765
20
0.448352
11
1.09744
21
0.448524
0
LINE
8
BLACK
6
CONTINUOUS
10
1.09744
20
0.448524
11
1.09731
21
0.449279
0
LINE
8
BLACK
6
CONTINUOUS
10
1.09731
20
0.449279
11
1.09705
21
0.45
0
LINE
8
BLACK
6
CONTINUOUS
10
1.09705
20
0.45
11
1.09705
21
0.75
0
LINE
8
BLACK
6
CONTINUOUS
10
1.09705
20
0.75
11
1.09711
21
0.750384
0
LINE
8
BLACK
6
CONTINUOUS
10
1.09711
20
0.750384
11
1.09709
21
0.750513
0
LINE
8
BLACK
6
CONTINUOUS
10
1.09709
20
0.750513
11
1.09716
21
0.750626
0
LINE
8
BLACK
6
CONTINUOUS
10
1.09716
20
0.750626
11
1.09723
21
0.75101
0
LINE
8
BLACK
6
CONTINUOUS
10
1.09723
20
0.75101
11
1.09772
21
0.751598
0
LINE
8
BLACK
6
CONTINUOUS
10
1.09772
20
0.751598
11
1.0981
21
0.752262
0
LINE
8
BLACK
6
CONTINUOUS
10
1.0981
20
0.752262
11
1.09835
21
0.752353
0
LINE
8
BLACK
6
CONTINUOUS
10
1.09835
20
0.752353
11
1.09852
21
0.752557
0
LINE
8
BLACK
6
CONTINUOUS
10
1.09852
20
0.752557
11
1.09928
21
0.75269
0
LINE
8
BLACK
6
CONTINUOUS
10
1.09928
20
0.75269
11
1.1
21
0.752953
0
LINE
8
BLACK
6
CONTINUOUS
10
1.1
20
0.752953
11
1.3
21
0.752953
0
LINE
8
BLACK
6
CONTINUOUS
10
1.3
20
0.752953
11
1.30038
21
0.752885
0
LINE
8
BLACK
6
CONTINUOUS
10
1.10295
20
0.747047
11
1.10295
21
0.452953
0
LINE
8
BLACK
6
CONTINUOUS
10
1.10295
20
0.452953
11
1.29705
21
0.452953
0
LINE
8
BLACK
6
CONTINUOUS
10
1.29705
20
0.452953
11
1.29705
21
0.747047
0
LINE
8
BLACK
6
CONTINUOUS
10
1.29705
20
0.747047
11
1.10295
21
0.747047
0
CIRCLE
8
BLACK
10
0
20
1.2
40
0.00688976
0
CIRCLE
8
BLACK
10
1.2
20
0
40
0.00688976
0
CIRCLE
8
BLACK
10
1.25
20
0.5
40
0.00688976
0
CIRCLE
8
BLACK
10
1.15
20
0.5
40
0.00688976
0
CIRCLE
8
BLACK
10
1.25
20
0.6
40
0.00688976
0
CIRCLE
8
BLACK
10
1.15
20
0.6
40
0.00688976
0
CIRCLE
8
BLACK
10
1.25
20
0.7
40
0.00688976
0
CIRCLE
8
BLACK
10
1.15
20
0.7
40
0.00688976
0
CIRCLE
8
BLACK
10
0
20
0
40
0.00688976
0
CIRCLE
8
BLACK
10
1.2
20
1.2
40
0.00688976
  0
ENDSEC
  0
EOF
