<?xml version='1.0' encoding='ASCII' standalone='yes'?>
<svg xmlns:svg="http://www.w3.org/2000/svg" xmlns="http://www.w3.org/2000/svg" xmlns:xlink="http://www.w3.org/1999/xlink" version="1.1" width="297.0022mm" height="210.0072mm" viewBox="0.0000 0.0000 297.0022 210.0072">
<title>SVG Image created as PIND02-B_Fab.svg date 2023/09/10 20:35:26 </title>
  <desc>Image generated by PCBNEW </desc>
<g style="fill:#000084; fill-opacity:1.0000;stroke:#000084; stroke-opacity:1.0000; stroke-linecap:round; stroke-linejoin:round;" transform="translate(0 0) scale(1 1)">
</g>
<g style="fill:#000084; fill-opacity:0.0;  stroke:#000084; stroke-width:0.0000; stroke-opacity:1;  stroke-linecap:round; stroke-linejoin:round;">
</g>
<g style="fill:#000084; fill-opacity:0.01;  stroke:#000084; stroke-width:0.7847; stroke-opacity:1;  stroke-linecap:round; stroke-linejoin:round;">
<text x="175.0750" y="142.9812" transform="scale(-1 1) translate(-350.149940 0)" textLength="20.4884" font-size="6.9748" lengthAdjust="spacingAndGlyphs" text-anchor="middle" opacity="0.01" style="font-family:monospace">10uF</text>
<g class="stroked-text"><desc>10uF</desc>
<path d="M169.4702 142.7449 L166.4811 142.7449 "/>
<path d="M167.9757 142.7449 L167.9757 137.5138 "/>
<path d="M167.9757 137.5138 L167.4775 138.2611 "/>
<path d="M167.4775 138.2611 L166.9793 138.7593 "/>
<path d="M166.9793 138.7593 L166.4811 139.0084 "/>
<path d="M172.7085 137.5138 L173.2067 137.5138 "/>
<path d="M173.2067 137.5138 L173.7049 137.7629 "/>
<path d="M173.7049 137.7629 L173.9540 138.0120 "/>
<path d="M173.9540 138.0120 L174.2031 138.5102 "/>
<path d="M174.2031 138.5102 L174.4522 139.5066 "/>
<path d="M174.4522 139.5066 L174.4522 140.7521 "/>
<path d="M174.4522 140.7521 L174.2031 141.7485 "/>
<path d="M174.2031 141.7485 L173.9540 142.2467 "/>
<path d="M173.9540 142.2467 L173.7049 142.4958 "/>
<path d="M173.7049 142.4958 L173.2067 142.7449 "/>
<path d="M173.2067 142.7449 L172.7085 142.7449 "/>
<path d="M172.7085 142.7449 L172.2103 142.4958 "/>
<path d="M172.2103 142.4958 L171.9612 142.2467 "/>
<path d="M171.9612 142.2467 L171.7121 141.7485 "/>
<path d="M171.7121 141.7485 L171.4630 140.7521 "/>
<path d="M171.4630 140.7521 L171.4630 139.5066 "/>
<path d="M171.4630 139.5066 L171.7121 138.5102 "/>
<path d="M171.7121 138.5102 L171.9612 138.0120 "/>
<path d="M171.9612 138.0120 L172.2103 137.7629 "/>
<path d="M172.2103 137.7629 L172.7085 137.5138 "/>
<path d="M178.9360 139.2575 L178.9360 142.7449 "/>
<path d="M176.6941 139.2575 L176.6941 141.9976 "/>
<path d="M176.6941 141.9976 L176.9432 142.4958 "/>
<path d="M176.9432 142.4958 L177.4414 142.7449 "/>
<path d="M177.4414 142.7449 L178.1887 142.7449 "/>
<path d="M178.1887 142.7449 L178.6869 142.4958 "/>
<path d="M178.6869 142.4958 L178.9360 142.2467 "/>
<path d="M183.1707 140.0048 L181.4270 140.0048 "/>
<path d="M181.4270 142.7449 L181.4270 137.5138 "/>
<path d="M181.4270 137.5138 L183.9180 137.5138 "/>
</g></g>
<g style="fill:#000084; fill-opacity:0.01;  stroke:#000084; stroke-width:0.4185; stroke-opacity:1;  stroke-linecap:round; stroke-linejoin:round;">
<text x="175.0750" y="132.8852" transform="scale(-1 1) translate(-350.149940 0)" textLength="5.8389" font-size="3.4874" lengthAdjust="spacingAndGlyphs" text-anchor="middle" opacity="0.01" style="font-family:monospace">C1</text>
<g class="stroked-text"><desc>C1</desc>
<path d="M174.6390 132.5166 L174.5145 132.6412 "/>
<path d="M174.5145 132.6412 L174.1409 132.7657 "/>
<path d="M174.1409 132.7657 L173.8918 132.7657 "/>
<path d="M173.8918 132.7657 L173.5181 132.6412 "/>
<path d="M173.5181 132.6412 L173.2690 132.3921 "/>
<path d="M173.2690 132.3921 L173.1445 132.1430 "/>
<path d="M173.1445 132.1430 L173.0199 131.6448 "/>
<path d="M173.0199 131.6448 L173.0199 131.2711 "/>
<path d="M173.0199 131.2711 L173.1445 130.7729 "/>
<path d="M173.1445 130.7729 L173.2690 130.5238 "/>
<path d="M173.2690 130.5238 L173.5181 130.2747 "/>
<path d="M173.5181 130.2747 L173.8918 130.1502 "/>
<path d="M173.8918 130.1502 L174.1409 130.1502 "/>
<path d="M174.1409 130.1502 L174.5145 130.2747 "/>
<path d="M174.5145 130.2747 L174.6390 130.3993 "/>
<path d="M177.1300 132.7657 L175.6354 132.7657 "/>
<path d="M176.3827 132.7657 L176.3827 130.1502 "/>
<path d="M176.3827 130.1502 L176.1336 130.5238 "/>
<path d="M176.1336 130.5238 L175.8845 130.7729 "/>
<path d="M175.8845 130.7729 L175.6354 130.8975 "/>
</g></g>
<g style="fill:#000084; fill-opacity:0.01;  stroke:#000084; stroke-width:0.7847; stroke-opacity:1;  stroke-linecap:round; stroke-linejoin:round;">
<text x="121.9272" y="115.3200" transform="scale(-1 1) translate(-243.854463 0)" textLength="54.6149" font-size="6.9748" lengthAdjust="spacingAndGlyphs" text-anchor="middle" opacity="0.01" style="font-family:monospace">BZV55C-5,6V</text>
<g class="stroked-text"><desc>BZV55C-5,6V</desc>
<path d="M98.2628 112.3436 L99.0101 112.5927 "/>
<path d="M99.0101 112.5927 L99.2592 112.8418 "/>
<path d="M99.2592 112.8418 L99.5083 113.3400 "/>
<path d="M99.5083 113.3400 L99.5083 114.0873 "/>
<path d="M99.5083 114.0873 L99.2592 114.5855 "/>
<path d="M99.2592 114.5855 L99.0101 114.8346 "/>
<path d="M99.0101 114.8346 L98.5119 115.0837 "/>
<path d="M98.5119 115.0837 L96.5191 115.0837 "/>
<path d="M96.5191 115.0837 L96.5191 109.8526 "/>
<path d="M96.5191 109.8526 L98.2628 109.8526 "/>
<path d="M98.2628 109.8526 L98.7610 110.1017 "/>
<path d="M98.7610 110.1017 L99.0101 110.3508 "/>
<path d="M99.0101 110.3508 L99.2592 110.8490 "/>
<path d="M99.2592 110.8490 L99.2592 111.3472 "/>
<path d="M99.2592 111.3472 L99.0101 111.8454 "/>
<path d="M99.0101 111.8454 L98.7610 112.0945 "/>
<path d="M98.7610 112.0945 L98.2628 112.3436 "/>
<path d="M98.2628 112.3436 L96.5191 112.3436 "/>
<path d="M101.2520 109.8526 L104.7394 109.8526 "/>
<path d="M104.7394 109.8526 L101.2520 115.0837 "/>
<path d="M101.2520 115.0837 L104.7394 115.0837 "/>
<path d="M105.9849 109.8526 L107.7286 115.0837 "/>
<path d="M107.7286 115.0837 L109.4723 109.8526 "/>
<path d="M113.7070 109.8526 L111.2160 109.8526 "/>
<path d="M111.2160 109.8526 L110.9669 112.3436 "/>
<path d="M110.9669 112.3436 L111.2160 112.0945 "/>
<path d="M111.2160 112.0945 L111.7142 111.8454 "/>
<path d="M111.7142 111.8454 L112.9597 111.8454 "/>
<path d="M112.9597 111.8454 L113.4579 112.0945 "/>
<path d="M113.4579 112.0945 L113.7070 112.3436 "/>
<path d="M113.7070 112.3436 L113.9561 112.8418 "/>
<path d="M113.9561 112.8418 L113.9561 114.0873 "/>
<path d="M113.9561 114.0873 L113.7070 114.5855 "/>
<path d="M113.7070 114.5855 L113.4579 114.8346 "/>
<path d="M113.4579 114.8346 L112.9597 115.0837 "/>
<path d="M112.9597 115.0837 L111.7142 115.0837 "/>
<path d="M111.7142 115.0837 L111.2160 114.8346 "/>
<path d="M111.2160 114.8346 L110.9669 114.5855 "/>
<path d="M118.6889 109.8526 L116.1980 109.8526 "/>
<path d="M116.1980 109.8526 L115.9489 112.3436 "/>
<path d="M115.9489 112.3436 L116.1980 112.0945 "/>
<path d="M116.1980 112.0945 L116.6962 111.8454 "/>
<path d="M116.6962 111.8454 L117.9417 111.8454 "/>
<path d="M117.9417 111.8454 L118.4399 112.0945 "/>
<path d="M118.4399 112.0945 L118.6889 112.3436 "/>
<path d="M118.6889 112.3436 L118.9380 112.8418 "/>
<path d="M118.9380 112.8418 L118.9380 114.0873 "/>
<path d="M118.9380 114.0873 L118.6889 114.5855 "/>
<path d="M118.6889 114.5855 L118.4399 114.8346 "/>
<path d="M118.4399 114.8346 L117.9417 115.0837 "/>
<path d="M117.9417 115.0837 L116.6962 115.0837 "/>
<path d="M116.6962 115.0837 L116.1980 114.8346 "/>
<path d="M116.1980 114.8346 L115.9489 114.5855 "/>
<path d="M124.1691 114.5855 L123.9200 114.8346 "/>
<path d="M123.9200 114.8346 L123.1727 115.0837 "/>
<path d="M123.1727 115.0837 L122.6745 115.0837 "/>
<path d="M122.6745 115.0837 L121.9272 114.8346 "/>
<path d="M121.9272 114.8346 L121.4290 114.3364 "/>
<path d="M121.4290 114.3364 L121.1799 113.8382 "/>
<path d="M121.1799 113.8382 L120.9308 112.8418 "/>
<path d="M120.9308 112.8418 L120.9308 112.0945 "/>
<path d="M120.9308 112.0945 L121.1799 111.0981 "/>
<path d="M121.1799 111.0981 L121.4290 110.5999 "/>
<path d="M121.4290 110.5999 L121.9272 110.1017 "/>
<path d="M121.9272 110.1017 L122.6745 109.8526 "/>
<path d="M122.6745 109.8526 L123.1727 109.8526 "/>
<path d="M123.1727 109.8526 L123.9200 110.1017 "/>
<path d="M123.9200 110.1017 L124.1691 110.3508 "/>
<path d="M126.4110 113.0909 L130.3966 113.0909 "/>
<path d="M135.3786 109.8526 L132.8876 109.8526 "/>
<path d="M132.8876 109.8526 L132.6385 112.3436 "/>
<path d="M132.6385 112.3436 L132.8876 112.0945 "/>
<path d="M132.8876 112.0945 L133.3858 111.8454 "/>
<path d="M133.3858 111.8454 L134.6313 111.8454 "/>
<path d="M134.6313 111.8454 L135.1295 112.0945 "/>
<path d="M135.1295 112.0945 L135.3786 112.3436 "/>
<path d="M135.3786 112.3436 L135.6277 112.8418 "/>
<path d="M135.6277 112.8418 L135.6277 114.0873 "/>
<path d="M135.6277 114.0873 L135.3786 114.5855 "/>
<path d="M135.3786 114.5855 L135.1295 114.8346 "/>
<path d="M135.1295 114.8346 L134.6313 115.0837 "/>
<path d="M134.6313 115.0837 L133.3858 115.0837 "/>
<path d="M133.3858 115.0837 L132.8876 114.8346 "/>
<path d="M132.8876 114.8346 L132.6385 114.5855 "/>
<path d="M138.1187 114.8346 L138.1187 115.0837 "/>
<path d="M138.1187 115.0837 L137.8696 115.5819 "/>
<path d="M137.8696 115.5819 L137.6205 115.8310 "/>
<path d="M142.6024 109.8526 L141.6060 109.8526 "/>
<path d="M141.6060 109.8526 L141.1078 110.1017 "/>
<path d="M141.1078 110.1017 L140.8587 110.3508 "/>
<path d="M140.8587 110.3508 L140.3606 111.0981 "/>
<path d="M140.3606 111.0981 L140.1115 112.0945 "/>
<path d="M140.1115 112.0945 L140.1115 114.0873 "/>
<path d="M140.1115 114.0873 L140.3606 114.5855 "/>
<path d="M140.3606 114.5855 L140.6097 114.8346 "/>
<path d="M140.6097 114.8346 L141.1078 115.0837 "/>
<path d="M141.1078 115.0837 L142.1042 115.0837 "/>
<path d="M142.1042 115.0837 L142.6024 114.8346 "/>
<path d="M142.6024 114.8346 L142.8515 114.5855 "/>
<path d="M142.8515 114.5855 L143.1006 114.0873 "/>
<path d="M143.1006 114.0873 L143.1006 112.8418 "/>
<path d="M143.1006 112.8418 L142.8515 112.3436 "/>
<path d="M142.8515 112.3436 L142.6024 112.0945 "/>
<path d="M142.6024 112.0945 L142.1042 111.8454 "/>
<path d="M142.1042 111.8454 L141.1078 111.8454 "/>
<path d="M141.1078 111.8454 L140.6097 112.0945 "/>
<path d="M140.6097 112.0945 L140.3606 112.3436 "/>
<path d="M140.3606 112.3436 L140.1115 112.8418 "/>
<path d="M144.5952 109.8526 L146.3389 115.0837 "/>
<path d="M146.3389 115.0837 L148.0826 109.8526 "/>
</g><text x="121.9272" y="88.6415" transform="scale(-1 1) translate(-243.854463 0)" textLength="11.5208" font-size="6.9748" lengthAdjust="spacingAndGlyphs" text-anchor="middle" opacity="0.01" style="font-family:monospace">D1</text>
<g class="stroked-text"><desc>D1</desc>
<path d="M118.0662 88.4052 L118.0662 83.1741 "/>
<path d="M118.0662 83.1741 L119.3117 83.1741 "/>
<path d="M119.3117 83.1741 L120.0590 83.4232 "/>
<path d="M120.0590 83.4232 L120.5572 83.9214 "/>
<path d="M120.5572 83.9214 L120.8063 84.4196 "/>
<path d="M120.8063 84.4196 L121.0554 85.4160 "/>
<path d="M121.0554 85.4160 L121.0554 86.1633 "/>
<path d="M121.0554 86.1633 L120.8063 87.1597 "/>
<path d="M120.8063 87.1597 L120.5572 87.6579 "/>
<path d="M120.5572 87.6579 L120.0590 88.1561 "/>
<path d="M120.0590 88.1561 L119.3117 88.4052 "/>
<path d="M119.3117 88.4052 L118.0662 88.4052 "/>
<path d="M126.0374 88.4052 L123.0482 88.4052 "/>
<path d="M124.5428 88.4052 L124.5428 83.1741 "/>
<path d="M124.5428 83.1741 L124.0446 83.9214 "/>
<path d="M124.0446 83.9214 L123.5464 84.4196 "/>
<path d="M123.5464 84.4196 L123.0482 84.6687 "/>
</g><text x="175.0750" y="60.9056" transform="scale(-1 1) translate(-350.149940 0)" textLength="25.4704" font-size="6.9748" lengthAdjust="spacingAndGlyphs" text-anchor="middle" opacity="0.01" style="font-family:monospace">100nF</text>
<g class="stroked-text"><desc>100nF</desc>
<path d="M166.9793 60.6693 L163.9901 60.6693 "/>
<path d="M165.4847 60.6693 L165.4847 55.4382 "/>
<path d="M165.4847 55.4382 L164.9865 56.1855 "/>
<path d="M164.9865 56.1855 L164.4883 56.6837 "/>
<path d="M164.4883 56.6837 L163.9901 56.9328 "/>
<path d="M170.2175 55.4382 L170.7157 55.4382 "/>
<path d="M170.7157 55.4382 L171.2139 55.6873 "/>
<path d="M171.2139 55.6873 L171.4630 55.9364 "/>
<path d="M171.4630 55.9364 L171.7121 56.4346 "/>
<path d="M171.7121 56.4346 L171.9612 57.4310 "/>
<path d="M171.9612 57.4310 L171.9612 58.6765 "/>
<path d="M171.9612 58.6765 L171.7121 59.6729 "/>
<path d="M171.7121 59.6729 L171.4630 60.1711 "/>
<path d="M171.4630 60.1711 L171.2139 60.4202 "/>
<path d="M171.2139 60.4202 L170.7157 60.6693 "/>
<path d="M170.7157 60.6693 L170.2175 60.6693 "/>
<path d="M170.2175 60.6693 L169.7193 60.4202 "/>
<path d="M169.7193 60.4202 L169.4702 60.1711 "/>
<path d="M169.4702 60.1711 L169.2211 59.6729 "/>
<path d="M169.2211 59.6729 L168.9721 58.6765 "/>
<path d="M168.9721 58.6765 L168.9721 57.4310 "/>
<path d="M168.9721 57.4310 L169.2211 56.4346 "/>
<path d="M169.2211 56.4346 L169.4702 55.9364 "/>
<path d="M169.4702 55.9364 L169.7193 55.6873 "/>
<path d="M169.7193 55.6873 L170.2175 55.4382 "/>
<path d="M175.1995 55.4382 L175.6977 55.4382 "/>
<path d="M175.6977 55.4382 L176.1959 55.6873 "/>
<path d="M176.1959 55.6873 L176.4450 55.9364 "/>
<path d="M176.4450 55.9364 L176.6941 56.4346 "/>
<path d="M176.6941 56.4346 L176.9432 57.4310 "/>
<path d="M176.9432 57.4310 L176.9432 58.6765 "/>
<path d="M176.9432 58.6765 L176.6941 59.6729 "/>
<path d="M176.6941 59.6729 L176.4450 60.1711 "/>
<path d="M176.4450 60.1711 L176.1959 60.4202 "/>
<path d="M176.1959 60.4202 L175.6977 60.6693 "/>
<path d="M175.6977 60.6693 L175.1995 60.6693 "/>
<path d="M175.1995 60.6693 L174.7013 60.4202 "/>
<path d="M174.7013 60.4202 L174.4522 60.1711 "/>
<path d="M174.4522 60.1711 L174.2031 59.6729 "/>
<path d="M174.2031 59.6729 L173.9540 58.6765 "/>
<path d="M173.9540 58.6765 L173.9540 57.4310 "/>
<path d="M173.9540 57.4310 L174.2031 56.4346 "/>
<path d="M174.2031 56.4346 L174.4522 55.9364 "/>
<path d="M174.4522 55.9364 L174.7013 55.6873 "/>
<path d="M174.7013 55.6873 L175.1995 55.4382 "/>
<path d="M179.1851 57.1819 L179.1851 60.6693 "/>
<path d="M179.1851 57.6801 L179.4342 57.4310 "/>
<path d="M179.4342 57.4310 L179.9324 57.1819 "/>
<path d="M179.9324 57.1819 L180.6797 57.1819 "/>
<path d="M180.6797 57.1819 L181.1779 57.4310 "/>
<path d="M181.1779 57.4310 L181.4270 57.9292 "/>
<path d="M181.4270 57.9292 L181.4270 60.6693 "/>
<path d="M185.6617 57.9292 L183.9180 57.9292 "/>
<path d="M183.9180 60.6693 L183.9180 55.4382 "/>
<path d="M183.9180 55.4382 L186.4090 55.4382 "/>
</g></g>
<g style="fill:#000084; fill-opacity:0.01;  stroke:#000084; stroke-width:0.4185; stroke-opacity:1;  stroke-linecap:round; stroke-linejoin:round;">
<text x="175.0750" y="50.8096" transform="scale(-1 1) translate(-350.149940 0)" textLength="5.8389" font-size="3.4874" lengthAdjust="spacingAndGlyphs" text-anchor="middle" opacity="0.01" style="font-family:monospace">C2</text>
<g class="stroked-text"><desc>C2</desc>
<path d="M174.6390 50.4410 L174.5145 50.5656 "/>
<path d="M174.5145 50.5656 L174.1409 50.6901 "/>
<path d="M174.1409 50.6901 L173.8918 50.6901 "/>
<path d="M173.8918 50.6901 L173.5181 50.5656 "/>
<path d="M173.5181 50.5656 L173.2690 50.3165 "/>
<path d="M173.2690 50.3165 L173.1445 50.0674 "/>
<path d="M173.1445 50.0674 L173.0199 49.5692 "/>
<path d="M173.0199 49.5692 L173.0199 49.1955 "/>
<path d="M173.0199 49.1955 L173.1445 48.6973 "/>
<path d="M173.1445 48.6973 L173.2690 48.4482 "/>
<path d="M173.2690 48.4482 L173.5181 48.1991 "/>
<path d="M173.5181 48.1991 L173.8918 48.0746 "/>
<path d="M173.8918 48.0746 L174.1409 48.0746 "/>
<path d="M174.1409 48.0746 L174.5145 48.1991 "/>
<path d="M174.5145 48.1991 L174.6390 48.3237 "/>
<path d="M175.6354 48.3237 L175.7600 48.1991 "/>
<path d="M175.7600 48.1991 L176.0091 48.0746 "/>
<path d="M176.0091 48.0746 L176.6318 48.0746 "/>
<path d="M176.6318 48.0746 L176.8809 48.1991 "/>
<path d="M176.8809 48.1991 L177.0055 48.3237 "/>
<path d="M177.0055 48.3237 L177.1300 48.5728 "/>
<path d="M177.1300 48.5728 L177.1300 48.8219 "/>
<path d="M177.1300 48.8219 L177.0055 49.1955 "/>
<path d="M177.0055 49.1955 L175.5109 50.6901 "/>
<path d="M175.5109 50.6901 L177.1300 50.6901 "/>
</g></g>
<g style="fill:#000084; fill-opacity:0.0;  stroke:#000084; stroke-width:0.5231; stroke-opacity:1;  stroke-linecap:round; stroke-linejoin:round;">
<path d="M180.3060 134.8469 L169.8439 134.8469 "/>
<path d="M169.8439 128.3080 L180.3060 128.3080 "/>
<path d="M169.8439 134.8469 L169.8439 128.3080 "/>
<path d="M180.3060 128.3080 L180.3060 134.8469 "/>
<path d="M109.8958 106.9503 L109.8958 91.2571 "/>
<path d="M133.9587 91.2571 L133.9587 106.9503 "/>
<path d="M124.5489 103.0287 L124.5489 94.9236 "/>
<path d="M118.5300 99.1090 L124.5489 94.9236 "/>
<path d="M133.9587 91.2571 L109.8958 91.2571 "/>
<path d="M124.5489 99.1090 L129.7707 99.1090 "/>
<path d="M118.5300 99.1090 L124.5489 103.0287 "/>
<path d="M118.5300 99.1090 L113.8131 99.1090 "/>
<path d="M133.9587 106.9503 L109.8958 106.9503 "/>
<path d="M118.5300 94.9236 L118.5300 103.2944 "/>
<path d="M180.3060 46.2325 L180.3060 52.7713 "/>
<path d="M169.8439 52.7713 L169.8439 46.2325 "/>
<path d="M169.8439 46.2325 L180.3060 46.2325 "/>
<path d="M180.3060 52.7713 L169.8439 52.7713 "/>
<g>
</g>
<g>
</g>
<g>
</g>
<g>
</g>
<g>
</g>
<g>
</g>
<g>
</g>
<g>
</g>
<g>
</g>
<g>
</g>
<g>
</g>
</g> 
<svg:g><svg:g><svg:title>SVG Image created as PIND02-Edge_Cuts.svg date 2023/09/10 20:35:26 </svg:title>
  <svg:desc>Image generated by PCBNEW </svg:desc>
<svg:g style="fill:#C2C200; fill-opacity:1.0000;stroke:#C2C200; stroke-opacity:1.0000; stroke-linecap:round; stroke-linejoin:round;" transform="translate(0 0) scale(1 1)">
</svg:g>
<svg:g style="fill:#C2C200; fill-opacity:0.0;  stroke:#C2C200; stroke-width:0.0000; stroke-opacity:1;  stroke-linecap:round; stroke-linejoin:round;">
</svg:g>
<svg:g style="fill:#C2C200; fill-opacity:0.0;  stroke:#C2C200; stroke-width:0.0664; stroke-opacity:1;  stroke-linecap:round; stroke-linejoin:round;">
<svg:path d="M43.5343 209.9704 L43.5343 0.0368 "/>
<svg:path d="M253.4679 0.0368 L253.4679 209.9704 "/>
<svg:path d="M253.4679 209.9704 L43.5343 209.9704 "/>
<svg:path d="M43.5343 0.0368 L253.4679 0.0368 "/>
<svg:circle cx="228.2227" cy="184.7252" r="8.7185"/> 
<svg:path d="M241.3004 184.7252 L215.1450 184.7252 "/>
<svg:path d="M228.2227 171.6475 L228.2227 197.8029 "/>
<svg:circle cx="228.2227" cy="184.7252" r="8.7185"/> 
<svg:path d="M241.3004 184.7252 L215.1450 184.7252 "/>
<svg:path d="M228.2227 171.6475 L228.2227 197.8029 "/>
<svg:circle cx="228.2227" cy="184.7252" r="8.7185"/> 
<svg:path d="M241.3004 184.7252 L215.1450 184.7252 "/>
<svg:path d="M228.2227 171.6475 L228.2227 197.8029 "/>
<svg:g>
</svg:g>
<svg:g>
</svg:g>
<svg:g>
</svg:g>
<svg:g>
</svg:g>
<svg:g>
</svg:g>
<svg:g>
</svg:g>
<svg:g>
</svg:g>
<svg:g>
</svg:g>
<svg:g>
</svg:g>
<svg:g>
</svg:g>
<svg:g>
</svg:g>
</svg:g> 
</svg:g></svg:g></svg>
