<?xml version='1.0' encoding='ASCII' standalone='yes'?>
<svg xmlns:svg="http://www.w3.org/2000/svg" xmlns="http://www.w3.org/2000/svg" xmlns:xlink="http://www.w3.org/1999/xlink" version="1.1" width="297.0022mm" height="210.0072mm" viewBox="0.0000 0.0000 297.0022 210.0072">
<title>SVG Image created as PIND02-F_Fab.svg date 2023/09/10 20:35:26 </title>
  <desc>Image generated by PCBNEW </desc>
<g style="fill:#848484; fill-opacity:1.0000;stroke:#848484; stroke-opacity:1.0000; stroke-linecap:round; stroke-linejoin:round;" transform="translate(0 0) scale(1 1)">
</g>
<g style="fill:#848484; fill-opacity:0.0;  stroke:#848484; stroke-width:0.0000; stroke-opacity:1;  stroke-linecap:round; stroke-linejoin:round;">
</g>
<g style="fill:#848484; fill-opacity:0.0;  stroke:#848484; stroke-width:1.9930; stroke-opacity:1;  stroke-linecap:round; stroke-linejoin:round;">
<circle cx="68.7795" cy="25.2820" r="15.6919"/> 
<circle cx="228.2227" cy="184.7252" r="15.6919"/> 
</g>
<g style="fill:#848484; fill-opacity:0.0;  stroke:#848484; stroke-width:0.7847; stroke-opacity:1;  stroke-linecap:round; stroke-linejoin:round;">
<path d="M241.5096 85.0732 L241.5096 124.9340 "/>
<path d="M214.9358 124.9340 L214.9358 85.0732 "/>
<path d="M214.9358 85.0732 L241.5096 85.0732 "/>
<path d="M241.5096 124.9340 L214.9358 124.9340 "/>
</g>
<g style="fill:#848484; fill-opacity:0.0;  stroke:#848484; stroke-width:1.9930; stroke-opacity:1;  stroke-linecap:round; stroke-linejoin:round;">
<circle cx="68.7795" cy="184.7252" r="15.6919"/> 
<circle cx="228.2227" cy="25.2820" r="15.6919"/> 
<g>
</g>
<g>
</g>
<g>
</g>
<g>
</g>
<g>
</g>
<g>
</g>
<g>
</g>
<g>
</g>
<g>
</g>
<g>
</g>
<g>
</g>
</g> 
<svg:g><svg:g><svg:title>SVG Image created as PIND02-Edge_Cuts.svg date 2023/09/10 20:35:26 </svg:title>
  <svg:desc>Image generated by PCBNEW </svg:desc>
<svg:g style="fill:#C2C200; fill-opacity:1.0000;stroke:#C2C200; stroke-opacity:1.0000; stroke-linecap:round; stroke-linejoin:round;" transform="translate(0 0) scale(1 1)">
</svg:g>
<svg:g style="fill:#C2C200; fill-opacity:0.0;  stroke:#C2C200; stroke-width:0.0000; stroke-opacity:1;  stroke-linecap:round; stroke-linejoin:round;">
</svg:g>
<svg:g style="fill:#C2C200; fill-opacity:0.0;  stroke:#C2C200; stroke-width:0.0664; stroke-opacity:1;  stroke-linecap:round; stroke-linejoin:round;">
<svg:path d="M253.4679 209.9704 L253.4679 0.0368 "/>
<svg:path d="M43.5343 0.0368 L43.5343 209.9704 "/>
<svg:path d="M43.5343 209.9704 L253.4679 209.9704 "/>
<svg:path d="M253.4679 0.0368 L43.5343 0.0368 "/>
<svg:circle cx="68.7795" cy="184.7252" r="8.7185"/> 
<svg:path d="M55.7018 184.7252 L81.8572 184.7252 "/>
<svg:path d="M68.7795 171.6475 L68.7795 197.8029 "/>
<svg:circle cx="68.7795" cy="184.7252" r="8.7185"/> 
<svg:path d="M55.7018 184.7252 L81.8572 184.7252 "/>
<svg:path d="M68.7795 171.6475 L68.7795 197.8029 "/>
<svg:circle cx="68.7795" cy="184.7252" r="8.7185"/> 
<svg:path d="M55.7018 184.7252 L81.8572 184.7252 "/>
<svg:path d="M68.7795 171.6475 L68.7795 197.8029 "/>
<svg:g>
</svg:g>
<svg:g>
</svg:g>
<svg:g>
</svg:g>
<svg:g>
</svg:g>
<svg:g>
</svg:g>
<svg:g>
</svg:g>
<svg:g>
</svg:g>
<svg:g>
</svg:g>
<svg:g>
</svg:g>
<svg:g>
</svg:g>
<svg:g>
</svg:g>
</svg:g> 
</svg:g></svg:g></svg>
