<?xml version='1.0' encoding='ASCII' standalone='yes'?>
<svg xmlns:svg="http://www.w3.org/2000/svg" xmlns="http://www.w3.org/2000/svg" xmlns:xlink="http://www.w3.org/1999/xlink" version="1.1" width="297.0022mm" height="210.0072mm" viewBox="0.0000 0.0000 297.0022 210.0072">
<title>SVG Image created as PIND02-B_Fab.svg date 2023/09/24 10:42:10 </title>
  <desc>Image generated by PCBNEW </desc>
<g style="fill:#000084; fill-opacity:1.0000;stroke:#000084; stroke-opacity:1.0000; stroke-linecap:round; stroke-linejoin:round;" transform="translate(0 0) scale(1 1)">
</g>
<g style="fill:#000084; fill-opacity:0.0;  stroke:#000084; stroke-width:0.0000; stroke-opacity:1;  stroke-linecap:round; stroke-linejoin:round;">
</g>
<g style="fill:#000084; fill-opacity:0.01;  stroke:#000084; stroke-width:0.7820; stroke-opacity:1;  stroke-linecap:round; stroke-linejoin:round;">
<text x="9.9330" y="98.6434" transform="scale(-1 1) translate(-19.866015 0)" textLength="20.4186" font-size="6.9510" lengthAdjust="spacingAndGlyphs" text-anchor="middle" opacity="0.01" style="font-family:monospace">10uF</text>
<g class="stroked-text"><desc>10uF</desc>
<path d="M15.5186 98.4079 L18.4976 98.4079 "/>
<path d="M17.0081 98.4079 L17.0081 93.1947 "/>
<path d="M17.0081 93.1947 L17.5046 93.9394 "/>
<path d="M17.5046 93.9394 L18.0011 94.4359 "/>
<path d="M18.0011 94.4359 L18.4976 94.6842 "/>
<path d="M12.2914 93.1947 L11.7949 93.1947 "/>
<path d="M11.7949 93.1947 L11.2984 93.4429 "/>
<path d="M11.2984 93.4429 L11.0501 93.6912 "/>
<path d="M11.0501 93.6912 L10.8019 94.1877 "/>
<path d="M10.8019 94.1877 L10.5536 95.1807 "/>
<path d="M10.5536 95.1807 L10.5536 96.4219 "/>
<path d="M10.5536 96.4219 L10.8019 97.4149 "/>
<path d="M10.8019 97.4149 L11.0501 97.9114 "/>
<path d="M11.0501 97.9114 L11.2984 98.1597 "/>
<path d="M11.2984 98.1597 L11.7949 98.4079 "/>
<path d="M11.7949 98.4079 L12.2914 98.4079 "/>
<path d="M12.2914 98.4079 L12.7879 98.1597 "/>
<path d="M12.7879 98.1597 L13.0361 97.9114 "/>
<path d="M13.0361 97.9114 L13.2844 97.4149 "/>
<path d="M13.2844 97.4149 L13.5326 96.4219 "/>
<path d="M13.5326 96.4219 L13.5326 95.1807 "/>
<path d="M13.5326 95.1807 L13.2844 94.1877 "/>
<path d="M13.2844 94.1877 L13.0361 93.6912 "/>
<path d="M13.0361 93.6912 L12.7879 93.4429 "/>
<path d="M12.7879 93.4429 L12.2914 93.1947 "/>
<path d="M6.0851 94.9324 L6.0851 98.4079 "/>
<path d="M8.3194 94.9324 L8.3194 97.6631 "/>
<path d="M8.3194 97.6631 L8.0711 98.1597 "/>
<path d="M8.0711 98.1597 L7.5746 98.4079 "/>
<path d="M7.5746 98.4079 L6.8299 98.4079 "/>
<path d="M6.8299 98.4079 L6.3334 98.1597 "/>
<path d="M6.3334 98.1597 L6.0851 97.9114 "/>
<path d="M1.8649 95.6772 L3.6026 95.6772 "/>
<path d="M3.6026 98.4079 L3.6026 93.1947 "/>
<path d="M3.6026 93.1947 L1.1201 93.1947 "/>
</g></g>
<g style="fill:#000084; fill-opacity:0.01;  stroke:#000084; stroke-width:0.4171; stroke-opacity:1;  stroke-linecap:round; stroke-linejoin:round;">
<text x="9.9330" y="88.5819" transform="scale(-1 1) translate(-19.866015 0)" textLength="5.8190" font-size="3.4755" lengthAdjust="spacingAndGlyphs" text-anchor="middle" opacity="0.01" style="font-family:monospace">C1</text>
<g class="stroked-text"><desc>C1</desc>
<path d="M10.3674 88.2145 L10.4916 88.3386 "/>
<path d="M10.4916 88.3386 L10.8639 88.4627 "/>
<path d="M10.8639 88.4627 L11.1122 88.4627 "/>
<path d="M11.1122 88.4627 L11.4846 88.3386 "/>
<path d="M11.4846 88.3386 L11.7328 88.0904 "/>
<path d="M11.7328 88.0904 L11.8569 87.8421 "/>
<path d="M11.8569 87.8421 L11.9811 87.3456 "/>
<path d="M11.9811 87.3456 L11.9811 86.9733 "/>
<path d="M11.9811 86.9733 L11.8569 86.4768 "/>
<path d="M11.8569 86.4768 L11.7328 86.2285 "/>
<path d="M11.7328 86.2285 L11.4846 85.9803 "/>
<path d="M11.4846 85.9803 L11.1122 85.8561 "/>
<path d="M11.1122 85.8561 L10.8639 85.8561 "/>
<path d="M10.8639 85.8561 L10.4916 85.9803 "/>
<path d="M10.4916 85.9803 L10.3674 86.1044 "/>
<path d="M7.8849 88.4627 L9.3744 88.4627 "/>
<path d="M8.6297 88.4627 L8.6297 85.8561 "/>
<path d="M8.6297 85.8561 L8.8779 86.2285 "/>
<path d="M8.8779 86.2285 L9.1262 86.4768 "/>
<path d="M9.1262 86.4768 L9.3744 86.6009 "/>
</g></g>
<g style="fill:#000084; fill-opacity:0.01;  stroke:#000084; stroke-width:0.7820; stroke-opacity:1;  stroke-linecap:round; stroke-linejoin:round;">
<text x="62.8996" y="71.0765" transform="scale(-1 1) translate(-125.799186 0)" textLength="54.4288" font-size="6.9510" lengthAdjust="spacingAndGlyphs" text-anchor="middle" opacity="0.01" style="font-family:monospace">BZV55C-5,6V</text>
<g class="stroked-text"><desc>BZV55C-5,6V</desc>
<path d="M86.4833 68.1102 L85.7386 68.3585 "/>
<path d="M85.7386 68.3585 L85.4903 68.6067 "/>
<path d="M85.4903 68.6067 L85.2421 69.1032 "/>
<path d="M85.2421 69.1032 L85.2421 69.8480 "/>
<path d="M85.2421 69.8480 L85.4903 70.3445 "/>
<path d="M85.4903 70.3445 L85.7386 70.5927 "/>
<path d="M85.7386 70.5927 L86.2351 70.8410 "/>
<path d="M86.2351 70.8410 L88.2211 70.8410 "/>
<path d="M88.2211 70.8410 L88.2211 65.6277 "/>
<path d="M88.2211 65.6277 L86.4833 65.6277 "/>
<path d="M86.4833 65.6277 L85.9868 65.8760 "/>
<path d="M85.9868 65.8760 L85.7386 66.1242 "/>
<path d="M85.7386 66.1242 L85.4903 66.6207 "/>
<path d="M85.4903 66.6207 L85.4903 67.1172 "/>
<path d="M85.4903 67.1172 L85.7386 67.6137 "/>
<path d="M85.7386 67.6137 L85.9868 67.8620 "/>
<path d="M85.9868 67.8620 L86.4833 68.1102 "/>
<path d="M86.4833 68.1102 L88.2211 68.1102 "/>
<path d="M83.5043 65.6277 L80.0288 65.6277 "/>
<path d="M80.0288 65.6277 L83.5043 70.8410 "/>
<path d="M83.5043 70.8410 L80.0288 70.8410 "/>
<path d="M78.7876 65.6277 L77.0498 70.8410 "/>
<path d="M77.0498 70.8410 L75.3121 65.6277 "/>
<path d="M71.0918 65.6277 L73.5743 65.6277 "/>
<path d="M73.5743 65.6277 L73.8226 68.1102 "/>
<path d="M73.8226 68.1102 L73.5743 67.8620 "/>
<path d="M73.5743 67.8620 L73.0778 67.6137 "/>
<path d="M73.0778 67.6137 L71.8366 67.6137 "/>
<path d="M71.8366 67.6137 L71.3401 67.8620 "/>
<path d="M71.3401 67.8620 L71.0918 68.1102 "/>
<path d="M71.0918 68.1102 L70.8436 68.6067 "/>
<path d="M70.8436 68.6067 L70.8436 69.8480 "/>
<path d="M70.8436 69.8480 L71.0918 70.3445 "/>
<path d="M71.0918 70.3445 L71.3401 70.5927 "/>
<path d="M71.3401 70.5927 L71.8366 70.8410 "/>
<path d="M71.8366 70.8410 L73.0778 70.8410 "/>
<path d="M73.0778 70.8410 L73.5743 70.5927 "/>
<path d="M73.5743 70.5927 L73.8226 70.3445 "/>
<path d="M66.1268 65.6277 L68.6093 65.6277 "/>
<path d="M68.6093 65.6277 L68.8576 68.1102 "/>
<path d="M68.8576 68.1102 L68.6093 67.8620 "/>
<path d="M68.6093 67.8620 L68.1128 67.6137 "/>
<path d="M68.1128 67.6137 L66.8716 67.6137 "/>
<path d="M66.8716 67.6137 L66.3751 67.8620 "/>
<path d="M66.3751 67.8620 L66.1268 68.1102 "/>
<path d="M66.1268 68.1102 L65.8786 68.6067 "/>
<path d="M65.8786 68.6067 L65.8786 69.8480 "/>
<path d="M65.8786 69.8480 L66.1268 70.3445 "/>
<path d="M66.1268 70.3445 L66.3751 70.5927 "/>
<path d="M66.3751 70.5927 L66.8716 70.8410 "/>
<path d="M66.8716 70.8410 L68.1128 70.8410 "/>
<path d="M68.1128 70.8410 L68.6093 70.5927 "/>
<path d="M68.6093 70.5927 L68.8576 70.3445 "/>
<path d="M60.6653 70.3445 L60.9136 70.5927 "/>
<path d="M60.9136 70.5927 L61.6583 70.8410 "/>
<path d="M61.6583 70.8410 L62.1548 70.8410 "/>
<path d="M62.1548 70.8410 L62.8996 70.5927 "/>
<path d="M62.8996 70.5927 L63.3961 70.0962 "/>
<path d="M63.3961 70.0962 L63.6443 69.5997 "/>
<path d="M63.6443 69.5997 L63.8926 68.6067 "/>
<path d="M63.8926 68.6067 L63.8926 67.8620 "/>
<path d="M63.8926 67.8620 L63.6443 66.8690 "/>
<path d="M63.6443 66.8690 L63.3961 66.3725 "/>
<path d="M63.3961 66.3725 L62.8996 65.8760 "/>
<path d="M62.8996 65.8760 L62.1548 65.6277 "/>
<path d="M62.1548 65.6277 L61.6583 65.6277 "/>
<path d="M61.6583 65.6277 L60.9136 65.8760 "/>
<path d="M60.9136 65.8760 L60.6653 66.1242 "/>
<path d="M58.4311 68.8550 L54.4591 68.8550 "/>
<path d="M49.4941 65.6277 L51.9766 65.6277 "/>
<path d="M51.9766 65.6277 L52.2248 68.1102 "/>
<path d="M52.2248 68.1102 L51.9766 67.8620 "/>
<path d="M51.9766 67.8620 L51.4801 67.6137 "/>
<path d="M51.4801 67.6137 L50.2388 67.6137 "/>
<path d="M50.2388 67.6137 L49.7423 67.8620 "/>
<path d="M49.7423 67.8620 L49.4941 68.1102 "/>
<path d="M49.4941 68.1102 L49.2458 68.6067 "/>
<path d="M49.2458 68.6067 L49.2458 69.8480 "/>
<path d="M49.2458 69.8480 L49.4941 70.3445 "/>
<path d="M49.4941 70.3445 L49.7423 70.5927 "/>
<path d="M49.7423 70.5927 L50.2388 70.8410 "/>
<path d="M50.2388 70.8410 L51.4801 70.8410 "/>
<path d="M51.4801 70.8410 L51.9766 70.5927 "/>
<path d="M51.9766 70.5927 L52.2248 70.3445 "/>
<path d="M46.7633 70.5927 L46.7633 70.8410 "/>
<path d="M46.7633 70.8410 L47.0116 71.3375 "/>
<path d="M47.0116 71.3375 L47.2598 71.5857 "/>
<path d="M42.2949 65.6277 L43.2879 65.6277 "/>
<path d="M43.2879 65.6277 L43.7844 65.8760 "/>
<path d="M43.7844 65.8760 L44.0326 66.1242 "/>
<path d="M44.0326 66.1242 L44.5291 66.8690 "/>
<path d="M44.5291 66.8690 L44.7774 67.8620 "/>
<path d="M44.7774 67.8620 L44.7774 69.8480 "/>
<path d="M44.7774 69.8480 L44.5291 70.3445 "/>
<path d="M44.5291 70.3445 L44.2809 70.5927 "/>
<path d="M44.2809 70.5927 L43.7844 70.8410 "/>
<path d="M43.7844 70.8410 L42.7914 70.8410 "/>
<path d="M42.7914 70.8410 L42.2949 70.5927 "/>
<path d="M42.2949 70.5927 L42.0466 70.3445 "/>
<path d="M42.0466 70.3445 L41.7984 69.8480 "/>
<path d="M41.7984 69.8480 L41.7984 68.6067 "/>
<path d="M41.7984 68.6067 L42.0466 68.1102 "/>
<path d="M42.0466 68.1102 L42.2949 67.8620 "/>
<path d="M42.2949 67.8620 L42.7914 67.6137 "/>
<path d="M42.7914 67.6137 L43.7844 67.6137 "/>
<path d="M43.7844 67.6137 L44.2809 67.8620 "/>
<path d="M44.2809 67.8620 L44.5291 68.1102 "/>
<path d="M44.5291 68.1102 L44.7774 68.6067 "/>
<path d="M40.3089 65.6277 L38.5711 70.8410 "/>
<path d="M38.5711 70.8410 L36.8334 65.6277 "/>
</g><text x="62.8996" y="44.4890" transform="scale(-1 1) translate(-125.799186 0)" textLength="11.4816" font-size="6.9510" lengthAdjust="spacingAndGlyphs" text-anchor="middle" opacity="0.01" style="font-family:monospace">D1</text>
<g class="stroked-text"><desc>D1</desc>
<path d="M66.7475 44.2534 L66.7475 39.0402 "/>
<path d="M66.7475 39.0402 L65.5062 39.0402 "/>
<path d="M65.5062 39.0402 L64.7615 39.2884 "/>
<path d="M64.7615 39.2884 L64.2650 39.7849 "/>
<path d="M64.2650 39.7849 L64.0167 40.2814 "/>
<path d="M64.0167 40.2814 L63.7685 41.2744 "/>
<path d="M63.7685 41.2744 L63.7685 42.0192 "/>
<path d="M63.7685 42.0192 L64.0167 43.0122 "/>
<path d="M64.0167 43.0122 L64.2650 43.5087 "/>
<path d="M64.2650 43.5087 L64.7615 44.0052 "/>
<path d="M64.7615 44.0052 L65.5062 44.2534 "/>
<path d="M65.5062 44.2534 L66.7475 44.2534 "/>
<path d="M58.8035 44.2534 L61.7825 44.2534 "/>
<path d="M60.2930 44.2534 L60.2930 39.0402 "/>
<path d="M60.2930 39.0402 L60.7895 39.7849 "/>
<path d="M60.7895 39.7849 L61.2860 40.2814 "/>
<path d="M61.2860 40.2814 L61.7825 40.5297 "/>
</g><text x="9.9330" y="16.8476" transform="scale(-1 1) translate(-19.866015 0)" textLength="25.3835" font-size="6.9510" lengthAdjust="spacingAndGlyphs" text-anchor="middle" opacity="0.01" style="font-family:monospace">100nF</text>
<g class="stroked-text"><desc>100nF</desc>
<path d="M18.0011 16.6121 L20.9801 16.6121 "/>
<path d="M19.4906 16.6121 L19.4906 11.3988 "/>
<path d="M19.4906 11.3988 L19.9871 12.1436 "/>
<path d="M19.9871 12.1436 L20.4836 12.6401 "/>
<path d="M20.4836 12.6401 L20.9801 12.8883 "/>
<path d="M14.7739 11.3988 L14.2774 11.3988 "/>
<path d="M14.2774 11.3988 L13.7809 11.6471 "/>
<path d="M13.7809 11.6471 L13.5326 11.8953 "/>
<path d="M13.5326 11.8953 L13.2844 12.3918 "/>
<path d="M13.2844 12.3918 L13.0361 13.3848 "/>
<path d="M13.0361 13.3848 L13.0361 14.6261 "/>
<path d="M13.0361 14.6261 L13.2844 15.6191 "/>
<path d="M13.2844 15.6191 L13.5326 16.1156 "/>
<path d="M13.5326 16.1156 L13.7809 16.3638 "/>
<path d="M13.7809 16.3638 L14.2774 16.6121 "/>
<path d="M14.2774 16.6121 L14.7739 16.6121 "/>
<path d="M14.7739 16.6121 L15.2704 16.3638 "/>
<path d="M15.2704 16.3638 L15.5186 16.1156 "/>
<path d="M15.5186 16.1156 L15.7669 15.6191 "/>
<path d="M15.7669 15.6191 L16.0151 14.6261 "/>
<path d="M16.0151 14.6261 L16.0151 13.3848 "/>
<path d="M16.0151 13.3848 L15.7669 12.3918 "/>
<path d="M15.7669 12.3918 L15.5186 11.8953 "/>
<path d="M15.5186 11.8953 L15.2704 11.6471 "/>
<path d="M15.2704 11.6471 L14.7739 11.3988 "/>
<path d="M9.8089 11.3988 L9.3124 11.3988 "/>
<path d="M9.3124 11.3988 L8.8159 11.6471 "/>
<path d="M8.8159 11.6471 L8.5676 11.8953 "/>
<path d="M8.5676 11.8953 L8.3194 12.3918 "/>
<path d="M8.3194 12.3918 L8.0711 13.3848 "/>
<path d="M8.0711 13.3848 L8.0711 14.6261 "/>
<path d="M8.0711 14.6261 L8.3194 15.6191 "/>
<path d="M8.3194 15.6191 L8.5676 16.1156 "/>
<path d="M8.5676 16.1156 L8.8159 16.3638 "/>
<path d="M8.8159 16.3638 L9.3124 16.6121 "/>
<path d="M9.3124 16.6121 L9.8089 16.6121 "/>
<path d="M9.8089 16.6121 L10.3054 16.3638 "/>
<path d="M10.3054 16.3638 L10.5536 16.1156 "/>
<path d="M10.5536 16.1156 L10.8019 15.6191 "/>
<path d="M10.8019 15.6191 L11.0501 14.6261 "/>
<path d="M11.0501 14.6261 L11.0501 13.3848 "/>
<path d="M11.0501 13.3848 L10.8019 12.3918 "/>
<path d="M10.8019 12.3918 L10.5536 11.8953 "/>
<path d="M10.5536 11.8953 L10.3054 11.6471 "/>
<path d="M10.3054 11.6471 L9.8089 11.3988 "/>
<path d="M5.8369 13.1366 L5.8369 16.6121 "/>
<path d="M5.8369 13.6331 L5.5886 13.3848 "/>
<path d="M5.5886 13.3848 L5.0921 13.1366 "/>
<path d="M5.0921 13.1366 L4.3474 13.1366 "/>
<path d="M4.3474 13.1366 L3.8509 13.3848 "/>
<path d="M3.8509 13.3848 L3.6026 13.8813 "/>
<path d="M3.6026 13.8813 L3.6026 16.6121 "/>
<path d="M-0.6176 13.8813 L1.1201 13.8813 "/>
<path d="M1.1201 16.6121 L1.1201 11.3988 "/>
<path d="M1.1201 11.3988 L-1.3624 11.3988 "/>
</g></g>
<g style="fill:#000084; fill-opacity:0.01;  stroke:#000084; stroke-width:0.4171; stroke-opacity:1;  stroke-linecap:round; stroke-linejoin:round;">
<text x="9.9330" y="6.7860" transform="scale(-1 1) translate(-19.866015 0)" textLength="5.8190" font-size="3.4755" lengthAdjust="spacingAndGlyphs" text-anchor="middle" opacity="0.01" style="font-family:monospace">C2</text>
<g class="stroked-text"><desc>C2</desc>
<path d="M10.3674 6.4187 L10.4916 6.5428 "/>
<path d="M10.4916 6.5428 L10.8639 6.6669 "/>
<path d="M10.8639 6.6669 L11.1122 6.6669 "/>
<path d="M11.1122 6.6669 L11.4846 6.5428 "/>
<path d="M11.4846 6.5428 L11.7328 6.2945 "/>
<path d="M11.7328 6.2945 L11.8569 6.0463 "/>
<path d="M11.8569 6.0463 L11.9811 5.5498 "/>
<path d="M11.9811 5.5498 L11.9811 5.1774 "/>
<path d="M11.9811 5.1774 L11.8569 4.6809 "/>
<path d="M11.8569 4.6809 L11.7328 4.4327 "/>
<path d="M11.7328 4.4327 L11.4846 4.1844 "/>
<path d="M11.4846 4.1844 L11.1122 4.0603 "/>
<path d="M11.1122 4.0603 L10.8639 4.0603 "/>
<path d="M10.8639 4.0603 L10.4916 4.1844 "/>
<path d="M10.4916 4.1844 L10.3674 4.3085 "/>
<path d="M9.3744 4.3085 L9.2503 4.1844 "/>
<path d="M9.2503 4.1844 L9.0021 4.0603 "/>
<path d="M9.0021 4.0603 L8.3814 4.0603 "/>
<path d="M8.3814 4.0603 L8.1332 4.1844 "/>
<path d="M8.1332 4.1844 L8.0091 4.3085 "/>
<path d="M8.0091 4.3085 L7.8849 4.5568 "/>
<path d="M7.8849 4.5568 L7.8849 4.8050 "/>
<path d="M7.8849 4.8050 L8.0091 5.1774 "/>
<path d="M8.0091 5.1774 L9.4986 6.6669 "/>
<path d="M9.4986 6.6669 L7.8849 6.6669 "/>
</g></g>
<g style="fill:#000084; fill-opacity:0.0;  stroke:#000084; stroke-width:0.5213; stroke-opacity:1;  stroke-linecap:round; stroke-linejoin:round;">
<path d="M15.1463 90.5368 L15.1463 84.0203 "/>
<path d="M15.1463 84.0203 L4.7198 84.0203 "/>
<path d="M4.7198 90.5368 L15.1463 90.5368 "/>
<path d="M4.7198 84.0203 L4.7198 90.5368 "/>
<path d="M74.8901 62.7353 L74.8901 47.0956 "/>
<path d="M66.2853 54.9208 L70.9861 54.9208 "/>
<path d="M66.2853 54.9208 L60.2868 58.8271 "/>
<path d="M66.2853 54.9208 L60.2868 50.7497 "/>
<path d="M66.2853 50.7497 L66.2853 59.0919 "/>
<path d="M60.2868 58.8271 L60.2868 50.7497 "/>
<path d="M60.2868 54.9208 L55.0829 54.9208 "/>
<path d="M50.9091 62.7353 L74.8901 62.7353 "/>
<path d="M50.9091 47.0956 L74.8901 47.0956 "/>
<path d="M50.9091 47.0956 L50.9091 62.7353 "/>
<path d="M15.1463 8.7410 L15.1463 2.2244 "/>
<path d="M15.1463 2.2244 L4.7198 2.2244 "/>
<path d="M4.7198 8.7410 L15.1463 8.7410 "/>
<path d="M4.7198 2.2244 L4.7198 8.7410 "/>
<g>
</g>
<g>
</g>
<g>
</g>
<g>
</g>
<g>
</g>
<g>
</g>
<g>
</g>
<g>
</g>
<g>
</g>
<g>
</g>
<g>
</g>
<g>
</g>
<g>
</g>
<g>
</g>
<g>
</g>
<g>
</g>
<g>
</g>
<g>
</g>
<g>
</g>
<g>
</g>
<g>
</g>
<g>
</g>
<g>
</g>
<g>
</g>
<g>
</g>
<g>
</g>
<g>
</g>
<g>
</g>
<g>
</g>
<g>
</g>
<g>
</g>
<g>
</g>
<g>
</g>
<g>
</g>
<g>
</g>
<g>
</g>
<g>
</g>
<g>
</g>
<g>
</g>
<g>
</g>
<g>
</g>
<g>
</g>
<g>
</g>
<g>
</g>
<g>
</g>
<g>
</g>
<g>
</g>
<g>
</g>
<g>
</g>
<g>
</g>
<g>
</g>
<g>
</g>
<g>
</g>
<g>
</g>
<g>
</g>
<g>
</g>
<g>
</g>
<g>
</g>
<g>
</g>
</g> 
<svg:g><svg:g><svg:title>SVG Image created as PIND02-Edge_Cuts.svg date 2023/09/24 10:42:10 </svg:title>
  <svg:desc>Image generated by PCBNEW </svg:desc>
<svg:g style="fill:#C2C200; fill-opacity:1.0000;stroke:#C2C200; stroke-opacity:1.0000; stroke-linecap:round; stroke-linejoin:round;" transform="translate(0 0) scale(1 1)">
</svg:g>
<svg:g style="fill:#C2C200; fill-opacity:0.0;  stroke:#C2C200; stroke-width:0.0000; stroke-opacity:1;  stroke-linecap:round; stroke-linejoin:round;">
</svg:g>
<svg:g style="fill:#C2C200; fill-opacity:0.0;  stroke:#C2C200; stroke-width:0.7820; stroke-opacity:1;  stroke-linecap:round; stroke-linejoin:round;">
<svg:path style="fill:#C2C200; fill-opacity:0.0;  stroke:#C2C200; stroke-width:0.7820; stroke-opacity:1;  stroke-linecap:round; stroke-linejoin:round;fill:none" d="M 43.8921,0.3946 253.1101,0.3946 253.1101,209.6126 43.8921,209.6126 Z"/> 
<svg:g>
</svg:g>
<svg:g>
</svg:g>
<svg:g>
</svg:g>
<svg:g>
</svg:g>
<svg:g>
</svg:g>
<svg:g>
</svg:g>
<svg:g>
</svg:g>
<svg:g>
</svg:g>
<svg:g>
</svg:g>
<svg:g>
</svg:g>
<svg:g>
</svg:g>
<svg:g>
</svg:g>
<svg:g>
</svg:g>
<svg:g>
</svg:g>
<svg:g>
</svg:g>
<svg:g>
</svg:g>
<svg:g>
</svg:g>
<svg:g>
</svg:g>
<svg:g>
</svg:g>
<svg:g>
</svg:g>
<svg:g>
</svg:g>
<svg:g>
</svg:g>
<svg:g>
</svg:g>
<svg:g>
</svg:g>
<svg:g>
</svg:g>
<svg:g>
</svg:g>
<svg:g>
</svg:g>
<svg:g>
</svg:g>
<svg:g>
</svg:g>
<svg:g>
</svg:g>
<svg:g>
</svg:g>
<svg:g>
</svg:g>
<svg:g>
</svg:g>
<svg:g>
</svg:g>
<svg:g>
</svg:g>
<svg:g>
</svg:g>
<svg:g>
</svg:g>
<svg:g>
</svg:g>
<svg:g>
</svg:g>
<svg:g>
</svg:g>
<svg:g>
</svg:g>
<svg:g>
</svg:g>
<svg:g>
</svg:g>
<svg:g>
</svg:g>
<svg:g>
</svg:g>
<svg:g>
</svg:g>
<svg:g>
</svg:g>
<svg:g>
</svg:g>
<svg:g>
</svg:g>
<svg:g>
</svg:g>
<svg:g>
</svg:g>
<svg:g>
</svg:g>
<svg:g>
</svg:g>
<svg:g>
</svg:g>
<svg:g>
</svg:g>
<svg:g>
</svg:g>
<svg:g>
</svg:g>
<svg:g>
</svg:g>
<svg:g>
</svg:g>
</svg:g> 
</svg:g></svg:g></svg>
