<?xml version='1.0' encoding='ASCII' standalone='yes'?>
<svg xmlns:svg="http://www.w3.org/2000/svg" xmlns="http://www.w3.org/2000/svg" xmlns:xlink="http://www.w3.org/1999/xlink" version="1.1" width="297.0022mm" height="210.0072mm" viewBox="0.0000 0.0000 297.0022 210.0072">
<title>SVG Image created as PIND02-F_Fab.svg date 2023/09/24 22:03:52 </title>
  <desc>Image generated by PCBNEW </desc>
<g style="fill:#848484; fill-opacity:1.0000;stroke:#848484; stroke-opacity:1.0000; stroke-linecap:round; stroke-linejoin:round;" transform="translate(0 0) scale(1 1)">
</g>
<g style="fill:#848484; fill-opacity:0.0;  stroke:#848484; stroke-width:0.0000; stroke-opacity:1;  stroke-linecap:round; stroke-linejoin:round;">
</g>
<g style="fill:#848484; fill-opacity:0.01;  stroke:#848484; stroke-width:0.7351; stroke-opacity:1;  stroke-linecap:round; stroke-linejoin:round;">
<text x="32.1113" y="108.4685" textLength="50.2335" font-size="6.5344" lengthAdjust="spacingAndGlyphs" text-anchor="middle" opacity="0.01" style="font-family:monospace">Conn_Coaxial</text>
<g class="stroked-text"><desc>Conn_Coaxial</desc>
<path d="M52.6481 107.7803 L52.8815 108.0137 "/>
<path d="M52.8815 108.0137 L53.5816 108.2471 "/>
<path d="M53.5816 108.2471 L54.0484 108.2471 "/>
<path d="M54.0484 108.2471 L54.7485 108.0137 "/>
<path d="M54.7485 108.0137 L55.2152 107.5469 "/>
<path d="M55.2152 107.5469 L55.4486 107.0802 "/>
<path d="M55.4486 107.0802 L55.6820 106.1467 "/>
<path d="M55.6820 106.1467 L55.6820 105.4466 "/>
<path d="M55.6820 105.4466 L55.4486 104.5131 "/>
<path d="M55.4486 104.5131 L55.2152 104.0464 "/>
<path d="M55.2152 104.0464 L54.7485 103.5796 "/>
<path d="M54.7485 103.5796 L54.0484 103.3462 "/>
<path d="M54.0484 103.3462 L53.5816 103.3462 "/>
<path d="M53.5816 103.3462 L52.8815 103.5796 "/>
<path d="M52.8815 103.5796 L52.6481 103.8130 "/>
<path d="M49.8477 108.2471 L50.3144 108.0137 "/>
<path d="M50.3144 108.0137 L50.5478 107.7803 "/>
<path d="M50.5478 107.7803 L50.7812 107.3136 "/>
<path d="M50.7812 107.3136 L50.7812 105.9133 "/>
<path d="M50.7812 105.9133 L50.5478 105.4466 "/>
<path d="M50.5478 105.4466 L50.3144 105.2132 "/>
<path d="M50.3144 105.2132 L49.8477 104.9798 "/>
<path d="M49.8477 104.9798 L49.1475 104.9798 "/>
<path d="M49.1475 104.9798 L48.6808 105.2132 "/>
<path d="M48.6808 105.2132 L48.4474 105.4466 "/>
<path d="M48.4474 105.4466 L48.2141 105.9133 "/>
<path d="M48.2141 105.9133 L48.2141 107.3136 "/>
<path d="M48.2141 107.3136 L48.4474 107.7803 "/>
<path d="M48.4474 107.7803 L48.6808 108.0137 "/>
<path d="M48.6808 108.0137 L49.1475 108.2471 "/>
<path d="M49.1475 108.2471 L49.8477 108.2471 "/>
<path d="M46.1137 104.9798 L46.1137 108.2471 "/>
<path d="M46.1137 105.4466 L45.8803 105.2132 "/>
<path d="M45.8803 105.2132 L45.4136 104.9798 "/>
<path d="M45.4136 104.9798 L44.7135 104.9798 "/>
<path d="M44.7135 104.9798 L44.2467 105.2132 "/>
<path d="M44.2467 105.2132 L44.0133 105.6800 "/>
<path d="M44.0133 105.6800 L44.0133 108.2471 "/>
<path d="M41.6796 104.9798 L41.6796 108.2471 "/>
<path d="M41.6796 105.4466 L41.4462 105.2132 "/>
<path d="M41.4462 105.2132 L40.9795 104.9798 "/>
<path d="M40.9795 104.9798 L40.2794 104.9798 "/>
<path d="M40.2794 104.9798 L39.8126 105.2132 "/>
<path d="M39.8126 105.2132 L39.5793 105.6800 "/>
<path d="M39.5793 105.6800 L39.5793 108.2471 "/>
<path d="M38.4124 108.7138 L34.6784 108.7138 "/>
<path d="M30.7111 107.7803 L30.9445 108.0137 "/>
<path d="M30.9445 108.0137 L31.6446 108.2471 "/>
<path d="M31.6446 108.2471 L32.1113 108.2471 "/>
<path d="M32.1113 108.2471 L32.8114 108.0137 "/>
<path d="M32.8114 108.0137 L33.2782 107.5469 "/>
<path d="M33.2782 107.5469 L33.5116 107.0802 "/>
<path d="M33.5116 107.0802 L33.7449 106.1467 "/>
<path d="M33.7449 106.1467 L33.7449 105.4466 "/>
<path d="M33.7449 105.4466 L33.5116 104.5131 "/>
<path d="M33.5116 104.5131 L33.2782 104.0464 "/>
<path d="M33.2782 104.0464 L32.8114 103.5796 "/>
<path d="M32.8114 103.5796 L32.1113 103.3462 "/>
<path d="M32.1113 103.3462 L31.6446 103.3462 "/>
<path d="M31.6446 103.3462 L30.9445 103.5796 "/>
<path d="M30.9445 103.5796 L30.7111 103.8130 "/>
<path d="M27.9106 108.2471 L28.3774 108.0137 "/>
<path d="M28.3774 108.0137 L28.6107 107.7803 "/>
<path d="M28.6107 107.7803 L28.8441 107.3136 "/>
<path d="M28.8441 107.3136 L28.8441 105.9133 "/>
<path d="M28.8441 105.9133 L28.6107 105.4466 "/>
<path d="M28.6107 105.4466 L28.3774 105.2132 "/>
<path d="M28.3774 105.2132 L27.9106 104.9798 "/>
<path d="M27.9106 104.9798 L27.2105 104.9798 "/>
<path d="M27.2105 104.9798 L26.7438 105.2132 "/>
<path d="M26.7438 105.2132 L26.5104 105.4466 "/>
<path d="M26.5104 105.4466 L26.2770 105.9133 "/>
<path d="M26.2770 105.9133 L26.2770 107.3136 "/>
<path d="M26.2770 107.3136 L26.5104 107.7803 "/>
<path d="M26.5104 107.7803 L26.7438 108.0137 "/>
<path d="M26.7438 108.0137 L27.2105 108.2471 "/>
<path d="M27.2105 108.2471 L27.9106 108.2471 "/>
<path d="M22.0763 108.2471 L22.0763 105.6800 "/>
<path d="M22.0763 105.6800 L22.3097 105.2132 "/>
<path d="M22.3097 105.2132 L22.7764 104.9798 "/>
<path d="M22.7764 104.9798 L23.7099 104.9798 "/>
<path d="M23.7099 104.9798 L24.1767 105.2132 "/>
<path d="M22.0763 108.0137 L22.5430 108.2471 "/>
<path d="M22.5430 108.2471 L23.7099 108.2471 "/>
<path d="M23.7099 108.2471 L24.1767 108.0137 "/>
<path d="M24.1767 108.0137 L24.4100 107.5469 "/>
<path d="M24.4100 107.5469 L24.4100 107.0802 "/>
<path d="M24.4100 107.0802 L24.1767 106.6134 "/>
<path d="M24.1767 106.6134 L23.7099 106.3801 "/>
<path d="M23.7099 106.3801 L22.5430 106.3801 "/>
<path d="M22.5430 106.3801 L22.0763 106.1467 "/>
<path d="M20.2093 108.2471 L17.6422 104.9798 "/>
<path d="M20.2093 104.9798 L17.6422 108.2471 "/>
<path d="M15.7752 108.2471 L15.7752 104.9798 "/>
<path d="M15.7752 103.3462 L16.0086 103.5796 "/>
<path d="M16.0086 103.5796 L15.7752 103.8130 "/>
<path d="M15.7752 103.8130 L15.5419 103.5796 "/>
<path d="M15.5419 103.5796 L15.7752 103.3462 "/>
<path d="M15.7752 103.3462 L15.7752 103.8130 "/>
<path d="M11.3412 108.2471 L11.3412 105.6800 "/>
<path d="M11.3412 105.6800 L11.5745 105.2132 "/>
<path d="M11.5745 105.2132 L12.0413 104.9798 "/>
<path d="M12.0413 104.9798 L12.9748 104.9798 "/>
<path d="M12.9748 104.9798 L13.4415 105.2132 "/>
<path d="M11.3412 108.0137 L11.8079 108.2471 "/>
<path d="M11.8079 108.2471 L12.9748 108.2471 "/>
<path d="M12.9748 108.2471 L13.4415 108.0137 "/>
<path d="M13.4415 108.0137 L13.6749 107.5469 "/>
<path d="M13.6749 107.5469 L13.6749 107.0802 "/>
<path d="M13.6749 107.0802 L13.4415 106.6134 "/>
<path d="M13.4415 106.6134 L12.9748 106.3801 "/>
<path d="M12.9748 106.3801 L11.8079 106.3801 "/>
<path d="M11.8079 106.3801 L11.3412 106.1467 "/>
<path d="M8.3073 108.2471 L8.7741 108.0137 "/>
<path d="M8.7741 108.0137 L9.0074 107.5469 "/>
<path d="M9.0074 107.5469 L9.0074 103.3462 "/>
</g><text x="32.1113" y="132.9726" textLength="9.6266" font-size="6.5344" lengthAdjust="spacingAndGlyphs" text-anchor="middle" opacity="0.01" style="font-family:monospace">J1</text>
<g class="stroked-text"><desc>J1</desc>
<path d="M33.7449 127.8504 L33.7449 131.3510 "/>
<path d="M33.7449 131.3510 L33.9783 132.0511 "/>
<path d="M33.9783 132.0511 L34.4451 132.5178 "/>
<path d="M34.4451 132.5178 L35.1452 132.7512 "/>
<path d="M35.1452 132.7512 L35.6119 132.7512 "/>
<path d="M28.8441 132.7512 L31.6446 132.7512 "/>
<path d="M30.2443 132.7512 L30.2443 127.8504 "/>
<path d="M30.2443 127.8504 L30.7111 128.5505 "/>
<path d="M30.7111 128.5505 L31.1778 129.0172 "/>
<path d="M31.1778 129.0172 L31.6446 129.2506 "/>
</g><text x="148.5011" y="136.2709" textLength="10.7935" font-size="6.5344" lengthAdjust="spacingAndGlyphs" text-anchor="middle" opacity="0.01" style="font-family:monospace">D2</text>
<g class="stroked-text"><desc>D2</desc>
<path d="M152.1184 136.0495 L152.1184 131.1486 "/>
<path d="M152.1184 131.1486 L150.9515 131.1486 "/>
<path d="M150.9515 131.1486 L150.2514 131.3820 "/>
<path d="M150.2514 131.3820 L149.7847 131.8487 "/>
<path d="M149.7847 131.8487 L149.5513 132.3155 "/>
<path d="M149.5513 132.3155 L149.3179 133.2490 "/>
<path d="M149.3179 133.2490 L149.3179 133.9491 "/>
<path d="M149.3179 133.9491 L149.5513 134.8826 "/>
<path d="M149.5513 134.8826 L149.7847 135.3493 "/>
<path d="M149.7847 135.3493 L150.2514 135.8161 "/>
<path d="M150.2514 135.8161 L150.9515 136.0495 "/>
<path d="M150.9515 136.0495 L152.1184 136.0495 "/>
<path d="M147.4509 131.6154 L147.2176 131.3820 "/>
<path d="M147.2176 131.3820 L146.7508 131.1486 "/>
<path d="M146.7508 131.1486 L145.5839 131.1486 "/>
<path d="M145.5839 131.1486 L145.1172 131.3820 "/>
<path d="M145.1172 131.3820 L144.8838 131.6154 "/>
<path d="M144.8838 131.6154 L144.6505 132.0821 "/>
<path d="M144.6505 132.0821 L144.6505 132.5489 "/>
<path d="M144.6505 132.5489 L144.8838 133.2490 "/>
<path d="M144.8838 133.2490 L147.6843 136.0495 "/>
<path d="M147.6843 136.0495 L144.6505 136.0495 "/>
</g><text x="167.1733" y="154.9430" textLength="6.1260" font-size="6.5344" lengthAdjust="spacingAndGlyphs" text-anchor="middle" opacity="0.01" style="font-family:monospace">K</text>
<g class="stroked-text"><desc>K</desc>
<path d="M168.4568 154.7216 L168.4568 149.8208 "/>
<path d="M165.6563 154.7216 L167.7567 151.9211 "/>
<path d="M165.6563 149.8208 L168.4568 152.6213 "/>
</g></g>
<g style="fill:#848484; fill-opacity:0.0;  stroke:#848484; stroke-width:1.8672; stroke-opacity:1;  stroke-linecap:round; stroke-linejoin:round;">
<circle cx="24.0201" cy="30.3150" r="14.7012"/> 
</g>
<g style="fill:#848484; fill-opacity:0.0;  stroke:#848484; stroke-width:0.7351; stroke-opacity:1;  stroke-linecap:round; stroke-linejoin:round;">
<path d="M48.2939 76.9954 L23.3977 76.9954 "/>
<path d="M48.2939 89.4435 L48.2939 76.9954 "/>
<path d="M23.3977 76.9954 L23.3977 89.4435 "/>
<path d="M23.3977 89.4435 L48.2939 89.4435 "/>
</g>
<g style="fill:#848484; fill-opacity:0.0;  stroke:#848484; stroke-width:1.8672; stroke-opacity:1;  stroke-linecap:round; stroke-linejoin:round;">
<circle cx="24.0201" cy="179.6922" r="14.7012"/> 
</g>
<g style="fill:#848484; fill-opacity:0.0;  stroke:#848484; stroke-width:0.4901; stroke-opacity:1;  stroke-linecap:round; stroke-linejoin:round;">
<path d="M16.5512 146.0823 L16.5512 114.9621 "/>
<path d="M16.5512 146.0823 L47.6715 146.0823 "/>
<path d="M16.5512 114.9621 L47.6715 114.9621 "/>
<path d="M47.6715 146.0823 L47.6715 114.9621 "/>
<circle cx="32.1113" cy="130.5222" r="15.5601"/> 
</g>
<g style="fill:#848484; fill-opacity:0.0;  stroke:#848484; stroke-width:1.8672; stroke-opacity:1;  stroke-linecap:round; stroke-linejoin:round;">
<circle cx="272.9821" cy="179.6922" r="14.7012"/> 
<circle cx="272.9821" cy="30.3150" r="14.7012"/> 
</g>
<g style="fill:#848484; fill-opacity:0.0;  stroke:#848484; stroke-width:0.4901; stroke-opacity:1;  stroke-linecap:round; stroke-linejoin:round;">
<path d="M183.2970 171.1648 L113.7052 171.1648 "/>
<path d="M151.6839 162.6328 L151.6839 154.7905 "/>
<path d="M151.6839 158.7117 L146.0449 162.6328 "/>
<path d="M151.6839 158.7117 L156.1030 158.7117 "/>
<path d="M151.6839 158.7117 L146.0449 155.0395 "/>
<path d="M146.0449 158.7117 L141.1528 158.7117 "/>
<path d="M146.0449 155.0395 L146.0449 162.6328 "/>
<path d="M183.2970 38.8424 L183.2970 171.1648 "/>
<path d="M183.2970 38.8424 L113.7052 38.8424 "/>
<path d="M113.7052 38.8424 L113.7052 171.1648 "/>
<g>
</g>
<g>
</g>
<g>
</g>
<g>
</g>
<g>
</g>
<g>
</g>
<g>
</g>
<g>
</g>
<g>
</g>
<g>
</g>
<g>
</g>
<g>
</g>
<g>
</g>
<g>
</g>
<g>
</g>
<g>
</g>
<g>
</g>
<g>
</g>
<g>
</g>
<g>
</g>
<g>
</g>
<g>
</g>
<g>
</g>
<g>
</g>
<g>
</g>
<g>
</g>
<g>
</g>
<g>
</g>
<g>
</g>
<g>
</g>
<g>
</g>
<g>
</g>
<g>
</g>
<g>
</g>
<g>
</g>
<g>
</g>
<g>
</g>
<g>
</g>
<g>
</g>
<g>
</g>
<g>
</g>
<g>
</g>
<g>
</g>
<g>
</g>
<g>
</g>
<g>
</g>
<g>
</g>
<g>
</g>
<g>
</g>
<g>
</g>
<g>
</g>
<g>
</g>
<g>
</g>
<g>
</g>
<g>
</g>
<g>
</g>
<g>
</g>
<g>
</g>
<g>
</g>
<g>
</g>
</g> 
<svg:g><svg:g><svg:title>SVG Image created as PIND02-Edge_Cuts.svg date 2023/09/24 22:03:52 </svg:title>
  <svg:desc>Image generated by PCBNEW </svg:desc>
<svg:g style="fill:#C2C200; fill-opacity:1.0000;stroke:#C2C200; stroke-opacity:1.0000; stroke-linecap:round; stroke-linejoin:round;" transform="translate(0 0) scale(1 1)">
</svg:g>
<svg:g style="fill:#C2C200; fill-opacity:0.0;  stroke:#C2C200; stroke-width:0.0000; stroke-opacity:1;  stroke-linecap:round; stroke-linejoin:round;">
</svg:g>
<svg:g style="fill:#C2C200; fill-opacity:0.0;  stroke:#C2C200; stroke-width:0.7351; stroke-opacity:1;  stroke-linecap:round; stroke-linejoin:round;">
<svg:path style="fill:#C2C200; fill-opacity:0.0;  stroke:#C2C200; stroke-width:0.7351; stroke-opacity:1;  stroke-linecap:round; stroke-linejoin:round;fill:none" d="M 296.6335,6.6636 0.3687,6.6636 0.3687,203.3436 296.6335,203.3436 Z"/> 
<svg:g>
</svg:g>
<svg:g>
</svg:g>
<svg:g>
</svg:g>
<svg:g>
</svg:g>
<svg:g>
</svg:g>
<svg:g>
</svg:g>
<svg:g>
</svg:g>
<svg:g>
</svg:g>
<svg:g>
</svg:g>
<svg:g>
</svg:g>
<svg:g>
</svg:g>
<svg:g>
</svg:g>
<svg:g>
</svg:g>
<svg:g>
</svg:g>
<svg:g>
</svg:g>
<svg:g>
</svg:g>
<svg:g>
</svg:g>
<svg:g>
</svg:g>
<svg:g>
</svg:g>
<svg:g>
</svg:g>
<svg:g>
</svg:g>
<svg:g>
</svg:g>
<svg:g>
</svg:g>
<svg:g>
</svg:g>
<svg:g>
</svg:g>
<svg:g>
</svg:g>
<svg:g>
</svg:g>
<svg:g>
</svg:g>
<svg:g>
</svg:g>
<svg:g>
</svg:g>
<svg:g>
</svg:g>
<svg:g>
</svg:g>
<svg:g>
</svg:g>
<svg:g>
</svg:g>
<svg:g>
</svg:g>
<svg:g>
</svg:g>
<svg:g>
</svg:g>
<svg:g>
</svg:g>
<svg:g>
</svg:g>
<svg:g>
</svg:g>
<svg:g>
</svg:g>
<svg:g>
</svg:g>
<svg:g>
</svg:g>
<svg:g>
</svg:g>
<svg:g>
</svg:g>
<svg:g>
</svg:g>
<svg:g>
</svg:g>
<svg:g>
</svg:g>
<svg:g>
</svg:g>
<svg:g>
</svg:g>
<svg:g>
</svg:g>
<svg:g>
</svg:g>
<svg:g>
</svg:g>
<svg:g>
</svg:g>
<svg:g>
</svg:g>
<svg:g>
</svg:g>
<svg:g>
</svg:g>
<svg:g>
</svg:g>
<svg:g>
</svg:g>
<svg:g>
</svg:g>
</svg:g> 
</svg:g></svg:g></svg>
