<?xml version='1.0' encoding='ASCII' standalone='yes'?>
<svg xmlns:svg="http://www.w3.org/2000/svg" xmlns="http://www.w3.org/2000/svg" xmlns:xlink="http://www.w3.org/1999/xlink" version="1.1" width="297.0022mm" height="210.0072mm" viewBox="0.0000 0.0000 297.0022 210.0072">
<title>SVG Image created as PIND02-B_Fab.svg date 2023/09/11 01:13:28 </title>
  <desc>Image generated by PCBNEW </desc>
<g style="fill:#000084; fill-opacity:1.0000;stroke:#000084; stroke-opacity:1.0000; stroke-linecap:round; stroke-linejoin:round;" transform="translate(0 0) scale(1 1)">
</g>
<g style="fill:#000084; fill-opacity:0.0;  stroke:#000084; stroke-width:0.0000; stroke-opacity:1;  stroke-linecap:round; stroke-linejoin:round;">
</g>
<g style="fill:#000084; fill-opacity:0.01;  stroke:#000084; stroke-width:0.7847; stroke-opacity:1;  stroke-linecap:round; stroke-linejoin:round;">
<text x="121.9272" y="142.9812" transform="scale(-1 1) translate(-243.854460 0)" textLength="20.4884" font-size="6.9748" lengthAdjust="spacingAndGlyphs" text-anchor="middle" opacity="0.01" style="font-family:monospace">10uF</text>
<g class="stroked-text"><desc>10uF</desc>
<path d="M127.5320 142.7449 L130.5211 142.7449 "/>
<path d="M129.0265 142.7449 L129.0265 137.5138 "/>
<path d="M129.0265 137.5138 L129.5247 138.2611 "/>
<path d="M129.5247 138.2611 L130.0229 138.7593 "/>
<path d="M130.0229 138.7593 L130.5211 139.0084 "/>
<path d="M124.2937 137.5138 L123.7955 137.5138 "/>
<path d="M123.7955 137.5138 L123.2973 137.7629 "/>
<path d="M123.2973 137.7629 L123.0482 138.0120 "/>
<path d="M123.0482 138.0120 L122.7991 138.5102 "/>
<path d="M122.7991 138.5102 L122.5500 139.5066 "/>
<path d="M122.5500 139.5066 L122.5500 140.7521 "/>
<path d="M122.5500 140.7521 L122.7991 141.7485 "/>
<path d="M122.7991 141.7485 L123.0482 142.2467 "/>
<path d="M123.0482 142.2467 L123.2973 142.4958 "/>
<path d="M123.2973 142.4958 L123.7955 142.7449 "/>
<path d="M123.7955 142.7449 L124.2937 142.7449 "/>
<path d="M124.2937 142.7449 L124.7919 142.4958 "/>
<path d="M124.7919 142.4958 L125.0410 142.2467 "/>
<path d="M125.0410 142.2467 L125.2901 141.7485 "/>
<path d="M125.2901 141.7485 L125.5392 140.7521 "/>
<path d="M125.5392 140.7521 L125.5392 139.5066 "/>
<path d="M125.5392 139.5066 L125.2901 138.5102 "/>
<path d="M125.2901 138.5102 L125.0410 138.0120 "/>
<path d="M125.0410 138.0120 L124.7919 137.7629 "/>
<path d="M124.7919 137.7629 L124.2937 137.5138 "/>
<path d="M118.0662 139.2575 L118.0662 142.7449 "/>
<path d="M120.3081 139.2575 L120.3081 141.9976 "/>
<path d="M120.3081 141.9976 L120.0590 142.4958 "/>
<path d="M120.0590 142.4958 L119.5608 142.7449 "/>
<path d="M119.5608 142.7449 L118.8135 142.7449 "/>
<path d="M118.8135 142.7449 L118.3153 142.4958 "/>
<path d="M118.3153 142.4958 L118.0662 142.2467 "/>
<path d="M113.8315 140.0048 L115.5752 140.0048 "/>
<path d="M115.5752 142.7449 L115.5752 137.5138 "/>
<path d="M115.5752 137.5138 L113.0842 137.5138 "/>
</g></g>
<g style="fill:#000084; fill-opacity:0.01;  stroke:#000084; stroke-width:0.4185; stroke-opacity:1;  stroke-linecap:round; stroke-linejoin:round;">
<text x="121.9272" y="132.8852" transform="scale(-1 1) translate(-243.854460 0)" textLength="5.8389" font-size="3.4874" lengthAdjust="spacingAndGlyphs" text-anchor="middle" opacity="0.01" style="font-family:monospace">C1</text>
<g class="stroked-text"><desc>C1</desc>
<path d="M122.3632 132.5166 L122.4877 132.6412 "/>
<path d="M122.4877 132.6412 L122.8613 132.7657 "/>
<path d="M122.8613 132.7657 L123.1104 132.7657 "/>
<path d="M123.1104 132.7657 L123.4841 132.6412 "/>
<path d="M123.4841 132.6412 L123.7332 132.3921 "/>
<path d="M123.7332 132.3921 L123.8577 132.1430 "/>
<path d="M123.8577 132.1430 L123.9823 131.6448 "/>
<path d="M123.9823 131.6448 L123.9823 131.2711 "/>
<path d="M123.9823 131.2711 L123.8577 130.7729 "/>
<path d="M123.8577 130.7729 L123.7332 130.5238 "/>
<path d="M123.7332 130.5238 L123.4841 130.2747 "/>
<path d="M123.4841 130.2747 L123.1104 130.1502 "/>
<path d="M123.1104 130.1502 L122.8613 130.1502 "/>
<path d="M122.8613 130.1502 L122.4877 130.2747 "/>
<path d="M122.4877 130.2747 L122.3632 130.3993 "/>
<path d="M119.8722 132.7657 L121.3668 132.7657 "/>
<path d="M120.6195 132.7657 L120.6195 130.1502 "/>
<path d="M120.6195 130.1502 L120.8686 130.5238 "/>
<path d="M120.8686 130.5238 L121.1177 130.7729 "/>
<path d="M121.1177 130.7729 L121.3668 130.8975 "/>
</g></g>
<g style="fill:#000084; fill-opacity:0.01;  stroke:#000084; stroke-width:0.7847; stroke-opacity:1;  stroke-linecap:round; stroke-linejoin:round;">
<text x="175.0750" y="115.3200" transform="scale(-1 1) translate(-350.149937 0)" textLength="54.6149" font-size="6.9748" lengthAdjust="spacingAndGlyphs" text-anchor="middle" opacity="0.01" style="font-family:monospace">BZV55C-5,6V</text>
<g class="stroked-text"><desc>BZV55C-5,6V</desc>
<path d="M198.7394 112.3436 L197.9921 112.5927 "/>
<path d="M197.9921 112.5927 L197.7430 112.8418 "/>
<path d="M197.7430 112.8418 L197.4939 113.3400 "/>
<path d="M197.4939 113.3400 L197.4939 114.0873 "/>
<path d="M197.4939 114.0873 L197.7430 114.5855 "/>
<path d="M197.7430 114.5855 L197.9921 114.8346 "/>
<path d="M197.9921 114.8346 L198.4903 115.0837 "/>
<path d="M198.4903 115.0837 L200.4831 115.0837 "/>
<path d="M200.4831 115.0837 L200.4831 109.8526 "/>
<path d="M200.4831 109.8526 L198.7394 109.8526 "/>
<path d="M198.7394 109.8526 L198.2412 110.1017 "/>
<path d="M198.2412 110.1017 L197.9921 110.3508 "/>
<path d="M197.9921 110.3508 L197.7430 110.8490 "/>
<path d="M197.7430 110.8490 L197.7430 111.3472 "/>
<path d="M197.7430 111.3472 L197.9921 111.8454 "/>
<path d="M197.9921 111.8454 L198.2412 112.0945 "/>
<path d="M198.2412 112.0945 L198.7394 112.3436 "/>
<path d="M198.7394 112.3436 L200.4831 112.3436 "/>
<path d="M195.7502 109.8526 L192.2628 109.8526 "/>
<path d="M192.2628 109.8526 L195.7502 115.0837 "/>
<path d="M195.7502 115.0837 L192.2628 115.0837 "/>
<path d="M191.0173 109.8526 L189.2736 115.0837 "/>
<path d="M189.2736 115.0837 L187.5299 109.8526 "/>
<path d="M183.2952 109.8526 L185.7862 109.8526 "/>
<path d="M185.7862 109.8526 L186.0353 112.3436 "/>
<path d="M186.0353 112.3436 L185.7862 112.0945 "/>
<path d="M185.7862 112.0945 L185.2880 111.8454 "/>
<path d="M185.2880 111.8454 L184.0425 111.8454 "/>
<path d="M184.0425 111.8454 L183.5443 112.0945 "/>
<path d="M183.5443 112.0945 L183.2952 112.3436 "/>
<path d="M183.2952 112.3436 L183.0461 112.8418 "/>
<path d="M183.0461 112.8418 L183.0461 114.0873 "/>
<path d="M183.0461 114.0873 L183.2952 114.5855 "/>
<path d="M183.2952 114.5855 L183.5443 114.8346 "/>
<path d="M183.5443 114.8346 L184.0425 115.0837 "/>
<path d="M184.0425 115.0837 L185.2880 115.0837 "/>
<path d="M185.2880 115.0837 L185.7862 114.8346 "/>
<path d="M185.7862 114.8346 L186.0353 114.5855 "/>
<path d="M178.3133 109.8526 L180.8042 109.8526 "/>
<path d="M180.8042 109.8526 L181.0533 112.3436 "/>
<path d="M181.0533 112.3436 L180.8042 112.0945 "/>
<path d="M180.8042 112.0945 L180.3060 111.8454 "/>
<path d="M180.3060 111.8454 L179.0605 111.8454 "/>
<path d="M179.0605 111.8454 L178.5623 112.0945 "/>
<path d="M178.5623 112.0945 L178.3133 112.3436 "/>
<path d="M178.3133 112.3436 L178.0642 112.8418 "/>
<path d="M178.0642 112.8418 L178.0642 114.0873 "/>
<path d="M178.0642 114.0873 L178.3133 114.5855 "/>
<path d="M178.3133 114.5855 L178.5623 114.8346 "/>
<path d="M178.5623 114.8346 L179.0605 115.0837 "/>
<path d="M179.0605 115.0837 L180.3060 115.0837 "/>
<path d="M180.3060 115.0837 L180.8042 114.8346 "/>
<path d="M180.8042 114.8346 L181.0533 114.5855 "/>
<path d="M172.8331 114.5855 L173.0822 114.8346 "/>
<path d="M173.0822 114.8346 L173.8295 115.0837 "/>
<path d="M173.8295 115.0837 L174.3277 115.0837 "/>
<path d="M174.3277 115.0837 L175.0750 114.8346 "/>
<path d="M175.0750 114.8346 L175.5732 114.3364 "/>
<path d="M175.5732 114.3364 L175.8223 113.8382 "/>
<path d="M175.8223 113.8382 L176.0714 112.8418 "/>
<path d="M176.0714 112.8418 L176.0714 112.0945 "/>
<path d="M176.0714 112.0945 L175.8223 111.0981 "/>
<path d="M175.8223 111.0981 L175.5732 110.5999 "/>
<path d="M175.5732 110.5999 L175.0750 110.1017 "/>
<path d="M175.0750 110.1017 L174.3277 109.8526 "/>
<path d="M174.3277 109.8526 L173.8295 109.8526 "/>
<path d="M173.8295 109.8526 L173.0822 110.1017 "/>
<path d="M173.0822 110.1017 L172.8331 110.3508 "/>
<path d="M170.5912 113.0909 L166.6056 113.0909 "/>
<path d="M161.6236 109.8526 L164.1146 109.8526 "/>
<path d="M164.1146 109.8526 L164.3637 112.3436 "/>
<path d="M164.3637 112.3436 L164.1146 112.0945 "/>
<path d="M164.1146 112.0945 L163.6164 111.8454 "/>
<path d="M163.6164 111.8454 L162.3709 111.8454 "/>
<path d="M162.3709 111.8454 L161.8727 112.0945 "/>
<path d="M161.8727 112.0945 L161.6236 112.3436 "/>
<path d="M161.6236 112.3436 L161.3745 112.8418 "/>
<path d="M161.3745 112.8418 L161.3745 114.0873 "/>
<path d="M161.3745 114.0873 L161.6236 114.5855 "/>
<path d="M161.6236 114.5855 L161.8727 114.8346 "/>
<path d="M161.8727 114.8346 L162.3709 115.0837 "/>
<path d="M162.3709 115.0837 L163.6164 115.0837 "/>
<path d="M163.6164 115.0837 L164.1146 114.8346 "/>
<path d="M164.1146 114.8346 L164.3637 114.5855 "/>
<path d="M158.8835 114.8346 L158.8835 115.0837 "/>
<path d="M158.8835 115.0837 L159.1326 115.5819 "/>
<path d="M159.1326 115.5819 L159.3817 115.8310 "/>
<path d="M154.3998 109.8526 L155.3962 109.8526 "/>
<path d="M155.3962 109.8526 L155.8944 110.1017 "/>
<path d="M155.8944 110.1017 L156.1435 110.3508 "/>
<path d="M156.1435 110.3508 L156.6416 111.0981 "/>
<path d="M156.6416 111.0981 L156.8907 112.0945 "/>
<path d="M156.8907 112.0945 L156.8907 114.0873 "/>
<path d="M156.8907 114.0873 L156.6416 114.5855 "/>
<path d="M156.6416 114.5855 L156.3925 114.8346 "/>
<path d="M156.3925 114.8346 L155.8944 115.0837 "/>
<path d="M155.8944 115.0837 L154.8980 115.0837 "/>
<path d="M154.8980 115.0837 L154.3998 114.8346 "/>
<path d="M154.3998 114.8346 L154.1507 114.5855 "/>
<path d="M154.1507 114.5855 L153.9016 114.0873 "/>
<path d="M153.9016 114.0873 L153.9016 112.8418 "/>
<path d="M153.9016 112.8418 L154.1507 112.3436 "/>
<path d="M154.1507 112.3436 L154.3998 112.0945 "/>
<path d="M154.3998 112.0945 L154.8980 111.8454 "/>
<path d="M154.8980 111.8454 L155.8944 111.8454 "/>
<path d="M155.8944 111.8454 L156.3925 112.0945 "/>
<path d="M156.3925 112.0945 L156.6416 112.3436 "/>
<path d="M156.6416 112.3436 L156.8907 112.8418 "/>
<path d="M152.4070 109.8526 L150.6633 115.0837 "/>
<path d="M150.6633 115.0837 L148.9196 109.8526 "/>
</g><text x="175.0750" y="88.6415" transform="scale(-1 1) translate(-350.149937 0)" textLength="11.5208" font-size="6.9748" lengthAdjust="spacingAndGlyphs" text-anchor="middle" opacity="0.01" style="font-family:monospace">D1</text>
<g class="stroked-text"><desc>D1</desc>
<path d="M178.9360 88.4052 L178.9360 83.1741 "/>
<path d="M178.9360 83.1741 L177.6905 83.1741 "/>
<path d="M177.6905 83.1741 L176.9432 83.4232 "/>
<path d="M176.9432 83.4232 L176.4450 83.9214 "/>
<path d="M176.4450 83.9214 L176.1959 84.4196 "/>
<path d="M176.1959 84.4196 L175.9468 85.4160 "/>
<path d="M175.9468 85.4160 L175.9468 86.1633 "/>
<path d="M175.9468 86.1633 L176.1959 87.1597 "/>
<path d="M176.1959 87.1597 L176.4450 87.6579 "/>
<path d="M176.4450 87.6579 L176.9432 88.1561 "/>
<path d="M176.9432 88.1561 L177.6905 88.4052 "/>
<path d="M177.6905 88.4052 L178.9360 88.4052 "/>
<path d="M170.9648 88.4052 L173.9540 88.4052 "/>
<path d="M172.4594 88.4052 L172.4594 83.1741 "/>
<path d="M172.4594 83.1741 L172.9576 83.9214 "/>
<path d="M172.9576 83.9214 L173.4558 84.4196 "/>
<path d="M173.4558 84.4196 L173.9540 84.6687 "/>
</g><text x="121.9272" y="60.9056" transform="scale(-1 1) translate(-243.854460 0)" textLength="25.4704" font-size="6.9748" lengthAdjust="spacingAndGlyphs" text-anchor="middle" opacity="0.01" style="font-family:monospace">100nF</text>
<g class="stroked-text"><desc>100nF</desc>
<path d="M130.0229 60.6693 L133.0121 60.6693 "/>
<path d="M131.5175 60.6693 L131.5175 55.4382 "/>
<path d="M131.5175 55.4382 L132.0157 56.1855 "/>
<path d="M132.0157 56.1855 L132.5139 56.6837 "/>
<path d="M132.5139 56.6837 L133.0121 56.9328 "/>
<path d="M126.7847 55.4382 L126.2865 55.4382 "/>
<path d="M126.2865 55.4382 L125.7883 55.6873 "/>
<path d="M125.7883 55.6873 L125.5392 55.9364 "/>
<path d="M125.5392 55.9364 L125.2901 56.4346 "/>
<path d="M125.2901 56.4346 L125.0410 57.4310 "/>
<path d="M125.0410 57.4310 L125.0410 58.6765 "/>
<path d="M125.0410 58.6765 L125.2901 59.6729 "/>
<path d="M125.2901 59.6729 L125.5392 60.1711 "/>
<path d="M125.5392 60.1711 L125.7883 60.4202 "/>
<path d="M125.7883 60.4202 L126.2865 60.6693 "/>
<path d="M126.2865 60.6693 L126.7847 60.6693 "/>
<path d="M126.7847 60.6693 L127.2829 60.4202 "/>
<path d="M127.2829 60.4202 L127.5320 60.1711 "/>
<path d="M127.5320 60.1711 L127.7811 59.6729 "/>
<path d="M127.7811 59.6729 L128.0301 58.6765 "/>
<path d="M128.0301 58.6765 L128.0301 57.4310 "/>
<path d="M128.0301 57.4310 L127.7811 56.4346 "/>
<path d="M127.7811 56.4346 L127.5320 55.9364 "/>
<path d="M127.5320 55.9364 L127.2829 55.6873 "/>
<path d="M127.2829 55.6873 L126.7847 55.4382 "/>
<path d="M121.8027 55.4382 L121.3045 55.4382 "/>
<path d="M121.3045 55.4382 L120.8063 55.6873 "/>
<path d="M120.8063 55.6873 L120.5572 55.9364 "/>
<path d="M120.5572 55.9364 L120.3081 56.4346 "/>
<path d="M120.3081 56.4346 L120.0590 57.4310 "/>
<path d="M120.0590 57.4310 L120.0590 58.6765 "/>
<path d="M120.0590 58.6765 L120.3081 59.6729 "/>
<path d="M120.3081 59.6729 L120.5572 60.1711 "/>
<path d="M120.5572 60.1711 L120.8063 60.4202 "/>
<path d="M120.8063 60.4202 L121.3045 60.6693 "/>
<path d="M121.3045 60.6693 L121.8027 60.6693 "/>
<path d="M121.8027 60.6693 L122.3009 60.4202 "/>
<path d="M122.3009 60.4202 L122.5500 60.1711 "/>
<path d="M122.5500 60.1711 L122.7991 59.6729 "/>
<path d="M122.7991 59.6729 L123.0482 58.6765 "/>
<path d="M123.0482 58.6765 L123.0482 57.4310 "/>
<path d="M123.0482 57.4310 L122.7991 56.4346 "/>
<path d="M122.7991 56.4346 L122.5500 55.9364 "/>
<path d="M122.5500 55.9364 L122.3009 55.6873 "/>
<path d="M122.3009 55.6873 L121.8027 55.4382 "/>
<path d="M117.8171 57.1819 L117.8171 60.6693 "/>
<path d="M117.8171 57.6801 L117.5680 57.4310 "/>
<path d="M117.5680 57.4310 L117.0698 57.1819 "/>
<path d="M117.0698 57.1819 L116.3225 57.1819 "/>
<path d="M116.3225 57.1819 L115.8243 57.4310 "/>
<path d="M115.8243 57.4310 L115.5752 57.9292 "/>
<path d="M115.5752 57.9292 L115.5752 60.6693 "/>
<path d="M111.3405 57.9292 L113.0842 57.9292 "/>
<path d="M113.0842 60.6693 L113.0842 55.4382 "/>
<path d="M113.0842 55.4382 L110.5932 55.4382 "/>
</g></g>
<g style="fill:#000084; fill-opacity:0.01;  stroke:#000084; stroke-width:0.4185; stroke-opacity:1;  stroke-linecap:round; stroke-linejoin:round;">
<text x="121.9272" y="50.8096" transform="scale(-1 1) translate(-243.854460 0)" textLength="5.8389" font-size="3.4874" lengthAdjust="spacingAndGlyphs" text-anchor="middle" opacity="0.01" style="font-family:monospace">C2</text>
<g class="stroked-text"><desc>C2</desc>
<path d="M122.3632 50.4410 L122.4877 50.5656 "/>
<path d="M122.4877 50.5656 L122.8613 50.6901 "/>
<path d="M122.8613 50.6901 L123.1104 50.6901 "/>
<path d="M123.1104 50.6901 L123.4841 50.5656 "/>
<path d="M123.4841 50.5656 L123.7332 50.3165 "/>
<path d="M123.7332 50.3165 L123.8577 50.0674 "/>
<path d="M123.8577 50.0674 L123.9823 49.5692 "/>
<path d="M123.9823 49.5692 L123.9823 49.1955 "/>
<path d="M123.9823 49.1955 L123.8577 48.6973 "/>
<path d="M123.8577 48.6973 L123.7332 48.4482 "/>
<path d="M123.7332 48.4482 L123.4841 48.1991 "/>
<path d="M123.4841 48.1991 L123.1104 48.0746 "/>
<path d="M123.1104 48.0746 L122.8613 48.0746 "/>
<path d="M122.8613 48.0746 L122.4877 48.1991 "/>
<path d="M122.4877 48.1991 L122.3632 48.3237 "/>
<path d="M121.3668 48.3237 L121.2422 48.1991 "/>
<path d="M121.2422 48.1991 L120.9931 48.0746 "/>
<path d="M120.9931 48.0746 L120.3704 48.0746 "/>
<path d="M120.3704 48.0746 L120.1213 48.1991 "/>
<path d="M120.1213 48.1991 L119.9967 48.3237 "/>
<path d="M119.9967 48.3237 L119.8722 48.5728 "/>
<path d="M119.8722 48.5728 L119.8722 48.8219 "/>
<path d="M119.8722 48.8219 L119.9967 49.1955 "/>
<path d="M119.9967 49.1955 L121.4913 50.6901 "/>
<path d="M121.4913 50.6901 L119.8722 50.6901 "/>
</g></g>
<g style="fill:#000084; fill-opacity:0.0;  stroke:#000084; stroke-width:0.5231; stroke-opacity:1;  stroke-linecap:round; stroke-linejoin:round;">
<path d="M116.6962 134.8469 L127.1583 134.8469 "/>
<path d="M127.1583 128.3080 L116.6962 128.3080 "/>
<path d="M127.1583 134.8469 L127.1583 128.3080 "/>
<path d="M116.6962 128.3080 L116.6962 134.8469 "/>
<path d="M187.1064 106.9503 L187.1064 91.2571 "/>
<path d="M163.0435 91.2571 L163.0435 106.9503 "/>
<path d="M172.4533 103.0287 L172.4533 94.9236 "/>
<path d="M178.4722 99.1090 L172.4533 94.9236 "/>
<path d="M163.0435 91.2571 L187.1064 91.2571 "/>
<path d="M172.4533 99.1090 L167.2315 99.1090 "/>
<path d="M178.4722 99.1090 L172.4533 103.0287 "/>
<path d="M178.4722 99.1090 L183.1891 99.1090 "/>
<path d="M163.0435 106.9503 L187.1064 106.9503 "/>
<path d="M178.4722 94.9236 L178.4722 103.2944 "/>
<path d="M116.6962 46.2325 L116.6962 52.7713 "/>
<path d="M127.1583 52.7713 L127.1583 46.2325 "/>
<path d="M127.1583 46.2325 L116.6962 46.2325 "/>
<path d="M116.6962 52.7713 L127.1583 52.7713 "/>
<g>
</g>
<g>
</g>
<g>
</g>
<g>
</g>
<g>
</g>
<g>
</g>
<g>
</g>
<g>
</g>
<g>
</g>
<g>
</g>
<g>
</g>
</g> 
<svg:g><svg:g><svg:title>SVG Image created as PIND02-Edge_Cuts.svg date 2023/09/11 01:13:28 </svg:title>
  <svg:desc>Image generated by PCBNEW </svg:desc>
<svg:g style="fill:#C2C200; fill-opacity:1.0000;stroke:#C2C200; stroke-opacity:1.0000; stroke-linecap:round; stroke-linejoin:round;" transform="translate(0 0) scale(1 1)">
</svg:g>
<svg:g style="fill:#C2C200; fill-opacity:0.0;  stroke:#C2C200; stroke-width:0.0000; stroke-opacity:1;  stroke-linecap:round; stroke-linejoin:round;">
</svg:g>
<svg:g style="fill:#C2C200; fill-opacity:0.0;  stroke:#C2C200; stroke-width:0.0664; stroke-opacity:1;  stroke-linecap:round; stroke-linejoin:round;">
<svg:path d="M253.4679 209.9704 L253.4679 0.0368 "/>
<svg:path d="M43.5343 0.0368 L43.5343 209.9704 "/>
<svg:path d="M43.5343 209.9704 L253.4679 209.9704 "/>
<svg:path d="M253.4679 0.0368 L43.5343 0.0368 "/>
<svg:circle cx="68.7795" cy="184.7252" r="8.7185"/> 
<svg:path d="M55.7018 184.7252 L81.8572 184.7252 "/>
<svg:path d="M68.7795 171.6475 L68.7795 197.8029 "/>
<svg:circle cx="68.7795" cy="184.7252" r="8.7185"/> 
<svg:path d="M55.7018 184.7252 L81.8572 184.7252 "/>
<svg:path d="M68.7795 171.6475 L68.7795 197.8029 "/>
<svg:circle cx="68.7795" cy="184.7252" r="8.7185"/> 
<svg:path d="M55.7018 184.7252 L81.8572 184.7252 "/>
<svg:path d="M68.7795 171.6475 L68.7795 197.8029 "/>
<svg:g>
</svg:g>
<svg:g>
</svg:g>
<svg:g>
</svg:g>
<svg:g>
</svg:g>
<svg:g>
</svg:g>
<svg:g>
</svg:g>
<svg:g>
</svg:g>
<svg:g>
</svg:g>
<svg:g>
</svg:g>
<svg:g>
</svg:g>
<svg:g>
</svg:g>
</svg:g> 
</svg:g></svg:g></svg>
