<?xml version='1.0' encoding='ASCII' standalone='yes'?>
<svg xmlns:svg="http://www.w3.org/2000/svg" xmlns="http://www.w3.org/2000/svg" xmlns:xlink="http://www.w3.org/1999/xlink" version="1.1" width="297.0022mm" height="210.0072mm" viewBox="0.0000 0.0000 297.0022 210.0072">
<title>SVG Image created as PIND02-F_Fab.svg date 2023/10/02 12:53:27 </title>
  <desc>Image generated by PCBNEW </desc>
<g style="fill:#848484; fill-opacity:1.0000;stroke:#848484; stroke-opacity:1.0000; stroke-linecap:round; stroke-linejoin:round;" transform="translate(0 0) scale(1 1)">
</g>
<g style="fill:#848484; fill-opacity:0.0;  stroke:#848484; stroke-width:0.0000; stroke-opacity:1;  stroke-linecap:round; stroke-linejoin:round;">
</g>
<g style="fill:#848484; fill-opacity:0.01;  stroke:#848484; stroke-width:0.7351; stroke-opacity:1;  stroke-linecap:round; stroke-linejoin:round;">
<text x="30.2441" y="54.3192" textLength="50.2335" font-size="6.5344" lengthAdjust="spacingAndGlyphs" text-anchor="middle" opacity="0.01" style="font-family:monospace">Conn_Coaxial</text>
<g class="stroked-text"><desc>Conn_Coaxial</desc>
<path d="M50.7809 53.6311 L51.0143 53.8644 "/>
<path d="M51.0143 53.8644 L51.7144 54.0978 "/>
<path d="M51.7144 54.0978 L52.1812 54.0978 "/>
<path d="M52.1812 54.0978 L52.8813 53.8644 "/>
<path d="M52.8813 53.8644 L53.3480 53.3977 "/>
<path d="M53.3480 53.3977 L53.5814 52.9309 "/>
<path d="M53.5814 52.9309 L53.8148 51.9975 "/>
<path d="M53.8148 51.9975 L53.8148 51.2973 "/>
<path d="M53.8148 51.2973 L53.5814 50.3638 "/>
<path d="M53.5814 50.3638 L53.3480 49.8971 "/>
<path d="M53.3480 49.8971 L52.8813 49.4304 "/>
<path d="M52.8813 49.4304 L52.1812 49.1970 "/>
<path d="M52.1812 49.1970 L51.7144 49.1970 "/>
<path d="M51.7144 49.1970 L51.0143 49.4304 "/>
<path d="M51.0143 49.4304 L50.7809 49.6637 "/>
<path d="M47.9804 54.0978 L48.4472 53.8644 "/>
<path d="M48.4472 53.8644 L48.6806 53.6311 "/>
<path d="M48.6806 53.6311 L48.9139 53.1643 "/>
<path d="M48.9139 53.1643 L48.9139 51.7641 "/>
<path d="M48.9139 51.7641 L48.6806 51.2973 "/>
<path d="M48.6806 51.2973 L48.4472 51.0640 "/>
<path d="M48.4472 51.0640 L47.9804 50.8306 "/>
<path d="M47.9804 50.8306 L47.2803 50.8306 "/>
<path d="M47.2803 50.8306 L46.8136 51.0640 "/>
<path d="M46.8136 51.0640 L46.5802 51.2973 "/>
<path d="M46.5802 51.2973 L46.3468 51.7641 "/>
<path d="M46.3468 51.7641 L46.3468 53.1643 "/>
<path d="M46.3468 53.1643 L46.5802 53.6311 "/>
<path d="M46.5802 53.6311 L46.8136 53.8644 "/>
<path d="M46.8136 53.8644 L47.2803 54.0978 "/>
<path d="M47.2803 54.0978 L47.9804 54.0978 "/>
<path d="M44.2465 50.8306 L44.2465 54.0978 "/>
<path d="M44.2465 51.2973 L44.0131 51.0640 "/>
<path d="M44.0131 51.0640 L43.5464 50.8306 "/>
<path d="M43.5464 50.8306 L42.8462 50.8306 "/>
<path d="M42.8462 50.8306 L42.3795 51.0640 "/>
<path d="M42.3795 51.0640 L42.1461 51.5307 "/>
<path d="M42.1461 51.5307 L42.1461 54.0978 "/>
<path d="M39.8124 50.8306 L39.8124 54.0978 "/>
<path d="M39.8124 51.2973 L39.5790 51.0640 "/>
<path d="M39.5790 51.0640 L39.1123 50.8306 "/>
<path d="M39.1123 50.8306 L38.4122 50.8306 "/>
<path d="M38.4122 50.8306 L37.9454 51.0640 "/>
<path d="M37.9454 51.0640 L37.7120 51.5307 "/>
<path d="M37.7120 51.5307 L37.7120 54.0978 "/>
<path d="M36.5452 54.5646 L32.8112 54.5646 "/>
<path d="M28.8439 53.6311 L29.0773 53.8644 "/>
<path d="M29.0773 53.8644 L29.7774 54.0978 "/>
<path d="M29.7774 54.0978 L30.2441 54.0978 "/>
<path d="M30.2441 54.0978 L30.9442 53.8644 "/>
<path d="M30.9442 53.8644 L31.4110 53.3977 "/>
<path d="M31.4110 53.3977 L31.6443 52.9309 "/>
<path d="M31.6443 52.9309 L31.8777 51.9975 "/>
<path d="M31.8777 51.9975 L31.8777 51.2973 "/>
<path d="M31.8777 51.2973 L31.6443 50.3638 "/>
<path d="M31.6443 50.3638 L31.4110 49.8971 "/>
<path d="M31.4110 49.8971 L30.9442 49.4304 "/>
<path d="M30.9442 49.4304 L30.2441 49.1970 "/>
<path d="M30.2441 49.1970 L29.7774 49.1970 "/>
<path d="M29.7774 49.1970 L29.0773 49.4304 "/>
<path d="M29.0773 49.4304 L28.8439 49.6637 "/>
<path d="M26.0434 54.0978 L26.5101 53.8644 "/>
<path d="M26.5101 53.8644 L26.7435 53.6311 "/>
<path d="M26.7435 53.6311 L26.9769 53.1643 "/>
<path d="M26.9769 53.1643 L26.9769 51.7641 "/>
<path d="M26.9769 51.7641 L26.7435 51.2973 "/>
<path d="M26.7435 51.2973 L26.5101 51.0640 "/>
<path d="M26.5101 51.0640 L26.0434 50.8306 "/>
<path d="M26.0434 50.8306 L25.3433 50.8306 "/>
<path d="M25.3433 50.8306 L24.8765 51.0640 "/>
<path d="M24.8765 51.0640 L24.6432 51.2973 "/>
<path d="M24.6432 51.2973 L24.4098 51.7641 "/>
<path d="M24.4098 51.7641 L24.4098 53.1643 "/>
<path d="M24.4098 53.1643 L24.6432 53.6311 "/>
<path d="M24.6432 53.6311 L24.8765 53.8644 "/>
<path d="M24.8765 53.8644 L25.3433 54.0978 "/>
<path d="M25.3433 54.0978 L26.0434 54.0978 "/>
<path d="M20.2091 54.0978 L20.2091 51.5307 "/>
<path d="M20.2091 51.5307 L20.4425 51.0640 "/>
<path d="M20.4425 51.0640 L20.9092 50.8306 "/>
<path d="M20.9092 50.8306 L21.8427 50.8306 "/>
<path d="M21.8427 50.8306 L22.3094 51.0640 "/>
<path d="M20.2091 53.8644 L20.6758 54.0978 "/>
<path d="M20.6758 54.0978 L21.8427 54.0978 "/>
<path d="M21.8427 54.0978 L22.3094 53.8644 "/>
<path d="M22.3094 53.8644 L22.5428 53.3977 "/>
<path d="M22.5428 53.3977 L22.5428 52.9309 "/>
<path d="M22.5428 52.9309 L22.3094 52.4642 "/>
<path d="M22.3094 52.4642 L21.8427 52.2308 "/>
<path d="M21.8427 52.2308 L20.6758 52.2308 "/>
<path d="M20.6758 52.2308 L20.2091 51.9975 "/>
<path d="M18.3421 54.0978 L15.7750 50.8306 "/>
<path d="M18.3421 50.8306 L15.7750 54.0978 "/>
<path d="M13.9080 54.0978 L13.9080 50.8306 "/>
<path d="M13.9080 49.1970 L14.1414 49.4304 "/>
<path d="M14.1414 49.4304 L13.9080 49.6637 "/>
<path d="M13.9080 49.6637 L13.6746 49.4304 "/>
<path d="M13.6746 49.4304 L13.9080 49.1970 "/>
<path d="M13.9080 49.1970 L13.9080 49.6637 "/>
<path d="M9.4739 54.0978 L9.4739 51.5307 "/>
<path d="M9.4739 51.5307 L9.7073 51.0640 "/>
<path d="M9.7073 51.0640 L10.1741 50.8306 "/>
<path d="M10.1741 50.8306 L11.1075 50.8306 "/>
<path d="M11.1075 50.8306 L11.5743 51.0640 "/>
<path d="M9.4739 53.8644 L9.9407 54.0978 "/>
<path d="M9.9407 54.0978 L11.1075 54.0978 "/>
<path d="M11.1075 54.0978 L11.5743 53.8644 "/>
<path d="M11.5743 53.8644 L11.8077 53.3977 "/>
<path d="M11.8077 53.3977 L11.8077 52.9309 "/>
<path d="M11.8077 52.9309 L11.5743 52.4642 "/>
<path d="M11.5743 52.4642 L11.1075 52.2308 "/>
<path d="M11.1075 52.2308 L9.9407 52.2308 "/>
<path d="M9.9407 52.2308 L9.4739 51.9975 "/>
<path d="M6.4401 54.0978 L6.9068 53.8644 "/>
<path d="M6.9068 53.8644 L7.1402 53.3977 "/>
<path d="M7.1402 53.3977 L7.1402 49.1970 "/>
</g><text x="30.2441" y="78.8234" textLength="9.6266" font-size="6.5344" lengthAdjust="spacingAndGlyphs" text-anchor="middle" opacity="0.01" style="font-family:monospace">J1</text>
<g class="stroked-text"><desc>J1</desc>
<path d="M31.8777 73.7011 L31.8777 77.2017 "/>
<path d="M31.8777 77.2017 L32.1111 77.9018 "/>
<path d="M32.1111 77.9018 L32.5778 78.3686 "/>
<path d="M32.5778 78.3686 L33.2780 78.6020 "/>
<path d="M33.2780 78.6020 L33.7447 78.6020 "/>
<path d="M26.9769 78.6020 L29.7774 78.6020 "/>
<path d="M28.3771 78.6020 L28.3771 73.7011 "/>
<path d="M28.3771 73.7011 L28.8439 74.4012 "/>
<path d="M28.8439 74.4012 L29.3106 74.8680 "/>
<path d="M29.3106 74.8680 L29.7774 75.1014 "/>
</g><text x="148.5011" y="136.2709" textLength="10.7935" font-size="6.5344" lengthAdjust="spacingAndGlyphs" text-anchor="middle" opacity="0.01" style="font-family:monospace">D2</text>
<g class="stroked-text"><desc>D2</desc>
<path d="M152.1184 136.0495 L152.1184 131.1486 "/>
<path d="M152.1184 131.1486 L150.9515 131.1486 "/>
<path d="M150.9515 131.1486 L150.2514 131.3820 "/>
<path d="M150.2514 131.3820 L149.7847 131.8487 "/>
<path d="M149.7847 131.8487 L149.5513 132.3155 "/>
<path d="M149.5513 132.3155 L149.3179 133.2490 "/>
<path d="M149.3179 133.2490 L149.3179 133.9491 "/>
<path d="M149.3179 133.9491 L149.5513 134.8826 "/>
<path d="M149.5513 134.8826 L149.7847 135.3493 "/>
<path d="M149.7847 135.3493 L150.2514 135.8161 "/>
<path d="M150.2514 135.8161 L150.9515 136.0495 "/>
<path d="M150.9515 136.0495 L152.1184 136.0495 "/>
<path d="M147.4509 131.6154 L147.2176 131.3820 "/>
<path d="M147.2176 131.3820 L146.7508 131.1486 "/>
<path d="M146.7508 131.1486 L145.5839 131.1486 "/>
<path d="M145.5839 131.1486 L145.1172 131.3820 "/>
<path d="M145.1172 131.3820 L144.8838 131.6154 "/>
<path d="M144.8838 131.6154 L144.6505 132.0821 "/>
<path d="M144.6505 132.0821 L144.6505 132.5489 "/>
<path d="M144.6505 132.5489 L144.8838 133.2490 "/>
<path d="M144.8838 133.2490 L147.6843 136.0495 "/>
<path d="M147.6843 136.0495 L144.6505 136.0495 "/>
</g><text x="167.1733" y="154.9430" textLength="6.1260" font-size="6.5344" lengthAdjust="spacingAndGlyphs" text-anchor="middle" opacity="0.01" style="font-family:monospace">K</text>
<g class="stroked-text"><desc>K</desc>
<path d="M168.4568 154.7216 L168.4568 149.8208 "/>
<path d="M165.6563 154.7216 L167.7567 151.9211 "/>
<path d="M165.6563 149.8208 L168.4568 152.6213 "/>
</g></g>
<g style="fill:#848484; fill-opacity:0.0;  stroke:#848484; stroke-width:1.8672; stroke-opacity:1;  stroke-linecap:round; stroke-linejoin:round;">
<circle cx="24.0201" cy="30.3150" r="14.7012"/> 
</g>
<g style="fill:#848484; fill-opacity:0.0;  stroke:#848484; stroke-width:0.7351; stroke-opacity:1;  stroke-linecap:round; stroke-linejoin:round;">
<path d="M48.9163 131.1446 L24.0201 131.1446 "/>
<path d="M48.9163 143.5927 L48.9163 131.1446 "/>
<path d="M24.0201 131.1446 L24.0201 143.5927 "/>
<path d="M24.0201 143.5927 L48.9163 143.5927 "/>
</g>
<g style="fill:#848484; fill-opacity:0.0;  stroke:#848484; stroke-width:1.8672; stroke-opacity:1;  stroke-linecap:round; stroke-linejoin:round;">
<circle cx="24.0201" cy="179.6922" r="14.7012"/> 
</g>
<g style="fill:#848484; fill-opacity:0.0;  stroke:#848484; stroke-width:0.4901; stroke-opacity:1;  stroke-linecap:round; stroke-linejoin:round;">
<path d="M14.6840 91.9331 L14.6840 60.8128 "/>
<path d="M14.6840 91.9331 L45.8042 91.9331 "/>
<path d="M14.6840 60.8128 L45.8042 60.8128 "/>
<path d="M45.8042 91.9331 L45.8042 60.8128 "/>
<circle cx="30.2441" cy="76.3730" r="15.5601"/> 
</g>
<g style="fill:#848484; fill-opacity:0.0;  stroke:#848484; stroke-width:1.8672; stroke-opacity:1;  stroke-linecap:round; stroke-linejoin:round;">
<circle cx="272.9821" cy="179.6922" r="14.7012"/> 
<circle cx="272.9821" cy="30.3150" r="14.7012"/> 
</g>
<g style="fill:#848484; fill-opacity:0.0;  stroke:#848484; stroke-width:0.4901; stroke-opacity:1;  stroke-linecap:round; stroke-linejoin:round;">
<path d="M183.2970 171.1648 L113.7052 171.1648 "/>
<path d="M151.6839 162.6328 L151.6839 154.7905 "/>
<path d="M151.6839 158.7117 L146.0449 162.6328 "/>
<path d="M151.6839 158.7117 L156.1030 158.7117 "/>
<path d="M151.6839 158.7117 L146.0449 155.0395 "/>
<path d="M146.0449 158.7117 L141.1528 158.7117 "/>
<path d="M146.0449 155.0395 L146.0449 162.6328 "/>
<path d="M183.2970 38.8424 L183.2970 171.1648 "/>
<path d="M183.2970 38.8424 L113.7052 38.8424 "/>
<path d="M113.7052 38.8424 L113.7052 171.1648 "/>
<g>
</g>
<g>
</g>
<g>
</g>
<g>
</g>
<g>
</g>
<g>
</g>
<g>
</g>
<g>
</g>
<g>
</g>
<g>
</g>
<g>
</g>
<g>
</g>
<g>
</g>
<g>
</g>
<g>
</g>
<g>
</g>
<g>
</g>
<g>
</g>
<g>
</g>
<g>
</g>
<g>
</g>
<g>
</g>
<g>
</g>
<g>
</g>
<g>
</g>
<g>
</g>
<g>
</g>
<g>
</g>
<g>
</g>
<g>
</g>
<g>
</g>
<g>
</g>
<g>
</g>
<g>
</g>
<g>
</g>
<g>
</g>
<g>
</g>
<g>
</g>
<g>
</g>
<g>
</g>
<g>
</g>
<g>
</g>
<g>
</g>
<g>
</g>
<g>
</g>
<g>
</g>
<g>
</g>
<g>
</g>
<g>
</g>
<g>
</g>
<g>
</g>
<g>
</g>
<g>
</g>
<g>
</g>
<g>
</g>
<g>
</g>
<g>
</g>
<g>
</g>
<g>
</g>
<g>
</g>
<g>
</g>
</g> 
<svg:g><svg:g><svg:title>SVG Image created as PIND02-Edge_Cuts.svg date 2023/10/02 12:53:27 </svg:title>
  <svg:desc>Image generated by PCBNEW </svg:desc>
<svg:g style="fill:#C2C200; fill-opacity:1.0000;stroke:#C2C200; stroke-opacity:1.0000; stroke-linecap:round; stroke-linejoin:round;" transform="translate(0 0) scale(1 1)">
</svg:g>
<svg:g style="fill:#C2C200; fill-opacity:0.0;  stroke:#C2C200; stroke-width:0.0000; stroke-opacity:1;  stroke-linecap:round; stroke-linejoin:round;">
</svg:g>
<svg:g style="fill:#C2C200; fill-opacity:0.0;  stroke:#C2C200; stroke-width:0.7351; stroke-opacity:1;  stroke-linecap:round; stroke-linejoin:round;">
<svg:path style="fill:#C2C200; fill-opacity:0.0;  stroke:#C2C200; stroke-width:0.7351; stroke-opacity:1;  stroke-linecap:round; stroke-linejoin:round;fill:none" d="M 296.6335,6.6636 0.3687,6.6636 0.3687,203.3436 296.6335,203.3436 Z"/> 
<svg:g>
</svg:g>
<svg:g>
</svg:g>
<svg:g>
</svg:g>
<svg:g>
</svg:g>
<svg:g>
</svg:g>
<svg:g>
</svg:g>
<svg:g>
</svg:g>
<svg:g>
</svg:g>
<svg:g>
</svg:g>
<svg:g>
</svg:g>
<svg:g>
</svg:g>
<svg:g>
</svg:g>
<svg:g>
</svg:g>
<svg:g>
</svg:g>
<svg:g>
</svg:g>
<svg:g>
</svg:g>
<svg:g>
</svg:g>
<svg:g>
</svg:g>
<svg:g>
</svg:g>
<svg:g>
</svg:g>
<svg:g>
</svg:g>
<svg:g>
</svg:g>
<svg:g>
</svg:g>
<svg:g>
</svg:g>
<svg:g>
</svg:g>
<svg:g>
</svg:g>
<svg:g>
</svg:g>
<svg:g>
</svg:g>
<svg:g>
</svg:g>
<svg:g>
</svg:g>
<svg:g>
</svg:g>
<svg:g>
</svg:g>
<svg:g>
</svg:g>
<svg:g>
</svg:g>
<svg:g>
</svg:g>
<svg:g>
</svg:g>
<svg:g>
</svg:g>
<svg:g>
</svg:g>
<svg:g>
</svg:g>
<svg:g>
</svg:g>
<svg:g>
</svg:g>
<svg:g>
</svg:g>
<svg:g>
</svg:g>
<svg:g>
</svg:g>
<svg:g>
</svg:g>
<svg:g>
</svg:g>
<svg:g>
</svg:g>
<svg:g>
</svg:g>
<svg:g>
</svg:g>
<svg:g>
</svg:g>
<svg:g>
</svg:g>
<svg:g>
</svg:g>
<svg:g>
</svg:g>
<svg:g>
</svg:g>
<svg:g>
</svg:g>
<svg:g>
</svg:g>
<svg:g>
</svg:g>
<svg:g>
</svg:g>
<svg:g>
</svg:g>
<svg:g>
</svg:g>
<svg:g>
</svg:g>
</svg:g> 
</svg:g></svg:g></svg>
