%TF.GenerationSoftware,KiCad,Pcbnew,7.0.7-7.0.7~ubuntu23.04.1*%
%TF.CreationDate,2023-10-02T10:08:17+00:00*%
%TF.ProjectId,PIND02,50494e44-3032-42e6-9b69-6361645f7063,rev?*%
%TF.SameCoordinates,Original*%
%TF.FileFunction,Legend,Bot*%
%TF.FilePolarity,Positive*%
%FSLAX46Y46*%
G04 Gerber Fmt 4.6, Leading zero omitted, Abs format (unit mm)*
G04 Created by KiCad (PCBNEW 7.0.7-7.0.7~ubuntu23.04.1) date 2023-10-02 10:08:17*
%MOMM*%
%LPD*%
G01*
G04 APERTURE LIST*
%ADD10C,0.150000*%
%ADD11C,0.120000*%
G04 APERTURE END LIST*
D10*
X12932580Y18168858D02*
X12980200Y18216477D01*
X12980200Y18216477D02*
X13027819Y18359334D01*
X13027819Y18359334D02*
X13027819Y18454572D01*
X13027819Y18454572D02*
X12980200Y18597429D01*
X12980200Y18597429D02*
X12884961Y18692667D01*
X12884961Y18692667D02*
X12789723Y18740286D01*
X12789723Y18740286D02*
X12599247Y18787905D01*
X12599247Y18787905D02*
X12456390Y18787905D01*
X12456390Y18787905D02*
X12265914Y18740286D01*
X12265914Y18740286D02*
X12170676Y18692667D01*
X12170676Y18692667D02*
X12075438Y18597429D01*
X12075438Y18597429D02*
X12027819Y18454572D01*
X12027819Y18454572D02*
X12027819Y18359334D01*
X12027819Y18359334D02*
X12075438Y18216477D01*
X12075438Y18216477D02*
X12123057Y18168858D01*
X12123057Y17787905D02*
X12075438Y17740286D01*
X12075438Y17740286D02*
X12027819Y17645048D01*
X12027819Y17645048D02*
X12027819Y17406953D01*
X12027819Y17406953D02*
X12075438Y17311715D01*
X12075438Y17311715D02*
X12123057Y17264096D01*
X12123057Y17264096D02*
X12218295Y17216477D01*
X12218295Y17216477D02*
X12313533Y17216477D01*
X12313533Y17216477D02*
X12456390Y17264096D01*
X12456390Y17264096D02*
X13027819Y17835524D01*
X13027819Y17835524D02*
X13027819Y17216477D01*
X12123057Y16835524D02*
X12075438Y16787905D01*
X12075438Y16787905D02*
X12027819Y16692667D01*
X12027819Y16692667D02*
X12027819Y16454572D01*
X12027819Y16454572D02*
X12075438Y16359334D01*
X12075438Y16359334D02*
X12123057Y16311715D01*
X12123057Y16311715D02*
X12218295Y16264096D01*
X12218295Y16264096D02*
X12313533Y16264096D01*
X12313533Y16264096D02*
X12456390Y16311715D01*
X12456390Y16311715D02*
X13027819Y16883143D01*
X13027819Y16883143D02*
X13027819Y16264096D01*
X61694820Y26836667D02*
X61694820Y27312857D01*
X61694820Y27312857D02*
X60694820Y27312857D01*
X60694820Y26598571D02*
X60694820Y25979524D01*
X60694820Y25979524D02*
X61075772Y26312857D01*
X61075772Y26312857D02*
X61075772Y26170000D01*
X61075772Y26170000D02*
X61123391Y26074762D01*
X61123391Y26074762D02*
X61171010Y26027143D01*
X61171010Y26027143D02*
X61266248Y25979524D01*
X61266248Y25979524D02*
X61504343Y25979524D01*
X61504343Y25979524D02*
X61599581Y26027143D01*
X61599581Y26027143D02*
X61647201Y26074762D01*
X61647201Y26074762D02*
X61694820Y26170000D01*
X61694820Y26170000D02*
X61694820Y26455714D01*
X61694820Y26455714D02*
X61647201Y26550952D01*
X61647201Y26550952D02*
X61599581Y26598571D01*
X38774666Y16531420D02*
X38822285Y16483800D01*
X38822285Y16483800D02*
X38965142Y16436181D01*
X38965142Y16436181D02*
X39060380Y16436181D01*
X39060380Y16436181D02*
X39203237Y16483800D01*
X39203237Y16483800D02*
X39298475Y16579039D01*
X39298475Y16579039D02*
X39346094Y16674277D01*
X39346094Y16674277D02*
X39393713Y16864753D01*
X39393713Y16864753D02*
X39393713Y17007610D01*
X39393713Y17007610D02*
X39346094Y17198086D01*
X39346094Y17198086D02*
X39298475Y17293324D01*
X39298475Y17293324D02*
X39203237Y17388562D01*
X39203237Y17388562D02*
X39060380Y17436181D01*
X39060380Y17436181D02*
X38965142Y17436181D01*
X38965142Y17436181D02*
X38822285Y17388562D01*
X38822285Y17388562D02*
X38774666Y17340943D01*
X38441332Y17436181D02*
X37822285Y17436181D01*
X37822285Y17436181D02*
X38155618Y17055229D01*
X38155618Y17055229D02*
X38012761Y17055229D01*
X38012761Y17055229D02*
X37917523Y17007610D01*
X37917523Y17007610D02*
X37869904Y16959991D01*
X37869904Y16959991D02*
X37822285Y16864753D01*
X37822285Y16864753D02*
X37822285Y16626658D01*
X37822285Y16626658D02*
X37869904Y16531420D01*
X37869904Y16531420D02*
X37917523Y16483800D01*
X37917523Y16483800D02*
X38012761Y16436181D01*
X38012761Y16436181D02*
X38298475Y16436181D01*
X38298475Y16436181D02*
X38393713Y16483800D01*
X38393713Y16483800D02*
X38441332Y16531420D01*
X18868819Y17946667D02*
X18868819Y18422857D01*
X18868819Y18422857D02*
X17868819Y18422857D01*
X17964057Y17660952D02*
X17916438Y17613333D01*
X17916438Y17613333D02*
X17868819Y17518095D01*
X17868819Y17518095D02*
X17868819Y17280000D01*
X17868819Y17280000D02*
X17916438Y17184762D01*
X17916438Y17184762D02*
X17964057Y17137143D01*
X17964057Y17137143D02*
X18059295Y17089524D01*
X18059295Y17089524D02*
X18154533Y17089524D01*
X18154533Y17089524D02*
X18297390Y17137143D01*
X18297390Y17137143D02*
X18868819Y17708571D01*
X18868819Y17708571D02*
X18868819Y17089524D01*
X23756580Y33027858D02*
X23804200Y33075477D01*
X23804200Y33075477D02*
X23851819Y33218334D01*
X23851819Y33218334D02*
X23851819Y33313572D01*
X23851819Y33313572D02*
X23804200Y33456429D01*
X23804200Y33456429D02*
X23708961Y33551667D01*
X23708961Y33551667D02*
X23613723Y33599286D01*
X23613723Y33599286D02*
X23423247Y33646905D01*
X23423247Y33646905D02*
X23280390Y33646905D01*
X23280390Y33646905D02*
X23089914Y33599286D01*
X23089914Y33599286D02*
X22994676Y33551667D01*
X22994676Y33551667D02*
X22899438Y33456429D01*
X22899438Y33456429D02*
X22851819Y33313572D01*
X22851819Y33313572D02*
X22851819Y33218334D01*
X22851819Y33218334D02*
X22899438Y33075477D01*
X22899438Y33075477D02*
X22947057Y33027858D01*
X22947057Y32646905D02*
X22899438Y32599286D01*
X22899438Y32599286D02*
X22851819Y32504048D01*
X22851819Y32504048D02*
X22851819Y32265953D01*
X22851819Y32265953D02*
X22899438Y32170715D01*
X22899438Y32170715D02*
X22947057Y32123096D01*
X22947057Y32123096D02*
X23042295Y32075477D01*
X23042295Y32075477D02*
X23137533Y32075477D01*
X23137533Y32075477D02*
X23280390Y32123096D01*
X23280390Y32123096D02*
X23851819Y32694524D01*
X23851819Y32694524D02*
X23851819Y32075477D01*
X22851819Y31456429D02*
X22851819Y31361191D01*
X22851819Y31361191D02*
X22899438Y31265953D01*
X22899438Y31265953D02*
X22947057Y31218334D01*
X22947057Y31218334D02*
X23042295Y31170715D01*
X23042295Y31170715D02*
X23232771Y31123096D01*
X23232771Y31123096D02*
X23470866Y31123096D01*
X23470866Y31123096D02*
X23661342Y31170715D01*
X23661342Y31170715D02*
X23756580Y31218334D01*
X23756580Y31218334D02*
X23804200Y31265953D01*
X23804200Y31265953D02*
X23851819Y31361191D01*
X23851819Y31361191D02*
X23851819Y31456429D01*
X23851819Y31456429D02*
X23804200Y31551667D01*
X23804200Y31551667D02*
X23756580Y31599286D01*
X23756580Y31599286D02*
X23661342Y31646905D01*
X23661342Y31646905D02*
X23470866Y31694524D01*
X23470866Y31694524D02*
X23232771Y31694524D01*
X23232771Y31694524D02*
X23042295Y31646905D01*
X23042295Y31646905D02*
X22947057Y31599286D01*
X22947057Y31599286D02*
X22899438Y31551667D01*
X22899438Y31551667D02*
X22851819Y31456429D01*
X26997819Y12612667D02*
X26521628Y12946000D01*
X26997819Y13184095D02*
X25997819Y13184095D01*
X25997819Y13184095D02*
X25997819Y12803143D01*
X25997819Y12803143D02*
X26045438Y12707905D01*
X26045438Y12707905D02*
X26093057Y12660286D01*
X26093057Y12660286D02*
X26188295Y12612667D01*
X26188295Y12612667D02*
X26331152Y12612667D01*
X26331152Y12612667D02*
X26426390Y12660286D01*
X26426390Y12660286D02*
X26474009Y12707905D01*
X26474009Y12707905D02*
X26521628Y12803143D01*
X26521628Y12803143D02*
X26521628Y13184095D01*
X26426390Y12041238D02*
X26378771Y12136476D01*
X26378771Y12136476D02*
X26331152Y12184095D01*
X26331152Y12184095D02*
X26235914Y12231714D01*
X26235914Y12231714D02*
X26188295Y12231714D01*
X26188295Y12231714D02*
X26093057Y12184095D01*
X26093057Y12184095D02*
X26045438Y12136476D01*
X26045438Y12136476D02*
X25997819Y12041238D01*
X25997819Y12041238D02*
X25997819Y11850762D01*
X25997819Y11850762D02*
X26045438Y11755524D01*
X26045438Y11755524D02*
X26093057Y11707905D01*
X26093057Y11707905D02*
X26188295Y11660286D01*
X26188295Y11660286D02*
X26235914Y11660286D01*
X26235914Y11660286D02*
X26331152Y11707905D01*
X26331152Y11707905D02*
X26378771Y11755524D01*
X26378771Y11755524D02*
X26426390Y11850762D01*
X26426390Y11850762D02*
X26426390Y12041238D01*
X26426390Y12041238D02*
X26474009Y12136476D01*
X26474009Y12136476D02*
X26521628Y12184095D01*
X26521628Y12184095D02*
X26616866Y12231714D01*
X26616866Y12231714D02*
X26807342Y12231714D01*
X26807342Y12231714D02*
X26902580Y12184095D01*
X26902580Y12184095D02*
X26950200Y12136476D01*
X26950200Y12136476D02*
X26997819Y12041238D01*
X26997819Y12041238D02*
X26997819Y11850762D01*
X26997819Y11850762D02*
X26950200Y11755524D01*
X26950200Y11755524D02*
X26902580Y11707905D01*
X26902580Y11707905D02*
X26807342Y11660286D01*
X26807342Y11660286D02*
X26616866Y11660286D01*
X26616866Y11660286D02*
X26521628Y11707905D01*
X26521628Y11707905D02*
X26474009Y11755524D01*
X26474009Y11755524D02*
X26426390Y11850762D01*
X58494819Y23248858D02*
X58018628Y23582191D01*
X58494819Y23820286D02*
X57494819Y23820286D01*
X57494819Y23820286D02*
X57494819Y23439334D01*
X57494819Y23439334D02*
X57542438Y23344096D01*
X57542438Y23344096D02*
X57590057Y23296477D01*
X57590057Y23296477D02*
X57685295Y23248858D01*
X57685295Y23248858D02*
X57828152Y23248858D01*
X57828152Y23248858D02*
X57923390Y23296477D01*
X57923390Y23296477D02*
X57971009Y23344096D01*
X57971009Y23344096D02*
X58018628Y23439334D01*
X58018628Y23439334D02*
X58018628Y23820286D01*
X58494819Y22296477D02*
X58494819Y22867905D01*
X58494819Y22582191D02*
X57494819Y22582191D01*
X57494819Y22582191D02*
X57637676Y22677429D01*
X57637676Y22677429D02*
X57732914Y22772667D01*
X57732914Y22772667D02*
X57780533Y22867905D01*
X57590057Y21915524D02*
X57542438Y21867905D01*
X57542438Y21867905D02*
X57494819Y21772667D01*
X57494819Y21772667D02*
X57494819Y21534572D01*
X57494819Y21534572D02*
X57542438Y21439334D01*
X57542438Y21439334D02*
X57590057Y21391715D01*
X57590057Y21391715D02*
X57685295Y21344096D01*
X57685295Y21344096D02*
X57780533Y21344096D01*
X57780533Y21344096D02*
X57923390Y21391715D01*
X57923390Y21391715D02*
X58494819Y21963143D01*
X58494819Y21963143D02*
X58494819Y21344096D01*
X56427666Y17322420D02*
X56475285Y17274800D01*
X56475285Y17274800D02*
X56618142Y17227181D01*
X56618142Y17227181D02*
X56713380Y17227181D01*
X56713380Y17227181D02*
X56856237Y17274800D01*
X56856237Y17274800D02*
X56951475Y17370039D01*
X56951475Y17370039D02*
X56999094Y17465277D01*
X56999094Y17465277D02*
X57046713Y17655753D01*
X57046713Y17655753D02*
X57046713Y17798610D01*
X57046713Y17798610D02*
X56999094Y17989086D01*
X56999094Y17989086D02*
X56951475Y18084324D01*
X56951475Y18084324D02*
X56856237Y18179562D01*
X56856237Y18179562D02*
X56713380Y18227181D01*
X56713380Y18227181D02*
X56618142Y18227181D01*
X56618142Y18227181D02*
X56475285Y18179562D01*
X56475285Y18179562D02*
X56427666Y18131943D01*
X55475285Y17227181D02*
X56046713Y17227181D01*
X55760999Y17227181D02*
X55760999Y18227181D01*
X55760999Y18227181D02*
X55856237Y18084324D01*
X55856237Y18084324D02*
X55951475Y17989086D01*
X55951475Y17989086D02*
X56046713Y17941467D01*
X40364580Y31662667D02*
X40412200Y31710286D01*
X40412200Y31710286D02*
X40459819Y31853143D01*
X40459819Y31853143D02*
X40459819Y31948381D01*
X40459819Y31948381D02*
X40412200Y32091238D01*
X40412200Y32091238D02*
X40316961Y32186476D01*
X40316961Y32186476D02*
X40221723Y32234095D01*
X40221723Y32234095D02*
X40031247Y32281714D01*
X40031247Y32281714D02*
X39888390Y32281714D01*
X39888390Y32281714D02*
X39697914Y32234095D01*
X39697914Y32234095D02*
X39602676Y32186476D01*
X39602676Y32186476D02*
X39507438Y32091238D01*
X39507438Y32091238D02*
X39459819Y31948381D01*
X39459819Y31948381D02*
X39459819Y31853143D01*
X39459819Y31853143D02*
X39507438Y31710286D01*
X39507438Y31710286D02*
X39555057Y31662667D01*
X39888390Y31091238D02*
X39840771Y31186476D01*
X39840771Y31186476D02*
X39793152Y31234095D01*
X39793152Y31234095D02*
X39697914Y31281714D01*
X39697914Y31281714D02*
X39650295Y31281714D01*
X39650295Y31281714D02*
X39555057Y31234095D01*
X39555057Y31234095D02*
X39507438Y31186476D01*
X39507438Y31186476D02*
X39459819Y31091238D01*
X39459819Y31091238D02*
X39459819Y30900762D01*
X39459819Y30900762D02*
X39507438Y30805524D01*
X39507438Y30805524D02*
X39555057Y30757905D01*
X39555057Y30757905D02*
X39650295Y30710286D01*
X39650295Y30710286D02*
X39697914Y30710286D01*
X39697914Y30710286D02*
X39793152Y30757905D01*
X39793152Y30757905D02*
X39840771Y30805524D01*
X39840771Y30805524D02*
X39888390Y30900762D01*
X39888390Y30900762D02*
X39888390Y31091238D01*
X39888390Y31091238D02*
X39936009Y31186476D01*
X39936009Y31186476D02*
X39983628Y31234095D01*
X39983628Y31234095D02*
X40078866Y31281714D01*
X40078866Y31281714D02*
X40269342Y31281714D01*
X40269342Y31281714D02*
X40364580Y31234095D01*
X40364580Y31234095D02*
X40412200Y31186476D01*
X40412200Y31186476D02*
X40459819Y31091238D01*
X40459819Y31091238D02*
X40459819Y30900762D01*
X40459819Y30900762D02*
X40412200Y30805524D01*
X40412200Y30805524D02*
X40364580Y30757905D01*
X40364580Y30757905D02*
X40269342Y30710286D01*
X40269342Y30710286D02*
X40078866Y30710286D01*
X40078866Y30710286D02*
X39983628Y30757905D01*
X39983628Y30757905D02*
X39936009Y30805524D01*
X39936009Y30805524D02*
X39888390Y30900762D01*
X17660857Y12467420D02*
X17708476Y12419800D01*
X17708476Y12419800D02*
X17851333Y12372181D01*
X17851333Y12372181D02*
X17946571Y12372181D01*
X17946571Y12372181D02*
X18089428Y12419800D01*
X18089428Y12419800D02*
X18184666Y12515039D01*
X18184666Y12515039D02*
X18232285Y12610277D01*
X18232285Y12610277D02*
X18279904Y12800753D01*
X18279904Y12800753D02*
X18279904Y12943610D01*
X18279904Y12943610D02*
X18232285Y13134086D01*
X18232285Y13134086D02*
X18184666Y13229324D01*
X18184666Y13229324D02*
X18089428Y13324562D01*
X18089428Y13324562D02*
X17946571Y13372181D01*
X17946571Y13372181D02*
X17851333Y13372181D01*
X17851333Y13372181D02*
X17708476Y13324562D01*
X17708476Y13324562D02*
X17660857Y13276943D01*
X17279904Y13276943D02*
X17232285Y13324562D01*
X17232285Y13324562D02*
X17137047Y13372181D01*
X17137047Y13372181D02*
X16898952Y13372181D01*
X16898952Y13372181D02*
X16803714Y13324562D01*
X16803714Y13324562D02*
X16756095Y13276943D01*
X16756095Y13276943D02*
X16708476Y13181705D01*
X16708476Y13181705D02*
X16708476Y13086467D01*
X16708476Y13086467D02*
X16756095Y12943610D01*
X16756095Y12943610D02*
X17327523Y12372181D01*
X17327523Y12372181D02*
X16708476Y12372181D01*
X15756095Y12372181D02*
X16327523Y12372181D01*
X16041809Y12372181D02*
X16041809Y13372181D01*
X16041809Y13372181D02*
X16137047Y13229324D01*
X16137047Y13229324D02*
X16232285Y13134086D01*
X16232285Y13134086D02*
X16327523Y13086467D01*
X23756857Y12848420D02*
X23804476Y12800800D01*
X23804476Y12800800D02*
X23947333Y12753181D01*
X23947333Y12753181D02*
X24042571Y12753181D01*
X24042571Y12753181D02*
X24185428Y12800800D01*
X24185428Y12800800D02*
X24280666Y12896039D01*
X24280666Y12896039D02*
X24328285Y12991277D01*
X24328285Y12991277D02*
X24375904Y13181753D01*
X24375904Y13181753D02*
X24375904Y13324610D01*
X24375904Y13324610D02*
X24328285Y13515086D01*
X24328285Y13515086D02*
X24280666Y13610324D01*
X24280666Y13610324D02*
X24185428Y13705562D01*
X24185428Y13705562D02*
X24042571Y13753181D01*
X24042571Y13753181D02*
X23947333Y13753181D01*
X23947333Y13753181D02*
X23804476Y13705562D01*
X23804476Y13705562D02*
X23756857Y13657943D01*
X22804476Y12753181D02*
X23375904Y12753181D01*
X23090190Y12753181D02*
X23090190Y13753181D01*
X23090190Y13753181D02*
X23185428Y13610324D01*
X23185428Y13610324D02*
X23280666Y13515086D01*
X23280666Y13515086D02*
X23375904Y13467467D01*
X21852095Y12753181D02*
X22423523Y12753181D01*
X22137809Y12753181D02*
X22137809Y13753181D01*
X22137809Y13753181D02*
X22233047Y13610324D01*
X22233047Y13610324D02*
X22328285Y13515086D01*
X22328285Y13515086D02*
X22423523Y13467467D01*
X10898094Y18595181D02*
X10898094Y19595181D01*
X10898094Y19595181D02*
X10659999Y19595181D01*
X10659999Y19595181D02*
X10517142Y19547562D01*
X10517142Y19547562D02*
X10421904Y19452324D01*
X10421904Y19452324D02*
X10374285Y19357086D01*
X10374285Y19357086D02*
X10326666Y19166610D01*
X10326666Y19166610D02*
X10326666Y19023753D01*
X10326666Y19023753D02*
X10374285Y18833277D01*
X10374285Y18833277D02*
X10421904Y18738039D01*
X10421904Y18738039D02*
X10517142Y18642800D01*
X10517142Y18642800D02*
X10659999Y18595181D01*
X10659999Y18595181D02*
X10898094Y18595181D01*
X9374285Y18595181D02*
X9945713Y18595181D01*
X9659999Y18595181D02*
X9659999Y19595181D01*
X9659999Y19595181D02*
X9755237Y19452324D01*
X9755237Y19452324D02*
X9850475Y19357086D01*
X9850475Y19357086D02*
X9945713Y19309467D01*
X31950819Y23534667D02*
X31474628Y23868000D01*
X31950819Y24106095D02*
X30950819Y24106095D01*
X30950819Y24106095D02*
X30950819Y23725143D01*
X30950819Y23725143D02*
X30998438Y23629905D01*
X30998438Y23629905D02*
X31046057Y23582286D01*
X31046057Y23582286D02*
X31141295Y23534667D01*
X31141295Y23534667D02*
X31284152Y23534667D01*
X31284152Y23534667D02*
X31379390Y23582286D01*
X31379390Y23582286D02*
X31427009Y23629905D01*
X31427009Y23629905D02*
X31474628Y23725143D01*
X31474628Y23725143D02*
X31474628Y24106095D01*
X31950819Y23058476D02*
X31950819Y22868000D01*
X31950819Y22868000D02*
X31903200Y22772762D01*
X31903200Y22772762D02*
X31855580Y22725143D01*
X31855580Y22725143D02*
X31712723Y22629905D01*
X31712723Y22629905D02*
X31522247Y22582286D01*
X31522247Y22582286D02*
X31141295Y22582286D01*
X31141295Y22582286D02*
X31046057Y22629905D01*
X31046057Y22629905D02*
X30998438Y22677524D01*
X30998438Y22677524D02*
X30950819Y22772762D01*
X30950819Y22772762D02*
X30950819Y22963238D01*
X30950819Y22963238D02*
X30998438Y23058476D01*
X30998438Y23058476D02*
X31046057Y23106095D01*
X31046057Y23106095D02*
X31141295Y23153714D01*
X31141295Y23153714D02*
X31379390Y23153714D01*
X31379390Y23153714D02*
X31474628Y23106095D01*
X31474628Y23106095D02*
X31522247Y23058476D01*
X31522247Y23058476D02*
X31569866Y22963238D01*
X31569866Y22963238D02*
X31569866Y22772762D01*
X31569866Y22772762D02*
X31522247Y22677524D01*
X31522247Y22677524D02*
X31474628Y22629905D01*
X31474628Y22629905D02*
X31379390Y22582286D01*
X24296666Y21389181D02*
X24629999Y21865372D01*
X24868094Y21389181D02*
X24868094Y22389181D01*
X24868094Y22389181D02*
X24487142Y22389181D01*
X24487142Y22389181D02*
X24391904Y22341562D01*
X24391904Y22341562D02*
X24344285Y22293943D01*
X24344285Y22293943D02*
X24296666Y22198705D01*
X24296666Y22198705D02*
X24296666Y22055848D01*
X24296666Y22055848D02*
X24344285Y21960610D01*
X24344285Y21960610D02*
X24391904Y21912991D01*
X24391904Y21912991D02*
X24487142Y21865372D01*
X24487142Y21865372D02*
X24868094Y21865372D01*
X23439523Y22389181D02*
X23629999Y22389181D01*
X23629999Y22389181D02*
X23725237Y22341562D01*
X23725237Y22341562D02*
X23772856Y22293943D01*
X23772856Y22293943D02*
X23868094Y22151086D01*
X23868094Y22151086D02*
X23915713Y21960610D01*
X23915713Y21960610D02*
X23915713Y21579658D01*
X23915713Y21579658D02*
X23868094Y21484420D01*
X23868094Y21484420D02*
X23820475Y21436800D01*
X23820475Y21436800D02*
X23725237Y21389181D01*
X23725237Y21389181D02*
X23534761Y21389181D01*
X23534761Y21389181D02*
X23439523Y21436800D01*
X23439523Y21436800D02*
X23391904Y21484420D01*
X23391904Y21484420D02*
X23344285Y21579658D01*
X23344285Y21579658D02*
X23344285Y21817753D01*
X23344285Y21817753D02*
X23391904Y21912991D01*
X23391904Y21912991D02*
X23439523Y21960610D01*
X23439523Y21960610D02*
X23534761Y22008229D01*
X23534761Y22008229D02*
X23725237Y22008229D01*
X23725237Y22008229D02*
X23820475Y21960610D01*
X23820475Y21960610D02*
X23868094Y21912991D01*
X23868094Y21912991D02*
X23915713Y21817753D01*
X29061580Y20581858D02*
X29109200Y20629477D01*
X29109200Y20629477D02*
X29156819Y20772334D01*
X29156819Y20772334D02*
X29156819Y20867572D01*
X29156819Y20867572D02*
X29109200Y21010429D01*
X29109200Y21010429D02*
X29013961Y21105667D01*
X29013961Y21105667D02*
X28918723Y21153286D01*
X28918723Y21153286D02*
X28728247Y21200905D01*
X28728247Y21200905D02*
X28585390Y21200905D01*
X28585390Y21200905D02*
X28394914Y21153286D01*
X28394914Y21153286D02*
X28299676Y21105667D01*
X28299676Y21105667D02*
X28204438Y21010429D01*
X28204438Y21010429D02*
X28156819Y20867572D01*
X28156819Y20867572D02*
X28156819Y20772334D01*
X28156819Y20772334D02*
X28204438Y20629477D01*
X28204438Y20629477D02*
X28252057Y20581858D01*
X29156819Y19629477D02*
X29156819Y20200905D01*
X29156819Y19915191D02*
X28156819Y19915191D01*
X28156819Y19915191D02*
X28299676Y20010429D01*
X28299676Y20010429D02*
X28394914Y20105667D01*
X28394914Y20105667D02*
X28442533Y20200905D01*
X28252057Y19248524D02*
X28204438Y19200905D01*
X28204438Y19200905D02*
X28156819Y19105667D01*
X28156819Y19105667D02*
X28156819Y18867572D01*
X28156819Y18867572D02*
X28204438Y18772334D01*
X28204438Y18772334D02*
X28252057Y18724715D01*
X28252057Y18724715D02*
X28347295Y18677096D01*
X28347295Y18677096D02*
X28442533Y18677096D01*
X28442533Y18677096D02*
X28585390Y18724715D01*
X28585390Y18724715D02*
X29156819Y19296143D01*
X29156819Y19296143D02*
X29156819Y18677096D01*
X17152857Y32914420D02*
X17200476Y32866800D01*
X17200476Y32866800D02*
X17343333Y32819181D01*
X17343333Y32819181D02*
X17438571Y32819181D01*
X17438571Y32819181D02*
X17581428Y32866800D01*
X17581428Y32866800D02*
X17676666Y32962039D01*
X17676666Y32962039D02*
X17724285Y33057277D01*
X17724285Y33057277D02*
X17771904Y33247753D01*
X17771904Y33247753D02*
X17771904Y33390610D01*
X17771904Y33390610D02*
X17724285Y33581086D01*
X17724285Y33581086D02*
X17676666Y33676324D01*
X17676666Y33676324D02*
X17581428Y33771562D01*
X17581428Y33771562D02*
X17438571Y33819181D01*
X17438571Y33819181D02*
X17343333Y33819181D01*
X17343333Y33819181D02*
X17200476Y33771562D01*
X17200476Y33771562D02*
X17152857Y33723943D01*
X16200476Y32819181D02*
X16771904Y32819181D01*
X16486190Y32819181D02*
X16486190Y33819181D01*
X16486190Y33819181D02*
X16581428Y33676324D01*
X16581428Y33676324D02*
X16676666Y33581086D01*
X16676666Y33581086D02*
X16771904Y33533467D01*
X15724285Y32819181D02*
X15533809Y32819181D01*
X15533809Y32819181D02*
X15438571Y32866800D01*
X15438571Y32866800D02*
X15390952Y32914420D01*
X15390952Y32914420D02*
X15295714Y33057277D01*
X15295714Y33057277D02*
X15248095Y33247753D01*
X15248095Y33247753D02*
X15248095Y33628705D01*
X15248095Y33628705D02*
X15295714Y33723943D01*
X15295714Y33723943D02*
X15343333Y33771562D01*
X15343333Y33771562D02*
X15438571Y33819181D01*
X15438571Y33819181D02*
X15629047Y33819181D01*
X15629047Y33819181D02*
X15724285Y33771562D01*
X15724285Y33771562D02*
X15771904Y33723943D01*
X15771904Y33723943D02*
X15819523Y33628705D01*
X15819523Y33628705D02*
X15819523Y33390610D01*
X15819523Y33390610D02*
X15771904Y33295372D01*
X15771904Y33295372D02*
X15724285Y33247753D01*
X15724285Y33247753D02*
X15629047Y33200134D01*
X15629047Y33200134D02*
X15438571Y33200134D01*
X15438571Y33200134D02*
X15343333Y33247753D01*
X15343333Y33247753D02*
X15295714Y33295372D01*
X15295714Y33295372D02*
X15248095Y33390610D01*
X56062428Y41089991D02*
X56395761Y41089991D01*
X56395761Y40566181D02*
X56395761Y41566181D01*
X56395761Y41566181D02*
X55919571Y41566181D01*
X55538618Y40566181D02*
X55538618Y41566181D01*
X55062428Y40566181D02*
X55062428Y41566181D01*
X55062428Y41566181D02*
X54824333Y41566181D01*
X54824333Y41566181D02*
X54681476Y41518562D01*
X54681476Y41518562D02*
X54586238Y41423324D01*
X54586238Y41423324D02*
X54538619Y41328086D01*
X54538619Y41328086D02*
X54491000Y41137610D01*
X54491000Y41137610D02*
X54491000Y40994753D01*
X54491000Y40994753D02*
X54538619Y40804277D01*
X54538619Y40804277D02*
X54586238Y40709039D01*
X54586238Y40709039D02*
X54681476Y40613800D01*
X54681476Y40613800D02*
X54824333Y40566181D01*
X54824333Y40566181D02*
X55062428Y40566181D01*
X53538619Y40566181D02*
X54110047Y40566181D01*
X53824333Y40566181D02*
X53824333Y41566181D01*
X53824333Y41566181D02*
X53919571Y41423324D01*
X53919571Y41423324D02*
X54014809Y41328086D01*
X54014809Y41328086D02*
X54110047Y41280467D01*
X23981580Y20327858D02*
X24029200Y20375477D01*
X24029200Y20375477D02*
X24076819Y20518334D01*
X24076819Y20518334D02*
X24076819Y20613572D01*
X24076819Y20613572D02*
X24029200Y20756429D01*
X24029200Y20756429D02*
X23933961Y20851667D01*
X23933961Y20851667D02*
X23838723Y20899286D01*
X23838723Y20899286D02*
X23648247Y20946905D01*
X23648247Y20946905D02*
X23505390Y20946905D01*
X23505390Y20946905D02*
X23314914Y20899286D01*
X23314914Y20899286D02*
X23219676Y20851667D01*
X23219676Y20851667D02*
X23124438Y20756429D01*
X23124438Y20756429D02*
X23076819Y20613572D01*
X23076819Y20613572D02*
X23076819Y20518334D01*
X23076819Y20518334D02*
X23124438Y20375477D01*
X23124438Y20375477D02*
X23172057Y20327858D01*
X24076819Y19375477D02*
X24076819Y19946905D01*
X24076819Y19661191D02*
X23076819Y19661191D01*
X23076819Y19661191D02*
X23219676Y19756429D01*
X23219676Y19756429D02*
X23314914Y19851667D01*
X23314914Y19851667D02*
X23362533Y19946905D01*
X23076819Y18756429D02*
X23076819Y18661191D01*
X23076819Y18661191D02*
X23124438Y18565953D01*
X23124438Y18565953D02*
X23172057Y18518334D01*
X23172057Y18518334D02*
X23267295Y18470715D01*
X23267295Y18470715D02*
X23457771Y18423096D01*
X23457771Y18423096D02*
X23695866Y18423096D01*
X23695866Y18423096D02*
X23886342Y18470715D01*
X23886342Y18470715D02*
X23981580Y18518334D01*
X23981580Y18518334D02*
X24029200Y18565953D01*
X24029200Y18565953D02*
X24076819Y18661191D01*
X24076819Y18661191D02*
X24076819Y18756429D01*
X24076819Y18756429D02*
X24029200Y18851667D01*
X24029200Y18851667D02*
X23981580Y18899286D01*
X23981580Y18899286D02*
X23886342Y18946905D01*
X23886342Y18946905D02*
X23695866Y18994524D01*
X23695866Y18994524D02*
X23457771Y18994524D01*
X23457771Y18994524D02*
X23267295Y18946905D01*
X23267295Y18946905D02*
X23172057Y18899286D01*
X23172057Y18899286D02*
X23124438Y18851667D01*
X23124438Y18851667D02*
X23076819Y18756429D01*
X35909238Y19769943D02*
X36004476Y19817562D01*
X36004476Y19817562D02*
X36099714Y19912800D01*
X36099714Y19912800D02*
X36242571Y20055658D01*
X36242571Y20055658D02*
X36337809Y20103277D01*
X36337809Y20103277D02*
X36433047Y20103277D01*
X36385428Y19865181D02*
X36480666Y19912800D01*
X36480666Y19912800D02*
X36575904Y20008039D01*
X36575904Y20008039D02*
X36623523Y20198515D01*
X36623523Y20198515D02*
X36623523Y20531848D01*
X36623523Y20531848D02*
X36575904Y20722324D01*
X36575904Y20722324D02*
X36480666Y20817562D01*
X36480666Y20817562D02*
X36385428Y20865181D01*
X36385428Y20865181D02*
X36194952Y20865181D01*
X36194952Y20865181D02*
X36099714Y20817562D01*
X36099714Y20817562D02*
X36004476Y20722324D01*
X36004476Y20722324D02*
X35956857Y20531848D01*
X35956857Y20531848D02*
X35956857Y20198515D01*
X35956857Y20198515D02*
X36004476Y20008039D01*
X36004476Y20008039D02*
X36099714Y19912800D01*
X36099714Y19912800D02*
X36194952Y19865181D01*
X36194952Y19865181D02*
X36385428Y19865181D01*
X35004476Y19865181D02*
X35575904Y19865181D01*
X35290190Y19865181D02*
X35290190Y20865181D01*
X35290190Y20865181D02*
X35385428Y20722324D01*
X35385428Y20722324D02*
X35480666Y20627086D01*
X35480666Y20627086D02*
X35575904Y20579467D01*
X12805580Y28582858D02*
X12853200Y28630477D01*
X12853200Y28630477D02*
X12900819Y28773334D01*
X12900819Y28773334D02*
X12900819Y28868572D01*
X12900819Y28868572D02*
X12853200Y29011429D01*
X12853200Y29011429D02*
X12757961Y29106667D01*
X12757961Y29106667D02*
X12662723Y29154286D01*
X12662723Y29154286D02*
X12472247Y29201905D01*
X12472247Y29201905D02*
X12329390Y29201905D01*
X12329390Y29201905D02*
X12138914Y29154286D01*
X12138914Y29154286D02*
X12043676Y29106667D01*
X12043676Y29106667D02*
X11948438Y29011429D01*
X11948438Y29011429D02*
X11900819Y28868572D01*
X11900819Y28868572D02*
X11900819Y28773334D01*
X11900819Y28773334D02*
X11948438Y28630477D01*
X11948438Y28630477D02*
X11996057Y28582858D01*
X11996057Y28201905D02*
X11948438Y28154286D01*
X11948438Y28154286D02*
X11900819Y28059048D01*
X11900819Y28059048D02*
X11900819Y27820953D01*
X11900819Y27820953D02*
X11948438Y27725715D01*
X11948438Y27725715D02*
X11996057Y27678096D01*
X11996057Y27678096D02*
X12091295Y27630477D01*
X12091295Y27630477D02*
X12186533Y27630477D01*
X12186533Y27630477D02*
X12329390Y27678096D01*
X12329390Y27678096D02*
X12900819Y28249524D01*
X12900819Y28249524D02*
X12900819Y27630477D01*
X11900819Y27297143D02*
X11900819Y26678096D01*
X11900819Y26678096D02*
X12281771Y27011429D01*
X12281771Y27011429D02*
X12281771Y26868572D01*
X12281771Y26868572D02*
X12329390Y26773334D01*
X12329390Y26773334D02*
X12377009Y26725715D01*
X12377009Y26725715D02*
X12472247Y26678096D01*
X12472247Y26678096D02*
X12710342Y26678096D01*
X12710342Y26678096D02*
X12805580Y26725715D01*
X12805580Y26725715D02*
X12853200Y26773334D01*
X12853200Y26773334D02*
X12900819Y26868572D01*
X12900819Y26868572D02*
X12900819Y27154286D01*
X12900819Y27154286D02*
X12853200Y27249524D01*
X12853200Y27249524D02*
X12805580Y27297143D01*
X37599857Y33041420D02*
X37647476Y32993800D01*
X37647476Y32993800D02*
X37790333Y32946181D01*
X37790333Y32946181D02*
X37885571Y32946181D01*
X37885571Y32946181D02*
X38028428Y32993800D01*
X38028428Y32993800D02*
X38123666Y33089039D01*
X38123666Y33089039D02*
X38171285Y33184277D01*
X38171285Y33184277D02*
X38218904Y33374753D01*
X38218904Y33374753D02*
X38218904Y33517610D01*
X38218904Y33517610D02*
X38171285Y33708086D01*
X38171285Y33708086D02*
X38123666Y33803324D01*
X38123666Y33803324D02*
X38028428Y33898562D01*
X38028428Y33898562D02*
X37885571Y33946181D01*
X37885571Y33946181D02*
X37790333Y33946181D01*
X37790333Y33946181D02*
X37647476Y33898562D01*
X37647476Y33898562D02*
X37599857Y33850943D01*
X36647476Y32946181D02*
X37218904Y32946181D01*
X36933190Y32946181D02*
X36933190Y33946181D01*
X36933190Y33946181D02*
X37028428Y33803324D01*
X37028428Y33803324D02*
X37123666Y33708086D01*
X37123666Y33708086D02*
X37218904Y33660467D01*
X36314142Y33946181D02*
X35695095Y33946181D01*
X35695095Y33946181D02*
X36028428Y33565229D01*
X36028428Y33565229D02*
X35885571Y33565229D01*
X35885571Y33565229D02*
X35790333Y33517610D01*
X35790333Y33517610D02*
X35742714Y33469991D01*
X35742714Y33469991D02*
X35695095Y33374753D01*
X35695095Y33374753D02*
X35695095Y33136658D01*
X35695095Y33136658D02*
X35742714Y33041420D01*
X35742714Y33041420D02*
X35790333Y32993800D01*
X35790333Y32993800D02*
X35885571Y32946181D01*
X35885571Y32946181D02*
X36171285Y32946181D01*
X36171285Y32946181D02*
X36266523Y32993800D01*
X36266523Y32993800D02*
X36314142Y33041420D01*
X39504857Y36060420D02*
X39552476Y36012800D01*
X39552476Y36012800D02*
X39695333Y35965181D01*
X39695333Y35965181D02*
X39790571Y35965181D01*
X39790571Y35965181D02*
X39933428Y36012800D01*
X39933428Y36012800D02*
X40028666Y36108039D01*
X40028666Y36108039D02*
X40076285Y36203277D01*
X40076285Y36203277D02*
X40123904Y36393753D01*
X40123904Y36393753D02*
X40123904Y36536610D01*
X40123904Y36536610D02*
X40076285Y36727086D01*
X40076285Y36727086D02*
X40028666Y36822324D01*
X40028666Y36822324D02*
X39933428Y36917562D01*
X39933428Y36917562D02*
X39790571Y36965181D01*
X39790571Y36965181D02*
X39695333Y36965181D01*
X39695333Y36965181D02*
X39552476Y36917562D01*
X39552476Y36917562D02*
X39504857Y36869943D01*
X38552476Y35965181D02*
X39123904Y35965181D01*
X38838190Y35965181D02*
X38838190Y36965181D01*
X38838190Y36965181D02*
X38933428Y36822324D01*
X38933428Y36822324D02*
X39028666Y36727086D01*
X39028666Y36727086D02*
X39123904Y36679467D01*
X38219142Y36965181D02*
X37552476Y36965181D01*
X37552476Y36965181D02*
X37981047Y35965181D01*
X28241523Y42598181D02*
X28241523Y43598181D01*
X28241523Y43598181D02*
X27908190Y42883896D01*
X27908190Y42883896D02*
X27574857Y43598181D01*
X27574857Y43598181D02*
X27574857Y42598181D01*
X26622476Y43598181D02*
X27098666Y43598181D01*
X27098666Y43598181D02*
X27146285Y43121991D01*
X27146285Y43121991D02*
X27098666Y43169610D01*
X27098666Y43169610D02*
X27003428Y43217229D01*
X27003428Y43217229D02*
X26765333Y43217229D01*
X26765333Y43217229D02*
X26670095Y43169610D01*
X26670095Y43169610D02*
X26622476Y43121991D01*
X26622476Y43121991D02*
X26574857Y43026753D01*
X26574857Y43026753D02*
X26574857Y42788658D01*
X26574857Y42788658D02*
X26622476Y42693420D01*
X26622476Y42693420D02*
X26670095Y42645800D01*
X26670095Y42645800D02*
X26765333Y42598181D01*
X26765333Y42598181D02*
X27003428Y42598181D01*
X27003428Y42598181D02*
X27098666Y42645800D01*
X27098666Y42645800D02*
X27146285Y42693420D01*
X38445580Y23756858D02*
X38493200Y23804477D01*
X38493200Y23804477D02*
X38540819Y23947334D01*
X38540819Y23947334D02*
X38540819Y24042572D01*
X38540819Y24042572D02*
X38493200Y24185429D01*
X38493200Y24185429D02*
X38397961Y24280667D01*
X38397961Y24280667D02*
X38302723Y24328286D01*
X38302723Y24328286D02*
X38112247Y24375905D01*
X38112247Y24375905D02*
X37969390Y24375905D01*
X37969390Y24375905D02*
X37778914Y24328286D01*
X37778914Y24328286D02*
X37683676Y24280667D01*
X37683676Y24280667D02*
X37588438Y24185429D01*
X37588438Y24185429D02*
X37540819Y24042572D01*
X37540819Y24042572D02*
X37540819Y23947334D01*
X37540819Y23947334D02*
X37588438Y23804477D01*
X37588438Y23804477D02*
X37636057Y23756858D01*
X38540819Y22804477D02*
X38540819Y23375905D01*
X38540819Y23090191D02*
X37540819Y23090191D01*
X37540819Y23090191D02*
X37683676Y23185429D01*
X37683676Y23185429D02*
X37778914Y23280667D01*
X37778914Y23280667D02*
X37826533Y23375905D01*
X37540819Y21899715D02*
X37540819Y22375905D01*
X37540819Y22375905D02*
X38017009Y22423524D01*
X38017009Y22423524D02*
X37969390Y22375905D01*
X37969390Y22375905D02*
X37921771Y22280667D01*
X37921771Y22280667D02*
X37921771Y22042572D01*
X37921771Y22042572D02*
X37969390Y21947334D01*
X37969390Y21947334D02*
X38017009Y21899715D01*
X38017009Y21899715D02*
X38112247Y21852096D01*
X38112247Y21852096D02*
X38350342Y21852096D01*
X38350342Y21852096D02*
X38445580Y21899715D01*
X38445580Y21899715D02*
X38493200Y21947334D01*
X38493200Y21947334D02*
X38540819Y22042572D01*
X38540819Y22042572D02*
X38540819Y22280667D01*
X38540819Y22280667D02*
X38493200Y22375905D01*
X38493200Y22375905D02*
X38445580Y22423524D01*
X49537857Y19579420D02*
X49585476Y19531800D01*
X49585476Y19531800D02*
X49728333Y19484181D01*
X49728333Y19484181D02*
X49823571Y19484181D01*
X49823571Y19484181D02*
X49966428Y19531800D01*
X49966428Y19531800D02*
X50061666Y19627039D01*
X50061666Y19627039D02*
X50109285Y19722277D01*
X50109285Y19722277D02*
X50156904Y19912753D01*
X50156904Y19912753D02*
X50156904Y20055610D01*
X50156904Y20055610D02*
X50109285Y20246086D01*
X50109285Y20246086D02*
X50061666Y20341324D01*
X50061666Y20341324D02*
X49966428Y20436562D01*
X49966428Y20436562D02*
X49823571Y20484181D01*
X49823571Y20484181D02*
X49728333Y20484181D01*
X49728333Y20484181D02*
X49585476Y20436562D01*
X49585476Y20436562D02*
X49537857Y20388943D01*
X48585476Y19484181D02*
X49156904Y19484181D01*
X48871190Y19484181D02*
X48871190Y20484181D01*
X48871190Y20484181D02*
X48966428Y20341324D01*
X48966428Y20341324D02*
X49061666Y20246086D01*
X49061666Y20246086D02*
X49156904Y20198467D01*
X48014047Y20055610D02*
X48109285Y20103229D01*
X48109285Y20103229D02*
X48156904Y20150848D01*
X48156904Y20150848D02*
X48204523Y20246086D01*
X48204523Y20246086D02*
X48204523Y20293705D01*
X48204523Y20293705D02*
X48156904Y20388943D01*
X48156904Y20388943D02*
X48109285Y20436562D01*
X48109285Y20436562D02*
X48014047Y20484181D01*
X48014047Y20484181D02*
X47823571Y20484181D01*
X47823571Y20484181D02*
X47728333Y20436562D01*
X47728333Y20436562D02*
X47680714Y20388943D01*
X47680714Y20388943D02*
X47633095Y20293705D01*
X47633095Y20293705D02*
X47633095Y20246086D01*
X47633095Y20246086D02*
X47680714Y20150848D01*
X47680714Y20150848D02*
X47728333Y20103229D01*
X47728333Y20103229D02*
X47823571Y20055610D01*
X47823571Y20055610D02*
X48014047Y20055610D01*
X48014047Y20055610D02*
X48109285Y20007991D01*
X48109285Y20007991D02*
X48156904Y19960372D01*
X48156904Y19960372D02*
X48204523Y19865134D01*
X48204523Y19865134D02*
X48204523Y19674658D01*
X48204523Y19674658D02*
X48156904Y19579420D01*
X48156904Y19579420D02*
X48109285Y19531800D01*
X48109285Y19531800D02*
X48014047Y19484181D01*
X48014047Y19484181D02*
X47823571Y19484181D01*
X47823571Y19484181D02*
X47728333Y19531800D01*
X47728333Y19531800D02*
X47680714Y19579420D01*
X47680714Y19579420D02*
X47633095Y19674658D01*
X47633095Y19674658D02*
X47633095Y19865134D01*
X47633095Y19865134D02*
X47680714Y19960372D01*
X47680714Y19960372D02*
X47728333Y20007991D01*
X47728333Y20007991D02*
X47823571Y20055610D01*
X35559904Y35125181D02*
X35559904Y34315658D01*
X35559904Y34315658D02*
X35512285Y34220420D01*
X35512285Y34220420D02*
X35464666Y34172800D01*
X35464666Y34172800D02*
X35369428Y34125181D01*
X35369428Y34125181D02*
X35178952Y34125181D01*
X35178952Y34125181D02*
X35083714Y34172800D01*
X35083714Y34172800D02*
X35036095Y34220420D01*
X35036095Y34220420D02*
X34988476Y34315658D01*
X34988476Y34315658D02*
X34988476Y35125181D01*
X34607523Y35125181D02*
X33988476Y35125181D01*
X33988476Y35125181D02*
X34321809Y34744229D01*
X34321809Y34744229D02*
X34178952Y34744229D01*
X34178952Y34744229D02*
X34083714Y34696610D01*
X34083714Y34696610D02*
X34036095Y34648991D01*
X34036095Y34648991D02*
X33988476Y34553753D01*
X33988476Y34553753D02*
X33988476Y34315658D01*
X33988476Y34315658D02*
X34036095Y34220420D01*
X34036095Y34220420D02*
X34083714Y34172800D01*
X34083714Y34172800D02*
X34178952Y34125181D01*
X34178952Y34125181D02*
X34464666Y34125181D01*
X34464666Y34125181D02*
X34559904Y34172800D01*
X34559904Y34172800D02*
X34607523Y34220420D01*
X24456819Y28995667D02*
X23980628Y29329000D01*
X24456819Y29567095D02*
X23456819Y29567095D01*
X23456819Y29567095D02*
X23456819Y29186143D01*
X23456819Y29186143D02*
X23504438Y29090905D01*
X23504438Y29090905D02*
X23552057Y29043286D01*
X23552057Y29043286D02*
X23647295Y28995667D01*
X23647295Y28995667D02*
X23790152Y28995667D01*
X23790152Y28995667D02*
X23885390Y29043286D01*
X23885390Y29043286D02*
X23933009Y29090905D01*
X23933009Y29090905D02*
X23980628Y29186143D01*
X23980628Y29186143D02*
X23980628Y29567095D01*
X23456819Y28090905D02*
X23456819Y28567095D01*
X23456819Y28567095D02*
X23933009Y28614714D01*
X23933009Y28614714D02*
X23885390Y28567095D01*
X23885390Y28567095D02*
X23837771Y28471857D01*
X23837771Y28471857D02*
X23837771Y28233762D01*
X23837771Y28233762D02*
X23885390Y28138524D01*
X23885390Y28138524D02*
X23933009Y28090905D01*
X23933009Y28090905D02*
X24028247Y28043286D01*
X24028247Y28043286D02*
X24266342Y28043286D01*
X24266342Y28043286D02*
X24361580Y28090905D01*
X24361580Y28090905D02*
X24409200Y28138524D01*
X24409200Y28138524D02*
X24456819Y28233762D01*
X24456819Y28233762D02*
X24456819Y28471857D01*
X24456819Y28471857D02*
X24409200Y28567095D01*
X24409200Y28567095D02*
X24361580Y28614714D01*
X19359428Y6418991D02*
X19692761Y6418991D01*
X19692761Y5895181D02*
X19692761Y6895181D01*
X19692761Y6895181D02*
X19216571Y6895181D01*
X18835618Y5895181D02*
X18835618Y6895181D01*
X18359428Y5895181D02*
X18359428Y6895181D01*
X18359428Y6895181D02*
X18121333Y6895181D01*
X18121333Y6895181D02*
X17978476Y6847562D01*
X17978476Y6847562D02*
X17883238Y6752324D01*
X17883238Y6752324D02*
X17835619Y6657086D01*
X17835619Y6657086D02*
X17788000Y6466610D01*
X17788000Y6466610D02*
X17788000Y6323753D01*
X17788000Y6323753D02*
X17835619Y6133277D01*
X17835619Y6133277D02*
X17883238Y6038039D01*
X17883238Y6038039D02*
X17978476Y5942800D01*
X17978476Y5942800D02*
X18121333Y5895181D01*
X18121333Y5895181D02*
X18359428Y5895181D01*
X17407047Y6799943D02*
X17359428Y6847562D01*
X17359428Y6847562D02*
X17264190Y6895181D01*
X17264190Y6895181D02*
X17026095Y6895181D01*
X17026095Y6895181D02*
X16930857Y6847562D01*
X16930857Y6847562D02*
X16883238Y6799943D01*
X16883238Y6799943D02*
X16835619Y6704705D01*
X16835619Y6704705D02*
X16835619Y6609467D01*
X16835619Y6609467D02*
X16883238Y6466610D01*
X16883238Y6466610D02*
X17454666Y5895181D01*
X17454666Y5895181D02*
X16835619Y5895181D01*
X26236819Y24010858D02*
X25760628Y24344191D01*
X26236819Y24582286D02*
X25236819Y24582286D01*
X25236819Y24582286D02*
X25236819Y24201334D01*
X25236819Y24201334D02*
X25284438Y24106096D01*
X25284438Y24106096D02*
X25332057Y24058477D01*
X25332057Y24058477D02*
X25427295Y24010858D01*
X25427295Y24010858D02*
X25570152Y24010858D01*
X25570152Y24010858D02*
X25665390Y24058477D01*
X25665390Y24058477D02*
X25713009Y24106096D01*
X25713009Y24106096D02*
X25760628Y24201334D01*
X25760628Y24201334D02*
X25760628Y24582286D01*
X26236819Y23058477D02*
X26236819Y23629905D01*
X26236819Y23344191D02*
X25236819Y23344191D01*
X25236819Y23344191D02*
X25379676Y23439429D01*
X25379676Y23439429D02*
X25474914Y23534667D01*
X25474914Y23534667D02*
X25522533Y23629905D01*
X26236819Y22106096D02*
X26236819Y22677524D01*
X26236819Y22391810D02*
X25236819Y22391810D01*
X25236819Y22391810D02*
X25379676Y22487048D01*
X25379676Y22487048D02*
X25474914Y22582286D01*
X25474914Y22582286D02*
X25522533Y22677524D01*
X46100904Y26199181D02*
X46100904Y25389658D01*
X46100904Y25389658D02*
X46053285Y25294420D01*
X46053285Y25294420D02*
X46005666Y25246800D01*
X46005666Y25246800D02*
X45910428Y25199181D01*
X45910428Y25199181D02*
X45719952Y25199181D01*
X45719952Y25199181D02*
X45624714Y25246800D01*
X45624714Y25246800D02*
X45577095Y25294420D01*
X45577095Y25294420D02*
X45529476Y25389658D01*
X45529476Y25389658D02*
X45529476Y26199181D01*
X45100904Y26103943D02*
X45053285Y26151562D01*
X45053285Y26151562D02*
X44958047Y26199181D01*
X44958047Y26199181D02*
X44719952Y26199181D01*
X44719952Y26199181D02*
X44624714Y26151562D01*
X44624714Y26151562D02*
X44577095Y26103943D01*
X44577095Y26103943D02*
X44529476Y26008705D01*
X44529476Y26008705D02*
X44529476Y25913467D01*
X44529476Y25913467D02*
X44577095Y25770610D01*
X44577095Y25770610D02*
X45148523Y25199181D01*
X45148523Y25199181D02*
X44529476Y25199181D01*
X24870580Y23788667D02*
X24918200Y23836286D01*
X24918200Y23836286D02*
X24965819Y23979143D01*
X24965819Y23979143D02*
X24965819Y24074381D01*
X24965819Y24074381D02*
X24918200Y24217238D01*
X24918200Y24217238D02*
X24822961Y24312476D01*
X24822961Y24312476D02*
X24727723Y24360095D01*
X24727723Y24360095D02*
X24537247Y24407714D01*
X24537247Y24407714D02*
X24394390Y24407714D01*
X24394390Y24407714D02*
X24203914Y24360095D01*
X24203914Y24360095D02*
X24108676Y24312476D01*
X24108676Y24312476D02*
X24013438Y24217238D01*
X24013438Y24217238D02*
X23965819Y24074381D01*
X23965819Y24074381D02*
X23965819Y23979143D01*
X23965819Y23979143D02*
X24013438Y23836286D01*
X24013438Y23836286D02*
X24061057Y23788667D01*
X24965819Y23312476D02*
X24965819Y23122000D01*
X24965819Y23122000D02*
X24918200Y23026762D01*
X24918200Y23026762D02*
X24870580Y22979143D01*
X24870580Y22979143D02*
X24727723Y22883905D01*
X24727723Y22883905D02*
X24537247Y22836286D01*
X24537247Y22836286D02*
X24156295Y22836286D01*
X24156295Y22836286D02*
X24061057Y22883905D01*
X24061057Y22883905D02*
X24013438Y22931524D01*
X24013438Y22931524D02*
X23965819Y23026762D01*
X23965819Y23026762D02*
X23965819Y23217238D01*
X23965819Y23217238D02*
X24013438Y23312476D01*
X24013438Y23312476D02*
X24061057Y23360095D01*
X24061057Y23360095D02*
X24156295Y23407714D01*
X24156295Y23407714D02*
X24394390Y23407714D01*
X24394390Y23407714D02*
X24489628Y23360095D01*
X24489628Y23360095D02*
X24537247Y23312476D01*
X24537247Y23312476D02*
X24584866Y23217238D01*
X24584866Y23217238D02*
X24584866Y23026762D01*
X24584866Y23026762D02*
X24537247Y22931524D01*
X24537247Y22931524D02*
X24489628Y22883905D01*
X24489628Y22883905D02*
X24394390Y22836286D01*
X44269819Y28741667D02*
X43793628Y29075000D01*
X44269819Y29313095D02*
X43269819Y29313095D01*
X43269819Y29313095D02*
X43269819Y28932143D01*
X43269819Y28932143D02*
X43317438Y28836905D01*
X43317438Y28836905D02*
X43365057Y28789286D01*
X43365057Y28789286D02*
X43460295Y28741667D01*
X43460295Y28741667D02*
X43603152Y28741667D01*
X43603152Y28741667D02*
X43698390Y28789286D01*
X43698390Y28789286D02*
X43746009Y28836905D01*
X43746009Y28836905D02*
X43793628Y28932143D01*
X43793628Y28932143D02*
X43793628Y29313095D01*
X43603152Y27884524D02*
X44269819Y27884524D01*
X43222200Y28122619D02*
X43936485Y28360714D01*
X43936485Y28360714D02*
X43936485Y27741667D01*
X25947666Y30374420D02*
X25995285Y30326800D01*
X25995285Y30326800D02*
X26138142Y30279181D01*
X26138142Y30279181D02*
X26233380Y30279181D01*
X26233380Y30279181D02*
X26376237Y30326800D01*
X26376237Y30326800D02*
X26471475Y30422039D01*
X26471475Y30422039D02*
X26519094Y30517277D01*
X26519094Y30517277D02*
X26566713Y30707753D01*
X26566713Y30707753D02*
X26566713Y30850610D01*
X26566713Y30850610D02*
X26519094Y31041086D01*
X26519094Y31041086D02*
X26471475Y31136324D01*
X26471475Y31136324D02*
X26376237Y31231562D01*
X26376237Y31231562D02*
X26233380Y31279181D01*
X26233380Y31279181D02*
X26138142Y31279181D01*
X26138142Y31279181D02*
X25995285Y31231562D01*
X25995285Y31231562D02*
X25947666Y31183943D01*
X25090523Y31279181D02*
X25280999Y31279181D01*
X25280999Y31279181D02*
X25376237Y31231562D01*
X25376237Y31231562D02*
X25423856Y31183943D01*
X25423856Y31183943D02*
X25519094Y31041086D01*
X25519094Y31041086D02*
X25566713Y30850610D01*
X25566713Y30850610D02*
X25566713Y30469658D01*
X25566713Y30469658D02*
X25519094Y30374420D01*
X25519094Y30374420D02*
X25471475Y30326800D01*
X25471475Y30326800D02*
X25376237Y30279181D01*
X25376237Y30279181D02*
X25185761Y30279181D01*
X25185761Y30279181D02*
X25090523Y30326800D01*
X25090523Y30326800D02*
X25042904Y30374420D01*
X25042904Y30374420D02*
X24995285Y30469658D01*
X24995285Y30469658D02*
X24995285Y30707753D01*
X24995285Y30707753D02*
X25042904Y30802991D01*
X25042904Y30802991D02*
X25090523Y30850610D01*
X25090523Y30850610D02*
X25185761Y30898229D01*
X25185761Y30898229D02*
X25376237Y30898229D01*
X25376237Y30898229D02*
X25471475Y30850610D01*
X25471475Y30850610D02*
X25519094Y30802991D01*
X25519094Y30802991D02*
X25566713Y30707753D01*
X16803666Y8530420D02*
X16851285Y8482800D01*
X16851285Y8482800D02*
X16994142Y8435181D01*
X16994142Y8435181D02*
X17089380Y8435181D01*
X17089380Y8435181D02*
X17232237Y8482800D01*
X17232237Y8482800D02*
X17327475Y8578039D01*
X17327475Y8578039D02*
X17375094Y8673277D01*
X17375094Y8673277D02*
X17422713Y8863753D01*
X17422713Y8863753D02*
X17422713Y9006610D01*
X17422713Y9006610D02*
X17375094Y9197086D01*
X17375094Y9197086D02*
X17327475Y9292324D01*
X17327475Y9292324D02*
X17232237Y9387562D01*
X17232237Y9387562D02*
X17089380Y9435181D01*
X17089380Y9435181D02*
X16994142Y9435181D01*
X16994142Y9435181D02*
X16851285Y9387562D01*
X16851285Y9387562D02*
X16803666Y9339943D01*
X16422713Y9339943D02*
X16375094Y9387562D01*
X16375094Y9387562D02*
X16279856Y9435181D01*
X16279856Y9435181D02*
X16041761Y9435181D01*
X16041761Y9435181D02*
X15946523Y9387562D01*
X15946523Y9387562D02*
X15898904Y9339943D01*
X15898904Y9339943D02*
X15851285Y9244705D01*
X15851285Y9244705D02*
X15851285Y9149467D01*
X15851285Y9149467D02*
X15898904Y9006610D01*
X15898904Y9006610D02*
X16470332Y8435181D01*
X16470332Y8435181D02*
X15851285Y8435181D01*
X41380580Y15025667D02*
X41428200Y15073286D01*
X41428200Y15073286D02*
X41475819Y15216143D01*
X41475819Y15216143D02*
X41475819Y15311381D01*
X41475819Y15311381D02*
X41428200Y15454238D01*
X41428200Y15454238D02*
X41332961Y15549476D01*
X41332961Y15549476D02*
X41237723Y15597095D01*
X41237723Y15597095D02*
X41047247Y15644714D01*
X41047247Y15644714D02*
X40904390Y15644714D01*
X40904390Y15644714D02*
X40713914Y15597095D01*
X40713914Y15597095D02*
X40618676Y15549476D01*
X40618676Y15549476D02*
X40523438Y15454238D01*
X40523438Y15454238D02*
X40475819Y15311381D01*
X40475819Y15311381D02*
X40475819Y15216143D01*
X40475819Y15216143D02*
X40523438Y15073286D01*
X40523438Y15073286D02*
X40571057Y15025667D01*
X40809152Y14168524D02*
X41475819Y14168524D01*
X40428200Y14406619D02*
X41142485Y14644714D01*
X41142485Y14644714D02*
X41142485Y14025667D01*
X31187819Y36361667D02*
X30711628Y36695000D01*
X31187819Y36933095D02*
X30187819Y36933095D01*
X30187819Y36933095D02*
X30187819Y36552143D01*
X30187819Y36552143D02*
X30235438Y36456905D01*
X30235438Y36456905D02*
X30283057Y36409286D01*
X30283057Y36409286D02*
X30378295Y36361667D01*
X30378295Y36361667D02*
X30521152Y36361667D01*
X30521152Y36361667D02*
X30616390Y36409286D01*
X30616390Y36409286D02*
X30664009Y36456905D01*
X30664009Y36456905D02*
X30711628Y36552143D01*
X30711628Y36552143D02*
X30711628Y36933095D01*
X30283057Y35980714D02*
X30235438Y35933095D01*
X30235438Y35933095D02*
X30187819Y35837857D01*
X30187819Y35837857D02*
X30187819Y35599762D01*
X30187819Y35599762D02*
X30235438Y35504524D01*
X30235438Y35504524D02*
X30283057Y35456905D01*
X30283057Y35456905D02*
X30378295Y35409286D01*
X30378295Y35409286D02*
X30473533Y35409286D01*
X30473533Y35409286D02*
X30616390Y35456905D01*
X30616390Y35456905D02*
X31187819Y36028333D01*
X31187819Y36028333D02*
X31187819Y35409286D01*
X16967819Y22605905D02*
X17777342Y22605905D01*
X17777342Y22605905D02*
X17872580Y22558286D01*
X17872580Y22558286D02*
X17920200Y22510667D01*
X17920200Y22510667D02*
X17967819Y22415429D01*
X17967819Y22415429D02*
X17967819Y22224953D01*
X17967819Y22224953D02*
X17920200Y22129715D01*
X17920200Y22129715D02*
X17872580Y22082096D01*
X17872580Y22082096D02*
X17777342Y22034477D01*
X17777342Y22034477D02*
X16967819Y22034477D01*
X17301152Y21129715D02*
X17967819Y21129715D01*
X16920200Y21367810D02*
X17634485Y21605905D01*
X17634485Y21605905D02*
X17634485Y20986858D01*
X44362666Y14913181D02*
X44695999Y15389372D01*
X44934094Y14913181D02*
X44934094Y15913181D01*
X44934094Y15913181D02*
X44553142Y15913181D01*
X44553142Y15913181D02*
X44457904Y15865562D01*
X44457904Y15865562D02*
X44410285Y15817943D01*
X44410285Y15817943D02*
X44362666Y15722705D01*
X44362666Y15722705D02*
X44362666Y15579848D01*
X44362666Y15579848D02*
X44410285Y15484610D01*
X44410285Y15484610D02*
X44457904Y15436991D01*
X44457904Y15436991D02*
X44553142Y15389372D01*
X44553142Y15389372D02*
X44934094Y15389372D01*
X43410285Y14913181D02*
X43981713Y14913181D01*
X43695999Y14913181D02*
X43695999Y15913181D01*
X43695999Y15913181D02*
X43791237Y15770324D01*
X43791237Y15770324D02*
X43886475Y15675086D01*
X43886475Y15675086D02*
X43981713Y15627467D01*
X54998857Y32562420D02*
X55046476Y32514800D01*
X55046476Y32514800D02*
X55189333Y32467181D01*
X55189333Y32467181D02*
X55284571Y32467181D01*
X55284571Y32467181D02*
X55427428Y32514800D01*
X55427428Y32514800D02*
X55522666Y32610039D01*
X55522666Y32610039D02*
X55570285Y32705277D01*
X55570285Y32705277D02*
X55617904Y32895753D01*
X55617904Y32895753D02*
X55617904Y33038610D01*
X55617904Y33038610D02*
X55570285Y33229086D01*
X55570285Y33229086D02*
X55522666Y33324324D01*
X55522666Y33324324D02*
X55427428Y33419562D01*
X55427428Y33419562D02*
X55284571Y33467181D01*
X55284571Y33467181D02*
X55189333Y33467181D01*
X55189333Y33467181D02*
X55046476Y33419562D01*
X55046476Y33419562D02*
X54998857Y33371943D01*
X54046476Y32467181D02*
X54617904Y32467181D01*
X54332190Y32467181D02*
X54332190Y33467181D01*
X54332190Y33467181D02*
X54427428Y33324324D01*
X54427428Y33324324D02*
X54522666Y33229086D01*
X54522666Y33229086D02*
X54617904Y33181467D01*
X53189333Y33133848D02*
X53189333Y32467181D01*
X53427428Y33514800D02*
X53665523Y32800515D01*
X53665523Y32800515D02*
X53046476Y32800515D01*
X31535666Y32533420D02*
X31583285Y32485800D01*
X31583285Y32485800D02*
X31726142Y32438181D01*
X31726142Y32438181D02*
X31821380Y32438181D01*
X31821380Y32438181D02*
X31964237Y32485800D01*
X31964237Y32485800D02*
X32059475Y32581039D01*
X32059475Y32581039D02*
X32107094Y32676277D01*
X32107094Y32676277D02*
X32154713Y32866753D01*
X32154713Y32866753D02*
X32154713Y33009610D01*
X32154713Y33009610D02*
X32107094Y33200086D01*
X32107094Y33200086D02*
X32059475Y33295324D01*
X32059475Y33295324D02*
X31964237Y33390562D01*
X31964237Y33390562D02*
X31821380Y33438181D01*
X31821380Y33438181D02*
X31726142Y33438181D01*
X31726142Y33438181D02*
X31583285Y33390562D01*
X31583285Y33390562D02*
X31535666Y33342943D01*
X31202332Y33438181D02*
X30535666Y33438181D01*
X30535666Y33438181D02*
X30964237Y32438181D01*
X36956904Y24421181D02*
X36956904Y23611658D01*
X36956904Y23611658D02*
X36909285Y23516420D01*
X36909285Y23516420D02*
X36861666Y23468800D01*
X36861666Y23468800D02*
X36766428Y23421181D01*
X36766428Y23421181D02*
X36575952Y23421181D01*
X36575952Y23421181D02*
X36480714Y23468800D01*
X36480714Y23468800D02*
X36433095Y23516420D01*
X36433095Y23516420D02*
X36385476Y23611658D01*
X36385476Y23611658D02*
X36385476Y24421181D01*
X35385476Y23421181D02*
X35956904Y23421181D01*
X35671190Y23421181D02*
X35671190Y24421181D01*
X35671190Y24421181D02*
X35766428Y24278324D01*
X35766428Y24278324D02*
X35861666Y24183086D01*
X35861666Y24183086D02*
X35956904Y24135467D01*
X12932580Y25026858D02*
X12980200Y25074477D01*
X12980200Y25074477D02*
X13027819Y25217334D01*
X13027819Y25217334D02*
X13027819Y25312572D01*
X13027819Y25312572D02*
X12980200Y25455429D01*
X12980200Y25455429D02*
X12884961Y25550667D01*
X12884961Y25550667D02*
X12789723Y25598286D01*
X12789723Y25598286D02*
X12599247Y25645905D01*
X12599247Y25645905D02*
X12456390Y25645905D01*
X12456390Y25645905D02*
X12265914Y25598286D01*
X12265914Y25598286D02*
X12170676Y25550667D01*
X12170676Y25550667D02*
X12075438Y25455429D01*
X12075438Y25455429D02*
X12027819Y25312572D01*
X12027819Y25312572D02*
X12027819Y25217334D01*
X12027819Y25217334D02*
X12075438Y25074477D01*
X12075438Y25074477D02*
X12123057Y25026858D01*
X12123057Y24645905D02*
X12075438Y24598286D01*
X12075438Y24598286D02*
X12027819Y24503048D01*
X12027819Y24503048D02*
X12027819Y24264953D01*
X12027819Y24264953D02*
X12075438Y24169715D01*
X12075438Y24169715D02*
X12123057Y24122096D01*
X12123057Y24122096D02*
X12218295Y24074477D01*
X12218295Y24074477D02*
X12313533Y24074477D01*
X12313533Y24074477D02*
X12456390Y24122096D01*
X12456390Y24122096D02*
X13027819Y24693524D01*
X13027819Y24693524D02*
X13027819Y24074477D01*
X12361152Y23217334D02*
X13027819Y23217334D01*
X11980200Y23455429D02*
X12694485Y23693524D01*
X12694485Y23693524D02*
X12694485Y23074477D01*
X25857580Y29090858D02*
X25905200Y29138477D01*
X25905200Y29138477D02*
X25952819Y29281334D01*
X25952819Y29281334D02*
X25952819Y29376572D01*
X25952819Y29376572D02*
X25905200Y29519429D01*
X25905200Y29519429D02*
X25809961Y29614667D01*
X25809961Y29614667D02*
X25714723Y29662286D01*
X25714723Y29662286D02*
X25524247Y29709905D01*
X25524247Y29709905D02*
X25381390Y29709905D01*
X25381390Y29709905D02*
X25190914Y29662286D01*
X25190914Y29662286D02*
X25095676Y29614667D01*
X25095676Y29614667D02*
X25000438Y29519429D01*
X25000438Y29519429D02*
X24952819Y29376572D01*
X24952819Y29376572D02*
X24952819Y29281334D01*
X24952819Y29281334D02*
X25000438Y29138477D01*
X25000438Y29138477D02*
X25048057Y29090858D01*
X25952819Y28138477D02*
X25952819Y28709905D01*
X25952819Y28424191D02*
X24952819Y28424191D01*
X24952819Y28424191D02*
X25095676Y28519429D01*
X25095676Y28519429D02*
X25190914Y28614667D01*
X25190914Y28614667D02*
X25238533Y28709905D01*
X24952819Y27281334D02*
X24952819Y27471810D01*
X24952819Y27471810D02*
X25000438Y27567048D01*
X25000438Y27567048D02*
X25048057Y27614667D01*
X25048057Y27614667D02*
X25190914Y27709905D01*
X25190914Y27709905D02*
X25381390Y27757524D01*
X25381390Y27757524D02*
X25762342Y27757524D01*
X25762342Y27757524D02*
X25857580Y27709905D01*
X25857580Y27709905D02*
X25905200Y27662286D01*
X25905200Y27662286D02*
X25952819Y27567048D01*
X25952819Y27567048D02*
X25952819Y27376572D01*
X25952819Y27376572D02*
X25905200Y27281334D01*
X25905200Y27281334D02*
X25857580Y27233715D01*
X25857580Y27233715D02*
X25762342Y27186096D01*
X25762342Y27186096D02*
X25524247Y27186096D01*
X25524247Y27186096D02*
X25429009Y27233715D01*
X25429009Y27233715D02*
X25381390Y27281334D01*
X25381390Y27281334D02*
X25333771Y27376572D01*
X25333771Y27376572D02*
X25333771Y27567048D01*
X25333771Y27567048D02*
X25381390Y27662286D01*
X25381390Y27662286D02*
X25429009Y27709905D01*
X25429009Y27709905D02*
X25524247Y27757524D01*
X32551666Y20627181D02*
X32884999Y21103372D01*
X33123094Y20627181D02*
X33123094Y21627181D01*
X33123094Y21627181D02*
X32742142Y21627181D01*
X32742142Y21627181D02*
X32646904Y21579562D01*
X32646904Y21579562D02*
X32599285Y21531943D01*
X32599285Y21531943D02*
X32551666Y21436705D01*
X32551666Y21436705D02*
X32551666Y21293848D01*
X32551666Y21293848D02*
X32599285Y21198610D01*
X32599285Y21198610D02*
X32646904Y21150991D01*
X32646904Y21150991D02*
X32742142Y21103372D01*
X32742142Y21103372D02*
X33123094Y21103372D01*
X32218332Y21627181D02*
X31599285Y21627181D01*
X31599285Y21627181D02*
X31932618Y21246229D01*
X31932618Y21246229D02*
X31789761Y21246229D01*
X31789761Y21246229D02*
X31694523Y21198610D01*
X31694523Y21198610D02*
X31646904Y21150991D01*
X31646904Y21150991D02*
X31599285Y21055753D01*
X31599285Y21055753D02*
X31599285Y20817658D01*
X31599285Y20817658D02*
X31646904Y20722420D01*
X31646904Y20722420D02*
X31694523Y20674800D01*
X31694523Y20674800D02*
X31789761Y20627181D01*
X31789761Y20627181D02*
X32075475Y20627181D01*
X32075475Y20627181D02*
X32170713Y20674800D01*
X32170713Y20674800D02*
X32218332Y20722420D01*
X13154819Y14644667D02*
X13154819Y15120857D01*
X13154819Y15120857D02*
X12154819Y15120857D01*
X13154819Y13787524D02*
X13154819Y14358952D01*
X13154819Y14073238D02*
X12154819Y14073238D01*
X12154819Y14073238D02*
X12297676Y14168476D01*
X12297676Y14168476D02*
X12392914Y14263714D01*
X12392914Y14263714D02*
X12440533Y14358952D01*
X29950580Y12104667D02*
X29998200Y12152286D01*
X29998200Y12152286D02*
X30045819Y12295143D01*
X30045819Y12295143D02*
X30045819Y12390381D01*
X30045819Y12390381D02*
X29998200Y12533238D01*
X29998200Y12533238D02*
X29902961Y12628476D01*
X29902961Y12628476D02*
X29807723Y12676095D01*
X29807723Y12676095D02*
X29617247Y12723714D01*
X29617247Y12723714D02*
X29474390Y12723714D01*
X29474390Y12723714D02*
X29283914Y12676095D01*
X29283914Y12676095D02*
X29188676Y12628476D01*
X29188676Y12628476D02*
X29093438Y12533238D01*
X29093438Y12533238D02*
X29045819Y12390381D01*
X29045819Y12390381D02*
X29045819Y12295143D01*
X29045819Y12295143D02*
X29093438Y12152286D01*
X29093438Y12152286D02*
X29141057Y12104667D01*
X29045819Y11199905D02*
X29045819Y11676095D01*
X29045819Y11676095D02*
X29522009Y11723714D01*
X29522009Y11723714D02*
X29474390Y11676095D01*
X29474390Y11676095D02*
X29426771Y11580857D01*
X29426771Y11580857D02*
X29426771Y11342762D01*
X29426771Y11342762D02*
X29474390Y11247524D01*
X29474390Y11247524D02*
X29522009Y11199905D01*
X29522009Y11199905D02*
X29617247Y11152286D01*
X29617247Y11152286D02*
X29855342Y11152286D01*
X29855342Y11152286D02*
X29950580Y11199905D01*
X29950580Y11199905D02*
X29998200Y11247524D01*
X29998200Y11247524D02*
X30045819Y11342762D01*
X30045819Y11342762D02*
X30045819Y11580857D01*
X30045819Y11580857D02*
X29998200Y11676095D01*
X29998200Y11676095D02*
X29950580Y11723714D01*
X40330333Y44106181D02*
X40330333Y43391896D01*
X40330333Y43391896D02*
X40377952Y43249039D01*
X40377952Y43249039D02*
X40473190Y43153800D01*
X40473190Y43153800D02*
X40616047Y43106181D01*
X40616047Y43106181D02*
X40711285Y43106181D01*
X39854142Y43106181D02*
X39854142Y44106181D01*
X39854142Y44106181D02*
X39473190Y44106181D01*
X39473190Y44106181D02*
X39377952Y44058562D01*
X39377952Y44058562D02*
X39330333Y44010943D01*
X39330333Y44010943D02*
X39282714Y43915705D01*
X39282714Y43915705D02*
X39282714Y43772848D01*
X39282714Y43772848D02*
X39330333Y43677610D01*
X39330333Y43677610D02*
X39377952Y43629991D01*
X39377952Y43629991D02*
X39473190Y43582372D01*
X39473190Y43582372D02*
X39854142Y43582372D01*
X38330333Y43106181D02*
X38901761Y43106181D01*
X38616047Y43106181D02*
X38616047Y44106181D01*
X38616047Y44106181D02*
X38711285Y43963324D01*
X38711285Y43963324D02*
X38806523Y43868086D01*
X38806523Y43868086D02*
X38901761Y43820467D01*
X23280666Y11229181D02*
X23613999Y11705372D01*
X23852094Y11229181D02*
X23852094Y12229181D01*
X23852094Y12229181D02*
X23471142Y12229181D01*
X23471142Y12229181D02*
X23375904Y12181562D01*
X23375904Y12181562D02*
X23328285Y12133943D01*
X23328285Y12133943D02*
X23280666Y12038705D01*
X23280666Y12038705D02*
X23280666Y11895848D01*
X23280666Y11895848D02*
X23328285Y11800610D01*
X23328285Y11800610D02*
X23375904Y11752991D01*
X23375904Y11752991D02*
X23471142Y11705372D01*
X23471142Y11705372D02*
X23852094Y11705372D01*
X22947332Y12229181D02*
X22280666Y12229181D01*
X22280666Y12229181D02*
X22709237Y11229181D01*
D11*
%TO.C,C22*%
X13743000Y17361748D02*
X13743000Y17884252D01*
X15213000Y17361748D02*
X15213000Y17884252D01*
%TO.C,L3*%
X59130001Y26270378D02*
X59130001Y27069622D01*
X60250001Y26270378D02*
X60250001Y27069622D01*
%TO.C,C3*%
X37746000Y19169748D02*
X37746000Y19692252D01*
X39216000Y19169748D02*
X39216000Y19692252D01*
%TO.C,L2*%
X16054000Y17518748D02*
X16054000Y18041252D01*
X17474000Y17518748D02*
X17474000Y18041252D01*
%TO.C,C20*%
X20982000Y32123748D02*
X20982000Y32646252D01*
X22452000Y32123748D02*
X22452000Y32646252D01*
%TO.C,R8*%
X25681000Y15266936D02*
X25681000Y15721064D01*
X27151000Y15266936D02*
X27151000Y15721064D01*
%TO.C,R12*%
X60425000Y22833064D02*
X60425000Y22378936D01*
X58955000Y22833064D02*
X58955000Y22378936D01*
%TO.C,C1*%
X56522252Y15267000D02*
X55999748Y15267000D01*
X56522252Y16737000D02*
X55999748Y16737000D01*
%TO.C,C8*%
X40359000Y28963252D02*
X40359000Y28440748D01*
X38889000Y28963252D02*
X38889000Y28440748D01*
%TO.C,C21*%
X16756748Y15467000D02*
X17279252Y15467000D01*
X16756748Y13997000D02*
X17279252Y13997000D01*
%TO.C,C11*%
X22852748Y18126000D02*
X23375252Y18126000D01*
X22852748Y16656000D02*
X23375252Y16656000D01*
%TO.C,D1*%
X12820000Y20099000D02*
X8410000Y20099000D01*
X12820000Y22319000D02*
X12820000Y20099000D01*
X8410000Y22319000D02*
X12820000Y22319000D01*
%TO.C,R10*%
X30199000Y27786064D02*
X30199000Y27331936D01*
X28729000Y27786064D02*
X28729000Y27331936D01*
%TO.C,R9*%
X28856000Y23140936D02*
X28856000Y23595064D01*
X30326000Y23140936D02*
X30326000Y23595064D01*
%TO.C,R6*%
X21490000Y22624936D02*
X21490000Y23079064D01*
X22960000Y22624936D02*
X22960000Y23079064D01*
%TO.C,C12*%
X27990748Y21172000D02*
X29413252Y21172000D01*
X27990748Y18452000D02*
X29413252Y18452000D01*
D10*
%TO.C,C19*%
X14205000Y32189000D02*
X14205000Y30489000D01*
X14205000Y30489000D02*
X15855000Y30489000D01*
X15855000Y32189000D02*
X14205000Y32189000D01*
X16855000Y30489000D02*
X18505000Y30489000D01*
X18505000Y32189000D02*
X16855000Y32189000D01*
X18505000Y30489000D02*
X18505000Y32189000D01*
D11*
%TO.C,C10*%
X21312000Y20739000D02*
X25222000Y20739000D01*
X21312000Y18869000D02*
X21312000Y20739000D01*
X25222000Y18869000D02*
X21312000Y18869000D01*
%TO.C,Q1*%
X36993000Y17526000D02*
X36993000Y18176000D01*
X36993000Y17526000D02*
X36993000Y16876000D01*
X33873000Y17526000D02*
X33873000Y19201000D01*
X33873000Y17526000D02*
X33873000Y16876000D01*
%TO.C,C23*%
X13283000Y28972000D02*
X17193000Y28972000D01*
X13283000Y27102000D02*
X13283000Y28972000D01*
X17193000Y27102000D02*
X13283000Y27102000D01*
%TO.C,C13*%
X36568748Y32231000D02*
X37091252Y32231000D01*
X36568748Y30761000D02*
X37091252Y30761000D01*
%TO.C,C17*%
X38600748Y38835000D02*
X39123252Y38835000D01*
X38600748Y37365000D02*
X39123252Y37365000D01*
%TO.C,M5*%
X51710000Y14200000D02*
X51710000Y12600000D01*
X51710000Y20200000D02*
X51710000Y18600000D01*
X51710000Y26200000D02*
X51710000Y24600000D01*
X51710000Y32200000D02*
X51710000Y30600000D01*
X51710000Y38200000D02*
X51710000Y36600000D01*
X48360000Y9250000D02*
X46760000Y9250000D01*
X48360000Y41550000D02*
X46760000Y41550000D01*
X42360000Y9250000D02*
X40760000Y9250000D01*
X42360000Y41550000D02*
X40760000Y41550000D01*
X36360000Y9250000D02*
X34760000Y9250000D01*
X36360000Y41550000D02*
X34760000Y41550000D01*
X30360000Y9250000D02*
X28760000Y9250000D01*
X30360000Y41550000D02*
X28760000Y41550000D01*
X24360000Y9250000D02*
X22760000Y9250000D01*
X24360000Y41550000D02*
X22760000Y41550000D01*
X19410000Y14200000D02*
X19410000Y12600000D01*
X19410000Y20200000D02*
X19410000Y18600000D01*
X19410000Y26200000D02*
X19410000Y24600000D01*
X19410000Y32200000D02*
X19410000Y30600000D01*
X19410000Y38200000D02*
X19410000Y36600000D01*
%TO.C,C15*%
X41746000Y24841252D02*
X41746000Y23418748D01*
X39026000Y24841252D02*
X39026000Y23418748D01*
%TO.C,C18*%
X45458748Y20801000D02*
X45981252Y20801000D01*
X45458748Y19331000D02*
X45981252Y19331000D01*
%TO.C,U3*%
X33708000Y35420000D02*
X35448000Y35420000D01*
X34148000Y38240000D02*
X35448000Y38240000D01*
%TO.C,R5*%
X21617000Y28601936D02*
X21617000Y29056064D01*
X23087000Y28601936D02*
X23087000Y29056064D01*
%TO.C,R11*%
X28167000Y23595064D02*
X28167000Y23140936D01*
X26697000Y23595064D02*
X26697000Y23140936D01*
%TO.C,U2*%
X45466000Y24674000D02*
X44816000Y24674000D01*
X45466000Y24674000D02*
X46116000Y24674000D01*
X45466000Y21554000D02*
X43791000Y21554000D01*
X45466000Y21554000D02*
X46116000Y21554000D01*
%TO.C,C9*%
X21312000Y26708000D02*
X25222000Y26708000D01*
X21312000Y24838000D02*
X21312000Y26708000D01*
X25222000Y24838000D02*
X21312000Y24838000D01*
%TO.C,R4*%
X42518000Y28802064D02*
X42518000Y28347936D01*
X41048000Y28802064D02*
X41048000Y28347936D01*
%TO.C,C6*%
X28836252Y29999000D02*
X28313748Y29999000D01*
X28836252Y31469000D02*
X28313748Y31469000D01*
%TO.C,C2*%
X16248748Y11530000D02*
X16771252Y11530000D01*
X16248748Y10060000D02*
X16771252Y10060000D01*
%TO.C,C4*%
X40086000Y16105000D02*
X40086000Y20015000D01*
X41956000Y16105000D02*
X40086000Y16105000D01*
X41956000Y20015000D02*
X41956000Y16105000D01*
%TO.C,R2*%
X28348000Y35967936D02*
X28348000Y36422064D01*
X29818000Y35967936D02*
X29818000Y36422064D01*
%TO.C,U4*%
X13553000Y21844000D02*
X13553000Y21044000D01*
X13553000Y21844000D02*
X13553000Y22644000D01*
X16673000Y21844000D02*
X16673000Y20044000D01*
X16673000Y21844000D02*
X16673000Y22644000D01*
%TO.C,R1*%
X43968936Y17753000D02*
X44423064Y17753000D01*
X43968936Y16283000D02*
X44423064Y16283000D01*
%TO.C,C14*%
X54617252Y30507000D02*
X54094748Y30507000D01*
X54617252Y31977000D02*
X54094748Y31977000D01*
%TO.C,C7*%
X30123000Y32085000D02*
X26213000Y32085000D01*
X30123000Y33955000D02*
X30123000Y32085000D01*
X26213000Y33955000D02*
X30123000Y33955000D01*
%TO.C,U1*%
X34417000Y24999000D02*
X36367000Y24999000D01*
X34417000Y24999000D02*
X32467000Y24999000D01*
X34417000Y30119000D02*
X37867000Y30119000D01*
X34417000Y30119000D02*
X32467000Y30119000D01*
%TO.C,C24*%
X13283000Y26432000D02*
X17193000Y26432000D01*
X13283000Y24562000D02*
X13283000Y26432000D01*
X17193000Y24562000D02*
X13283000Y24562000D01*
%TO.C,C16*%
X27913000Y27820252D02*
X27913000Y27297748D01*
X26443000Y27820252D02*
X26443000Y27297748D01*
%TO.C,R3*%
X31650000Y18441936D02*
X31650000Y18896064D01*
X33120000Y18441936D02*
X33120000Y18896064D01*
%TO.C,L1*%
X13841000Y13925733D02*
X13841000Y14268267D01*
X14861000Y13925733D02*
X14861000Y14268267D01*
%TO.C,C5*%
X30951000Y16205252D02*
X30951000Y14782748D01*
X28231000Y16205252D02*
X28231000Y14782748D01*
%TO.C,JP1*%
X33510000Y43988000D02*
X33510000Y43388000D01*
X34060000Y45188000D02*
X34660000Y45188000D01*
X34160000Y42688000D02*
X36960000Y42688000D01*
X34360000Y44888000D02*
X34060000Y45188000D01*
X34360000Y44888000D02*
X34660000Y45188000D01*
X36960000Y44688000D02*
X34160000Y44688000D01*
X37610000Y43388000D02*
X37610000Y43988000D01*
X34210000Y44688000D02*
G75*
G03*
X33510000Y43988000I-1J-699999D01*
G01*
X33510000Y43388000D02*
G75*
G03*
X34210000Y42688000I699999J-1D01*
G01*
X37610000Y43988000D02*
G75*
G03*
X36910000Y44688000I-700000J0D01*
G01*
X36910000Y42688000D02*
G75*
G03*
X37610000Y43388000I0J700000D01*
G01*
%TO.C,R7*%
X23341064Y14370000D02*
X22886936Y14370000D01*
X23341064Y15840000D02*
X22886936Y15840000D01*
%TD*%
M02*
