%TF.GenerationSoftware,KiCad,Pcbnew,7.0.7-7.0.7~ubuntu23.04.1*%
%TF.CreationDate,2023-09-24T22:03:25+00:00*%
%TF.ProjectId,PIND02,50494e44-3032-42e6-9b69-6361645f7063,rev?*%
%TF.SameCoordinates,Original*%
%TF.FileFunction,Legend,Bot*%
%TF.FilePolarity,Positive*%
%FSLAX46Y46*%
G04 Gerber Fmt 4.6, Leading zero omitted, Abs format (unit mm)*
G04 Created by KiCad (PCBNEW 7.0.7-7.0.7~ubuntu23.04.1) date 2023-09-24 22:03:25*
%MOMM*%
%LPD*%
G01*
G04 APERTURE LIST*
%ADD10C,0.150000*%
%ADD11C,0.120000*%
G04 APERTURE END LIST*
D10*
X-14524143Y46402420D02*
X-14476524Y46354800D01*
X-14476524Y46354800D02*
X-14333667Y46307181D01*
X-14333667Y46307181D02*
X-14238429Y46307181D01*
X-14238429Y46307181D02*
X-14095572Y46354800D01*
X-14095572Y46354800D02*
X-14000334Y46450039D01*
X-14000334Y46450039D02*
X-13952715Y46545277D01*
X-13952715Y46545277D02*
X-13905096Y46735753D01*
X-13905096Y46735753D02*
X-13905096Y46878610D01*
X-13905096Y46878610D02*
X-13952715Y47069086D01*
X-13952715Y47069086D02*
X-14000334Y47164324D01*
X-14000334Y47164324D02*
X-14095572Y47259562D01*
X-14095572Y47259562D02*
X-14238429Y47307181D01*
X-14238429Y47307181D02*
X-14333667Y47307181D01*
X-14333667Y47307181D02*
X-14476524Y47259562D01*
X-14476524Y47259562D02*
X-14524143Y47211943D01*
X-14905096Y47211943D02*
X-14952715Y47259562D01*
X-14952715Y47259562D02*
X-15047953Y47307181D01*
X-15047953Y47307181D02*
X-15286048Y47307181D01*
X-15286048Y47307181D02*
X-15381286Y47259562D01*
X-15381286Y47259562D02*
X-15428905Y47211943D01*
X-15428905Y47211943D02*
X-15476524Y47116705D01*
X-15476524Y47116705D02*
X-15476524Y47021467D01*
X-15476524Y47021467D02*
X-15428905Y46878610D01*
X-15428905Y46878610D02*
X-14857477Y46307181D01*
X-14857477Y46307181D02*
X-15476524Y46307181D01*
X-15857477Y47211943D02*
X-15905096Y47259562D01*
X-15905096Y47259562D02*
X-16000334Y47307181D01*
X-16000334Y47307181D02*
X-16238429Y47307181D01*
X-16238429Y47307181D02*
X-16333667Y47259562D01*
X-16333667Y47259562D02*
X-16381286Y47211943D01*
X-16381286Y47211943D02*
X-16428905Y47116705D01*
X-16428905Y47116705D02*
X-16428905Y47021467D01*
X-16428905Y47021467D02*
X-16381286Y46878610D01*
X-16381286Y46878610D02*
X-15809858Y46307181D01*
X-15809858Y46307181D02*
X-16428905Y46307181D01*
X58213819Y23915667D02*
X58213819Y24391857D01*
X58213819Y24391857D02*
X57213819Y24391857D01*
X57213819Y23677571D02*
X57213819Y23058524D01*
X57213819Y23058524D02*
X57594771Y23391857D01*
X57594771Y23391857D02*
X57594771Y23249000D01*
X57594771Y23249000D02*
X57642390Y23153762D01*
X57642390Y23153762D02*
X57690009Y23106143D01*
X57690009Y23106143D02*
X57785247Y23058524D01*
X57785247Y23058524D02*
X58023342Y23058524D01*
X58023342Y23058524D02*
X58118580Y23106143D01*
X58118580Y23106143D02*
X58166200Y23153762D01*
X58166200Y23153762D02*
X58213819Y23249000D01*
X58213819Y23249000D02*
X58213819Y23534714D01*
X58213819Y23534714D02*
X58166200Y23629952D01*
X58166200Y23629952D02*
X58118580Y23677571D01*
X46394666Y20243420D02*
X46442285Y20195800D01*
X46442285Y20195800D02*
X46585142Y20148181D01*
X46585142Y20148181D02*
X46680380Y20148181D01*
X46680380Y20148181D02*
X46823237Y20195800D01*
X46823237Y20195800D02*
X46918475Y20291039D01*
X46918475Y20291039D02*
X46966094Y20386277D01*
X46966094Y20386277D02*
X47013713Y20576753D01*
X47013713Y20576753D02*
X47013713Y20719610D01*
X47013713Y20719610D02*
X46966094Y20910086D01*
X46966094Y20910086D02*
X46918475Y21005324D01*
X46918475Y21005324D02*
X46823237Y21100562D01*
X46823237Y21100562D02*
X46680380Y21148181D01*
X46680380Y21148181D02*
X46585142Y21148181D01*
X46585142Y21148181D02*
X46442285Y21100562D01*
X46442285Y21100562D02*
X46394666Y21052943D01*
X46061332Y21148181D02*
X45442285Y21148181D01*
X45442285Y21148181D02*
X45775618Y20767229D01*
X45775618Y20767229D02*
X45632761Y20767229D01*
X45632761Y20767229D02*
X45537523Y20719610D01*
X45537523Y20719610D02*
X45489904Y20671991D01*
X45489904Y20671991D02*
X45442285Y20576753D01*
X45442285Y20576753D02*
X45442285Y20338658D01*
X45442285Y20338658D02*
X45489904Y20243420D01*
X45489904Y20243420D02*
X45537523Y20195800D01*
X45537523Y20195800D02*
X45632761Y20148181D01*
X45632761Y20148181D02*
X45918475Y20148181D01*
X45918475Y20148181D02*
X46013713Y20195800D01*
X46013713Y20195800D02*
X46061332Y20243420D01*
X-2373334Y41581181D02*
X-1897144Y41581181D01*
X-1897144Y41581181D02*
X-1897144Y42581181D01*
X-2659049Y42485943D02*
X-2706668Y42533562D01*
X-2706668Y42533562D02*
X-2801906Y42581181D01*
X-2801906Y42581181D02*
X-3040001Y42581181D01*
X-3040001Y42581181D02*
X-3135239Y42533562D01*
X-3135239Y42533562D02*
X-3182858Y42485943D01*
X-3182858Y42485943D02*
X-3230477Y42390705D01*
X-3230477Y42390705D02*
X-3230477Y42295467D01*
X-3230477Y42295467D02*
X-3182858Y42152610D01*
X-3182858Y42152610D02*
X-2611430Y41581181D01*
X-2611430Y41581181D02*
X-3230477Y41581181D01*
X-14524143Y51672420D02*
X-14476524Y51624800D01*
X-14476524Y51624800D02*
X-14333667Y51577181D01*
X-14333667Y51577181D02*
X-14238429Y51577181D01*
X-14238429Y51577181D02*
X-14095572Y51624800D01*
X-14095572Y51624800D02*
X-14000334Y51720039D01*
X-14000334Y51720039D02*
X-13952715Y51815277D01*
X-13952715Y51815277D02*
X-13905096Y52005753D01*
X-13905096Y52005753D02*
X-13905096Y52148610D01*
X-13905096Y52148610D02*
X-13952715Y52339086D01*
X-13952715Y52339086D02*
X-14000334Y52434324D01*
X-14000334Y52434324D02*
X-14095572Y52529562D01*
X-14095572Y52529562D02*
X-14238429Y52577181D01*
X-14238429Y52577181D02*
X-14333667Y52577181D01*
X-14333667Y52577181D02*
X-14476524Y52529562D01*
X-14476524Y52529562D02*
X-14524143Y52481943D01*
X-14905096Y52481943D02*
X-14952715Y52529562D01*
X-14952715Y52529562D02*
X-15047953Y52577181D01*
X-15047953Y52577181D02*
X-15286048Y52577181D01*
X-15286048Y52577181D02*
X-15381286Y52529562D01*
X-15381286Y52529562D02*
X-15428905Y52481943D01*
X-15428905Y52481943D02*
X-15476524Y52386705D01*
X-15476524Y52386705D02*
X-15476524Y52291467D01*
X-15476524Y52291467D02*
X-15428905Y52148610D01*
X-15428905Y52148610D02*
X-14857477Y51577181D01*
X-14857477Y51577181D02*
X-15476524Y51577181D01*
X-16095572Y52577181D02*
X-16190810Y52577181D01*
X-16190810Y52577181D02*
X-16286048Y52529562D01*
X-16286048Y52529562D02*
X-16333667Y52481943D01*
X-16333667Y52481943D02*
X-16381286Y52386705D01*
X-16381286Y52386705D02*
X-16428905Y52196229D01*
X-16428905Y52196229D02*
X-16428905Y51958134D01*
X-16428905Y51958134D02*
X-16381286Y51767658D01*
X-16381286Y51767658D02*
X-16333667Y51672420D01*
X-16333667Y51672420D02*
X-16286048Y51624800D01*
X-16286048Y51624800D02*
X-16190810Y51577181D01*
X-16190810Y51577181D02*
X-16095572Y51577181D01*
X-16095572Y51577181D02*
X-16000334Y51624800D01*
X-16000334Y51624800D02*
X-15952715Y51672420D01*
X-15952715Y51672420D02*
X-15905096Y51767658D01*
X-15905096Y51767658D02*
X-15857477Y51958134D01*
X-15857477Y51958134D02*
X-15857477Y52196229D01*
X-15857477Y52196229D02*
X-15905096Y52386705D01*
X-15905096Y52386705D02*
X-15952715Y52481943D01*
X-15952715Y52481943D02*
X-16000334Y52529562D01*
X-16000334Y52529562D02*
X-16095572Y52577181D01*
X38393666Y39837181D02*
X38726999Y40313372D01*
X38965094Y39837181D02*
X38965094Y40837181D01*
X38965094Y40837181D02*
X38584142Y40837181D01*
X38584142Y40837181D02*
X38488904Y40789562D01*
X38488904Y40789562D02*
X38441285Y40741943D01*
X38441285Y40741943D02*
X38393666Y40646705D01*
X38393666Y40646705D02*
X38393666Y40503848D01*
X38393666Y40503848D02*
X38441285Y40408610D01*
X38441285Y40408610D02*
X38488904Y40360991D01*
X38488904Y40360991D02*
X38584142Y40313372D01*
X38584142Y40313372D02*
X38965094Y40313372D01*
X37822237Y40408610D02*
X37917475Y40456229D01*
X37917475Y40456229D02*
X37965094Y40503848D01*
X37965094Y40503848D02*
X38012713Y40599086D01*
X38012713Y40599086D02*
X38012713Y40646705D01*
X38012713Y40646705D02*
X37965094Y40741943D01*
X37965094Y40741943D02*
X37917475Y40789562D01*
X37917475Y40789562D02*
X37822237Y40837181D01*
X37822237Y40837181D02*
X37631761Y40837181D01*
X37631761Y40837181D02*
X37536523Y40789562D01*
X37536523Y40789562D02*
X37488904Y40741943D01*
X37488904Y40741943D02*
X37441285Y40646705D01*
X37441285Y40646705D02*
X37441285Y40599086D01*
X37441285Y40599086D02*
X37488904Y40503848D01*
X37488904Y40503848D02*
X37536523Y40456229D01*
X37536523Y40456229D02*
X37631761Y40408610D01*
X37631761Y40408610D02*
X37822237Y40408610D01*
X37822237Y40408610D02*
X37917475Y40360991D01*
X37917475Y40360991D02*
X37965094Y40313372D01*
X37965094Y40313372D02*
X38012713Y40218134D01*
X38012713Y40218134D02*
X38012713Y40027658D01*
X38012713Y40027658D02*
X37965094Y39932420D01*
X37965094Y39932420D02*
X37917475Y39884800D01*
X37917475Y39884800D02*
X37822237Y39837181D01*
X37822237Y39837181D02*
X37631761Y39837181D01*
X37631761Y39837181D02*
X37536523Y39884800D01*
X37536523Y39884800D02*
X37488904Y39932420D01*
X37488904Y39932420D02*
X37441285Y40027658D01*
X37441285Y40027658D02*
X37441285Y40218134D01*
X37441285Y40218134D02*
X37488904Y40313372D01*
X37488904Y40313372D02*
X37536523Y40360991D01*
X37536523Y40360991D02*
X37631761Y40408610D01*
X59951857Y28119181D02*
X60285190Y28595372D01*
X60523285Y28119181D02*
X60523285Y29119181D01*
X60523285Y29119181D02*
X60142333Y29119181D01*
X60142333Y29119181D02*
X60047095Y29071562D01*
X60047095Y29071562D02*
X59999476Y29023943D01*
X59999476Y29023943D02*
X59951857Y28928705D01*
X59951857Y28928705D02*
X59951857Y28785848D01*
X59951857Y28785848D02*
X59999476Y28690610D01*
X59999476Y28690610D02*
X60047095Y28642991D01*
X60047095Y28642991D02*
X60142333Y28595372D01*
X60142333Y28595372D02*
X60523285Y28595372D01*
X58999476Y28119181D02*
X59570904Y28119181D01*
X59285190Y28119181D02*
X59285190Y29119181D01*
X59285190Y29119181D02*
X59380428Y28976324D01*
X59380428Y28976324D02*
X59475666Y28881086D01*
X59475666Y28881086D02*
X59570904Y28833467D01*
X58618523Y29023943D02*
X58570904Y29071562D01*
X58570904Y29071562D02*
X58475666Y29119181D01*
X58475666Y29119181D02*
X58237571Y29119181D01*
X58237571Y29119181D02*
X58142333Y29071562D01*
X58142333Y29071562D02*
X58094714Y29023943D01*
X58094714Y29023943D02*
X58047095Y28928705D01*
X58047095Y28928705D02*
X58047095Y28833467D01*
X58047095Y28833467D02*
X58094714Y28690610D01*
X58094714Y28690610D02*
X58666142Y28119181D01*
X58666142Y28119181D02*
X58047095Y28119181D01*
X-3262334Y10083420D02*
X-3214715Y10035800D01*
X-3214715Y10035800D02*
X-3071858Y9988181D01*
X-3071858Y9988181D02*
X-2976620Y9988181D01*
X-2976620Y9988181D02*
X-2833763Y10035800D01*
X-2833763Y10035800D02*
X-2738525Y10131039D01*
X-2738525Y10131039D02*
X-2690906Y10226277D01*
X-2690906Y10226277D02*
X-2643287Y10416753D01*
X-2643287Y10416753D02*
X-2643287Y10559610D01*
X-2643287Y10559610D02*
X-2690906Y10750086D01*
X-2690906Y10750086D02*
X-2738525Y10845324D01*
X-2738525Y10845324D02*
X-2833763Y10940562D01*
X-2833763Y10940562D02*
X-2976620Y10988181D01*
X-2976620Y10988181D02*
X-3071858Y10988181D01*
X-3071858Y10988181D02*
X-3214715Y10940562D01*
X-3214715Y10940562D02*
X-3262334Y10892943D01*
X-4214715Y9988181D02*
X-3643287Y9988181D01*
X-3929001Y9988181D02*
X-3929001Y10988181D01*
X-3929001Y10988181D02*
X-3833763Y10845324D01*
X-3833763Y10845324D02*
X-3738525Y10750086D01*
X-3738525Y10750086D02*
X-3643287Y10702467D01*
X38303580Y28868667D02*
X38351200Y28916286D01*
X38351200Y28916286D02*
X38398819Y29059143D01*
X38398819Y29059143D02*
X38398819Y29154381D01*
X38398819Y29154381D02*
X38351200Y29297238D01*
X38351200Y29297238D02*
X38255961Y29392476D01*
X38255961Y29392476D02*
X38160723Y29440095D01*
X38160723Y29440095D02*
X37970247Y29487714D01*
X37970247Y29487714D02*
X37827390Y29487714D01*
X37827390Y29487714D02*
X37636914Y29440095D01*
X37636914Y29440095D02*
X37541676Y29392476D01*
X37541676Y29392476D02*
X37446438Y29297238D01*
X37446438Y29297238D02*
X37398819Y29154381D01*
X37398819Y29154381D02*
X37398819Y29059143D01*
X37398819Y29059143D02*
X37446438Y28916286D01*
X37446438Y28916286D02*
X37494057Y28868667D01*
X37827390Y28297238D02*
X37779771Y28392476D01*
X37779771Y28392476D02*
X37732152Y28440095D01*
X37732152Y28440095D02*
X37636914Y28487714D01*
X37636914Y28487714D02*
X37589295Y28487714D01*
X37589295Y28487714D02*
X37494057Y28440095D01*
X37494057Y28440095D02*
X37446438Y28392476D01*
X37446438Y28392476D02*
X37398819Y28297238D01*
X37398819Y28297238D02*
X37398819Y28106762D01*
X37398819Y28106762D02*
X37446438Y28011524D01*
X37446438Y28011524D02*
X37494057Y27963905D01*
X37494057Y27963905D02*
X37589295Y27916286D01*
X37589295Y27916286D02*
X37636914Y27916286D01*
X37636914Y27916286D02*
X37732152Y27963905D01*
X37732152Y27963905D02*
X37779771Y28011524D01*
X37779771Y28011524D02*
X37827390Y28106762D01*
X37827390Y28106762D02*
X37827390Y28297238D01*
X37827390Y28297238D02*
X37875009Y28392476D01*
X37875009Y28392476D02*
X37922628Y28440095D01*
X37922628Y28440095D02*
X38017866Y28487714D01*
X38017866Y28487714D02*
X38208342Y28487714D01*
X38208342Y28487714D02*
X38303580Y28440095D01*
X38303580Y28440095D02*
X38351200Y28392476D01*
X38351200Y28392476D02*
X38398819Y28297238D01*
X38398819Y28297238D02*
X38398819Y28106762D01*
X38398819Y28106762D02*
X38351200Y28011524D01*
X38351200Y28011524D02*
X38303580Y27963905D01*
X38303580Y27963905D02*
X38208342Y27916286D01*
X38208342Y27916286D02*
X38017866Y27916286D01*
X38017866Y27916286D02*
X37922628Y27963905D01*
X37922628Y27963905D02*
X37875009Y28011524D01*
X37875009Y28011524D02*
X37827390Y28106762D01*
X-14524143Y48912420D02*
X-14476524Y48864800D01*
X-14476524Y48864800D02*
X-14333667Y48817181D01*
X-14333667Y48817181D02*
X-14238429Y48817181D01*
X-14238429Y48817181D02*
X-14095572Y48864800D01*
X-14095572Y48864800D02*
X-14000334Y48960039D01*
X-14000334Y48960039D02*
X-13952715Y49055277D01*
X-13952715Y49055277D02*
X-13905096Y49245753D01*
X-13905096Y49245753D02*
X-13905096Y49388610D01*
X-13905096Y49388610D02*
X-13952715Y49579086D01*
X-13952715Y49579086D02*
X-14000334Y49674324D01*
X-14000334Y49674324D02*
X-14095572Y49769562D01*
X-14095572Y49769562D02*
X-14238429Y49817181D01*
X-14238429Y49817181D02*
X-14333667Y49817181D01*
X-14333667Y49817181D02*
X-14476524Y49769562D01*
X-14476524Y49769562D02*
X-14524143Y49721943D01*
X-14905096Y49721943D02*
X-14952715Y49769562D01*
X-14952715Y49769562D02*
X-15047953Y49817181D01*
X-15047953Y49817181D02*
X-15286048Y49817181D01*
X-15286048Y49817181D02*
X-15381286Y49769562D01*
X-15381286Y49769562D02*
X-15428905Y49721943D01*
X-15428905Y49721943D02*
X-15476524Y49626705D01*
X-15476524Y49626705D02*
X-15476524Y49531467D01*
X-15476524Y49531467D02*
X-15428905Y49388610D01*
X-15428905Y49388610D02*
X-14857477Y48817181D01*
X-14857477Y48817181D02*
X-15476524Y48817181D01*
X-16428905Y48817181D02*
X-15857477Y48817181D01*
X-16143191Y48817181D02*
X-16143191Y49817181D01*
X-16143191Y49817181D02*
X-16047953Y49674324D01*
X-16047953Y49674324D02*
X-15952715Y49579086D01*
X-15952715Y49579086D02*
X-15857477Y49531467D01*
X31191580Y38361858D02*
X31239200Y38409477D01*
X31239200Y38409477D02*
X31286819Y38552334D01*
X31286819Y38552334D02*
X31286819Y38647572D01*
X31286819Y38647572D02*
X31239200Y38790429D01*
X31239200Y38790429D02*
X31143961Y38885667D01*
X31143961Y38885667D02*
X31048723Y38933286D01*
X31048723Y38933286D02*
X30858247Y38980905D01*
X30858247Y38980905D02*
X30715390Y38980905D01*
X30715390Y38980905D02*
X30524914Y38933286D01*
X30524914Y38933286D02*
X30429676Y38885667D01*
X30429676Y38885667D02*
X30334438Y38790429D01*
X30334438Y38790429D02*
X30286819Y38647572D01*
X30286819Y38647572D02*
X30286819Y38552334D01*
X30286819Y38552334D02*
X30334438Y38409477D01*
X30334438Y38409477D02*
X30382057Y38361858D01*
X31286819Y37409477D02*
X31286819Y37980905D01*
X31286819Y37695191D02*
X30286819Y37695191D01*
X30286819Y37695191D02*
X30429676Y37790429D01*
X30429676Y37790429D02*
X30524914Y37885667D01*
X30524914Y37885667D02*
X30572533Y37980905D01*
X31286819Y36457096D02*
X31286819Y37028524D01*
X31286819Y36742810D02*
X30286819Y36742810D01*
X30286819Y36742810D02*
X30429676Y36838048D01*
X30429676Y36838048D02*
X30524914Y36933286D01*
X30524914Y36933286D02*
X30572533Y37028524D01*
X4097819Y1373095D02*
X3097819Y1373095D01*
X3097819Y1373095D02*
X3097819Y1135000D01*
X3097819Y1135000D02*
X3145438Y992143D01*
X3145438Y992143D02*
X3240676Y896905D01*
X3240676Y896905D02*
X3335914Y849286D01*
X3335914Y849286D02*
X3526390Y801667D01*
X3526390Y801667D02*
X3669247Y801667D01*
X3669247Y801667D02*
X3859723Y849286D01*
X3859723Y849286D02*
X3954961Y896905D01*
X3954961Y896905D02*
X4050200Y992143D01*
X4050200Y992143D02*
X4097819Y1135000D01*
X4097819Y1135000D02*
X4097819Y1373095D01*
X4097819Y-150714D02*
X4097819Y420714D01*
X4097819Y135000D02*
X3097819Y135000D01*
X3097819Y135000D02*
X3240676Y230238D01*
X3240676Y230238D02*
X3335914Y325476D01*
X3335914Y325476D02*
X3383533Y420714D01*
X28141819Y28201858D02*
X27665628Y28535191D01*
X28141819Y28773286D02*
X27141819Y28773286D01*
X27141819Y28773286D02*
X27141819Y28392334D01*
X27141819Y28392334D02*
X27189438Y28297096D01*
X27189438Y28297096D02*
X27237057Y28249477D01*
X27237057Y28249477D02*
X27332295Y28201858D01*
X27332295Y28201858D02*
X27475152Y28201858D01*
X27475152Y28201858D02*
X27570390Y28249477D01*
X27570390Y28249477D02*
X27618009Y28297096D01*
X27618009Y28297096D02*
X27665628Y28392334D01*
X27665628Y28392334D02*
X27665628Y28773286D01*
X28141819Y27249477D02*
X28141819Y27820905D01*
X28141819Y27535191D02*
X27141819Y27535191D01*
X27141819Y27535191D02*
X27284676Y27630429D01*
X27284676Y27630429D02*
X27379914Y27725667D01*
X27379914Y27725667D02*
X27427533Y27820905D01*
X27141819Y26630429D02*
X27141819Y26535191D01*
X27141819Y26535191D02*
X27189438Y26439953D01*
X27189438Y26439953D02*
X27237057Y26392334D01*
X27237057Y26392334D02*
X27332295Y26344715D01*
X27332295Y26344715D02*
X27522771Y26297096D01*
X27522771Y26297096D02*
X27760866Y26297096D01*
X27760866Y26297096D02*
X27951342Y26344715D01*
X27951342Y26344715D02*
X28046580Y26392334D01*
X28046580Y26392334D02*
X28094200Y26439953D01*
X28094200Y26439953D02*
X28141819Y26535191D01*
X28141819Y26535191D02*
X28141819Y26630429D01*
X28141819Y26630429D02*
X28094200Y26725667D01*
X28094200Y26725667D02*
X28046580Y26773286D01*
X28046580Y26773286D02*
X27951342Y26820905D01*
X27951342Y26820905D02*
X27760866Y26868524D01*
X27760866Y26868524D02*
X27522771Y26868524D01*
X27522771Y26868524D02*
X27332295Y26820905D01*
X27332295Y26820905D02*
X27237057Y26773286D01*
X27237057Y26773286D02*
X27189438Y26725667D01*
X27189438Y26725667D02*
X27141819Y26630429D01*
X31281666Y24724181D02*
X31614999Y25200372D01*
X31853094Y24724181D02*
X31853094Y25724181D01*
X31853094Y25724181D02*
X31472142Y25724181D01*
X31472142Y25724181D02*
X31376904Y25676562D01*
X31376904Y25676562D02*
X31329285Y25628943D01*
X31329285Y25628943D02*
X31281666Y25533705D01*
X31281666Y25533705D02*
X31281666Y25390848D01*
X31281666Y25390848D02*
X31329285Y25295610D01*
X31329285Y25295610D02*
X31376904Y25247991D01*
X31376904Y25247991D02*
X31472142Y25200372D01*
X31472142Y25200372D02*
X31853094Y25200372D01*
X30805475Y24724181D02*
X30614999Y24724181D01*
X30614999Y24724181D02*
X30519761Y24771800D01*
X30519761Y24771800D02*
X30472142Y24819420D01*
X30472142Y24819420D02*
X30376904Y24962277D01*
X30376904Y24962277D02*
X30329285Y25152753D01*
X30329285Y25152753D02*
X30329285Y25533705D01*
X30329285Y25533705D02*
X30376904Y25628943D01*
X30376904Y25628943D02*
X30424523Y25676562D01*
X30424523Y25676562D02*
X30519761Y25724181D01*
X30519761Y25724181D02*
X30710237Y25724181D01*
X30710237Y25724181D02*
X30805475Y25676562D01*
X30805475Y25676562D02*
X30853094Y25628943D01*
X30853094Y25628943D02*
X30900713Y25533705D01*
X30900713Y25533705D02*
X30900713Y25295610D01*
X30900713Y25295610D02*
X30853094Y25200372D01*
X30853094Y25200372D02*
X30805475Y25152753D01*
X30805475Y25152753D02*
X30710237Y25105134D01*
X30710237Y25105134D02*
X30519761Y25105134D01*
X30519761Y25105134D02*
X30424523Y25152753D01*
X30424523Y25152753D02*
X30376904Y25200372D01*
X30376904Y25200372D02*
X30329285Y25295610D01*
X27852666Y39583181D02*
X28185999Y40059372D01*
X28424094Y39583181D02*
X28424094Y40583181D01*
X28424094Y40583181D02*
X28043142Y40583181D01*
X28043142Y40583181D02*
X27947904Y40535562D01*
X27947904Y40535562D02*
X27900285Y40487943D01*
X27900285Y40487943D02*
X27852666Y40392705D01*
X27852666Y40392705D02*
X27852666Y40249848D01*
X27852666Y40249848D02*
X27900285Y40154610D01*
X27900285Y40154610D02*
X27947904Y40106991D01*
X27947904Y40106991D02*
X28043142Y40059372D01*
X28043142Y40059372D02*
X28424094Y40059372D01*
X26995523Y40583181D02*
X27185999Y40583181D01*
X27185999Y40583181D02*
X27281237Y40535562D01*
X27281237Y40535562D02*
X27328856Y40487943D01*
X27328856Y40487943D02*
X27424094Y40345086D01*
X27424094Y40345086D02*
X27471713Y40154610D01*
X27471713Y40154610D02*
X27471713Y39773658D01*
X27471713Y39773658D02*
X27424094Y39678420D01*
X27424094Y39678420D02*
X27376475Y39630800D01*
X27376475Y39630800D02*
X27281237Y39583181D01*
X27281237Y39583181D02*
X27090761Y39583181D01*
X27090761Y39583181D02*
X26995523Y39630800D01*
X26995523Y39630800D02*
X26947904Y39678420D01*
X26947904Y39678420D02*
X26900285Y39773658D01*
X26900285Y39773658D02*
X26900285Y40011753D01*
X26900285Y40011753D02*
X26947904Y40106991D01*
X26947904Y40106991D02*
X26995523Y40154610D01*
X26995523Y40154610D02*
X27090761Y40202229D01*
X27090761Y40202229D02*
X27281237Y40202229D01*
X27281237Y40202229D02*
X27376475Y40154610D01*
X27376475Y40154610D02*
X27424094Y40106991D01*
X27424094Y40106991D02*
X27471713Y40011753D01*
X33365580Y36202858D02*
X33413200Y36250477D01*
X33413200Y36250477D02*
X33460819Y36393334D01*
X33460819Y36393334D02*
X33460819Y36488572D01*
X33460819Y36488572D02*
X33413200Y36631429D01*
X33413200Y36631429D02*
X33317961Y36726667D01*
X33317961Y36726667D02*
X33222723Y36774286D01*
X33222723Y36774286D02*
X33032247Y36821905D01*
X33032247Y36821905D02*
X32889390Y36821905D01*
X32889390Y36821905D02*
X32698914Y36774286D01*
X32698914Y36774286D02*
X32603676Y36726667D01*
X32603676Y36726667D02*
X32508438Y36631429D01*
X32508438Y36631429D02*
X32460819Y36488572D01*
X32460819Y36488572D02*
X32460819Y36393334D01*
X32460819Y36393334D02*
X32508438Y36250477D01*
X32508438Y36250477D02*
X32556057Y36202858D01*
X33460819Y35250477D02*
X33460819Y35821905D01*
X33460819Y35536191D02*
X32460819Y35536191D01*
X32460819Y35536191D02*
X32603676Y35631429D01*
X32603676Y35631429D02*
X32698914Y35726667D01*
X32698914Y35726667D02*
X32746533Y35821905D01*
X32556057Y34869524D02*
X32508438Y34821905D01*
X32508438Y34821905D02*
X32460819Y34726667D01*
X32460819Y34726667D02*
X32460819Y34488572D01*
X32460819Y34488572D02*
X32508438Y34393334D01*
X32508438Y34393334D02*
X32556057Y34345715D01*
X32556057Y34345715D02*
X32651295Y34298096D01*
X32651295Y34298096D02*
X32746533Y34298096D01*
X32746533Y34298096D02*
X32889390Y34345715D01*
X32889390Y34345715D02*
X33460819Y34917143D01*
X33460819Y34917143D02*
X33460819Y34298096D01*
X15781257Y34159020D02*
X15828876Y34111400D01*
X15828876Y34111400D02*
X15971733Y34063781D01*
X15971733Y34063781D02*
X16066971Y34063781D01*
X16066971Y34063781D02*
X16209828Y34111400D01*
X16209828Y34111400D02*
X16305066Y34206639D01*
X16305066Y34206639D02*
X16352685Y34301877D01*
X16352685Y34301877D02*
X16400304Y34492353D01*
X16400304Y34492353D02*
X16400304Y34635210D01*
X16400304Y34635210D02*
X16352685Y34825686D01*
X16352685Y34825686D02*
X16305066Y34920924D01*
X16305066Y34920924D02*
X16209828Y35016162D01*
X16209828Y35016162D02*
X16066971Y35063781D01*
X16066971Y35063781D02*
X15971733Y35063781D01*
X15971733Y35063781D02*
X15828876Y35016162D01*
X15828876Y35016162D02*
X15781257Y34968543D01*
X14828876Y34063781D02*
X15400304Y34063781D01*
X15114590Y34063781D02*
X15114590Y35063781D01*
X15114590Y35063781D02*
X15209828Y34920924D01*
X15209828Y34920924D02*
X15305066Y34825686D01*
X15305066Y34825686D02*
X15400304Y34778067D01*
X14352685Y34063781D02*
X14162209Y34063781D01*
X14162209Y34063781D02*
X14066971Y34111400D01*
X14066971Y34111400D02*
X14019352Y34159020D01*
X14019352Y34159020D02*
X13924114Y34301877D01*
X13924114Y34301877D02*
X13876495Y34492353D01*
X13876495Y34492353D02*
X13876495Y34873305D01*
X13876495Y34873305D02*
X13924114Y34968543D01*
X13924114Y34968543D02*
X13971733Y35016162D01*
X13971733Y35016162D02*
X14066971Y35063781D01*
X14066971Y35063781D02*
X14257447Y35063781D01*
X14257447Y35063781D02*
X14352685Y35016162D01*
X14352685Y35016162D02*
X14400304Y34968543D01*
X14400304Y34968543D02*
X14447923Y34873305D01*
X14447923Y34873305D02*
X14447923Y34635210D01*
X14447923Y34635210D02*
X14400304Y34539972D01*
X14400304Y34539972D02*
X14352685Y34492353D01*
X14352685Y34492353D02*
X14257447Y34444734D01*
X14257447Y34444734D02*
X14066971Y34444734D01*
X14066971Y34444734D02*
X13971733Y34492353D01*
X13971733Y34492353D02*
X13924114Y34539972D01*
X13924114Y34539972D02*
X13876495Y34635210D01*
X56189428Y45375991D02*
X56522761Y45375991D01*
X56522761Y44852181D02*
X56522761Y45852181D01*
X56522761Y45852181D02*
X56046571Y45852181D01*
X55665618Y44852181D02*
X55665618Y45852181D01*
X55189428Y44852181D02*
X55189428Y45852181D01*
X55189428Y45852181D02*
X54951333Y45852181D01*
X54951333Y45852181D02*
X54808476Y45804562D01*
X54808476Y45804562D02*
X54713238Y45709324D01*
X54713238Y45709324D02*
X54665619Y45614086D01*
X54665619Y45614086D02*
X54618000Y45423610D01*
X54618000Y45423610D02*
X54618000Y45280753D01*
X54618000Y45280753D02*
X54665619Y45090277D01*
X54665619Y45090277D02*
X54713238Y44995039D01*
X54713238Y44995039D02*
X54808476Y44899800D01*
X54808476Y44899800D02*
X54951333Y44852181D01*
X54951333Y44852181D02*
X55189428Y44852181D01*
X53665619Y44852181D02*
X54237047Y44852181D01*
X53951333Y44852181D02*
X53951333Y45852181D01*
X53951333Y45852181D02*
X54046571Y45709324D01*
X54046571Y45709324D02*
X54141809Y45614086D01*
X54141809Y45614086D02*
X54237047Y45566467D01*
X28962580Y37726858D02*
X29010200Y37774477D01*
X29010200Y37774477D02*
X29057819Y37917334D01*
X29057819Y37917334D02*
X29057819Y38012572D01*
X29057819Y38012572D02*
X29010200Y38155429D01*
X29010200Y38155429D02*
X28914961Y38250667D01*
X28914961Y38250667D02*
X28819723Y38298286D01*
X28819723Y38298286D02*
X28629247Y38345905D01*
X28629247Y38345905D02*
X28486390Y38345905D01*
X28486390Y38345905D02*
X28295914Y38298286D01*
X28295914Y38298286D02*
X28200676Y38250667D01*
X28200676Y38250667D02*
X28105438Y38155429D01*
X28105438Y38155429D02*
X28057819Y38012572D01*
X28057819Y38012572D02*
X28057819Y37917334D01*
X28057819Y37917334D02*
X28105438Y37774477D01*
X28105438Y37774477D02*
X28153057Y37726858D01*
X29057819Y36774477D02*
X29057819Y37345905D01*
X29057819Y37060191D02*
X28057819Y37060191D01*
X28057819Y37060191D02*
X28200676Y37155429D01*
X28200676Y37155429D02*
X28295914Y37250667D01*
X28295914Y37250667D02*
X28343533Y37345905D01*
X28057819Y36155429D02*
X28057819Y36060191D01*
X28057819Y36060191D02*
X28105438Y35964953D01*
X28105438Y35964953D02*
X28153057Y35917334D01*
X28153057Y35917334D02*
X28248295Y35869715D01*
X28248295Y35869715D02*
X28438771Y35822096D01*
X28438771Y35822096D02*
X28676866Y35822096D01*
X28676866Y35822096D02*
X28867342Y35869715D01*
X28867342Y35869715D02*
X28962580Y35917334D01*
X28962580Y35917334D02*
X29010200Y35964953D01*
X29010200Y35964953D02*
X29057819Y36060191D01*
X29057819Y36060191D02*
X29057819Y36155429D01*
X29057819Y36155429D02*
X29010200Y36250667D01*
X29010200Y36250667D02*
X28962580Y36298286D01*
X28962580Y36298286D02*
X28867342Y36345905D01*
X28867342Y36345905D02*
X28676866Y36393524D01*
X28676866Y36393524D02*
X28438771Y36393524D01*
X28438771Y36393524D02*
X28248295Y36345905D01*
X28248295Y36345905D02*
X28153057Y36298286D01*
X28153057Y36298286D02*
X28105438Y36250667D01*
X28105438Y36250667D02*
X28057819Y36155429D01*
X38957238Y20645943D02*
X39052476Y20693562D01*
X39052476Y20693562D02*
X39147714Y20788800D01*
X39147714Y20788800D02*
X39290571Y20931658D01*
X39290571Y20931658D02*
X39385809Y20979277D01*
X39385809Y20979277D02*
X39481047Y20979277D01*
X39433428Y20741181D02*
X39528666Y20788800D01*
X39528666Y20788800D02*
X39623904Y20884039D01*
X39623904Y20884039D02*
X39671523Y21074515D01*
X39671523Y21074515D02*
X39671523Y21407848D01*
X39671523Y21407848D02*
X39623904Y21598324D01*
X39623904Y21598324D02*
X39528666Y21693562D01*
X39528666Y21693562D02*
X39433428Y21741181D01*
X39433428Y21741181D02*
X39242952Y21741181D01*
X39242952Y21741181D02*
X39147714Y21693562D01*
X39147714Y21693562D02*
X39052476Y21598324D01*
X39052476Y21598324D02*
X39004857Y21407848D01*
X39004857Y21407848D02*
X39004857Y21074515D01*
X39004857Y21074515D02*
X39052476Y20884039D01*
X39052476Y20884039D02*
X39147714Y20788800D01*
X39147714Y20788800D02*
X39242952Y20741181D01*
X39242952Y20741181D02*
X39433428Y20741181D01*
X38052476Y20741181D02*
X38623904Y20741181D01*
X38338190Y20741181D02*
X38338190Y21741181D01*
X38338190Y21741181D02*
X38433428Y21598324D01*
X38433428Y21598324D02*
X38528666Y21503086D01*
X38528666Y21503086D02*
X38623904Y21455467D01*
X-14524143Y44212420D02*
X-14476524Y44164800D01*
X-14476524Y44164800D02*
X-14333667Y44117181D01*
X-14333667Y44117181D02*
X-14238429Y44117181D01*
X-14238429Y44117181D02*
X-14095572Y44164800D01*
X-14095572Y44164800D02*
X-14000334Y44260039D01*
X-14000334Y44260039D02*
X-13952715Y44355277D01*
X-13952715Y44355277D02*
X-13905096Y44545753D01*
X-13905096Y44545753D02*
X-13905096Y44688610D01*
X-13905096Y44688610D02*
X-13952715Y44879086D01*
X-13952715Y44879086D02*
X-14000334Y44974324D01*
X-14000334Y44974324D02*
X-14095572Y45069562D01*
X-14095572Y45069562D02*
X-14238429Y45117181D01*
X-14238429Y45117181D02*
X-14333667Y45117181D01*
X-14333667Y45117181D02*
X-14476524Y45069562D01*
X-14476524Y45069562D02*
X-14524143Y45021943D01*
X-14905096Y45021943D02*
X-14952715Y45069562D01*
X-14952715Y45069562D02*
X-15047953Y45117181D01*
X-15047953Y45117181D02*
X-15286048Y45117181D01*
X-15286048Y45117181D02*
X-15381286Y45069562D01*
X-15381286Y45069562D02*
X-15428905Y45021943D01*
X-15428905Y45021943D02*
X-15476524Y44926705D01*
X-15476524Y44926705D02*
X-15476524Y44831467D01*
X-15476524Y44831467D02*
X-15428905Y44688610D01*
X-15428905Y44688610D02*
X-14857477Y44117181D01*
X-14857477Y44117181D02*
X-15476524Y44117181D01*
X-15809858Y45117181D02*
X-16428905Y45117181D01*
X-16428905Y45117181D02*
X-16095572Y44736229D01*
X-16095572Y44736229D02*
X-16238429Y44736229D01*
X-16238429Y44736229D02*
X-16333667Y44688610D01*
X-16333667Y44688610D02*
X-16381286Y44640991D01*
X-16381286Y44640991D02*
X-16428905Y44545753D01*
X-16428905Y44545753D02*
X-16428905Y44307658D01*
X-16428905Y44307658D02*
X-16381286Y44212420D01*
X-16381286Y44212420D02*
X-16333667Y44164800D01*
X-16333667Y44164800D02*
X-16238429Y44117181D01*
X-16238429Y44117181D02*
X-15952715Y44117181D01*
X-15952715Y44117181D02*
X-15857477Y44164800D01*
X-15857477Y44164800D02*
X-15809858Y44212420D01*
X35313857Y29583420D02*
X35361476Y29535800D01*
X35361476Y29535800D02*
X35504333Y29488181D01*
X35504333Y29488181D02*
X35599571Y29488181D01*
X35599571Y29488181D02*
X35742428Y29535800D01*
X35742428Y29535800D02*
X35837666Y29631039D01*
X35837666Y29631039D02*
X35885285Y29726277D01*
X35885285Y29726277D02*
X35932904Y29916753D01*
X35932904Y29916753D02*
X35932904Y30059610D01*
X35932904Y30059610D02*
X35885285Y30250086D01*
X35885285Y30250086D02*
X35837666Y30345324D01*
X35837666Y30345324D02*
X35742428Y30440562D01*
X35742428Y30440562D02*
X35599571Y30488181D01*
X35599571Y30488181D02*
X35504333Y30488181D01*
X35504333Y30488181D02*
X35361476Y30440562D01*
X35361476Y30440562D02*
X35313857Y30392943D01*
X34361476Y29488181D02*
X34932904Y29488181D01*
X34647190Y29488181D02*
X34647190Y30488181D01*
X34647190Y30488181D02*
X34742428Y30345324D01*
X34742428Y30345324D02*
X34837666Y30250086D01*
X34837666Y30250086D02*
X34932904Y30202467D01*
X34028142Y30488181D02*
X33409095Y30488181D01*
X33409095Y30488181D02*
X33742428Y30107229D01*
X33742428Y30107229D02*
X33599571Y30107229D01*
X33599571Y30107229D02*
X33504333Y30059610D01*
X33504333Y30059610D02*
X33456714Y30011991D01*
X33456714Y30011991D02*
X33409095Y29916753D01*
X33409095Y29916753D02*
X33409095Y29678658D01*
X33409095Y29678658D02*
X33456714Y29583420D01*
X33456714Y29583420D02*
X33504333Y29535800D01*
X33504333Y29535800D02*
X33599571Y29488181D01*
X33599571Y29488181D02*
X33885285Y29488181D01*
X33885285Y29488181D02*
X33980523Y29535800D01*
X33980523Y29535800D02*
X34028142Y29583420D01*
X-373143Y19100420D02*
X-325524Y19052800D01*
X-325524Y19052800D02*
X-182667Y19005181D01*
X-182667Y19005181D02*
X-87429Y19005181D01*
X-87429Y19005181D02*
X55428Y19052800D01*
X55428Y19052800D02*
X150666Y19148039D01*
X150666Y19148039D02*
X198285Y19243277D01*
X198285Y19243277D02*
X245904Y19433753D01*
X245904Y19433753D02*
X245904Y19576610D01*
X245904Y19576610D02*
X198285Y19767086D01*
X198285Y19767086D02*
X150666Y19862324D01*
X150666Y19862324D02*
X55428Y19957562D01*
X55428Y19957562D02*
X-87429Y20005181D01*
X-87429Y20005181D02*
X-182667Y20005181D01*
X-182667Y20005181D02*
X-325524Y19957562D01*
X-325524Y19957562D02*
X-373143Y19909943D01*
X-1325524Y19005181D02*
X-754096Y19005181D01*
X-1039810Y19005181D02*
X-1039810Y20005181D01*
X-1039810Y20005181D02*
X-944572Y19862324D01*
X-944572Y19862324D02*
X-849334Y19767086D01*
X-849334Y19767086D02*
X-754096Y19719467D01*
X-1658858Y20005181D02*
X-2325524Y20005181D01*
X-2325524Y20005181D02*
X-1896953Y19005181D01*
X36369523Y42345181D02*
X36369523Y43345181D01*
X36369523Y43345181D02*
X36036190Y42630896D01*
X36036190Y42630896D02*
X35702857Y43345181D01*
X35702857Y43345181D02*
X35702857Y42345181D01*
X34750476Y43345181D02*
X35226666Y43345181D01*
X35226666Y43345181D02*
X35274285Y42868991D01*
X35274285Y42868991D02*
X35226666Y42916610D01*
X35226666Y42916610D02*
X35131428Y42964229D01*
X35131428Y42964229D02*
X34893333Y42964229D01*
X34893333Y42964229D02*
X34798095Y42916610D01*
X34798095Y42916610D02*
X34750476Y42868991D01*
X34750476Y42868991D02*
X34702857Y42773753D01*
X34702857Y42773753D02*
X34702857Y42535658D01*
X34702857Y42535658D02*
X34750476Y42440420D01*
X34750476Y42440420D02*
X34798095Y42392800D01*
X34798095Y42392800D02*
X34893333Y42345181D01*
X34893333Y42345181D02*
X35131428Y42345181D01*
X35131428Y42345181D02*
X35226666Y42392800D01*
X35226666Y42392800D02*
X35274285Y42440420D01*
X39250857Y24800420D02*
X39298476Y24752800D01*
X39298476Y24752800D02*
X39441333Y24705181D01*
X39441333Y24705181D02*
X39536571Y24705181D01*
X39536571Y24705181D02*
X39679428Y24752800D01*
X39679428Y24752800D02*
X39774666Y24848039D01*
X39774666Y24848039D02*
X39822285Y24943277D01*
X39822285Y24943277D02*
X39869904Y25133753D01*
X39869904Y25133753D02*
X39869904Y25276610D01*
X39869904Y25276610D02*
X39822285Y25467086D01*
X39822285Y25467086D02*
X39774666Y25562324D01*
X39774666Y25562324D02*
X39679428Y25657562D01*
X39679428Y25657562D02*
X39536571Y25705181D01*
X39536571Y25705181D02*
X39441333Y25705181D01*
X39441333Y25705181D02*
X39298476Y25657562D01*
X39298476Y25657562D02*
X39250857Y25609943D01*
X38298476Y24705181D02*
X38869904Y24705181D01*
X38584190Y24705181D02*
X38584190Y25705181D01*
X38584190Y25705181D02*
X38679428Y25562324D01*
X38679428Y25562324D02*
X38774666Y25467086D01*
X38774666Y25467086D02*
X38869904Y25419467D01*
X37393714Y25705181D02*
X37869904Y25705181D01*
X37869904Y25705181D02*
X37917523Y25228991D01*
X37917523Y25228991D02*
X37869904Y25276610D01*
X37869904Y25276610D02*
X37774666Y25324229D01*
X37774666Y25324229D02*
X37536571Y25324229D01*
X37536571Y25324229D02*
X37441333Y25276610D01*
X37441333Y25276610D02*
X37393714Y25228991D01*
X37393714Y25228991D02*
X37346095Y25133753D01*
X37346095Y25133753D02*
X37346095Y24895658D01*
X37346095Y24895658D02*
X37393714Y24800420D01*
X37393714Y24800420D02*
X37441333Y24752800D01*
X37441333Y24752800D02*
X37536571Y24705181D01*
X37536571Y24705181D02*
X37774666Y24705181D01*
X37774666Y24705181D02*
X37869904Y24752800D01*
X37869904Y24752800D02*
X37917523Y24800420D01*
X24391857Y16564420D02*
X24439476Y16516800D01*
X24439476Y16516800D02*
X24582333Y16469181D01*
X24582333Y16469181D02*
X24677571Y16469181D01*
X24677571Y16469181D02*
X24820428Y16516800D01*
X24820428Y16516800D02*
X24915666Y16612039D01*
X24915666Y16612039D02*
X24963285Y16707277D01*
X24963285Y16707277D02*
X25010904Y16897753D01*
X25010904Y16897753D02*
X25010904Y17040610D01*
X25010904Y17040610D02*
X24963285Y17231086D01*
X24963285Y17231086D02*
X24915666Y17326324D01*
X24915666Y17326324D02*
X24820428Y17421562D01*
X24820428Y17421562D02*
X24677571Y17469181D01*
X24677571Y17469181D02*
X24582333Y17469181D01*
X24582333Y17469181D02*
X24439476Y17421562D01*
X24439476Y17421562D02*
X24391857Y17373943D01*
X23439476Y16469181D02*
X24010904Y16469181D01*
X23725190Y16469181D02*
X23725190Y17469181D01*
X23725190Y17469181D02*
X23820428Y17326324D01*
X23820428Y17326324D02*
X23915666Y17231086D01*
X23915666Y17231086D02*
X24010904Y17183467D01*
X22868047Y17040610D02*
X22963285Y17088229D01*
X22963285Y17088229D02*
X23010904Y17135848D01*
X23010904Y17135848D02*
X23058523Y17231086D01*
X23058523Y17231086D02*
X23058523Y17278705D01*
X23058523Y17278705D02*
X23010904Y17373943D01*
X23010904Y17373943D02*
X22963285Y17421562D01*
X22963285Y17421562D02*
X22868047Y17469181D01*
X22868047Y17469181D02*
X22677571Y17469181D01*
X22677571Y17469181D02*
X22582333Y17421562D01*
X22582333Y17421562D02*
X22534714Y17373943D01*
X22534714Y17373943D02*
X22487095Y17278705D01*
X22487095Y17278705D02*
X22487095Y17231086D01*
X22487095Y17231086D02*
X22534714Y17135848D01*
X22534714Y17135848D02*
X22582333Y17088229D01*
X22582333Y17088229D02*
X22677571Y17040610D01*
X22677571Y17040610D02*
X22868047Y17040610D01*
X22868047Y17040610D02*
X22963285Y16992991D01*
X22963285Y16992991D02*
X23010904Y16945372D01*
X23010904Y16945372D02*
X23058523Y16850134D01*
X23058523Y16850134D02*
X23058523Y16659658D01*
X23058523Y16659658D02*
X23010904Y16564420D01*
X23010904Y16564420D02*
X22963285Y16516800D01*
X22963285Y16516800D02*
X22868047Y16469181D01*
X22868047Y16469181D02*
X22677571Y16469181D01*
X22677571Y16469181D02*
X22582333Y16516800D01*
X22582333Y16516800D02*
X22534714Y16564420D01*
X22534714Y16564420D02*
X22487095Y16659658D01*
X22487095Y16659658D02*
X22487095Y16850134D01*
X22487095Y16850134D02*
X22534714Y16945372D01*
X22534714Y16945372D02*
X22582333Y16992991D01*
X22582333Y16992991D02*
X22677571Y17040610D01*
X-762096Y25147181D02*
X-762096Y24337658D01*
X-762096Y24337658D02*
X-809715Y24242420D01*
X-809715Y24242420D02*
X-857334Y24194800D01*
X-857334Y24194800D02*
X-952572Y24147181D01*
X-952572Y24147181D02*
X-1143048Y24147181D01*
X-1143048Y24147181D02*
X-1238286Y24194800D01*
X-1238286Y24194800D02*
X-1285905Y24242420D01*
X-1285905Y24242420D02*
X-1333524Y24337658D01*
X-1333524Y24337658D02*
X-1333524Y25147181D01*
X-1714477Y25147181D02*
X-2333524Y25147181D01*
X-2333524Y25147181D02*
X-2000191Y24766229D01*
X-2000191Y24766229D02*
X-2143048Y24766229D01*
X-2143048Y24766229D02*
X-2238286Y24718610D01*
X-2238286Y24718610D02*
X-2285905Y24670991D01*
X-2285905Y24670991D02*
X-2333524Y24575753D01*
X-2333524Y24575753D02*
X-2333524Y24337658D01*
X-2333524Y24337658D02*
X-2285905Y24242420D01*
X-2285905Y24242420D02*
X-2238286Y24194800D01*
X-2238286Y24194800D02*
X-2143048Y24147181D01*
X-2143048Y24147181D02*
X-1857334Y24147181D01*
X-1857334Y24147181D02*
X-1762096Y24194800D01*
X-1762096Y24194800D02*
X-1714477Y24242420D01*
X22518666Y39583181D02*
X22851999Y40059372D01*
X23090094Y39583181D02*
X23090094Y40583181D01*
X23090094Y40583181D02*
X22709142Y40583181D01*
X22709142Y40583181D02*
X22613904Y40535562D01*
X22613904Y40535562D02*
X22566285Y40487943D01*
X22566285Y40487943D02*
X22518666Y40392705D01*
X22518666Y40392705D02*
X22518666Y40249848D01*
X22518666Y40249848D02*
X22566285Y40154610D01*
X22566285Y40154610D02*
X22613904Y40106991D01*
X22613904Y40106991D02*
X22709142Y40059372D01*
X22709142Y40059372D02*
X23090094Y40059372D01*
X21613904Y40583181D02*
X22090094Y40583181D01*
X22090094Y40583181D02*
X22137713Y40106991D01*
X22137713Y40106991D02*
X22090094Y40154610D01*
X22090094Y40154610D02*
X21994856Y40202229D01*
X21994856Y40202229D02*
X21756761Y40202229D01*
X21756761Y40202229D02*
X21661523Y40154610D01*
X21661523Y40154610D02*
X21613904Y40106991D01*
X21613904Y40106991D02*
X21566285Y40011753D01*
X21566285Y40011753D02*
X21566285Y39773658D01*
X21566285Y39773658D02*
X21613904Y39678420D01*
X21613904Y39678420D02*
X21661523Y39630800D01*
X21661523Y39630800D02*
X21756761Y39583181D01*
X21756761Y39583181D02*
X21994856Y39583181D01*
X21994856Y39583181D02*
X22090094Y39630800D01*
X22090094Y39630800D02*
X22137713Y39678420D01*
X17200428Y9561991D02*
X17533761Y9561991D01*
X17533761Y9038181D02*
X17533761Y10038181D01*
X17533761Y10038181D02*
X17057571Y10038181D01*
X16676618Y9038181D02*
X16676618Y10038181D01*
X16200428Y9038181D02*
X16200428Y10038181D01*
X16200428Y10038181D02*
X15962333Y10038181D01*
X15962333Y10038181D02*
X15819476Y9990562D01*
X15819476Y9990562D02*
X15724238Y9895324D01*
X15724238Y9895324D02*
X15676619Y9800086D01*
X15676619Y9800086D02*
X15629000Y9609610D01*
X15629000Y9609610D02*
X15629000Y9466753D01*
X15629000Y9466753D02*
X15676619Y9276277D01*
X15676619Y9276277D02*
X15724238Y9181039D01*
X15724238Y9181039D02*
X15819476Y9085800D01*
X15819476Y9085800D02*
X15962333Y9038181D01*
X15962333Y9038181D02*
X16200428Y9038181D01*
X15248047Y9942943D02*
X15200428Y9990562D01*
X15200428Y9990562D02*
X15105190Y10038181D01*
X15105190Y10038181D02*
X14867095Y10038181D01*
X14867095Y10038181D02*
X14771857Y9990562D01*
X14771857Y9990562D02*
X14724238Y9942943D01*
X14724238Y9942943D02*
X14676619Y9847705D01*
X14676619Y9847705D02*
X14676619Y9752467D01*
X14676619Y9752467D02*
X14724238Y9609610D01*
X14724238Y9609610D02*
X15295666Y9038181D01*
X15295666Y9038181D02*
X14676619Y9038181D01*
X35059857Y21864181D02*
X35393190Y22340372D01*
X35631285Y21864181D02*
X35631285Y22864181D01*
X35631285Y22864181D02*
X35250333Y22864181D01*
X35250333Y22864181D02*
X35155095Y22816562D01*
X35155095Y22816562D02*
X35107476Y22768943D01*
X35107476Y22768943D02*
X35059857Y22673705D01*
X35059857Y22673705D02*
X35059857Y22530848D01*
X35059857Y22530848D02*
X35107476Y22435610D01*
X35107476Y22435610D02*
X35155095Y22387991D01*
X35155095Y22387991D02*
X35250333Y22340372D01*
X35250333Y22340372D02*
X35631285Y22340372D01*
X34107476Y21864181D02*
X34678904Y21864181D01*
X34393190Y21864181D02*
X34393190Y22864181D01*
X34393190Y22864181D02*
X34488428Y22721324D01*
X34488428Y22721324D02*
X34583666Y22626086D01*
X34583666Y22626086D02*
X34678904Y22578467D01*
X33155095Y21864181D02*
X33726523Y21864181D01*
X33440809Y21864181D02*
X33440809Y22864181D01*
X33440809Y22864181D02*
X33536047Y22721324D01*
X33536047Y22721324D02*
X33631285Y22626086D01*
X33631285Y22626086D02*
X33726523Y22578467D01*
X24637904Y15772181D02*
X24637904Y14962658D01*
X24637904Y14962658D02*
X24590285Y14867420D01*
X24590285Y14867420D02*
X24542666Y14819800D01*
X24542666Y14819800D02*
X24447428Y14772181D01*
X24447428Y14772181D02*
X24256952Y14772181D01*
X24256952Y14772181D02*
X24161714Y14819800D01*
X24161714Y14819800D02*
X24114095Y14867420D01*
X24114095Y14867420D02*
X24066476Y14962658D01*
X24066476Y14962658D02*
X24066476Y15772181D01*
X23637904Y15676943D02*
X23590285Y15724562D01*
X23590285Y15724562D02*
X23495047Y15772181D01*
X23495047Y15772181D02*
X23256952Y15772181D01*
X23256952Y15772181D02*
X23161714Y15724562D01*
X23161714Y15724562D02*
X23114095Y15676943D01*
X23114095Y15676943D02*
X23066476Y15581705D01*
X23066476Y15581705D02*
X23066476Y15486467D01*
X23066476Y15486467D02*
X23114095Y15343610D01*
X23114095Y15343610D02*
X23685523Y14772181D01*
X23685523Y14772181D02*
X23066476Y14772181D01*
X23755580Y37250667D02*
X23803200Y37298286D01*
X23803200Y37298286D02*
X23850819Y37441143D01*
X23850819Y37441143D02*
X23850819Y37536381D01*
X23850819Y37536381D02*
X23803200Y37679238D01*
X23803200Y37679238D02*
X23707961Y37774476D01*
X23707961Y37774476D02*
X23612723Y37822095D01*
X23612723Y37822095D02*
X23422247Y37869714D01*
X23422247Y37869714D02*
X23279390Y37869714D01*
X23279390Y37869714D02*
X23088914Y37822095D01*
X23088914Y37822095D02*
X22993676Y37774476D01*
X22993676Y37774476D02*
X22898438Y37679238D01*
X22898438Y37679238D02*
X22850819Y37536381D01*
X22850819Y37536381D02*
X22850819Y37441143D01*
X22850819Y37441143D02*
X22898438Y37298286D01*
X22898438Y37298286D02*
X22946057Y37250667D01*
X23850819Y36774476D02*
X23850819Y36584000D01*
X23850819Y36584000D02*
X23803200Y36488762D01*
X23803200Y36488762D02*
X23755580Y36441143D01*
X23755580Y36441143D02*
X23612723Y36345905D01*
X23612723Y36345905D02*
X23422247Y36298286D01*
X23422247Y36298286D02*
X23041295Y36298286D01*
X23041295Y36298286D02*
X22946057Y36345905D01*
X22946057Y36345905D02*
X22898438Y36393524D01*
X22898438Y36393524D02*
X22850819Y36488762D01*
X22850819Y36488762D02*
X22850819Y36679238D01*
X22850819Y36679238D02*
X22898438Y36774476D01*
X22898438Y36774476D02*
X22946057Y36822095D01*
X22946057Y36822095D02*
X23041295Y36869714D01*
X23041295Y36869714D02*
X23279390Y36869714D01*
X23279390Y36869714D02*
X23374628Y36822095D01*
X23374628Y36822095D02*
X23422247Y36774476D01*
X23422247Y36774476D02*
X23469866Y36679238D01*
X23469866Y36679238D02*
X23469866Y36488762D01*
X23469866Y36488762D02*
X23422247Y36393524D01*
X23422247Y36393524D02*
X23374628Y36345905D01*
X23374628Y36345905D02*
X23279390Y36298286D01*
X40587819Y28741667D02*
X40111628Y29075000D01*
X40587819Y29313095D02*
X39587819Y29313095D01*
X39587819Y29313095D02*
X39587819Y28932143D01*
X39587819Y28932143D02*
X39635438Y28836905D01*
X39635438Y28836905D02*
X39683057Y28789286D01*
X39683057Y28789286D02*
X39778295Y28741667D01*
X39778295Y28741667D02*
X39921152Y28741667D01*
X39921152Y28741667D02*
X40016390Y28789286D01*
X40016390Y28789286D02*
X40064009Y28836905D01*
X40064009Y28836905D02*
X40111628Y28932143D01*
X40111628Y28932143D02*
X40111628Y29313095D01*
X39921152Y27884524D02*
X40587819Y27884524D01*
X39540200Y28122619D02*
X40254485Y28360714D01*
X40254485Y28360714D02*
X40254485Y27741667D01*
X30773666Y32914420D02*
X30821285Y32866800D01*
X30821285Y32866800D02*
X30964142Y32819181D01*
X30964142Y32819181D02*
X31059380Y32819181D01*
X31059380Y32819181D02*
X31202237Y32866800D01*
X31202237Y32866800D02*
X31297475Y32962039D01*
X31297475Y32962039D02*
X31345094Y33057277D01*
X31345094Y33057277D02*
X31392713Y33247753D01*
X31392713Y33247753D02*
X31392713Y33390610D01*
X31392713Y33390610D02*
X31345094Y33581086D01*
X31345094Y33581086D02*
X31297475Y33676324D01*
X31297475Y33676324D02*
X31202237Y33771562D01*
X31202237Y33771562D02*
X31059380Y33819181D01*
X31059380Y33819181D02*
X30964142Y33819181D01*
X30964142Y33819181D02*
X30821285Y33771562D01*
X30821285Y33771562D02*
X30773666Y33723943D01*
X29916523Y33819181D02*
X30106999Y33819181D01*
X30106999Y33819181D02*
X30202237Y33771562D01*
X30202237Y33771562D02*
X30249856Y33723943D01*
X30249856Y33723943D02*
X30345094Y33581086D01*
X30345094Y33581086D02*
X30392713Y33390610D01*
X30392713Y33390610D02*
X30392713Y33009658D01*
X30392713Y33009658D02*
X30345094Y32914420D01*
X30345094Y32914420D02*
X30297475Y32866800D01*
X30297475Y32866800D02*
X30202237Y32819181D01*
X30202237Y32819181D02*
X30011761Y32819181D01*
X30011761Y32819181D02*
X29916523Y32866800D01*
X29916523Y32866800D02*
X29868904Y32914420D01*
X29868904Y32914420D02*
X29821285Y33009658D01*
X29821285Y33009658D02*
X29821285Y33247753D01*
X29821285Y33247753D02*
X29868904Y33342991D01*
X29868904Y33342991D02*
X29916523Y33390610D01*
X29916523Y33390610D02*
X30011761Y33438229D01*
X30011761Y33438229D02*
X30202237Y33438229D01*
X30202237Y33438229D02*
X30297475Y33390610D01*
X30297475Y33390610D02*
X30345094Y33342991D01*
X30345094Y33342991D02*
X30392713Y33247753D01*
X9146666Y45810420D02*
X9194285Y45762800D01*
X9194285Y45762800D02*
X9337142Y45715181D01*
X9337142Y45715181D02*
X9432380Y45715181D01*
X9432380Y45715181D02*
X9575237Y45762800D01*
X9575237Y45762800D02*
X9670475Y45858039D01*
X9670475Y45858039D02*
X9718094Y45953277D01*
X9718094Y45953277D02*
X9765713Y46143753D01*
X9765713Y46143753D02*
X9765713Y46286610D01*
X9765713Y46286610D02*
X9718094Y46477086D01*
X9718094Y46477086D02*
X9670475Y46572324D01*
X9670475Y46572324D02*
X9575237Y46667562D01*
X9575237Y46667562D02*
X9432380Y46715181D01*
X9432380Y46715181D02*
X9337142Y46715181D01*
X9337142Y46715181D02*
X9194285Y46667562D01*
X9194285Y46667562D02*
X9146666Y46619943D01*
X8765713Y46619943D02*
X8718094Y46667562D01*
X8718094Y46667562D02*
X8622856Y46715181D01*
X8622856Y46715181D02*
X8384761Y46715181D01*
X8384761Y46715181D02*
X8289523Y46667562D01*
X8289523Y46667562D02*
X8241904Y46619943D01*
X8241904Y46619943D02*
X8194285Y46524705D01*
X8194285Y46524705D02*
X8194285Y46429467D01*
X8194285Y46429467D02*
X8241904Y46286610D01*
X8241904Y46286610D02*
X8813332Y45715181D01*
X8813332Y45715181D02*
X8194285Y45715181D01*
X46394666Y17803420D02*
X46442285Y17755800D01*
X46442285Y17755800D02*
X46585142Y17708181D01*
X46585142Y17708181D02*
X46680380Y17708181D01*
X46680380Y17708181D02*
X46823237Y17755800D01*
X46823237Y17755800D02*
X46918475Y17851039D01*
X46918475Y17851039D02*
X46966094Y17946277D01*
X46966094Y17946277D02*
X47013713Y18136753D01*
X47013713Y18136753D02*
X47013713Y18279610D01*
X47013713Y18279610D02*
X46966094Y18470086D01*
X46966094Y18470086D02*
X46918475Y18565324D01*
X46918475Y18565324D02*
X46823237Y18660562D01*
X46823237Y18660562D02*
X46680380Y18708181D01*
X46680380Y18708181D02*
X46585142Y18708181D01*
X46585142Y18708181D02*
X46442285Y18660562D01*
X46442285Y18660562D02*
X46394666Y18612943D01*
X45537523Y18374848D02*
X45537523Y17708181D01*
X45775618Y18755800D02*
X46013713Y18041515D01*
X46013713Y18041515D02*
X45394666Y18041515D01*
X23280666Y33741181D02*
X23613999Y34217372D01*
X23852094Y33741181D02*
X23852094Y34741181D01*
X23852094Y34741181D02*
X23471142Y34741181D01*
X23471142Y34741181D02*
X23375904Y34693562D01*
X23375904Y34693562D02*
X23328285Y34645943D01*
X23328285Y34645943D02*
X23280666Y34550705D01*
X23280666Y34550705D02*
X23280666Y34407848D01*
X23280666Y34407848D02*
X23328285Y34312610D01*
X23328285Y34312610D02*
X23375904Y34264991D01*
X23375904Y34264991D02*
X23471142Y34217372D01*
X23471142Y34217372D02*
X23852094Y34217372D01*
X22899713Y34645943D02*
X22852094Y34693562D01*
X22852094Y34693562D02*
X22756856Y34741181D01*
X22756856Y34741181D02*
X22518761Y34741181D01*
X22518761Y34741181D02*
X22423523Y34693562D01*
X22423523Y34693562D02*
X22375904Y34645943D01*
X22375904Y34645943D02*
X22328285Y34550705D01*
X22328285Y34550705D02*
X22328285Y34455467D01*
X22328285Y34455467D02*
X22375904Y34312610D01*
X22375904Y34312610D02*
X22947332Y33741181D01*
X22947332Y33741181D02*
X22328285Y33741181D01*
X-6955096Y42287181D02*
X-6955096Y41477658D01*
X-6955096Y41477658D02*
X-7002715Y41382420D01*
X-7002715Y41382420D02*
X-7050334Y41334800D01*
X-7050334Y41334800D02*
X-7145572Y41287181D01*
X-7145572Y41287181D02*
X-7336048Y41287181D01*
X-7336048Y41287181D02*
X-7431286Y41334800D01*
X-7431286Y41334800D02*
X-7478905Y41382420D01*
X-7478905Y41382420D02*
X-7526524Y41477658D01*
X-7526524Y41477658D02*
X-7526524Y42287181D01*
X-8431286Y41953848D02*
X-8431286Y41287181D01*
X-8193191Y42334800D02*
X-7955096Y41620515D01*
X-7955096Y41620515D02*
X-8574143Y41620515D01*
X41442819Y16930667D02*
X40966628Y17264000D01*
X41442819Y17502095D02*
X40442819Y17502095D01*
X40442819Y17502095D02*
X40442819Y17121143D01*
X40442819Y17121143D02*
X40490438Y17025905D01*
X40490438Y17025905D02*
X40538057Y16978286D01*
X40538057Y16978286D02*
X40633295Y16930667D01*
X40633295Y16930667D02*
X40776152Y16930667D01*
X40776152Y16930667D02*
X40871390Y16978286D01*
X40871390Y16978286D02*
X40919009Y17025905D01*
X40919009Y17025905D02*
X40966628Y17121143D01*
X40966628Y17121143D02*
X40966628Y17502095D01*
X41442819Y15978286D02*
X41442819Y16549714D01*
X41442819Y16264000D02*
X40442819Y16264000D01*
X40442819Y16264000D02*
X40585676Y16359238D01*
X40585676Y16359238D02*
X40680914Y16454476D01*
X40680914Y16454476D02*
X40728533Y16549714D01*
X55760857Y21513420D02*
X55808476Y21465800D01*
X55808476Y21465800D02*
X55951333Y21418181D01*
X55951333Y21418181D02*
X56046571Y21418181D01*
X56046571Y21418181D02*
X56189428Y21465800D01*
X56189428Y21465800D02*
X56284666Y21561039D01*
X56284666Y21561039D02*
X56332285Y21656277D01*
X56332285Y21656277D02*
X56379904Y21846753D01*
X56379904Y21846753D02*
X56379904Y21989610D01*
X56379904Y21989610D02*
X56332285Y22180086D01*
X56332285Y22180086D02*
X56284666Y22275324D01*
X56284666Y22275324D02*
X56189428Y22370562D01*
X56189428Y22370562D02*
X56046571Y22418181D01*
X56046571Y22418181D02*
X55951333Y22418181D01*
X55951333Y22418181D02*
X55808476Y22370562D01*
X55808476Y22370562D02*
X55760857Y22322943D01*
X54808476Y21418181D02*
X55379904Y21418181D01*
X55094190Y21418181D02*
X55094190Y22418181D01*
X55094190Y22418181D02*
X55189428Y22275324D01*
X55189428Y22275324D02*
X55284666Y22180086D01*
X55284666Y22180086D02*
X55379904Y22132467D01*
X53951333Y22084848D02*
X53951333Y21418181D01*
X54189428Y22465800D02*
X54427523Y21751515D01*
X54427523Y21751515D02*
X53808476Y21751515D01*
X29541580Y34456667D02*
X29589200Y34504286D01*
X29589200Y34504286D02*
X29636819Y34647143D01*
X29636819Y34647143D02*
X29636819Y34742381D01*
X29636819Y34742381D02*
X29589200Y34885238D01*
X29589200Y34885238D02*
X29493961Y34980476D01*
X29493961Y34980476D02*
X29398723Y35028095D01*
X29398723Y35028095D02*
X29208247Y35075714D01*
X29208247Y35075714D02*
X29065390Y35075714D01*
X29065390Y35075714D02*
X28874914Y35028095D01*
X28874914Y35028095D02*
X28779676Y34980476D01*
X28779676Y34980476D02*
X28684438Y34885238D01*
X28684438Y34885238D02*
X28636819Y34742381D01*
X28636819Y34742381D02*
X28636819Y34647143D01*
X28636819Y34647143D02*
X28684438Y34504286D01*
X28684438Y34504286D02*
X28732057Y34456667D01*
X28636819Y34123333D02*
X28636819Y33456667D01*
X28636819Y33456667D02*
X29636819Y33885238D01*
X35178904Y31504181D02*
X35178904Y30694658D01*
X35178904Y30694658D02*
X35131285Y30599420D01*
X35131285Y30599420D02*
X35083666Y30551800D01*
X35083666Y30551800D02*
X34988428Y30504181D01*
X34988428Y30504181D02*
X34797952Y30504181D01*
X34797952Y30504181D02*
X34702714Y30551800D01*
X34702714Y30551800D02*
X34655095Y30599420D01*
X34655095Y30599420D02*
X34607476Y30694658D01*
X34607476Y30694658D02*
X34607476Y31504181D01*
X33607476Y30504181D02*
X34178904Y30504181D01*
X33893190Y30504181D02*
X33893190Y31504181D01*
X33893190Y31504181D02*
X33988428Y31361324D01*
X33988428Y31361324D02*
X34083666Y31266086D01*
X34083666Y31266086D02*
X34178904Y31218467D01*
X-18534143Y56762420D02*
X-18486524Y56714800D01*
X-18486524Y56714800D02*
X-18343667Y56667181D01*
X-18343667Y56667181D02*
X-18248429Y56667181D01*
X-18248429Y56667181D02*
X-18105572Y56714800D01*
X-18105572Y56714800D02*
X-18010334Y56810039D01*
X-18010334Y56810039D02*
X-17962715Y56905277D01*
X-17962715Y56905277D02*
X-17915096Y57095753D01*
X-17915096Y57095753D02*
X-17915096Y57238610D01*
X-17915096Y57238610D02*
X-17962715Y57429086D01*
X-17962715Y57429086D02*
X-18010334Y57524324D01*
X-18010334Y57524324D02*
X-18105572Y57619562D01*
X-18105572Y57619562D02*
X-18248429Y57667181D01*
X-18248429Y57667181D02*
X-18343667Y57667181D01*
X-18343667Y57667181D02*
X-18486524Y57619562D01*
X-18486524Y57619562D02*
X-18534143Y57571943D01*
X-18915096Y57571943D02*
X-18962715Y57619562D01*
X-18962715Y57619562D02*
X-19057953Y57667181D01*
X-19057953Y57667181D02*
X-19296048Y57667181D01*
X-19296048Y57667181D02*
X-19391286Y57619562D01*
X-19391286Y57619562D02*
X-19438905Y57571943D01*
X-19438905Y57571943D02*
X-19486524Y57476705D01*
X-19486524Y57476705D02*
X-19486524Y57381467D01*
X-19486524Y57381467D02*
X-19438905Y57238610D01*
X-19438905Y57238610D02*
X-18867477Y56667181D01*
X-18867477Y56667181D02*
X-19486524Y56667181D01*
X-20343667Y57333848D02*
X-20343667Y56667181D01*
X-20105572Y57714800D02*
X-19867477Y57000515D01*
X-19867477Y57000515D02*
X-20486524Y57000515D01*
X26742580Y28201858D02*
X26790200Y28249477D01*
X26790200Y28249477D02*
X26837819Y28392334D01*
X26837819Y28392334D02*
X26837819Y28487572D01*
X26837819Y28487572D02*
X26790200Y28630429D01*
X26790200Y28630429D02*
X26694961Y28725667D01*
X26694961Y28725667D02*
X26599723Y28773286D01*
X26599723Y28773286D02*
X26409247Y28820905D01*
X26409247Y28820905D02*
X26266390Y28820905D01*
X26266390Y28820905D02*
X26075914Y28773286D01*
X26075914Y28773286D02*
X25980676Y28725667D01*
X25980676Y28725667D02*
X25885438Y28630429D01*
X25885438Y28630429D02*
X25837819Y28487572D01*
X25837819Y28487572D02*
X25837819Y28392334D01*
X25837819Y28392334D02*
X25885438Y28249477D01*
X25885438Y28249477D02*
X25933057Y28201858D01*
X26837819Y27249477D02*
X26837819Y27820905D01*
X26837819Y27535191D02*
X25837819Y27535191D01*
X25837819Y27535191D02*
X25980676Y27630429D01*
X25980676Y27630429D02*
X26075914Y27725667D01*
X26075914Y27725667D02*
X26123533Y27820905D01*
X25837819Y26392334D02*
X25837819Y26582810D01*
X25837819Y26582810D02*
X25885438Y26678048D01*
X25885438Y26678048D02*
X25933057Y26725667D01*
X25933057Y26725667D02*
X26075914Y26820905D01*
X26075914Y26820905D02*
X26266390Y26868524D01*
X26266390Y26868524D02*
X26647342Y26868524D01*
X26647342Y26868524D02*
X26742580Y26820905D01*
X26742580Y26820905D02*
X26790200Y26773286D01*
X26790200Y26773286D02*
X26837819Y26678048D01*
X26837819Y26678048D02*
X26837819Y26487572D01*
X26837819Y26487572D02*
X26790200Y26392334D01*
X26790200Y26392334D02*
X26742580Y26344715D01*
X26742580Y26344715D02*
X26647342Y26297096D01*
X26647342Y26297096D02*
X26409247Y26297096D01*
X26409247Y26297096D02*
X26314009Y26344715D01*
X26314009Y26344715D02*
X26266390Y26392334D01*
X26266390Y26392334D02*
X26218771Y26487572D01*
X26218771Y26487572D02*
X26218771Y26678048D01*
X26218771Y26678048D02*
X26266390Y26773286D01*
X26266390Y26773286D02*
X26314009Y26820905D01*
X26314009Y26820905D02*
X26409247Y26868524D01*
X42965666Y17927181D02*
X43298999Y18403372D01*
X43537094Y17927181D02*
X43537094Y18927181D01*
X43537094Y18927181D02*
X43156142Y18927181D01*
X43156142Y18927181D02*
X43060904Y18879562D01*
X43060904Y18879562D02*
X43013285Y18831943D01*
X43013285Y18831943D02*
X42965666Y18736705D01*
X42965666Y18736705D02*
X42965666Y18593848D01*
X42965666Y18593848D02*
X43013285Y18498610D01*
X43013285Y18498610D02*
X43060904Y18450991D01*
X43060904Y18450991D02*
X43156142Y18403372D01*
X43156142Y18403372D02*
X43537094Y18403372D01*
X42632332Y18927181D02*
X42013285Y18927181D01*
X42013285Y18927181D02*
X42346618Y18546229D01*
X42346618Y18546229D02*
X42203761Y18546229D01*
X42203761Y18546229D02*
X42108523Y18498610D01*
X42108523Y18498610D02*
X42060904Y18450991D01*
X42060904Y18450991D02*
X42013285Y18355753D01*
X42013285Y18355753D02*
X42013285Y18117658D01*
X42013285Y18117658D02*
X42060904Y18022420D01*
X42060904Y18022420D02*
X42108523Y17974800D01*
X42108523Y17974800D02*
X42203761Y17927181D01*
X42203761Y17927181D02*
X42489475Y17927181D01*
X42489475Y17927181D02*
X42584713Y17974800D01*
X42584713Y17974800D02*
X42632332Y18022420D01*
X-8215334Y22692181D02*
X-7739144Y22692181D01*
X-7739144Y22692181D02*
X-7739144Y23692181D01*
X-9072477Y22692181D02*
X-8501049Y22692181D01*
X-8786763Y22692181D02*
X-8786763Y23692181D01*
X-8786763Y23692181D02*
X-8691525Y23549324D01*
X-8691525Y23549324D02*
X-8596287Y23454086D01*
X-8596287Y23454086D02*
X-8501049Y23406467D01*
X34329666Y20863420D02*
X34377285Y20815800D01*
X34377285Y20815800D02*
X34520142Y20768181D01*
X34520142Y20768181D02*
X34615380Y20768181D01*
X34615380Y20768181D02*
X34758237Y20815800D01*
X34758237Y20815800D02*
X34853475Y20911039D01*
X34853475Y20911039D02*
X34901094Y21006277D01*
X34901094Y21006277D02*
X34948713Y21196753D01*
X34948713Y21196753D02*
X34948713Y21339610D01*
X34948713Y21339610D02*
X34901094Y21530086D01*
X34901094Y21530086D02*
X34853475Y21625324D01*
X34853475Y21625324D02*
X34758237Y21720562D01*
X34758237Y21720562D02*
X34615380Y21768181D01*
X34615380Y21768181D02*
X34520142Y21768181D01*
X34520142Y21768181D02*
X34377285Y21720562D01*
X34377285Y21720562D02*
X34329666Y21672943D01*
X33424904Y21768181D02*
X33901094Y21768181D01*
X33901094Y21768181D02*
X33948713Y21291991D01*
X33948713Y21291991D02*
X33901094Y21339610D01*
X33901094Y21339610D02*
X33805856Y21387229D01*
X33805856Y21387229D02*
X33567761Y21387229D01*
X33567761Y21387229D02*
X33472523Y21339610D01*
X33472523Y21339610D02*
X33424904Y21291991D01*
X33424904Y21291991D02*
X33377285Y21196753D01*
X33377285Y21196753D02*
X33377285Y20958658D01*
X33377285Y20958658D02*
X33424904Y20863420D01*
X33424904Y20863420D02*
X33472523Y20815800D01*
X33472523Y20815800D02*
X33567761Y20768181D01*
X33567761Y20768181D02*
X33805856Y20768181D01*
X33805856Y20768181D02*
X33901094Y20815800D01*
X33901094Y20815800D02*
X33948713Y20863420D01*
X1849333Y29269181D02*
X1849333Y28554896D01*
X1849333Y28554896D02*
X1896952Y28412039D01*
X1896952Y28412039D02*
X1992190Y28316800D01*
X1992190Y28316800D02*
X2135047Y28269181D01*
X2135047Y28269181D02*
X2230285Y28269181D01*
X1373142Y28269181D02*
X1373142Y29269181D01*
X1373142Y29269181D02*
X992190Y29269181D01*
X992190Y29269181D02*
X896952Y29221562D01*
X896952Y29221562D02*
X849333Y29173943D01*
X849333Y29173943D02*
X801714Y29078705D01*
X801714Y29078705D02*
X801714Y28935848D01*
X801714Y28935848D02*
X849333Y28840610D01*
X849333Y28840610D02*
X896952Y28792991D01*
X896952Y28792991D02*
X992190Y28745372D01*
X992190Y28745372D02*
X1373142Y28745372D01*
X-150667Y28269181D02*
X420761Y28269181D01*
X135047Y28269181D02*
X135047Y29269181D01*
X135047Y29269181D02*
X230285Y29126324D01*
X230285Y29126324D02*
X325523Y29031086D01*
X325523Y29031086D02*
X420761Y28983467D01*
X35218666Y39837181D02*
X35551999Y40313372D01*
X35790094Y39837181D02*
X35790094Y40837181D01*
X35790094Y40837181D02*
X35409142Y40837181D01*
X35409142Y40837181D02*
X35313904Y40789562D01*
X35313904Y40789562D02*
X35266285Y40741943D01*
X35266285Y40741943D02*
X35218666Y40646705D01*
X35218666Y40646705D02*
X35218666Y40503848D01*
X35218666Y40503848D02*
X35266285Y40408610D01*
X35266285Y40408610D02*
X35313904Y40360991D01*
X35313904Y40360991D02*
X35409142Y40313372D01*
X35409142Y40313372D02*
X35790094Y40313372D01*
X34885332Y40837181D02*
X34218666Y40837181D01*
X34218666Y40837181D02*
X34647237Y39837181D01*
D11*
%TO.C,C22*%
X-15026420Y44822000D02*
X-15307580Y44822000D01*
X-15026420Y45842000D02*
X-15307580Y45842000D01*
%TO.C,L3*%
X59869000Y24148622D02*
X59869000Y23349378D01*
X58749000Y24148622D02*
X58749000Y23349378D01*
%TO.C,C3*%
X46489252Y18188000D02*
X45966748Y18188000D01*
X46489252Y19658000D02*
X45966748Y19658000D01*
%TO.C,L2*%
X-2278748Y39676000D02*
X-2801252Y39676000D01*
X-2278748Y41096000D02*
X-2801252Y41096000D01*
%TO.C,C20*%
X-14905748Y49617000D02*
X-15428252Y49617000D01*
X-14905748Y51087000D02*
X-15428252Y51087000D01*
%TO.C,R8*%
X38464258Y38339500D02*
X37989742Y38339500D01*
X38464258Y39384500D02*
X37989742Y39384500D01*
%TO.C,R12*%
X59536064Y26189000D02*
X59081936Y26189000D01*
X59536064Y27659000D02*
X59081936Y27659000D01*
%TO.C,C1*%
X-3167748Y8028000D02*
X-3690252Y8028000D01*
X-3167748Y9498000D02*
X-3690252Y9498000D01*
%TO.C,C8*%
X40359000Y28963252D02*
X40359000Y28440748D01*
X38889000Y28963252D02*
X38889000Y28440748D01*
%TO.C,C21*%
X-15026420Y47332000D02*
X-15307580Y47332000D01*
X-15026420Y48352000D02*
X-15307580Y48352000D01*
%TO.C,C11*%
X33247000Y37980252D02*
X33247000Y37457748D01*
X31777000Y37980252D02*
X31777000Y37457748D01*
%TO.C,D1*%
X-507000Y-2765000D02*
X-507000Y2635000D01*
X2793000Y-2765000D02*
X-507000Y-2765000D01*
X2793000Y-2765000D02*
X2793000Y2635000D01*
%TO.C,R10*%
X30072000Y27786064D02*
X30072000Y27331936D01*
X28602000Y27786064D02*
X28602000Y27331936D01*
%TO.C,R9*%
X31352258Y23226500D02*
X30877742Y23226500D01*
X31352258Y24271500D02*
X30877742Y24271500D01*
%TO.C,R6*%
X27923258Y38085500D02*
X27448742Y38085500D01*
X27923258Y39130500D02*
X27448742Y39130500D01*
%TO.C,C12*%
X36666000Y36271252D02*
X36666000Y34848748D01*
X33946000Y36271252D02*
X33946000Y34848748D01*
D10*
%TO.C,C19*%
X17644000Y33694000D02*
X17644000Y35394000D01*
X17644000Y35394000D02*
X15994000Y35394000D01*
X15994000Y33694000D02*
X17644000Y33694000D01*
X14994000Y35394000D02*
X13344000Y35394000D01*
X13344000Y33694000D02*
X14994000Y33694000D01*
X13344000Y35394000D02*
X13344000Y33694000D01*
D11*
%TO.C,C10*%
X31288000Y39394000D02*
X31288000Y35484000D01*
X29418000Y39394000D02*
X31288000Y39394000D01*
X29418000Y35484000D02*
X29418000Y39394000D01*
%TO.C,Q1*%
X38862000Y17236000D02*
X39512000Y17236000D01*
X38862000Y17236000D02*
X38212000Y17236000D01*
X38862000Y20356000D02*
X40537000Y20356000D01*
X38862000Y20356000D02*
X38212000Y20356000D01*
%TO.C,C23*%
X-12857000Y41887000D02*
X-16767000Y41887000D01*
X-12857000Y43757000D02*
X-12857000Y41887000D01*
X-16767000Y43757000D02*
X-12857000Y43757000D01*
%TO.C,C13*%
X34409748Y32358000D02*
X34932252Y32358000D01*
X34409748Y30888000D02*
X34932252Y30888000D01*
%TO.C,C17*%
X-754748Y17045000D02*
X-1277252Y17045000D01*
X-754748Y18515000D02*
X-1277252Y18515000D01*
%TO.C,M5*%
X51710000Y14200000D02*
X51710000Y12600000D01*
X51710000Y20200000D02*
X51710000Y18600000D01*
X51710000Y26200000D02*
X51710000Y24600000D01*
X51710000Y32200000D02*
X51710000Y30600000D01*
X51710000Y38200000D02*
X51710000Y36600000D01*
X48360000Y9250000D02*
X46760000Y9250000D01*
X48360000Y41550000D02*
X46760000Y41550000D01*
X42360000Y9250000D02*
X40760000Y9250000D01*
X42360000Y41550000D02*
X40760000Y41550000D01*
X36360000Y9250000D02*
X34760000Y9250000D01*
X36360000Y41550000D02*
X34760000Y41550000D01*
X30360000Y9250000D02*
X28760000Y9250000D01*
X30360000Y41550000D02*
X28760000Y41550000D01*
X24360000Y9250000D02*
X22760000Y9250000D01*
X24360000Y41550000D02*
X22760000Y41550000D01*
X19410000Y14200000D02*
X19410000Y12600000D01*
X19410000Y20200000D02*
X19410000Y18600000D01*
X19410000Y26200000D02*
X19410000Y24600000D01*
X19410000Y32200000D02*
X19410000Y30600000D01*
X19410000Y38200000D02*
X19410000Y36600000D01*
%TO.C,C15*%
X39319252Y21500000D02*
X37896748Y21500000D01*
X39319252Y24220000D02*
X37896748Y24220000D01*
%TO.C,C18*%
X23889580Y14984000D02*
X23608420Y14984000D01*
X23889580Y16004000D02*
X23608420Y16004000D01*
%TO.C,U3*%
X-434000Y23762000D02*
X-2174000Y23762000D01*
X-874000Y20942000D02*
X-2174000Y20942000D01*
%TO.C,R5*%
X22589258Y38085500D02*
X22114742Y38085500D01*
X22589258Y39130500D02*
X22114742Y39130500D01*
%TO.C,R11*%
X34179742Y24271500D02*
X34654258Y24271500D01*
X34179742Y23226500D02*
X34654258Y23226500D01*
%TO.C,U2*%
X23876000Y11267000D02*
X24526000Y11267000D01*
X23876000Y11267000D02*
X23226000Y11267000D01*
X23876000Y14387000D02*
X25551000Y14387000D01*
X23876000Y14387000D02*
X23226000Y14387000D01*
%TO.C,C9*%
X26081000Y39394000D02*
X26081000Y35484000D01*
X24211000Y39394000D02*
X26081000Y39394000D01*
X24211000Y35484000D02*
X24211000Y39394000D01*
%TO.C,R4*%
X42518000Y28802064D02*
X42518000Y28347936D01*
X41048000Y28802064D02*
X41048000Y28347936D01*
%TO.C,C6*%
X30741252Y30888000D02*
X30218748Y30888000D01*
X30741252Y32358000D02*
X30218748Y32358000D01*
%TO.C,C2*%
X9241252Y43755000D02*
X8718748Y43755000D01*
X9241252Y45225000D02*
X8718748Y45225000D01*
%TO.C,C4*%
X48538000Y15478000D02*
X44628000Y15478000D01*
X48538000Y17348000D02*
X48538000Y15478000D01*
X44628000Y17348000D02*
X48538000Y17348000D01*
%TO.C,R2*%
X23351258Y32243500D02*
X22876742Y32243500D01*
X23351258Y33288500D02*
X22876742Y33288500D01*
%TO.C,U4*%
X-7717000Y37782000D02*
X-6917000Y37782000D01*
X-7717000Y37782000D02*
X-8517000Y37782000D01*
X-7717000Y40902000D02*
X-5917000Y40902000D01*
X-7717000Y40902000D02*
X-8517000Y40902000D01*
%TO.C,R1*%
X42940500Y17001258D02*
X42940500Y16526742D01*
X41895500Y17001258D02*
X41895500Y16526742D01*
%TO.C,C14*%
X55379252Y19458000D02*
X54856748Y19458000D01*
X55379252Y20928000D02*
X54856748Y20928000D01*
%TO.C,C7*%
X26497000Y31980000D02*
X26497000Y35890000D01*
X28367000Y31980000D02*
X26497000Y31980000D01*
X28367000Y35890000D02*
X28367000Y31980000D01*
%TO.C,U1*%
X34417000Y24999000D02*
X36367000Y24999000D01*
X34417000Y24999000D02*
X32467000Y24999000D01*
X34417000Y30119000D02*
X37867000Y30119000D01*
X34417000Y30119000D02*
X32467000Y30119000D01*
%TO.C,C24*%
X-16867000Y54437000D02*
X-20777000Y54437000D01*
X-16867000Y56307000D02*
X-16867000Y54437000D01*
X-20777000Y56307000D02*
X-16867000Y56307000D01*
%TO.C,C16*%
X28323000Y27699580D02*
X28323000Y27418420D01*
X27303000Y27699580D02*
X27303000Y27418420D01*
%TO.C,R3*%
X42561742Y20334500D02*
X43036258Y20334500D01*
X42561742Y19289500D02*
X43036258Y19289500D01*
%TO.C,L1*%
X-8210733Y21207000D02*
X-8553267Y21207000D01*
X-8210733Y22227000D02*
X-8553267Y22227000D01*
%TO.C,C5*%
X34874252Y17563000D02*
X33451748Y17563000D01*
X34874252Y20283000D02*
X33451748Y20283000D01*
%TO.C,JP1*%
X3066000Y26624000D02*
X3066000Y27224000D01*
X2516000Y25424000D02*
X1916000Y25424000D01*
X2416000Y27924000D02*
X-384000Y27924000D01*
X2216000Y25724000D02*
X2516000Y25424000D01*
X2216000Y25724000D02*
X1916000Y25424000D01*
X-384000Y25924000D02*
X2416000Y25924000D01*
X-1034000Y27224000D02*
X-1034000Y26624000D01*
X2366000Y25924000D02*
G75*
G03*
X3066000Y26624000I1J699999D01*
G01*
X3066000Y27224000D02*
G75*
G03*
X2366000Y27924000I-699999J1D01*
G01*
X-1034000Y26624000D02*
G75*
G03*
X-334000Y25924000I700000J0D01*
G01*
X-334000Y27924000D02*
G75*
G03*
X-1034000Y27224000I0J-700000D01*
G01*
%TO.C,R7*%
X35289258Y38339500D02*
X34814742Y38339500D01*
X35289258Y39384500D02*
X34814742Y39384500D01*
%TD*%
M02*
