M48
; DRILL file {KiCad 7.0.7-7.0.7~ubuntu23.04.1} date Sun Sep 24 22:03:25 2023
; FORMAT={3:3/ absolute / metric / suppress leading zeros}
; #@! TF.CreationDate,2023-09-24T22:03:25+00:00
; #@! TF.GenerationSoftware,Kicad,Pcbnew,7.0.7-7.0.7~ubuntu23.04.1
; #@! TF.FileFunction,Plated,1,2,PTH
FMAT,2
METRIC,TZ
; #@! TA.AperFunction,Plated,PTH,ComponentDrill
T1C0.762
; #@! TA.AperFunction,Plated,PTH,ComponentDrill
T2C0.889
; #@! TA.AperFunction,Plated,PTH,ComponentDrill
T3C1.500
; #@! TA.AperFunction,Plated,PTH,ComponentDrill
T4C1.700
; #@! TA.AperFunction,Plated,PTH,ComponentDrill
T5C3.000
%
G90
G05
T1
X33060Y14400
X38060Y14400
T2
X7747Y26416
X7747Y23876
X7747Y21336
X7747Y18796
X7747Y16256
X10287Y26416
X10287Y23876
X10287Y21336
X10287Y18796
X10287Y16256
X57277Y29845
X59817Y29845
T3
X59309Y20193
T4
X56769Y22733
X56769Y17653
X61849Y22733
X61849Y17653
T5
X10160Y40640
X10160Y10160
X60960Y40640
X60960Y10160
T0
M30
