%TF.GenerationSoftware,KiCad,Pcbnew,7.0.7-7.0.7~ubuntu23.04.1*%
%TF.CreationDate,2023-09-27T08:45:43+00:00*%
%TF.ProjectId,PIND02,50494e44-3032-42e6-9b69-6361645f7063,rev?*%
%TF.SameCoordinates,Original*%
%TF.FileFunction,Copper,L2,Bot*%
%TF.FilePolarity,Positive*%
%FSLAX46Y46*%
G04 Gerber Fmt 4.6, Leading zero omitted, Abs format (unit mm)*
G04 Created by KiCad (PCBNEW 7.0.7-7.0.7~ubuntu23.04.1) date 2023-09-27 08:45:43*
%MOMM*%
%LPD*%
G01*
G04 APERTURE LIST*
G04 Aperture macros list*
%AMRoundRect*
0 Rectangle with rounded corners*
0 $1 Rounding radius*
0 $2 $3 $4 $5 $6 $7 $8 $9 X,Y pos of 4 corners*
0 Add a 4 corners polygon primitive as box body*
4,1,4,$2,$3,$4,$5,$6,$7,$8,$9,$2,$3,0*
0 Add four circle primitives for the rounded corners*
1,1,$1+$1,$2,$3*
1,1,$1+$1,$4,$5*
1,1,$1+$1,$6,$7*
1,1,$1+$1,$8,$9*
0 Add four rect primitives between the rounded corners*
20,1,$1+$1,$2,$3,$4,$5,0*
20,1,$1+$1,$4,$5,$6,$7,0*
20,1,$1+$1,$6,$7,$8,$9,0*
20,1,$1+$1,$8,$9,$2,$3,0*%
%AMFreePoly0*
4,1,6,0.500000,-0.850000,-0.200000,-0.850000,-0.500000,-0.550000,-0.500000,0.850000,0.500000,0.850000,0.500000,-0.850000,0.500000,-0.850000,$1*%
%AMFreePoly1*
4,1,19,0.550000,-0.750000,0.000000,-0.750000,0.000000,-0.744911,-0.071157,-0.744911,-0.207708,-0.704816,-0.327430,-0.627875,-0.420627,-0.520320,-0.479746,-0.390866,-0.500000,-0.250000,-0.500000,0.250000,-0.479746,0.390866,-0.420627,0.520320,-0.327430,0.627875,-0.207708,0.704816,-0.071157,0.744911,0.000000,0.744911,0.000000,0.750000,0.550000,0.750000,0.550000,-0.750000,0.550000,-0.750000,
$1*%
%AMFreePoly2*
4,1,19,0.000000,0.744911,0.071157,0.744911,0.207708,0.704816,0.327430,0.627875,0.420627,0.520320,0.479746,0.390866,0.500000,0.250000,0.500000,-0.250000,0.479746,-0.390866,0.420627,-0.520320,0.327430,-0.627875,0.207708,-0.704816,0.071157,-0.744911,0.000000,-0.744911,0.000000,-0.750000,-0.550000,-0.750000,-0.550000,0.750000,0.000000,0.750000,0.000000,0.744911,0.000000,0.744911,
$1*%
G04 Aperture macros list end*
%ADD10C,0.127000*%
%TA.AperFunction,NonConductor*%
%ADD11C,0.127000*%
%TD*%
%TA.AperFunction,ComponentPad*%
%ADD12R,1.524000X1.524000*%
%TD*%
%TA.AperFunction,ComponentPad*%
%ADD13C,6.000000*%
%TD*%
%TA.AperFunction,ComponentPad*%
%ADD14C,2.050000*%
%TD*%
%TA.AperFunction,ComponentPad*%
%ADD15C,2.250000*%
%TD*%
%TA.AperFunction,ComponentPad*%
%ADD16C,1.524000*%
%TD*%
%TA.AperFunction,SMDPad,CuDef*%
%ADD17RoundRect,0.250000X0.475000X-0.250000X0.475000X0.250000X-0.475000X0.250000X-0.475000X-0.250000X0*%
%TD*%
%TA.AperFunction,SMDPad,CuDef*%
%ADD18RoundRect,0.218750X0.381250X-0.218750X0.381250X0.218750X-0.381250X0.218750X-0.381250X-0.218750X0*%
%TD*%
%TA.AperFunction,SMDPad,CuDef*%
%ADD19RoundRect,0.250000X0.450000X-0.325000X0.450000X0.325000X-0.450000X0.325000X-0.450000X-0.325000X0*%
%TD*%
%TA.AperFunction,SMDPad,CuDef*%
%ADD20C,0.500000*%
%TD*%
%TA.AperFunction,SMDPad,CuDef*%
%ADD21RoundRect,0.250000X0.450000X-0.262500X0.450000X0.262500X-0.450000X0.262500X-0.450000X-0.262500X0*%
%TD*%
%TA.AperFunction,SMDPad,CuDef*%
%ADD22RoundRect,0.250000X-0.450000X0.262500X-0.450000X-0.262500X0.450000X-0.262500X0.450000X0.262500X0*%
%TD*%
%TA.AperFunction,SMDPad,CuDef*%
%ADD23RoundRect,0.250000X0.250000X0.475000X-0.250000X0.475000X-0.250000X-0.475000X0.250000X-0.475000X0*%
%TD*%
%TA.AperFunction,SMDPad,CuDef*%
%ADD24RoundRect,0.250000X-0.475000X0.250000X-0.475000X-0.250000X0.475000X-0.250000X0.475000X0.250000X0*%
%TD*%
%TA.AperFunction,SMDPad,CuDef*%
%ADD25RoundRect,0.250000X-0.250000X-0.475000X0.250000X-0.475000X0.250000X0.475000X-0.250000X0.475000X0*%
%TD*%
%TA.AperFunction,SMDPad,CuDef*%
%ADD26RoundRect,0.250000X0.400000X0.600000X-0.400000X0.600000X-0.400000X-0.600000X0.400000X-0.600000X0*%
%TD*%
%TA.AperFunction,SMDPad,CuDef*%
%ADD27RoundRect,0.250000X-0.325000X-1.100000X0.325000X-1.100000X0.325000X1.100000X-0.325000X1.100000X0*%
%TD*%
%TA.AperFunction,SMDPad,CuDef*%
%ADD28R,1.300000X1.500000*%
%TD*%
%TA.AperFunction,SMDPad,CuDef*%
%ADD29R,0.700000X3.000000*%
%TD*%
%TA.AperFunction,SMDPad,CuDef*%
%ADD30C,1.000000*%
%TD*%
%TA.AperFunction,SMDPad,CuDef*%
%ADD31RoundRect,0.250000X-0.450000X-0.425000X0.450000X-0.425000X0.450000X0.425000X-0.450000X0.425000X0*%
%TD*%
%TA.AperFunction,SMDPad,CuDef*%
%ADD32RoundRect,0.150000X-0.150000X0.587500X-0.150000X-0.587500X0.150000X-0.587500X0.150000X0.587500X0*%
%TD*%
%TA.AperFunction,SMDPad,CuDef*%
%ADD33R,1.000000X1.000000*%
%TD*%
%TA.AperFunction,SMDPad,CuDef*%
%ADD34R,1.000000X2.300000*%
%TD*%
%TA.AperFunction,SMDPad,CuDef*%
%ADD35R,1.000000X3.800000*%
%TD*%
%TA.AperFunction,SMDPad,CuDef*%
%ADD36R,2.300000X1.000000*%
%TD*%
%TA.AperFunction,SMDPad,CuDef*%
%ADD37R,3.800000X1.000000*%
%TD*%
%TA.AperFunction,SMDPad,CuDef*%
%ADD38RoundRect,0.250000X-1.100000X0.325000X-1.100000X-0.325000X1.100000X-0.325000X1.100000X0.325000X0*%
%TD*%
%TA.AperFunction,SMDPad,CuDef*%
%ADD39R,0.550000X0.250000*%
%TD*%
%TA.AperFunction,SMDPad,CuDef*%
%ADD40FreePoly0,0.000000*%
%TD*%
%TA.AperFunction,SMDPad,CuDef*%
%ADD41RoundRect,0.150000X-0.587500X-0.150000X0.587500X-0.150000X0.587500X0.150000X-0.587500X0.150000X0*%
%TD*%
%TA.AperFunction,SMDPad,CuDef*%
%ADD42RoundRect,0.250000X0.425000X-0.450000X0.425000X0.450000X-0.425000X0.450000X-0.425000X-0.450000X0*%
%TD*%
%TA.AperFunction,SMDPad,CuDef*%
%ADD43RoundRect,0.150000X0.150000X-0.512500X0.150000X0.512500X-0.150000X0.512500X-0.150000X-0.512500X0*%
%TD*%
%TA.AperFunction,SMDPad,CuDef*%
%ADD44RoundRect,0.250000X-0.262500X-0.450000X0.262500X-0.450000X0.262500X0.450000X-0.262500X0.450000X0*%
%TD*%
%TA.AperFunction,SMDPad,CuDef*%
%ADD45RoundRect,0.250000X0.450000X0.425000X-0.450000X0.425000X-0.450000X-0.425000X0.450000X-0.425000X0*%
%TD*%
%TA.AperFunction,SMDPad,CuDef*%
%ADD46RoundRect,0.150000X0.825000X0.150000X-0.825000X0.150000X-0.825000X-0.150000X0.825000X-0.150000X0*%
%TD*%
%TA.AperFunction,SMDPad,CuDef*%
%ADD47RoundRect,0.237500X0.237500X-0.287500X0.237500X0.287500X-0.237500X0.287500X-0.237500X-0.287500X0*%
%TD*%
%TA.AperFunction,SMDPad,CuDef*%
%ADD48FreePoly1,0.000000*%
%TD*%
%TA.AperFunction,SMDPad,CuDef*%
%ADD49R,1.000000X1.500000*%
%TD*%
%TA.AperFunction,SMDPad,CuDef*%
%ADD50FreePoly2,0.000000*%
%TD*%
%TA.AperFunction,SMDPad,CuDef*%
%ADD51RoundRect,0.250000X0.262500X0.450000X-0.262500X0.450000X-0.262500X-0.450000X0.262500X-0.450000X0*%
%TD*%
%TA.AperFunction,ViaPad*%
%ADD52C,0.800000*%
%TD*%
%TA.AperFunction,Conductor*%
%ADD53C,0.700000*%
%TD*%
%TA.AperFunction,Conductor*%
%ADD54C,0.400000*%
%TD*%
%TA.AperFunction,Conductor*%
%ADD55C,0.300000*%
%TD*%
%TA.AperFunction,Conductor*%
%ADD56C,0.200000*%
%TD*%
%TA.AperFunction,Conductor*%
%ADD57C,0.450000*%
%TD*%
G04 APERTURE END LIST*
D10*
D11*
X52137305Y42989176D02*
X52137305Y44489176D01*
X52137305Y44489176D02*
X51565876Y44489176D01*
X51565876Y44489176D02*
X51423019Y44417747D01*
X51423019Y44417747D02*
X51351590Y44346319D01*
X51351590Y44346319D02*
X51280162Y44203462D01*
X51280162Y44203462D02*
X51280162Y43989176D01*
X51280162Y43989176D02*
X51351590Y43846319D01*
X51351590Y43846319D02*
X51423019Y43774890D01*
X51423019Y43774890D02*
X51565876Y43703462D01*
X51565876Y43703462D02*
X52137305Y43703462D01*
X50637305Y42989176D02*
X50637305Y44489176D01*
X49923019Y42989176D02*
X49923019Y44489176D01*
X49923019Y44489176D02*
X49065876Y42989176D01*
X49065876Y42989176D02*
X49065876Y44489176D01*
X48351590Y42989176D02*
X48351590Y44489176D01*
X48351590Y44489176D02*
X47994447Y44489176D01*
X47994447Y44489176D02*
X47780161Y44417747D01*
X47780161Y44417747D02*
X47637304Y44274890D01*
X47637304Y44274890D02*
X47565875Y44132033D01*
X47565875Y44132033D02*
X47494447Y43846319D01*
X47494447Y43846319D02*
X47494447Y43632033D01*
X47494447Y43632033D02*
X47565875Y43346319D01*
X47565875Y43346319D02*
X47637304Y43203462D01*
X47637304Y43203462D02*
X47780161Y43060604D01*
X47780161Y43060604D02*
X47994447Y42989176D01*
X47994447Y42989176D02*
X48351590Y42989176D01*
X46565875Y44489176D02*
X46423018Y44489176D01*
X46423018Y44489176D02*
X46280161Y44417747D01*
X46280161Y44417747D02*
X46208733Y44346319D01*
X46208733Y44346319D02*
X46137304Y44203462D01*
X46137304Y44203462D02*
X46065875Y43917747D01*
X46065875Y43917747D02*
X46065875Y43560604D01*
X46065875Y43560604D02*
X46137304Y43274890D01*
X46137304Y43274890D02*
X46208733Y43132033D01*
X46208733Y43132033D02*
X46280161Y43060604D01*
X46280161Y43060604D02*
X46423018Y42989176D01*
X46423018Y42989176D02*
X46565875Y42989176D01*
X46565875Y42989176D02*
X46708733Y43060604D01*
X46708733Y43060604D02*
X46780161Y43132033D01*
X46780161Y43132033D02*
X46851590Y43274890D01*
X46851590Y43274890D02*
X46923018Y43560604D01*
X46923018Y43560604D02*
X46923018Y43917747D01*
X46923018Y43917747D02*
X46851590Y44203462D01*
X46851590Y44203462D02*
X46780161Y44346319D01*
X46780161Y44346319D02*
X46708733Y44417747D01*
X46708733Y44417747D02*
X46565875Y44489176D01*
X45494447Y44346319D02*
X45423019Y44417747D01*
X45423019Y44417747D02*
X45280162Y44489176D01*
X45280162Y44489176D02*
X44923019Y44489176D01*
X44923019Y44489176D02*
X44780162Y44417747D01*
X44780162Y44417747D02*
X44708733Y44346319D01*
X44708733Y44346319D02*
X44637304Y44203462D01*
X44637304Y44203462D02*
X44637304Y44060604D01*
X44637304Y44060604D02*
X44708733Y43846319D01*
X44708733Y43846319D02*
X45565876Y42989176D01*
X45565876Y42989176D02*
X44637304Y42989176D01*
X44065876Y43417747D02*
X43351591Y43417747D01*
X44208733Y42989176D02*
X43708733Y44489176D01*
X43708733Y44489176D02*
X43208733Y42989176D01*
%TA.AperFunction,EtchedComponent*%
%TO.C,JP2*%
G36*
X51300000Y28198000D02*
G01*
X50300000Y28198000D01*
X50300000Y28698000D01*
X51300000Y28698000D01*
X51300000Y28198000D01*
G37*
%TD.AperFunction*%
%TA.AperFunction,EtchedComponent*%
%TO.C,JP1*%
G36*
X35160000Y43388000D02*
G01*
X34660000Y43388000D01*
X34660000Y43988000D01*
X35160000Y43988000D01*
X35160000Y43388000D01*
G37*
%TD.AperFunction*%
%TD*%
D12*
%TO.P,J2,1*%
%TO.N,GND*%
X7874000Y34417000D03*
%TO.P,J2,2*%
X10414000Y34417000D03*
%TO.P,J2,3*%
%TO.N,Net-(U3-SDA)*%
X7874000Y31877000D03*
%TO.P,J2,4*%
X10414000Y31877000D03*
%TO.P,J2,5*%
%TO.N,VDD*%
X7874000Y29337000D03*
%TO.P,J2,6*%
X10414000Y29337000D03*
%TO.P,J2,7*%
%TO.N,Net-(U3-SCL)*%
X7874000Y26797000D03*
%TO.P,J2,8*%
X10414000Y26797000D03*
%TO.P,J2,9*%
%TO.N,GND*%
X7874000Y24257000D03*
%TO.P,J2,10*%
X10414000Y24257000D03*
%TD*%
D13*
%TO.P,M2,1*%
%TO.N,GND*%
X60960000Y40640000D03*
%TD*%
D12*
%TO.P,J3,1*%
%TO.N,VDD*%
X57150000Y18796000D03*
%TO.P,J3,2*%
%TO.N,Net-(J3-Pad2)*%
X59690000Y18796000D03*
%TD*%
D13*
%TO.P,M4,1*%
%TO.N,GND*%
X60960000Y10160000D03*
%TD*%
D14*
%TO.P,J1,1,In*%
%TO.N,Net-(J1-In)*%
X59690000Y31242000D03*
D15*
%TO.P,J1,2,Ext*%
%TO.N,GND*%
X62230000Y28702000D03*
X62230000Y33782000D03*
X57150000Y28702000D03*
X57150000Y33782000D03*
%TD*%
D13*
%TO.P,M3,1*%
%TO.N,GND*%
X10160000Y10160000D03*
%TD*%
%TO.P,M1,1*%
%TO.N,GND*%
X10160000Y40640000D03*
%TD*%
D16*
%TO.P,D2,1,K*%
%TO.N,/K*%
X33060000Y14400000D03*
%TO.P,D2,2,A*%
%TO.N,/A*%
X38060000Y14400000D03*
%TD*%
D17*
%TO.P,C22,1*%
%TO.N,Net-(C21-Pad1)*%
X14478000Y16673000D03*
%TO.P,C22,2*%
%TO.N,GND*%
X14478000Y18573000D03*
%TD*%
D18*
%TO.P,L3,1,1*%
%TO.N,Net-(L3-Pad1)*%
X59690001Y25607500D03*
%TO.P,L3,2,2*%
%TO.N,Net-(J1-In)*%
X59690001Y27732500D03*
%TD*%
D17*
%TO.P,C3,1*%
%TO.N,Net-(Q1-D)*%
X38481000Y18481000D03*
%TO.P,C3,2*%
%TO.N,GNDA*%
X38481000Y20381000D03*
%TD*%
D19*
%TO.P,L2,1*%
%TO.N,Net-(C21-Pad1)*%
X16764000Y16755000D03*
%TO.P,L2,2*%
%TO.N,Net-(U4-SW)*%
X16764000Y18805000D03*
%TD*%
D20*
%TO.P,JP2,1,1*%
%TO.N,GNDA*%
X50300000Y28448000D03*
%TO.P,JP2,2,2*%
%TO.N,GND*%
X51300000Y28448000D03*
%TD*%
D17*
%TO.P,C20,1*%
%TO.N,+5V*%
X21717000Y31435000D03*
%TO.P,C20,2*%
%TO.N,GNDA*%
X21717000Y33335000D03*
%TD*%
D21*
%TO.P,R8,1*%
%TO.N,/K*%
X26416000Y14581500D03*
%TO.P,R8,2*%
%TO.N,Net-(C12-Pad1)*%
X26416000Y16406500D03*
%TD*%
D22*
%TO.P,R12,1*%
%TO.N,Net-(L3-Pad1)*%
X59690000Y23518500D03*
%TO.P,R12,2*%
%TO.N,Net-(J3-Pad2)*%
X59690000Y21693500D03*
%TD*%
D23*
%TO.P,C1,1*%
%TO.N,VDD*%
X57211000Y16002000D03*
%TO.P,C1,2*%
%TO.N,GND*%
X55311000Y16002000D03*
%TD*%
D24*
%TO.P,C8,1*%
%TO.N,Net-(C13-Pad2)*%
X39624000Y29652000D03*
%TO.P,C8,2*%
%TO.N,/A*%
X39624000Y27752000D03*
%TD*%
D25*
%TO.P,C21,1*%
%TO.N,Net-(C21-Pad1)*%
X16068000Y14732000D03*
%TO.P,C21,2*%
%TO.N,GND*%
X17968000Y14732000D03*
%TD*%
%TO.P,C11,1*%
%TO.N,Net-(C10-Pad1)*%
X22164000Y17391000D03*
%TO.P,C11,2*%
%TO.N,GNDA*%
X24064000Y17391000D03*
%TD*%
D26*
%TO.P,D1,1,K*%
%TO.N,VDD*%
X11910000Y21209000D03*
%TO.P,D1,2,A*%
%TO.N,GND*%
X8410000Y21209000D03*
%TD*%
D22*
%TO.P,R10,1*%
%TO.N,Net-(C14-Pad2)*%
X29464000Y28471500D03*
%TO.P,R10,2*%
%TO.N,Net-(U1B--)*%
X29464000Y26646500D03*
%TD*%
D21*
%TO.P,R9,1*%
%TO.N,/REF*%
X29591000Y22455500D03*
%TO.P,R9,2*%
%TO.N,Net-(U1B-+)*%
X29591000Y24280500D03*
%TD*%
%TO.P,R6,1*%
%TO.N,Net-(C10-Pad1)*%
X22225000Y21939500D03*
%TO.P,R6,2*%
%TO.N,Net-(C9-Pad1)*%
X22225000Y23764500D03*
%TD*%
D27*
%TO.P,C12,1*%
%TO.N,Net-(C12-Pad1)*%
X27227000Y19812000D03*
%TO.P,C12,2*%
%TO.N,/REF*%
X30177000Y19812000D03*
%TD*%
D28*
%TO.P,C19,1,1*%
%TO.N,Net-(U4-VOUT)*%
X15005000Y31339000D03*
D29*
%TO.P,C19,2,2*%
%TO.N,GND*%
X16355000Y31339000D03*
D28*
%TO.P,C19,3,3*%
%TO.N,+5V*%
X17705000Y31339000D03*
%TD*%
D30*
%TO.P,FID1,*%
%TO.N,*%
X55118000Y43307000D03*
%TD*%
D31*
%TO.P,C10,1*%
%TO.N,Net-(C10-Pad1)*%
X22272000Y19804000D03*
%TO.P,C10,2*%
%TO.N,GNDA*%
X24972000Y19804000D03*
%TD*%
D32*
%TO.P,Q1,1,S*%
%TO.N,Net-(Q1-S)*%
X34483000Y18463500D03*
%TO.P,Q1,2,D*%
%TO.N,Net-(Q1-D)*%
X36383000Y18463500D03*
%TO.P,Q1,3,G*%
%TO.N,/A*%
X35433000Y16588500D03*
%TD*%
D31*
%TO.P,C23,1*%
%TO.N,Net-(U4-VOUT)*%
X14243000Y28037000D03*
%TO.P,C23,2*%
%TO.N,GND*%
X16943000Y28037000D03*
%TD*%
D25*
%TO.P,C13,1*%
%TO.N,Net-(U1B-+)*%
X35880000Y31496000D03*
%TO.P,C13,2*%
%TO.N,Net-(C13-Pad2)*%
X37780000Y31496000D03*
%TD*%
%TO.P,C17,1*%
%TO.N,VDD*%
X37912000Y38100000D03*
%TO.P,C17,2*%
%TO.N,GND*%
X39812000Y38100000D03*
%TD*%
D33*
%TO.P,M5,1,Shield*%
%TO.N,GND*%
X51460000Y9500000D03*
D34*
X51460000Y11150000D03*
D35*
X51460000Y16400000D03*
X51460000Y22400000D03*
X51460000Y28400000D03*
X51460000Y34400000D03*
D34*
X51460000Y39650000D03*
D33*
X51460000Y41300000D03*
D36*
X49810000Y9500000D03*
X49810000Y41300000D03*
D37*
X44560000Y9500000D03*
X44560000Y41300000D03*
X38560000Y9500000D03*
X38560000Y41300000D03*
X32560000Y9500000D03*
X32560000Y41300000D03*
X26560000Y9500000D03*
X26560000Y41300000D03*
D36*
X21310000Y9500000D03*
X21310000Y41300000D03*
D33*
X19660000Y9500000D03*
D34*
X19660000Y11150000D03*
D35*
X19660000Y16400000D03*
X19660000Y22400000D03*
X19660000Y28400000D03*
X19660000Y34400000D03*
D34*
X19660000Y39650000D03*
D33*
X19660000Y41300000D03*
%TD*%
D38*
%TO.P,C15,1*%
%TO.N,/REF*%
X40386000Y25605000D03*
%TO.P,C15,2*%
%TO.N,GNDA*%
X40386000Y22655000D03*
%TD*%
D25*
%TO.P,C18,1*%
%TO.N,VDD*%
X44770000Y20066000D03*
%TO.P,C18,2*%
%TO.N,GNDA*%
X46670000Y20066000D03*
%TD*%
D39*
%TO.P,U3,1,SDA*%
%TO.N,Net-(U3-SDA)*%
X33623000Y36080000D03*
%TO.P,U3,2,ADDR*%
%TO.N,Net-(JP1-C)*%
X33623000Y36580000D03*
%TO.P,U3,3,ALERT*%
%TO.N,unconnected-(U3-ALERT-Pad3)*%
X33623000Y37080000D03*
%TO.P,U3,4,SCL*%
%TO.N,Net-(U3-SCL)*%
X33623000Y37580000D03*
%TO.P,U3,5,VDD*%
%TO.N,VDD*%
X35973000Y37580000D03*
%TO.P,U3,6,~{RESET}*%
%TO.N,unconnected-(U3-~{RESET}-Pad6)*%
X35973000Y37080000D03*
%TO.P,U3,7,R*%
%TO.N,GND*%
X35973000Y36580000D03*
%TO.P,U3,8,VSS*%
X35973000Y36080000D03*
D40*
%TO.P,U3,9,VSS*%
X34798000Y36830000D03*
%TD*%
D21*
%TO.P,R5,1*%
%TO.N,Net-(C9-Pad1)*%
X22352000Y27916500D03*
%TO.P,R5,2*%
%TO.N,+5V*%
X22352000Y29741500D03*
%TD*%
D30*
%TO.P,FID2,*%
%TO.N,*%
X15240000Y7366000D03*
%TD*%
D22*
%TO.P,R11,1*%
%TO.N,Net-(U1B--)*%
X27432000Y24280500D03*
%TO.P,R11,2*%
%TO.N,/REF*%
X27432000Y22455500D03*
%TD*%
D41*
%TO.P,U2,1,Vin*%
%TO.N,VDD*%
X44528500Y22164000D03*
%TO.P,U2,2,Vout*%
%TO.N,/REF*%
X44528500Y24064000D03*
%TO.P,U2,3,GND*%
%TO.N,GNDA*%
X46403500Y23114000D03*
%TD*%
D31*
%TO.P,C9,1*%
%TO.N,Net-(C9-Pad1)*%
X22272000Y25773000D03*
%TO.P,C9,2*%
%TO.N,GNDA*%
X24972000Y25773000D03*
%TD*%
D22*
%TO.P,R4,1*%
%TO.N,Net-(C13-Pad2)*%
X41783000Y29487500D03*
%TO.P,R4,2*%
%TO.N,/A*%
X41783000Y27662500D03*
%TD*%
D23*
%TO.P,C6,1*%
%TO.N,Net-(U1B-V+)*%
X29525000Y30734000D03*
%TO.P,C6,2*%
%TO.N,GNDA*%
X27625000Y30734000D03*
%TD*%
D25*
%TO.P,C2,1*%
%TO.N,VDD*%
X15560000Y10795000D03*
%TO.P,C2,2*%
%TO.N,GND*%
X17460000Y10795000D03*
%TD*%
D42*
%TO.P,C4,1*%
%TO.N,Net-(Q1-D)*%
X41021000Y17065000D03*
%TO.P,C4,2*%
%TO.N,GNDA*%
X41021000Y19765000D03*
%TD*%
D21*
%TO.P,R2,1*%
%TO.N,Net-(U1B-V+)*%
X29083000Y35282500D03*
%TO.P,R2,2*%
%TO.N,VDD*%
X29083000Y37107500D03*
%TD*%
D43*
%TO.P,U4,1,SW*%
%TO.N,Net-(U4-SW)*%
X16063000Y20706500D03*
%TO.P,U4,2,GND*%
%TO.N,GND*%
X15113000Y20706500D03*
%TO.P,U4,3,NC*%
%TO.N,unconnected-(U4-NC-Pad3)*%
X14163000Y20706500D03*
%TO.P,U4,4,VOUT*%
%TO.N,Net-(U4-VOUT)*%
X14163000Y22981500D03*
%TO.P,U4,5,NC*%
%TO.N,unconnected-(U4-NC-Pad5)*%
X16063000Y22981500D03*
%TD*%
D44*
%TO.P,R1,1*%
%TO.N,Net-(Q1-D)*%
X43283500Y17018000D03*
%TO.P,R1,2*%
%TO.N,VDD*%
X45108500Y17018000D03*
%TD*%
D23*
%TO.P,C14,1*%
%TO.N,Net-(J1-In)*%
X55306000Y31242000D03*
%TO.P,C14,2*%
%TO.N,Net-(C14-Pad2)*%
X53406000Y31242000D03*
%TD*%
D45*
%TO.P,C7,1*%
%TO.N,Net-(U1B-V+)*%
X29163000Y33020000D03*
%TO.P,C7,2*%
%TO.N,GNDA*%
X26463000Y33020000D03*
%TD*%
D46*
%TO.P,U1,1*%
%TO.N,Net-(C13-Pad2)*%
X36892000Y29464000D03*
%TO.P,U1,2,-*%
%TO.N,/A*%
X36892000Y28194000D03*
%TO.P,U1,3,+*%
%TO.N,/REF*%
X36892000Y26924000D03*
%TO.P,U1,4,V-*%
%TO.N,GNDA*%
X36892000Y25654000D03*
%TO.P,U1,5,+*%
%TO.N,Net-(U1B-+)*%
X31942000Y25654000D03*
%TO.P,U1,6,-*%
%TO.N,Net-(U1B--)*%
X31942000Y26924000D03*
%TO.P,U1,7*%
%TO.N,Net-(C14-Pad2)*%
X31942000Y28194000D03*
%TO.P,U1,8,V+*%
%TO.N,Net-(U1B-V+)*%
X31942000Y29464000D03*
%TD*%
D31*
%TO.P,C24,1*%
%TO.N,Net-(U4-VOUT)*%
X14243000Y25497000D03*
%TO.P,C24,2*%
%TO.N,GND*%
X16943000Y25497000D03*
%TD*%
D24*
%TO.P,C16,1*%
%TO.N,Net-(C14-Pad2)*%
X27178000Y28509000D03*
%TO.P,C16,2*%
%TO.N,Net-(U1B--)*%
X27178000Y26609000D03*
%TD*%
D21*
%TO.P,R3,1*%
%TO.N,Net-(Q1-S)*%
X32385000Y17756500D03*
%TO.P,R3,2*%
%TO.N,GNDA*%
X32385000Y19581500D03*
%TD*%
D47*
%TO.P,L1,1*%
%TO.N,VDD*%
X14351000Y13222000D03*
%TO.P,L1,2*%
%TO.N,Net-(C21-Pad1)*%
X14351000Y14972000D03*
%TD*%
D38*
%TO.P,C5,1*%
%TO.N,Net-(Q1-S)*%
X29591000Y16969000D03*
%TO.P,C5,2*%
%TO.N,/K*%
X29591000Y14019000D03*
%TD*%
D48*
%TO.P,JP1,1,A*%
%TO.N,GND*%
X34260000Y43688000D03*
D49*
%TO.P,JP1,2,C*%
%TO.N,Net-(JP1-C)*%
X35560000Y43688000D03*
D50*
%TO.P,JP1,3,B*%
%TO.N,VDD*%
X36860000Y43688000D03*
%TD*%
D51*
%TO.P,R7,1*%
%TO.N,Net-(C12-Pad1)*%
X24026500Y15105000D03*
%TO.P,R7,2*%
%TO.N,Net-(C10-Pad1)*%
X22201500Y15105000D03*
%TD*%
D52*
%TO.N,GND*%
X38862000Y42418000D03*
X32766000Y43687998D03*
X55118000Y24384000D03*
X41021000Y38100000D03*
X55118000Y36830000D03*
X30861000Y44450000D03*
X12573000Y36322000D03*
X36830000Y36068000D03*
X18034000Y35052000D03*
X17780000Y39624000D03*
X34798000Y38354000D03*
X35560000Y8636000D03*
%TO.N,Net-(JP1-C)*%
X32512000Y38862000D03*
X32512000Y36830000D03*
%TO.N,GNDA*%
X38100000Y22655000D03*
X42671988Y25400000D03*
X33528000Y22860000D03*
%TD*%
D53*
%TO.N,+5V*%
X21717000Y30162000D02*
X22352000Y29527000D01*
X21717000Y31435000D02*
X21717000Y30162000D01*
X17705000Y31339000D02*
X21621000Y31339000D01*
X21621000Y31339000D02*
X21717000Y31435000D01*
D54*
%TO.N,GND*%
X38560000Y42116000D02*
X38862000Y42418000D01*
D55*
X16943000Y28037000D02*
X16355000Y28625000D01*
X16355000Y28625000D02*
X16355000Y31339000D01*
D56*
X35973000Y36080000D02*
X35973000Y36455000D01*
X35973000Y36080000D02*
X36818000Y36080000D01*
D54*
X15113000Y23754660D02*
X16855340Y25497000D01*
D53*
X39812000Y38100000D02*
X41021000Y38100000D01*
D56*
X34798000Y36830000D02*
X34798000Y38354000D01*
D54*
X16855340Y25497000D02*
X16943000Y25497000D01*
X15113000Y20706500D02*
X15113000Y23754660D01*
X15113000Y20706500D02*
X15113000Y19208000D01*
X15113000Y19208000D02*
X14478000Y18573000D01*
D56*
X36818000Y36080000D02*
X36830000Y36068000D01*
D54*
X38560000Y41300000D02*
X38560000Y42116000D01*
D53*
%TO.N,VDD*%
X38354000Y37658000D02*
X37912000Y38100000D01*
X57211000Y16002000D02*
X57211000Y14539000D01*
D55*
X37912000Y38100000D02*
X37211000Y38100000D01*
D53*
X44528500Y22164000D02*
X44770000Y21922500D01*
X11876000Y29337000D02*
X10414000Y29337000D01*
X15560000Y12013000D02*
X14351000Y13222000D01*
X47498000Y14628500D02*
X47498000Y11684000D01*
X54864000Y12192000D02*
X54864000Y9906000D01*
X11910000Y14887000D02*
X11910000Y21209000D01*
D56*
X37912000Y38100000D02*
X37517000Y37705000D01*
D54*
X41529000Y40513000D02*
X40640000Y39624000D01*
D53*
X11910000Y22438902D02*
X12204098Y22733000D01*
X31750000Y34798000D02*
X38354000Y34798000D01*
X57150000Y18796000D02*
X57150000Y16063000D01*
D54*
X39408918Y39624000D02*
X37912000Y38127082D01*
X37912000Y38127082D02*
X37912000Y38100000D01*
D53*
X52070000Y7112000D02*
X47498000Y7112000D01*
D54*
X40640000Y39624000D02*
X39408918Y39624000D01*
X36860000Y43688000D02*
X40386000Y43688000D01*
D53*
X18796000Y7112000D02*
X15560000Y10348000D01*
X13575000Y13222000D02*
X11910000Y14887000D01*
X47498000Y7112000D02*
X18796000Y7112000D01*
X54864000Y9906000D02*
X52070000Y7112000D01*
X38354000Y34798000D02*
X38354000Y37658000D01*
X14351000Y13222000D02*
X13575000Y13222000D01*
D54*
X41529000Y42545000D02*
X41529000Y40513000D01*
D53*
X12204098Y22733000D02*
X12204098Y32270098D01*
X44770000Y21922500D02*
X44770000Y20066000D01*
D54*
X40386000Y43688000D02*
X41529000Y42545000D01*
D55*
X37211000Y38100000D02*
X36691000Y37580000D01*
D53*
X17272000Y37338000D02*
X25146000Y37338000D01*
X15560000Y10795000D02*
X15560000Y12013000D01*
X15560000Y10348000D02*
X15560000Y10795000D01*
X57150000Y16063000D02*
X57211000Y16002000D01*
X57211000Y14539000D02*
X54864000Y12192000D01*
X10414000Y29337000D02*
X7874000Y29337000D01*
X29210000Y37338000D02*
X31750000Y34798000D01*
X44704000Y20000000D02*
X44770000Y20066000D01*
X45108500Y17018000D02*
X47498000Y14628500D01*
X12204098Y32270098D02*
X17272000Y37338000D01*
X25146000Y37338000D02*
X29210000Y37338000D01*
X45108500Y18264500D02*
X44704000Y18669000D01*
X47498000Y7112000D02*
X47498000Y11684000D01*
X11910000Y21209000D02*
X11910000Y22438902D01*
X45108500Y17018000D02*
X45108500Y18264500D01*
D55*
X36691000Y37580000D02*
X35973000Y37580000D01*
D53*
X44704000Y18669000D02*
X44704000Y20000000D01*
D57*
%TO.N,Net-(Q1-D)*%
X36383000Y18463500D02*
X38463500Y18463500D01*
X41021000Y17065000D02*
X41068000Y17018000D01*
X39897000Y17065000D02*
X38481000Y18481000D01*
X38463500Y18463500D02*
X38481000Y18481000D01*
X41068000Y17018000D02*
X43371000Y17018000D01*
X41021000Y17065000D02*
X39897000Y17065000D01*
%TO.N,Net-(Q1-S)*%
X29894000Y17272000D02*
X29591000Y16969000D01*
X29591000Y16969000D02*
X31597500Y16969000D01*
X31597500Y16969000D02*
X32385000Y17756500D01*
X32869500Y17756500D02*
X32385000Y17756500D01*
X34483000Y18463500D02*
X33576500Y18463500D01*
X33576500Y18463500D02*
X32869500Y17756500D01*
%TO.N,/K*%
X29591000Y14019000D02*
X28018000Y14019000D01*
X29591000Y14019000D02*
X32679000Y14019000D01*
X29479000Y13907000D02*
X29591000Y14019000D01*
X28018000Y14019000D02*
X27455500Y14581500D01*
X32679000Y14019000D02*
X33060000Y14400000D01*
X27455500Y14581500D02*
X26416000Y14581500D01*
%TO.N,Net-(U1B-V+)*%
X29337000Y32846000D02*
X29337000Y30922000D01*
X29525000Y30546000D02*
X30607000Y29464000D01*
X29163000Y35202500D02*
X29083000Y35282500D01*
X29337000Y30922000D02*
X29525000Y30734000D01*
X30607000Y29464000D02*
X31942000Y29464000D01*
X29525000Y30734000D02*
X29525000Y30546000D01*
X29163000Y33020000D02*
X29163000Y35202500D01*
X29163000Y33020000D02*
X29337000Y32846000D01*
%TO.N,Net-(C13-Pad2)*%
X37080000Y29652000D02*
X36892000Y29464000D01*
X36892000Y30608000D02*
X37780000Y31496000D01*
X39624000Y29652000D02*
X37080000Y29652000D01*
X41783000Y29487500D02*
X39788500Y29487500D01*
X39788500Y29487500D02*
X39624000Y29652000D01*
X36892000Y29464000D02*
X36892000Y30608000D01*
%TO.N,/A*%
X36195000Y28194000D02*
X36892000Y28194000D01*
X38669000Y27752000D02*
X39624000Y27752000D01*
X41693500Y27752000D02*
X41783000Y27662500D01*
X34798000Y21279586D02*
X34798000Y26797000D01*
X35433000Y16588500D02*
X35433000Y20644586D01*
X36892000Y28194000D02*
X38227000Y28194000D01*
X35433000Y20644586D02*
X34798000Y21279586D01*
X38060000Y14400000D02*
X38060000Y14493750D01*
X35965250Y16588500D02*
X35433000Y16588500D01*
X38227000Y28194000D02*
X38669000Y27752000D01*
X34798000Y26797000D02*
X36195000Y28194000D01*
X38060000Y14493750D02*
X35965250Y16588500D01*
X39624000Y27752000D02*
X41693500Y27752000D01*
%TO.N,Net-(C9-Pad1)*%
X22352000Y25853000D02*
X22272000Y25773000D01*
X22352000Y27615000D02*
X22352000Y25853000D01*
X22272000Y24011000D02*
X22606000Y23677000D01*
X22272000Y25773000D02*
X22272000Y24011000D01*
%TO.N,Net-(C10-Pad1)*%
X22164000Y15615000D02*
X22035000Y15486000D01*
X22606000Y22027000D02*
X22352000Y21773000D01*
X22272000Y19804000D02*
X22272000Y17499000D01*
X22352000Y19884000D02*
X22272000Y19804000D01*
X22352000Y21773000D02*
X22352000Y19884000D01*
X22164000Y17391000D02*
X22164000Y15615000D01*
X22272000Y17499000D02*
X22164000Y17391000D01*
%TO.N,Net-(C12-Pad1)*%
X26416000Y16406500D02*
X26416000Y17092832D01*
X26058500Y16406500D02*
X26416000Y16406500D01*
X26416000Y17092832D02*
X27227000Y17903832D01*
X24026500Y15105000D02*
X24757000Y15105000D01*
X24757000Y15105000D02*
X26058500Y16406500D01*
X27227000Y17903832D02*
X27227000Y19812000D01*
X26924000Y19509000D02*
X27227000Y19812000D01*
X24026500Y15105000D02*
X24257000Y15105000D01*
%TO.N,/REF*%
X27432000Y22455500D02*
X29591000Y22455500D01*
D56*
X44096000Y16163406D02*
X44065297Y16132703D01*
D57*
X27816000Y16256000D02*
X27816000Y17573594D01*
X42956000Y23495000D02*
X42956000Y19012594D01*
D56*
X44065297Y17903297D02*
X44096000Y17872594D01*
D57*
X30177000Y19812000D02*
X30177000Y21869500D01*
X30177000Y21869500D02*
X29591000Y22455500D01*
X42956000Y23713000D02*
X43307000Y24064000D01*
X40124594Y12192000D02*
X37457957Y12192000D01*
X32236957Y16387000D02*
X31467957Y15618000D01*
X42956000Y23846000D02*
X41197000Y25605000D01*
X30177000Y19812000D02*
X30054406Y19812000D01*
X36892000Y26924000D02*
X38354000Y26924000D01*
X42956000Y23495000D02*
X42956000Y23713000D01*
X33883043Y16387000D02*
X32236957Y16387000D01*
X44065297Y16132703D02*
X40124594Y12192000D01*
X39673000Y25605000D02*
X40386000Y25605000D01*
X42956000Y23495000D02*
X42956000Y23846000D01*
X37457957Y12192000D02*
X35306000Y14343957D01*
X38354000Y26924000D02*
X39673000Y25605000D01*
X28454000Y15618000D02*
X27816000Y16256000D01*
X27816000Y17573594D02*
X28448000Y18205594D01*
X35306000Y14964043D02*
X33883043Y16387000D01*
X28448000Y22455500D02*
X27432000Y22455500D01*
X44528500Y24064000D02*
X43307000Y24064000D01*
X28448000Y18205594D02*
X28448000Y22455500D01*
X42956000Y19012594D02*
X44065297Y17903297D01*
D56*
X44096000Y17872594D02*
X44096000Y16163406D01*
D57*
X35306000Y14343957D02*
X35306000Y14964043D01*
X41197000Y25605000D02*
X40386000Y25605000D01*
X31467957Y15618000D02*
X28454000Y15618000D01*
%TO.N,Net-(U1B-+)*%
X33909000Y27102827D02*
X34642000Y27835827D01*
X31942000Y24703000D02*
X31942000Y25654000D01*
X29591000Y24280500D02*
X29614500Y24257000D01*
X29614500Y24257000D02*
X31496000Y24257000D01*
X35880000Y31308000D02*
X35880000Y31496000D01*
X31942000Y25654000D02*
X33909000Y25654000D01*
X31496000Y24257000D02*
X31942000Y24703000D01*
X34642000Y30070000D02*
X35880000Y31308000D01*
X33909000Y25654000D02*
X33909000Y27102827D01*
X34642000Y27835827D02*
X34642000Y30070000D01*
%TO.N,Net-(J1-In)*%
X59690000Y31242000D02*
X59690001Y27732500D01*
X59690000Y31242000D02*
X55306000Y31242000D01*
%TO.N,Net-(C14-Pad2)*%
X42672000Y33274000D02*
X35052000Y33274000D01*
X35052000Y33274000D02*
X33342000Y31564000D01*
X31942000Y28194000D02*
X29741500Y28194000D01*
X29741500Y28194000D02*
X29464000Y28471500D01*
X53406000Y31242000D02*
X44704000Y31242000D01*
X33342000Y31564000D02*
X33342000Y28770000D01*
X44704000Y31242000D02*
X42672000Y33274000D01*
X27569500Y28471500D02*
X27432000Y28334000D01*
X29464000Y28471500D02*
X27569500Y28471500D01*
X33342000Y28770000D02*
X32766000Y28194000D01*
X32766000Y28194000D02*
X31942000Y28194000D01*
%TO.N,Net-(U1B--)*%
X30607000Y26924000D02*
X31942000Y26924000D01*
X29326500Y26784000D02*
X29464000Y26646500D01*
X27432000Y24280500D02*
X27432000Y26355000D01*
X27432000Y26355000D02*
X27178000Y26609000D01*
X27432000Y26784000D02*
X29326500Y26784000D01*
X29464000Y26646500D02*
X30329500Y26646500D01*
X30329500Y26646500D02*
X30607000Y26924000D01*
%TO.N,Net-(U4-VOUT)*%
X14243000Y25497000D02*
X14243000Y28037000D01*
X15005000Y28799000D02*
X15005000Y31339000D01*
X14243000Y28037000D02*
X15005000Y28799000D01*
X14163000Y25417000D02*
X14243000Y25497000D01*
X14163000Y22981500D02*
X14163000Y25417000D01*
%TO.N,Net-(C21-Pad1)*%
X14351000Y14972000D02*
X16003000Y14972000D01*
X16003000Y14972000D02*
X16243000Y14732000D01*
X16243000Y16234000D02*
X16764000Y16755000D01*
X16243000Y14732000D02*
X16243000Y16234000D01*
X14351000Y14972000D02*
X14478000Y15099000D01*
X14478000Y15099000D02*
X14478000Y16848000D01*
%TO.N,Net-(U3-SDA)*%
X10414000Y31877000D02*
X15748000Y37211000D01*
X28290762Y42926000D02*
X29385000Y41831762D01*
D55*
X32095272Y36080000D02*
X31992136Y36183136D01*
D57*
X16764000Y42926000D02*
X28290762Y42926000D01*
X29385000Y38790273D02*
X31992136Y36183136D01*
D55*
X33623000Y36080000D02*
X32095272Y36080000D01*
D57*
X10414000Y31877000D02*
X7874000Y31877000D01*
X29385000Y41831762D02*
X29385000Y38790273D01*
X15748000Y41910000D02*
X16764000Y42926000D01*
X15748000Y37211000D02*
X15748000Y41910000D01*
%TO.N,Net-(U3-SCL)*%
X5935000Y42390053D02*
X8502947Y44958000D01*
X30035000Y39790273D02*
X32170273Y37655000D01*
D55*
X32170273Y37655000D02*
X32245273Y37580000D01*
X32245273Y37580000D02*
X33623000Y37580000D01*
D57*
X7874000Y26797000D02*
X5935000Y28736000D01*
X30035000Y43117000D02*
X30035000Y39790273D01*
X10414000Y26797000D02*
X7874000Y26797000D01*
X8502947Y44958000D02*
X28194000Y44958000D01*
X28194000Y44958000D02*
X30035000Y43117000D01*
X5935000Y28736000D02*
X5935000Y42390053D01*
%TO.N,Net-(J3-Pad2)*%
X59690000Y21693500D02*
X59690000Y18796000D01*
%TO.N,Net-(JP1-C)*%
X33856431Y38862000D02*
X32512000Y38862000D01*
D55*
X33623000Y36580000D02*
X32762000Y36580000D01*
X32762000Y36580000D02*
X32512000Y36830000D01*
D57*
X35560000Y40565569D02*
X33856431Y38862000D01*
X35560000Y43688000D02*
X35560000Y40565569D01*
%TO.N,Net-(U4-SW)*%
X16063000Y20706500D02*
X16063000Y20259000D01*
X16764000Y19558000D02*
X16764000Y18805000D01*
X16063000Y20259000D02*
X16764000Y19558000D01*
%TO.N,Net-(L3-Pad1)*%
X59690001Y23518501D02*
X59690000Y23518500D01*
X59690001Y25607500D02*
X59690001Y23518501D01*
D53*
%TO.N,GNDA*%
X40386000Y22655000D02*
X38100000Y22655000D01*
D54*
X25400000Y23368000D02*
X25400000Y25345000D01*
D55*
X33528000Y22860000D02*
X33070000Y23318000D01*
D53*
X44919949Y25400000D02*
X42671988Y25400000D01*
X46403500Y23916449D02*
X44919949Y25400000D01*
D55*
X33070000Y23318000D02*
X26466000Y23318000D01*
D54*
X33528000Y22860000D02*
X33020000Y23368000D01*
D53*
X46403500Y23114000D02*
X46403500Y23916449D01*
D54*
X33020000Y23368000D02*
X25400000Y23368000D01*
X25400000Y25345000D02*
X24972000Y25773000D01*
%TD*%
%TA.AperFunction,Conductor*%
%TO.N,GND*%
G36*
X65718539Y45435815D02*
G01*
X65764294Y45383011D01*
X65775500Y45331500D01*
X65775500Y5468500D01*
X65755815Y5401461D01*
X65703011Y5355706D01*
X65651500Y5344500D01*
X5468500Y5344500D01*
X5401461Y5364185D01*
X5355706Y5416989D01*
X5344500Y5468500D01*
X5344500Y7366000D01*
X14234659Y7366000D01*
X14253975Y7169871D01*
X14311188Y6981267D01*
X14404086Y6807468D01*
X14404090Y6807461D01*
X14529116Y6655117D01*
X14681460Y6530091D01*
X14681467Y6530087D01*
X14855266Y6437189D01*
X14855269Y6437189D01*
X14855273Y6437186D01*
X15043868Y6379976D01*
X15240000Y6360659D01*
X15436132Y6379976D01*
X15624727Y6437186D01*
X15627983Y6438926D01*
X15736165Y6496751D01*
X15798538Y6530090D01*
X15950883Y6655117D01*
X16075910Y6807462D01*
X16168814Y6981273D01*
X16226024Y7169868D01*
X16245341Y7366000D01*
X16226024Y7562132D01*
X16168814Y7750727D01*
X16168811Y7750731D01*
X16168811Y7750734D01*
X16075913Y7924533D01*
X16075909Y7924540D01*
X15950883Y8076884D01*
X15798539Y8201910D01*
X15798532Y8201914D01*
X15624733Y8294812D01*
X15624727Y8294814D01*
X15436132Y8352024D01*
X15436129Y8352025D01*
X15240000Y8371341D01*
X15043870Y8352025D01*
X14855266Y8294812D01*
X14681467Y8201914D01*
X14681460Y8201910D01*
X14529116Y8076884D01*
X14404090Y7924540D01*
X14404086Y7924533D01*
X14311188Y7750734D01*
X14253975Y7562130D01*
X14234659Y7366000D01*
X5344500Y7366000D01*
X5344500Y27989812D01*
X5364185Y28056851D01*
X5416989Y28102606D01*
X5486147Y28112550D01*
X5549703Y28083525D01*
X5556181Y28077493D01*
X6567181Y27066494D01*
X6600666Y27005171D01*
X6603500Y26978813D01*
X6603500Y25986346D01*
X6610011Y25925798D01*
X6610011Y25925796D01*
X6661110Y25788797D01*
X6661111Y25788796D01*
X6748739Y25671739D01*
X6816575Y25620958D01*
X6858445Y25565025D01*
X6863429Y25495334D01*
X6829944Y25434011D01*
X6816575Y25422426D01*
X6754809Y25376188D01*
X6668649Y25261094D01*
X6668645Y25261087D01*
X6618403Y25126380D01*
X6618401Y25126373D01*
X6612000Y25066845D01*
X6612000Y24507000D01*
X7319639Y24507000D01*
X7386678Y24487315D01*
X7432433Y24434511D01*
X7442377Y24365353D01*
X7440532Y24355422D01*
X7427312Y24297498D01*
X7425736Y24290593D01*
X7425735Y24290592D01*
X7436443Y24147705D01*
X7434703Y24147575D01*
X7431106Y24088855D01*
X7389808Y24032497D01*
X7324597Y24007413D01*
X7314488Y24007000D01*
X6612000Y24007000D01*
X6612000Y23447156D01*
X6618401Y23387628D01*
X6618403Y23387621D01*
X6668645Y23252914D01*
X6668649Y23252907D01*
X6754809Y23137813D01*
X6754812Y23137810D01*
X6869906Y23051650D01*
X6869913Y23051646D01*
X7004620Y23001404D01*
X7004627Y23001402D01*
X7064155Y22995001D01*
X7064172Y22995000D01*
X7623999Y22995000D01*
X7624000Y23700935D01*
X7643685Y23767974D01*
X7696489Y23813729D01*
X7765647Y23823673D01*
X7784542Y23819428D01*
X7807002Y23812500D01*
X7807004Y23812500D01*
X7907311Y23812500D01*
X7907312Y23812500D01*
X7981518Y23823685D01*
X8050742Y23814212D01*
X8103857Y23768818D01*
X8123997Y23701914D01*
X8124000Y23701070D01*
X8124000Y22995000D01*
X8683828Y22995000D01*
X8683844Y22995001D01*
X8743372Y23001402D01*
X8743379Y23001404D01*
X8878086Y23051646D01*
X8878093Y23051650D01*
X8993186Y23137809D01*
X9044733Y23206666D01*
X9100667Y23248537D01*
X9170359Y23253521D01*
X9231682Y23220036D01*
X9243267Y23206666D01*
X9294813Y23137809D01*
X9409906Y23051650D01*
X9409913Y23051646D01*
X9544620Y23001404D01*
X9544627Y23001402D01*
X9604155Y22995001D01*
X9604172Y22995000D01*
X10163999Y22995000D01*
X10164000Y23700935D01*
X10183685Y23767974D01*
X10236489Y23813729D01*
X10305647Y23823673D01*
X10324542Y23819428D01*
X10347002Y23812500D01*
X10347004Y23812500D01*
X10447311Y23812500D01*
X10447312Y23812500D01*
X10521518Y23823685D01*
X10590742Y23814212D01*
X10643857Y23768818D01*
X10663997Y23701914D01*
X10664000Y23701070D01*
X10663999Y22995000D01*
X11027355Y22995000D01*
X11094394Y22975315D01*
X11140149Y22922511D01*
X11150093Y22853353D01*
X11139892Y22818930D01*
X11137898Y22814619D01*
X11135724Y22809921D01*
X11099409Y22736698D01*
X11099302Y22736407D01*
X11091725Y22714886D01*
X11091642Y22714637D01*
X11074068Y22634796D01*
X11054342Y22555478D01*
X11054317Y22555291D01*
X11051513Y22532396D01*
X11051500Y22532270D01*
X11051500Y22474545D01*
X11031815Y22407506D01*
X11015182Y22386864D01*
X10910969Y22282651D01*
X10817886Y22131741D01*
X10817884Y22131736D01*
X10762113Y21963428D01*
X10751500Y21859553D01*
X10751500Y20558463D01*
X10751501Y20558447D01*
X10762113Y20454573D01*
X10817884Y20286265D01*
X10817886Y20286260D01*
X10910971Y20135347D01*
X11015181Y20031137D01*
X11048666Y19969814D01*
X11051500Y19943456D01*
X11051500Y14924411D01*
X11051295Y14919377D01*
X11046754Y14863619D01*
X11057790Y14782621D01*
X11066628Y14701362D01*
X11066693Y14701063D01*
X11071914Y14678789D01*
X11071962Y14678594D01*
X11084818Y14643602D01*
X11100149Y14601871D01*
X11126252Y14524400D01*
X11126253Y14524399D01*
X11126363Y14524160D01*
X11136228Y14503573D01*
X11136357Y14503313D01*
X11136359Y14503310D01*
X11180379Y14434440D01*
X11222524Y14364395D01*
X11222525Y14364394D01*
X11222527Y14364391D01*
X11222733Y14364120D01*
X11236767Y14346168D01*
X11236929Y14345967D01*
X11294750Y14288147D01*
X11350941Y14228827D01*
X11351219Y14228591D01*
X11368990Y14213907D01*
X12191329Y13391569D01*
X12941488Y12641410D01*
X12944894Y12637717D01*
X12963841Y12615411D01*
X12981130Y12595057D01*
X13046210Y12545585D01*
X13109912Y12494379D01*
X13110191Y12494200D01*
X13129561Y12482187D01*
X13129787Y12482051D01*
X13203963Y12447733D01*
X13277204Y12411409D01*
X13277533Y12411288D01*
X13298975Y12403740D01*
X13299260Y12403645D01*
X13299263Y12403643D01*
X13379074Y12386075D01*
X13458419Y12366343D01*
X13458422Y12366343D01*
X13458788Y12366293D01*
X13481312Y12363535D01*
X13481632Y12363501D01*
X13481633Y12363500D01*
X13563381Y12363500D01*
X13564098Y12363481D01*
X13587386Y12362851D01*
X13649125Y12344435D01*
X13796080Y12253791D01*
X13961619Y12198938D01*
X14063787Y12188500D01*
X14119034Y12188501D01*
X14186073Y12168818D01*
X14206716Y12152182D01*
X14605122Y11753776D01*
X14638607Y11692453D01*
X14633623Y11622761D01*
X14622983Y11601003D01*
X14617883Y11592736D01*
X14617881Y11592731D01*
X14562113Y11424430D01*
X14562113Y11424429D01*
X14551500Y11320553D01*
X14551500Y10269463D01*
X14551501Y10269447D01*
X14562113Y10165573D01*
X14617884Y9997265D01*
X14617886Y9997260D01*
X14631422Y9975315D01*
X14710970Y9846348D01*
X14836348Y9720970D01*
X14987262Y9627885D01*
X15077142Y9598103D01*
X15125819Y9568078D01*
X18162488Y6531410D01*
X18165894Y6527717D01*
X18202129Y6485058D01*
X18267212Y6435583D01*
X18330913Y6384379D01*
X18330920Y6384376D01*
X18331264Y6384155D01*
X18350517Y6372213D01*
X18350788Y6372050D01*
X18424978Y6337726D01*
X18444077Y6328254D01*
X18498203Y6301410D01*
X18498204Y6301410D01*
X18498206Y6301409D01*
X18498500Y6301301D01*
X18519974Y6293740D01*
X18520263Y6293643D01*
X18600106Y6276069D01*
X18679419Y6256344D01*
X18679423Y6256344D01*
X18679739Y6256301D01*
X18702414Y6253525D01*
X18702629Y6253501D01*
X18702633Y6253500D01*
X18702636Y6253500D01*
X18784398Y6253500D01*
X18866086Y6251287D01*
X18866086Y6251288D01*
X18866091Y6251287D01*
X18866388Y6251312D01*
X18889407Y6253500D01*
X47404633Y6253500D01*
X47417999Y6253500D01*
X47438059Y6251867D01*
X47451248Y6249704D01*
X47519581Y6253410D01*
X47522936Y6253500D01*
X52032590Y6253500D01*
X52037624Y6253295D01*
X52060094Y6251466D01*
X52093385Y6248755D01*
X52174379Y6259791D01*
X52255640Y6268628D01*
X52255645Y6268630D01*
X52256062Y6268722D01*
X52277958Y6273852D01*
X52278399Y6273963D01*
X52278410Y6273964D01*
X52355129Y6302150D01*
X52432600Y6328252D01*
X52432604Y6328255D01*
X52432945Y6328412D01*
X52453333Y6338183D01*
X52453682Y6338357D01*
X52453690Y6338359D01*
X52522560Y6382380D01*
X52592605Y6424524D01*
X52592607Y6424527D01*
X52592942Y6424781D01*
X52610781Y6438728D01*
X52611028Y6438926D01*
X52611028Y6438927D01*
X52611031Y6438928D01*
X52668853Y6496751D01*
X52728174Y6552942D01*
X52728174Y6552943D01*
X52728177Y6552945D01*
X52728385Y6553191D01*
X52743098Y6570997D01*
X55444613Y9272513D01*
X55448282Y9275894D01*
X55490942Y9312129D01*
X55540409Y9377203D01*
X55591622Y9440913D01*
X55591624Y9440918D01*
X55591830Y9441239D01*
X55603712Y9460394D01*
X55603946Y9460784D01*
X55603949Y9460787D01*
X55638263Y9534958D01*
X55674591Y9608204D01*
X55674708Y9608524D01*
X55682226Y9629877D01*
X55682354Y9630258D01*
X55682357Y9630263D01*
X55699925Y9710075D01*
X55719657Y9789419D01*
X55719657Y9789426D01*
X55719704Y9789768D01*
X55722456Y9812229D01*
X55722500Y9812633D01*
X55722500Y9894383D01*
X55723544Y9932941D01*
X55724713Y9976086D01*
X55724712Y9976087D01*
X55724713Y9976089D01*
X55724695Y9976303D01*
X55722500Y9999407D01*
X55722500Y11785037D01*
X55742185Y11852076D01*
X55758814Y11872713D01*
X57791613Y13905513D01*
X57795282Y13908894D01*
X57837942Y13945129D01*
X57887417Y14010213D01*
X57938621Y14073913D01*
X57938625Y14073922D01*
X57938839Y14074256D01*
X57950757Y14093468D01*
X57950950Y14093789D01*
X57985274Y14167979D01*
X58008050Y14213902D01*
X58021590Y14241203D01*
X58021591Y14241211D01*
X58021747Y14241633D01*
X58029228Y14262883D01*
X58029354Y14263258D01*
X58029357Y14263263D01*
X58046930Y14343102D01*
X58066656Y14422418D01*
X58066656Y14422424D01*
X58066697Y14422725D01*
X58069473Y14445389D01*
X58069500Y14445633D01*
X58069500Y14527399D01*
X58070535Y14565589D01*
X58071713Y14609085D01*
X58071712Y14609086D01*
X58071713Y14609089D01*
X58071695Y14609299D01*
X58069500Y14632406D01*
X58069500Y15033537D01*
X58087961Y15098632D01*
X58153115Y15204262D01*
X58208887Y15372574D01*
X58219500Y15476455D01*
X58219499Y16527544D01*
X58208887Y16631426D01*
X58153115Y16799738D01*
X58060030Y16950652D01*
X58044819Y16965863D01*
X58011334Y17027186D01*
X58008500Y17053544D01*
X58008500Y17441180D01*
X58028185Y17508219D01*
X58080989Y17553974D01*
X58089139Y17557351D01*
X58158204Y17583111D01*
X58275261Y17670739D01*
X58320734Y17731484D01*
X58376667Y17773354D01*
X58446359Y17778338D01*
X58507682Y17744853D01*
X58519263Y17731488D01*
X58564739Y17670739D01*
X58681796Y17583111D01*
X58818799Y17532011D01*
X58846050Y17529082D01*
X58879345Y17525501D01*
X58879362Y17525500D01*
X60500638Y17525500D01*
X60500654Y17525501D01*
X60527692Y17528409D01*
X60561201Y17532011D01*
X60698204Y17583111D01*
X60815261Y17670739D01*
X60902889Y17787796D01*
X60953989Y17924799D01*
X60957591Y17958308D01*
X60960499Y17985346D01*
X60960500Y17985363D01*
X60960500Y19606638D01*
X60960499Y19606655D01*
X60957157Y19637730D01*
X60953989Y19667201D01*
X60953114Y19669546D01*
X60930928Y19729030D01*
X60902889Y19804204D01*
X60815261Y19921261D01*
X60698204Y20008889D01*
X60658551Y20023679D01*
X60561203Y20059989D01*
X60534242Y20062888D01*
X60469692Y20089627D01*
X60429845Y20147021D01*
X60423500Y20186177D01*
X60423500Y20645477D01*
X60443185Y20712516D01*
X60482401Y20751014D01*
X60613652Y20831970D01*
X60739030Y20957348D01*
X60832115Y21108262D01*
X60887887Y21276574D01*
X60898500Y21380455D01*
X60898499Y22006544D01*
X60887887Y22110426D01*
X60832115Y22278738D01*
X60739030Y22429652D01*
X60650363Y22518319D01*
X60616878Y22579642D01*
X60621862Y22649334D01*
X60650363Y22693681D01*
X60693381Y22736699D01*
X60739030Y22782348D01*
X60832115Y22933262D01*
X60887887Y23101574D01*
X60898500Y23205455D01*
X60898499Y23831544D01*
X60887887Y23935426D01*
X60832115Y24103738D01*
X60739030Y24254652D01*
X60613652Y24380030D01*
X60613648Y24380033D01*
X60482404Y24460986D01*
X60435679Y24512934D01*
X60423501Y24566524D01*
X60423501Y24682349D01*
X60443186Y24749388D01*
X60482405Y24787888D01*
X60485272Y24789657D01*
X60525388Y24814400D01*
X60645601Y24934613D01*
X60734850Y25079308D01*
X60788325Y25240686D01*
X60798501Y25340289D01*
X60798500Y25874710D01*
X60788325Y25974314D01*
X60734850Y26135692D01*
X60645601Y26280387D01*
X60525388Y26400600D01*
X60432109Y26458135D01*
X60380695Y26489848D01*
X60380690Y26489850D01*
X60342502Y26502504D01*
X60219315Y26543324D01*
X60219312Y26543325D01*
X60219314Y26543325D01*
X60186834Y26546643D01*
X60122143Y26573041D01*
X60081993Y26630222D01*
X60079131Y26700033D01*
X60114466Y26760309D01*
X60176780Y26791913D01*
X60186828Y26793358D01*
X60219315Y26796676D01*
X60380693Y26850151D01*
X60525388Y26939400D01*
X60645601Y27059613D01*
X60734850Y27204308D01*
X60788325Y27365686D01*
X60798501Y27465289D01*
X60798500Y27615682D01*
X60818184Y27682719D01*
X60870988Y27728474D01*
X60910759Y27736313D01*
X61369476Y28195030D01*
X61430799Y28228515D01*
X61500490Y28223531D01*
X61551665Y28187625D01*
X61631736Y28093359D01*
X61642009Y28081265D01*
X61711191Y28028674D01*
X61752647Y27972436D01*
X61757118Y27902709D01*
X61723830Y27842279D01*
X61268087Y27386536D01*
X61268087Y27386535D01*
X61271888Y27383288D01*
X61271898Y27383281D01*
X61489984Y27249637D01*
X61489987Y27249635D01*
X61726297Y27151753D01*
X61975011Y27092043D01*
X61975010Y27092043D01*
X62230000Y27071976D01*
X62484989Y27092043D01*
X62733702Y27151753D01*
X62970012Y27249635D01*
X62970015Y27249637D01*
X63188103Y27383281D01*
X63191912Y27386536D01*
X62739746Y27838701D01*
X62706261Y27900024D01*
X62711245Y27969715D01*
X62744586Y28014558D01*
X62742550Y28016708D01*
X62747429Y28021331D01*
X62747431Y28021331D01*
X62881658Y28148477D01*
X62900652Y28176493D01*
X62954563Y28220932D01*
X63023945Y28229172D01*
X63086768Y28198592D01*
X63090966Y28194586D01*
X63545464Y27740088D01*
X63548719Y27743897D01*
X63682363Y27961985D01*
X63682365Y27961988D01*
X63780247Y28198298D01*
X63839957Y28447011D01*
X63860024Y28702000D01*
X63839957Y28956990D01*
X63780247Y29205703D01*
X63682365Y29442013D01*
X63682363Y29442016D01*
X63548719Y29660102D01*
X63548712Y29660112D01*
X63545465Y29663913D01*
X63545464Y29663913D01*
X63090523Y29208972D01*
X63029200Y29175487D01*
X62959508Y29180471D01*
X62908334Y29216376D01*
X62817991Y29322735D01*
X62817991Y29322736D01*
X62748806Y29375328D01*
X62707351Y29431568D01*
X62702882Y29501294D01*
X62736169Y29561723D01*
X63191911Y30017465D01*
X63191911Y30017467D01*
X63188110Y30020714D01*
X63188095Y30020725D01*
X62970015Y30154364D01*
X62970012Y30154366D01*
X62733702Y30252248D01*
X62484988Y30311958D01*
X62484989Y30311958D01*
X62230000Y30332025D01*
X61975010Y30311958D01*
X61726297Y30252248D01*
X61489987Y30154366D01*
X61489984Y30154364D01*
X61271897Y30020720D01*
X61268087Y30017466D01*
X61720253Y29565300D01*
X61753738Y29503977D01*
X61748754Y29434285D01*
X61715467Y29389386D01*
X61717450Y29387293D01*
X61578342Y29255524D01*
X61559347Y29227507D01*
X61505433Y29183067D01*
X61436050Y29174829D01*
X61373228Y29205410D01*
X61369033Y29209414D01*
X60914534Y29663913D01*
X60911280Y29660103D01*
X60777636Y29442016D01*
X60777634Y29442013D01*
X60679752Y29205703D01*
X60668074Y29157056D01*
X60633283Y29096464D01*
X60571257Y29064300D01*
X60501688Y29070776D01*
X60446664Y29113836D01*
X60423655Y29179808D01*
X60423500Y29186003D01*
X60423500Y29823516D01*
X60443185Y29890555D01*
X60482708Y29929242D01*
X60594156Y29997536D01*
X60777701Y30154299D01*
X60934464Y30337844D01*
X61060584Y30543653D01*
X61152955Y30766657D01*
X61209304Y31001366D01*
X61228242Y31242000D01*
X61209304Y31482634D01*
X61152955Y31717343D01*
X61064799Y31930173D01*
X61060584Y31940348D01*
X60934467Y32146151D01*
X60934466Y32146153D01*
X60934465Y32146154D01*
X60934464Y32146156D01*
X60777701Y32329701D01*
X60594156Y32486464D01*
X60594154Y32486466D01*
X60594152Y32486467D01*
X60594150Y32486468D01*
X60388347Y32612585D01*
X60165343Y32704956D01*
X59930630Y32761305D01*
X59930631Y32761305D01*
X59712474Y32778474D01*
X59690000Y32780242D01*
X59689999Y32780242D01*
X59449368Y32761305D01*
X59214656Y32704956D01*
X58991652Y32612585D01*
X58785849Y32486468D01*
X58785847Y32486467D01*
X58602299Y32329701D01*
X58445534Y32146154D01*
X58431503Y32123257D01*
X58385380Y32047989D01*
X58377243Y32034711D01*
X58325431Y31987835D01*
X58271515Y31975500D01*
X57634003Y31975500D01*
X57566964Y31995185D01*
X57521209Y32047989D01*
X57511265Y32117147D01*
X57540290Y32180703D01*
X57599068Y32218477D01*
X57605056Y32220074D01*
X57653702Y32231753D01*
X57890012Y32329635D01*
X57890015Y32329637D01*
X58108103Y32463281D01*
X58111912Y32466536D01*
X57659746Y32918701D01*
X57626261Y32980024D01*
X57631245Y33049715D01*
X57664586Y33094558D01*
X57662550Y33096708D01*
X57667429Y33101331D01*
X57667431Y33101331D01*
X57801658Y33228477D01*
X57820652Y33256493D01*
X57874563Y33300932D01*
X57943945Y33309172D01*
X58006768Y33278592D01*
X58010966Y33274586D01*
X58465464Y32820088D01*
X58468719Y32823897D01*
X58602363Y33041985D01*
X58602365Y33041988D01*
X58700247Y33278298D01*
X58759957Y33527011D01*
X58780024Y33782000D01*
X60599975Y33782000D01*
X60620042Y33527011D01*
X60679752Y33278298D01*
X60777634Y33041988D01*
X60777636Y33041985D01*
X60911275Y32823905D01*
X60911286Y32823890D01*
X60914533Y32820089D01*
X60914535Y32820089D01*
X61369476Y33275030D01*
X61430799Y33308515D01*
X61500490Y33303531D01*
X61551665Y33267625D01*
X61642008Y33161266D01*
X61642009Y33161265D01*
X61711191Y33108674D01*
X61752647Y33052436D01*
X61757118Y32982709D01*
X61723830Y32922279D01*
X61268087Y32466536D01*
X61268087Y32466535D01*
X61271888Y32463288D01*
X61271898Y32463281D01*
X61489984Y32329637D01*
X61489987Y32329635D01*
X61726297Y32231753D01*
X61975011Y32172043D01*
X61975010Y32172043D01*
X62230000Y32151976D01*
X62484989Y32172043D01*
X62733702Y32231753D01*
X62970012Y32329635D01*
X62970015Y32329637D01*
X63188103Y32463281D01*
X63191912Y32466536D01*
X62739746Y32918701D01*
X62706261Y32980024D01*
X62711245Y33049715D01*
X62744586Y33094558D01*
X62742550Y33096708D01*
X62747429Y33101331D01*
X62747431Y33101331D01*
X62881658Y33228477D01*
X62900652Y33256493D01*
X62954563Y33300932D01*
X63023945Y33309172D01*
X63086768Y33278592D01*
X63090966Y33274586D01*
X63545464Y32820088D01*
X63548719Y32823897D01*
X63682363Y33041985D01*
X63682365Y33041988D01*
X63780247Y33278298D01*
X63839957Y33527011D01*
X63860024Y33782000D01*
X63839957Y34036990D01*
X63780247Y34285703D01*
X63682365Y34522013D01*
X63682363Y34522016D01*
X63548719Y34740102D01*
X63548712Y34740112D01*
X63545465Y34743913D01*
X63545464Y34743913D01*
X63090523Y34288972D01*
X63029200Y34255487D01*
X62959508Y34260471D01*
X62908334Y34296376D01*
X62817991Y34402735D01*
X62755036Y34450592D01*
X62748806Y34455328D01*
X62707351Y34511568D01*
X62702882Y34581294D01*
X62736169Y34641723D01*
X63191911Y35097465D01*
X63191911Y35097467D01*
X63188110Y35100714D01*
X63188095Y35100725D01*
X62970015Y35234364D01*
X62970012Y35234366D01*
X62733702Y35332248D01*
X62484988Y35391958D01*
X62484989Y35391958D01*
X62230000Y35412025D01*
X61975010Y35391958D01*
X61726297Y35332248D01*
X61489987Y35234366D01*
X61489984Y35234364D01*
X61271897Y35100720D01*
X61268087Y35097466D01*
X61720253Y34645300D01*
X61753738Y34583977D01*
X61748754Y34514285D01*
X61715467Y34469386D01*
X61717450Y34467293D01*
X61578342Y34335524D01*
X61559347Y34307507D01*
X61505433Y34263067D01*
X61436050Y34254829D01*
X61373228Y34285410D01*
X61369033Y34289414D01*
X60914534Y34743913D01*
X60911280Y34740103D01*
X60777636Y34522016D01*
X60777634Y34522013D01*
X60679752Y34285703D01*
X60620042Y34036990D01*
X60599975Y33782000D01*
X58780024Y33782000D01*
X58759957Y34036990D01*
X58700247Y34285703D01*
X58602365Y34522013D01*
X58602363Y34522016D01*
X58468719Y34740102D01*
X58468712Y34740112D01*
X58465465Y34743913D01*
X58465464Y34743913D01*
X58010523Y34288972D01*
X57949200Y34255487D01*
X57879508Y34260471D01*
X57828334Y34296376D01*
X57737991Y34402735D01*
X57675036Y34450592D01*
X57668806Y34455328D01*
X57627351Y34511568D01*
X57622882Y34581294D01*
X57656169Y34641723D01*
X58111911Y35097465D01*
X58111911Y35097467D01*
X58108110Y35100714D01*
X58108095Y35100725D01*
X57890015Y35234364D01*
X57890012Y35234366D01*
X57653702Y35332248D01*
X57404988Y35391958D01*
X57404989Y35391958D01*
X57150000Y35412025D01*
X56895010Y35391958D01*
X56646297Y35332248D01*
X56409987Y35234366D01*
X56409984Y35234364D01*
X56191897Y35100720D01*
X56188087Y35097466D01*
X56640253Y34645300D01*
X56673738Y34583977D01*
X56668754Y34514285D01*
X56635467Y34469386D01*
X56637450Y34467293D01*
X56498342Y34335524D01*
X56479347Y34307507D01*
X56425433Y34263067D01*
X56356050Y34254829D01*
X56293228Y34285410D01*
X56289033Y34289414D01*
X55834534Y34743913D01*
X55831280Y34740103D01*
X55697636Y34522016D01*
X55697634Y34522013D01*
X55599752Y34285703D01*
X55540042Y34036990D01*
X55519975Y33782000D01*
X55540042Y33527011D01*
X55599752Y33278298D01*
X55697634Y33041988D01*
X55697636Y33041985D01*
X55831275Y32823905D01*
X55831286Y32823890D01*
X55834533Y32820089D01*
X55834535Y32820089D01*
X56289476Y33275030D01*
X56350799Y33308515D01*
X56420490Y33303531D01*
X56471665Y33267625D01*
X56562008Y33161266D01*
X56562009Y33161265D01*
X56631191Y33108674D01*
X56672647Y33052436D01*
X56677118Y32982709D01*
X56643830Y32922279D01*
X56188087Y32466536D01*
X56188942Y32444758D01*
X56180675Y32411889D01*
X56212226Y32423656D01*
X56280499Y32408804D01*
X56285862Y32405699D01*
X56409984Y32329637D01*
X56409987Y32329635D01*
X56646297Y32231753D01*
X56694944Y32220074D01*
X56755536Y32185283D01*
X56787700Y32123257D01*
X56781224Y32053688D01*
X56738164Y31998664D01*
X56672192Y31975655D01*
X56665997Y31975500D01*
X56356944Y31975500D01*
X56289905Y31995185D01*
X56251405Y32034403D01*
X56248115Y32039736D01*
X56248115Y32039738D01*
X56155030Y32190652D01*
X56133391Y32212291D01*
X56099906Y32273614D01*
X56103654Y32326029D01*
X56052216Y32316561D01*
X55999941Y32334357D01*
X55878744Y32409112D01*
X55878739Y32409114D01*
X55878738Y32409115D01*
X55878735Y32409116D01*
X55710427Y32464887D01*
X55606546Y32475500D01*
X55005462Y32475500D01*
X55005446Y32475499D01*
X54901572Y32464887D01*
X54733264Y32409116D01*
X54733259Y32409114D01*
X54582346Y32316029D01*
X54456972Y32190655D01*
X54453265Y32185966D01*
X54396242Y32145590D01*
X54326443Y32142453D01*
X54266028Y32177550D01*
X54258735Y32185966D01*
X54255032Y32190649D01*
X54255030Y32190652D01*
X54129652Y32316030D01*
X53996938Y32397889D01*
X53978740Y32409114D01*
X53978735Y32409116D01*
X53810427Y32464887D01*
X53706546Y32475500D01*
X53105462Y32475500D01*
X53105446Y32475499D01*
X53001572Y32464887D01*
X52833264Y32409116D01*
X52833259Y32409114D01*
X52682346Y32316029D01*
X52556971Y32190654D01*
X52545492Y32172043D01*
X52463885Y32039738D01*
X52463884Y32039736D01*
X52460595Y32034403D01*
X52408647Y31987679D01*
X52355056Y31975500D01*
X51226660Y31975500D01*
X51159621Y31995185D01*
X51113866Y32047989D01*
X51102976Y32108345D01*
X51105596Y32144984D01*
X51105596Y32144986D01*
X51074526Y32287803D01*
X51063998Y32316029D01*
X51050112Y32353258D01*
X51050108Y32353267D01*
X50980168Y32481352D01*
X50965000Y32540779D01*
X50965000Y36235429D01*
X50984685Y36302468D01*
X51014685Y36334692D01*
X51021526Y36339813D01*
X51021525Y36339814D01*
X51032000Y36347655D01*
X51035610Y36350163D01*
X51063782Y36368266D01*
X51116586Y36414021D01*
X51212297Y36524476D01*
X51273014Y36657424D01*
X51292699Y36724463D01*
X51292700Y36724467D01*
X51313500Y36869137D01*
X51313500Y37940028D01*
X51312857Y37958036D01*
X51311874Y37976370D01*
X51304323Y38011072D01*
X51281560Y38115691D01*
X51280800Y38119185D01*
X51256380Y38184649D01*
X51186329Y38312925D01*
X51082976Y38416270D01*
X51082969Y38416275D01*
X51082966Y38416278D01*
X51027047Y38458135D01*
X51023312Y38460535D01*
X51024278Y38462039D01*
X50980149Y38506197D01*
X50965000Y38565589D01*
X50965000Y40167491D01*
X50965000Y40167500D01*
X50953264Y40276657D01*
X50942058Y40328168D01*
X50928528Y40368819D01*
X50907393Y40432321D01*
X50907390Y40432327D01*
X50828371Y40555282D01*
X50828365Y40555289D01*
X50782620Y40608082D01*
X50782617Y40608085D01*
X50672164Y40703795D01*
X50672158Y40703799D01*
X50539216Y40764513D01*
X50472179Y40784198D01*
X50472173Y40784200D01*
X50380047Y40797445D01*
X50327500Y40805000D01*
X50327498Y40805000D01*
X48724574Y40805000D01*
X48657535Y40824685D01*
X48625307Y40854689D01*
X48624701Y40855498D01*
X48620189Y40861526D01*
X48612344Y40872006D01*
X48609827Y40875630D01*
X48591735Y40903782D01*
X48575084Y40922998D01*
X48545984Y40956582D01*
X48545981Y40956585D01*
X48435528Y41052295D01*
X48435522Y41052299D01*
X48302580Y41113013D01*
X48235543Y41132698D01*
X48235537Y41132700D01*
X48148732Y41145180D01*
X48090864Y41153500D01*
X47019967Y41153500D01*
X47019966Y41153500D01*
X47001959Y41152858D01*
X46983666Y41151877D01*
X46983661Y41151877D01*
X46983659Y41151876D01*
X46983648Y41151874D01*
X46983650Y41151874D01*
X46840842Y41120809D01*
X46775370Y41096389D01*
X46647100Y41026349D01*
X46647097Y41026346D01*
X46543749Y40922999D01*
X46543748Y40922998D01*
X46534265Y40910330D01*
X46501876Y40867063D01*
X46501848Y40867026D01*
X46501843Y40867019D01*
X46499356Y40863170D01*
X46497819Y40864164D01*
X46453863Y40820184D01*
X46394408Y40805001D01*
X42687515Y40805001D01*
X42628697Y40819839D01*
X42601554Y40834464D01*
X42462008Y40877929D01*
X42393018Y40889003D01*
X42393016Y40889003D01*
X42393012Y40889004D01*
X42393011Y40889004D01*
X42359471Y40889552D01*
X42292763Y40910330D01*
X42247878Y40963876D01*
X42237500Y41013535D01*
X42237500Y42521711D01*
X42237613Y42525456D01*
X42241402Y42588093D01*
X42233332Y42632129D01*
X42230090Y42649820D01*
X42229527Y42653520D01*
X42221965Y42715801D01*
X42218286Y42725500D01*
X42212260Y42747119D01*
X42210389Y42757329D01*
X42210387Y42757333D01*
X42197388Y42786215D01*
X42184630Y42814561D01*
X42183200Y42818016D01*
X42160954Y42876674D01*
X42160954Y42876675D01*
X42155058Y42885217D01*
X42144035Y42904761D01*
X42139775Y42914226D01*
X42101067Y42963632D01*
X42098867Y42966623D01*
X42063215Y43018273D01*
X42063210Y43018278D01*
X42016245Y43059885D01*
X42013533Y43062437D01*
X40903434Y44172536D01*
X40900900Y44175228D01*
X40859273Y44222215D01*
X40859272Y44222216D01*
X40859271Y44222217D01*
X40807628Y44257864D01*
X40804611Y44260084D01*
X40755227Y44298775D01*
X40749235Y44301472D01*
X40745760Y44303036D01*
X40726216Y44314059D01*
X40721210Y44317514D01*
X40717677Y44319953D01*
X40717672Y44319956D01*
X40659015Y44342202D01*
X40655555Y44343635D01*
X40598331Y44369389D01*
X40598332Y44369389D01*
X40588110Y44371262D01*
X40566510Y44377284D01*
X40556801Y44380965D01*
X40556797Y44380966D01*
X40556796Y44380966D01*
X40494511Y44388530D01*
X40490810Y44389093D01*
X40429096Y44400402D01*
X40429090Y44400402D01*
X40366455Y44396613D01*
X40362710Y44396500D01*
X37837968Y44396500D01*
X37770929Y44416185D01*
X37733653Y44453460D01*
X37700073Y44505710D01*
X37673205Y44547518D01*
X37580475Y44654535D01*
X37579774Y44655405D01*
X37579050Y44656181D01*
X37579048Y44656183D01*
X37468540Y44751938D01*
X37391792Y44801261D01*
X37347591Y44829668D01*
X37347585Y44829671D01*
X37275318Y44862674D01*
X37214577Y44890413D01*
X37128048Y44915820D01*
X37076626Y44930919D01*
X37076614Y44930922D01*
X36931889Y44951729D01*
X36310000Y44951729D01*
X36236890Y44946501D01*
X36236887Y44946500D01*
X36225909Y44943277D01*
X36177212Y44941959D01*
X36176912Y44939160D01*
X36108654Y44946500D01*
X36108638Y44946500D01*
X35011362Y44946500D01*
X35011345Y44946500D01*
X34950797Y44939989D01*
X34950795Y44939989D01*
X34813795Y44888889D01*
X34696739Y44801261D01*
X34609111Y44684205D01*
X34558011Y44547205D01*
X34558011Y44547203D01*
X34551500Y44486655D01*
X34551500Y42889346D01*
X34558011Y42828798D01*
X34558011Y42828796D01*
X34600159Y42715797D01*
X34609111Y42691796D01*
X34696739Y42574739D01*
X34776810Y42514798D01*
X34818682Y42458866D01*
X34826500Y42415532D01*
X34826500Y40920758D01*
X34806815Y40853719D01*
X34790181Y40833077D01*
X34572159Y40615056D01*
X34510836Y40581571D01*
X34441144Y40586555D01*
X34403278Y40609023D01*
X34293904Y40703797D01*
X34293902Y40703798D01*
X34293901Y40703799D01*
X34160959Y40764513D01*
X34093922Y40784198D01*
X34093916Y40784200D01*
X34001790Y40797445D01*
X33949243Y40805000D01*
X30892500Y40805000D01*
X30825461Y40824685D01*
X30779706Y40877489D01*
X30768500Y40929000D01*
X30768500Y43054538D01*
X30769809Y43072508D01*
X30773180Y43095525D01*
X30768736Y43146317D01*
X30768500Y43151723D01*
X30768500Y43159711D01*
X30768500Y43159718D01*
X30764777Y43191571D01*
X30758236Y43266336D01*
X30758236Y43266338D01*
X30756776Y43273409D01*
X30756860Y43273427D01*
X30755335Y43280305D01*
X30755251Y43280284D01*
X30753587Y43287302D01*
X30753587Y43287308D01*
X30727908Y43357860D01*
X30704301Y43429101D01*
X30701250Y43435643D01*
X30701328Y43435680D01*
X30698263Y43442012D01*
X30698187Y43441973D01*
X30694943Y43448431D01*
X30694941Y43448433D01*
X30694941Y43448435D01*
X30653702Y43511136D01*
X30614286Y43575040D01*
X30614285Y43575041D01*
X30614284Y43575043D01*
X30609808Y43580703D01*
X30609874Y43580756D01*
X30605424Y43586219D01*
X30605359Y43586163D01*
X30600715Y43591698D01*
X30546147Y43643179D01*
X29122918Y45066408D01*
X42635997Y45066408D01*
X42635997Y42411944D01*
X52714537Y42411944D01*
X52714537Y43307000D01*
X54112659Y43307000D01*
X54131975Y43110871D01*
X54131976Y43110868D01*
X54187687Y42927213D01*
X54189188Y42922267D01*
X54282086Y42748468D01*
X54282090Y42748461D01*
X54407116Y42596117D01*
X54559460Y42471091D01*
X54559467Y42471087D01*
X54733266Y42378189D01*
X54733269Y42378189D01*
X54733273Y42378186D01*
X54921868Y42320976D01*
X55118000Y42301659D01*
X55314132Y42320976D01*
X55502727Y42378186D01*
X55540652Y42398457D01*
X55645345Y42454417D01*
X55676538Y42471090D01*
X55828883Y42596117D01*
X55953910Y42748462D01*
X56042513Y42914226D01*
X56046811Y42922267D01*
X56046811Y42922268D01*
X56046814Y42922273D01*
X56104024Y43110868D01*
X56123341Y43307000D01*
X56104024Y43503132D01*
X56046814Y43691727D01*
X56046811Y43691731D01*
X56046811Y43691734D01*
X55953913Y43865533D01*
X55953909Y43865540D01*
X55828883Y44017884D01*
X55676539Y44142910D01*
X55676532Y44142914D01*
X55502733Y44235812D01*
X55502727Y44235814D01*
X55314132Y44293024D01*
X55314129Y44293025D01*
X55118000Y44312341D01*
X54921870Y44293025D01*
X54733266Y44235812D01*
X54559467Y44142914D01*
X54559460Y44142910D01*
X54407116Y44017884D01*
X54282090Y43865540D01*
X54282086Y43865533D01*
X54189188Y43691734D01*
X54131975Y43503130D01*
X54112659Y43307000D01*
X52714537Y43307000D01*
X52714537Y45066408D01*
X42635997Y45066408D01*
X29122918Y45066408D01*
X28945507Y45243819D01*
X28912022Y45305142D01*
X28917006Y45374834D01*
X28958878Y45430767D01*
X29024342Y45455184D01*
X29033188Y45455500D01*
X65651500Y45455500D01*
X65718539Y45435815D01*
G37*
%TD.AperFunction*%
%TA.AperFunction,Conductor*%
G36*
X20098038Y36459815D02*
G01*
X20143793Y36407011D01*
X20154999Y36355500D01*
X20154999Y36350420D01*
X20154982Y36297882D01*
X20154999Y36297724D01*
X20154999Y32423960D01*
X20155525Y32422998D01*
X20158043Y32405491D01*
X20158587Y32397889D01*
X20157347Y32392193D01*
X20159492Y32380283D01*
X20160006Y32376181D01*
X20160458Y32373679D01*
X20161397Y32369697D01*
X20162910Y32361292D01*
X20162926Y32361185D01*
X20163282Y32359226D01*
X20166119Y32343473D01*
X20158625Y32274007D01*
X20114765Y32219619D01*
X20048463Y32197577D01*
X20044081Y32197500D01*
X18943345Y32197500D01*
X18876306Y32217185D01*
X18830551Y32269989D01*
X18827164Y32278165D01*
X18813041Y32316029D01*
X18805889Y32335204D01*
X18718261Y32452261D01*
X18601204Y32539889D01*
X18598818Y32540779D01*
X18464203Y32590989D01*
X18403654Y32597500D01*
X18403638Y32597500D01*
X17006362Y32597500D01*
X17006345Y32597500D01*
X16945797Y32590989D01*
X16945795Y32590989D01*
X16808795Y32539889D01*
X16691739Y32452261D01*
X16604111Y32335205D01*
X16553011Y32198205D01*
X16553011Y32198203D01*
X16546500Y32137655D01*
X16546499Y32137638D01*
X16546499Y30540363D01*
X16546500Y30540346D01*
X16553011Y30479798D01*
X16553011Y30479796D01*
X16582836Y30399835D01*
X16604111Y30342796D01*
X16691739Y30225739D01*
X16808796Y30138111D01*
X16945799Y30087011D01*
X16973050Y30084082D01*
X17006345Y30080501D01*
X17006362Y30080500D01*
X18403638Y30080500D01*
X18403654Y30080501D01*
X18430692Y30083409D01*
X18464201Y30087011D01*
X18601204Y30138111D01*
X18718261Y30225739D01*
X18805889Y30342796D01*
X18827163Y30399835D01*
X18869036Y30455768D01*
X18934500Y30480184D01*
X18943345Y30480500D01*
X20250743Y30480500D01*
X20317782Y30460815D01*
X20363537Y30408011D01*
X20373481Y30338853D01*
X20344457Y30275300D01*
X20282936Y30204301D01*
X20256203Y30173450D01*
X20256201Y30173448D01*
X20195487Y30040506D01*
X20175802Y29973468D01*
X20175800Y29973463D01*
X20155000Y29828788D01*
X20155000Y26564575D01*
X20135315Y26497536D01*
X20105312Y26465309D01*
X20088003Y26452351D01*
X20084367Y26449827D01*
X20056218Y26431735D01*
X20056205Y26431726D01*
X20003418Y26385985D01*
X20003415Y26385982D01*
X19907705Y26275529D01*
X19907701Y26275523D01*
X19846987Y26142581D01*
X19827302Y26075543D01*
X19827300Y26075538D01*
X19806500Y25930863D01*
X19806500Y24859989D01*
X19807141Y24842009D01*
X19808120Y24823697D01*
X19839180Y24680875D01*
X19863593Y24615411D01*
X19863594Y24615410D01*
X19933629Y24487131D01*
X19933633Y24487126D01*
X20036962Y24383785D01*
X20036966Y24383782D01*
X20036973Y24383775D01*
X20085817Y24347206D01*
X20085825Y24347199D01*
X20092906Y24341898D01*
X20092909Y24341895D01*
X20092912Y24341894D01*
X20100012Y24336578D01*
X20098763Y24334911D01*
X20139826Y24293855D01*
X20154999Y24234419D01*
X20154999Y20564573D01*
X20135314Y20497534D01*
X20105307Y20465305D01*
X20100945Y20462039D01*
X20088007Y20452354D01*
X20084374Y20449832D01*
X20056222Y20431738D01*
X20056205Y20431726D01*
X20003418Y20385985D01*
X20003415Y20385982D01*
X19907705Y20275529D01*
X19907701Y20275523D01*
X19846987Y20142581D01*
X19827302Y20075543D01*
X19827300Y20075538D01*
X19817718Y20008889D01*
X19808311Y19943456D01*
X19806500Y19930863D01*
X19806500Y18859989D01*
X19807141Y18842009D01*
X19808120Y18823697D01*
X19839180Y18680875D01*
X19863593Y18615411D01*
X19863594Y18615410D01*
X19933629Y18487131D01*
X19933633Y18487126D01*
X20036962Y18383785D01*
X20036966Y18383782D01*
X20036973Y18383775D01*
X20085817Y18347206D01*
X20085825Y18347199D01*
X20092906Y18341898D01*
X20092909Y18341895D01*
X20092912Y18341894D01*
X20100012Y18336578D01*
X20098763Y18334911D01*
X20139826Y18293855D01*
X20154999Y18234419D01*
X20154999Y14564573D01*
X20135314Y14497534D01*
X20105307Y14465305D01*
X20100945Y14462039D01*
X20088007Y14452354D01*
X20084374Y14449832D01*
X20056222Y14431738D01*
X20056205Y14431726D01*
X20003418Y14385985D01*
X20003415Y14385982D01*
X19907705Y14275529D01*
X19907701Y14275523D01*
X19846987Y14142581D01*
X19827302Y14075543D01*
X19827300Y14075538D01*
X19806500Y13930863D01*
X19806500Y12859989D01*
X19807141Y12842009D01*
X19808120Y12823697D01*
X19839180Y12680875D01*
X19863593Y12615411D01*
X19863594Y12615410D01*
X19933629Y12487131D01*
X19933633Y12487126D01*
X20036962Y12383785D01*
X20036966Y12383782D01*
X20036973Y12383775D01*
X20085817Y12347206D01*
X20085825Y12347199D01*
X20092906Y12341898D01*
X20092909Y12341895D01*
X20092912Y12341894D01*
X20100012Y12336578D01*
X20098763Y12334911D01*
X20139826Y12293855D01*
X20154999Y12234419D01*
X20154999Y10632511D01*
X20155001Y10632491D01*
X20166735Y10523349D01*
X20166737Y10523337D01*
X20177943Y10471827D01*
X20212606Y10367680D01*
X20212609Y10367674D01*
X20291628Y10244719D01*
X20291634Y10244712D01*
X20337379Y10191919D01*
X20337382Y10191916D01*
X20337384Y10191914D01*
X20354157Y10177380D01*
X20447835Y10096206D01*
X20447837Y10096205D01*
X20447839Y10096203D01*
X20580787Y10035486D01*
X20623559Y10022927D01*
X20647821Y10015802D01*
X20647826Y10015801D01*
X20647830Y10015800D01*
X20792500Y9995000D01*
X22395426Y9995000D01*
X22462465Y9975315D01*
X22494692Y9945312D01*
X22507654Y9927998D01*
X22510179Y9924360D01*
X22528266Y9896216D01*
X22528270Y9896212D01*
X22574015Y9843419D01*
X22574018Y9843416D01*
X22684471Y9747706D01*
X22684473Y9747705D01*
X22684475Y9747703D01*
X22817423Y9686986D01*
X22860195Y9674427D01*
X22884457Y9667302D01*
X22884462Y9667301D01*
X22884466Y9667300D01*
X23029136Y9646500D01*
X23029139Y9646500D01*
X24100034Y9646500D01*
X24118041Y9647142D01*
X24130628Y9647818D01*
X24136341Y9648124D01*
X24279159Y9679192D01*
X24344624Y9703609D01*
X24344629Y9703611D01*
X24472907Y9773657D01*
X24576255Y9877007D01*
X24610318Y9922511D01*
X24618125Y9932939D01*
X24618126Y9932943D01*
X24618133Y9932951D01*
X24618139Y9932964D01*
X24619948Y9935877D01*
X24621355Y9935004D01*
X24666095Y9979797D01*
X24725587Y9995000D01*
X28395426Y9995000D01*
X28462465Y9975315D01*
X28494692Y9945312D01*
X28507654Y9927998D01*
X28510179Y9924360D01*
X28528266Y9896216D01*
X28528270Y9896212D01*
X28574015Y9843419D01*
X28574018Y9843416D01*
X28684471Y9747706D01*
X28684473Y9747705D01*
X28684475Y9747703D01*
X28817423Y9686986D01*
X28860195Y9674427D01*
X28884457Y9667302D01*
X28884462Y9667301D01*
X28884466Y9667300D01*
X29029136Y9646500D01*
X29029139Y9646500D01*
X30100034Y9646500D01*
X30118041Y9647142D01*
X30130628Y9647818D01*
X30136341Y9648124D01*
X30279159Y9679192D01*
X30344624Y9703609D01*
X30344629Y9703611D01*
X30472907Y9773657D01*
X30576255Y9877007D01*
X30610318Y9922511D01*
X30618125Y9932939D01*
X30618126Y9932943D01*
X30618133Y9932951D01*
X30618139Y9932964D01*
X30619948Y9935877D01*
X30621355Y9935004D01*
X30666095Y9979797D01*
X30725587Y9995000D01*
X34395426Y9995000D01*
X34462465Y9975315D01*
X34494692Y9945312D01*
X34507654Y9927998D01*
X34510179Y9924360D01*
X34528266Y9896216D01*
X34528270Y9896212D01*
X34574015Y9843419D01*
X34574018Y9843416D01*
X34684471Y9747706D01*
X34684473Y9747705D01*
X34684475Y9747703D01*
X34817423Y9686986D01*
X34860195Y9674427D01*
X34884457Y9667302D01*
X34884462Y9667301D01*
X34884466Y9667300D01*
X35029136Y9646500D01*
X35029139Y9646500D01*
X36100034Y9646500D01*
X36118041Y9647142D01*
X36130628Y9647818D01*
X36136341Y9648124D01*
X36279159Y9679192D01*
X36344624Y9703609D01*
X36344629Y9703611D01*
X36472907Y9773657D01*
X36576255Y9877007D01*
X36610318Y9922511D01*
X36618125Y9932939D01*
X36618126Y9932943D01*
X36618133Y9932951D01*
X36618139Y9932964D01*
X36619948Y9935877D01*
X36621355Y9935004D01*
X36666095Y9979797D01*
X36725587Y9995000D01*
X40395426Y9995000D01*
X40462465Y9975315D01*
X40494692Y9945312D01*
X40507654Y9927998D01*
X40510179Y9924360D01*
X40528266Y9896216D01*
X40528270Y9896212D01*
X40574015Y9843419D01*
X40574018Y9843416D01*
X40684471Y9747706D01*
X40684473Y9747705D01*
X40684475Y9747703D01*
X40817423Y9686986D01*
X40860195Y9674427D01*
X40884457Y9667302D01*
X40884462Y9667301D01*
X40884466Y9667300D01*
X41029136Y9646500D01*
X41029139Y9646500D01*
X42100034Y9646500D01*
X42118041Y9647142D01*
X42130628Y9647818D01*
X42136341Y9648124D01*
X42279159Y9679192D01*
X42344624Y9703609D01*
X42344629Y9703611D01*
X42472907Y9773657D01*
X42576255Y9877007D01*
X42610318Y9922511D01*
X42618125Y9932939D01*
X42618126Y9932943D01*
X42618133Y9932951D01*
X42618139Y9932964D01*
X42619948Y9935877D01*
X42621355Y9935004D01*
X42666095Y9979797D01*
X42725587Y9995000D01*
X46515500Y9995000D01*
X46582539Y9975315D01*
X46628294Y9922511D01*
X46639500Y9871000D01*
X46639500Y8094500D01*
X46619815Y8027461D01*
X46567011Y7981706D01*
X46515500Y7970500D01*
X19202965Y7970500D01*
X19135926Y7990185D01*
X19115284Y8006819D01*
X16604818Y10517285D01*
X16571333Y10578608D01*
X16568499Y10604966D01*
X16568499Y11320538D01*
X16568498Y11320554D01*
X16568178Y11323684D01*
X16557887Y11424426D01*
X16557401Y11425893D01*
X16502117Y11592734D01*
X16483596Y11622761D01*
X16436960Y11698370D01*
X16418500Y11763466D01*
X16418500Y11975590D01*
X16418705Y11980624D01*
X16423245Y12036381D01*
X16423244Y12036383D01*
X16423245Y12036385D01*
X16412209Y12117380D01*
X16403372Y12198640D01*
X16403371Y12198642D01*
X16403371Y12198646D01*
X16403288Y12199022D01*
X16398126Y12221046D01*
X16398035Y12221415D01*
X16369850Y12298130D01*
X16356996Y12336280D01*
X16343748Y12375600D01*
X16343743Y12375608D01*
X16343616Y12375884D01*
X16333809Y12396352D01*
X16333642Y12396689D01*
X16289627Y12465549D01*
X16275038Y12489796D01*
X16247476Y12535605D01*
X16247474Y12535607D01*
X16247313Y12535818D01*
X16233290Y12553757D01*
X16233075Y12554024D01*
X16233071Y12554031D01*
X16175266Y12611836D01*
X16119058Y12671174D01*
X16119052Y12671179D01*
X16118823Y12671372D01*
X16101000Y12686102D01*
X15456856Y13330246D01*
X15423371Y13391569D01*
X15428355Y13461261D01*
X15470227Y13517194D01*
X15535691Y13541611D01*
X15583540Y13535634D01*
X15663574Y13509113D01*
X15767455Y13498500D01*
X16368544Y13498501D01*
X16472426Y13509113D01*
X16640738Y13564885D01*
X16791652Y13657970D01*
X16917030Y13783348D01*
X17010115Y13934262D01*
X17065887Y14102574D01*
X17076500Y14206455D01*
X17076499Y15257544D01*
X17065887Y15361426D01*
X17049334Y15411381D01*
X17017154Y15508498D01*
X17014753Y15578326D01*
X17050485Y15638368D01*
X17113005Y15669560D01*
X17134860Y15671501D01*
X17264537Y15671501D01*
X17264544Y15671501D01*
X17368426Y15682113D01*
X17536738Y15737885D01*
X17687652Y15830970D01*
X17813030Y15956348D01*
X17906115Y16107262D01*
X17961887Y16275574D01*
X17972500Y16379455D01*
X17972499Y17130544D01*
X17961887Y17234426D01*
X17906115Y17402738D01*
X17813030Y17553652D01*
X17687652Y17679030D01*
X17687651Y17679031D01*
X17682970Y17682732D01*
X17642591Y17739753D01*
X17639451Y17809552D01*
X17674545Y17869968D01*
X17682970Y17877268D01*
X17687647Y17880968D01*
X17687652Y17880970D01*
X17813030Y18006348D01*
X17906115Y18157262D01*
X17961887Y18325574D01*
X17972500Y18429455D01*
X17972499Y19180544D01*
X17961887Y19284426D01*
X17906115Y19452738D01*
X17813030Y19603652D01*
X17687652Y19729030D01*
X17550441Y19813663D01*
X17536740Y19822114D01*
X17536739Y19822115D01*
X17536738Y19822115D01*
X17490033Y19837592D01*
X17432589Y19877365D01*
X17425438Y19887158D01*
X17423941Y19889433D01*
X17423941Y19889435D01*
X17382705Y19952131D01*
X17343286Y20016040D01*
X17338805Y20021707D01*
X17338871Y20021760D01*
X17334424Y20027219D01*
X17334359Y20027163D01*
X17329715Y20032698D01*
X17275147Y20084179D01*
X16907819Y20451508D01*
X16874334Y20512831D01*
X16871500Y20539189D01*
X16871500Y21285505D01*
X16868562Y21322830D01*
X16868561Y21322836D01*
X16822146Y21482597D01*
X16822145Y21482601D01*
X16737453Y21625807D01*
X16737451Y21625809D01*
X16737448Y21625813D01*
X16619811Y21743450D01*
X16616500Y21746018D01*
X16614567Y21748694D01*
X16614291Y21748970D01*
X16614335Y21749015D01*
X16575591Y21802659D01*
X16571799Y21872426D01*
X16606328Y21933168D01*
X16616500Y21941982D01*
X16619802Y21944545D01*
X16619807Y21944547D01*
X16737453Y22062193D01*
X16822145Y22205399D01*
X16868562Y22365169D01*
X16871500Y22402498D01*
X16871500Y23560502D01*
X16868562Y23597831D01*
X16822145Y23757601D01*
X16737453Y23900807D01*
X16737451Y23900809D01*
X16737448Y23900813D01*
X16619812Y24018449D01*
X16619803Y24018456D01*
X16476601Y24103145D01*
X16476596Y24103147D01*
X16316835Y24149562D01*
X16316829Y24149563D01*
X16279505Y24152500D01*
X16279502Y24152500D01*
X15846498Y24152500D01*
X15846495Y24152500D01*
X15809170Y24149563D01*
X15809164Y24149562D01*
X15649403Y24103147D01*
X15649398Y24103145D01*
X15506196Y24018456D01*
X15506187Y24018449D01*
X15388551Y23900813D01*
X15388544Y23900804D01*
X15303855Y23757602D01*
X15303853Y23757597D01*
X15257438Y23597836D01*
X15257437Y23597830D01*
X15254500Y23560505D01*
X15254500Y22402495D01*
X15257437Y22365171D01*
X15257438Y22365165D01*
X15303853Y22205404D01*
X15303855Y22205399D01*
X15388544Y22062197D01*
X15388551Y22062188D01*
X15506191Y21944548D01*
X15509504Y21941978D01*
X15511435Y21939304D01*
X15511709Y21939030D01*
X15511664Y21938986D01*
X15550410Y21885335D01*
X15554198Y21815568D01*
X15519667Y21754828D01*
X15509504Y21746022D01*
X15506191Y21743453D01*
X15388551Y21625813D01*
X15388544Y21625804D01*
X15303855Y21482602D01*
X15303853Y21482597D01*
X15257438Y21322836D01*
X15257437Y21322830D01*
X15254500Y21285505D01*
X15254500Y20127495D01*
X15257437Y20090171D01*
X15257438Y20090165D01*
X15303853Y19930404D01*
X15303855Y19930399D01*
X15388544Y19787197D01*
X15388551Y19787188D01*
X15506187Y19669552D01*
X15506191Y19669549D01*
X15506193Y19669547D01*
X15510156Y19667203D01*
X15580211Y19625773D01*
X15627894Y19574704D01*
X15640398Y19505962D01*
X15624518Y19459474D01*
X15624935Y19459279D01*
X15623129Y19455408D01*
X15622631Y19453948D01*
X15621884Y19452738D01*
X15621883Y19452736D01*
X15566113Y19284430D01*
X15566113Y19284429D01*
X15555500Y19180553D01*
X15555500Y18429463D01*
X15555501Y18429447D01*
X15566113Y18325573D01*
X15596318Y18234419D01*
X15621885Y18157262D01*
X15714970Y18006348D01*
X15840348Y17880970D01*
X15840351Y17880968D01*
X15845034Y17877265D01*
X15885410Y17820242D01*
X15888547Y17750443D01*
X15853450Y17690028D01*
X15845034Y17682735D01*
X15840345Y17679028D01*
X15714969Y17553652D01*
X15675241Y17489243D01*
X15623292Y17442519D01*
X15554330Y17431298D01*
X15490248Y17459142D01*
X15482022Y17466660D01*
X15426653Y17522029D01*
X15426652Y17522030D01*
X15332898Y17579858D01*
X15275740Y17615114D01*
X15275735Y17615116D01*
X15107427Y17670887D01*
X15003546Y17681500D01*
X13952462Y17681500D01*
X13952446Y17681499D01*
X13848572Y17670887D01*
X13680264Y17615116D01*
X13680259Y17615114D01*
X13529346Y17522029D01*
X13403971Y17396654D01*
X13310886Y17245741D01*
X13310884Y17245736D01*
X13255113Y17077428D01*
X13244500Y16973553D01*
X13244500Y16372463D01*
X13244501Y16372447D01*
X13254398Y16275574D01*
X13255113Y16268574D01*
X13310885Y16100262D01*
X13403970Y15949348D01*
X13449485Y15903833D01*
X13494547Y15858771D01*
X13528031Y15797447D01*
X13523047Y15727756D01*
X13512404Y15705993D01*
X13432792Y15576923D01*
X13432790Y15576918D01*
X13377938Y15411383D01*
X13367500Y15309221D01*
X13367500Y14942964D01*
X13347815Y14875925D01*
X13295011Y14830170D01*
X13225853Y14820226D01*
X13162297Y14849251D01*
X13155819Y14855283D01*
X12804817Y15206285D01*
X12771332Y15267608D01*
X12768499Y15293957D01*
X12768499Y19943456D01*
X12788184Y20010494D01*
X12804818Y20031136D01*
X12849225Y20075543D01*
X12909030Y20135348D01*
X13002115Y20286262D01*
X13057887Y20454574D01*
X13068500Y20558455D01*
X13068499Y21859544D01*
X13057887Y21963426D01*
X13025161Y22062188D01*
X13002116Y22131736D01*
X13002115Y22131739D01*
X12962655Y22195713D01*
X12944214Y22263105D01*
X12955653Y22312874D01*
X12978372Y22361980D01*
X13014688Y22435203D01*
X13014690Y22435214D01*
X13014845Y22435633D01*
X13022326Y22456883D01*
X13022452Y22457258D01*
X13022455Y22457263D01*
X13040028Y22537102D01*
X13059754Y22616418D01*
X13059754Y22616424D01*
X13059795Y22616725D01*
X13062571Y22639389D01*
X13062598Y22639633D01*
X13062598Y22721399D01*
X13063012Y22736698D01*
X13064811Y22803085D01*
X13064810Y22803086D01*
X13064811Y22803089D01*
X13064793Y22803299D01*
X13062598Y22826406D01*
X13062598Y24430358D01*
X13082283Y24497397D01*
X13135087Y24543152D01*
X13204245Y24553096D01*
X13267801Y24524071D01*
X13274279Y24518039D01*
X13319348Y24472970D01*
X13370598Y24441359D01*
X13417321Y24389412D01*
X13429500Y24335821D01*
X13429500Y23834887D01*
X13412232Y23771766D01*
X13403856Y23757605D01*
X13403853Y23757597D01*
X13357438Y23597836D01*
X13357437Y23597830D01*
X13354500Y23560505D01*
X13354500Y22402495D01*
X13357437Y22365171D01*
X13357438Y22365165D01*
X13403853Y22205404D01*
X13403855Y22205399D01*
X13488544Y22062197D01*
X13488551Y22062188D01*
X13606191Y21944548D01*
X13609504Y21941978D01*
X13611435Y21939304D01*
X13611709Y21939030D01*
X13611664Y21938986D01*
X13650410Y21885335D01*
X13654198Y21815568D01*
X13619667Y21754828D01*
X13609504Y21746022D01*
X13606191Y21743453D01*
X13488551Y21625813D01*
X13488544Y21625804D01*
X13403855Y21482602D01*
X13403853Y21482597D01*
X13357438Y21322836D01*
X13357437Y21322830D01*
X13354500Y21285505D01*
X13354500Y20127495D01*
X13357437Y20090171D01*
X13357438Y20090165D01*
X13403853Y19930404D01*
X13403855Y19930399D01*
X13488544Y19787197D01*
X13488551Y19787188D01*
X13606187Y19669552D01*
X13606191Y19669549D01*
X13606193Y19669547D01*
X13749399Y19584855D01*
X13784339Y19574704D01*
X13909164Y19538439D01*
X13909167Y19538439D01*
X13909169Y19538438D01*
X13918501Y19537704D01*
X13946495Y19535500D01*
X13946498Y19535500D01*
X14379505Y19535500D01*
X14401899Y19537263D01*
X14416831Y19538438D01*
X14416833Y19538439D01*
X14416835Y19538439D01*
X14458962Y19550679D01*
X14576601Y19584855D01*
X14719807Y19669547D01*
X14837453Y19787193D01*
X14922145Y19930399D01*
X14968562Y20090169D01*
X14971500Y20127498D01*
X14971500Y21285502D01*
X14968562Y21322831D01*
X14958217Y21358438D01*
X14922146Y21482597D01*
X14922145Y21482601D01*
X14837453Y21625807D01*
X14837451Y21625809D01*
X14837448Y21625813D01*
X14719811Y21743450D01*
X14716500Y21746018D01*
X14714567Y21748694D01*
X14714291Y21748970D01*
X14714335Y21749015D01*
X14675591Y21802659D01*
X14671799Y21872426D01*
X14706328Y21933168D01*
X14716500Y21941982D01*
X14719802Y21944545D01*
X14719807Y21944547D01*
X14837453Y22062193D01*
X14922145Y22205399D01*
X14968562Y22365169D01*
X14971500Y22402498D01*
X14971500Y23560502D01*
X14968562Y23597831D01*
X14922145Y23757601D01*
X14913768Y23771766D01*
X14896500Y23834887D01*
X14896500Y24250833D01*
X14916185Y24317872D01*
X14968989Y24363627D01*
X14981488Y24368537D01*
X15015738Y24379885D01*
X15166652Y24472970D01*
X15292030Y24598348D01*
X15385115Y24749262D01*
X15440887Y24917574D01*
X15451500Y25021455D01*
X15451499Y25972544D01*
X15451318Y25974311D01*
X15450087Y25986362D01*
X15440887Y26076426D01*
X15385115Y26244738D01*
X15292030Y26395652D01*
X15166652Y26521030D01*
X15035402Y26601987D01*
X14988678Y26653933D01*
X14976500Y26707524D01*
X14976500Y26826477D01*
X14996185Y26893516D01*
X15035401Y26932014D01*
X15166652Y27012970D01*
X15292030Y27138348D01*
X15385115Y27289262D01*
X15440887Y27457574D01*
X15451500Y27561455D01*
X15451499Y28154686D01*
X15471183Y28221724D01*
X15501455Y28254151D01*
X15511785Y28261840D01*
X15544585Y28300932D01*
X15548200Y28304877D01*
X15553869Y28310544D01*
X15573742Y28335679D01*
X15622002Y28393191D01*
X15622004Y28393194D01*
X15625972Y28399226D01*
X15626045Y28399178D01*
X15629825Y28405113D01*
X15629751Y28405159D01*
X15633539Y28411303D01*
X15633544Y28411308D01*
X15665273Y28479354D01*
X15698956Y28546421D01*
X15698958Y28546434D01*
X15701425Y28553207D01*
X15701508Y28553177D01*
X15703819Y28559826D01*
X15703737Y28559853D01*
X15706008Y28566708D01*
X15707721Y28575001D01*
X15721187Y28640223D01*
X15738500Y28713266D01*
X15738500Y28713274D01*
X15739338Y28720438D01*
X15739423Y28720429D01*
X15740139Y28727436D01*
X15740054Y28727443D01*
X15740683Y28734633D01*
X15740663Y28735305D01*
X15738500Y28809648D01*
X15738499Y29991332D01*
X15758184Y30058370D01*
X15810987Y30104125D01*
X15819144Y30107504D01*
X15901204Y30138111D01*
X16018261Y30225739D01*
X16105889Y30342796D01*
X16156989Y30479799D01*
X16161238Y30519320D01*
X16163499Y30540346D01*
X16163500Y30540363D01*
X16163500Y32137638D01*
X16163499Y32137655D01*
X16158870Y32180703D01*
X16156989Y32198201D01*
X16149908Y32217185D01*
X16128861Y32273614D01*
X16105889Y32335204D01*
X16018261Y32452261D01*
X15901204Y32539889D01*
X15898818Y32540779D01*
X15764203Y32590989D01*
X15703654Y32597500D01*
X15703638Y32597500D01*
X14306362Y32597500D01*
X14306345Y32597500D01*
X14245797Y32590989D01*
X14245795Y32590989D01*
X14108795Y32539889D01*
X13991739Y32452261D01*
X13904111Y32335205D01*
X13853011Y32198205D01*
X13853011Y32198203D01*
X13846500Y32137655D01*
X13846499Y32137638D01*
X13846499Y30540363D01*
X13846500Y30540346D01*
X13853011Y30479798D01*
X13853011Y30479796D01*
X13882836Y30399835D01*
X13904111Y30342796D01*
X13991739Y30225739D01*
X14108796Y30138111D01*
X14190836Y30107512D01*
X14246767Y30065641D01*
X14271184Y30000177D01*
X14271500Y29991331D01*
X14271500Y29344500D01*
X14251815Y29277461D01*
X14199011Y29231706D01*
X14147500Y29220500D01*
X13742462Y29220500D01*
X13742446Y29220499D01*
X13638572Y29209887D01*
X13470264Y29154116D01*
X13470259Y29154114D01*
X13319346Y29061029D01*
X13274279Y29015961D01*
X13212956Y28982476D01*
X13143264Y28987460D01*
X13087331Y29029332D01*
X13062914Y29094796D01*
X13062598Y29103642D01*
X13062598Y31863134D01*
X13082283Y31930173D01*
X13098917Y31950815D01*
X17591283Y36443181D01*
X17652606Y36476666D01*
X17678964Y36479500D01*
X20030999Y36479500D01*
X20098038Y36459815D01*
G37*
%TD.AperFunction*%
%TA.AperFunction,Conductor*%
G36*
X52422095Y30488815D02*
G01*
X52460595Y30449597D01*
X52463884Y30444265D01*
X52463885Y30444262D01*
X52556970Y30293348D01*
X52682348Y30167970D01*
X52833262Y30074885D01*
X53001574Y30019113D01*
X53105455Y30008500D01*
X53706544Y30008501D01*
X53810426Y30019113D01*
X53978738Y30074885D01*
X54129652Y30167970D01*
X54255030Y30293348D01*
X54255032Y30293353D01*
X54258732Y30298030D01*
X54315753Y30338409D01*
X54385552Y30341549D01*
X54445968Y30306455D01*
X54453268Y30298030D01*
X54456969Y30293349D01*
X54456970Y30293348D01*
X54582348Y30167970D01*
X54733262Y30074885D01*
X54901574Y30019113D01*
X55005455Y30008500D01*
X55606544Y30008501D01*
X55710426Y30019113D01*
X55878738Y30074885D01*
X55999944Y30149647D01*
X56067332Y30168086D01*
X56104583Y30156395D01*
X56098740Y30204301D01*
X56129120Y30267221D01*
X56133352Y30271671D01*
X56155030Y30293348D01*
X56248115Y30444262D01*
X56248115Y30444265D01*
X56251405Y30449597D01*
X56303353Y30496321D01*
X56356944Y30508500D01*
X56665997Y30508500D01*
X56733036Y30488815D01*
X56778791Y30436011D01*
X56788735Y30366853D01*
X56759710Y30303297D01*
X56700932Y30265523D01*
X56694944Y30263926D01*
X56646297Y30252248D01*
X56409987Y30154366D01*
X56285861Y30078301D01*
X56218416Y30060057D01*
X56182930Y30071309D01*
X56188942Y30039237D01*
X56188086Y30017467D01*
X56640253Y29565300D01*
X56673738Y29503977D01*
X56668754Y29434285D01*
X56635467Y29389386D01*
X56637450Y29387293D01*
X56498342Y29255524D01*
X56479347Y29227507D01*
X56425433Y29183067D01*
X56356050Y29174829D01*
X56293228Y29205410D01*
X56289033Y29209414D01*
X55834534Y29663913D01*
X55831280Y29660103D01*
X55697636Y29442016D01*
X55697634Y29442013D01*
X55599752Y29205703D01*
X55540042Y28956990D01*
X55519975Y28702000D01*
X55540042Y28447011D01*
X55599752Y28198298D01*
X55697634Y27961988D01*
X55697636Y27961985D01*
X55831275Y27743905D01*
X55831286Y27743890D01*
X55834533Y27740089D01*
X55834535Y27740089D01*
X56289476Y28195030D01*
X56350799Y28228515D01*
X56420490Y28223531D01*
X56471665Y28187625D01*
X56551736Y28093359D01*
X56562009Y28081265D01*
X56631191Y28028674D01*
X56672647Y27972436D01*
X56677118Y27902709D01*
X56643830Y27842279D01*
X56188087Y27386536D01*
X56188087Y27386535D01*
X56191888Y27383288D01*
X56191898Y27383281D01*
X56409984Y27249637D01*
X56409987Y27249635D01*
X56646297Y27151753D01*
X56895011Y27092043D01*
X56895010Y27092043D01*
X57150000Y27071976D01*
X57404989Y27092043D01*
X57653702Y27151753D01*
X57890012Y27249635D01*
X57890015Y27249637D01*
X58108103Y27383281D01*
X58111912Y27386536D01*
X57659746Y27838701D01*
X57626261Y27900024D01*
X57631245Y27969715D01*
X57664586Y28014558D01*
X57662550Y28016708D01*
X57667429Y28021331D01*
X57667431Y28021331D01*
X57801658Y28148477D01*
X57820652Y28176493D01*
X57874563Y28220932D01*
X57943945Y28229172D01*
X58006768Y28198592D01*
X58010966Y28194586D01*
X58470442Y27735110D01*
X58520405Y27722541D01*
X58568192Y27671569D01*
X58581501Y27615682D01*
X58581501Y27465298D01*
X58581502Y27465281D01*
X58591677Y27365685D01*
X58630132Y27249635D01*
X58645152Y27204308D01*
X58734401Y27059613D01*
X58854614Y26939400D01*
X58999309Y26850151D01*
X59160687Y26796676D01*
X59193154Y26793359D01*
X59193164Y26793358D01*
X59257856Y26766962D01*
X59298007Y26709781D01*
X59300871Y26639970D01*
X59265537Y26579694D01*
X59203224Y26548088D01*
X59193165Y26546642D01*
X59160685Y26543324D01*
X58999311Y26489850D01*
X58999306Y26489848D01*
X58854612Y26400599D01*
X58734402Y26280389D01*
X58645153Y26135695D01*
X58645151Y26135690D01*
X58591676Y25974311D01*
X58581501Y25874719D01*
X58581501Y25340297D01*
X58581502Y25340281D01*
X58591677Y25240686D01*
X58645152Y25079308D01*
X58680840Y25021448D01*
X58734402Y24934612D01*
X58854614Y24814400D01*
X58897597Y24787888D01*
X58944322Y24735940D01*
X58956501Y24682349D01*
X58956501Y24566525D01*
X58936816Y24499486D01*
X58897598Y24460987D01*
X58766351Y24380033D01*
X58766347Y24380030D01*
X58640971Y24254654D01*
X58547886Y24103741D01*
X58547884Y24103736D01*
X58492113Y23935428D01*
X58481500Y23831553D01*
X58481500Y23205463D01*
X58481501Y23205447D01*
X58488411Y23137813D01*
X58492113Y23101574D01*
X58547885Y22933262D01*
X58628179Y22803085D01*
X58640971Y22782347D01*
X58729637Y22693681D01*
X58763122Y22632358D01*
X58758138Y22562666D01*
X58729637Y22518319D01*
X58640971Y22429654D01*
X58547886Y22278741D01*
X58547884Y22278736D01*
X58492113Y22110428D01*
X58481500Y22006553D01*
X58481500Y21380463D01*
X58481501Y21380447D01*
X58492113Y21276573D01*
X58547884Y21108265D01*
X58547885Y21108262D01*
X58640970Y20957348D01*
X58766348Y20831970D01*
X58897597Y20751015D01*
X58944321Y20699068D01*
X58956500Y20645477D01*
X58956500Y20186177D01*
X58936815Y20119138D01*
X58884011Y20073383D01*
X58845758Y20062888D01*
X58818796Y20059989D01*
X58818795Y20059989D01*
X58681795Y20008889D01*
X58564736Y19921259D01*
X58519266Y19860518D01*
X58463332Y19818647D01*
X58393641Y19813663D01*
X58332318Y19847149D01*
X58320734Y19860518D01*
X58275263Y19921259D01*
X58275261Y19921260D01*
X58275261Y19921261D01*
X58158204Y20008889D01*
X58118551Y20023679D01*
X58021203Y20059989D01*
X57960654Y20066500D01*
X57960638Y20066500D01*
X56339362Y20066500D01*
X56339345Y20066500D01*
X56278797Y20059989D01*
X56278795Y20059989D01*
X56141795Y20008889D01*
X56024739Y19921261D01*
X55937111Y19804205D01*
X55886011Y19667205D01*
X55886011Y19667203D01*
X55879500Y19606655D01*
X55879500Y17985346D01*
X55886011Y17924798D01*
X55886011Y17924796D01*
X55925009Y17820242D01*
X55937111Y17787796D01*
X56024739Y17670739D01*
X56141796Y17583111D01*
X56210836Y17557360D01*
X56266767Y17515490D01*
X56291184Y17450026D01*
X56291500Y17441180D01*
X56291500Y16871569D01*
X56273039Y16806473D01*
X56268883Y16799737D01*
X56268883Y16799736D01*
X56213113Y16631430D01*
X56213113Y16631429D01*
X56202500Y16527553D01*
X56202500Y15476463D01*
X56202501Y15476447D01*
X56213113Y15372573D01*
X56251226Y15257554D01*
X56268885Y15204262D01*
X56334038Y15098632D01*
X56352500Y15033537D01*
X56352500Y14945965D01*
X56332815Y14878926D01*
X56316181Y14858284D01*
X54283407Y12825511D01*
X54279704Y12822097D01*
X54237062Y12785876D01*
X54237058Y12785872D01*
X54237058Y12785871D01*
X54187582Y12720788D01*
X54161980Y12688938D01*
X54136379Y12657088D01*
X54136246Y12656880D01*
X54124170Y12637411D01*
X54124047Y12637207D01*
X54089725Y12563022D01*
X54053409Y12489796D01*
X54053302Y12489505D01*
X54045725Y12467984D01*
X54045642Y12467735D01*
X54028068Y12387894D01*
X54008342Y12308576D01*
X54008317Y12308389D01*
X54005513Y12285494D01*
X54005500Y12285368D01*
X54005500Y12203601D01*
X54003286Y12121909D01*
X54003308Y12121647D01*
X54005500Y12098594D01*
X54005500Y10312965D01*
X53985815Y10245926D01*
X53969181Y10225284D01*
X51750717Y8006819D01*
X51689394Y7973334D01*
X51663036Y7970500D01*
X48480500Y7970500D01*
X48413461Y7990185D01*
X48367706Y8042989D01*
X48356500Y8094500D01*
X48356500Y9851174D01*
X48376185Y9918213D01*
X48428989Y9963968D01*
X48486340Y9974315D01*
X48486340Y9974756D01*
X48488788Y9974756D01*
X48489350Y9974858D01*
X48490770Y9974756D01*
X48560462Y9979740D01*
X48560471Y9979741D01*
X48619293Y9992539D01*
X48625832Y9993598D01*
X48633797Y9994454D01*
X48635588Y9994646D01*
X48642210Y9995000D01*
X50327490Y9995000D01*
X50327500Y9995000D01*
X50436657Y10006736D01*
X50488168Y10017942D01*
X50522940Y10029516D01*
X50592320Y10052607D01*
X50592324Y10052610D01*
X50592327Y10052610D01*
X50715282Y10131629D01*
X50768086Y10177384D01*
X50863797Y10287839D01*
X50924514Y10420787D01*
X50944199Y10487826D01*
X50944200Y10487830D01*
X50965000Y10632500D01*
X50965000Y12235429D01*
X50984685Y12302468D01*
X51014685Y12334692D01*
X51021526Y12339813D01*
X51021525Y12339814D01*
X51032000Y12347655D01*
X51035610Y12350163D01*
X51063782Y12368266D01*
X51116586Y12414021D01*
X51212297Y12524476D01*
X51273014Y12657424D01*
X51292699Y12724463D01*
X51292700Y12724467D01*
X51313500Y12869137D01*
X51313500Y13940028D01*
X51312857Y13958036D01*
X51311874Y13976370D01*
X51280800Y14119185D01*
X51256380Y14184649D01*
X51186329Y14312925D01*
X51082976Y14416270D01*
X51082969Y14416275D01*
X51082966Y14416278D01*
X51027047Y14458135D01*
X51023312Y14460535D01*
X51024278Y14462039D01*
X50980149Y14506197D01*
X50965000Y14565589D01*
X50965000Y18235429D01*
X50984685Y18302468D01*
X51014685Y18334692D01*
X51021526Y18339813D01*
X51021525Y18339814D01*
X51032000Y18347655D01*
X51035610Y18350163D01*
X51063782Y18368266D01*
X51116586Y18414021D01*
X51212297Y18524476D01*
X51273014Y18657424D01*
X51292699Y18724463D01*
X51292700Y18724467D01*
X51313500Y18869137D01*
X51313500Y19940028D01*
X51312857Y19958036D01*
X51311874Y19976370D01*
X51302009Y20021707D01*
X51280801Y20119180D01*
X51280800Y20119185D01*
X51256380Y20184649D01*
X51186329Y20312925D01*
X51082976Y20416270D01*
X51082969Y20416275D01*
X51082966Y20416278D01*
X51027047Y20458135D01*
X51023312Y20460535D01*
X51024278Y20462039D01*
X50980149Y20506197D01*
X50965000Y20565589D01*
X50965000Y24235429D01*
X50984685Y24302468D01*
X51014685Y24334692D01*
X51021526Y24339813D01*
X51021525Y24339814D01*
X51032000Y24347655D01*
X51035610Y24350163D01*
X51063782Y24368266D01*
X51116586Y24414021D01*
X51212297Y24524476D01*
X51273014Y24657424D01*
X51292699Y24724463D01*
X51292700Y24724467D01*
X51313500Y24869137D01*
X51313500Y25940028D01*
X51312857Y25958036D01*
X51311874Y25976370D01*
X51280800Y26119185D01*
X51256380Y26184649D01*
X51186329Y26312925D01*
X51082976Y26416270D01*
X51082969Y26416275D01*
X51082966Y26416278D01*
X51027047Y26458135D01*
X51023312Y26460535D01*
X51024278Y26462039D01*
X50980149Y26506197D01*
X50965000Y26565589D01*
X50965000Y28044953D01*
X50984008Y28110928D01*
X50987709Y28116817D01*
X51028307Y28232840D01*
X51044160Y28278143D01*
X51044163Y28278156D01*
X51063299Y28447997D01*
X51063299Y28448004D01*
X51044163Y28617845D01*
X51044162Y28617850D01*
X51025759Y28670443D01*
X50987709Y28779183D01*
X50987707Y28779186D01*
X50987707Y28779187D01*
X50984006Y28785078D01*
X50965000Y28851049D01*
X50965000Y30384500D01*
X50984685Y30451539D01*
X51037489Y30497294D01*
X51089000Y30508500D01*
X52355056Y30508500D01*
X52422095Y30488815D01*
G37*
%TD.AperFunction*%
%TA.AperFunction,Conductor*%
G36*
X9926678Y24487315D02*
G01*
X9972433Y24434511D01*
X9982377Y24365353D01*
X9980532Y24355422D01*
X9967312Y24297498D01*
X9965736Y24290593D01*
X9965735Y24290592D01*
X9976443Y24147705D01*
X9974703Y24147575D01*
X9971106Y24088855D01*
X9929808Y24032497D01*
X9864597Y24007413D01*
X9854488Y24007000D01*
X8428361Y24007000D01*
X8361322Y24026685D01*
X8315567Y24079489D01*
X8305623Y24148647D01*
X8307467Y24158579D01*
X8322264Y24223407D01*
X8319923Y24254652D01*
X8311557Y24366295D01*
X8313296Y24366426D01*
X8316894Y24425145D01*
X8358192Y24481503D01*
X8423403Y24506587D01*
X8433512Y24507000D01*
X9859639Y24507000D01*
X9926678Y24487315D01*
G37*
%TD.AperFunction*%
%TA.AperFunction,Conductor*%
G36*
X58338554Y30488815D02*
G01*
X58377241Y30449291D01*
X58402538Y30408011D01*
X58445533Y30337848D01*
X58445536Y30337844D01*
X58602299Y30154299D01*
X58785844Y29997536D01*
X58897290Y29929242D01*
X58944165Y29877431D01*
X58956500Y29823515D01*
X58956500Y29186003D01*
X58936815Y29118964D01*
X58884011Y29073209D01*
X58814853Y29063265D01*
X58751297Y29092290D01*
X58713523Y29151068D01*
X58711926Y29157056D01*
X58700247Y29205703D01*
X58602365Y29442013D01*
X58602363Y29442016D01*
X58468719Y29660102D01*
X58468712Y29660112D01*
X58465465Y29663913D01*
X58465464Y29663913D01*
X58010523Y29208972D01*
X57949200Y29175487D01*
X57879508Y29180471D01*
X57828334Y29216376D01*
X57737991Y29322735D01*
X57737991Y29322736D01*
X57668806Y29375328D01*
X57627351Y29431568D01*
X57622882Y29501294D01*
X57656169Y29561723D01*
X58111911Y30017465D01*
X58111911Y30017467D01*
X58108110Y30020714D01*
X58108095Y30020725D01*
X57890015Y30154364D01*
X57890012Y30154366D01*
X57653702Y30252248D01*
X57605056Y30263926D01*
X57544464Y30298717D01*
X57512300Y30360743D01*
X57518776Y30430312D01*
X57561836Y30485336D01*
X57627808Y30508345D01*
X57634003Y30508500D01*
X58271515Y30508500D01*
X58338554Y30488815D01*
G37*
%TD.AperFunction*%
%TA.AperFunction,Conductor*%
G36*
X9926678Y34647315D02*
G01*
X9972433Y34594511D01*
X9982377Y34525353D01*
X9980532Y34515422D01*
X9969548Y34467293D01*
X9965736Y34450593D01*
X9965735Y34450592D01*
X9976443Y34307705D01*
X9974703Y34307575D01*
X9971106Y34248855D01*
X9929808Y34192497D01*
X9864597Y34167413D01*
X9854488Y34167000D01*
X8428361Y34167000D01*
X8361322Y34186685D01*
X8315567Y34239489D01*
X8305623Y34308647D01*
X8307467Y34318579D01*
X8322264Y34383407D01*
X8320816Y34402735D01*
X8311557Y34526295D01*
X8313296Y34526426D01*
X8316894Y34585145D01*
X8358192Y34641503D01*
X8423403Y34666587D01*
X8433512Y34667000D01*
X9859639Y34667000D01*
X9926678Y34647315D01*
G37*
%TD.AperFunction*%
%TA.AperFunction,Conductor*%
G36*
X27905851Y44204815D02*
G01*
X27926493Y44188181D01*
X28243493Y43871181D01*
X28276978Y43809858D01*
X28271994Y43740166D01*
X28230122Y43684233D01*
X28164658Y43659816D01*
X28155812Y43659500D01*
X16826469Y43659500D01*
X16808500Y43660809D01*
X16785475Y43664182D01*
X16744501Y43660597D01*
X16734667Y43659736D01*
X16729267Y43659500D01*
X16721282Y43659500D01*
X16705372Y43657641D01*
X16689462Y43655781D01*
X16614667Y43649238D01*
X16607599Y43647778D01*
X16607582Y43647860D01*
X16600701Y43646335D01*
X16600721Y43646254D01*
X16593697Y43644589D01*
X16523153Y43618913D01*
X16451899Y43595302D01*
X16445351Y43592248D01*
X16445315Y43592324D01*
X16438983Y43589259D01*
X16439021Y43589183D01*
X16432566Y43585942D01*
X16369863Y43544703D01*
X16305966Y43505291D01*
X16300298Y43500809D01*
X16300246Y43500875D01*
X16294784Y43496426D01*
X16294839Y43496361D01*
X16289308Y43491721D01*
X16237821Y43437148D01*
X15273507Y42472835D01*
X15259880Y42461057D01*
X15241213Y42447159D01*
X15208435Y42408097D01*
X15204787Y42404115D01*
X15199135Y42398463D01*
X15179246Y42373310D01*
X15130997Y42315810D01*
X15127030Y42309776D01*
X15126960Y42309823D01*
X15123177Y42303885D01*
X15123248Y42303841D01*
X15119457Y42297696D01*
X15087726Y42229647D01*
X15054042Y42162577D01*
X15051574Y42155794D01*
X15051496Y42155823D01*
X15049181Y42149166D01*
X15049261Y42149139D01*
X15046990Y42142286D01*
X15031814Y42068788D01*
X15014501Y41995743D01*
X15013663Y41988570D01*
X15013580Y41988580D01*
X15012863Y41981561D01*
X15012946Y41981553D01*
X15012317Y41974371D01*
X15014500Y41899373D01*
X15014500Y37566189D01*
X14994815Y37499150D01*
X14978180Y37478508D01*
X12831922Y35332248D01*
X11702993Y34203319D01*
X11641670Y34169834D01*
X11615312Y34167000D01*
X10968361Y34167000D01*
X10901322Y34186685D01*
X10855567Y34239489D01*
X10845623Y34308647D01*
X10847467Y34318579D01*
X10862264Y34383407D01*
X10860816Y34402735D01*
X10851557Y34526295D01*
X10853296Y34526426D01*
X10856894Y34585145D01*
X10898192Y34641503D01*
X10963403Y34666587D01*
X10973512Y34667000D01*
X11676000Y34667000D01*
X11676000Y35226828D01*
X11675999Y35226845D01*
X11669598Y35286373D01*
X11669596Y35286380D01*
X11619354Y35421087D01*
X11619350Y35421094D01*
X11533190Y35536188D01*
X11533187Y35536191D01*
X11418093Y35622351D01*
X11418086Y35622355D01*
X11283379Y35672597D01*
X11283372Y35672599D01*
X11223844Y35679000D01*
X10664000Y35679000D01*
X10664000Y34973066D01*
X10644315Y34906027D01*
X10591511Y34860272D01*
X10522353Y34850328D01*
X10503453Y34854574D01*
X10480998Y34861500D01*
X10380688Y34861500D01*
X10380680Y34861500D01*
X10306481Y34850316D01*
X10237256Y34859789D01*
X10184142Y34905184D01*
X10164003Y34972088D01*
X10164000Y34972931D01*
X10164000Y35679000D01*
X9604155Y35679000D01*
X9544627Y35672599D01*
X9544620Y35672597D01*
X9409913Y35622355D01*
X9409906Y35622351D01*
X9294812Y35536191D01*
X9243265Y35467334D01*
X9187330Y35425463D01*
X9117639Y35420480D01*
X9056316Y35453966D01*
X9044732Y35467335D01*
X8993186Y35536192D01*
X8878093Y35622351D01*
X8878086Y35622355D01*
X8743379Y35672597D01*
X8743372Y35672599D01*
X8683844Y35679000D01*
X8124000Y35679000D01*
X8124000Y34973066D01*
X8104315Y34906027D01*
X8051511Y34860272D01*
X7982353Y34850328D01*
X7963453Y34854574D01*
X7940998Y34861500D01*
X7840688Y34861500D01*
X7840680Y34861500D01*
X7766481Y34850316D01*
X7697256Y34859789D01*
X7644142Y34905184D01*
X7624003Y34972088D01*
X7624000Y34972931D01*
X7624000Y35679000D01*
X7064155Y35679000D01*
X7004627Y35672599D01*
X7004620Y35672597D01*
X6869913Y35622355D01*
X6869908Y35622352D01*
X6866807Y35620030D01*
X6863179Y35618678D01*
X6862128Y35618103D01*
X6862045Y35618255D01*
X6801341Y35595616D01*
X6733069Y35610470D01*
X6683665Y35659877D01*
X6668500Y35719300D01*
X6668500Y42034866D01*
X6688185Y42101905D01*
X6704819Y42122547D01*
X8770454Y44188181D01*
X8831777Y44221666D01*
X8858135Y44224500D01*
X27838812Y44224500D01*
X27905851Y44204815D01*
G37*
%TD.AperFunction*%
%TA.AperFunction,Conductor*%
G36*
X37179461Y37031343D02*
G01*
X37183587Y37028907D01*
X37188346Y37025972D01*
X37188348Y37025970D01*
X37339262Y36932885D01*
X37410503Y36909279D01*
X37467947Y36869508D01*
X37494772Y36804993D01*
X37495500Y36791573D01*
X37495500Y35780500D01*
X37475815Y35713461D01*
X37423011Y35667706D01*
X37371500Y35656500D01*
X35901679Y35656500D01*
X35834640Y35676185D01*
X35788885Y35728989D01*
X35778941Y35798147D01*
X35788883Y35832008D01*
X35790433Y35835404D01*
X35790435Y35835409D01*
X35811223Y35980002D01*
X35811224Y35980004D01*
X35811224Y36630500D01*
X35830909Y36697539D01*
X35883713Y36743294D01*
X35935224Y36754500D01*
X36267750Y36754500D01*
X36267751Y36754501D01*
X36282568Y36757448D01*
X36326229Y36766132D01*
X36326229Y36766133D01*
X36326231Y36766133D01*
X36392552Y36810448D01*
X36429933Y36866391D01*
X36483546Y36911196D01*
X36533035Y36921500D01*
X36604609Y36921500D01*
X36620746Y36919719D01*
X36620768Y36919946D01*
X36628534Y36919212D01*
X36628536Y36919213D01*
X36628537Y36919212D01*
X36701342Y36921500D01*
X36732432Y36921500D01*
X36739822Y36922434D01*
X36745651Y36922893D01*
X36794831Y36924438D01*
X36815583Y36930468D01*
X36834621Y36934410D01*
X36856064Y36937118D01*
X36901834Y36955240D01*
X36907348Y36957127D01*
X36933875Y36964835D01*
X36954600Y36970855D01*
X36973196Y36981854D01*
X36990664Y36990411D01*
X37010756Y36998365D01*
X37045604Y37023686D01*
X37111407Y37047166D01*
X37179461Y37031343D01*
G37*
%TD.AperFunction*%
%TA.AperFunction,Conductor*%
G36*
X40667213Y38895815D02*
G01*
X40712968Y38843011D01*
X40716148Y38835386D01*
X40720863Y38822926D01*
X40720865Y38822920D01*
X40747259Y38775125D01*
X40754639Y38761761D01*
X40765143Y38747867D01*
X40818629Y38677119D01*
X40842779Y38645176D01*
X40960198Y38558143D01*
X41021679Y38524949D01*
X41021688Y38524944D01*
X41111589Y38491900D01*
X41115365Y38490368D01*
X41207678Y38449267D01*
X41230126Y38436306D01*
X41276217Y38402819D01*
X41295483Y38385472D01*
X41333600Y38343138D01*
X41348835Y38322168D01*
X41377320Y38272832D01*
X41387865Y38249150D01*
X41405468Y38194975D01*
X41410858Y38169616D01*
X41416812Y38112961D01*
X41416812Y38087041D01*
X41410858Y38030386D01*
X41405468Y38005027D01*
X41387865Y37950852D01*
X41377320Y37927170D01*
X41348835Y37877834D01*
X41333601Y37856865D01*
X41295483Y37814529D01*
X41276216Y37797181D01*
X41230129Y37763697D01*
X41207679Y37750735D01*
X41155638Y37727565D01*
X41130985Y37719555D01*
X41075261Y37707710D01*
X41049481Y37705000D01*
X40992516Y37705000D01*
X40966735Y37707710D01*
X40895092Y37722938D01*
X40873921Y37726504D01*
X40866685Y37727565D01*
X40852271Y37729679D01*
X40852267Y37729679D01*
X40841628Y37729482D01*
X40706138Y37726970D01*
X40665132Y37720296D01*
X40637173Y37715745D01*
X40637170Y37715745D01*
X40637169Y37715744D01*
X40497729Y37671978D01*
X40376261Y37590696D01*
X40324311Y37543968D01*
X40324296Y37543956D01*
X40324292Y37543952D01*
X40310227Y37527099D01*
X40306467Y37522984D01*
X40225243Y37441761D01*
X40202659Y37423904D01*
X40178580Y37409052D01*
X40152489Y37396886D01*
X40121184Y37386512D01*
X40094788Y37380860D01*
X40089533Y37380323D01*
X40083224Y37380001D01*
X39540776Y37380001D01*
X39534482Y37380322D01*
X39529209Y37380860D01*
X39523636Y37381430D01*
X39502526Y37385459D01*
X39504339Y37384947D01*
X39471897Y37392589D01*
X39427223Y37401046D01*
X39336500Y37401046D01*
X39269461Y37420731D01*
X39223706Y37473535D01*
X39212500Y37525046D01*
X39212500Y37620590D01*
X39212705Y37625624D01*
X39217245Y37681381D01*
X39217244Y37681383D01*
X39217245Y37681385D01*
X39206209Y37762380D01*
X39197372Y37843640D01*
X39197371Y37843642D01*
X39197371Y37843646D01*
X39197288Y37844022D01*
X39192126Y37866046D01*
X39192035Y37866414D01*
X39163848Y37943134D01*
X39163848Y37943135D01*
X39137748Y38020600D01*
X39137746Y38020604D01*
X39137647Y38020817D01*
X39127779Y38041412D01*
X39127639Y38041695D01*
X39083621Y38110559D01*
X39063661Y38143734D01*
X39045965Y38211326D01*
X39067621Y38277755D01*
X39082224Y38295338D01*
X39666068Y38879181D01*
X39727392Y38912666D01*
X39753750Y38915500D01*
X40600174Y38915500D01*
X40667213Y38895815D01*
G37*
%TD.AperFunction*%
%TA.AperFunction,Conductor*%
G36*
X28002613Y42172815D02*
G01*
X28023255Y42156181D01*
X28615181Y41564256D01*
X28648666Y41502933D01*
X28651500Y41476575D01*
X28651500Y40929001D01*
X28631815Y40861962D01*
X28579011Y40816207D01*
X28527500Y40805001D01*
X24724573Y40805001D01*
X24657534Y40824686D01*
X24625306Y40854690D01*
X24622953Y40857833D01*
X24620189Y40861526D01*
X24612346Y40872003D01*
X24609828Y40875629D01*
X24591735Y40903782D01*
X24575084Y40922998D01*
X24545984Y40956582D01*
X24545981Y40956585D01*
X24435528Y41052295D01*
X24435522Y41052299D01*
X24302580Y41113013D01*
X24235543Y41132698D01*
X24235537Y41132700D01*
X24148732Y41145180D01*
X24090864Y41153500D01*
X23019967Y41153500D01*
X23019966Y41153500D01*
X23001959Y41152858D01*
X22983666Y41151877D01*
X22983661Y41151877D01*
X22983659Y41151876D01*
X22983648Y41151874D01*
X22983650Y41151874D01*
X22840842Y41120809D01*
X22775370Y41096389D01*
X22647100Y41026349D01*
X22647097Y41026346D01*
X22543749Y40922999D01*
X22543748Y40922998D01*
X22534265Y40910330D01*
X22501876Y40867063D01*
X22501848Y40867026D01*
X22501843Y40867019D01*
X22499356Y40863170D01*
X22497830Y40864156D01*
X22453806Y40820153D01*
X22394407Y40805001D01*
X20792510Y40805001D01*
X20792490Y40804999D01*
X20683348Y40793265D01*
X20683336Y40793263D01*
X20631826Y40782057D01*
X20527679Y40747394D01*
X20527673Y40747391D01*
X20404718Y40668372D01*
X20404711Y40668366D01*
X20351918Y40622621D01*
X20351915Y40622618D01*
X20256205Y40512165D01*
X20256201Y40512159D01*
X20195487Y40379217D01*
X20175802Y40312179D01*
X20175800Y40312174D01*
X20170695Y40276664D01*
X20155002Y40167510D01*
X20155000Y40167499D01*
X20155000Y38508823D01*
X20151148Y38478156D01*
X20147827Y38465144D01*
X20137101Y38411221D01*
X20137101Y38343138D01*
X20137102Y38320501D01*
X20117418Y38253462D01*
X20064615Y38207706D01*
X20013102Y38196500D01*
X17309413Y38196500D01*
X17304379Y38196705D01*
X17248618Y38201246D01*
X17167620Y38190210D01*
X17086358Y38181372D01*
X17086073Y38181309D01*
X17063830Y38176096D01*
X17063589Y38176036D01*
X16986869Y38147851D01*
X16909395Y38121747D01*
X16909277Y38121693D01*
X16888522Y38111747D01*
X16888307Y38111640D01*
X16819439Y38067621D01*
X16749392Y38025475D01*
X16749251Y38025367D01*
X16731105Y38011181D01*
X16730965Y38011069D01*
X16693179Y37973284D01*
X16631855Y37939800D01*
X16562164Y37944786D01*
X16506231Y37986659D01*
X16481816Y38052124D01*
X16481500Y38060967D01*
X16481500Y41554812D01*
X16501185Y41621851D01*
X16517819Y41642493D01*
X17031507Y42156181D01*
X17092830Y42189666D01*
X17119188Y42192500D01*
X27935574Y42192500D01*
X28002613Y42172815D01*
G37*
%TD.AperFunction*%
%TA.AperFunction,Conductor*%
G36*
X34909393Y38775125D02*
G01*
X34952478Y38747869D01*
X35022580Y38679740D01*
X35025269Y38677127D01*
X35025279Y38677119D01*
X35053217Y38656821D01*
X35072483Y38639474D01*
X35110599Y38597141D01*
X35125835Y38576171D01*
X35154322Y38526831D01*
X35164866Y38503148D01*
X35182468Y38448975D01*
X35187858Y38423619D01*
X35191867Y38385472D01*
X35195891Y38347192D01*
X35195890Y38347188D01*
X35197677Y38330184D01*
X35185107Y38261454D01*
X35137374Y38210431D01*
X35074356Y38193224D01*
X34524342Y38193224D01*
X34457303Y38212909D01*
X34411548Y38265713D01*
X34401604Y38334871D01*
X34430629Y38398427D01*
X34436661Y38404905D01*
X34597345Y38565589D01*
X34778381Y38746626D01*
X34839702Y38780109D01*
X34909393Y38775125D01*
G37*
%TD.AperFunction*%
%TA.AperFunction,Conductor*%
G36*
X40108207Y42959815D02*
G01*
X40128849Y42943181D01*
X40784181Y42287850D01*
X40817666Y42226527D01*
X40820500Y42200169D01*
X40820500Y40857833D01*
X40800815Y40790794D01*
X40784181Y40770152D01*
X40382849Y40368819D01*
X40321526Y40335334D01*
X40295168Y40332500D01*
X39477112Y40332500D01*
X39410073Y40352185D01*
X39364318Y40404989D01*
X39358134Y40421568D01*
X39354975Y40432327D01*
X39275956Y40555282D01*
X39275950Y40555289D01*
X39230205Y40608082D01*
X39230202Y40608085D01*
X39119749Y40703795D01*
X39119743Y40703799D01*
X38986801Y40764513D01*
X38919764Y40784198D01*
X38919758Y40784200D01*
X38827632Y40797445D01*
X38775085Y40805000D01*
X38775083Y40805000D01*
X36683276Y40805000D01*
X36639943Y40812818D01*
X36621118Y40819839D01*
X36584948Y40833331D01*
X36585330Y40833203D01*
X36583184Y40834694D01*
X36537724Y40847207D01*
X36514816Y40853937D01*
X36512980Y40854269D01*
X36507585Y40855496D01*
X36496566Y40858526D01*
X36459933Y40864164D01*
X36398637Y40873598D01*
X36335372Y40903252D01*
X36298182Y40962401D01*
X36293500Y40996155D01*
X36293500Y42300271D01*
X36313185Y42367310D01*
X36365989Y42413065D01*
X36417500Y42424271D01*
X36931886Y42424271D01*
X36931889Y42424271D01*
X37076622Y42445080D01*
X37214577Y42485587D01*
X37347586Y42546330D01*
X37412571Y42588093D01*
X37468539Y42624061D01*
X37468536Y42624058D01*
X37502536Y42653520D01*
X37579051Y42719821D01*
X37644940Y42795862D01*
X37673196Y42828471D01*
X37673198Y42828474D01*
X37673205Y42828482D01*
X37722230Y42904766D01*
X37733653Y42922540D01*
X37786457Y42968295D01*
X37837968Y42979500D01*
X40041168Y42979500D01*
X40108207Y42959815D01*
G37*
%TD.AperFunction*%
%TD*%
%TA.AperFunction,Conductor*%
%TO.N,GNDA*%
G36*
X42383851Y32520815D02*
G01*
X42404493Y32504181D01*
X44141166Y30767508D01*
X44152947Y30753876D01*
X44166839Y30735216D01*
X44205904Y30702436D01*
X44209894Y30698780D01*
X44215543Y30693131D01*
X44240690Y30673247D01*
X44298191Y30624998D01*
X44298195Y30624996D01*
X44304232Y30621025D01*
X44304184Y30620953D01*
X44310118Y30617173D01*
X44310164Y30617246D01*
X44316308Y30613456D01*
X44384353Y30581727D01*
X44451421Y30548044D01*
X44451423Y30548044D01*
X44458210Y30545573D01*
X44458180Y30545492D01*
X44464827Y30543182D01*
X44464854Y30543263D01*
X44471714Y30540990D01*
X44545211Y30525816D01*
X44545211Y30525815D01*
X44618266Y30508500D01*
X44618275Y30508500D01*
X44625439Y30507662D01*
X44625429Y30507578D01*
X44632435Y30506862D01*
X44632443Y30506947D01*
X44639632Y30506318D01*
X44639635Y30506319D01*
X44639636Y30506318D01*
X44714628Y30508500D01*
X50330641Y30508500D01*
X50397680Y30488815D01*
X50443435Y30436011D01*
X50453930Y30371243D01*
X50451500Y30348652D01*
X50451500Y26451346D01*
X50458011Y26390798D01*
X50458011Y26390796D01*
X50488727Y26308447D01*
X50509111Y26253796D01*
X50596739Y26136739D01*
X50666618Y26084428D01*
X50713794Y26049112D01*
X50713795Y26049112D01*
X50713796Y26049111D01*
X50719330Y26047047D01*
X50775264Y26005179D01*
X50799684Y25939715D01*
X50800000Y25930864D01*
X50800000Y24869137D01*
X50780315Y24802098D01*
X50727511Y24756343D01*
X50719341Y24752958D01*
X50713799Y24750891D01*
X50713795Y24750889D01*
X50596739Y24663261D01*
X50509111Y24546205D01*
X50458011Y24409205D01*
X50458011Y24409203D01*
X50451500Y24348655D01*
X50451500Y20451346D01*
X50458011Y20390798D01*
X50458011Y20390796D01*
X50509110Y20253797D01*
X50509111Y20253796D01*
X50596739Y20136739D01*
X50674922Y20078212D01*
X50713794Y20049112D01*
X50713795Y20049112D01*
X50713796Y20049111D01*
X50719330Y20047047D01*
X50775264Y20005179D01*
X50799684Y19939715D01*
X50800000Y19930864D01*
X50800000Y18869137D01*
X50780315Y18802098D01*
X50727511Y18756343D01*
X50719341Y18752958D01*
X50713799Y18750891D01*
X50713795Y18750889D01*
X50596739Y18663261D01*
X50509111Y18546205D01*
X50458011Y18409205D01*
X50458011Y18409203D01*
X50451500Y18348655D01*
X50451500Y14451346D01*
X50458011Y14390798D01*
X50458011Y14390796D01*
X50503636Y14268475D01*
X50509111Y14253796D01*
X50596739Y14136739D01*
X50674922Y14078212D01*
X50713794Y14049112D01*
X50713795Y14049112D01*
X50713796Y14049111D01*
X50719330Y14047047D01*
X50775264Y14005179D01*
X50799684Y13939715D01*
X50800000Y13930864D01*
X50800000Y12869137D01*
X50780315Y12802098D01*
X50727511Y12756343D01*
X50719341Y12752958D01*
X50713799Y12750891D01*
X50713795Y12750889D01*
X50596739Y12663261D01*
X50509111Y12546205D01*
X50458011Y12409205D01*
X50458011Y12409203D01*
X50451500Y12348655D01*
X50451500Y10632500D01*
X50431815Y10565461D01*
X50379011Y10519706D01*
X50327500Y10508500D01*
X48611345Y10508500D01*
X48550797Y10501989D01*
X48550796Y10501989D01*
X48523833Y10491932D01*
X48454141Y10486948D01*
X48392818Y10520433D01*
X48359334Y10581757D01*
X48356500Y10608114D01*
X48356500Y14591090D01*
X48356705Y14596124D01*
X48361245Y14651881D01*
X48361244Y14651883D01*
X48361245Y14651885D01*
X48350209Y14732880D01*
X48341372Y14814140D01*
X48341371Y14814142D01*
X48341371Y14814146D01*
X48341288Y14814522D01*
X48336126Y14836546D01*
X48336035Y14836915D01*
X48307850Y14913630D01*
X48298101Y14942565D01*
X48281748Y14991100D01*
X48281743Y14991108D01*
X48281616Y14991384D01*
X48271809Y15011852D01*
X48271642Y15012189D01*
X48227627Y15081049D01*
X48202007Y15123630D01*
X48185476Y15151105D01*
X48185474Y15151107D01*
X48185313Y15151318D01*
X48171290Y15169257D01*
X48171075Y15169524D01*
X48171071Y15169531D01*
X48113266Y15227336D01*
X48057058Y15286674D01*
X48057052Y15286679D01*
X48056823Y15286872D01*
X48039000Y15301602D01*
X46165818Y17174784D01*
X46132333Y17236107D01*
X46129499Y17262465D01*
X46129499Y17518538D01*
X46129498Y17518554D01*
X46123089Y17581289D01*
X46118887Y17622426D01*
X46063115Y17790738D01*
X45985460Y17916635D01*
X45967000Y17981731D01*
X45967000Y18227090D01*
X45967205Y18232124D01*
X45971745Y18287881D01*
X45971744Y18287883D01*
X45971745Y18287885D01*
X45960709Y18368880D01*
X45951872Y18450140D01*
X45951871Y18450142D01*
X45951871Y18450146D01*
X45951788Y18450522D01*
X45946626Y18472546D01*
X45946535Y18472914D01*
X45922659Y18537901D01*
X45918348Y18549635D01*
X45892248Y18627100D01*
X45892246Y18627104D01*
X45892147Y18627317D01*
X45882279Y18647912D01*
X45882142Y18648187D01*
X45882141Y18648191D01*
X45873658Y18661463D01*
X45838122Y18717059D01*
X45805216Y18771748D01*
X45795976Y18787105D01*
X45795974Y18787107D01*
X45795973Y18787109D01*
X45795813Y18787318D01*
X45781790Y18805257D01*
X45781575Y18805524D01*
X45781571Y18805531D01*
X45723766Y18863336D01*
X45667558Y18922674D01*
X45667552Y18922679D01*
X45667323Y18922872D01*
X45649500Y18937602D01*
X45631145Y18955957D01*
X45597660Y19017280D01*
X45602644Y19086972D01*
X45616024Y19110717D01*
X45615238Y19111201D01*
X45622788Y19123441D01*
X45712115Y19268262D01*
X45767887Y19436574D01*
X45778500Y19540455D01*
X45778499Y20591544D01*
X45767887Y20695426D01*
X45765492Y20702654D01*
X45712117Y20863734D01*
X45698740Y20885421D01*
X45646960Y20969370D01*
X45628500Y21034466D01*
X45628500Y21553059D01*
X45645768Y21616180D01*
X45706781Y21719348D01*
X45725145Y21750399D01*
X45771562Y21910169D01*
X45774230Y21944071D01*
X45774500Y21947495D01*
X45774500Y22380505D01*
X45771562Y22417830D01*
X45771561Y22417836D01*
X45725146Y22577597D01*
X45725145Y22577601D01*
X45667158Y22675652D01*
X45640455Y22720804D01*
X45640448Y22720813D01*
X45522812Y22838449D01*
X45522803Y22838456D01*
X45379601Y22923145D01*
X45379596Y22923147D01*
X45219835Y22969562D01*
X45219829Y22969563D01*
X45182505Y22972500D01*
X45182502Y22972500D01*
X44849887Y22972500D01*
X44819966Y22976165D01*
X44679220Y23011167D01*
X44618915Y23046447D01*
X44587256Y23108733D01*
X44594297Y23178247D01*
X44637802Y23232919D01*
X44703959Y23255391D01*
X44709148Y23255500D01*
X45182505Y23255500D01*
X45204899Y23257263D01*
X45219831Y23258438D01*
X45219833Y23258439D01*
X45219835Y23258439D01*
X45261962Y23270679D01*
X45379601Y23304855D01*
X45522807Y23389547D01*
X45640453Y23507193D01*
X45725145Y23650399D01*
X45771562Y23810169D01*
X45774500Y23847498D01*
X45774500Y24280502D01*
X45773186Y24297191D01*
X45771562Y24317830D01*
X45771561Y24317836D01*
X45725146Y24477597D01*
X45725145Y24477601D01*
X45640453Y24620807D01*
X45640451Y24620809D01*
X45640448Y24620813D01*
X45522812Y24738449D01*
X45522803Y24738456D01*
X45379601Y24823145D01*
X45379596Y24823147D01*
X45219835Y24869562D01*
X45219829Y24869563D01*
X45182505Y24872500D01*
X45182502Y24872500D01*
X43874498Y24872500D01*
X43874495Y24872500D01*
X43837170Y24869563D01*
X43837164Y24869562D01*
X43677403Y24823147D01*
X43677402Y24823147D01*
X43677398Y24823145D01*
X43677399Y24823145D01*
X43663232Y24814768D01*
X43600114Y24797500D01*
X43369469Y24797500D01*
X43351500Y24798809D01*
X43328475Y24802182D01*
X43288472Y24798681D01*
X43277667Y24797736D01*
X43272267Y24797500D01*
X43264282Y24797500D01*
X43248372Y24795641D01*
X43232462Y24793781D01*
X43157667Y24787238D01*
X43150599Y24785778D01*
X43150582Y24785860D01*
X43143675Y24784329D01*
X43143695Y24784247D01*
X43139380Y24783225D01*
X43138829Y24783255D01*
X43134858Y24782374D01*
X43129538Y24781751D01*
X43129302Y24783760D01*
X43069608Y24786929D01*
X43023120Y24816206D01*
X42280818Y25558508D01*
X42247333Y25619831D01*
X42244499Y25646189D01*
X42244499Y25980538D01*
X42244498Y25980554D01*
X42241982Y26005179D01*
X42233887Y26084426D01*
X42178115Y26252738D01*
X42085030Y26403652D01*
X42058862Y26429820D01*
X42025377Y26491143D01*
X42030361Y26560835D01*
X42072233Y26616768D01*
X42137697Y26641185D01*
X42146543Y26641501D01*
X42283537Y26641501D01*
X42283544Y26641501D01*
X42387426Y26652113D01*
X42555738Y26707885D01*
X42706652Y26800970D01*
X42832030Y26926348D01*
X42925115Y27077262D01*
X42980887Y27245574D01*
X42991500Y27349455D01*
X42991499Y27975544D01*
X42980887Y28079426D01*
X42925115Y28247738D01*
X42832030Y28398652D01*
X42743363Y28487319D01*
X42709878Y28548642D01*
X42714862Y28618334D01*
X42743363Y28662681D01*
X42782682Y28702000D01*
X42832030Y28751348D01*
X42925115Y28902262D01*
X42980887Y29070574D01*
X42991500Y29174455D01*
X42991499Y29800544D01*
X42980887Y29904426D01*
X42925115Y30072738D01*
X42832030Y30223652D01*
X42706652Y30349030D01*
X42555738Y30442115D01*
X42555735Y30442116D01*
X42387427Y30497887D01*
X42283546Y30508500D01*
X41282462Y30508500D01*
X41282446Y30508499D01*
X41178572Y30497887D01*
X41010264Y30442116D01*
X41010259Y30442114D01*
X40858984Y30348806D01*
X40791591Y30330366D01*
X40724928Y30351289D01*
X40703589Y30370998D01*
X40703137Y30370545D01*
X40572653Y30501029D01*
X40572652Y30501030D01*
X40421738Y30594115D01*
X40363370Y30613456D01*
X40253427Y30649887D01*
X40149546Y30660500D01*
X39098462Y30660500D01*
X39098446Y30660499D01*
X38994571Y30649887D01*
X38904872Y30620164D01*
X38835044Y30617763D01*
X38775002Y30653495D01*
X38743810Y30716015D01*
X38748162Y30776871D01*
X38777887Y30866574D01*
X38788500Y30970455D01*
X38788499Y32021544D01*
X38777887Y32125426D01*
X38722115Y32293738D01*
X38722111Y32293744D01*
X38722110Y32293747D01*
X38686547Y32351403D01*
X38668106Y32418795D01*
X38689028Y32485459D01*
X38742670Y32530228D01*
X38792085Y32540500D01*
X42316812Y32540500D01*
X42383851Y32520815D01*
G37*
%TD.AperFunction*%
%TA.AperFunction,Conductor*%
G36*
X27965093Y36459815D02*
G01*
X28003592Y36420597D01*
X28033967Y36371352D01*
X28033970Y36371348D01*
X28122637Y36282681D01*
X28156122Y36221358D01*
X28151138Y36151666D01*
X28122637Y36107319D01*
X28033971Y36018654D01*
X27940886Y35867741D01*
X27940884Y35867736D01*
X27885113Y35699428D01*
X27874500Y35595553D01*
X27874500Y34969463D01*
X27874501Y34969447D01*
X27881617Y34899797D01*
X27885113Y34865574D01*
X27940885Y34697262D01*
X28033970Y34546348D01*
X28159348Y34420970D01*
X28273014Y34350860D01*
X28310264Y34327884D01*
X28311076Y34327615D01*
X28311561Y34327280D01*
X28316809Y34324832D01*
X28316390Y34323936D01*
X28368523Y34287844D01*
X28395348Y34223329D01*
X28383035Y34154553D01*
X28337173Y34104370D01*
X28239351Y34044033D01*
X28239347Y34044030D01*
X28113971Y33918654D01*
X28020886Y33767741D01*
X28020884Y33767736D01*
X27965113Y33599428D01*
X27954500Y33495553D01*
X27954500Y32544463D01*
X27954501Y32544447D01*
X27965113Y32440573D01*
X27980185Y32395089D01*
X28020885Y32272262D01*
X28113970Y32121348D01*
X28239348Y31995970D01*
X28390262Y31902885D01*
X28448320Y31883647D01*
X28518503Y31860391D01*
X28575948Y31820619D01*
X28602772Y31756103D01*
X28603500Y31742685D01*
X28603500Y31600327D01*
X28585908Y31538295D01*
X28585936Y31538282D01*
X28585855Y31538110D01*
X28585039Y31535230D01*
X28582883Y31531735D01*
X28527113Y31363430D01*
X28527113Y31363429D01*
X28516500Y31259553D01*
X28516500Y30208463D01*
X28516501Y30208447D01*
X28527113Y30104573D01*
X28543691Y30054544D01*
X28582885Y29936262D01*
X28667303Y29799399D01*
X28675971Y29785347D01*
X28806455Y29654863D01*
X28804426Y29652835D01*
X28837240Y29606490D01*
X28840375Y29536691D01*
X28805276Y29476277D01*
X28758955Y29448546D01*
X28691262Y29426115D01*
X28691259Y29426114D01*
X28540349Y29333031D01*
X28448636Y29241318D01*
X28387312Y29207834D01*
X28360955Y29205000D01*
X28331044Y29205000D01*
X28264005Y29224685D01*
X28243363Y29241319D01*
X28126653Y29358029D01*
X28126652Y29358030D01*
X27975738Y29451115D01*
X27899803Y29476277D01*
X27807427Y29506887D01*
X27703546Y29517500D01*
X26652462Y29517500D01*
X26652446Y29517499D01*
X26548572Y29506887D01*
X26380264Y29451116D01*
X26380259Y29451114D01*
X26229346Y29358029D01*
X26103971Y29232654D01*
X26010886Y29081741D01*
X26010884Y29081736D01*
X25955113Y28913428D01*
X25944500Y28809553D01*
X25944500Y28208463D01*
X25944501Y28208447D01*
X25955113Y28104574D01*
X26010885Y27936262D01*
X26103970Y27785348D01*
X26229348Y27659970D01*
X26229351Y27659968D01*
X26234034Y27656265D01*
X26274410Y27599242D01*
X26277547Y27529443D01*
X26242450Y27469028D01*
X26234034Y27461735D01*
X26229345Y27458028D01*
X26103971Y27332654D01*
X26010886Y27181741D01*
X26010884Y27181736D01*
X25955113Y27013428D01*
X25944500Y26909553D01*
X25944500Y26308463D01*
X25944501Y26308447D01*
X25955113Y26204573D01*
X26010884Y26036265D01*
X26010886Y26036260D01*
X26034545Y25997903D01*
X26103970Y25885348D01*
X26229348Y25759970D01*
X26380262Y25666885D01*
X26442720Y25646189D01*
X26548573Y25611113D01*
X26561092Y25609835D01*
X26587102Y25607177D01*
X26651794Y25580781D01*
X26691945Y25523601D01*
X26698500Y25483819D01*
X26698500Y25328524D01*
X26678815Y25261485D01*
X26639598Y25222987D01*
X26591914Y25193574D01*
X26508346Y25142029D01*
X26382971Y25016654D01*
X26289886Y24865741D01*
X26289884Y24865736D01*
X26234113Y24697428D01*
X26223500Y24593553D01*
X26223500Y23967463D01*
X26223501Y23967447D01*
X26234113Y23863573D01*
X26289884Y23695265D01*
X26289886Y23695260D01*
X26295206Y23686635D01*
X26370794Y23564088D01*
X26382971Y23544347D01*
X26471636Y23455682D01*
X26505121Y23394359D01*
X26500137Y23324667D01*
X26471637Y23280321D01*
X26382971Y23191654D01*
X26289886Y23040741D01*
X26289884Y23040736D01*
X26234113Y22872428D01*
X26223500Y22768553D01*
X26223500Y22142463D01*
X26223501Y22142447D01*
X26234113Y22038573D01*
X26275982Y21912218D01*
X26289885Y21870262D01*
X26382970Y21719348D01*
X26422137Y21680181D01*
X26455622Y21618860D01*
X26450638Y21549169D01*
X26422138Y21504820D01*
X26302969Y21385651D01*
X26209886Y21234741D01*
X26209884Y21234736D01*
X26154113Y21066428D01*
X26143500Y20962553D01*
X26143500Y18661463D01*
X26143501Y18661447D01*
X26154113Y18557573D01*
X26209884Y18389265D01*
X26209886Y18389260D01*
X26222457Y18368880D01*
X26274301Y18284827D01*
X26302971Y18238347D01*
X26325898Y18215420D01*
X26359383Y18154097D01*
X26354399Y18084405D01*
X26325898Y18040058D01*
X25941507Y17655667D01*
X25927880Y17643889D01*
X25909213Y17629991D01*
X25876435Y17590929D01*
X25872787Y17586947D01*
X25867135Y17581295D01*
X25847246Y17556142D01*
X25798997Y17498642D01*
X25795030Y17492608D01*
X25794960Y17492655D01*
X25791177Y17486717D01*
X25791248Y17486673D01*
X25787456Y17480527D01*
X25770554Y17444280D01*
X25724381Y17391842D01*
X25697178Y17378981D01*
X25643262Y17361115D01*
X25643259Y17361114D01*
X25492346Y17268029D01*
X25366971Y17142654D01*
X25273886Y16991741D01*
X25273884Y16991736D01*
X25218113Y16823428D01*
X25207500Y16719553D01*
X25207500Y16644189D01*
X25187815Y16577150D01*
X25171181Y16556508D01*
X24835724Y16221051D01*
X24774401Y16187566D01*
X24704709Y16192550D01*
X24682948Y16203192D01*
X24641883Y16228522D01*
X24611740Y16247114D01*
X24611735Y16247116D01*
X24443427Y16302887D01*
X24339546Y16313500D01*
X23713462Y16313500D01*
X23713446Y16313499D01*
X23609572Y16302887D01*
X23441264Y16247116D01*
X23441259Y16247114D01*
X23290349Y16154031D01*
X23201681Y16065363D01*
X23140357Y16031879D01*
X23070666Y16036863D01*
X23026319Y16065364D01*
X22933819Y16157864D01*
X22900334Y16219187D01*
X22897500Y16245545D01*
X22897500Y16275457D01*
X22917185Y16342496D01*
X22933810Y16363129D01*
X23013030Y16442348D01*
X23106115Y16593262D01*
X23161887Y16761574D01*
X23172500Y16865455D01*
X23172499Y17916544D01*
X23161887Y18020426D01*
X23106115Y18188738D01*
X23023960Y18321931D01*
X23005500Y18387027D01*
X23005500Y18593477D01*
X23025185Y18660516D01*
X23064401Y18699014D01*
X23195652Y18779970D01*
X23321030Y18905348D01*
X23414115Y19056262D01*
X23469887Y19224574D01*
X23480500Y19328455D01*
X23480499Y20279544D01*
X23469887Y20383426D01*
X23414115Y20551738D01*
X23321030Y20702652D01*
X23195652Y20828030D01*
X23195651Y20828031D01*
X23144402Y20859642D01*
X23097678Y20911590D01*
X23085500Y20965180D01*
X23085500Y20969812D01*
X23105185Y21036851D01*
X23144403Y21075350D01*
X23148652Y21077970D01*
X23274030Y21203348D01*
X23367115Y21354262D01*
X23422887Y21522574D01*
X23433500Y21626455D01*
X23433499Y22252544D01*
X23422887Y22356426D01*
X23367115Y22524738D01*
X23274030Y22675652D01*
X23185363Y22764319D01*
X23151878Y22825642D01*
X23156862Y22895334D01*
X23185363Y22939681D01*
X23228274Y22982592D01*
X23274030Y23028348D01*
X23367115Y23179262D01*
X23422887Y23347574D01*
X23433500Y23451455D01*
X23433499Y24077544D01*
X23422887Y24181426D01*
X23367115Y24349738D01*
X23274030Y24500652D01*
X23198363Y24576319D01*
X23164878Y24637642D01*
X23169862Y24707334D01*
X23198363Y24751681D01*
X23255182Y24808500D01*
X23321030Y24874348D01*
X23414115Y25025262D01*
X23469887Y25193574D01*
X23480500Y25297455D01*
X23480499Y26248544D01*
X23469887Y26352426D01*
X23414115Y26520738D01*
X23321030Y26671652D01*
X23195652Y26797030D01*
X23189985Y26801511D01*
X23191169Y26803010D01*
X23150940Y26847735D01*
X23139716Y26916697D01*
X23167558Y26980780D01*
X23197661Y27006865D01*
X23275652Y27054970D01*
X23401030Y27180348D01*
X23494115Y27331262D01*
X23549887Y27499574D01*
X23560500Y27603455D01*
X23560499Y28229544D01*
X23549887Y28333426D01*
X23494115Y28501738D01*
X23401030Y28652652D01*
X23312362Y28741320D01*
X23278878Y28802642D01*
X23283862Y28872334D01*
X23312363Y28916681D01*
X23314182Y28918500D01*
X23401030Y29005348D01*
X23494115Y29156262D01*
X23549887Y29324574D01*
X23560500Y29428455D01*
X23560499Y30054544D01*
X23549887Y30158426D01*
X23494115Y30326738D01*
X23401030Y30477652D01*
X23275652Y30603030D01*
X23124738Y30696115D01*
X23105662Y30702436D01*
X22976019Y30745395D01*
X22918574Y30785167D01*
X22891751Y30849683D01*
X22897317Y30902105D01*
X22939887Y31030574D01*
X22950500Y31134455D01*
X22950499Y31735544D01*
X22939887Y31839426D01*
X22884115Y32007738D01*
X22791030Y32158652D01*
X22665652Y32284030D01*
X22556424Y32351403D01*
X22514740Y32377114D01*
X22514735Y32377116D01*
X22346427Y32432887D01*
X22242546Y32443500D01*
X21191462Y32443500D01*
X21191446Y32443499D01*
X21087572Y32432887D01*
X20919264Y32377116D01*
X20919255Y32377111D01*
X20857406Y32338963D01*
X20790013Y32320523D01*
X20723350Y32341446D01*
X20678581Y32395089D01*
X20669048Y32448041D01*
X20668500Y32448041D01*
X20668500Y32451084D01*
X20668488Y32451150D01*
X20668498Y32451351D01*
X20668500Y32451362D01*
X20668500Y36348638D01*
X20668499Y36348644D01*
X20668488Y36348856D01*
X20668499Y36348907D01*
X20668500Y36351959D01*
X20669221Y36351959D01*
X20684552Y36416854D01*
X20734829Y36465372D01*
X20792310Y36479500D01*
X25052633Y36479500D01*
X27898054Y36479500D01*
X27965093Y36459815D01*
G37*
%TD.AperFunction*%
%TA.AperFunction,Conductor*%
G36*
X35718619Y26214994D02*
G01*
X35803399Y26164855D01*
X35845530Y26152615D01*
X35963164Y26118439D01*
X35963167Y26118439D01*
X35963169Y26118438D01*
X35972501Y26117704D01*
X36000495Y26115500D01*
X36000498Y26115500D01*
X37783505Y26115500D01*
X37805899Y26117263D01*
X37820831Y26118438D01*
X37820833Y26118439D01*
X37820835Y26118439D01*
X37875900Y26134437D01*
X37980601Y26164855D01*
X37980603Y26164857D01*
X37983961Y26165832D01*
X38053830Y26165633D01*
X38106237Y26134437D01*
X38491181Y25749494D01*
X38524666Y25688171D01*
X38527500Y25661813D01*
X38527500Y25229463D01*
X38527501Y25229447D01*
X38538113Y25125573D01*
X38571351Y25025265D01*
X38593885Y24957262D01*
X38686970Y24806348D01*
X38812348Y24680970D01*
X38963262Y24587885D01*
X39131574Y24532113D01*
X39235455Y24521500D01*
X41191811Y24521501D01*
X41258850Y24501816D01*
X41279492Y24485182D01*
X42186181Y23578494D01*
X42219666Y23517171D01*
X42222500Y23490813D01*
X42222500Y19075064D01*
X42221191Y19057095D01*
X42217818Y19034070D01*
X42222264Y18983268D01*
X42222500Y18977861D01*
X42222500Y18969880D01*
X42226219Y18938057D01*
X42232762Y18863262D01*
X42234223Y18856187D01*
X42234141Y18856171D01*
X42235665Y18849296D01*
X42235746Y18849315D01*
X42237411Y18842292D01*
X42263087Y18771748D01*
X42286700Y18700490D01*
X42289752Y18693945D01*
X42289675Y18693910D01*
X42292745Y18687569D01*
X42292821Y18687607D01*
X42296057Y18681163D01*
X42296058Y18681162D01*
X42296059Y18681159D01*
X42324993Y18637167D01*
X42337297Y18618459D01*
X42376711Y18554558D01*
X42381192Y18548891D01*
X42381125Y18548839D01*
X42385574Y18543378D01*
X42385640Y18543433D01*
X42390278Y18537905D01*
X42390282Y18537900D01*
X42414901Y18514673D01*
X42444852Y18486415D01*
X42632454Y18298814D01*
X42665939Y18237491D01*
X42660955Y18167800D01*
X42619084Y18111866D01*
X42609870Y18105595D01*
X42547351Y18067033D01*
X42547347Y18067030D01*
X42421969Y17941652D01*
X42353456Y17830575D01*
X42301508Y17783851D01*
X42232545Y17772630D01*
X42168463Y17800473D01*
X42143683Y17832688D01*
X42141906Y17831591D01*
X42138115Y17837737D01*
X42138115Y17837738D01*
X42045030Y17988652D01*
X41919652Y18114030D01*
X41768738Y18207115D01*
X41743675Y18215420D01*
X41600427Y18262887D01*
X41496546Y18273500D01*
X40545462Y18273500D01*
X40545446Y18273499D01*
X40441572Y18262887D01*
X40273264Y18207116D01*
X40273259Y18207114D01*
X40122346Y18114029D01*
X40091503Y18083185D01*
X40030180Y18049700D01*
X39960488Y18054684D01*
X39916142Y18083184D01*
X39750816Y18248509D01*
X39717333Y18309832D01*
X39714499Y18336190D01*
X39714499Y18781538D01*
X39714498Y18781554D01*
X39713931Y18787105D01*
X39703887Y18885426D01*
X39648115Y19053738D01*
X39555030Y19204652D01*
X39429652Y19330030D01*
X39278738Y19423115D01*
X39174052Y19457804D01*
X39110427Y19478887D01*
X39006546Y19489500D01*
X37955462Y19489500D01*
X37955446Y19489499D01*
X37851572Y19478887D01*
X37683264Y19423116D01*
X37683259Y19423114D01*
X37532349Y19330031D01*
X37435636Y19233318D01*
X37374313Y19199834D01*
X37347955Y19197000D01*
X37269413Y19197000D01*
X37202374Y19216685D01*
X37156619Y19269489D01*
X37150337Y19286405D01*
X37142146Y19314597D01*
X37142145Y19314600D01*
X37142145Y19314601D01*
X37087598Y19406835D01*
X37057455Y19457804D01*
X37057448Y19457813D01*
X36939812Y19575449D01*
X36939803Y19575456D01*
X36796601Y19660145D01*
X36796596Y19660147D01*
X36636835Y19706562D01*
X36636829Y19706563D01*
X36599505Y19709500D01*
X36599502Y19709500D01*
X36290500Y19709500D01*
X36223461Y19729185D01*
X36177706Y19781989D01*
X36166500Y19833500D01*
X36166500Y20582116D01*
X36167809Y20600085D01*
X36171181Y20623110D01*
X36166736Y20673914D01*
X36166500Y20679320D01*
X36166500Y20687300D01*
X36166499Y20687311D01*
X36162780Y20719125D01*
X36156237Y20793919D01*
X36156237Y20793922D01*
X36156235Y20793927D01*
X36154777Y20800992D01*
X36154860Y20801010D01*
X36153335Y20807887D01*
X36153252Y20807867D01*
X36151587Y20814888D01*
X36151587Y20814894D01*
X36146806Y20828030D01*
X36125918Y20885421D01*
X36106103Y20945214D01*
X36102302Y20956686D01*
X36102295Y20956696D01*
X36099248Y20963234D01*
X36099326Y20963271D01*
X36096259Y20969606D01*
X36096182Y20969567D01*
X36092943Y20976014D01*
X36092941Y20976021D01*
X36051699Y21038726D01*
X36012286Y21102625D01*
X36012285Y21102626D01*
X36012284Y21102628D01*
X36007808Y21108288D01*
X36007875Y21108341D01*
X36003428Y21113800D01*
X36003363Y21113745D01*
X35998723Y21119274D01*
X35998720Y21119277D01*
X35998718Y21119280D01*
X35944131Y21170781D01*
X35756474Y21358438D01*
X35567819Y21547094D01*
X35534334Y21608417D01*
X35531500Y21634775D01*
X35531500Y26108261D01*
X35551185Y26175300D01*
X35603989Y26221055D01*
X35673147Y26230999D01*
X35718619Y26214994D01*
G37*
%TD.AperFunction*%
%TA.AperFunction,Conductor*%
G36*
X33889459Y24920396D02*
G01*
X33947710Y24917003D01*
X34013490Y24893455D01*
X34056098Y24838080D01*
X34064500Y24793213D01*
X34064500Y21342056D01*
X34063191Y21324087D01*
X34059818Y21301062D01*
X34064264Y21250260D01*
X34064500Y21244853D01*
X34064500Y21236868D01*
X34067475Y21211414D01*
X34068219Y21205049D01*
X34074762Y21130254D01*
X34076223Y21123179D01*
X34076141Y21123163D01*
X34077665Y21116288D01*
X34077746Y21116307D01*
X34079411Y21109284D01*
X34079412Y21109279D01*
X34079413Y21109278D01*
X34095009Y21066428D01*
X34105087Y21038740D01*
X34128700Y20967482D01*
X34131752Y20960937D01*
X34131675Y20960902D01*
X34134745Y20954561D01*
X34134821Y20954599D01*
X34138057Y20948155D01*
X34138058Y20948154D01*
X34138059Y20948151D01*
X34172377Y20895973D01*
X34179297Y20885451D01*
X34218711Y20821550D01*
X34223192Y20815883D01*
X34223125Y20815831D01*
X34227574Y20810370D01*
X34227640Y20810425D01*
X34232278Y20804897D01*
X34232282Y20804892D01*
X34243910Y20793922D01*
X34286854Y20753405D01*
X34663181Y20377080D01*
X34696666Y20315757D01*
X34699500Y20289399D01*
X34699500Y19833500D01*
X34679815Y19766461D01*
X34627011Y19720706D01*
X34575500Y19709500D01*
X34266495Y19709500D01*
X34229170Y19706563D01*
X34229164Y19706562D01*
X34069403Y19660147D01*
X34069398Y19660145D01*
X33926196Y19575456D01*
X33926187Y19575449D01*
X33808551Y19457813D01*
X33808544Y19457804D01*
X33723855Y19314602D01*
X33723854Y19314600D01*
X33717038Y19291138D01*
X33679430Y19232253D01*
X33615957Y19203048D01*
X33605164Y19202418D01*
X33605174Y19202311D01*
X33570739Y19199298D01*
X33547167Y19197236D01*
X33541767Y19197000D01*
X33533782Y19197000D01*
X33517872Y19195141D01*
X33501962Y19193281D01*
X33427167Y19186738D01*
X33420099Y19185278D01*
X33420082Y19185360D01*
X33413201Y19183835D01*
X33413221Y19183754D01*
X33406197Y19182089D01*
X33335653Y19156413D01*
X33264399Y19132802D01*
X33257851Y19129748D01*
X33257815Y19129824D01*
X33251483Y19126759D01*
X33251521Y19126683D01*
X33245066Y19123442D01*
X33182363Y19082203D01*
X33118466Y19042791D01*
X33112798Y19038309D01*
X33112746Y19038375D01*
X33107284Y19033926D01*
X33107339Y19033861D01*
X33101808Y19029221D01*
X33050321Y18974648D01*
X32889491Y18813818D01*
X32828168Y18780334D01*
X32801810Y18777500D01*
X31884462Y18777500D01*
X31884446Y18777499D01*
X31780572Y18766887D01*
X31612264Y18711116D01*
X31612259Y18711114D01*
X31531738Y18661447D01*
X31461348Y18618030D01*
X31461346Y18618029D01*
X31455201Y18614238D01*
X31454542Y18615306D01*
X31396601Y18591938D01*
X31327960Y18604986D01*
X31277270Y18653072D01*
X31260499Y18715343D01*
X31260499Y20962544D01*
X31249887Y21066426D01*
X31194115Y21234738D01*
X31101030Y21385652D01*
X30975652Y21511030D01*
X30975651Y21511031D01*
X30975650Y21511032D01*
X30969400Y21514887D01*
X30922677Y21566836D01*
X30910500Y21620424D01*
X30910500Y21807038D01*
X30911809Y21825008D01*
X30915180Y21848025D01*
X30910736Y21898817D01*
X30910500Y21904223D01*
X30910500Y21912211D01*
X30910500Y21912218D01*
X30906777Y21944071D01*
X30906777Y21944072D01*
X30900236Y22018838D01*
X30898776Y22025909D01*
X30898860Y22025927D01*
X30897335Y22032805D01*
X30897251Y22032784D01*
X30895587Y22039802D01*
X30895587Y22039808D01*
X30869908Y22110360D01*
X30846301Y22181601D01*
X30843250Y22188143D01*
X30843328Y22188180D01*
X30840261Y22194515D01*
X30840185Y22194476D01*
X30836939Y22200938D01*
X30819899Y22226847D01*
X30799506Y22293674D01*
X30799499Y22294986D01*
X30799499Y22768538D01*
X30799498Y22768554D01*
X30793666Y22825642D01*
X30788887Y22872426D01*
X30733115Y23040738D01*
X30640030Y23191652D01*
X30551363Y23280319D01*
X30517878Y23341642D01*
X30522862Y23411334D01*
X30551363Y23455681D01*
X30582863Y23487181D01*
X30644186Y23520666D01*
X30670544Y23523500D01*
X31433531Y23523500D01*
X31451500Y23522191D01*
X31456571Y23521449D01*
X31474522Y23518819D01*
X31525332Y23523265D01*
X31530733Y23523500D01*
X31538715Y23523500D01*
X31538718Y23523500D01*
X31564807Y23526551D01*
X31570537Y23527220D01*
X31583002Y23528311D01*
X31645336Y23533763D01*
X31645344Y23533766D01*
X31652411Y23535224D01*
X31652428Y23535140D01*
X31659305Y23536665D01*
X31659285Y23536749D01*
X31666301Y23538413D01*
X31666308Y23538413D01*
X31682613Y23544348D01*
X31736845Y23564087D01*
X31765498Y23573583D01*
X31808101Y23587699D01*
X31808110Y23587705D01*
X31814650Y23590754D01*
X31814687Y23590674D01*
X31821019Y23593739D01*
X31820980Y23593817D01*
X31827432Y23597057D01*
X31890135Y23638298D01*
X31909762Y23650404D01*
X31954040Y23677714D01*
X31954044Y23677719D01*
X31959703Y23682192D01*
X31959756Y23682125D01*
X31965211Y23686569D01*
X31965156Y23686635D01*
X31970692Y23691281D01*
X31970691Y23691281D01*
X31970694Y23691282D01*
X32022178Y23745853D01*
X32416495Y24140171D01*
X32430121Y24151947D01*
X32448785Y24165840D01*
X32481580Y24204926D01*
X32485195Y24208871D01*
X32490869Y24214543D01*
X32510753Y24239691D01*
X32559002Y24297191D01*
X32559005Y24297198D01*
X32562973Y24303229D01*
X32563047Y24303181D01*
X32566824Y24309110D01*
X32566749Y24309156D01*
X32570543Y24315307D01*
X32570542Y24315307D01*
X32570544Y24315308D01*
X32602273Y24383354D01*
X32635956Y24450421D01*
X32635958Y24450434D01*
X32638425Y24457207D01*
X32638508Y24457177D01*
X32640819Y24463826D01*
X32640737Y24463853D01*
X32643009Y24470712D01*
X32644432Y24477601D01*
X32658185Y24544212D01*
X32675500Y24617266D01*
X32675500Y24617268D01*
X32676339Y24624439D01*
X32676422Y24624430D01*
X32677138Y24631434D01*
X32677053Y24631441D01*
X32677682Y24638632D01*
X32676965Y24663261D01*
X32675500Y24713628D01*
X32675500Y24721500D01*
X32695185Y24788539D01*
X32747989Y24834294D01*
X32799500Y24845500D01*
X32833505Y24845500D01*
X32855899Y24847263D01*
X32870831Y24848438D01*
X32870833Y24848439D01*
X32870835Y24848439D01*
X32912962Y24860679D01*
X33030601Y24894855D01*
X33044767Y24903233D01*
X33107886Y24920500D01*
X33885857Y24920500D01*
X33889459Y24920396D01*
G37*
%TD.AperFunction*%
%TD*%
M02*
