M48
; DRILL file {KiCad 7.0.7-7.0.7~ubuntu23.04.1} date Sun Sep 24 10:41:31 2023
; FORMAT={3:3/ absolute / metric / suppress leading zeros}
; #@! TF.CreationDate,2023-09-24T10:41:31+00:00
; #@! TF.GenerationSoftware,Kicad,Pcbnew,7.0.7-7.0.7~ubuntu23.04.1
; #@! TF.FileFunction,Plated,1,2,PTH
FMAT,2
METRIC,TZ
; #@! TA.AperFunction,Plated,PTH,ComponentDrill
T1C0.762
; #@! TA.AperFunction,Plated,PTH,ComponentDrill
T2C0.889
; #@! TA.AperFunction,Plated,PTH,ComponentDrill
T3C1.500
; #@! TA.AperFunction,Plated,PTH,ComponentDrill
T4C1.700
; #@! TA.AperFunction,Plated,PTH,ComponentDrill
T5C3.000
%
G90
G05
T1
X57758Y40660
X57758Y35660
T2
X76603Y28665
X76603Y26125
X76603Y23585
X76603Y21045
X76603Y18505
X79143Y28665
X79143Y26125
X79143Y23585
X79143Y21045
X79143Y18505
X82833Y13315
X85373Y13315
T3
X19140Y33880
T4
X16600Y36420
X16600Y31340
X21680Y36420
X21680Y31340
T5
X10160Y40640
X10160Y10160
X40640Y40640
X40640Y10160
T0
M30
