%TF.GenerationSoftware,KiCad,Pcbnew,7.0.7-7.0.7~ubuntu23.04.1*%
%TF.CreationDate,2023-09-24T10:41:31+00:00*%
%TF.ProjectId,PIND02,50494e44-3032-42e6-9b69-6361645f7063,rev?*%
%TF.SameCoordinates,Original*%
%TF.FileFunction,Legend,Bot*%
%TF.FilePolarity,Positive*%
%FSLAX46Y46*%
G04 Gerber Fmt 4.6, Leading zero omitted, Abs format (unit mm)*
G04 Created by KiCad (PCBNEW 7.0.7-7.0.7~ubuntu23.04.1) date 2023-09-24 10:41:31*
%MOMM*%
%LPD*%
G01*
G04 APERTURE LIST*
%ADD10C,0.150000*%
%ADD11C,0.120000*%
G04 APERTURE END LIST*
D10*
X-1013334Y30120420D02*
X-965715Y30072800D01*
X-965715Y30072800D02*
X-822858Y30025181D01*
X-822858Y30025181D02*
X-727620Y30025181D01*
X-727620Y30025181D02*
X-584763Y30072800D01*
X-584763Y30072800D02*
X-489525Y30168039D01*
X-489525Y30168039D02*
X-441906Y30263277D01*
X-441906Y30263277D02*
X-394287Y30453753D01*
X-394287Y30453753D02*
X-394287Y30596610D01*
X-394287Y30596610D02*
X-441906Y30787086D01*
X-441906Y30787086D02*
X-489525Y30882324D01*
X-489525Y30882324D02*
X-584763Y30977562D01*
X-584763Y30977562D02*
X-727620Y31025181D01*
X-727620Y31025181D02*
X-822858Y31025181D01*
X-822858Y31025181D02*
X-965715Y30977562D01*
X-965715Y30977562D02*
X-1013334Y30929943D01*
X-1965715Y30025181D02*
X-1394287Y30025181D01*
X-1680001Y30025181D02*
X-1680001Y31025181D01*
X-1680001Y31025181D02*
X-1584763Y30882324D01*
X-1584763Y30882324D02*
X-1489525Y30787086D01*
X-1489525Y30787086D02*
X-1394287Y30739467D01*
X9718094Y37053041D02*
X9718094Y38053041D01*
X9718094Y38053041D02*
X9479999Y38053041D01*
X9479999Y38053041D02*
X9337142Y38005422D01*
X9337142Y38005422D02*
X9241904Y37910184D01*
X9241904Y37910184D02*
X9194285Y37814946D01*
X9194285Y37814946D02*
X9146666Y37624470D01*
X9146666Y37624470D02*
X9146666Y37481613D01*
X9146666Y37481613D02*
X9194285Y37291137D01*
X9194285Y37291137D02*
X9241904Y37195899D01*
X9241904Y37195899D02*
X9337142Y37100660D01*
X9337142Y37100660D02*
X9479999Y37053041D01*
X9479999Y37053041D02*
X9718094Y37053041D01*
X8194285Y37053041D02*
X8765713Y37053041D01*
X8479999Y37053041D02*
X8479999Y38053041D01*
X8479999Y38053041D02*
X8575237Y37910184D01*
X8575237Y37910184D02*
X8670475Y37814946D01*
X8670475Y37814946D02*
X8765713Y37767327D01*
X-1013334Y45810420D02*
X-965715Y45762800D01*
X-965715Y45762800D02*
X-822858Y45715181D01*
X-822858Y45715181D02*
X-727620Y45715181D01*
X-727620Y45715181D02*
X-584763Y45762800D01*
X-584763Y45762800D02*
X-489525Y45858039D01*
X-489525Y45858039D02*
X-441906Y45953277D01*
X-441906Y45953277D02*
X-394287Y46143753D01*
X-394287Y46143753D02*
X-394287Y46286610D01*
X-394287Y46286610D02*
X-441906Y46477086D01*
X-441906Y46477086D02*
X-489525Y46572324D01*
X-489525Y46572324D02*
X-584763Y46667562D01*
X-584763Y46667562D02*
X-727620Y46715181D01*
X-727620Y46715181D02*
X-822858Y46715181D01*
X-822858Y46715181D02*
X-965715Y46667562D01*
X-965715Y46667562D02*
X-1013334Y46619943D01*
X-1394287Y46619943D02*
X-1441906Y46667562D01*
X-1441906Y46667562D02*
X-1537144Y46715181D01*
X-1537144Y46715181D02*
X-1775239Y46715181D01*
X-1775239Y46715181D02*
X-1870477Y46667562D01*
X-1870477Y46667562D02*
X-1918096Y46619943D01*
X-1918096Y46619943D02*
X-1965715Y46524705D01*
X-1965715Y46524705D02*
X-1965715Y46429467D01*
X-1965715Y46429467D02*
X-1918096Y46286610D01*
X-1918096Y46286610D02*
X-1346668Y45715181D01*
X-1346668Y45715181D02*
X-1965715Y45715181D01*
D11*
%TO.C,C1*%
X-918748Y28065000D02*
X-1441252Y28065000D01*
X-918748Y29535000D02*
X-1441252Y29535000D01*
%TO.C,D1*%
X12380000Y33357860D02*
X6980000Y33357860D01*
X12380000Y36657860D02*
X12380000Y33357860D01*
X12380000Y36657860D02*
X6980000Y36657860D01*
%TO.C,C2*%
X-918748Y43755000D02*
X-1441252Y43755000D01*
X-918748Y45225000D02*
X-1441252Y45225000D01*
%TD*%
M02*
