%TF.GenerationSoftware,KiCad,Pcbnew,7.0.7-7.0.7~ubuntu23.04.1*%
%TF.CreationDate,2023-09-26T22:47:31+00:00*%
%TF.ProjectId,PIND02,50494e44-3032-42e6-9b69-6361645f7063,rev?*%
%TF.SameCoordinates,Original*%
%TF.FileFunction,Legend,Top*%
%TF.FilePolarity,Positive*%
%FSLAX46Y46*%
G04 Gerber Fmt 4.6, Leading zero omitted, Abs format (unit mm)*
G04 Created by KiCad (PCBNEW 7.0.7-7.0.7~ubuntu23.04.1) date 2023-09-26 22:47:31*
%MOMM*%
%LPD*%
G01*
G04 APERTURE LIST*
%ADD10C,0.127000*%
%ADD11C,0.150000*%
%ADD12C,0.120000*%
%ADD13C,0.100000*%
%ADD14R,1.524000X1.524000*%
G04 APERTURE END LIST*
D10*
X12339028Y31291604D02*
X12481885Y31243985D01*
X12481885Y31243985D02*
X12719980Y31243985D01*
X12719980Y31243985D02*
X12815218Y31291604D01*
X12815218Y31291604D02*
X12862837Y31339224D01*
X12862837Y31339224D02*
X12910456Y31434462D01*
X12910456Y31434462D02*
X12910456Y31529700D01*
X12910456Y31529700D02*
X12862837Y31624938D01*
X12862837Y31624938D02*
X12815218Y31672557D01*
X12815218Y31672557D02*
X12719980Y31720176D01*
X12719980Y31720176D02*
X12529504Y31767795D01*
X12529504Y31767795D02*
X12434266Y31815414D01*
X12434266Y31815414D02*
X12386647Y31863033D01*
X12386647Y31863033D02*
X12339028Y31958271D01*
X12339028Y31958271D02*
X12339028Y32053509D01*
X12339028Y32053509D02*
X12386647Y32148747D01*
X12386647Y32148747D02*
X12434266Y32196366D01*
X12434266Y32196366D02*
X12529504Y32243985D01*
X12529504Y32243985D02*
X12767599Y32243985D01*
X12767599Y32243985D02*
X12910456Y32196366D01*
X13339028Y31243985D02*
X13339028Y32243985D01*
X13339028Y32243985D02*
X13577123Y32243985D01*
X13577123Y32243985D02*
X13719980Y32196366D01*
X13719980Y32196366D02*
X13815218Y32101128D01*
X13815218Y32101128D02*
X13862837Y32005890D01*
X13862837Y32005890D02*
X13910456Y31815414D01*
X13910456Y31815414D02*
X13910456Y31672557D01*
X13910456Y31672557D02*
X13862837Y31482081D01*
X13862837Y31482081D02*
X13815218Y31386843D01*
X13815218Y31386843D02*
X13719980Y31291604D01*
X13719980Y31291604D02*
X13577123Y31243985D01*
X13577123Y31243985D02*
X13339028Y31243985D01*
X14291409Y31529700D02*
X14767599Y31529700D01*
X14196171Y31243985D02*
X14529504Y32243985D01*
X14529504Y32243985D02*
X14862837Y31243985D01*
X12243790Y29703985D02*
X12577123Y28703985D01*
X12577123Y28703985D02*
X12910456Y29703985D01*
X13243790Y28703985D02*
X13243790Y29703985D01*
X13243790Y29703985D02*
X13481885Y29703985D01*
X13481885Y29703985D02*
X13624742Y29656366D01*
X13624742Y29656366D02*
X13719980Y29561128D01*
X13719980Y29561128D02*
X13767599Y29465890D01*
X13767599Y29465890D02*
X13815218Y29275414D01*
X13815218Y29275414D02*
X13815218Y29132557D01*
X13815218Y29132557D02*
X13767599Y28942081D01*
X13767599Y28942081D02*
X13719980Y28846843D01*
X13719980Y28846843D02*
X13624742Y28751604D01*
X13624742Y28751604D02*
X13481885Y28703985D01*
X13481885Y28703985D02*
X13243790Y28703985D01*
X14243790Y28703985D02*
X14243790Y29703985D01*
X14243790Y29703985D02*
X14481885Y29703985D01*
X14481885Y29703985D02*
X14624742Y29656366D01*
X14624742Y29656366D02*
X14719980Y29561128D01*
X14719980Y29561128D02*
X14767599Y29465890D01*
X14767599Y29465890D02*
X14815218Y29275414D01*
X14815218Y29275414D02*
X14815218Y29132557D01*
X14815218Y29132557D02*
X14767599Y28942081D01*
X14767599Y28942081D02*
X14719980Y28846843D01*
X14719980Y28846843D02*
X14624742Y28751604D01*
X14624742Y28751604D02*
X14481885Y28703985D01*
X14481885Y28703985D02*
X14243790Y28703985D01*
X54931647Y20702985D02*
X54931647Y21702985D01*
X54931647Y21702985D02*
X55169742Y21702985D01*
X55169742Y21702985D02*
X55312599Y21655366D01*
X55312599Y21655366D02*
X55407837Y21560128D01*
X55407837Y21560128D02*
X55455456Y21464890D01*
X55455456Y21464890D02*
X55503075Y21274414D01*
X55503075Y21274414D02*
X55503075Y21131557D01*
X55503075Y21131557D02*
X55455456Y20941081D01*
X55455456Y20941081D02*
X55407837Y20845843D01*
X55407837Y20845843D02*
X55312599Y20750604D01*
X55312599Y20750604D02*
X55169742Y20702985D01*
X55169742Y20702985D02*
X54931647Y20702985D01*
X56503075Y20798224D02*
X56455456Y20750604D01*
X56455456Y20750604D02*
X56312599Y20702985D01*
X56312599Y20702985D02*
X56217361Y20702985D01*
X56217361Y20702985D02*
X56074504Y20750604D01*
X56074504Y20750604D02*
X55979266Y20845843D01*
X55979266Y20845843D02*
X55931647Y20941081D01*
X55931647Y20941081D02*
X55884028Y21131557D01*
X55884028Y21131557D02*
X55884028Y21274414D01*
X55884028Y21274414D02*
X55931647Y21464890D01*
X55931647Y21464890D02*
X55979266Y21560128D01*
X55979266Y21560128D02*
X56074504Y21655366D01*
X56074504Y21655366D02*
X56217361Y21702985D01*
X56217361Y21702985D02*
X56312599Y21702985D01*
X56312599Y21702985D02*
X56455456Y21655366D01*
X56455456Y21655366D02*
X56503075Y21607747D01*
X57693552Y21226795D02*
X58026885Y21226795D01*
X58169742Y20702985D02*
X57693552Y20702985D01*
X57693552Y20702985D02*
X57693552Y21702985D01*
X57693552Y21702985D02*
X58169742Y21702985D01*
X58598314Y20702985D02*
X58598314Y21702985D01*
X58598314Y21702985D02*
X59169742Y20702985D01*
X59169742Y20702985D02*
X59169742Y21702985D01*
X59598314Y20988700D02*
X60074504Y20988700D01*
X59503076Y20702985D02*
X59836409Y21702985D01*
X59836409Y21702985D02*
X60169742Y20702985D01*
X60836409Y21226795D02*
X60979266Y21179176D01*
X60979266Y21179176D02*
X61026885Y21131557D01*
X61026885Y21131557D02*
X61074504Y21036319D01*
X61074504Y21036319D02*
X61074504Y20893462D01*
X61074504Y20893462D02*
X61026885Y20798224D01*
X61026885Y20798224D02*
X60979266Y20750604D01*
X60979266Y20750604D02*
X60884028Y20702985D01*
X60884028Y20702985D02*
X60503076Y20702985D01*
X60503076Y20702985D02*
X60503076Y21702985D01*
X60503076Y21702985D02*
X60836409Y21702985D01*
X60836409Y21702985D02*
X60931647Y21655366D01*
X60931647Y21655366D02*
X60979266Y21607747D01*
X60979266Y21607747D02*
X61026885Y21512509D01*
X61026885Y21512509D02*
X61026885Y21417271D01*
X61026885Y21417271D02*
X60979266Y21322033D01*
X60979266Y21322033D02*
X60931647Y21274414D01*
X60931647Y21274414D02*
X60836409Y21226795D01*
X60836409Y21226795D02*
X60503076Y21226795D01*
X61979266Y20702985D02*
X61503076Y20702985D01*
X61503076Y20702985D02*
X61503076Y21702985D01*
X62312600Y21226795D02*
X62645933Y21226795D01*
X62788790Y20702985D02*
X62312600Y20702985D01*
X62312600Y20702985D02*
X62312600Y21702985D01*
X62312600Y21702985D02*
X62788790Y21702985D01*
X12783456Y24830366D02*
X12688218Y24877985D01*
X12688218Y24877985D02*
X12545361Y24877985D01*
X12545361Y24877985D02*
X12402504Y24830366D01*
X12402504Y24830366D02*
X12307266Y24735128D01*
X12307266Y24735128D02*
X12259647Y24639890D01*
X12259647Y24639890D02*
X12212028Y24449414D01*
X12212028Y24449414D02*
X12212028Y24306557D01*
X12212028Y24306557D02*
X12259647Y24116081D01*
X12259647Y24116081D02*
X12307266Y24020843D01*
X12307266Y24020843D02*
X12402504Y23925604D01*
X12402504Y23925604D02*
X12545361Y23877985D01*
X12545361Y23877985D02*
X12640599Y23877985D01*
X12640599Y23877985D02*
X12783456Y23925604D01*
X12783456Y23925604D02*
X12831075Y23973224D01*
X12831075Y23973224D02*
X12831075Y24306557D01*
X12831075Y24306557D02*
X12640599Y24306557D01*
X13259647Y23877985D02*
X13259647Y24877985D01*
X13259647Y24877985D02*
X13831075Y23877985D01*
X13831075Y23877985D02*
X13831075Y24877985D01*
X14307266Y23877985D02*
X14307266Y24877985D01*
X14307266Y24877985D02*
X14545361Y24877985D01*
X14545361Y24877985D02*
X14688218Y24830366D01*
X14688218Y24830366D02*
X14783456Y24735128D01*
X14783456Y24735128D02*
X14831075Y24639890D01*
X14831075Y24639890D02*
X14878694Y24449414D01*
X14878694Y24449414D02*
X14878694Y24306557D01*
X14878694Y24306557D02*
X14831075Y24116081D01*
X14831075Y24116081D02*
X14783456Y24020843D01*
X14783456Y24020843D02*
X14688218Y23925604D01*
X14688218Y23925604D02*
X14545361Y23877985D01*
X14545361Y23877985D02*
X14307266Y23877985D01*
X53585396Y26924525D02*
X53633015Y27067382D01*
X53633015Y27067382D02*
X53633015Y27305477D01*
X53633015Y27305477D02*
X53585396Y27400715D01*
X53585396Y27400715D02*
X53537776Y27448334D01*
X53537776Y27448334D02*
X53442538Y27495953D01*
X53442538Y27495953D02*
X53347300Y27495953D01*
X53347300Y27495953D02*
X53252062Y27448334D01*
X53252062Y27448334D02*
X53204443Y27400715D01*
X53204443Y27400715D02*
X53156824Y27305477D01*
X53156824Y27305477D02*
X53109205Y27115001D01*
X53109205Y27115001D02*
X53061586Y27019763D01*
X53061586Y27019763D02*
X53013967Y26972144D01*
X53013967Y26972144D02*
X52918729Y26924525D01*
X52918729Y26924525D02*
X52823491Y26924525D01*
X52823491Y26924525D02*
X52728253Y26972144D01*
X52728253Y26972144D02*
X52680634Y27019763D01*
X52680634Y27019763D02*
X52633015Y27115001D01*
X52633015Y27115001D02*
X52633015Y27353096D01*
X52633015Y27353096D02*
X52680634Y27495953D01*
X53633015Y27924525D02*
X52633015Y27924525D01*
X52680634Y28924524D02*
X52633015Y28829286D01*
X52633015Y28829286D02*
X52633015Y28686429D01*
X52633015Y28686429D02*
X52680634Y28543572D01*
X52680634Y28543572D02*
X52775872Y28448334D01*
X52775872Y28448334D02*
X52871110Y28400715D01*
X52871110Y28400715D02*
X53061586Y28353096D01*
X53061586Y28353096D02*
X53204443Y28353096D01*
X53204443Y28353096D02*
X53394919Y28400715D01*
X53394919Y28400715D02*
X53490157Y28448334D01*
X53490157Y28448334D02*
X53585396Y28543572D01*
X53585396Y28543572D02*
X53633015Y28686429D01*
X53633015Y28686429D02*
X53633015Y28781667D01*
X53633015Y28781667D02*
X53585396Y28924524D01*
X53585396Y28924524D02*
X53537776Y28972143D01*
X53537776Y28972143D02*
X53204443Y28972143D01*
X53204443Y28972143D02*
X53204443Y28781667D01*
X53633015Y29400715D02*
X52633015Y29400715D01*
X52633015Y29400715D02*
X53633015Y29972143D01*
X53633015Y29972143D02*
X52633015Y29972143D01*
X53347300Y30400715D02*
X53347300Y30876905D01*
X53633015Y30305477D02*
X52633015Y30638810D01*
X52633015Y30638810D02*
X53633015Y30972143D01*
X53633015Y31781667D02*
X53633015Y31305477D01*
X53633015Y31305477D02*
X52633015Y31305477D01*
X52633015Y33067382D02*
X52633015Y33257858D01*
X52633015Y33257858D02*
X52680634Y33353096D01*
X52680634Y33353096D02*
X52775872Y33448334D01*
X52775872Y33448334D02*
X52966348Y33495953D01*
X52966348Y33495953D02*
X53299681Y33495953D01*
X53299681Y33495953D02*
X53490157Y33448334D01*
X53490157Y33448334D02*
X53585396Y33353096D01*
X53585396Y33353096D02*
X53633015Y33257858D01*
X53633015Y33257858D02*
X53633015Y33067382D01*
X53633015Y33067382D02*
X53585396Y32972144D01*
X53585396Y32972144D02*
X53490157Y32876906D01*
X53490157Y32876906D02*
X53299681Y32829287D01*
X53299681Y32829287D02*
X52966348Y32829287D01*
X52966348Y32829287D02*
X52775872Y32876906D01*
X52775872Y32876906D02*
X52680634Y32972144D01*
X52680634Y32972144D02*
X52633015Y33067382D01*
X52633015Y33924525D02*
X53442538Y33924525D01*
X53442538Y33924525D02*
X53537776Y33972144D01*
X53537776Y33972144D02*
X53585396Y34019763D01*
X53585396Y34019763D02*
X53633015Y34115001D01*
X53633015Y34115001D02*
X53633015Y34305477D01*
X53633015Y34305477D02*
X53585396Y34400715D01*
X53585396Y34400715D02*
X53537776Y34448334D01*
X53537776Y34448334D02*
X53442538Y34495953D01*
X53442538Y34495953D02*
X52633015Y34495953D01*
X52633015Y34829287D02*
X52633015Y35400715D01*
X53633015Y35115001D02*
X52633015Y35115001D01*
X55243015Y29210239D02*
X54243015Y29210239D01*
X54243015Y29210239D02*
X54243015Y29448334D01*
X54243015Y29448334D02*
X54290634Y29591191D01*
X54290634Y29591191D02*
X54385872Y29686429D01*
X54385872Y29686429D02*
X54481110Y29734048D01*
X54481110Y29734048D02*
X54671586Y29781667D01*
X54671586Y29781667D02*
X54814443Y29781667D01*
X54814443Y29781667D02*
X55004919Y29734048D01*
X55004919Y29734048D02*
X55100157Y29686429D01*
X55100157Y29686429D02*
X55195396Y29591191D01*
X55195396Y29591191D02*
X55243015Y29448334D01*
X55243015Y29448334D02*
X55243015Y29210239D01*
X55147776Y30781667D02*
X55195396Y30734048D01*
X55195396Y30734048D02*
X55243015Y30591191D01*
X55243015Y30591191D02*
X55243015Y30495953D01*
X55243015Y30495953D02*
X55195396Y30353096D01*
X55195396Y30353096D02*
X55100157Y30257858D01*
X55100157Y30257858D02*
X55004919Y30210239D01*
X55004919Y30210239D02*
X54814443Y30162620D01*
X54814443Y30162620D02*
X54671586Y30162620D01*
X54671586Y30162620D02*
X54481110Y30210239D01*
X54481110Y30210239D02*
X54385872Y30257858D01*
X54385872Y30257858D02*
X54290634Y30353096D01*
X54290634Y30353096D02*
X54243015Y30495953D01*
X54243015Y30495953D02*
X54243015Y30591191D01*
X54243015Y30591191D02*
X54290634Y30734048D01*
X54290634Y30734048D02*
X54338253Y30781667D01*
X55243015Y31972144D02*
X54243015Y31972144D01*
X55243015Y32448334D02*
X54243015Y32448334D01*
X54243015Y32448334D02*
X55243015Y33019762D01*
X55243015Y33019762D02*
X54243015Y33019762D01*
X14926647Y6478985D02*
X14926647Y7478985D01*
X15498075Y6478985D02*
X15069504Y7050414D01*
X15498075Y7478985D02*
X14926647Y6907557D01*
X16355218Y6478985D02*
X16355218Y7002795D01*
X16355218Y7002795D02*
X16307599Y7098033D01*
X16307599Y7098033D02*
X16212361Y7145652D01*
X16212361Y7145652D02*
X16021885Y7145652D01*
X16021885Y7145652D02*
X15926647Y7098033D01*
X16355218Y6526604D02*
X16259980Y6478985D01*
X16259980Y6478985D02*
X16021885Y6478985D01*
X16021885Y6478985D02*
X15926647Y6526604D01*
X15926647Y6526604D02*
X15879028Y6621843D01*
X15879028Y6621843D02*
X15879028Y6717081D01*
X15879028Y6717081D02*
X15926647Y6812319D01*
X15926647Y6812319D02*
X16021885Y6859938D01*
X16021885Y6859938D02*
X16259980Y6859938D01*
X16259980Y6859938D02*
X16355218Y6907557D01*
X16831409Y6478985D02*
X16831409Y7478985D01*
X16926647Y6859938D02*
X17212361Y6478985D01*
X17212361Y7145652D02*
X16831409Y6764700D01*
X17783790Y6478985D02*
X17688552Y6526604D01*
X17688552Y6526604D02*
X17640933Y6621843D01*
X17640933Y6621843D02*
X17640933Y7478985D01*
X18164743Y6478985D02*
X18164743Y7145652D01*
X18164743Y7478985D02*
X18117124Y7431366D01*
X18117124Y7431366D02*
X18164743Y7383747D01*
X18164743Y7383747D02*
X18212362Y7431366D01*
X18212362Y7431366D02*
X18164743Y7478985D01*
X18164743Y7478985D02*
X18164743Y7383747D01*
X18640933Y6478985D02*
X18640933Y7478985D01*
X18736171Y6859938D02*
X19021885Y6478985D01*
X19021885Y7145652D02*
X18640933Y6764700D01*
X20164743Y7383747D02*
X20212362Y7431366D01*
X20212362Y7431366D02*
X20307600Y7478985D01*
X20307600Y7478985D02*
X20545695Y7478985D01*
X20545695Y7478985D02*
X20640933Y7431366D01*
X20640933Y7431366D02*
X20688552Y7383747D01*
X20688552Y7383747D02*
X20736171Y7288509D01*
X20736171Y7288509D02*
X20736171Y7193271D01*
X20736171Y7193271D02*
X20688552Y7050414D01*
X20688552Y7050414D02*
X20117124Y6478985D01*
X20117124Y6478985D02*
X20736171Y6478985D01*
X21355219Y7478985D02*
X21450457Y7478985D01*
X21450457Y7478985D02*
X21545695Y7431366D01*
X21545695Y7431366D02*
X21593314Y7383747D01*
X21593314Y7383747D02*
X21640933Y7288509D01*
X21640933Y7288509D02*
X21688552Y7098033D01*
X21688552Y7098033D02*
X21688552Y6859938D01*
X21688552Y6859938D02*
X21640933Y6669462D01*
X21640933Y6669462D02*
X21593314Y6574224D01*
X21593314Y6574224D02*
X21545695Y6526604D01*
X21545695Y6526604D02*
X21450457Y6478985D01*
X21450457Y6478985D02*
X21355219Y6478985D01*
X21355219Y6478985D02*
X21259981Y6526604D01*
X21259981Y6526604D02*
X21212362Y6574224D01*
X21212362Y6574224D02*
X21164743Y6669462D01*
X21164743Y6669462D02*
X21117124Y6859938D01*
X21117124Y6859938D02*
X21117124Y7098033D01*
X21117124Y7098033D02*
X21164743Y7288509D01*
X21164743Y7288509D02*
X21212362Y7383747D01*
X21212362Y7383747D02*
X21259981Y7431366D01*
X21259981Y7431366D02*
X21355219Y7478985D01*
X22069505Y7383747D02*
X22117124Y7431366D01*
X22117124Y7431366D02*
X22212362Y7478985D01*
X22212362Y7478985D02*
X22450457Y7478985D01*
X22450457Y7478985D02*
X22545695Y7431366D01*
X22545695Y7431366D02*
X22593314Y7383747D01*
X22593314Y7383747D02*
X22640933Y7288509D01*
X22640933Y7288509D02*
X22640933Y7193271D01*
X22640933Y7193271D02*
X22593314Y7050414D01*
X22593314Y7050414D02*
X22021886Y6478985D01*
X22021886Y6478985D02*
X22640933Y6478985D01*
X22974267Y7478985D02*
X23593314Y7478985D01*
X23593314Y7478985D02*
X23259981Y7098033D01*
X23259981Y7098033D02*
X23402838Y7098033D01*
X23402838Y7098033D02*
X23498076Y7050414D01*
X23498076Y7050414D02*
X23545695Y7002795D01*
X23545695Y7002795D02*
X23593314Y6907557D01*
X23593314Y6907557D02*
X23593314Y6669462D01*
X23593314Y6669462D02*
X23545695Y6574224D01*
X23545695Y6574224D02*
X23498076Y6526604D01*
X23498076Y6526604D02*
X23402838Y6478985D01*
X23402838Y6478985D02*
X23117124Y6478985D01*
X23117124Y6478985D02*
X23021886Y6526604D01*
X23021886Y6526604D02*
X22974267Y6574224D01*
X47430694Y6413176D02*
X47430694Y7913176D01*
X47430694Y7913176D02*
X48002123Y7913176D01*
X48002123Y7913176D02*
X48144980Y7841747D01*
X48144980Y7841747D02*
X48216409Y7770319D01*
X48216409Y7770319D02*
X48287837Y7627462D01*
X48287837Y7627462D02*
X48287837Y7413176D01*
X48287837Y7413176D02*
X48216409Y7270319D01*
X48216409Y7270319D02*
X48144980Y7198890D01*
X48144980Y7198890D02*
X48002123Y7127462D01*
X48002123Y7127462D02*
X47430694Y7127462D01*
X48930694Y6413176D02*
X48930694Y7913176D01*
X49644980Y6413176D02*
X49644980Y7913176D01*
X49644980Y7913176D02*
X50502123Y6413176D01*
X50502123Y6413176D02*
X50502123Y7913176D01*
X51216409Y6413176D02*
X51216409Y7913176D01*
X51216409Y7913176D02*
X51573552Y7913176D01*
X51573552Y7913176D02*
X51787838Y7841747D01*
X51787838Y7841747D02*
X51930695Y7698890D01*
X51930695Y7698890D02*
X52002124Y7556033D01*
X52002124Y7556033D02*
X52073552Y7270319D01*
X52073552Y7270319D02*
X52073552Y7056033D01*
X52073552Y7056033D02*
X52002124Y6770319D01*
X52002124Y6770319D02*
X51930695Y6627462D01*
X51930695Y6627462D02*
X51787838Y6484604D01*
X51787838Y6484604D02*
X51573552Y6413176D01*
X51573552Y6413176D02*
X51216409Y6413176D01*
X53002124Y7913176D02*
X53144981Y7913176D01*
X53144981Y7913176D02*
X53287838Y7841747D01*
X53287838Y7841747D02*
X53359267Y7770319D01*
X53359267Y7770319D02*
X53430695Y7627462D01*
X53430695Y7627462D02*
X53502124Y7341747D01*
X53502124Y7341747D02*
X53502124Y6984604D01*
X53502124Y6984604D02*
X53430695Y6698890D01*
X53430695Y6698890D02*
X53359267Y6556033D01*
X53359267Y6556033D02*
X53287838Y6484604D01*
X53287838Y6484604D02*
X53144981Y6413176D01*
X53144981Y6413176D02*
X53002124Y6413176D01*
X53002124Y6413176D02*
X52859267Y6484604D01*
X52859267Y6484604D02*
X52787838Y6556033D01*
X52787838Y6556033D02*
X52716409Y6698890D01*
X52716409Y6698890D02*
X52644981Y6984604D01*
X52644981Y6984604D02*
X52644981Y7341747D01*
X52644981Y7341747D02*
X52716409Y7627462D01*
X52716409Y7627462D02*
X52787838Y7770319D01*
X52787838Y7770319D02*
X52859267Y7841747D01*
X52859267Y7841747D02*
X53002124Y7913176D01*
X54073552Y7770319D02*
X54144980Y7841747D01*
X54144980Y7841747D02*
X54287838Y7913176D01*
X54287838Y7913176D02*
X54644980Y7913176D01*
X54644980Y7913176D02*
X54787838Y7841747D01*
X54787838Y7841747D02*
X54859266Y7770319D01*
X54859266Y7770319D02*
X54930695Y7627462D01*
X54930695Y7627462D02*
X54930695Y7484604D01*
X54930695Y7484604D02*
X54859266Y7270319D01*
X54859266Y7270319D02*
X54002123Y6413176D01*
X54002123Y6413176D02*
X54930695Y6413176D01*
X55502123Y6841747D02*
X56216409Y6841747D01*
X55359266Y6413176D02*
X55859266Y7913176D01*
X55859266Y7913176D02*
X56359266Y6413176D01*
X12339028Y26338604D02*
X12481885Y26290985D01*
X12481885Y26290985D02*
X12719980Y26290985D01*
X12719980Y26290985D02*
X12815218Y26338604D01*
X12815218Y26338604D02*
X12862837Y26386224D01*
X12862837Y26386224D02*
X12910456Y26481462D01*
X12910456Y26481462D02*
X12910456Y26576700D01*
X12910456Y26576700D02*
X12862837Y26671938D01*
X12862837Y26671938D02*
X12815218Y26719557D01*
X12815218Y26719557D02*
X12719980Y26767176D01*
X12719980Y26767176D02*
X12529504Y26814795D01*
X12529504Y26814795D02*
X12434266Y26862414D01*
X12434266Y26862414D02*
X12386647Y26910033D01*
X12386647Y26910033D02*
X12339028Y27005271D01*
X12339028Y27005271D02*
X12339028Y27100509D01*
X12339028Y27100509D02*
X12386647Y27195747D01*
X12386647Y27195747D02*
X12434266Y27243366D01*
X12434266Y27243366D02*
X12529504Y27290985D01*
X12529504Y27290985D02*
X12767599Y27290985D01*
X12767599Y27290985D02*
X12910456Y27243366D01*
X13910456Y26386224D02*
X13862837Y26338604D01*
X13862837Y26338604D02*
X13719980Y26290985D01*
X13719980Y26290985D02*
X13624742Y26290985D01*
X13624742Y26290985D02*
X13481885Y26338604D01*
X13481885Y26338604D02*
X13386647Y26433843D01*
X13386647Y26433843D02*
X13339028Y26529081D01*
X13339028Y26529081D02*
X13291409Y26719557D01*
X13291409Y26719557D02*
X13291409Y26862414D01*
X13291409Y26862414D02*
X13339028Y27052890D01*
X13339028Y27052890D02*
X13386647Y27148128D01*
X13386647Y27148128D02*
X13481885Y27243366D01*
X13481885Y27243366D02*
X13624742Y27290985D01*
X13624742Y27290985D02*
X13719980Y27290985D01*
X13719980Y27290985D02*
X13862837Y27243366D01*
X13862837Y27243366D02*
X13910456Y27195747D01*
X14815218Y26290985D02*
X14339028Y26290985D01*
X14339028Y26290985D02*
X14339028Y27290985D01*
X12783456Y34863366D02*
X12688218Y34910985D01*
X12688218Y34910985D02*
X12545361Y34910985D01*
X12545361Y34910985D02*
X12402504Y34863366D01*
X12402504Y34863366D02*
X12307266Y34768128D01*
X12307266Y34768128D02*
X12259647Y34672890D01*
X12259647Y34672890D02*
X12212028Y34482414D01*
X12212028Y34482414D02*
X12212028Y34339557D01*
X12212028Y34339557D02*
X12259647Y34149081D01*
X12259647Y34149081D02*
X12307266Y34053843D01*
X12307266Y34053843D02*
X12402504Y33958604D01*
X12402504Y33958604D02*
X12545361Y33910985D01*
X12545361Y33910985D02*
X12640599Y33910985D01*
X12640599Y33910985D02*
X12783456Y33958604D01*
X12783456Y33958604D02*
X12831075Y34006224D01*
X12831075Y34006224D02*
X12831075Y34339557D01*
X12831075Y34339557D02*
X12640599Y34339557D01*
X13259647Y33910985D02*
X13259647Y34910985D01*
X13259647Y34910985D02*
X13831075Y33910985D01*
X13831075Y33910985D02*
X13831075Y34910985D01*
X14307266Y33910985D02*
X14307266Y34910985D01*
X14307266Y34910985D02*
X14545361Y34910985D01*
X14545361Y34910985D02*
X14688218Y34863366D01*
X14688218Y34863366D02*
X14783456Y34768128D01*
X14783456Y34768128D02*
X14831075Y34672890D01*
X14831075Y34672890D02*
X14878694Y34482414D01*
X14878694Y34482414D02*
X14878694Y34339557D01*
X14878694Y34339557D02*
X14831075Y34149081D01*
X14831075Y34149081D02*
X14783456Y34053843D01*
X14783456Y34053843D02*
X14688218Y33958604D01*
X14688218Y33958604D02*
X14545361Y33910985D01*
X14545361Y33910985D02*
X14307266Y33910985D01*
D11*
X59356666Y27037181D02*
X59356666Y26322896D01*
X59356666Y26322896D02*
X59309047Y26180039D01*
X59309047Y26180039D02*
X59213809Y26084800D01*
X59213809Y26084800D02*
X59070952Y26037181D01*
X59070952Y26037181D02*
X58975714Y26037181D01*
X60356666Y26037181D02*
X59785238Y26037181D01*
X60070952Y26037181D02*
X60070952Y27037181D01*
X60070952Y27037181D02*
X59975714Y26894324D01*
X59975714Y26894324D02*
X59880476Y26799086D01*
X59880476Y26799086D02*
X59785238Y26751467D01*
X34821905Y39423181D02*
X34821905Y40423181D01*
X34821905Y40423181D02*
X35060000Y40423181D01*
X35060000Y40423181D02*
X35202857Y40375562D01*
X35202857Y40375562D02*
X35298095Y40280324D01*
X35298095Y40280324D02*
X35345714Y40185086D01*
X35345714Y40185086D02*
X35393333Y39994610D01*
X35393333Y39994610D02*
X35393333Y39851753D01*
X35393333Y39851753D02*
X35345714Y39661277D01*
X35345714Y39661277D02*
X35298095Y39566039D01*
X35298095Y39566039D02*
X35202857Y39470800D01*
X35202857Y39470800D02*
X35060000Y39423181D01*
X35060000Y39423181D02*
X34821905Y39423181D01*
X35774286Y40327943D02*
X35821905Y40375562D01*
X35821905Y40375562D02*
X35917143Y40423181D01*
X35917143Y40423181D02*
X36155238Y40423181D01*
X36155238Y40423181D02*
X36250476Y40375562D01*
X36250476Y40375562D02*
X36298095Y40327943D01*
X36298095Y40327943D02*
X36345714Y40232705D01*
X36345714Y40232705D02*
X36345714Y40137467D01*
X36345714Y40137467D02*
X36298095Y39994610D01*
X36298095Y39994610D02*
X35726667Y39423181D01*
X35726667Y39423181D02*
X36345714Y39423181D01*
X32758095Y10467181D02*
X32758095Y11467181D01*
X33329523Y10467181D02*
X32900952Y11038610D01*
X33329523Y11467181D02*
X32758095Y10895753D01*
%TO.C,J2*%
X6604000Y35687000D02*
X11684000Y35687000D01*
X6604000Y22987000D02*
X6604000Y35687000D01*
X11684000Y35687000D02*
X11684000Y22987000D01*
X11684000Y22987000D02*
X6604000Y22987000D01*
%TO.C,J3*%
X55880000Y17526000D02*
X55880000Y19812000D01*
X60960000Y19812000D02*
X60960000Y17526000D01*
X60960000Y17526000D02*
X55880000Y17526000D01*
D12*
%TO.C,J1*%
X63045000Y29792000D02*
X63045000Y32692000D01*
X61140000Y27887000D02*
X58240000Y27887000D01*
X61140000Y34597000D02*
X58240000Y34597000D01*
X56335000Y29792000D02*
X56335000Y32692000D01*
D13*
%TO.C,D2*%
X28460000Y11900000D02*
X42660000Y11900000D01*
X28460000Y38900000D02*
X28460000Y11900000D01*
X28460000Y38900000D02*
X42660000Y38900000D01*
X42660000Y38900000D02*
X42660000Y11900000D01*
%TD*%
D14*
%TO.C,J2*%
X7874000Y34417000D03*
X10414000Y34417000D03*
X7874000Y31877000D03*
X10414000Y31877000D03*
X7874000Y29337000D03*
X10414000Y29337000D03*
X7874000Y26797000D03*
X10414000Y26797000D03*
X7874000Y24257000D03*
X10414000Y24257000D03*
%TD*%
M02*
