%TF.GenerationSoftware,KiCad,Pcbnew,7.0.7-7.0.7~ubuntu23.04.1*%
%TF.CreationDate,2023-09-24T22:03:25+00:00*%
%TF.ProjectId,PIND02,50494e44-3032-42e6-9b69-6361645f7063,rev?*%
%TF.SameCoordinates,Original*%
%TF.FileFunction,Paste,Bot*%
%TF.FilePolarity,Positive*%
%FSLAX46Y46*%
G04 Gerber Fmt 4.6, Leading zero omitted, Abs format (unit mm)*
G04 Created by KiCad (PCBNEW 7.0.7-7.0.7~ubuntu23.04.1) date 2023-09-24 22:03:25*
%MOMM*%
%LPD*%
G01*
G04 APERTURE LIST*
G04 Aperture macros list*
%AMRoundRect*
0 Rectangle with rounded corners*
0 $1 Rounding radius*
0 $2 $3 $4 $5 $6 $7 $8 $9 X,Y pos of 4 corners*
0 Add a 4 corners polygon primitive as box body*
4,1,4,$2,$3,$4,$5,$6,$7,$8,$9,$2,$3,0*
0 Add four circle primitives for the rounded corners*
1,1,$1+$1,$2,$3*
1,1,$1+$1,$4,$5*
1,1,$1+$1,$6,$7*
1,1,$1+$1,$8,$9*
0 Add four rect primitives between the rounded corners*
20,1,$1+$1,$2,$3,$4,$5,0*
20,1,$1+$1,$4,$5,$6,$7,0*
20,1,$1+$1,$6,$7,$8,$9,0*
20,1,$1+$1,$8,$9,$2,$3,0*%
%AMFreePoly0*
4,1,6,0.450000,-0.800000,-0.180000,-0.800000,-0.450000,-0.530000,-0.450000,0.800000,0.450000,0.800000,0.450000,-0.800000,0.450000,-0.800000,$1*%
G04 Aperture macros list end*
%ADD10RoundRect,0.225000X0.225000X0.250000X-0.225000X0.250000X-0.225000X-0.250000X0.225000X-0.250000X0*%
%ADD11RoundRect,0.218750X-0.381250X0.218750X-0.381250X-0.218750X0.381250X-0.218750X0.381250X0.218750X0*%
%ADD12RoundRect,0.250000X0.250000X0.475000X-0.250000X0.475000X-0.250000X-0.475000X0.250000X-0.475000X0*%
%ADD13RoundRect,0.250000X0.325000X0.450000X-0.325000X0.450000X-0.325000X-0.450000X0.325000X-0.450000X0*%
%ADD14RoundRect,0.200000X0.200000X0.275000X-0.200000X0.275000X-0.200000X-0.275000X0.200000X-0.275000X0*%
%ADD15RoundRect,0.250000X0.262500X0.450000X-0.262500X0.450000X-0.262500X-0.450000X0.262500X-0.450000X0*%
%ADD16RoundRect,0.250000X-0.475000X0.250000X-0.475000X-0.250000X0.475000X-0.250000X0.475000X0.250000X0*%
%ADD17R,1.800000X2.500000*%
%ADD18RoundRect,0.250000X-0.450000X0.262500X-0.450000X-0.262500X0.450000X-0.262500X0.450000X0.262500X0*%
%ADD19RoundRect,0.250000X-1.100000X0.325000X-1.100000X-0.325000X1.100000X-0.325000X1.100000X0.325000X0*%
%ADD20R,1.300000X1.500000*%
%ADD21R,0.700000X3.000000*%
%ADD22RoundRect,0.250000X-0.425000X0.450000X-0.425000X-0.450000X0.425000X-0.450000X0.425000X0.450000X0*%
%ADD23RoundRect,0.150000X0.587500X0.150000X-0.587500X0.150000X-0.587500X-0.150000X0.587500X-0.150000X0*%
%ADD24RoundRect,0.250000X0.450000X0.425000X-0.450000X0.425000X-0.450000X-0.425000X0.450000X-0.425000X0*%
%ADD25RoundRect,0.250000X-0.250000X-0.475000X0.250000X-0.475000X0.250000X0.475000X-0.250000X0.475000X0*%
%ADD26R,1.000000X1.000000*%
%ADD27R,1.000000X2.300000*%
%ADD28R,1.000000X3.800000*%
%ADD29R,2.300000X1.000000*%
%ADD30R,3.800000X1.000000*%
%ADD31RoundRect,0.250000X0.325000X1.100000X-0.325000X1.100000X-0.325000X-1.100000X0.325000X-1.100000X0*%
%ADD32FreePoly0,180.000000*%
%ADD33R,0.550000X0.250000*%
%ADD34RoundRect,0.200000X-0.200000X-0.275000X0.200000X-0.275000X0.200000X0.275000X-0.200000X0.275000X0*%
%ADD35RoundRect,0.150000X0.512500X0.150000X-0.512500X0.150000X-0.512500X-0.150000X0.512500X-0.150000X0*%
%ADD36RoundRect,0.200000X-0.275000X0.200000X-0.275000X-0.200000X0.275000X-0.200000X0.275000X0.200000X0*%
%ADD37RoundRect,0.250000X0.425000X-0.450000X0.425000X0.450000X-0.425000X0.450000X-0.425000X-0.450000X0*%
%ADD38RoundRect,0.150000X0.825000X0.150000X-0.825000X0.150000X-0.825000X-0.150000X0.825000X-0.150000X0*%
%ADD39RoundRect,0.225000X-0.250000X0.225000X-0.250000X-0.225000X0.250000X-0.225000X0.250000X0.225000X0*%
%ADD40RoundRect,0.237500X0.287500X0.237500X-0.287500X0.237500X-0.287500X-0.237500X0.287500X-0.237500X0*%
G04 APERTURE END LIST*
D10*
%TO.C,C22*%
X-14392000Y45332000D03*
X-15942000Y45332000D03*
%TD*%
D11*
%TO.C,L3*%
X59309000Y24811500D03*
X59309000Y22686500D03*
%TD*%
D12*
%TO.C,C3*%
X47178000Y18923000D03*
X45278000Y18923000D03*
%TD*%
D13*
%TO.C,L2*%
X-1515000Y40386000D03*
X-3565000Y40386000D03*
%TD*%
D12*
%TO.C,C20*%
X-14217000Y50352000D03*
X-16117000Y50352000D03*
%TD*%
D14*
%TO.C,R8*%
X39052000Y38862000D03*
X37402000Y38862000D03*
%TD*%
D15*
%TO.C,R12*%
X60221500Y26924000D03*
X58396500Y26924000D03*
%TD*%
D12*
%TO.C,C1*%
X-2479000Y8763000D03*
X-4379000Y8763000D03*
%TD*%
D16*
%TO.C,C8*%
X39624000Y29652000D03*
X39624000Y27752000D03*
%TD*%
D10*
%TO.C,C21*%
X-14392000Y47842000D03*
X-15942000Y47842000D03*
%TD*%
D16*
%TO.C,C11*%
X32512000Y38669000D03*
X32512000Y36769000D03*
%TD*%
D17*
%TO.C,D1*%
X1143000Y-1365000D03*
X1143000Y2635000D03*
%TD*%
D18*
%TO.C,R10*%
X29337000Y28471500D03*
X29337000Y26646500D03*
%TD*%
D14*
%TO.C,R9*%
X31940000Y23749000D03*
X30290000Y23749000D03*
%TD*%
%TO.C,R6*%
X28511000Y38608000D03*
X26861000Y38608000D03*
%TD*%
D19*
%TO.C,C12*%
X35306000Y37035000D03*
X35306000Y34085000D03*
%TD*%
D20*
%TO.C,C19*%
X16844000Y34544000D03*
D21*
X15494000Y34544000D03*
D20*
X14144000Y34544000D03*
%TD*%
D22*
%TO.C,C10*%
X30353000Y38434000D03*
X30353000Y35734000D03*
%TD*%
D23*
%TO.C,Q1*%
X39799500Y19746000D03*
X39799500Y17846000D03*
X37924500Y18796000D03*
%TD*%
D24*
%TO.C,C23*%
X-13817000Y42822000D03*
X-16517000Y42822000D03*
%TD*%
D25*
%TO.C,C13*%
X33721000Y31623000D03*
X35621000Y31623000D03*
%TD*%
D12*
%TO.C,C17*%
X-66000Y17780000D03*
X-1966000Y17780000D03*
%TD*%
D26*
%TO.C,M5*%
X51460000Y9500000D03*
D27*
X51460000Y11150000D03*
D28*
X51460000Y16400000D03*
X51460000Y22400000D03*
X51460000Y28400000D03*
X51460000Y34400000D03*
D27*
X51460000Y39650000D03*
D26*
X51460000Y41300000D03*
D29*
X49810000Y9500000D03*
X49810000Y41300000D03*
D30*
X44560000Y9500000D03*
X44560000Y41300000D03*
X38560000Y9500000D03*
X38560000Y41300000D03*
X32560000Y9500000D03*
X32560000Y41300000D03*
X26560000Y9500000D03*
X26560000Y41300000D03*
D29*
X21310000Y9500000D03*
X21310000Y41300000D03*
D26*
X19660000Y9500000D03*
D27*
X19660000Y11150000D03*
D28*
X19660000Y16400000D03*
X19660000Y22400000D03*
X19660000Y28400000D03*
X19660000Y34400000D03*
D27*
X19660000Y39650000D03*
D26*
X19660000Y41300000D03*
%TD*%
D31*
%TO.C,C15*%
X40083000Y22860000D03*
X37133000Y22860000D03*
%TD*%
D10*
%TO.C,C18*%
X24524000Y15494000D03*
X22974000Y15494000D03*
%TD*%
D32*
%TO.C,U3*%
X-1524000Y22352000D03*
D33*
X-349000Y23102000D03*
X-349000Y22602000D03*
X-349000Y22102000D03*
X-349000Y21602000D03*
X-2699000Y21602000D03*
X-2699000Y22102000D03*
X-2699000Y22602000D03*
X-2699000Y23102000D03*
%TD*%
D14*
%TO.C,R5*%
X23177000Y38608000D03*
X21527000Y38608000D03*
%TD*%
D34*
%TO.C,R11*%
X33592000Y23749000D03*
X35242000Y23749000D03*
%TD*%
D23*
%TO.C,U2*%
X24813500Y13777000D03*
X24813500Y11877000D03*
X22938500Y12827000D03*
%TD*%
D22*
%TO.C,C9*%
X25146000Y38434000D03*
X25146000Y35734000D03*
%TD*%
D18*
%TO.C,R4*%
X41783000Y29487500D03*
X41783000Y27662500D03*
%TD*%
D12*
%TO.C,C6*%
X31430000Y31623000D03*
X29530000Y31623000D03*
%TD*%
%TO.C,C2*%
X9930000Y44490000D03*
X8030000Y44490000D03*
%TD*%
D24*
%TO.C,C4*%
X47578000Y16413000D03*
X44878000Y16413000D03*
%TD*%
D14*
%TO.C,R2*%
X23939000Y32766000D03*
X22289000Y32766000D03*
%TD*%
D35*
%TO.C,U4*%
X-6579500Y40292000D03*
X-6579500Y39342000D03*
X-6579500Y38392000D03*
X-8854500Y38392000D03*
X-8854500Y40292000D03*
%TD*%
D36*
%TO.C,R1*%
X42418000Y17589000D03*
X42418000Y15939000D03*
%TD*%
D12*
%TO.C,C14*%
X56068000Y20193000D03*
X54168000Y20193000D03*
%TD*%
D37*
%TO.C,C7*%
X27432000Y32940000D03*
X27432000Y35640000D03*
%TD*%
D38*
%TO.C,U1*%
X36892000Y29464000D03*
X36892000Y28194000D03*
X36892000Y26924000D03*
X36892000Y25654000D03*
X31942000Y25654000D03*
X31942000Y26924000D03*
X31942000Y28194000D03*
X31942000Y29464000D03*
%TD*%
D24*
%TO.C,C24*%
X-17827000Y55372000D03*
X-20527000Y55372000D03*
%TD*%
D39*
%TO.C,C16*%
X27813000Y28334000D03*
X27813000Y26784000D03*
%TD*%
D34*
%TO.C,R3*%
X41974000Y19812000D03*
X43624000Y19812000D03*
%TD*%
D40*
%TO.C,L1*%
X-7507000Y21717000D03*
X-9257000Y21717000D03*
%TD*%
D31*
%TO.C,C5*%
X35638000Y18923000D03*
X32688000Y18923000D03*
%TD*%
D14*
%TO.C,R7*%
X35877000Y38862000D03*
X34227000Y38862000D03*
%TD*%
M02*
