%TF.GenerationSoftware,KiCad,Pcbnew,7.0.7-7.0.7~ubuntu23.04.1*%
%TF.CreationDate,2023-09-24T22:03:25+00:00*%
%TF.ProjectId,PIND02,50494e44-3032-42e6-9b69-6361645f7063,rev?*%
%TF.SameCoordinates,Original*%
%TF.FileFunction,Copper,L2,Bot*%
%TF.FilePolarity,Positive*%
%FSLAX46Y46*%
G04 Gerber Fmt 4.6, Leading zero omitted, Abs format (unit mm)*
G04 Created by KiCad (PCBNEW 7.0.7-7.0.7~ubuntu23.04.1) date 2023-09-24 22:03:25*
%MOMM*%
%LPD*%
G01*
G04 APERTURE LIST*
G04 Aperture macros list*
%AMRoundRect*
0 Rectangle with rounded corners*
0 $1 Rounding radius*
0 $2 $3 $4 $5 $6 $7 $8 $9 X,Y pos of 4 corners*
0 Add a 4 corners polygon primitive as box body*
4,1,4,$2,$3,$4,$5,$6,$7,$8,$9,$2,$3,0*
0 Add four circle primitives for the rounded corners*
1,1,$1+$1,$2,$3*
1,1,$1+$1,$4,$5*
1,1,$1+$1,$6,$7*
1,1,$1+$1,$8,$9*
0 Add four rect primitives between the rounded corners*
20,1,$1+$1,$2,$3,$4,$5,0*
20,1,$1+$1,$4,$5,$6,$7,0*
20,1,$1+$1,$6,$7,$8,$9,0*
20,1,$1+$1,$8,$9,$2,$3,0*%
%AMFreePoly0*
4,1,6,0.500000,-0.850000,-0.200000,-0.850000,-0.500000,-0.550000,-0.500000,0.850000,0.500000,0.850000,0.500000,-0.850000,0.500000,-0.850000,$1*%
%AMFreePoly1*
4,1,19,0.550000,-0.750000,0.000000,-0.750000,0.000000,-0.744911,-0.071157,-0.744911,-0.207708,-0.704816,-0.327430,-0.627875,-0.420627,-0.520320,-0.479746,-0.390866,-0.500000,-0.250000,-0.500000,0.250000,-0.479746,0.390866,-0.420627,0.520320,-0.327430,0.627875,-0.207708,0.704816,-0.071157,0.744911,0.000000,0.744911,0.000000,0.750000,0.550000,0.750000,0.550000,-0.750000,0.550000,-0.750000,
$1*%
%AMFreePoly2*
4,1,19,0.000000,0.744911,0.071157,0.744911,0.207708,0.704816,0.327430,0.627875,0.420627,0.520320,0.479746,0.390866,0.500000,0.250000,0.500000,-0.250000,0.479746,-0.390866,0.420627,-0.520320,0.327430,-0.627875,0.207708,-0.704816,0.071157,-0.744911,0.000000,-0.744911,0.000000,-0.750000,-0.550000,-0.750000,-0.550000,0.750000,0.000000,0.750000,0.000000,0.744911,0.000000,0.744911,
$1*%
G04 Aperture macros list end*
%TA.AperFunction,ComponentPad*%
%ADD10R,1.524000X1.524000*%
%TD*%
%TA.AperFunction,ComponentPad*%
%ADD11C,6.000000*%
%TD*%
%TA.AperFunction,ComponentPad*%
%ADD12C,2.050000*%
%TD*%
%TA.AperFunction,ComponentPad*%
%ADD13C,2.250000*%
%TD*%
%TA.AperFunction,ComponentPad*%
%ADD14C,1.524000*%
%TD*%
%TA.AperFunction,SMDPad,CuDef*%
%ADD15RoundRect,0.225000X0.225000X0.250000X-0.225000X0.250000X-0.225000X-0.250000X0.225000X-0.250000X0*%
%TD*%
%TA.AperFunction,SMDPad,CuDef*%
%ADD16RoundRect,0.218750X-0.381250X0.218750X-0.381250X-0.218750X0.381250X-0.218750X0.381250X0.218750X0*%
%TD*%
%TA.AperFunction,SMDPad,CuDef*%
%ADD17RoundRect,0.250000X0.250000X0.475000X-0.250000X0.475000X-0.250000X-0.475000X0.250000X-0.475000X0*%
%TD*%
%TA.AperFunction,SMDPad,CuDef*%
%ADD18RoundRect,0.250000X0.325000X0.450000X-0.325000X0.450000X-0.325000X-0.450000X0.325000X-0.450000X0*%
%TD*%
%TA.AperFunction,SMDPad,CuDef*%
%ADD19RoundRect,0.200000X0.200000X0.275000X-0.200000X0.275000X-0.200000X-0.275000X0.200000X-0.275000X0*%
%TD*%
%TA.AperFunction,SMDPad,CuDef*%
%ADD20RoundRect,0.250000X0.262500X0.450000X-0.262500X0.450000X-0.262500X-0.450000X0.262500X-0.450000X0*%
%TD*%
%TA.AperFunction,SMDPad,CuDef*%
%ADD21RoundRect,0.250000X-0.475000X0.250000X-0.475000X-0.250000X0.475000X-0.250000X0.475000X0.250000X0*%
%TD*%
%TA.AperFunction,SMDPad,CuDef*%
%ADD22R,1.800000X2.500000*%
%TD*%
%TA.AperFunction,SMDPad,CuDef*%
%ADD23RoundRect,0.250000X-0.450000X0.262500X-0.450000X-0.262500X0.450000X-0.262500X0.450000X0.262500X0*%
%TD*%
%TA.AperFunction,SMDPad,CuDef*%
%ADD24RoundRect,0.250000X-1.100000X0.325000X-1.100000X-0.325000X1.100000X-0.325000X1.100000X0.325000X0*%
%TD*%
%TA.AperFunction,SMDPad,CuDef*%
%ADD25R,1.300000X1.500000*%
%TD*%
%TA.AperFunction,SMDPad,CuDef*%
%ADD26R,0.700000X3.000000*%
%TD*%
%TA.AperFunction,SMDPad,CuDef*%
%ADD27C,1.000000*%
%TD*%
%TA.AperFunction,SMDPad,CuDef*%
%ADD28RoundRect,0.250000X-0.425000X0.450000X-0.425000X-0.450000X0.425000X-0.450000X0.425000X0.450000X0*%
%TD*%
%TA.AperFunction,SMDPad,CuDef*%
%ADD29RoundRect,0.150000X0.587500X0.150000X-0.587500X0.150000X-0.587500X-0.150000X0.587500X-0.150000X0*%
%TD*%
%TA.AperFunction,SMDPad,CuDef*%
%ADD30RoundRect,0.250000X0.450000X0.425000X-0.450000X0.425000X-0.450000X-0.425000X0.450000X-0.425000X0*%
%TD*%
%TA.AperFunction,SMDPad,CuDef*%
%ADD31RoundRect,0.250000X-0.250000X-0.475000X0.250000X-0.475000X0.250000X0.475000X-0.250000X0.475000X0*%
%TD*%
%TA.AperFunction,SMDPad,CuDef*%
%ADD32R,1.000000X1.000000*%
%TD*%
%TA.AperFunction,SMDPad,CuDef*%
%ADD33R,1.000000X2.300000*%
%TD*%
%TA.AperFunction,SMDPad,CuDef*%
%ADD34R,1.000000X3.800000*%
%TD*%
%TA.AperFunction,SMDPad,CuDef*%
%ADD35R,2.300000X1.000000*%
%TD*%
%TA.AperFunction,SMDPad,CuDef*%
%ADD36R,3.800000X1.000000*%
%TD*%
%TA.AperFunction,SMDPad,CuDef*%
%ADD37RoundRect,0.250000X0.325000X1.100000X-0.325000X1.100000X-0.325000X-1.100000X0.325000X-1.100000X0*%
%TD*%
%TA.AperFunction,SMDPad,CuDef*%
%ADD38R,0.550000X0.250000*%
%TD*%
%TA.AperFunction,SMDPad,CuDef*%
%ADD39FreePoly0,180.000000*%
%TD*%
%TA.AperFunction,SMDPad,CuDef*%
%ADD40RoundRect,0.200000X-0.200000X-0.275000X0.200000X-0.275000X0.200000X0.275000X-0.200000X0.275000X0*%
%TD*%
%TA.AperFunction,SMDPad,CuDef*%
%ADD41RoundRect,0.150000X0.512500X0.150000X-0.512500X0.150000X-0.512500X-0.150000X0.512500X-0.150000X0*%
%TD*%
%TA.AperFunction,SMDPad,CuDef*%
%ADD42RoundRect,0.200000X-0.275000X0.200000X-0.275000X-0.200000X0.275000X-0.200000X0.275000X0.200000X0*%
%TD*%
%TA.AperFunction,SMDPad,CuDef*%
%ADD43RoundRect,0.250000X0.425000X-0.450000X0.425000X0.450000X-0.425000X0.450000X-0.425000X-0.450000X0*%
%TD*%
%TA.AperFunction,SMDPad,CuDef*%
%ADD44RoundRect,0.150000X0.825000X0.150000X-0.825000X0.150000X-0.825000X-0.150000X0.825000X-0.150000X0*%
%TD*%
%TA.AperFunction,SMDPad,CuDef*%
%ADD45RoundRect,0.225000X-0.250000X0.225000X-0.250000X-0.225000X0.250000X-0.225000X0.250000X0.225000X0*%
%TD*%
%TA.AperFunction,SMDPad,CuDef*%
%ADD46RoundRect,0.237500X0.287500X0.237500X-0.287500X0.237500X-0.287500X-0.237500X0.287500X-0.237500X0*%
%TD*%
%TA.AperFunction,SMDPad,CuDef*%
%ADD47FreePoly1,180.000000*%
%TD*%
%TA.AperFunction,SMDPad,CuDef*%
%ADD48R,1.000000X1.500000*%
%TD*%
%TA.AperFunction,SMDPad,CuDef*%
%ADD49FreePoly2,180.000000*%
%TD*%
G04 APERTURE END LIST*
%TA.AperFunction,EtchedComponent*%
%TO.C,JP1*%
G36*
X1916000Y26624000D02*
G01*
X1416000Y26624000D01*
X1416000Y27224000D01*
X1916000Y27224000D01*
X1916000Y26624000D01*
G37*
%TD.AperFunction*%
%TD*%
D10*
%TO.P,J2,1*%
%TO.N,GND*%
X7747000Y26416000D03*
%TO.P,J2,2*%
X10287000Y26416000D03*
%TO.P,J2,3*%
%TO.N,Net-(U3-SDA)*%
X7747000Y23876000D03*
%TO.P,J2,4*%
X10287000Y23876000D03*
%TO.P,J2,5*%
%TO.N,VDD*%
X7747000Y21336000D03*
%TO.P,J2,6*%
X10287000Y21336000D03*
%TO.P,J2,7*%
%TO.N,Net-(U3-SCL)*%
X7747000Y18796000D03*
%TO.P,J2,8*%
X10287000Y18796000D03*
%TO.P,J2,9*%
%TO.N,GND*%
X7747000Y16256000D03*
%TO.P,J2,10*%
X10287000Y16256000D03*
%TD*%
D11*
%TO.P,M2,1*%
%TO.N,GND*%
X60960000Y40640000D03*
%TD*%
D10*
%TO.P,J3,1*%
%TO.N,VDD*%
X57277000Y29845000D03*
%TO.P,J3,2*%
%TO.N,Net-(J3-Pad2)*%
X59817000Y29845000D03*
%TD*%
D11*
%TO.P,M4,1*%
%TO.N,GND*%
X60960000Y10160000D03*
%TD*%
D12*
%TO.P,J1,1,In*%
%TO.N,Net-(J1-In)*%
X59309000Y20193000D03*
D13*
%TO.P,J1,2,Ext*%
%TO.N,GND*%
X61849000Y17653000D03*
X61849000Y22733000D03*
X56769000Y17653000D03*
X56769000Y22733000D03*
%TD*%
D11*
%TO.P,M3,1*%
%TO.N,GND*%
X10160000Y10160000D03*
%TD*%
%TO.P,M1,1*%
%TO.N,GND*%
X10160000Y40640000D03*
%TD*%
D14*
%TO.P,D2,1,K*%
%TO.N,/K*%
X33060000Y14400000D03*
%TO.P,D2,2,A*%
%TO.N,/A*%
X38060000Y14400000D03*
%TD*%
D15*
%TO.P,C22,1*%
%TO.N,Net-(C21-Pad1)*%
X-14392000Y45332000D03*
%TO.P,C22,2*%
%TO.N,GND*%
X-15942000Y45332000D03*
%TD*%
D16*
%TO.P,L3,1,1*%
%TO.N,Net-(L3-Pad1)*%
X59309000Y24811500D03*
%TO.P,L3,2,2*%
%TO.N,Net-(J1-In)*%
X59309000Y22686500D03*
%TD*%
D17*
%TO.P,C3,1*%
%TO.N,Net-(Q1-D)*%
X47178000Y18923000D03*
%TO.P,C3,2*%
%TO.N,GNDA*%
X45278000Y18923000D03*
%TD*%
D18*
%TO.P,L2,1*%
%TO.N,Net-(C21-Pad1)*%
X-1515000Y40386000D03*
%TO.P,L2,2*%
%TO.N,Net-(U4-SW)*%
X-3565000Y40386000D03*
%TD*%
D17*
%TO.P,C20,1*%
%TO.N,+5V*%
X-14217000Y50352000D03*
%TO.P,C20,2*%
%TO.N,GNDA*%
X-16117000Y50352000D03*
%TD*%
D19*
%TO.P,R8,1*%
%TO.N,/K*%
X39052000Y38862000D03*
%TO.P,R8,2*%
%TO.N,Net-(C12-Pad1)*%
X37402000Y38862000D03*
%TD*%
D20*
%TO.P,R12,1*%
%TO.N,Net-(L3-Pad1)*%
X60221500Y26924000D03*
%TO.P,R12,2*%
%TO.N,Net-(J3-Pad2)*%
X58396500Y26924000D03*
%TD*%
D17*
%TO.P,C1,1*%
%TO.N,VDD*%
X-2479000Y8763000D03*
%TO.P,C1,2*%
%TO.N,GND*%
X-4379000Y8763000D03*
%TD*%
D21*
%TO.P,C8,1*%
%TO.N,Net-(C13-Pad2)*%
X39624000Y29652000D03*
%TO.P,C8,2*%
%TO.N,/A*%
X39624000Y27752000D03*
%TD*%
D15*
%TO.P,C21,1*%
%TO.N,Net-(C21-Pad1)*%
X-14392000Y47842000D03*
%TO.P,C21,2*%
%TO.N,GND*%
X-15942000Y47842000D03*
%TD*%
D21*
%TO.P,C11,1*%
%TO.N,Net-(C10-Pad1)*%
X32512000Y38669000D03*
%TO.P,C11,2*%
%TO.N,GNDA*%
X32512000Y36769000D03*
%TD*%
D22*
%TO.P,D1,1,K*%
%TO.N,VDD*%
X1143000Y-1365000D03*
%TO.P,D1,2,A*%
%TO.N,GND*%
X1143000Y2635000D03*
%TD*%
D23*
%TO.P,R10,1*%
%TO.N,Net-(C14-Pad2)*%
X29337000Y28471500D03*
%TO.P,R10,2*%
%TO.N,Net-(U1B--)*%
X29337000Y26646500D03*
%TD*%
D19*
%TO.P,R9,1*%
%TO.N,/REF*%
X31940000Y23749000D03*
%TO.P,R9,2*%
%TO.N,Net-(U1B-+)*%
X30290000Y23749000D03*
%TD*%
%TO.P,R6,1*%
%TO.N,Net-(C10-Pad1)*%
X28511000Y38608000D03*
%TO.P,R6,2*%
%TO.N,Net-(C9-Pad1)*%
X26861000Y38608000D03*
%TD*%
D24*
%TO.P,C12,1*%
%TO.N,Net-(C12-Pad1)*%
X35306000Y37035000D03*
%TO.P,C12,2*%
%TO.N,/REF*%
X35306000Y34085000D03*
%TD*%
D25*
%TO.P,C19,1,1*%
%TO.N,Net-(U4-VOUT)*%
X16844000Y34544000D03*
D26*
%TO.P,C19,2,2*%
%TO.N,GND*%
X15494000Y34544000D03*
D25*
%TO.P,C19,3,3*%
%TO.N,+5V*%
X14144000Y34544000D03*
%TD*%
D27*
%TO.P,FID1,*%
%TO.N,*%
X55118000Y43307000D03*
%TD*%
D28*
%TO.P,C10,1*%
%TO.N,Net-(C10-Pad1)*%
X30353000Y38434000D03*
%TO.P,C10,2*%
%TO.N,GNDA*%
X30353000Y35734000D03*
%TD*%
D29*
%TO.P,Q1,1,S*%
%TO.N,Net-(Q1-S)*%
X39799500Y19746000D03*
%TO.P,Q1,2,D*%
%TO.N,Net-(Q1-D)*%
X39799500Y17846000D03*
%TO.P,Q1,3,G*%
%TO.N,/A*%
X37924500Y18796000D03*
%TD*%
D30*
%TO.P,C23,1*%
%TO.N,Net-(U4-VOUT)*%
X-13817000Y42822000D03*
%TO.P,C23,2*%
%TO.N,GND*%
X-16517000Y42822000D03*
%TD*%
D31*
%TO.P,C13,1*%
%TO.N,Net-(U1B-+)*%
X33721000Y31623000D03*
%TO.P,C13,2*%
%TO.N,Net-(C13-Pad2)*%
X35621000Y31623000D03*
%TD*%
D17*
%TO.P,C17,1*%
%TO.N,VDD*%
X-66000Y17780000D03*
%TO.P,C17,2*%
%TO.N,GND*%
X-1966000Y17780000D03*
%TD*%
D32*
%TO.P,M5,1,Shield*%
%TO.N,GND*%
X51460000Y9500000D03*
D33*
X51460000Y11150000D03*
D34*
X51460000Y16400000D03*
X51460000Y22400000D03*
X51460000Y28400000D03*
X51460000Y34400000D03*
D33*
X51460000Y39650000D03*
D32*
X51460000Y41300000D03*
D35*
X49810000Y9500000D03*
X49810000Y41300000D03*
D36*
X44560000Y9500000D03*
X44560000Y41300000D03*
X38560000Y9500000D03*
X38560000Y41300000D03*
X32560000Y9500000D03*
X32560000Y41300000D03*
X26560000Y9500000D03*
X26560000Y41300000D03*
D35*
X21310000Y9500000D03*
X21310000Y41300000D03*
D32*
X19660000Y9500000D03*
D33*
X19660000Y11150000D03*
D34*
X19660000Y16400000D03*
X19660000Y22400000D03*
X19660000Y28400000D03*
X19660000Y34400000D03*
D33*
X19660000Y39650000D03*
D32*
X19660000Y41300000D03*
%TD*%
D37*
%TO.P,C15,1*%
%TO.N,/REF*%
X40083000Y22860000D03*
%TO.P,C15,2*%
%TO.N,GNDA*%
X37133000Y22860000D03*
%TD*%
D15*
%TO.P,C18,1*%
%TO.N,VDD*%
X24524000Y15494000D03*
%TO.P,C18,2*%
%TO.N,GNDA*%
X22974000Y15494000D03*
%TD*%
D38*
%TO.P,U3,1,SDA*%
%TO.N,Net-(U3-SDA)*%
X-349000Y23102000D03*
%TO.P,U3,2,ADDR*%
%TO.N,Net-(JP1-C)*%
X-349000Y22602000D03*
%TO.P,U3,3,ALERT*%
%TO.N,unconnected-(U3-ALERT-Pad3)*%
X-349000Y22102000D03*
%TO.P,U3,4,SCL*%
%TO.N,Net-(U3-SCL)*%
X-349000Y21602000D03*
%TO.P,U3,5,VDD*%
%TO.N,VDD*%
X-2699000Y21602000D03*
%TO.P,U3,6,~{RESET}*%
%TO.N,unconnected-(U3-~{RESET}-Pad6)*%
X-2699000Y22102000D03*
%TO.P,U3,7,R*%
%TO.N,GND*%
X-2699000Y22602000D03*
%TO.P,U3,8,VSS*%
X-2699000Y23102000D03*
D39*
%TO.P,U3,9,VSS*%
X-1524000Y22352000D03*
%TD*%
D19*
%TO.P,R5,1*%
%TO.N,Net-(C9-Pad1)*%
X23177000Y38608000D03*
%TO.P,R5,2*%
%TO.N,+5V*%
X21527000Y38608000D03*
%TD*%
D27*
%TO.P,FID2,*%
%TO.N,*%
X16129000Y7493000D03*
%TD*%
D40*
%TO.P,R11,1*%
%TO.N,Net-(U1B--)*%
X33592000Y23749000D03*
%TO.P,R11,2*%
%TO.N,/REF*%
X35242000Y23749000D03*
%TD*%
D29*
%TO.P,U2,1,Vin*%
%TO.N,VDD*%
X24813500Y13777000D03*
%TO.P,U2,2,Vout*%
%TO.N,/REF*%
X24813500Y11877000D03*
%TO.P,U2,3,GND*%
%TO.N,GNDA*%
X22938500Y12827000D03*
%TD*%
D28*
%TO.P,C9,1*%
%TO.N,Net-(C9-Pad1)*%
X25146000Y38434000D03*
%TO.P,C9,2*%
%TO.N,GNDA*%
X25146000Y35734000D03*
%TD*%
D23*
%TO.P,R4,1*%
%TO.N,Net-(C13-Pad2)*%
X41783000Y29487500D03*
%TO.P,R4,2*%
%TO.N,/A*%
X41783000Y27662500D03*
%TD*%
D17*
%TO.P,C6,1*%
%TO.N,Net-(U1B-V+)*%
X31430000Y31623000D03*
%TO.P,C6,2*%
%TO.N,GNDA*%
X29530000Y31623000D03*
%TD*%
%TO.P,C2,1*%
%TO.N,VDD*%
X9930000Y44490000D03*
%TO.P,C2,2*%
%TO.N,GND*%
X8030000Y44490000D03*
%TD*%
D30*
%TO.P,C4,1*%
%TO.N,Net-(Q1-D)*%
X47578000Y16413000D03*
%TO.P,C4,2*%
%TO.N,GNDA*%
X44878000Y16413000D03*
%TD*%
D19*
%TO.P,R2,1*%
%TO.N,Net-(U1B-V+)*%
X23939000Y32766000D03*
%TO.P,R2,2*%
%TO.N,VDD*%
X22289000Y32766000D03*
%TD*%
D41*
%TO.P,U4,1,SW*%
%TO.N,Net-(U4-SW)*%
X-6579500Y40292000D03*
%TO.P,U4,2,GND*%
%TO.N,GND*%
X-6579500Y39342000D03*
%TO.P,U4,3,NC*%
%TO.N,unconnected-(U4-NC-Pad3)*%
X-6579500Y38392000D03*
%TO.P,U4,4,VOUT*%
%TO.N,Net-(U4-VOUT)*%
X-8854500Y38392000D03*
%TO.P,U4,5,NC*%
%TO.N,unconnected-(U4-NC-Pad5)*%
X-8854500Y40292000D03*
%TD*%
D42*
%TO.P,R1,1*%
%TO.N,Net-(Q1-D)*%
X42418000Y17589000D03*
%TO.P,R1,2*%
%TO.N,VDD*%
X42418000Y15939000D03*
%TD*%
D17*
%TO.P,C14,1*%
%TO.N,Net-(J1-In)*%
X56068000Y20193000D03*
%TO.P,C14,2*%
%TO.N,Net-(C14-Pad2)*%
X54168000Y20193000D03*
%TD*%
D43*
%TO.P,C7,1*%
%TO.N,Net-(U1B-V+)*%
X27432000Y32940000D03*
%TO.P,C7,2*%
%TO.N,GNDA*%
X27432000Y35640000D03*
%TD*%
D44*
%TO.P,U1,1*%
%TO.N,Net-(C13-Pad2)*%
X36892000Y29464000D03*
%TO.P,U1,2,-*%
%TO.N,/A*%
X36892000Y28194000D03*
%TO.P,U1,3,+*%
%TO.N,/REF*%
X36892000Y26924000D03*
%TO.P,U1,4,V-*%
%TO.N,GNDA*%
X36892000Y25654000D03*
%TO.P,U1,5,+*%
%TO.N,Net-(U1B-+)*%
X31942000Y25654000D03*
%TO.P,U1,6,-*%
%TO.N,Net-(U1B--)*%
X31942000Y26924000D03*
%TO.P,U1,7*%
%TO.N,Net-(C14-Pad2)*%
X31942000Y28194000D03*
%TO.P,U1,8,V+*%
%TO.N,Net-(U1B-V+)*%
X31942000Y29464000D03*
%TD*%
D30*
%TO.P,C24,1*%
%TO.N,Net-(U4-VOUT)*%
X-17827000Y55372000D03*
%TO.P,C24,2*%
%TO.N,GND*%
X-20527000Y55372000D03*
%TD*%
D45*
%TO.P,C16,1*%
%TO.N,Net-(C14-Pad2)*%
X27813000Y28334000D03*
%TO.P,C16,2*%
%TO.N,Net-(U1B--)*%
X27813000Y26784000D03*
%TD*%
D40*
%TO.P,R3,1*%
%TO.N,Net-(Q1-S)*%
X41974000Y19812000D03*
%TO.P,R3,2*%
%TO.N,GNDA*%
X43624000Y19812000D03*
%TD*%
D46*
%TO.P,L1,1*%
%TO.N,VDD*%
X-7507000Y21717000D03*
%TO.P,L1,2*%
%TO.N,Net-(C21-Pad1)*%
X-9257000Y21717000D03*
%TD*%
D37*
%TO.P,C5,1*%
%TO.N,Net-(Q1-S)*%
X35638000Y18923000D03*
%TO.P,C5,2*%
%TO.N,/K*%
X32688000Y18923000D03*
%TD*%
D47*
%TO.P,JP1,1,A*%
%TO.N,GND*%
X2316000Y26924000D03*
D48*
%TO.P,JP1,2,C*%
%TO.N,Net-(JP1-C)*%
X1016000Y26924000D03*
D49*
%TO.P,JP1,3,B*%
%TO.N,VDD*%
X-284000Y26924000D03*
%TD*%
D19*
%TO.P,R7,1*%
%TO.N,Net-(C12-Pad1)*%
X35877000Y38862000D03*
%TO.P,R7,2*%
%TO.N,Net-(C10-Pad1)*%
X34227000Y38862000D03*
%TD*%
%TA.AperFunction,Conductor*%
%TO.N,GNDA*%
G36*
X24157903Y40620315D02*
G01*
X24203658Y40567511D01*
X24207043Y40559339D01*
X24209111Y40553796D01*
X24296739Y40436739D01*
X24413796Y40349111D01*
X24550799Y40298011D01*
X24578050Y40295082D01*
X24611345Y40291501D01*
X24611362Y40291500D01*
X28508638Y40291500D01*
X28508654Y40291501D01*
X28535692Y40294409D01*
X28569201Y40298011D01*
X28706204Y40349111D01*
X28823261Y40436739D01*
X28910889Y40553796D01*
X28912954Y40559334D01*
X28954825Y40615267D01*
X29020290Y40639684D01*
X29029136Y40640000D01*
X30090864Y40640000D01*
X30157903Y40620315D01*
X30203658Y40567511D01*
X30207043Y40559339D01*
X30209111Y40553796D01*
X30296739Y40436739D01*
X30413796Y40349111D01*
X30550799Y40298011D01*
X30578050Y40295082D01*
X30611345Y40291501D01*
X30611362Y40291500D01*
X34508638Y40291500D01*
X34508654Y40291501D01*
X34535692Y40294409D01*
X34569201Y40298011D01*
X34706204Y40349111D01*
X34823261Y40436739D01*
X34910889Y40553796D01*
X34912954Y40559334D01*
X34954825Y40615267D01*
X35020290Y40639684D01*
X35029136Y40640000D01*
X36090864Y40640000D01*
X36157903Y40620315D01*
X36203658Y40567511D01*
X36207043Y40559339D01*
X36209111Y40553796D01*
X36296739Y40436739D01*
X36413796Y40349111D01*
X36550799Y40298011D01*
X36578050Y40295082D01*
X36611345Y40291501D01*
X36611362Y40291500D01*
X40508638Y40291500D01*
X40508654Y40291501D01*
X40535692Y40294409D01*
X40569201Y40298011D01*
X40706204Y40349111D01*
X40823261Y40436739D01*
X40910889Y40553796D01*
X40912954Y40559334D01*
X40954825Y40615267D01*
X41020290Y40639684D01*
X41029136Y40640000D01*
X42090864Y40640000D01*
X42157903Y40620315D01*
X42203658Y40567511D01*
X42207043Y40559339D01*
X42209111Y40553796D01*
X42296739Y40436739D01*
X42413796Y40349111D01*
X42550799Y40298011D01*
X42578050Y40295082D01*
X42611345Y40291501D01*
X42611362Y40291500D01*
X46508638Y40291500D01*
X46508654Y40291501D01*
X46535692Y40294409D01*
X46569201Y40298011D01*
X46706204Y40349111D01*
X46823261Y40436739D01*
X46910889Y40553796D01*
X46912954Y40559334D01*
X46954825Y40615267D01*
X47020290Y40639684D01*
X47029136Y40640000D01*
X48090864Y40640000D01*
X48157903Y40620315D01*
X48203658Y40567511D01*
X48207043Y40559339D01*
X48209111Y40553796D01*
X48296739Y40436739D01*
X48413796Y40349111D01*
X48550799Y40298011D01*
X48578050Y40295082D01*
X48611345Y40291501D01*
X48611362Y40291500D01*
X50327500Y40291500D01*
X50394539Y40271815D01*
X50440294Y40219011D01*
X50451500Y40167500D01*
X50451500Y38451346D01*
X50458011Y38390798D01*
X50458011Y38390796D01*
X50494083Y38294087D01*
X50509111Y38253796D01*
X50596739Y38136739D01*
X50648391Y38098073D01*
X50713794Y38049112D01*
X50713795Y38049112D01*
X50713796Y38049111D01*
X50719330Y38047047D01*
X50775264Y38005179D01*
X50799684Y37939715D01*
X50800000Y37930864D01*
X50800000Y36869137D01*
X50780315Y36802098D01*
X50727511Y36756343D01*
X50719341Y36752958D01*
X50713799Y36750891D01*
X50713795Y36750889D01*
X50596739Y36663261D01*
X50509111Y36546205D01*
X50458011Y36409205D01*
X50458011Y36409203D01*
X50451500Y36348655D01*
X50451500Y32451346D01*
X50458011Y32390798D01*
X50458011Y32390796D01*
X50478609Y32335573D01*
X50509111Y32253796D01*
X50596739Y32136739D01*
X50674922Y32078212D01*
X50713794Y32049112D01*
X50713795Y32049112D01*
X50713796Y32049111D01*
X50719330Y32047047D01*
X50775264Y32005179D01*
X50799684Y31939715D01*
X50800000Y31930864D01*
X50800000Y30869137D01*
X50780315Y30802098D01*
X50727511Y30756343D01*
X50719341Y30752958D01*
X50713799Y30750891D01*
X50713795Y30750889D01*
X50596739Y30663261D01*
X50509111Y30546205D01*
X50458011Y30409205D01*
X50458011Y30409203D01*
X50451500Y30348655D01*
X50451500Y26451346D01*
X50458011Y26390798D01*
X50458011Y26390796D01*
X50479399Y26333455D01*
X50509111Y26253796D01*
X50596739Y26136739D01*
X50674922Y26078212D01*
X50713794Y26049112D01*
X50713795Y26049112D01*
X50713796Y26049111D01*
X50719330Y26047047D01*
X50775264Y26005179D01*
X50799684Y25939715D01*
X50800000Y25930864D01*
X50800000Y24869137D01*
X50780315Y24802098D01*
X50727511Y24756343D01*
X50719341Y24752958D01*
X50713799Y24750891D01*
X50713795Y24750889D01*
X50596739Y24663261D01*
X50509111Y24546205D01*
X50458011Y24409205D01*
X50458011Y24409203D01*
X50451500Y24348655D01*
X50451500Y20451346D01*
X50458011Y20390798D01*
X50458011Y20390796D01*
X50499150Y20280502D01*
X50509111Y20253796D01*
X50596739Y20136739D01*
X50659020Y20090116D01*
X50713794Y20049112D01*
X50713795Y20049112D01*
X50713796Y20049111D01*
X50719330Y20047047D01*
X50775264Y20005179D01*
X50799684Y19939715D01*
X50800000Y19930864D01*
X50800000Y18869137D01*
X50780315Y18802098D01*
X50727511Y18756343D01*
X50719341Y18752958D01*
X50713799Y18750891D01*
X50713795Y18750889D01*
X50596739Y18663261D01*
X50509111Y18546205D01*
X50458011Y18409205D01*
X50458011Y18409203D01*
X50451500Y18348655D01*
X50451500Y14451346D01*
X50458011Y14390798D01*
X50458011Y14390796D01*
X50479269Y14333804D01*
X50509111Y14253796D01*
X50596739Y14136739D01*
X50674922Y14078212D01*
X50713794Y14049112D01*
X50713795Y14049112D01*
X50713796Y14049111D01*
X50719330Y14047047D01*
X50775264Y14005179D01*
X50799684Y13939715D01*
X50800000Y13930864D01*
X50800000Y12869137D01*
X50780315Y12802098D01*
X50727511Y12756343D01*
X50719341Y12752958D01*
X50713799Y12750891D01*
X50713795Y12750889D01*
X50596739Y12663261D01*
X50509111Y12546205D01*
X50458011Y12409205D01*
X50458011Y12409203D01*
X50451500Y12348655D01*
X50451500Y10632500D01*
X50431815Y10565461D01*
X50379011Y10519706D01*
X50327500Y10508500D01*
X48611345Y10508500D01*
X48550797Y10501989D01*
X48550795Y10501989D01*
X48413795Y10450889D01*
X48296739Y10363261D01*
X48209111Y10246205D01*
X48209111Y10246204D01*
X48207046Y10240667D01*
X48165175Y10184733D01*
X48099710Y10160316D01*
X48090864Y10160000D01*
X47029136Y10160000D01*
X46962097Y10179685D01*
X46916342Y10232489D01*
X46912954Y10240667D01*
X46910889Y10246204D01*
X46823261Y10363261D01*
X46706204Y10450889D01*
X46706203Y10450890D01*
X46569203Y10501989D01*
X46508654Y10508500D01*
X46508638Y10508500D01*
X42611362Y10508500D01*
X42611345Y10508500D01*
X42550797Y10501989D01*
X42550795Y10501989D01*
X42413795Y10450889D01*
X42296739Y10363261D01*
X42209111Y10246205D01*
X42209111Y10246204D01*
X42207046Y10240667D01*
X42165175Y10184733D01*
X42099710Y10160316D01*
X42090864Y10160000D01*
X41029136Y10160000D01*
X40962097Y10179685D01*
X40916342Y10232489D01*
X40912954Y10240667D01*
X40910889Y10246204D01*
X40823261Y10363261D01*
X40706204Y10450889D01*
X40706203Y10450890D01*
X40569203Y10501989D01*
X40508654Y10508500D01*
X40508638Y10508500D01*
X36611362Y10508500D01*
X36611345Y10508500D01*
X36550797Y10501989D01*
X36550795Y10501989D01*
X36413795Y10450889D01*
X36296739Y10363261D01*
X36209111Y10246205D01*
X36209111Y10246204D01*
X36207046Y10240667D01*
X36165175Y10184733D01*
X36099710Y10160316D01*
X36090864Y10160000D01*
X35029136Y10160000D01*
X34962097Y10179685D01*
X34916342Y10232489D01*
X34912954Y10240667D01*
X34910889Y10246204D01*
X34823261Y10363261D01*
X34706204Y10450889D01*
X34706203Y10450890D01*
X34569203Y10501989D01*
X34508654Y10508500D01*
X34508638Y10508500D01*
X30611362Y10508500D01*
X30611345Y10508500D01*
X30550797Y10501989D01*
X30550795Y10501989D01*
X30413795Y10450889D01*
X30296739Y10363261D01*
X30209111Y10246205D01*
X30209111Y10246204D01*
X30207046Y10240667D01*
X30165175Y10184733D01*
X30099710Y10160316D01*
X30090864Y10160000D01*
X29029136Y10160000D01*
X28962097Y10179685D01*
X28916342Y10232489D01*
X28912954Y10240667D01*
X28910889Y10246204D01*
X28823261Y10363261D01*
X28706204Y10450889D01*
X28706203Y10450890D01*
X28569203Y10501989D01*
X28508654Y10508500D01*
X28508638Y10508500D01*
X24611362Y10508500D01*
X24611345Y10508500D01*
X24550797Y10501989D01*
X24550795Y10501989D01*
X24413795Y10450889D01*
X24296739Y10363261D01*
X24209111Y10246205D01*
X24209111Y10246204D01*
X24207046Y10240667D01*
X24165175Y10184733D01*
X24099710Y10160316D01*
X24090864Y10160000D01*
X23029136Y10160000D01*
X22962097Y10179685D01*
X22916342Y10232489D01*
X22912954Y10240667D01*
X22910889Y10246204D01*
X22823261Y10363261D01*
X22706204Y10450889D01*
X22706203Y10450890D01*
X22569203Y10501989D01*
X22508654Y10508500D01*
X22508638Y10508500D01*
X20792500Y10508500D01*
X20725461Y10528185D01*
X20679706Y10580989D01*
X20668500Y10632500D01*
X20668500Y12348638D01*
X20668499Y12348655D01*
X20665157Y12379730D01*
X20661989Y12409201D01*
X20652812Y12433804D01*
X20639522Y12469436D01*
X20610889Y12546204D01*
X20587836Y12576999D01*
X21703704Y12576999D01*
X21703899Y12574514D01*
X21749718Y12416802D01*
X21833314Y12275448D01*
X21833321Y12275439D01*
X21949438Y12159322D01*
X21949447Y12159315D01*
X22090803Y12075718D01*
X22090806Y12075717D01*
X22248504Y12029901D01*
X22248510Y12029900D01*
X22285356Y12027000D01*
X22688500Y12027000D01*
X23188500Y12027000D01*
X23443500Y12027000D01*
X23510539Y12007315D01*
X23556294Y11954511D01*
X23567500Y11903000D01*
X23567500Y11660495D01*
X23570437Y11623171D01*
X23570438Y11623165D01*
X23616853Y11463404D01*
X23616855Y11463399D01*
X23701544Y11320197D01*
X23701551Y11320188D01*
X23819187Y11202552D01*
X23819191Y11202549D01*
X23819193Y11202547D01*
X23962399Y11117855D01*
X24004530Y11105615D01*
X24122164Y11071439D01*
X24122167Y11071439D01*
X24122169Y11071438D01*
X24131501Y11070704D01*
X24159495Y11068500D01*
X24159498Y11068500D01*
X25467505Y11068500D01*
X25489899Y11070263D01*
X25504831Y11071438D01*
X25504833Y11071439D01*
X25504835Y11071439D01*
X25546962Y11083679D01*
X25664601Y11117855D01*
X25807807Y11202547D01*
X25925453Y11320193D01*
X26010145Y11463399D01*
X26056562Y11623169D01*
X26059500Y11660498D01*
X26059500Y12093502D01*
X26056562Y12130831D01*
X26010145Y12290601D01*
X25925453Y12433807D01*
X25925451Y12433809D01*
X25925448Y12433813D01*
X25807812Y12551449D01*
X25807803Y12551456D01*
X25664601Y12636145D01*
X25664596Y12636147D01*
X25504835Y12682562D01*
X25504829Y12682563D01*
X25467505Y12685500D01*
X25467502Y12685500D01*
X24159498Y12685500D01*
X24159495Y12685500D01*
X24122170Y12682563D01*
X24122164Y12682562D01*
X23962403Y12636147D01*
X23962402Y12636147D01*
X23962398Y12636145D01*
X23962399Y12636145D01*
X23891587Y12594267D01*
X23828469Y12577000D01*
X23188500Y12577000D01*
X23188500Y12027000D01*
X22688500Y12027000D01*
X22688500Y12577000D01*
X21703705Y12577000D01*
X21703704Y12576999D01*
X20587836Y12576999D01*
X20523261Y12663261D01*
X20406204Y12750889D01*
X20406200Y12750891D01*
X20400659Y12752958D01*
X20344728Y12794833D01*
X20320315Y12860298D01*
X20320000Y12869137D01*
X20320000Y13077002D01*
X21703704Y13077002D01*
X21703705Y13077000D01*
X22688500Y13077000D01*
X23188500Y13077000D01*
X23828469Y13077000D01*
X23891587Y13059734D01*
X23962399Y13017855D01*
X23962401Y13017855D01*
X23962402Y13017854D01*
X24122164Y12971439D01*
X24122167Y12971439D01*
X24122169Y12971438D01*
X24131501Y12970704D01*
X24159495Y12968500D01*
X24159498Y12968500D01*
X25467505Y12968500D01*
X25489899Y12970263D01*
X25504831Y12971438D01*
X25504833Y12971439D01*
X25504835Y12971439D01*
X25546962Y12983679D01*
X25664601Y13017855D01*
X25807807Y13102547D01*
X25925453Y13220193D01*
X26010145Y13363399D01*
X26056562Y13523169D01*
X26059500Y13560498D01*
X26059500Y13993502D01*
X26056562Y14030831D01*
X26052835Y14043658D01*
X26010146Y14190597D01*
X26010145Y14190601D01*
X25925453Y14333807D01*
X25925451Y14333809D01*
X25925448Y14333813D01*
X25859265Y14399996D01*
X31292558Y14399996D01*
X31312298Y14136578D01*
X31312298Y14136576D01*
X31371077Y13879047D01*
X31371080Y13879037D01*
X31467589Y13633138D01*
X31467591Y13633134D01*
X31472806Y13624101D01*
X31599671Y13404364D01*
X31732699Y13237551D01*
X31764376Y13197830D01*
X31867068Y13102547D01*
X31958018Y13018158D01*
X32176279Y12869350D01*
X32176284Y12869348D01*
X32176285Y12869347D01*
X32176286Y12869346D01*
X32302636Y12808500D01*
X32414277Y12754737D01*
X32414278Y12754737D01*
X32414281Y12754735D01*
X32666707Y12676871D01*
X32666708Y12676871D01*
X32666711Y12676870D01*
X32927911Y12637501D01*
X32927916Y12637501D01*
X32927919Y12637500D01*
X32927920Y12637500D01*
X33192080Y12637500D01*
X33192081Y12637500D01*
X33192088Y12637501D01*
X33453288Y12676870D01*
X33453289Y12676871D01*
X33453293Y12676871D01*
X33705719Y12754735D01*
X33943721Y12869350D01*
X34161982Y13018158D01*
X34355627Y13197834D01*
X34520329Y13404364D01*
X34652410Y13633136D01*
X34748920Y13879037D01*
X34807701Y14136576D01*
X34814281Y14224385D01*
X34827442Y14399996D01*
X36292558Y14399996D01*
X36312298Y14136578D01*
X36312298Y14136576D01*
X36371077Y13879047D01*
X36371080Y13879037D01*
X36467589Y13633138D01*
X36467591Y13633134D01*
X36472806Y13624101D01*
X36599671Y13404364D01*
X36732699Y13237551D01*
X36764376Y13197830D01*
X36867068Y13102547D01*
X36958018Y13018158D01*
X37176279Y12869350D01*
X37176284Y12869348D01*
X37176285Y12869347D01*
X37176286Y12869346D01*
X37302636Y12808500D01*
X37414277Y12754737D01*
X37414278Y12754737D01*
X37414281Y12754735D01*
X37666707Y12676871D01*
X37666708Y12676871D01*
X37666711Y12676870D01*
X37927911Y12637501D01*
X37927916Y12637501D01*
X37927919Y12637500D01*
X37927920Y12637500D01*
X38192080Y12637500D01*
X38192081Y12637500D01*
X38192088Y12637501D01*
X38453288Y12676870D01*
X38453289Y12676871D01*
X38453293Y12676871D01*
X38705719Y12754735D01*
X38943721Y12869350D01*
X39161982Y13018158D01*
X39355627Y13197834D01*
X39520329Y13404364D01*
X39652410Y13633136D01*
X39748920Y13879037D01*
X39807701Y14136576D01*
X39814281Y14224385D01*
X39827442Y14399996D01*
X39827442Y14400005D01*
X39807987Y14659608D01*
X39807701Y14663424D01*
X39807406Y14664715D01*
X39748922Y14920954D01*
X39748920Y14920963D01*
X39652410Y15166864D01*
X39520329Y15395636D01*
X39355627Y15602166D01*
X39355626Y15602167D01*
X39355623Y15602171D01*
X39269880Y15681728D01*
X41434500Y15681728D01*
X41440985Y15610355D01*
X41440988Y15610345D01*
X41492171Y15446091D01*
X41492172Y15446089D01*
X41492173Y15446087D01*
X41578283Y15303644D01*
X41581186Y15298842D01*
X41702841Y15177187D01*
X41702843Y15177186D01*
X41702845Y15177184D01*
X41850087Y15088173D01*
X42014351Y15036987D01*
X42085735Y15030500D01*
X42750264Y15030501D01*
X42750272Y15030501D01*
X42821645Y15036986D01*
X42821648Y15036987D01*
X42821649Y15036987D01*
X42985913Y15088173D01*
X43133155Y15177184D01*
X43254816Y15298845D01*
X43343827Y15446087D01*
X43395013Y15610351D01*
X43401500Y15681735D01*
X43401499Y16163000D01*
X43678001Y16163000D01*
X43678001Y15938014D01*
X43688494Y15835303D01*
X43743641Y15668881D01*
X43743643Y15668876D01*
X43835684Y15519655D01*
X43959654Y15395685D01*
X44108875Y15303644D01*
X44108880Y15303642D01*
X44275302Y15248495D01*
X44275309Y15248494D01*
X44378019Y15238001D01*
X44627999Y15238001D01*
X44628000Y15238002D01*
X44628000Y16163000D01*
X45128000Y16163000D01*
X45128000Y15238001D01*
X45377972Y15238001D01*
X45377986Y15238002D01*
X45480697Y15248495D01*
X45647119Y15303642D01*
X45647124Y15303644D01*
X45796345Y15395685D01*
X45920315Y15519655D01*
X46012356Y15668876D01*
X46012358Y15668881D01*
X46067505Y15835303D01*
X46067506Y15835310D01*
X46077999Y15938014D01*
X46078000Y15938027D01*
X46078000Y16163000D01*
X45128000Y16163000D01*
X44628000Y16163000D01*
X43678001Y16163000D01*
X43401499Y16163000D01*
X43401499Y16196264D01*
X43401499Y16196265D01*
X43401499Y16196273D01*
X43395014Y16267646D01*
X43395011Y16267656D01*
X43343828Y16431910D01*
X43343827Y16431911D01*
X43343827Y16431913D01*
X43254816Y16579155D01*
X43254814Y16579157D01*
X43254813Y16579159D01*
X43170972Y16663000D01*
X43678000Y16663000D01*
X46077999Y16663000D01*
X46077999Y16887972D01*
X46077998Y16887987D01*
X46067505Y16990698D01*
X46012358Y17157120D01*
X46012356Y17157125D01*
X45920315Y17306346D01*
X45796345Y17430316D01*
X45688873Y17496605D01*
X45642149Y17548553D01*
X45630926Y17617516D01*
X45658770Y17681598D01*
X45714966Y17719850D01*
X45847119Y17763642D01*
X45847124Y17763644D01*
X45996345Y17855685D01*
X46120316Y17979656D01*
X46124798Y17985323D01*
X46126991Y17983589D01*
X46169357Y18021735D01*
X46238314Y18032992D01*
X46302410Y18005182D01*
X46324334Y17979894D01*
X46324489Y17980015D01*
X46327183Y17976608D01*
X46328545Y17975037D01*
X46328970Y17974348D01*
X46454348Y17848970D01*
X46605262Y17755885D01*
X46721055Y17717516D01*
X46778500Y17677744D01*
X46805324Y17613228D01*
X46793009Y17544452D01*
X46747150Y17494272D01*
X46654348Y17437031D01*
X46528971Y17311654D01*
X46435886Y17160741D01*
X46435884Y17160736D01*
X46380113Y16992428D01*
X46369500Y16888553D01*
X46369500Y15937463D01*
X46369501Y15937447D01*
X46380113Y15833573D01*
X46393782Y15792323D01*
X46435885Y15665262D01*
X46528970Y15514348D01*
X46654348Y15388970D01*
X46805262Y15295885D01*
X46973574Y15240113D01*
X47077455Y15229500D01*
X48078544Y15229501D01*
X48182426Y15240113D01*
X48350738Y15295885D01*
X48501652Y15388970D01*
X48627030Y15514348D01*
X48720115Y15665262D01*
X48775887Y15833574D01*
X48786500Y15937455D01*
X48786499Y16888544D01*
X48775887Y16992426D01*
X48720115Y17160738D01*
X48627030Y17311652D01*
X48501652Y17437030D01*
X48363316Y17522357D01*
X48350740Y17530114D01*
X48350735Y17530116D01*
X48182427Y17585887D01*
X48078552Y17596500D01*
X47929571Y17596500D01*
X47862532Y17616185D01*
X47816777Y17668989D01*
X47806833Y17738147D01*
X47835858Y17801703D01*
X47864471Y17826037D01*
X47901652Y17848970D01*
X48027030Y17974348D01*
X48120115Y18125262D01*
X48175887Y18293574D01*
X48186500Y18397455D01*
X48186499Y19448544D01*
X48175887Y19552426D01*
X48120115Y19720738D01*
X48027030Y19871652D01*
X47901652Y19997030D01*
X47792544Y20064329D01*
X47750740Y20090114D01*
X47750735Y20090116D01*
X47582427Y20145887D01*
X47478546Y20156500D01*
X46877462Y20156500D01*
X46877446Y20156499D01*
X46773572Y20145887D01*
X46605264Y20090116D01*
X46605259Y20090114D01*
X46454346Y19997029D01*
X46328970Y19871653D01*
X46328968Y19871650D01*
X46328541Y19870957D01*
X46328123Y19870582D01*
X46324489Y19865985D01*
X46323703Y19866607D01*
X46276591Y19824236D01*
X46207627Y19813017D01*
X46143547Y19840864D01*
X46125739Y19861422D01*
X46124798Y19860677D01*
X46120316Y19866345D01*
X45996345Y19990316D01*
X45847124Y20082357D01*
X45847119Y20082359D01*
X45680697Y20137506D01*
X45680690Y20137507D01*
X45577986Y20148000D01*
X45528000Y20148000D01*
X45528000Y18797000D01*
X45508315Y18729961D01*
X45455511Y18684206D01*
X45404000Y18673000D01*
X45152000Y18673000D01*
X45084961Y18692685D01*
X45039206Y18745489D01*
X45028000Y18797000D01*
X45028000Y20148000D01*
X45027999Y20148001D01*
X44978029Y20148000D01*
X44978011Y20147999D01*
X44875302Y20137506D01*
X44708880Y20082359D01*
X44702330Y20079304D01*
X44701714Y20080624D01*
X44642134Y20064329D01*
X44575473Y20085259D01*
X44530710Y20138907D01*
X44520953Y20177090D01*
X44517590Y20214110D01*
X44467018Y20376397D01*
X44379072Y20521878D01*
X44258877Y20642073D01*
X44113395Y20730020D01*
X44113396Y20730020D01*
X43951105Y20780591D01*
X43951106Y20780591D01*
X43880572Y20787000D01*
X43874000Y20787000D01*
X43874000Y18837001D01*
X43880581Y18837001D01*
X43951102Y18843409D01*
X43951104Y18843409D01*
X44117108Y18895139D01*
X44186969Y18896291D01*
X44246362Y18859491D01*
X44276430Y18796422D01*
X44278000Y18776754D01*
X44278000Y18398029D01*
X44278001Y18398013D01*
X44288494Y18295303D01*
X44343641Y18128881D01*
X44343643Y18128876D01*
X44435684Y17979655D01*
X44559656Y17855683D01*
X44621498Y17817539D01*
X44668223Y17765591D01*
X44679446Y17696629D01*
X44651603Y17632547D01*
X44593534Y17593690D01*
X44556403Y17588000D01*
X44378029Y17588000D01*
X44378012Y17587999D01*
X44275302Y17577506D01*
X44108880Y17522359D01*
X44108875Y17522357D01*
X43959654Y17430316D01*
X43835684Y17306346D01*
X43743643Y17157125D01*
X43743641Y17157120D01*
X43688494Y16990698D01*
X43688493Y16990691D01*
X43678000Y16887987D01*
X43678000Y16663000D01*
X43170972Y16663000D01*
X43157652Y16676320D01*
X43124167Y16737643D01*
X43129151Y16807335D01*
X43157651Y16851681D01*
X43254816Y16948845D01*
X43343827Y17096087D01*
X43395013Y17260351D01*
X43401500Y17331735D01*
X43401499Y17846264D01*
X43401499Y17846265D01*
X43401499Y17846273D01*
X43395014Y17917646D01*
X43395011Y17917656D01*
X43343828Y18081910D01*
X43343827Y18081911D01*
X43343827Y18081913D01*
X43254816Y18229155D01*
X43254814Y18229157D01*
X43254813Y18229159D01*
X43133158Y18350814D01*
X43047141Y18402813D01*
X42985913Y18439827D01*
X42821649Y18491013D01*
X42821647Y18491014D01*
X42821645Y18491014D01*
X42771667Y18495556D01*
X42750265Y18497500D01*
X42750262Y18497500D01*
X42085727Y18497500D01*
X42014354Y18491015D01*
X42014344Y18491012D01*
X41850090Y18439829D01*
X41702841Y18350814D01*
X41581186Y18229159D01*
X41492173Y18081914D01*
X41440986Y17917646D01*
X41434500Y17846263D01*
X41434500Y17331728D01*
X41440985Y17260355D01*
X41440988Y17260345D01*
X41492171Y17096091D01*
X41492172Y17096089D01*
X41492173Y17096087D01*
X41555883Y16990698D01*
X41581186Y16948842D01*
X41678347Y16851681D01*
X41711832Y16790358D01*
X41706848Y16720666D01*
X41678347Y16676319D01*
X41581187Y16579160D01*
X41581186Y16579159D01*
X41492173Y16431914D01*
X41440986Y16267646D01*
X41434500Y16196263D01*
X41434500Y15681728D01*
X39269880Y15681728D01*
X39161982Y15781842D01*
X39145792Y15792880D01*
X38943721Y15930650D01*
X38943717Y15930652D01*
X38943714Y15930654D01*
X38943713Y15930655D01*
X38705721Y16045264D01*
X38705723Y16045264D01*
X38453294Y16123129D01*
X38453288Y16123131D01*
X38192088Y16162500D01*
X38192081Y16162500D01*
X37927919Y16162500D01*
X37927911Y16162500D01*
X37666711Y16123131D01*
X37666705Y16123129D01*
X37414277Y16045264D01*
X37176286Y15930655D01*
X37176285Y15930654D01*
X36958017Y15781842D01*
X36764376Y15602171D01*
X36599671Y15395636D01*
X36467591Y15166867D01*
X36467589Y15166863D01*
X36371080Y14920964D01*
X36371077Y14920954D01*
X36312298Y14663425D01*
X36312298Y14663423D01*
X36292558Y14400005D01*
X36292558Y14399996D01*
X34827442Y14399996D01*
X34827442Y14400005D01*
X34807987Y14659608D01*
X34807701Y14663424D01*
X34807406Y14664715D01*
X34748922Y14920954D01*
X34748920Y14920963D01*
X34652410Y15166864D01*
X34520329Y15395636D01*
X34355627Y15602166D01*
X34355626Y15602167D01*
X34355623Y15602171D01*
X34161982Y15781842D01*
X34145792Y15792880D01*
X33943721Y15930650D01*
X33943717Y15930652D01*
X33943714Y15930654D01*
X33943713Y15930655D01*
X33705721Y16045264D01*
X33705723Y16045264D01*
X33453294Y16123129D01*
X33453288Y16123131D01*
X33192088Y16162500D01*
X33192081Y16162500D01*
X32927919Y16162500D01*
X32927911Y16162500D01*
X32666711Y16123131D01*
X32666705Y16123129D01*
X32414277Y16045264D01*
X32176286Y15930655D01*
X32176285Y15930654D01*
X31958017Y15781842D01*
X31764376Y15602171D01*
X31599671Y15395636D01*
X31467591Y15166867D01*
X31467589Y15166863D01*
X31371080Y14920964D01*
X31371077Y14920954D01*
X31312298Y14663425D01*
X31312298Y14663423D01*
X31292558Y14400005D01*
X31292558Y14399996D01*
X25859265Y14399996D01*
X25807812Y14451449D01*
X25807803Y14451456D01*
X25664601Y14536145D01*
X25664596Y14536147D01*
X25504835Y14582562D01*
X25504829Y14582563D01*
X25467505Y14585500D01*
X25467502Y14585500D01*
X25425908Y14585500D01*
X25358869Y14605185D01*
X25313114Y14657989D01*
X25303170Y14727147D01*
X25325529Y14779175D01*
X25324494Y14779813D01*
X25418297Y14931891D01*
X25418296Y14931891D01*
X25418302Y14931899D01*
X25472236Y15094664D01*
X25482500Y15195128D01*
X25482500Y15792872D01*
X25472236Y15893336D01*
X25418302Y16056101D01*
X25418298Y16056107D01*
X25418297Y16056110D01*
X25328287Y16202037D01*
X25328284Y16202041D01*
X25207040Y16323285D01*
X25207036Y16323288D01*
X25061109Y16413298D01*
X25061103Y16413301D01*
X25061101Y16413302D01*
X24898336Y16467236D01*
X24797879Y16477500D01*
X24797872Y16477500D01*
X24250128Y16477500D01*
X24250120Y16477500D01*
X24149663Y16467236D01*
X23986901Y16413303D01*
X23986890Y16413298D01*
X23840963Y16323288D01*
X23840959Y16323285D01*
X23830671Y16312996D01*
X23769348Y16279511D01*
X23699656Y16284495D01*
X23655309Y16312996D01*
X23651732Y16316573D01*
X23651728Y16316576D01*
X23507492Y16405543D01*
X23507481Y16405548D01*
X23346606Y16458856D01*
X23247322Y16469000D01*
X23224000Y16469000D01*
X23224000Y14519001D01*
X23247308Y14519001D01*
X23247322Y14519002D01*
X23346607Y14529145D01*
X23507481Y14582453D01*
X23507492Y14582458D01*
X23651728Y14671425D01*
X23651732Y14671428D01*
X23655309Y14675004D01*
X23716632Y14708489D01*
X23786324Y14703505D01*
X23830671Y14675004D01*
X23840960Y14664715D01*
X23840962Y14664714D01*
X23844245Y14662118D01*
X23845914Y14659761D01*
X23846067Y14659608D01*
X23846040Y14659582D01*
X23884624Y14605098D01*
X23887766Y14535299D01*
X23852672Y14474882D01*
X23830464Y14458120D01*
X23819198Y14451457D01*
X23819187Y14451449D01*
X23701551Y14333813D01*
X23701544Y14333804D01*
X23616855Y14190602D01*
X23616853Y14190597D01*
X23570438Y14030836D01*
X23570437Y14030830D01*
X23567500Y13993505D01*
X23567500Y13751000D01*
X23547815Y13683961D01*
X23495011Y13638206D01*
X23443500Y13627000D01*
X23188500Y13627000D01*
X23188500Y13077000D01*
X22688500Y13077000D01*
X22688500Y13627000D01*
X22285356Y13627000D01*
X22248510Y13624101D01*
X22248504Y13624100D01*
X22090806Y13578284D01*
X22090803Y13578283D01*
X21949447Y13494686D01*
X21949438Y13494679D01*
X21833321Y13378562D01*
X21833314Y13378553D01*
X21749718Y13237199D01*
X21703899Y13079487D01*
X21703704Y13077002D01*
X20320000Y13077002D01*
X20320000Y13930864D01*
X20339685Y13997903D01*
X20392489Y14043658D01*
X20400653Y14047041D01*
X20406204Y14049111D01*
X20523261Y14136739D01*
X20610889Y14253796D01*
X20661989Y14390799D01*
X20665591Y14424308D01*
X20668499Y14451346D01*
X20668500Y14451363D01*
X20668500Y15244000D01*
X22024001Y15244000D01*
X22024001Y15195678D01*
X22034144Y15096393D01*
X22087452Y14935519D01*
X22087457Y14935508D01*
X22176424Y14791272D01*
X22176427Y14791268D01*
X22296267Y14671428D01*
X22296271Y14671425D01*
X22440507Y14582458D01*
X22440518Y14582453D01*
X22601393Y14529145D01*
X22700683Y14519001D01*
X22724000Y14519002D01*
X22724000Y15244000D01*
X22024001Y15244000D01*
X20668500Y15244000D01*
X20668500Y15744000D01*
X22024000Y15744000D01*
X22724000Y15744000D01*
X22724000Y16469001D01*
X22700693Y16469000D01*
X22700674Y16468999D01*
X22601392Y16458856D01*
X22440518Y16405548D01*
X22440507Y16405543D01*
X22296271Y16316576D01*
X22296267Y16316573D01*
X22176427Y16196733D01*
X22176424Y16196729D01*
X22087457Y16052493D01*
X22087452Y16052482D01*
X22034144Y15891607D01*
X22024000Y15792323D01*
X22024000Y15744000D01*
X20668500Y15744000D01*
X20668500Y17772463D01*
X31604500Y17772463D01*
X31604501Y17772447D01*
X31615113Y17668573D01*
X31670884Y17500265D01*
X31670886Y17500260D01*
X31706141Y17443102D01*
X31763970Y17349348D01*
X31889348Y17223970D01*
X32040262Y17130885D01*
X32208574Y17075113D01*
X32312455Y17064500D01*
X33063544Y17064501D01*
X33167426Y17075113D01*
X33335738Y17130885D01*
X33486652Y17223970D01*
X33612030Y17349348D01*
X33705115Y17500262D01*
X33760887Y17668574D01*
X33771500Y17772455D01*
X33771500Y17772463D01*
X34554500Y17772463D01*
X34554501Y17772447D01*
X34565113Y17668573D01*
X34620884Y17500265D01*
X34620886Y17500260D01*
X34656142Y17443102D01*
X34713970Y17349348D01*
X34839348Y17223970D01*
X34990262Y17130885D01*
X35158574Y17075113D01*
X35262455Y17064500D01*
X36013544Y17064501D01*
X36117426Y17075113D01*
X36285738Y17130885D01*
X36436652Y17223970D01*
X36562030Y17349348D01*
X36655115Y17500262D01*
X36710887Y17668574D01*
X36721500Y17772455D01*
X36721499Y18030881D01*
X36741183Y18097917D01*
X36793987Y18143672D01*
X36863146Y18153616D01*
X36923730Y18125948D01*
X36924027Y18126330D01*
X36925650Y18125071D01*
X36926701Y18124591D01*
X36928857Y18122583D01*
X36930191Y18121549D01*
X36930193Y18121547D01*
X37073399Y18036855D01*
X37086696Y18032992D01*
X37233164Y17990439D01*
X37233167Y17990439D01*
X37233169Y17990438D01*
X37242501Y17989704D01*
X37270495Y17987500D01*
X37270498Y17987500D01*
X38429500Y17987500D01*
X38496539Y17967815D01*
X38542294Y17915011D01*
X38553500Y17863500D01*
X38553500Y17629495D01*
X38556437Y17592171D01*
X38556438Y17592165D01*
X38602853Y17432404D01*
X38602855Y17432399D01*
X38687544Y17289197D01*
X38687551Y17289188D01*
X38805187Y17171552D01*
X38805196Y17171545D01*
X38856165Y17141402D01*
X38948399Y17086855D01*
X38988812Y17075114D01*
X39108164Y17040439D01*
X39108167Y17040439D01*
X39108169Y17040438D01*
X39117501Y17039704D01*
X39145495Y17037500D01*
X39145498Y17037500D01*
X40453505Y17037500D01*
X40475899Y17039263D01*
X40490831Y17040438D01*
X40490833Y17040439D01*
X40490835Y17040439D01*
X40532962Y17052679D01*
X40650601Y17086855D01*
X40793807Y17171547D01*
X40911453Y17289193D01*
X40996145Y17432399D01*
X41042562Y17592169D01*
X41043737Y17607101D01*
X41045500Y17629495D01*
X41045500Y18062505D01*
X41042562Y18099830D01*
X41042561Y18099836D01*
X40996146Y18259597D01*
X40996145Y18259601D01*
X40923522Y18382399D01*
X40911455Y18402804D01*
X40911448Y18402813D01*
X40793812Y18520449D01*
X40793803Y18520456D01*
X40650601Y18605145D01*
X40650596Y18605147D01*
X40490835Y18651562D01*
X40490829Y18651563D01*
X40453505Y18654500D01*
X40453502Y18654500D01*
X39294500Y18654500D01*
X39227461Y18674185D01*
X39181706Y18726989D01*
X39170500Y18778500D01*
X39170500Y18813500D01*
X39190185Y18880539D01*
X39242989Y18926294D01*
X39294500Y18937500D01*
X40453505Y18937500D01*
X40475899Y18939263D01*
X40490831Y18940438D01*
X40490833Y18940439D01*
X40490835Y18940439D01*
X40532962Y18952679D01*
X40650601Y18986855D01*
X40793807Y19071547D01*
X40911453Y19189193D01*
X40926997Y19215478D01*
X40978063Y19263160D01*
X41046805Y19275666D01*
X41111395Y19249022D01*
X41139846Y19216507D01*
X41212186Y19096842D01*
X41333841Y18975187D01*
X41333843Y18975186D01*
X41333845Y18975184D01*
X41481087Y18886173D01*
X41645351Y18834987D01*
X41716735Y18828500D01*
X42231264Y18828501D01*
X42231272Y18828501D01*
X42302645Y18834986D01*
X42302648Y18834987D01*
X42302649Y18834987D01*
X42466913Y18886173D01*
X42614155Y18975184D01*
X42717330Y19078360D01*
X42778651Y19111844D01*
X42848342Y19106860D01*
X42892691Y19078359D01*
X42989122Y18981928D01*
X43134604Y18893981D01*
X43134603Y18893981D01*
X43296894Y18843410D01*
X43296893Y18843410D01*
X43367408Y18837002D01*
X43367426Y18837001D01*
X43373999Y18837002D01*
X43374000Y18837002D01*
X43374000Y20787000D01*
X43373999Y20787001D01*
X43367436Y20787000D01*
X43367417Y20786999D01*
X43296897Y20780592D01*
X43296892Y20780591D01*
X43134603Y20730019D01*
X42989124Y20642074D01*
X42892691Y20545641D01*
X42831368Y20512157D01*
X42761676Y20517141D01*
X42717330Y20545641D01*
X42614155Y20648816D01*
X42466913Y20737827D01*
X42302649Y20789013D01*
X42302647Y20789014D01*
X42302645Y20789014D01*
X42252667Y20793556D01*
X42231265Y20795500D01*
X42231262Y20795500D01*
X41716727Y20795500D01*
X41645354Y20789015D01*
X41645344Y20789012D01*
X41481090Y20737829D01*
X41333841Y20648814D01*
X41212186Y20527159D01*
X41123171Y20379911D01*
X41115576Y20355537D01*
X41076837Y20297391D01*
X41012811Y20269419D01*
X40943826Y20280502D01*
X40909511Y20304750D01*
X40793812Y20420449D01*
X40793803Y20420456D01*
X40650601Y20505145D01*
X40650596Y20505147D01*
X40490835Y20551562D01*
X40490829Y20551563D01*
X40453505Y20554500D01*
X40453502Y20554500D01*
X39145498Y20554500D01*
X39145495Y20554500D01*
X39108170Y20551563D01*
X39108164Y20551562D01*
X38948403Y20505147D01*
X38948398Y20505145D01*
X38805196Y20420456D01*
X38805187Y20420449D01*
X38687551Y20302813D01*
X38687544Y20302804D01*
X38602855Y20159602D01*
X38602853Y20159597D01*
X38556438Y19999836D01*
X38556437Y19999830D01*
X38553500Y19962505D01*
X38553500Y19728500D01*
X38533815Y19661461D01*
X38481011Y19615706D01*
X38429500Y19604500D01*
X37270495Y19604500D01*
X37233170Y19601563D01*
X37233164Y19601562D01*
X37073403Y19555147D01*
X37073398Y19555145D01*
X36930196Y19470456D01*
X36924027Y19465670D01*
X36922516Y19467619D01*
X36871857Y19439956D01*
X36802165Y19444940D01*
X36746232Y19486812D01*
X36721815Y19552276D01*
X36721499Y19561122D01*
X36721499Y20073538D01*
X36721498Y20073554D01*
X36720599Y20082357D01*
X36710887Y20177426D01*
X36655115Y20345738D01*
X36562030Y20496652D01*
X36436652Y20622030D01*
X36285738Y20715115D01*
X36240757Y20730020D01*
X36117427Y20770887D01*
X36013546Y20781500D01*
X35262462Y20781500D01*
X35262446Y20781499D01*
X35158572Y20770887D01*
X34990264Y20715116D01*
X34990259Y20715114D01*
X34839346Y20622029D01*
X34713971Y20496654D01*
X34620886Y20345741D01*
X34620884Y20345736D01*
X34565113Y20177428D01*
X34554500Y20073553D01*
X34554500Y17772463D01*
X33771500Y17772463D01*
X33771499Y20073544D01*
X33760887Y20177426D01*
X33705115Y20345738D01*
X33612030Y20496652D01*
X33486652Y20622030D01*
X33335738Y20715115D01*
X33290757Y20730020D01*
X33167427Y20770887D01*
X33063546Y20781500D01*
X32312462Y20781500D01*
X32312446Y20781499D01*
X32208572Y20770887D01*
X32040264Y20715116D01*
X32040259Y20715114D01*
X31889346Y20622029D01*
X31763971Y20496654D01*
X31670886Y20345741D01*
X31670884Y20345736D01*
X31615113Y20177428D01*
X31604500Y20073553D01*
X31604500Y17772463D01*
X20668500Y17772463D01*
X20668500Y18348638D01*
X20668499Y18348655D01*
X20664870Y18382399D01*
X20661989Y18409201D01*
X20610889Y18546204D01*
X20523261Y18663261D01*
X20406204Y18750889D01*
X20406200Y18750891D01*
X20400659Y18752958D01*
X20344728Y18794833D01*
X20320315Y18860298D01*
X20320000Y18869137D01*
X20320000Y19930864D01*
X20339685Y19997903D01*
X20392489Y20043658D01*
X20400653Y20047041D01*
X20406204Y20049111D01*
X20523261Y20136739D01*
X20610889Y20253796D01*
X20661989Y20390799D01*
X20665591Y20424308D01*
X20668499Y20451346D01*
X20668500Y20451363D01*
X20668500Y22610000D01*
X36058001Y22610000D01*
X36058001Y21710014D01*
X36068494Y21607303D01*
X36123641Y21440881D01*
X36123643Y21440876D01*
X36215684Y21291655D01*
X36339654Y21167685D01*
X36488875Y21075644D01*
X36488880Y21075642D01*
X36655302Y21020495D01*
X36655309Y21020494D01*
X36758019Y21010001D01*
X36882999Y21010001D01*
X36883000Y21010002D01*
X36883000Y22610000D01*
X37383000Y22610000D01*
X37383000Y21010001D01*
X37507972Y21010001D01*
X37507986Y21010002D01*
X37610697Y21020495D01*
X37777119Y21075642D01*
X37777124Y21075644D01*
X37926345Y21167685D01*
X38050315Y21291655D01*
X38142356Y21440876D01*
X38142358Y21440881D01*
X38197505Y21607303D01*
X38197506Y21607310D01*
X38207943Y21709463D01*
X38999500Y21709463D01*
X38999501Y21709447D01*
X39009936Y21607310D01*
X39010113Y21605574D01*
X39065885Y21437262D01*
X39158970Y21286348D01*
X39284348Y21160970D01*
X39435262Y21067885D01*
X39603574Y21012113D01*
X39707455Y21001500D01*
X40458544Y21001501D01*
X40562426Y21012113D01*
X40730738Y21067885D01*
X40881652Y21160970D01*
X41007030Y21286348D01*
X41100115Y21437262D01*
X41155887Y21605574D01*
X41166500Y21709455D01*
X41166499Y24010544D01*
X41155887Y24114426D01*
X41100115Y24282738D01*
X41007030Y24433652D01*
X40881652Y24559030D01*
X40749898Y24640297D01*
X40730740Y24652114D01*
X40730735Y24652116D01*
X40562427Y24707887D01*
X40458546Y24718500D01*
X39707462Y24718500D01*
X39707446Y24718499D01*
X39603572Y24707887D01*
X39435264Y24652116D01*
X39435259Y24652114D01*
X39284346Y24559029D01*
X39158971Y24433654D01*
X39065886Y24282741D01*
X39065884Y24282736D01*
X39010113Y24114428D01*
X38999500Y24010553D01*
X38999500Y21709463D01*
X38207943Y21709463D01*
X38207999Y21710014D01*
X38208000Y21710027D01*
X38208000Y22610000D01*
X37383000Y22610000D01*
X36883000Y22610000D01*
X36058001Y22610000D01*
X20668500Y22610000D01*
X20668500Y24348638D01*
X20668499Y24348655D01*
X20665157Y24379730D01*
X20661989Y24409201D01*
X20656524Y24423852D01*
X20639522Y24469436D01*
X20610889Y24546204D01*
X20523261Y24663261D01*
X20406204Y24750889D01*
X20406200Y24750891D01*
X20400659Y24752958D01*
X20344728Y24794833D01*
X20320315Y24860298D01*
X20320000Y24869137D01*
X20320000Y25930864D01*
X20339685Y25997903D01*
X20392489Y26043658D01*
X20400653Y26047041D01*
X20406204Y26049111D01*
X20523261Y26136739D01*
X20610889Y26253796D01*
X20661989Y26390799D01*
X20668004Y26446746D01*
X20668499Y26451346D01*
X20668500Y26451363D01*
X20668500Y26510121D01*
X26829500Y26510121D01*
X26839764Y26409664D01*
X26893697Y26246902D01*
X26893702Y26246891D01*
X26983712Y26100964D01*
X26983715Y26100960D01*
X27104959Y25979716D01*
X27104963Y25979713D01*
X27250890Y25889703D01*
X27250893Y25889702D01*
X27250899Y25889698D01*
X27413664Y25835764D01*
X27514128Y25825500D01*
X27514133Y25825500D01*
X28111867Y25825500D01*
X28111872Y25825500D01*
X28212336Y25835764D01*
X28252563Y25849095D01*
X28322390Y25851497D01*
X28379248Y25819070D01*
X28413348Y25784970D01*
X28564262Y25691885D01*
X28732574Y25636113D01*
X28836455Y25625500D01*
X29837544Y25625501D01*
X29941426Y25636113D01*
X30109738Y25691885D01*
X30260652Y25784970D01*
X30260653Y25784972D01*
X30266799Y25788762D01*
X30268035Y25786758D01*
X30322357Y25808687D01*
X30391002Y25795662D01*
X30441708Y25747593D01*
X30458500Y25685283D01*
X30458500Y25437495D01*
X30461437Y25400171D01*
X30461438Y25400165D01*
X30507853Y25240404D01*
X30507855Y25240399D01*
X30592544Y25097197D01*
X30592551Y25097188D01*
X30710187Y24979552D01*
X30710196Y24979545D01*
X30802327Y24925059D01*
X30850011Y24873990D01*
X30850305Y24872373D01*
X30851470Y24873167D01*
X30921313Y24875085D01*
X30924253Y24874270D01*
X31013164Y24848439D01*
X31013167Y24848439D01*
X31013169Y24848438D01*
X31022501Y24847704D01*
X31050495Y24845500D01*
X31284606Y24845500D01*
X31351645Y24825815D01*
X31397400Y24773011D01*
X31407344Y24703853D01*
X31378319Y24640297D01*
X31348759Y24615386D01*
X31317110Y24596254D01*
X31299841Y24585814D01*
X31299840Y24585813D01*
X31202681Y24488653D01*
X31141358Y24455168D01*
X31071666Y24460152D01*
X31027319Y24488653D01*
X30930158Y24585814D01*
X30850768Y24633807D01*
X30825507Y24649078D01*
X30778320Y24700605D01*
X30778300Y24700721D01*
X30708712Y24698135D01*
X30702339Y24699935D01*
X30618649Y24726013D01*
X30618647Y24726014D01*
X30618645Y24726014D01*
X30568667Y24730556D01*
X30547265Y24732500D01*
X30547262Y24732500D01*
X30032727Y24732500D01*
X29961354Y24726015D01*
X29961344Y24726012D01*
X29797090Y24674829D01*
X29649841Y24585814D01*
X29528186Y24464159D01*
X29439173Y24316914D01*
X29387986Y24152646D01*
X29381500Y24081263D01*
X29381500Y23416728D01*
X29387985Y23345355D01*
X29387988Y23345345D01*
X29439171Y23181091D01*
X29439172Y23181089D01*
X29439173Y23181087D01*
X29528181Y23033850D01*
X29528186Y23033842D01*
X29649841Y22912187D01*
X29649843Y22912186D01*
X29649845Y22912184D01*
X29797087Y22823173D01*
X29961351Y22771987D01*
X30032735Y22765500D01*
X30547264Y22765501D01*
X30547272Y22765501D01*
X30618645Y22771986D01*
X30618648Y22771987D01*
X30618649Y22771987D01*
X30782913Y22823173D01*
X30930155Y22912184D01*
X30930158Y22912189D01*
X31027319Y23009347D01*
X31088642Y23042832D01*
X31158334Y23037848D01*
X31202681Y23009347D01*
X31299841Y22912187D01*
X31299843Y22912186D01*
X31299845Y22912184D01*
X31447087Y22823173D01*
X31611351Y22771987D01*
X31682735Y22765500D01*
X32197264Y22765501D01*
X32197272Y22765501D01*
X32268645Y22771986D01*
X32268648Y22771987D01*
X32268649Y22771987D01*
X32432913Y22823173D01*
X32580155Y22912184D01*
X32678320Y23010350D01*
X32739641Y23043833D01*
X32809333Y23038849D01*
X32853679Y23010350D01*
X32951845Y22912184D01*
X33099087Y22823173D01*
X33263351Y22771987D01*
X33334735Y22765500D01*
X33849264Y22765501D01*
X33849272Y22765501D01*
X33920645Y22771986D01*
X33920648Y22771987D01*
X33920649Y22771987D01*
X34084913Y22823173D01*
X34232155Y22912184D01*
X34232158Y22912189D01*
X34329319Y23009347D01*
X34390642Y23042832D01*
X34460334Y23037848D01*
X34504681Y23009347D01*
X34601841Y22912187D01*
X34601843Y22912186D01*
X34601845Y22912184D01*
X34749087Y22823173D01*
X34913351Y22771987D01*
X34984735Y22765500D01*
X35499264Y22765501D01*
X35499272Y22765501D01*
X35570645Y22771986D01*
X35570648Y22771987D01*
X35570649Y22771987D01*
X35734913Y22823173D01*
X35882155Y22912184D01*
X36003816Y23033845D01*
X36006236Y23037848D01*
X36013673Y23050149D01*
X36065200Y23097337D01*
X36119790Y23110000D01*
X38207999Y23110000D01*
X38207999Y24009972D01*
X38207998Y24009987D01*
X38197505Y24112698D01*
X38142358Y24279120D01*
X38142356Y24279125D01*
X38050315Y24428346D01*
X37926345Y24552316D01*
X37794227Y24633807D01*
X37747503Y24685755D01*
X37736280Y24754718D01*
X37764124Y24818800D01*
X37822193Y24857656D01*
X37824730Y24858423D01*
X37977197Y24902719D01*
X38118552Y24986315D01*
X38118561Y24986322D01*
X38234678Y25102439D01*
X38234685Y25102448D01*
X38318281Y25243802D01*
X38364100Y25401514D01*
X38364295Y25403999D01*
X38364295Y25404000D01*
X35419705Y25404000D01*
X35419704Y25403999D01*
X35419899Y25401514D01*
X35465718Y25243802D01*
X35549314Y25102448D01*
X35549321Y25102439D01*
X35665438Y24986322D01*
X35665446Y24986316D01*
X35785396Y24915378D01*
X35809120Y24889969D01*
X35846974Y24891008D01*
X35849914Y24890193D01*
X35964504Y24856901D01*
X35964510Y24856900D01*
X36001356Y24854000D01*
X36391524Y24854000D01*
X36458563Y24834315D01*
X36504318Y24781511D01*
X36514262Y24712353D01*
X36485237Y24648797D01*
X36456621Y24624461D01*
X36339654Y24552316D01*
X36210576Y24423237D01*
X36208700Y24425113D01*
X36161721Y24391864D01*
X36091921Y24388742D01*
X36031514Y24423852D01*
X36015393Y24445004D01*
X36003816Y24464155D01*
X36003812Y24464159D01*
X36003811Y24464161D01*
X35882158Y24585814D01*
X35751169Y24665000D01*
X35728443Y24689817D01*
X35691781Y24688454D01*
X35685386Y24690260D01*
X35570649Y24726013D01*
X35499265Y24732500D01*
X35499262Y24732500D01*
X34984727Y24732500D01*
X34913354Y24726015D01*
X34913344Y24726012D01*
X34749090Y24674829D01*
X34601841Y24585814D01*
X34601840Y24585813D01*
X34504681Y24488653D01*
X34443358Y24455168D01*
X34373666Y24460152D01*
X34329319Y24488653D01*
X34232158Y24585814D01*
X34142032Y24640297D01*
X34084913Y24674827D01*
X33920649Y24726013D01*
X33920647Y24726014D01*
X33920645Y24726014D01*
X33870667Y24730556D01*
X33849265Y24732500D01*
X33849262Y24732500D01*
X33334727Y24732500D01*
X33263354Y24726015D01*
X33263349Y24726014D01*
X33183911Y24701260D01*
X33114051Y24700110D01*
X33103760Y24706487D01*
X33103138Y24702243D01*
X33057233Y24649570D01*
X33054642Y24647960D01*
X32951844Y24585816D01*
X32951840Y24585813D01*
X32853681Y24487653D01*
X32792358Y24454168D01*
X32722666Y24459152D01*
X32678319Y24487653D01*
X32580158Y24585814D01*
X32580155Y24585816D01*
X32531242Y24615385D01*
X32484057Y24666911D01*
X32472218Y24735770D01*
X32499487Y24800099D01*
X32557205Y24839473D01*
X32595394Y24845500D01*
X32833505Y24845500D01*
X32855899Y24847263D01*
X32870831Y24848438D01*
X32955897Y24873152D01*
X33025765Y24872953D01*
X33033245Y24868116D01*
X33033395Y24869293D01*
X33078274Y24922844D01*
X33083852Y24926349D01*
X33173807Y24979547D01*
X33291453Y25097193D01*
X33376145Y25240399D01*
X33422562Y25400169D01*
X33425500Y25437498D01*
X33425500Y25870502D01*
X33425291Y25873152D01*
X33423296Y25898499D01*
X33422562Y25907831D01*
X33415870Y25930864D01*
X33381516Y26049112D01*
X33376145Y26067601D01*
X33294558Y26205557D01*
X33291456Y26210803D01*
X33289755Y26212995D01*
X33288956Y26215030D01*
X33287482Y26217522D01*
X33287883Y26217760D01*
X33264217Y26278030D01*
X33277894Y26346548D01*
X33289755Y26365005D01*
X33291449Y26367190D01*
X33291453Y26367193D01*
X33376145Y26510399D01*
X33422562Y26670169D01*
X33425500Y26707498D01*
X33425500Y27140502D01*
X33422562Y27177831D01*
X33422146Y27179262D01*
X33376146Y27337597D01*
X33376145Y27337601D01*
X33291453Y27480807D01*
X33291450Y27480810D01*
X33289751Y27483001D01*
X33288951Y27485037D01*
X33287482Y27487522D01*
X33287882Y27487760D01*
X33264217Y27548038D01*
X33277897Y27616555D01*
X33289760Y27635012D01*
X33291445Y27637186D01*
X33291453Y27637193D01*
X33376145Y27780399D01*
X33422562Y27940169D01*
X33425500Y27977498D01*
X33425500Y28410502D01*
X33422562Y28447831D01*
X33414479Y28475652D01*
X33378053Y28601032D01*
X33376145Y28607601D01*
X33291453Y28750807D01*
X33291450Y28750810D01*
X33289751Y28753001D01*
X33288951Y28755037D01*
X33287482Y28757522D01*
X33287882Y28757760D01*
X33264217Y28818038D01*
X33277897Y28886555D01*
X33289760Y28905012D01*
X33291445Y28907186D01*
X33291453Y28907193D01*
X33376145Y29050399D01*
X33422562Y29210169D01*
X33425500Y29247498D01*
X33425500Y29680502D01*
X33422562Y29717831D01*
X33376145Y29877601D01*
X33291453Y30020807D01*
X33291451Y30020809D01*
X33291448Y30020813D01*
X33173812Y30138449D01*
X33173803Y30138456D01*
X33030601Y30223145D01*
X33030596Y30223147D01*
X32870835Y30269562D01*
X32870829Y30269563D01*
X32833505Y30272500D01*
X32833502Y30272500D01*
X32142661Y30272500D01*
X32075622Y30292185D01*
X32029867Y30344989D01*
X32019923Y30414147D01*
X32048948Y30477703D01*
X32077560Y30502037D01*
X32153652Y30548970D01*
X32279030Y30674348D01*
X32372115Y30825262D01*
X32427887Y30993574D01*
X32438500Y31097455D01*
X32438500Y31097463D01*
X32712500Y31097463D01*
X32712501Y31097447D01*
X32723113Y30993573D01*
X32767275Y30860298D01*
X32778885Y30825262D01*
X32871970Y30674348D01*
X32997348Y30548970D01*
X33148262Y30455885D01*
X33316574Y30400113D01*
X33420455Y30389500D01*
X34021544Y30389501D01*
X34125426Y30400113D01*
X34293738Y30455885D01*
X34444652Y30548970D01*
X34570030Y30674348D01*
X34570032Y30674353D01*
X34573732Y30679030D01*
X34630753Y30719409D01*
X34700552Y30722549D01*
X34760968Y30687455D01*
X34768268Y30679030D01*
X34771969Y30674349D01*
X34771970Y30674348D01*
X34897348Y30548970D01*
X35048262Y30455885D01*
X35216574Y30400113D01*
X35320455Y30389500D01*
X35631424Y30389501D01*
X35698462Y30369817D01*
X35744217Y30317013D01*
X35754161Y30247854D01*
X35725136Y30184299D01*
X35694545Y30158770D01*
X35660198Y30138458D01*
X35660187Y30138449D01*
X35542551Y30020813D01*
X35542544Y30020804D01*
X35457855Y29877602D01*
X35457853Y29877597D01*
X35411438Y29717836D01*
X35411437Y29717830D01*
X35408500Y29680505D01*
X35408500Y29247495D01*
X35411437Y29210171D01*
X35411438Y29210165D01*
X35457853Y29050404D01*
X35457855Y29050399D01*
X35542547Y28907192D01*
X35544249Y28904998D01*
X35545047Y28902966D01*
X35546518Y28900478D01*
X35546116Y28900241D01*
X35569783Y28839961D01*
X35556101Y28771444D01*
X35544249Y28753002D01*
X35542547Y28750809D01*
X35457855Y28607602D01*
X35457853Y28607597D01*
X35411438Y28447836D01*
X35411437Y28447830D01*
X35408500Y28410505D01*
X35408500Y27977495D01*
X35411437Y27940171D01*
X35411438Y27940165D01*
X35457853Y27780404D01*
X35457855Y27780399D01*
X35542547Y27637192D01*
X35544249Y27634998D01*
X35545047Y27632966D01*
X35546518Y27630478D01*
X35546116Y27630241D01*
X35569783Y27569961D01*
X35556101Y27501444D01*
X35544249Y27483002D01*
X35542547Y27480809D01*
X35457855Y27337602D01*
X35457853Y27337597D01*
X35411438Y27177836D01*
X35411437Y27177830D01*
X35408500Y27140505D01*
X35408500Y26707495D01*
X35411437Y26670171D01*
X35411438Y26670165D01*
X35457853Y26510404D01*
X35457855Y26510399D01*
X35542544Y26367197D01*
X35547330Y26361027D01*
X35545416Y26359543D01*
X35573151Y26308750D01*
X35568167Y26239058D01*
X35553252Y26212292D01*
X35553288Y26212271D01*
X35552482Y26210909D01*
X35549969Y26206398D01*
X35549319Y26205561D01*
X35465718Y26064199D01*
X35419899Y25906487D01*
X35419704Y25904002D01*
X35419705Y25904000D01*
X38364295Y25904000D01*
X38364295Y25904002D01*
X38364100Y25906487D01*
X38318281Y26064199D01*
X38234683Y26205557D01*
X38234031Y26206397D01*
X38233725Y26207176D01*
X38230712Y26212271D01*
X38231534Y26212758D01*
X38208499Y26271435D01*
X38222182Y26339952D01*
X38237318Y26360532D01*
X38236673Y26361032D01*
X38241445Y26367186D01*
X38241453Y26367193D01*
X38326145Y26510399D01*
X38372562Y26670169D01*
X38375500Y26707498D01*
X38375500Y26903457D01*
X38395185Y26970496D01*
X38447989Y27016251D01*
X38517147Y27026195D01*
X38580703Y26997170D01*
X38587153Y26991165D01*
X38675348Y26902970D01*
X38826262Y26809885D01*
X38994574Y26754113D01*
X39098455Y26743500D01*
X40149544Y26743501D01*
X40253426Y26754113D01*
X40421738Y26809885D01*
X40572652Y26902970D01*
X40577316Y26907635D01*
X40638636Y26941121D01*
X40708328Y26936140D01*
X40752681Y26907637D01*
X40859348Y26800970D01*
X41010262Y26707885D01*
X41178574Y26652113D01*
X41282455Y26641500D01*
X42283544Y26641501D01*
X42387426Y26652113D01*
X42555738Y26707885D01*
X42706652Y26800970D01*
X42832030Y26926348D01*
X42925115Y27077262D01*
X42980887Y27245574D01*
X42991500Y27349455D01*
X42991499Y27975544D01*
X42980887Y28079426D01*
X42925115Y28247738D01*
X42832030Y28398652D01*
X42743363Y28487319D01*
X42709878Y28548642D01*
X42714862Y28618334D01*
X42743363Y28662681D01*
X42782682Y28702000D01*
X42832030Y28751348D01*
X42925115Y28902262D01*
X42980887Y29070574D01*
X42991500Y29174455D01*
X42991499Y29800544D01*
X42980887Y29904426D01*
X42925115Y30072738D01*
X42832030Y30223652D01*
X42706652Y30349030D01*
X42555738Y30442115D01*
X42490767Y30463644D01*
X42387427Y30497887D01*
X42283546Y30508500D01*
X41282462Y30508500D01*
X41282446Y30508499D01*
X41178572Y30497887D01*
X41010264Y30442116D01*
X41010259Y30442114D01*
X40858984Y30348806D01*
X40791591Y30330366D01*
X40724928Y30351289D01*
X40703589Y30370998D01*
X40703137Y30370545D01*
X40572653Y30501029D01*
X40572652Y30501030D01*
X40421738Y30594115D01*
X40421735Y30594116D01*
X40253427Y30649887D01*
X40149546Y30660500D01*
X39098462Y30660500D01*
X39098446Y30660499D01*
X38994572Y30649887D01*
X38826264Y30594116D01*
X38826259Y30594114D01*
X38675346Y30501029D01*
X38549971Y30375654D01*
X38456886Y30224741D01*
X38456884Y30224736D01*
X38415744Y30100581D01*
X38375972Y30043136D01*
X38311456Y30016313D01*
X38242680Y30028628D01*
X38210357Y30051904D01*
X38123812Y30138449D01*
X38123803Y30138456D01*
X37980601Y30223145D01*
X37980596Y30223147D01*
X37820835Y30269562D01*
X37820829Y30269563D01*
X37783505Y30272500D01*
X37783502Y30272500D01*
X36333661Y30272500D01*
X36266622Y30292185D01*
X36220867Y30344989D01*
X36210923Y30414147D01*
X36239948Y30477703D01*
X36268560Y30502037D01*
X36344652Y30548970D01*
X36470030Y30674348D01*
X36563115Y30825262D01*
X36618887Y30993574D01*
X36629500Y31097455D01*
X36629499Y32148544D01*
X36618887Y32252426D01*
X36563115Y32420738D01*
X36470030Y32571652D01*
X36344652Y32697030D01*
X36223165Y32771965D01*
X36176443Y32823910D01*
X36165220Y32892873D01*
X36193064Y32956955D01*
X36251132Y32995811D01*
X36288263Y33001501D01*
X36456544Y33001501D01*
X36560426Y33012113D01*
X36728738Y33067885D01*
X36879652Y33160970D01*
X37005030Y33286348D01*
X37098115Y33437262D01*
X37153887Y33605574D01*
X37164500Y33709455D01*
X37164499Y34460544D01*
X37153887Y34564426D01*
X37098115Y34732738D01*
X37005030Y34883652D01*
X36879652Y35009030D01*
X36728738Y35102115D01*
X36640632Y35131310D01*
X36560427Y35157887D01*
X36456545Y35168500D01*
X34155462Y35168500D01*
X34155446Y35168499D01*
X34051572Y35157887D01*
X33883264Y35102116D01*
X33883259Y35102114D01*
X33732346Y35009029D01*
X33606971Y34883654D01*
X33513886Y34732741D01*
X33513884Y34732736D01*
X33458113Y34564428D01*
X33447500Y34460553D01*
X33447500Y33709463D01*
X33447501Y33709447D01*
X33458113Y33605573D01*
X33500667Y33477153D01*
X33513885Y33437262D01*
X33606970Y33286348D01*
X33732348Y33160970D01*
X33853832Y33086038D01*
X33900555Y33034091D01*
X33911778Y32965128D01*
X33883934Y32901046D01*
X33825865Y32862190D01*
X33788734Y32856500D01*
X33420462Y32856500D01*
X33420446Y32856499D01*
X33316572Y32845887D01*
X33148264Y32790116D01*
X33148259Y32790114D01*
X32997346Y32697029D01*
X32871971Y32571654D01*
X32778886Y32420741D01*
X32778884Y32420736D01*
X32723113Y32252428D01*
X32712500Y32148553D01*
X32712500Y31097463D01*
X32438500Y31097463D01*
X32438499Y32148544D01*
X32427887Y32252426D01*
X32372115Y32420738D01*
X32279030Y32571652D01*
X32153652Y32697030D01*
X32015316Y32782357D01*
X32002740Y32790114D01*
X32002735Y32790116D01*
X31834427Y32845887D01*
X31730546Y32856500D01*
X31129462Y32856500D01*
X31129446Y32856499D01*
X31025572Y32845887D01*
X30857264Y32790116D01*
X30857259Y32790114D01*
X30706346Y32697029D01*
X30580970Y32571653D01*
X30580968Y32571650D01*
X30580541Y32570957D01*
X30580123Y32570582D01*
X30576489Y32565985D01*
X30575703Y32566607D01*
X30528591Y32524236D01*
X30459627Y32513017D01*
X30395547Y32540864D01*
X30377739Y32561422D01*
X30376798Y32560677D01*
X30372316Y32566345D01*
X30248345Y32690316D01*
X30099124Y32782357D01*
X30099119Y32782359D01*
X29932697Y32837506D01*
X29932690Y32837507D01*
X29829986Y32848000D01*
X29780000Y32848000D01*
X29780000Y30398001D01*
X29829972Y30398001D01*
X29829986Y30398002D01*
X29932697Y30408495D01*
X30099119Y30463642D01*
X30099124Y30463644D01*
X30248345Y30555685D01*
X30372316Y30679656D01*
X30376798Y30685323D01*
X30378991Y30683589D01*
X30421357Y30721735D01*
X30490314Y30732992D01*
X30554410Y30705182D01*
X30576334Y30679894D01*
X30576489Y30680015D01*
X30579183Y30676608D01*
X30580545Y30675037D01*
X30580970Y30674348D01*
X30706348Y30548970D01*
X30857262Y30455885D01*
X30857266Y30455884D01*
X30863805Y30452835D01*
X30862487Y30450009D01*
X30908446Y30418202D01*
X30935282Y30353691D01*
X30922981Y30284913D01*
X30875448Y30233703D01*
X30860202Y30227072D01*
X30860561Y30226244D01*
X30853398Y30223145D01*
X30710196Y30138456D01*
X30710187Y30138449D01*
X30592551Y30020813D01*
X30592544Y30020804D01*
X30507855Y29877602D01*
X30507853Y29877597D01*
X30461438Y29717836D01*
X30461437Y29717830D01*
X30458500Y29680505D01*
X30458500Y29432718D01*
X30438815Y29365679D01*
X30386011Y29319924D01*
X30316853Y29309980D01*
X30267898Y29331021D01*
X30266799Y29329238D01*
X30260653Y29333029D01*
X30260652Y29333030D01*
X30109738Y29426115D01*
X30089811Y29432718D01*
X29941427Y29481887D01*
X29837546Y29492500D01*
X28836462Y29492500D01*
X28836446Y29492499D01*
X28732572Y29481887D01*
X28564264Y29426116D01*
X28564259Y29426114D01*
X28413346Y29333029D01*
X28379246Y29298930D01*
X28317922Y29265446D01*
X28252564Y29268907D01*
X28212338Y29282236D01*
X28111879Y29292500D01*
X28111872Y29292500D01*
X27514128Y29292500D01*
X27514120Y29292500D01*
X27413663Y29282236D01*
X27250901Y29228303D01*
X27250890Y29228298D01*
X27104963Y29138288D01*
X27104959Y29138285D01*
X26983715Y29017041D01*
X26983712Y29017037D01*
X26893702Y28871110D01*
X26893697Y28871099D01*
X26839764Y28708337D01*
X26829500Y28607880D01*
X26829500Y28060121D01*
X26839764Y27959664D01*
X26893697Y27796902D01*
X26893702Y27796891D01*
X26983712Y27650964D01*
X26983715Y27650960D01*
X26987994Y27646681D01*
X27021479Y27585358D01*
X27016495Y27515666D01*
X26987994Y27471319D01*
X26983715Y27467041D01*
X26983712Y27467037D01*
X26893702Y27321110D01*
X26893697Y27321099D01*
X26839764Y27158337D01*
X26829500Y27057880D01*
X26829500Y26510121D01*
X20668500Y26510121D01*
X20668500Y30348638D01*
X20668499Y30348655D01*
X20663193Y30398001D01*
X20661989Y30409201D01*
X20660144Y30414147D01*
X20628910Y30497887D01*
X20610889Y30546204D01*
X20523261Y30663261D01*
X20406204Y30750889D01*
X20406200Y30750891D01*
X20400659Y30752958D01*
X20344728Y30794833D01*
X20320315Y30860298D01*
X20320000Y30869137D01*
X20320000Y31373000D01*
X28530001Y31373000D01*
X28530001Y31098014D01*
X28540494Y30995303D01*
X28595641Y30828881D01*
X28595643Y30828876D01*
X28687684Y30679655D01*
X28811654Y30555685D01*
X28960875Y30463644D01*
X28960880Y30463642D01*
X29127302Y30408495D01*
X29127309Y30408494D01*
X29230019Y30398001D01*
X29279999Y30398002D01*
X29280000Y30398002D01*
X29280000Y31373000D01*
X28530001Y31373000D01*
X20320000Y31373000D01*
X20320000Y31930864D01*
X20339685Y31997903D01*
X20392489Y32043658D01*
X20400653Y32047041D01*
X20406204Y32049111D01*
X20523261Y32136739D01*
X20610889Y32253796D01*
X20661989Y32390799D01*
X20666604Y32433728D01*
X21380500Y32433728D01*
X21386985Y32362355D01*
X21386988Y32362345D01*
X21438171Y32198091D01*
X21438172Y32198089D01*
X21438173Y32198087D01*
X21521751Y32059832D01*
X21527186Y32050842D01*
X21648841Y31929187D01*
X21648843Y31929186D01*
X21648845Y31929184D01*
X21796087Y31840173D01*
X21960351Y31788987D01*
X22031735Y31782500D01*
X22546264Y31782501D01*
X22546272Y31782501D01*
X22617645Y31788986D01*
X22617648Y31788987D01*
X22617649Y31788987D01*
X22781913Y31840173D01*
X22929155Y31929184D01*
X22939686Y31939715D01*
X23026319Y32026347D01*
X23087642Y32059832D01*
X23157334Y32054848D01*
X23201681Y32026347D01*
X23298841Y31929187D01*
X23298843Y31929186D01*
X23298845Y31929184D01*
X23446087Y31840173D01*
X23610351Y31788987D01*
X23681735Y31782500D01*
X24196264Y31782501D01*
X24196272Y31782501D01*
X24267645Y31788986D01*
X24267648Y31788987D01*
X24267649Y31788987D01*
X24431913Y31840173D01*
X24579155Y31929184D01*
X24700816Y32050845D01*
X24789827Y32198087D01*
X24841013Y32362351D01*
X24847500Y32433735D01*
X24847500Y32439463D01*
X26248500Y32439463D01*
X26248501Y32439447D01*
X26256378Y32362345D01*
X26259113Y32335574D01*
X26314885Y32167262D01*
X26407970Y32016348D01*
X26533348Y31890970D01*
X26684262Y31797885D01*
X26852574Y31742113D01*
X26956455Y31731500D01*
X27907544Y31731501D01*
X28011426Y31742113D01*
X28179738Y31797885D01*
X28330652Y31890970D01*
X28333658Y31893977D01*
X28336230Y31895381D01*
X28336315Y31895448D01*
X28336326Y31895434D01*
X28394975Y31927463D01*
X28464667Y31922482D01*
X28509023Y31893978D01*
X28530001Y31873000D01*
X29280000Y31873000D01*
X29280000Y32848000D01*
X29279999Y32848001D01*
X29230029Y32848000D01*
X29230011Y32847999D01*
X29127302Y32837506D01*
X28960880Y32782359D01*
X28960875Y32782357D01*
X28805509Y32686525D01*
X28803958Y32689039D01*
X28751537Y32667929D01*
X28682903Y32681012D01*
X28632238Y32729125D01*
X28615499Y32791341D01*
X28615499Y33440544D01*
X28604887Y33544426D01*
X28549115Y33712738D01*
X28456030Y33863652D01*
X28330652Y33989030D01*
X28179738Y34082115D01*
X28179735Y34082116D01*
X28011427Y34137887D01*
X27907546Y34148500D01*
X26956462Y34148500D01*
X26956446Y34148499D01*
X26852572Y34137887D01*
X26684264Y34082116D01*
X26684259Y34082114D01*
X26533346Y33989029D01*
X26407971Y33863654D01*
X26314886Y33712741D01*
X26314884Y33712736D01*
X26259113Y33544428D01*
X26248500Y33440553D01*
X26248500Y32439463D01*
X24847500Y32439463D01*
X24847499Y33098264D01*
X24847499Y33098265D01*
X24847499Y33098273D01*
X24841014Y33169646D01*
X24841011Y33169656D01*
X24789828Y33333910D01*
X24789827Y33333911D01*
X24789827Y33333913D01*
X24700816Y33481155D01*
X24700814Y33481157D01*
X24700813Y33481159D01*
X24579158Y33602814D01*
X24574592Y33605574D01*
X24431913Y33691827D01*
X24267649Y33743013D01*
X24267647Y33743014D01*
X24267645Y33743014D01*
X24217667Y33747556D01*
X24196265Y33749500D01*
X24196262Y33749500D01*
X23681727Y33749500D01*
X23610354Y33743015D01*
X23610344Y33743012D01*
X23446090Y33691829D01*
X23298843Y33602815D01*
X23201681Y33505653D01*
X23140358Y33472169D01*
X23070666Y33477153D01*
X23026319Y33505653D01*
X22929156Y33602815D01*
X22929155Y33602816D01*
X22781913Y33691827D01*
X22617649Y33743013D01*
X22617647Y33743014D01*
X22617645Y33743014D01*
X22567667Y33747556D01*
X22546265Y33749500D01*
X22546262Y33749500D01*
X22031727Y33749500D01*
X21960354Y33743015D01*
X21960344Y33743012D01*
X21796090Y33691829D01*
X21648841Y33602814D01*
X21527186Y33481159D01*
X21438173Y33333914D01*
X21386986Y33169646D01*
X21380500Y33098263D01*
X21380500Y32433728D01*
X20666604Y32433728D01*
X20666605Y32433736D01*
X20668499Y32451346D01*
X20668500Y32451363D01*
X20668500Y35484000D01*
X23971001Y35484000D01*
X23971001Y35234014D01*
X23981494Y35131303D01*
X24036641Y34964881D01*
X24036643Y34964876D01*
X24128684Y34815655D01*
X24252654Y34691685D01*
X24401875Y34599644D01*
X24401880Y34599642D01*
X24568302Y34544495D01*
X24568309Y34544494D01*
X24671019Y34534001D01*
X24895999Y34534001D01*
X24896000Y34534002D01*
X24896000Y35484000D01*
X25396000Y35484000D01*
X25396000Y34534001D01*
X25620972Y34534001D01*
X25620986Y34534002D01*
X25723697Y34544495D01*
X25890119Y34599642D01*
X25890124Y34599644D01*
X26039345Y34691685D01*
X26168424Y34820763D01*
X26169688Y34819499D01*
X26219128Y34854514D01*
X26288927Y34857661D01*
X26349346Y34822571D01*
X26364923Y34802328D01*
X26414680Y34721660D01*
X26414683Y34721656D01*
X26538654Y34597685D01*
X26687875Y34505644D01*
X26687880Y34505642D01*
X26854302Y34450495D01*
X26854309Y34450494D01*
X26957019Y34440001D01*
X27181999Y34440001D01*
X27182000Y34440002D01*
X27182000Y35390000D01*
X27682000Y35390000D01*
X27682000Y34440001D01*
X27906972Y34440001D01*
X27906986Y34440002D01*
X28009697Y34450495D01*
X28176119Y34505642D01*
X28176124Y34505644D01*
X28325345Y34597685D01*
X28449315Y34721655D01*
X28541356Y34870876D01*
X28541358Y34870881D01*
X28596505Y35037303D01*
X28596506Y35037310D01*
X28606999Y35140014D01*
X28607000Y35140027D01*
X28607000Y35390000D01*
X27682000Y35390000D01*
X27182000Y35390000D01*
X26341000Y35390000D01*
X26273961Y35409685D01*
X26228206Y35462489D01*
X26225340Y35475660D01*
X26217000Y35484000D01*
X29178001Y35484000D01*
X29178001Y35234014D01*
X29188494Y35131303D01*
X29243641Y34964881D01*
X29243643Y34964876D01*
X29335684Y34815655D01*
X29459654Y34691685D01*
X29608875Y34599644D01*
X29608880Y34599642D01*
X29775302Y34544495D01*
X29775309Y34544494D01*
X29878019Y34534001D01*
X30102999Y34534001D01*
X30103000Y34534002D01*
X30103000Y35484000D01*
X30603000Y35484000D01*
X30603000Y34534001D01*
X30827972Y34534001D01*
X30827986Y34534002D01*
X30930697Y34544495D01*
X31097119Y34599642D01*
X31097124Y34599644D01*
X31246345Y34691685D01*
X31370315Y34815655D01*
X31462356Y34964876D01*
X31462358Y34964881D01*
X31517505Y35131303D01*
X31517506Y35131310D01*
X31527999Y35234014D01*
X31528000Y35234027D01*
X31528000Y35484000D01*
X30603000Y35484000D01*
X30103000Y35484000D01*
X29178001Y35484000D01*
X26217000Y35484000D01*
X25396000Y35484000D01*
X24896000Y35484000D01*
X23971001Y35484000D01*
X20668500Y35484000D01*
X20668500Y35984000D01*
X23971000Y35984000D01*
X24896000Y35984000D01*
X24896000Y36934000D01*
X25396000Y36934000D01*
X25396000Y35984000D01*
X26237000Y35984000D01*
X26304039Y35964315D01*
X26349794Y35911511D01*
X26352659Y35898341D01*
X26361000Y35890000D01*
X27182000Y35890000D01*
X27182000Y36840000D01*
X27682000Y36840000D01*
X27682000Y35890000D01*
X28606999Y35890000D01*
X28606999Y35984000D01*
X29178000Y35984000D01*
X30103000Y35984000D01*
X30103000Y36934000D01*
X29878029Y36934000D01*
X29878012Y36933999D01*
X29775302Y36923506D01*
X29608880Y36868359D01*
X29608875Y36868357D01*
X29459654Y36776316D01*
X29335684Y36652346D01*
X29243643Y36503125D01*
X29243641Y36503120D01*
X29188494Y36336698D01*
X29188493Y36336691D01*
X29178000Y36233987D01*
X29178000Y35984000D01*
X28606999Y35984000D01*
X28606999Y36139972D01*
X28606998Y36139987D01*
X28596505Y36242698D01*
X28541358Y36409120D01*
X28541356Y36409125D01*
X28449315Y36558346D01*
X28325345Y36682316D01*
X28176124Y36774357D01*
X28176119Y36774359D01*
X28009697Y36829506D01*
X28009690Y36829507D01*
X27906986Y36840000D01*
X27682000Y36840000D01*
X27182000Y36840000D01*
X26957029Y36840000D01*
X26957012Y36839999D01*
X26854302Y36829506D01*
X26687880Y36774359D01*
X26687875Y36774357D01*
X26538654Y36682316D01*
X26409576Y36553237D01*
X26408315Y36554498D01*
X26358840Y36519476D01*
X26289040Y36516348D01*
X26228630Y36551454D01*
X26213075Y36571673D01*
X26163315Y36652346D01*
X26039345Y36776316D01*
X25890124Y36868357D01*
X25890119Y36868359D01*
X25723697Y36923506D01*
X25723690Y36923507D01*
X25620986Y36934000D01*
X25396000Y36934000D01*
X24896000Y36934000D01*
X24671029Y36934000D01*
X24671012Y36933999D01*
X24568302Y36923506D01*
X24401880Y36868359D01*
X24401875Y36868357D01*
X24252654Y36776316D01*
X24128684Y36652346D01*
X24036643Y36503125D01*
X24036641Y36503120D01*
X23981494Y36336698D01*
X23981493Y36336691D01*
X23971000Y36233987D01*
X23971000Y35984000D01*
X20668500Y35984000D01*
X20668500Y36348638D01*
X20668499Y36348655D01*
X20664348Y36387260D01*
X20661989Y36409201D01*
X20610889Y36546204D01*
X20523261Y36663261D01*
X20406204Y36750889D01*
X20406200Y36750891D01*
X20400659Y36752958D01*
X20344728Y36794833D01*
X20320315Y36860298D01*
X20320000Y36869137D01*
X20320000Y37930864D01*
X20339685Y37997903D01*
X20392489Y38043658D01*
X20400653Y38047041D01*
X20406204Y38049111D01*
X20482343Y38106109D01*
X20547804Y38130525D01*
X20616078Y38115674D01*
X20665483Y38066269D01*
X20675037Y38043732D01*
X20676173Y38040087D01*
X20738992Y37936172D01*
X20765186Y37892842D01*
X20886841Y37771187D01*
X20886843Y37771186D01*
X20886845Y37771184D01*
X21034087Y37682173D01*
X21198351Y37630987D01*
X21269735Y37624500D01*
X21784264Y37624501D01*
X21784272Y37624501D01*
X21855645Y37630986D01*
X21855648Y37630987D01*
X21855649Y37630987D01*
X22019913Y37682173D01*
X22167155Y37771184D01*
X22203439Y37807468D01*
X22264319Y37868347D01*
X22325642Y37901832D01*
X22395334Y37896848D01*
X22439681Y37868347D01*
X22536841Y37771187D01*
X22536843Y37771186D01*
X22536845Y37771184D01*
X22684087Y37682173D01*
X22848351Y37630987D01*
X22919735Y37624500D01*
X23434264Y37624501D01*
X23434272Y37624501D01*
X23505645Y37630986D01*
X23505648Y37630987D01*
X23505649Y37630987D01*
X23669913Y37682173D01*
X23817155Y37771184D01*
X23817162Y37771192D01*
X23817584Y37771521D01*
X23817957Y37771670D01*
X23823574Y37775065D01*
X23824138Y37774132D01*
X23882495Y37797373D01*
X23951078Y37784028D01*
X24001559Y37735722D01*
X24011767Y37712920D01*
X24028885Y37661262D01*
X24121970Y37510348D01*
X24247348Y37384970D01*
X24398262Y37291885D01*
X24566574Y37236113D01*
X24670455Y37225500D01*
X25621544Y37225501D01*
X25725426Y37236113D01*
X25893738Y37291885D01*
X26044652Y37384970D01*
X26170030Y37510348D01*
X26240326Y37624317D01*
X26292272Y37671039D01*
X26361234Y37682262D01*
X26382742Y37677607D01*
X26532351Y37630987D01*
X26603735Y37624500D01*
X27118264Y37624501D01*
X27118272Y37624501D01*
X27189645Y37630986D01*
X27189648Y37630987D01*
X27189649Y37630987D01*
X27353913Y37682173D01*
X27501155Y37771184D01*
X27537439Y37807468D01*
X27598319Y37868347D01*
X27659642Y37901832D01*
X27729334Y37896848D01*
X27773681Y37868347D01*
X27870841Y37771187D01*
X27870843Y37771186D01*
X27870845Y37771184D01*
X28018087Y37682173D01*
X28182351Y37630987D01*
X28253735Y37624500D01*
X28768264Y37624501D01*
X28768272Y37624501D01*
X28839645Y37630986D01*
X28839648Y37630987D01*
X28839649Y37630987D01*
X28968420Y37671113D01*
X29003910Y37682172D01*
X29003910Y37682173D01*
X29003913Y37682173D01*
X29059095Y37715532D01*
X29126646Y37733368D01*
X29193120Y37711851D01*
X29231294Y37666916D01*
X29232094Y37667409D01*
X29235323Y37662173D01*
X29235626Y37661817D01*
X29235882Y37661267D01*
X29235884Y37661263D01*
X29235885Y37661262D01*
X29328970Y37510348D01*
X29454348Y37384970D01*
X29605262Y37291885D01*
X29773574Y37236113D01*
X29877455Y37225500D01*
X30828544Y37225501D01*
X30932426Y37236113D01*
X31100738Y37291885D01*
X31109936Y37297559D01*
X31177325Y37316001D01*
X31243990Y37295081D01*
X31288762Y37241441D01*
X31296616Y37178591D01*
X31298182Y37178431D01*
X31287000Y37068987D01*
X31287000Y36973415D01*
X31267315Y36906376D01*
X31214511Y36860621D01*
X31145353Y36850677D01*
X31103862Y36865717D01*
X31103670Y36865304D01*
X31099029Y36867468D01*
X31097906Y36867875D01*
X31097131Y36868353D01*
X31097119Y36868359D01*
X30930697Y36923506D01*
X30930690Y36923507D01*
X30827986Y36934000D01*
X30603000Y36934000D01*
X30603000Y35984000D01*
X31461676Y35984000D01*
X31528715Y35964315D01*
X31547924Y35942146D01*
X31550559Y35944780D01*
X31568654Y35926685D01*
X31717875Y35834644D01*
X31717880Y35834642D01*
X31884302Y35779495D01*
X31884309Y35779494D01*
X31987019Y35769001D01*
X32261999Y35769001D01*
X32262000Y35769002D01*
X32262000Y36895000D01*
X32281685Y36962039D01*
X32334489Y37007794D01*
X32386000Y37019000D01*
X32638000Y37019000D01*
X32705039Y36999315D01*
X32750794Y36946511D01*
X32762000Y36895000D01*
X32762000Y35769001D01*
X33036972Y35769001D01*
X33036986Y35769002D01*
X33139697Y35779495D01*
X33306119Y35834642D01*
X33306124Y35834644D01*
X33455345Y35926685D01*
X33579316Y36050656D01*
X33583339Y36057178D01*
X33635283Y36103907D01*
X33704245Y36115134D01*
X33753978Y36097629D01*
X33883262Y36017885D01*
X34051574Y35962113D01*
X34155455Y35951500D01*
X36456544Y35951501D01*
X36560426Y35962113D01*
X36728738Y36017885D01*
X36879652Y36110970D01*
X37005030Y36236348D01*
X37098115Y36387262D01*
X37153887Y36555574D01*
X37164500Y36659455D01*
X37164499Y37410544D01*
X37153887Y37514426D01*
X37098115Y37682738D01*
X37094003Y37689405D01*
X37075563Y37756797D01*
X37096486Y37823461D01*
X37150128Y37868230D01*
X37199537Y37878501D01*
X37659264Y37878501D01*
X37659272Y37878501D01*
X37730645Y37884986D01*
X37730648Y37884987D01*
X37730649Y37884987D01*
X37894913Y37936173D01*
X38042155Y38025184D01*
X38139319Y38122349D01*
X38200640Y38155833D01*
X38270331Y38150849D01*
X38314680Y38122348D01*
X38411841Y38025187D01*
X38411843Y38025186D01*
X38411845Y38025184D01*
X38559087Y37936173D01*
X38723351Y37884987D01*
X38794735Y37878500D01*
X39309264Y37878501D01*
X39309272Y37878501D01*
X39380645Y37884986D01*
X39380648Y37884987D01*
X39380649Y37884987D01*
X39544913Y37936173D01*
X39692155Y38025184D01*
X39813816Y38146845D01*
X39902827Y38294087D01*
X39954013Y38458351D01*
X39960500Y38529735D01*
X39960499Y39194264D01*
X39960499Y39194273D01*
X39954014Y39265646D01*
X39954011Y39265656D01*
X39902828Y39429910D01*
X39902827Y39429911D01*
X39902827Y39429913D01*
X39813816Y39577155D01*
X39813814Y39577157D01*
X39813813Y39577159D01*
X39692158Y39698814D01*
X39544913Y39787827D01*
X39544907Y39787829D01*
X39380649Y39839013D01*
X39380647Y39839014D01*
X39380645Y39839014D01*
X39330667Y39843556D01*
X39309265Y39845500D01*
X39309262Y39845500D01*
X38794727Y39845500D01*
X38723354Y39839015D01*
X38723344Y39839012D01*
X38559090Y39787829D01*
X38411843Y39698815D01*
X38314680Y39601652D01*
X38253357Y39568168D01*
X38183665Y39573152D01*
X38139319Y39601652D01*
X38042155Y39698816D01*
X37894913Y39787827D01*
X37730649Y39839013D01*
X37730647Y39839014D01*
X37730645Y39839014D01*
X37680667Y39843556D01*
X37659265Y39845500D01*
X37659262Y39845500D01*
X37144727Y39845500D01*
X37073354Y39839015D01*
X37073344Y39839012D01*
X36909090Y39787829D01*
X36761841Y39698814D01*
X36761840Y39698813D01*
X36727181Y39664153D01*
X36665858Y39630668D01*
X36596166Y39635652D01*
X36551819Y39664153D01*
X36517158Y39698814D01*
X36369913Y39787827D01*
X36369907Y39787829D01*
X36205649Y39839013D01*
X36205647Y39839014D01*
X36205645Y39839014D01*
X36155667Y39843556D01*
X36134265Y39845500D01*
X36134262Y39845500D01*
X35619727Y39845500D01*
X35548354Y39839015D01*
X35548344Y39839012D01*
X35384090Y39787829D01*
X35236841Y39698814D01*
X35236840Y39698813D01*
X35139681Y39601653D01*
X35078358Y39568168D01*
X35008666Y39573152D01*
X34964319Y39601653D01*
X34867158Y39698814D01*
X34719913Y39787827D01*
X34719907Y39787829D01*
X34555649Y39839013D01*
X34555647Y39839014D01*
X34555645Y39839014D01*
X34505667Y39843556D01*
X34484265Y39845500D01*
X34484262Y39845500D01*
X33969727Y39845500D01*
X33898354Y39839015D01*
X33898344Y39839012D01*
X33734090Y39787829D01*
X33586843Y39698815D01*
X33496214Y39608186D01*
X33434890Y39574702D01*
X33365199Y39579686D01*
X33343439Y39590328D01*
X33309738Y39611115D01*
X33309736Y39611116D01*
X33309734Y39611117D01*
X33141428Y39666887D01*
X33037546Y39677500D01*
X31986462Y39677500D01*
X31986446Y39677499D01*
X31882572Y39666887D01*
X31714264Y39611116D01*
X31714259Y39611114D01*
X31563346Y39518029D01*
X31477679Y39432363D01*
X31416356Y39398878D01*
X31346664Y39403864D01*
X31302318Y39432364D01*
X31251653Y39483029D01*
X31251652Y39483030D01*
X31100738Y39576115D01*
X31057839Y39590330D01*
X30932427Y39631887D01*
X30828546Y39642500D01*
X29877462Y39642500D01*
X29877446Y39642499D01*
X29773572Y39631887D01*
X29605264Y39576116D01*
X29605259Y39576114D01*
X29454346Y39483029D01*
X29371324Y39400008D01*
X29310001Y39366523D01*
X29240309Y39371509D01*
X29195963Y39400009D01*
X29151158Y39444814D01*
X29140058Y39451524D01*
X29003913Y39533827D01*
X28839649Y39585013D01*
X28839647Y39585014D01*
X28839645Y39585014D01*
X28789667Y39589556D01*
X28768265Y39591500D01*
X28768262Y39591500D01*
X28253727Y39591500D01*
X28182354Y39585015D01*
X28182344Y39585012D01*
X28018090Y39533829D01*
X27870841Y39444814D01*
X27870840Y39444813D01*
X27773681Y39347653D01*
X27712358Y39314168D01*
X27642666Y39319152D01*
X27598319Y39347653D01*
X27501158Y39444814D01*
X27490058Y39451524D01*
X27353913Y39533827D01*
X27189649Y39585013D01*
X27189647Y39585014D01*
X27189645Y39585014D01*
X27139667Y39589556D01*
X27118265Y39591500D01*
X27118262Y39591500D01*
X26603727Y39591500D01*
X26532354Y39585015D01*
X26532344Y39585012D01*
X26368089Y39533829D01*
X26368085Y39533827D01*
X26217986Y39443090D01*
X26150431Y39425254D01*
X26083958Y39446772D01*
X26066156Y39461526D01*
X26044653Y39483029D01*
X26044652Y39483030D01*
X25893738Y39576115D01*
X25850839Y39590330D01*
X25725427Y39631887D01*
X25621546Y39642500D01*
X24670462Y39642500D01*
X24670446Y39642499D01*
X24566572Y39631887D01*
X24398264Y39576116D01*
X24398259Y39576114D01*
X24247346Y39483029D01*
X24121970Y39357653D01*
X24121962Y39357643D01*
X24121257Y39356499D01*
X24120569Y39355881D01*
X24117489Y39351985D01*
X24116822Y39352512D01*
X24069304Y39309780D01*
X24000341Y39298565D01*
X23936262Y39326416D01*
X23928055Y39333916D01*
X23817155Y39444816D01*
X23669913Y39533827D01*
X23505649Y39585013D01*
X23505647Y39585014D01*
X23505645Y39585014D01*
X23455667Y39589556D01*
X23434265Y39591500D01*
X23434262Y39591500D01*
X22919727Y39591500D01*
X22848354Y39585015D01*
X22848344Y39585012D01*
X22684090Y39533829D01*
X22536843Y39444815D01*
X22439681Y39347653D01*
X22378358Y39314169D01*
X22308666Y39319153D01*
X22264319Y39347653D01*
X22167156Y39444815D01*
X22167155Y39444816D01*
X22019913Y39533827D01*
X21855649Y39585013D01*
X21855647Y39585014D01*
X21855645Y39585014D01*
X21805667Y39589556D01*
X21784265Y39591500D01*
X21784262Y39591500D01*
X21269727Y39591500D01*
X21198354Y39585015D01*
X21198344Y39585012D01*
X21034090Y39533829D01*
X20886841Y39444814D01*
X20886840Y39444813D01*
X20880181Y39438153D01*
X20818858Y39404668D01*
X20749166Y39409652D01*
X20693233Y39451524D01*
X20668816Y39516988D01*
X20668500Y39525834D01*
X20668500Y40167500D01*
X20688185Y40234539D01*
X20740989Y40280294D01*
X20792500Y40291500D01*
X22508638Y40291500D01*
X22508654Y40291501D01*
X22535692Y40294409D01*
X22569201Y40298011D01*
X22706204Y40349111D01*
X22823261Y40436739D01*
X22910889Y40553796D01*
X22912954Y40559334D01*
X22954825Y40615267D01*
X23020290Y40639684D01*
X23029136Y40640000D01*
X24090864Y40640000D01*
X24157903Y40620315D01*
G37*
%TD.AperFunction*%
%TD*%
M02*
