%TF.GenerationSoftware,KiCad,Pcbnew,7.0.7-7.0.7~ubuntu23.04.1*%
%TF.CreationDate,2023-09-24T10:41:31+00:00*%
%TF.ProjectId,PIND02,50494e44-3032-42e6-9b69-6361645f7063,rev?*%
%TF.SameCoordinates,Original*%
%TF.FileFunction,Copper,L1,Top*%
%TF.FilePolarity,Positive*%
%FSLAX46Y46*%
G04 Gerber Fmt 4.6, Leading zero omitted, Abs format (unit mm)*
G04 Created by KiCad (PCBNEW 7.0.7-7.0.7~ubuntu23.04.1) date 2023-09-24 10:41:31*
%MOMM*%
%LPD*%
G01*
G04 APERTURE LIST*
G04 Aperture macros list*
%AMRoundRect*
0 Rectangle with rounded corners*
0 $1 Rounding radius*
0 $2 $3 $4 $5 $6 $7 $8 $9 X,Y pos of 4 corners*
0 Add a 4 corners polygon primitive as box body*
4,1,4,$2,$3,$4,$5,$6,$7,$8,$9,$2,$3,0*
0 Add four circle primitives for the rounded corners*
1,1,$1+$1,$2,$3*
1,1,$1+$1,$4,$5*
1,1,$1+$1,$6,$7*
1,1,$1+$1,$8,$9*
0 Add four rect primitives between the rounded corners*
20,1,$1+$1,$2,$3,$4,$5,0*
20,1,$1+$1,$4,$5,$6,$7,0*
20,1,$1+$1,$6,$7,$8,$9,0*
20,1,$1+$1,$8,$9,$2,$3,0*%
%AMFreePoly0*
4,1,6,0.500000,-0.850000,-0.500000,-0.850000,-0.500000,0.550000,-0.200000,0.850000,0.500000,0.850000,0.500000,-0.850000,0.500000,-0.850000,$1*%
%AMFreePoly1*
4,1,19,0.550000,-0.750000,0.000000,-0.750000,0.000000,-0.744911,-0.071157,-0.744911,-0.207708,-0.704816,-0.327430,-0.627875,-0.420627,-0.520320,-0.479746,-0.390866,-0.500000,-0.250000,-0.500000,0.250000,-0.479746,0.390866,-0.420627,0.520320,-0.327430,0.627875,-0.207708,0.704816,-0.071157,0.744911,0.000000,0.744911,0.000000,0.750000,0.550000,0.750000,0.550000,-0.750000,0.550000,-0.750000,
$1*%
%AMFreePoly2*
4,1,19,0.000000,0.744911,0.071157,0.744911,0.207708,0.704816,0.327430,0.627875,0.420627,0.520320,0.479746,0.390866,0.500000,0.250000,0.500000,-0.250000,0.479746,-0.390866,0.420627,-0.520320,0.327430,-0.627875,0.207708,-0.704816,0.071157,-0.744911,0.000000,-0.744911,0.000000,-0.750000,-0.550000,-0.750000,-0.550000,0.750000,0.000000,0.750000,0.000000,0.744911,0.000000,0.744911,
$1*%
G04 Aperture macros list end*
%TA.AperFunction,ComponentPad*%
%ADD10R,1.524000X1.524000*%
%TD*%
%TA.AperFunction,SMDPad,CuDef*%
%ADD11RoundRect,0.225000X-0.225000X-0.250000X0.225000X-0.250000X0.225000X0.250000X-0.225000X0.250000X0*%
%TD*%
%TA.AperFunction,SMDPad,CuDef*%
%ADD12RoundRect,0.218750X-0.218750X-0.381250X0.218750X-0.381250X0.218750X0.381250X-0.218750X0.381250X0*%
%TD*%
%TA.AperFunction,SMDPad,CuDef*%
%ADD13RoundRect,0.250000X-0.325000X-0.450000X0.325000X-0.450000X0.325000X0.450000X-0.325000X0.450000X0*%
%TD*%
%TA.AperFunction,ComponentPad*%
%ADD14C,6.000000*%
%TD*%
%TA.AperFunction,SMDPad,CuDef*%
%ADD15RoundRect,0.200000X-0.200000X-0.275000X0.200000X-0.275000X0.200000X0.275000X-0.200000X0.275000X0*%
%TD*%
%TA.AperFunction,SMDPad,CuDef*%
%ADD16R,0.889000X1.397000*%
%TD*%
%TA.AperFunction,SMDPad,CuDef*%
%ADD17RoundRect,0.250000X-0.250000X-0.475000X0.250000X-0.475000X0.250000X0.475000X-0.250000X0.475000X0*%
%TD*%
%TA.AperFunction,SMDPad,CuDef*%
%ADD18R,1.300000X1.500000*%
%TD*%
%TA.AperFunction,SMDPad,CuDef*%
%ADD19R,0.700000X3.000000*%
%TD*%
%TA.AperFunction,SMDPad,CuDef*%
%ADD20C,1.000000*%
%TD*%
%TA.AperFunction,SMDPad,CuDef*%
%ADD21RoundRect,0.150000X-0.587500X-0.150000X0.587500X-0.150000X0.587500X0.150000X-0.587500X0.150000X0*%
%TD*%
%TA.AperFunction,ComponentPad*%
%ADD22C,2.050000*%
%TD*%
%TA.AperFunction,ComponentPad*%
%ADD23C,2.250000*%
%TD*%
%TA.AperFunction,SMDPad,CuDef*%
%ADD24R,0.550000X0.250000*%
%TD*%
%TA.AperFunction,SMDPad,CuDef*%
%ADD25FreePoly0,0.000000*%
%TD*%
%TA.AperFunction,SMDPad,CuDef*%
%ADD26RoundRect,0.150000X-0.512500X-0.150000X0.512500X-0.150000X0.512500X0.150000X-0.512500X0.150000X0*%
%TD*%
%TA.AperFunction,SMDPad,CuDef*%
%ADD27RoundRect,0.150000X-0.825000X-0.150000X0.825000X-0.150000X0.825000X0.150000X-0.825000X0.150000X0*%
%TD*%
%TA.AperFunction,ComponentPad*%
%ADD28C,1.524000*%
%TD*%
%TA.AperFunction,SMDPad,CuDef*%
%ADD29RoundRect,0.237500X-0.287500X-0.237500X0.287500X-0.237500X0.287500X0.237500X-0.287500X0.237500X0*%
%TD*%
%TA.AperFunction,SMDPad,CuDef*%
%ADD30FreePoly1,0.000000*%
%TD*%
%TA.AperFunction,SMDPad,CuDef*%
%ADD31R,1.000000X1.500000*%
%TD*%
%TA.AperFunction,SMDPad,CuDef*%
%ADD32FreePoly2,0.000000*%
%TD*%
G04 APERTURE END LIST*
%TA.AperFunction,EtchedComponent*%
%TO.C,JP1*%
G36*
X67733000Y13375000D02*
G01*
X67233000Y13375000D01*
X67233000Y13975000D01*
X67733000Y13975000D01*
X67733000Y13375000D01*
G37*
%TD.AperFunction*%
%TD*%
D10*
%TO.P,J2,1*%
%TO.N,GND*%
X76603000Y28665000D03*
%TO.P,J2,2*%
X79143000Y28665000D03*
%TO.P,J2,3*%
%TO.N,Net-(U3-SDA)*%
X76603000Y26125000D03*
%TO.P,J2,4*%
X79143000Y26125000D03*
%TO.P,J2,5*%
%TO.N,VDD*%
X76603000Y23585000D03*
%TO.P,J2,6*%
X79143000Y23585000D03*
%TO.P,J2,7*%
%TO.N,Net-(U3-SCL)*%
X76603000Y21045000D03*
%TO.P,J2,8*%
X79143000Y21045000D03*
%TO.P,J2,9*%
%TO.N,GND*%
X76603000Y18505000D03*
%TO.P,J2,10*%
X79143000Y18505000D03*
%TD*%
D11*
%TO.P,C22,1*%
%TO.N,Net-(C21-Pad1)*%
X63958000Y19215000D03*
%TO.P,C22,2*%
%TO.N,GND*%
X65508000Y19215000D03*
%TD*%
D12*
%TO.P,L3,1,1*%
%TO.N,Net-(L3-Pad1)*%
X84020500Y37435000D03*
%TO.P,L3,2,2*%
%TO.N,Net-(J1-In)*%
X86145500Y37435000D03*
%TD*%
D11*
%TO.P,C3,1*%
%TO.N,Net-(Q1-D)*%
X55938000Y29255000D03*
%TO.P,C3,2*%
%TO.N,GND*%
X57488000Y29255000D03*
%TD*%
D13*
%TO.P,L2,1*%
%TO.N,Net-(C21-Pad1)*%
X84158000Y40285000D03*
%TO.P,L2,2*%
%TO.N,Net-(U4-SW)*%
X86208000Y40285000D03*
%TD*%
D14*
%TO.P,M2,1*%
%TO.N,GND*%
X40640000Y40640000D03*
%TD*%
D11*
%TO.P,C20,1*%
%TO.N,+5V*%
X63958000Y24235000D03*
%TO.P,C20,2*%
%TO.N,GND*%
X65508000Y24235000D03*
%TD*%
D15*
%TO.P,R8,1*%
%TO.N,/K*%
X71928000Y24235000D03*
%TO.P,R8,2*%
%TO.N,Net-(C12-Pad1)*%
X73578000Y24235000D03*
%TD*%
D16*
%TO.P,R12,1*%
%TO.N,Net-(L3-Pad1)*%
X83954500Y34723000D03*
%TO.P,R12,2*%
%TO.N,Net-(J3-Pad2)*%
X85859500Y34723000D03*
%TD*%
D17*
%TO.P,C8,1*%
%TO.N,Net-(C13-Pad2)*%
X76033000Y15155000D03*
%TO.P,C8,2*%
%TO.N,/A*%
X77933000Y15155000D03*
%TD*%
D10*
%TO.P,J3,1*%
%TO.N,VDD*%
X82833000Y13315000D03*
%TO.P,J3,2*%
%TO.N,Net-(J3-Pad2)*%
X85373000Y13315000D03*
%TD*%
D11*
%TO.P,C21,1*%
%TO.N,Net-(C21-Pad1)*%
X63958000Y21725000D03*
%TO.P,C21,2*%
%TO.N,GND*%
X65508000Y21725000D03*
%TD*%
D14*
%TO.P,M4,1*%
%TO.N,GND*%
X40640000Y10160000D03*
%TD*%
D11*
%TO.P,C11,1*%
%TO.N,Net-(C10-Pad1)*%
X59948000Y26745000D03*
%TO.P,C11,2*%
%TO.N,GND*%
X61498000Y26745000D03*
%TD*%
D15*
%TO.P,R10,1*%
%TO.N,Net-(C14-Pad2)*%
X71928000Y19215000D03*
%TO.P,R10,2*%
%TO.N,Net-(U1B--)*%
X73578000Y19215000D03*
%TD*%
%TO.P,R9,1*%
%TO.N,/REF*%
X71928000Y21725000D03*
%TO.P,R9,2*%
%TO.N,Net-(U1B-+)*%
X73578000Y21725000D03*
%TD*%
%TO.P,R6,1*%
%TO.N,Net-(C10-Pad1)*%
X71928000Y29255000D03*
%TO.P,R6,2*%
%TO.N,Net-(C9-Pad1)*%
X73578000Y29255000D03*
%TD*%
D11*
%TO.P,C12,1*%
%TO.N,Net-(C12-Pad1)*%
X59948000Y24235000D03*
%TO.P,C12,2*%
%TO.N,/REF*%
X61498000Y24235000D03*
%TD*%
D18*
%TO.P,C19,1,1*%
%TO.N,Net-(U4-VOUT)*%
X61233000Y13450000D03*
D19*
%TO.P,C19,2,2*%
%TO.N,GND*%
X62583000Y13450000D03*
D18*
%TO.P,C19,3,3*%
%TO.N,+5V*%
X63933000Y13450000D03*
%TD*%
D20*
%TO.P,FID1,*%
%TO.N,*%
X87653000Y22285000D03*
%TD*%
D11*
%TO.P,C10,1*%
%TO.N,Net-(C10-Pad1)*%
X59948000Y29255000D03*
%TO.P,C10,2*%
%TO.N,GND*%
X61498000Y29255000D03*
%TD*%
D21*
%TO.P,Q1,1,S*%
%TO.N,Net-(Q1-S)*%
X82495500Y22785000D03*
%TO.P,Q1,2,D*%
%TO.N,Net-(Q1-D)*%
X82495500Y20885000D03*
%TO.P,Q1,3,G*%
%TO.N,/A*%
X84370500Y21835000D03*
%TD*%
D11*
%TO.P,C23,1*%
%TO.N,Net-(U4-VOUT)*%
X63958000Y16705000D03*
%TO.P,C23,2*%
%TO.N,GND*%
X65508000Y16705000D03*
%TD*%
%TO.P,C13,1*%
%TO.N,Net-(U1B-+)*%
X59948000Y21725000D03*
%TO.P,C13,2*%
%TO.N,Net-(C13-Pad2)*%
X61498000Y21725000D03*
%TD*%
D17*
%TO.P,C17,1*%
%TO.N,VDD*%
X76033000Y12145000D03*
%TO.P,C17,2*%
%TO.N,GND*%
X77933000Y12145000D03*
%TD*%
D11*
%TO.P,C15,1*%
%TO.N,/REF*%
X59948000Y16705000D03*
%TO.P,C15,2*%
%TO.N,GND*%
X61498000Y16705000D03*
%TD*%
D22*
%TO.P,J1,1,In*%
%TO.N,Net-(J1-In)*%
X19140000Y33880000D03*
D23*
%TO.P,J1,2,Ext*%
%TO.N,GND*%
X21680000Y31340000D03*
X21680000Y36420000D03*
X16600000Y31340000D03*
X16600000Y36420000D03*
%TD*%
D11*
%TO.P,C18,1*%
%TO.N,VDD*%
X63958000Y26745000D03*
%TO.P,C18,2*%
%TO.N,GND*%
X65508000Y26745000D03*
%TD*%
D24*
%TO.P,U3,1,SDA*%
%TO.N,Net-(U3-SDA)*%
X83858000Y44535000D03*
%TO.P,U3,2,ADDR*%
%TO.N,Net-(JP1-C)*%
X83858000Y44035000D03*
%TO.P,U3,3,ALERT*%
%TO.N,unconnected-(U3-ALERT-Pad3)*%
X83858000Y43535000D03*
%TO.P,U3,4,SCL*%
%TO.N,Net-(U3-SCL)*%
X83858000Y43035000D03*
%TO.P,U3,5,VDD*%
%TO.N,VDD*%
X86208000Y43035000D03*
%TO.P,U3,6,~{RESET}*%
%TO.N,unconnected-(U3-~{RESET}-Pad6)*%
X86208000Y43535000D03*
%TO.P,U3,7,R*%
%TO.N,GND*%
X86208000Y44035000D03*
%TO.P,U3,8,VSS*%
X86208000Y44535000D03*
D25*
%TO.P,U3,9,VSS*%
X85033000Y43785000D03*
%TD*%
D14*
%TO.P,M3,1*%
%TO.N,GND*%
X10160000Y10160000D03*
%TD*%
D15*
%TO.P,R5,1*%
%TO.N,Net-(C9-Pad1)*%
X67918000Y16705000D03*
%TO.P,R5,2*%
%TO.N,+5V*%
X69568000Y16705000D03*
%TD*%
D20*
%TO.P,FID2,*%
%TO.N,*%
X87653000Y18735000D03*
%TD*%
D15*
%TO.P,R11,1*%
%TO.N,Net-(U1B--)*%
X71928000Y16705000D03*
%TO.P,R11,2*%
%TO.N,/REF*%
X73578000Y16705000D03*
%TD*%
D21*
%TO.P,U2,1,Vin*%
%TO.N,VDD*%
X82495500Y18335000D03*
%TO.P,U2,2,Vout*%
%TO.N,/REF*%
X82495500Y16435000D03*
%TO.P,U2,3,GND*%
%TO.N,GND*%
X84370500Y17385000D03*
%TD*%
D11*
%TO.P,C9,1*%
%TO.N,Net-(C9-Pad1)*%
X55938000Y16705000D03*
%TO.P,C9,2*%
%TO.N,GND*%
X57488000Y16705000D03*
%TD*%
D15*
%TO.P,R4,1*%
%TO.N,Net-(C13-Pad2)*%
X67918000Y19215000D03*
%TO.P,R4,2*%
%TO.N,/A*%
X69568000Y19215000D03*
%TD*%
D11*
%TO.P,C6,1*%
%TO.N,Net-(U1B-V+)*%
X55938000Y21725000D03*
%TO.P,C6,2*%
%TO.N,GND*%
X57488000Y21725000D03*
%TD*%
D14*
%TO.P,M1,1*%
%TO.N,GND*%
X10160000Y40640000D03*
%TD*%
D11*
%TO.P,C4,1*%
%TO.N,Net-(Q1-D)*%
X55938000Y26745000D03*
%TO.P,C4,2*%
%TO.N,GND*%
X57488000Y26745000D03*
%TD*%
D15*
%TO.P,R2,1*%
%TO.N,Net-(U1B-V+)*%
X67918000Y24235000D03*
%TO.P,R2,2*%
%TO.N,VDD*%
X69568000Y24235000D03*
%TD*%
D26*
%TO.P,U4,1,SW*%
%TO.N,Net-(U4-SW)*%
X56145500Y14175000D03*
%TO.P,U4,2,GND*%
%TO.N,GND*%
X56145500Y13225000D03*
%TO.P,U4,3,NC*%
%TO.N,unconnected-(U4-NC-Pad3)*%
X56145500Y12275000D03*
%TO.P,U4,4,VOUT*%
%TO.N,Net-(U4-VOUT)*%
X58420500Y12275000D03*
%TO.P,U4,5,NC*%
%TO.N,unconnected-(U4-NC-Pad5)*%
X58420500Y14175000D03*
%TD*%
D15*
%TO.P,R1,1*%
%TO.N,Net-(Q1-D)*%
X67918000Y26745000D03*
%TO.P,R1,2*%
%TO.N,VDD*%
X69568000Y26745000D03*
%TD*%
D11*
%TO.P,C14,1*%
%TO.N,Net-(J1-In)*%
X59948000Y19215000D03*
%TO.P,C14,2*%
%TO.N,Net-(C14-Pad2)*%
X61498000Y19215000D03*
%TD*%
%TO.P,C7,1*%
%TO.N,Net-(U1B-V+)*%
X55938000Y19215000D03*
%TO.P,C7,2*%
%TO.N,GND*%
X57488000Y19215000D03*
%TD*%
D27*
%TO.P,U1,1*%
%TO.N,Net-(C13-Pad2)*%
X82738000Y29190000D03*
%TO.P,U1,2,-*%
%TO.N,/A*%
X82738000Y27920000D03*
%TO.P,U1,3,+*%
%TO.N,/REF*%
X82738000Y26650000D03*
%TO.P,U1,4,V-*%
%TO.N,GND*%
X82738000Y25380000D03*
%TO.P,U1,5,+*%
%TO.N,Net-(U1B-+)*%
X87688000Y25380000D03*
%TO.P,U1,6,-*%
%TO.N,Net-(U1B--)*%
X87688000Y26650000D03*
%TO.P,U1,7*%
%TO.N,Net-(C14-Pad2)*%
X87688000Y27920000D03*
%TO.P,U1,8,V+*%
%TO.N,Net-(U1B-V+)*%
X87688000Y29190000D03*
%TD*%
D11*
%TO.P,C24,1*%
%TO.N,Net-(U4-VOUT)*%
X67968000Y29255000D03*
%TO.P,C24,2*%
%TO.N,GND*%
X69518000Y29255000D03*
%TD*%
D28*
%TO.P,D2,1,K*%
%TO.N,/K*%
X57758000Y40660000D03*
%TO.P,D2,2,A*%
%TO.N,/A*%
X57758000Y35660000D03*
%TD*%
D11*
%TO.P,C16,1*%
%TO.N,Net-(C14-Pad2)*%
X63958000Y29255000D03*
%TO.P,C16,2*%
%TO.N,Net-(U1B--)*%
X65508000Y29255000D03*
%TD*%
D15*
%TO.P,R3,1*%
%TO.N,Net-(Q1-S)*%
X67918000Y21725000D03*
%TO.P,R3,2*%
%TO.N,GND*%
X69568000Y21725000D03*
%TD*%
D29*
%TO.P,L1,1*%
%TO.N,VDD*%
X84108000Y32135000D03*
%TO.P,L1,2*%
%TO.N,Net-(C21-Pad1)*%
X85858000Y32135000D03*
%TD*%
D11*
%TO.P,C5,1*%
%TO.N,Net-(Q1-S)*%
X55938000Y24235000D03*
%TO.P,C5,2*%
%TO.N,/K*%
X57488000Y24235000D03*
%TD*%
D30*
%TO.P,JP1,1,A*%
%TO.N,GND*%
X66833000Y13675000D03*
D31*
%TO.P,JP1,2,C*%
%TO.N,Net-(JP1-C)*%
X68133000Y13675000D03*
D32*
%TO.P,JP1,3,B*%
%TO.N,VDD*%
X69433000Y13675000D03*
%TD*%
D15*
%TO.P,R7,1*%
%TO.N,Net-(C12-Pad1)*%
X71928000Y26745000D03*
%TO.P,R7,2*%
%TO.N,Net-(C10-Pad1)*%
X73578000Y26745000D03*
%TD*%
M02*
