%TF.GenerationSoftware,KiCad,Pcbnew,7.0.7-7.0.7~ubuntu23.04.1*%
%TF.CreationDate,2023-09-24T22:03:25+00:00*%
%TF.ProjectId,PIND02,50494e44-3032-42e6-9b69-6361645f7063,rev?*%
%TF.SameCoordinates,Original*%
%TF.FileFunction,Legend,Top*%
%TF.FilePolarity,Positive*%
%FSLAX46Y46*%
G04 Gerber Fmt 4.6, Leading zero omitted, Abs format (unit mm)*
G04 Created by KiCad (PCBNEW 7.0.7-7.0.7~ubuntu23.04.1) date 2023-09-24 22:03:25*
%MOMM*%
%LPD*%
G01*
G04 APERTURE LIST*
%ADD10C,0.150000*%
%ADD11C,0.120000*%
%ADD12C,0.100000*%
%ADD13R,1.524000X1.524000*%
G04 APERTURE END LIST*
D10*
X58975666Y15988181D02*
X58975666Y15273896D01*
X58975666Y15273896D02*
X58928047Y15131039D01*
X58928047Y15131039D02*
X58832809Y15035800D01*
X58832809Y15035800D02*
X58689952Y14988181D01*
X58689952Y14988181D02*
X58594714Y14988181D01*
X59975666Y14988181D02*
X59404238Y14988181D01*
X59689952Y14988181D02*
X59689952Y15988181D01*
X59689952Y15988181D02*
X59594714Y15845324D01*
X59594714Y15845324D02*
X59499476Y15750086D01*
X59499476Y15750086D02*
X59404238Y15702467D01*
X34821905Y19065181D02*
X34821905Y20065181D01*
X34821905Y20065181D02*
X35060000Y20065181D01*
X35060000Y20065181D02*
X35202857Y20017562D01*
X35202857Y20017562D02*
X35298095Y19922324D01*
X35298095Y19922324D02*
X35345714Y19827086D01*
X35345714Y19827086D02*
X35393333Y19636610D01*
X35393333Y19636610D02*
X35393333Y19493753D01*
X35393333Y19493753D02*
X35345714Y19303277D01*
X35345714Y19303277D02*
X35298095Y19208039D01*
X35298095Y19208039D02*
X35202857Y19112800D01*
X35202857Y19112800D02*
X35060000Y19065181D01*
X35060000Y19065181D02*
X34821905Y19065181D01*
X35774286Y19969943D02*
X35821905Y20017562D01*
X35821905Y20017562D02*
X35917143Y20065181D01*
X35917143Y20065181D02*
X36155238Y20065181D01*
X36155238Y20065181D02*
X36250476Y20017562D01*
X36250476Y20017562D02*
X36298095Y19969943D01*
X36298095Y19969943D02*
X36345714Y19874705D01*
X36345714Y19874705D02*
X36345714Y19779467D01*
X36345714Y19779467D02*
X36298095Y19636610D01*
X36298095Y19636610D02*
X35726667Y19065181D01*
X35726667Y19065181D02*
X36345714Y19065181D01*
X31488095Y15255181D02*
X31488095Y16255181D01*
X32059523Y15255181D02*
X31630952Y15826610D01*
X32059523Y16255181D02*
X31488095Y15683753D01*
%TO.C,J2*%
X6477000Y27686000D02*
X11557000Y27686000D01*
X6477000Y14986000D02*
X6477000Y27686000D01*
X11557000Y27686000D02*
X11557000Y14986000D01*
X11557000Y14986000D02*
X6477000Y14986000D01*
%TO.C,J3*%
X56007000Y28575000D02*
X56007000Y30861000D01*
X61087000Y30861000D02*
X61087000Y28575000D01*
X61087000Y28575000D02*
X56007000Y28575000D01*
D11*
%TO.C,J1*%
X62664000Y18743000D02*
X62664000Y21643000D01*
X60759000Y16838000D02*
X57859000Y16838000D01*
X60759000Y23548000D02*
X57859000Y23548000D01*
X55954000Y18743000D02*
X55954000Y21643000D01*
D12*
%TO.C,D2*%
X28460000Y11900000D02*
X42660000Y11900000D01*
X28460000Y38900000D02*
X28460000Y11900000D01*
X28460000Y38900000D02*
X42660000Y38900000D01*
X42660000Y38900000D02*
X42660000Y11900000D01*
%TD*%
D13*
%TO.C,J2*%
X7747000Y26416000D03*
X10287000Y26416000D03*
X7747000Y23876000D03*
X10287000Y23876000D03*
X7747000Y21336000D03*
X10287000Y21336000D03*
X7747000Y18796000D03*
X10287000Y18796000D03*
X7747000Y16256000D03*
X10287000Y16256000D03*
%TD*%
M02*
