%TF.GenerationSoftware,KiCad,Pcbnew,7.0.7-7.0.7~ubuntu23.04.1*%
%TF.CreationDate,2023-09-25T21:52:34+00:00*%
%TF.ProjectId,PIND02,50494e44-3032-42e6-9b69-6361645f7063,rev?*%
%TF.SameCoordinates,Original*%
%TF.FileFunction,Copper,L2,Bot*%
%TF.FilePolarity,Positive*%
%FSLAX46Y46*%
G04 Gerber Fmt 4.6, Leading zero omitted, Abs format (unit mm)*
G04 Created by KiCad (PCBNEW 7.0.7-7.0.7~ubuntu23.04.1) date 2023-09-25 21:52:34*
%MOMM*%
%LPD*%
G01*
G04 APERTURE LIST*
G04 Aperture macros list*
%AMRoundRect*
0 Rectangle with rounded corners*
0 $1 Rounding radius*
0 $2 $3 $4 $5 $6 $7 $8 $9 X,Y pos of 4 corners*
0 Add a 4 corners polygon primitive as box body*
4,1,4,$2,$3,$4,$5,$6,$7,$8,$9,$2,$3,0*
0 Add four circle primitives for the rounded corners*
1,1,$1+$1,$2,$3*
1,1,$1+$1,$4,$5*
1,1,$1+$1,$6,$7*
1,1,$1+$1,$8,$9*
0 Add four rect primitives between the rounded corners*
20,1,$1+$1,$2,$3,$4,$5,0*
20,1,$1+$1,$4,$5,$6,$7,0*
20,1,$1+$1,$6,$7,$8,$9,0*
20,1,$1+$1,$8,$9,$2,$3,0*%
%AMRotRect*
0 Rectangle, with rotation*
0 The origin of the aperture is its center*
0 $1 length*
0 $2 width*
0 $3 Rotation angle, in degrees counterclockwise*
0 Add horizontal line*
21,1,$1,$2,0,0,$3*%
%AMFreePoly0*
4,1,6,0.500000,-0.850000,-0.200000,-0.850000,-0.500000,-0.550000,-0.500000,0.850000,0.500000,0.850000,0.500000,-0.850000,0.500000,-0.850000,$1*%
%AMFreePoly1*
4,1,19,0.550000,-0.750000,0.000000,-0.750000,0.000000,-0.744911,-0.071157,-0.744911,-0.207708,-0.704816,-0.327430,-0.627875,-0.420627,-0.520320,-0.479746,-0.390866,-0.500000,-0.250000,-0.500000,0.250000,-0.479746,0.390866,-0.420627,0.520320,-0.327430,0.627875,-0.207708,0.704816,-0.071157,0.744911,0.000000,0.744911,0.000000,0.750000,0.550000,0.750000,0.550000,-0.750000,0.550000,-0.750000,
$1*%
%AMFreePoly2*
4,1,19,0.000000,0.744911,0.071157,0.744911,0.207708,0.704816,0.327430,0.627875,0.420627,0.520320,0.479746,0.390866,0.500000,0.250000,0.500000,-0.250000,0.479746,-0.390866,0.420627,-0.520320,0.327430,-0.627875,0.207708,-0.704816,0.071157,-0.744911,0.000000,-0.744911,0.000000,-0.750000,-0.550000,-0.750000,-0.550000,0.750000,0.000000,0.750000,0.000000,0.744911,0.000000,0.744911,
$1*%
G04 Aperture macros list end*
%TA.AperFunction,ComponentPad*%
%ADD10R,1.524000X1.524000*%
%TD*%
%TA.AperFunction,ComponentPad*%
%ADD11C,6.000000*%
%TD*%
%TA.AperFunction,ComponentPad*%
%ADD12C,2.050000*%
%TD*%
%TA.AperFunction,ComponentPad*%
%ADD13C,2.250000*%
%TD*%
%TA.AperFunction,ComponentPad*%
%ADD14C,1.524000*%
%TD*%
%TA.AperFunction,SMDPad,CuDef*%
%ADD15RoundRect,0.250000X0.475000X-0.250000X0.475000X0.250000X-0.475000X0.250000X-0.475000X-0.250000X0*%
%TD*%
%TA.AperFunction,SMDPad,CuDef*%
%ADD16RoundRect,0.218750X0.381250X-0.218750X0.381250X0.218750X-0.381250X0.218750X-0.381250X-0.218750X0*%
%TD*%
%TA.AperFunction,SMDPad,CuDef*%
%ADD17RoundRect,0.250000X0.450000X-0.325000X0.450000X0.325000X-0.450000X0.325000X-0.450000X-0.325000X0*%
%TD*%
%TA.AperFunction,SMDPad,CuDef*%
%ADD18C,0.500000*%
%TD*%
%TA.AperFunction,SMDPad,CuDef*%
%ADD19RoundRect,0.250000X0.450000X-0.262500X0.450000X0.262500X-0.450000X0.262500X-0.450000X-0.262500X0*%
%TD*%
%TA.AperFunction,SMDPad,CuDef*%
%ADD20RoundRect,0.250000X-0.450000X0.262500X-0.450000X-0.262500X0.450000X-0.262500X0.450000X0.262500X0*%
%TD*%
%TA.AperFunction,SMDPad,CuDef*%
%ADD21RoundRect,0.250000X0.250000X0.475000X-0.250000X0.475000X-0.250000X-0.475000X0.250000X-0.475000X0*%
%TD*%
%TA.AperFunction,SMDPad,CuDef*%
%ADD22RoundRect,0.250000X-0.475000X0.250000X-0.475000X-0.250000X0.475000X-0.250000X0.475000X0.250000X0*%
%TD*%
%TA.AperFunction,SMDPad,CuDef*%
%ADD23RoundRect,0.250000X-0.250000X-0.475000X0.250000X-0.475000X0.250000X0.475000X-0.250000X0.475000X0*%
%TD*%
%TA.AperFunction,SMDPad,CuDef*%
%ADD24RotRect,2.500000X1.800000X225.000000*%
%TD*%
%TA.AperFunction,SMDPad,CuDef*%
%ADD25RoundRect,0.250000X0.262500X0.450000X-0.262500X0.450000X-0.262500X-0.450000X0.262500X-0.450000X0*%
%TD*%
%TA.AperFunction,SMDPad,CuDef*%
%ADD26RoundRect,0.250000X-0.325000X-1.100000X0.325000X-1.100000X0.325000X1.100000X-0.325000X1.100000X0*%
%TD*%
%TA.AperFunction,SMDPad,CuDef*%
%ADD27R,1.300000X1.500000*%
%TD*%
%TA.AperFunction,SMDPad,CuDef*%
%ADD28R,0.700000X3.000000*%
%TD*%
%TA.AperFunction,SMDPad,CuDef*%
%ADD29C,1.000000*%
%TD*%
%TA.AperFunction,SMDPad,CuDef*%
%ADD30RoundRect,0.250000X-0.450000X-0.425000X0.450000X-0.425000X0.450000X0.425000X-0.450000X0.425000X0*%
%TD*%
%TA.AperFunction,SMDPad,CuDef*%
%ADD31RoundRect,0.150000X-0.150000X0.587500X-0.150000X-0.587500X0.150000X-0.587500X0.150000X0.587500X0*%
%TD*%
%TA.AperFunction,SMDPad,CuDef*%
%ADD32R,1.000000X1.000000*%
%TD*%
%TA.AperFunction,SMDPad,CuDef*%
%ADD33R,1.000000X2.300000*%
%TD*%
%TA.AperFunction,SMDPad,CuDef*%
%ADD34R,1.000000X3.800000*%
%TD*%
%TA.AperFunction,SMDPad,CuDef*%
%ADD35R,2.300000X1.000000*%
%TD*%
%TA.AperFunction,SMDPad,CuDef*%
%ADD36R,3.800000X1.000000*%
%TD*%
%TA.AperFunction,SMDPad,CuDef*%
%ADD37RoundRect,0.250000X-1.100000X0.325000X-1.100000X-0.325000X1.100000X-0.325000X1.100000X0.325000X0*%
%TD*%
%TA.AperFunction,SMDPad,CuDef*%
%ADD38R,0.550000X0.250000*%
%TD*%
%TA.AperFunction,SMDPad,CuDef*%
%ADD39FreePoly0,0.000000*%
%TD*%
%TA.AperFunction,SMDPad,CuDef*%
%ADD40RoundRect,0.150000X-0.587500X-0.150000X0.587500X-0.150000X0.587500X0.150000X-0.587500X0.150000X0*%
%TD*%
%TA.AperFunction,SMDPad,CuDef*%
%ADD41RoundRect,0.250000X0.425000X-0.450000X0.425000X0.450000X-0.425000X0.450000X-0.425000X-0.450000X0*%
%TD*%
%TA.AperFunction,SMDPad,CuDef*%
%ADD42RoundRect,0.150000X0.150000X-0.512500X0.150000X0.512500X-0.150000X0.512500X-0.150000X-0.512500X0*%
%TD*%
%TA.AperFunction,SMDPad,CuDef*%
%ADD43RoundRect,0.250000X-0.262500X-0.450000X0.262500X-0.450000X0.262500X0.450000X-0.262500X0.450000X0*%
%TD*%
%TA.AperFunction,SMDPad,CuDef*%
%ADD44RoundRect,0.150000X0.825000X0.150000X-0.825000X0.150000X-0.825000X-0.150000X0.825000X-0.150000X0*%
%TD*%
%TA.AperFunction,SMDPad,CuDef*%
%ADD45RoundRect,0.237500X0.237500X-0.287500X0.237500X0.287500X-0.237500X0.287500X-0.237500X-0.287500X0*%
%TD*%
%TA.AperFunction,SMDPad,CuDef*%
%ADD46FreePoly1,0.000000*%
%TD*%
%TA.AperFunction,SMDPad,CuDef*%
%ADD47R,1.000000X1.500000*%
%TD*%
%TA.AperFunction,SMDPad,CuDef*%
%ADD48FreePoly2,0.000000*%
%TD*%
%TA.AperFunction,ViaPad*%
%ADD49C,0.800000*%
%TD*%
%TA.AperFunction,Conductor*%
%ADD50C,0.700000*%
%TD*%
%TA.AperFunction,Conductor*%
%ADD51C,0.300000*%
%TD*%
%TA.AperFunction,Conductor*%
%ADD52C,0.200000*%
%TD*%
%TA.AperFunction,Conductor*%
%ADD53C,0.450000*%
%TD*%
G04 APERTURE END LIST*
%TA.AperFunction,EtchedComponent*%
%TO.C,JP2*%
G36*
X51300000Y28198000D02*
G01*
X50300000Y28198000D01*
X50300000Y28698000D01*
X51300000Y28698000D01*
X51300000Y28198000D01*
G37*
%TD.AperFunction*%
%TA.AperFunction,EtchedComponent*%
%TO.C,JP1*%
G36*
X35160000Y43388000D02*
G01*
X34660000Y43388000D01*
X34660000Y43988000D01*
X35160000Y43988000D01*
X35160000Y43388000D01*
G37*
%TD.AperFunction*%
%TD*%
D10*
%TO.P,J2,1*%
%TO.N,GND*%
X7874000Y34417000D03*
%TO.P,J2,2*%
X10414000Y34417000D03*
%TO.P,J2,3*%
%TO.N,Net-(U3-SDA)*%
X7874000Y31877000D03*
%TO.P,J2,4*%
X10414000Y31877000D03*
%TO.P,J2,5*%
%TO.N,VDD*%
X7874000Y29337000D03*
%TO.P,J2,6*%
X10414000Y29337000D03*
%TO.P,J2,7*%
%TO.N,Net-(U3-SCL)*%
X7874000Y26797000D03*
%TO.P,J2,8*%
X10414000Y26797000D03*
%TO.P,J2,9*%
%TO.N,GND*%
X7874000Y24257000D03*
%TO.P,J2,10*%
X10414000Y24257000D03*
%TD*%
D11*
%TO.P,M2,1*%
%TO.N,GND*%
X60960000Y40640000D03*
%TD*%
D10*
%TO.P,J3,1*%
%TO.N,VDD*%
X57150000Y18796000D03*
%TO.P,J3,2*%
%TO.N,Net-(J3-Pad2)*%
X59690000Y18796000D03*
%TD*%
D11*
%TO.P,M4,1*%
%TO.N,GND*%
X60960000Y10160000D03*
%TD*%
D12*
%TO.P,J1,1,In*%
%TO.N,Net-(J1-In)*%
X59690000Y31242000D03*
D13*
%TO.P,J1,2,Ext*%
%TO.N,GND*%
X62230000Y28702000D03*
X62230000Y33782000D03*
X57150000Y28702000D03*
X57150000Y33782000D03*
%TD*%
D11*
%TO.P,M3,1*%
%TO.N,GND*%
X10160000Y10160000D03*
%TD*%
%TO.P,M1,1*%
%TO.N,GND*%
X10160000Y40640000D03*
%TD*%
D14*
%TO.P,D2,1,K*%
%TO.N,/K*%
X33060000Y14400000D03*
%TO.P,D2,2,A*%
%TO.N,/A*%
X38060000Y14400000D03*
%TD*%
D15*
%TO.P,C22,1*%
%TO.N,Net-(C21-Pad1)*%
X14478000Y16673000D03*
%TO.P,C22,2*%
%TO.N,GND*%
X14478000Y18573000D03*
%TD*%
D16*
%TO.P,L3,1,1*%
%TO.N,Net-(L3-Pad1)*%
X59690001Y25607500D03*
%TO.P,L3,2,2*%
%TO.N,Net-(J1-In)*%
X59690001Y27732500D03*
%TD*%
D15*
%TO.P,C3,1*%
%TO.N,Net-(Q1-D)*%
X38989000Y17084000D03*
%TO.P,C3,2*%
%TO.N,GNDA*%
X38989000Y18984000D03*
%TD*%
D17*
%TO.P,L2,1*%
%TO.N,Net-(C21-Pad1)*%
X16764000Y16501000D03*
%TO.P,L2,2*%
%TO.N,Net-(U4-SW)*%
X16764000Y18551000D03*
%TD*%
D18*
%TO.P,JP2,1,1*%
%TO.N,GNDA*%
X50300000Y28448000D03*
%TO.P,JP2,2,2*%
%TO.N,GND*%
X51300000Y28448000D03*
%TD*%
D15*
%TO.P,C20,1*%
%TO.N,+5V*%
X21717000Y31435000D03*
%TO.P,C20,2*%
%TO.N,GNDA*%
X21717000Y33335000D03*
%TD*%
D19*
%TO.P,R8,1*%
%TO.N,/K*%
X26416000Y14581500D03*
%TO.P,R8,2*%
%TO.N,Net-(C12-Pad1)*%
X26416000Y16406500D03*
%TD*%
D20*
%TO.P,R12,1*%
%TO.N,Net-(L3-Pad1)*%
X59690000Y23518500D03*
%TO.P,R12,2*%
%TO.N,Net-(J3-Pad2)*%
X59690000Y21693500D03*
%TD*%
D21*
%TO.P,C1,1*%
%TO.N,VDD*%
X57211000Y16002000D03*
%TO.P,C1,2*%
%TO.N,GND*%
X55311000Y16002000D03*
%TD*%
D22*
%TO.P,C8,1*%
%TO.N,Net-(C13-Pad2)*%
X39624000Y29652000D03*
%TO.P,C8,2*%
%TO.N,/A*%
X39624000Y27752000D03*
%TD*%
D23*
%TO.P,C21,1*%
%TO.N,Net-(C21-Pad1)*%
X16068000Y14732000D03*
%TO.P,C21,2*%
%TO.N,GND*%
X17968000Y14732000D03*
%TD*%
%TO.P,C11,1*%
%TO.N,Net-(C10-Pad1)*%
X22164000Y18034000D03*
%TO.P,C11,2*%
%TO.N,GNDA*%
X24064000Y18034000D03*
%TD*%
D24*
%TO.P,D1,1,K*%
%TO.N,VDD*%
X11320214Y20718214D03*
%TO.P,D1,2,A*%
%TO.N,GND*%
X8491786Y17889786D03*
%TD*%
D20*
%TO.P,R10,1*%
%TO.N,Net-(C14-Pad2)*%
X29337000Y28471500D03*
%TO.P,R10,2*%
%TO.N,Net-(U1B--)*%
X29337000Y26646500D03*
%TD*%
D25*
%TO.P,R9,1*%
%TO.N,/REF*%
X32027500Y23749000D03*
%TO.P,R9,2*%
%TO.N,Net-(U1B-+)*%
X30202500Y23749000D03*
%TD*%
D19*
%TO.P,R6,1*%
%TO.N,Net-(C10-Pad1)*%
X22606000Y22201500D03*
%TO.P,R6,2*%
%TO.N,Net-(C9-Pad1)*%
X22606000Y24026500D03*
%TD*%
D26*
%TO.P,C12,1*%
%TO.N,Net-(C12-Pad1)*%
X27227000Y19812000D03*
%TO.P,C12,2*%
%TO.N,/REF*%
X30177000Y19812000D03*
%TD*%
D27*
%TO.P,C19,1,1*%
%TO.N,Net-(U4-VOUT)*%
X15005000Y31339000D03*
D28*
%TO.P,C19,2,2*%
%TO.N,GND*%
X16355000Y31339000D03*
D27*
%TO.P,C19,3,3*%
%TO.N,+5V*%
X17705000Y31339000D03*
%TD*%
D29*
%TO.P,FID1,*%
%TO.N,*%
X55118000Y43307000D03*
%TD*%
D30*
%TO.P,C10,1*%
%TO.N,Net-(C10-Pad1)*%
X22272000Y20320000D03*
%TO.P,C10,2*%
%TO.N,GNDA*%
X24972000Y20320000D03*
%TD*%
D31*
%TO.P,Q1,1,S*%
%TO.N,Net-(Q1-S)*%
X34483000Y18463500D03*
%TO.P,Q1,2,D*%
%TO.N,Net-(Q1-D)*%
X36383000Y18463500D03*
%TO.P,Q1,3,G*%
%TO.N,/A*%
X35433000Y16588500D03*
%TD*%
D30*
%TO.P,C23,1*%
%TO.N,Net-(U4-VOUT)*%
X14243000Y28037000D03*
%TO.P,C23,2*%
%TO.N,GND*%
X16943000Y28037000D03*
%TD*%
D23*
%TO.P,C13,1*%
%TO.N,Net-(U1B-+)*%
X35880000Y31496000D03*
%TO.P,C13,2*%
%TO.N,Net-(C13-Pad2)*%
X37780000Y31496000D03*
%TD*%
%TO.P,C17,1*%
%TO.N,VDD*%
X37912000Y38100000D03*
%TO.P,C17,2*%
%TO.N,GND*%
X39812000Y38100000D03*
%TD*%
D32*
%TO.P,M5,1,Shield*%
%TO.N,GND*%
X51460000Y9500000D03*
D33*
X51460000Y11150000D03*
D34*
X51460000Y16400000D03*
X51460000Y22400000D03*
X51460000Y28400000D03*
X51460000Y34400000D03*
D33*
X51460000Y39650000D03*
D32*
X51460000Y41300000D03*
D35*
X49810000Y9500000D03*
X49810000Y41300000D03*
D36*
X44560000Y9500000D03*
X44560000Y41300000D03*
X38560000Y9500000D03*
X38560000Y41300000D03*
X32560000Y9500000D03*
X32560000Y41300000D03*
X26560000Y9500000D03*
X26560000Y41300000D03*
D35*
X21310000Y9500000D03*
X21310000Y41300000D03*
D32*
X19660000Y9500000D03*
D33*
X19660000Y11150000D03*
D34*
X19660000Y16400000D03*
X19660000Y22400000D03*
X19660000Y28400000D03*
X19660000Y34400000D03*
D33*
X19660000Y39650000D03*
D32*
X19660000Y41300000D03*
%TD*%
D37*
%TO.P,C15,1*%
%TO.N,/REF*%
X40386000Y25605000D03*
%TO.P,C15,2*%
%TO.N,GNDA*%
X40386000Y22655000D03*
%TD*%
D23*
%TO.P,C18,1*%
%TO.N,VDD*%
X44770000Y20066000D03*
%TO.P,C18,2*%
%TO.N,GNDA*%
X46670000Y20066000D03*
%TD*%
D38*
%TO.P,U3,1,SDA*%
%TO.N,Net-(U3-SDA)*%
X33623000Y36080000D03*
%TO.P,U3,2,ADDR*%
%TO.N,Net-(JP1-C)*%
X33623000Y36580000D03*
%TO.P,U3,3,ALERT*%
%TO.N,unconnected-(U3-ALERT-Pad3)*%
X33623000Y37080000D03*
%TO.P,U3,4,SCL*%
%TO.N,Net-(U3-SCL)*%
X33623000Y37580000D03*
%TO.P,U3,5,VDD*%
%TO.N,VDD*%
X35973000Y37580000D03*
%TO.P,U3,6,~{RESET}*%
%TO.N,unconnected-(U3-~{RESET}-Pad6)*%
X35973000Y37080000D03*
%TO.P,U3,7,R*%
%TO.N,GND*%
X35973000Y36580000D03*
%TO.P,U3,8,VSS*%
X35973000Y36080000D03*
D39*
%TO.P,U3,9,VSS*%
X34798000Y36830000D03*
%TD*%
D19*
%TO.P,R5,1*%
%TO.N,Net-(C9-Pad1)*%
X22352000Y27789500D03*
%TO.P,R5,2*%
%TO.N,+5V*%
X22352000Y29614500D03*
%TD*%
D29*
%TO.P,FID2,*%
%TO.N,*%
X15240000Y7366000D03*
%TD*%
D20*
%TO.P,R11,1*%
%TO.N,Net-(U1B--)*%
X27432000Y25296500D03*
%TO.P,R11,2*%
%TO.N,/REF*%
X27432000Y23471500D03*
%TD*%
D40*
%TO.P,U2,1,Vin*%
%TO.N,VDD*%
X44528500Y22164000D03*
%TO.P,U2,2,Vout*%
%TO.N,/REF*%
X44528500Y24064000D03*
%TO.P,U2,3,GND*%
%TO.N,GNDA*%
X46403500Y23114000D03*
%TD*%
D30*
%TO.P,C9,1*%
%TO.N,Net-(C9-Pad1)*%
X22526000Y25908000D03*
%TO.P,C9,2*%
%TO.N,GNDA*%
X25226000Y25908000D03*
%TD*%
D20*
%TO.P,R4,1*%
%TO.N,Net-(C13-Pad2)*%
X41783000Y29487500D03*
%TO.P,R4,2*%
%TO.N,/A*%
X41783000Y27662500D03*
%TD*%
D15*
%TO.P,C6,1*%
%TO.N,Net-(U1B-V+)*%
X31877000Y31181000D03*
%TO.P,C6,2*%
%TO.N,GNDA*%
X31877000Y33081000D03*
%TD*%
D23*
%TO.P,C2,1*%
%TO.N,VDD*%
X15560000Y11430000D03*
%TO.P,C2,2*%
%TO.N,GND*%
X17460000Y11430000D03*
%TD*%
D41*
%TO.P,C4,1*%
%TO.N,Net-(Q1-D)*%
X41656000Y16938000D03*
%TO.P,C4,2*%
%TO.N,GNDA*%
X41656000Y19638000D03*
%TD*%
D25*
%TO.P,R2,1*%
%TO.N,Net-(U1B-V+)*%
X27582500Y30988000D03*
%TO.P,R2,2*%
%TO.N,VDD*%
X25757500Y30988000D03*
%TD*%
D42*
%TO.P,U4,1,SW*%
%TO.N,Net-(U4-SW)*%
X16063000Y20706500D03*
%TO.P,U4,2,GND*%
%TO.N,GND*%
X15113000Y20706500D03*
%TO.P,U4,3,NC*%
%TO.N,unconnected-(U4-NC-Pad3)*%
X14163000Y20706500D03*
%TO.P,U4,4,VOUT*%
%TO.N,Net-(U4-VOUT)*%
X14163000Y22981500D03*
%TO.P,U4,5,NC*%
%TO.N,unconnected-(U4-NC-Pad5)*%
X16063000Y22981500D03*
%TD*%
D43*
%TO.P,R1,1*%
%TO.N,Net-(Q1-D)*%
X43283500Y17018000D03*
%TO.P,R1,2*%
%TO.N,VDD*%
X45108500Y17018000D03*
%TD*%
D21*
%TO.P,C14,1*%
%TO.N,Net-(J1-In)*%
X56449000Y31242000D03*
%TO.P,C14,2*%
%TO.N,Net-(C14-Pad2)*%
X54549000Y31242000D03*
%TD*%
D41*
%TO.P,C7,1*%
%TO.N,Net-(U1B-V+)*%
X29337000Y30908000D03*
%TO.P,C7,2*%
%TO.N,GNDA*%
X29337000Y33608000D03*
%TD*%
D44*
%TO.P,U1,1*%
%TO.N,Net-(C13-Pad2)*%
X36892000Y29464000D03*
%TO.P,U1,2,-*%
%TO.N,/A*%
X36892000Y28194000D03*
%TO.P,U1,3,+*%
%TO.N,/REF*%
X36892000Y26924000D03*
%TO.P,U1,4,V-*%
%TO.N,GNDA*%
X36892000Y25654000D03*
%TO.P,U1,5,+*%
%TO.N,Net-(U1B-+)*%
X31942000Y25654000D03*
%TO.P,U1,6,-*%
%TO.N,Net-(U1B--)*%
X31942000Y26924000D03*
%TO.P,U1,7*%
%TO.N,Net-(C14-Pad2)*%
X31942000Y28194000D03*
%TO.P,U1,8,V+*%
%TO.N,Net-(U1B-V+)*%
X31942000Y29464000D03*
%TD*%
D30*
%TO.P,C24,1*%
%TO.N,Net-(U4-VOUT)*%
X14243000Y25497000D03*
%TO.P,C24,2*%
%TO.N,GND*%
X16943000Y25497000D03*
%TD*%
D22*
%TO.P,C16,1*%
%TO.N,Net-(C14-Pad2)*%
X27432000Y28509000D03*
%TO.P,C16,2*%
%TO.N,Net-(U1B--)*%
X27432000Y26609000D03*
%TD*%
D19*
%TO.P,R3,1*%
%TO.N,Net-(Q1-S)*%
X32258000Y17375500D03*
%TO.P,R3,2*%
%TO.N,GNDA*%
X32258000Y19200500D03*
%TD*%
D45*
%TO.P,L1,1*%
%TO.N,VDD*%
X14478000Y13349000D03*
%TO.P,L1,2*%
%TO.N,Net-(C21-Pad1)*%
X14478000Y15099000D03*
%TD*%
D37*
%TO.P,C5,1*%
%TO.N,Net-(Q1-S)*%
X29591000Y16969000D03*
%TO.P,C5,2*%
%TO.N,/K*%
X29591000Y14019000D03*
%TD*%
D46*
%TO.P,JP1,1,A*%
%TO.N,GND*%
X34260000Y43688000D03*
D47*
%TO.P,JP1,2,C*%
%TO.N,Net-(JP1-C)*%
X35560000Y43688000D03*
D48*
%TO.P,JP1,3,B*%
%TO.N,VDD*%
X36860000Y43688000D03*
%TD*%
D25*
%TO.P,R7,1*%
%TO.N,Net-(C12-Pad1)*%
X23772500Y15748000D03*
%TO.P,R7,2*%
%TO.N,Net-(C10-Pad1)*%
X21947500Y15748000D03*
%TD*%
D49*
%TO.N,GND*%
X33020000Y43822000D03*
X55118000Y24384000D03*
X55118000Y36830000D03*
X31242000Y43822000D03*
X11452086Y36954432D03*
X36830000Y36068000D03*
X18034000Y35052000D03*
X17780000Y39624000D03*
X34798000Y38354000D03*
X35560000Y8382000D03*
%TO.N,Net-(JP1-C)*%
X32512000Y38862000D03*
X32512000Y36830000D03*
%TO.N,GNDA*%
X36830000Y22860000D03*
X25400000Y22860000D03*
X23876000Y33782000D03*
X46228000Y24892000D03*
X27432000Y33782000D03*
X33528000Y22860000D03*
%TD*%
D50*
%TO.N,+5V*%
X21717000Y30162000D02*
X22352000Y29527000D01*
X21717000Y31435000D02*
X21717000Y30162000D01*
X17705000Y31339000D02*
X21621000Y31339000D01*
X21621000Y31339000D02*
X21717000Y31435000D01*
D51*
%TO.N,GND*%
X16943000Y28037000D02*
X16355000Y28625000D01*
X16355000Y28625000D02*
X16355000Y31339000D01*
D52*
X35973000Y36080000D02*
X35973000Y36455000D01*
D50*
X33154000Y43688000D02*
X33020000Y43822000D01*
D52*
X35973000Y36080000D02*
X36818000Y36080000D01*
X34798000Y36830000D02*
X34798000Y38354000D01*
D50*
X34260000Y43688000D02*
X33154000Y43688000D01*
D51*
X15113000Y19208000D02*
X14478000Y18573000D01*
D50*
X39812000Y40048000D02*
X38560000Y41300000D01*
D51*
X15113000Y20706500D02*
X15113000Y19208000D01*
D52*
X36818000Y36080000D02*
X36830000Y36068000D01*
D50*
X39812000Y38100000D02*
X39812000Y40048000D01*
%TO.N,VDD*%
X12204098Y29008902D02*
X11876000Y29337000D01*
D51*
X36610000Y42388000D02*
X36860000Y42638000D01*
D50*
X16984000Y37050000D02*
X25434000Y37050000D01*
X12204098Y32270098D02*
X16984000Y37050000D01*
X25757500Y36726500D02*
X25757500Y30988000D01*
X11876000Y29337000D02*
X10414000Y29337000D01*
X12204098Y29008902D02*
X12204098Y32270098D01*
X38354000Y37658000D02*
X37912000Y38100000D01*
X25434000Y37050000D02*
X25757500Y36726500D01*
X47498000Y14628500D02*
X47498000Y11684000D01*
D52*
X37912000Y38100000D02*
X37517000Y37705000D01*
D50*
X11320214Y20718214D02*
X12204098Y21602098D01*
X45108500Y19727500D02*
X45108500Y17018000D01*
X56610000Y14446000D02*
X54864000Y12700000D01*
X57150000Y18796000D02*
X57150000Y16063000D01*
X12204098Y21602098D02*
X12204098Y29008902D01*
X52070000Y7112000D02*
X47498000Y7112000D01*
X54864000Y12700000D02*
X54864000Y9906000D01*
X15560000Y10348000D02*
X15560000Y11430000D01*
D51*
X36110000Y42288000D02*
X36210000Y42388000D01*
D50*
X25757500Y36726500D02*
X29821500Y36726500D01*
X31750000Y34798000D02*
X38354000Y34798000D01*
X15560000Y12267000D02*
X14478000Y13349000D01*
X44528500Y22164000D02*
X44528500Y20307500D01*
D51*
X36110000Y39902000D02*
X36110000Y42288000D01*
X36860000Y42638000D02*
X36860000Y43688000D01*
X36210000Y42388000D02*
X36610000Y42388000D01*
D50*
X56610000Y15401000D02*
X56610000Y14446000D01*
X18796000Y7112000D02*
X15560000Y10348000D01*
X44770000Y20066000D02*
X45108500Y19727500D01*
X57211000Y16002000D02*
X56610000Y15401000D01*
X14478000Y13349000D02*
X14306464Y13349000D01*
X54864000Y9906000D02*
X52070000Y7112000D01*
X15560000Y11430000D02*
X15560000Y12267000D01*
X57150000Y16063000D02*
X57211000Y16002000D01*
X47498000Y7112000D02*
X18796000Y7112000D01*
D52*
X37517000Y37705000D02*
X36576000Y37705000D01*
D51*
X36110000Y39902000D02*
X36576000Y39436000D01*
D50*
X10414000Y29337000D02*
X7874000Y29337000D01*
X44528500Y20307500D02*
X44770000Y20066000D01*
X45108500Y17018000D02*
X47498000Y14628500D01*
X14306464Y13349000D02*
X11320214Y16335250D01*
X29821500Y36726500D02*
X31750000Y34798000D01*
D51*
X36576000Y39436000D02*
X36576000Y37705000D01*
D52*
X36576000Y37705000D02*
X35973000Y37705000D01*
D50*
X47498000Y7112000D02*
X47498000Y11684000D01*
X11320214Y16335250D02*
X11320214Y20718214D01*
X38354000Y34798000D02*
X38354000Y37658000D01*
D53*
%TO.N,Net-(Q1-D)*%
X37762500Y17084000D02*
X38989000Y17084000D01*
X39135000Y16938000D02*
X38989000Y17084000D01*
X43291000Y16938000D02*
X43371000Y17018000D01*
X41656000Y16938000D02*
X39135000Y16938000D01*
X36383000Y18463500D02*
X37762500Y17084000D01*
X41656000Y16938000D02*
X43291000Y16938000D01*
%TO.N,Net-(Q1-S)*%
X29894000Y17272000D02*
X29591000Y16969000D01*
X31851500Y16969000D02*
X32258000Y17375500D01*
X33123500Y17375500D02*
X32258000Y17375500D01*
X29591000Y16969000D02*
X31851500Y16969000D01*
X34211500Y18463500D02*
X33123500Y17375500D01*
X34483000Y18463500D02*
X34211500Y18463500D01*
%TO.N,/K*%
X29591000Y14019000D02*
X26978500Y14019000D01*
X26978500Y14019000D02*
X26416000Y14581500D01*
X29591000Y14019000D02*
X32679000Y14019000D01*
X29479000Y13907000D02*
X29591000Y14019000D01*
X32679000Y14019000D02*
X33060000Y14400000D01*
%TO.N,Net-(U1B-V+)*%
X29337000Y30908000D02*
X31604000Y30908000D01*
X31877000Y29529000D02*
X31942000Y29464000D01*
X27495000Y30988000D02*
X29257000Y30988000D01*
X31604000Y30908000D02*
X31877000Y31181000D01*
X31877000Y31181000D02*
X31877000Y29529000D01*
X29257000Y30988000D02*
X29337000Y30908000D01*
%TO.N,Net-(C13-Pad2)*%
X37080000Y29652000D02*
X36892000Y29464000D01*
X36892000Y30608000D02*
X37780000Y31496000D01*
X39624000Y29652000D02*
X37080000Y29652000D01*
X41783000Y29487500D02*
X39788500Y29487500D01*
X39788500Y29487500D02*
X39624000Y29652000D01*
X36892000Y29464000D02*
X36892000Y30608000D01*
%TO.N,/A*%
X41693500Y27752000D02*
X41783000Y27662500D01*
X34798000Y21279586D02*
X34798000Y26618173D01*
X36373827Y28194000D02*
X36892000Y28194000D01*
X38060000Y14400000D02*
X37621500Y14400000D01*
X35433000Y20644586D02*
X34798000Y21279586D01*
X36892000Y28194000D02*
X39182000Y28194000D01*
X35433000Y16588500D02*
X35433000Y20644586D01*
X39182000Y28194000D02*
X39624000Y27752000D01*
X37621500Y14400000D02*
X35433000Y16588500D01*
X39624000Y27752000D02*
X41693500Y27752000D01*
X34798000Y26618173D02*
X36373827Y28194000D01*
%TO.N,Net-(C9-Pad1)*%
X22352000Y27877000D02*
X22352000Y26082000D01*
X22526000Y24019000D02*
X22606000Y23939000D01*
X22352000Y26082000D02*
X22526000Y25908000D01*
X22526000Y25908000D02*
X22526000Y24019000D01*
%TO.N,Net-(C10-Pad1)*%
X22164000Y18034000D02*
X22164000Y15877000D01*
X22272000Y18142000D02*
X22164000Y18034000D01*
X22272000Y20320000D02*
X22272000Y18142000D01*
X22606000Y22289000D02*
X22606000Y20654000D01*
X22164000Y15877000D02*
X22035000Y15748000D01*
X22606000Y20654000D02*
X22272000Y20320000D01*
%TO.N,Net-(C12-Pad1)*%
X26416000Y16406500D02*
X26416000Y17092832D01*
X26416000Y17092832D02*
X27227000Y17903832D01*
X24638000Y15748000D02*
X25296500Y16406500D01*
X27227000Y17903832D02*
X27227000Y19812000D01*
X26924000Y19509000D02*
X27227000Y19812000D01*
X25296500Y16406500D02*
X26416000Y16406500D01*
X23772500Y15748000D02*
X24638000Y15748000D01*
D52*
%TO.N,/REF*%
X44096000Y16163406D02*
X44065297Y16132703D01*
D53*
X27816000Y17573594D02*
X27816000Y15618000D01*
D52*
X44065297Y17903297D02*
X44096000Y17872594D01*
D53*
X44528500Y24064000D02*
X42672000Y24064000D01*
X30177000Y19812000D02*
X32027500Y21662500D01*
X42672000Y24064000D02*
X42956000Y23780000D01*
X33883043Y16387000D02*
X35306000Y14964043D01*
X39164000Y26827000D02*
X40386000Y25605000D01*
X37457957Y12192000D02*
X40124594Y12192000D01*
X30177000Y19812000D02*
X30054406Y19812000D01*
X32027500Y21662500D02*
X32027500Y23749000D01*
X35306000Y14343957D02*
X37457957Y12192000D01*
X41927000Y24064000D02*
X40386000Y25605000D01*
X40124594Y12192000D02*
X44065297Y16132703D01*
X32236957Y16387000D02*
X33883043Y16387000D01*
X31467957Y15618000D02*
X32236957Y16387000D01*
X42956000Y19012594D02*
X44065297Y17903297D01*
X42672000Y24064000D02*
X41927000Y24064000D01*
X27816000Y15618000D02*
X31467957Y15618000D01*
D52*
X44096000Y17872594D02*
X44096000Y16163406D01*
D53*
X30054406Y19812000D02*
X27816000Y17573594D01*
X27432000Y23471500D02*
X27432000Y22557000D01*
X27432000Y22557000D02*
X30177000Y19812000D01*
X42956000Y23780000D02*
X42956000Y19012594D01*
X36892000Y26924000D02*
X36989000Y26827000D01*
X36989000Y26827000D02*
X39164000Y26827000D01*
X35306000Y14964043D02*
X35306000Y14343957D01*
%TO.N,Net-(U1B-+)*%
X30290000Y24956000D02*
X30290000Y23749000D01*
X35880000Y31496000D02*
X34642000Y30258000D01*
X34642000Y30258000D02*
X34642000Y27835827D01*
X30988000Y25654000D02*
X30290000Y24956000D01*
X31942000Y25654000D02*
X30988000Y25654000D01*
X32460173Y25654000D02*
X31942000Y25654000D01*
X34642000Y27835827D02*
X32460173Y25654000D01*
%TO.N,Net-(J1-In)*%
X59690000Y31242000D02*
X59690001Y27732500D01*
X59690000Y31242000D02*
X56449000Y31242000D01*
%TO.N,Net-(C14-Pad2)*%
X44704000Y31242000D02*
X42672000Y33274000D01*
X31942000Y28194000D02*
X29614500Y28194000D01*
X27569500Y28471500D02*
X27432000Y28334000D01*
X33342000Y29075827D02*
X32460173Y28194000D01*
X32460173Y28194000D02*
X31942000Y28194000D01*
X42672000Y33274000D02*
X35052000Y33274000D01*
X29337000Y28471500D02*
X27569500Y28471500D01*
X54549000Y31242000D02*
X44704000Y31242000D01*
X35052000Y33274000D02*
X33342000Y31564000D01*
X29614500Y28194000D02*
X29337000Y28471500D01*
X33342000Y31564000D02*
X33342000Y29075827D01*
%TO.N,Net-(U1B--)*%
X29199500Y26784000D02*
X29337000Y26646500D01*
X31664500Y26646500D02*
X31942000Y26924000D01*
X27432000Y26784000D02*
X29199500Y26784000D01*
X29337000Y26646500D02*
X31664500Y26646500D01*
X27432000Y25296500D02*
X27432000Y26609000D01*
%TO.N,Net-(U4-VOUT)*%
X14243000Y25497000D02*
X14243000Y28037000D01*
X15005000Y28799000D02*
X15005000Y31339000D01*
X14243000Y28037000D02*
X15005000Y28799000D01*
X14163000Y25417000D02*
X14243000Y25497000D01*
X14163000Y22981500D02*
X14163000Y25417000D01*
%TO.N,Net-(C21-Pad1)*%
X15876000Y15099000D02*
X16243000Y14732000D01*
X16243000Y15980000D02*
X16243000Y14732000D01*
X16764000Y16501000D02*
X16243000Y15980000D01*
X14478000Y15099000D02*
X14478000Y16848000D01*
X14478000Y15099000D02*
X15876000Y15099000D01*
%TO.N,Net-(U3-SDA)*%
X10414000Y31877000D02*
X15748000Y37211000D01*
X33598000Y36005000D02*
X33623000Y36030000D01*
X28290762Y42926000D02*
X29385000Y41831762D01*
X32170273Y36005000D02*
X33598000Y36005000D01*
X16764000Y42926000D02*
X28290762Y42926000D01*
X10414000Y31877000D02*
X7874000Y31877000D01*
X29385000Y38790273D02*
X32170273Y36005000D01*
X29385000Y41831762D02*
X29385000Y38790273D01*
X15748000Y41910000D02*
X16764000Y42926000D01*
X15748000Y37211000D02*
X15748000Y41910000D01*
%TO.N,Net-(U3-SCL)*%
X5935000Y42390053D02*
X8502947Y44958000D01*
X30035000Y39790273D02*
X32170273Y37655000D01*
X7874000Y26797000D02*
X5935000Y28736000D01*
X32170273Y37655000D02*
X33598000Y37655000D01*
X30035000Y43117000D02*
X30035000Y39790273D01*
X10414000Y26797000D02*
X7874000Y26797000D01*
X33598000Y37655000D02*
X33623000Y37630000D01*
X8502947Y44958000D02*
X28194000Y44958000D01*
X28194000Y44958000D02*
X30035000Y43117000D01*
X5935000Y28736000D02*
X5935000Y42390053D01*
%TO.N,Net-(J3-Pad2)*%
X59690000Y21693500D02*
X59690000Y18796000D01*
%TO.N,Net-(JP1-C)*%
X35560000Y43688000D02*
X35435000Y43563000D01*
X35334999Y42579115D02*
X35334999Y40340568D01*
X35334999Y40340568D02*
X33856431Y38862000D01*
D52*
X32762000Y36580000D02*
X32512000Y36830000D01*
D53*
X35435000Y42679116D02*
X35334999Y42579115D01*
D52*
X33623000Y36580000D02*
X32762000Y36580000D01*
D53*
X33856431Y38862000D02*
X32512000Y38862000D01*
X35435000Y43563000D02*
X35435000Y42679116D01*
%TO.N,Net-(U4-SW)*%
X16063000Y20706500D02*
X16063000Y20259000D01*
X16764000Y19558000D02*
X16764000Y18551000D01*
X16063000Y20259000D02*
X16764000Y19558000D01*
%TO.N,Net-(L3-Pad1)*%
X59690001Y23518501D02*
X59690000Y23518500D01*
X59690001Y25607500D02*
X59690001Y23518501D01*
D50*
%TO.N,GNDA*%
X31877000Y33081000D02*
X29864000Y33081000D01*
X29337000Y33608000D02*
X27606000Y33608000D01*
X27606000Y33608000D02*
X27432000Y33782000D01*
X46403500Y24716500D02*
X46228000Y24892000D01*
X46403500Y23114000D02*
X46403500Y24716500D01*
X37035000Y22655000D02*
X36830000Y22860000D01*
X25400000Y22860000D02*
X26162000Y22098000D01*
X29864000Y33081000D02*
X29337000Y33608000D01*
X26162000Y22098000D02*
X26416000Y22098000D01*
X40386000Y22655000D02*
X37035000Y22655000D01*
%TD*%
%TA.AperFunction,Conductor*%
%TO.N,GND*%
G36*
X65718539Y45435815D02*
G01*
X65764294Y45383011D01*
X65775500Y45331500D01*
X65775500Y5468500D01*
X65755815Y5401461D01*
X65703011Y5355706D01*
X65651500Y5344500D01*
X5468500Y5344500D01*
X5401461Y5364185D01*
X5355706Y5416989D01*
X5344500Y5468500D01*
X5344500Y7366000D01*
X14234659Y7366000D01*
X14253975Y7169871D01*
X14311188Y6981267D01*
X14404086Y6807468D01*
X14404090Y6807461D01*
X14529116Y6655117D01*
X14681460Y6530091D01*
X14681467Y6530087D01*
X14855266Y6437189D01*
X14855269Y6437189D01*
X14855273Y6437186D01*
X15043868Y6379976D01*
X15240000Y6360659D01*
X15436132Y6379976D01*
X15624727Y6437186D01*
X15627983Y6438926D01*
X15736165Y6496751D01*
X15798538Y6530090D01*
X15950883Y6655117D01*
X16075910Y6807462D01*
X16168814Y6981273D01*
X16226024Y7169868D01*
X16245341Y7366000D01*
X16226024Y7562132D01*
X16168814Y7750727D01*
X16168811Y7750731D01*
X16168811Y7750734D01*
X16075913Y7924533D01*
X16075909Y7924540D01*
X15950883Y8076884D01*
X15798539Y8201910D01*
X15798532Y8201914D01*
X15624733Y8294812D01*
X15624727Y8294814D01*
X15436132Y8352024D01*
X15436129Y8352025D01*
X15240000Y8371341D01*
X15043870Y8352025D01*
X14855266Y8294812D01*
X14681467Y8201914D01*
X14681460Y8201910D01*
X14529116Y8076884D01*
X14404090Y7924540D01*
X14404086Y7924533D01*
X14311188Y7750734D01*
X14253975Y7562130D01*
X14234659Y7366000D01*
X5344500Y7366000D01*
X5344500Y16475573D01*
X7431126Y16475573D01*
X7924561Y15982138D01*
X7924568Y15982132D01*
X7971199Y15944554D01*
X7971201Y15944553D01*
X8101979Y15884827D01*
X8101984Y15884826D01*
X8244298Y15864366D01*
X8386612Y15884826D01*
X8386617Y15884827D01*
X8517396Y15944553D01*
X8564031Y15982133D01*
X9304958Y16723060D01*
X9304957Y16723062D01*
X8491787Y17536233D01*
X8491786Y17536233D01*
X7431126Y16475573D01*
X5344500Y16475573D01*
X5344500Y17642299D01*
X6466365Y17642299D01*
X6486825Y17499985D01*
X6486826Y17499980D01*
X6546552Y17369202D01*
X6546553Y17369200D01*
X6584131Y17322569D01*
X6584137Y17322562D01*
X7077572Y16829127D01*
X8138233Y17889786D01*
X7325060Y18702959D01*
X6584136Y17962036D01*
X6584132Y17962032D01*
X6546552Y17915397D01*
X6486826Y17784618D01*
X6486825Y17784613D01*
X6466365Y17642299D01*
X5344500Y17642299D01*
X5344500Y27989812D01*
X5364185Y28056851D01*
X5416989Y28102606D01*
X5486147Y28112550D01*
X5549703Y28083525D01*
X5556181Y28077493D01*
X6567181Y27066494D01*
X6600666Y27005171D01*
X6603500Y26978813D01*
X6603500Y25986346D01*
X6610011Y25925798D01*
X6610011Y25925796D01*
X6660714Y25789861D01*
X6661111Y25788796D01*
X6748739Y25671739D01*
X6816575Y25620958D01*
X6858445Y25565025D01*
X6863429Y25495334D01*
X6829944Y25434011D01*
X6816575Y25422426D01*
X6754809Y25376188D01*
X6668649Y25261094D01*
X6668645Y25261087D01*
X6618403Y25126380D01*
X6618401Y25126373D01*
X6612000Y25066845D01*
X6612000Y24507000D01*
X7319639Y24507000D01*
X7386678Y24487315D01*
X7432433Y24434511D01*
X7442377Y24365353D01*
X7440532Y24355422D01*
X7431444Y24315599D01*
X7425736Y24290593D01*
X7425735Y24290592D01*
X7436443Y24147705D01*
X7434703Y24147575D01*
X7431106Y24088855D01*
X7389808Y24032497D01*
X7324597Y24007413D01*
X7314488Y24007000D01*
X6612000Y24007000D01*
X6612000Y23447156D01*
X6618401Y23387628D01*
X6618403Y23387621D01*
X6668645Y23252914D01*
X6668649Y23252907D01*
X6754809Y23137813D01*
X6754812Y23137810D01*
X6869906Y23051650D01*
X6869913Y23051646D01*
X7004620Y23001404D01*
X7004627Y23001402D01*
X7064155Y22995001D01*
X7064172Y22995000D01*
X7623999Y22995000D01*
X7624000Y23700935D01*
X7643685Y23767974D01*
X7696489Y23813729D01*
X7765647Y23823673D01*
X7784542Y23819428D01*
X7807002Y23812500D01*
X7807004Y23812500D01*
X7907311Y23812500D01*
X7907312Y23812500D01*
X7981518Y23823685D01*
X8050742Y23814212D01*
X8103857Y23768818D01*
X8123997Y23701914D01*
X8124000Y23701070D01*
X8124000Y22995000D01*
X8683828Y22995000D01*
X8683844Y22995001D01*
X8743372Y23001402D01*
X8743379Y23001404D01*
X8878086Y23051646D01*
X8878093Y23051650D01*
X8993186Y23137809D01*
X9044733Y23206666D01*
X9100667Y23248537D01*
X9170359Y23253521D01*
X9231682Y23220036D01*
X9243267Y23206666D01*
X9294813Y23137809D01*
X9409906Y23051650D01*
X9409913Y23051646D01*
X9544620Y23001404D01*
X9544627Y23001402D01*
X9604155Y22995001D01*
X9604172Y22995000D01*
X10163999Y22995000D01*
X10164000Y23700935D01*
X10183685Y23767974D01*
X10236489Y23813729D01*
X10305647Y23823673D01*
X10324542Y23819428D01*
X10347002Y23812500D01*
X10347004Y23812500D01*
X10447311Y23812500D01*
X10447312Y23812500D01*
X10521518Y23823685D01*
X10590742Y23814212D01*
X10643857Y23768818D01*
X10663997Y23701914D01*
X10664000Y23701070D01*
X10663999Y22995000D01*
X11221597Y22995000D01*
X11288636Y22975315D01*
X11334391Y22922511D01*
X11345597Y22871000D01*
X11345597Y22774193D01*
X11325912Y22707154D01*
X11294996Y22676781D01*
X11295998Y22675537D01*
X11242531Y22632452D01*
X9405976Y20795897D01*
X9367759Y20748472D01*
X9367756Y20748467D01*
X9307015Y20615465D01*
X9307014Y20615460D01*
X9286206Y20470727D01*
X9307014Y20325994D01*
X9307015Y20325990D01*
X9345463Y20241802D01*
X9367758Y20192984D01*
X9405978Y20145555D01*
X9405981Y20145552D01*
X9405986Y20145546D01*
X10425395Y19126138D01*
X10458880Y19064815D01*
X10461714Y19038457D01*
X10461714Y18694093D01*
X10442029Y18627054D01*
X10389225Y18581299D01*
X10320067Y18571355D01*
X10256511Y18600380D01*
X10250033Y18606412D01*
X9059010Y19797435D01*
X9059003Y19797441D01*
X9012372Y19835019D01*
X9012370Y19835020D01*
X8881592Y19894746D01*
X8881587Y19894747D01*
X8739273Y19915207D01*
X8596959Y19894747D01*
X8596954Y19894746D01*
X8466175Y19835020D01*
X8419540Y19797440D01*
X7678613Y19056513D01*
X7678613Y19056512D01*
X8491786Y18243339D01*
X9658510Y17076613D01*
X9658511Y17076613D01*
X10250033Y17668135D01*
X10311356Y17701620D01*
X10381048Y17696636D01*
X10436981Y17654764D01*
X10461398Y17589300D01*
X10461714Y17580454D01*
X10461714Y16372661D01*
X10461509Y16367627D01*
X10456968Y16311869D01*
X10468004Y16230871D01*
X10476842Y16149612D01*
X10476907Y16149313D01*
X10482128Y16127039D01*
X10482176Y16126844D01*
X10510363Y16050121D01*
X10536466Y15972650D01*
X10536467Y15972649D01*
X10536577Y15972410D01*
X10546442Y15951823D01*
X10546571Y15951563D01*
X10546573Y15951560D01*
X10590593Y15882690D01*
X10632738Y15812645D01*
X10632739Y15812644D01*
X10632741Y15812641D01*
X10632947Y15812370D01*
X10646981Y15794418D01*
X10647143Y15794217D01*
X10704963Y15736397D01*
X10761158Y15677074D01*
X10761449Y15676827D01*
X10779213Y15662149D01*
X13471732Y12969630D01*
X13501269Y12915537D01*
X13502808Y12916046D01*
X13559790Y12744083D01*
X13559795Y12744072D01*
X13651339Y12595658D01*
X13651342Y12595654D01*
X13774653Y12472343D01*
X13774657Y12472340D01*
X13923071Y12380796D01*
X13923074Y12380795D01*
X13923080Y12380791D01*
X14088619Y12325938D01*
X14190787Y12315500D01*
X14246034Y12315501D01*
X14313073Y12295818D01*
X14333716Y12279182D01*
X14519645Y12093252D01*
X14553130Y12031929D01*
X14555322Y11992972D01*
X14551501Y11955562D01*
X14551500Y11955539D01*
X14551500Y10904463D01*
X14551501Y10904447D01*
X14562113Y10800573D01*
X14617884Y10632265D01*
X14617889Y10632254D01*
X14683037Y10526634D01*
X14701499Y10461539D01*
X14701500Y10385412D01*
X14701295Y10380377D01*
X14696754Y10324619D01*
X14707790Y10243621D01*
X14716628Y10162362D01*
X14716693Y10162063D01*
X14721914Y10139789D01*
X14721962Y10139594D01*
X14750148Y10062872D01*
X14750149Y10062871D01*
X14776252Y9985400D01*
X14776253Y9985399D01*
X14776363Y9985160D01*
X14786228Y9964573D01*
X14786357Y9964313D01*
X14786359Y9964310D01*
X14830379Y9895440D01*
X14872524Y9825395D01*
X14872525Y9825394D01*
X14872527Y9825391D01*
X14872733Y9825120D01*
X14886767Y9807168D01*
X14886929Y9806967D01*
X14944749Y9749147D01*
X14981761Y9710075D01*
X14997898Y9693039D01*
X15000944Y9689824D01*
X15001235Y9689577D01*
X15018999Y9674899D01*
X18162488Y6531410D01*
X18165894Y6527717D01*
X18202129Y6485058D01*
X18267212Y6435583D01*
X18330913Y6384379D01*
X18330920Y6384376D01*
X18331264Y6384155D01*
X18350517Y6372213D01*
X18350788Y6372050D01*
X18424978Y6337726D01*
X18444077Y6328254D01*
X18498203Y6301410D01*
X18498204Y6301410D01*
X18498206Y6301409D01*
X18498500Y6301301D01*
X18519974Y6293740D01*
X18520263Y6293643D01*
X18600106Y6276069D01*
X18679419Y6256344D01*
X18679423Y6256344D01*
X18679739Y6256301D01*
X18702414Y6253525D01*
X18702629Y6253501D01*
X18702633Y6253500D01*
X18702636Y6253500D01*
X18784398Y6253500D01*
X18866086Y6251287D01*
X18866086Y6251288D01*
X18866091Y6251287D01*
X18866388Y6251312D01*
X18889407Y6253500D01*
X47404633Y6253500D01*
X47417999Y6253500D01*
X47438059Y6251867D01*
X47451248Y6249704D01*
X47519581Y6253410D01*
X47522936Y6253500D01*
X52032590Y6253500D01*
X52037624Y6253295D01*
X52060094Y6251466D01*
X52093385Y6248755D01*
X52174379Y6259791D01*
X52255640Y6268628D01*
X52255645Y6268630D01*
X52256062Y6268722D01*
X52277958Y6273852D01*
X52278399Y6273963D01*
X52278410Y6273964D01*
X52355129Y6302150D01*
X52432600Y6328252D01*
X52432604Y6328255D01*
X52432945Y6328412D01*
X52453333Y6338183D01*
X52453682Y6338357D01*
X52453690Y6338359D01*
X52522560Y6382380D01*
X52592605Y6424524D01*
X52592607Y6424527D01*
X52592942Y6424781D01*
X52610781Y6438728D01*
X52611028Y6438926D01*
X52611028Y6438927D01*
X52611031Y6438928D01*
X52668853Y6496751D01*
X52728174Y6552942D01*
X52728174Y6552943D01*
X52728177Y6552945D01*
X52728385Y6553191D01*
X52743098Y6570997D01*
X55444613Y9272513D01*
X55448282Y9275894D01*
X55490942Y9312129D01*
X55540409Y9377203D01*
X55591622Y9440913D01*
X55591624Y9440918D01*
X55591830Y9441239D01*
X55603712Y9460394D01*
X55603946Y9460784D01*
X55603949Y9460787D01*
X55638263Y9534958D01*
X55674591Y9608204D01*
X55674708Y9608524D01*
X55682226Y9629877D01*
X55682354Y9630258D01*
X55682357Y9630263D01*
X55699925Y9710075D01*
X55719657Y9789419D01*
X55719657Y9789426D01*
X55719704Y9789768D01*
X55722456Y9812229D01*
X55722500Y9812633D01*
X55722500Y9894383D01*
X55724713Y9976089D01*
X55724695Y9976303D01*
X55722500Y9999407D01*
X55722500Y12293037D01*
X55742185Y12360076D01*
X55758814Y12380713D01*
X57190613Y13812513D01*
X57194282Y13815894D01*
X57236942Y13852129D01*
X57286417Y13917213D01*
X57337621Y13980913D01*
X57337621Y13980915D01*
X57337816Y13981218D01*
X57349796Y14000533D01*
X57349945Y14000780D01*
X57349947Y14000785D01*
X57349949Y14000787D01*
X57384266Y14074963D01*
X57420591Y14148203D01*
X57420591Y14148207D01*
X57420594Y14148211D01*
X57420714Y14148538D01*
X57428222Y14169864D01*
X57428358Y14170266D01*
X57445924Y14250072D01*
X57447403Y14256019D01*
X57465657Y14329419D01*
X57465657Y14329423D01*
X57465658Y14329426D01*
X57465702Y14329754D01*
X57468456Y14352229D01*
X57468500Y14352633D01*
X57468500Y14434383D01*
X57470713Y14516089D01*
X57470695Y14516303D01*
X57468500Y14539407D01*
X57468500Y14652126D01*
X57488185Y14719165D01*
X57540989Y14764920D01*
X57579897Y14775484D01*
X57615426Y14779113D01*
X57783738Y14834885D01*
X57934652Y14927970D01*
X58060030Y15053348D01*
X58153115Y15204262D01*
X58208887Y15372574D01*
X58219500Y15476455D01*
X58219499Y16527544D01*
X58208887Y16631426D01*
X58153115Y16799738D01*
X58060030Y16950652D01*
X58044819Y16965863D01*
X58011334Y17027186D01*
X58008500Y17053544D01*
X58008500Y17441180D01*
X58028185Y17508219D01*
X58080989Y17553974D01*
X58089139Y17557351D01*
X58158204Y17583111D01*
X58275261Y17670739D01*
X58320734Y17731484D01*
X58376667Y17773354D01*
X58446359Y17778338D01*
X58507682Y17744853D01*
X58519263Y17731488D01*
X58564739Y17670739D01*
X58681796Y17583111D01*
X58755684Y17555552D01*
X58813774Y17533885D01*
X58818799Y17532011D01*
X58846050Y17529082D01*
X58879345Y17525501D01*
X58879362Y17525500D01*
X60500638Y17525500D01*
X60500654Y17525501D01*
X60527692Y17528409D01*
X60561201Y17532011D01*
X60566226Y17533885D01*
X60620085Y17553974D01*
X60698204Y17583111D01*
X60815261Y17670739D01*
X60902889Y17787796D01*
X60953989Y17924799D01*
X60957992Y17962036D01*
X60960499Y17985346D01*
X60960500Y17985363D01*
X60960500Y19606638D01*
X60960499Y19606655D01*
X60957157Y19637730D01*
X60953989Y19667201D01*
X60953112Y19669552D01*
X60931195Y19728313D01*
X60902889Y19804204D01*
X60815261Y19921261D01*
X60698204Y20008889D01*
X60658551Y20023679D01*
X60561203Y20059989D01*
X60534242Y20062888D01*
X60469692Y20089627D01*
X60429845Y20147021D01*
X60423500Y20186177D01*
X60423500Y20645477D01*
X60443185Y20712516D01*
X60482401Y20751014D01*
X60613652Y20831970D01*
X60739030Y20957348D01*
X60832115Y21108262D01*
X60887887Y21276574D01*
X60898500Y21380455D01*
X60898499Y22006544D01*
X60887887Y22110426D01*
X60832115Y22278738D01*
X60739030Y22429652D01*
X60650363Y22518319D01*
X60616878Y22579642D01*
X60621862Y22649334D01*
X60650363Y22693681D01*
X60663836Y22707154D01*
X60739030Y22782348D01*
X60832115Y22933262D01*
X60887887Y23101574D01*
X60898500Y23205455D01*
X60898499Y23831544D01*
X60887887Y23935426D01*
X60832115Y24103738D01*
X60739030Y24254652D01*
X60613652Y24380030D01*
X60613648Y24380033D01*
X60482404Y24460986D01*
X60435679Y24512934D01*
X60423501Y24566524D01*
X60423501Y24682349D01*
X60443186Y24749388D01*
X60482405Y24787888D01*
X60491664Y24793599D01*
X60525388Y24814400D01*
X60645601Y24934613D01*
X60734850Y25079308D01*
X60788325Y25240686D01*
X60798501Y25340289D01*
X60798500Y25874710D01*
X60788325Y25974314D01*
X60734850Y26135692D01*
X60645601Y26280387D01*
X60525388Y26400600D01*
X60435497Y26456045D01*
X60380695Y26489848D01*
X60380690Y26489850D01*
X60342502Y26502504D01*
X60219315Y26543324D01*
X60219312Y26543325D01*
X60219314Y26543325D01*
X60186834Y26546643D01*
X60122143Y26573041D01*
X60081993Y26630222D01*
X60079131Y26700033D01*
X60114466Y26760309D01*
X60176780Y26791913D01*
X60186828Y26793358D01*
X60219315Y26796676D01*
X60380693Y26850151D01*
X60525388Y26939400D01*
X60645601Y27059613D01*
X60734850Y27204308D01*
X60788325Y27365686D01*
X60798501Y27465289D01*
X60798500Y27615682D01*
X60818184Y27682719D01*
X60870988Y27728474D01*
X60910759Y27736313D01*
X61369476Y28195030D01*
X61430799Y28228515D01*
X61500490Y28223531D01*
X61551665Y28187625D01*
X61631736Y28093359D01*
X61642009Y28081265D01*
X61711191Y28028674D01*
X61752647Y27972436D01*
X61757118Y27902709D01*
X61723830Y27842279D01*
X61268087Y27386536D01*
X61268087Y27386535D01*
X61271888Y27383288D01*
X61271898Y27383281D01*
X61489984Y27249637D01*
X61489987Y27249635D01*
X61726297Y27151753D01*
X61975011Y27092043D01*
X61975010Y27092043D01*
X62230000Y27071976D01*
X62484989Y27092043D01*
X62733702Y27151753D01*
X62970012Y27249635D01*
X62970015Y27249637D01*
X63188103Y27383281D01*
X63191912Y27386536D01*
X62739746Y27838701D01*
X62706261Y27900024D01*
X62711245Y27969715D01*
X62744586Y28014558D01*
X62742550Y28016708D01*
X62747429Y28021331D01*
X62747431Y28021331D01*
X62881658Y28148477D01*
X62900652Y28176493D01*
X62954563Y28220932D01*
X63023945Y28229172D01*
X63086768Y28198592D01*
X63090966Y28194586D01*
X63545464Y27740088D01*
X63548719Y27743897D01*
X63682363Y27961985D01*
X63682365Y27961988D01*
X63780247Y28198298D01*
X63839957Y28447011D01*
X63860024Y28702000D01*
X63839957Y28956990D01*
X63780247Y29205703D01*
X63682365Y29442013D01*
X63682363Y29442016D01*
X63548719Y29660102D01*
X63548712Y29660112D01*
X63545465Y29663913D01*
X63545464Y29663913D01*
X63090523Y29208972D01*
X63029200Y29175487D01*
X62959508Y29180471D01*
X62908334Y29216376D01*
X62817991Y29322735D01*
X62796488Y29339081D01*
X62748806Y29375328D01*
X62707351Y29431568D01*
X62702882Y29501294D01*
X62736169Y29561723D01*
X63191911Y30017465D01*
X63191911Y30017467D01*
X63188110Y30020714D01*
X63188095Y30020725D01*
X62970015Y30154364D01*
X62970012Y30154366D01*
X62733702Y30252248D01*
X62484988Y30311958D01*
X62484989Y30311958D01*
X62230000Y30332025D01*
X61975010Y30311958D01*
X61726297Y30252248D01*
X61489987Y30154366D01*
X61489984Y30154364D01*
X61271897Y30020720D01*
X61268087Y30017466D01*
X61720253Y29565300D01*
X61753738Y29503977D01*
X61748754Y29434285D01*
X61715467Y29389386D01*
X61717450Y29387293D01*
X61578342Y29255524D01*
X61559347Y29227507D01*
X61505433Y29183067D01*
X61436050Y29174829D01*
X61373228Y29205410D01*
X61369033Y29209414D01*
X60914534Y29663913D01*
X60911280Y29660103D01*
X60777636Y29442016D01*
X60777634Y29442013D01*
X60679752Y29205703D01*
X60668074Y29157056D01*
X60633283Y29096464D01*
X60571257Y29064300D01*
X60501688Y29070776D01*
X60446664Y29113836D01*
X60423655Y29179808D01*
X60423500Y29186003D01*
X60423500Y29823516D01*
X60443185Y29890555D01*
X60482708Y29929242D01*
X60594156Y29997536D01*
X60777701Y30154299D01*
X60934464Y30337844D01*
X61060584Y30543653D01*
X61152955Y30766657D01*
X61209304Y31001366D01*
X61228242Y31242000D01*
X61209304Y31482634D01*
X61152955Y31717343D01*
X61092567Y31863135D01*
X61060584Y31940348D01*
X60934467Y32146151D01*
X60934466Y32146153D01*
X60934465Y32146154D01*
X60934464Y32146156D01*
X60777701Y32329701D01*
X60594156Y32486464D01*
X60594154Y32486466D01*
X60594152Y32486467D01*
X60594150Y32486468D01*
X60388347Y32612585D01*
X60165343Y32704956D01*
X59930630Y32761305D01*
X59930631Y32761305D01*
X59712474Y32778474D01*
X59690000Y32780242D01*
X59689999Y32780242D01*
X59449368Y32761305D01*
X59214656Y32704956D01*
X58991652Y32612585D01*
X58785849Y32486468D01*
X58785847Y32486467D01*
X58602299Y32329701D01*
X58445534Y32146154D01*
X58436248Y32131000D01*
X58385380Y32047989D01*
X58377243Y32034711D01*
X58325431Y31987835D01*
X58271515Y31975500D01*
X57634003Y31975500D01*
X57566964Y31995185D01*
X57521209Y32047989D01*
X57511265Y32117147D01*
X57540290Y32180703D01*
X57599068Y32218477D01*
X57605056Y32220074D01*
X57653702Y32231753D01*
X57890012Y32329635D01*
X57890015Y32329637D01*
X58108103Y32463281D01*
X58111912Y32466536D01*
X57659746Y32918701D01*
X57626261Y32980024D01*
X57631245Y33049715D01*
X57664586Y33094558D01*
X57662550Y33096708D01*
X57667429Y33101331D01*
X57667431Y33101331D01*
X57801658Y33228477D01*
X57820652Y33256493D01*
X57874563Y33300932D01*
X57943945Y33309172D01*
X58006768Y33278592D01*
X58010966Y33274586D01*
X58465464Y32820088D01*
X58468719Y32823897D01*
X58602363Y33041985D01*
X58602365Y33041988D01*
X58700247Y33278298D01*
X58759957Y33527011D01*
X58780024Y33782000D01*
X60599975Y33782000D01*
X60620042Y33527011D01*
X60679752Y33278298D01*
X60777634Y33041988D01*
X60777636Y33041985D01*
X60911275Y32823905D01*
X60911286Y32823890D01*
X60914533Y32820089D01*
X60914535Y32820089D01*
X61369476Y33275030D01*
X61430799Y33308515D01*
X61500490Y33303531D01*
X61551665Y33267625D01*
X61642008Y33161266D01*
X61642009Y33161265D01*
X61711191Y33108674D01*
X61752647Y33052436D01*
X61757118Y32982709D01*
X61723830Y32922279D01*
X61268087Y32466536D01*
X61268087Y32466535D01*
X61271888Y32463288D01*
X61271898Y32463281D01*
X61489984Y32329637D01*
X61489987Y32329635D01*
X61726297Y32231753D01*
X61975011Y32172043D01*
X61975010Y32172043D01*
X62230000Y32151976D01*
X62484989Y32172043D01*
X62733702Y32231753D01*
X62970012Y32329635D01*
X62970015Y32329637D01*
X63188103Y32463281D01*
X63191912Y32466536D01*
X62739746Y32918701D01*
X62706261Y32980024D01*
X62711245Y33049715D01*
X62744586Y33094558D01*
X62742550Y33096708D01*
X62747429Y33101331D01*
X62747431Y33101331D01*
X62881658Y33228477D01*
X62900652Y33256493D01*
X62954563Y33300932D01*
X63023945Y33309172D01*
X63086768Y33278592D01*
X63090966Y33274586D01*
X63545464Y32820088D01*
X63548719Y32823897D01*
X63682363Y33041985D01*
X63682365Y33041988D01*
X63780247Y33278298D01*
X63839957Y33527011D01*
X63860024Y33782000D01*
X63839957Y34036990D01*
X63780247Y34285703D01*
X63682365Y34522013D01*
X63682363Y34522016D01*
X63548719Y34740102D01*
X63548712Y34740112D01*
X63545465Y34743913D01*
X63545464Y34743913D01*
X63090523Y34288972D01*
X63029200Y34255487D01*
X62959508Y34260471D01*
X62908334Y34296376D01*
X62817991Y34402735D01*
X62755036Y34450592D01*
X62748806Y34455328D01*
X62707351Y34511568D01*
X62702882Y34581294D01*
X62736169Y34641723D01*
X63191911Y35097465D01*
X63191911Y35097467D01*
X63188110Y35100714D01*
X63188095Y35100725D01*
X62970015Y35234364D01*
X62970012Y35234366D01*
X62733702Y35332248D01*
X62484988Y35391958D01*
X62484989Y35391958D01*
X62230000Y35412025D01*
X61975010Y35391958D01*
X61726297Y35332248D01*
X61489987Y35234366D01*
X61489984Y35234364D01*
X61271897Y35100720D01*
X61268087Y35097466D01*
X61720253Y34645300D01*
X61753738Y34583977D01*
X61748754Y34514285D01*
X61715467Y34469386D01*
X61717450Y34467293D01*
X61578342Y34335524D01*
X61559347Y34307507D01*
X61505433Y34263067D01*
X61436050Y34254829D01*
X61373228Y34285410D01*
X61369033Y34289414D01*
X60914534Y34743913D01*
X60911280Y34740103D01*
X60777636Y34522016D01*
X60777634Y34522013D01*
X60679752Y34285703D01*
X60620042Y34036990D01*
X60599975Y33782000D01*
X58780024Y33782000D01*
X58759957Y34036990D01*
X58700247Y34285703D01*
X58602365Y34522013D01*
X58602363Y34522016D01*
X58468719Y34740102D01*
X58468712Y34740112D01*
X58465465Y34743913D01*
X58465464Y34743913D01*
X58010523Y34288972D01*
X57949200Y34255487D01*
X57879508Y34260471D01*
X57828334Y34296376D01*
X57737991Y34402735D01*
X57675036Y34450592D01*
X57668806Y34455328D01*
X57627351Y34511568D01*
X57622882Y34581294D01*
X57656169Y34641723D01*
X58111911Y35097465D01*
X58111911Y35097467D01*
X58108110Y35100714D01*
X58108095Y35100725D01*
X57890015Y35234364D01*
X57890012Y35234366D01*
X57653702Y35332248D01*
X57404988Y35391958D01*
X57404989Y35391958D01*
X57150000Y35412025D01*
X56895010Y35391958D01*
X56646297Y35332248D01*
X56409987Y35234366D01*
X56409984Y35234364D01*
X56191897Y35100720D01*
X56188087Y35097466D01*
X56640253Y34645300D01*
X56673738Y34583977D01*
X56668754Y34514285D01*
X56635467Y34469386D01*
X56637450Y34467293D01*
X56498342Y34335524D01*
X56479347Y34307507D01*
X56425433Y34263067D01*
X56356050Y34254829D01*
X56293228Y34285410D01*
X56289033Y34289414D01*
X55834534Y34743913D01*
X55831280Y34740103D01*
X55697636Y34522016D01*
X55697634Y34522013D01*
X55599752Y34285703D01*
X55540042Y34036990D01*
X55519975Y33782000D01*
X55540042Y33527011D01*
X55599752Y33278298D01*
X55697634Y33041988D01*
X55697636Y33041985D01*
X55831275Y32823905D01*
X55831286Y32823890D01*
X55834533Y32820089D01*
X55834535Y32820089D01*
X56289476Y33275030D01*
X56350799Y33308515D01*
X56420490Y33303531D01*
X56471665Y33267625D01*
X56562008Y33161266D01*
X56562009Y33161265D01*
X56631191Y33108674D01*
X56672647Y33052436D01*
X56677118Y32982709D01*
X56643830Y32922279D01*
X56233370Y32511819D01*
X56172047Y32478334D01*
X56151581Y32476107D01*
X56151604Y32475659D01*
X56148445Y32475499D01*
X56044572Y32464887D01*
X55876264Y32409116D01*
X55876259Y32409114D01*
X55725346Y32316029D01*
X55599972Y32190655D01*
X55596265Y32185966D01*
X55539242Y32145590D01*
X55469443Y32142453D01*
X55409028Y32177550D01*
X55401735Y32185966D01*
X55398032Y32190649D01*
X55398030Y32190652D01*
X55272652Y32316030D01*
X55173618Y32377115D01*
X55121740Y32409114D01*
X55121735Y32409116D01*
X54953427Y32464887D01*
X54849546Y32475500D01*
X54248462Y32475500D01*
X54248446Y32475499D01*
X54144572Y32464887D01*
X53976264Y32409116D01*
X53976259Y32409114D01*
X53825346Y32316029D01*
X53699971Y32190654D01*
X53689583Y32173812D01*
X53606885Y32039738D01*
X53606884Y32039736D01*
X53603595Y32034403D01*
X53551647Y31987679D01*
X53498056Y31975500D01*
X52439662Y31975500D01*
X52372623Y31995185D01*
X52326868Y32047989D01*
X52316924Y32117147D01*
X52340396Y32173812D01*
X52403352Y32257911D01*
X52403354Y32257914D01*
X52453596Y32392621D01*
X52453598Y32392628D01*
X52459999Y32452156D01*
X52460000Y32452173D01*
X52460000Y34150000D01*
X51334000Y34150000D01*
X51266961Y34169685D01*
X51221206Y34222489D01*
X51210000Y34274000D01*
X51210000Y36492471D01*
X51221206Y36543984D01*
X51273014Y36657424D01*
X51292699Y36724463D01*
X51292700Y36724467D01*
X51303560Y36800000D01*
X51710000Y36800000D01*
X51710000Y34650000D01*
X52460000Y34650000D01*
X52460000Y36347828D01*
X52459999Y36347845D01*
X52453598Y36407373D01*
X52453596Y36407380D01*
X52403354Y36542087D01*
X52403350Y36542094D01*
X52317190Y36657188D01*
X52317187Y36657191D01*
X52202093Y36743351D01*
X52202086Y36743355D01*
X52067379Y36793597D01*
X52067372Y36793599D01*
X52007844Y36800000D01*
X51710000Y36800000D01*
X51303560Y36800000D01*
X51313500Y36869137D01*
X51313500Y37940028D01*
X51312857Y37958036D01*
X51311874Y37976370D01*
X51280800Y38119185D01*
X51256380Y38184649D01*
X51225169Y38241802D01*
X51210000Y38301232D01*
X51210000Y39400000D01*
X51710000Y39400000D01*
X51710000Y38000000D01*
X52007828Y38000000D01*
X52007844Y38000001D01*
X52067372Y38006402D01*
X52067379Y38006404D01*
X52202086Y38056646D01*
X52202093Y38056650D01*
X52317187Y38142810D01*
X52317190Y38142813D01*
X52403350Y38257907D01*
X52403354Y38257914D01*
X52453596Y38392621D01*
X52453598Y38392628D01*
X52459999Y38452156D01*
X52460000Y38452173D01*
X52460000Y39400000D01*
X51710000Y39400000D01*
X51210000Y39400000D01*
X51210000Y41050000D01*
X51710000Y41050000D01*
X51710000Y39900000D01*
X52460000Y39900000D01*
X52460000Y41050000D01*
X51710000Y41050000D01*
X51210000Y41050000D01*
X48467530Y41050000D01*
X48416018Y41061206D01*
X48338980Y41096389D01*
X48302580Y41113013D01*
X48235543Y41132698D01*
X48235537Y41132700D01*
X48148732Y41145180D01*
X48090864Y41153500D01*
X47019967Y41153500D01*
X47019966Y41153500D01*
X47001959Y41152858D01*
X46983666Y41151877D01*
X46983661Y41151877D01*
X46983659Y41151876D01*
X46983648Y41151874D01*
X46983650Y41151874D01*
X46840842Y41120809D01*
X46775370Y41096389D01*
X46718195Y41065168D01*
X46658768Y41050000D01*
X42467530Y41050000D01*
X42416018Y41061206D01*
X42338980Y41096389D01*
X42302580Y41113013D01*
X42235543Y41132698D01*
X42235537Y41132700D01*
X42148732Y41145180D01*
X42090864Y41153500D01*
X41019967Y41153500D01*
X41019966Y41153500D01*
X41001959Y41152858D01*
X40983666Y41151877D01*
X40983661Y41151877D01*
X40983659Y41151876D01*
X40983648Y41151874D01*
X40983650Y41151874D01*
X40840842Y41120809D01*
X40775370Y41096389D01*
X40718195Y41065168D01*
X40658768Y41050000D01*
X38434000Y41050000D01*
X38366961Y41069685D01*
X38321206Y41122489D01*
X38310000Y41174000D01*
X38310000Y42300000D01*
X38810000Y42300000D01*
X38810000Y41550000D01*
X40960000Y41550000D01*
X42160000Y41550000D01*
X44310000Y41550000D01*
X44310000Y42300000D01*
X44810000Y42300000D01*
X44810000Y41550000D01*
X46960000Y41550000D01*
X48160000Y41550000D01*
X49560000Y41550000D01*
X49560000Y42300000D01*
X50060000Y42300000D01*
X50060000Y41550000D01*
X51210000Y41550000D01*
X51210000Y42300000D01*
X51710000Y42300000D01*
X51710000Y41550000D01*
X52460000Y41550000D01*
X52460000Y41847828D01*
X52459999Y41847845D01*
X52453598Y41907373D01*
X52453596Y41907380D01*
X52403354Y42042087D01*
X52403350Y42042094D01*
X52317190Y42157188D01*
X52317187Y42157191D01*
X52202093Y42243351D01*
X52202086Y42243355D01*
X52067379Y42293597D01*
X52067372Y42293599D01*
X52007844Y42300000D01*
X51710000Y42300000D01*
X51210000Y42300000D01*
X50060000Y42300000D01*
X49560000Y42300000D01*
X48612155Y42300000D01*
X48552627Y42293599D01*
X48552620Y42293597D01*
X48417913Y42243355D01*
X48417906Y42243351D01*
X48302812Y42157191D01*
X48302809Y42157188D01*
X48216649Y42042094D01*
X48216645Y42042087D01*
X48166403Y41907380D01*
X48166401Y41907373D01*
X48160000Y41847845D01*
X48160000Y41550000D01*
X46960000Y41550000D01*
X46960000Y41847828D01*
X46959999Y41847845D01*
X46953598Y41907373D01*
X46953596Y41907380D01*
X46903354Y42042087D01*
X46903350Y42042094D01*
X46817190Y42157188D01*
X46817187Y42157191D01*
X46702093Y42243351D01*
X46702086Y42243355D01*
X46567379Y42293597D01*
X46567372Y42293599D01*
X46507844Y42300000D01*
X44810000Y42300000D01*
X44310000Y42300000D01*
X42612155Y42300000D01*
X42552627Y42293599D01*
X42552620Y42293597D01*
X42417913Y42243355D01*
X42417906Y42243351D01*
X42302812Y42157191D01*
X42302809Y42157188D01*
X42216649Y42042094D01*
X42216645Y42042087D01*
X42166403Y41907380D01*
X42166401Y41907373D01*
X42160000Y41847845D01*
X42160000Y41550000D01*
X40960000Y41550000D01*
X40960000Y41847828D01*
X40959999Y41847845D01*
X40953598Y41907373D01*
X40953596Y41907380D01*
X40903354Y42042087D01*
X40903350Y42042094D01*
X40817190Y42157188D01*
X40817187Y42157191D01*
X40702093Y42243351D01*
X40702086Y42243355D01*
X40567379Y42293597D01*
X40567372Y42293599D01*
X40507844Y42300000D01*
X38810000Y42300000D01*
X38310000Y42300000D01*
X37618132Y42300000D01*
X37551093Y42319685D01*
X37505338Y42372489D01*
X37495394Y42441647D01*
X37496197Y42445363D01*
X37500272Y42471087D01*
X37505077Y42501429D01*
X37506257Y42507135D01*
X37518500Y42554812D01*
X37518500Y42576419D01*
X37520027Y42595819D01*
X37523406Y42617151D01*
X37523405Y42617159D01*
X37523459Y42618853D01*
X37523878Y42620131D01*
X37524627Y42624859D01*
X37525389Y42624739D01*
X37545233Y42685243D01*
X37566195Y42708682D01*
X37579051Y42719821D01*
X37644940Y42795862D01*
X37673196Y42828471D01*
X37673198Y42828474D01*
X37673205Y42828482D01*
X37752256Y42951488D01*
X37752259Y42951496D01*
X37752262Y42951500D01*
X37796588Y43048561D01*
X37811984Y43082273D01*
X37811984Y43082274D01*
X37811984Y43082276D01*
X37812166Y43082673D01*
X37812602Y43084381D01*
X37853180Y43222573D01*
X37865319Y43307000D01*
X54112659Y43307000D01*
X54131975Y43110871D01*
X54131976Y43110868D01*
X54187687Y42927213D01*
X54189188Y42922267D01*
X54282086Y42748468D01*
X54282090Y42748461D01*
X54407116Y42596117D01*
X54559460Y42471091D01*
X54559467Y42471087D01*
X54733266Y42378189D01*
X54733269Y42378189D01*
X54733273Y42378186D01*
X54921868Y42320976D01*
X55118000Y42301659D01*
X55314132Y42320976D01*
X55502727Y42378186D01*
X55531683Y42393663D01*
X55645345Y42454417D01*
X55676538Y42471090D01*
X55828883Y42596117D01*
X55953910Y42748462D01*
X56046814Y42922273D01*
X56104024Y43110868D01*
X56123341Y43307000D01*
X56104024Y43503132D01*
X56046814Y43691727D01*
X56046811Y43691731D01*
X56046811Y43691734D01*
X55953913Y43865533D01*
X55953909Y43865540D01*
X55828883Y44017884D01*
X55676539Y44142910D01*
X55676532Y44142914D01*
X55502733Y44235812D01*
X55502727Y44235814D01*
X55314132Y44293024D01*
X55314129Y44293025D01*
X55118000Y44312341D01*
X54921870Y44293025D01*
X54733266Y44235812D01*
X54559467Y44142914D01*
X54559460Y44142910D01*
X54407116Y44017884D01*
X54282090Y43865540D01*
X54282086Y43865533D01*
X54189188Y43691734D01*
X54131975Y43503130D01*
X54112659Y43307000D01*
X37865319Y43307000D01*
X37873642Y43364888D01*
X37873642Y43422315D01*
X37873729Y43422612D01*
X37873729Y43952855D01*
X37873642Y43953686D01*
X37873642Y44011111D01*
X37873642Y44011112D01*
X37853180Y44153427D01*
X37853180Y44153428D01*
X37853180Y44153430D01*
X37832311Y44224500D01*
X37811984Y44293727D01*
X37811981Y44293734D01*
X37752262Y44424501D01*
X37752253Y44424517D01*
X37712319Y44486655D01*
X37673205Y44547518D01*
X37580475Y44654535D01*
X37579774Y44655405D01*
X37579050Y44656181D01*
X37579048Y44656183D01*
X37468540Y44751938D01*
X37391792Y44801261D01*
X37347591Y44829668D01*
X37347585Y44829671D01*
X37275318Y44862674D01*
X37214577Y44890413D01*
X37128048Y44915820D01*
X37076626Y44930919D01*
X37076614Y44930922D01*
X36931889Y44951729D01*
X36310000Y44951729D01*
X36236890Y44946501D01*
X36236887Y44946500D01*
X36225909Y44943277D01*
X36177212Y44941959D01*
X36176912Y44939160D01*
X36108654Y44946500D01*
X36108638Y44946500D01*
X35011362Y44946500D01*
X35011345Y44946500D01*
X34950797Y44939989D01*
X34950795Y44939989D01*
X34813795Y44888889D01*
X34696739Y44801261D01*
X34609111Y44684205D01*
X34558011Y44547205D01*
X34558011Y44547203D01*
X34551500Y44486655D01*
X34551500Y42889346D01*
X34558010Y42828803D01*
X34558012Y42828796D01*
X34595261Y42728926D01*
X34602241Y42671203D01*
X34600661Y42657680D01*
X34600577Y42657690D01*
X34599861Y42650680D01*
X34599946Y42650672D01*
X34599316Y42643483D01*
X34601499Y42568488D01*
X34601499Y42424000D01*
X34581814Y42356961D01*
X34529010Y42311206D01*
X34477499Y42300000D01*
X32810000Y42300000D01*
X32810000Y41174000D01*
X32790315Y41106961D01*
X32737511Y41061206D01*
X32686000Y41050000D01*
X32434000Y41050000D01*
X32366961Y41069685D01*
X32321206Y41122489D01*
X32310000Y41174000D01*
X32310000Y42300000D01*
X30892500Y42300000D01*
X30825461Y42319685D01*
X30779706Y42372489D01*
X30768500Y42424000D01*
X30768500Y43054538D01*
X30769809Y43072508D01*
X30771298Y43082673D01*
X30773180Y43095522D01*
X30771837Y43110868D01*
X30768736Y43146317D01*
X30768500Y43151723D01*
X30768500Y43159711D01*
X30768500Y43159718D01*
X30764777Y43191571D01*
X30758236Y43266336D01*
X30758236Y43266338D01*
X30756776Y43273409D01*
X30756860Y43273427D01*
X30755335Y43280305D01*
X30755251Y43280284D01*
X30753587Y43287302D01*
X30753587Y43287308D01*
X30727908Y43357860D01*
X30704301Y43429101D01*
X30701250Y43435643D01*
X30701328Y43435680D01*
X30698263Y43442012D01*
X30698187Y43441973D01*
X30694943Y43448431D01*
X30694941Y43448433D01*
X30694941Y43448435D01*
X30653702Y43511136D01*
X30614286Y43575040D01*
X30614285Y43575041D01*
X30614284Y43575043D01*
X30609808Y43580703D01*
X30609874Y43580756D01*
X30605424Y43586219D01*
X30605359Y43586163D01*
X30600715Y43591698D01*
X30546147Y43643179D01*
X28945507Y45243819D01*
X28912022Y45305142D01*
X28917006Y45374834D01*
X28958878Y45430767D01*
X29024342Y45455184D01*
X29033188Y45455500D01*
X65651500Y45455500D01*
X65718539Y45435815D01*
G37*
%TD.AperFunction*%
%TA.AperFunction,Conductor*%
G36*
X18623678Y30069131D02*
G01*
X18657165Y30007809D01*
X18660000Y29981447D01*
X18659999Y28650001D01*
X18660000Y28650000D01*
X19786000Y28650000D01*
X19853039Y28630315D01*
X19898794Y28577511D01*
X19910000Y28526000D01*
X19910000Y26307531D01*
X19898794Y26256019D01*
X19846988Y26142584D01*
X19827302Y26075543D01*
X19827300Y26075538D01*
X19806500Y25930863D01*
X19806500Y24859989D01*
X19807141Y24842009D01*
X19808120Y24823697D01*
X19839181Y24680872D01*
X19863591Y24615415D01*
X19863597Y24615403D01*
X19894835Y24558185D01*
X19909999Y24498766D01*
X19910000Y22650000D01*
X19910000Y20307531D01*
X19898794Y20256019D01*
X19846988Y20142584D01*
X19827302Y20075543D01*
X19827300Y20075538D01*
X19806500Y19930863D01*
X19806500Y18859989D01*
X19807141Y18842009D01*
X19808120Y18823697D01*
X19839181Y18680872D01*
X19863591Y18615415D01*
X19863597Y18615403D01*
X19894835Y18558185D01*
X19909999Y18498766D01*
X19910000Y16650000D01*
X19910000Y14307531D01*
X19898794Y14256019D01*
X19846988Y14142584D01*
X19827302Y14075543D01*
X19827300Y14075538D01*
X19813740Y13981218D01*
X19807509Y13937878D01*
X19806500Y13930863D01*
X19806500Y12859989D01*
X19807141Y12842009D01*
X19808120Y12823697D01*
X19839181Y12680872D01*
X19863591Y12615415D01*
X19894836Y12558187D01*
X19910000Y12498766D01*
X19910000Y9750000D01*
X22652470Y9750000D01*
X22703981Y9738795D01*
X22817423Y9686986D01*
X22858586Y9674899D01*
X22884457Y9667302D01*
X22884462Y9667301D01*
X22884466Y9667300D01*
X23029136Y9646500D01*
X23029139Y9646500D01*
X24100034Y9646500D01*
X24118041Y9647142D01*
X24130628Y9647818D01*
X24136341Y9648124D01*
X24279159Y9679192D01*
X24344624Y9703609D01*
X24344629Y9703611D01*
X24401805Y9734833D01*
X24461233Y9750000D01*
X28652470Y9750000D01*
X28703981Y9738795D01*
X28817423Y9686986D01*
X28858586Y9674899D01*
X28884457Y9667302D01*
X28884462Y9667301D01*
X28884466Y9667300D01*
X29029136Y9646500D01*
X29029139Y9646500D01*
X30100034Y9646500D01*
X30118041Y9647142D01*
X30130628Y9647818D01*
X30136341Y9648124D01*
X30279159Y9679192D01*
X30344624Y9703609D01*
X30344629Y9703611D01*
X30401805Y9734833D01*
X30461233Y9750000D01*
X34652470Y9750000D01*
X34703981Y9738795D01*
X34817423Y9686986D01*
X34858586Y9674899D01*
X34884457Y9667302D01*
X34884462Y9667301D01*
X34884466Y9667300D01*
X35029136Y9646500D01*
X35029139Y9646500D01*
X36100034Y9646500D01*
X36118041Y9647142D01*
X36130628Y9647818D01*
X36136341Y9648124D01*
X36279159Y9679192D01*
X36344624Y9703609D01*
X36344629Y9703611D01*
X36401805Y9734833D01*
X36461233Y9750000D01*
X40652470Y9750000D01*
X40703981Y9738795D01*
X40817423Y9686986D01*
X40858586Y9674899D01*
X40884457Y9667302D01*
X40884462Y9667301D01*
X40884466Y9667300D01*
X41029136Y9646500D01*
X41029139Y9646500D01*
X42100034Y9646500D01*
X42118041Y9647142D01*
X42130628Y9647818D01*
X42136341Y9648124D01*
X42279159Y9679192D01*
X42344624Y9703609D01*
X42344629Y9703611D01*
X42401805Y9734833D01*
X42461233Y9750000D01*
X44686000Y9750000D01*
X44753039Y9730315D01*
X44798794Y9677511D01*
X44810000Y9626000D01*
X44810000Y8500000D01*
X46507823Y8500000D01*
X46508869Y8500056D01*
X46509106Y8500000D01*
X46511149Y8500000D01*
X46511148Y8499518D01*
X46576865Y8483984D01*
X46625378Y8433702D01*
X46639500Y8376233D01*
X46639500Y8094500D01*
X46619815Y8027461D01*
X46567011Y7981706D01*
X46515500Y7970500D01*
X19202965Y7970500D01*
X19135926Y7990185D01*
X19115284Y8006819D01*
X19027603Y8094500D01*
X18741933Y8380169D01*
X18708450Y8441490D01*
X18713434Y8511181D01*
X18755305Y8567115D01*
X18820770Y8591532D01*
X18889043Y8576680D01*
X18903926Y8567116D01*
X18917911Y8556647D01*
X18917913Y8556646D01*
X19052620Y8506404D01*
X19052627Y8506402D01*
X19112155Y8500001D01*
X19112172Y8500000D01*
X19410000Y8500000D01*
X19410000Y9250000D01*
X19910000Y9250000D01*
X19910000Y8500000D01*
X21060000Y8500000D01*
X21060000Y9250000D01*
X21560000Y9250000D01*
X21560000Y8500000D01*
X22507828Y8500000D01*
X22507844Y8500001D01*
X22567372Y8506402D01*
X22567379Y8506404D01*
X22702086Y8556646D01*
X22702093Y8556650D01*
X22817187Y8642810D01*
X22817190Y8642813D01*
X22903350Y8757907D01*
X22903354Y8757914D01*
X22953596Y8892621D01*
X22953598Y8892628D01*
X22959999Y8952156D01*
X22960000Y8952173D01*
X22960000Y9250000D01*
X24160000Y9250000D01*
X24160000Y8952156D01*
X24166401Y8892628D01*
X24166403Y8892621D01*
X24216645Y8757914D01*
X24216649Y8757907D01*
X24302809Y8642813D01*
X24302812Y8642810D01*
X24417906Y8556650D01*
X24417913Y8556646D01*
X24552620Y8506404D01*
X24552627Y8506402D01*
X24612155Y8500001D01*
X24612172Y8500000D01*
X26310000Y8500000D01*
X26310000Y9250000D01*
X26810000Y9250000D01*
X26810000Y8500000D01*
X28507828Y8500000D01*
X28507844Y8500001D01*
X28567372Y8506402D01*
X28567379Y8506404D01*
X28702086Y8556646D01*
X28702093Y8556650D01*
X28817187Y8642810D01*
X28817190Y8642813D01*
X28903350Y8757907D01*
X28903354Y8757914D01*
X28953596Y8892621D01*
X28953598Y8892628D01*
X28959999Y8952156D01*
X28960000Y8952173D01*
X28960000Y9250000D01*
X30160000Y9250000D01*
X30160000Y8952156D01*
X30166401Y8892628D01*
X30166403Y8892621D01*
X30216645Y8757914D01*
X30216649Y8757907D01*
X30302809Y8642813D01*
X30302812Y8642810D01*
X30417906Y8556650D01*
X30417913Y8556646D01*
X30552620Y8506404D01*
X30552627Y8506402D01*
X30612155Y8500001D01*
X30612172Y8500000D01*
X32310000Y8500000D01*
X32310000Y9250000D01*
X32810000Y9250000D01*
X32810000Y8500000D01*
X34507828Y8500000D01*
X34507844Y8500001D01*
X34567372Y8506402D01*
X34567379Y8506404D01*
X34702086Y8556646D01*
X34702093Y8556650D01*
X34817187Y8642810D01*
X34817190Y8642813D01*
X34903350Y8757907D01*
X34903354Y8757914D01*
X34953596Y8892621D01*
X34953598Y8892628D01*
X34959999Y8952156D01*
X34960000Y8952173D01*
X34960000Y9250000D01*
X36160000Y9250000D01*
X36160000Y8952156D01*
X36166401Y8892628D01*
X36166403Y8892621D01*
X36216645Y8757914D01*
X36216649Y8757907D01*
X36302809Y8642813D01*
X36302812Y8642810D01*
X36417906Y8556650D01*
X36417913Y8556646D01*
X36552620Y8506404D01*
X36552627Y8506402D01*
X36612155Y8500001D01*
X36612172Y8500000D01*
X38310000Y8500000D01*
X38310000Y9250000D01*
X38810000Y9250000D01*
X38810000Y8500000D01*
X40507828Y8500000D01*
X40507844Y8500001D01*
X40567372Y8506402D01*
X40567379Y8506404D01*
X40702086Y8556646D01*
X40702093Y8556650D01*
X40817187Y8642810D01*
X40817190Y8642813D01*
X40903350Y8757907D01*
X40903354Y8757914D01*
X40953596Y8892621D01*
X40953598Y8892628D01*
X40959999Y8952156D01*
X40960000Y8952173D01*
X40960000Y9250000D01*
X42160000Y9250000D01*
X42160000Y8952156D01*
X42166401Y8892628D01*
X42166403Y8892621D01*
X42216645Y8757914D01*
X42216649Y8757907D01*
X42302809Y8642813D01*
X42302812Y8642810D01*
X42417906Y8556650D01*
X42417913Y8556646D01*
X42552620Y8506404D01*
X42552627Y8506402D01*
X42612155Y8500001D01*
X42612172Y8500000D01*
X44310000Y8500000D01*
X44310000Y9250000D01*
X42160000Y9250000D01*
X40960000Y9250000D01*
X38810000Y9250000D01*
X38310000Y9250000D01*
X36160000Y9250000D01*
X34960000Y9250000D01*
X32810000Y9250000D01*
X32310000Y9250000D01*
X30160000Y9250000D01*
X28960000Y9250000D01*
X26810000Y9250000D01*
X26310000Y9250000D01*
X24160000Y9250000D01*
X22960000Y9250000D01*
X21560000Y9250000D01*
X21060000Y9250000D01*
X19910000Y9250000D01*
X19410000Y9250000D01*
X18660000Y9250000D01*
X18660000Y8952156D01*
X18666401Y8892628D01*
X18666403Y8892621D01*
X18716645Y8757914D01*
X18716647Y8757911D01*
X18727114Y8743929D01*
X18751532Y8678465D01*
X18736681Y8610192D01*
X18687276Y8560786D01*
X18619004Y8545933D01*
X18553539Y8570349D01*
X18540167Y8581936D01*
X17128782Y9993321D01*
X17095297Y10054644D01*
X17100281Y10124336D01*
X17142153Y10180269D01*
X17207617Y10204686D01*
X17209761Y10204763D01*
X17209999Y10205001D01*
X17710000Y10205001D01*
X17759972Y10205001D01*
X17759986Y10205002D01*
X17862697Y10215495D01*
X18029119Y10270642D01*
X18029124Y10270644D01*
X18178345Y10362685D01*
X18302315Y10486655D01*
X18394356Y10635876D01*
X18394358Y10635881D01*
X18418294Y10708114D01*
X18458066Y10765559D01*
X18522582Y10792382D01*
X18591358Y10780067D01*
X18642558Y10732524D01*
X18660000Y10669110D01*
X18660000Y9750000D01*
X19410000Y9750000D01*
X19410000Y12800000D01*
X19112155Y12800000D01*
X19052627Y12793599D01*
X19052620Y12793597D01*
X18917913Y12743355D01*
X18917906Y12743351D01*
X18802812Y12657191D01*
X18802809Y12657188D01*
X18716649Y12542094D01*
X18716645Y12542087D01*
X18666403Y12407380D01*
X18666401Y12407373D01*
X18660000Y12347845D01*
X18660000Y12190892D01*
X18640315Y12123853D01*
X18587511Y12078098D01*
X18518353Y12068154D01*
X18454797Y12097179D01*
X18418294Y12151887D01*
X18394357Y12224122D01*
X18394356Y12224125D01*
X18302315Y12373346D01*
X18178345Y12497316D01*
X18029124Y12589357D01*
X18029119Y12589359D01*
X17862697Y12644506D01*
X17862690Y12644507D01*
X17759986Y12655000D01*
X17710000Y12655000D01*
X17710000Y10205001D01*
X17209999Y10205001D01*
X17210000Y10205002D01*
X17209999Y12655000D01*
X17209999Y12655001D01*
X17160029Y12655000D01*
X17160011Y12654999D01*
X17057302Y12644506D01*
X16890880Y12589359D01*
X16890875Y12589357D01*
X16741657Y12497318D01*
X16615147Y12370808D01*
X16553824Y12337324D01*
X16484132Y12342308D01*
X16428199Y12384180D01*
X16404193Y12445088D01*
X16403372Y12452640D01*
X16403370Y12452647D01*
X16403282Y12453046D01*
X16398126Y12475046D01*
X16398035Y12475415D01*
X16369850Y12552130D01*
X16351499Y12606594D01*
X16343748Y12629600D01*
X16343743Y12629608D01*
X16343616Y12629884D01*
X16333810Y12650348D01*
X16333638Y12650696D01*
X16289621Y12719560D01*
X16247475Y12789606D01*
X16247274Y12789870D01*
X16233269Y12807784D01*
X16233076Y12808024D01*
X16233072Y12808031D01*
X16175249Y12865854D01*
X16119058Y12925174D01*
X16119054Y12925177D01*
X16119053Y12925178D01*
X16118832Y12925365D01*
X16101001Y12940102D01*
X15754283Y13286820D01*
X15720798Y13348143D01*
X15725782Y13417835D01*
X15767654Y13473768D01*
X15833118Y13498185D01*
X15841939Y13498501D01*
X16368544Y13498501D01*
X16472426Y13509113D01*
X16640738Y13564885D01*
X16791652Y13657970D01*
X16917030Y13783348D01*
X16917449Y13784029D01*
X16917859Y13784398D01*
X16921511Y13789015D01*
X16922299Y13788392D01*
X16969389Y13830756D01*
X17038350Y13841986D01*
X17102436Y13814150D01*
X17120261Y13793580D01*
X17121202Y13794323D01*
X17125683Y13788656D01*
X17249654Y13664685D01*
X17398875Y13572644D01*
X17398880Y13572642D01*
X17565302Y13517495D01*
X17565309Y13517494D01*
X17668019Y13507001D01*
X17717999Y13507002D01*
X17718000Y13507002D01*
X17718000Y14858000D01*
X17737685Y14925039D01*
X17790489Y14970794D01*
X17842000Y14982000D01*
X18094000Y14982000D01*
X18161039Y14962315D01*
X18206794Y14909511D01*
X18218000Y14858000D01*
X18217999Y13507002D01*
X18218000Y13507001D01*
X18267972Y13507001D01*
X18267986Y13507002D01*
X18370697Y13517495D01*
X18537119Y13572642D01*
X18537124Y13572644D01*
X18686345Y13664685D01*
X18810315Y13788655D01*
X18902357Y13937878D01*
X18903435Y13940189D01*
X18904596Y13941509D01*
X18906149Y13944025D01*
X18906579Y13943760D01*
X18949607Y13992628D01*
X19016801Y14011781D01*
X19044699Y14006634D01*
X19045067Y14008187D01*
X19052622Y14006403D01*
X19112155Y14000001D01*
X19112172Y14000000D01*
X19410000Y14000000D01*
X19410000Y16150000D01*
X18659999Y16150000D01*
X18659999Y16022361D01*
X18640314Y15955322D01*
X18587510Y15909567D01*
X18518352Y15899623D01*
X18496996Y15904655D01*
X18370700Y15946505D01*
X18370690Y15946507D01*
X18267986Y15957000D01*
X18092604Y15957000D01*
X18025565Y15976685D01*
X17979810Y16029489D01*
X17969246Y16093603D01*
X17972499Y16125448D01*
X17972500Y16125455D01*
X17972499Y16650001D01*
X18659999Y16650001D01*
X18660000Y16650000D01*
X19410000Y16650000D01*
X19410000Y18800000D01*
X19112155Y18800000D01*
X19052627Y18793599D01*
X19052620Y18793597D01*
X18917913Y18743355D01*
X18917906Y18743351D01*
X18802812Y18657191D01*
X18802809Y18657188D01*
X18716649Y18542094D01*
X18716645Y18542087D01*
X18666403Y18407380D01*
X18666401Y18407373D01*
X18660000Y18347845D01*
X18659999Y18347828D01*
X18659999Y16650001D01*
X17972499Y16650001D01*
X17972499Y16876544D01*
X17961887Y16980426D01*
X17906115Y17148738D01*
X17813030Y17299652D01*
X17687652Y17425030D01*
X17687651Y17425030D01*
X17687651Y17425031D01*
X17682970Y17428732D01*
X17642591Y17485753D01*
X17639451Y17555552D01*
X17674545Y17615968D01*
X17682970Y17623268D01*
X17687647Y17626968D01*
X17687652Y17626970D01*
X17813030Y17752348D01*
X17906115Y17903262D01*
X17961887Y18071574D01*
X17972500Y18175455D01*
X17972499Y18926544D01*
X17961887Y19030426D01*
X17906115Y19198738D01*
X17813030Y19349652D01*
X17687652Y19475030D01*
X17687648Y19475033D01*
X17550291Y19559756D01*
X17503566Y19611704D01*
X17491860Y19654489D01*
X17487237Y19707332D01*
X17487237Y19707336D01*
X17487234Y19707343D01*
X17485777Y19714406D01*
X17485860Y19714424D01*
X17484335Y19721301D01*
X17484252Y19721281D01*
X17482587Y19728302D01*
X17482587Y19728308D01*
X17478667Y19739078D01*
X17456918Y19798835D01*
X17440907Y19847149D01*
X17433302Y19870100D01*
X17433295Y19870110D01*
X17430248Y19876648D01*
X17430326Y19876685D01*
X17427259Y19883020D01*
X17427182Y19882981D01*
X17423943Y19889428D01*
X17423941Y19889435D01*
X17382705Y19952131D01*
X17343286Y20016040D01*
X17338805Y20021707D01*
X17338871Y20021760D01*
X17334424Y20027219D01*
X17334359Y20027163D01*
X17329715Y20032698D01*
X17275147Y20084179D01*
X16907819Y20451508D01*
X16874334Y20512831D01*
X16871500Y20539189D01*
X16871500Y21285505D01*
X16868562Y21322830D01*
X16868561Y21322836D01*
X16822146Y21482597D01*
X16822145Y21482601D01*
X16737453Y21625807D01*
X16737451Y21625809D01*
X16737448Y21625813D01*
X16619811Y21743450D01*
X16616500Y21746018D01*
X16614567Y21748694D01*
X16614291Y21748970D01*
X16614335Y21749015D01*
X16575591Y21802659D01*
X16571799Y21872426D01*
X16606328Y21933168D01*
X16616500Y21941982D01*
X16619802Y21944545D01*
X16619807Y21944547D01*
X16737453Y22062193D01*
X16789382Y22150000D01*
X18660000Y22150000D01*
X18660000Y20452156D01*
X18666401Y20392628D01*
X18666403Y20392621D01*
X18716645Y20257914D01*
X18716649Y20257907D01*
X18802809Y20142813D01*
X18802812Y20142810D01*
X18917906Y20056650D01*
X18917913Y20056646D01*
X19052620Y20006404D01*
X19052627Y20006402D01*
X19112155Y20000001D01*
X19112172Y20000000D01*
X19410000Y20000000D01*
X19410000Y22150000D01*
X18660000Y22150000D01*
X16789382Y22150000D01*
X16822145Y22205399D01*
X16868562Y22365169D01*
X16871500Y22402498D01*
X16871500Y22650000D01*
X18660000Y22650000D01*
X19410000Y22650000D01*
X19410000Y24800000D01*
X19112155Y24800000D01*
X19052627Y24793599D01*
X19052620Y24793597D01*
X18917913Y24743355D01*
X18917906Y24743351D01*
X18802812Y24657191D01*
X18802809Y24657188D01*
X18716649Y24542094D01*
X18716645Y24542087D01*
X18666403Y24407380D01*
X18666401Y24407373D01*
X18660000Y24347845D01*
X18660000Y22650000D01*
X16871500Y22650000D01*
X16871500Y23560502D01*
X16868562Y23597831D01*
X16822145Y23757601D01*
X16737453Y23900807D01*
X16737451Y23900809D01*
X16737448Y23900813D01*
X16619812Y24018449D01*
X16619803Y24018456D01*
X16496682Y24091269D01*
X16448998Y24142338D01*
X16436495Y24211080D01*
X16463140Y24275669D01*
X16520476Y24315599D01*
X16559803Y24322001D01*
X16692999Y24322001D01*
X16693000Y24322002D01*
X16693000Y25247000D01*
X17193000Y25247000D01*
X17193000Y24322001D01*
X17442972Y24322001D01*
X17442986Y24322002D01*
X17545697Y24332495D01*
X17712119Y24387642D01*
X17712124Y24387644D01*
X17861345Y24479685D01*
X17985315Y24603655D01*
X18077356Y24752876D01*
X18077358Y24752881D01*
X18132505Y24919303D01*
X18132506Y24919310D01*
X18142999Y25022014D01*
X18143000Y25022027D01*
X18143000Y25247000D01*
X17193000Y25247000D01*
X16693000Y25247000D01*
X15743001Y25247000D01*
X15743001Y25022014D01*
X15753494Y24919303D01*
X15808641Y24752881D01*
X15808643Y24752876D01*
X15900684Y24603655D01*
X16024654Y24479685D01*
X16180025Y24383851D01*
X16178936Y24382087D01*
X16223657Y24342711D01*
X16242810Y24275518D01*
X16222595Y24208637D01*
X16169431Y24163301D01*
X16118814Y24152500D01*
X15846495Y24152500D01*
X15809170Y24149563D01*
X15809164Y24149562D01*
X15649403Y24103147D01*
X15649398Y24103145D01*
X15506196Y24018456D01*
X15506187Y24018449D01*
X15388551Y23900813D01*
X15388544Y23900804D01*
X15303855Y23757602D01*
X15303853Y23757597D01*
X15257438Y23597836D01*
X15257437Y23597830D01*
X15254500Y23560505D01*
X15254500Y22402495D01*
X15257437Y22365171D01*
X15257438Y22365165D01*
X15303853Y22205404D01*
X15303855Y22205399D01*
X15388544Y22062197D01*
X15393330Y22056027D01*
X15391803Y22054844D01*
X15420366Y22002535D01*
X15415382Y21932843D01*
X15383354Y21885105D01*
X15363000Y21866298D01*
X15363000Y21616533D01*
X15345732Y21553413D01*
X15303857Y21482606D01*
X15303853Y21482597D01*
X15257438Y21322836D01*
X15257437Y21322830D01*
X15254500Y21285505D01*
X15254500Y20580500D01*
X15234815Y20513461D01*
X15182011Y20467706D01*
X15130500Y20456500D01*
X15095500Y20456500D01*
X15028461Y20476185D01*
X14982706Y20528989D01*
X14971500Y20580500D01*
X14971500Y21285505D01*
X14968562Y21322830D01*
X14968561Y21322836D01*
X14922146Y21482597D01*
X14922145Y21482601D01*
X14903524Y21514088D01*
X14880268Y21553413D01*
X14863000Y21616533D01*
X14862999Y21866297D01*
X14842646Y21885104D01*
X14806767Y21945058D01*
X14808998Y22014892D01*
X14833776Y22055169D01*
X14832670Y22056027D01*
X14837448Y22062189D01*
X14837453Y22062193D01*
X14922145Y22205399D01*
X14968562Y22365169D01*
X14971500Y22402498D01*
X14971500Y23560502D01*
X14968562Y23597831D01*
X14922145Y23757601D01*
X14913768Y23771766D01*
X14896500Y23834887D01*
X14896500Y24250833D01*
X14916185Y24317872D01*
X14968989Y24363627D01*
X14981488Y24368537D01*
X15015738Y24379885D01*
X15166652Y24472970D01*
X15292030Y24598348D01*
X15385115Y24749262D01*
X15440887Y24917574D01*
X15451500Y25021455D01*
X15451499Y25747000D01*
X15742999Y25747000D01*
X18142999Y25747000D01*
X18142999Y25971972D01*
X18142998Y25971987D01*
X18132505Y26074698D01*
X18077358Y26241120D01*
X18077356Y26241125D01*
X17985315Y26390346D01*
X17861345Y26514316D01*
X17712124Y26606357D01*
X17712119Y26606359D01*
X17582549Y26649294D01*
X17525104Y26689067D01*
X17498281Y26753583D01*
X17510596Y26822358D01*
X17558139Y26873558D01*
X17582549Y26884706D01*
X17712119Y26927642D01*
X17712124Y26927644D01*
X17861345Y27019685D01*
X17985315Y27143655D01*
X18077356Y27292876D01*
X18077358Y27292881D01*
X18132505Y27459303D01*
X18132506Y27459310D01*
X18142999Y27562014D01*
X18143000Y27562027D01*
X18143000Y27787000D01*
X15743001Y27787000D01*
X15743001Y27562014D01*
X15753494Y27459303D01*
X15808641Y27292881D01*
X15808643Y27292876D01*
X15900684Y27143655D01*
X16024654Y27019685D01*
X16173875Y26927644D01*
X16173880Y26927642D01*
X16303450Y26884707D01*
X16360895Y26844935D01*
X16387718Y26780419D01*
X16375403Y26711643D01*
X16327860Y26660443D01*
X16303451Y26649295D01*
X16173878Y26606358D01*
X16173875Y26606357D01*
X16024654Y26514316D01*
X15900684Y26390346D01*
X15808643Y26241125D01*
X15808641Y26241120D01*
X15753494Y26074698D01*
X15753493Y26074691D01*
X15743000Y25971987D01*
X15743000Y25971974D01*
X15742999Y25747000D01*
X15451499Y25747000D01*
X15451499Y25972544D01*
X15451318Y25974311D01*
X15448040Y26006404D01*
X15440887Y26076426D01*
X15385115Y26244738D01*
X15292030Y26395652D01*
X15166652Y26521030D01*
X15035402Y26601987D01*
X14988678Y26653933D01*
X14976500Y26707524D01*
X14976500Y26826477D01*
X14996185Y26893516D01*
X15035401Y26932014D01*
X15166652Y27012970D01*
X15292030Y27138348D01*
X15385115Y27289262D01*
X15440887Y27457574D01*
X15451500Y27561455D01*
X15451499Y28150000D01*
X18660000Y28150000D01*
X18660000Y26452156D01*
X18666401Y26392628D01*
X18666403Y26392621D01*
X18716645Y26257914D01*
X18716649Y26257907D01*
X18802809Y26142813D01*
X18802812Y26142810D01*
X18917906Y26056650D01*
X18917913Y26056646D01*
X19052620Y26006404D01*
X19052627Y26006402D01*
X19112155Y26000001D01*
X19112172Y26000000D01*
X19410000Y26000000D01*
X19410000Y28150000D01*
X18660000Y28150000D01*
X15451499Y28150000D01*
X15451499Y28154686D01*
X15471183Y28221724D01*
X15501455Y28254151D01*
X15511785Y28261840D01*
X15541774Y28297581D01*
X15599943Y28336282D01*
X15669804Y28337392D01*
X15724444Y28305556D01*
X15743000Y28287000D01*
X18142999Y28287000D01*
X18142999Y28511972D01*
X18142998Y28511987D01*
X18132505Y28614698D01*
X18077358Y28781120D01*
X18077356Y28781125D01*
X17985315Y28930346D01*
X17861345Y29054316D01*
X17712124Y29146357D01*
X17712119Y29146359D01*
X17545697Y29201506D01*
X17545690Y29201507D01*
X17442986Y29212000D01*
X17074324Y29212000D01*
X17007285Y29231685D01*
X16961530Y29284489D01*
X16951586Y29353647D01*
X16980611Y29417203D01*
X17000013Y29435267D01*
X17062191Y29481814D01*
X17148350Y29596907D01*
X17148354Y29596914D01*
X17198596Y29731621D01*
X17198598Y29731628D01*
X17204999Y29791156D01*
X17205000Y29791173D01*
X17205000Y29956500D01*
X17224685Y30023539D01*
X17277489Y30069294D01*
X17329000Y30080500D01*
X18403638Y30080500D01*
X18403654Y30080501D01*
X18430692Y30083409D01*
X18464201Y30087011D01*
X18492663Y30097628D01*
X18562354Y30102614D01*
X18623678Y30069131D01*
G37*
%TD.AperFunction*%
%TA.AperFunction,Conductor*%
G36*
X53565095Y30488815D02*
G01*
X53603595Y30449597D01*
X53606884Y30444265D01*
X53606885Y30444262D01*
X53699970Y30293348D01*
X53825348Y30167970D01*
X53976262Y30074885D01*
X54144574Y30019113D01*
X54248455Y30008500D01*
X54849544Y30008501D01*
X54953426Y30019113D01*
X55121738Y30074885D01*
X55272652Y30167970D01*
X55398030Y30293348D01*
X55398032Y30293353D01*
X55401732Y30298030D01*
X55458753Y30338409D01*
X55528552Y30341549D01*
X55588968Y30306455D01*
X55596268Y30298030D01*
X55599969Y30293349D01*
X55599970Y30293348D01*
X55725348Y30167970D01*
X55876262Y30074885D01*
X56044574Y30019113D01*
X56148455Y30008500D01*
X56148467Y30008501D01*
X56151603Y30008340D01*
X56151594Y30008180D01*
X56151596Y30008179D01*
X56151593Y30008156D01*
X56151520Y30006713D01*
X56212462Y29988988D01*
X56233371Y29972182D01*
X56640253Y29565300D01*
X56673738Y29503977D01*
X56668754Y29434285D01*
X56635467Y29389386D01*
X56637450Y29387293D01*
X56498342Y29255524D01*
X56479347Y29227507D01*
X56425433Y29183067D01*
X56356050Y29174829D01*
X56293228Y29205410D01*
X56289033Y29209414D01*
X55834534Y29663913D01*
X55831280Y29660103D01*
X55697636Y29442016D01*
X55697634Y29442013D01*
X55599752Y29205703D01*
X55540042Y28956990D01*
X55519975Y28702000D01*
X55540042Y28447011D01*
X55599752Y28198298D01*
X55697634Y27961988D01*
X55697636Y27961985D01*
X55831275Y27743905D01*
X55831286Y27743890D01*
X55834533Y27740089D01*
X55834535Y27740089D01*
X56289476Y28195030D01*
X56350799Y28228515D01*
X56420490Y28223531D01*
X56471665Y28187625D01*
X56551736Y28093359D01*
X56562009Y28081265D01*
X56631191Y28028674D01*
X56672647Y27972436D01*
X56677118Y27902709D01*
X56643830Y27842279D01*
X56188087Y27386536D01*
X56188087Y27386535D01*
X56191888Y27383288D01*
X56191898Y27383281D01*
X56409984Y27249637D01*
X56409987Y27249635D01*
X56646297Y27151753D01*
X56895011Y27092043D01*
X56895010Y27092043D01*
X57150000Y27071976D01*
X57404989Y27092043D01*
X57653702Y27151753D01*
X57890012Y27249635D01*
X57890015Y27249637D01*
X58108103Y27383281D01*
X58111912Y27386536D01*
X57659746Y27838701D01*
X57626261Y27900024D01*
X57631245Y27969715D01*
X57664586Y28014558D01*
X57662550Y28016708D01*
X57667429Y28021331D01*
X57667431Y28021331D01*
X57801658Y28148477D01*
X57820652Y28176493D01*
X57874563Y28220932D01*
X57943945Y28229172D01*
X58006768Y28198592D01*
X58010966Y28194586D01*
X58470442Y27735110D01*
X58520405Y27722541D01*
X58568192Y27671569D01*
X58581501Y27615682D01*
X58581501Y27465298D01*
X58581502Y27465281D01*
X58591677Y27365685D01*
X58630132Y27249635D01*
X58645152Y27204308D01*
X58734401Y27059613D01*
X58854614Y26939400D01*
X58999309Y26850151D01*
X59160687Y26796676D01*
X59193154Y26793359D01*
X59193164Y26793358D01*
X59257856Y26766962D01*
X59298007Y26709781D01*
X59300871Y26639970D01*
X59265537Y26579694D01*
X59203224Y26548088D01*
X59193165Y26546642D01*
X59160685Y26543324D01*
X58999311Y26489850D01*
X58999306Y26489848D01*
X58854612Y26400599D01*
X58734402Y26280389D01*
X58645153Y26135695D01*
X58645151Y26135690D01*
X58591676Y25974311D01*
X58581501Y25874719D01*
X58581501Y25340297D01*
X58581502Y25340281D01*
X58591677Y25240686D01*
X58645152Y25079308D01*
X58680840Y25021448D01*
X58734402Y24934612D01*
X58854614Y24814400D01*
X58897597Y24787888D01*
X58944322Y24735940D01*
X58956501Y24682349D01*
X58956501Y24566525D01*
X58936816Y24499486D01*
X58897598Y24460987D01*
X58766351Y24380033D01*
X58766347Y24380030D01*
X58640971Y24254654D01*
X58547886Y24103741D01*
X58547884Y24103736D01*
X58492113Y23935428D01*
X58481500Y23831553D01*
X58481500Y23205463D01*
X58481501Y23205447D01*
X58492113Y23101573D01*
X58547884Y22933265D01*
X58547886Y22933260D01*
X58640971Y22782347D01*
X58729637Y22693681D01*
X58763122Y22632358D01*
X58758138Y22562666D01*
X58729637Y22518319D01*
X58640971Y22429654D01*
X58547886Y22278741D01*
X58547884Y22278736D01*
X58492113Y22110428D01*
X58481500Y22006553D01*
X58481500Y21380463D01*
X58481501Y21380447D01*
X58491201Y21285502D01*
X58492113Y21276574D01*
X58547885Y21108262D01*
X58640970Y20957348D01*
X58766348Y20831970D01*
X58897597Y20751015D01*
X58944321Y20699068D01*
X58956500Y20645477D01*
X58956500Y20186177D01*
X58936815Y20119138D01*
X58884011Y20073383D01*
X58845758Y20062888D01*
X58818796Y20059989D01*
X58818795Y20059989D01*
X58681795Y20008889D01*
X58564736Y19921259D01*
X58519266Y19860518D01*
X58463332Y19818647D01*
X58393641Y19813663D01*
X58332318Y19847149D01*
X58320734Y19860518D01*
X58275263Y19921259D01*
X58275261Y19921260D01*
X58275261Y19921261D01*
X58158204Y20008889D01*
X58118551Y20023679D01*
X58021203Y20059989D01*
X57960654Y20066500D01*
X57960638Y20066500D01*
X56339362Y20066500D01*
X56339345Y20066500D01*
X56278797Y20059989D01*
X56278795Y20059989D01*
X56141795Y20008889D01*
X56024739Y19921261D01*
X55937111Y19804205D01*
X55886011Y19667205D01*
X55886011Y19667203D01*
X55879500Y19606655D01*
X55879500Y17985346D01*
X55886011Y17924798D01*
X55886011Y17924796D01*
X55916464Y17843151D01*
X55937111Y17787796D01*
X56024739Y17670739D01*
X56141796Y17583111D01*
X56210836Y17557360D01*
X56266767Y17515490D01*
X56291184Y17450026D01*
X56291500Y17441180D01*
X56291500Y17106523D01*
X56271815Y17039484D01*
X56219011Y16993729D01*
X56149853Y16983785D01*
X56086297Y17012810D01*
X56079819Y17018842D01*
X56029345Y17069316D01*
X55880124Y17161357D01*
X55880119Y17161359D01*
X55713697Y17216506D01*
X55713690Y17216507D01*
X55610986Y17227000D01*
X55561000Y17227000D01*
X55561000Y14773067D01*
X55589752Y14720411D01*
X55584768Y14650719D01*
X55556267Y14606372D01*
X54283408Y13333511D01*
X54279704Y13330097D01*
X54237062Y13293876D01*
X54237058Y13293872D01*
X54237058Y13293871D01*
X54187582Y13228788D01*
X54161980Y13196938D01*
X54136379Y13165088D01*
X54136246Y13164880D01*
X54124170Y13145411D01*
X54124047Y13145207D01*
X54089725Y13071022D01*
X54053409Y12997796D01*
X54053302Y12997505D01*
X54045725Y12975984D01*
X54045642Y12975735D01*
X54028068Y12895894D01*
X54008342Y12816576D01*
X54008317Y12816388D01*
X54005513Y12793495D01*
X54005499Y12793368D01*
X54005499Y12711601D01*
X54003286Y12629910D01*
X54003308Y12629644D01*
X54005500Y12606594D01*
X54005500Y10312965D01*
X53985815Y10245926D01*
X53969181Y10225284D01*
X52671681Y8927784D01*
X52610358Y8894299D01*
X52540666Y8899283D01*
X52484733Y8941155D01*
X52460316Y9006619D01*
X52460000Y9015465D01*
X52460000Y9250000D01*
X51710000Y9250000D01*
X51710000Y8500000D01*
X51944536Y8500000D01*
X52011575Y8480315D01*
X52057330Y8427511D01*
X52067274Y8358353D01*
X52038249Y8294797D01*
X52032217Y8288319D01*
X51750717Y8006819D01*
X51689394Y7973334D01*
X51663036Y7970500D01*
X48480500Y7970500D01*
X48413461Y7990185D01*
X48367706Y8042989D01*
X48356500Y8094500D01*
X48356500Y8400959D01*
X48376185Y8467998D01*
X48428989Y8513753D01*
X48498147Y8523697D01*
X48523836Y8517140D01*
X48552622Y8506403D01*
X48552627Y8506402D01*
X48612155Y8500001D01*
X48612172Y8500000D01*
X49560000Y8500000D01*
X49560000Y9250000D01*
X50060000Y9250000D01*
X50060000Y8500000D01*
X51210000Y8500000D01*
X51210000Y9250000D01*
X50060000Y9250000D01*
X49560000Y9250000D01*
X49560000Y9626000D01*
X49579685Y9693039D01*
X49632489Y9738794D01*
X49684000Y9750000D01*
X51210000Y9750000D01*
X51210000Y10900000D01*
X51710000Y10900000D01*
X51710000Y9750000D01*
X52460000Y9750000D01*
X52460000Y10900000D01*
X51710000Y10900000D01*
X51210000Y10900000D01*
X51210000Y12492471D01*
X51221206Y12543984D01*
X51273014Y12657424D01*
X51288923Y12711602D01*
X51292698Y12724458D01*
X51292699Y12724464D01*
X51292700Y12724467D01*
X51303560Y12800000D01*
X51710000Y12800000D01*
X51710000Y11400000D01*
X52460000Y11400000D01*
X52460000Y12347828D01*
X52459999Y12347845D01*
X52453598Y12407373D01*
X52453596Y12407380D01*
X52403354Y12542087D01*
X52403350Y12542094D01*
X52317190Y12657188D01*
X52317187Y12657191D01*
X52202093Y12743351D01*
X52202086Y12743355D01*
X52067379Y12793597D01*
X52067372Y12793599D01*
X52007844Y12800000D01*
X51710000Y12800000D01*
X51303560Y12800000D01*
X51313500Y12869137D01*
X51313500Y13940028D01*
X51312857Y13958036D01*
X51311874Y13976370D01*
X51280800Y14119185D01*
X51256380Y14184649D01*
X51225169Y14241802D01*
X51210000Y14301232D01*
X51210000Y16150000D01*
X51710000Y16150000D01*
X51710000Y14000000D01*
X52007828Y14000000D01*
X52007844Y14000001D01*
X52067372Y14006402D01*
X52067379Y14006404D01*
X52202086Y14056646D01*
X52202093Y14056650D01*
X52317187Y14142810D01*
X52317190Y14142813D01*
X52403350Y14257907D01*
X52403354Y14257914D01*
X52453596Y14392621D01*
X52453598Y14392628D01*
X52459999Y14452156D01*
X52460000Y14452173D01*
X52460000Y15752000D01*
X54311001Y15752000D01*
X54311001Y15477014D01*
X54321494Y15374303D01*
X54376641Y15207881D01*
X54376643Y15207876D01*
X54468684Y15058655D01*
X54592654Y14934685D01*
X54741875Y14842644D01*
X54741880Y14842642D01*
X54908302Y14787495D01*
X54908309Y14787494D01*
X55011019Y14777001D01*
X55060999Y14777002D01*
X55061000Y14777002D01*
X55061000Y15752000D01*
X54311001Y15752000D01*
X52460000Y15752000D01*
X52460000Y16150000D01*
X51710000Y16150000D01*
X51210000Y16150000D01*
X51210000Y16252000D01*
X54311000Y16252000D01*
X55061000Y16252000D01*
X55061000Y17227000D01*
X55060999Y17227001D01*
X55011029Y17227000D01*
X55011011Y17226999D01*
X54908302Y17216506D01*
X54741880Y17161359D01*
X54741875Y17161357D01*
X54592654Y17069316D01*
X54468684Y16945346D01*
X54376643Y16796125D01*
X54376641Y16796120D01*
X54321494Y16629698D01*
X54321493Y16629691D01*
X54311000Y16526987D01*
X54311000Y16252000D01*
X51210000Y16252000D01*
X51210000Y18492471D01*
X51221206Y18543984D01*
X51227692Y18558185D01*
X51273014Y18657424D01*
X51292699Y18724463D01*
X51292700Y18724467D01*
X51303560Y18800000D01*
X51710000Y18800000D01*
X51710000Y16650000D01*
X52460000Y16650000D01*
X52460000Y18347828D01*
X52459999Y18347845D01*
X52453598Y18407373D01*
X52453596Y18407380D01*
X52403354Y18542087D01*
X52403350Y18542094D01*
X52317190Y18657188D01*
X52317187Y18657191D01*
X52202093Y18743351D01*
X52202086Y18743355D01*
X52067379Y18793597D01*
X52067372Y18793599D01*
X52007844Y18800000D01*
X51710000Y18800000D01*
X51303560Y18800000D01*
X51313500Y18869137D01*
X51313500Y19940028D01*
X51312857Y19958036D01*
X51311874Y19976370D01*
X51302009Y20021707D01*
X51294407Y20056646D01*
X51280800Y20119185D01*
X51256380Y20184649D01*
X51225169Y20241802D01*
X51210000Y20301232D01*
X51210000Y22150000D01*
X51710000Y22150000D01*
X51710000Y20000000D01*
X52007828Y20000000D01*
X52007844Y20000001D01*
X52067372Y20006402D01*
X52067379Y20006404D01*
X52202086Y20056646D01*
X52202093Y20056650D01*
X52317187Y20142810D01*
X52317190Y20142813D01*
X52403350Y20257907D01*
X52403354Y20257914D01*
X52453596Y20392621D01*
X52453598Y20392628D01*
X52459999Y20452156D01*
X52460000Y20452173D01*
X52460000Y22150000D01*
X51710000Y22150000D01*
X51210000Y22150000D01*
X51210000Y24492471D01*
X51221206Y24543984D01*
X51273014Y24657424D01*
X51292699Y24724463D01*
X51292700Y24724467D01*
X51303560Y24800000D01*
X51710000Y24800000D01*
X51710000Y22650000D01*
X52460000Y22650000D01*
X52460000Y24347828D01*
X52459999Y24347845D01*
X52453598Y24407373D01*
X52453596Y24407380D01*
X52403354Y24542087D01*
X52403350Y24542094D01*
X52317190Y24657188D01*
X52317187Y24657191D01*
X52202093Y24743351D01*
X52202086Y24743355D01*
X52067379Y24793597D01*
X52067372Y24793599D01*
X52007844Y24800000D01*
X51710000Y24800000D01*
X51303560Y24800000D01*
X51313500Y24869137D01*
X51313500Y25940028D01*
X51312857Y25958036D01*
X51311874Y25976370D01*
X51280800Y26119185D01*
X51256380Y26184649D01*
X51225169Y26241802D01*
X51210000Y26301232D01*
X51210000Y28150000D01*
X51710000Y28150000D01*
X51710000Y26000000D01*
X52007828Y26000000D01*
X52007844Y26000001D01*
X52067372Y26006402D01*
X52067379Y26006404D01*
X52202086Y26056646D01*
X52202093Y26056650D01*
X52317187Y26142810D01*
X52317190Y26142813D01*
X52403350Y26257907D01*
X52403354Y26257914D01*
X52453596Y26392621D01*
X52453598Y26392628D01*
X52459999Y26452156D01*
X52460000Y26452173D01*
X52460000Y28150000D01*
X51710000Y28150000D01*
X51210000Y28150000D01*
X51210000Y28526000D01*
X51229685Y28593039D01*
X51282489Y28638794D01*
X51334000Y28650000D01*
X52460000Y28650000D01*
X52460000Y30347828D01*
X52459999Y30347842D01*
X52457483Y30371243D01*
X52469887Y30440003D01*
X52517497Y30491141D01*
X52580772Y30508500D01*
X53498056Y30508500D01*
X53565095Y30488815D01*
G37*
%TD.AperFunction*%
%TA.AperFunction,Conductor*%
G36*
X13273834Y20577401D02*
G01*
X13329767Y20535529D01*
X13354184Y20470065D01*
X13354500Y20461219D01*
X13354500Y20127495D01*
X13357437Y20090171D01*
X13357438Y20090165D01*
X13403853Y19930404D01*
X13403855Y19930399D01*
X13488544Y19787197D01*
X13488551Y19787188D01*
X13606187Y19669552D01*
X13612356Y19664767D01*
X13611013Y19663037D01*
X13651068Y19620150D01*
X13663581Y19551410D01*
X13636944Y19486817D01*
X13605369Y19458934D01*
X13534656Y19415318D01*
X13410684Y19291346D01*
X13318643Y19142125D01*
X13318641Y19142120D01*
X13263494Y18975698D01*
X13263493Y18975691D01*
X13253000Y18872987D01*
X13253000Y18823000D01*
X14604000Y18823000D01*
X14671039Y18803315D01*
X14716794Y18750511D01*
X14728000Y18699000D01*
X14728000Y18447000D01*
X14708315Y18379961D01*
X14655511Y18334206D01*
X14604000Y18323000D01*
X13253001Y18323000D01*
X13253001Y18273014D01*
X13263494Y18170303D01*
X13318641Y18003881D01*
X13318643Y18003876D01*
X13410684Y17854655D01*
X13534655Y17730684D01*
X13540323Y17726202D01*
X13538592Y17724014D01*
X13576749Y17681610D01*
X13587987Y17612650D01*
X13560158Y17548562D01*
X13534894Y17526664D01*
X13535015Y17526511D01*
X13531627Y17523833D01*
X13530043Y17522459D01*
X13529350Y17522032D01*
X13529347Y17522030D01*
X13403971Y17396654D01*
X13310886Y17245741D01*
X13310884Y17245736D01*
X13255113Y17077428D01*
X13244500Y16973553D01*
X13244500Y16372463D01*
X13244501Y16372447D01*
X13255113Y16268574D01*
X13310885Y16100262D01*
X13402443Y15951823D01*
X13403971Y15949347D01*
X13528010Y15825308D01*
X13561495Y15763985D01*
X13558035Y15698624D01*
X13524926Y15598705D01*
X13485154Y15541260D01*
X13420639Y15514436D01*
X13351863Y15526750D01*
X13319539Y15550027D01*
X12215033Y16654533D01*
X12181548Y16715856D01*
X12178714Y16742214D01*
X12178714Y19533433D01*
X12198399Y19600472D01*
X12215033Y19621114D01*
X12700085Y20106166D01*
X13142821Y20548902D01*
X13204142Y20582385D01*
X13273834Y20577401D01*
G37*
%TD.AperFunction*%
%TA.AperFunction,Conductor*%
G36*
X9926678Y24487315D02*
G01*
X9972433Y24434511D01*
X9982377Y24365353D01*
X9980532Y24355422D01*
X9971444Y24315599D01*
X9965736Y24290593D01*
X9965735Y24290592D01*
X9976443Y24147705D01*
X9974703Y24147575D01*
X9971106Y24088855D01*
X9929808Y24032497D01*
X9864597Y24007413D01*
X9854488Y24007000D01*
X8428361Y24007000D01*
X8361322Y24026685D01*
X8315567Y24079489D01*
X8305623Y24148647D01*
X8307467Y24158579D01*
X8322264Y24223407D01*
X8319923Y24254652D01*
X8311557Y24366295D01*
X8313296Y24366426D01*
X8316894Y24425145D01*
X8358192Y24481503D01*
X8423403Y24506587D01*
X8433512Y24507000D01*
X9859639Y24507000D01*
X9926678Y24487315D01*
G37*
%TD.AperFunction*%
%TA.AperFunction,Conductor*%
G36*
X18603039Y36171815D02*
G01*
X18648794Y36119011D01*
X18660000Y36067500D01*
X18660000Y34650000D01*
X19786000Y34650000D01*
X19853039Y34630315D01*
X19898794Y34577511D01*
X19910000Y34526000D01*
X19910000Y34274000D01*
X19890315Y34206961D01*
X19837511Y34161206D01*
X19786000Y34150000D01*
X18660000Y34150000D01*
X18660000Y32696554D01*
X18640315Y32629515D01*
X18587511Y32583760D01*
X18518353Y32573816D01*
X18492666Y32580373D01*
X18464207Y32590988D01*
X18464202Y32590989D01*
X18403654Y32597500D01*
X18403638Y32597500D01*
X17329000Y32597500D01*
X17261961Y32617185D01*
X17216206Y32669989D01*
X17205000Y32721500D01*
X17205000Y32886828D01*
X17204999Y32886845D01*
X17198598Y32946373D01*
X17198596Y32946380D01*
X17148354Y33081087D01*
X17148350Y33081094D01*
X17062190Y33196188D01*
X17062187Y33196191D01*
X16947093Y33282351D01*
X16947086Y33282355D01*
X16812379Y33332597D01*
X16812372Y33332599D01*
X16752844Y33339000D01*
X16604999Y33339000D01*
X16604999Y32359957D01*
X16597180Y32316623D01*
X16553012Y32198208D01*
X16553011Y32198203D01*
X16546500Y32137655D01*
X16546499Y32137638D01*
X16546500Y31213000D01*
X16526815Y31145961D01*
X16474011Y31100206D01*
X16422500Y31089000D01*
X16287500Y31089000D01*
X16220461Y31108685D01*
X16174706Y31161489D01*
X16163500Y31213000D01*
X16163500Y32137638D01*
X16163499Y32137655D01*
X16158304Y32185966D01*
X16156989Y32198201D01*
X16156987Y32198205D01*
X16156987Y32198208D01*
X16112819Y32316626D01*
X16105000Y32359960D01*
X16105000Y33339000D01*
X15957155Y33339000D01*
X15897627Y33332599D01*
X15897620Y33332597D01*
X15762913Y33282355D01*
X15762906Y33282351D01*
X15647812Y33196191D01*
X15647809Y33196188D01*
X15561649Y33081094D01*
X15561645Y33081087D01*
X15511403Y32946380D01*
X15511401Y32946373D01*
X15505000Y32886845D01*
X15505000Y32721500D01*
X15485315Y32654461D01*
X15432511Y32608706D01*
X15381000Y32597500D01*
X14306345Y32597500D01*
X14245797Y32590989D01*
X14245795Y32590989D01*
X14108795Y32539889D01*
X13991739Y32452261D01*
X13904111Y32335205D01*
X13853011Y32198205D01*
X13853011Y32198203D01*
X13846500Y32137655D01*
X13846499Y32137638D01*
X13846499Y30540363D01*
X13846500Y30540346D01*
X13853011Y30479798D01*
X13853011Y30479796D01*
X13897417Y30360743D01*
X13904111Y30342796D01*
X13991739Y30225739D01*
X14108796Y30138111D01*
X14190836Y30107512D01*
X14246767Y30065641D01*
X14271184Y30000177D01*
X14271500Y29991331D01*
X14271500Y29344500D01*
X14251815Y29277461D01*
X14199011Y29231706D01*
X14147500Y29220500D01*
X13742462Y29220500D01*
X13742446Y29220499D01*
X13638572Y29209887D01*
X13470264Y29154116D01*
X13470259Y29154114D01*
X13319346Y29061029D01*
X13274277Y29015960D01*
X13212954Y28982476D01*
X13143262Y28987461D01*
X13087329Y29029333D01*
X13062913Y29094797D01*
X13062598Y29103615D01*
X13062598Y31863136D01*
X13082283Y31930174D01*
X13098912Y31950811D01*
X17303282Y36155181D01*
X17364606Y36188666D01*
X17390964Y36191500D01*
X18536000Y36191500D01*
X18603039Y36171815D01*
G37*
%TD.AperFunction*%
%TA.AperFunction,Conductor*%
G36*
X58338554Y30488815D02*
G01*
X58377241Y30449291D01*
X58406517Y30401518D01*
X58445533Y30337848D01*
X58445536Y30337844D01*
X58602299Y30154299D01*
X58785844Y29997536D01*
X58897290Y29929242D01*
X58944165Y29877431D01*
X58956500Y29823515D01*
X58956500Y29186003D01*
X58936815Y29118964D01*
X58884011Y29073209D01*
X58814853Y29063265D01*
X58751297Y29092290D01*
X58713523Y29151068D01*
X58711926Y29157056D01*
X58700247Y29205703D01*
X58602365Y29442013D01*
X58602363Y29442016D01*
X58468719Y29660102D01*
X58468712Y29660112D01*
X58465465Y29663913D01*
X58465464Y29663913D01*
X58010523Y29208972D01*
X57949200Y29175487D01*
X57879508Y29180471D01*
X57828334Y29216376D01*
X57737991Y29322735D01*
X57716488Y29339081D01*
X57668806Y29375328D01*
X57627351Y29431568D01*
X57622882Y29501294D01*
X57656169Y29561723D01*
X58111911Y30017465D01*
X58111911Y30017467D01*
X58108110Y30020714D01*
X58108095Y30020725D01*
X57890015Y30154364D01*
X57890012Y30154366D01*
X57653702Y30252248D01*
X57605056Y30263926D01*
X57544464Y30298717D01*
X57512300Y30360743D01*
X57518776Y30430312D01*
X57561836Y30485336D01*
X57627808Y30508345D01*
X57634003Y30508500D01*
X58271515Y30508500D01*
X58338554Y30488815D01*
G37*
%TD.AperFunction*%
%TA.AperFunction,Conductor*%
G36*
X9926678Y34647315D02*
G01*
X9972433Y34594511D01*
X9982377Y34525353D01*
X9980532Y34515422D01*
X9969548Y34467293D01*
X9965736Y34450593D01*
X9965735Y34450592D01*
X9976443Y34307705D01*
X9974703Y34307575D01*
X9971106Y34248855D01*
X9929808Y34192497D01*
X9864597Y34167413D01*
X9854488Y34167000D01*
X8428361Y34167000D01*
X8361322Y34186685D01*
X8315567Y34239489D01*
X8305623Y34308647D01*
X8307467Y34318579D01*
X8322264Y34383407D01*
X8320816Y34402735D01*
X8311557Y34526295D01*
X8313296Y34526426D01*
X8316894Y34585145D01*
X8358192Y34641503D01*
X8423403Y34666587D01*
X8433512Y34667000D01*
X9859639Y34667000D01*
X9926678Y34647315D01*
G37*
%TD.AperFunction*%
%TA.AperFunction,Conductor*%
G36*
X27905851Y44204815D02*
G01*
X27926493Y44188181D01*
X28243493Y43871181D01*
X28276978Y43809858D01*
X28271994Y43740166D01*
X28230122Y43684233D01*
X28164658Y43659816D01*
X28155812Y43659500D01*
X16826469Y43659500D01*
X16808500Y43660809D01*
X16785475Y43664182D01*
X16744501Y43660597D01*
X16734667Y43659736D01*
X16729267Y43659500D01*
X16721282Y43659500D01*
X16705372Y43657641D01*
X16689462Y43655781D01*
X16614667Y43649238D01*
X16607599Y43647778D01*
X16607582Y43647860D01*
X16600701Y43646335D01*
X16600721Y43646254D01*
X16593697Y43644589D01*
X16523153Y43618913D01*
X16451899Y43595302D01*
X16445351Y43592248D01*
X16445315Y43592324D01*
X16438983Y43589259D01*
X16439021Y43589183D01*
X16432566Y43585942D01*
X16369863Y43544703D01*
X16305966Y43505291D01*
X16300298Y43500809D01*
X16300246Y43500875D01*
X16294784Y43496426D01*
X16294839Y43496361D01*
X16289308Y43491721D01*
X16237821Y43437148D01*
X15273507Y42472835D01*
X15259880Y42461057D01*
X15241213Y42447159D01*
X15208435Y42408097D01*
X15204787Y42404115D01*
X15199135Y42398463D01*
X15179246Y42373310D01*
X15130997Y42315810D01*
X15127030Y42309776D01*
X15126960Y42309823D01*
X15123177Y42303885D01*
X15123248Y42303841D01*
X15119457Y42297696D01*
X15087726Y42229647D01*
X15054042Y42162577D01*
X15051574Y42155794D01*
X15051496Y42155823D01*
X15049181Y42149166D01*
X15049261Y42149139D01*
X15046990Y42142286D01*
X15031814Y42068788D01*
X15014501Y41995743D01*
X15013663Y41988570D01*
X15013580Y41988580D01*
X15012863Y41981561D01*
X15012946Y41981553D01*
X15012317Y41974371D01*
X15014500Y41899373D01*
X15014500Y37566189D01*
X14994815Y37499150D01*
X14978180Y37478508D01*
X12831922Y35332248D01*
X11702993Y34203319D01*
X11641670Y34169834D01*
X11615312Y34167000D01*
X10968361Y34167000D01*
X10901322Y34186685D01*
X10855567Y34239489D01*
X10845623Y34308647D01*
X10847467Y34318579D01*
X10862264Y34383407D01*
X10860816Y34402735D01*
X10851557Y34526295D01*
X10853296Y34526426D01*
X10856894Y34585145D01*
X10898192Y34641503D01*
X10963403Y34666587D01*
X10973512Y34667000D01*
X11676000Y34667000D01*
X11676000Y35226828D01*
X11675999Y35226845D01*
X11669598Y35286373D01*
X11669596Y35286380D01*
X11619354Y35421087D01*
X11619350Y35421094D01*
X11533190Y35536188D01*
X11533187Y35536191D01*
X11418093Y35622351D01*
X11418086Y35622355D01*
X11283379Y35672597D01*
X11283372Y35672599D01*
X11223844Y35679000D01*
X10664000Y35679000D01*
X10664000Y34973066D01*
X10644315Y34906027D01*
X10591511Y34860272D01*
X10522353Y34850328D01*
X10503453Y34854574D01*
X10480998Y34861500D01*
X10380688Y34861500D01*
X10380680Y34861500D01*
X10306481Y34850316D01*
X10237256Y34859789D01*
X10184142Y34905184D01*
X10164003Y34972088D01*
X10164000Y34972931D01*
X10164000Y35679000D01*
X9604155Y35679000D01*
X9544627Y35672599D01*
X9544620Y35672597D01*
X9409913Y35622355D01*
X9409906Y35622351D01*
X9294812Y35536191D01*
X9243265Y35467334D01*
X9187330Y35425463D01*
X9117639Y35420480D01*
X9056316Y35453966D01*
X9044732Y35467335D01*
X8993186Y35536192D01*
X8878093Y35622351D01*
X8878086Y35622355D01*
X8743379Y35672597D01*
X8743372Y35672599D01*
X8683844Y35679000D01*
X8124000Y35679000D01*
X8124000Y34973066D01*
X8104315Y34906027D01*
X8051511Y34860272D01*
X7982353Y34850328D01*
X7963453Y34854574D01*
X7940998Y34861500D01*
X7840688Y34861500D01*
X7840680Y34861500D01*
X7766481Y34850316D01*
X7697256Y34859789D01*
X7644142Y34905184D01*
X7624003Y34972088D01*
X7624000Y34972931D01*
X7624000Y35679000D01*
X7064155Y35679000D01*
X7004627Y35672599D01*
X7004620Y35672597D01*
X6869913Y35622355D01*
X6869908Y35622352D01*
X6866807Y35620030D01*
X6863179Y35618678D01*
X6862128Y35618103D01*
X6862045Y35618255D01*
X6801341Y35595616D01*
X6733069Y35610470D01*
X6683665Y35659877D01*
X6668500Y35719300D01*
X6668500Y42034866D01*
X6688185Y42101905D01*
X6704819Y42122547D01*
X8770454Y44188181D01*
X8831777Y44221666D01*
X8858135Y44224500D01*
X27838812Y44224500D01*
X27905851Y44204815D01*
G37*
%TD.AperFunction*%
%TA.AperFunction,Conductor*%
G36*
X37133495Y37076815D02*
G01*
X37154137Y37060181D01*
X37188348Y37025970D01*
X37339262Y36932885D01*
X37410503Y36909279D01*
X37467947Y36869508D01*
X37494772Y36804993D01*
X37495500Y36791573D01*
X37495500Y35780500D01*
X37475815Y35713461D01*
X37423011Y35667706D01*
X37371500Y35656500D01*
X36848907Y35656500D01*
X36781868Y35676185D01*
X36736113Y35728989D01*
X36726169Y35798147D01*
X36732725Y35823832D01*
X36741596Y35847617D01*
X36741598Y35847628D01*
X36747999Y35907156D01*
X36748000Y35907173D01*
X36748000Y35955000D01*
X35972000Y35955000D01*
X35904961Y35974685D01*
X35859206Y36027489D01*
X35848000Y36079000D01*
X35848000Y36081000D01*
X35867685Y36148039D01*
X35920489Y36193794D01*
X35972000Y36205000D01*
X36748000Y36205000D01*
X36748000Y36252828D01*
X36747999Y36252842D01*
X36741128Y36316743D01*
X36741128Y36343257D01*
X36747999Y36407159D01*
X36748000Y36407173D01*
X36748000Y36455001D01*
X36744417Y36458583D01*
X36689580Y36474685D01*
X36643825Y36527489D01*
X36633881Y36596647D01*
X36657369Y36653333D01*
X36658869Y36655337D01*
X36714814Y36697193D01*
X36745774Y36702775D01*
X36748000Y36705000D01*
X36748000Y36752828D01*
X36747999Y36752837D01*
X36743818Y36791719D01*
X36749624Y36837911D01*
X36748204Y36838246D01*
X36749986Y36845793D01*
X36749989Y36845799D01*
X36753786Y36881114D01*
X36756499Y36906346D01*
X36756500Y36906363D01*
X36756500Y36972500D01*
X36776185Y37039539D01*
X36828989Y37085294D01*
X36880500Y37096500D01*
X37066456Y37096500D01*
X37133495Y37076815D01*
G37*
%TD.AperFunction*%
%TA.AperFunction,Conductor*%
G36*
X18661192Y42172815D02*
G01*
X18706947Y42120011D01*
X18716891Y42050853D01*
X18710335Y42025167D01*
X18666403Y41907380D01*
X18666401Y41907373D01*
X18660000Y41847845D01*
X18660000Y41847828D01*
X18659999Y41550000D01*
X22960000Y41550000D01*
X22960000Y41847828D01*
X22959999Y41847845D01*
X22953598Y41907373D01*
X22953596Y41907380D01*
X22909665Y42025167D01*
X22904681Y42094859D01*
X22938166Y42156182D01*
X22999489Y42189666D01*
X23025847Y42192500D01*
X24094153Y42192500D01*
X24161192Y42172815D01*
X24206947Y42120011D01*
X24216891Y42050853D01*
X24210335Y42025167D01*
X24166403Y41907380D01*
X24166401Y41907373D01*
X24160000Y41847845D01*
X24160000Y41550000D01*
X26686000Y41550000D01*
X26753039Y41530315D01*
X26798794Y41477511D01*
X26810000Y41426000D01*
X26810000Y41174000D01*
X26790315Y41106961D01*
X26737511Y41061206D01*
X26686000Y41050000D01*
X24467530Y41050000D01*
X24416018Y41061206D01*
X24338980Y41096389D01*
X24302580Y41113013D01*
X24235543Y41132698D01*
X24235537Y41132700D01*
X24148732Y41145180D01*
X24090864Y41153500D01*
X23019967Y41153500D01*
X23019966Y41153500D01*
X23001959Y41152858D01*
X22983666Y41151877D01*
X22983661Y41151877D01*
X22983659Y41151876D01*
X22983648Y41151874D01*
X22983650Y41151874D01*
X22840842Y41120809D01*
X22775370Y41096389D01*
X22718195Y41065168D01*
X22658768Y41050000D01*
X19910000Y41050000D01*
X19910000Y39524000D01*
X19890315Y39456961D01*
X19837511Y39411206D01*
X19786000Y39400000D01*
X18660000Y39400000D01*
X18660000Y38452156D01*
X18666401Y38392628D01*
X18666403Y38392621D01*
X18716645Y38257914D01*
X18716649Y38257907D01*
X18802808Y38142814D01*
X18817565Y38131767D01*
X18859436Y38075833D01*
X18864420Y38006142D01*
X18830935Y37944819D01*
X18769612Y37911334D01*
X18743254Y37908500D01*
X17021410Y37908500D01*
X17016376Y37908705D01*
X16960618Y37913246D01*
X16879620Y37902210D01*
X16798358Y37893372D01*
X16798073Y37893309D01*
X16775830Y37888096D01*
X16775589Y37888036D01*
X16698869Y37859851D01*
X16645093Y37841732D01*
X16575278Y37838980D01*
X16515057Y37874411D01*
X16483552Y37936774D01*
X16481500Y37959241D01*
X16481500Y41050000D01*
X18660000Y41050000D01*
X18660000Y39900000D01*
X19410000Y39900000D01*
X19410000Y41050000D01*
X18660000Y41050000D01*
X16481500Y41050000D01*
X16481500Y41554812D01*
X16501185Y41621851D01*
X16517819Y41642493D01*
X17031507Y42156181D01*
X17092830Y42189666D01*
X17119188Y42192500D01*
X18594153Y42192500D01*
X18661192Y42172815D01*
G37*
%TD.AperFunction*%
%TA.AperFunction,Conductor*%
G36*
X40087821Y40280315D02*
G01*
X40133576Y40227511D01*
X40143940Y40183781D01*
X40144262Y40183815D01*
X40144541Y40181244D01*
X40144697Y40180588D01*
X40144740Y40179417D01*
X40154471Y40089944D01*
X40157101Y40070638D01*
X40158132Y40048859D01*
X40157000Y40021042D01*
X40157000Y39449000D01*
X40137315Y39381961D01*
X40084511Y39336206D01*
X40070062Y39333063D01*
X40062000Y39325000D01*
X40062000Y37974000D01*
X40042315Y37906961D01*
X39989511Y37861206D01*
X39938000Y37850000D01*
X39686000Y37850000D01*
X39618961Y37869685D01*
X39573206Y37922489D01*
X39562000Y37974000D01*
X39562000Y39325000D01*
X39549942Y39337057D01*
X39523961Y39344686D01*
X39478206Y39397490D01*
X39467000Y39449001D01*
X39467000Y39654784D01*
X39465527Y39682265D01*
X39461223Y39722286D01*
X39461224Y39722285D01*
X39452432Y39776542D01*
X39452431Y39776546D01*
X39452430Y39776547D01*
X39401354Y39913488D01*
X39367869Y39974811D01*
X39280280Y40091815D01*
X39280279Y40091815D01*
X39277695Y40094798D01*
X39248671Y40158354D01*
X39258615Y40227513D01*
X39304371Y40280316D01*
X39371409Y40300000D01*
X40020782Y40300000D01*
X40087821Y40280315D01*
G37*
%TD.AperFunction*%
%TA.AperFunction,Conductor*%
G36*
X34909393Y38775125D02*
G01*
X34952478Y38747869D01*
X34966960Y38733795D01*
X35025269Y38677127D01*
X35025279Y38677119D01*
X35053217Y38656821D01*
X35072483Y38639474D01*
X35110600Y38597140D01*
X35125835Y38576171D01*
X35140078Y38551501D01*
X35154320Y38526833D01*
X35164862Y38503155D01*
X35187198Y38434416D01*
X35187204Y38434402D01*
X35217749Y38371139D01*
X35229172Y38302209D01*
X35201514Y38238047D01*
X35143559Y38199022D01*
X35106084Y38193224D01*
X34524342Y38193224D01*
X34457303Y38212909D01*
X34411548Y38265713D01*
X34401604Y38334871D01*
X34430629Y38398427D01*
X34436661Y38404905D01*
X34607410Y38575654D01*
X34778381Y38746626D01*
X34839702Y38780109D01*
X34909393Y38775125D01*
G37*
%TD.AperFunction*%
%TD*%
%TA.AperFunction,Conductor*%
%TO.N,GNDA*%
G36*
X42383851Y32520815D02*
G01*
X42404493Y32504181D01*
X44141166Y30767508D01*
X44152947Y30753876D01*
X44166839Y30735216D01*
X44205904Y30702436D01*
X44209894Y30698780D01*
X44215543Y30693131D01*
X44240690Y30673247D01*
X44298191Y30624998D01*
X44298195Y30624996D01*
X44304232Y30621025D01*
X44304184Y30620953D01*
X44310118Y30617173D01*
X44310164Y30617246D01*
X44316308Y30613456D01*
X44384353Y30581727D01*
X44451421Y30548044D01*
X44451423Y30548044D01*
X44458210Y30545573D01*
X44458180Y30545492D01*
X44464827Y30543182D01*
X44464854Y30543263D01*
X44471714Y30540990D01*
X44545211Y30525816D01*
X44545211Y30525815D01*
X44618266Y30508500D01*
X44618275Y30508500D01*
X44625439Y30507662D01*
X44625429Y30507578D01*
X44632435Y30506862D01*
X44632443Y30506947D01*
X44639632Y30506318D01*
X44639635Y30506319D01*
X44639636Y30506318D01*
X44714628Y30508500D01*
X50330641Y30508500D01*
X50397680Y30488815D01*
X50443435Y30436011D01*
X50453930Y30371243D01*
X50451500Y30348652D01*
X50451500Y26451346D01*
X50458011Y26390798D01*
X50458011Y26390796D01*
X50509110Y26253796D01*
X50509111Y26253796D01*
X50596739Y26136739D01*
X50657416Y26091317D01*
X50713794Y26049112D01*
X50713795Y26049112D01*
X50713796Y26049111D01*
X50719330Y26047047D01*
X50775264Y26005179D01*
X50799684Y25939715D01*
X50800000Y25930864D01*
X50800000Y24869137D01*
X50780315Y24802098D01*
X50727511Y24756343D01*
X50719341Y24752958D01*
X50713799Y24750891D01*
X50713795Y24750889D01*
X50596739Y24663261D01*
X50509111Y24546205D01*
X50458011Y24409205D01*
X50458011Y24409203D01*
X50451500Y24348655D01*
X50451500Y20451346D01*
X50458011Y20390798D01*
X50458011Y20390796D01*
X50509110Y20253797D01*
X50509111Y20253796D01*
X50596739Y20136739D01*
X50674922Y20078212D01*
X50713794Y20049112D01*
X50713795Y20049112D01*
X50713796Y20049111D01*
X50719330Y20047047D01*
X50775264Y20005179D01*
X50799684Y19939715D01*
X50800000Y19930864D01*
X50800000Y18869137D01*
X50780315Y18802098D01*
X50727511Y18756343D01*
X50719341Y18752958D01*
X50713799Y18750891D01*
X50713795Y18750889D01*
X50596739Y18663261D01*
X50509111Y18546205D01*
X50458011Y18409205D01*
X50458011Y18409203D01*
X50451500Y18348655D01*
X50451500Y14451346D01*
X50458011Y14390798D01*
X50458011Y14390796D01*
X50503640Y14268463D01*
X50509111Y14253796D01*
X50596739Y14136739D01*
X50674922Y14078212D01*
X50713794Y14049112D01*
X50713795Y14049112D01*
X50713796Y14049111D01*
X50719330Y14047047D01*
X50775264Y14005179D01*
X50799684Y13939715D01*
X50800000Y13930864D01*
X50800000Y12869137D01*
X50780315Y12802098D01*
X50727511Y12756343D01*
X50719341Y12752958D01*
X50713799Y12750891D01*
X50713795Y12750889D01*
X50596739Y12663261D01*
X50509111Y12546205D01*
X50458011Y12409205D01*
X50458011Y12409203D01*
X50451500Y12348655D01*
X50451500Y10632500D01*
X50431815Y10565461D01*
X50379011Y10519706D01*
X50327500Y10508500D01*
X48611345Y10508500D01*
X48550797Y10501989D01*
X48550796Y10501989D01*
X48523833Y10491932D01*
X48454141Y10486948D01*
X48392818Y10520433D01*
X48359334Y10581757D01*
X48356500Y10608114D01*
X48356500Y14591090D01*
X48356705Y14596124D01*
X48361245Y14651881D01*
X48361244Y14651883D01*
X48361245Y14651885D01*
X48350209Y14732880D01*
X48341372Y14814140D01*
X48341371Y14814142D01*
X48341371Y14814146D01*
X48341288Y14814522D01*
X48336126Y14836546D01*
X48336035Y14836915D01*
X48307850Y14913630D01*
X48305379Y14920964D01*
X48281748Y14991100D01*
X48281743Y14991108D01*
X48281616Y14991384D01*
X48271809Y15011852D01*
X48271642Y15012189D01*
X48227627Y15081049D01*
X48199185Y15128320D01*
X48185476Y15151105D01*
X48185474Y15151107D01*
X48185313Y15151318D01*
X48171290Y15169257D01*
X48171075Y15169524D01*
X48171071Y15169531D01*
X48113266Y15227336D01*
X48057058Y15286674D01*
X48057052Y15286679D01*
X48056823Y15286872D01*
X48039000Y15301602D01*
X46165818Y17174784D01*
X46132333Y17236107D01*
X46129499Y17262465D01*
X46129499Y17518538D01*
X46129498Y17518554D01*
X46123089Y17581289D01*
X46118887Y17622426D01*
X46063115Y17790738D01*
X45985460Y17916635D01*
X45967000Y17981731D01*
X45967000Y18779286D01*
X45986685Y18846325D01*
X46039489Y18892080D01*
X46108647Y18902024D01*
X46130005Y18896992D01*
X46267305Y18851495D01*
X46267309Y18851494D01*
X46370019Y18841001D01*
X46419999Y18841002D01*
X46420000Y18841002D01*
X46420000Y19816000D01*
X46920000Y19816000D01*
X46920000Y18841001D01*
X46969972Y18841001D01*
X46969986Y18841002D01*
X47072697Y18851495D01*
X47239119Y18906642D01*
X47239124Y18906644D01*
X47388345Y18998685D01*
X47512315Y19122655D01*
X47604356Y19271876D01*
X47604358Y19271881D01*
X47659505Y19438303D01*
X47659506Y19438310D01*
X47669999Y19541014D01*
X47670000Y19541027D01*
X47670000Y19816000D01*
X46920000Y19816000D01*
X46420000Y19816000D01*
X46420000Y21291000D01*
X46920000Y21291000D01*
X46920000Y20316000D01*
X47669999Y20316000D01*
X47669999Y20590972D01*
X47669998Y20590987D01*
X47659505Y20693698D01*
X47604358Y20860120D01*
X47604356Y20860125D01*
X47512315Y21009346D01*
X47388345Y21133316D01*
X47239124Y21225357D01*
X47239119Y21225359D01*
X47072697Y21280506D01*
X47072690Y21280507D01*
X46969986Y21291000D01*
X46920000Y21291000D01*
X46420000Y21291000D01*
X46419999Y21291001D01*
X46370029Y21291000D01*
X46370011Y21290999D01*
X46267302Y21280506D01*
X46100880Y21225359D01*
X46100875Y21225357D01*
X45951654Y21133316D01*
X45827683Y21009345D01*
X45823202Y21003677D01*
X45821021Y21005402D01*
X45778556Y20967225D01*
X45709591Y20956020D01*
X45645516Y20983879D01*
X45623663Y21009106D01*
X45623511Y21008985D01*
X45620816Y21012394D01*
X45619451Y21013969D01*
X45619029Y21014653D01*
X45493651Y21140031D01*
X45445902Y21169483D01*
X45399178Y21221431D01*
X45387000Y21275021D01*
X45387000Y21338503D01*
X45406685Y21405542D01*
X45447879Y21445235D01*
X45522807Y21489547D01*
X45640453Y21607193D01*
X45725145Y21750399D01*
X45771562Y21910169D01*
X45774500Y21947498D01*
X45774500Y22190000D01*
X45794185Y22257039D01*
X45846989Y22302794D01*
X45898500Y22314000D01*
X46153500Y22314000D01*
X46153500Y22864000D01*
X46653500Y22864000D01*
X46653500Y22314000D01*
X47056644Y22314000D01*
X47093489Y22316900D01*
X47093495Y22316901D01*
X47251193Y22362717D01*
X47251196Y22362718D01*
X47392552Y22446315D01*
X47392561Y22446322D01*
X47508678Y22562439D01*
X47508685Y22562448D01*
X47592281Y22703802D01*
X47638100Y22861514D01*
X47638295Y22863999D01*
X47638295Y22864000D01*
X46653500Y22864000D01*
X46153500Y22864000D01*
X45513531Y22864000D01*
X45450412Y22881267D01*
X45379601Y22923145D01*
X45379599Y22923146D01*
X45379597Y22923147D01*
X45219835Y22969562D01*
X45219829Y22969563D01*
X45182505Y22972500D01*
X45182502Y22972500D01*
X44842515Y22972500D01*
X44796617Y22981307D01*
X44759529Y22996085D01*
X44759520Y22996087D01*
X44679937Y23009134D01*
X44616965Y23039405D01*
X44580356Y23098915D01*
X44581732Y23168772D01*
X44620657Y23226794D01*
X44684772Y23254562D01*
X44699998Y23255500D01*
X45182505Y23255500D01*
X45204899Y23257263D01*
X45219831Y23258438D01*
X45219833Y23258439D01*
X45219835Y23258439D01*
X45261962Y23270679D01*
X45379601Y23304855D01*
X45450412Y23346734D01*
X45513531Y23364000D01*
X46153500Y23364000D01*
X46153500Y23914000D01*
X46653500Y23914000D01*
X46653500Y23364000D01*
X47638295Y23364000D01*
X47638295Y23364002D01*
X47638100Y23366487D01*
X47592281Y23524199D01*
X47508685Y23665553D01*
X47508678Y23665562D01*
X47392561Y23781679D01*
X47392552Y23781686D01*
X47251196Y23865283D01*
X47251193Y23865284D01*
X47093495Y23911100D01*
X47093489Y23911101D01*
X47056644Y23914000D01*
X46653500Y23914000D01*
X46153500Y23914000D01*
X45898500Y23914000D01*
X45831461Y23933685D01*
X45785706Y23986489D01*
X45774500Y24038000D01*
X45774500Y24280505D01*
X45771562Y24317830D01*
X45771561Y24317836D01*
X45725146Y24477597D01*
X45725145Y24477601D01*
X45645818Y24611736D01*
X45640455Y24620804D01*
X45640448Y24620813D01*
X45522812Y24738449D01*
X45522803Y24738456D01*
X45379601Y24823145D01*
X45379596Y24823147D01*
X45219835Y24869562D01*
X45219829Y24869563D01*
X45182505Y24872500D01*
X45182502Y24872500D01*
X43874498Y24872500D01*
X43874495Y24872500D01*
X43837170Y24869563D01*
X43837164Y24869562D01*
X43677403Y24823147D01*
X43677402Y24823147D01*
X43677398Y24823145D01*
X43677399Y24823145D01*
X43663232Y24814768D01*
X43600114Y24797500D01*
X42759601Y24797500D01*
X42743564Y24799139D01*
X42743557Y24799053D01*
X42736367Y24799683D01*
X42661372Y24797500D01*
X42296895Y24797500D01*
X42229856Y24817185D01*
X42184101Y24869989D01*
X42174157Y24939147D01*
X42179189Y24960504D01*
X42233887Y25125574D01*
X42244500Y25229455D01*
X42244499Y25980544D01*
X42233887Y26084426D01*
X42178115Y26252738D01*
X42085030Y26403652D01*
X42058862Y26429820D01*
X42025377Y26491143D01*
X42030361Y26560835D01*
X42072233Y26616768D01*
X42137697Y26641185D01*
X42146543Y26641501D01*
X42283537Y26641501D01*
X42283544Y26641501D01*
X42387426Y26652113D01*
X42555738Y26707885D01*
X42706652Y26800970D01*
X42832030Y26926348D01*
X42925115Y27077262D01*
X42980887Y27245574D01*
X42991500Y27349455D01*
X42991499Y27975544D01*
X42980887Y28079426D01*
X42925115Y28247738D01*
X42832030Y28398652D01*
X42743363Y28487319D01*
X42709878Y28548642D01*
X42714862Y28618334D01*
X42743363Y28662681D01*
X42782682Y28702000D01*
X42832030Y28751348D01*
X42925115Y28902262D01*
X42980887Y29070574D01*
X42991500Y29174455D01*
X42991499Y29800544D01*
X42980887Y29904426D01*
X42925115Y30072738D01*
X42832030Y30223652D01*
X42706652Y30349030D01*
X42555738Y30442115D01*
X42555735Y30442116D01*
X42387427Y30497887D01*
X42283546Y30508500D01*
X41282462Y30508500D01*
X41282446Y30508499D01*
X41178572Y30497887D01*
X41010264Y30442116D01*
X41010259Y30442114D01*
X40858984Y30348806D01*
X40791591Y30330366D01*
X40724928Y30351289D01*
X40703589Y30370998D01*
X40703137Y30370545D01*
X40572653Y30501029D01*
X40572652Y30501030D01*
X40421738Y30594115D01*
X40363370Y30613456D01*
X40253427Y30649887D01*
X40149546Y30660500D01*
X39098462Y30660500D01*
X39098446Y30660499D01*
X38994571Y30649887D01*
X38904872Y30620164D01*
X38835044Y30617763D01*
X38775002Y30653495D01*
X38743810Y30716015D01*
X38748162Y30776871D01*
X38777887Y30866574D01*
X38788500Y30970455D01*
X38788499Y32021544D01*
X38777887Y32125426D01*
X38722115Y32293738D01*
X38722111Y32293744D01*
X38722110Y32293747D01*
X38686547Y32351403D01*
X38668106Y32418795D01*
X38689028Y32485459D01*
X38742670Y32530228D01*
X38792085Y32540500D01*
X42316812Y32540500D01*
X42383851Y32520815D01*
G37*
%TD.AperFunction*%
%TA.AperFunction,Conductor*%
G36*
X24842039Y36171815D02*
G01*
X24887794Y36119011D01*
X24899000Y36067500D01*
X24899000Y31951731D01*
X24880539Y31886634D01*
X24802886Y31760741D01*
X24802884Y31760736D01*
X24747113Y31592428D01*
X24736500Y31488553D01*
X24736500Y30487463D01*
X24736501Y30487447D01*
X24747113Y30383573D01*
X24802884Y30215265D01*
X24802886Y30215260D01*
X24828027Y30174500D01*
X24895970Y30064348D01*
X25021348Y29938970D01*
X25172262Y29845885D01*
X25340574Y29790113D01*
X25444455Y29779500D01*
X26070544Y29779501D01*
X26174426Y29790113D01*
X26342738Y29845885D01*
X26493652Y29938970D01*
X26582319Y30027637D01*
X26643642Y30061122D01*
X26713334Y30056138D01*
X26757681Y30027637D01*
X26846348Y29938970D01*
X26997262Y29845885D01*
X27165574Y29790113D01*
X27269455Y29779500D01*
X27895544Y29779501D01*
X27999426Y29790113D01*
X28167738Y29845885D01*
X28259756Y29902643D01*
X28327147Y29921083D01*
X28393810Y29900161D01*
X28412533Y29884785D01*
X28438348Y29858970D01*
X28589262Y29765885D01*
X28734230Y29717849D01*
X28791674Y29678077D01*
X28818498Y29613561D01*
X28806183Y29544786D01*
X28758641Y29493585D01*
X28734230Y29482437D01*
X28564264Y29426116D01*
X28564255Y29426112D01*
X28482361Y29375599D01*
X28414969Y29357159D01*
X28352168Y29375599D01*
X28229740Y29451114D01*
X28229735Y29451116D01*
X28061427Y29506887D01*
X27957546Y29517500D01*
X26906462Y29517500D01*
X26906446Y29517499D01*
X26802572Y29506887D01*
X26634264Y29451116D01*
X26634259Y29451114D01*
X26483346Y29358029D01*
X26357971Y29232654D01*
X26264886Y29081741D01*
X26264884Y29081736D01*
X26209113Y28913428D01*
X26198500Y28809553D01*
X26198500Y28208463D01*
X26198501Y28208447D01*
X26209113Y28104573D01*
X26217445Y28079428D01*
X26264885Y27936262D01*
X26357970Y27785348D01*
X26483348Y27659970D01*
X26483351Y27659968D01*
X26488034Y27656265D01*
X26528410Y27599242D01*
X26531547Y27529443D01*
X26496450Y27469028D01*
X26488034Y27461735D01*
X26483345Y27458028D01*
X26357971Y27332654D01*
X26264886Y27181741D01*
X26264884Y27181736D01*
X26223207Y27055962D01*
X26183434Y26998517D01*
X26118918Y26971694D01*
X26050142Y26984009D01*
X26040404Y26989428D01*
X25995130Y27017354D01*
X25995119Y27017359D01*
X25828697Y27072506D01*
X25828690Y27072507D01*
X25725986Y27083000D01*
X25476000Y27083000D01*
X25476000Y24733001D01*
X25725972Y24733001D01*
X25725986Y24733002D01*
X25828697Y24743495D01*
X25995119Y24798642D01*
X25995130Y24798647D01*
X26082347Y24852443D01*
X26149739Y24870884D01*
X26216403Y24849962D01*
X26261172Y24796320D01*
X26265150Y24785909D01*
X26289884Y24711265D01*
X26289886Y24711260D01*
X26309908Y24678799D01*
X26351273Y24611736D01*
X26382971Y24560347D01*
X26471637Y24471681D01*
X26505122Y24410358D01*
X26500138Y24340666D01*
X26471637Y24296319D01*
X26382971Y24207654D01*
X26289886Y24056741D01*
X26289884Y24056736D01*
X26234113Y23888428D01*
X26223500Y23784553D01*
X26223500Y23158463D01*
X26223501Y23158447D01*
X26234113Y23054573D01*
X26262339Y22969391D01*
X26289885Y22886262D01*
X26382970Y22735348D01*
X26508348Y22609970D01*
X26648483Y22523534D01*
X26695206Y22471587D01*
X26706913Y22428804D01*
X26708762Y22407668D01*
X26710223Y22400593D01*
X26710141Y22400577D01*
X26711665Y22393702D01*
X26711746Y22393721D01*
X26713411Y22386698D01*
X26739087Y22316154D01*
X26762700Y22244896D01*
X26765752Y22238351D01*
X26765675Y22238316D01*
X26768745Y22231975D01*
X26768821Y22232013D01*
X26772057Y22225569D01*
X26772058Y22225568D01*
X26772059Y22225565D01*
X26795450Y22190000D01*
X26813297Y22162865D01*
X26852711Y22098964D01*
X26857192Y22093297D01*
X26857125Y22093245D01*
X26861574Y22087784D01*
X26861640Y22087839D01*
X26866278Y22082311D01*
X26866282Y22082306D01*
X26893566Y22056564D01*
X26920852Y22030821D01*
X26985348Y21966326D01*
X27069494Y21882180D01*
X27102978Y21820859D01*
X27097994Y21751167D01*
X27056123Y21695233D01*
X26990658Y21670816D01*
X26981813Y21670500D01*
X26851463Y21670500D01*
X26851446Y21670499D01*
X26747572Y21659887D01*
X26579264Y21604116D01*
X26579259Y21604114D01*
X26428346Y21511029D01*
X26302970Y21385653D01*
X26302967Y21385649D01*
X26209442Y21234022D01*
X26157494Y21187297D01*
X26088531Y21176076D01*
X26024450Y21203919D01*
X26016223Y21211438D01*
X25890345Y21337316D01*
X25741124Y21429357D01*
X25741119Y21429359D01*
X25574697Y21484506D01*
X25574690Y21484507D01*
X25471986Y21495000D01*
X25222000Y21495000D01*
X25222000Y19145001D01*
X25471972Y19145001D01*
X25471986Y19145002D01*
X25574697Y19155495D01*
X25741119Y19210642D01*
X25741124Y19210644D01*
X25890345Y19302685D01*
X25931818Y19344158D01*
X25993141Y19377644D01*
X26062832Y19372660D01*
X26118766Y19330789D01*
X26143184Y19265325D01*
X26143500Y19256478D01*
X26143500Y18661463D01*
X26143501Y18661447D01*
X26154113Y18557573D01*
X26209884Y18389265D01*
X26209886Y18389260D01*
X26234932Y18348655D01*
X26300429Y18242467D01*
X26302971Y18238347D01*
X26325898Y18215420D01*
X26359383Y18154097D01*
X26354399Y18084405D01*
X26325898Y18040058D01*
X25941507Y17655667D01*
X25927880Y17643889D01*
X25909213Y17629991D01*
X25876435Y17590929D01*
X25872787Y17586947D01*
X25867135Y17581295D01*
X25847246Y17556142D01*
X25798997Y17498642D01*
X25795030Y17492608D01*
X25794960Y17492655D01*
X25791177Y17486717D01*
X25791248Y17486673D01*
X25787456Y17480527D01*
X25770554Y17444280D01*
X25724381Y17391842D01*
X25697178Y17378981D01*
X25643262Y17361115D01*
X25643259Y17361114D01*
X25492349Y17268031D01*
X25405378Y17181060D01*
X25344054Y17147576D01*
X25325130Y17145820D01*
X25325175Y17145311D01*
X25290740Y17142298D01*
X25267168Y17140236D01*
X25261768Y17140000D01*
X25253782Y17140000D01*
X25237872Y17138141D01*
X25221961Y17136281D01*
X25144143Y17129473D01*
X25075643Y17143240D01*
X25025460Y17191855D01*
X25009527Y17259884D01*
X25015630Y17292006D01*
X25053505Y17406306D01*
X25053506Y17406310D01*
X25063999Y17509014D01*
X25064000Y17509027D01*
X25064000Y17784000D01*
X23938000Y17784000D01*
X23870961Y17803685D01*
X23825206Y17856489D01*
X23814000Y17908000D01*
X23814000Y18160000D01*
X23833685Y18227039D01*
X23886489Y18272794D01*
X23938000Y18284000D01*
X25063999Y18284000D01*
X25063999Y18558972D01*
X25063998Y18558987D01*
X25053505Y18661698D01*
X24998358Y18828120D01*
X24998356Y18828125D01*
X24906315Y18977346D01*
X24782344Y19101317D01*
X24782339Y19101321D01*
X24780896Y19102211D01*
X24780114Y19103080D01*
X24776677Y19105798D01*
X24777141Y19106386D01*
X24734175Y19154161D01*
X24722000Y19207745D01*
X24722000Y20070000D01*
X23772001Y20070000D01*
X23772001Y19845014D01*
X23782494Y19742303D01*
X23837641Y19575881D01*
X23837646Y19575870D01*
X23916458Y19448097D01*
X23934899Y19380705D01*
X23913977Y19314041D01*
X23860335Y19269271D01*
X23810922Y19259000D01*
X23764030Y19259000D01*
X23764012Y19258999D01*
X23661302Y19248506D01*
X23494880Y19193359D01*
X23494871Y19193355D01*
X23349153Y19103475D01*
X23347143Y19102926D01*
X23344931Y19100593D01*
X23217181Y18972843D01*
X23155858Y18939358D01*
X23086166Y18944342D01*
X23030233Y18986214D01*
X23005816Y19051678D01*
X23005500Y19060524D01*
X23005500Y19109477D01*
X23025185Y19176516D01*
X23064398Y19215013D01*
X23192156Y19293814D01*
X23194163Y19294364D01*
X23196338Y19296657D01*
X23321030Y19421348D01*
X23414115Y19572262D01*
X23469887Y19740574D01*
X23480500Y19844455D01*
X23480499Y20570000D01*
X23772000Y20570000D01*
X24722000Y20570000D01*
X24722000Y21495000D01*
X24472029Y21495000D01*
X24472012Y21494999D01*
X24369302Y21484506D01*
X24202880Y21429359D01*
X24202875Y21429357D01*
X24053654Y21337316D01*
X23929684Y21213346D01*
X23837643Y21064125D01*
X23837641Y21064120D01*
X23782494Y20897698D01*
X23782493Y20897691D01*
X23772000Y20794987D01*
X23772000Y20570000D01*
X23480499Y20570000D01*
X23480499Y20795544D01*
X23469887Y20899426D01*
X23469401Y20900893D01*
X23414117Y21067734D01*
X23414113Y21067741D01*
X23389414Y21107784D01*
X23370975Y21175174D01*
X23391897Y21241838D01*
X23429852Y21278414D01*
X23529652Y21339970D01*
X23655030Y21465348D01*
X23748115Y21616262D01*
X23803887Y21784574D01*
X23814500Y21888455D01*
X23814499Y22514544D01*
X23803887Y22618426D01*
X23748115Y22786738D01*
X23655030Y22937652D01*
X23566363Y23026320D01*
X23532878Y23087642D01*
X23537862Y23157334D01*
X23566363Y23201681D01*
X23600497Y23235815D01*
X23655030Y23290348D01*
X23748115Y23441262D01*
X23803887Y23609574D01*
X23814500Y23713455D01*
X23814499Y24339544D01*
X23803887Y24443426D01*
X23748115Y24611738D01*
X23655030Y24762652D01*
X23579363Y24838319D01*
X23545878Y24899642D01*
X23550862Y24969334D01*
X23572141Y25002422D01*
X23570549Y25003680D01*
X23575026Y25009343D01*
X23575027Y25009346D01*
X23575030Y25009348D01*
X23668115Y25160262D01*
X23723887Y25328574D01*
X23734500Y25432455D01*
X23734500Y25658000D01*
X24026001Y25658000D01*
X24026001Y25433014D01*
X24036494Y25330303D01*
X24091641Y25163881D01*
X24091643Y25163876D01*
X24183684Y25014655D01*
X24307654Y24890685D01*
X24456875Y24798644D01*
X24456880Y24798642D01*
X24623302Y24743495D01*
X24623309Y24743494D01*
X24726019Y24733001D01*
X24975999Y24733001D01*
X24976000Y24733002D01*
X24976000Y25658000D01*
X24026001Y25658000D01*
X23734500Y25658000D01*
X23734499Y26158000D01*
X24026000Y26158000D01*
X24976000Y26158000D01*
X24976000Y27083000D01*
X24726029Y27083000D01*
X24726012Y27082999D01*
X24623302Y27072506D01*
X24456880Y27017359D01*
X24456875Y27017357D01*
X24307654Y26925316D01*
X24183684Y26801346D01*
X24091643Y26652125D01*
X24091641Y26652120D01*
X24036494Y26485698D01*
X24036493Y26485691D01*
X24026000Y26382987D01*
X24026000Y26158000D01*
X23734499Y26158000D01*
X23734499Y26383544D01*
X23723887Y26487426D01*
X23668115Y26655738D01*
X23575030Y26806652D01*
X23449652Y26932030D01*
X23444545Y26937137D01*
X23446336Y26938929D01*
X23412846Y26986243D01*
X23409718Y27056042D01*
X23424599Y27091561D01*
X23494115Y27204262D01*
X23549887Y27372574D01*
X23560500Y27476455D01*
X23560499Y28102544D01*
X23549887Y28206426D01*
X23494115Y28374738D01*
X23401030Y28525652D01*
X23312362Y28614320D01*
X23278878Y28675642D01*
X23283862Y28745334D01*
X23312363Y28789681D01*
X23351682Y28829000D01*
X23401030Y28878348D01*
X23494115Y29029262D01*
X23549887Y29197574D01*
X23560500Y29301455D01*
X23560499Y29927544D01*
X23549887Y30031426D01*
X23494115Y30199738D01*
X23401030Y30350652D01*
X23275652Y30476030D01*
X23162935Y30545555D01*
X23124740Y30569114D01*
X23124735Y30569116D01*
X22956426Y30624888D01*
X22947442Y30625805D01*
X22882750Y30652202D01*
X22842599Y30709383D01*
X22839736Y30779194D01*
X22854505Y30814258D01*
X22884115Y30862262D01*
X22939887Y31030574D01*
X22950500Y31134455D01*
X22950499Y31735544D01*
X22939887Y31839426D01*
X22884115Y32007738D01*
X22791030Y32158652D01*
X22665652Y32284030D01*
X22665651Y32284031D01*
X22664963Y32284455D01*
X22664590Y32284870D01*
X22659985Y32288511D01*
X22660607Y32289298D01*
X22618238Y32336402D01*
X22607015Y32405365D01*
X22634858Y32469447D01*
X22655423Y32487258D01*
X22654677Y32488202D01*
X22660344Y32492684D01*
X22784315Y32616655D01*
X22876356Y32765876D01*
X22876358Y32765881D01*
X22931505Y32932303D01*
X22931506Y32932310D01*
X22941999Y33035014D01*
X22942000Y33035027D01*
X22942000Y33085000D01*
X21591000Y33085000D01*
X21523961Y33104685D01*
X21478206Y33157489D01*
X21467000Y33209000D01*
X21467000Y34335000D01*
X21967000Y34335000D01*
X21967000Y33585000D01*
X22941999Y33585000D01*
X22941999Y33634972D01*
X22941998Y33634987D01*
X22931505Y33737698D01*
X22876358Y33904120D01*
X22876356Y33904125D01*
X22784315Y34053346D01*
X22660345Y34177316D01*
X22511124Y34269357D01*
X22511119Y34269359D01*
X22344697Y34324506D01*
X22344690Y34324507D01*
X22241986Y34335000D01*
X21967000Y34335000D01*
X21467000Y34335000D01*
X21192029Y34335000D01*
X21192012Y34334999D01*
X21089302Y34324506D01*
X20922880Y34269359D01*
X20922871Y34269355D01*
X20857595Y34229092D01*
X20790202Y34210652D01*
X20723539Y34231575D01*
X20678770Y34285217D01*
X20668499Y34334627D01*
X20668500Y36067500D01*
X20688185Y36134540D01*
X20740989Y36180294D01*
X20792500Y36191500D01*
X24775000Y36191500D01*
X24842039Y36171815D01*
G37*
%TD.AperFunction*%
%TA.AperFunction,Conductor*%
G36*
X37085039Y25884315D02*
G01*
X37130794Y25831511D01*
X37142000Y25780000D01*
X37142000Y24854000D01*
X37782644Y24854000D01*
X37819489Y24856900D01*
X37819495Y24856901D01*
X37977193Y24902717D01*
X37977196Y24902718D01*
X38118552Y24986315D01*
X38118561Y24986322D01*
X38234678Y25102439D01*
X38234682Y25102445D01*
X38303634Y25219037D01*
X38354703Y25266721D01*
X38423445Y25279225D01*
X38488034Y25252580D01*
X38527965Y25195245D01*
X38533725Y25168521D01*
X38538113Y25125573D01*
X38568268Y25034569D01*
X38593885Y24957262D01*
X38686970Y24806348D01*
X38812348Y24680970D01*
X38963262Y24587885D01*
X39131574Y24532113D01*
X39235455Y24521500D01*
X40380811Y24521501D01*
X40447850Y24501816D01*
X40468492Y24485182D01*
X41011993Y23941681D01*
X41045478Y23880358D01*
X41040494Y23810666D01*
X40998622Y23754733D01*
X40933158Y23730316D01*
X40924312Y23730000D01*
X40636000Y23730000D01*
X40636000Y21580001D01*
X41535972Y21580001D01*
X41535986Y21580002D01*
X41638697Y21590495D01*
X41805119Y21645642D01*
X41805124Y21645644D01*
X41954345Y21737685D01*
X42010818Y21794157D01*
X42072141Y21827642D01*
X42141833Y21822658D01*
X42197766Y21780786D01*
X42222183Y21715322D01*
X42222499Y21706476D01*
X42222499Y20962000D01*
X42202814Y20894961D01*
X42150010Y20849206D01*
X42098499Y20838000D01*
X41906000Y20838000D01*
X41906000Y18438001D01*
X42130972Y18438001D01*
X42130986Y18438002D01*
X42233695Y18448494D01*
X42348177Y18486430D01*
X42418006Y18488832D01*
X42474863Y18456405D01*
X42632454Y18298814D01*
X42665939Y18237491D01*
X42660955Y18167799D01*
X42619083Y18111866D01*
X42609870Y18105594D01*
X42551247Y18069435D01*
X42483854Y18050995D01*
X42421055Y18069434D01*
X42416568Y18072202D01*
X42403738Y18080115D01*
X42403736Y18080116D01*
X42403734Y18080117D01*
X42235428Y18135887D01*
X42131546Y18146500D01*
X41180462Y18146500D01*
X41180446Y18146499D01*
X41076572Y18135887D01*
X40908264Y18080116D01*
X40908259Y18080114D01*
X40757346Y17987029D01*
X40631971Y17861654D01*
X40631969Y17861652D01*
X40631970Y17861652D01*
X40588229Y17790736D01*
X40551015Y17730403D01*
X40499067Y17683678D01*
X40445476Y17671500D01*
X40216216Y17671500D01*
X40149177Y17691185D01*
X40110679Y17730401D01*
X40063030Y17807652D01*
X39937652Y17933030D01*
X39937651Y17933031D01*
X39936963Y17933455D01*
X39936590Y17933870D01*
X39931985Y17937511D01*
X39932607Y17938298D01*
X39890238Y17985402D01*
X39879015Y18054365D01*
X39906858Y18118447D01*
X39927423Y18136258D01*
X39926677Y18137202D01*
X39932344Y18141684D01*
X40056315Y18265655D01*
X40148356Y18414876D01*
X40148358Y18414881D01*
X40203505Y18581303D01*
X40203506Y18581310D01*
X40213999Y18684014D01*
X40214000Y18684027D01*
X40214000Y18734000D01*
X37764001Y18734000D01*
X37764001Y18684014D01*
X37774494Y18581303D01*
X37829641Y18414881D01*
X37829645Y18414872D01*
X37853299Y18376523D01*
X37871739Y18309130D01*
X37850816Y18242467D01*
X37797174Y18197698D01*
X37727843Y18189037D01*
X37664836Y18219234D01*
X37660079Y18223746D01*
X37585011Y18298814D01*
X37227819Y18656007D01*
X37194334Y18717330D01*
X37191500Y18743688D01*
X37191500Y19117505D01*
X37188562Y19154830D01*
X37188561Y19154836D01*
X37165562Y19234000D01*
X37764000Y19234000D01*
X38739000Y19234000D01*
X38739000Y19984000D01*
X39239000Y19984000D01*
X39239000Y19234000D01*
X40213999Y19234000D01*
X40213999Y19283972D01*
X40213998Y19283987D01*
X40203505Y19386698D01*
X40203074Y19388000D01*
X40481001Y19388000D01*
X40481001Y19138014D01*
X40491494Y19035303D01*
X40546641Y18868881D01*
X40546643Y18868876D01*
X40638684Y18719655D01*
X40762654Y18595685D01*
X40911875Y18503644D01*
X40911880Y18503642D01*
X41078302Y18448495D01*
X41078309Y18448494D01*
X41181019Y18438001D01*
X41405999Y18438001D01*
X41406000Y18438002D01*
X41406000Y19388000D01*
X40481001Y19388000D01*
X40203074Y19388000D01*
X40148358Y19553120D01*
X40148356Y19553125D01*
X40056315Y19702346D01*
X39932345Y19826316D01*
X39832340Y19888000D01*
X40481000Y19888000D01*
X41406000Y19888000D01*
X41406000Y20838000D01*
X41181029Y20838000D01*
X41181012Y20837999D01*
X41078302Y20827506D01*
X40911880Y20772359D01*
X40911875Y20772357D01*
X40762654Y20680316D01*
X40638684Y20556346D01*
X40546643Y20407125D01*
X40546641Y20407120D01*
X40491494Y20240698D01*
X40491493Y20240691D01*
X40481000Y20137987D01*
X40481000Y19888000D01*
X39832340Y19888000D01*
X39783124Y19918357D01*
X39783119Y19918359D01*
X39616697Y19973506D01*
X39616690Y19973507D01*
X39513986Y19984000D01*
X39239000Y19984000D01*
X38739000Y19984000D01*
X38464029Y19984000D01*
X38464012Y19983999D01*
X38361302Y19973506D01*
X38194880Y19918359D01*
X38194875Y19918357D01*
X38045654Y19826316D01*
X37921684Y19702346D01*
X37829643Y19553125D01*
X37829641Y19553120D01*
X37774494Y19386698D01*
X37774493Y19386691D01*
X37764000Y19283987D01*
X37764000Y19234000D01*
X37165562Y19234000D01*
X37142146Y19314597D01*
X37142145Y19314601D01*
X37087598Y19406835D01*
X37057455Y19457804D01*
X37057448Y19457813D01*
X36939812Y19575449D01*
X36939803Y19575456D01*
X36796601Y19660145D01*
X36796596Y19660147D01*
X36636835Y19706562D01*
X36636829Y19706563D01*
X36599505Y19709500D01*
X36599502Y19709500D01*
X36290500Y19709500D01*
X36223461Y19729185D01*
X36177706Y19781989D01*
X36166500Y19833500D01*
X36166500Y20582116D01*
X36167809Y20600085D01*
X36171181Y20623110D01*
X36166736Y20673914D01*
X36166500Y20679320D01*
X36166500Y20687300D01*
X36166499Y20687311D01*
X36162780Y20719125D01*
X36156237Y20793919D01*
X36156237Y20793922D01*
X36156235Y20793927D01*
X36154777Y20800992D01*
X36154860Y20801010D01*
X36153335Y20807887D01*
X36153252Y20807867D01*
X36151587Y20814888D01*
X36151587Y20814894D01*
X36146997Y20827506D01*
X36125918Y20885421D01*
X36115787Y20915989D01*
X36102302Y20956686D01*
X36102295Y20956696D01*
X36099248Y20963234D01*
X36099326Y20963271D01*
X36096259Y20969606D01*
X36096182Y20969567D01*
X36092943Y20976014D01*
X36092941Y20976021D01*
X36051699Y21038726D01*
X36012286Y21102625D01*
X36012285Y21102626D01*
X36012284Y21102628D01*
X36007808Y21108288D01*
X36007875Y21108341D01*
X36003428Y21113800D01*
X36003363Y21113745D01*
X35998723Y21119274D01*
X35998720Y21119277D01*
X35998718Y21119280D01*
X35944131Y21170781D01*
X35567819Y21547093D01*
X35534334Y21608416D01*
X35531500Y21634774D01*
X35531500Y22405000D01*
X38536001Y22405000D01*
X38536001Y22280014D01*
X38546494Y22177303D01*
X38601641Y22010881D01*
X38601643Y22010876D01*
X38693684Y21861655D01*
X38817654Y21737685D01*
X38966875Y21645644D01*
X38966880Y21645642D01*
X39133302Y21590495D01*
X39133309Y21590494D01*
X39236019Y21580001D01*
X40135999Y21580001D01*
X40136000Y21580002D01*
X40136000Y22405000D01*
X38536001Y22405000D01*
X35531500Y22405000D01*
X35531500Y22905000D01*
X38536000Y22905000D01*
X40136000Y22905000D01*
X40136000Y23730000D01*
X39236028Y23730000D01*
X39236012Y23729999D01*
X39133302Y23719506D01*
X38966880Y23664359D01*
X38966875Y23664357D01*
X38817654Y23572316D01*
X38693684Y23448346D01*
X38601643Y23299125D01*
X38601641Y23299120D01*
X38546494Y23132698D01*
X38546493Y23132691D01*
X38536000Y23029987D01*
X38536000Y22905000D01*
X35531500Y22905000D01*
X35531500Y24848137D01*
X35551185Y24915176D01*
X35603989Y24960931D01*
X35673147Y24970875D01*
X35718622Y24954869D01*
X35806806Y24902716D01*
X35964504Y24856901D01*
X35964510Y24856900D01*
X36001356Y24854000D01*
X36642000Y24854000D01*
X36642000Y25780000D01*
X36661685Y25847039D01*
X36714489Y25892794D01*
X36766000Y25904000D01*
X37018000Y25904000D01*
X37085039Y25884315D01*
G37*
%TD.AperFunction*%
%TA.AperFunction,Conductor*%
G36*
X33983834Y26037821D02*
G01*
X34039767Y25995949D01*
X34064184Y25930485D01*
X34064500Y25921639D01*
X34064500Y21342056D01*
X34063191Y21324087D01*
X34059818Y21301062D01*
X34064264Y21250260D01*
X34064500Y21244853D01*
X34064500Y21236868D01*
X34066629Y21218654D01*
X34068219Y21205049D01*
X34074762Y21130254D01*
X34076223Y21123179D01*
X34076141Y21123163D01*
X34077665Y21116288D01*
X34077746Y21116307D01*
X34079411Y21109284D01*
X34079412Y21109279D01*
X34079413Y21109278D01*
X34094533Y21067736D01*
X34105087Y21038740D01*
X34128700Y20967482D01*
X34131752Y20960937D01*
X34131675Y20960902D01*
X34134745Y20954561D01*
X34134821Y20954599D01*
X34138057Y20948155D01*
X34138058Y20948154D01*
X34138059Y20948151D01*
X34170104Y20899429D01*
X34179297Y20885451D01*
X34218711Y20821550D01*
X34223192Y20815883D01*
X34223125Y20815831D01*
X34227574Y20810370D01*
X34227640Y20810425D01*
X34232278Y20804897D01*
X34232282Y20804892D01*
X34242197Y20795538D01*
X34286854Y20753405D01*
X34663181Y20377080D01*
X34696666Y20315757D01*
X34699500Y20289399D01*
X34699500Y19833500D01*
X34679815Y19766461D01*
X34627011Y19720706D01*
X34575500Y19709500D01*
X34266495Y19709500D01*
X34229170Y19706563D01*
X34229164Y19706562D01*
X34069403Y19660147D01*
X34069398Y19660145D01*
X33926196Y19575456D01*
X33926187Y19575449D01*
X33808551Y19457813D01*
X33808544Y19457804D01*
X33723855Y19314602D01*
X33723853Y19314597D01*
X33677438Y19154836D01*
X33677437Y19154830D01*
X33674500Y19117505D01*
X33674500Y19033362D01*
X33654815Y18966323D01*
X33602011Y18920568D01*
X33532853Y18910624D01*
X33469297Y18939649D01*
X33462819Y18945681D01*
X33458000Y18950500D01*
X32132000Y18950500D01*
X32064961Y18970185D01*
X32019206Y19022989D01*
X32008000Y19074500D01*
X32008000Y20213000D01*
X32508000Y20213000D01*
X32508000Y19450500D01*
X33457999Y19450500D01*
X33457999Y19512972D01*
X33457998Y19512987D01*
X33447505Y19615698D01*
X33392358Y19782120D01*
X33392356Y19782125D01*
X33300315Y19931346D01*
X33176345Y20055316D01*
X33027124Y20147357D01*
X33027119Y20147359D01*
X32860697Y20202506D01*
X32860690Y20202507D01*
X32757986Y20213000D01*
X32508000Y20213000D01*
X32008000Y20213000D01*
X31914685Y20213000D01*
X31847646Y20232685D01*
X31801891Y20285489D01*
X31791947Y20354647D01*
X31820972Y20418203D01*
X31826976Y20424652D01*
X32501995Y21099671D01*
X32515621Y21111447D01*
X32534285Y21125340D01*
X32567080Y21164426D01*
X32570695Y21168371D01*
X32576369Y21174043D01*
X32596253Y21199191D01*
X32644502Y21256691D01*
X32644505Y21256698D01*
X32648473Y21262729D01*
X32648547Y21262681D01*
X32652324Y21268610D01*
X32652249Y21268656D01*
X32656043Y21274807D01*
X32656042Y21274807D01*
X32656044Y21274808D01*
X32687773Y21342854D01*
X32721456Y21409921D01*
X32721458Y21409934D01*
X32723925Y21416707D01*
X32724008Y21416677D01*
X32726319Y21423326D01*
X32726237Y21423353D01*
X32728509Y21430212D01*
X32743685Y21503712D01*
X32753967Y21547093D01*
X32761000Y21576766D01*
X32761000Y21576768D01*
X32761839Y21583939D01*
X32761922Y21583930D01*
X32762638Y21590934D01*
X32762553Y21590941D01*
X32763182Y21598132D01*
X32762654Y21616265D01*
X32761000Y21673128D01*
X32761000Y22645957D01*
X32780685Y22712995D01*
X32797319Y22733637D01*
X32799030Y22735348D01*
X32889030Y22825348D01*
X32982115Y22976262D01*
X33037887Y23144574D01*
X33048500Y23248455D01*
X33048499Y24249544D01*
X33037887Y24353426D01*
X32982115Y24521738D01*
X32889030Y24672652D01*
X32889028Y24672654D01*
X32889025Y24672659D01*
X32886910Y24675334D01*
X32886030Y24677515D01*
X32885238Y24678799D01*
X32885457Y24678935D01*
X32860771Y24740130D01*
X32873813Y24808772D01*
X32921896Y24859466D01*
X32949577Y24871316D01*
X33030601Y24894855D01*
X33173807Y24979547D01*
X33291453Y25097193D01*
X33376145Y25240399D01*
X33422562Y25400169D01*
X33424485Y25424605D01*
X33425500Y25437495D01*
X33425500Y25530639D01*
X33445185Y25597678D01*
X33461819Y25618320D01*
X33852819Y26009320D01*
X33914142Y26042805D01*
X33983834Y26037821D01*
G37*
%TD.AperFunction*%
%TA.AperFunction,Conductor*%
G36*
X29481574Y35848315D02*
G01*
X29502216Y35831681D01*
X31116500Y34217398D01*
X31119904Y34213705D01*
X31124806Y34207934D01*
X31153203Y34144095D01*
X31142578Y34075038D01*
X31096305Y34022688D01*
X31083075Y34015480D01*
X30933654Y33923316D01*
X30809683Y33799345D01*
X30809680Y33799341D01*
X30741537Y33688864D01*
X30689589Y33642139D01*
X30620627Y33630918D01*
X30556545Y33658761D01*
X30517689Y33716830D01*
X30511999Y33753961D01*
X30511999Y34107972D01*
X30511998Y34107988D01*
X30501505Y34210698D01*
X30446358Y34377120D01*
X30446356Y34377125D01*
X30354315Y34526346D01*
X30230345Y34650316D01*
X30081124Y34742357D01*
X30081119Y34742359D01*
X29914697Y34797506D01*
X29914690Y34797507D01*
X29811986Y34808000D01*
X29587000Y34808000D01*
X29587000Y32408001D01*
X29811972Y32408001D01*
X29811986Y32408002D01*
X29914697Y32418495D01*
X30081119Y32473642D01*
X30081124Y32473644D01*
X30230345Y32565685D01*
X30354315Y32689655D01*
X30425938Y32805773D01*
X30477886Y32852497D01*
X30546849Y32863720D01*
X30610931Y32835876D01*
X30649787Y32777808D01*
X30654835Y32753278D01*
X30662494Y32678303D01*
X30717641Y32511881D01*
X30717643Y32511876D01*
X30809684Y32362655D01*
X30933655Y32238684D01*
X30939323Y32234202D01*
X30937592Y32232014D01*
X30975749Y32189610D01*
X30986987Y32120650D01*
X30959158Y32056562D01*
X30933894Y32034664D01*
X30934015Y32034511D01*
X30930627Y32031833D01*
X30929043Y32030459D01*
X30928350Y32030032D01*
X30928347Y32030030D01*
X30802971Y31904654D01*
X30802969Y31904652D01*
X30802970Y31904652D01*
X30714202Y31760736D01*
X30709884Y31753736D01*
X30700859Y31726498D01*
X30661087Y31669052D01*
X30596572Y31642228D01*
X30583152Y31641500D01*
X30547524Y31641500D01*
X30480485Y31661185D01*
X30441985Y31700403D01*
X30361030Y31831652D01*
X30235652Y31957030D01*
X30136216Y32018363D01*
X30084740Y32050114D01*
X30084735Y32050116D01*
X29916427Y32105887D01*
X29812546Y32116500D01*
X28861462Y32116500D01*
X28861446Y32116499D01*
X28757572Y32105887D01*
X28589264Y32050116D01*
X28589255Y32050112D01*
X28497243Y31993358D01*
X28429851Y31974918D01*
X28363187Y31995841D01*
X28344466Y32011216D01*
X28318653Y32037029D01*
X28318652Y32037030D01*
X28206763Y32106044D01*
X28167740Y32130114D01*
X28167735Y32130116D01*
X27999427Y32185887D01*
X27895546Y32196500D01*
X27269462Y32196500D01*
X27269446Y32196499D01*
X27165572Y32185887D01*
X26997264Y32130116D01*
X26997259Y32130114D01*
X26846346Y32037029D01*
X26827681Y32018363D01*
X26766358Y31984878D01*
X26696666Y31989862D01*
X26640733Y32031734D01*
X26616316Y32097198D01*
X26616000Y32106044D01*
X26616000Y33358000D01*
X28162001Y33358000D01*
X28162001Y33108014D01*
X28172494Y33005303D01*
X28227641Y32838881D01*
X28227643Y32838876D01*
X28319684Y32689655D01*
X28443654Y32565685D01*
X28592875Y32473644D01*
X28592880Y32473642D01*
X28759302Y32418495D01*
X28759309Y32418494D01*
X28862019Y32408001D01*
X29086999Y32408001D01*
X29087000Y32408002D01*
X29087000Y33358000D01*
X28162001Y33358000D01*
X26616000Y33358000D01*
X26616000Y33858000D01*
X28162000Y33858000D01*
X29087000Y33858000D01*
X29087000Y34808000D01*
X28862029Y34808000D01*
X28862012Y34807999D01*
X28759302Y34797506D01*
X28592880Y34742359D01*
X28592875Y34742357D01*
X28443654Y34650316D01*
X28319684Y34526346D01*
X28227643Y34377125D01*
X28227641Y34377120D01*
X28172494Y34210698D01*
X28172493Y34210691D01*
X28162000Y34107987D01*
X28162000Y33858000D01*
X26616000Y33858000D01*
X26616000Y35744000D01*
X26635685Y35811039D01*
X26688489Y35856794D01*
X26740000Y35868000D01*
X29414535Y35868000D01*
X29481574Y35848315D01*
G37*
%TD.AperFunction*%
%TA.AperFunction,Conductor*%
G36*
X34447850Y33919815D02*
G01*
X34493605Y33867011D01*
X34503549Y33797853D01*
X34474524Y33734297D01*
X34468492Y33727819D01*
X33299104Y32558432D01*
X33237781Y32524947D01*
X33168089Y32529931D01*
X33112156Y32571803D01*
X33087739Y32637267D01*
X33090173Y32672084D01*
X33091506Y32678312D01*
X33101999Y32781014D01*
X33102000Y32781027D01*
X33102000Y32831000D01*
X31751000Y32831000D01*
X31683961Y32850685D01*
X31638206Y32903489D01*
X31627000Y32955000D01*
X31627000Y33207000D01*
X31646685Y33274039D01*
X31699489Y33319794D01*
X31751000Y33331000D01*
X33101999Y33331000D01*
X33101999Y33380972D01*
X33101998Y33380987D01*
X33091505Y33483698D01*
X33036358Y33650120D01*
X33036356Y33650125D01*
X32974504Y33750403D01*
X32956064Y33817796D01*
X32976987Y33884459D01*
X33030629Y33929229D01*
X33080043Y33939500D01*
X34380811Y33939500D01*
X34447850Y33919815D01*
G37*
%TD.AperFunction*%
%TD*%
M02*
