M48
; DRILL file {KiCad 7.0.7-7.0.7~ubuntu23.04.1} date Tue Sep 26 19:51:23 2023
; FORMAT={3:3/ absolute / metric / suppress leading zeros}
; #@! TF.CreationDate,2023-09-26T19:51:23+00:00
; #@! TF.GenerationSoftware,Kicad,Pcbnew,7.0.7-7.0.7~ubuntu23.04.1
; #@! TF.FileFunction,Plated,1,2,PTH
FMAT,2
METRIC,TZ
; #@! TA.AperFunction,Plated,PTH,ViaDrill
T1C0.400
; #@! TA.AperFunction,Plated,PTH,ComponentDrill
T2C0.762
; #@! TA.AperFunction,Plated,PTH,ComponentDrill
T3C0.889
; #@! TA.AperFunction,Plated,PTH,ComponentDrill
T4C1.500
; #@! TA.AperFunction,Plated,PTH,ComponentDrill
T5C1.700
; #@! TA.AperFunction,Plated,PTH,ComponentDrill
T6C3.000
%
G90
G05
T1
X11452Y36954
X17780Y39624
X18034Y35052
X23876Y33782
X25400Y22860
X27432Y33782
X31242Y43822
X32512Y38862
X32512Y36830
X33020Y43822
X33528Y22860
X34798Y38354
X35560Y8382
X36830Y36068
X36830Y22860
X46228Y24892
X55118Y36830
X55118Y24384
T2
X33060Y14400
X38060Y14400
T3
X7874Y34417
X7874Y31877
X7874Y29337
X7874Y26797
X7874Y24257
X10414Y34417
X10414Y31877
X10414Y29337
X10414Y26797
X10414Y24257
X57150Y18796
X59690Y18796
T4
X59690Y31242
T5
X57150Y33782
X57150Y28702
X62230Y33782
X62230Y28702
T6
X10160Y40640
X10160Y10160
X60960Y40640
X60960Y10160
T0
M30
