%TF.GenerationSoftware,KiCad,Pcbnew,7.0.7-7.0.7~ubuntu23.04.1*%
%TF.CreationDate,2023-09-26T19:51:23+00:00*%
%TF.ProjectId,PIND02,50494e44-3032-42e6-9b69-6361645f7063,rev?*%
%TF.SameCoordinates,Original*%
%TF.FileFunction,Paste,Bot*%
%TF.FilePolarity,Positive*%
%FSLAX46Y46*%
G04 Gerber Fmt 4.6, Leading zero omitted, Abs format (unit mm)*
G04 Created by KiCad (PCBNEW 7.0.7-7.0.7~ubuntu23.04.1) date 2023-09-26 19:51:23*
%MOMM*%
%LPD*%
G01*
G04 APERTURE LIST*
G04 Aperture macros list*
%AMRoundRect*
0 Rectangle with rounded corners*
0 $1 Rounding radius*
0 $2 $3 $4 $5 $6 $7 $8 $9 X,Y pos of 4 corners*
0 Add a 4 corners polygon primitive as box body*
4,1,4,$2,$3,$4,$5,$6,$7,$8,$9,$2,$3,0*
0 Add four circle primitives for the rounded corners*
1,1,$1+$1,$2,$3*
1,1,$1+$1,$4,$5*
1,1,$1+$1,$6,$7*
1,1,$1+$1,$8,$9*
0 Add four rect primitives between the rounded corners*
20,1,$1+$1,$2,$3,$4,$5,0*
20,1,$1+$1,$4,$5,$6,$7,0*
20,1,$1+$1,$6,$7,$8,$9,0*
20,1,$1+$1,$8,$9,$2,$3,0*%
%AMRotRect*
0 Rectangle, with rotation*
0 The origin of the aperture is its center*
0 $1 length*
0 $2 width*
0 $3 Rotation angle, in degrees counterclockwise*
0 Add horizontal line*
21,1,$1,$2,0,0,$3*%
%AMFreePoly0*
4,1,6,0.450000,-0.800000,-0.180000,-0.800000,-0.450000,-0.530000,-0.450000,0.800000,0.450000,0.800000,0.450000,-0.800000,0.450000,-0.800000,$1*%
G04 Aperture macros list end*
%ADD10RoundRect,0.250000X0.475000X-0.250000X0.475000X0.250000X-0.475000X0.250000X-0.475000X-0.250000X0*%
%ADD11RoundRect,0.218750X0.381250X-0.218750X0.381250X0.218750X-0.381250X0.218750X-0.381250X-0.218750X0*%
%ADD12RoundRect,0.250000X0.450000X-0.325000X0.450000X0.325000X-0.450000X0.325000X-0.450000X-0.325000X0*%
%ADD13RoundRect,0.250000X0.450000X-0.262500X0.450000X0.262500X-0.450000X0.262500X-0.450000X-0.262500X0*%
%ADD14RoundRect,0.250000X-0.450000X0.262500X-0.450000X-0.262500X0.450000X-0.262500X0.450000X0.262500X0*%
%ADD15RoundRect,0.250000X0.250000X0.475000X-0.250000X0.475000X-0.250000X-0.475000X0.250000X-0.475000X0*%
%ADD16RoundRect,0.250000X-0.475000X0.250000X-0.475000X-0.250000X0.475000X-0.250000X0.475000X0.250000X0*%
%ADD17RoundRect,0.250000X-0.250000X-0.475000X0.250000X-0.475000X0.250000X0.475000X-0.250000X0.475000X0*%
%ADD18RotRect,2.500000X1.800000X225.000000*%
%ADD19RoundRect,0.250000X0.262500X0.450000X-0.262500X0.450000X-0.262500X-0.450000X0.262500X-0.450000X0*%
%ADD20RoundRect,0.250000X-0.325000X-1.100000X0.325000X-1.100000X0.325000X1.100000X-0.325000X1.100000X0*%
%ADD21R,1.300000X1.500000*%
%ADD22R,0.700000X3.000000*%
%ADD23RoundRect,0.250000X-0.450000X-0.425000X0.450000X-0.425000X0.450000X0.425000X-0.450000X0.425000X0*%
%ADD24RoundRect,0.150000X-0.150000X0.587500X-0.150000X-0.587500X0.150000X-0.587500X0.150000X0.587500X0*%
%ADD25R,1.000000X1.000000*%
%ADD26R,1.000000X2.300000*%
%ADD27R,1.000000X3.800000*%
%ADD28R,2.300000X1.000000*%
%ADD29R,3.800000X1.000000*%
%ADD30RoundRect,0.250000X-1.100000X0.325000X-1.100000X-0.325000X1.100000X-0.325000X1.100000X0.325000X0*%
%ADD31FreePoly0,0.000000*%
%ADD32R,0.550000X0.250000*%
%ADD33RoundRect,0.150000X-0.587500X-0.150000X0.587500X-0.150000X0.587500X0.150000X-0.587500X0.150000X0*%
%ADD34RoundRect,0.250000X0.425000X-0.450000X0.425000X0.450000X-0.425000X0.450000X-0.425000X-0.450000X0*%
%ADD35RoundRect,0.150000X0.150000X-0.512500X0.150000X0.512500X-0.150000X0.512500X-0.150000X-0.512500X0*%
%ADD36RoundRect,0.250000X-0.262500X-0.450000X0.262500X-0.450000X0.262500X0.450000X-0.262500X0.450000X0*%
%ADD37RoundRect,0.150000X0.825000X0.150000X-0.825000X0.150000X-0.825000X-0.150000X0.825000X-0.150000X0*%
%ADD38RoundRect,0.237500X0.237500X-0.287500X0.237500X0.287500X-0.237500X0.287500X-0.237500X-0.287500X0*%
G04 APERTURE END LIST*
D10*
%TO.C,C22*%
X14478000Y16673000D03*
X14478000Y18573000D03*
%TD*%
D11*
%TO.C,L3*%
X59690001Y25607500D03*
X59690001Y27732500D03*
%TD*%
D10*
%TO.C,C3*%
X38989000Y17084000D03*
X38989000Y18984000D03*
%TD*%
D12*
%TO.C,L2*%
X16764000Y16501000D03*
X16764000Y18551000D03*
%TD*%
D10*
%TO.C,C20*%
X21717000Y31435000D03*
X21717000Y33335000D03*
%TD*%
D13*
%TO.C,R8*%
X26416000Y14581500D03*
X26416000Y16406500D03*
%TD*%
D14*
%TO.C,R12*%
X59690000Y23518500D03*
X59690000Y21693500D03*
%TD*%
D15*
%TO.C,C1*%
X57211000Y16002000D03*
X55311000Y16002000D03*
%TD*%
D16*
%TO.C,C8*%
X39624000Y29652000D03*
X39624000Y27752000D03*
%TD*%
D17*
%TO.C,C21*%
X16068000Y14732000D03*
X17968000Y14732000D03*
%TD*%
%TO.C,C11*%
X22164000Y18034000D03*
X24064000Y18034000D03*
%TD*%
D18*
%TO.C,D1*%
X11320214Y20718214D03*
X8491786Y17889786D03*
%TD*%
D14*
%TO.C,R10*%
X29337000Y28471500D03*
X29337000Y26646500D03*
%TD*%
D19*
%TO.C,R9*%
X32027500Y23749000D03*
X30202500Y23749000D03*
%TD*%
D13*
%TO.C,R6*%
X22606000Y22201500D03*
X22606000Y24026500D03*
%TD*%
D20*
%TO.C,C12*%
X27227000Y19812000D03*
X30177000Y19812000D03*
%TD*%
D21*
%TO.C,C19*%
X15005000Y31339000D03*
D22*
X16355000Y31339000D03*
D21*
X17705000Y31339000D03*
%TD*%
D23*
%TO.C,C10*%
X22272000Y20320000D03*
X24972000Y20320000D03*
%TD*%
D24*
%TO.C,Q1*%
X34483000Y18463500D03*
X36383000Y18463500D03*
X35433000Y16588500D03*
%TD*%
D23*
%TO.C,C23*%
X14243000Y28037000D03*
X16943000Y28037000D03*
%TD*%
D17*
%TO.C,C13*%
X35880000Y31496000D03*
X37780000Y31496000D03*
%TD*%
%TO.C,C17*%
X37912000Y38100000D03*
X39812000Y38100000D03*
%TD*%
D25*
%TO.C,M5*%
X51460000Y9500000D03*
D26*
X51460000Y11150000D03*
D27*
X51460000Y16400000D03*
X51460000Y22400000D03*
X51460000Y28400000D03*
X51460000Y34400000D03*
D26*
X51460000Y39650000D03*
D25*
X51460000Y41300000D03*
D28*
X49810000Y9500000D03*
X49810000Y41300000D03*
D29*
X44560000Y9500000D03*
X44560000Y41300000D03*
X38560000Y9500000D03*
X38560000Y41300000D03*
X32560000Y9500000D03*
X32560000Y41300000D03*
X26560000Y9500000D03*
X26560000Y41300000D03*
D28*
X21310000Y9500000D03*
X21310000Y41300000D03*
D25*
X19660000Y9500000D03*
D26*
X19660000Y11150000D03*
D27*
X19660000Y16400000D03*
X19660000Y22400000D03*
X19660000Y28400000D03*
X19660000Y34400000D03*
D26*
X19660000Y39650000D03*
D25*
X19660000Y41300000D03*
%TD*%
D30*
%TO.C,C15*%
X40386000Y25605000D03*
X40386000Y22655000D03*
%TD*%
D17*
%TO.C,C18*%
X44770000Y20066000D03*
X46670000Y20066000D03*
%TD*%
D31*
%TO.C,U3*%
X34798000Y36830000D03*
D32*
X33623000Y36080000D03*
X33623000Y36580000D03*
X33623000Y37080000D03*
X33623000Y37580000D03*
X35973000Y37580000D03*
X35973000Y37080000D03*
X35973000Y36580000D03*
X35973000Y36080000D03*
%TD*%
D13*
%TO.C,R5*%
X22352000Y27789500D03*
X22352000Y29614500D03*
%TD*%
D14*
%TO.C,R11*%
X27432000Y25296500D03*
X27432000Y23471500D03*
%TD*%
D33*
%TO.C,U2*%
X44528500Y22164000D03*
X44528500Y24064000D03*
X46403500Y23114000D03*
%TD*%
D23*
%TO.C,C9*%
X22526000Y25908000D03*
X25226000Y25908000D03*
%TD*%
D14*
%TO.C,R4*%
X41783000Y29487500D03*
X41783000Y27662500D03*
%TD*%
D10*
%TO.C,C6*%
X31877000Y31181000D03*
X31877000Y33081000D03*
%TD*%
D17*
%TO.C,C2*%
X15560000Y11430000D03*
X17460000Y11430000D03*
%TD*%
D34*
%TO.C,C4*%
X41656000Y16938000D03*
X41656000Y19638000D03*
%TD*%
D19*
%TO.C,R2*%
X27582500Y30988000D03*
X25757500Y30988000D03*
%TD*%
D35*
%TO.C,U4*%
X16063000Y20706500D03*
X15113000Y20706500D03*
X14163000Y20706500D03*
X14163000Y22981500D03*
X16063000Y22981500D03*
%TD*%
D36*
%TO.C,R1*%
X43283500Y17018000D03*
X45108500Y17018000D03*
%TD*%
D15*
%TO.C,C14*%
X56449000Y31242000D03*
X54549000Y31242000D03*
%TD*%
D34*
%TO.C,C7*%
X29337000Y30908000D03*
X29337000Y33608000D03*
%TD*%
D37*
%TO.C,U1*%
X36892000Y29464000D03*
X36892000Y28194000D03*
X36892000Y26924000D03*
X36892000Y25654000D03*
X31942000Y25654000D03*
X31942000Y26924000D03*
X31942000Y28194000D03*
X31942000Y29464000D03*
%TD*%
D23*
%TO.C,C24*%
X14243000Y25497000D03*
X16943000Y25497000D03*
%TD*%
D16*
%TO.C,C16*%
X27432000Y28509000D03*
X27432000Y26609000D03*
%TD*%
D13*
%TO.C,R3*%
X32258000Y17375500D03*
X32258000Y19200500D03*
%TD*%
D38*
%TO.C,L1*%
X14478000Y13349000D03*
X14478000Y15099000D03*
%TD*%
D30*
%TO.C,C5*%
X29591000Y16969000D03*
X29591000Y14019000D03*
%TD*%
D19*
%TO.C,R7*%
X23772500Y15748000D03*
X21947500Y15748000D03*
%TD*%
M02*
