%TF.GenerationSoftware,KiCad,Pcbnew,7.0.7-7.0.7~ubuntu23.04.1*%
%TF.CreationDate,2023-09-24T10:41:31+00:00*%
%TF.ProjectId,PIND02,50494e44-3032-42e6-9b69-6361645f7063,rev?*%
%TF.SameCoordinates,Original*%
%TF.FileFunction,Soldermask,Top*%
%TF.FilePolarity,Negative*%
%FSLAX46Y46*%
G04 Gerber Fmt 4.6, Leading zero omitted, Abs format (unit mm)*
G04 Created by KiCad (PCBNEW 7.0.7-7.0.7~ubuntu23.04.1) date 2023-09-24 10:41:31*
%MOMM*%
%LPD*%
G01*
G04 APERTURE LIST*
G04 Aperture macros list*
%AMRoundRect*
0 Rectangle with rounded corners*
0 $1 Rounding radius*
0 $2 $3 $4 $5 $6 $7 $8 $9 X,Y pos of 4 corners*
0 Add a 4 corners polygon primitive as box body*
4,1,4,$2,$3,$4,$5,$6,$7,$8,$9,$2,$3,0*
0 Add four circle primitives for the rounded corners*
1,1,$1+$1,$2,$3*
1,1,$1+$1,$4,$5*
1,1,$1+$1,$6,$7*
1,1,$1+$1,$8,$9*
0 Add four rect primitives between the rounded corners*
20,1,$1+$1,$2,$3,$4,$5,0*
20,1,$1+$1,$4,$5,$6,$7,0*
20,1,$1+$1,$6,$7,$8,$9,0*
20,1,$1+$1,$8,$9,$2,$3,0*%
%AMFreePoly0*
4,1,6,0.500000,-0.850000,-0.500000,-0.850000,-0.500000,0.550000,-0.200000,0.850000,0.500000,0.850000,0.500000,-0.850000,0.500000,-0.850000,$1*%
%AMFreePoly1*
4,1,19,0.550000,-0.750000,0.000000,-0.750000,0.000000,-0.744911,-0.071157,-0.744911,-0.207708,-0.704816,-0.327430,-0.627875,-0.420627,-0.520320,-0.479746,-0.390866,-0.500000,-0.250000,-0.500000,0.250000,-0.479746,0.390866,-0.420627,0.520320,-0.327430,0.627875,-0.207708,0.704816,-0.071157,0.744911,0.000000,0.744911,0.000000,0.750000,0.550000,0.750000,0.550000,-0.750000,0.550000,-0.750000,
$1*%
%AMFreePoly2*
4,1,19,0.000000,0.744911,0.071157,0.744911,0.207708,0.704816,0.327430,0.627875,0.420627,0.520320,0.479746,0.390866,0.500000,0.250000,0.500000,-0.250000,0.479746,-0.390866,0.420627,-0.520320,0.327430,-0.627875,0.207708,-0.704816,0.071157,-0.744911,0.000000,-0.744911,0.000000,-0.750000,-0.550000,-0.750000,-0.550000,0.750000,0.000000,0.750000,0.000000,0.744911,0.000000,0.744911,
$1*%
G04 Aperture macros list end*
%ADD10R,1.524000X1.524000*%
%ADD11RoundRect,0.225000X-0.225000X-0.250000X0.225000X-0.250000X0.225000X0.250000X-0.225000X0.250000X0*%
%ADD12RoundRect,0.218750X-0.218750X-0.381250X0.218750X-0.381250X0.218750X0.381250X-0.218750X0.381250X0*%
%ADD13RoundRect,0.250000X-0.325000X-0.450000X0.325000X-0.450000X0.325000X0.450000X-0.325000X0.450000X0*%
%ADD14C,6.000000*%
%ADD15RoundRect,0.200000X-0.200000X-0.275000X0.200000X-0.275000X0.200000X0.275000X-0.200000X0.275000X0*%
%ADD16R,0.889000X1.397000*%
%ADD17RoundRect,0.250000X-0.250000X-0.475000X0.250000X-0.475000X0.250000X0.475000X-0.250000X0.475000X0*%
%ADD18R,1.300000X1.500000*%
%ADD19R,0.700000X3.000000*%
%ADD20C,2.000000*%
%ADD21RoundRect,0.150000X-0.587500X-0.150000X0.587500X-0.150000X0.587500X0.150000X-0.587500X0.150000X0*%
%ADD22C,2.050000*%
%ADD23C,2.250000*%
%ADD24R,0.550000X0.250000*%
%ADD25FreePoly0,0.000000*%
%ADD26RoundRect,0.150000X-0.512500X-0.150000X0.512500X-0.150000X0.512500X0.150000X-0.512500X0.150000X0*%
%ADD27RoundRect,0.150000X-0.825000X-0.150000X0.825000X-0.150000X0.825000X0.150000X-0.825000X0.150000X0*%
%ADD28C,1.524000*%
%ADD29RoundRect,0.237500X-0.287500X-0.237500X0.287500X-0.237500X0.287500X0.237500X-0.287500X0.237500X0*%
%ADD30FreePoly1,0.000000*%
%ADD31R,1.000000X1.500000*%
%ADD32FreePoly2,0.000000*%
G04 APERTURE END LIST*
D10*
%TO.C,J2*%
X76603000Y28665000D03*
X79143000Y28665000D03*
X76603000Y26125000D03*
X79143000Y26125000D03*
X76603000Y23585000D03*
X79143000Y23585000D03*
X76603000Y21045000D03*
X79143000Y21045000D03*
X76603000Y18505000D03*
X79143000Y18505000D03*
%TD*%
D11*
%TO.C,C22*%
X63958000Y19215000D03*
X65508000Y19215000D03*
%TD*%
D12*
%TO.C,L3*%
X84020500Y37435000D03*
X86145500Y37435000D03*
%TD*%
D11*
%TO.C,C3*%
X55938000Y29255000D03*
X57488000Y29255000D03*
%TD*%
D13*
%TO.C,L2*%
X84158000Y40285000D03*
X86208000Y40285000D03*
%TD*%
D14*
%TO.C,M2*%
X40640000Y40640000D03*
%TD*%
D11*
%TO.C,C20*%
X63958000Y24235000D03*
X65508000Y24235000D03*
%TD*%
D15*
%TO.C,R8*%
X71928000Y24235000D03*
X73578000Y24235000D03*
%TD*%
D16*
%TO.C,R12*%
X83954500Y34723000D03*
X85859500Y34723000D03*
%TD*%
D17*
%TO.C,C8*%
X76033000Y15155000D03*
X77933000Y15155000D03*
%TD*%
D10*
%TO.C,J3*%
X82833000Y13315000D03*
X85373000Y13315000D03*
%TD*%
D11*
%TO.C,C21*%
X63958000Y21725000D03*
X65508000Y21725000D03*
%TD*%
D14*
%TO.C,M4*%
X40640000Y10160000D03*
%TD*%
D11*
%TO.C,C11*%
X59948000Y26745000D03*
X61498000Y26745000D03*
%TD*%
D15*
%TO.C,R10*%
X71928000Y19215000D03*
X73578000Y19215000D03*
%TD*%
%TO.C,R9*%
X71928000Y21725000D03*
X73578000Y21725000D03*
%TD*%
%TO.C,R6*%
X71928000Y29255000D03*
X73578000Y29255000D03*
%TD*%
D11*
%TO.C,C12*%
X59948000Y24235000D03*
X61498000Y24235000D03*
%TD*%
D18*
%TO.C,C19*%
X61233000Y13450000D03*
D19*
X62583000Y13450000D03*
D18*
X63933000Y13450000D03*
%TD*%
D20*
%TO.C,FID1*%
X87653000Y22285000D03*
%TD*%
D11*
%TO.C,C10*%
X59948000Y29255000D03*
X61498000Y29255000D03*
%TD*%
D21*
%TO.C,Q1*%
X82495500Y22785000D03*
X82495500Y20885000D03*
X84370500Y21835000D03*
%TD*%
D11*
%TO.C,C23*%
X63958000Y16705000D03*
X65508000Y16705000D03*
%TD*%
%TO.C,C13*%
X59948000Y21725000D03*
X61498000Y21725000D03*
%TD*%
D17*
%TO.C,C17*%
X76033000Y12145000D03*
X77933000Y12145000D03*
%TD*%
D11*
%TO.C,C15*%
X59948000Y16705000D03*
X61498000Y16705000D03*
%TD*%
D22*
%TO.C,J1*%
X19140000Y33880000D03*
D23*
X21680000Y31340000D03*
X21680000Y36420000D03*
X16600000Y31340000D03*
X16600000Y36420000D03*
%TD*%
D11*
%TO.C,C18*%
X63958000Y26745000D03*
X65508000Y26745000D03*
%TD*%
D24*
%TO.C,U3*%
X83858000Y44535000D03*
X83858000Y44035000D03*
X83858000Y43535000D03*
X83858000Y43035000D03*
X86208000Y43035000D03*
X86208000Y43535000D03*
X86208000Y44035000D03*
X86208000Y44535000D03*
D25*
X85033000Y43785000D03*
%TD*%
D14*
%TO.C,M3*%
X10160000Y10160000D03*
%TD*%
D15*
%TO.C,R5*%
X67918000Y16705000D03*
X69568000Y16705000D03*
%TD*%
D20*
%TO.C,FID2*%
X87653000Y18735000D03*
%TD*%
D15*
%TO.C,R11*%
X71928000Y16705000D03*
X73578000Y16705000D03*
%TD*%
D21*
%TO.C,U2*%
X82495500Y18335000D03*
X82495500Y16435000D03*
X84370500Y17385000D03*
%TD*%
D11*
%TO.C,C9*%
X55938000Y16705000D03*
X57488000Y16705000D03*
%TD*%
D15*
%TO.C,R4*%
X67918000Y19215000D03*
X69568000Y19215000D03*
%TD*%
D11*
%TO.C,C6*%
X55938000Y21725000D03*
X57488000Y21725000D03*
%TD*%
D14*
%TO.C,M1*%
X10160000Y40640000D03*
%TD*%
D11*
%TO.C,C4*%
X55938000Y26745000D03*
X57488000Y26745000D03*
%TD*%
D15*
%TO.C,R2*%
X67918000Y24235000D03*
X69568000Y24235000D03*
%TD*%
D26*
%TO.C,U4*%
X56145500Y14175000D03*
X56145500Y13225000D03*
X56145500Y12275000D03*
X58420500Y12275000D03*
X58420500Y14175000D03*
%TD*%
D15*
%TO.C,R1*%
X67918000Y26745000D03*
X69568000Y26745000D03*
%TD*%
D11*
%TO.C,C14*%
X59948000Y19215000D03*
X61498000Y19215000D03*
%TD*%
%TO.C,C7*%
X55938000Y19215000D03*
X57488000Y19215000D03*
%TD*%
D27*
%TO.C,U1*%
X82738000Y29190000D03*
X82738000Y27920000D03*
X82738000Y26650000D03*
X82738000Y25380000D03*
X87688000Y25380000D03*
X87688000Y26650000D03*
X87688000Y27920000D03*
X87688000Y29190000D03*
%TD*%
D11*
%TO.C,C24*%
X67968000Y29255000D03*
X69518000Y29255000D03*
%TD*%
D28*
%TO.C,D2*%
X57758000Y40660000D03*
X57758000Y35660000D03*
%TD*%
D11*
%TO.C,C16*%
X63958000Y29255000D03*
X65508000Y29255000D03*
%TD*%
D15*
%TO.C,R3*%
X67918000Y21725000D03*
X69568000Y21725000D03*
%TD*%
D29*
%TO.C,L1*%
X84108000Y32135000D03*
X85858000Y32135000D03*
%TD*%
D11*
%TO.C,C5*%
X55938000Y24235000D03*
X57488000Y24235000D03*
%TD*%
D30*
%TO.C,JP1*%
X66833000Y13675000D03*
D31*
X68133000Y13675000D03*
D32*
X69433000Y13675000D03*
%TD*%
D15*
%TO.C,R7*%
X71928000Y26745000D03*
X73578000Y26745000D03*
%TD*%
M02*
